<svg xmlns="http://www.w3.org/2000/svg" viewBox="0 0 70.51 72.47"><defs><style>.a{fill:#e8b617;}.b{fill:none;stroke-width:2px;}.b,.c{stroke:#fff;stroke-miterlimit:10;}.c,.d{fill:#fff;}</style></defs><title>Commerce SOURCE FILES</title><ellipse class="a" cx="36.41" cy="36.65" rx="26.5" ry="26.49"/><circle class="b" cx="36.41" cy="36.65" r="21.24"/><path class="c" d="M36.38,30.42a6.29,6.29,0,0,0,.25-.92L39,28.57l-.56-3.06-2.35-.07a5.65,5.65,0,0,0-1.32-1.68l.31-2.25-2.87-1.06L31,22.36a5.61,5.61,0,0,0-2.1.41L27,21.29l-2.42,2,1.17,2.22a8.48,8.48,0,0,0-.41.86,6.29,6.29,0,0,0-.25.92l-2.33.93.55,3.06,2.35.07A5.77,5.77,0,0,0,27,33l-.31,2.26,2.87,1.06,1.24-1.91A6,6,0,0,0,32.9,34l1.82,1.48,2.42-2L36,31.28A5.64,5.64,0,0,0,36.38,30.42Zm.11,2.95L34.73,34.8l-1.51-1.22L33,33.4l-.27.1a5.42,5.42,0,0,1-1.91.38h-.28l-.15.24-1,1.55-2.1-.78.25-1.83,0-.28-.21-.19a5.24,5.24,0,0,1-1.21-1.52L26,30.81h-.29l-1.94-.06-.4-2.22,1.93-.77.26-.11.06-.28a6.68,6.68,0,0,1,.23-.84,5.46,5.46,0,0,1,.37-.79l.14-.25-.13-.25-1-1.84L27,22l1.51,1.22.23.18.27-.1a5.2,5.2,0,0,1,1.91-.38h.28l.15-.24,1-1.56,2.11.78-.25,1.84,0,.28.21.19a5.21,5.21,0,0,1,1.2,1.52l.14.26H36L38,26l.4,2.22L36.46,29l-.27.11-.06.28a5.33,5.33,0,0,1-.23.84,5.46,5.46,0,0,1-.37.79l-.14.25.13.25Z"/><path class="d" d="M32,25.42a3.16,3.16,0,1,0,1.78,4A3.1,3.1,0,0,0,32,25.42Zm-1.46,3.95a1.06,1.06,0,1,1,1.32-.64A1,1,0,0,1,30.51,29.37Z"/><path class="c" d="M40.36,47.42a4.91,4.91,0,0,0,.21-.75l2-.73L42,43.41l-2-.09a5.19,5.19,0,0,0-1.13-1.39l.24-1.85-2.44-.91-1,1.56a4.82,4.82,0,0,0-1.77.31L32.38,39.8l-2,1.59,1,1.85a5,5,0,0,0-.34.7,7,7,0,0,0-.21.75l-2,.74L29.34,48l2,.08a4.74,4.74,0,0,0,1.13,1.4l-.25,1.84,2.44.91,1-1.55a5.22,5.22,0,0,0,1.76-.31L39,51.56,41,50l-1-1.84A4.22,4.22,0,0,0,40.36,47.42Zm.11,2.44L39,51l-1.29-1-.19-.15-.23.08a4.67,4.67,0,0,1-1.61.29h-.24l-.13.2-.83,1.27L32.69,51l.2-1.51,0-.23-.18-.15a4.5,4.5,0,0,1-1-1.27l-.12-.22h-.25l-1.64-.07-.36-1.84L31,45.09l.22-.08,0-.23a3.8,3.8,0,0,1,.19-.69,4,4,0,0,1,.3-.64l.12-.21L31.74,43l-.83-1.52,1.47-1.16,1.29,1,.19.15.23-.09a4.66,4.66,0,0,1,1.61-.28h.24l.13-.19.84-1.27,1.78.66-.19,1.51,0,.23.17.16a4.4,4.4,0,0,1,1,1.27l.11.21H40l1.64.07L42,45.66l-1.63.61-.22.08,0,.24a3.69,3.69,0,0,1-.19.68,4.07,4.07,0,0,1-.3.65l-.12.2.11.21Z"/><path class="d" d="M36.6,43.26a2.58,2.58,0,1,0,1.53,3.33A2.59,2.59,0,0,0,36.6,43.26Zm-1.21,3.23a.86.86,0,1,1,.6-1.62A.87.87,0,0,1,36.5,46,.86.86,0,0,1,35.39,46.49Z"/><path class="c" d="M50.58,35.67a3.68,3.68,0,0,0-.06-.66l1.32-1.16L50.72,32l-1.58.52a4.1,4.1,0,0,0-1.29-.77l-.35-1.54H45.33L45,31.73a4.33,4.33,0,0,0-1.29.77L42.12,32,41,33.85,42.31,35a4.32,4.32,0,0,0,0,1.31L41,37.5l1.13,1.87,1.57-.52a4.33,4.33,0,0,0,1.29.77l.35,1.54H47.5l.35-1.54a4.1,4.1,0,0,0,1.29-.77l1.58.52,1.12-1.87-1.32-1.17A3.52,3.52,0,0,0,50.58,35.67Zm.8,1.9-.82,1.36-1.3-.43-.2-.07-.15.14a3.92,3.92,0,0,1-1.18.7l-.19.07,0,.19-.28,1.26h-1.6l-.28-1.26-.05-.19-.18-.07a3.8,3.8,0,0,1-1.18-.7l-.15-.14-.2.07-1.3.43-.82-1.36,1.09-1,.15-.14,0-.19a4.68,4.68,0,0,1-.05-.61,4.54,4.54,0,0,1,.05-.6l0-.2-.15-.13-1.09-1,.82-1.35,1.3.43.2.06.15-.13a3.83,3.83,0,0,1,1.18-.71l.18-.06.05-.2.28-1.25h1.6l.28,1.25,0,.2.19.06a4,4,0,0,1,1.18.71l.15.13.2-.06,1.3-.43.82,1.35-1.1,1-.15.13,0,.2a4.54,4.54,0,0,1,0,.6,4.68,4.68,0,0,1,0,.61l0,.2.15.13Z"/><path class="d" d="M46.42,33.48a2.2,2.2,0,1,0,2.17,2.19A2.18,2.18,0,0,0,46.42,33.48Zm0,2.93a.74.74,0,1,1,.72-.74A.73.73,0,0,1,46.42,36.41Z"/></svg>