<svg xmlns="http://www.w3.org/2000/svg" viewBox="0 0 70.51 72.47"><defs><style>.a{fill:#5f2c87;}.b{fill:#fff;}</style></defs><title>Commerce SOURCE FILES</title><ellipse class="a" cx="33.06" cy="34.94" rx="26.85" ry="26.84"/><ellipse class="b" cx="32.8" cy="20.6" rx="6.22" ry="2.63"/><path class="b" d="M39.25,21.51C38.93,22.89,36.16,24,32.8,24s-6.13-1.09-6.46-2.47h0V31.82h0c0,1.52,2.9,2.74,6.49,2.74s6.48-1.22,6.48-2.74V21.51Z"/><ellipse class="b" cx="22.96" cy="37.95" rx="6.22" ry="2.63"/><path class="b" d="M29.41,38.86c-.32,1.39-3.09,2.47-6.45,2.47s-6.13-1.08-6.46-2.47h0V49.18h0c0,1.51,2.91,2.74,6.49,2.74s6.48-1.23,6.48-2.74V38.86Z"/><ellipse class="b" cx="43.16" cy="37.95" rx="6.22" ry="2.63"/><path class="b" d="M49.61,38.86c-.32,1.39-3.09,2.47-6.45,2.47S37,40.25,36.7,38.86h0V49.18h0c0,1.51,2.91,2.74,6.49,2.74s6.48-1.23,6.48-2.74V38.86Z"/><rect class="b" x="30.26" y="43.8" width="5.64" height="3.17"/><path class="b" d="M25.72,31.67l-3,2.92h.47a13,13,0,0,1,3.35.41l.83-.81c-1-.49-1.68-1.14-1.68-1.85h0Z"/><path class="b" d="M42.68,34.56H43l-3.1-3.05v.92c0,.67-.57,1.28-1.51,1.76l.82.8A12.84,12.84,0,0,1,42.68,34.56Z"/></svg>