<svg xmlns="http://www.w3.org/2000/svg" viewBox="0 0 70.51 72.47"><defs><style>.a{fill:#e8b617;}.b{fill:#fff;}</style></defs><title>Commerce SOURCE FILES</title><ellipse class="a" cx="35.21" cy="39.95" rx="26.5" ry="26.49"/><path class="b" d="M44.82,31.53A4.81,4.81,0,1,0,40,26.73,4.8,4.8,0,0,0,44.82,31.53Zm0-8.41a3.61,3.61,0,1,1-3.61,3.61A3.61,3.61,0,0,1,44.82,23.12Z"/><path class="b" d="M48.43,33.94H41.21l-6,6-6-6H22a2.4,2.4,0,0,0-2.4,2.4V46l2.4,2.4v8.41A1.2,1.2,0,0,0,23.19,58H28a1.2,1.2,0,0,0,1.21-1.2V40l6,6,6-6V56.77A1.2,1.2,0,0,0,42.42,58h4.8a1.2,1.2,0,0,0,1.21-1.2V48.36l2.4-2.4V36.34A2.4,2.4,0,0,0,48.43,33.94Z"/><path class="b" d="M25.59,31.53a4.81,4.81,0,1,0-4.81-4.8A4.81,4.81,0,0,0,25.59,31.53Zm0-8.41A3.61,3.61,0,1,1,22,26.73,3.61,3.61,0,0,1,25.59,23.12Z"/></svg>