<?xml version="1.0" encoding="UTF-8" standalone="no"?>
<!DOCTYPE svg PUBLIC "-//W3C//DTD SVG 1.1//EN" "http://www.w3.org/Graphics/SVG/1.1/DTD/svg11.dtd">
<svg version="1.1" xmlns="http://www.w3.org/2000/svg" xmlns:xlink="http://www.w3.org/1999/xlink" preserveAspectRatio="xMidYMid meet" viewBox="0 0 640 640" width="640" height="640"><defs><path d="M4.1 319.42C4.1 492.99 144.8 633.71 318.39 633.71C491.96 633.71 632.67 492.99 632.67 319.42C632.67 145.85 491.96 5.13 318.39 5.13C144.8 5.13 4.1 145.85 4.1 319.42Z" id="b1kipSAnu0"></path><path d="M4.1 319.42C4.1 492.99 144.8 633.71 318.39 633.71C491.96 633.71 632.67 492.99 632.67 319.42C632.67 145.85 491.96 5.13 318.39 5.13C144.8 5.13 4.1 145.85 4.1 319.42Z" id="amtQ6HA5T"></path><path d="M306.35 218.73L307.45 218.81L308.54 218.95L309.61 219.11L310.67 219.32L311.72 219.56L312.75 219.85L313.76 220.17L314.75 220.53L315.74 220.94L316.69 221.37L317.64 221.83L318.55 222.34L319.45 222.87L320.33 223.43L321.18 224.04L322.01 224.66L322.82 225.32L323.6 226L324.36 226.72L325.09 227.46L325.79 228.24L326.45 229.04L327.09 229.84L327.7 230.69L328.28 231.57L328.83 232.46L329.34 233.36L329.83 234.3L330.27 235.25L330.69 236.23L331.07 237.21L331.4 238.22L331.71 239.25L331.97 240.29L332.2 241.35L332.37 242.41L332.52 243.5L332.63 244.6L332.68 245.71L332.68 257.17L351.19 320.89L351.32 320.86L351.53 320.81L351.63 320.77L351.79 320.69L351.85 320.65L351.92 320.59L351.99 320.55L352.1 320.44L352.22 320.28L352.26 320.21L352.29 320.16L352.33 320.11L352.35 320.05L352.38 319.99L352.41 319.93L352.45 319.88L352.5 319.77L352.54 319.72L352.57 319.66L352.65 319.55L352.7 319.51L352.74 319.47L352.8 319.43L352.93 319.35L353 319.33L353.16 319.27L353.26 319.24L353.35 319.23L353.47 319.22L353.58 319.22L353.71 319.2L354.72 319.26L355.72 319.34L356.7 319.46L357.67 319.61L358.64 319.81L359.59 320.04L360.52 320.3L361.45 320.59L362.35 320.92L363.24 321.28L364.11 321.67L364.98 322.09L365.81 322.55L366.63 323.02L367.43 323.53L368.21 324.07L368.96 324.63L369.71 325.23L370.42 325.85L371.12 326.49L371.78 327.15L372.43 327.85L373.05 328.57L373.64 329.31L374.2 330.06L374.76 330.84L375.27 331.64L375.75 332.46L376.2 333.31L376.63 334.16L377.02 335.03L377.38 335.94L377.71 336.84L378 337.77L378.27 338.7L378.5 339.66L378.69 340.63L378.85 341.61L378.97 342.61L379.05 343.6L404.29 351.17L404.71 350.41L405.14 349.68L405.58 348.99L406.03 348.34L406.47 347.72L406.93 347.16L407.39 346.62L407.86 346.11L408.33 345.64L408.81 345.19L409.3 344.79L409.8 344.4L410.3 344.05L410.81 343.72L411.31 343.43L411.83 343.16L412.34 342.9L412.87 342.67L413.41 342.47L413.93 342.3L414.47 342.12L415.01 341.99L415.56 341.85L416.12 341.74L416.67 341.65L417.22 341.57L418.35 341.43L419.48 341.35L420.06 341.33L421.8 341.29L425.32 341.29L426.14 341.27L426.96 341.27L427.78 341.3L428.59 341.35L429.4 341.43L430.21 341.53L430.99 341.66L431.78 341.81L432.57 342L433.33 342.19L434.1 342.42L434.86 342.66L436.34 343.23L437.07 343.55L437.78 343.89L438.48 344.24L439.18 344.61L439.85 345.02L440.53 345.43L441.17 345.88L441.82 346.34L442.44 346.82L443.06 347.32L443.65 347.83L444.23 348.37L444.8 348.92L445.35 349.5L445.89 350.1L446.4 350.7L446.9 351.32L447.37 351.97L447.83 352.63L448.27 353.3L448.69 353.99L449.08 354.69L449.47 355.42L449.82 356.14L450.16 356.9L450.47 357.67L450.83 358.66L451.16 359.66L451.44 360.67L451.67 361.68L451.87 362.69L452.02 363.7L452.14 364.71L452.21 365.72L452.24 366.73L452.24 367.74L452.18 368.74L452.1 369.74L451.97 370.72L451.8 371.71L451.6 372.68L451.37 373.65L451.09 374.6L450.78 375.53L450.44 376.46L450.07 377.38L449.65 378.28L449.2 379.16L448.72 380.02L448.21 380.87L447.65 381.69L447.08 382.5L446.46 383.28L445.82 384.05L445.15 384.79L444.43 385.5L443.71 386.19L442.94 386.85L442.14 387.48L441.32 388.07L440.47 388.65L439.6 389.19L438.7 389.7L437.77 390.18L436.81 390.62L435.84 391.02L446.35 446.12L447.05 445.69L447.41 445.49L447.76 445.29L449.22 444.54L449.58 444.36L449.96 444.2L450.34 444.02L450.7 443.86L451.08 443.71L451.45 443.55L451.84 443.4L452.22 443.27L452.61 443.13L452.99 443L453.38 442.88L453.77 442.74L455.33 442.31L455.74 442.22L456.13 442.12L456.94 441.96L457.33 441.88L458.54 441.68L458.94 441.63L459.35 441.58L459.77 441.53L460.17 441.49L460.57 441.46L460.99 441.44L461.4 441.41L461.8 441.4L462.38 441.4L462.57 441.41L462.77 441.41L463.52 441.46L463.73 441.48L464.48 441.53L464.67 441.56L464.86 441.57L465.06 441.6L466.57 441.81L466.76 441.85L466.95 441.88L468.27 442.16L468.44 442.2L468.63 442.24L468.82 442.3L469.01 442.34L469.2 442.39L469.37 442.45L519.64 330.88L519.1 330.51L518.56 330.12L518.05 329.73L517.53 329.32L517.04 328.9L516.55 328.47L516.07 328.03L515.61 327.57L515.16 327.11L514.72 326.64L514.29 326.16L513.48 325.16L513.09 324.65L512.71 324.12L512.35 323.6L512 323.06L511.66 322.52L511.35 321.95L511.04 321.4L510.74 320.83L510.46 320.26L510.19 319.68L509.94 319.08L509.71 318.49L509.48 317.88L509.26 317.28L509.07 316.67L508.72 315.43L508.58 314.8L508.44 314.17L508.32 313.53L508.13 312.24L508.06 311.59L508.01 310.95L507.97 310.3L507.94 309.64L507.93 308.98L507.96 307.89L508.02 306.82L508.13 305.76L508.28 304.71L508.47 303.68L508.71 302.66L508.98 301.66L509.29 300.67L509.63 299.7L510.02 298.75L510.43 297.81L510.88 296.89L511.36 296.01L511.89 295.13L512.44 294.28L513.02 293.46L513.64 292.65L514.29 291.88L514.96 291.13L515.66 290.4L516.39 289.7L517.14 289.03L517.91 288.39L518.72 287.77L519.55 287.19L520.4 286.64L521.28 286.13L522.17 285.65L523.08 285.19L524.01 284.77L524.97 284.39L525.94 284.06L526.92 283.75L527.93 283.48L528.96 283.25L529.98 283.06L531.03 282.91L532.1 282.8L533.18 282.75L534.25 282.72L534.15 281.98L535.24 282.01L536.3 282.08L537.37 282.18L538.42 282.33L539.44 282.52L540.46 282.75L541.47 283.02L542.46 283.33L543.43 283.67L544.38 284.06L545.31 284.47L546.23 284.92L547.12 285.4L547.99 285.93L548.84 286.48L549.68 287.06L550.47 287.67L551.25 288.31L552.01 288.99L552.74 289.69L553.44 290.41L554.11 291.17L554.74 291.95L555.36 292.75L555.94 293.58L556.5 294.43L557.02 295.3L557.51 296.19L557.95 297.11L558.37 298.04L558.75 299L559.1 299.97L559.41 300.95L559.67 301.96L559.9 302.97L560.09 304.01L560.24 305.06L560.35 306.12L560.42 307.19L560.43 308.28L560.42 309.36L560.35 310.43L560.24 311.48L560.09 312.54L559.9 313.57L559.67 314.6L559.41 315.59L559.1 316.58L558.75 317.55L558.37 318.5L557.95 319.43L557.51 320.35L557.02 321.25L556.5 322.11L555.94 322.98L555.36 323.8L554.74 324.61L554.11 325.37L553.44 326.13L552.74 326.86L552.01 327.56L551.25 328.23L550.47 328.88L549.68 329.48L548.84 330.08L547.99 330.63L547.12 331.14L546.23 331.63L545.31 332.08L544.38 332.5L543.43 332.88L542.46 333.22L541.47 333.53L540.46 333.79L539.44 334.02L538.42 334.21L537.37 334.36L536.3 334.47L535.24 334.54L534.15 334.56L534.05 334.56L533.97 334.58L533.88 334.58L533.78 334.59L533.59 334.59L533.5 334.6L533.23 334.6L533.13 334.62L531.48 334.62L531.38 334.6L531.11 334.6L531.02 334.59L530.83 334.59L530.74 334.58L530.66 334.58L530.56 334.56L530.47 334.56L479.15 447.7L479.77 448.24L480.36 448.81L480.94 449.39L481.5 449.98L482.04 450.58L482.55 451.2L483.05 451.84L483.52 452.48L483.96 453.14L484.39 453.82L484.8 454.5L485.19 455.21L485.55 455.91L485.89 456.62L486.21 457.35L486.51 458.07L486.78 458.82L487.03 459.56L487.26 460.31L487.46 461.08L487.65 461.85L487.81 462.61L487.95 463.4L488.06 464.18L488.15 464.96L488.22 465.75L488.26 466.54L488.27 467.33L488.27 468.12L488.23 468.92L488.18 469.71L488.1 470.51L487.99 471.3L487.87 472.1L487.71 472.89L487.53 473.68L487.33 474.47L487.1 475.25L486.84 476.03L486.56 476.8L486.16 477.8L485.71 478.77L485.24 479.71L484.73 480.63L484.19 481.53L483.62 482.39L483.02 483.23L482.39 484.04L481.71 484.8L481.02 485.56L480.31 486.27L479.57 486.96L478.8 487.62L478.02 488.24L477.2 488.83L476.38 489.4L475.51 489.92L474.65 490.42L473.76 490.88L472.85 491.31L471.93 491.7L471 492.05L470.05 492.37L469.09 492.66L468.11 492.91L467.14 493.12L466.14 493.29L465.14 493.43L464.13 493.52L463.12 493.57L462.1 493.59L461.07 493.57L460.05 493.51L459.02 493.4L458 493.25L456.98 493.06L455.95 492.83L454.93 492.55L453.92 492.24L452.91 491.88L451.91 491.47L450.93 491.03L449.99 490.56L449.07 490.04L448.18 489.5L447.32 488.93L446.48 488.33L445.67 487.7L444.89 487.03L444.15 486.34L443.42 485.62L442.74 484.88L442.09 484.12L441.46 483.32L440.86 482.51L440.31 481.68L439.77 480.83L439.29 479.95L438.82 479.06L438.4 478.16L438.01 477.25L437.64 476.3L437.32 475.36L437.04 474.4L436.8 473.42L436.58 472.44L436.42 471.45L436.28 470.46L436.19 469.45L436.12 468.43L436.11 467.41L436.14 466.39L436.2 465.36L436.31 464.34L436.46 463.32L436.65 462.29L436.88 461.27L437.15 460.24L437.47 459.23L437.83 458.21L425.01 393.13L427 393.13L427.59 393.18L427.76 393.18L428.05 393.21L428.2 393.21L428.35 393.22L428.5 393.22L428.65 393.23L428.79 393.23L428.94 393.25L429.4 393.25L429.55 393.26L430.45 393.26L430.6 393.25L430.67 393.25L430.59 393.23L430.4 393.23L430.32 393.22L430.22 393.22L430.13 393.21L430.05 393.21L429.95 393.19L429.87 393.18L429.78 393.18L429.68 393.17L429.6 393.15L429.41 393.13L429.12 393.13L429.06 393.11L428.81 393.11L428.75 393.1L428.55 393.1L428.5 393.09L428.35 393.09L428.3 393.07L428.15 393.07L428.09 393.06L428 393.06L427.94 393.04L427.8 393.04L427.74 393.03L427.69 393.03L427.64 393.02L427.54 393.02L427.49 393L427.39 393L426.41 392.87L425.45 392.71L424.51 392.52L423.59 392.28L422.68 392.01L421.79 391.7L420.91 391.36L420.05 391L419.21 390.59L418.39 390.16L417.58 389.69L416.82 389.21L416.05 388.68L415.32 388.13L414.61 387.55L413.92 386.94L413.26 386.32L412.61 385.66L412.01 384.99L411.41 384.29L410.86 383.57L410.32 382.83L409.82 382.07L409.35 381.28L408.91 380.49L408.49 379.67L408.11 378.83L407.76 377.98L407.44 377.12L407.16 376.23L406.91 375.34L406.7 374.44L406.51 373.52L406.36 372.59L406.25 371.65L406.19 370.71L406.15 369.75L406.16 368.78L406.2 367.81L406.28 366.84L406.28 360.32L380.94 355.17L380.56 355.96L380.16 356.72L379.73 357.49L379.28 358.23L378.83 358.96L378.34 359.67L377.84 360.36L377.32 361.05L376.79 361.71L376.23 362.36L375.66 362.99L375.08 363.61L374.47 364.2L373.85 364.78L373.22 365.35L372.57 365.89L371.91 366.41L371.24 366.92L370.55 367.41L369.84 367.88L369.13 368.32L368.4 368.75L367.67 369.17L366.92 369.56L366.15 369.93L365.38 370.28L364.6 370.6L363.8 370.91L363.01 371.19L362.2 371.46L361.38 371.71L360.56 371.92L359.72 372.12L358.89 372.28L358.04 372.45L357.19 372.57L356.33 372.68L355.47 372.76L354.59 372.81L353.71 372.84L353.5 372.84L353.42 372.85L352.12 372.85L351.1 372.8L350.09 372.72L349.08 372.58L348.1 372.42L347.11 372.22L346.16 371.97L345.2 371.69L344.27 371.38L343.35 371.03L342.45 370.64L341.58 370.22L340.71 369.78L339.86 369.29L339.04 368.78L338.25 368.24L337.47 367.66L336.71 367.06L335.98 366.44L335.28 365.78L334.6 365.09L333.95 364.38L333.32 363.65L332.72 362.88L332.16 362.1L331.62 361.3L331.11 360.47L330.62 359.62L330.18 358.76L329.77 357.87L329.38 356.97L329.05 356.05L328.74 355.11L328.47 354.15L328.22 353.18L328.04 352.2L327.87 351.2L327.75 350.19L327.67 349.17L327.63 348.13L327.65 347.48L327.67 346.84L327.71 346.2L327.77 345.56L327.83 344.91L327.91 344.28L328.01 343.63L328.25 342.36L328.39 341.74L328.71 340.5L328.9 339.9L329.09 339.3L329.3 338.73L329.52 338.16L329.76 337.59L330 337.04L330.26 336.52L330.53 335.99L330.81 335.49L331.11 335.01L331.4 334.54L331.73 334.09L332.05 333.66L332.39 333.26L332.74 332.87L333.1 332.5L333.47 332.16L333.84 331.84L334.23 331.56L334.64 331.29L335.04 331.06L335.46 330.84L335.89 330.67L336.32 330.52L336.77 330.4L337.22 330.32L337.68 330.27L338.15 330.25L319.12 268.21L319.12 265.26L318.78 265.52L318.44 265.76L318.09 266L317.04 266.69L316.68 266.91L316.32 267.11L315.95 267.32L315.59 267.51L315.21 267.71L314.85 267.89L314.47 268.08L314.09 268.25L313.7 268.41L313.32 268.58L312.93 268.74L312.54 268.89L311.37 269.29L310.97 269.41L310.58 269.53L309.77 269.75L308.96 269.94L308.56 270.02L308.14 270.1L307.73 270.17L306.9 270.3L306.49 270.34L306.08 270.4L305.66 270.44L304.82 270.49L304.41 270.5L303.97 270.52L303.56 270.53L302.84 270.54L302.14 270.54L301.43 270.53L300.03 270.42L299.34 270.34L298.64 270.23L297.97 270.11L297.28 269.98L296.61 269.82L295.29 269.44L294.63 269.22L293.98 268.98L293.35 268.72L292.71 268.46L292.09 268.17L291.47 267.86L290.87 267.54L290.27 267.2L289.12 266.47L288.55 266.08L288 265.68L286.92 264.82L286.41 264.36L285.91 263.9L285.41 263.42L284.93 262.92L284.47 262.41L284.01 261.88L283.58 261.33L283.16 260.78L282.74 260.21L282.35 259.63L281.97 259.04L281.62 258.43L281.27 257.8L280.95 257.17L177.38 345.18L177.49 345.53L177.53 345.7L177.58 345.88L177.66 346.23L177.71 346.4L177.8 346.75L177.84 346.94L177.86 347.12L177.94 347.47L177.97 347.64L178.01 347.82L178.04 348.01L178.08 348.18L178.13 348.53L178.16 348.72L178.21 349.07L178.23 349.26L178.25 349.44L178.27 349.61L178.29 349.8L178.31 349.97L178.33 350.16L178.36 350.51L178.37 350.7L178.39 350.88L178.39 351.07L178.4 351.24L178.42 351.43L178.42 351.6L178.43 351.78L178.43 352.88L178.37 353.99L178.33 354.54L178.28 355.09L178.15 356.17L178.05 356.72L177.96 357.25L177.85 357.79L177.73 358.33L177.46 359.38L177.3 359.9L177.14 360.42L176.96 360.94L176.79 361.45L176.58 361.95L176.38 362.46L176.17 362.96L175.94 363.45L175.69 363.95L175.45 364.43L175.2 364.9L174.66 365.84L174.36 366.32L174.06 366.76L173.77 367.22L173.12 368.11L172.78 368.54L172.45 368.96L172.08 369.39L171.36 370.2L170.98 370.6L170.59 370.99L169.78 371.75L168.96 372.46L168.12 373.12L167.26 373.75L166.38 374.33L165.5 374.88L164.59 375.4L163.66 375.87L162.73 376.3L161.79 376.69L160.82 377.04L159.85 377.35L158.88 377.63L157.9 377.86L156.9 378.06L155.9 378.23L154.91 378.35L153.9 378.43L152.9 378.47L151.89 378.47L150.89 378.44L149.88 378.37L148.88 378.27L147.89 378.12L146.9 377.93L145.92 377.7L144.94 377.44L143.98 377.13L143.02 376.8L142.08 376.42L141.15 376.02L140.24 375.56L139.33 375.07L138.44 374.55L137.57 373.98L136.72 373.39L135.9 372.74L135.09 372.07L134.29 371.35L133.54 370.6L132.8 369.82L132.1 369L131.42 368.16L130.79 367.31L130.21 366.44L129.66 365.55L129.15 364.63L128.68 363.72L128.25 362.77L127.85 361.83L127.5 360.87L127.19 359.9L126.91 358.92L126.68 357.94L126.48 356.95L126.32 355.96L126.2 354.95L126.12 353.95L126.08 352.94L126.08 351.94L126.1 350.93L126.17 349.93L126.29 348.92L126.43 347.94L126.62 346.94L126.84 345.96L127.1 344.99L127.41 344.02L127.75 343.06L128.12 342.12L128.53 341.19L128.99 340.27L129.47 339.37L130 338.48L130.56 337.62L131.16 336.77L131.8 335.94L132.48 335.13L133.19 334.35L133.94 333.58L134.73 332.84L135.55 332.14L136.38 331.46L137.23 330.84L138.11 330.25L139 329.71L139.91 329.2L140.83 328.73L141.77 328.3L142.71 327.91L143.67 327.54L144.64 327.23L145.62 326.96L146.61 326.72L147.6 326.52L148.6 326.37L149.6 326.25L150.6 326.17L151.61 326.12L152.6 326.12L153.61 326.14L154.61 326.22L155.62 326.33L156.6 326.48L157.6 326.67L158.58 326.88L159.55 327.15L160.52 327.45L161.48 327.79L162.42 328.16L163.35 328.58L164.27 329.03L165.17 329.51L166.06 330.04L166.92 330.6L167.77 331.21L168.61 331.84L169.42 332.51L170.2 333.23L170.97 333.98L171.71 334.76L277.91 244.66L277.91 244.33L277.97 243.24L278.07 242.16L278.22 241.09L278.39 240.04L278.62 239.01L278.89 237.98L279.19 236.98L279.52 236L279.9 235.03L280.32 234.09L280.78 233.16L281.26 232.24L281.77 231.37L282.33 230.5L282.9 229.67L283.52 228.85L284.16 228.05L284.83 227.3L285.53 226.56L286.26 225.84L287.03 225.17L287.79 224.51L288.6 223.89L289.44 223.3L290.29 222.73L291.16 222.21L292.05 221.72L292.98 221.25L293.91 220.83L294.87 220.44L295.84 220.09L296.82 219.77L297.83 219.5L298.86 219.26L299.88 219.05L300.93 218.89L301.99 218.78L303.06 218.7L304.15 218.68L305.24 218.69L306.35 218.73ZM458.53 453.4L456.84 453.94L455.25 454.67L453.77 455.58L452.41 456.65L451.2 457.87L450.12 459.22L449.22 460.7L448.49 462.29L447.95 463.98L447.61 465.74L447.51 467.57L447.61 469.4L447.95 471.17L448.49 472.85L449.22 474.44L450.13 475.93L451.2 477.29L452.44 478.5L453.8 479.58L455.28 480.48L456.88 481.21L458.58 481.75L460.37 482.07L462.23 482.19L464.05 482.07L465.8 481.72L467.47 481.18L469.06 480.44L470.53 479.54L471.86 478.46L473.08 477.25L474.14 475.88L475.04 474.42L475.76 472.83L476.3 471.16L476.62 469.39L476.74 467.57L476.62 465.74L476.3 463.98L475.76 462.29L475.03 460.7L474.11 459.22L473.05 457.87L471.82 456.65L470.48 455.58L468.99 454.67L467.4 453.94L465.72 453.4L463.96 453.08L462.12 452.96L460.29 453.08L458.53 453.4ZM432.39 393.18L432.24 393.18L431.95 393.21L431.8 393.21L431.65 393.22L431.5 393.22L431.35 393.23L431.19 393.23L431.04 393.25L430.94 393.25L431.03 393.26L431.38 393.26L431.47 393.25L431.74 393.25L431.84 393.23L432.01 393.23L432.11 393.22L432.19 393.22L432.28 393.21L432.38 393.21L432.46 393.19L432.55 393.18L432.63 393.18L432.82 393.15L432.9 393.14L433 393.13L432.55 393.17L432.39 393.18ZM422.76 352.52L421.07 353.03L419.47 353.73L417.98 354.62L416.61 355.69L415.38 356.89L414.28 358.23L413.35 359.71L412.6 361.3L412.05 363L411.68 364.78L411.55 366.63L411.55 366.73L411.66 368.57L411.99 370.33L412.53 372.01L413.26 373.6L414.16 375.09L415.23 376.45L416.45 377.66L417.81 378.74L419.3 379.64L420.87 380.37L422.56 380.91L424.32 381.24L426.17 381.35L427.97 381.24L429.72 380.91L431.39 380.38L432.97 379.67L434.44 378.78L435.8 377.73L437.01 376.53L438.08 375.19L438.99 373.73L439.73 372.16L440.29 370.51L440.64 368.75L440.77 366.95L440.69 365.12L440.38 363.34L439.87 361.65L439.15 360.05L438.28 358.56L437.23 357.18L436.03 355.96L434.68 354.87L433.21 353.94L431.64 353.18L429.97 352.62L428.2 352.26L426.37 352.12L424.54 352.21L422.76 352.52ZM148.55 338.05L146.86 338.59L145.27 339.32L143.79 340.23L142.44 341.3L141.22 342.52L140.15 343.87L139.24 345.35L138.51 346.94L137.97 348.63L137.65 350.39L137.53 352.22L137.65 354.06L137.97 355.82L138.51 357.51L139.24 359.1L140.15 360.58L141.23 361.94L142.46 363.15L143.82 364.23L145.31 365.13L146.9 365.86L148.61 366.4L150.39 366.72L152.25 366.84L154.07 366.72L155.81 366.38L157.48 365.83L159.06 365.12L160.51 364.21L161.86 363.15L163.07 361.94L164.13 360.59L165.02 359.14L165.75 357.56L166.29 355.89L166.64 354.15L166.76 352.33L166.76 352.22L166.64 350.39L166.32 348.63L165.78 346.94L165.05 345.35L164.15 343.87L163.07 342.52L161.86 341.3L160.5 340.23L159.02 339.32L157.43 338.59L155.74 338.05L153.98 337.73L152.14 337.61L150.31 337.73L148.55 338.05ZM350.12 330.91L348.43 331.44L346.84 332.18L345.36 333.08L344.01 334.14L342.79 335.37L341.72 336.73L340.81 338.2L340.08 339.79L339.54 341.47L339.22 343.24L339.1 345.07L339.22 346.9L339.54 348.67L340.08 350.35L340.81 351.94L341.71 353.42L342.79 354.77L344 355.98L345.36 357.05L346.84 357.95L348.43 358.66L350.12 359.18L351.88 359.5L353.71 359.58L355.53 359.47L357.28 359.15L358.95 358.62L360.53 357.91L362 357.02L363.35 355.96L364.57 354.76L365.64 353.42L366.55 351.97L367.29 350.41L367.85 348.74L368.2 347L368.33 345.18L368.33 345.07L368.21 343.24L367.89 341.47L367.35 339.79L366.62 338.2L365.72 336.73L364.64 335.37L363.43 334.14L362.07 333.08L360.58 332.18L358.99 331.44L357.31 330.91L355.55 330.57L353.71 330.45L351.88 330.57L350.12 330.91ZM530.45 294.66L528.77 295.21L527.18 295.95L525.71 296.87L524.36 297.95L523.15 299.17L522.09 300.53L521.2 302.03L520.48 303.62L519.96 305.3L519.64 307.07L519.53 308.9L519.66 310.73L520 312.5L520.55 314.18L521.29 315.77L522.21 317.24L523.29 318.6L524.51 319.81L525.89 320.87L527.37 321.79L528.96 322.52L530.66 323.06L532.42 323.39L534.25 323.52L536.07 323.39L537.84 323.06L539.51 322.51L541.08 321.78L542.55 320.86L543.9 319.8L545.11 318.57L546.16 317.22L547.06 315.74L547.79 314.17L548.32 312.48L548.65 310.73L548.76 308.9L548.76 308.7L548.64 306.86L548.29 305.1L547.74 303.42L547 301.84L546.08 300.37L545 299.01L543.78 297.8L542.42 296.75L540.92 295.84L539.33 295.13L537.65 294.6L535.88 294.28L534.04 294.19L532.21 294.31L530.45 294.66ZM299.96 229.75L298.28 230.29L296.69 231.02L295.2 231.93L293.86 233L292.63 234.22L291.57 235.57L290.65 237.05L289.92 238.64L289.38 240.33L289.06 242.09L288.94 243.92L289.06 245.75L289.38 247.52L289.92 249.2L290.65 250.79L291.57 252.28L292.63 253.64L293.86 254.86L295.2 255.94L296.69 256.86L298.28 257.6L299.96 258.16L301.73 258.51L303.56 258.65L303.67 258.65L305.5 258.51L307.26 258.18L308.93 257.62L310.52 256.88L311.99 255.97L313.34 254.89L314.55 253.66L315.61 252.29L316.5 250.81L317.23 249.22L317.76 247.52L318.07 245.75L318.17 243.92L318.05 242.09L317.73 240.33L317.19 238.64L316.46 237.05L315.56 235.57L314.48 234.22L313.27 233L311.91 231.93L310.43 231.02L308.84 230.29L307.15 229.75L305.39 229.43L303.56 229.31L301.73 229.43L299.96 229.75Z" id="a1O5QSfWJt"></path><path d="M306.35 218.73L307.45 218.81L308.54 218.95L309.61 219.11L310.67 219.32L311.72 219.56L312.75 219.85L313.76 220.17L314.75 220.53L315.74 220.94L316.69 221.37L317.64 221.83L318.55 222.34L319.45 222.87L320.33 223.43L321.18 224.04L322.01 224.66L322.82 225.32L323.6 226L324.36 226.72L325.09 227.46L325.79 228.24L326.45 229.04L327.09 229.84L327.7 230.69L328.28 231.57L328.83 232.46L329.34 233.36L329.83 234.3L330.27 235.25L330.69 236.23L331.07 237.21L331.4 238.22L331.71 239.25L331.97 240.29L332.2 241.35L332.37 242.41L332.52 243.5L332.63 244.6L332.68 245.71L332.68 257.17L351.19 320.89L351.32 320.86L351.53 320.81L351.63 320.77L351.79 320.69L351.85 320.65L351.92 320.59L351.99 320.55L352.1 320.44L352.22 320.28L352.26 320.21L352.29 320.16L352.33 320.11L352.35 320.05L352.38 319.99L352.41 319.93L352.45 319.88L352.5 319.77L352.54 319.72L352.57 319.66L352.65 319.55L352.7 319.51L352.74 319.47L352.8 319.43L352.93 319.35L353 319.33L353.16 319.27L353.26 319.24L353.35 319.23L353.47 319.22L353.58 319.22L353.71 319.2L354.72 319.26L355.72 319.34L356.7 319.46L357.67 319.61L358.64 319.81L359.59 320.04L360.52 320.3L361.45 320.59L362.35 320.92L363.24 321.28L364.11 321.67L364.98 322.09L365.81 322.55L366.63 323.02L367.43 323.53L368.21 324.07L368.96 324.63L369.71 325.23L370.42 325.85L371.12 326.49L371.78 327.15L372.43 327.85L373.05 328.57L373.64 329.31L374.2 330.06L374.76 330.84L375.27 331.64L375.75 332.46L376.2 333.31L376.63 334.16L377.02 335.03L377.38 335.94L377.71 336.84L378 337.77L378.27 338.7L378.5 339.66L378.69 340.63L378.85 341.61L378.97 342.61L379.05 343.6L404.29 351.17L404.71 350.41L405.14 349.68L405.58 348.99L406.03 348.34L406.47 347.72L406.93 347.16L407.39 346.62L407.86 346.11L408.33 345.64L408.81 345.19L409.3 344.79L409.8 344.4L410.3 344.05L410.81 343.72L411.31 343.43L411.83 343.16L412.34 342.9L412.87 342.67L413.41 342.47L413.93 342.3L414.47 342.12L415.01 341.99L415.56 341.85L416.12 341.74L416.67 341.65L417.22 341.57L418.35 341.43L419.48 341.35L420.06 341.33L421.8 341.29L425.32 341.29L426.14 341.27L426.96 341.27L427.78 341.3L428.59 341.35L429.4 341.43L430.21 341.53L430.99 341.66L431.78 341.81L432.57 342L433.33 342.19L434.1 342.42L434.86 342.66L436.34 343.23L437.07 343.55L437.78 343.89L438.48 344.24L439.18 344.61L439.85 345.02L440.53 345.43L441.17 345.88L441.82 346.34L442.44 346.82L443.06 347.32L443.65 347.83L444.23 348.37L444.8 348.92L445.35 349.5L445.89 350.1L446.4 350.7L446.9 351.32L447.37 351.97L447.83 352.63L448.27 353.3L448.69 353.99L449.08 354.69L449.47 355.42L449.82 356.14L450.16 356.9L450.47 357.67L450.83 358.66L451.16 359.66L451.44 360.67L451.67 361.68L451.87 362.69L452.02 363.7L452.14 364.71L452.21 365.72L452.24 366.73L452.24 367.74L452.18 368.74L452.1 369.74L451.97 370.72L451.8 371.71L451.6 372.68L451.37 373.65L451.09 374.6L450.78 375.53L450.44 376.46L450.07 377.38L449.65 378.28L449.2 379.16L448.72 380.02L448.21 380.87L447.65 381.69L447.08 382.5L446.46 383.28L445.82 384.05L445.15 384.79L444.43 385.5L443.71 386.19L442.94 386.85L442.14 387.48L441.32 388.07L440.47 388.65L439.6 389.19L438.7 389.7L437.77 390.18L436.81 390.62L435.84 391.02L446.35 446.12L447.05 445.69L447.41 445.49L447.76 445.29L449.22 444.54L449.58 444.36L449.96 444.2L450.34 444.02L450.7 443.86L451.08 443.71L451.45 443.55L451.84 443.4L452.22 443.27L452.61 443.13L452.99 443L453.38 442.88L453.77 442.74L455.33 442.31L455.74 442.22L456.13 442.12L456.94 441.96L457.33 441.88L458.54 441.68L458.94 441.63L459.35 441.58L459.77 441.53L460.17 441.49L460.57 441.46L460.99 441.44L461.4 441.41L461.8 441.4L462.38 441.4L462.57 441.41L462.77 441.41L463.52 441.46L463.73 441.48L464.48 441.53L464.67 441.56L464.86 441.57L465.06 441.6L466.57 441.81L466.76 441.85L466.95 441.88L468.27 442.16L468.44 442.2L468.63 442.24L468.82 442.3L469.01 442.34L469.2 442.39L469.37 442.45L519.64 330.88L519.1 330.51L518.56 330.12L518.05 329.73L517.53 329.32L517.04 328.9L516.55 328.47L516.07 328.03L515.61 327.57L515.16 327.11L514.72 326.64L514.29 326.16L513.48 325.16L513.09 324.65L512.71 324.12L512.35 323.6L512 323.06L511.66 322.52L511.35 321.95L511.04 321.4L510.74 320.83L510.46 320.26L510.19 319.68L509.94 319.08L509.71 318.49L509.48 317.88L509.26 317.28L509.07 316.67L508.72 315.43L508.58 314.8L508.44 314.17L508.32 313.53L508.13 312.24L508.06 311.59L508.01 310.95L507.97 310.3L507.94 309.64L507.93 308.98L507.96 307.89L508.02 306.82L508.13 305.76L508.28 304.71L508.47 303.68L508.71 302.66L508.98 301.66L509.29 300.67L509.63 299.7L510.02 298.75L510.43 297.81L510.88 296.89L511.36 296.01L511.89 295.13L512.44 294.28L513.02 293.46L513.64 292.65L514.29 291.88L514.96 291.13L515.66 290.4L516.39 289.7L517.14 289.03L517.91 288.39L518.72 287.77L519.55 287.19L520.4 286.64L521.28 286.13L522.17 285.65L523.08 285.19L524.01 284.77L524.97 284.39L525.94 284.06L526.92 283.75L527.93 283.48L528.96 283.25L529.98 283.06L531.03 282.91L532.1 282.8L533.18 282.75L534.25 282.72L534.15 281.98L535.24 282.01L536.3 282.08L537.37 282.18L538.42 282.33L539.44 282.52L540.46 282.75L541.47 283.02L542.46 283.33L543.43 283.67L544.38 284.06L545.31 284.47L546.23 284.92L547.12 285.4L547.99 285.93L548.84 286.48L549.68 287.06L550.47 287.67L551.25 288.31L552.01 288.99L552.74 289.69L553.44 290.41L554.11 291.17L554.74 291.95L555.36 292.75L555.94 293.58L556.5 294.43L557.02 295.3L557.51 296.19L557.95 297.11L558.37 298.04L558.75 299L559.1 299.97L559.41 300.95L559.67 301.96L559.9 302.97L560.09 304.01L560.24 305.06L560.35 306.12L560.42 307.19L560.43 308.28L560.42 309.36L560.35 310.43L560.24 311.48L560.09 312.54L559.9 313.57L559.67 314.6L559.41 315.59L559.1 316.58L558.75 317.55L558.37 318.5L557.95 319.43L557.51 320.35L557.02 321.25L556.5 322.11L555.94 322.98L555.36 323.8L554.74 324.61L554.11 325.37L553.44 326.13L552.74 326.86L552.01 327.56L551.25 328.23L550.47 328.88L549.68 329.48L548.84 330.08L547.99 330.63L547.12 331.14L546.23 331.63L545.31 332.08L544.38 332.5L543.43 332.88L542.46 333.22L541.47 333.53L540.46 333.79L539.44 334.02L538.42 334.21L537.37 334.36L536.3 334.47L535.24 334.54L534.15 334.56L534.05 334.56L533.97 334.58L533.88 334.58L533.78 334.59L533.59 334.59L533.5 334.6L533.23 334.6L533.13 334.62L531.48 334.62L531.38 334.6L531.11 334.6L531.02 334.59L530.83 334.59L530.74 334.58L530.66 334.58L530.56 334.56L530.47 334.56L479.15 447.7L479.77 448.24L480.36 448.81L480.94 449.39L481.5 449.98L482.04 450.58L482.55 451.2L483.05 451.84L483.52 452.48L483.96 453.14L484.39 453.82L484.8 454.5L485.19 455.21L485.55 455.91L485.89 456.62L486.21 457.35L486.51 458.07L486.78 458.82L487.03 459.56L487.26 460.31L487.46 461.08L487.65 461.85L487.81 462.61L487.95 463.4L488.06 464.18L488.15 464.96L488.22 465.75L488.26 466.54L488.27 467.33L488.27 468.12L488.23 468.92L488.18 469.71L488.1 470.51L487.99 471.3L487.87 472.1L487.71 472.89L487.53 473.68L487.33 474.47L487.1 475.25L486.84 476.03L486.56 476.8L486.16 477.8L485.71 478.77L485.24 479.71L484.73 480.63L484.19 481.53L483.62 482.39L483.02 483.23L482.39 484.04L481.71 484.8L481.02 485.56L480.31 486.27L479.57 486.96L478.8 487.62L478.02 488.24L477.2 488.83L476.38 489.4L475.51 489.92L474.65 490.42L473.76 490.88L472.85 491.31L471.93 491.7L471 492.05L470.05 492.37L469.09 492.66L468.11 492.91L467.14 493.12L466.14 493.29L465.14 493.43L464.13 493.52L463.12 493.57L462.1 493.59L461.07 493.57L460.05 493.51L459.02 493.4L458 493.25L456.98 493.06L455.95 492.83L454.93 492.55L453.92 492.24L452.91 491.88L451.91 491.47L450.93 491.03L449.99 490.56L449.07 490.04L448.18 489.5L447.32 488.93L446.48 488.33L445.67 487.7L444.89 487.03L444.15 486.34L443.42 485.62L442.74 484.88L442.09 484.12L441.46 483.32L440.86 482.51L440.31 481.68L439.77 480.83L439.29 479.95L438.82 479.06L438.4 478.16L438.01 477.25L437.64 476.3L437.32 475.36L437.04 474.4L436.8 473.42L436.58 472.44L436.42 471.45L436.28 470.46L436.19 469.45L436.12 468.43L436.11 467.41L436.14 466.39L436.2 465.36L436.31 464.34L436.46 463.32L436.65 462.29L436.88 461.27L437.15 460.24L437.47 459.23L437.83 458.21L425.01 393.13L427 393.13L427.59 393.18L427.76 393.18L428.05 393.21L428.2 393.21L428.35 393.22L428.5 393.22L428.65 393.23L428.79 393.23L428.94 393.25L429.4 393.25L429.55 393.26L430.45 393.26L430.6 393.25L430.67 393.25L430.59 393.23L430.4 393.23L430.32 393.22L430.22 393.22L430.13 393.21L430.05 393.21L429.95 393.19L429.87 393.18L429.78 393.18L429.68 393.17L429.6 393.15L429.41 393.13L429.12 393.13L429.06 393.11L428.81 393.11L428.75 393.1L428.55 393.1L428.5 393.09L428.35 393.09L428.3 393.07L428.15 393.07L428.09 393.06L428 393.06L427.94 393.04L427.8 393.04L427.74 393.03L427.69 393.03L427.64 393.02L427.54 393.02L427.49 393L427.39 393L426.41 392.87L425.45 392.71L424.51 392.52L423.59 392.28L422.68 392.01L421.79 391.7L420.91 391.36L420.05 391L419.21 390.59L418.39 390.16L417.58 389.69L416.82 389.21L416.05 388.68L415.32 388.13L414.61 387.55L413.92 386.94L413.26 386.32L412.61 385.66L412.01 384.99L411.41 384.29L410.86 383.57L410.32 382.83L409.82 382.07L409.35 381.28L408.91 380.49L408.49 379.67L408.11 378.83L407.76 377.98L407.44 377.12L407.16 376.23L406.91 375.34L406.7 374.44L406.51 373.52L406.36 372.59L406.25 371.65L406.19 370.71L406.15 369.75L406.16 368.78L406.2 367.81L406.28 366.84L406.28 360.32L380.94 355.17L380.56 355.96L380.16 356.72L379.73 357.49L379.28 358.23L378.83 358.96L378.34 359.67L377.84 360.36L377.32 361.05L376.79 361.71L376.23 362.36L375.66 362.99L375.08 363.61L374.47 364.2L373.85 364.78L373.22 365.35L372.57 365.89L371.91 366.41L371.24 366.92L370.55 367.41L369.84 367.88L369.13 368.32L368.4 368.75L367.67 369.17L366.92 369.56L366.15 369.93L365.38 370.28L364.6 370.6L363.8 370.91L363.01 371.19L362.2 371.46L361.38 371.71L360.56 371.92L359.72 372.12L358.89 372.28L358.04 372.45L357.19 372.57L356.33 372.68L355.47 372.76L354.59 372.81L353.71 372.84L353.5 372.84L353.42 372.85L352.12 372.85L351.1 372.8L350.09 372.72L349.08 372.58L348.1 372.42L347.11 372.22L346.16 371.97L345.2 371.69L344.27 371.38L343.35 371.03L342.45 370.64L341.58 370.22L340.71 369.78L339.86 369.29L339.04 368.78L338.25 368.24L337.47 367.66L336.71 367.06L335.98 366.44L335.28 365.78L334.6 365.09L333.95 364.38L333.32 363.65L332.72 362.88L332.16 362.1L331.62 361.3L331.11 360.47L330.62 359.62L330.18 358.76L329.77 357.87L329.38 356.97L329.05 356.05L328.74 355.11L328.47 354.15L328.22 353.18L328.04 352.2L327.87 351.2L327.75 350.19L327.67 349.17L327.63 348.13L327.65 347.48L327.67 346.84L327.71 346.2L327.77 345.56L327.83 344.91L327.91 344.28L328.01 343.63L328.25 342.36L328.39 341.74L328.71 340.5L328.9 339.9L329.09 339.3L329.3 338.73L329.52 338.16L329.76 337.59L330 337.04L330.26 336.52L330.53 335.99L330.81 335.49L331.11 335.01L331.4 334.54L331.73 334.09L332.05 333.66L332.39 333.26L332.74 332.87L333.1 332.5L333.47 332.16L333.84 331.84L334.23 331.56L334.64 331.29L335.04 331.06L335.46 330.84L335.89 330.67L336.32 330.52L336.77 330.4L337.22 330.32L337.68 330.27L338.15 330.25L319.12 268.21L319.12 265.26L318.78 265.52L318.44 265.76L318.09 266L317.04 266.69L316.68 266.91L316.32 267.11L315.95 267.32L315.59 267.51L315.21 267.71L314.85 267.89L314.47 268.08L314.09 268.25L313.7 268.41L313.32 268.58L312.93 268.74L312.54 268.89L311.37 269.29L310.97 269.41L310.58 269.53L309.77 269.75L308.96 269.94L308.56 270.02L308.14 270.1L307.73 270.17L306.9 270.3L306.49 270.34L306.08 270.4L305.66 270.44L304.82 270.49L304.41 270.5L303.97 270.52L303.56 270.53L302.84 270.54L302.14 270.54L301.43 270.53L300.03 270.42L299.34 270.34L298.64 270.23L297.97 270.11L297.28 269.98L296.61 269.82L295.29 269.44L294.63 269.22L293.98 268.98L293.35 268.72L292.71 268.46L292.09 268.17L291.47 267.86L290.87 267.54L290.27 267.2L289.12 266.47L288.55 266.08L288 265.68L286.92 264.82L286.41 264.36L285.91 263.9L285.41 263.42L284.93 262.92L284.47 262.41L284.01 261.88L283.58 261.33L283.16 260.78L282.74 260.21L282.35 259.63L281.97 259.04L281.62 258.43L281.27 257.8L280.95 257.17L177.38 345.18L177.49 345.53L177.53 345.7L177.58 345.88L177.66 346.23L177.71 346.4L177.8 346.75L177.84 346.94L177.86 347.12L177.94 347.47L177.97 347.64L178.01 347.82L178.04 348.01L178.08 348.18L178.13 348.53L178.16 348.72L178.21 349.07L178.23 349.26L178.25 349.44L178.27 349.61L178.29 349.8L178.31 349.97L178.33 350.16L178.36 350.51L178.37 350.7L178.39 350.88L178.39 351.07L178.4 351.24L178.42 351.43L178.42 351.6L178.43 351.78L178.43 352.88L178.37 353.99L178.33 354.54L178.28 355.09L178.15 356.17L178.05 356.72L177.96 357.25L177.85 357.79L177.73 358.33L177.46 359.38L177.3 359.9L177.14 360.42L176.96 360.94L176.79 361.45L176.58 361.95L176.38 362.46L176.17 362.96L175.94 363.45L175.69 363.95L175.45 364.43L175.2 364.9L174.66 365.84L174.36 366.32L174.06 366.76L173.77 367.22L173.12 368.11L172.78 368.54L172.45 368.96L172.08 369.39L171.36 370.2L170.98 370.6L170.59 370.99L169.78 371.75L168.96 372.46L168.12 373.12L167.26 373.75L166.38 374.33L165.5 374.88L164.59 375.4L163.66 375.87L162.73 376.3L161.79 376.69L160.82 377.04L159.85 377.35L158.88 377.63L157.9 377.86L156.9 378.06L155.9 378.23L154.91 378.35L153.9 378.43L152.9 378.47L151.89 378.47L150.89 378.44L149.88 378.37L148.88 378.27L147.89 378.12L146.9 377.93L145.92 377.7L144.94 377.44L143.98 377.13L143.02 376.8L142.08 376.42L141.15 376.02L140.24 375.56L139.33 375.07L138.44 374.55L137.57 373.98L136.72 373.39L135.9 372.74L135.09 372.07L134.29 371.35L133.54 370.6L132.8 369.82L132.1 369L131.42 368.16L130.79 367.31L130.21 366.44L129.66 365.55L129.15 364.63L128.68 363.72L128.25 362.77L127.85 361.83L127.5 360.87L127.19 359.9L126.91 358.92L126.68 357.94L126.48 356.95L126.32 355.96L126.2 354.95L126.12 353.95L126.08 352.94L126.08 351.94L126.1 350.93L126.17 349.93L126.29 348.92L126.43 347.94L126.62 346.94L126.84 345.96L127.1 344.99L127.41 344.02L127.75 343.06L128.12 342.12L128.53 341.19L128.99 340.27L129.47 339.37L130 338.48L130.56 337.62L131.16 336.77L131.8 335.94L132.48 335.13L133.19 334.35L133.94 333.58L134.73 332.84L135.55 332.14L136.38 331.46L137.23 330.84L138.11 330.25L139 329.71L139.91 329.2L140.83 328.73L141.77 328.3L142.71 327.91L143.67 327.54L144.64 327.23L145.62 326.96L146.61 326.72L147.6 326.52L148.6 326.37L149.6 326.25L150.6 326.17L151.61 326.12L152.6 326.12L153.61 326.14L154.61 326.22L155.62 326.33L156.6 326.48L157.6 326.67L158.58 326.88L159.55 327.15L160.52 327.45L161.48 327.79L162.42 328.16L163.35 328.58L164.27 329.03L165.17 329.51L166.06 330.04L166.92 330.6L167.77 331.21L168.61 331.84L169.42 332.51L170.2 333.23L170.97 333.98L171.71 334.76L277.91 244.66L277.91 244.33L277.97 243.24L278.07 242.16L278.22 241.09L278.39 240.04L278.62 239.01L278.89 237.98L279.19 236.98L279.52 236L279.9 235.03L280.32 234.09L280.78 233.16L281.26 232.24L281.77 231.37L282.33 230.5L282.9 229.67L283.52 228.85L284.16 228.05L284.83 227.3L285.53 226.56L286.26 225.84L287.03 225.17L287.79 224.51L288.6 223.89L289.44 223.3L290.29 222.73L291.16 222.21L292.05 221.72L292.98 221.25L293.91 220.83L294.87 220.44L295.84 220.09L296.82 219.77L297.83 219.5L298.86 219.26L299.88 219.05L300.93 218.89L301.99 218.78L303.06 218.7L304.15 218.68L305.24 218.69L306.35 218.73ZM458.53 453.4L456.84 453.94L455.25 454.67L453.77 455.58L452.41 456.65L451.2 457.87L450.12 459.22L449.22 460.7L448.49 462.29L447.95 463.98L447.61 465.74L447.51 467.57L447.61 469.4L447.95 471.17L448.49 472.85L449.22 474.44L450.13 475.93L451.2 477.29L452.44 478.5L453.8 479.58L455.28 480.48L456.88 481.21L458.58 481.75L460.37 482.07L462.23 482.19L464.05 482.07L465.8 481.72L467.47 481.18L469.06 480.44L470.53 479.54L471.86 478.46L473.08 477.25L474.14 475.88L475.04 474.42L475.76 472.83L476.3 471.16L476.62 469.39L476.74 467.57L476.62 465.74L476.3 463.98L475.76 462.29L475.03 460.7L474.11 459.22L473.05 457.87L471.82 456.65L470.48 455.58L468.99 454.67L467.4 453.94L465.72 453.4L463.96 453.08L462.12 452.96L460.29 453.08L458.53 453.4ZM432.39 393.18L432.24 393.18L431.95 393.21L431.8 393.21L431.65 393.22L431.5 393.22L431.35 393.23L431.19 393.23L431.04 393.25L430.94 393.25L431.03 393.26L431.38 393.26L431.47 393.25L431.74 393.25L431.84 393.23L432.01 393.23L432.11 393.22L432.19 393.22L432.28 393.21L432.38 393.21L432.46 393.19L432.55 393.18L432.63 393.18L432.82 393.15L432.9 393.14L433 393.13L432.55 393.17L432.39 393.18ZM422.76 352.52L421.07 353.03L419.47 353.73L417.98 354.62L416.61 355.69L415.38 356.89L414.28 358.23L413.35 359.71L412.6 361.3L412.05 363L411.68 364.78L411.55 366.63L411.55 366.73L411.66 368.57L411.99 370.33L412.53 372.01L413.26 373.6L414.16 375.09L415.23 376.45L416.45 377.66L417.81 378.74L419.3 379.64L420.87 380.37L422.56 380.91L424.32 381.24L426.17 381.35L427.97 381.24L429.72 380.91L431.39 380.38L432.97 379.67L434.44 378.78L435.8 377.73L437.01 376.53L438.08 375.19L438.99 373.73L439.73 372.16L440.29 370.51L440.64 368.75L440.77 366.95L440.69 365.12L440.38 363.34L439.87 361.65L439.15 360.05L438.28 358.56L437.23 357.18L436.03 355.96L434.68 354.87L433.21 353.94L431.64 353.18L429.97 352.62L428.2 352.26L426.37 352.12L424.54 352.21L422.76 352.52ZM148.55 338.05L146.86 338.59L145.27 339.32L143.79 340.23L142.44 341.3L141.22 342.52L140.15 343.87L139.24 345.35L138.51 346.94L137.97 348.63L137.65 350.39L137.53 352.22L137.65 354.06L137.97 355.82L138.51 357.51L139.24 359.1L140.15 360.58L141.23 361.94L142.46 363.15L143.82 364.23L145.31 365.13L146.9 365.86L148.61 366.4L150.39 366.72L152.25 366.84L154.07 366.72L155.81 366.38L157.48 365.83L159.06 365.12L160.51 364.21L161.86 363.15L163.07 361.94L164.13 360.59L165.02 359.14L165.75 357.56L166.29 355.89L166.64 354.15L166.76 352.33L166.76 352.22L166.64 350.39L166.32 348.63L165.78 346.94L165.05 345.35L164.15 343.87L163.07 342.52L161.86 341.3L160.5 340.23L159.02 339.32L157.43 338.59L155.74 338.05L153.98 337.73L152.14 337.61L150.31 337.73L148.55 338.05ZM350.12 330.91L348.43 331.44L346.84 332.18L345.36 333.08L344.01 334.14L342.79 335.37L341.72 336.73L340.81 338.2L340.08 339.79L339.54 341.47L339.22 343.24L339.1 345.07L339.22 346.9L339.54 348.67L340.08 350.35L340.81 351.94L341.71 353.42L342.79 354.77L344 355.98L345.36 357.05L346.84 357.95L348.43 358.66L350.12 359.18L351.88 359.5L353.71 359.58L355.53 359.47L357.28 359.15L358.95 358.62L360.53 357.91L362 357.02L363.35 355.96L364.57 354.76L365.64 353.42L366.55 351.97L367.29 350.41L367.85 348.74L368.2 347L368.33 345.18L368.33 345.07L368.21 343.24L367.89 341.47L367.35 339.79L366.62 338.2L365.72 336.73L364.64 335.37L363.43 334.14L362.07 333.08L360.58 332.18L358.99 331.44L357.31 330.91L355.55 330.57L353.71 330.45L351.88 330.57L350.12 330.91ZM530.45 294.66L528.77 295.21L527.18 295.95L525.71 296.87L524.36 297.95L523.15 299.17L522.09 300.53L521.2 302.03L520.48 303.62L519.96 305.3L519.64 307.07L519.53 308.9L519.66 310.73L520 312.5L520.55 314.18L521.29 315.77L522.21 317.24L523.29 318.6L524.51 319.81L525.89 320.87L527.37 321.79L528.96 322.52L530.66 323.06L532.42 323.39L534.25 323.52L536.07 323.39L537.84 323.06L539.51 322.51L541.08 321.78L542.55 320.86L543.9 319.8L545.11 318.57L546.16 317.22L547.06 315.74L547.79 314.17L548.32 312.48L548.65 310.73L548.76 308.9L548.76 308.7L548.64 306.86L548.29 305.1L547.74 303.42L547 301.84L546.08 300.37L545 299.01L543.78 297.8L542.42 296.75L540.92 295.84L539.33 295.13L537.65 294.6L535.88 294.28L534.04 294.19L532.21 294.31L530.45 294.66ZM299.96 229.75L298.28 230.29L296.69 231.02L295.2 231.93L293.86 233L292.63 234.22L291.57 235.57L290.65 237.05L289.92 238.64L289.38 240.33L289.06 242.09L288.94 243.92L289.06 245.75L289.38 247.52L289.92 249.2L290.65 250.79L291.57 252.28L292.63 253.64L293.86 254.86L295.2 255.94L296.69 256.86L298.28 257.6L299.96 258.16L301.73 258.51L303.56 258.65L303.67 258.65L305.5 258.51L307.26 258.18L308.93 257.62L310.52 256.88L311.99 255.97L313.34 254.89L314.55 253.66L315.61 252.29L316.5 250.81L317.23 249.22L317.76 247.52L318.07 245.75L318.17 243.92L318.05 242.09L317.73 240.33L317.19 238.64L316.46 237.05L315.56 235.57L314.48 234.22L313.27 233L311.91 231.93L310.43 231.02L308.84 230.29L307.15 229.75L305.39 229.43L303.56 229.31L301.73 229.43L299.96 229.75Z" id="d1BmXEIzK0"></path><path d="M246.57 194.71L275.28 219" id="c18iBXy4Ho"></path><path d="M246.57 194.71L275.28 219" id="aUVFPkSew"></path><path d="M276.42 174.11L289.79 209.22" id="c1bJQqEmCP"></path><path d="M276.42 174.11L289.79 209.22" id="b4gks25MK"></path><path d="M312.6 169.37L309.24 207.33" id="emWBOkHU2"></path><path d="M312.6 169.37L309.24 207.33" id="ctNZAYA2T"></path><path d="M346.14 182.3L325.22 213.64" id="a1IYswtIH4"></path><path d="M346.14 182.3L325.22 213.64" id="ctwymFEuY"></path></defs><g><g><g><use xlink:href="#b1kipSAnu0" opacity="1" fill="#734198" fill-opacity="1"></use><g><use xlink:href="#b1kipSAnu0" opacity="1" fill-opacity="0" stroke="#000000" stroke-width="1" stroke-opacity="0"></use></g></g><g><use xlink:href="#amtQ6HA5T" opacity="1" fill="#000000" fill-opacity="0"></use><g><use xlink:href="#amtQ6HA5T" opacity="1" fill-opacity="0" stroke="#000000" stroke-width="1" stroke-opacity="0"></use></g></g><g><use xlink:href="#a1O5QSfWJt" opacity="1" fill="#ffffff" fill-opacity="1"></use><g><use xlink:href="#a1O5QSfWJt" opacity="1" fill-opacity="0" stroke="#000000" stroke-width="1" stroke-opacity="0"></use></g></g><g><use xlink:href="#d1BmXEIzK0" opacity="1" fill="#000000" fill-opacity="0"></use><g><use xlink:href="#d1BmXEIzK0" opacity="1" fill-opacity="0" stroke="#000000" stroke-width="1" stroke-opacity="0"></use></g></g><g><use xlink:href="#c18iBXy4Ho" opacity="1" fill="#ffffff" fill-opacity="1"></use><g><use xlink:href="#c18iBXy4Ho" opacity="1" fill-opacity="0" stroke="#000000" stroke-width="1" stroke-opacity="0"></use></g></g><g><use xlink:href="#aUVFPkSew" opacity="1" fill="#000000" fill-opacity="0"></use><g><use xlink:href="#aUVFPkSew" opacity="1" fill-opacity="0" stroke="#ffffff" stroke-width="5" stroke-opacity="1"></use></g></g><g><use xlink:href="#c1bJQqEmCP" opacity="1" fill="#ffffff" fill-opacity="1"></use><g><use xlink:href="#c1bJQqEmCP" opacity="1" fill-opacity="0" stroke="#000000" stroke-width="1" stroke-opacity="0"></use></g></g><g><use xlink:href="#b4gks25MK" opacity="1" fill="#000000" fill-opacity="0"></use><g><use xlink:href="#b4gks25MK" opacity="1" fill-opacity="0" stroke="#ffffff" stroke-width="5" stroke-opacity="1"></use></g></g><g><use xlink:href="#emWBOkHU2" opacity="1" fill="#ffffff" fill-opacity="1"></use><g><use xlink:href="#emWBOkHU2" opacity="1" fill-opacity="0" stroke="#000000" stroke-width="1" stroke-opacity="0"></use></g></g><g><use xlink:href="#ctNZAYA2T" opacity="1" fill="#000000" fill-opacity="0"></use><g><use xlink:href="#ctNZAYA2T" opacity="1" fill-opacity="0" stroke="#ffffff" stroke-width="5" stroke-opacity="1"></use></g></g><g><use xlink:href="#a1IYswtIH4" opacity="1" fill="#ffffff" fill-opacity="1"></use><g><use xlink:href="#a1IYswtIH4" opacity="1" fill-opacity="0" stroke="#000000" stroke-width="1" stroke-opacity="0"></use></g></g><g><use xlink:href="#ctwymFEuY" opacity="1" fill="#000000" fill-opacity="0"></use><g><use xlink:href="#ctwymFEuY" opacity="1" fill-opacity="0" stroke="#ffffff" stroke-width="5" stroke-opacity="1"></use></g></g></g></g></svg>