<?xml version="1.0" encoding="UTF-8" standalone="no"?>
<!DOCTYPE svg PUBLIC "-//W3C//DTD SVG 1.1//EN" "http://www.w3.org/Graphics/SVG/1.1/DTD/svg11.dtd">
<svg version="1.1" xmlns="http://www.w3.org/2000/svg" xmlns:xlink="http://www.w3.org/1999/xlink" preserveAspectRatio="xMidYMid meet" viewBox="0 0 640 640" width="640" height="640"><defs><path d="M320.71 629.69C148.16 629.69 8.27 490.17 8.27 318.07C8.27 145.97 148.16 6.45 320.71 6.45C493.28 6.45 633.17 145.97 633.17 318.07C633.17 490.17 493.28 629.69 320.71 629.69Z" id="aU8NznD6x"></path><path d="M320.71 629.69C148.16 629.69 8.27 490.17 8.27 318.07C8.27 145.97 148.16 6.45 320.71 6.45C493.28 6.45 633.17 145.97 633.17 318.07C633.17 490.17 493.28 629.69 320.71 629.69Z" id="d3p2w6xZpB"></path><path d="M295.07 189.89L296.05 189.99L297.02 190.12L297.99 190.3L298.94 190.52L299.87 190.76L300.79 191.05L301.69 191.37L302.57 191.73L303.44 192.12L304.29 192.53L305.13 192.98L305.94 193.47L306.72 193.98L307.5 194.53L308.25 195.09L308.98 195.69L309.67 196.32L310.35 196.98L311.01 197.65L311.63 198.34L312.23 199.07L312.79 199.82L313.34 200.58L313.85 201.39L314.34 202.19L314.79 203.03L315.21 203.86L315.59 204.73L315.95 205.62L316.27 206.54L316.56 207.45L316.8 208.39L317.01 209.34L317.19 210.29L317.33 211.27L317.43 212.25L317.49 213.25L317.51 214.26L317.51 214.73L317.49 214.95L317.46 215.37L317.43 215.58L317.41 215.77L317.31 216.35L317.28 216.53L317.23 216.72L317.2 216.9L317.15 217.08L317.12 217.25L317.07 217.45L316.98 217.8L316.88 218.19L316.85 218.38L316.8 218.57L316.75 218.78L316.7 218.98L316.66 219.2L316.61 219.41L316.57 219.64L316.53 219.88L316.49 220.12L316.43 220.63L316.37 221.18L316.33 221.49L316.3 222.1L316.27 222.77L316.27 223.52L334.68 282.2L334.79 282.18L335.13 282.08L335.23 282.05L335.32 282L335.44 281.97L335.53 281.92L335.63 281.89L335.73 281.84L335.81 281.79L336 281.7L336.08 281.65L336.18 281.6L336.26 281.55L336.35 281.5L336.44 281.46L336.53 281.41L336.61 281.36L336.71 281.31L336.79 281.26L336.89 281.21L336.97 281.17L337.06 281.12L337.16 281.09L337.24 281.04L337.34 281L337.43 280.96L337.63 280.89L337.74 280.86L337.84 280.84L337.95 280.81L338.04 280.8L338.38 280.75L338.64 280.75L339.53 280.7L340.43 280.68L341.31 280.7L342.18 280.76L343.05 280.84L343.92 280.97L344.77 281.13L345.61 281.33L346.43 281.54L347.25 281.79L348.06 282.08L348.84 282.39L349.62 282.73L350.37 283.1L351.11 283.5L351.84 283.92L352.56 284.38L353.24 284.85L353.91 285.37L354.57 285.9L355.2 286.44L355.81 287.02L356.41 287.62L356.97 288.25L357.52 288.89L358.03 289.55L358.53 290.23L359 290.93L359.43 291.66L359.85 292.4L360.24 293.17L360.59 293.94L360.93 294.73L361.22 295.55L361.49 296.37L361.74 297.21L361.94 298.08L362.11 298.95L362.25 299.82L362.35 300.72L385.56 303.21L385.93 302.52L386.3 301.88L386.68 301.28L387.07 300.74L387.45 300.24L387.86 299.79L388.26 299.38L388.68 299.01L389.08 298.69L389.5 298.4L389.93 298.15L390.37 297.94L390.8 297.76L391.24 297.6L391.67 297.49L392.12 297.39L392.59 297.32L393.04 297.28L393.51 297.24L393.97 297.24L394.44 297.26L394.92 297.29L395.89 297.39L396.37 297.47L396.87 297.53L397.37 297.63L397.87 297.71L398.38 297.81L398.88 297.9L399.91 298.1L400.44 298.18L400.96 298.26L401.49 298.34L402.02 298.4L402.55 298.45L403.1 298.5L403.63 298.53L404.18 298.53L405.22 298.68L406.27 298.87L407.28 299.08L408.3 299.34L409.28 299.63L410.24 299.96L411.21 300.32L412.14 300.7L413.06 301.14L413.96 301.59L414.85 302.09L415.72 302.6L416.55 303.15L417.37 303.73L418.16 304.33L418.94 304.95L419.69 305.61L420.42 306.3L421.11 307.01L421.78 307.74L422.43 308.49L423.06 309.28L423.65 310.07L424.21 310.91L424.75 311.74L425.24 312.6L425.73 313.48L426.16 314.38L426.58 315.3L426.97 316.24L427.3 317.18L427.63 318.15L427.9 319.13L428.14 320.11L428.35 321.13L428.53 322.14L428.66 323.17L428.75 324.2L428.82 325.25L428.83 326.31L428.8 327.07L428.64 328.58L428.53 329.32L428.4 330.04L428.24 330.78L428.06 331.51L427.87 332.22L427.66 332.93L427.42 333.62L427.16 334.31L426.89 335L426.6 335.66L425.95 336.98L425.6 337.62L425.23 338.25L424.84 338.88L424.44 339.48L424.02 340.07L423.59 340.67L422.65 341.79L422.17 342.34L421.67 342.87L421.14 343.39L420.61 343.89L420.06 344.37L419.5 344.84L418.92 345.3L418.32 345.74L417.73 346.15L417.1 346.56L416.47 346.94L415.81 347.31L415.15 347.67L414.49 348.01L413.8 348.33L413.11 348.62L412.4 348.89L420.3 399.46L420.67 399.25L421.06 399.06L421.43 398.86L421.82 398.67L422.19 398.49L422.96 398.14L424.12 397.66L424.52 397.5L424.91 397.35L425.31 397.21L425.69 397.06L426.1 396.92L426.9 396.66L427.3 396.55L427.71 396.42L428.11 396.3L428.51 396.21L428.93 396.1L429.33 396L429.75 395.9L430.15 395.82L430.99 395.66L431.39 395.58L432.65 395.39L433.9 395.24L434.74 395.18L435.17 395.15L435.59 395.11L436.43 395.08L436.65 395.1L437.11 395.1L437.33 395.11L437.56 395.11L437.77 395.13L437.99 395.15L438.22 395.15L438.89 395.19L439.1 395.21L439.78 395.26L440 395.29L440.21 395.31L440.44 395.34L440.66 395.36L440.89 395.39L441.1 395.4L441.77 395.5L441.98 395.53L442.43 395.6L442.64 395.63L443.09 395.69L443.3 395.74L443.53 395.77L443.75 395.82L443.96 395.85L444.19 395.9L444.41 395.93L444.62 395.98L444.85 396.03L445.06 396.08L445.28 396.13L491.68 293.64L491.18 293.3L490.7 292.95L490.22 292.58L489.75 292.21L489.28 291.82L488.85 291.43L488.41 291.02L487.98 290.61L486.77 289.31L486.4 288.84L486.03 288.39L485.68 287.93L485.32 287.44L485 286.96L484.36 285.96L483.78 284.93L483.52 284.42L483.01 283.35L482.56 282.26L482.36 281.71L482.17 281.15L481.99 280.6L481.82 280.02L481.67 279.46L481.53 278.88L481.3 277.72L481.2 277.13L481.12 276.53L481.06 275.93L480.96 274.74L480.95 274.15L480.95 273.54L480.96 272.54L481.03 271.56L481.12 270.58L481.25 269.63L481.43 268.68L481.65 267.74L481.9 266.81L482.19 265.91L482.49 265.02L482.85 264.14L483.23 263.28L483.65 262.45L484.09 261.63L484.57 260.82L485.08 260.05L485.61 259.29L486.18 258.55L486.77 257.83L487.38 257.14L488.03 256.48L488.69 255.83L489.4 255.22L490.1 254.63L490.84 254.06L491.6 253.53L492.39 253.03L493.19 252.55L494.02 252.1L494.85 251.7L495.71 251.31L496.57 250.96L497.48 250.65L498.38 250.36L499.31 250.12L500.24 249.91L501.19 249.73L502.14 249.6L503.12 249.51L504.11 249.44L505.1 249.43L506.05 249.48L507 249.56L507.94 249.67L508.85 249.81L509.77 250.01L510.66 250.23L511.54 250.49L512.41 250.76L513.26 251.09L514.1 251.44L514.92 251.83L515.73 252.23L516.52 252.68L517.27 253.15L518.03 253.64L518.75 254.16L519.46 254.71L520.14 255.29L520.8 255.88L521.44 256.51L522.05 257.15L522.65 257.83L523.21 258.52L523.76 259.23L524.27 259.97L524.76 260.71L525.21 261.48L525.64 262.29L526.04 263.09L526.41 263.91L526.75 264.75L527.06 265.62L527.33 266.49L527.57 267.37L527.78 268.27L527.96 269.18L528.1 270.11L528.2 271.04L528.28 271.98L528.31 272.94L528.26 273.94L528.18 274.94L528.07 275.92L527.91 276.88L527.72 277.83L527.48 278.78L527.22 279.72L526.91 280.62L526.57 281.52L526.2 282.39L525.8 283.26L525.38 284.09L524.92 284.92L524.42 285.72L523.9 286.51L523.34 287.27L522.76 288.01L522.16 288.71L521.52 289.41L520.86 290.08L520.18 290.71L519.48 291.34L518.75 291.92L518 292.48L517.22 293.01L516.42 293.51L515.61 293.99L514.78 294.43L513.92 294.85L513.06 295.22L512.17 295.57L511.25 295.88L510.34 296.17L509.4 296.41L508.45 296.62L507.5 296.78L506.52 296.91L505.54 297L504.54 297.07L503.54 297.08L499.17 297.08L450.06 401.12L450.5 401.44L450.93 401.78L451.35 402.12L452.15 402.82L452.56 403.19L452.94 403.56L453.68 404.34L454.04 404.72L454.39 405.12L454.75 405.54L455.07 405.95L455.4 406.36L456.32 407.67L456.61 408.12L457.16 409.02L457.67 409.95L457.92 410.44L458.14 410.9L458.37 411.39L458.58 411.88L458.78 412.37L458.98 412.87L459.15 413.37L459.33 413.88L459.49 414.38L459.78 415.41L459.91 415.94L460.04 416.46L460.33 418.05L460.41 418.58L460.47 419.13L460.47 419.34L460.49 419.38L460.49 419.59L460.51 419.66L460.51 420.06L460.52 420.11L460.52 421.25L460.47 422.17L460.39 423.09L460.28 423.99L460.14 424.87L459.94 425.76L459.73 426.63L459.48 427.48L459.2 428.32L458.88 429.14L458.54 429.94L458.17 430.73L457.75 431.52L457.34 432.28L456.87 433L456.37 433.72L455.86 434.42L455.32 435.11L454.76 435.75L454.17 436.4L453.55 437.01L452.91 437.59L452.25 438.15L451.57 438.7L450.87 439.2L450.14 439.68L449.4 440.15L448.65 440.58L447.86 440.97L447.07 441.34L446.25 441.69L445.43 442L444.57 442.27L443.72 442.51L442.85 442.72L441.97 442.9L441.06 443.04L440.16 443.16L439.23 443.22L438.31 443.25L437.31 443.24L436.33 443.17L435.35 443.08L434.39 442.95L433.44 442.77L432.5 442.56L431.59 442.32L430.68 442.03L429.78 441.71L428.91 441.37L428.06 440.98L427.21 440.56L426.39 440.11L425.6 439.65L424.81 439.13L424.05 438.6L423.31 438.04L422.6 437.44L421.91 436.83L421.24 436.19L420.59 435.53L419.98 434.83L419.39 434.11L418.82 433.37L418.29 432.61L417.79 431.84L417.31 431.04L416.86 430.22L416.46 429.38L416.07 428.51L415.72 427.64L415.39 426.76L415.12 425.84L414.86 424.92L414.65 423.99L414.48 423.04L414.35 422.07L414.25 421.11L414.19 420.11L414.17 419.13L414.17 418.9L414.19 418.68L414.19 418.45L414.2 418.23L414.22 418.02L414.25 417.57L414.27 417.36L414.28 417.13L414.32 416.91L414.33 416.68L414.36 416.47L414.4 416.25L414.43 416.04L414.49 415.59L414.53 415.38L414.57 415.15L414.61 414.94L414.65 414.72L414.7 414.51L414.75 414.28L414.85 413.86L414.9 413.64L414.96 413.43L415.01 413.22L415.07 412.99L415.39 411.95L415.47 411.74L415.54 411.53L415.94 410.48L403.87 350.45L405.53 350.45L405.66 350.47L405.79 350.47L406.04 350.5L406.17 350.5L406.3 350.52L406.43 350.52L406.56 350.53L406.69 350.53L406.8 350.55L407.19 350.55L407.31 350.56L407.99 350.56L407.89 350.55L407.69 350.55L407.59 350.53L407.38 350.53L407.28 350.52L407.19 350.52L407.07 350.5L406.98 350.5L406.78 350.47L406.67 350.47L406.57 350.45L406.17 350.45L406.11 350.44L405.72 350.44L404.77 350.37L403.82 350.27L402.9 350.13L401.99 349.95L401.09 349.74L400.2 349.5L399.33 349.23L398.48 348.92L397.64 348.59L396.82 348.21L396.02 347.81L395.23 347.38L394.47 346.91L393.72 346.43L392.99 345.91L392.28 345.37L391.61 344.79L390.95 344.19L390.32 343.58L389.71 342.94L389.13 342.28L388.56 341.58L388.03 340.88L387.52 340.14L387.04 339.4L386.59 338.62L386.17 337.83L385.78 337.03L385.43 336.21L385.09 335.37L384.8 334.52L384.53 333.67L384.3 332.78L384.11 331.9L383.95 330.98L383.82 330.08L383.72 329.14L383.67 328.21L383.66 327.26L383.69 326.31L383.69 320.9L362.25 315.17L361.94 315.87L361.61 316.54L361.25 317.2L360.9 317.84L360.51 318.47L360.11 319.1L359.69 319.7L359.26 320.29L358.81 320.87L358.34 321.42L357.86 321.96L357.36 322.5L356.84 323.01L356.31 323.51L355.78 323.99L355.23 324.46L354.65 324.91L354.07 325.34L353.5 325.76L352.88 326.17L352.27 326.54L351.64 326.91L351.02 327.24L350.37 327.58L349.71 327.89L349.05 328.18L348.38 328.45L347.7 328.69L347.01 328.93L346.32 329.14L345.61 329.34L344.9 329.5L344.18 329.64L343.45 329.77L342.73 329.88L341.99 329.96L341.25 330.03L340.51 330.08L339.75 330.09L339.01 330.09L337.98 330.06L336.97 329.98L335.97 329.85L334.97 329.69L334 329.5L333.04 329.26L332.11 329L331.17 328.68L330.25 328.34L329.37 327.97L328.48 327.55L327.63 327.12L326.79 326.63L325.97 326.13L325.19 325.59L324.41 325.02L323.66 324.43L322.93 323.82L322.24 323.17L321.56 322.5L320.9 321.79L320.29 321.06L319.7 320.32L319.13 319.55L318.59 318.76L318.09 317.94L317.6 317.1L317.17 316.25L316.75 315.38L316.38 314.5L316.03 313.58L315.72 312.66L315.45 311.71L315.21 310.76L315.01 309.8L314.85 308.82L314.72 307.82L314.64 306.82L314.59 305.81L314.59 304.78L314.61 304.18L314.63 303.57L314.66 302.94L314.71 302.3L314.77 301.64L314.85 300.98L314.93 300.3L315.03 299.61L315.14 298.93L315.27 298.23L315.56 296.84L315.72 296.15L315.9 295.46L316.28 294.07L316.49 293.41L316.72 292.74L317.2 291.45L317.46 290.82L317.72 290.21L317.99 289.62L318.28 289.05L318.59 288.49L318.89 287.97L319.21 287.46L319.54 286.99L319.87 286.54L320.21 286.12L320.57 285.74L320.94 285.38L321.31 285.06L321.69 284.79L322.08 284.55L322.48 284.34L322.9 284.18L323.32 284.06L323.74 284L324.17 283.97L306.18 231.95L306.18 233.72L305.5 234.17L305.15 234.4L304.81 234.6L304.46 234.81L304.1 235.01L303.76 235.22L303.39 235.39L303.04 235.59L302.69 235.76L301.94 236.12L301.2 236.44L300.46 236.73L300.08 236.87L299.71 237L299.32 237.15L298.94 237.26L298.55 237.39L298.16 237.5L297 237.79L296.6 237.89L296.22 237.97L295.81 238.05L295.41 238.11L295.02 238.18L294.62 238.24L293.41 238.39L292.61 238.45L292.21 238.47L291.79 238.48L291.39 238.5L290.98 238.5L290.29 238.52L289.6 238.52L288.91 238.5L288.23 238.47L287.54 238.42L286.19 238.26L285.53 238.15L284.85 238.02L284.19 237.87L283.55 237.71L282.89 237.53L282.25 237.34L281.62 237.13L280.36 236.65L279.75 236.39L278.53 235.81L277.93 235.51L276.77 234.83L276.21 234.48L275.66 234.11L275.12 233.72L274.57 233.32L274.05 232.9L273.52 232.46L272.52 231.56L272.06 231.08L271.57 230.6L271.12 230.1L270.67 229.58L269.84 228.52L269.42 227.96L269.03 227.39L268.66 226.81L268.29 226.22L174.65 307.17L174.7 307.32L174.9 307.8L174.96 307.95L175.02 308.11L175.19 308.43L175.28 308.59L175.44 308.91L175.83 309.56L176.01 309.88L176.3 310.36L176.39 310.54L176.49 310.7L176.57 310.86L176.67 311.02L176.75 311.2L176.91 311.52L176.97 311.7L177.05 311.86L177.12 312.03L177.18 312.2L177.23 312.36L177.29 312.53L177.33 312.69L177.37 312.87L177.41 313.03L177.44 313.21L177.45 313.39L177.47 313.55L177.47 314.22L177.45 314.74L177.39 315.74L177.34 316.24L177.28 316.73L177.21 317.22L177.05 318.21L176.96 318.7L176.73 319.66L176.6 320.15L176.47 320.61L176.33 321.1L176.01 322.03L175.83 322.5L175.25 323.85L175.04 324.3L174.81 324.75L174.59 325.18L174.35 325.62L174.09 326.04L173.83 326.47L173.58 326.89L173.3 327.29L173.01 327.71L172.72 328.11L172.42 328.5L172.11 328.9L171.79 329.29L171.47 329.66L170.79 330.4L170.44 330.75L170.07 331.11L169.71 331.46L168.96 332.1L168.2 332.73L167.43 333.31L166.62 333.86L165.82 334.37L164.98 334.86L164.14 335.29L163.29 335.69L162.42 336.06L161.54 336.4L160.65 336.69L159.77 336.96L158.87 337.19L157.95 337.37L157.03 337.53L156.11 337.66L155.2 337.74L154.28 337.79L153.36 337.8L152.43 337.79L151.51 337.72L150.59 337.62L149.68 337.51L148.77 337.35L147.86 337.14L146.97 336.92L146.07 336.66L145.2 336.35L144.33 336.02L143.46 335.65L142.63 335.24L141.79 334.79L140.97 334.33L140.16 333.81L139.39 333.28L138.62 332.7L137.86 332.09L137.14 331.43L136.43 330.75L135.74 330.04L135.09 329.29L134.47 328.53L133.89 327.76L133.34 326.95L132.82 326.15L132.34 325.31L131.91 324.48L131.5 323.62L131.13 322.75L130.8 321.87L130.51 320.98L130.23 320.1L130.01 319.2L129.83 318.28L129.67 317.38L129.54 316.46L129.46 315.53L129.41 314.61L129.4 313.69L129.41 312.76L129.48 311.84L129.57 310.92L129.69 310.01L129.85 309.11L130.06 308.2L130.28 307.3L130.56 306.42L130.85 305.53L131.18 304.66L131.55 303.79L131.96 302.96L132.41 302.12L132.87 301.3L133.39 300.49L133.92 299.72L134.5 298.95L135.11 298.19L135.77 297.47L136.45 296.76L137.15 296.09L137.91 295.43L138.67 294.8L139.44 294.22L140.24 293.67L141.05 293.16L141.89 292.69L142.72 292.24L143.58 291.84L144.44 291.47L145.33 291.13L146.22 290.84L147.1 290.58L148 290.36L148.92 290.16L149.84 290L150.75 289.87L151.67 289.79L152.59 289.74L153.51 289.73L154.44 289.76L155.36 289.81L156.27 289.9L157.19 290.02L158.09 290.19L158.99 290.39L159.9 290.61L160.78 290.89L161.67 291.18L162.53 291.51L163.4 291.88L164.24 292.29L165.08 292.74L165.9 293.2L166.7 293.72L167.48 294.27L168.25 294.83L169 295.46L169.73 296.1L170.44 296.78L171.11 297.49L268.61 214.26L268.63 213.25L268.69 212.25L268.79 211.27L268.94 210.29L269.11 209.34L269.32 208.39L269.58 207.45L269.85 206.54L270.17 205.62L270.53 204.73L270.91 203.86L271.33 203.03L271.78 202.19L272.27 201.39L272.78 200.58L273.33 199.82L273.89 199.07L274.5 198.34L275.12 197.65L275.78 196.98L276.45 196.32L277.14 195.69L277.87 195.09L278.62 194.53L279.4 193.98L280.19 193.47L280.99 192.98L281.83 192.53L282.68 192.12L283.55 191.73L284.43 191.37L285.34 191.05L286.25 190.76L287.19 190.52L288.14 190.3L289.1 190.12L290.07 189.99L291.05 189.89L292.05 189.83L293.06 189.81L294.07 189.83L295.07 189.89ZM435.21 406.49L433.29 407.3L431.52 408.39L429.96 409.73L428.62 411.3L427.53 413.06L426.71 414.99L426.21 417.05L426.03 419.22L426.21 421.4L426.71 423.47L427.53 425.39L428.62 427.16L429.96 428.72L431.52 430.05L433.29 431.15L435.21 431.97L437.28 432.47L439.46 432.65L439.04 432.76L439.57 432.76L441.74 432.57L443.8 432.03L445.72 431.21L447.47 430.1L449.02 428.75L450.35 427.17L451.43 425.4L452.22 423.47L452.72 421.4L452.88 419.22L452.7 417.05L452.19 414.99L451.38 413.06L450.29 411.3L448.93 409.73L447.37 408.39L445.62 407.3L443.69 406.49L441.63 405.98L439.46 405.8L437.28 405.98L435.21 406.49ZM410.37 350.47L410.12 350.5L410 350.5L409.87 350.52L409.75 350.52L409.62 350.53L409.49 350.53L409.36 350.55L408.97 350.55L408.84 350.56L409.21 350.56L409.31 350.55L409.52 350.55L409.62 350.53L409.83 350.53L409.92 350.52L410.02 350.52L410.13 350.5L410.23 350.5L410.42 350.47L410.53 350.47L410.63 350.45L410.5 350.47L410.37 350.47ZM402.02 313.79L400.09 314.59L398.33 315.69L396.77 317.02L395.44 318.6L394.34 320.36L393.52 322.29L393.02 324.35L392.85 326.52L392.43 326.31L392.43 326.94L392.67 329.11L393.25 331.17L394.12 333.07L395.26 334.79L396.66 336.3L398.25 337.61L400.06 338.64L402 339.4L404.08 339.83L406.27 339.94L408.44 339.77L410.5 339.27L412.43 338.45L414.19 337.35L415.75 336.02L417.1 334.45L418.18 332.68L419 330.77L419.51 328.69L419.68 326.52L419.51 324.35L419 322.29L418.18 320.36L417.1 318.6L415.75 317.02L414.19 315.69L412.43 314.59L410.5 313.79L408.44 313.27L406.27 313.1L404.08 313.27L402.02 313.79ZM149.19 300.16L147.26 300.96L145.51 302.06L143.95 303.41L142.59 304.97L141.52 306.72L140.69 308.65L140.18 310.71L140.02 312.89L140.18 315.08L140.69 317.14L141.52 319.05L142.59 320.82L143.95 322.38L145.51 323.72L147.26 324.81L149.19 325.63L151.25 326.13L153.43 326.31L155.61 326.13L157.67 325.63L159.61 324.81L161.36 323.72L162.92 322.38L164.27 320.82L165.35 319.05L166.17 317.14L166.67 315.08L166.85 312.89L166.67 310.71L166.17 308.65L165.35 306.72L164.27 304.97L162.92 303.41L161.36 302.06L159.61 300.96L157.67 300.16L155.61 299.64L153.43 299.46L151.25 299.64L149.19 300.16ZM335.65 293.91L333.72 294.73L331.96 295.81L330.38 297.16L329.05 298.72L327.95 300.48L327.15 302.41L326.63 304.47L326.46 306.64L326.63 308.83L327.15 310.89L327.95 312.82L329.05 314.58L330.38 316.14L331.96 317.47L333.72 318.57L335.65 319.39L337.71 319.89L339.88 320.07L339.56 320.07L339.59 320.08L339.9 320.08L342.07 319.9L344.13 319.39L346.06 318.57L347.81 317.49L349.37 316.14L350.71 314.58L351.81 312.82L352.63 310.89L353.12 308.83L353.3 306.64L353.12 304.47L352.63 302.41L351.81 300.48L350.71 298.72L349.37 297.16L347.81 295.81L346.04 294.73L344.13 293.91L342.05 293.4L339.88 293.22L337.71 293.4L335.65 293.91ZM363.51 308.94L363.38 310.09L363.18 311.23L363.6 311.12L363.68 310.01L363.72 308.88L363.68 307.77L363.6 306.64L363.59 307.8L363.51 308.94ZM501.6 260.73L499.66 261.53L497.91 262.62L496.35 263.96L495 265.54L493.9 267.29L493.1 269.22L492.58 271.28L492.41 273.46L492.58 275.63L493.1 277.71L493.9 279.62L495 281.39L496.35 282.95L497.91 284.29L499.66 285.38L501.6 286.2L503.66 286.7L505.83 286.88L505.1 286.99L505.44 286.99L505.52 287.01L505.96 287.01L508.13 286.81L510.19 286.28L512.11 285.45L513.86 284.34L515.4 282.98L516.74 281.41L517.82 279.64L518.61 277.71L519.09 275.65L519.25 273.46L519.07 271.28L518.58 269.22L517.75 267.29L516.66 265.54L515.32 263.96L513.76 262.62L511.99 261.53L510.08 260.73L508 260.21L505.83 260.03L503.66 260.21L501.6 260.73ZM288.92 200.73L286.99 201.51L285.21 202.58L283.63 203.9L282.26 205.43L281.13 207.18L280.3 209.08L279.75 211.14L279.54 213.31L279.69 215.5L280.15 217.58L280.94 219.51L282 221.28L283.32 222.87L284.87 224.24L286.61 225.35L288.52 226.2L290.58 226.73L292.75 226.94L292.96 227.36L295.14 227.18L297.2 226.69L299.13 225.87L300.88 224.77L302.44 223.43L303.8 221.87L304.87 220.12L305.69 218.19L306.21 216.13L306.37 213.94L306.39 213.92L306.39 213.75L306.24 211.57L305.76 209.5L304.99 207.55L303.92 205.78L302.6 204.19L301.06 202.83L299.32 201.71L297.41 200.87L295.35 200.32L293.17 200.11L291 200.26L288.92 200.73Z" id="aBcaaMdSc"></path><path d="M295.07 189.89L296.05 189.99L297.02 190.12L297.99 190.3L298.94 190.52L299.87 190.76L300.79 191.05L301.69 191.37L302.57 191.73L303.44 192.12L304.29 192.53L305.13 192.98L305.94 193.47L306.72 193.98L307.5 194.53L308.25 195.09L308.98 195.69L309.67 196.32L310.35 196.98L311.01 197.65L311.63 198.34L312.23 199.07L312.79 199.82L313.34 200.58L313.85 201.39L314.34 202.19L314.79 203.03L315.21 203.86L315.59 204.73L315.95 205.62L316.27 206.54L316.56 207.45L316.8 208.39L317.01 209.34L317.19 210.29L317.33 211.27L317.43 212.25L317.49 213.25L317.51 214.26L317.51 214.73L317.49 214.95L317.46 215.37L317.43 215.58L317.41 215.77L317.31 216.35L317.28 216.53L317.23 216.72L317.2 216.9L317.15 217.08L317.12 217.25L317.07 217.45L316.98 217.8L316.88 218.19L316.85 218.38L316.8 218.57L316.75 218.78L316.7 218.98L316.66 219.2L316.61 219.41L316.57 219.64L316.53 219.88L316.49 220.12L316.43 220.63L316.37 221.18L316.33 221.49L316.3 222.1L316.27 222.77L316.27 223.52L334.68 282.2L334.79 282.18L335.13 282.08L335.23 282.05L335.32 282L335.44 281.97L335.53 281.92L335.63 281.89L335.73 281.84L335.81 281.79L336 281.7L336.08 281.65L336.18 281.6L336.26 281.55L336.35 281.5L336.44 281.46L336.53 281.41L336.61 281.36L336.71 281.31L336.79 281.26L336.89 281.21L336.97 281.17L337.06 281.12L337.16 281.09L337.24 281.04L337.34 281L337.43 280.96L337.63 280.89L337.74 280.86L337.84 280.84L337.95 280.81L338.04 280.8L338.38 280.75L338.64 280.75L339.53 280.7L340.43 280.68L341.31 280.7L342.18 280.76L343.05 280.84L343.92 280.97L344.77 281.13L345.61 281.33L346.43 281.54L347.25 281.79L348.06 282.08L348.84 282.39L349.62 282.73L350.37 283.1L351.11 283.5L351.84 283.92L352.56 284.38L353.24 284.85L353.91 285.37L354.57 285.9L355.2 286.44L355.81 287.02L356.41 287.62L356.97 288.25L357.52 288.89L358.03 289.55L358.53 290.23L359 290.93L359.43 291.66L359.85 292.4L360.24 293.17L360.59 293.94L360.93 294.73L361.22 295.55L361.49 296.37L361.74 297.21L361.94 298.08L362.11 298.95L362.25 299.82L362.35 300.72L385.56 303.21L385.93 302.52L386.3 301.88L386.68 301.28L387.07 300.74L387.45 300.24L387.86 299.79L388.26 299.38L388.68 299.01L389.08 298.69L389.5 298.4L389.93 298.15L390.37 297.94L390.8 297.76L391.24 297.6L391.67 297.49L392.12 297.39L392.59 297.32L393.04 297.28L393.51 297.24L393.97 297.24L394.44 297.26L394.92 297.29L395.89 297.39L396.37 297.47L396.87 297.53L397.37 297.63L397.87 297.71L398.38 297.81L398.88 297.9L399.91 298.1L400.44 298.18L400.96 298.26L401.49 298.34L402.02 298.4L402.55 298.45L403.1 298.5L403.63 298.53L404.18 298.53L405.22 298.68L406.27 298.87L407.28 299.08L408.3 299.34L409.28 299.63L410.24 299.96L411.21 300.32L412.14 300.7L413.06 301.14L413.96 301.59L414.85 302.09L415.72 302.6L416.55 303.15L417.37 303.73L418.16 304.33L418.94 304.95L419.69 305.61L420.42 306.3L421.11 307.01L421.78 307.74L422.43 308.49L423.06 309.28L423.65 310.07L424.21 310.91L424.75 311.74L425.24 312.6L425.73 313.48L426.16 314.38L426.58 315.3L426.97 316.24L427.3 317.18L427.63 318.15L427.9 319.13L428.14 320.11L428.35 321.13L428.53 322.14L428.66 323.17L428.75 324.2L428.82 325.25L428.83 326.31L428.8 327.07L428.64 328.58L428.53 329.32L428.4 330.04L428.24 330.78L428.06 331.51L427.87 332.22L427.66 332.93L427.42 333.62L427.16 334.31L426.89 335L426.6 335.66L425.95 336.98L425.6 337.62L425.23 338.25L424.84 338.88L424.44 339.48L424.02 340.07L423.59 340.67L422.65 341.79L422.17 342.34L421.67 342.87L421.14 343.39L420.61 343.89L420.06 344.37L419.5 344.84L418.92 345.3L418.32 345.74L417.73 346.15L417.1 346.56L416.47 346.94L415.81 347.31L415.15 347.67L414.49 348.01L413.8 348.33L413.11 348.62L412.4 348.89L420.3 399.46L420.67 399.25L421.06 399.06L421.43 398.86L421.82 398.67L422.19 398.49L422.96 398.14L424.12 397.66L424.52 397.5L424.91 397.35L425.31 397.21L425.69 397.06L426.1 396.92L426.9 396.66L427.3 396.55L427.71 396.42L428.11 396.3L428.51 396.21L428.93 396.1L429.33 396L429.75 395.9L430.15 395.82L430.99 395.66L431.39 395.58L432.65 395.39L433.9 395.24L434.74 395.18L435.17 395.15L435.59 395.11L436.43 395.08L436.65 395.1L437.11 395.1L437.33 395.11L437.56 395.11L437.77 395.13L437.99 395.15L438.22 395.15L438.89 395.19L439.1 395.21L439.78 395.26L440 395.29L440.21 395.31L440.44 395.34L440.66 395.36L440.89 395.39L441.1 395.4L441.77 395.5L441.98 395.53L442.43 395.6L442.64 395.63L443.09 395.69L443.3 395.74L443.53 395.77L443.75 395.82L443.96 395.85L444.19 395.9L444.41 395.93L444.62 395.98L444.85 396.03L445.06 396.08L445.28 396.13L491.68 293.64L491.18 293.3L490.7 292.95L490.22 292.58L489.75 292.21L489.28 291.82L488.85 291.43L488.41 291.02L487.98 290.61L486.77 289.31L486.4 288.84L486.03 288.39L485.68 287.93L485.32 287.44L485 286.96L484.36 285.96L483.78 284.93L483.52 284.42L483.01 283.35L482.56 282.26L482.36 281.71L482.17 281.15L481.99 280.6L481.82 280.02L481.67 279.46L481.53 278.88L481.3 277.72L481.2 277.13L481.12 276.53L481.06 275.93L480.96 274.74L480.95 274.15L480.95 273.54L480.96 272.54L481.03 271.56L481.12 270.58L481.25 269.63L481.43 268.68L481.65 267.74L481.9 266.81L482.19 265.91L482.49 265.02L482.85 264.14L483.23 263.28L483.65 262.45L484.09 261.63L484.57 260.82L485.08 260.05L485.61 259.29L486.18 258.55L486.77 257.83L487.38 257.14L488.03 256.48L488.69 255.83L489.4 255.22L490.1 254.63L490.84 254.06L491.6 253.53L492.39 253.03L493.19 252.55L494.02 252.1L494.85 251.7L495.71 251.31L496.57 250.96L497.48 250.65L498.38 250.36L499.31 250.12L500.24 249.91L501.19 249.73L502.14 249.6L503.12 249.51L504.11 249.44L505.1 249.43L506.05 249.48L507 249.56L507.94 249.67L508.85 249.81L509.77 250.01L510.66 250.23L511.54 250.49L512.41 250.76L513.26 251.09L514.1 251.44L514.92 251.83L515.73 252.23L516.52 252.68L517.27 253.15L518.03 253.64L518.75 254.16L519.46 254.71L520.14 255.29L520.8 255.88L521.44 256.51L522.05 257.15L522.65 257.83L523.21 258.52L523.76 259.23L524.27 259.97L524.76 260.71L525.21 261.48L525.64 262.29L526.04 263.09L526.41 263.91L526.75 264.75L527.06 265.62L527.33 266.49L527.57 267.37L527.78 268.27L527.96 269.18L528.1 270.11L528.2 271.04L528.28 271.98L528.31 272.94L528.26 273.94L528.18 274.94L528.07 275.92L527.91 276.88L527.72 277.83L527.48 278.78L527.22 279.72L526.91 280.62L526.57 281.52L526.2 282.39L525.8 283.26L525.38 284.09L524.92 284.92L524.42 285.72L523.9 286.51L523.34 287.27L522.76 288.01L522.16 288.71L521.52 289.41L520.86 290.08L520.18 290.71L519.48 291.34L518.75 291.92L518 292.48L517.22 293.01L516.42 293.51L515.61 293.99L514.78 294.43L513.92 294.85L513.06 295.22L512.17 295.57L511.25 295.88L510.34 296.17L509.4 296.41L508.45 296.62L507.5 296.78L506.52 296.91L505.54 297L504.54 297.07L503.54 297.08L499.17 297.08L450.06 401.12L450.5 401.44L450.93 401.78L451.35 402.12L452.15 402.82L452.56 403.19L452.94 403.56L453.68 404.34L454.04 404.72L454.39 405.12L454.75 405.54L455.07 405.95L455.4 406.36L456.32 407.67L456.61 408.12L457.16 409.02L457.67 409.95L457.92 410.44L458.14 410.9L458.37 411.39L458.58 411.88L458.78 412.37L458.98 412.87L459.15 413.37L459.33 413.88L459.49 414.38L459.78 415.41L459.91 415.94L460.04 416.46L460.33 418.05L460.41 418.58L460.47 419.13L460.47 419.34L460.49 419.38L460.49 419.59L460.51 419.66L460.51 420.06L460.52 420.11L460.52 421.25L460.47 422.17L460.39 423.09L460.28 423.99L460.14 424.87L459.94 425.76L459.73 426.63L459.48 427.48L459.2 428.32L458.88 429.14L458.54 429.94L458.17 430.73L457.75 431.52L457.34 432.28L456.87 433L456.37 433.72L455.86 434.42L455.32 435.11L454.76 435.75L454.17 436.4L453.55 437.01L452.91 437.59L452.25 438.15L451.57 438.7L450.87 439.2L450.14 439.68L449.4 440.15L448.65 440.58L447.86 440.97L447.07 441.34L446.25 441.69L445.43 442L444.57 442.27L443.72 442.51L442.85 442.72L441.97 442.9L441.06 443.04L440.16 443.16L439.23 443.22L438.31 443.25L437.31 443.24L436.33 443.17L435.35 443.08L434.39 442.95L433.44 442.77L432.5 442.56L431.59 442.32L430.68 442.03L429.78 441.71L428.91 441.37L428.06 440.98L427.21 440.56L426.39 440.11L425.6 439.65L424.81 439.13L424.05 438.6L423.31 438.04L422.6 437.44L421.91 436.83L421.24 436.19L420.59 435.53L419.98 434.83L419.39 434.11L418.82 433.37L418.29 432.61L417.79 431.84L417.31 431.04L416.86 430.22L416.46 429.38L416.07 428.51L415.72 427.64L415.39 426.76L415.12 425.84L414.86 424.92L414.65 423.99L414.48 423.04L414.35 422.07L414.25 421.11L414.19 420.11L414.17 419.13L414.17 418.9L414.19 418.68L414.19 418.45L414.2 418.23L414.22 418.02L414.25 417.57L414.27 417.36L414.28 417.13L414.32 416.91L414.33 416.68L414.36 416.47L414.4 416.25L414.43 416.04L414.49 415.59L414.53 415.38L414.57 415.15L414.61 414.94L414.65 414.72L414.7 414.51L414.75 414.28L414.85 413.86L414.9 413.64L414.96 413.43L415.01 413.22L415.07 412.99L415.39 411.95L415.47 411.74L415.54 411.53L415.94 410.48L403.87 350.45L405.53 350.45L405.66 350.47L405.79 350.47L406.04 350.5L406.17 350.5L406.3 350.52L406.43 350.52L406.56 350.53L406.69 350.53L406.8 350.55L407.19 350.55L407.31 350.56L407.99 350.56L407.89 350.55L407.69 350.55L407.59 350.53L407.38 350.53L407.28 350.52L407.19 350.52L407.07 350.5L406.98 350.5L406.78 350.47L406.67 350.47L406.57 350.45L406.17 350.45L406.11 350.44L405.72 350.44L404.77 350.37L403.82 350.27L402.9 350.13L401.99 349.95L401.09 349.74L400.2 349.5L399.33 349.23L398.48 348.92L397.64 348.59L396.82 348.21L396.02 347.81L395.23 347.38L394.47 346.91L393.72 346.43L392.99 345.91L392.28 345.37L391.61 344.79L390.95 344.19L390.32 343.58L389.71 342.94L389.13 342.28L388.56 341.58L388.03 340.88L387.52 340.14L387.04 339.4L386.59 338.62L386.17 337.83L385.78 337.03L385.43 336.21L385.09 335.37L384.8 334.52L384.53 333.67L384.3 332.78L384.11 331.9L383.95 330.98L383.82 330.08L383.72 329.14L383.67 328.21L383.66 327.26L383.69 326.31L383.69 320.9L362.25 315.17L361.94 315.87L361.61 316.54L361.25 317.2L360.9 317.84L360.51 318.47L360.11 319.1L359.69 319.7L359.26 320.29L358.81 320.87L358.34 321.42L357.86 321.96L357.36 322.5L356.84 323.01L356.31 323.51L355.78 323.99L355.23 324.46L354.65 324.91L354.07 325.34L353.5 325.76L352.88 326.17L352.27 326.54L351.64 326.91L351.02 327.24L350.37 327.58L349.71 327.89L349.05 328.18L348.38 328.45L347.7 328.69L347.01 328.93L346.32 329.14L345.61 329.34L344.9 329.5L344.18 329.64L343.45 329.77L342.73 329.88L341.99 329.96L341.25 330.03L340.51 330.08L339.75 330.09L339.01 330.09L337.98 330.06L336.97 329.98L335.97 329.85L334.97 329.69L334 329.5L333.04 329.26L332.11 329L331.17 328.68L330.25 328.34L329.37 327.97L328.48 327.55L327.63 327.12L326.79 326.63L325.97 326.13L325.19 325.59L324.41 325.02L323.66 324.43L322.93 323.82L322.24 323.17L321.56 322.5L320.9 321.79L320.29 321.06L319.7 320.32L319.13 319.55L318.59 318.76L318.09 317.94L317.6 317.1L317.17 316.25L316.75 315.38L316.38 314.5L316.03 313.58L315.72 312.66L315.45 311.71L315.21 310.76L315.01 309.8L314.85 308.82L314.72 307.82L314.64 306.82L314.59 305.81L314.59 304.78L314.61 304.18L314.63 303.57L314.66 302.94L314.71 302.3L314.77 301.64L314.85 300.98L314.93 300.3L315.03 299.61L315.14 298.93L315.27 298.23L315.56 296.84L315.72 296.15L315.9 295.46L316.28 294.07L316.49 293.41L316.72 292.74L317.2 291.45L317.46 290.82L317.72 290.21L317.99 289.62L318.28 289.05L318.59 288.49L318.89 287.97L319.21 287.46L319.54 286.99L319.87 286.54L320.21 286.12L320.57 285.74L320.94 285.38L321.31 285.06L321.69 284.79L322.08 284.55L322.48 284.34L322.9 284.18L323.32 284.06L323.74 284L324.17 283.97L306.18 231.95L306.18 233.72L305.5 234.17L305.15 234.4L304.81 234.6L304.46 234.81L304.1 235.01L303.76 235.22L303.39 235.39L303.04 235.59L302.69 235.76L301.94 236.12L301.2 236.44L300.46 236.73L300.08 236.87L299.71 237L299.32 237.15L298.94 237.26L298.55 237.39L298.16 237.5L297 237.79L296.6 237.89L296.22 237.97L295.81 238.05L295.41 238.11L295.02 238.18L294.62 238.24L293.41 238.39L292.61 238.45L292.21 238.47L291.79 238.48L291.39 238.5L290.98 238.5L290.29 238.52L289.6 238.52L288.91 238.5L288.23 238.47L287.54 238.42L286.19 238.26L285.53 238.15L284.85 238.02L284.19 237.87L283.55 237.71L282.89 237.53L282.25 237.34L281.62 237.13L280.36 236.65L279.75 236.39L278.53 235.81L277.93 235.51L276.77 234.83L276.21 234.48L275.66 234.11L275.12 233.72L274.57 233.32L274.05 232.9L273.52 232.46L272.52 231.56L272.06 231.08L271.57 230.6L271.12 230.1L270.67 229.58L269.84 228.52L269.42 227.96L269.03 227.39L268.66 226.81L268.29 226.22L174.65 307.17L174.7 307.32L174.9 307.8L174.96 307.95L175.02 308.11L175.19 308.43L175.28 308.59L175.44 308.91L175.83 309.56L176.01 309.88L176.3 310.36L176.39 310.54L176.49 310.7L176.57 310.86L176.67 311.02L176.75 311.2L176.91 311.52L176.97 311.7L177.05 311.86L177.12 312.03L177.18 312.2L177.23 312.36L177.29 312.53L177.33 312.69L177.37 312.87L177.41 313.03L177.44 313.21L177.45 313.39L177.47 313.55L177.47 314.22L177.45 314.74L177.39 315.74L177.34 316.24L177.28 316.73L177.21 317.22L177.05 318.21L176.96 318.7L176.73 319.66L176.6 320.15L176.47 320.61L176.33 321.1L176.01 322.03L175.83 322.5L175.25 323.85L175.04 324.3L174.81 324.75L174.59 325.18L174.35 325.62L174.09 326.04L173.83 326.47L173.58 326.89L173.3 327.29L173.01 327.71L172.72 328.11L172.42 328.5L172.11 328.9L171.79 329.29L171.47 329.66L170.79 330.4L170.44 330.75L170.07 331.11L169.71 331.46L168.96 332.1L168.2 332.73L167.43 333.31L166.62 333.86L165.82 334.37L164.98 334.86L164.14 335.29L163.29 335.69L162.42 336.06L161.54 336.4L160.65 336.69L159.77 336.96L158.87 337.19L157.95 337.37L157.03 337.53L156.11 337.66L155.2 337.74L154.28 337.79L153.36 337.8L152.43 337.79L151.51 337.72L150.59 337.62L149.68 337.51L148.77 337.35L147.86 337.14L146.97 336.92L146.07 336.66L145.2 336.35L144.33 336.02L143.46 335.65L142.63 335.24L141.79 334.79L140.97 334.33L140.16 333.81L139.39 333.28L138.62 332.7L137.86 332.09L137.14 331.43L136.43 330.75L135.74 330.04L135.09 329.29L134.47 328.53L133.89 327.76L133.34 326.95L132.82 326.15L132.34 325.31L131.91 324.48L131.5 323.62L131.13 322.75L130.8 321.87L130.51 320.98L130.23 320.1L130.01 319.2L129.83 318.28L129.67 317.38L129.54 316.46L129.46 315.53L129.41 314.61L129.4 313.69L129.41 312.76L129.48 311.84L129.57 310.92L129.69 310.01L129.85 309.11L130.06 308.2L130.28 307.3L130.56 306.42L130.85 305.53L131.18 304.66L131.55 303.79L131.96 302.96L132.41 302.12L132.87 301.3L133.39 300.49L133.92 299.72L134.5 298.95L135.11 298.19L135.77 297.47L136.45 296.76L137.15 296.09L137.91 295.43L138.67 294.8L139.44 294.22L140.24 293.67L141.05 293.16L141.89 292.69L142.72 292.24L143.58 291.84L144.44 291.47L145.33 291.13L146.22 290.84L147.1 290.58L148 290.36L148.92 290.16L149.84 290L150.75 289.87L151.67 289.79L152.59 289.74L153.51 289.73L154.44 289.76L155.36 289.81L156.27 289.9L157.19 290.02L158.09 290.19L158.99 290.39L159.9 290.61L160.78 290.89L161.67 291.18L162.53 291.51L163.4 291.88L164.24 292.29L165.08 292.74L165.9 293.2L166.7 293.72L167.48 294.27L168.25 294.83L169 295.46L169.73 296.1L170.44 296.78L171.11 297.49L268.61 214.26L268.63 213.25L268.69 212.25L268.79 211.27L268.94 210.29L269.11 209.34L269.32 208.39L269.58 207.45L269.85 206.54L270.17 205.62L270.53 204.73L270.91 203.86L271.33 203.03L271.78 202.19L272.27 201.39L272.78 200.58L273.33 199.82L273.89 199.07L274.5 198.34L275.12 197.65L275.78 196.98L276.45 196.32L277.14 195.69L277.87 195.09L278.62 194.53L279.4 193.98L280.19 193.47L280.99 192.98L281.83 192.53L282.68 192.12L283.55 191.73L284.43 191.37L285.34 191.05L286.25 190.76L287.19 190.52L288.14 190.3L289.1 190.12L290.07 189.99L291.05 189.89L292.05 189.83L293.06 189.81L294.07 189.83L295.07 189.89ZM435.21 406.49L433.29 407.3L431.52 408.39L429.96 409.73L428.62 411.3L427.53 413.06L426.71 414.99L426.21 417.05L426.03 419.22L426.21 421.4L426.71 423.47L427.53 425.39L428.62 427.16L429.96 428.72L431.52 430.05L433.29 431.15L435.21 431.97L437.28 432.47L439.46 432.65L439.04 432.76L439.57 432.76L441.74 432.57L443.8 432.03L445.72 431.21L447.47 430.1L449.02 428.75L450.35 427.17L451.43 425.4L452.22 423.47L452.72 421.4L452.88 419.22L452.7 417.05L452.19 414.99L451.38 413.06L450.29 411.3L448.93 409.73L447.37 408.39L445.62 407.3L443.69 406.49L441.63 405.98L439.46 405.8L437.28 405.98L435.21 406.49ZM410.37 350.47L410.12 350.5L410 350.5L409.87 350.52L409.75 350.52L409.62 350.53L409.49 350.53L409.36 350.55L408.97 350.55L408.84 350.56L409.21 350.56L409.31 350.55L409.52 350.55L409.62 350.53L409.83 350.53L409.92 350.52L410.02 350.52L410.13 350.5L410.23 350.5L410.42 350.47L410.53 350.47L410.63 350.45L410.5 350.47L410.37 350.47ZM402.02 313.79L400.09 314.59L398.33 315.69L396.77 317.02L395.44 318.6L394.34 320.36L393.52 322.29L393.02 324.35L392.85 326.52L392.43 326.31L392.43 326.94L392.67 329.11L393.25 331.17L394.12 333.07L395.26 334.79L396.66 336.3L398.25 337.61L400.06 338.64L402 339.4L404.08 339.83L406.27 339.94L408.44 339.77L410.5 339.27L412.43 338.45L414.19 337.35L415.75 336.02L417.1 334.45L418.18 332.68L419 330.77L419.51 328.69L419.68 326.52L419.51 324.35L419 322.29L418.18 320.36L417.1 318.6L415.75 317.02L414.19 315.69L412.43 314.59L410.5 313.79L408.44 313.27L406.27 313.1L404.08 313.27L402.02 313.79ZM149.19 300.16L147.26 300.96L145.51 302.06L143.95 303.41L142.59 304.97L141.52 306.72L140.69 308.65L140.18 310.71L140.02 312.89L140.18 315.08L140.69 317.14L141.52 319.05L142.59 320.82L143.95 322.38L145.51 323.72L147.26 324.81L149.19 325.63L151.25 326.13L153.43 326.31L155.61 326.13L157.67 325.63L159.61 324.81L161.36 323.72L162.92 322.38L164.27 320.82L165.35 319.05L166.17 317.14L166.67 315.08L166.85 312.89L166.67 310.71L166.17 308.65L165.35 306.72L164.27 304.97L162.92 303.41L161.36 302.06L159.61 300.96L157.67 300.16L155.61 299.64L153.43 299.46L151.25 299.64L149.19 300.16ZM335.65 293.91L333.72 294.73L331.96 295.81L330.38 297.16L329.05 298.72L327.95 300.48L327.15 302.41L326.63 304.47L326.46 306.64L326.63 308.83L327.15 310.89L327.95 312.82L329.05 314.58L330.38 316.14L331.96 317.47L333.72 318.57L335.65 319.39L337.71 319.89L339.88 320.07L339.56 320.07L339.59 320.08L339.9 320.08L342.07 319.9L344.13 319.39L346.06 318.57L347.81 317.49L349.37 316.14L350.71 314.58L351.81 312.82L352.63 310.89L353.12 308.83L353.3 306.64L353.12 304.47L352.63 302.41L351.81 300.48L350.71 298.72L349.37 297.16L347.81 295.81L346.04 294.73L344.13 293.91L342.05 293.4L339.88 293.22L337.71 293.4L335.65 293.91ZM363.51 308.94L363.38 310.09L363.18 311.23L363.6 311.12L363.68 310.01L363.72 308.88L363.68 307.77L363.6 306.64L363.59 307.8L363.51 308.94ZM501.6 260.73L499.66 261.53L497.91 262.62L496.35 263.96L495 265.54L493.9 267.29L493.1 269.22L492.58 271.28L492.41 273.46L492.58 275.63L493.1 277.71L493.9 279.62L495 281.39L496.35 282.95L497.91 284.29L499.66 285.38L501.6 286.2L503.66 286.7L505.83 286.88L505.1 286.99L505.44 286.99L505.52 287.01L505.96 287.01L508.13 286.81L510.19 286.28L512.11 285.45L513.86 284.34L515.4 282.98L516.74 281.41L517.82 279.64L518.61 277.71L519.09 275.65L519.25 273.46L519.07 271.28L518.58 269.22L517.75 267.29L516.66 265.54L515.32 263.96L513.76 262.62L511.99 261.53L510.08 260.73L508 260.21L505.83 260.03L503.66 260.21L501.6 260.73ZM288.92 200.73L286.99 201.51L285.21 202.58L283.63 203.9L282.26 205.43L281.13 207.18L280.3 209.08L279.75 211.14L279.54 213.31L279.69 215.5L280.15 217.58L280.94 219.51L282 221.28L283.32 222.87L284.87 224.24L286.61 225.35L288.52 226.2L290.58 226.73L292.75 226.94L292.96 227.36L295.14 227.18L297.2 226.69L299.13 225.87L300.88 224.77L302.44 223.43L303.8 221.87L304.87 220.12L305.69 218.19L306.21 216.13L306.37 213.94L306.39 213.92L306.39 213.75L306.24 211.57L305.76 209.5L304.99 207.55L303.92 205.78L302.6 204.19L301.06 202.83L299.32 201.71L297.41 200.87L295.35 200.32L293.17 200.11L291 200.26L288.92 200.73Z" id="c4cuuv6uR7"></path></defs><g><g><g><use xlink:href="#aU8NznD6x" opacity="1" fill="#734198" fill-opacity="1"></use><g><use xlink:href="#aU8NznD6x" opacity="1" fill-opacity="0" stroke="#000000" stroke-width="1" stroke-opacity="0"></use></g></g><g><use xlink:href="#d3p2w6xZpB" opacity="1" fill="#000000" fill-opacity="0"></use><g><use xlink:href="#d3p2w6xZpB" opacity="1" fill-opacity="0" stroke="#000000" stroke-width="1" stroke-opacity="0"></use></g></g><g><use xlink:href="#aBcaaMdSc" opacity="1" fill="#ffffff" fill-opacity="1"></use><g><use xlink:href="#aBcaaMdSc" opacity="1" fill-opacity="0" stroke="#000000" stroke-width="1" stroke-opacity="0"></use></g></g><g><use xlink:href="#c4cuuv6uR7" opacity="1" fill="#000000" fill-opacity="0"></use><g><use xlink:href="#c4cuuv6uR7" opacity="1" fill-opacity="0" stroke="#000000" stroke-width="1" stroke-opacity="0"></use></g></g></g></g></svg>