<?xml version="1.0" encoding="UTF-8" standalone="no"?>
<!DOCTYPE svg PUBLIC "-//W3C//DTD SVG 1.1//EN" "http://www.w3.org/Graphics/SVG/1.1/DTD/svg11.dtd">
<svg version="1.1" xmlns="http://www.w3.org/2000/svg" xmlns:xlink="http://www.w3.org/1999/xlink" preserveAspectRatio="xMidYMid meet" viewBox="0 0 640 640" width="640" height="640"><defs><path d="M320.94 633.96C146.95 633.96 5.9 493.29 5.9 319.76C5.9 146.23 146.95 5.56 320.94 5.56C494.94 5.56 635.99 146.23 635.99 319.76C635.99 493.29 494.94 633.96 320.94 633.96Z" id="cOml5yZK"></path><path d="M320.94 633.96C146.95 633.96 5.9 493.29 5.9 319.76C5.9 146.23 146.95 5.56 320.94 5.56C494.94 5.56 635.99 146.23 635.99 319.76C635.99 493.29 494.94 633.96 320.94 633.96Z" id="axuMFALAc"></path><path d="M317.89 157.88C277.61 157.88 244.95 144.08 244.95 127.07C244.95 110.07 277.61 96.28 317.89 96.28C358.18 96.28 390.84 110.07 390.84 127.07C390.84 144.08 358.18 157.88 317.89 157.88Z" id="f6x9sTHeG"></path><path d="M317.89 157.88C277.61 157.88 244.95 144.08 244.95 127.07C244.95 110.07 277.61 96.28 317.89 96.28C358.18 96.28 390.84 110.07 390.84 127.07C390.84 144.08 358.18 157.88 317.89 157.88Z" id="f4V5TQ8TVa"></path><path d="M317.89 166.6C278.47 166.6 245.99 153.89 242.21 137.69C242.21 137.69 242.21 137.69 242.21 137.69C242.21 149.77 242.21 246.4 242.21 258.48C242.21 258.48 242.21 258.48 242.21 258.48C242.21 276.24 276.27 290.53 318.31 290.53C360.36 290.53 394.42 276.14 394.42 258.48C394.42 250.42 394.42 210.16 394.42 137.69C393.97 137.69 393.69 137.69 393.58 137.69C389.8 153.89 357.31 166.6 317.89 166.6Z" id="aKUKAikfG"></path><path d="M317.89 166.6C278.47 166.6 245.99 153.89 242.21 137.69C242.21 137.69 242.21 137.69 242.21 137.69C242.21 149.77 242.21 246.4 242.21 258.48C242.21 258.48 242.21 258.48 242.21 258.48C242.21 276.24 276.27 290.53 318.31 290.53C360.36 290.53 394.42 276.14 394.42 258.48C394.42 250.42 394.42 210.16 394.42 137.69C393.97 137.69 393.69 137.69 393.58 137.69C389.8 153.89 357.31 166.6 317.89 166.6Z" id="c3LXFPpdTi"></path><path d="M202.47 361.06C162.18 361.06 129.52 347.28 129.52 330.27C129.52 313.26 162.18 299.48 202.47 299.48C242.77 299.48 275.43 313.26 275.43 330.27C275.43 347.28 242.77 361.06 202.47 361.06Z" id="ay9Q1a4rj"></path><path d="M202.47 361.06C162.18 361.06 129.52 347.28 129.52 330.27C129.52 313.26 162.18 299.48 202.47 299.48C242.77 299.48 275.43 313.26 275.43 330.27C275.43 347.28 242.77 361.06 202.47 361.06Z" id="fvan8J3ZN"></path><path d="M202.47 369.79C163.05 369.79 130.58 357.07 126.78 340.89C126.78 340.89 126.78 340.89 126.78 340.89C126.78 352.97 126.78 449.59 126.78 461.67C126.78 461.67 126.78 461.67 126.78 461.67C126.78 479.44 160.84 493.73 202.9 493.73C244.95 493.73 279.01 479.32 279.01 461.67C279.01 453.62 279.01 413.36 279.01 340.89C278.56 340.89 278.27 340.89 278.15 340.89C274.37 357.07 241.89 369.79 202.47 369.79Z" id="b2KuhcmGb"></path><path d="M202.47 369.79C163.05 369.79 130.58 357.07 126.78 340.89C126.78 340.89 126.78 340.89 126.78 340.89C126.78 352.97 126.78 449.59 126.78 461.67C126.78 461.67 126.78 461.67 126.78 461.67C126.78 479.44 160.84 493.73 202.9 493.73C244.95 493.73 279.01 479.32 279.01 461.67C279.01 453.62 279.01 413.36 279.01 340.89C278.56 340.89 278.27 340.89 278.15 340.89C274.37 357.07 241.89 369.79 202.47 369.79Z" id="bgbohxtCA"></path><path d="M439.41 361.06C399.12 361.06 366.46 347.28 366.46 330.27C366.46 313.26 399.12 299.48 439.41 299.48C479.71 299.48 512.37 313.26 512.37 330.27C512.37 347.28 479.71 361.06 439.41 361.06Z" id="a19pOicGdP"></path><path d="M439.41 361.06C399.12 361.06 366.46 347.28 366.46 330.27C366.46 313.26 399.12 299.48 439.41 299.48C479.71 299.48 512.37 313.26 512.37 330.27C512.37 347.28 479.71 361.06 439.41 361.06Z" id="b36i2jpsd"></path><path d="M439.41 369.79C399.99 369.79 367.52 357.07 363.72 340.89C363.72 340.89 363.72 340.89 363.72 340.89C363.72 352.97 363.72 449.59 363.72 461.67C363.72 461.67 363.72 461.67 363.72 461.67C363.72 479.44 397.78 493.73 439.84 493.73C481.88 493.73 515.94 479.32 515.94 461.67C515.94 453.62 515.94 413.36 515.94 340.89C515.49 340.89 515.2 340.89 515.09 340.89C511.31 357.07 478.83 369.79 439.41 369.79Z" id="aa0Ke4tKS"></path><path d="M439.41 369.79C399.99 369.79 367.52 357.07 363.72 340.89C363.72 340.89 363.72 340.89 363.72 340.89C363.72 352.97 363.72 449.59 363.72 461.67C363.72 461.67 363.72 461.67 363.72 461.67C363.72 479.44 397.78 493.73 439.84 493.73C481.88 493.73 515.94 479.32 515.94 461.67C515.94 453.62 515.94 413.36 515.94 340.89C515.49 340.89 515.2 340.89 515.09 340.89C511.31 357.07 478.83 369.79 439.41 369.79Z" id="a27C7f7wVT"></path><path d="M354.37 398.81C354.37 421.07 354.37 433.45 354.37 435.91C354.37 435.91 354.37 435.91 354.37 435.91C314.64 435.91 292.56 435.91 288.15 435.91C288.15 435.91 288.15 435.91 288.15 435.91C288.15 413.65 288.15 401.29 288.15 398.81C288.15 398.81 288.15 398.81 288.15 398.81C327.87 398.81 349.96 398.81 354.37 398.81C354.37 398.81 354.37 398.81 354.37 398.81Z" id="iwGSmTQ"></path><path d="M354.37 398.81C354.37 421.07 354.37 433.45 354.37 435.91C354.37 435.91 354.37 435.91 354.37 435.91C314.64 435.91 292.56 435.91 288.15 435.91C288.15 435.91 288.15 435.91 288.15 435.91C288.15 413.65 288.15 401.29 288.15 398.81C288.15 398.81 288.15 398.81 288.15 398.81C327.87 398.81 349.96 398.81 354.37 398.81C354.37 398.81 354.37 398.81 354.37 398.81Z" id="d9rTNMqQd"></path><path d="M200.05 290.85C203.4 290.85 205.25 290.85 205.62 290.85C218.89 290.75 232.1 292.38 244.95 295.68C245.93 294.73 253.73 287.08 254.72 286.12C242.42 280.44 234.95 272.87 234.95 264.57C234.95 264.57 234.95 264.57 234.95 264.57C234.94 264.04 234.91 261.42 234.85 256.69C213.97 277.19 202.37 288.57 200.05 290.85Z" id="cuGHrtvNI"></path><path d="M200.05 290.85C203.4 290.85 205.25 290.85 205.62 290.85C218.89 290.75 232.1 292.38 244.95 295.68C245.93 294.73 253.73 287.08 254.72 286.12C242.42 280.44 234.95 272.87 234.95 264.57C234.95 264.57 234.95 264.57 234.95 264.57C234.94 264.04 234.91 261.42 234.85 256.69C213.97 277.19 202.37 288.57 200.05 290.85Z" id="e3jFfJyvSp"></path><path d="M401.05 254.91C401.05 261.2 401.05 264.71 401.05 265.42C401.05 273.29 394.32 280.44 383.28 286.44C384.24 287.37 391.99 294.96 392.95 295.89C406.28 292.25 420.03 290.45 433.84 290.53C434.37 290.53 435.7 290.53 437.83 290.53C430.47 283.4 404.73 258.47 401.05 254.91Z" id="a11ErgHg8m"></path><path d="M401.05 254.91C401.05 261.2 401.05 264.71 401.05 265.42C401.05 273.29 394.32 280.44 383.28 286.44C384.24 287.37 391.99 294.96 392.95 295.89C406.28 292.25 420.03 290.45 433.84 290.53C434.37 290.53 435.7 290.53 437.83 290.53C430.47 283.4 404.73 258.47 401.05 254.91Z" id="d3cMn1Xnh"></path></defs><g><g><g><use xlink:href="#cOml5yZK" opacity="1" fill="#734198" fill-opacity="1"></use><g><use xlink:href="#cOml5yZK" opacity="1" fill-opacity="0" stroke="#000000" stroke-width="1" stroke-opacity="0"></use></g></g><g><use xlink:href="#axuMFALAc" opacity="1" fill="#000000" fill-opacity="0"></use><g><use xlink:href="#axuMFALAc" opacity="1" fill-opacity="0" stroke="#000000" stroke-width="1" stroke-opacity="0"></use></g></g><g><use xlink:href="#f6x9sTHeG" opacity="1" fill="#ffffff" fill-opacity="1"></use><g><use xlink:href="#f6x9sTHeG" opacity="1" fill-opacity="0" stroke="#000000" stroke-width="1" stroke-opacity="0"></use></g></g><g><use xlink:href="#f4V5TQ8TVa" opacity="1" fill="#000000" fill-opacity="0"></use><g><use xlink:href="#f4V5TQ8TVa" opacity="1" fill-opacity="0" stroke="#000000" stroke-width="1" stroke-opacity="0"></use></g></g><g><use xlink:href="#aKUKAikfG" opacity="1" fill="#ffffff" fill-opacity="1"></use><g><use xlink:href="#aKUKAikfG" opacity="1" fill-opacity="0" stroke="#000000" stroke-width="1" stroke-opacity="0"></use></g></g><g><use xlink:href="#c3LXFPpdTi" opacity="1" fill="#000000" fill-opacity="0"></use><g><use xlink:href="#c3LXFPpdTi" opacity="1" fill-opacity="0" stroke="#000000" stroke-width="1" stroke-opacity="0"></use></g></g><g><use xlink:href="#ay9Q1a4rj" opacity="1" fill="#ffffff" fill-opacity="1"></use><g><use xlink:href="#ay9Q1a4rj" opacity="1" fill-opacity="0" stroke="#000000" stroke-width="1" stroke-opacity="0"></use></g></g><g><use xlink:href="#fvan8J3ZN" opacity="1" fill="#000000" fill-opacity="0"></use><g><use xlink:href="#fvan8J3ZN" opacity="1" fill-opacity="0" stroke="#000000" stroke-width="1" stroke-opacity="0"></use></g></g><g><use xlink:href="#b2KuhcmGb" opacity="1" fill="#ffffff" fill-opacity="1"></use><g><use xlink:href="#b2KuhcmGb" opacity="1" fill-opacity="0" stroke="#000000" stroke-width="1" stroke-opacity="0"></use></g></g><g><use xlink:href="#bgbohxtCA" opacity="1" fill="#000000" fill-opacity="0"></use><g><use xlink:href="#bgbohxtCA" opacity="1" fill-opacity="0" stroke="#000000" stroke-width="1" stroke-opacity="0"></use></g></g><g><use xlink:href="#a19pOicGdP" opacity="1" fill="#ffffff" fill-opacity="1"></use><g><use xlink:href="#a19pOicGdP" opacity="1" fill-opacity="0" stroke="#000000" stroke-width="1" stroke-opacity="0"></use></g></g><g><use xlink:href="#b36i2jpsd" opacity="1" fill="#000000" fill-opacity="0"></use><g><use xlink:href="#b36i2jpsd" opacity="1" fill-opacity="0" stroke="#000000" stroke-width="1" stroke-opacity="0"></use></g></g><g><use xlink:href="#aa0Ke4tKS" opacity="1" fill="#ffffff" fill-opacity="1"></use><g><use xlink:href="#aa0Ke4tKS" opacity="1" fill-opacity="0" stroke="#000000" stroke-width="1" stroke-opacity="0"></use></g></g><g><use xlink:href="#a27C7f7wVT" opacity="1" fill="#000000" fill-opacity="0"></use><g><use xlink:href="#a27C7f7wVT" opacity="1" fill-opacity="0" stroke="#000000" stroke-width="1" stroke-opacity="0"></use></g></g><g><use xlink:href="#iwGSmTQ" opacity="1" fill="#ffffff" fill-opacity="1"></use><g><use xlink:href="#iwGSmTQ" opacity="1" fill-opacity="0" stroke="#000000" stroke-width="1" stroke-opacity="0"></use></g></g><g><use xlink:href="#d9rTNMqQd" opacity="1" fill="#000000" fill-opacity="0"></use><g><use xlink:href="#d9rTNMqQd" opacity="1" fill-opacity="0" stroke="#000000" stroke-width="1" stroke-opacity="0"></use></g></g><g><use xlink:href="#cuGHrtvNI" opacity="1" fill="#ffffff" fill-opacity="1"></use><g><use xlink:href="#cuGHrtvNI" opacity="1" fill-opacity="0" stroke="#000000" stroke-width="1" stroke-opacity="0"></use></g></g><g><use xlink:href="#e3jFfJyvSp" opacity="1" fill="#000000" fill-opacity="0"></use><g><use xlink:href="#e3jFfJyvSp" opacity="1" fill-opacity="0" stroke="#000000" stroke-width="1" stroke-opacity="0"></use></g></g><g><use xlink:href="#a11ErgHg8m" opacity="1" fill="#ffffff" fill-opacity="1"></use><g><use xlink:href="#a11ErgHg8m" opacity="1" fill-opacity="0" stroke="#000000" stroke-width="1" stroke-opacity="0"></use></g></g><g><use xlink:href="#d3cMn1Xnh" opacity="1" fill="#000000" fill-opacity="0"></use><g><use xlink:href="#d3cMn1Xnh" opacity="1" fill-opacity="0" stroke="#000000" stroke-width="1" stroke-opacity="0"></use></g></g></g></g></svg>