<?xml version="1.0" encoding="UTF-8" standalone="no"?>
<!DOCTYPE svg PUBLIC "-//W3C//DTD SVG 1.1//EN" "http://www.w3.org/Graphics/SVG/1.1/DTD/svg11.dtd">
<svg version="1.1" xmlns="http://www.w3.org/2000/svg" xmlns:xlink="http://www.w3.org/1999/xlink" preserveAspectRatio="xMidYMid meet" viewBox="0 0 640 640" width="640" height="640"><defs><path d="M324.4 636.03C150.09 636.03 8.78 495.4 8.78 321.89C8.78 148.4 150.09 7.76 324.4 7.76C498.71 7.76 640 148.4 640 321.89C640 495.4 498.71 636.03 324.4 636.03Z" id="f2h0umMK4d"></path><path d="M324.4 636.03C150.09 636.03 8.78 495.4 8.78 321.89C8.78 148.4 150.09 7.76 324.4 7.76C498.71 7.76 640 148.4 640 321.89C640 495.4 498.71 636.03 324.4 636.03Z" id="h3yuQevY2G"></path><path d="M473.14 117.44L473.38 117.48L473.63 117.5L473.89 117.53L474.13 117.57L474.38 117.62L474.62 117.65L475.35 117.81L475.84 117.95L476.07 118.02L476.56 118.16L477.01 118.33L477.25 118.42L477.48 118.51L477.71 118.61L477.93 118.7L478.39 118.91L478.62 119.03L478.82 119.14L479.05 119.26L479.26 119.38L479.49 119.52L479.7 119.64L480.53 120.2L480.73 120.34L480.93 120.5L481.51 120.97L482.23 121.63L484.37 123.57L485.07 124.23L485.78 124.87L491.36 130.18L492.05 130.84L492.74 131.5L493.44 132.18L494.12 132.85L494.82 133.51L495.5 134.19L496.18 134.85L496.88 135.51L497.56 136.19L498.24 136.86L498.93 137.54L499.61 138.2L500.29 138.88L500.99 139.54L501.67 140.22L502.35 140.89L503.05 141.55L503.73 142.23L504.41 142.89L505.11 143.55L505.79 144.23L506.49 144.9L507.17 145.56L507.86 146.22L508.54 146.89L509.24 147.55L509.31 147.58L509.38 147.64L509.45 147.67L509.5 147.72L509.57 147.76L509.64 147.81L509.7 147.86L509.77 147.91L509.84 147.95L509.89 148L509.96 148.05L510.01 148.11L510.08 148.16L510.18 148.26L510.25 148.32L510.36 148.42L510.43 148.47L510.53 148.58L510.59 148.65L510.69 148.75L510.74 148.82L510.85 148.93L510.9 149L510.95 149.05L511 149.12L511.06 149.17L511.09 149.24L511.14 149.31L511.2 149.36L511.23 149.43L511.28 149.5L511.34 149.55L511.37 149.62L511.42 149.69L511.46 149.76L511.74 150.25L511.86 150.51L511.98 150.76L512.09 151.02L512.17 151.28L512.38 152.07L512.42 152.35L512.47 152.61L512.49 152.87L512.5 153.15L512.5 153.67L512.49 153.95L512.47 154.21L512.43 154.47L512.33 155L512.26 155.26L512.19 155.5L512.1 155.76L512.02 156.01L511.91 156.25L511.67 156.74L511.54 156.97L511.4 157.19L511.09 157.65L510.74 158.07L510.36 158.45L510.15 158.64L509.94 158.82L509.71 158.99L509.49 159.15L509.24 159.3L507.99 160.58L507.27 161.28L505.84 162.71L505.14 163.44L504.45 164.19L503.73 164.94L503.03 165.69L500.24 168.76L499.54 169.54L498.85 170.31L498.15 171.09L496.75 172.63L496.04 173.4L495.34 174.16L494.63 174.91L493.93 175.66L492.5 177.13L491.78 177.84L490.32 179.24L489.59 179.92L488.85 180.58L488.12 181.23L487.37 181.86L486.62 182.47L485.85 183.06L485.09 183.63L484.32 184.19L483.53 184.72L482.75 185.22L481.95 185.71L481.14 186.16L480.32 186.58L479.5 186.98L478.68 187.35L477.85 187.7L476.99 188.01L476.12 188.29L475.25 188.55L474.36 188.8L473.45 189.01L472.55 189.2L471.64 189.37L470.71 189.53L468.83 189.77L467.89 189.86L466.93 189.95L465.97 190.02L464.99 190.07L464.02 190.11L463.04 190.12L462.05 190.14L461.05 190.14L458.07 190.09L457.06 190.05L456.06 190L455.05 189.97L448.98 189.65L447.99 189.6L446.98 189.55L445.98 189.5L444.97 189.46L442.98 189.39L441.99 189.37L441.01 189.36L329.96 189.36L329.96 239.55L469.55 239.55L469.95 239.59L470.33 239.6L470.73 239.64L471.13 239.69L471.52 239.74L471.92 239.8L472.3 239.87L472.7 239.94L473.09 240.01L474.24 240.27L475.39 240.58L475.75 240.7L476.14 240.83L476.5 240.95L477.6 241.37L478.34 241.68L478.7 241.85L479.05 242.01L479.4 242.19L479.75 242.38L480.1 242.55L480.45 242.74L480.8 242.95L481.13 243.14L481.46 243.35L481.81 243.58L482.12 243.79L482.78 244.24L484.04 245.22L484.68 245.78L485.33 246.32L486.62 247.44L487.25 247.99L487.89 248.57L489.15 249.72L489.76 250.3L490.39 250.87L491 251.46L491.63 252.06L494.68 255.02L495.27 255.63L495.88 256.23L496.48 256.84L497.09 257.43L498.29 258.63L499.49 259.85L503.1 263.46L504.32 264.65L504.92 265.24L506.14 266.43L506.77 267L507.38 267.6L507.99 268.17L508.61 268.75L508.95 269.08L509.28 269.43L509.59 269.76L509.89 270.09L510.17 270.42L510.43 270.75L510.67 271.09L510.9 271.4L511.13 271.73L511.32 272.06L511.49 272.38L511.67 272.71L511.95 273.34L512.05 273.67L512.15 273.98L512.29 274.61L512.33 274.94L512.36 275.25L512.36 275.57L512.35 275.88L512.31 276.2L512.26 276.51L512.19 276.84L512.1 277.16L511.86 277.78L511.7 278.11L511.53 278.43L511.34 278.74L511.11 279.07L510.88 279.39L510.62 279.7L510.34 280.03L510.04 280.36L509.71 280.68L509.36 281.01L509 281.34L508.61 281.67L508.58 281.69L508.51 281.76L508.47 281.78L508.4 281.85L508.37 281.86L508.3 281.93L508.27 281.95L508.23 281.99L508.21 282.02L508.18 282.04L508.07 282.14L508.04 282.16L508 282.2L507.99 282.23L507.92 282.3L507.88 282.32L507.85 282.35L507.83 282.39L507.72 282.49L507.71 282.53L507.67 282.54L507.6 282.61L507.59 282.65L507.52 282.72L507.5 282.75L507.46 282.79L507.45 282.82L507.38 282.89L507.36 282.93L506.19 284.55L504.99 286.16L503.73 287.69L502.46 289.21L501.13 290.67L499.77 292.09L498.38 293.46L496.95 294.81L495.48 296.1L493.98 297.35L492.46 298.56L490.89 299.71L489.31 300.82L487.7 301.9L486.06 302.92L484.39 303.89L482.7 304.82L480.97 305.71L479.23 306.54L477.46 307.33L475.69 308.06L473.87 308.74L472.06 309.39L470.21 309.96L468.36 310.5L466.48 310.99L464.59 311.41L462.69 311.79L460.77 312.13L458.85 312.4L456.92 312.61L454.96 312.79L453.01 312.89L451.06 312.96L449.09 312.96L447.12 312.91L445.13 312.81L443.16 312.63L441.17 312.4L439.2 312.13L436.72 311.92L434.26 311.74L431.79 311.57L429.31 311.43L426.85 311.29L424.37 311.17L421.9 311.06L419.42 310.97L414.47 310.83L411.99 310.78L409.51 310.75L407.02 310.71L402.07 310.68L399.57 310.68L397.09 310.7L394.6 310.7L392.12 310.73L389.63 310.75L387.14 310.78L384.66 310.82L382.16 310.85L379.67 310.9L377.19 310.96L374.7 310.99L369.71 311.1L367.23 311.15L362.25 311.25L359.75 311.29L357.26 311.34L354.78 311.38L349.79 311.45L344.81 311.48L342.33 311.5L329.96 311.5L329.96 361.27L472.37 361.27L472.62 361.29L472.84 361.31L473.09 361.33L473.31 361.34L473.54 361.38L473.78 361.4L474.01 361.43L474.24 361.48L474.46 361.52L475.6 361.78L476.05 361.92L476.26 361.99L476.49 362.08L476.7 362.15L476.92 362.23L477.34 362.41L477.57 362.51L477.78 362.6L478.2 362.81L478.39 362.91L478.6 363.04L478.81 363.14L479.19 363.39L479.4 363.51L479.59 363.65L479.78 363.77L479.98 363.91L480.15 364.05L480.34 364.19L480.53 364.34L480.71 364.48L480.88 364.64L483.81 367.36L484.53 368.04L485.26 368.74L485.99 369.42L486.71 370.1L487.44 370.8L488.16 371.5L488.89 372.18L489.6 372.87L490.34 373.57L491.05 374.25L491.77 374.95L492.5 375.65L494.64 377.74L495.38 378.44L496.81 379.83L497.52 380.55L498.95 381.94L499.68 382.64L500.4 383.34L501.11 384.05L501.83 384.75L502.56 385.45L503.28 386.16L504.71 387.56L505.44 388.26L506.16 388.97L506.87 389.67L507.6 390.37L508.32 391.06L509.05 391.78L509.77 392.48L510.08 392.69L510.13 392.74L510.24 392.81L510.32 392.9L510.43 392.97L510.46 393.02L510.57 393.09L510.6 393.14L510.65 393.18L510.69 393.23L510.74 393.26L510.79 393.31L510.83 393.37L510.88 393.4L510.95 393.51L511 393.54L511.04 393.59L511.13 393.68L511.2 393.79L511.25 393.84L511.32 393.94L511.35 393.98L511.42 394.08L511.47 394.13L511.54 394.24L511.68 394.47L511.93 394.92L512.14 395.37L512.22 395.6L512.36 396.09L512.43 396.31L512.49 396.56L512.56 397.05L512.59 397.54L512.59 397.78L512.57 398.02L512.57 398.25L512.47 398.98L512.42 399.21L512.35 399.45L512.21 399.91L512.1 400.13L512.02 400.36L511.91 400.57L511.79 400.8L511.54 401.22L511.4 401.41L511.25 401.62L511.09 401.81L510.93 401.98L510.76 402.17L510.57 402.35L510.39 402.51L510.18 402.68L509.99 402.84L509.77 402.98L509.07 403.66L508.37 404.36L507.67 405.04L506.97 405.73L506.28 406.41L505.58 407.11L504.88 407.79L501.41 411.26L500.71 411.94L497.94 414.72L497.24 415.4L496.54 416.09L495.85 416.77L495.15 417.47L494.43 418.15L493.04 419.51L492.32 420.19L491.63 420.87L490.91 421.55L490.21 422.23L489.5 422.91L488.78 423.58L488.07 424.26L487.35 424.92L486.62 425.58L485.19 426.91L483.73 428.23L482.99 428.88L482.26 429.54L481.51 430.19L480.73 430.71L480.45 430.87L480.18 431.02L479.63 431.34L479.35 431.48L479.07 431.63L478.79 431.77L478.51 431.9L478.21 432.03L477.93 432.16L477.64 432.26L477.34 432.38L477.06 432.49L476.47 432.7L476.17 432.78L475.86 432.89L475.56 432.98L475.27 433.05L474.95 433.12L474.66 433.2L474.34 433.26L474.05 433.33L473.1 433.48L472.81 433.52L472.18 433.59L470.92 433.66L469.96 433.66L469.65 433.64L330.07 433.64L330.07 526.71L318.29 525.01L318.29 384.07L318.28 383.79L318.26 383.5L318.22 382.94L318.21 382.64L318.17 382.36L318.15 382.08L318.14 381.79L318.1 381.51L318.08 381.23L318.05 380.93L318.03 380.65L318 380.37L317.98 380.08L317.88 379.24L317.84 378.94L317.82 378.66L317.75 378.11L317.72 377.81L317.68 377.53L317.63 377.25L317.6 376.97L317.56 376.68L317.53 376.4L317.47 376.12L317.44 375.84L317.4 375.54L317.35 375.26L317.32 374.98L317.27 374.7L317.23 374.43L317.18 374.15L317.13 373.85L317.09 373.57L316.93 372.73L252.03 372.73L250.1 372.72L244.29 372.72L242.35 372.73L240.4 372.73L238.47 372.75L236.51 372.75L234.56 372.77L232.6 372.77L226.74 372.82L224.79 372.82L222.84 372.84L220.87 372.86L218.91 372.86L216.94 372.87L207.12 372.87L205.17 372.86L203.2 372.84L201.25 372.82L197.3 372.79L195.35 372.75L191.41 372.68L189.45 372.63L187.48 372.58L185.53 372.51L183.56 372.44L181.61 372.37L177.7 372.19L175.73 372.11L173.78 372L173.32 371.97L172.85 371.9L172.4 371.83L171.93 371.72L171.47 371.58L171 371.44L170.55 371.29L169.64 370.9L169.17 370.68L168.72 370.45L167.81 369.93L167.36 369.65L166.9 369.35L166 368.72L165.56 368.39L165.11 368.06L164.65 367.69L164.22 367.34L163.76 366.98L163.33 366.59L162.87 366.21L162.44 365.83L162 365.43L161.55 365.02L161.11 364.62L160.68 364.21L160.24 363.8L158.93 362.55L158.5 362.15L158.06 361.73L157.64 361.31L157.21 360.91L156.79 360.51L156.35 360.11L155.93 359.71L155.5 359.3L155.08 358.92L154.24 358.12L153.84 357.73L153 356.93L152.2 356.13L151.8 355.75L151.38 355.34L150.18 354.14L149.79 353.74L148.99 352.94L148.59 352.55L148.19 352.15L147.81 351.75L144.63 348.58L143.83 347.81L143.43 347.41L142.62 346.64L142.22 346.24L141.81 345.86L141 345.09L140.17 344.32L139.75 343.96L139.61 343.85L139.52 343.8L139.38 343.69L139.29 343.64L139.08 343.48L139.01 343.42L138.93 343.36L138.86 343.31L138.79 343.24L138.72 343.19L138.67 343.12L138.6 343.07L138.53 343L138.46 342.94L138.39 342.87L138.33 342.8L138.26 342.75L138.19 342.68L138.14 342.61L138.07 342.54L138.02 342.47L137.95 342.42L137.9 342.35L137.83 342.28L137.78 342.21L137.72 342.12L137.65 342.05L137.5 341.85L137.44 341.76L137.34 341.62L137.29 341.53L137.18 341.39L137.01 341.1L136.85 340.8L136.57 340.21L136.45 339.89L136.35 339.6L136.24 339.28L136.15 338.97L136.08 338.65L135.98 338.03L135.96 337.71L135.93 337.4L135.93 336.77L135.94 336.46L136.01 335.83L136.07 335.51L136.14 335.2L136.21 334.9L136.29 334.59L136.5 334L136.63 333.72L136.76 333.42L136.9 333.14L137.06 332.86L137.22 332.6L137.39 332.34L137.78 331.82L138 331.57L138.21 331.35L138.44 331.1L138.68 330.89L138.94 330.67L139.47 330.28L139.75 330.09L140.38 329.5L140.99 328.92L141.58 328.33L143.41 326.55L147 322.96L147.6 322.35L148.8 321.14L149.39 320.53L150 319.94L150.6 319.33L153.6 316.33L156.65 313.36L157.26 312.79L157.87 312.2L160.38 309.89L161.64 308.78L163.57 307.1L164.22 306.56L164.53 306.3L165.16 305.81L165.47 305.58L165.79 305.34L166.12 305.11L166.45 304.9L166.76 304.68L167.11 304.47L167.44 304.28L167.78 304.07L168.47 303.68L169.87 302.99L170.6 302.67L170.95 302.53L171.32 302.38L171.7 302.24L172.8 301.87L173.18 301.75L173.57 301.64L173.93 301.54L174.32 301.45L174.7 301.35L175.08 301.28L175.48 301.19L176.25 301.05L176.64 301L177.04 300.95L177.42 300.89L177.82 300.84L178.22 300.81L178.61 300.79L318.19 300.79L318.19 250.78L179.46 250.78L179.03 250.82L177.73 250.82L177.3 250.78L176.86 250.77L176.44 250.73L176.03 250.68L175.59 250.63L174.75 250.49L174.33 250.4L173.91 250.3L173.51 250.21L173.09 250.09L172.29 249.84L171.49 249.56L171.09 249.41L170.71 249.25L170.32 249.07L169.94 248.88L169.55 248.71L169.17 248.5L168.8 248.31L168.44 248.08L168.07 247.87L167.72 247.64L167.36 247.4L167.01 247.16L166.68 246.89L166.33 246.63L166 246.37L165.66 246.09L165.35 245.81L164.72 245.22L164.43 244.91L164.11 244.59L163.54 243.98L161.76 242.15L161.15 241.54L159.37 239.71L158.17 238.51L157.57 237.89L155.78 236.1L155.17 235.51L154.57 234.89L153.35 233.71L152.76 233.12L151.54 231.93L150.93 231.32L150.32 230.74L146.65 227.19L146.04 226.61L145.43 226.02L144.81 225.42L144.19 224.85L143.58 224.26L142.96 223.68L142.35 223.09L141.72 222.51L141.11 221.92L140.48 221.34L139.85 220.75L139.78 220.72L139.64 220.61L139.56 220.56L139.49 220.52L139.07 220.21L139.01 220.14L138.81 219.98L138.68 219.86L138.61 219.81L138.56 219.74L138.49 219.69L138.44 219.62L138.37 219.56L138.32 219.49L138.19 219.37L138.14 219.3L138.07 219.23L137.6 218.6L137.57 218.53L137.46 218.4L137.43 218.31L137.27 218.05L137.13 217.78L136.89 217.26L136.78 216.98L136.69 216.72L136.61 216.44L136.56 216.16L136.49 215.88L136.38 215.05L136.36 214.77L136.36 214.49L136.4 213.93L136.47 213.37L136.52 213.11L136.57 212.83L136.64 212.57L136.73 212.29L136.82 212.03L136.92 211.77L137.04 211.52L137.17 211.26L137.29 211.02L137.43 210.77L137.58 210.55L137.74 210.3L137.92 210.08L138.09 209.87L138.47 209.45L138.68 209.24L138.91 209.05L139.14 208.87L139.36 208.68L139.85 208.37L141.25 207.04L141.93 206.36L142.62 205.7L143.31 205.04L144 204.37L144.68 203.69L145.38 203.03L146.06 202.35L146.74 201.69L147.44 201.01L148.12 200.34L148.8 199.66L149.48 199L150.18 198.32L150.86 197.66L151.54 196.98L152.24 196.31L152.92 195.63L153.6 194.97L154.29 194.29L154.97 193.63L155.67 192.97L156.35 192.3L157.75 190.98L158.43 190.31L160.52 188.33L161.22 187.68L161.92 187.02L162.61 186.37L163.33 185.73L164.03 185.08L164.74 184.44L165.44 183.79L166.15 183.16L166.87 182.52L167.58 181.89L167.81 181.73L168.05 181.58L168.28 181.42L168.53 181.28L168.77 181.12L169.01 180.98L169.26 180.86L169.5 180.72L169.75 180.6L169.99 180.46L170.25 180.36L170.5 180.23L170.76 180.11L171.02 180.01L171.26 179.9L171.53 179.8L171.79 179.71L172.05 179.61L172.31 179.52L172.59 179.45L172.85 179.36L173.11 179.29L173.39 179.2L173.65 179.15L173.93 179.08L174.19 179.01L174.75 178.91L175.01 178.87L175.29 178.82L176.13 178.72L177.25 178.65L177.53 178.65L177.8 178.63L317.67 178.63L317.72 178.38L317.79 177.86L317.81 177.6L317.88 177.11L317.91 176.85L317.95 176.36L317.98 176.12L318 175.86L318.03 175.37L318.05 175.14L318.1 174.41L318.1 174.18L318.14 173.69L318.14 173.47L318.15 173.22L318.15 173L318.17 172.77L318.17 172.07L318.19 171.83L318.19 125.43L318.21 125L318.22 124.58L318.29 123.78L318.35 123.39L318.4 123.03L318.47 122.66L318.73 121.67L319.1 120.78L319.24 120.51L319.39 120.25L319.74 119.76L319.93 119.54L320.13 119.33L320.58 118.94L320.82 118.77L321.08 118.6L321.35 118.44L321.63 118.3L321.92 118.16L322.24 118.04L322.57 117.93L322.92 117.83L323.27 117.74L323.65 117.65L324.03 117.58L324.43 117.53L324.85 117.48L325.29 117.44L325.74 117.43L326.21 117.41L472.63 117.41L472.88 117.43L473.14 117.44ZM463.72 372.49L463.25 372.52L462.78 372.58L462.29 372.63L330.07 372.63L330.07 421.47L330.15 421.52L330.24 421.59L330.42 421.69L330.49 421.74L330.57 421.78L330.66 421.83L330.73 421.87L330.82 421.92L330.9 421.95L331.04 422.02L331.13 422.04L331.2 422.08L331.27 422.09L331.34 422.13L331.48 422.16L331.53 422.18L331.6 422.2L331.65 422.22L331.72 422.23L331.78 422.23L331.88 422.27L331.97 422.27L332.02 422.28L332.09 422.28L332.13 422.3L471.13 422.3L471.29 422.28L471.43 422.28L471.59 422.27L471.73 422.27L471.87 422.25L472.02 422.23L472.16 422.2L472.3 422.18L472.46 422.16L473.44 421.92L473.71 421.81L473.85 421.78L474.13 421.67L474.25 421.6L474.53 421.5L474.66 421.43L474.8 421.36L474.92 421.31L475.06 421.24L475.18 421.17L475.3 421.08L475.42 421.01L475.56 420.94L475.81 420.77L475.93 420.7L476.03 420.61L476.16 420.52L475.32 420.73L476.47 419.62L477.06 419.08L478.21 417.96L478.81 417.42L479.99 416.3L480.57 415.76L481.75 414.65L482.35 414.1L482.94 413.55L483.55 412.99L484.14 412.45L485.33 411.33L485.92 410.79L486.53 410.23L487.13 409.69L487.72 409.13L488.31 408.59L488.91 408.04L489.5 407.49L490.11 406.95L490.7 406.4L491.89 405.31L492.46 404.77L493.65 403.69L494.23 403.15L494.82 402.61L495.39 402.07L495.99 401.55L497.14 400.47L497.71 399.94L498.27 399.4L498.85 398.88L498.29 398.3L497.73 397.74L496.65 396.63L496.11 396.09L495.57 395.53L495.03 395.01L494.5 394.47L493.46 393.42L492.95 392.9L490.41 390.35L489.92 389.84L489.43 389.36L488.94 388.85L487.96 387.87L487.49 387.38L486.53 386.43L485.59 385.45L485.14 384.98L484.67 384.49L484.21 384.02L483.76 383.53L483.29 383.06L482.85 382.57L482.4 382.1L481.95 381.61L481.51 381.14L481.06 380.65L480.62 380.18L479.31 378.72L478.98 378.37L478.65 378.04L478.3 377.7L477.95 377.39L476.85 376.5L476.09 375.94L475.7 375.68L474.9 375.19L474.1 374.74L473.26 374.32L472.84 374.13L471.97 373.78L471.1 373.47L470.66 373.33L469.3 372.96L467.94 372.7L467.47 372.63L467.02 372.58L466.55 372.52L466.07 372.49L465.13 372.45L464.66 372.45L463.72 372.49ZM178.17 310.82L178 310.83L177.8 310.87L177.61 310.89L177.44 310.92L177.25 310.96L177.07 310.99L176.88 311.04L176.71 311.08L176.51 311.13L175.99 311.29L175.8 311.34L175.1 311.62L174.94 311.69L174.77 311.76L174.59 311.85L174.44 311.93L174.26 312L174.11 312.09L173.93 312.2L173.78 312.28L173.62 312.39L173.46 312.47L172.99 312.79L172.83 312.91L172.69 313.01L172.54 313.14L172.4 313.24L172.24 313.36L172.1 313.49L171.54 314.03L170.97 314.55L170.41 315.07L169.85 315.61L169.28 316.14L168.16 317.22L167.6 317.74L167.04 318.28L166.48 318.81L165.94 319.35L165.39 319.89L164.83 320.41L163.75 321.49L163.19 322.01L162.11 323.1L161.57 323.62L161.03 324.16L160.48 324.68L159.94 325.22L159.4 325.75L158.88 326.27L158.34 326.79L157.82 327.33L157.28 327.86L156.23 328.9L155.71 329.41L154.15 330.96L153.63 331.47L153.12 331.99L152.6 332.5L151.59 333.51L151.08 334L150.58 334.5L151 334.97L151.42 335.46L151.85 335.93L153.53 337.82L153.94 338.27L154.36 338.74L154.78 339.19L155.2 339.67L155.62 340.12L156.02 340.57L156.86 341.48L157.26 341.93L157.68 342.39L158.08 342.84L158.5 343.28L159.3 344.18L159.7 344.62L160.1 345.07L160.9 345.94L161.3 346.4L161.71 346.83L162.11 347.29L162.49 347.72L162.89 348.16L163.28 348.6L163.68 349.05L164.83 350.36L165.23 350.81L165.61 351.25L165.98 351.68L166.36 352.12L166.75 352.57L167.08 352.99L167.41 353.43L167.76 353.83L168.49 354.63L168.87 355.01L169.26 355.38L170.06 356.08L170.48 356.43L170.9 356.74L171.33 357.05L172.21 357.65L172.66 357.93L173.11 358.19L173.58 358.45L175 359.13L175.48 359.32L175.99 359.51L176.48 359.71L177.49 360.02L178 360.16L178.52 360.28L179.03 360.39L179.55 360.49L180.07 360.58L180.61 360.65L181.66 360.75L182.74 360.79L183.82 360.79L184.9 360.72L185.44 360.65L186.54 360.58L187.64 360.53L188.76 360.47L189.86 360.42L190.95 360.39L192.07 360.35L194.27 360.28L195.39 360.26L196.48 360.25L197.58 360.25L198.7 360.23L202.01 360.23L203.13 360.25L204.23 360.25L205.34 360.26L207.54 360.3L208.66 360.32L209.76 360.33L210.87 360.35L211.97 360.39L213.09 360.4L214.19 360.42L215.3 360.46L217.5 360.49L218.62 360.53L219.72 360.54L220.83 360.56L223.03 360.59L224.15 360.61L225.24 360.63L226.34 360.63L227.46 360.65L313.04 360.65L313.25 360.59L313.45 360.53L313.64 360.47L313.83 360.39L314.02 360.32L314.4 360.14L314.58 360.05L314.77 359.97L315.29 359.65L315.45 359.55L315.63 359.43L316.1 359.06L316.25 358.92L316.39 358.78L316.55 358.64L316.83 358.36L316.97 358.21L317.46 357.58L317.58 357.4L317.68 357.23L317.79 357.07L317.89 356.9L318 356.71L318.08 356.53L318.17 356.34L318.26 356.16L318.35 355.97L318.49 355.59L318.56 355.38L318.63 355.19L318.19 355.82L318.24 354.72L318.28 353.64L318.31 352.54L318.33 351.46L318.36 350.36L318.38 349.28L318.42 348.18L318.45 346.01L318.47 344.92L318.5 342.75L318.52 341.65L318.52 340.57L318.54 339.49L318.54 338.39L318.56 337.31L318.56 335.11L318.57 334.03L318.57 322.97L318.59 321.86L318.59 315.06L318.61 313.9L318.61 312.75L318.63 311.6L318.52 311.57L318.43 311.55L318.35 311.51L318.24 311.5L318.15 311.46L318.07 311.45L317.96 311.41L317.88 311.39L317.77 311.36L317.68 311.34L317.6 311.31L317.49 311.29L317.4 311.27L317.32 311.24L317.21 311.22L317.13 311.2L317.02 311.17L316.85 311.13L316.74 311.11L316.65 311.08L316.55 311.06L316.46 311.04L316.36 311.03L316.27 311.01L316.17 310.99L315.99 310.96L315.89 310.94L315.8 310.92L315.7 310.9L315.61 310.89L315.5 310.87L315.42 310.85L315.31 310.83L315.22 310.82L315.12 310.8L315.03 310.78L314.93 310.78L314.84 310.76L178.75 310.76L178.17 310.82ZM465.34 250.78L330.17 250.78L330.59 300.27L330.68 300.28L330.78 300.3L330.96 300.33L331.06 300.35L331.15 300.37L331.25 300.39L331.43 300.42L331.53 300.44L331.62 300.46L331.72 300.47L331.9 300.51L332 300.53L332.09 300.53L332.2 300.54L332.37 300.58L332.47 300.6L332.56 300.6L332.67 300.61L332.75 300.63L332.86 300.63L333.03 300.67L333.14 300.67L333.22 300.68L333.33 300.7L333.42 300.7L333.52 300.72L333.61 300.72L333.71 300.74L333.8 300.74L333.89 300.75L333.99 300.75L334.08 300.77L334.27 300.77L334.38 300.79L469.55 300.79L470.38 300.72L470.57 300.68L470.78 300.67L471.2 300.6L471.39 300.54L471.6 300.51L471.81 300.46L472 300.4L472.21 300.35L472.6 300.25L472.81 300.18L473.57 299.9L473.77 299.81L473.96 299.74L474.34 299.57L474.52 299.46L474.71 299.38L474.88 299.27L475.07 299.18L475.42 298.97L475.6 298.85L475.77 298.75L476.3 298.38L476.45 298.26L476.63 298.14L476.78 298.02L477.1 297.74L477.67 297.23L478.23 296.71L478.81 296.2L483.27 292.02L483.83 291.47L484.39 290.95L484.95 290.41L485.5 289.89L488.85 286.64L489.41 286.09L490.53 285L491.1 284.45L491.66 283.89L492.79 282.79L495.1 280.56L495.67 279.98L496.25 279.42L496.84 278.85L497.42 278.29L498.6 277.14L499.2 276.58L499.79 276L499.28 275.5L498.78 275.01L498.25 274.52L497.24 273.54L496.74 273.07L496.23 272.59L494.71 271.17L494.23 270.7L493.72 270.23L493.23 269.76L492.73 269.29L492.24 268.84L491.75 268.36L491.24 267.91L490.75 267.44L490.27 266.99L489.8 266.52L489.31 266.06L488.82 265.59L488.35 265.14L487.86 264.68L487.39 264.21L486.92 263.76L486.45 263.29L485.98 262.84L485.52 262.37L485.05 261.91L484.6 261.44L483.67 260.52L483.22 260.05L482.78 259.57L482.33 259.1L481.89 258.63L481.44 258.16L481 257.67L480.57 257.2L480.29 256.87L479.7 256.24L479.38 255.93L479.07 255.63L478.75 255.35L478.09 254.8L477.76 254.53L477.41 254.27L476.71 253.78L476.35 253.56L476 253.33L475.63 253.12L475.25 252.91L474.88 252.72L474.5 252.53L474.12 252.35L473.71 252.18L473.33 252.02L472.93 251.88L472.53 251.73L472.13 251.6L471.71 251.48L471.31 251.36L470.89 251.25L470.47 251.17L470.07 251.08L469.63 251.01L469.21 250.94L468.8 250.89L468.36 250.84L467.94 250.8L467.51 250.77L467.07 250.75L466.21 250.75L465.34 250.78ZM178.19 190.05L178.01 190.07L177.82 190.11L177.63 190.12L177.44 190.16L177.26 190.19L177.07 190.23L176.9 190.28L176.71 190.31L176.53 190.37L176.34 190.42L175.99 190.52L175.82 190.59L175.62 190.65L174.93 190.93L174.77 191.01L174.59 191.08L174.25 191.26L174.09 191.34L173.91 191.43L173.76 191.52L173.6 191.62L173.44 191.71L173.27 191.81L172.96 192.02L172.82 192.15L172.66 192.25L172.5 192.37L172.36 192.48L172.21 192.6L171.63 193.12L171.04 193.63L170.46 194.15L169.89 194.66L169.29 195.18L167.57 196.75L166.97 197.27L166.4 197.8L165.82 198.34L165.25 198.86L164.65 199.4L164.08 199.93L163.5 200.47L162.91 201.01L162.33 201.55L161.74 202.09L161.17 202.63L160.57 203.17L160 203.73L159.4 204.27L158.81 204.83L158.22 205.37L156.44 207.04L155.83 207.6L155.24 208.16L154.62 208.72L154.03 209.29L153.42 209.85L152.81 210.42L152.2 210.98L151.59 211.56L150.96 212.13L150.35 212.71L149.1 213.86L148.47 214.45L149.08 215.03L150.86 216.76L152.01 217.87L152.57 218.43L153.14 218.99L153.7 219.55L154.82 220.63L155.9 221.71L156.46 222.23L156.98 222.76L158.06 223.8L158.58 224.33L159.12 224.83L159.65 225.35L160.17 225.86L160.69 226.35L161.74 227.36L162.25 227.85L163.29 228.83L163.82 229.3L164.34 229.78L164.85 230.26L166.41 231.67L168.51 233.48L169.05 233.94L169.57 234.39L170.11 234.83L170.36 235.03L170.62 235.24L170.88 235.44L171.14 235.64L171.42 235.84L171.68 236.03L171.96 236.2L172.22 236.38L172.78 236.73L173.08 236.9L173.64 237.21L173.93 237.37L174.53 237.65L174.8 237.79L175.12 237.93L175.41 238.05L175.71 238.19L176.03 238.31L176.32 238.42L176.64 238.52L176.93 238.64L177.25 238.73L177.56 238.84L178.19 239.01L178.52 239.1L179.15 239.24L179.48 239.31L179.79 239.36L180.12 239.43L180.44 239.48L180.77 239.52L181.1 239.57L181.41 239.6L181.75 239.64L182.08 239.66L308.11 239.66L318.29 239.87L318.29 190.72L318.22 190.68L318.14 190.66L318.07 190.65L317.98 190.61L317.91 190.59L317.82 190.56L317.74 190.54L317.67 190.52L317.58 190.49L317.51 190.47L317.33 190.44L317.27 190.4L317.09 190.37L317.02 190.35L316.85 190.31L316.78 190.28L316.6 190.25L316.53 190.23L316.36 190.19L316.29 190.18L316.2 190.16L316.11 190.16L316.04 190.14L315.78 190.09L315.71 190.07L315.63 190.07L315.54 190.05L315.47 190.04L315.38 190.02L315.29 190.02L315.21 190L315.14 189.98L178.96 189.98L178.19 190.05ZM330.49 178.11L330.56 178.14L330.63 178.16L330.7 178.19L330.76 178.21L330.85 178.25L330.99 178.28L331.06 178.32L331.2 178.35L331.27 178.38L331.36 178.4L331.57 178.45L331.64 178.49L331.72 178.51L332 178.58L332.09 178.59L332.3 178.65L332.39 178.66L332.6 178.72L332.68 178.72L332.89 178.77L332.98 178.77L333.12 178.8L333.21 178.82L333.28 178.82L333.35 178.84L470.16 178.84L470.54 178.8L470.71 178.79L470.91 178.75L471.1 178.73L471.27 178.7L471.66 178.63L471.83 178.58L472.02 178.54L472.2 178.49L472.39 178.44L472.91 178.28L473.09 178.21L473.28 178.16L473.63 178.02L473.78 177.93L473.96 177.86L474.13 177.77L474.31 177.7L474.46 177.62L474.64 177.53L474.8 177.44L474.97 177.34L475.13 177.25L475.91 176.73L476.05 176.61L476.21 176.5L476.37 176.38L476.78 176.01L477.34 175.49L477.9 174.98L478.46 174.46L479.02 173.95L480.69 172.39L481.23 171.86L482.35 170.82L482.91 170.27L483.45 169.75L484 169.21L484.56 168.69L485.12 168.15L485.66 167.61L488.45 164.9L489.01 164.34L489.59 163.8L490.14 163.25L490.72 162.69L491.28 162.13L491.85 161.57L492.41 161.01L493.56 159.9L494.16 159.34L494.73 158.76L495.31 158.21L498.86 154.75L499.48 154.16L498.9 153.6L498.34 153.04L497.77 152.5L497.21 151.94L496.67 151.39L496.11 150.85L493.95 148.68L493.42 148.14L492.36 147.08L491.84 146.54L490.79 145.49L490.28 144.97L489.76 144.46L489.25 143.94L488.73 143.43L488.23 142.91L487.21 141.9L486.69 141.39L486.18 140.9L485.68 140.4L484.16 138.93L483.64 138.44L483.13 137.97L482.63 137.48L482.1 137.01L481.6 136.54L481.07 136.07L480.57 135.62L480.05 135.15L478.48 133.79L478.23 133.58L477.99 133.39L477.76 133.19L477.5 133L477.01 132.62L476.75 132.44L476.5 132.27L476.24 132.1L475.98 131.94L475.72 131.76L475.44 131.61L475.18 131.47L474.9 131.31L474.64 131.17L473.8 130.75L473.24 130.51L472.95 130.39L472.67 130.28L472.37 130.18L472.09 130.07L471.8 129.97L470.61 129.62L470.3 129.55L469.7 129.41L469.39 129.36L469.09 129.29L468.78 129.24L468.48 129.2L468.17 129.15L467.85 129.11L467.54 129.1L467.23 129.06L330.17 129.06L330.49 178.11Z" id="a5x9ufc2p4"></path><path d="M473.14 117.44L473.38 117.48L473.63 117.5L473.89 117.53L474.13 117.57L474.38 117.62L474.62 117.65L475.35 117.81L475.84 117.95L476.07 118.02L476.56 118.16L477.01 118.33L477.25 118.42L477.48 118.51L477.71 118.61L477.93 118.7L478.39 118.91L478.62 119.03L478.82 119.14L479.05 119.26L479.26 119.38L479.49 119.52L479.7 119.64L480.53 120.2L480.73 120.34L480.93 120.5L481.51 120.97L482.23 121.63L484.37 123.57L485.07 124.23L485.78 124.87L491.36 130.18L492.05 130.84L492.74 131.5L493.44 132.18L494.12 132.85L494.82 133.51L495.5 134.19L496.18 134.85L496.88 135.51L497.56 136.19L498.24 136.86L498.93 137.54L499.61 138.2L500.29 138.88L500.99 139.54L501.67 140.22L502.35 140.89L503.05 141.55L503.73 142.23L504.41 142.89L505.11 143.55L505.79 144.23L506.49 144.9L507.17 145.56L507.86 146.22L508.54 146.89L509.24 147.55L509.31 147.58L509.38 147.64L509.45 147.67L509.5 147.72L509.57 147.76L509.64 147.81L509.7 147.86L509.77 147.91L509.84 147.95L509.89 148L509.96 148.05L510.01 148.11L510.08 148.16L510.18 148.26L510.25 148.32L510.36 148.42L510.43 148.47L510.53 148.58L510.59 148.65L510.69 148.75L510.74 148.82L510.85 148.93L510.9 149L510.95 149.05L511 149.12L511.06 149.17L511.09 149.24L511.14 149.31L511.2 149.36L511.23 149.43L511.28 149.5L511.34 149.55L511.37 149.62L511.42 149.69L511.46 149.76L511.74 150.25L511.86 150.51L511.98 150.76L512.09 151.02L512.17 151.28L512.38 152.07L512.42 152.35L512.47 152.61L512.49 152.87L512.5 153.15L512.5 153.67L512.49 153.95L512.47 154.21L512.43 154.47L512.33 155L512.26 155.26L512.19 155.5L512.1 155.76L512.02 156.01L511.91 156.25L511.67 156.74L511.54 156.97L511.4 157.19L511.09 157.65L510.74 158.07L510.36 158.45L510.15 158.64L509.94 158.82L509.71 158.99L509.49 159.15L509.24 159.3L507.99 160.58L507.27 161.28L505.84 162.71L505.14 163.44L504.45 164.19L503.73 164.94L503.03 165.69L500.24 168.76L499.54 169.54L498.85 170.31L498.15 171.09L496.75 172.63L496.04 173.4L495.34 174.16L494.63 174.91L493.93 175.66L492.5 177.13L491.78 177.84L490.32 179.24L489.59 179.92L488.85 180.58L488.12 181.23L487.37 181.86L486.62 182.47L485.85 183.06L485.09 183.63L484.32 184.19L483.53 184.72L482.75 185.22L481.95 185.71L481.14 186.16L480.32 186.58L479.5 186.98L478.68 187.35L477.85 187.7L476.99 188.01L476.12 188.29L475.25 188.55L474.36 188.8L473.45 189.01L472.55 189.2L471.64 189.37L470.71 189.53L468.83 189.77L467.89 189.86L466.93 189.95L465.97 190.02L464.99 190.07L464.02 190.11L463.04 190.12L462.05 190.14L461.05 190.14L458.07 190.09L457.06 190.05L456.06 190L455.05 189.97L448.98 189.65L447.99 189.6L446.98 189.55L445.98 189.5L444.97 189.46L442.98 189.39L441.99 189.37L441.01 189.36L329.96 189.36L329.96 239.55L469.55 239.55L469.95 239.59L470.33 239.6L470.73 239.64L471.13 239.69L471.52 239.74L471.92 239.8L472.3 239.87L472.7 239.94L473.09 240.01L474.24 240.27L475.39 240.58L475.75 240.7L476.14 240.83L476.5 240.95L477.6 241.37L478.34 241.68L478.7 241.85L479.05 242.01L479.4 242.19L479.75 242.38L480.1 242.55L480.45 242.74L480.8 242.95L481.13 243.14L481.46 243.35L481.81 243.58L482.12 243.79L482.78 244.24L484.04 245.22L484.68 245.78L485.33 246.32L486.62 247.44L487.25 247.99L487.89 248.57L489.15 249.72L489.76 250.3L490.39 250.87L491 251.46L491.63 252.06L494.68 255.02L495.27 255.63L495.88 256.23L496.48 256.84L497.09 257.43L498.29 258.63L499.49 259.85L503.1 263.46L504.32 264.65L504.92 265.24L506.14 266.43L506.77 267L507.38 267.6L507.99 268.17L508.61 268.75L508.95 269.08L509.28 269.43L509.59 269.76L509.89 270.09L510.17 270.42L510.43 270.75L510.67 271.09L510.9 271.4L511.13 271.73L511.32 272.06L511.49 272.38L511.67 272.71L511.95 273.34L512.05 273.67L512.15 273.98L512.29 274.61L512.33 274.94L512.36 275.25L512.36 275.57L512.35 275.88L512.31 276.2L512.26 276.51L512.19 276.84L512.1 277.16L511.86 277.78L511.7 278.11L511.53 278.43L511.34 278.74L511.11 279.07L510.88 279.39L510.62 279.7L510.34 280.03L510.04 280.36L509.71 280.68L509.36 281.01L509 281.34L508.61 281.67L508.58 281.69L508.51 281.76L508.47 281.78L508.4 281.85L508.37 281.86L508.3 281.93L508.27 281.95L508.23 281.99L508.21 282.02L508.18 282.04L508.07 282.14L508.04 282.16L508 282.2L507.99 282.23L507.92 282.3L507.88 282.32L507.85 282.35L507.83 282.39L507.72 282.49L507.71 282.53L507.67 282.54L507.6 282.61L507.59 282.65L507.52 282.72L507.5 282.75L507.46 282.79L507.45 282.82L507.38 282.89L507.36 282.93L506.19 284.55L504.99 286.16L503.73 287.69L502.46 289.21L501.13 290.67L499.77 292.09L498.38 293.46L496.95 294.81L495.48 296.1L493.98 297.35L492.46 298.56L490.89 299.71L489.31 300.82L487.7 301.9L486.06 302.92L484.39 303.89L482.7 304.82L480.97 305.71L479.23 306.54L477.46 307.33L475.69 308.06L473.87 308.74L472.06 309.39L470.21 309.96L468.36 310.5L466.48 310.99L464.59 311.41L462.69 311.79L460.77 312.13L458.85 312.4L456.92 312.61L454.96 312.79L453.01 312.89L451.06 312.96L449.09 312.96L447.12 312.91L445.13 312.81L443.16 312.63L441.17 312.4L439.2 312.13L436.72 311.92L434.26 311.74L431.79 311.57L429.31 311.43L426.85 311.29L424.37 311.17L421.9 311.06L419.42 310.97L414.47 310.83L411.99 310.78L409.51 310.75L407.02 310.71L402.07 310.68L399.57 310.68L397.09 310.7L394.6 310.7L392.12 310.73L389.63 310.75L387.14 310.78L384.66 310.82L382.16 310.85L379.67 310.9L377.19 310.96L374.7 310.99L369.71 311.1L367.23 311.15L362.25 311.25L359.75 311.29L357.26 311.34L354.78 311.38L349.79 311.45L344.81 311.48L342.33 311.5L329.96 311.5L329.96 361.27L472.37 361.27L472.62 361.29L472.84 361.31L473.09 361.33L473.31 361.34L473.54 361.38L473.78 361.4L474.01 361.43L474.24 361.48L474.46 361.52L475.6 361.78L476.05 361.92L476.26 361.99L476.49 362.08L476.7 362.15L476.92 362.23L477.34 362.41L477.57 362.51L477.78 362.6L478.2 362.81L478.39 362.91L478.6 363.04L478.81 363.14L479.19 363.39L479.4 363.51L479.59 363.65L479.78 363.77L479.98 363.91L480.15 364.05L480.34 364.19L480.53 364.34L480.71 364.48L480.88 364.64L483.81 367.36L484.53 368.04L485.26 368.74L485.99 369.42L486.71 370.1L487.44 370.8L488.16 371.5L488.89 372.18L489.6 372.87L490.34 373.57L491.05 374.25L491.77 374.95L492.5 375.65L494.64 377.74L495.38 378.44L496.81 379.83L497.52 380.55L498.95 381.94L499.68 382.64L500.4 383.34L501.11 384.05L501.83 384.75L502.56 385.45L503.28 386.16L504.71 387.56L505.44 388.26L506.16 388.97L506.87 389.67L507.6 390.37L508.32 391.06L509.05 391.78L509.77 392.48L510.08 392.69L510.13 392.74L510.24 392.81L510.32 392.9L510.43 392.97L510.46 393.02L510.57 393.09L510.6 393.14L510.65 393.18L510.69 393.23L510.74 393.26L510.79 393.31L510.83 393.37L510.88 393.4L510.95 393.51L511 393.54L511.04 393.59L511.13 393.68L511.2 393.79L511.25 393.84L511.32 393.94L511.35 393.98L511.42 394.08L511.47 394.13L511.54 394.24L511.68 394.47L511.93 394.92L512.14 395.37L512.22 395.6L512.36 396.09L512.43 396.31L512.49 396.56L512.56 397.05L512.59 397.54L512.59 397.78L512.57 398.02L512.57 398.25L512.47 398.98L512.42 399.21L512.35 399.45L512.21 399.91L512.1 400.13L512.02 400.36L511.91 400.57L511.79 400.8L511.54 401.22L511.4 401.41L511.25 401.62L511.09 401.81L510.93 401.98L510.76 402.17L510.57 402.35L510.39 402.51L510.18 402.68L509.99 402.84L509.77 402.98L509.07 403.66L508.37 404.36L507.67 405.04L506.97 405.73L506.28 406.41L505.58 407.11L504.88 407.79L501.41 411.26L500.71 411.94L497.94 414.72L497.24 415.4L496.54 416.09L495.85 416.77L495.15 417.47L494.43 418.15L493.04 419.51L492.32 420.19L491.63 420.87L490.91 421.55L490.21 422.23L489.5 422.91L488.78 423.58L488.07 424.26L487.35 424.92L486.62 425.58L485.19 426.91L483.73 428.23L482.99 428.88L482.26 429.54L481.51 430.19L480.73 430.71L480.45 430.87L480.18 431.02L479.63 431.34L479.35 431.48L479.07 431.63L478.79 431.77L478.51 431.9L478.21 432.03L477.93 432.16L477.64 432.26L477.34 432.38L477.06 432.49L476.47 432.7L476.17 432.78L475.86 432.89L475.56 432.98L475.27 433.05L474.95 433.12L474.66 433.2L474.34 433.26L474.05 433.33L473.1 433.48L472.81 433.52L472.18 433.59L470.92 433.66L469.96 433.66L469.65 433.64L330.07 433.64L330.07 526.71L318.29 525.01L318.29 384.07L318.28 383.79L318.26 383.5L318.22 382.94L318.21 382.64L318.17 382.36L318.15 382.08L318.14 381.79L318.1 381.51L318.08 381.23L318.05 380.93L318.03 380.65L318 380.37L317.98 380.08L317.88 379.24L317.84 378.94L317.82 378.66L317.75 378.11L317.72 377.81L317.68 377.53L317.63 377.25L317.6 376.97L317.56 376.68L317.53 376.4L317.47 376.12L317.44 375.84L317.4 375.54L317.35 375.26L317.32 374.98L317.27 374.7L317.23 374.43L317.18 374.15L317.13 373.85L317.09 373.57L316.93 372.73L252.03 372.73L250.1 372.72L244.29 372.72L242.35 372.73L240.4 372.73L238.47 372.75L236.51 372.75L234.56 372.77L232.6 372.77L226.74 372.82L224.79 372.82L222.84 372.84L220.87 372.86L218.91 372.86L216.94 372.87L207.12 372.87L205.17 372.86L203.2 372.84L201.25 372.82L197.3 372.79L195.35 372.75L191.41 372.68L189.45 372.63L187.48 372.58L185.53 372.51L183.56 372.44L181.61 372.37L177.7 372.19L175.73 372.11L173.78 372L173.32 371.97L172.85 371.9L172.4 371.83L171.93 371.72L171.47 371.58L171 371.44L170.55 371.29L169.64 370.9L169.17 370.68L168.72 370.45L167.81 369.93L167.36 369.65L166.9 369.35L166 368.72L165.56 368.39L165.11 368.06L164.65 367.69L164.22 367.34L163.76 366.98L163.33 366.59L162.87 366.21L162.44 365.83L162 365.43L161.55 365.02L161.11 364.62L160.68 364.21L160.24 363.8L158.93 362.55L158.5 362.15L158.06 361.73L157.64 361.31L157.21 360.91L156.79 360.51L156.35 360.11L155.93 359.71L155.5 359.3L155.08 358.92L154.24 358.12L153.84 357.73L153 356.93L152.2 356.13L151.8 355.75L151.38 355.34L150.18 354.14L149.79 353.74L148.99 352.94L148.59 352.55L148.19 352.15L147.81 351.75L144.63 348.58L143.83 347.81L143.43 347.41L142.62 346.64L142.22 346.24L141.81 345.86L141 345.09L140.17 344.32L139.75 343.96L139.61 343.85L139.52 343.8L139.38 343.69L139.29 343.64L139.08 343.48L139.01 343.42L138.93 343.36L138.86 343.31L138.79 343.24L138.72 343.19L138.67 343.12L138.6 343.07L138.53 343L138.46 342.94L138.39 342.87L138.33 342.8L138.26 342.75L138.19 342.68L138.14 342.61L138.07 342.54L138.02 342.47L137.95 342.42L137.9 342.35L137.83 342.28L137.78 342.21L137.72 342.12L137.65 342.05L137.5 341.85L137.44 341.76L137.34 341.62L137.29 341.53L137.18 341.39L137.01 341.1L136.85 340.8L136.57 340.21L136.45 339.89L136.35 339.6L136.24 339.28L136.15 338.97L136.08 338.65L135.98 338.03L135.96 337.71L135.93 337.4L135.93 336.77L135.94 336.46L136.01 335.83L136.07 335.51L136.14 335.2L136.21 334.9L136.29 334.59L136.5 334L136.63 333.72L136.76 333.42L136.9 333.14L137.06 332.86L137.22 332.6L137.39 332.34L137.78 331.82L138 331.57L138.21 331.35L138.44 331.1L138.68 330.89L138.94 330.67L139.47 330.28L139.75 330.09L140.38 329.5L140.99 328.92L141.58 328.33L143.41 326.55L147 322.96L147.6 322.35L148.8 321.14L149.39 320.53L150 319.94L150.6 319.33L153.6 316.33L156.65 313.36L157.26 312.79L157.87 312.2L160.38 309.89L161.64 308.78L163.57 307.1L164.22 306.56L164.53 306.3L165.16 305.81L165.47 305.58L165.79 305.34L166.12 305.11L166.45 304.9L166.76 304.68L167.11 304.47L167.44 304.28L167.78 304.07L168.47 303.68L169.87 302.99L170.6 302.67L170.95 302.53L171.32 302.38L171.7 302.24L172.8 301.87L173.18 301.75L173.57 301.64L173.93 301.54L174.32 301.45L174.7 301.35L175.08 301.28L175.48 301.19L176.25 301.05L176.64 301L177.04 300.95L177.42 300.89L177.82 300.84L178.22 300.81L178.61 300.79L318.19 300.79L318.19 250.78L179.46 250.78L179.03 250.82L177.73 250.82L177.3 250.78L176.86 250.77L176.44 250.73L176.03 250.68L175.59 250.63L174.75 250.49L174.33 250.4L173.91 250.3L173.51 250.21L173.09 250.09L172.29 249.84L171.49 249.56L171.09 249.41L170.71 249.25L170.32 249.07L169.94 248.88L169.55 248.71L169.17 248.5L168.8 248.31L168.44 248.08L168.07 247.87L167.72 247.64L167.36 247.4L167.01 247.16L166.68 246.89L166.33 246.63L166 246.37L165.66 246.09L165.35 245.81L164.72 245.22L164.43 244.91L164.11 244.59L163.54 243.98L161.76 242.15L161.15 241.54L159.37 239.71L158.17 238.51L157.57 237.89L155.78 236.1L155.17 235.51L154.57 234.89L153.35 233.71L152.76 233.12L151.54 231.93L150.93 231.32L150.32 230.74L146.65 227.19L146.04 226.61L145.43 226.02L144.81 225.42L144.19 224.85L143.58 224.26L142.96 223.68L142.35 223.09L141.72 222.51L141.11 221.92L140.48 221.34L139.85 220.75L139.78 220.72L139.64 220.61L139.56 220.56L139.49 220.52L139.07 220.21L139.01 220.14L138.81 219.98L138.68 219.86L138.61 219.81L138.56 219.74L138.49 219.69L138.44 219.62L138.37 219.56L138.32 219.49L138.19 219.37L138.14 219.3L138.07 219.23L137.6 218.6L137.57 218.53L137.46 218.4L137.43 218.31L137.27 218.05L137.13 217.78L136.89 217.26L136.78 216.98L136.69 216.72L136.61 216.44L136.56 216.16L136.49 215.88L136.38 215.05L136.36 214.77L136.36 214.49L136.4 213.93L136.47 213.37L136.52 213.11L136.57 212.83L136.64 212.57L136.73 212.29L136.82 212.03L136.92 211.77L137.04 211.52L137.17 211.26L137.29 211.02L137.43 210.77L137.58 210.55L137.74 210.3L137.92 210.08L138.09 209.87L138.47 209.45L138.68 209.24L138.91 209.05L139.14 208.87L139.36 208.68L139.85 208.37L141.25 207.04L141.93 206.36L142.62 205.7L143.31 205.04L144 204.37L144.68 203.69L145.38 203.03L146.06 202.35L146.74 201.69L147.44 201.01L148.12 200.34L148.8 199.66L149.48 199L150.18 198.32L150.86 197.66L151.54 196.98L152.24 196.31L152.92 195.63L153.6 194.97L154.29 194.29L154.97 193.63L155.67 192.97L156.35 192.3L157.75 190.98L158.43 190.31L160.52 188.33L161.22 187.68L161.92 187.02L162.61 186.37L163.33 185.73L164.03 185.08L164.74 184.44L165.44 183.79L166.15 183.16L166.87 182.52L167.58 181.89L167.81 181.73L168.05 181.58L168.28 181.42L168.53 181.28L168.77 181.12L169.01 180.98L169.26 180.86L169.5 180.72L169.75 180.6L169.99 180.46L170.25 180.36L170.5 180.23L170.76 180.11L171.02 180.01L171.26 179.9L171.53 179.8L171.79 179.71L172.05 179.61L172.31 179.52L172.59 179.45L172.85 179.36L173.11 179.29L173.39 179.2L173.65 179.15L173.93 179.08L174.19 179.01L174.75 178.91L175.01 178.87L175.29 178.82L176.13 178.72L177.25 178.65L177.53 178.65L177.8 178.63L317.67 178.63L317.72 178.38L317.79 177.86L317.81 177.6L317.88 177.11L317.91 176.85L317.95 176.36L317.98 176.12L318 175.86L318.03 175.37L318.05 175.14L318.1 174.41L318.1 174.18L318.14 173.69L318.14 173.47L318.15 173.22L318.15 173L318.17 172.77L318.17 172.07L318.19 171.83L318.19 125.43L318.21 125L318.22 124.58L318.29 123.78L318.35 123.39L318.4 123.03L318.47 122.66L318.73 121.67L319.1 120.78L319.24 120.51L319.39 120.25L319.74 119.76L319.93 119.54L320.13 119.33L320.58 118.94L320.82 118.77L321.08 118.6L321.35 118.44L321.63 118.3L321.92 118.16L322.24 118.04L322.57 117.93L322.92 117.83L323.27 117.74L323.65 117.65L324.03 117.58L324.43 117.53L324.85 117.48L325.29 117.44L325.74 117.43L326.21 117.41L472.63 117.41L472.88 117.43L473.14 117.44ZM463.72 372.49L463.25 372.52L462.78 372.58L462.29 372.63L330.07 372.63L330.07 421.47L330.15 421.52L330.24 421.59L330.42 421.69L330.49 421.74L330.57 421.78L330.66 421.83L330.73 421.87L330.82 421.92L330.9 421.95L331.04 422.02L331.13 422.04L331.2 422.08L331.27 422.09L331.34 422.13L331.48 422.16L331.53 422.18L331.6 422.2L331.65 422.22L331.72 422.23L331.78 422.23L331.88 422.27L331.97 422.27L332.02 422.28L332.09 422.28L332.13 422.3L471.13 422.3L471.29 422.28L471.43 422.28L471.59 422.27L471.73 422.27L471.87 422.25L472.02 422.23L472.16 422.2L472.3 422.18L472.46 422.16L473.44 421.92L473.71 421.81L473.85 421.78L474.13 421.67L474.25 421.6L474.53 421.5L474.66 421.43L474.8 421.36L474.92 421.31L475.06 421.24L475.18 421.17L475.3 421.08L475.42 421.01L475.56 420.94L475.81 420.77L475.93 420.7L476.03 420.61L476.16 420.52L475.32 420.73L476.47 419.62L477.06 419.08L478.21 417.96L478.81 417.42L479.99 416.3L480.57 415.76L481.75 414.65L482.35 414.1L482.94 413.55L483.55 412.99L484.14 412.45L485.33 411.33L485.92 410.79L486.53 410.23L487.13 409.69L487.72 409.13L488.31 408.59L488.91 408.04L489.5 407.49L490.11 406.95L490.7 406.4L491.89 405.31L492.46 404.77L493.65 403.69L494.23 403.15L494.82 402.61L495.39 402.07L495.99 401.55L497.14 400.47L497.71 399.94L498.27 399.4L498.85 398.88L498.29 398.3L497.73 397.74L496.65 396.63L496.11 396.09L495.57 395.53L495.03 395.01L494.5 394.47L493.46 393.42L492.95 392.9L490.41 390.35L489.92 389.84L489.43 389.36L488.94 388.85L487.96 387.87L487.49 387.38L486.53 386.43L485.59 385.45L485.14 384.98L484.67 384.49L484.21 384.02L483.76 383.53L483.29 383.06L482.85 382.57L482.4 382.1L481.95 381.61L481.51 381.14L481.06 380.65L480.62 380.18L479.31 378.72L478.98 378.37L478.65 378.04L478.3 377.7L477.95 377.39L476.85 376.5L476.09 375.94L475.7 375.68L474.9 375.19L474.1 374.74L473.26 374.32L472.84 374.13L471.97 373.78L471.1 373.47L470.66 373.33L469.3 372.96L467.94 372.7L467.47 372.63L467.02 372.58L466.55 372.52L466.07 372.49L465.13 372.45L464.66 372.45L463.72 372.49ZM178.17 310.82L178 310.83L177.8 310.87L177.61 310.89L177.44 310.92L177.25 310.96L177.07 310.99L176.88 311.04L176.71 311.08L176.51 311.13L175.99 311.29L175.8 311.34L175.1 311.62L174.94 311.69L174.77 311.76L174.59 311.85L174.44 311.93L174.26 312L174.11 312.09L173.93 312.2L173.78 312.28L173.62 312.39L173.46 312.47L172.99 312.79L172.83 312.91L172.69 313.01L172.54 313.14L172.4 313.24L172.24 313.36L172.1 313.49L171.54 314.03L170.97 314.55L170.41 315.07L169.85 315.61L169.28 316.14L168.16 317.22L167.6 317.74L167.04 318.28L166.48 318.81L165.94 319.35L165.39 319.89L164.83 320.41L163.75 321.49L163.19 322.01L162.11 323.1L161.57 323.62L161.03 324.16L160.48 324.68L159.94 325.22L159.4 325.75L158.88 326.27L158.34 326.79L157.82 327.33L157.28 327.86L156.23 328.9L155.71 329.41L154.15 330.96L153.63 331.47L153.12 331.99L152.6 332.5L151.59 333.51L151.08 334L150.58 334.5L151 334.97L151.42 335.46L151.85 335.93L153.53 337.82L153.94 338.27L154.36 338.74L154.78 339.19L155.2 339.67L155.62 340.12L156.02 340.57L156.86 341.48L157.26 341.93L157.68 342.39L158.08 342.84L158.5 343.28L159.3 344.18L159.7 344.62L160.1 345.07L160.9 345.94L161.3 346.4L161.71 346.83L162.11 347.29L162.49 347.72L162.89 348.16L163.28 348.6L163.68 349.05L164.83 350.36L165.23 350.81L165.61 351.25L165.98 351.68L166.36 352.12L166.75 352.57L167.08 352.99L167.41 353.43L167.76 353.83L168.49 354.63L168.87 355.01L169.26 355.38L170.06 356.08L170.48 356.43L170.9 356.74L171.33 357.05L172.21 357.65L172.66 357.93L173.11 358.19L173.58 358.45L175 359.13L175.48 359.32L175.99 359.51L176.48 359.71L177.49 360.02L178 360.16L178.52 360.28L179.03 360.39L179.55 360.49L180.07 360.58L180.61 360.65L181.66 360.75L182.74 360.79L183.82 360.79L184.9 360.72L185.44 360.65L186.54 360.58L187.64 360.53L188.76 360.47L189.86 360.42L190.95 360.39L192.07 360.35L194.27 360.28L195.39 360.26L196.48 360.25L197.58 360.25L198.7 360.23L202.01 360.23L203.13 360.25L204.23 360.25L205.34 360.26L207.54 360.3L208.66 360.32L209.76 360.33L210.87 360.35L211.97 360.39L213.09 360.4L214.19 360.42L215.3 360.46L217.5 360.49L218.62 360.53L219.72 360.54L220.83 360.56L223.03 360.59L224.15 360.61L225.24 360.63L226.34 360.63L227.46 360.65L313.04 360.65L313.25 360.59L313.45 360.53L313.64 360.47L313.83 360.39L314.02 360.32L314.4 360.14L314.58 360.05L314.77 359.97L315.29 359.65L315.45 359.55L315.63 359.43L316.1 359.06L316.25 358.92L316.39 358.78L316.55 358.64L316.83 358.36L316.97 358.21L317.46 357.58L317.58 357.4L317.68 357.23L317.79 357.07L317.89 356.9L318 356.71L318.08 356.53L318.17 356.34L318.26 356.16L318.35 355.97L318.49 355.59L318.56 355.38L318.63 355.19L318.19 355.82L318.24 354.72L318.28 353.64L318.31 352.54L318.33 351.46L318.36 350.36L318.38 349.28L318.42 348.18L318.45 346.01L318.47 344.92L318.5 342.75L318.52 341.65L318.52 340.57L318.54 339.49L318.54 338.39L318.56 337.31L318.56 335.11L318.57 334.03L318.57 322.97L318.59 321.86L318.59 315.06L318.61 313.9L318.61 312.75L318.63 311.6L318.52 311.57L318.43 311.55L318.35 311.51L318.24 311.5L318.15 311.46L318.07 311.45L317.96 311.41L317.88 311.39L317.77 311.36L317.68 311.34L317.6 311.31L317.49 311.29L317.4 311.27L317.32 311.24L317.21 311.22L317.13 311.2L317.02 311.17L316.85 311.13L316.74 311.11L316.65 311.08L316.55 311.06L316.46 311.04L316.36 311.03L316.27 311.01L316.17 310.99L315.99 310.96L315.89 310.94L315.8 310.92L315.7 310.9L315.61 310.89L315.5 310.87L315.42 310.85L315.31 310.83L315.22 310.82L315.12 310.8L315.03 310.78L314.93 310.78L314.84 310.76L178.75 310.76L178.17 310.82ZM465.34 250.78L330.17 250.78L330.59 300.27L330.68 300.28L330.78 300.3L330.96 300.33L331.06 300.35L331.15 300.37L331.25 300.39L331.43 300.42L331.53 300.44L331.62 300.46L331.72 300.47L331.9 300.51L332 300.53L332.09 300.53L332.2 300.54L332.37 300.58L332.47 300.6L332.56 300.6L332.67 300.61L332.75 300.63L332.86 300.63L333.03 300.67L333.14 300.67L333.22 300.68L333.33 300.7L333.42 300.7L333.52 300.72L333.61 300.72L333.71 300.74L333.8 300.74L333.89 300.75L333.99 300.75L334.08 300.77L334.27 300.77L334.38 300.79L469.55 300.79L470.38 300.72L470.57 300.68L470.78 300.67L471.2 300.6L471.39 300.54L471.6 300.51L471.81 300.46L472 300.4L472.21 300.35L472.6 300.25L472.81 300.18L473.57 299.9L473.77 299.81L473.96 299.74L474.34 299.57L474.52 299.46L474.71 299.38L474.88 299.27L475.07 299.18L475.42 298.97L475.6 298.85L475.77 298.75L476.3 298.38L476.45 298.26L476.63 298.14L476.78 298.02L477.1 297.74L477.67 297.23L478.23 296.71L478.81 296.2L483.27 292.02L483.83 291.47L484.39 290.95L484.95 290.41L485.5 289.89L488.85 286.64L489.41 286.09L490.53 285L491.1 284.45L491.66 283.89L492.79 282.79L495.1 280.56L495.67 279.98L496.25 279.42L496.84 278.85L497.42 278.29L498.6 277.14L499.2 276.58L499.79 276L499.28 275.5L498.78 275.01L498.25 274.52L497.24 273.54L496.74 273.07L496.23 272.59L494.71 271.17L494.23 270.7L493.72 270.23L493.23 269.76L492.73 269.29L492.24 268.84L491.75 268.36L491.24 267.91L490.75 267.44L490.27 266.99L489.8 266.52L489.31 266.06L488.82 265.59L488.35 265.14L487.86 264.68L487.39 264.21L486.92 263.76L486.45 263.29L485.98 262.84L485.52 262.37L485.05 261.91L484.6 261.44L483.67 260.52L483.22 260.05L482.78 259.57L482.33 259.1L481.89 258.63L481.44 258.16L481 257.67L480.57 257.2L480.29 256.87L479.7 256.24L479.38 255.93L479.07 255.63L478.75 255.35L478.09 254.8L477.76 254.53L477.41 254.27L476.71 253.78L476.35 253.56L476 253.33L475.63 253.12L475.25 252.91L474.88 252.72L474.5 252.53L474.12 252.35L473.71 252.18L473.33 252.02L472.93 251.88L472.53 251.73L472.13 251.6L471.71 251.48L471.31 251.36L470.89 251.25L470.47 251.17L470.07 251.08L469.63 251.01L469.21 250.94L468.8 250.89L468.36 250.84L467.94 250.8L467.51 250.77L467.07 250.75L466.21 250.75L465.34 250.78ZM178.19 190.05L178.01 190.07L177.82 190.11L177.63 190.12L177.44 190.16L177.26 190.19L177.07 190.23L176.9 190.28L176.71 190.31L176.53 190.37L176.34 190.42L175.99 190.52L175.82 190.59L175.62 190.65L174.93 190.93L174.77 191.01L174.59 191.08L174.25 191.26L174.09 191.34L173.91 191.43L173.76 191.52L173.6 191.62L173.44 191.71L173.27 191.81L172.96 192.02L172.82 192.15L172.66 192.25L172.5 192.37L172.36 192.48L172.21 192.6L171.63 193.12L171.04 193.63L170.46 194.15L169.89 194.66L169.29 195.18L167.57 196.75L166.97 197.27L166.4 197.8L165.82 198.34L165.25 198.86L164.65 199.4L164.08 199.93L163.5 200.47L162.91 201.01L162.33 201.55L161.74 202.09L161.17 202.63L160.57 203.17L160 203.73L159.4 204.27L158.81 204.83L158.22 205.37L156.44 207.04L155.83 207.6L155.24 208.16L154.62 208.72L154.03 209.29L153.42 209.85L152.81 210.42L152.2 210.98L151.59 211.56L150.96 212.13L150.35 212.71L149.1 213.86L148.47 214.45L149.08 215.03L150.86 216.76L152.01 217.87L152.57 218.43L153.14 218.99L153.7 219.55L154.82 220.63L155.9 221.71L156.46 222.23L156.98 222.76L158.06 223.8L158.58 224.33L159.12 224.83L159.65 225.35L160.17 225.86L160.69 226.35L161.74 227.36L162.25 227.85L163.29 228.83L163.82 229.3L164.34 229.78L164.85 230.26L166.41 231.67L168.51 233.48L169.05 233.94L169.57 234.39L170.11 234.83L170.36 235.03L170.62 235.24L170.88 235.44L171.14 235.64L171.42 235.84L171.68 236.03L171.96 236.2L172.22 236.38L172.78 236.73L173.08 236.9L173.64 237.21L173.93 237.37L174.53 237.65L174.8 237.79L175.12 237.93L175.41 238.05L175.71 238.19L176.03 238.31L176.32 238.42L176.64 238.52L176.93 238.64L177.25 238.73L177.56 238.84L178.19 239.01L178.52 239.1L179.15 239.24L179.48 239.31L179.79 239.36L180.12 239.43L180.44 239.48L180.77 239.52L181.1 239.57L181.41 239.6L181.75 239.64L182.08 239.66L308.11 239.66L318.29 239.87L318.29 190.72L318.22 190.68L318.14 190.66L318.07 190.65L317.98 190.61L317.91 190.59L317.82 190.56L317.74 190.54L317.67 190.52L317.58 190.49L317.51 190.47L317.33 190.44L317.27 190.4L317.09 190.37L317.02 190.35L316.85 190.31L316.78 190.28L316.6 190.25L316.53 190.23L316.36 190.19L316.29 190.18L316.2 190.16L316.11 190.16L316.04 190.14L315.78 190.09L315.71 190.07L315.63 190.07L315.54 190.05L315.47 190.04L315.38 190.02L315.29 190.02L315.21 190L315.14 189.98L178.96 189.98L178.19 190.05ZM330.49 178.11L330.56 178.14L330.63 178.16L330.7 178.19L330.76 178.21L330.85 178.25L330.99 178.28L331.06 178.32L331.2 178.35L331.27 178.38L331.36 178.4L331.57 178.45L331.64 178.49L331.72 178.51L332 178.58L332.09 178.59L332.3 178.65L332.39 178.66L332.6 178.72L332.68 178.72L332.89 178.77L332.98 178.77L333.12 178.8L333.21 178.82L333.28 178.82L333.35 178.84L470.16 178.84L470.54 178.8L470.71 178.79L470.91 178.75L471.1 178.73L471.27 178.7L471.66 178.63L471.83 178.58L472.02 178.54L472.2 178.49L472.39 178.44L472.91 178.28L473.09 178.21L473.28 178.16L473.63 178.02L473.78 177.93L473.96 177.86L474.13 177.77L474.31 177.7L474.46 177.62L474.64 177.53L474.8 177.44L474.97 177.34L475.13 177.25L475.91 176.73L476.05 176.61L476.21 176.5L476.37 176.38L476.78 176.01L477.34 175.49L477.9 174.98L478.46 174.46L479.02 173.95L480.69 172.39L481.23 171.86L482.35 170.82L482.91 170.27L483.45 169.75L484 169.21L484.56 168.69L485.12 168.15L485.66 167.61L488.45 164.9L489.01 164.34L489.59 163.8L490.14 163.25L490.72 162.69L491.28 162.13L491.85 161.57L492.41 161.01L493.56 159.9L494.16 159.34L494.73 158.76L495.31 158.21L498.86 154.75L499.48 154.16L498.9 153.6L498.34 153.04L497.77 152.5L497.21 151.94L496.67 151.39L496.11 150.85L493.95 148.68L493.42 148.14L492.36 147.08L491.84 146.54L490.79 145.49L490.28 144.97L489.76 144.46L489.25 143.94L488.73 143.43L488.23 142.91L487.21 141.9L486.69 141.39L486.18 140.9L485.68 140.4L484.16 138.93L483.64 138.44L483.13 137.97L482.63 137.48L482.1 137.01L481.6 136.54L481.07 136.07L480.57 135.62L480.05 135.15L478.48 133.79L478.23 133.58L477.99 133.39L477.76 133.19L477.5 133L477.01 132.62L476.75 132.44L476.5 132.27L476.24 132.1L475.98 131.94L475.72 131.76L475.44 131.61L475.18 131.47L474.9 131.31L474.64 131.17L473.8 130.75L473.24 130.51L472.95 130.39L472.67 130.28L472.37 130.18L472.09 130.07L471.8 129.97L470.61 129.62L470.3 129.55L469.7 129.41L469.39 129.36L469.09 129.29L468.78 129.24L468.48 129.2L468.17 129.15L467.85 129.11L467.54 129.1L467.23 129.06L330.17 129.06L330.49 178.11Z" id="doux01Q3u"></path></defs><g><g><g><use xlink:href="#f2h0umMK4d" opacity="1" fill="#8658a8" fill-opacity="1"></use><g><use xlink:href="#f2h0umMK4d" opacity="1" fill-opacity="0" stroke="#000000" stroke-width="1" stroke-opacity="0"></use></g></g><g><use xlink:href="#h3yuQevY2G" opacity="1" fill="#000000" fill-opacity="0"></use><g><use xlink:href="#h3yuQevY2G" opacity="1" fill-opacity="0" stroke="#000000" stroke-width="1" stroke-opacity="0"></use></g></g><g><use xlink:href="#a5x9ufc2p4" opacity="1" fill="#ffffff" fill-opacity="1"></use><g><use xlink:href="#a5x9ufc2p4" opacity="1" fill-opacity="0" stroke="#000000" stroke-width="1" stroke-opacity="0"></use></g></g><g><use xlink:href="#doux01Q3u" opacity="1" fill="#000000" fill-opacity="0"></use><g><use xlink:href="#doux01Q3u" opacity="1" fill-opacity="0" stroke="#000000" stroke-width="1" stroke-opacity="0"></use></g></g></g></g></svg>