<?xml version="1.0" encoding="UTF-8" standalone="no"?>
<!DOCTYPE svg PUBLIC "-//W3C//DTD SVG 1.1//EN" "http://www.w3.org/Graphics/SVG/1.1/DTD/svg11.dtd">
<svg version="1.1" xmlns="http://www.w3.org/2000/svg" xmlns:xlink="http://www.w3.org/1999/xlink" preserveAspectRatio="xMidYMid meet" viewBox="0 0 640 640" width="640" height="640"><defs><path d="M319.74 631.28C146.01 631.28 5.15 490.93 5.15 317.81C5.15 144.68 146.01 4.35 319.74 4.35C493.5 4.35 634.35 144.68 634.35 317.81C634.35 490.93 493.5 631.28 319.74 631.28Z" id="eE1nkVxCc"></path><path d="M319.74 631.28C146.01 631.28 5.15 490.93 5.15 317.81C5.15 144.68 146.01 4.35 319.74 4.35C493.5 4.35 634.35 144.68 634.35 317.81C634.35 490.93 493.5 631.28 319.74 631.28Z" id="a1bBv5peG6"></path><path d="M401.77 89.72L403.9 89.94L406 90.24L408.08 90.62L410.14 91.08L412.16 91.61L414.13 92.23L416.09 92.93L418 93.7L419.88 94.54L421.73 95.44L423.53 96.42L425.28 97.46L427 98.56L428.66 99.73L430.29 100.96L431.85 102.24L433.37 103.6L434.84 105.01L436.24 106.46L437.6 107.98L438.9 109.54L440.15 111.15L441.31 112.81L442.42 114.53L443.48 116.29L444.46 118.07L445.37 119.92L446.21 121.78L446.98 123.71L447.68 125.65L448.31 127.64L448.86 129.66L449.32 131.7L449.72 133.79L450.02 135.89L450.25 138.02L450.38 140.18L450.44 142.36L450.44 493.06L450.41 495.23L450.29 497.39L450.08 499.51L449.78 501.61L449.42 503.69L448.96 505.73L448.42 507.75L447.82 509.73L447.14 511.68L446.38 513.6L445.55 515.47L444.65 517.31L443.68 519.11L442.66 520.86L441.55 522.57L440.4 524.23L439.17 525.85L437.89 527.42L436.54 528.93L435.15 530.38L433.7 531.81L432.19 533.15L430.64 534.44L429.03 535.68L427.37 536.86L425.68 537.97L423.92 539.02L422.14 540L420.31 540.9L418.44 541.76L416.53 542.53L414.59 543.23L412.62 543.84L410.59 544.39L408.56 544.87L406.49 545.25L404.39 545.56L402.25 545.78L400.11 545.93L397.94 545.97L241.67 545.97L239.49 545.93L237.33 545.8L235.2 545.58L233.1 545.28L231.01 544.9L228.96 544.44L226.94 543.9L224.95 543.29L223 542.59L221.08 541.84L219.2 541L217.36 540.08L215.56 539.12L213.81 538.08L212.09 536.97L210.43 535.8L208.8 534.57L207.24 533.28L205.72 531.93L204.26 530.53L202.83 529.06L201.49 527.54L200.2 525.98L198.95 524.37L197.78 522.71L196.66 521L195.62 519.25L194.64 517.45L193.72 515.62L192.88 513.74L192.11 511.83L191.4 509.87L190.78 507.88L190.23 505.87L189.77 503.82L189.38 501.73L189.06 499.63L188.84 497.5L188.7 495.34L188.65 493.16L188.65 142.46L188.7 140.28L188.84 138.11L189.06 135.98L189.36 133.88L189.74 131.8L190.21 129.74L190.75 127.72L191.38 125.73L192.08 123.77L192.85 121.86L193.69 119.98L194.6 118.13L195.58 116.33L196.63 114.58L197.75 112.87L198.92 111.2L200.15 109.59L201.44 108.02L202.8 106.51L204.22 105.04L205.68 103.63L207.21 102.28L208.77 100.98L210.38 99.75L212.06 98.58L213.78 97.47L215.53 96.43L217.33 95.45L219.18 94.54L221.06 93.7L222.97 92.94L224.93 92.25L226.92 91.63L228.94 91.08L231 90.62L233.08 90.24L235.2 89.94L237.33 89.72L239.49 89.59L241.67 89.55L397.42 89.55L399.6 89.59L401.77 89.72ZM241.09 103.3L239.49 103.4L237.93 103.56L236.37 103.78L234.83 104.06L233.32 104.39L231.82 104.8L230.35 105.25L228.91 105.77L227.49 106.32L226.1 106.94L224.74 107.61L223.41 108.33L222.12 109.1L220.86 109.92L219.62 110.77L218.42 111.69L217.27 112.64L216.15 113.63L215.06 114.67L214.02 115.75L213.01 116.87L212.06 118.02L211.14 119.21L210.27 120.44L209.45 121.7L208.68 123L207.95 124.32L207.27 125.68L206.64 127.06L206.07 128.48L205.55 129.92L205.09 131.38L204.68 132.87L204.33 134.39L204.05 135.92L203.81 137.48L203.65 139.06L203.54 140.64L203.5 142.25L203.5 492.95L203.54 494.56L203.65 496.16L203.81 497.74L204.05 499.29L204.33 500.82L204.68 502.33L205.09 503.83L205.55 505.29L206.07 506.74L206.64 508.15L207.27 509.54L207.95 510.89L208.68 512.22L209.45 513.52L210.27 514.76L211.14 516L212.06 517.2L213.01 518.35L214.02 519.46L215.06 520.54L216.15 521.57L217.27 522.57L218.42 523.53L219.62 524.43L220.86 525.3L222.12 526.12L223.41 526.88L224.74 527.61L226.1 528.27L227.49 528.88L228.91 529.45L230.35 529.96L231.82 530.42L233.32 530.81L234.83 531.16L236.37 531.44L237.93 531.66L239.49 531.82L241.09 531.92L242.7 531.95L397.63 531.95L399.24 531.92L400.83 531.82L402.41 531.66L403.96 531.44L405.49 531.16L407.01 530.81L408.51 530.42L409.98 529.96L411.42 529.45L412.84 528.88L414.23 528.27L415.59 527.61L416.91 526.88L418.21 526.12L419.47 525.3L420.7 524.43L421.9 523.53L423.07 522.57L424.19 521.57L425.27 520.54L426.31 519.46L427.32 518.35L428.27 517.2L429.18 516L430.05 514.76L430.89 513.52L431.66 512.22L432.39 510.89L433.05 509.54L433.69 508.15L434.25 506.74L434.78 505.29L435.23 503.83L435.64 502.33L435.99 500.82L436.28 499.29L436.51 497.74L436.67 496.16L436.78 494.56L436.83 492.95L436.83 142.25L436.78 140.64L436.67 139.06L436.51 137.48L436.28 135.92L435.99 134.39L435.64 132.87L435.23 131.38L434.78 129.92L434.25 128.48L433.69 127.06L433.05 125.68L432.39 124.32L431.66 123L430.89 121.7L430.05 120.44L429.18 119.21L428.27 118.02L427.32 116.87L426.31 115.75L425.27 114.67L424.19 113.63L423.07 112.64L421.9 111.69L420.7 110.77L419.47 109.92L418.21 109.1L416.91 108.33L415.59 107.61L414.23 106.94L412.84 106.32L411.42 105.77L409.98 105.25L408.51 104.8L407.01 104.39L405.49 104.06L403.96 103.78L402.41 103.56L400.83 103.4L399.24 103.3L397.63 103.27L242.7 103.27L241.09 103.3Z" id="b50lxoHef"></path><path d="M401.77 89.72L403.9 89.94L406 90.24L408.08 90.62L410.14 91.08L412.16 91.61L414.13 92.23L416.09 92.93L418 93.7L419.88 94.54L421.73 95.44L423.53 96.42L425.28 97.46L427 98.56L428.66 99.73L430.29 100.96L431.85 102.24L433.37 103.6L434.84 105.01L436.24 106.46L437.6 107.98L438.9 109.54L440.15 111.15L441.31 112.81L442.42 114.53L443.48 116.29L444.46 118.07L445.37 119.92L446.21 121.78L446.98 123.71L447.68 125.65L448.31 127.64L448.86 129.66L449.32 131.7L449.72 133.79L450.02 135.89L450.25 138.02L450.38 140.18L450.44 142.36L450.44 493.06L450.41 495.23L450.29 497.39L450.08 499.51L449.78 501.61L449.42 503.69L448.96 505.73L448.42 507.75L447.82 509.73L447.14 511.68L446.38 513.6L445.55 515.47L444.65 517.31L443.68 519.11L442.66 520.86L441.55 522.57L440.4 524.23L439.17 525.85L437.89 527.42L436.54 528.93L435.15 530.38L433.7 531.81L432.19 533.15L430.64 534.44L429.03 535.68L427.37 536.86L425.68 537.97L423.92 539.02L422.14 540L420.31 540.9L418.44 541.76L416.53 542.53L414.59 543.23L412.62 543.84L410.59 544.39L408.56 544.87L406.49 545.25L404.39 545.56L402.25 545.78L400.11 545.93L397.94 545.97L241.67 545.97L239.49 545.93L237.33 545.8L235.2 545.58L233.1 545.28L231.01 544.9L228.96 544.44L226.94 543.9L224.95 543.29L223 542.59L221.08 541.84L219.2 541L217.36 540.08L215.56 539.12L213.81 538.08L212.09 536.97L210.43 535.8L208.8 534.57L207.24 533.28L205.72 531.93L204.26 530.53L202.83 529.06L201.49 527.54L200.2 525.98L198.95 524.37L197.78 522.71L196.66 521L195.62 519.25L194.64 517.45L193.72 515.62L192.88 513.74L192.11 511.83L191.4 509.87L190.78 507.88L190.23 505.87L189.77 503.82L189.38 501.73L189.06 499.63L188.84 497.5L188.7 495.34L188.65 493.16L188.65 142.46L188.7 140.28L188.84 138.11L189.06 135.98L189.36 133.88L189.74 131.8L190.21 129.74L190.75 127.72L191.38 125.73L192.08 123.77L192.85 121.86L193.69 119.98L194.6 118.13L195.58 116.33L196.63 114.58L197.75 112.87L198.92 111.2L200.15 109.59L201.44 108.02L202.8 106.51L204.22 105.04L205.68 103.63L207.21 102.28L208.77 100.98L210.38 99.75L212.06 98.58L213.78 97.47L215.53 96.43L217.33 95.45L219.18 94.54L221.06 93.7L222.97 92.94L224.93 92.25L226.92 91.63L228.94 91.08L231 90.62L233.08 90.24L235.2 89.94L237.33 89.72L239.49 89.59L241.67 89.55L397.42 89.55L399.6 89.59L401.77 89.72ZM241.09 103.3L239.49 103.4L237.93 103.56L236.37 103.78L234.83 104.06L233.32 104.39L231.82 104.8L230.35 105.25L228.91 105.77L227.49 106.32L226.1 106.94L224.74 107.61L223.41 108.33L222.12 109.1L220.86 109.92L219.62 110.77L218.42 111.69L217.27 112.64L216.15 113.63L215.06 114.67L214.02 115.75L213.01 116.87L212.06 118.02L211.14 119.21L210.27 120.44L209.45 121.7L208.68 123L207.95 124.32L207.27 125.68L206.64 127.06L206.07 128.48L205.55 129.92L205.09 131.38L204.68 132.87L204.33 134.39L204.05 135.92L203.81 137.48L203.65 139.06L203.54 140.64L203.5 142.25L203.5 492.95L203.54 494.56L203.65 496.16L203.81 497.74L204.05 499.29L204.33 500.82L204.68 502.33L205.09 503.83L205.55 505.29L206.07 506.74L206.64 508.15L207.27 509.54L207.95 510.89L208.68 512.22L209.45 513.52L210.27 514.76L211.14 516L212.06 517.2L213.01 518.35L214.02 519.46L215.06 520.54L216.15 521.57L217.27 522.57L218.42 523.53L219.62 524.43L220.86 525.3L222.12 526.12L223.41 526.88L224.74 527.61L226.1 528.27L227.49 528.88L228.91 529.45L230.35 529.96L231.82 530.42L233.32 530.81L234.83 531.16L236.37 531.44L237.93 531.66L239.49 531.82L241.09 531.92L242.7 531.95L397.63 531.95L399.24 531.92L400.83 531.82L402.41 531.66L403.96 531.44L405.49 531.16L407.01 530.81L408.51 530.42L409.98 529.96L411.42 529.45L412.84 528.88L414.23 528.27L415.59 527.61L416.91 526.88L418.21 526.12L419.47 525.3L420.7 524.43L421.9 523.53L423.07 522.57L424.19 521.57L425.27 520.54L426.31 519.46L427.32 518.35L428.27 517.2L429.18 516L430.05 514.76L430.89 513.52L431.66 512.22L432.39 510.89L433.05 509.54L433.69 508.15L434.25 506.74L434.78 505.29L435.23 503.83L435.64 502.33L435.99 500.82L436.28 499.29L436.51 497.74L436.67 496.16L436.78 494.56L436.83 492.95L436.83 142.25L436.78 140.64L436.67 139.06L436.51 137.48L436.28 135.92L435.99 134.39L435.64 132.87L435.23 131.38L434.78 129.92L434.25 128.48L433.69 127.06L433.05 125.68L432.39 124.32L431.66 123L430.89 121.7L430.05 120.44L429.18 119.21L428.27 118.02L427.32 116.87L426.31 115.75L425.27 114.67L424.19 113.63L423.07 112.64L421.9 111.69L420.7 110.77L419.47 109.92L418.21 109.1L416.91 108.33L415.59 107.61L414.23 106.94L412.84 106.32L411.42 105.77L409.98 105.25L408.51 104.8L407.01 104.39L405.49 104.06L403.96 103.78L402.41 103.56L400.83 103.4L399.24 103.3L397.63 103.27L242.7 103.27L241.09 103.3Z" id="dQ2Cp6ZoS"></path><path d="M319.85 518.54C309.43 518.54 300.98 509.9 300.98 499.25C300.98 488.59 309.43 479.95 319.85 479.95C330.28 479.95 338.73 488.59 338.73 499.25C338.73 509.9 330.28 518.54 319.85 518.54Z" id="dfbhMkULm"></path><path d="M319.85 518.54C309.43 518.54 300.98 509.9 300.98 499.25C300.98 488.59 309.43 479.95 319.85 479.95C330.28 479.95 338.73 488.59 338.73 499.25C338.73 509.9 330.28 518.54 319.85 518.54Z" id="auBOn2b0y"></path><path d="M345.44 116.36C345.44 121.75 345.44 124.74 345.44 125.34C345.44 125.34 345.44 125.34 345.44 125.34C314.67 125.34 297.58 125.34 294.17 125.34C294.17 125.34 294.17 125.34 294.17 125.34C294.17 119.95 294.17 116.96 294.17 116.36C294.17 116.36 294.17 116.36 294.17 116.36C324.92 116.36 342.01 116.36 345.44 116.36C345.44 116.36 345.44 116.36 345.44 116.36Z" id="a1290EybKe"></path><path d="M345.44 116.36C345.44 121.75 345.44 124.74 345.44 125.34C345.44 125.34 345.44 125.34 345.44 125.34C314.67 125.34 297.58 125.34 294.17 125.34C294.17 125.34 294.17 125.34 294.17 125.34C294.17 119.95 294.17 116.96 294.17 116.36C294.17 116.36 294.17 116.36 294.17 116.36C324.92 116.36 342.01 116.36 345.44 116.36C345.44 116.36 345.44 116.36 345.44 116.36Z" id="a1g57jAhM"></path><path d="M416.71 146.8C416.71 342.48 416.71 451.21 416.71 472.94C416.71 472.94 416.71 472.94 416.71 472.94C300.54 472.94 236 472.94 223.1 472.94C223.1 472.94 223.1 472.94 223.1 472.94C223.1 277.26 223.1 168.53 223.1 146.8C223.1 146.8 223.1 146.8 223.1 146.8C339.27 146.8 403.8 146.8 416.71 146.8C416.71 146.8 416.71 146.8 416.71 146.8Z" id="bommv1Z7D"></path><path d="M416.71 146.8C416.71 342.48 416.71 451.21 416.71 472.94C416.71 472.94 416.71 472.94 416.71 472.94C300.54 472.94 236 472.94 223.1 472.94C223.1 472.94 223.1 472.94 223.1 472.94C223.1 277.26 223.1 168.53 223.1 146.8C223.1 146.8 223.1 146.8 223.1 146.8C339.27 146.8 403.8 146.8 416.71 146.8C416.71 146.8 416.71 146.8 416.71 146.8Z" id="a2O9mVEC4Z"></path><path d="M286.54 234.57L286.54 385.06" id="a1KUdOmNWT"></path><path d="M286.54 234.57L286.54 385.06" id="g5bbRrKS6a"></path><path d="M321.2 267.26L321.2 385.06" id="aYHmLVWne"></path><path d="M321.2 267.26L321.2 385.06" id="chMvjLMU"></path><path d="M353.37 302.64L353.37 385.06" id="ae9IRAGsf"></path><path d="M353.37 302.64L353.37 385.06" id="a31yfa6O6"></path></defs><g><g><g><use xlink:href="#eE1nkVxCc" opacity="1" fill="#744298" fill-opacity="1"></use><g><use xlink:href="#eE1nkVxCc" opacity="1" fill-opacity="0" stroke="#000000" stroke-width="1" stroke-opacity="0"></use></g></g><g><use xlink:href="#a1bBv5peG6" opacity="1" fill="#000000" fill-opacity="0"></use><g><use xlink:href="#a1bBv5peG6" opacity="1" fill-opacity="0" stroke="#000000" stroke-width="1" stroke-opacity="0"></use></g></g><g><use xlink:href="#b50lxoHef" opacity="1" fill="#ffffff" fill-opacity="1"></use><g><use xlink:href="#b50lxoHef" opacity="1" fill-opacity="0" stroke="#000000" stroke-width="1" stroke-opacity="0"></use></g></g><g><use xlink:href="#dQ2Cp6ZoS" opacity="1" fill="#000000" fill-opacity="0"></use><g><use xlink:href="#dQ2Cp6ZoS" opacity="1" fill-opacity="0" stroke="#000000" stroke-width="1" stroke-opacity="0"></use></g></g><g><use xlink:href="#dfbhMkULm" opacity="1" fill="#ffffff" fill-opacity="1"></use><g><use xlink:href="#dfbhMkULm" opacity="1" fill-opacity="0" stroke="#000000" stroke-width="1" stroke-opacity="0"></use></g></g><g><use xlink:href="#auBOn2b0y" opacity="1" fill="#000000" fill-opacity="0"></use><g><use xlink:href="#auBOn2b0y" opacity="1" fill-opacity="0" stroke="#000000" stroke-width="1" stroke-opacity="0"></use></g></g><g><use xlink:href="#a1290EybKe" opacity="1" fill="#ffffff" fill-opacity="1"></use><g><use xlink:href="#a1290EybKe" opacity="1" fill-opacity="0" stroke="#000000" stroke-width="1" stroke-opacity="0"></use></g></g><g><use xlink:href="#a1g57jAhM" opacity="1" fill="#000000" fill-opacity="0"></use><g><use xlink:href="#a1g57jAhM" opacity="1" fill-opacity="0" stroke="#000000" stroke-width="1" stroke-opacity="0"></use></g></g><g><use xlink:href="#bommv1Z7D" opacity="1" fill="#000000" fill-opacity="0"></use><g><use xlink:href="#bommv1Z7D" opacity="1" fill-opacity="0" stroke="#000000" stroke-width="1" stroke-opacity="0"></use></g></g><g><use xlink:href="#a2O9mVEC4Z" opacity="1" fill="#000000" fill-opacity="0"></use><g><use xlink:href="#a2O9mVEC4Z" opacity="1" fill-opacity="0" stroke="#ffffff" stroke-width="5" stroke-opacity="1"></use></g></g><g><use xlink:href="#a1KUdOmNWT" opacity="1" fill="#000000" fill-opacity="0"></use><g><use xlink:href="#a1KUdOmNWT" opacity="1" fill-opacity="0" stroke="#000000" stroke-width="1" stroke-opacity="0"></use></g></g><g><use xlink:href="#g5bbRrKS6a" opacity="1" fill="#000000" fill-opacity="0"></use><g><use xlink:href="#g5bbRrKS6a" opacity="1" fill-opacity="0" stroke="#ffffff" stroke-width="5" stroke-opacity="1"></use></g></g><g><use xlink:href="#aYHmLVWne" opacity="1" fill="#000000" fill-opacity="0"></use><g><use xlink:href="#aYHmLVWne" opacity="1" fill-opacity="0" stroke="#000000" stroke-width="1" stroke-opacity="0"></use></g></g><g><use xlink:href="#chMvjLMU" opacity="1" fill="#000000" fill-opacity="0"></use><g><use xlink:href="#chMvjLMU" opacity="1" fill-opacity="0" stroke="#ffffff" stroke-width="5" stroke-opacity="1"></use></g></g><g><use xlink:href="#ae9IRAGsf" opacity="1" fill="#000000" fill-opacity="0"></use><g><use xlink:href="#ae9IRAGsf" opacity="1" fill-opacity="0" stroke="#000000" stroke-width="1" stroke-opacity="0"></use></g></g><g><use xlink:href="#a31yfa6O6" opacity="1" fill="#000000" fill-opacity="0"></use><g><use xlink:href="#a31yfa6O6" opacity="1" fill-opacity="0" stroke="#ffffff" stroke-width="5" stroke-opacity="1"></use></g></g></g></g></svg>