<?xml version="1.0" encoding="UTF-8" standalone="no"?>
<!DOCTYPE svg PUBLIC "-//W3C//DTD SVG 1.1//EN" "http://www.w3.org/Graphics/SVG/1.1/DTD/svg11.dtd">
<svg version="1.1" xmlns="http://www.w3.org/2000/svg" xmlns:xlink="http://www.w3.org/1999/xlink" preserveAspectRatio="xMidYMid meet" viewBox="0 0 640 640" width="640" height="640"><defs><path d="M320 636.22C144.88 636.22 2.94 494.65 2.94 320.01C2.94 145.35 144.88 3.78 320 3.78C495.1 3.78 637.07 145.35 637.07 320.01C637.07 494.65 495.1 636.22 320 636.22Z" id="bKzGaiXQr"></path><path d="M320 636.22C144.88 636.22 2.94 494.65 2.94 320.01C2.94 145.35 144.88 3.78 320 3.78C495.1 3.78 637.07 145.35 637.07 320.01C637.07 494.65 495.1 636.22 320 636.22Z" id="j4NRO3yRb"></path><path d="M284.34 212.75L285.17 212.86L285.99 213L286.8 213.18L287.6 213.38L288.37 213.62L289.15 213.88L289.91 214.18L290.64 214.49L291.37 214.84L292.09 215.21L292.78 215.6L293.47 216.03L294.12 216.48L294.77 216.95L295.39 217.46L295.99 217.97L296.58 218.51L297.13 219.08L297.67 219.65L298.2 220.25L298.69 220.87L299.16 221.52L299.61 222.17L300.04 222.86L300.43 223.56L300.81 224.25L301.16 224.98L301.48 225.71L301.78 226.48L302.04 227.24L302.27 228.01L302.48 228.81L302.66 229.62L302.8 230.43L302.92 231.25L303 232.09L303.05 232.93L303.07 233.78L303.07 234.22L303.05 234.43L303.05 234.65L303.04 234.87L303.02 235.08L303 235.3L302.99 235.5L302.96 235.95L302.94 236.16L302.91 236.38L302.89 236.58L302.86 236.81L302.83 237.01L302.8 237.23L302.77 237.44L302.73 237.66L302.69 237.87L302.66 238.08L302.61 238.3L302.58 238.5L302.53 238.73L302.39 239.35L302.32 239.57L302.27 239.77L302.21 239.98L302.16 240.19L301.78 241.42L301.7 241.63L301.64 241.84L301.48 242.25L317.87 292.71L317.97 292.67L318.06 292.63L318.16 292.59L318.25 292.55L318.33 292.52L318.43 292.49L318.52 292.44L319 292.28L319.1 292.24L319.29 292.17L319.37 292.14L319.46 292.11L319.56 292.09L319.94 291.97L320.05 291.94L320.14 291.92L320.33 291.86L320.43 291.84L320.52 291.81L320.62 291.79L320.71 291.76L320.81 291.75L320.9 291.71L321 291.7L321.09 291.67L321.21 291.65L321.3 291.62L321.59 291.57L321.68 291.54L322.46 291.55L323.24 291.6L324 291.68L324.76 291.79L325.51 291.92L326.24 292.08L326.97 292.27L327.68 292.48L329.08 292.98L329.76 293.27L330.43 293.59L331.08 293.93L331.71 294.28L332.35 294.66L332.95 295.08L333.54 295.51L334.12 295.95L334.68 296.43L335.22 296.92L335.74 297.43L336.25 297.95L336.73 298.49L337.2 299.06L337.65 299.63L338.07 300.24L338.47 300.85L338.85 301.47L339.2 302.12L339.53 302.77L339.85 303.46L340.14 304.14L340.39 304.84L340.63 305.55L340.84 306.28L341.03 307.01L341.19 307.76L341.41 309.28L341.47 310.06L361.15 315.03L361.45 314.69L361.77 314.34L362.1 314.03L362.42 313.71L362.75 313.39L363.45 312.79L363.8 312.5L364.89 311.69L365.27 311.44L366.04 310.96L366.83 310.52L367.23 310.31L367.64 310.11L368.04 309.92L368.45 309.74L368.88 309.57L369.29 309.41L369.72 309.25L370.15 309.11L370.57 308.98L371.02 308.85L371.45 308.74L371.89 308.63L372.34 308.53L373.23 308.38L373.67 308.31L374.13 308.25L374.57 308.2L375.03 308.17L375.95 308.14L376.87 308.14L377.34 308.15L378.19 308.17L379.03 308.22L379.87 308.3L380.7 308.42L381.51 308.57L382.32 308.74L383.11 308.95L383.89 309.19L384.67 309.45L385.41 309.76L386.16 310.07L386.89 310.42L387.6 310.8L388.28 311.2L388.97 311.63L389.63 312.09L390.27 312.57L390.89 313.06L391.49 313.58L392.08 314.12L392.63 314.69L393.17 315.28L393.7 315.88L394.19 316.52L394.66 317.15L395.11 317.82L395.54 318.5L395.93 319.2L396.31 319.91L396.65 320.64L396.97 321.39L397.27 322.15L397.52 322.93L397.76 323.71L397.95 324.51L398.12 325.32L398.27 326.15L398.38 326.97L398.46 327.83L398.49 328.67L398.49 329.29L398.46 329.91L398.41 330.51L398.35 331.13L398.27 331.74L398.17 332.32L398.06 332.91L397.77 334.08L397.43 335.23L397.22 335.8L397.01 336.35L396.54 337.43L396.27 337.97L396 338.5L395.39 339.51L395.06 340.02L394.73 340.49L394.38 340.97L394.01 341.45L393.63 341.91L393.25 342.35L392.43 343.21L392 343.62L391.55 344.02L390.63 344.78L390.14 345.14L389.16 345.81L388.63 346.14L388.11 346.45L387.57 346.73L387.03 347L386.48 347.27L385.9 347.51L390.01 367.31L390.28 368.65L392.82 380.83L393.17 382.55L394.68 389.83L394.93 389.64L395.95 388.94L396.2 388.78L396.74 388.47L397 388.32L397.27 388.18L397.55 388.04L397.82 387.91L398.09 387.77L398.38 387.66L398.65 387.53L399.5 387.2L400.08 387.01L400.38 386.91L400.66 386.82L400.96 386.74L401.25 386.66L401.85 386.53L402.14 386.47L402.44 386.4L403.34 386.26L403.66 386.23L404.27 386.17L404.57 386.15L404.88 386.13L405.19 386.12L406.11 386.12L406.25 386.13L406.65 386.13L406.79 386.15L406.92 386.15L407.06 386.17L407.18 386.17L407.31 386.18L407.45 386.2L407.58 386.21L407.72 386.21L407.85 386.23L407.99 386.25L408.25 386.28L408.39 386.31L408.52 386.32L408.66 386.34L408.79 386.36L408.91 386.39L409.06 386.4L409.18 386.44L409.31 386.45L409.45 386.48L409.58 386.5L409.84 386.56L409.98 386.59L410.36 386.69L410.5 386.72L411.01 386.85L411.14 386.9L411.28 386.93L411.41 386.98L450.54 300.43L450.11 300.14L449.68 299.84L449.27 299.54L448.86 299.22L448.46 298.89L448.08 298.55L447.7 298.2L446.97 297.47L446.62 297.11L446.29 296.73L445.95 296.33L445.64 295.95L445.32 295.54L444.75 294.71L444.46 294.28L444.19 293.86L443.94 293.41L443.7 292.98L443.46 292.52L443.24 292.08L443.03 291.6L442.83 291.14L442.65 290.67L442.46 290.19L442.14 289.24L441.89 288.25L441.76 287.75L441.67 287.25L441.57 286.75L441.49 286.24L441.43 285.73L441.38 285.22L441.34 284.7L441.32 284.18L441.3 283.67L441.3 283.14L441.32 282.3L441.38 281.48L441.48 280.65L441.61 279.84L441.76 279.05L441.95 278.27L442.16 277.49L442.41 276.73L442.68 275.99L443 275.26L443.32 274.54L443.68 273.83L444.06 273.15L444.48 272.48L444.91 271.83L445.37 271.19L445.84 270.58L446.35 269.99L446.87 269.4L447.43 268.85L448 268.32L448.59 267.81L449.19 267.32L449.83 266.85L450.46 266.42L451.13 265.99L451.81 265.61L452.51 265.23L453.21 264.89L453.94 264.58L454.68 264.29L455.43 264.04L456.2 263.82L456.98 263.61L457.76 263.45L458.57 263.31L459.38 263.21L460.2 263.13L461.03 263.09L461.87 263.09L462.19 262.77L462.25 262.77L462.33 262.75L462.55 262.75L462.62 262.74L462.84 262.74L462.92 262.72L464.39 262.72L464.46 262.74L464.68 262.74L464.76 262.75L464.98 262.75L465.04 262.77L465.12 262.77L465.96 262.85L466.79 262.96L467.6 263.1L468.41 263.28L469.2 263.48L469.96 263.72L470.74 263.97L471.49 264.28L472.22 264.59L472.93 264.94L473.63 265.32L474.31 265.72L474.98 266.15L475.63 266.59L476.25 267.07L476.87 267.56L477.45 268.08L478.02 268.62L478.56 269.2L479.09 269.77L479.6 270.37L480.07 270.99L480.53 271.64L480.96 272.29L481.36 272.97L481.74 273.65L482.09 274.35L482.42 275.08L482.72 275.81L482.99 276.56L483.23 277.32L483.44 278.1L483.63 278.88L483.79 279.67L483.9 280.46L483.99 281.29L484.04 282.1L484.07 282.92L484.05 283.76L484.02 284.6L483.94 285.44L483.83 286.27L483.69 287.08L483.52 287.89L483.31 288.68L483.07 289.46L482.8 290.22L482.52 290.97L482.2 291.7L481.85 292.41L481.47 293.11L481.07 293.79L480.64 294.46L480.2 295.11L479.72 295.74L479.21 296.35L478.71 296.93L478.15 297.51L477.6 298.05L477.01 298.57L476.41 299.08L475.79 299.55L475.15 300.01L474.49 300.44L473.82 300.84L473.14 301.22L472.42 301.57L471.71 301.9L470.98 302.2L470.22 302.47L469.47 302.71L468.69 302.92L467.92 303.11L467.12 303.27L466.31 303.38L465.5 303.47L464.68 303.52L463.85 303.55L463.03 303.54L462.19 303.5L459.43 303.5L419.75 391.2L420.09 391.5L420.4 391.8L421.02 392.42L421.32 392.75L421.61 393.07L421.9 393.4L422.17 393.74L422.7 394.43L422.96 394.78L423.43 395.51L423.88 396.24L424.1 396.62L424.31 397L424.5 397.39L424.69 397.78L425.04 398.58L425.36 399.37L425.64 400.19L425.89 401.02L426.01 401.45L426.1 401.86L426.29 402.72L426.35 403.15L426.43 403.57L426.48 404L426.53 404.45L426.58 404.88L426.61 405.32L426.62 405.75L426.64 406.19L426.64 406.64L426.61 407.48L426.56 408.3L426.47 409.13L426.34 409.94L426.2 410.75L426.01 411.54L425.78 412.32L425.55 413.08L425.28 413.83L424.97 414.57L424.64 415.3L424.29 416L423.9 416.7L423.5 417.36L423.05 418.03L422.61 418.67L422.12 419.29L421.63 419.89L421.09 420.48L420.55 421.03L419.98 421.57L419.39 422.08L418.79 422.59L418.15 423.05L417.5 423.51L416.85 423.92L416.17 424.32L415.47 424.7L414.75 425.03L414.02 425.36L413.28 425.65L412.53 425.9L411.76 426.14L410.98 426.35L410.18 426.52L409.37 426.66L408.57 426.78L407.74 426.84L406.9 426.89L406.06 426.9L405.22 426.87L404.39 426.82L403.57 426.73L402.76 426.62L401.95 426.46L401.15 426.27L400.38 426.06L399.62 425.81L398.87 425.54L398.12 425.24L397.41 424.9L396.7 424.55L396.01 424.17L395.33 423.76L394.68 423.33L394.03 422.87L393.41 422.4L392.81 421.89L392.24 421.36L391.66 420.81L391.13 420.24L390.62 419.65L390.13 419.05L389.65 418.41L389.21 417.78L388.78 417.11L388.38 416.43L388.02 415.73L387.67 415.02L387.35 414.29L387.05 413.54L386.79 412.79L386.56 412.02L386.35 411.24L386.19 410.45L386.05 409.64L385.94 408.83L385.86 408L385.81 407.18L385.79 406.34L385.79 406.15L385.81 405.96L385.81 405.59L385.83 405.4L385.83 405.21L385.86 404.83L385.87 404.65L385.9 404.27L385.92 404.1L385.95 403.91L385.97 403.72L386 403.54L386.02 403.35L386.05 403.16L386.08 402.99L386.11 402.8L386.14 402.62L386.17 402.43L386.22 402.26L386.25 402.07L386.3 401.89L386.33 401.7L386.38 401.53L386.43 401.34L386.52 400.99L386.57 400.8L386.63 400.62L386.68 400.45L386.75 400.26L386.79 400.08L387.17 399.04L376.59 348.46L375.81 348.38L375.02 348.29L374.26 348.14L373.49 347.99L372.75 347.79L372 347.59L371.27 347.35L370.56 347.08L369.86 346.8L369.16 346.48L368.48 346.14L367.83 345.78L367.18 345.4L366.54 344.99L365.93 344.56L365.32 344.11L364.75 343.65L364.18 343.16L363.62 342.65L363.1 342.13L362.59 341.59L362.1 341.02L361.62 340.45L361.16 339.84L360.74 339.23L360.32 338.61L359.94 337.96L359.58 337.31L359.23 336.64L358.91 335.94L358.63 335.24L358.36 334.54L358.1 333.81L357.88 333.08L357.69 332.34L357.51 331.58L357.39 330.81L357.28 330.04L357.18 329.26L357.13 328.47L357.13 323.39L340.31 318.83L340.07 319.4L339.84 319.96L339.58 320.52L339.31 321.06L338.71 322.1L338.39 322.59L338.06 323.1L337.36 324.05L336.98 324.51L336.6 324.96L336.2 325.39L335.79 325.82L334.93 326.61L334.49 326.99L334.03 327.36L333.55 327.72L332.6 328.39L331.58 328.99L331.08 329.28L330.55 329.53L330.01 329.78L329.47 330.02L328.93 330.24L327.82 330.62L327.25 330.8L326.68 330.94L326.09 331.08L324.92 331.31L324.32 331.39L323.73 331.45L323.13 331.5L322.51 331.53L321.9 331.53L321.06 331.5L320.24 331.42L319.43 331.31L318.62 331.16L317.83 331.01L317.05 330.8L316.29 330.58L315.52 330.32L314.78 330.04L314.05 329.74L313.33 329.4L312.64 329.04L311.94 328.66L311.27 328.24L310.62 327.82L309.99 327.36L309.37 326.88L308.76 326.37L308.19 325.85L307.64 325.31L307.08 324.75L306.57 324.17L306.07 323.56L305.59 322.94L305.15 322.31L304.72 321.64L304.31 320.98L303.92 320.29L303.58 319.58L303.24 318.87L302.94 318.14L302.66 317.39L302.42 316.63L302.19 315.87L301.99 315.07L301.83 314.28L301.7 313.49L301.59 312.66L301.53 311.84L301.48 311.01L301.51 310.06L301.54 309.58L301.59 309.12L301.64 308.65L301.7 308.19L301.78 307.73L301.97 306.8L302.08 306.34L302.34 305.46L302.62 304.57L303.15 303.28L303.34 302.85L303.54 302.44L303.77 302.03L303.99 301.63L304.21 301.22L304.45 300.84L304.7 300.44L305.24 299.68L305.51 299.31L305.81 298.95L306.1 298.58L306.73 297.89L307.05 297.55L307.38 297.22L307.72 296.9L308.07 296.59L308.8 295.98L309.56 295.41L309.94 295.14L295.24 249.76L294.97 249.95L294.72 250.14L294.45 250.33L293.64 250.85L293.37 251.01L292.8 251.33L292.53 251.49L291.96 251.77L291.66 251.91L291.09 252.17L290.78 252.29L290.48 252.41L290.2 252.53L289.9 252.63L289.59 252.74L289.28 252.83L288.67 253.02L288.36 253.1L288.06 253.18L287.74 253.26L287.44 253.33L286.48 253.52L285.85 253.61L284.58 253.74L284.25 253.75L283.93 253.77L283.28 253.77L282.72 253.79L282.17 253.79L281.63 253.77L281.07 253.74L280.53 253.69L279.99 253.63L279.45 253.55L278.91 253.44L278.39 253.33L277.87 253.2L277.34 253.06L276.84 252.9L275.82 252.55L275.33 252.34L274.84 252.12L274.36 251.9L273.88 251.66L273.41 251.39L272.95 251.12L272.5 250.85L272.06 250.55L271.2 249.91L270.77 249.58L269.98 248.88L269.58 248.5L269.2 248.12L268.84 247.72L268.49 247.33L268.14 246.91L267.81 246.49L267.17 245.6L266.89 245.14L266.6 244.66L266.33 244.19L265.82 243.2L185.11 311.44L185.13 311.57L185.16 311.85L185.18 311.98L185.21 312.26L185.22 312.39L185.22 312.53L185.24 312.68L185.26 312.8L185.26 312.95L185.27 313.09L185.27 313.22L185.29 313.36L185.29 313.77L185.3 313.91L185.3 314.45L185.29 314.6L185.29 315.01L185.27 315.15L185.27 315.28L185.26 315.42L185.26 315.56L185.24 315.69L185.22 315.83L185.22 315.98L185.21 316.1L185.18 316.39L185.16 316.52L185.13 316.8L185.11 316.93L185.08 317.34L185.05 317.74L185.02 318.15L184.97 318.55L184.91 318.96L184.78 319.75L184.7 320.15L184.6 320.53L184.51 320.93L184.41 321.31L184.3 321.71L184.18 322.09L184.07 322.47L183.92 322.85L183.78 323.21L183.64 323.59L183.16 324.69L182.97 325.04L182.8 325.4L182.61 325.75L182.4 326.1L182.21 326.45L181.99 326.78L181.78 327.12L181.54 327.45L181.32 327.78L181.08 328.1L180.83 328.42L180.59 328.74L180.32 329.05L180.07 329.35L179.8 329.66L179.51 329.94L179.23 330.24L178.94 330.51L178.65 330.8L178.35 331.07L177.72 331.61L177.07 332.13L176.4 332.61L175.72 333.05L175.04 333.46L174.32 333.86L173.61 334.21L172.89 334.54L172.15 334.85L171.42 335.12L170.66 335.35L169.91 335.56L169.15 335.73L168.37 335.88L167.61 336L166.83 336.08L166.05 336.15L165.28 336.18L164.51 336.16L163.74 336.15L162.96 336.08L162.18 335.99L161.42 335.88L160.66 335.72L159.9 335.54L159.15 335.34L158.4 335.1L157.67 334.83L156.94 334.54L156.23 334.21L155.52 333.86L154.83 333.48L154.15 333.07L153.49 332.62L152.83 332.16L152.2 331.67L151.57 331.13L150.96 330.58L150.39 330.01L149.82 329.39L149.28 328.75L148.77 328.1L148.28 327.43L147.84 326.77L147.42 326.07L147.03 325.37L146.68 324.66L146.34 323.93L146.04 323.2L145.79 322.45L145.55 321.71L145.33 320.94L145.15 320.18L145.01 319.42L144.9 318.66L144.8 317.88L144.74 317.1L144.73 316.33L144.73 315.55L144.76 314.77L144.8 314.01L144.9 313.23L145.03 312.47L145.17 311.71L145.34 310.95L145.55 310.2L145.79 309.45L146.06 308.71L146.36 308L146.68 307.28L147.03 306.57L147.41 305.87L147.82 305.2L148.26 304.52L148.72 303.87L149.23 303.23L149.76 302.62L150.31 302.01L150.88 301.43L151.5 300.87L152.14 300.31L152.79 299.81L153.45 299.33L154.12 298.89L154.82 298.46L155.52 298.08L156.23 297.71L156.96 297.39L157.69 297.09L158.44 296.82L159.18 296.59L159.94 296.38L160.71 296.2L161.47 296.06L162.25 295.93L163.01 295.86L163.78 295.79L164.56 295.76L165.34 295.76L166.12 295.79L166.89 295.86L167.66 295.95L168.42 296.06L169.2 296.22L169.94 296.39L170.7 296.6L171.43 296.84L172.18 297.11L172.91 297.39L173.62 297.73L174.32 298.08L175.02 298.46L175.7 298.87L176.37 299.3L177.02 299.77L177.65 300.27L178.27 300.79L178.88 301.35L179.46 301.93L180.03 302.55L262.24 232.82L262.25 232L262.3 231.16L262.4 230.35L262.52 229.54L262.66 228.73L262.84 227.95L263.06 227.17L263.3 226.41L263.57 225.67L263.87 224.94L264.19 224.21L264.92 222.81L265.33 222.14L265.76 221.49L266.22 220.86L266.7 220.24L267.19 219.64L267.71 219.05L268.25 218.49L268.82 217.95L269.41 217.45L270.01 216.95L270.63 216.48L271.28 216.03L271.93 215.6L272.61 215.21L273.3 214.84L274.01 214.49L274.74 214.18L275.47 213.89L276.22 213.62L276.99 213.38L277.77 213.19L278.55 213.02L279.36 212.88L280.17 212.76L280.98 212.69L281.82 212.64L282.64 212.62L283.5 212.67L284.34 212.75ZM401.39 396.43L399.47 397.47L397.79 398.86L396.41 400.53L395.36 402.45L394.7 404.57L394.47 406.86L394.7 409.14L395.36 411.27L396.41 413.19L397.79 414.86L399.47 416.25L401.39 417.29L403.52 417.95L405.79 418.17L405.9 417.65L408.09 417.41L410.15 416.79L412.01 415.79L413.66 414.49L415.02 412.91L416.09 411.06L416.8 409.05L417.12 406.86L416.88 404.57L416.23 402.45L415.18 400.53L413.8 398.86L412.12 397.47L410.2 396.43L408.07 395.77L405.79 395.54L403.52 395.77L401.39 396.43ZM378.76 349.06L379.76 349.08L380.78 349.06L381.78 348.98L380.76 348.94L379.75 348.83L378.75 348.67L377.76 348.46L377.76 348.98L378.76 349.06ZM373.91 317.96L372.15 318.8L370.57 319.91L369.21 321.28L368.08 322.86L367.26 324.63L366.72 326.53L366.54 328.58L366.72 330.61L367.24 332.53L368.08 334.29L369.21 335.88L370.57 337.24L372.15 338.35L373.91 339.19L375.83 339.72L377.86 339.89L379.91 339.72L381.81 339.18L383.57 338.35L385.16 337.23L386.52 335.86L387.63 334.29L388.48 332.53L389 330.61L389.19 328.58L389 326.53L388.48 324.63L387.63 322.86L386.52 321.28L385.16 319.91L383.57 318.8L381.81 317.96L379.91 317.44L377.86 317.25L375.83 317.44L373.91 317.96ZM160.5 306.5L158.58 307.55L156.9 308.93L155.52 310.61L154.47 312.53L153.8 314.66L153.58 316.93L153.8 319.21L154.47 321.34L155.52 323.26L156.9 324.94L158.58 326.32L160.5 327.37L162.63 328.02L164.9 328.26L167.18 328.02L169.31 327.37L171.23 326.32L172.91 324.94L174.29 323.26L175.34 321.34L175.99 319.21L176.23 316.93L175.99 314.66L175.34 312.53L174.29 310.61L172.91 308.93L171.23 307.55L169.31 306.5L167.18 305.84L164.9 305.61L162.63 305.84L160.5 306.5ZM317.6 301.28L315.67 302.3L313.99 303.66L312.59 305.33L311.53 307.23L310.84 309.36L310.59 311.64L310.8 313.91L311.43 316.06L312.46 317.99L313.83 319.67L315.48 321.07L317.4 322.13L319.51 322.82L321.79 323.07L321.79 322.64L321.9 322.64L324.17 322.42L326.3 321.75L328.24 320.72L329.9 319.33L331.28 317.66L332.33 315.74L333 313.61L333.22 311.33L332.92 309.12L332.22 307.09L331.17 305.25L329.81 303.63L328.16 302.31L326.28 301.31L324.22 300.66L322.02 300.43L319.73 300.63L317.6 301.28ZM341.96 313.44L341.95 314.3L341.9 315.14L341.9 315.56L341.96 314.61L341.98 313.66L341.96 312.71L341.9 311.76L341.95 312.6L341.96 313.44ZM457.46 273.5L455.54 274.54L453.86 275.92L452.48 277.61L451.43 279.53L450.78 281.65L450.54 283.92L450.78 286.21L451.43 288.33L452.48 290.25L453.86 291.94L455.54 293.32L457.46 294.36L459.58 295.01L461.87 295.25L461.87 294.71L464.08 294.51L466.14 293.89L468.03 292.9L469.69 291.59L471.07 290L472.15 288.16L472.87 286.13L473.18 283.92L472.96 281.65L472.3 279.53L471.25 277.61L469.87 275.92L468.19 274.54L466.27 273.5L464.14 272.83L461.87 272.61L459.58 272.83L457.46 273.5ZM278.14 223.03L276.22 224.08L274.53 225.46L273.15 227.14L272.11 229.06L271.46 231.19L271.22 233.46L271.46 235.74L272.11 237.87L273.15 239.79L274.53 241.47L276.22 242.85L278.14 243.9L280.26 244.55L282.55 244.79L284.82 244.55L286.94 243.9L288.86 242.85L290.55 241.47L291.93 239.79L292.97 237.87L293.64 235.74L293.86 233.46L293.64 231.19L292.97 229.06L291.93 227.14L290.55 225.46L288.86 224.08L286.94 223.03L284.82 222.37L282.55 222.14L280.26 222.37L278.14 223.03Z" id="e1LnL3KjD0"></path><path d="M284.34 212.75L285.17 212.86L285.99 213L286.8 213.18L287.6 213.38L288.37 213.62L289.15 213.88L289.91 214.18L290.64 214.49L291.37 214.84L292.09 215.21L292.78 215.6L293.47 216.03L294.12 216.48L294.77 216.95L295.39 217.46L295.99 217.97L296.58 218.51L297.13 219.08L297.67 219.65L298.2 220.25L298.69 220.87L299.16 221.52L299.61 222.17L300.04 222.86L300.43 223.56L300.81 224.25L301.16 224.98L301.48 225.71L301.78 226.48L302.04 227.24L302.27 228.01L302.48 228.81L302.66 229.62L302.8 230.43L302.92 231.25L303 232.09L303.05 232.93L303.07 233.78L303.07 234.22L303.05 234.43L303.05 234.65L303.04 234.87L303.02 235.08L303 235.3L302.99 235.5L302.96 235.95L302.94 236.16L302.91 236.38L302.89 236.58L302.86 236.81L302.83 237.01L302.8 237.23L302.77 237.44L302.73 237.66L302.69 237.87L302.66 238.08L302.61 238.3L302.58 238.5L302.53 238.73L302.39 239.35L302.32 239.57L302.27 239.77L302.21 239.98L302.16 240.19L301.78 241.42L301.7 241.63L301.64 241.84L301.48 242.25L317.87 292.71L317.97 292.67L318.06 292.63L318.16 292.59L318.25 292.55L318.33 292.52L318.43 292.49L318.52 292.44L319 292.28L319.1 292.24L319.29 292.17L319.37 292.14L319.46 292.11L319.56 292.09L319.94 291.97L320.05 291.94L320.14 291.92L320.33 291.86L320.43 291.84L320.52 291.81L320.62 291.79L320.71 291.76L320.81 291.75L320.9 291.71L321 291.7L321.09 291.67L321.21 291.65L321.3 291.62L321.59 291.57L321.68 291.54L322.46 291.55L323.24 291.6L324 291.68L324.76 291.79L325.51 291.92L326.24 292.08L326.97 292.27L327.68 292.48L329.08 292.98L329.76 293.27L330.43 293.59L331.08 293.93L331.71 294.28L332.35 294.66L332.95 295.08L333.54 295.51L334.12 295.95L334.68 296.43L335.22 296.92L335.74 297.43L336.25 297.95L336.73 298.49L337.2 299.06L337.65 299.63L338.07 300.24L338.47 300.85L338.85 301.47L339.2 302.12L339.53 302.77L339.85 303.46L340.14 304.14L340.39 304.84L340.63 305.55L340.84 306.28L341.03 307.01L341.19 307.76L341.41 309.28L341.47 310.06L361.15 315.03L361.45 314.69L361.77 314.34L362.1 314.03L362.42 313.71L362.75 313.39L363.45 312.79L363.8 312.5L364.89 311.69L365.27 311.44L366.04 310.96L366.83 310.52L367.23 310.31L367.64 310.11L368.04 309.92L368.45 309.74L368.88 309.57L369.29 309.41L369.72 309.25L370.15 309.11L370.57 308.98L371.02 308.85L371.45 308.74L371.89 308.63L372.34 308.53L373.23 308.38L373.67 308.31L374.13 308.25L374.57 308.2L375.03 308.17L375.95 308.14L376.87 308.14L377.34 308.15L378.19 308.17L379.03 308.22L379.87 308.3L380.7 308.42L381.51 308.57L382.32 308.74L383.11 308.95L383.89 309.19L384.67 309.45L385.41 309.76L386.16 310.07L386.89 310.42L387.6 310.8L388.28 311.2L388.97 311.63L389.63 312.09L390.27 312.57L390.89 313.06L391.49 313.58L392.08 314.12L392.63 314.69L393.17 315.28L393.7 315.88L394.19 316.52L394.66 317.15L395.11 317.82L395.54 318.5L395.93 319.2L396.31 319.91L396.65 320.64L396.97 321.39L397.27 322.15L397.52 322.93L397.76 323.71L397.95 324.51L398.12 325.32L398.27 326.15L398.38 326.97L398.46 327.83L398.49 328.67L398.49 329.29L398.46 329.91L398.41 330.51L398.35 331.13L398.27 331.74L398.17 332.32L398.06 332.91L397.77 334.08L397.43 335.23L397.22 335.8L397.01 336.35L396.54 337.43L396.27 337.97L396 338.5L395.39 339.51L395.06 340.02L394.73 340.49L394.38 340.97L394.01 341.45L393.63 341.91L393.25 342.35L392.43 343.21L392 343.62L391.55 344.02L390.63 344.78L390.14 345.14L389.16 345.81L388.63 346.14L388.11 346.45L387.57 346.73L387.03 347L386.48 347.27L385.9 347.51L390.01 367.31L390.28 368.65L392.82 380.83L393.17 382.55L394.68 389.83L394.93 389.64L395.95 388.94L396.2 388.78L396.74 388.47L397 388.32L397.27 388.18L397.55 388.04L397.82 387.91L398.09 387.77L398.38 387.66L398.65 387.53L399.5 387.2L400.08 387.01L400.38 386.91L400.66 386.82L400.96 386.74L401.25 386.66L401.85 386.53L402.14 386.47L402.44 386.4L403.34 386.26L403.66 386.23L404.27 386.17L404.57 386.15L404.88 386.13L405.19 386.12L406.11 386.12L406.25 386.13L406.65 386.13L406.79 386.15L406.92 386.15L407.06 386.17L407.18 386.17L407.31 386.18L407.45 386.2L407.58 386.21L407.72 386.21L407.85 386.23L407.99 386.25L408.25 386.28L408.39 386.31L408.52 386.32L408.66 386.34L408.79 386.36L408.91 386.39L409.06 386.4L409.18 386.44L409.31 386.45L409.45 386.48L409.58 386.5L409.84 386.56L409.98 386.59L410.36 386.69L410.5 386.72L411.01 386.85L411.14 386.9L411.28 386.93L411.41 386.98L450.54 300.43L450.11 300.14L449.68 299.84L449.27 299.54L448.86 299.22L448.46 298.89L448.08 298.55L447.7 298.2L446.97 297.47L446.62 297.11L446.29 296.73L445.95 296.33L445.64 295.95L445.32 295.54L444.75 294.71L444.46 294.28L444.19 293.86L443.94 293.41L443.7 292.98L443.46 292.52L443.24 292.08L443.03 291.6L442.83 291.14L442.65 290.67L442.46 290.19L442.14 289.24L441.89 288.25L441.76 287.75L441.67 287.25L441.57 286.75L441.49 286.24L441.43 285.73L441.38 285.22L441.34 284.7L441.32 284.18L441.3 283.67L441.3 283.14L441.32 282.3L441.38 281.48L441.48 280.65L441.61 279.84L441.76 279.05L441.95 278.27L442.16 277.49L442.41 276.73L442.68 275.99L443 275.26L443.32 274.54L443.68 273.83L444.06 273.15L444.48 272.48L444.91 271.83L445.37 271.19L445.84 270.58L446.35 269.99L446.87 269.4L447.43 268.85L448 268.32L448.59 267.81L449.19 267.32L449.83 266.85L450.46 266.42L451.13 265.99L451.81 265.61L452.51 265.23L453.21 264.89L453.94 264.58L454.68 264.29L455.43 264.04L456.2 263.82L456.98 263.61L457.76 263.45L458.57 263.31L459.38 263.21L460.2 263.13L461.03 263.09L461.87 263.09L462.19 262.77L462.25 262.77L462.33 262.75L462.55 262.75L462.62 262.74L462.84 262.74L462.92 262.72L464.39 262.72L464.46 262.74L464.68 262.74L464.76 262.75L464.98 262.75L465.04 262.77L465.12 262.77L465.96 262.85L466.79 262.96L467.6 263.1L468.41 263.28L469.2 263.48L469.96 263.72L470.74 263.97L471.49 264.28L472.22 264.59L472.93 264.94L473.63 265.32L474.31 265.72L474.98 266.15L475.63 266.59L476.25 267.07L476.87 267.56L477.45 268.08L478.02 268.62L478.56 269.2L479.09 269.77L479.6 270.37L480.07 270.99L480.53 271.64L480.96 272.29L481.36 272.97L481.74 273.65L482.09 274.35L482.42 275.08L482.72 275.81L482.99 276.56L483.23 277.32L483.44 278.1L483.63 278.88L483.79 279.67L483.9 280.46L483.99 281.29L484.04 282.1L484.07 282.92L484.05 283.76L484.02 284.6L483.94 285.44L483.83 286.27L483.69 287.08L483.52 287.89L483.31 288.68L483.07 289.46L482.8 290.22L482.52 290.97L482.2 291.7L481.85 292.41L481.47 293.11L481.07 293.79L480.64 294.46L480.2 295.11L479.72 295.74L479.21 296.35L478.71 296.93L478.15 297.51L477.6 298.05L477.01 298.57L476.41 299.08L475.79 299.55L475.15 300.01L474.49 300.44L473.82 300.84L473.14 301.22L472.42 301.57L471.71 301.9L470.98 302.2L470.22 302.47L469.47 302.71L468.69 302.92L467.92 303.11L467.12 303.27L466.31 303.38L465.5 303.47L464.68 303.52L463.85 303.55L463.03 303.54L462.19 303.5L459.43 303.5L419.75 391.2L420.09 391.5L420.4 391.8L421.02 392.42L421.32 392.75L421.61 393.07L421.9 393.4L422.17 393.74L422.7 394.43L422.96 394.78L423.43 395.51L423.88 396.24L424.1 396.62L424.31 397L424.5 397.39L424.69 397.78L425.04 398.58L425.36 399.37L425.64 400.19L425.89 401.02L426.01 401.45L426.1 401.86L426.29 402.72L426.35 403.15L426.43 403.57L426.48 404L426.53 404.45L426.58 404.88L426.61 405.32L426.62 405.75L426.64 406.19L426.64 406.64L426.61 407.48L426.56 408.3L426.47 409.13L426.34 409.94L426.2 410.75L426.01 411.54L425.78 412.32L425.55 413.08L425.28 413.83L424.97 414.57L424.64 415.3L424.29 416L423.9 416.7L423.5 417.36L423.05 418.03L422.61 418.67L422.12 419.29L421.63 419.89L421.09 420.48L420.55 421.03L419.98 421.57L419.39 422.08L418.79 422.59L418.15 423.05L417.5 423.51L416.85 423.92L416.17 424.32L415.47 424.7L414.75 425.03L414.02 425.36L413.28 425.65L412.53 425.9L411.76 426.14L410.98 426.35L410.18 426.52L409.37 426.66L408.57 426.78L407.74 426.84L406.9 426.89L406.06 426.9L405.22 426.87L404.39 426.82L403.57 426.73L402.76 426.62L401.95 426.46L401.15 426.27L400.38 426.06L399.62 425.81L398.87 425.54L398.12 425.24L397.41 424.9L396.7 424.55L396.01 424.17L395.33 423.76L394.68 423.33L394.03 422.87L393.41 422.4L392.81 421.89L392.24 421.36L391.66 420.81L391.13 420.24L390.62 419.65L390.13 419.05L389.65 418.41L389.21 417.78L388.78 417.11L388.38 416.43L388.02 415.73L387.67 415.02L387.35 414.29L387.05 413.54L386.79 412.79L386.56 412.02L386.35 411.24L386.19 410.45L386.05 409.64L385.94 408.83L385.86 408L385.81 407.18L385.79 406.34L385.79 406.15L385.81 405.96L385.81 405.59L385.83 405.4L385.83 405.21L385.86 404.83L385.87 404.65L385.9 404.27L385.92 404.1L385.95 403.91L385.97 403.72L386 403.54L386.02 403.35L386.05 403.16L386.08 402.99L386.11 402.8L386.14 402.62L386.17 402.43L386.22 402.26L386.25 402.07L386.3 401.89L386.33 401.7L386.38 401.53L386.43 401.34L386.52 400.99L386.57 400.8L386.63 400.62L386.68 400.45L386.75 400.26L386.79 400.08L387.17 399.04L376.59 348.46L375.81 348.38L375.02 348.29L374.26 348.14L373.49 347.99L372.75 347.79L372 347.59L371.27 347.35L370.56 347.08L369.86 346.8L369.16 346.48L368.48 346.14L367.83 345.78L367.18 345.4L366.54 344.99L365.93 344.56L365.32 344.11L364.75 343.65L364.18 343.16L363.62 342.65L363.1 342.13L362.59 341.59L362.1 341.02L361.62 340.45L361.16 339.84L360.74 339.23L360.32 338.61L359.94 337.96L359.58 337.31L359.23 336.64L358.91 335.94L358.63 335.24L358.36 334.54L358.1 333.81L357.88 333.08L357.69 332.34L357.51 331.58L357.39 330.81L357.28 330.04L357.18 329.26L357.13 328.47L357.13 323.39L340.31 318.83L340.07 319.4L339.84 319.96L339.58 320.52L339.31 321.06L338.71 322.1L338.39 322.59L338.06 323.1L337.36 324.05L336.98 324.51L336.6 324.96L336.2 325.39L335.79 325.82L334.93 326.61L334.49 326.99L334.03 327.36L333.55 327.72L332.6 328.39L331.58 328.99L331.08 329.28L330.55 329.53L330.01 329.78L329.47 330.02L328.93 330.24L327.82 330.62L327.25 330.8L326.68 330.94L326.09 331.08L324.92 331.31L324.32 331.39L323.73 331.45L323.13 331.5L322.51 331.53L321.9 331.53L321.06 331.5L320.24 331.42L319.43 331.31L318.62 331.16L317.83 331.01L317.05 330.8L316.29 330.58L315.52 330.32L314.78 330.04L314.05 329.74L313.33 329.4L312.64 329.04L311.94 328.66L311.27 328.24L310.62 327.82L309.99 327.36L309.37 326.88L308.76 326.37L308.19 325.85L307.64 325.31L307.08 324.75L306.57 324.17L306.07 323.56L305.59 322.94L305.15 322.31L304.72 321.64L304.31 320.98L303.92 320.29L303.58 319.58L303.24 318.87L302.94 318.14L302.66 317.39L302.42 316.63L302.19 315.87L301.99 315.07L301.83 314.28L301.7 313.49L301.59 312.66L301.53 311.84L301.48 311.01L301.51 310.06L301.54 309.58L301.59 309.12L301.64 308.65L301.7 308.19L301.78 307.73L301.97 306.8L302.08 306.34L302.34 305.46L302.62 304.57L303.15 303.28L303.34 302.85L303.54 302.44L303.77 302.03L303.99 301.63L304.21 301.22L304.45 300.84L304.7 300.44L305.24 299.68L305.51 299.31L305.81 298.95L306.1 298.58L306.73 297.89L307.05 297.55L307.38 297.22L307.72 296.9L308.07 296.59L308.8 295.98L309.56 295.41L309.94 295.14L295.24 249.76L294.97 249.95L294.72 250.14L294.45 250.33L293.64 250.85L293.37 251.01L292.8 251.33L292.53 251.49L291.96 251.77L291.66 251.91L291.09 252.17L290.78 252.29L290.48 252.41L290.2 252.53L289.9 252.63L289.59 252.74L289.28 252.83L288.67 253.02L288.36 253.1L288.06 253.18L287.74 253.26L287.44 253.33L286.48 253.52L285.85 253.61L284.58 253.74L284.25 253.75L283.93 253.77L283.28 253.77L282.72 253.79L282.17 253.79L281.63 253.77L281.07 253.74L280.53 253.69L279.99 253.63L279.45 253.55L278.91 253.44L278.39 253.33L277.87 253.2L277.34 253.06L276.84 252.9L275.82 252.55L275.33 252.34L274.84 252.12L274.36 251.9L273.88 251.66L273.41 251.39L272.95 251.12L272.5 250.85L272.06 250.55L271.2 249.91L270.77 249.58L269.98 248.88L269.58 248.5L269.2 248.12L268.84 247.72L268.49 247.33L268.14 246.91L267.81 246.49L267.17 245.6L266.89 245.14L266.6 244.66L266.33 244.19L265.82 243.2L185.11 311.44L185.13 311.57L185.16 311.85L185.18 311.98L185.21 312.26L185.22 312.39L185.22 312.53L185.24 312.68L185.26 312.8L185.26 312.95L185.27 313.09L185.27 313.22L185.29 313.36L185.29 313.77L185.3 313.91L185.3 314.45L185.29 314.6L185.29 315.01L185.27 315.15L185.27 315.28L185.26 315.42L185.26 315.56L185.24 315.69L185.22 315.83L185.22 315.98L185.21 316.1L185.18 316.39L185.16 316.52L185.13 316.8L185.11 316.93L185.08 317.34L185.05 317.74L185.02 318.15L184.97 318.55L184.91 318.96L184.78 319.75L184.7 320.15L184.6 320.53L184.51 320.93L184.41 321.31L184.3 321.71L184.18 322.09L184.07 322.47L183.92 322.85L183.78 323.21L183.64 323.59L183.16 324.69L182.97 325.04L182.8 325.4L182.61 325.75L182.4 326.1L182.21 326.45L181.99 326.78L181.78 327.12L181.54 327.45L181.32 327.78L181.08 328.1L180.83 328.42L180.59 328.74L180.32 329.05L180.07 329.35L179.8 329.66L179.51 329.94L179.23 330.24L178.94 330.51L178.65 330.8L178.35 331.07L177.72 331.61L177.07 332.13L176.4 332.61L175.72 333.05L175.04 333.46L174.32 333.86L173.61 334.21L172.89 334.54L172.15 334.85L171.42 335.12L170.66 335.35L169.91 335.56L169.15 335.73L168.37 335.88L167.61 336L166.83 336.08L166.05 336.15L165.28 336.18L164.51 336.16L163.74 336.15L162.96 336.08L162.18 335.99L161.42 335.88L160.66 335.72L159.9 335.54L159.15 335.34L158.4 335.1L157.67 334.83L156.94 334.54L156.23 334.21L155.52 333.86L154.83 333.48L154.15 333.07L153.49 332.62L152.83 332.16L152.2 331.67L151.57 331.13L150.96 330.58L150.39 330.01L149.82 329.39L149.28 328.75L148.77 328.1L148.28 327.43L147.84 326.77L147.42 326.07L147.03 325.37L146.68 324.66L146.34 323.93L146.04 323.2L145.79 322.45L145.55 321.71L145.33 320.94L145.15 320.18L145.01 319.42L144.9 318.66L144.8 317.88L144.74 317.1L144.73 316.33L144.73 315.55L144.76 314.77L144.8 314.01L144.9 313.23L145.03 312.47L145.17 311.71L145.34 310.95L145.55 310.2L145.79 309.45L146.06 308.71L146.36 308L146.68 307.28L147.03 306.57L147.41 305.87L147.82 305.2L148.26 304.52L148.72 303.87L149.23 303.23L149.76 302.62L150.31 302.01L150.88 301.43L151.5 300.87L152.14 300.31L152.79 299.81L153.45 299.33L154.12 298.89L154.82 298.46L155.52 298.08L156.23 297.71L156.96 297.39L157.69 297.09L158.44 296.82L159.18 296.59L159.94 296.38L160.71 296.2L161.47 296.06L162.25 295.93L163.01 295.86L163.78 295.79L164.56 295.76L165.34 295.76L166.12 295.79L166.89 295.86L167.66 295.95L168.42 296.06L169.2 296.22L169.94 296.39L170.7 296.6L171.43 296.84L172.18 297.11L172.91 297.39L173.62 297.73L174.32 298.08L175.02 298.46L175.7 298.87L176.37 299.3L177.02 299.77L177.65 300.27L178.27 300.79L178.88 301.35L179.46 301.93L180.03 302.55L262.24 232.82L262.25 232L262.3 231.16L262.4 230.35L262.52 229.54L262.66 228.73L262.84 227.95L263.06 227.17L263.3 226.41L263.57 225.67L263.87 224.94L264.19 224.21L264.92 222.81L265.33 222.14L265.76 221.49L266.22 220.86L266.7 220.24L267.19 219.64L267.71 219.05L268.25 218.49L268.82 217.95L269.41 217.45L270.01 216.95L270.63 216.48L271.28 216.03L271.93 215.6L272.61 215.21L273.3 214.84L274.01 214.49L274.74 214.18L275.47 213.89L276.22 213.62L276.99 213.38L277.77 213.19L278.55 213.02L279.36 212.88L280.17 212.76L280.98 212.69L281.82 212.64L282.64 212.62L283.5 212.67L284.34 212.75ZM401.39 396.43L399.47 397.47L397.79 398.86L396.41 400.53L395.36 402.45L394.7 404.57L394.47 406.86L394.7 409.14L395.36 411.27L396.41 413.19L397.79 414.86L399.47 416.25L401.39 417.29L403.52 417.95L405.79 418.17L405.9 417.65L408.09 417.41L410.15 416.79L412.01 415.79L413.66 414.49L415.02 412.91L416.09 411.06L416.8 409.05L417.12 406.86L416.88 404.57L416.23 402.45L415.18 400.53L413.8 398.86L412.12 397.47L410.2 396.43L408.07 395.77L405.79 395.54L403.52 395.77L401.39 396.43ZM378.76 349.06L379.76 349.08L380.78 349.06L381.78 348.98L380.76 348.94L379.75 348.83L378.75 348.67L377.76 348.46L377.76 348.98L378.76 349.06ZM373.91 317.96L372.15 318.8L370.57 319.91L369.21 321.28L368.08 322.86L367.26 324.63L366.72 326.53L366.54 328.58L366.72 330.61L367.24 332.53L368.08 334.29L369.21 335.88L370.57 337.24L372.15 338.35L373.91 339.19L375.83 339.72L377.86 339.89L379.91 339.72L381.81 339.18L383.57 338.35L385.16 337.23L386.52 335.86L387.63 334.29L388.48 332.53L389 330.61L389.19 328.58L389 326.53L388.48 324.63L387.63 322.86L386.52 321.28L385.16 319.91L383.57 318.8L381.81 317.96L379.91 317.44L377.86 317.25L375.83 317.44L373.91 317.96ZM160.5 306.5L158.58 307.55L156.9 308.93L155.52 310.61L154.47 312.53L153.8 314.66L153.58 316.93L153.8 319.21L154.47 321.34L155.52 323.26L156.9 324.94L158.58 326.32L160.5 327.37L162.63 328.02L164.9 328.26L167.18 328.02L169.31 327.37L171.23 326.32L172.91 324.94L174.29 323.26L175.34 321.34L175.99 319.21L176.23 316.93L175.99 314.66L175.34 312.53L174.29 310.61L172.91 308.93L171.23 307.55L169.31 306.5L167.18 305.84L164.9 305.61L162.63 305.84L160.5 306.5ZM317.6 301.28L315.67 302.3L313.99 303.66L312.59 305.33L311.53 307.23L310.84 309.36L310.59 311.64L310.8 313.91L311.43 316.06L312.46 317.99L313.83 319.67L315.48 321.07L317.4 322.13L319.51 322.82L321.79 323.07L321.79 322.64L321.9 322.64L324.17 322.42L326.3 321.75L328.24 320.72L329.9 319.33L331.28 317.66L332.33 315.74L333 313.61L333.22 311.33L332.92 309.12L332.22 307.09L331.17 305.25L329.81 303.63L328.16 302.31L326.28 301.31L324.22 300.66L322.02 300.43L319.73 300.63L317.6 301.28ZM341.96 313.44L341.95 314.3L341.9 315.14L341.9 315.56L341.96 314.61L341.98 313.66L341.96 312.71L341.9 311.76L341.95 312.6L341.96 313.44ZM457.46 273.5L455.54 274.54L453.86 275.92L452.48 277.61L451.43 279.53L450.78 281.65L450.54 283.92L450.78 286.21L451.43 288.33L452.48 290.25L453.86 291.94L455.54 293.32L457.46 294.36L459.58 295.01L461.87 295.25L461.87 294.71L464.08 294.51L466.14 293.89L468.03 292.9L469.69 291.59L471.07 290L472.15 288.16L472.87 286.13L473.18 283.92L472.96 281.65L472.3 279.53L471.25 277.61L469.87 275.92L468.19 274.54L466.27 273.5L464.14 272.83L461.87 272.61L459.58 272.83L457.46 273.5ZM278.14 223.03L276.22 224.08L274.53 225.46L273.15 227.14L272.11 229.06L271.46 231.19L271.22 233.46L271.46 235.74L272.11 237.87L273.15 239.79L274.53 241.47L276.22 242.85L278.14 243.9L280.26 244.55L282.55 244.79L284.82 244.55L286.94 243.9L288.86 242.85L290.55 241.47L291.93 239.79L292.97 237.87L293.64 235.74L293.86 233.46L293.64 231.19L292.97 229.06L291.93 227.14L290.55 225.46L288.86 224.08L286.94 223.03L284.82 222.37L282.55 222.14L280.26 222.37L278.14 223.03Z" id="eOc4WNlIv"></path><path d="M153.15 180.14L157.07 240.23L174.1 239.08L168.93 160.78L91.26 172.63L91.26 172.63L93.6 189.56L153.15 180.14Z" id="bbqatq44r"></path><path d="M153.15 180.14L157.07 240.23L174.1 239.08L168.93 160.78L91.26 172.63L91.26 172.63L93.6 189.56L153.15 180.14Z" id="d6pEdieb5X"></path><path d="M95.56 270.34C104.89 231.06 124.48 194.98 152.31 165.76C153.76 167.12 165.36 178.14 166.8 179.5C87.98 263.62 92.26 395.72 176.37 474.54C244.7 538.57 347.31 549.27 427.37 500.69C428.43 502.41 436.89 516.02 437.96 517.74C402.14 539.8 360.91 551.51 318.83 551.59C300.62 551.57 282.47 549.41 264.78 545.13C142.15 515.98 66.4 392.94 95.56 270.34Z" id="aj2IGYDAz"></path><path d="M95.56 270.34C104.89 231.06 124.48 194.98 152.31 165.76C153.76 167.12 165.36 178.14 166.8 179.5C87.98 263.62 92.26 395.72 176.37 474.54C244.7 538.57 347.31 549.27 427.37 500.69C428.43 502.41 436.89 516.02 437.96 517.74C402.14 539.8 360.91 551.51 318.83 551.59C300.62 551.57 282.47 549.41 264.78 545.13C142.15 515.98 66.4 392.94 95.56 270.34Z" id="a8z2WHdxT"></path><path d="M492.43 457.21L483.34 397.66L466.52 400.31L478.37 477.84L554.75 459.55L554.75 459.55L550.94 442.93L492.43 457.21Z" id="b1gdijMQjn"></path><path d="M492.43 457.21L483.34 397.66L466.52 400.31L478.37 477.84L554.75 459.55L554.75 459.55L550.94 442.93L492.43 457.21Z" id="d2bkY4hNhX"></path><path d="M453.25 163.82C384.54 105.62 286.23 98.08 209.44 145.13C208.38 143.42 199.92 129.8 198.86 128.09C306.46 62.04 447.25 95.71 513.3 203.32C564.99 287.52 556.75 395.4 492.86 470.76C489.82 468.18 479.15 459.15 477.63 457.85C552.09 369.93 541.18 238.28 453.25 163.82Z" id="e3dOEw5ai"></path><path d="M453.25 163.82C384.54 105.62 286.23 98.08 209.44 145.13C208.38 143.42 199.92 129.8 198.86 128.09C306.46 62.04 447.25 95.71 513.3 203.32C564.99 287.52 556.75 395.4 492.86 470.76C489.82 468.18 479.15 459.15 477.63 457.85C552.09 369.93 541.18 238.28 453.25 163.82Z" id="a4SczKqUk"></path></defs><g><g><g><use xlink:href="#bKzGaiXQr" opacity="1" fill="#734198" fill-opacity="1"></use><g><use xlink:href="#bKzGaiXQr" opacity="1" fill-opacity="0" stroke="#000000" stroke-width="1" stroke-opacity="0"></use></g></g><g><use xlink:href="#j4NRO3yRb" opacity="1" fill="#000000" fill-opacity="0"></use><g><use xlink:href="#j4NRO3yRb" opacity="1" fill-opacity="0" stroke="#000000" stroke-width="1" stroke-opacity="0"></use></g></g><g><use xlink:href="#e1LnL3KjD0" opacity="1" fill="#ffffff" fill-opacity="1"></use><g><use xlink:href="#e1LnL3KjD0" opacity="1" fill-opacity="0" stroke="#000000" stroke-width="1" stroke-opacity="0"></use></g></g><g><use xlink:href="#eOc4WNlIv" opacity="1" fill="#000000" fill-opacity="0"></use><g><use xlink:href="#eOc4WNlIv" opacity="1" fill-opacity="0" stroke="#000000" stroke-width="1" stroke-opacity="0"></use></g></g><g><use xlink:href="#bbqatq44r" opacity="1" fill="#ffffff" fill-opacity="1"></use><g><use xlink:href="#bbqatq44r" opacity="1" fill-opacity="0" stroke="#000000" stroke-width="1" stroke-opacity="0"></use></g></g><g><use xlink:href="#d6pEdieb5X" opacity="1" fill="#000000" fill-opacity="0"></use><g><use xlink:href="#d6pEdieb5X" opacity="1" fill-opacity="0" stroke="#000000" stroke-width="1" stroke-opacity="0"></use></g></g><g><use xlink:href="#aj2IGYDAz" opacity="1" fill="#ffffff" fill-opacity="1"></use><g><use xlink:href="#aj2IGYDAz" opacity="1" fill-opacity="0" stroke="#000000" stroke-width="1" stroke-opacity="0"></use></g></g><g><use xlink:href="#a8z2WHdxT" opacity="1" fill="#000000" fill-opacity="0"></use><g><use xlink:href="#a8z2WHdxT" opacity="1" fill-opacity="0" stroke="#000000" stroke-width="1" stroke-opacity="0"></use></g></g><g><use xlink:href="#b1gdijMQjn" opacity="1" fill="#ffffff" fill-opacity="1"></use><g><use xlink:href="#b1gdijMQjn" opacity="1" fill-opacity="0" stroke="#000000" stroke-width="1" stroke-opacity="0"></use></g></g><g><use xlink:href="#d2bkY4hNhX" opacity="1" fill="#000000" fill-opacity="0"></use><g><use xlink:href="#d2bkY4hNhX" opacity="1" fill-opacity="0" stroke="#000000" stroke-width="1" stroke-opacity="0"></use></g></g><g><use xlink:href="#e3dOEw5ai" opacity="1" fill="#ffffff" fill-opacity="1"></use><g><use xlink:href="#e3dOEw5ai" opacity="1" fill-opacity="0" stroke="#000000" stroke-width="1" stroke-opacity="0"></use></g></g><g><use xlink:href="#a4SczKqUk" opacity="1" fill="#000000" fill-opacity="0"></use><g><use xlink:href="#a4SczKqUk" opacity="1" fill-opacity="0" stroke="#000000" stroke-width="1" stroke-opacity="0"></use></g></g></g></g></svg>