<?xml version="1.0" encoding="UTF-8" standalone="no"?>
<!DOCTYPE svg PUBLIC "-//W3C//DTD SVG 1.1//EN" "http://www.w3.org/Graphics/SVG/1.1/DTD/svg11.dtd">
<svg version="1.1" xmlns="http://www.w3.org/2000/svg" xmlns:xlink="http://www.w3.org/1999/xlink" preserveAspectRatio="xMidYMid meet" viewBox="0 0 640 640" width="640" height="640"><defs><path d="M6.01 320.71C6.01 494.56 146.95 635.49 320.8 635.49C494.65 635.49 635.59 494.56 635.59 320.71C635.59 146.86 494.65 5.92 320.8 5.92C146.95 5.92 6.01 146.86 6.01 320.71Z" id="c2DhptifkQ"></path><path d="M6.01 320.71C6.01 494.56 146.95 635.49 320.8 635.49C494.65 635.49 635.59 494.56 635.59 320.71C635.59 146.86 494.65 5.92 320.8 5.92C146.95 5.92 6.01 146.86 6.01 320.71Z" id="asmbT9O6b"></path><path d="M208.48 151.37C208.48 193.53 208.48 216.95 208.48 221.63C208.48 221.63 208.48 221.63 208.48 221.63C155.41 221.63 125.92 221.63 120.02 221.63C120.02 221.63 120.02 221.63 120.02 221.63C120.02 179.48 120.02 156.07 120.02 151.37C120.02 151.37 120.02 151.37 120.02 151.37C173.1 151.37 202.57 151.37 208.48 151.37C208.48 151.37 208.48 151.37 208.48 151.37Z" id="a5xjr7cJL"></path><path d="M208.48 151.37C208.48 193.53 208.48 216.95 208.48 221.63C208.48 221.63 208.48 221.63 208.48 221.63C155.41 221.63 125.92 221.63 120.02 221.63C120.02 221.63 120.02 221.63 120.02 221.63C120.02 179.48 120.02 156.07 120.02 151.37C120.02 151.37 120.02 151.37 120.02 151.37C173.1 151.37 202.57 151.37 208.48 151.37C208.48 151.37 208.48 151.37 208.48 151.37Z" id="e8zIGrVZ1"></path><path d="M195.12 163.47C195.12 191.12 195.12 206.46 195.12 209.53C195.12 209.53 195.12 209.53 195.12 209.53C158.13 209.53 137.59 209.53 133.49 209.53C133.49 209.53 133.49 209.53 133.49 209.53C133.49 181.9 133.49 166.54 133.49 163.47C133.49 163.47 133.49 163.47 133.49 163.47C170.46 163.47 191 163.47 195.12 163.47C195.12 163.47 195.12 163.47 195.12 163.47Z" id="a1VavupaLn"></path><path d="M195.12 163.47C195.12 191.12 195.12 206.46 195.12 209.53C195.12 209.53 195.12 209.53 195.12 209.53C158.13 209.53 137.59 209.53 133.49 209.53C133.49 209.53 133.49 209.53 133.49 209.53C133.49 181.9 133.49 166.54 133.49 163.47C133.49 163.47 133.49 163.47 133.49 163.47C170.46 163.47 191 163.47 195.12 163.47C195.12 163.47 195.12 163.47 195.12 163.47Z" id="anDyGKYP4"></path><path d="M418.41 151.28C418.41 193.42 418.41 216.84 418.41 221.54C418.41 221.54 418.41 221.54 418.41 221.54C365.33 221.54 335.84 221.54 329.95 221.54C329.95 221.54 329.95 221.54 329.95 221.54C329.95 179.38 329.95 155.96 329.95 151.28C329.95 151.28 329.95 151.28 329.95 151.28C383.02 151.28 412.5 151.28 418.41 151.28C418.41 151.28 418.41 151.28 418.41 151.28Z" id="d8l1LNN6U"></path><path d="M418.41 151.28C418.41 193.42 418.41 216.84 418.41 221.54C418.41 221.54 418.41 221.54 418.41 221.54C365.33 221.54 335.84 221.54 329.95 221.54C329.95 221.54 329.95 221.54 329.95 221.54C329.95 179.38 329.95 155.96 329.95 151.28C329.95 151.28 329.95 151.28 329.95 151.28C383.02 151.28 412.5 151.28 418.41 151.28C418.41 151.28 418.41 151.28 418.41 151.28Z" id="d9UNnjkj7"></path><path d="M405.04 163.27C405.04 190.9 405.04 206.26 405.04 209.33C405.04 209.33 405.04 209.33 405.04 209.33C368.06 209.33 347.52 209.33 343.41 209.33C343.41 209.33 343.41 209.33 343.41 209.33C343.41 181.69 343.41 166.34 343.41 163.27C343.41 163.27 343.41 163.27 343.41 163.27C380.39 163.27 400.93 163.27 405.04 163.27C405.04 163.27 405.04 163.27 405.04 163.27Z" id="i2jLyyLOZv"></path><path d="M405.04 163.27C405.04 190.9 405.04 206.26 405.04 209.33C405.04 209.33 405.04 209.33 405.04 209.33C368.06 209.33 347.52 209.33 343.41 209.33C343.41 209.33 343.41 209.33 343.41 209.33C343.41 181.69 343.41 166.34 343.41 163.27C343.41 163.27 343.41 163.27 343.41 163.27C380.39 163.27 400.93 163.27 405.04 163.27C405.04 163.27 405.04 163.27 405.04 163.27Z" id="bbtMYCMCwD"></path><path d="M520.63 151.28C520.63 193.42 520.63 216.84 520.63 221.54C520.63 221.54 520.63 221.54 520.63 221.54C467.56 221.54 438.07 221.54 432.18 221.54C432.18 221.54 432.18 221.54 432.18 221.54C432.18 179.38 432.18 155.96 432.18 151.28C432.18 151.28 432.18 151.28 432.18 151.28C485.25 151.28 514.73 151.28 520.63 151.28C520.63 151.28 520.63 151.28 520.63 151.28Z" id="g5w6Lof5T"></path><path d="M520.63 151.28C520.63 193.42 520.63 216.84 520.63 221.54C520.63 221.54 520.63 221.54 520.63 221.54C467.56 221.54 438.07 221.54 432.18 221.54C432.18 221.54 432.18 221.54 432.18 221.54C432.18 179.38 432.18 155.96 432.18 151.28C432.18 151.28 432.18 151.28 432.18 151.28C485.25 151.28 514.73 151.28 520.63 151.28C520.63 151.28 520.63 151.28 520.63 151.28Z" id="a3Sp7TXlY"></path><path d="M507.27 163.27C507.27 190.9 507.27 206.26 507.27 209.33C507.27 209.33 507.27 209.33 507.27 209.33C470.29 209.33 449.75 209.33 445.64 209.33C445.64 209.33 445.64 209.33 445.64 209.33C445.64 181.69 445.64 166.34 445.64 163.27C445.64 163.27 445.64 163.27 445.64 163.27C482.62 163.27 503.16 163.27 507.27 163.27C507.27 163.27 507.27 163.27 507.27 163.27Z" id="c4hQ879P4"></path><path d="M507.27 163.27C507.27 190.9 507.27 206.26 507.27 209.33C507.27 209.33 507.27 209.33 507.27 209.33C470.29 209.33 449.75 209.33 445.64 209.33C445.64 209.33 445.64 209.33 445.64 209.33C445.64 181.69 445.64 166.34 445.64 163.27C445.64 163.27 445.64 163.27 445.64 163.27C482.62 163.27 503.16 163.27 507.27 163.27C507.27 163.27 507.27 163.27 507.27 163.27Z" id="cwg4sj3dg"></path><path d="M520.63 242.77C520.63 284.93 520.63 308.35 520.63 313.03C520.63 313.03 520.63 313.03 520.63 313.03C467.56 313.03 438.07 313.03 432.18 313.03C432.18 313.03 432.18 313.03 432.18 313.03C432.18 270.87 432.18 247.45 432.18 242.77C432.18 242.77 432.18 242.77 432.18 242.77C485.25 242.77 514.73 242.77 520.63 242.77C520.63 242.77 520.63 242.77 520.63 242.77Z" id="d23ITB7aT"></path><path d="M520.63 242.77C520.63 284.93 520.63 308.35 520.63 313.03C520.63 313.03 520.63 313.03 520.63 313.03C467.56 313.03 438.07 313.03 432.18 313.03C432.18 313.03 432.18 313.03 432.18 313.03C432.18 270.87 432.18 247.45 432.18 242.77C432.18 242.77 432.18 242.77 432.18 242.77C485.25 242.77 514.73 242.77 520.63 242.77C520.63 242.77 520.63 242.77 520.63 242.77Z" id="dYJ6VOpTI"></path><path d="M507.27 254.87C507.27 282.51 507.27 297.86 507.27 300.93C507.27 300.93 507.27 300.93 507.27 300.93C470.29 300.93 449.75 300.93 445.64 300.93C445.64 300.93 445.64 300.93 445.64 300.93C445.64 273.3 445.64 257.94 445.64 254.87C445.64 254.87 445.64 254.87 445.64 254.87C482.62 254.87 503.16 254.87 507.27 254.87C507.27 254.87 507.27 254.87 507.27 254.87Z" id="g1kH5QCHT9"></path><path d="M507.27 254.87C507.27 282.51 507.27 297.86 507.27 300.93C507.27 300.93 507.27 300.93 507.27 300.93C470.29 300.93 449.75 300.93 445.64 300.93C445.64 300.93 445.64 300.93 445.64 300.93C445.64 273.3 445.64 257.94 445.64 254.87C445.64 254.87 445.64 254.87 445.64 254.87C482.62 254.87 503.16 254.87 507.27 254.87C507.27 254.87 507.27 254.87 507.27 254.87Z" id="i1rGsJKYbH"></path><path d="M415.77 330.38C415.77 372.54 415.77 395.96 415.77 400.64C415.77 400.64 415.77 400.64 415.77 400.64C362.7 400.64 333.21 400.64 327.32 400.64C327.32 400.64 327.32 400.64 327.32 400.64C327.32 358.49 327.32 335.07 327.32 330.38C327.32 330.38 327.32 330.38 327.32 330.38C380.39 330.38 409.88 330.38 415.77 330.38C415.77 330.38 415.77 330.38 415.77 330.38Z" id="bvCfZPi3h"></path><path d="M415.77 330.38C415.77 372.54 415.77 395.96 415.77 400.64C415.77 400.64 415.77 400.64 415.77 400.64C362.7 400.64 333.21 400.64 327.32 400.64C327.32 400.64 327.32 400.64 327.32 400.64C327.32 358.49 327.32 335.07 327.32 330.38C327.32 330.38 327.32 330.38 327.32 330.38C380.39 330.38 409.88 330.38 415.77 330.38C415.77 330.38 415.77 330.38 415.77 330.38Z" id="a6nFLmwiM"></path><path d="M402.42 342.48C402.42 370.11 402.42 385.47 402.42 388.54C402.42 388.54 402.42 388.54 402.42 388.54C365.43 388.54 344.89 388.54 340.78 388.54C340.78 388.54 340.78 388.54 340.78 388.54C340.78 360.91 340.78 345.55 340.78 342.48C340.78 342.48 340.78 342.48 340.78 342.48C377.76 342.48 398.3 342.48 402.42 342.48C402.42 342.48 402.42 342.48 402.42 342.48Z" id="a240QUtU40"></path><path d="M402.42 342.48C402.42 370.11 402.42 385.47 402.42 388.54C402.42 388.54 402.42 388.54 402.42 388.54C365.43 388.54 344.89 388.54 340.78 388.54C340.78 388.54 340.78 388.54 340.78 388.54C340.78 360.91 340.78 345.55 340.78 342.48C340.78 342.48 340.78 342.48 340.78 342.48C377.76 342.48 398.3 342.48 402.42 342.48C402.42 342.48 402.42 342.48 402.42 342.48Z" id="nQOmXyzDY"></path><path d="M313.65 242.77C313.65 284.93 313.65 308.35 313.65 313.03C313.65 313.03 313.65 313.03 313.65 313.03C260.58 313.03 231.09 313.03 225.2 313.03C225.2 313.03 225.2 313.03 225.2 313.03C225.2 270.87 225.2 247.45 225.2 242.77C225.2 242.77 225.2 242.77 225.2 242.77C278.27 242.77 307.75 242.77 313.65 242.77C313.65 242.77 313.65 242.77 313.65 242.77Z" id="cJD1wwyxn"></path><path d="M313.65 242.77C313.65 284.93 313.65 308.35 313.65 313.03C313.65 313.03 313.65 313.03 313.65 313.03C260.58 313.03 231.09 313.03 225.2 313.03C225.2 313.03 225.2 313.03 225.2 313.03C225.2 270.87 225.2 247.45 225.2 242.77C225.2 242.77 225.2 242.77 225.2 242.77C278.27 242.77 307.75 242.77 313.65 242.77C313.65 242.77 313.65 242.77 313.65 242.77Z" id="eF69Uc4Av"></path><path d="M300.19 254.87C300.19 282.51 300.19 297.86 300.19 300.93C300.19 300.93 300.19 300.93 300.19 300.93C263.21 300.93 242.66 300.93 238.55 300.93C238.55 300.93 238.55 300.93 238.55 300.93C238.55 273.3 238.55 257.94 238.55 254.87C238.55 254.87 238.55 254.87 238.55 254.87C275.53 254.87 296.07 254.87 300.19 254.87C300.19 254.87 300.19 254.87 300.19 254.87Z" id="a10WBXAqzC"></path><path d="M300.19 254.87C300.19 282.51 300.19 297.86 300.19 300.93C300.19 300.93 300.19 300.93 300.19 300.93C263.21 300.93 242.66 300.93 238.55 300.93C238.55 300.93 238.55 300.93 238.55 300.93C238.55 273.3 238.55 257.94 238.55 254.87C238.55 254.87 238.55 254.87 238.55 254.87C275.53 254.87 296.07 254.87 300.19 254.87C300.19 254.87 300.19 254.87 300.19 254.87Z" id="aAfhczV1w"></path><path d="M209.42 330.38C209.42 372.54 209.42 395.96 209.42 400.64C209.42 400.64 209.42 400.64 209.42 400.64C156.35 400.64 126.87 400.64 120.97 400.64C120.97 400.64 120.97 400.64 120.97 400.64C120.97 358.49 120.97 335.07 120.97 330.38C120.97 330.38 120.97 330.38 120.97 330.38C174.04 330.38 203.53 330.38 209.42 330.38C209.42 330.38 209.42 330.38 209.42 330.38Z" id="hGPt0degO"></path><path d="M209.42 330.38C209.42 372.54 209.42 395.96 209.42 400.64C209.42 400.64 209.42 400.64 209.42 400.64C156.35 400.64 126.87 400.64 120.97 400.64C120.97 400.64 120.97 400.64 120.97 400.64C120.97 358.49 120.97 335.07 120.97 330.38C120.97 330.38 120.97 330.38 120.97 330.38C174.04 330.38 203.53 330.38 209.42 330.38C209.42 330.38 209.42 330.38 209.42 330.38Z" id="a6lIgbnil"></path><path d="M196.07 342.48C196.07 370.11 196.07 385.47 196.07 388.54C196.07 388.54 196.07 388.54 196.07 388.54C159.09 388.54 138.55 388.54 134.43 388.54C134.43 388.54 134.43 388.54 134.43 388.54C134.43 360.91 134.43 345.55 134.43 342.48C134.43 342.48 134.43 342.48 134.43 342.48C171.42 342.48 191.96 342.48 196.07 342.48C196.07 342.48 196.07 342.48 196.07 342.48Z" id="amn4rR2IW"></path><path d="M196.07 342.48C196.07 370.11 196.07 385.47 196.07 388.54C196.07 388.54 196.07 388.54 196.07 388.54C159.09 388.54 138.55 388.54 134.43 388.54C134.43 388.54 134.43 388.54 134.43 388.54C134.43 360.91 134.43 345.55 134.43 342.48C134.43 342.48 134.43 342.48 134.43 342.48C171.42 342.48 191.96 342.48 196.07 342.48C196.07 342.48 196.07 342.48 196.07 342.48Z" id="h1QTTaMErh"></path><path d="M311.96 328.08C311.96 370.22 311.96 393.64 311.96 398.32C311.96 398.32 311.96 398.32 311.96 398.32C258.89 398.32 229.41 398.32 223.51 398.32C223.51 398.32 223.51 398.32 223.51 398.32C223.51 356.17 223.51 332.75 223.51 328.08C223.51 328.08 223.51 328.08 223.51 328.08C276.58 328.08 306.07 328.08 311.96 328.08C311.96 328.08 311.96 328.08 311.96 328.08Z" id="cnh8wemdv"></path><path d="M311.96 328.08C311.96 370.22 311.96 393.64 311.96 398.32C311.96 398.32 311.96 398.32 311.96 398.32C258.89 398.32 229.41 398.32 223.51 398.32C223.51 398.32 223.51 398.32 223.51 398.32C223.51 356.17 223.51 332.75 223.51 328.08C223.51 328.08 223.51 328.08 223.51 328.08C276.58 328.08 306.07 328.08 311.96 328.08C311.96 328.08 311.96 328.08 311.96 328.08Z" id="b487uQGLow"></path><path d="M298.61 340.16C298.61 367.81 298.61 383.17 298.61 386.23C298.61 386.23 298.61 386.23 298.61 386.23C261.63 386.23 241.09 386.23 236.97 386.23C236.97 386.23 236.97 386.23 236.97 386.23C236.97 358.59 236.97 343.24 236.97 340.16C236.97 340.16 236.97 340.16 236.97 340.16C273.96 340.16 294.5 340.16 298.61 340.16C298.61 340.16 298.61 340.16 298.61 340.16Z" id="eOBvp3fD"></path><path d="M298.61 340.16C298.61 367.81 298.61 383.17 298.61 386.23C298.61 386.23 298.61 386.23 298.61 386.23C261.63 386.23 241.09 386.23 236.97 386.23C236.97 386.23 236.97 386.23 236.97 386.23C236.97 358.59 236.97 343.24 236.97 340.16C236.97 340.16 236.97 340.16 236.97 340.16C273.96 340.16 294.5 340.16 298.61 340.16C298.61 340.16 298.61 340.16 298.61 340.16Z" id="feCjo4ZI"></path><path d="M208.05 416.62C208.05 458.78 208.05 482.2 208.05 486.88C208.05 486.88 208.05 486.88 208.05 486.88C154.98 486.88 125.49 486.88 119.6 486.88C119.6 486.88 119.6 486.88 119.6 486.88C119.6 444.72 119.6 421.32 119.6 416.62C119.6 416.62 119.6 416.62 119.6 416.62C172.67 416.62 202.16 416.62 208.05 416.62C208.05 416.62 208.05 416.62 208.05 416.62Z" id="ia4XJemsa"></path><path d="M208.05 416.62C208.05 458.78 208.05 482.2 208.05 486.88C208.05 486.88 208.05 486.88 208.05 486.88C154.98 486.88 125.49 486.88 119.6 486.88C119.6 486.88 119.6 486.88 119.6 486.88C119.6 444.72 119.6 421.32 119.6 416.62C119.6 416.62 119.6 416.62 119.6 416.62C172.67 416.62 202.16 416.62 208.05 416.62C208.05 416.62 208.05 416.62 208.05 416.62Z" id="a4iM2JYnTv"></path><path d="M194.7 428.72C194.7 456.36 194.7 471.71 194.7 474.78C194.7 474.78 194.7 474.78 194.7 474.78C157.72 474.78 137.17 474.78 133.06 474.78C133.06 474.78 133.06 474.78 133.06 474.78C133.06 447.15 133.06 431.79 133.06 428.72C133.06 428.72 133.06 428.72 133.06 428.72C170.04 428.72 190.58 428.72 194.7 428.72C194.7 428.72 194.7 428.72 194.7 428.72Z" id="atsBiBvIr"></path><path d="M194.7 428.72C194.7 456.36 194.7 471.71 194.7 474.78C194.7 474.78 194.7 474.78 194.7 474.78C157.72 474.78 137.17 474.78 133.06 474.78C133.06 474.78 133.06 474.78 133.06 474.78C133.06 447.15 133.06 431.79 133.06 428.72C133.06 428.72 133.06 428.72 133.06 428.72C170.04 428.72 190.58 428.72 194.7 428.72C194.7 428.72 194.7 428.72 194.7 428.72Z" id="axorQAnqF"></path><path d="M311.65 419.99C311.65 462.14 311.65 485.56 311.65 490.25C311.65 490.25 311.65 490.25 311.65 490.25C258.58 490.25 229.1 490.25 223.19 490.25C223.19 490.25 223.19 490.25 223.19 490.25C223.19 448.09 223.19 424.67 223.19 419.99C223.19 419.99 223.19 419.99 223.19 419.99C276.27 419.99 305.76 419.99 311.65 419.99C311.65 419.99 311.65 419.99 311.65 419.99Z" id="a3Fyd0qCx"></path><path d="M311.65 419.99C311.65 462.14 311.65 485.56 311.65 490.25C311.65 490.25 311.65 490.25 311.65 490.25C258.58 490.25 229.1 490.25 223.19 490.25C223.19 490.25 223.19 490.25 223.19 490.25C223.19 448.09 223.19 424.67 223.19 419.99C223.19 419.99 223.19 419.99 223.19 419.99C276.27 419.99 305.76 419.99 311.65 419.99C311.65 419.99 311.65 419.99 311.65 419.99Z" id="hnJ6oHLyG"></path><path d="M298.19 432.09C298.19 459.73 298.19 475.08 298.19 478.15C298.19 478.15 298.19 478.15 298.19 478.15C261.21 478.15 240.67 478.15 236.56 478.15C236.56 478.15 236.56 478.15 236.56 478.15C236.56 450.52 236.56 435.16 236.56 432.09C236.56 432.09 236.56 432.09 236.56 432.09C273.54 432.09 294.08 432.09 298.19 432.09C298.19 432.09 298.19 432.09 298.19 432.09Z" id="b1IzuJMPem"></path><path d="M298.19 432.09C298.19 459.73 298.19 475.08 298.19 478.15C298.19 478.15 298.19 478.15 298.19 478.15C261.21 478.15 240.67 478.15 236.56 478.15C236.56 478.15 236.56 478.15 236.56 478.15C236.56 450.52 236.56 435.16 236.56 432.09C236.56 432.09 236.56 432.09 236.56 432.09C273.54 432.09 294.08 432.09 298.19 432.09C298.19 432.09 298.19 432.09 298.19 432.09Z" id="c8KcNEYOvh"></path><path d="M522 417.99C522 460.15 522 483.57 522 488.25C522 488.25 522 488.25 522 488.25C468.93 488.25 439.44 488.25 433.55 488.25C433.55 488.25 433.55 488.25 433.55 488.25C433.55 446.1 433.55 422.68 433.55 417.99C433.55 417.99 433.55 417.99 433.55 417.99C486.62 417.99 516.11 417.99 522 417.99C522 417.99 522 417.99 522 417.99Z" id="a4kVmB7CZU"></path><path d="M522 417.99C522 460.15 522 483.57 522 488.25C522 488.25 522 488.25 522 488.25C468.93 488.25 439.44 488.25 433.55 488.25C433.55 488.25 433.55 488.25 433.55 488.25C433.55 446.1 433.55 422.68 433.55 417.99C433.55 417.99 433.55 417.99 433.55 417.99C486.62 417.99 516.11 417.99 522 417.99C522 417.99 522 417.99 522 417.99Z" id="aacd1BQlA"></path><path d="M508.54 430.09C508.54 457.73 508.54 473.08 508.54 476.15C508.54 476.15 508.54 476.15 508.54 476.15C471.56 476.15 451.02 476.15 446.9 476.15C446.9 476.15 446.9 476.15 446.9 476.15C446.9 448.51 446.9 433.16 446.9 430.09C446.9 430.09 446.9 430.09 446.9 430.09C483.88 430.09 504.43 430.09 508.54 430.09C508.54 430.09 508.54 430.09 508.54 430.09Z" id="b1GemnHR"></path><path d="M508.54 430.09C508.54 457.73 508.54 473.08 508.54 476.15C508.54 476.15 508.54 476.15 508.54 476.15C471.56 476.15 451.02 476.15 446.9 476.15C446.9 476.15 446.9 476.15 446.9 476.15C446.9 448.51 446.9 433.16 446.9 430.09C446.9 430.09 446.9 430.09 446.9 430.09C483.88 430.09 504.43 430.09 508.54 430.09C508.54 430.09 508.54 430.09 508.54 430.09Z" id="a6Evm932x"></path></defs><g><g><g><use xlink:href="#c2DhptifkQ" opacity="1" fill="#325c80" fill-opacity="1"></use><g><use xlink:href="#c2DhptifkQ" opacity="1" fill-opacity="0" stroke="#000000" stroke-width="1" stroke-opacity="0"></use></g></g><g><use xlink:href="#asmbT9O6b" opacity="1" fill="#000000" fill-opacity="0"></use><g><use xlink:href="#asmbT9O6b" opacity="1" fill-opacity="0" stroke="#000000" stroke-width="1" stroke-opacity="0"></use></g></g><g><use xlink:href="#a5xjr7cJL" opacity="1" fill="#ffffff" fill-opacity="1"></use><g><use xlink:href="#a5xjr7cJL" opacity="1" fill-opacity="0" stroke="#000000" stroke-width="1" stroke-opacity="0"></use></g></g><g><use xlink:href="#e8zIGrVZ1" opacity="1" fill="#000000" fill-opacity="0"></use><g><use xlink:href="#e8zIGrVZ1" opacity="1" fill-opacity="0" stroke="#000000" stroke-width="1" stroke-opacity="0"></use></g></g><g><use xlink:href="#a1VavupaLn" opacity="1" fill="#ffffff" fill-opacity="1"></use><g><use xlink:href="#a1VavupaLn" opacity="1" fill-opacity="0" stroke="#000000" stroke-width="1" stroke-opacity="0"></use></g></g><g><use xlink:href="#anDyGKYP4" opacity="1" fill="#000000" fill-opacity="0"></use><g><use xlink:href="#anDyGKYP4" opacity="1" fill-opacity="0" stroke="#000000" stroke-width="1" stroke-opacity="0"></use></g></g><g><use xlink:href="#d8l1LNN6U" opacity="1" fill="#ffffff" fill-opacity="1"></use><g><use xlink:href="#d8l1LNN6U" opacity="1" fill-opacity="0" stroke="#000000" stroke-width="1" stroke-opacity="0"></use></g></g><g><use xlink:href="#d9UNnjkj7" opacity="1" fill="#000000" fill-opacity="0"></use><g><use xlink:href="#d9UNnjkj7" opacity="1" fill-opacity="0" stroke="#000000" stroke-width="1" stroke-opacity="0"></use></g></g><g><use xlink:href="#i2jLyyLOZv" opacity="1" fill="#ffffff" fill-opacity="1"></use><g><use xlink:href="#i2jLyyLOZv" opacity="1" fill-opacity="0" stroke="#000000" stroke-width="1" stroke-opacity="0"></use></g></g><g><use xlink:href="#bbtMYCMCwD" opacity="1" fill="#000000" fill-opacity="0"></use><g><use xlink:href="#bbtMYCMCwD" opacity="1" fill-opacity="0" stroke="#000000" stroke-width="1" stroke-opacity="0"></use></g></g><g><use xlink:href="#g5w6Lof5T" opacity="1" fill="#ffffff" fill-opacity="1"></use><g><use xlink:href="#g5w6Lof5T" opacity="1" fill-opacity="0" stroke="#000000" stroke-width="1" stroke-opacity="0"></use></g></g><g><use xlink:href="#a3Sp7TXlY" opacity="1" fill="#000000" fill-opacity="0"></use><g><use xlink:href="#a3Sp7TXlY" opacity="1" fill-opacity="0" stroke="#000000" stroke-width="1" stroke-opacity="0"></use></g></g><g><use xlink:href="#c4hQ879P4" opacity="1" fill="#ffffff" fill-opacity="1"></use><g><use xlink:href="#c4hQ879P4" opacity="1" fill-opacity="0" stroke="#000000" stroke-width="1" stroke-opacity="0"></use></g></g><g><use xlink:href="#cwg4sj3dg" opacity="1" fill="#000000" fill-opacity="0"></use><g><use xlink:href="#cwg4sj3dg" opacity="1" fill-opacity="0" stroke="#000000" stroke-width="1" stroke-opacity="0"></use></g></g><g><use xlink:href="#d23ITB7aT" opacity="1" fill="#ffffff" fill-opacity="1"></use><g><use xlink:href="#d23ITB7aT" opacity="1" fill-opacity="0" stroke="#000000" stroke-width="1" stroke-opacity="0"></use></g></g><g><use xlink:href="#dYJ6VOpTI" opacity="1" fill="#000000" fill-opacity="0"></use><g><use xlink:href="#dYJ6VOpTI" opacity="1" fill-opacity="0" stroke="#000000" stroke-width="1" stroke-opacity="0"></use></g></g><g><use xlink:href="#g1kH5QCHT9" opacity="1" fill="#ffffff" fill-opacity="1"></use><g><use xlink:href="#g1kH5QCHT9" opacity="1" fill-opacity="0" stroke="#000000" stroke-width="1" stroke-opacity="0"></use></g></g><g><use xlink:href="#i1rGsJKYbH" opacity="1" fill="#000000" fill-opacity="0"></use><g><use xlink:href="#i1rGsJKYbH" opacity="1" fill-opacity="0" stroke="#000000" stroke-width="1" stroke-opacity="0"></use></g></g><g><use xlink:href="#bvCfZPi3h" opacity="1" fill="#ffffff" fill-opacity="1"></use><g><use xlink:href="#bvCfZPi3h" opacity="1" fill-opacity="0" stroke="#000000" stroke-width="1" stroke-opacity="0"></use></g></g><g><use xlink:href="#a6nFLmwiM" opacity="1" fill="#000000" fill-opacity="0"></use><g><use xlink:href="#a6nFLmwiM" opacity="1" fill-opacity="0" stroke="#000000" stroke-width="1" stroke-opacity="0"></use></g></g><g><use xlink:href="#a240QUtU40" opacity="1" fill="#ffffff" fill-opacity="1"></use><g><use xlink:href="#a240QUtU40" opacity="1" fill-opacity="0" stroke="#000000" stroke-width="1" stroke-opacity="0"></use></g></g><g><use xlink:href="#nQOmXyzDY" opacity="1" fill="#000000" fill-opacity="0"></use><g><use xlink:href="#nQOmXyzDY" opacity="1" fill-opacity="0" stroke="#000000" stroke-width="1" stroke-opacity="0"></use></g></g><g><use xlink:href="#cJD1wwyxn" opacity="1" fill="#ffffff" fill-opacity="1"></use><g><use xlink:href="#cJD1wwyxn" opacity="1" fill-opacity="0" stroke="#000000" stroke-width="1" stroke-opacity="0"></use></g></g><g><use xlink:href="#eF69Uc4Av" opacity="1" fill="#000000" fill-opacity="0"></use><g><use xlink:href="#eF69Uc4Av" opacity="1" fill-opacity="0" stroke="#000000" stroke-width="1" stroke-opacity="0"></use></g></g><g><use xlink:href="#a10WBXAqzC" opacity="1" fill="#ffffff" fill-opacity="1"></use><g><use xlink:href="#a10WBXAqzC" opacity="1" fill-opacity="0" stroke="#000000" stroke-width="1" stroke-opacity="0"></use></g></g><g><use xlink:href="#aAfhczV1w" opacity="1" fill="#000000" fill-opacity="0"></use><g><use xlink:href="#aAfhczV1w" opacity="1" fill-opacity="0" stroke="#000000" stroke-width="1" stroke-opacity="0"></use></g></g><g><use xlink:href="#hGPt0degO" opacity="1" fill="#ffffff" fill-opacity="1"></use><g><use xlink:href="#hGPt0degO" opacity="1" fill-opacity="0" stroke="#000000" stroke-width="1" stroke-opacity="0"></use></g></g><g><use xlink:href="#a6lIgbnil" opacity="1" fill="#000000" fill-opacity="0"></use><g><use xlink:href="#a6lIgbnil" opacity="1" fill-opacity="0" stroke="#000000" stroke-width="1" stroke-opacity="0"></use></g></g><g><use xlink:href="#amn4rR2IW" opacity="1" fill="#ffffff" fill-opacity="1"></use><g><use xlink:href="#amn4rR2IW" opacity="1" fill-opacity="0" stroke="#000000" stroke-width="1" stroke-opacity="0"></use></g></g><g><use xlink:href="#h1QTTaMErh" opacity="1" fill="#000000" fill-opacity="0"></use><g><use xlink:href="#h1QTTaMErh" opacity="1" fill-opacity="0" stroke="#000000" stroke-width="1" stroke-opacity="0"></use></g></g><g><use xlink:href="#cnh8wemdv" opacity="1" fill="#ffffff" fill-opacity="1"></use><g><use xlink:href="#cnh8wemdv" opacity="1" fill-opacity="0" stroke="#000000" stroke-width="1" stroke-opacity="0"></use></g></g><g><use xlink:href="#b487uQGLow" opacity="1" fill="#000000" fill-opacity="0"></use><g><use xlink:href="#b487uQGLow" opacity="1" fill-opacity="0" stroke="#000000" stroke-width="1" stroke-opacity="0"></use></g></g><g><use xlink:href="#eOBvp3fD" opacity="1" fill="#ffffff" fill-opacity="1"></use><g><use xlink:href="#eOBvp3fD" opacity="1" fill-opacity="0" stroke="#000000" stroke-width="1" stroke-opacity="0"></use></g></g><g><use xlink:href="#feCjo4ZI" opacity="1" fill="#000000" fill-opacity="0"></use><g><use xlink:href="#feCjo4ZI" opacity="1" fill-opacity="0" stroke="#000000" stroke-width="1" stroke-opacity="0"></use></g></g><g><use xlink:href="#ia4XJemsa" opacity="1" fill="#ffffff" fill-opacity="1"></use><g><use xlink:href="#ia4XJemsa" opacity="1" fill-opacity="0" stroke="#000000" stroke-width="1" stroke-opacity="0"></use></g></g><g><use xlink:href="#a4iM2JYnTv" opacity="1" fill="#000000" fill-opacity="0"></use><g><use xlink:href="#a4iM2JYnTv" opacity="1" fill-opacity="0" stroke="#000000" stroke-width="1" stroke-opacity="0"></use></g></g><g><use xlink:href="#atsBiBvIr" opacity="1" fill="#ffffff" fill-opacity="1"></use><g><use xlink:href="#atsBiBvIr" opacity="1" fill-opacity="0" stroke="#000000" stroke-width="1" stroke-opacity="0"></use></g></g><g><use xlink:href="#axorQAnqF" opacity="1" fill="#000000" fill-opacity="0"></use><g><use xlink:href="#axorQAnqF" opacity="1" fill-opacity="0" stroke="#000000" stroke-width="1" stroke-opacity="0"></use></g></g><g><use xlink:href="#a3Fyd0qCx" opacity="1" fill="#ffffff" fill-opacity="1"></use><g><use xlink:href="#a3Fyd0qCx" opacity="1" fill-opacity="0" stroke="#000000" stroke-width="1" stroke-opacity="0"></use></g></g><g><use xlink:href="#hnJ6oHLyG" opacity="1" fill="#000000" fill-opacity="0"></use><g><use xlink:href="#hnJ6oHLyG" opacity="1" fill-opacity="0" stroke="#000000" stroke-width="1" stroke-opacity="0"></use></g></g><g><use xlink:href="#b1IzuJMPem" opacity="1" fill="#ffffff" fill-opacity="1"></use><g><use xlink:href="#b1IzuJMPem" opacity="1" fill-opacity="0" stroke="#000000" stroke-width="1" stroke-opacity="0"></use></g></g><g><use xlink:href="#c8KcNEYOvh" opacity="1" fill="#000000" fill-opacity="0"></use><g><use xlink:href="#c8KcNEYOvh" opacity="1" fill-opacity="0" stroke="#000000" stroke-width="1" stroke-opacity="0"></use></g></g><g><use xlink:href="#a4kVmB7CZU" opacity="1" fill="#ffffff" fill-opacity="1"></use><g><use xlink:href="#a4kVmB7CZU" opacity="1" fill-opacity="0" stroke="#000000" stroke-width="1" stroke-opacity="0"></use></g></g><g><use xlink:href="#aacd1BQlA" opacity="1" fill="#000000" fill-opacity="0"></use><g><use xlink:href="#aacd1BQlA" opacity="1" fill-opacity="0" stroke="#000000" stroke-width="1" stroke-opacity="0"></use></g></g><g><use xlink:href="#b1GemnHR" opacity="1" fill="#ffffff" fill-opacity="1"></use><g><use xlink:href="#b1GemnHR" opacity="1" fill-opacity="0" stroke="#000000" stroke-width="1" stroke-opacity="0"></use></g></g><g><use xlink:href="#a6Evm932x" opacity="1" fill="#000000" fill-opacity="0"></use><g><use xlink:href="#a6Evm932x" opacity="1" fill-opacity="0" stroke="#000000" stroke-width="1" stroke-opacity="0"></use></g></g></g></g></svg>