<?xml version="1.0" encoding="UTF-8" standalone="no"?>
<!DOCTYPE svg PUBLIC "-//W3C//DTD SVG 1.1//EN" "http://www.w3.org/Graphics/SVG/1.1/DTD/svg11.dtd">
<svg version="1.1" xmlns="http://www.w3.org/2000/svg" xmlns:xlink="http://www.w3.org/1999/xlink" preserveAspectRatio="xMidYMid meet" viewBox="0 0 640 640" width="640" height="640"><defs><path d="M498.84 265.15L499.28 265.5L499.73 265.85L500.17 266.18L500.6 266.54L501.47 267.24L501.91 267.61L502.74 268.34L503.58 269.1L504 269.47L504.4 269.85L504.8 270.25L505.2 270.64L506 271.44L506.77 272.24L507.53 273.07L507.9 273.48L508.26 273.91L509 274.75L509.36 275.18L510.41 276.49L510.75 276.94L511.09 277.38L511.43 277.83L511.77 278.28L512.08 278.74L512.41 279.19L513.66 281.07L513.96 281.54L537.63 279.94L546.37 311.67L523.63 323.85L523.61 324.11L523.59 324.35L523.56 324.6L523.54 324.86L523.5 325.1L523.49 325.34L523.45 325.61L523.43 325.85L523.37 326.34L523.33 326.6L523.31 326.84L523.28 327.09L523.24 327.35L523.14 328.08L523.09 328.34L522.98 329.07L522.93 329.32L522.89 329.58L522.84 329.82L522.81 330.06L522.76 330.31L522.72 330.55L522.67 330.8L522.62 331.06L522.56 331.3L522.53 331.55L522.22 333.01L522.15 333.25L521.83 334.72L521.78 334.94L521.68 335.43L521.62 335.66L521.52 336.14L521.45 336.39L521.4 336.61L521.34 336.86L521.27 337.1L521.22 337.33L521.15 337.57L521.1 337.8L520.96 338.29L520.91 338.51L520.84 338.76L520.77 338.98L520.7 339.23L520.63 339.45L520.56 339.7L520.49 339.92L520.42 340.17L520.35 340.39L520.28 340.64L520.21 340.86L520.13 341.09L520.06 341.33L519.99 341.56L519.9 341.8L519.83 342.03L519.74 342.26L519.67 342.5L519.5 342.95L519.43 343.18L533.52 365.94L510.77 388.69L490.86 374.91L490.39 375.18L489.91 375.42L489.42 375.68L488.93 375.91L488.43 376.15L487.45 376.6L486.95 376.83L485.93 377.25L485.45 377.46L484.94 377.67L484.42 377.86L483.41 378.24L482.89 378.42L482.38 378.61L481.86 378.76L481.35 378.94L479.26 379.56L478.74 379.7L478.2 379.84L477.68 379.97L477.16 380.1L476.62 380.23L476.09 380.33L475.55 380.45L475.01 380.56L474.49 380.66L473.95 380.75L473.41 380.85L472.87 380.94L472.33 381.01L471.79 381.1L470.71 381.24L470.17 381.29L459.7 402.68L429.68 394.37L430.36 369.92L429.9 369.58L429.47 369.24L429.01 368.89L428.14 368.19L427.73 367.83L427.29 367.46L426.87 367.09L426.44 366.73L426.02 366.36L425.62 365.98L425.2 365.6L424.8 365.21L424.38 364.83L423.2 363.65L422.81 363.24L422.43 362.83L422.05 362.43L421.66 362.01L421.3 361.59L420.92 361.17L420.55 360.75L420.18 360.32L419.84 359.9L419.47 359.47L419.12 359.03L418.77 358.58L418.44 358.14L418.09 357.69L417.76 357.24L417.43 356.8L417.1 356.33L416.79 355.88L416.46 355.41L416.14 354.95L415.83 354.48L415.24 353.54L390.89 355.58L382.13 323.85L404.87 311.67L404.91 311.43L404.93 311.18L404.94 310.92L404.98 310.68L405 310.44L405.03 310.17L405.05 309.93L405.08 309.69L405.12 309.42L405.14 309.18L405.21 308.69L405.24 308.43L405.34 307.7L405.38 307.44L405.45 306.95L405.5 306.71L405.54 306.45L405.57 306.2L405.62 305.96L405.66 305.71L405.71 305.47L405.74 305.23L405.8 304.97L405.85 304.72L405.88 304.48L406.15 303.26L406.2 303L406.41 302.02L406.48 301.78L406.53 301.53L406.6 301.31L406.67 301.06L406.72 300.82L406.86 300.33L406.93 300.11L407.14 299.38L407.21 299.15L407.35 298.66L407.43 298.43L407.57 297.95L407.66 297.72L407.73 297.48L407.82 297.23L407.89 297.01L407.97 296.76L408.04 296.54L408.13 296.29L408.22 296.07L408.31 295.82L408.39 295.6L408.46 295.35L408.64 294.9L408.72 294.65L408.83 294.43L408.91 294.18L409.09 293.73L409.18 293.49L409.28 293.26L409.37 293.04L409.47 292.81L409.56 292.56L409.66 292.34L395.56 269.59L418.3 246.84L438.44 260.6L438.93 260.36L439.4 260.1L439.88 259.85L440.39 259.61L441.36 259.16L441.87 258.93L442.36 258.71L442.86 258.48L443.87 258.06L444.38 257.87L444.88 257.66L445.39 257.47L445.89 257.29L446.41 257.1L446.92 256.93L447.44 256.75L447.96 256.6L448.49 256.42L448.99 256.27L449.52 256.11L450.04 255.97L450.58 255.83L451.62 255.55L452.16 255.43L452.69 255.31L453.22 255.19L453.75 255.08L454.29 254.98L454.81 254.87L455.35 254.77L456.97 254.51L459.13 254.23L469.6 232.86L499.63 241.15L498.84 265.15ZM462.44 260.15L459.6 260.15L459.09 260.2L458.61 260.27L458.1 260.33L457.61 260.39L457.13 260.48L456.64 260.55L456.13 260.64L455.16 260.81L454.18 261.02L453.71 261.13L453.22 261.23L452.74 261.35L452.27 261.47L451.29 261.72L450.35 262L449.86 262.14L447.51 262.92L447.06 263.09L446.59 263.27L446.12 263.46L445.67 263.63L445.2 263.83L444.29 264.21L442.48 265.05L442.04 265.27L441.59 265.5L441.15 265.72L440.7 265.95L438.09 267.31L435.6 265.62L419.1 254.23L402.94 271.07L414.31 289.5L415.92 292.01L414.77 294.85L414.68 295.06L414.61 295.26L414.44 295.68L414.35 295.91L414.26 296.12L414.19 296.33L414.02 296.74L413.95 296.97L413.86 297.18L413.79 297.39L413.7 297.62L413.57 298.03L413.48 298.26L413.34 298.68L413.27 298.9L413.13 299.32L413.06 299.55L412.99 299.76L412.92 299.98L412.85 300.19L412.78 300.42L412.71 300.63L412.64 300.86L412.59 301.06L412.52 301.29L412.47 301.52L412.4 301.73L412.33 301.95L412.28 302.16L412.22 302.39L412.15 302.61L412.1 302.82L412.05 303.05L411.98 303.28L411.93 303.49L411.67 304.62L411.63 304.84L411.48 305.52L411.44 305.75L411.39 305.98L411.35 306.2L411.3 306.43L411.27 306.66L411.21 306.88L411.14 307.33L411.09 307.56L410.81 309.37L410.78 309.62L410.76 309.84L410.69 310.3L410.67 310.52L410.64 310.75L410.62 310.98L410.59 311.22L410.57 311.45L410.53 311.67L410.5 312.12L410.47 312.35L410.45 312.59L410.45 315.66L407.84 317.02L389.18 327.03L395.56 349.78L415.34 348.2L418.3 348.2L419.33 351.04L419.59 351.47L419.87 351.89L420.17 352.32L420.45 352.74L421.63 354.41L421.94 354.81L422.24 355.22L422.87 356.02L423.2 356.42L423.51 356.82L423.84 357.2L424.17 357.6L424.83 358.37L425.18 358.73L425.53 359.12L425.88 359.48L426.23 359.87L426.58 360.23L426.94 360.58L427.29 360.95L427.66 361.31L428.39 362.01L428.77 362.36L429.15 362.69L429.52 363.04L429.9 363.37L430.3 363.7L430.69 364.03L431.09 364.36L431.47 364.69L432.67 365.63L433.09 365.94L435.35 367.63L435.35 370.59L434.8 390.28L456.87 396.43L465.4 379.03L466.64 376.29L469.49 376.29L469.98 376.22L470.49 376.15L470.97 376.08L471.48 375.99L472.45 375.82L472.96 375.73L474.42 375.42L474.91 375.3L475.4 375.19L475.89 375.07L476.36 374.93L476.84 374.81L477.33 374.67L477.8 374.53L478.29 374.39L479.7 373.92L480.17 373.75L480.66 373.59L481.11 373.42L481.58 373.24L482.52 372.86L482.97 372.67L483.44 372.48L483.9 372.28L485.26 371.66L486.16 371.2L486.6 370.98L487.05 370.75L487.49 370.51L487.94 370.28L488.37 370.04L490.99 368.66L493.49 370.37L509.99 381.74L526.13 364.92L514.87 346.94L513.28 344.43L514.41 341.59L514.67 340.97L514.76 340.74L514.85 340.53L514.92 340.32L515.09 339.91L515.16 339.68L515.25 339.47L515.32 339.26L515.41 339.05L515.47 338.83L515.56 338.62L515.63 338.41L515.7 338.18L515.79 337.97L515.86 337.76L515.93 337.54L516 337.33L516.07 337.1L516.21 336.68L516.28 336.46L516.35 336.25L516.42 336.02L516.49 335.81L516.54 335.59L516.61 335.36L516.68 335.15L516.73 334.92L516.8 334.72L516.85 334.49L516.92 334.28L516.97 334.05L517.04 333.83L517.09 333.62L517.2 333.16L517.27 332.96L517.43 332.28L517.46 332.05L517.67 331.14L517.7 330.92L517.81 330.47L517.84 330.24L517.9 330.01L517.97 329.56L518.02 329.33L518.12 328.65L518.17 328.43L518.35 327.3L518.38 327.05L518.4 326.82L518.47 326.37L518.49 326.15L518.56 325.69L518.58 325.45L518.61 325.22L518.64 324.77L518.68 324.54L518.7 324.32L518.71 324.07L518.73 323.85L518.73 320.78L521.36 319.42L539.89 308.03L533.52 285.28L513.86 287.34L510.89 287.34L509.29 284.73L509.03 284.31L508.47 283.47L508.18 283.07L507.9 282.65L506.71 281.05L506.4 280.67L506.1 280.29L505.79 279.88L505.16 279.12L504.83 278.75L504.5 278.37L504.19 277.99L503.84 277.62L503.18 276.89L502.83 276.54L502.48 276.17L502.15 275.83L501.44 275.11L501.09 274.78L500.36 274.08L499.63 273.42L499.24 273.09L498.88 272.76L498.49 272.45L498.11 272.12L497.34 271.49L496.94 271.18L496.56 270.88L496.16 270.57L495.76 270.27L493.49 268.56L493.49 265.62L494.05 245.94L471.98 239.79L463.69 257.42L462.44 260.15Z" id="dtNDXaodd"></path><path d="M498.84 265.15L499.28 265.5L499.73 265.85L500.17 266.18L500.6 266.54L501.47 267.24L501.91 267.61L502.74 268.34L503.58 269.1L504 269.47L504.4 269.85L504.8 270.25L505.2 270.64L506 271.44L506.77 272.24L507.53 273.07L507.9 273.48L508.26 273.91L509 274.75L509.36 275.18L510.41 276.49L510.75 276.94L511.09 277.38L511.43 277.83L511.77 278.28L512.08 278.74L512.41 279.19L513.66 281.07L513.96 281.54L537.63 279.94L546.37 311.67L523.63 323.85L523.61 324.11L523.59 324.35L523.56 324.6L523.54 324.86L523.5 325.1L523.49 325.34L523.45 325.61L523.43 325.85L523.37 326.34L523.33 326.6L523.31 326.84L523.28 327.09L523.24 327.35L523.14 328.08L523.09 328.34L522.98 329.07L522.93 329.32L522.89 329.58L522.84 329.82L522.81 330.06L522.76 330.31L522.72 330.55L522.67 330.8L522.62 331.06L522.56 331.3L522.53 331.55L522.22 333.01L522.15 333.25L521.83 334.72L521.78 334.94L521.68 335.43L521.62 335.66L521.52 336.14L521.45 336.39L521.4 336.61L521.34 336.86L521.27 337.1L521.22 337.33L521.15 337.57L521.1 337.8L520.96 338.29L520.91 338.51L520.84 338.76L520.77 338.98L520.7 339.23L520.63 339.45L520.56 339.7L520.49 339.92L520.42 340.17L520.35 340.39L520.28 340.64L520.21 340.86L520.13 341.09L520.06 341.33L519.99 341.56L519.9 341.8L519.83 342.03L519.74 342.26L519.67 342.5L519.5 342.95L519.43 343.18L533.52 365.94L510.77 388.69L490.86 374.91L490.39 375.18L489.91 375.42L489.42 375.68L488.93 375.91L488.43 376.15L487.45 376.6L486.95 376.83L485.93 377.25L485.45 377.46L484.94 377.67L484.42 377.86L483.41 378.24L482.89 378.42L482.38 378.61L481.86 378.76L481.35 378.94L479.26 379.56L478.74 379.7L478.2 379.84L477.68 379.97L477.16 380.1L476.62 380.23L476.09 380.33L475.55 380.45L475.01 380.56L474.49 380.66L473.95 380.75L473.41 380.85L472.87 380.94L472.33 381.01L471.79 381.1L470.71 381.24L470.17 381.29L459.7 402.68L429.68 394.37L430.36 369.92L429.9 369.58L429.47 369.24L429.01 368.89L428.14 368.19L427.73 367.83L427.29 367.46L426.87 367.09L426.44 366.73L426.02 366.36L425.62 365.98L425.2 365.6L424.8 365.21L424.38 364.83L423.2 363.65L422.81 363.24L422.43 362.83L422.05 362.43L421.66 362.01L421.3 361.59L420.92 361.17L420.55 360.75L420.18 360.32L419.84 359.9L419.47 359.47L419.12 359.03L418.77 358.58L418.44 358.14L418.09 357.69L417.76 357.24L417.43 356.8L417.1 356.33L416.79 355.88L416.46 355.41L416.14 354.95L415.83 354.48L415.24 353.54L390.89 355.58L382.13 323.85L404.87 311.67L404.91 311.43L404.93 311.18L404.94 310.92L404.98 310.68L405 310.44L405.03 310.17L405.05 309.93L405.08 309.69L405.12 309.42L405.14 309.18L405.21 308.69L405.24 308.43L405.34 307.7L405.38 307.44L405.45 306.95L405.5 306.71L405.54 306.45L405.57 306.2L405.62 305.96L405.66 305.71L405.71 305.47L405.74 305.23L405.8 304.97L405.85 304.72L405.88 304.48L406.15 303.26L406.2 303L406.41 302.02L406.48 301.78L406.53 301.53L406.6 301.31L406.67 301.06L406.72 300.82L406.86 300.33L406.93 300.11L407.14 299.38L407.21 299.15L407.35 298.66L407.43 298.43L407.57 297.95L407.66 297.72L407.73 297.48L407.82 297.23L407.89 297.01L407.97 296.76L408.04 296.54L408.13 296.29L408.22 296.07L408.31 295.82L408.39 295.6L408.46 295.35L408.64 294.9L408.72 294.65L408.83 294.43L408.91 294.18L409.09 293.73L409.18 293.49L409.28 293.26L409.37 293.04L409.47 292.81L409.56 292.56L409.66 292.34L395.56 269.59L418.3 246.84L438.44 260.6L438.93 260.36L439.4 260.1L439.88 259.85L440.39 259.61L441.36 259.16L441.87 258.93L442.36 258.71L442.86 258.48L443.87 258.06L444.38 257.87L444.88 257.66L445.39 257.47L445.89 257.29L446.41 257.1L446.92 256.93L447.44 256.75L447.96 256.6L448.49 256.42L448.99 256.27L449.52 256.11L450.04 255.97L450.58 255.83L451.62 255.55L452.16 255.43L452.69 255.31L453.22 255.19L453.75 255.08L454.29 254.98L454.81 254.87L455.35 254.77L456.97 254.51L459.13 254.23L469.6 232.86L499.63 241.15L498.84 265.15ZM462.44 260.15L459.6 260.15L459.09 260.2L458.61 260.27L458.1 260.33L457.61 260.39L457.13 260.48L456.64 260.55L456.13 260.64L455.16 260.81L454.18 261.02L453.71 261.13L453.22 261.23L452.74 261.35L452.27 261.47L451.29 261.72L450.35 262L449.86 262.14L447.51 262.92L447.06 263.09L446.59 263.27L446.12 263.46L445.67 263.63L445.2 263.83L444.29 264.21L442.48 265.05L442.04 265.27L441.59 265.5L441.15 265.72L440.7 265.95L438.09 267.31L435.6 265.62L419.1 254.23L402.94 271.07L414.31 289.5L415.92 292.01L414.77 294.85L414.68 295.06L414.61 295.26L414.44 295.68L414.35 295.91L414.26 296.12L414.19 296.33L414.02 296.74L413.95 296.97L413.86 297.18L413.79 297.39L413.7 297.62L413.57 298.03L413.48 298.26L413.34 298.68L413.27 298.9L413.13 299.32L413.06 299.55L412.99 299.76L412.92 299.98L412.85 300.19L412.78 300.42L412.71 300.63L412.64 300.86L412.59 301.06L412.52 301.29L412.47 301.52L412.4 301.73L412.33 301.95L412.28 302.16L412.22 302.39L412.15 302.61L412.1 302.82L412.05 303.05L411.98 303.28L411.93 303.49L411.67 304.62L411.63 304.84L411.48 305.52L411.44 305.75L411.39 305.98L411.35 306.2L411.3 306.43L411.27 306.66L411.21 306.88L411.14 307.33L411.09 307.56L410.81 309.37L410.78 309.62L410.76 309.84L410.69 310.3L410.67 310.52L410.64 310.75L410.62 310.98L410.59 311.22L410.57 311.45L410.53 311.67L410.5 312.12L410.47 312.35L410.45 312.59L410.45 315.66L407.84 317.02L389.18 327.03L395.56 349.78L415.34 348.2L418.3 348.2L419.33 351.04L419.59 351.47L419.87 351.89L420.17 352.32L420.45 352.74L421.63 354.41L421.94 354.81L422.24 355.22L422.87 356.02L423.2 356.42L423.51 356.82L423.84 357.2L424.17 357.6L424.83 358.37L425.18 358.73L425.53 359.12L425.88 359.48L426.23 359.87L426.58 360.23L426.94 360.58L427.29 360.95L427.66 361.31L428.39 362.01L428.77 362.36L429.15 362.69L429.52 363.04L429.9 363.37L430.3 363.7L430.69 364.03L431.09 364.36L431.47 364.69L432.67 365.63L433.09 365.94L435.35 367.63L435.35 370.59L434.8 390.28L456.87 396.43L465.4 379.03L466.64 376.29L469.49 376.29L469.98 376.22L470.49 376.15L470.97 376.08L471.48 375.99L472.45 375.82L472.96 375.73L474.42 375.42L474.91 375.3L475.4 375.19L475.89 375.07L476.36 374.93L476.84 374.81L477.33 374.67L477.8 374.53L478.29 374.39L479.7 373.92L480.17 373.75L480.66 373.59L481.11 373.42L481.58 373.24L482.52 372.86L482.97 372.67L483.44 372.48L483.9 372.28L485.26 371.66L486.16 371.2L486.6 370.98L487.05 370.75L487.49 370.51L487.94 370.28L488.37 370.04L490.99 368.66L493.49 370.37L509.99 381.74L526.13 364.92L514.87 346.94L513.28 344.43L514.41 341.59L514.67 340.97L514.76 340.74L514.85 340.53L514.92 340.32L515.09 339.91L515.16 339.68L515.25 339.47L515.32 339.26L515.41 339.05L515.47 338.83L515.56 338.62L515.63 338.41L515.7 338.18L515.79 337.97L515.86 337.76L515.93 337.54L516 337.33L516.07 337.1L516.21 336.68L516.28 336.46L516.35 336.25L516.42 336.02L516.49 335.81L516.54 335.59L516.61 335.36L516.68 335.15L516.73 334.92L516.8 334.72L516.85 334.49L516.92 334.28L516.97 334.05L517.04 333.83L517.09 333.62L517.2 333.16L517.27 332.96L517.43 332.28L517.46 332.05L517.67 331.14L517.7 330.92L517.81 330.47L517.84 330.24L517.9 330.01L517.97 329.56L518.02 329.33L518.12 328.65L518.17 328.43L518.35 327.3L518.38 327.05L518.4 326.82L518.47 326.37L518.49 326.15L518.56 325.69L518.58 325.45L518.61 325.22L518.64 324.77L518.68 324.54L518.7 324.32L518.71 324.07L518.73 323.85L518.73 320.78L521.36 319.42L539.89 308.03L533.52 285.28L513.86 287.34L510.89 287.34L509.29 284.73L509.03 284.31L508.47 283.47L508.18 283.07L507.9 282.65L506.71 281.05L506.4 280.67L506.1 280.29L505.79 279.88L505.16 279.12L504.83 278.75L504.5 278.37L504.19 277.99L503.84 277.62L503.18 276.89L502.83 276.54L502.48 276.17L502.15 275.83L501.44 275.11L501.09 274.78L500.36 274.08L499.63 273.42L499.24 273.09L498.88 272.76L498.49 272.45L498.11 272.12L497.34 271.49L496.94 271.18L496.56 270.88L496.16 270.57L495.76 270.27L493.49 268.56L493.49 265.62L494.05 245.94L471.98 239.79L463.69 257.42L462.44 260.15Z" id="f1BqE9QdWD"></path><path d="M470.15 284.83L472.33 285.28L474.51 286.07L476.6 286.99L478.6 288.04L480.52 289.2L482.33 290.47L484.04 291.87L485.66 293.37L487.15 294.95L488.55 296.62L489.82 298.38L490.97 300.23L492.01 302.13L492.92 304.1L493.7 306.13L494.36 308.21L494.87 310.33L495.25 312.49L495.48 314.68L495.57 316.9L495.51 319.14L495.31 321.39L494.92 323.64L494.4 325.9L494.38 325.95L494.38 326.01L494.35 326.11L494.35 326.16L494.31 326.27L494.31 326.32L494.28 326.42L494.28 326.48L494.24 326.58L494.24 326.63L494.21 326.74L494.21 326.79L494.17 326.89L494.17 326.95L494.12 327.1L493.51 329.25L492.76 331.3L491.89 333.29L490.88 335.19L489.77 337L488.53 338.7L487.19 340.32L485.74 341.84L484.19 343.27L482.57 344.57L480.87 345.76L479.09 346.84L477.24 347.8L475.33 348.61L473.36 349.33L471.36 349.9L469.28 350.34L467.19 350.63L465.07 350.79L462.93 350.79L460.77 350.65L458.59 350.36L456.41 349.9L454.24 349.12L452.13 348.2L450.12 347.15L448.23 345.98L446.41 344.71L444.69 343.32L443.09 341.82L441.59 340.24L440.2 338.56L438.93 336.81L437.76 334.96L436.73 333.06L435.81 331.09L435.02 329.05L434.38 326.98L433.86 324.86L433.49 322.7L433.25 320.5L433.16 318.29L433.23 316.04L433.44 313.8L433.8 311.55L434.34 309.29L434.34 309.23L434.38 309.13L434.38 309.08L434.41 308.97L434.41 308.92L434.43 308.87L434.43 308.82L434.47 308.71L434.47 308.66L434.52 308.5L434.52 308.45L434.55 308.35L434.55 308.29L434.61 308.14L434.61 308.08L435.22 305.94L435.96 303.89L436.85 301.9L437.85 300L438.98 298.19L440.21 296.48L441.56 294.86L443 293.35L444.53 291.92L446.15 290.63L447.86 289.43L449.65 288.35L451.5 287.39L453.4 286.57L455.37 285.86L457.39 285.28L459.44 284.85L461.53 284.55L463.66 284.4L465.82 284.4L467.98 284.54L470.15 284.83ZM459.79 307.74L457.89 308.99L456.31 310.61L455.11 312.59L454.36 314.86L454.03 317.33L454.22 319.74L454.9 322.02L456.03 324.11L457.58 325.94L459.5 327.43L461.76 328.51L462.11 328.6L462.18 328.6L462.25 328.62L464.62 328.81L466.92 328.46L469.02 327.63L470.9 326.35L472.47 324.7L473.66 322.71L474.37 320.43L474.72 317.98L474.53 315.57L473.85 313.29L472.7 311.22L471.16 309.41L469.23 307.94L466.98 306.9L466.93 306.88L466.86 306.88L466.71 306.83L466.64 306.83L466.58 306.81L464.2 306.6L461.92 306.92L459.79 307.74Z" id="cMH08pd78"></path><path d="M470.15 284.83L472.33 285.28L474.51 286.07L476.6 286.99L478.6 288.04L480.52 289.2L482.33 290.47L484.04 291.87L485.66 293.37L487.15 294.95L488.55 296.62L489.82 298.38L490.97 300.23L492.01 302.13L492.92 304.1L493.7 306.13L494.36 308.21L494.87 310.33L495.25 312.49L495.48 314.68L495.57 316.9L495.51 319.14L495.31 321.39L494.92 323.64L494.4 325.9L494.38 325.95L494.38 326.01L494.35 326.11L494.35 326.16L494.31 326.27L494.31 326.32L494.28 326.42L494.28 326.48L494.24 326.58L494.24 326.63L494.21 326.74L494.21 326.79L494.17 326.89L494.17 326.95L494.12 327.1L493.51 329.25L492.76 331.3L491.89 333.29L490.88 335.19L489.77 337L488.53 338.7L487.19 340.32L485.74 341.84L484.19 343.27L482.57 344.57L480.87 345.76L479.09 346.84L477.24 347.8L475.33 348.61L473.36 349.33L471.36 349.9L469.28 350.34L467.19 350.63L465.07 350.79L462.93 350.79L460.77 350.65L458.59 350.36L456.41 349.9L454.24 349.12L452.13 348.2L450.12 347.15L448.23 345.98L446.41 344.71L444.69 343.32L443.09 341.82L441.59 340.24L440.2 338.56L438.93 336.81L437.76 334.96L436.73 333.06L435.81 331.09L435.02 329.05L434.38 326.98L433.86 324.86L433.49 322.7L433.25 320.5L433.16 318.29L433.23 316.04L433.44 313.8L433.8 311.55L434.34 309.29L434.34 309.23L434.38 309.13L434.38 309.08L434.41 308.97L434.41 308.92L434.43 308.87L434.43 308.82L434.47 308.71L434.47 308.66L434.52 308.5L434.52 308.45L434.55 308.35L434.55 308.29L434.61 308.14L434.61 308.08L435.22 305.94L435.96 303.89L436.85 301.9L437.85 300L438.98 298.19L440.21 296.48L441.56 294.86L443 293.35L444.53 291.92L446.15 290.63L447.86 289.43L449.65 288.35L451.5 287.39L453.4 286.57L455.37 285.86L457.39 285.28L459.44 284.85L461.53 284.55L463.66 284.4L465.82 284.4L467.98 284.54L470.15 284.83ZM459.79 307.74L457.89 308.99L456.31 310.61L455.11 312.59L454.36 314.86L454.03 317.33L454.22 319.74L454.9 322.02L456.03 324.11L457.58 325.94L459.5 327.43L461.76 328.51L462.11 328.6L462.18 328.6L462.25 328.62L464.62 328.81L466.92 328.46L469.02 327.63L470.9 326.35L472.47 324.7L473.66 322.71L474.37 320.43L474.72 317.98L474.53 315.57L473.85 313.29L472.7 311.22L471.16 309.41L469.23 307.94L466.98 306.9L466.93 306.88L466.86 306.88L466.71 306.83L466.64 306.83L466.58 306.81L464.2 306.6L461.92 306.92L459.79 307.74Z" id="b1mHEb1b38"></path><path d="M5.37 320.21C5.37 494 146.26 634.87 320.03 634.87C493.81 634.87 634.68 494 634.68 320.21C634.68 146.43 493.81 5.56 320.03 5.56C146.26 5.56 5.37 146.43 5.37 320.21Z" id="a3rZlADArT"></path><path d="M5.37 320.21C5.37 494 146.26 634.87 320.03 634.87C493.81 634.87 634.68 494 634.68 320.21C634.68 146.43 493.81 5.56 320.03 5.56C146.26 5.56 5.37 146.43 5.37 320.21Z" id="igyFnu7Hi"></path><path d="M527.35 224.92L527.21 225.05L526.94 225.37L526.78 225.53L526.64 225.7L526.48 225.86L526.33 226.03L526.15 226.22L526 226.4L525.82 226.57L525.65 226.76L525.49 226.95L525.32 227.14L525.12 227.34L524.95 227.55L524.76 227.74L524.58 227.95L523.63 228.99L523.42 229.2L523.23 229.43L523.02 229.64L522.83 229.86L522.62 230.07L522.2 230.52L521.99 230.73L521.57 231.19L521.14 231.62L520.93 231.85L520.7 232.07L520.49 232.3L520.26 232.51L520.06 232.74L510.23 242.54L500.51 252.26L490.9 261.86L481.39 271.35L472.02 280.72L462.75 289.97L453.63 299.08L444.64 308.07L435.77 316.91L427.05 325.61L418.48 334.16L410.06 342.57L401.81 350.81L393.71 358.89L385.78 366.8L378.03 374.53L370.46 382.11L363.05 389.48L355.84 396.67L348.82 403.67L342.01 410.48L335.4 417.06L328.99 423.46L322.79 429.64L316.81 435.61L311.06 441.34L305.52 446.87L300.23 452.14L295.16 457.19L290.35 462L285.77 466.57L281.45 470.87L277.4 474.91L273.6 478.71L270.06 482.22L266.81 485.48L263.81 488.46L256.58 495.69L256.16 496.05L255.76 496.4L255.35 496.75L254.91 497.1L254.49 497.43L254.06 497.76L253.6 498.07L253.17 498.39L251.81 499.28L251.34 499.55L249.93 500.34L248.95 500.83L248.47 501.05L247.98 501.26L247.49 501.49L245.97 502.06L245.47 502.24L244.95 502.41L244.44 502.57L243.92 502.72L242.87 503L242.35 503.12L241.81 503.23L241.29 503.35L239.67 503.61L239.15 503.68L238.59 503.73L237.51 503.84L236.97 503.86L233.77 503.91L227.39 504.01L224.19 504.05L221 504.08L217.79 504.1L214.61 504.13L211.4 504.15L208.21 504.17L205.01 504.17L201.82 504.19L185.8 504.19L182.59 504.17L179.39 504.17L172.98 504.13L169.76 504.12L166.55 504.12L153.66 504.05L150.44 504.01L147.22 504L143.98 503.98L140.76 503.96L134.28 503.93L131.04 503.93L124.56 503.89L121.3 503.89L118.04 503.87L111.53 503.87L108.27 503.86L108.27 503.58L108.25 503.3L108.25 503.02L108.24 502.74L108.24 502.46L108.22 502.2L108.19 501.92L108.17 501.66L108.15 501.38L108.12 501.12L108.1 500.86L108.06 500.58L108.03 500.32L108.01 500.06L107.84 498.75L107.8 498.51L107.7 497.72L107.66 497.48L107.59 496.96L107.56 496.71L107.52 496.45L107.51 496.19L107.47 495.95L107.45 495.69L107.42 495.43L107.4 495.18L107.37 494.66L107.35 494.42L107.35 494.15L107.33 493.89L107.33 371.41L107.38 370.21L107.42 369.83L107.45 369.43L107.51 369.03L107.56 368.64L107.61 368.24L107.68 367.86L107.75 367.46L108.01 366.31L108.22 365.54L108.34 365.18L108.45 364.79L108.59 364.43L108.71 364.05L108.85 363.68L109 363.31L109.14 362.95L109.3 362.58L109.47 362.23L109.65 361.87L110 361.17L110.38 360.48L110.59 360.14L110.8 359.8L111.01 359.47L111.23 359.13L111.46 358.82L111.69 358.49L112.42 357.55L112.68 357.24L122.76 347.06L132.76 337L142.65 327.05L152.41 317.23L162.06 307.53L171.58 297.96L180.97 288.54L190.22 279.24L199.33 270.1L208.3 261.11L217.11 252.26L225.79 243.59L234.29 235.07L242.61 226.73L250.76 218.56L302.63 166.69L309.23 160.11L315.63 153.73L321.78 147.58L327.7 141.68L333.39 135.98L338.86 130.55L344.07 125.34L349.03 120.39L353.74 115.71L362.36 107.09L366.28 103.18L369.92 99.56L376.34 93.13L379.13 90.37L381.62 87.87L383.8 85.68L383.87 85.63L383.96 85.58L384.1 85.47L384.18 85.42L384.32 85.31L384.41 85.26L384.48 85.21L384.57 85.16L384.64 85.12L384.7 85.07L384.79 85.02L384.86 84.97L384.95 84.91L385.02 84.86L385.11 84.83L385.17 84.77L385.26 84.72L385.33 84.67L385.42 84.64L385.49 84.58L385.58 84.53L385.65 84.5L385.73 84.44L385.82 84.41L385.89 84.36L385.98 84.3L386.05 84.27L386.13 84.22L386.22 84.18L386.29 84.13L386.38 84.1L386.46 84.04L386.53 84.01L386.62 83.96L386.71 83.92L386.78 83.89L386.86 83.83L386.95 83.8L527.49 224.76L527.35 224.92ZM228.26 460.12L264.96 424.36L188.83 348L151.59 382.93L228.26 460.12ZM282.9 406.95L465.61 224.34L439.4 195.6L255.85 379.04L282.9 406.95ZM231.29 356.5L414.44 173.48L388.62 146.73L204.45 330.8L231.29 356.5Z" id="aFqgZGn5r"></path><path d="M527.35 224.92L527.21 225.05L526.94 225.37L526.78 225.53L526.64 225.7L526.48 225.86L526.33 226.03L526.15 226.22L526 226.4L525.82 226.57L525.65 226.76L525.49 226.95L525.32 227.14L525.12 227.34L524.95 227.55L524.76 227.74L524.58 227.95L523.63 228.99L523.42 229.2L523.23 229.43L523.02 229.64L522.83 229.86L522.62 230.07L522.2 230.52L521.99 230.73L521.57 231.19L521.14 231.62L520.93 231.85L520.7 232.07L520.49 232.3L520.26 232.51L520.06 232.74L510.23 242.54L500.51 252.26L490.9 261.86L481.39 271.35L472.02 280.72L462.75 289.97L453.63 299.08L444.64 308.07L435.77 316.91L427.05 325.61L418.48 334.16L410.06 342.57L401.81 350.81L393.71 358.89L385.78 366.8L378.03 374.53L370.46 382.11L363.05 389.48L355.84 396.67L348.82 403.67L342.01 410.48L335.4 417.06L328.99 423.46L322.79 429.64L316.81 435.61L311.06 441.34L305.52 446.87L300.23 452.14L295.16 457.19L290.35 462L285.77 466.57L281.45 470.87L277.4 474.91L273.6 478.71L270.06 482.22L266.81 485.48L263.81 488.46L256.58 495.69L256.16 496.05L255.76 496.4L255.35 496.75L254.91 497.1L254.49 497.43L254.06 497.76L253.6 498.07L253.17 498.39L251.81 499.28L251.34 499.55L249.93 500.34L248.95 500.83L248.47 501.05L247.98 501.26L247.49 501.49L245.97 502.06L245.47 502.24L244.95 502.41L244.44 502.57L243.92 502.72L242.87 503L242.35 503.12L241.81 503.23L241.29 503.35L239.67 503.61L239.15 503.68L238.59 503.73L237.51 503.84L236.97 503.86L233.77 503.91L227.39 504.01L224.19 504.05L221 504.08L217.79 504.1L214.61 504.13L211.4 504.15L208.21 504.17L205.01 504.17L201.82 504.19L185.8 504.19L182.59 504.17L179.39 504.17L172.98 504.13L169.76 504.12L166.55 504.12L153.66 504.05L150.44 504.01L147.22 504L143.98 503.98L140.76 503.96L134.28 503.93L131.04 503.93L124.56 503.89L121.3 503.89L118.04 503.87L111.53 503.87L108.27 503.86L108.27 503.58L108.25 503.3L108.25 503.02L108.24 502.74L108.24 502.46L108.22 502.2L108.19 501.92L108.17 501.66L108.15 501.38L108.12 501.12L108.1 500.86L108.06 500.58L108.03 500.32L108.01 500.06L107.84 498.75L107.8 498.51L107.7 497.72L107.66 497.48L107.59 496.96L107.56 496.71L107.52 496.45L107.51 496.19L107.47 495.95L107.45 495.69L107.42 495.43L107.4 495.18L107.37 494.66L107.35 494.42L107.35 494.15L107.33 493.89L107.33 371.41L107.38 370.21L107.42 369.83L107.45 369.43L107.51 369.03L107.56 368.64L107.61 368.24L107.68 367.86L107.75 367.46L108.01 366.31L108.22 365.54L108.34 365.18L108.45 364.79L108.59 364.43L108.71 364.05L108.85 363.68L109 363.31L109.14 362.95L109.3 362.58L109.47 362.23L109.65 361.87L110 361.17L110.38 360.48L110.59 360.14L110.8 359.8L111.01 359.47L111.23 359.13L111.46 358.82L111.69 358.49L112.42 357.55L112.68 357.24L122.76 347.06L132.76 337L142.65 327.05L152.41 317.23L162.06 307.53L171.58 297.96L180.97 288.54L190.22 279.24L199.33 270.1L208.3 261.11L217.11 252.26L225.79 243.59L234.29 235.07L242.61 226.73L250.76 218.56L302.63 166.69L309.23 160.11L315.63 153.73L321.78 147.58L327.7 141.68L333.39 135.98L338.86 130.55L344.07 125.34L349.03 120.39L353.74 115.71L362.36 107.09L366.28 103.18L369.92 99.56L376.34 93.13L379.13 90.37L381.62 87.87L383.8 85.68L383.87 85.63L383.96 85.58L384.1 85.47L384.18 85.42L384.32 85.31L384.41 85.26L384.48 85.21L384.57 85.16L384.64 85.12L384.7 85.07L384.79 85.02L384.86 84.97L384.95 84.91L385.02 84.86L385.11 84.83L385.17 84.77L385.26 84.72L385.33 84.67L385.42 84.64L385.49 84.58L385.58 84.53L385.65 84.5L385.73 84.44L385.82 84.41L385.89 84.36L385.98 84.3L386.05 84.27L386.13 84.22L386.22 84.18L386.29 84.13L386.38 84.1L386.46 84.04L386.53 84.01L386.62 83.96L386.71 83.92L386.78 83.89L386.86 83.83L386.95 83.8L527.49 224.76L527.35 224.92ZM228.26 460.12L264.96 424.36L188.83 348L151.59 382.93L228.26 460.12ZM282.9 406.95L465.61 224.34L439.4 195.6L255.85 379.04L282.9 406.95ZM231.29 356.5L414.44 173.48L388.62 146.73L204.45 330.8L231.29 356.5Z" id="beUS6ZkR4"></path></defs><g><g><g><use xlink:href="#dtNDXaodd" opacity="1" fill="#ffffff" fill-opacity="1"></use><g><use xlink:href="#dtNDXaodd" opacity="1" fill-opacity="0" stroke="#000000" stroke-width="1" stroke-opacity="0"></use></g></g><g><use xlink:href="#f1BqE9QdWD" opacity="1" fill="#000000" fill-opacity="0"></use><g><use xlink:href="#f1BqE9QdWD" opacity="1" fill-opacity="0" stroke="#000000" stroke-width="1" stroke-opacity="0"></use></g></g><g><use xlink:href="#cMH08pd78" opacity="1" fill="#ffffff" fill-opacity="1"></use><g><use xlink:href="#cMH08pd78" opacity="1" fill-opacity="0" stroke="#000000" stroke-width="1" stroke-opacity="0"></use></g></g><g><use xlink:href="#b1mHEb1b38" opacity="1" fill="#000000" fill-opacity="0"></use><g><use xlink:href="#b1mHEb1b38" opacity="1" fill-opacity="0" stroke="#000000" stroke-width="1" stroke-opacity="0"></use></g></g><g><use xlink:href="#a3rZlADArT" opacity="1" fill="#417192" fill-opacity="1"></use><g><use xlink:href="#a3rZlADArT" opacity="1" fill-opacity="0" stroke="#000000" stroke-width="1" stroke-opacity="0"></use></g></g><g><use xlink:href="#igyFnu7Hi" opacity="1" fill="#000000" fill-opacity="0"></use><g><use xlink:href="#igyFnu7Hi" opacity="1" fill-opacity="0" stroke="#000000" stroke-width="1" stroke-opacity="0"></use></g></g><g><use xlink:href="#aFqgZGn5r" opacity="1" fill="#ffffff" fill-opacity="1"></use><g><use xlink:href="#aFqgZGn5r" opacity="1" fill-opacity="0" stroke="#000000" stroke-width="1" stroke-opacity="0"></use></g></g><g><use xlink:href="#beUS6ZkR4" opacity="1" fill="#000000" fill-opacity="0"></use><g><use xlink:href="#beUS6ZkR4" opacity="1" fill-opacity="0" stroke="#000000" stroke-width="1" stroke-opacity="0"></use></g></g></g></g></svg>