<?xml version="1.0" encoding="UTF-8" standalone="no"?>
<!DOCTYPE svg PUBLIC "-//W3C//DTD SVG 1.1//EN" "http://www.w3.org/Graphics/SVG/1.1/DTD/svg11.dtd">
<svg version="1.1" xmlns="http://www.w3.org/2000/svg" xmlns:xlink="http://www.w3.org/1999/xlink" preserveAspectRatio="xMidYMid meet" viewBox="0 0 640 640" width="640" height="640"><defs><path d="M480.49 393.28L482.65 393.73L484.81 394.51L486.89 395.42L488.88 396.46L490.78 397.62L492.58 398.88L494.28 400.27L495.89 401.76L497.38 403.33L498.76 404.99L500.03 406.74L501.17 408.58L502.21 410.46L503.11 412.42L503.89 414.44L504.54 416.5L505.04 418.61L505.43 420.76L505.65 422.94L505.74 425.14L505.69 427.37L505.48 429.6L505.1 431.84L504.58 434.09L504.56 434.14L504.56 434.19L504.53 434.29L504.53 434.35L504.49 434.45L504.49 434.5L504.46 434.61L504.46 434.66L504.42 434.76L504.42 434.81L504.39 434.92L504.39 434.97L504.35 435.07L504.35 435.13L504.3 435.28L503.69 437.41L502.95 439.45L502.09 441.42L501.08 443.31L499.97 445.11L498.75 446.81L497.41 448.42L495.98 449.92L494.44 451.34L492.83 452.64L491.13 453.82L489.36 454.89L487.53 455.84L485.63 456.65L483.67 457.36L481.68 457.94L479.62 458.37L477.54 458.66L475.43 458.82L473.3 458.82L471.16 458.68L468.99 458.39L466.83 457.94L464.67 457.16L462.57 456.24L460.58 455.2L458.7 454.04L456.9 452.78L455.18 451.39L453.59 449.91L452.1 448.33L450.72 446.67L449.46 444.92L448.3 443.09L447.27 441.2L446.36 439.24L445.58 437.22L444.94 435.16L444.42 433.05L444.06 430.9L443.81 428.72L443.73 426.52L443.8 424.29L444 422.06L444.37 419.83L444.9 417.58L444.9 417.52L444.94 417.42L444.94 417.37L444.97 417.26L444.97 417.21L444.99 417.16L444.99 417.11L445.02 417L445.02 416.95L445.08 416.8L445.08 416.75L445.11 416.64L445.11 416.59L445.16 416.43L445.16 416.38L445.77 414.25L446.51 412.21L447.4 410.24L448.38 408.35L449.51 406.55L450.74 404.86L452.07 403.25L453.5 401.74L455.03 400.32L456.64 399.04L458.33 397.85L460.12 396.77L461.95 395.82L463.84 395.01L465.79 394.3L467.8 393.73L469.84 393.29L471.92 393L474.03 392.84L476.18 392.84L478.32 392.98L480.49 393.28ZM470.19 416.04L468.3 417.28L466.73 418.89L465.53 420.86L464.79 423.11L464.46 425.57L464.65 427.96L465.33 430.23L466.45 432.3L467.99 434.12L469.89 435.61L472.14 436.68L472.49 436.77L472.56 436.77L472.63 436.79L474.98 436.98L477.27 436.63L479.36 435.8L481.23 434.54L482.79 432.89L483.96 430.92L484.67 428.65L485.02 426.21L484.83 423.82L484.16 421.56L483.01 419.5L481.49 417.7L479.57 416.24L477.34 415.2L477.28 415.19L477.22 415.19L477.06 415.14L476.99 415.14L476.94 415.12L474.57 414.91L472.3 415.22L470.19 416.04Z" id="a1lcXHNlbT"></path><path d="M480.49 393.28L482.65 393.73L484.81 394.51L486.89 395.42L488.88 396.46L490.78 397.62L492.58 398.88L494.28 400.27L495.89 401.76L497.38 403.33L498.76 404.99L500.03 406.74L501.17 408.58L502.21 410.46L503.11 412.42L503.89 414.44L504.54 416.5L505.04 418.61L505.43 420.76L505.65 422.94L505.74 425.14L505.69 427.37L505.48 429.6L505.1 431.84L504.58 434.09L504.56 434.14L504.56 434.19L504.53 434.29L504.53 434.35L504.49 434.45L504.49 434.5L504.46 434.61L504.46 434.66L504.42 434.76L504.42 434.81L504.39 434.92L504.39 434.97L504.35 435.07L504.35 435.13L504.3 435.28L503.69 437.41L502.95 439.45L502.09 441.42L501.08 443.31L499.97 445.11L498.75 446.81L497.41 448.42L495.98 449.92L494.44 451.34L492.83 452.64L491.13 453.82L489.36 454.89L487.53 455.84L485.63 456.65L483.67 457.36L481.68 457.94L479.62 458.37L477.54 458.66L475.43 458.82L473.3 458.82L471.16 458.68L468.99 458.39L466.83 457.94L464.67 457.16L462.57 456.24L460.58 455.2L458.7 454.04L456.9 452.78L455.18 451.39L453.59 449.91L452.1 448.33L450.72 446.67L449.46 444.92L448.3 443.09L447.27 441.2L446.36 439.24L445.58 437.22L444.94 435.16L444.42 433.05L444.06 430.9L443.81 428.72L443.73 426.52L443.8 424.29L444 422.06L444.37 419.83L444.9 417.58L444.9 417.52L444.94 417.42L444.94 417.37L444.97 417.26L444.97 417.21L444.99 417.16L444.99 417.11L445.02 417L445.02 416.95L445.08 416.8L445.08 416.75L445.11 416.64L445.11 416.59L445.16 416.43L445.16 416.38L445.77 414.25L446.51 412.21L447.4 410.24L448.38 408.35L449.51 406.55L450.74 404.86L452.07 403.25L453.5 401.74L455.03 400.32L456.64 399.04L458.33 397.85L460.12 396.77L461.95 395.82L463.84 395.01L465.79 394.3L467.8 393.73L469.84 393.29L471.92 393L474.03 392.84L476.18 392.84L478.32 392.98L480.49 393.28ZM470.19 416.04L468.3 417.28L466.73 418.89L465.53 420.86L464.79 423.11L464.46 425.57L464.65 427.96L465.33 430.23L466.45 432.3L467.99 434.12L469.89 435.61L472.14 436.68L472.49 436.77L472.56 436.77L472.63 436.79L474.98 436.98L477.27 436.63L479.36 435.8L481.23 434.54L482.79 432.89L483.96 430.92L484.67 428.65L485.02 426.21L484.83 423.82L484.16 421.56L483.01 419.5L481.49 417.7L479.57 416.24L477.34 415.2L477.28 415.19L477.22 415.19L477.06 415.14L476.99 415.14L476.94 415.12L474.57 414.91L472.3 415.22L470.19 416.04Z" id="bWLHEpq8e"></path><path d="M480.49 393.28L482.65 393.73L484.81 394.51L486.89 395.42L488.88 396.46L490.78 397.62L492.58 398.88L494.28 400.27L495.89 401.76L497.38 403.33L498.76 404.99L500.03 406.74L501.17 408.58L502.21 410.46L503.11 412.42L503.89 414.44L504.54 416.5L505.04 418.61L505.43 420.76L505.65 422.94L505.74 425.14L505.69 427.37L505.48 429.6L505.1 431.84L504.58 434.09L504.56 434.14L504.56 434.19L504.53 434.29L504.53 434.35L504.49 434.45L504.49 434.5L504.46 434.61L504.46 434.66L504.42 434.76L504.42 434.81L504.39 434.92L504.39 434.97L504.35 435.07L504.35 435.13L504.3 435.28L503.69 437.41L502.95 439.45L502.09 441.42L501.08 443.31L499.97 445.11L498.75 446.81L497.41 448.42L495.98 449.92L494.44 451.34L492.83 452.64L491.13 453.82L489.36 454.89L487.53 455.84L485.63 456.65L483.67 457.36L481.68 457.94L479.62 458.37L477.54 458.66L475.43 458.82L473.3 458.82L471.16 458.68L468.99 458.39L466.83 457.94L464.67 457.16L462.57 456.24L460.58 455.2L458.7 454.04L456.9 452.78L455.18 451.39L453.59 449.91L452.1 448.33L450.72 446.67L449.46 444.92L448.3 443.09L447.27 441.2L446.36 439.24L445.58 437.22L444.94 435.16L444.42 433.05L444.06 430.9L443.81 428.72L443.73 426.52L443.8 424.29L444 422.06L444.37 419.83L444.9 417.58L444.9 417.52L444.94 417.42L444.94 417.37L444.97 417.26L444.97 417.21L444.99 417.16L444.99 417.11L445.02 417L445.02 416.95L445.08 416.8L445.08 416.75L445.11 416.64L445.11 416.59L445.16 416.43L445.16 416.38L445.77 414.25L446.51 412.21L447.4 410.24L448.38 408.35L449.51 406.55L450.74 404.86L452.07 403.25L453.5 401.74L455.03 400.32L456.64 399.04L458.33 397.85L460.12 396.77L461.95 395.82L463.84 395.01L465.79 394.3L467.8 393.73L469.84 393.29L471.92 393L474.03 392.84L476.18 392.84L478.32 392.98L480.49 393.28ZM470.19 416.04L468.3 417.28L466.73 418.89L465.53 420.86L464.79 423.11L464.46 425.57L464.65 427.96L465.33 430.23L466.45 432.3L467.99 434.12L469.89 435.61L472.14 436.68L472.49 436.77L472.56 436.77L472.63 436.79L474.98 436.98L477.27 436.63L479.36 435.8L481.23 434.54L482.79 432.89L483.96 430.92L484.67 428.65L485.02 426.21L484.83 423.82L484.16 421.56L483.01 419.5L481.49 417.7L479.57 416.24L477.34 415.2L477.28 415.19L477.22 415.19L477.06 415.14L476.99 415.14L476.94 415.12L474.57 414.91L472.3 415.22L470.19 416.04Z" id="a5hbTk8z53"></path><path d="M480.49 393.28L482.65 393.73L484.81 394.51L486.89 395.42L488.88 396.46L490.78 397.62L492.58 398.88L494.28 400.27L495.89 401.76L497.38 403.33L498.76 404.99L500.03 406.74L501.17 408.58L502.21 410.46L503.11 412.42L503.89 414.44L504.54 416.5L505.04 418.61L505.43 420.76L505.65 422.94L505.74 425.14L505.69 427.37L505.48 429.6L505.1 431.84L504.58 434.09L504.56 434.14L504.56 434.19L504.53 434.29L504.53 434.35L504.49 434.45L504.49 434.5L504.46 434.61L504.46 434.66L504.42 434.76L504.42 434.81L504.39 434.92L504.39 434.97L504.35 435.07L504.35 435.13L504.3 435.28L503.69 437.41L502.95 439.45L502.09 441.42L501.08 443.31L499.97 445.11L498.75 446.81L497.41 448.42L495.98 449.92L494.44 451.34L492.83 452.64L491.13 453.82L489.36 454.89L487.53 455.84L485.63 456.65L483.67 457.36L481.68 457.94L479.62 458.37L477.54 458.66L475.43 458.82L473.3 458.82L471.16 458.68L468.99 458.39L466.83 457.94L464.67 457.16L462.57 456.24L460.58 455.2L458.7 454.04L456.9 452.78L455.18 451.39L453.59 449.91L452.1 448.33L450.72 446.67L449.46 444.92L448.3 443.09L447.27 441.2L446.36 439.24L445.58 437.22L444.94 435.16L444.42 433.05L444.06 430.9L443.81 428.72L443.73 426.52L443.8 424.29L444 422.06L444.37 419.83L444.9 417.58L444.9 417.52L444.94 417.42L444.94 417.37L444.97 417.26L444.97 417.21L444.99 417.16L444.99 417.11L445.02 417L445.02 416.95L445.08 416.8L445.08 416.75L445.11 416.64L445.11 416.59L445.16 416.43L445.16 416.38L445.77 414.25L446.51 412.21L447.4 410.24L448.38 408.35L449.51 406.55L450.74 404.86L452.07 403.25L453.5 401.74L455.03 400.32L456.64 399.04L458.33 397.85L460.12 396.77L461.95 395.82L463.84 395.01L465.79 394.3L467.8 393.73L469.84 393.29L471.92 393L474.03 392.84L476.18 392.84L478.32 392.98L480.49 393.28ZM470.19 416.04L468.3 417.28L466.73 418.89L465.53 420.86L464.79 423.11L464.46 425.57L464.65 427.96L465.33 430.23L466.45 432.3L467.99 434.12L469.89 435.61L472.14 436.68L472.49 436.77L472.56 436.77L472.63 436.79L474.98 436.98L477.27 436.63L479.36 435.8L481.23 434.54L482.79 432.89L483.96 430.92L484.67 428.65L485.02 426.21L484.83 423.82L484.16 421.56L483.01 419.5L481.49 417.7L479.57 416.24L477.34 415.2L477.28 415.19L477.22 415.19L477.06 415.14L476.99 415.14L476.94 415.12L474.57 414.91L472.3 415.22L470.19 416.04Z" id="ctleBUUQF"></path><path d="M321.7 632.65C494.37 631.71 633.58 490.97 632.65 318.3C631.71 145.63 490.97 6.42 318.3 7.35C145.63 8.29 6.42 149.01 7.35 321.7C8.29 494.37 149.03 633.58 321.7 632.65Z" id="a2jw2BtL4D"></path><path d="M321.7 632.65C494.37 631.71 633.58 490.97 632.65 318.3C631.71 145.63 490.97 6.42 318.3 7.35C145.63 8.29 6.42 149.01 7.35 321.7C8.29 494.37 149.03 633.58 321.7 632.65Z" id="d3yJszhgs5"></path><path d="M321.7 632.65C494.37 631.71 633.58 490.97 632.65 318.3C631.71 145.63 490.97 6.42 318.3 7.35C145.63 8.29 6.42 149.01 7.35 321.7C8.29 494.37 149.03 633.58 321.7 632.65Z" id="b3eOohBLFd"></path><path d="M321.7 632.65C494.37 631.71 633.58 490.97 632.65 318.3C631.71 145.63 490.97 6.42 318.3 7.35C145.63 8.29 6.42 149.01 7.35 321.7C8.29 494.37 149.03 633.58 321.7 632.65Z" id="c71xq9A8G"></path><path d="M100.95 224.12C100.76 189.87 166.26 161.76 247.24 161.31C328.22 160.88 394.02 188.29 394.21 222.53C394.4 256.78 328.9 284.9 247.92 285.33C166.94 285.78 101.14 258.37 100.95 224.12Z" id="g7sengvjy"></path><path d="M100.95 224.12C100.76 189.87 166.26 161.76 247.24 161.31C328.22 160.88 394.02 188.29 394.21 222.53C394.4 256.78 328.9 284.9 247.92 285.33C166.94 285.78 101.14 258.37 100.95 224.12Z" id="fzAivAhsc"></path><path d="M100.95 224.12C100.76 189.87 166.26 161.76 247.24 161.31C328.22 160.88 394.02 188.29 394.21 222.53C394.4 256.78 328.9 284.9 247.92 285.33C166.94 285.78 101.14 258.37 100.95 224.12Z" id="b9MBVa9Hw"></path><path d="M100.31 224.12C100.12 189.87 165.62 161.76 246.6 161.31C327.58 160.88 393.38 188.29 393.57 222.53C393.76 256.78 328.26 284.9 247.28 285.33C166.3 285.78 100.5 258.37 100.31 224.12Z" id="cSRuCnfXD"></path><path d="M94.28 251.97C94.25 251.97 94.01 251.97 93.57 251.97C93.7 275.1 94.67 460.06 94.8 483.18C94.8 483.18 94.8 483.18 94.8 483.18C94.8 517.08 161.34 544.35 243.15 543.95C324.94 543.56 391 515.6 390.8 481.58C390.72 466.21 390.32 389.26 389.58 250.78C389.21 250.78 388.98 250.78 388.87 250.78C381.71 281.9 318.89 306.7 241.93 306.7C164.99 306.7 101.86 283.11 94.28 251.97Z" id="h6zsyfXNJb"></path><path d="M94.28 258.44C94.25 258.44 94.01 258.44 93.57 258.44C93.7 281.06 94.67 461.92 94.8 484.53C94.8 484.53 94.8 484.53 94.8 484.53C94.8 517.68 161.34 544.34 243.15 543.95C324.94 543.57 391 516.23 390.8 482.96C390.72 467.93 390.32 392.69 389.58 257.28C389.21 257.28 388.98 257.28 388.87 257.28C381.71 287.71 318.89 311.96 241.93 311.96C164.99 311.96 101.86 288.89 94.28 258.44Z" id="a5qCdvaMYZ"></path><path d="M94.29 245C94.26 245 94.01 245 93.57 245C93.7 268.68 94.69 458.06 94.82 481.73C94.82 481.73 94.82 481.73 94.82 481.73C94.82 516.44 162.48 544.36 245.67 543.95C328.84 543.55 396.01 514.92 395.8 480.09C395.72 464.35 395.31 385.57 394.56 243.78C394.18 243.78 393.95 243.78 393.84 243.78C386.56 275.64 322.68 301.03 244.42 301.03C166.19 301.03 101.99 276.88 94.29 245Z" id="ceIUIHgnK"></path><path d="M94.29 245C94.26 245 94.01 245 93.56 245C93.69 268.68 94.7 458.06 94.83 481.73C94.83 481.73 94.83 481.73 94.83 481.73C94.83 516.44 163.5 544.36 247.92 543.95C332.33 543.55 400.5 514.92 400.29 480.09C400.21 464.35 399.79 385.57 399.03 243.78C398.65 243.78 398.41 243.78 398.3 243.78C390.91 275.64 326.08 301.03 246.66 301.03C167.26 301.03 102.11 276.88 94.29 245Z" id="doh6QNVs0"></path><path d="M246.93 165.62C246.76 131.39 312.25 103.27 393.24 102.83C474.22 102.38 540.02 129.8 540.21 164.05C540.39 198.3 474.9 226.4 393.9 226.85C312.92 227.29 247.12 199.87 246.93 165.62Z" id="b2ELHRLGu"></path><path d="M246.93 165.62C246.76 131.39 312.25 103.27 393.24 102.83C474.22 102.38 540.02 129.8 540.21 164.05C540.39 198.3 474.9 226.4 393.9 226.85C312.92 227.29 247.12 199.87 246.93 165.62Z" id="b1KghKWkyQ"></path><path d="M246.93 165.62C246.76 131.39 312.25 103.27 393.24 102.83C474.22 102.38 540.02 129.8 540.21 164.05C540.39 198.3 474.9 226.4 393.9 226.85C312.92 227.29 247.12 199.87 246.93 165.62Z" id="a34eKARc9V"></path><path d="M246.93 165.62C246.76 131.39 312.25 103.27 393.24 102.83C474.22 102.38 540.02 129.8 540.21 164.05C540.39 198.3 474.9 226.4 393.9 226.85C312.92 227.29 247.12 199.87 246.93 165.62Z" id="iKXi5MkwY"></path><path d="M237.31 187.48C237.27 187.48 237.01 187.48 236.58 187.48C236.71 211.75 237.72 405.92 237.84 430.19C237.84 430.19 237.84 430.19 237.84 430.19C237.84 465.78 307.31 494.4 392.71 493.99C478.1 493.57 547.24 464.53 547.03 428.51C546.94 412.33 546.53 331.44 545.77 185.8C545.37 185.8 545.13 185.8 545.02 185.8C537.55 218.5 471.24 244.4 391.55 244.82C311.85 245.23 245.32 220.05 237.31 187.48Z" id="b89iO3AI7"></path><path d="M237.31 187.48C237.27 187.48 237.01 187.48 236.58 187.48C236.71 211.75 237.72 405.92 237.84 430.19C237.84 430.19 237.84 430.19 237.84 430.19C237.84 465.78 307.31 494.4 392.71 493.99C478.1 493.57 547.24 464.53 547.03 428.51C546.94 412.33 546.53 331.44 545.77 185.8C545.37 185.8 545.13 185.8 545.02 185.8C537.55 218.5 471.24 244.4 391.55 244.82C311.85 245.23 245.32 220.05 237.31 187.48Z" id="cPkLoaNHC"></path><path d="M237.31 187.48C237.27 187.48 237.01 187.48 236.58 187.48C236.71 211.75 237.72 405.92 237.84 430.19C237.84 430.19 237.84 430.19 237.84 430.19C237.84 465.78 307.31 494.4 392.71 493.99C478.1 493.57 547.24 464.53 547.03 428.51C546.94 412.33 546.53 331.44 545.77 185.8C545.37 185.8 545.13 185.8 545.02 185.8C537.55 218.5 471.24 244.4 391.55 244.82C311.85 245.23 245.32 220.05 237.31 187.48Z" id="a3exa4H8IK"></path><path d="M237.31 187.48C237.27 187.48 237.01 187.48 236.58 187.48C236.71 211.75 237.72 405.92 237.84 430.19C237.84 430.19 237.84 430.19 237.84 430.19C237.84 465.78 307.31 494.4 392.71 493.99C478.1 493.57 547.24 464.53 547.03 428.51C546.94 412.33 546.53 331.44 545.77 185.8C545.37 185.8 545.13 185.8 545.02 185.8C537.55 218.5 471.24 244.4 391.55 244.82C311.85 245.23 245.32 220.05 237.31 187.48Z" id="e23I5YtEpx"></path></defs><g><g><g><use xlink:href="#a1lcXHNlbT" opacity="1" fill="#ffffff" fill-opacity="1"></use><g><use xlink:href="#a1lcXHNlbT" opacity="1" fill-opacity="0" stroke="#000000" stroke-width="1" stroke-opacity="0"></use></g></g><g><use xlink:href="#bWLHEpq8e" opacity="1" fill="#000000" fill-opacity="0"></use><g><use xlink:href="#bWLHEpq8e" opacity="1" fill-opacity="0" stroke="#000000" stroke-width="1" stroke-opacity="0"></use></g></g><g><use xlink:href="#a5hbTk8z53" opacity="1" fill="#000000" fill-opacity="0"></use><g><use xlink:href="#a5hbTk8z53" opacity="1" fill-opacity="0" stroke="#000000" stroke-width="1" stroke-opacity="0"></use></g></g><g><use xlink:href="#ctleBUUQF" opacity="1" fill="#000000" fill-opacity="0"></use><g><use xlink:href="#ctleBUUQF" opacity="1" fill-opacity="0" stroke="#000000" stroke-width="1" stroke-opacity="0"></use></g></g><g><use xlink:href="#a2jw2BtL4D" opacity="1" fill="#417192" fill-opacity="1"></use><g><use xlink:href="#a2jw2BtL4D" opacity="1" fill-opacity="0" stroke="#000000" stroke-width="1" stroke-opacity="0"></use></g></g><g><use xlink:href="#d3yJszhgs5" opacity="1" fill="#000000" fill-opacity="0"></use><g><use xlink:href="#d3yJszhgs5" opacity="1" fill-opacity="0" stroke="#000000" stroke-width="1" stroke-opacity="0"></use></g></g><g><use xlink:href="#b3eOohBLFd" opacity="1" fill="#000000" fill-opacity="0"></use><g><use xlink:href="#b3eOohBLFd" opacity="1" fill-opacity="0" stroke="#000000" stroke-width="1" stroke-opacity="0"></use></g></g><g><use xlink:href="#c71xq9A8G" opacity="1" fill="#000000" fill-opacity="0"></use><g><use xlink:href="#c71xq9A8G" opacity="1" fill-opacity="0" stroke="#000000" stroke-width="1" stroke-opacity="0"></use></g></g><g><use xlink:href="#g7sengvjy" opacity="1" fill="#ffffff" fill-opacity="1"></use><g><use xlink:href="#g7sengvjy" opacity="1" fill-opacity="0" stroke="#000000" stroke-width="1" stroke-opacity="0"></use></g></g><g><use xlink:href="#fzAivAhsc" opacity="1" fill="#000000" fill-opacity="0"></use><g><use xlink:href="#fzAivAhsc" opacity="1" fill-opacity="0" stroke="#000000" stroke-width="1" stroke-opacity="0"></use></g></g><g><use xlink:href="#b9MBVa9Hw" opacity="1" fill="#000000" fill-opacity="0"></use><g><use xlink:href="#b9MBVa9Hw" opacity="1" fill-opacity="0" stroke="#000000" stroke-width="1" stroke-opacity="0"></use></g></g><g><use xlink:href="#cSRuCnfXD" opacity="1" fill="#000000" fill-opacity="0"></use><g><use xlink:href="#cSRuCnfXD" opacity="1" fill-opacity="0" stroke="#417192" stroke-width="1" stroke-opacity="1"></use></g></g><g><use xlink:href="#h6zsyfXNJb" opacity="1" fill="#ffffff" fill-opacity="1"></use><g><use xlink:href="#h6zsyfXNJb" opacity="1" fill-opacity="0" stroke="#000000" stroke-width="1" stroke-opacity="0"></use></g></g><g><use xlink:href="#a5qCdvaMYZ" opacity="1" fill="#000000" fill-opacity="0"></use><g><use xlink:href="#a5qCdvaMYZ" opacity="1" fill-opacity="0" stroke="#000000" stroke-width="1" stroke-opacity="0"></use></g></g><g><use xlink:href="#ceIUIHgnK" opacity="1" fill="#000000" fill-opacity="0"></use><g><use xlink:href="#ceIUIHgnK" opacity="1" fill-opacity="0" stroke="#000000" stroke-width="1" stroke-opacity="0"></use></g></g><g><use xlink:href="#doh6QNVs0" opacity="1" fill="#000000" fill-opacity="0"></use><g><use xlink:href="#doh6QNVs0" opacity="1" fill-opacity="0" stroke="#417192" stroke-width="1" stroke-opacity="1"></use></g></g><g><use xlink:href="#b2ELHRLGu" opacity="1" fill="#ffffff" fill-opacity="1"></use><g><use xlink:href="#b2ELHRLGu" opacity="1" fill-opacity="0" stroke="#000000" stroke-width="1" stroke-opacity="0"></use></g></g><g><use xlink:href="#b1KghKWkyQ" opacity="1" fill="#000000" fill-opacity="0"></use><g><use xlink:href="#b1KghKWkyQ" opacity="1" fill-opacity="0" stroke="#000000" stroke-width="1" stroke-opacity="0"></use></g></g><g><use xlink:href="#a34eKARc9V" opacity="1" fill="#000000" fill-opacity="0"></use><g><use xlink:href="#a34eKARc9V" opacity="1" fill-opacity="0" stroke="#000000" stroke-width="1" stroke-opacity="0"></use></g></g><g><use xlink:href="#iKXi5MkwY" opacity="1" fill="#000000" fill-opacity="0"></use><g><use xlink:href="#iKXi5MkwY" opacity="1" fill-opacity="0" stroke="#417192" stroke-width="6" stroke-opacity="1"></use></g></g><g><use xlink:href="#b89iO3AI7" opacity="1" fill="#ffffff" fill-opacity="1"></use><g><use xlink:href="#b89iO3AI7" opacity="1" fill-opacity="0" stroke="#000000" stroke-width="1" stroke-opacity="0"></use></g></g><g><use xlink:href="#cPkLoaNHC" opacity="1" fill="#000000" fill-opacity="0"></use><g><use xlink:href="#cPkLoaNHC" opacity="1" fill-opacity="0" stroke="#000000" stroke-width="1" stroke-opacity="0"></use></g></g><g><use xlink:href="#a3exa4H8IK" opacity="1" fill="#000000" fill-opacity="0"></use><g><use xlink:href="#a3exa4H8IK" opacity="1" fill-opacity="0" stroke="#000000" stroke-width="1" stroke-opacity="0"></use></g></g><g><use xlink:href="#e23I5YtEpx" opacity="1" fill="#000000" fill-opacity="0"></use><g><use xlink:href="#e23I5YtEpx" opacity="1" fill-opacity="0" stroke="#417192" stroke-width="6" stroke-opacity="1"></use></g></g></g></g></svg>