<?xml version="1.0" encoding="UTF-8" standalone="no"?>
<!DOCTYPE svg PUBLIC "-//W3C//DTD SVG 1.1//EN" "http://www.w3.org/Graphics/SVG/1.1/DTD/svg11.dtd">
<svg version="1.1" xmlns="http://www.w3.org/2000/svg" xmlns:xlink="http://www.w3.org/1999/xlink" preserveAspectRatio="xMidYMid meet" viewBox="0 0 640 640" width="640" height="640"><defs><path d="M431.9 152.83L435.85 152.95L437.81 153.03L439.79 153.14L441.74 153.26L443.7 153.4L445.66 153.56L447.62 153.73L449.58 153.91L453.5 154.34L457.39 154.84L459.35 155.11L461.3 155.41L463.23 155.72L465.17 156.06L467.1 156.4L469.05 156.75L472.9 157.52L474.82 157.94L476.73 158.37L478.66 158.82L480.57 159.28L482.47 159.76L484.38 160.27L486.28 160.78L488.18 161.32L490.06 161.86L491.95 162.43L493.83 163.02L495.71 163.62L497.58 164.22L501.31 165.52L504.25 166.72L504.25 377.16L497.69 374.53L495.91 373.93L492.33 372.76L490.54 372.2L488.75 371.66L485.14 370.61L483.34 370.12L481.53 369.64L479.71 369.18L477.89 368.73L476.07 368.3L474.25 367.88L472.41 367.48L470.57 367.1L468.74 366.72L466.9 366.37L465.06 366.03L463.21 365.71L461.38 365.4L459.52 365.1L457.67 364.84L455.8 364.58L453.95 364.33L452.1 364.1L448.37 363.7L444.63 363.36L440.9 363.08L437.16 362.87L435.28 362.79L433.41 362.73L431.53 362.68L429.65 362.65L427.78 362.64L425.9 362.64L424.01 362.65L422.1 362.65L418.27 362.71L416.34 362.77L414.43 362.84L412.52 362.91L410.6 363.02L408.7 363.13L404.88 363.41L402.98 363.56L401.06 363.75L399.17 363.93L397.25 364.13L393.46 364.6L391.57 364.84L389.68 365.1L387.78 365.4L385.89 365.69L384.01 366L382.11 366.32L380.23 366.66L378.36 367.02L376.48 367.39L374.61 367.77L372.75 368.18L370.88 368.59L369.01 369.02L367.14 369.47L363.44 370.4L361.59 370.89L359.74 371.4L357.88 371.93L356.05 372.45L354.21 373.01L352.39 373.56L350.55 374.15L348.73 374.73L342.48 376.76L342.48 166.41L345.71 165.32L347.61 164.7L349.5 164.1L351.42 163.51L353.32 162.94L355.23 162.38L357.16 161.84L359.07 161.32L362.93 160.33L364.86 159.85L366.8 159.39L368.73 158.94L370.68 158.51L372.62 158.09L374.58 157.69L376.53 157.32L378.49 156.95L380.45 156.6L382.41 156.26L384.37 155.93L386.33 155.62L388.3 155.35L390.26 155.07L392.24 154.81L394.21 154.56L398.16 154.13L400.15 153.93L404.11 153.59L406.1 153.43L410.08 153.19L412.07 153.09L414.04 153L416.05 152.94L418.04 152.88L422.02 152.81L424.01 152.81L427.96 152.78L429.94 152.8L431.9 152.83ZM420.45 162.71L418.63 162.74L416.79 162.78L414.97 162.85L413.13 162.92L411.31 163L409.48 163.11L407.65 163.22L405.83 163.34L404.01 163.48L398.55 163.99L396.73 164.19L394.92 164.4L393.1 164.62L391.3 164.87L389.47 165.11L385.86 165.67L384.06 165.96L382.27 166.27L380.46 166.58L378.67 166.92L376.87 167.28L375.08 167.63L373.29 168L371.51 168.4L369.72 168.8L367.95 169.22L366.16 169.65L364.38 170.08L362.62 170.55L360.85 171.01L357.33 172L355.57 172.51L353.81 173.03L352.05 173.57L352.05 363.65L353.81 363.14L355.57 362.65L357.33 362.17L359.1 361.69L360.88 361.25L362.64 360.8L364.41 360.37L366.2 359.95L367.98 359.55L369.75 359.16L371.54 358.78L375.12 358.07L376.91 357.73L378.72 357.4L380.51 357.1L382.31 356.79L384.1 356.51L385.91 356.23L389.52 355.74L391.34 355.51L393.15 355.27L394.95 355.07L396.77 354.87L398.58 354.7L400.4 354.53L402.22 354.38L404.04 354.24L407.69 353.99L411.33 353.81L413.15 353.73L414.98 353.67L416.81 353.62L418.63 353.59L420.46 353.58L422.28 353.56L424.12 353.58L425.91 353.56L427.7 353.56L433.07 353.65L434.86 353.72L436.65 353.79L438.43 353.87L442.01 354.09L443.78 354.21L445.57 354.35L447.35 354.5L449.12 354.67L450.91 354.84L454.46 355.24L456.24 355.46L458.01 355.69L459.77 355.94L461.54 356.2L465.06 356.76L466.84 357.06L468.6 357.37L470.34 357.7L472.1 358.04L473.86 358.39L477.35 359.13L480.84 359.93L482.58 360.35L484.31 360.78L486.05 361.23L489.51 362.16L491.22 362.65L492.95 363.14L494.66 363.65L494.66 173.57L492.95 173.03L489.52 171.98L486.07 170.99L484.34 170.52L482.61 170.05L480.88 169.61L479.14 169.17L477.39 168.76L473.91 167.95L472.15 167.58L470.4 167.21L466.88 166.53L465.13 166.21L463.37 165.9L461.59 165.61L459.83 165.33L456.28 164.81L452.73 164.34L450.96 164.14L449.17 163.94L447.39 163.76L445.6 163.59L443.83 163.43L442.04 163.29L440.25 163.17L438.46 163.06L436.67 162.97L433.09 162.82L429.51 162.72L427.7 162.69L422.28 162.69L420.45 162.71Z" id="b2aAO3uZfJ"></path><path d="M431.9 152.83L435.85 152.95L437.81 153.03L439.79 153.14L441.74 153.26L443.7 153.4L445.66 153.56L447.62 153.73L449.58 153.91L453.5 154.34L457.39 154.84L459.35 155.11L461.3 155.41L463.23 155.72L465.17 156.06L467.1 156.4L469.05 156.75L472.9 157.52L474.82 157.94L476.73 158.37L478.66 158.82L480.57 159.28L482.47 159.76L484.38 160.27L486.28 160.78L488.18 161.32L490.06 161.86L491.95 162.43L493.83 163.02L495.71 163.62L497.58 164.22L501.31 165.52L504.25 166.72L504.25 377.16L497.69 374.53L495.91 373.93L492.33 372.76L490.54 372.2L488.75 371.66L485.14 370.61L483.34 370.12L481.53 369.64L479.71 369.18L477.89 368.73L476.07 368.3L474.25 367.88L472.41 367.48L470.57 367.1L468.74 366.72L466.9 366.37L465.06 366.03L463.21 365.71L461.38 365.4L459.52 365.1L457.67 364.84L455.8 364.58L453.95 364.33L452.1 364.1L448.37 363.7L444.63 363.36L440.9 363.08L437.16 362.87L435.28 362.79L433.41 362.73L431.53 362.68L429.65 362.65L427.78 362.64L425.9 362.64L424.01 362.65L422.1 362.65L418.27 362.71L416.34 362.77L414.43 362.84L412.52 362.91L410.6 363.02L408.7 363.13L404.88 363.41L402.98 363.56L401.06 363.75L399.17 363.93L397.25 364.13L393.46 364.6L391.57 364.84L389.68 365.1L387.78 365.4L385.89 365.69L384.01 366L382.11 366.32L380.23 366.66L378.36 367.02L376.48 367.39L374.61 367.77L372.75 368.18L370.88 368.59L369.01 369.02L367.14 369.47L363.44 370.4L361.59 370.89L359.74 371.4L357.88 371.93L356.05 372.45L354.21 373.01L352.39 373.56L350.55 374.15L348.73 374.73L342.48 376.76L342.48 166.41L345.71 165.32L347.61 164.7L349.5 164.1L351.42 163.51L353.32 162.94L355.23 162.38L357.16 161.84L359.07 161.32L362.93 160.33L364.86 159.85L366.8 159.39L368.73 158.94L370.68 158.51L372.62 158.09L374.58 157.69L376.53 157.32L378.49 156.95L380.45 156.6L382.41 156.26L384.37 155.93L386.33 155.62L388.3 155.35L390.26 155.07L392.24 154.81L394.21 154.56L398.16 154.13L400.15 153.93L404.11 153.59L406.1 153.43L410.08 153.19L412.07 153.09L414.04 153L416.05 152.94L418.04 152.88L422.02 152.81L424.01 152.81L427.96 152.78L429.94 152.8L431.9 152.83ZM420.45 162.71L418.63 162.74L416.79 162.78L414.97 162.85L413.13 162.92L411.31 163L409.48 163.11L407.65 163.22L405.83 163.34L404.01 163.48L398.55 163.99L396.73 164.19L394.92 164.4L393.1 164.62L391.3 164.87L389.47 165.11L385.86 165.67L384.06 165.96L382.27 166.27L380.46 166.58L378.67 166.92L376.87 167.28L375.08 167.63L373.29 168L371.51 168.4L369.72 168.8L367.95 169.22L366.16 169.65L364.38 170.08L362.62 170.55L360.85 171.01L357.33 172L355.57 172.51L353.81 173.03L352.05 173.57L352.05 363.65L353.81 363.14L355.57 362.65L357.33 362.17L359.1 361.69L360.88 361.25L362.64 360.8L364.41 360.37L366.2 359.95L367.98 359.55L369.75 359.16L371.54 358.78L375.12 358.07L376.91 357.73L378.72 357.4L380.51 357.1L382.31 356.79L384.1 356.51L385.91 356.23L389.52 355.74L391.34 355.51L393.15 355.27L394.95 355.07L396.77 354.87L398.58 354.7L400.4 354.53L402.22 354.38L404.04 354.24L407.69 353.99L411.33 353.81L413.15 353.73L414.98 353.67L416.81 353.62L418.63 353.59L420.46 353.58L422.28 353.56L424.12 353.58L425.91 353.56L427.7 353.56L433.07 353.65L434.86 353.72L436.65 353.79L438.43 353.87L442.01 354.09L443.78 354.21L445.57 354.35L447.35 354.5L449.12 354.67L450.91 354.84L454.46 355.24L456.24 355.46L458.01 355.69L459.77 355.94L461.54 356.2L465.06 356.76L466.84 357.06L468.6 357.37L470.34 357.7L472.1 358.04L473.86 358.39L477.35 359.13L480.84 359.93L482.58 360.35L484.31 360.78L486.05 361.23L489.51 362.16L491.22 362.65L492.95 363.14L494.66 363.65L494.66 173.57L492.95 173.03L489.52 171.98L486.07 170.99L484.34 170.52L482.61 170.05L480.88 169.61L479.14 169.17L477.39 168.76L473.91 167.95L472.15 167.58L470.4 167.21L466.88 166.53L465.13 166.21L463.37 165.9L461.59 165.61L459.83 165.33L456.28 164.81L452.73 164.34L450.96 164.14L449.17 163.94L447.39 163.76L445.6 163.59L443.83 163.43L442.04 163.29L440.25 163.17L438.46 163.06L436.67 162.97L433.09 162.82L429.51 162.72L427.7 162.69L422.28 162.69L420.45 162.71Z" id="b7YcUSXVJ"></path><path d="M338.55 384.92L510.19 384.92L510.19 181.74L519.66 181.74L519.66 394.4L519.66 394.4L338.55 394.4L338.55 384.92Z" id="aBUS7C5kL"></path><path d="M338.55 384.92L510.19 384.92L510.19 181.74L519.66 181.74L519.66 394.4L519.66 394.4L338.55 394.4L338.55 384.92Z" id="b40y1OfDdI"></path><path d="M320.34 633.54C146.2 633.54 5.02 492.73 5.02 319.05C5.02 145.38 146.2 4.57 320.34 4.57C494.49 4.57 635.67 145.38 635.67 319.05C635.67 492.73 494.49 633.54 320.34 633.54Z" id="d1vJk0qEQ2"></path><path d="M320.34 633.54C146.2 633.54 5.02 492.73 5.02 319.05C5.02 145.38 146.2 4.57 320.34 4.57C494.49 4.57 635.67 145.38 635.67 319.05C635.67 492.73 494.49 633.54 320.34 633.54Z" id="atqzmdb8b"></path><path d="M320.34 334.18C266.32 334.18 222.53 315.69 222.53 292.9C222.53 270.09 266.32 251.6 320.34 251.6C374.37 251.6 418.16 270.09 418.16 292.9C418.16 315.69 374.37 334.18 320.34 334.18Z" id="fFv15y3p"></path><path d="M320.34 334.18C266.32 334.18 222.53 315.69 222.53 292.9C222.53 270.09 266.32 251.6 320.34 251.6C374.37 251.6 418.16 270.09 418.16 292.9C418.16 315.69 374.37 334.18 320.34 334.18Z" id="dwMJx8L0S"></path><path d="M320.34 345.95C267.39 345.95 223.88 328.82 218.84 307.19C218.84 307.19 218.84 307.19 218.84 307.19C218.84 323.38 218.84 452.9 218.84 469.09C218.84 469.09 218.84 469.09 218.84 469.09C218.84 492.84 264.55 512.07 320.88 512.07C377.19 512.07 422.9 492.84 422.9 469.09C422.9 458.3 422.9 404.33 422.9 307.19C422.33 307.19 421.99 307.19 421.84 307.19C416.81 328.93 373.3 345.95 320.34 345.95Z" id="ctuamjyzC"></path><path d="M320.34 345.95C267.39 345.95 223.88 328.82 218.84 307.19C218.84 307.19 218.84 307.19 218.84 307.19C218.84 323.38 218.84 452.9 218.84 469.09C218.84 469.09 218.84 469.09 218.84 469.09C218.84 492.84 264.55 512.07 320.88 512.07C377.19 512.07 422.9 492.84 422.9 469.09C422.9 458.3 422.9 404.33 422.9 307.19C422.33 307.19 421.99 307.19 421.84 307.19C416.81 328.93 373.3 345.95 320.34 345.95Z" id="ap1mTINo5"></path><path d="M197.62 226.91L140.56 225.01L140.15 241.09L214.42 243.51L210.55 169.53L210.55 169.53L194.36 170.27L197.62 226.91Z" id="c5rsNQB0kx"></path><path d="M197.62 226.91L140.56 225.01L140.15 241.09L214.42 243.51L210.55 169.53L210.55 169.53L194.36 170.27L197.62 226.91Z" id="aBaTBOScu"></path><path d="M143.93 163.65L211.28 227.85L199.82 239.72L199.82 239.72L132.48 175.52L143.93 163.65Z" id="c5VedCrCR1"></path><path d="M143.93 163.65L211.28 227.85L199.82 239.72L199.82 239.72L132.48 175.52L143.93 163.65Z" id="f2HeMUAGfE"></path><path d="M449.28 232.15L451.16 175.21L435.08 174.79L432.67 248.87L506.85 244.98L506.85 244.98L506.11 228.9L449.28 232.15Z" id="a4EcdYcoJ7"></path><path d="M449.28 232.15L451.16 175.21L435.08 174.79L432.67 248.87L506.85 244.98L506.85 244.98L506.11 228.9L449.28 232.15Z" id="i4DuOoiJj4"></path><path d="M505.17 168.48L516.62 180.36L449.28 244.56L449.28 244.56L437.81 232.68L505.17 168.48Z" id="cIYfPx2IM"></path><path d="M505.17 168.48L516.62 180.36L449.28 244.56L449.28 244.56L437.81 232.68L505.17 168.48Z" id="f5oCpPC1P"></path><path d="M321.93 172.58L282.94 130.98L271.17 142.01L322.02 196.12L371.73 141.06L371.73 141.06L359.84 130.24L321.93 172.58Z" id="bjFFKEMiu"></path><path d="M321.93 172.58L282.94 130.98L271.17 142.01L322.02 196.12L371.73 141.06L371.73 141.06L359.84 130.24L321.93 172.58Z" id="axOb9xUEC"></path><path d="M329.69 87.06C329.69 143.79 329.69 175.32 329.69 181.61C329.69 181.61 329.69 181.61 329.69 181.61C319.8 181.61 314.3 181.61 313.19 181.61C313.19 181.61 313.19 181.61 313.19 181.61C313.19 124.88 313.19 93.35 313.19 87.06C313.19 87.06 313.19 87.06 313.19 87.06C323.1 87.06 328.59 87.06 329.69 87.06C329.69 87.06 329.69 87.06 329.69 87.06Z" id="c2byeSB98X"></path><path d="M329.69 87.06C329.69 143.79 329.69 175.32 329.69 181.61C329.69 181.61 329.69 181.61 329.69 181.61C319.8 181.61 314.3 181.61 313.19 181.61C313.19 181.61 313.19 181.61 313.19 181.61C313.19 124.88 313.19 93.35 313.19 87.06C313.19 87.06 313.19 87.06 313.19 87.06C323.1 87.06 328.59 87.06 329.69 87.06C329.69 87.06 329.69 87.06 329.69 87.06Z" id="b1psm1aYLA"></path><path d="M489.4 356.77L531.02 317.9L519.99 306.12L465.76 356.88L520.93 406.37L520.93 406.37L531.86 394.6L489.4 356.77Z" id="d12DDpxmny"></path><path d="M489.4 356.77L531.02 317.9L519.99 306.12L465.76 356.88L520.93 406.37L520.93 406.37L531.86 394.6L489.4 356.77Z" id="a2XI6lRlk8"></path><path d="M566.42 348.05C566.42 357.94 566.42 363.45 566.42 364.55C566.42 364.55 566.42 364.55 566.42 364.55C515.48 364.55 487.18 364.55 481.53 364.55C481.53 364.55 481.53 364.55 481.53 364.55C481.53 354.66 481.53 349.15 481.53 348.05C481.53 348.05 481.53 348.05 481.53 348.05C532.46 348.05 560.76 348.05 566.42 348.05C566.42 348.05 566.42 348.05 566.42 348.05Z" id="cn6yhKgzy"></path><path d="M566.42 348.05C566.42 357.94 566.42 363.45 566.42 364.55C566.42 364.55 566.42 364.55 566.42 364.55C515.48 364.55 487.18 364.55 481.53 364.55C481.53 364.55 481.53 364.55 481.53 364.55C481.53 354.66 481.53 349.15 481.53 348.05C481.53 348.05 481.53 348.05 481.53 348.05C532.46 348.05 560.76 348.05 566.42 348.05C566.42 348.05 566.42 348.05 566.42 348.05Z" id="a96e7LAe8"></path><path d="M149.5 355.83L107.79 394.7L118.93 406.37L173.14 355.72L117.97 306.12L117.97 306.12L107.04 318L149.5 355.83Z" id="b1QrB8zsqi"></path><path d="M149.5 355.83L107.79 394.7L118.93 406.37L173.14 355.72L117.97 306.12L117.97 306.12L107.04 318L149.5 355.83Z" id="bUthbdoN5"></path><path d="M157.59 348.05C157.59 357.94 157.59 363.45 157.59 364.55C157.59 364.55 157.59 364.55 157.59 364.55C107.6 364.55 79.82 364.55 74.27 364.55C74.27 364.55 74.27 364.55 74.27 364.55C74.27 354.66 74.27 349.15 74.27 348.05C74.27 348.05 74.27 348.05 74.27 348.05C124.25 348.05 152.03 348.05 157.59 348.05C157.59 348.05 157.59 348.05 157.59 348.05Z" id="bzhGUUI7v"></path><path d="M157.59 348.05C157.59 357.94 157.59 363.45 157.59 364.55C157.59 364.55 157.59 364.55 157.59 364.55C107.6 364.55 79.82 364.55 74.27 364.55C74.27 364.55 74.27 364.55 74.27 364.55C74.27 354.66 74.27 349.15 74.27 348.05C74.27 348.05 74.27 348.05 74.27 348.05C124.25 348.05 152.03 348.05 157.59 348.05C157.59 348.05 157.59 348.05 157.59 348.05Z" id="bIS1hS6I5"></path></defs><g><g><g><use xlink:href="#b2aAO3uZfJ" opacity="1" fill="#ffffff" fill-opacity="1"></use><g><use xlink:href="#b2aAO3uZfJ" opacity="1" fill-opacity="0" stroke="#000000" stroke-width="1" stroke-opacity="0"></use></g></g><g><use xlink:href="#b7YcUSXVJ" opacity="1" fill="#000000" fill-opacity="0"></use><g><use xlink:href="#b7YcUSXVJ" opacity="1" fill-opacity="0" stroke="#000000" stroke-width="1" stroke-opacity="0"></use></g></g><g><use xlink:href="#aBUS7C5kL" opacity="1" fill="#ffffff" fill-opacity="1"></use><g><use xlink:href="#aBUS7C5kL" opacity="1" fill-opacity="0" stroke="#000000" stroke-width="1" stroke-opacity="0"></use></g></g><g><use xlink:href="#b40y1OfDdI" opacity="1" fill="#000000" fill-opacity="0"></use><g><use xlink:href="#b40y1OfDdI" opacity="1" fill-opacity="0" stroke="#000000" stroke-width="1" stroke-opacity="0"></use></g></g><g><use xlink:href="#d1vJk0qEQ2" opacity="1" fill="#325c80" fill-opacity="1"></use><g><use xlink:href="#d1vJk0qEQ2" opacity="1" fill-opacity="0" stroke="#000000" stroke-width="1" stroke-opacity="0"></use></g></g><g><use xlink:href="#atqzmdb8b" opacity="1" fill="#000000" fill-opacity="0"></use><g><use xlink:href="#atqzmdb8b" opacity="1" fill-opacity="0" stroke="#000000" stroke-width="1" stroke-opacity="0"></use></g></g><g><use xlink:href="#fFv15y3p" opacity="1" fill="#ffffff" fill-opacity="1"></use><g><use xlink:href="#fFv15y3p" opacity="1" fill-opacity="0" stroke="#000000" stroke-width="1" stroke-opacity="0"></use></g></g><g><use xlink:href="#dwMJx8L0S" opacity="1" fill="#000000" fill-opacity="0"></use><g><use xlink:href="#dwMJx8L0S" opacity="1" fill-opacity="0" stroke="#000000" stroke-width="1" stroke-opacity="0"></use></g></g><g><use xlink:href="#ctuamjyzC" opacity="1" fill="#ffffff" fill-opacity="1"></use><g><use xlink:href="#ctuamjyzC" opacity="1" fill-opacity="0" stroke="#000000" stroke-width="1" stroke-opacity="0"></use></g></g><g><use xlink:href="#ap1mTINo5" opacity="1" fill="#000000" fill-opacity="0"></use><g><use xlink:href="#ap1mTINo5" opacity="1" fill-opacity="0" stroke="#000000" stroke-width="1" stroke-opacity="0"></use></g></g><g><use xlink:href="#c5rsNQB0kx" opacity="1" fill="#ffffff" fill-opacity="1"></use><g><use xlink:href="#c5rsNQB0kx" opacity="1" fill-opacity="0" stroke="#000000" stroke-width="1" stroke-opacity="0"></use></g></g><g><use xlink:href="#aBaTBOScu" opacity="1" fill="#000000" fill-opacity="0"></use><g><use xlink:href="#aBaTBOScu" opacity="1" fill-opacity="0" stroke="#000000" stroke-width="1" stroke-opacity="0"></use></g></g><g><use xlink:href="#c5VedCrCR1" opacity="1" fill="#ffffff" fill-opacity="1"></use><g><use xlink:href="#c5VedCrCR1" opacity="1" fill-opacity="0" stroke="#000000" stroke-width="1" stroke-opacity="0"></use></g></g><g><use xlink:href="#f2HeMUAGfE" opacity="1" fill="#000000" fill-opacity="0"></use><g><use xlink:href="#f2HeMUAGfE" opacity="1" fill-opacity="0" stroke="#000000" stroke-width="1" stroke-opacity="0"></use></g></g><g><use xlink:href="#a4EcdYcoJ7" opacity="1" fill="#ffffff" fill-opacity="1"></use><g><use xlink:href="#a4EcdYcoJ7" opacity="1" fill-opacity="0" stroke="#000000" stroke-width="1" stroke-opacity="0"></use></g></g><g><use xlink:href="#i4DuOoiJj4" opacity="1" fill="#000000" fill-opacity="0"></use><g><use xlink:href="#i4DuOoiJj4" opacity="1" fill-opacity="0" stroke="#000000" stroke-width="1" stroke-opacity="0"></use></g></g><g><use xlink:href="#cIYfPx2IM" opacity="1" fill="#ffffff" fill-opacity="1"></use><g><use xlink:href="#cIYfPx2IM" opacity="1" fill-opacity="0" stroke="#000000" stroke-width="1" stroke-opacity="0"></use></g></g><g><use xlink:href="#f5oCpPC1P" opacity="1" fill="#000000" fill-opacity="0"></use><g><use xlink:href="#f5oCpPC1P" opacity="1" fill-opacity="0" stroke="#000000" stroke-width="1" stroke-opacity="0"></use></g></g><g><use xlink:href="#bjFFKEMiu" opacity="1" fill="#ffffff" fill-opacity="1"></use><g><use xlink:href="#bjFFKEMiu" opacity="1" fill-opacity="0" stroke="#000000" stroke-width="1" stroke-opacity="0"></use></g></g><g><use xlink:href="#axOb9xUEC" opacity="1" fill="#000000" fill-opacity="0"></use><g><use xlink:href="#axOb9xUEC" opacity="1" fill-opacity="0" stroke="#000000" stroke-width="1" stroke-opacity="0"></use></g></g><g><use xlink:href="#c2byeSB98X" opacity="1" fill="#ffffff" fill-opacity="1"></use><g><use xlink:href="#c2byeSB98X" opacity="1" fill-opacity="0" stroke="#000000" stroke-width="1" stroke-opacity="0"></use></g></g><g><use xlink:href="#b1psm1aYLA" opacity="1" fill="#000000" fill-opacity="0"></use><g><use xlink:href="#b1psm1aYLA" opacity="1" fill-opacity="0" stroke="#000000" stroke-width="1" stroke-opacity="0"></use></g></g><g><use xlink:href="#d12DDpxmny" opacity="1" fill="#ffffff" fill-opacity="1"></use><g><use xlink:href="#d12DDpxmny" opacity="1" fill-opacity="0" stroke="#000000" stroke-width="1" stroke-opacity="0"></use></g></g><g><use xlink:href="#a2XI6lRlk8" opacity="1" fill="#000000" fill-opacity="0"></use><g><use xlink:href="#a2XI6lRlk8" opacity="1" fill-opacity="0" stroke="#000000" stroke-width="1" stroke-opacity="0"></use></g></g><g><use xlink:href="#cn6yhKgzy" opacity="1" fill="#ffffff" fill-opacity="1"></use><g><use xlink:href="#cn6yhKgzy" opacity="1" fill-opacity="0" stroke="#000000" stroke-width="1" stroke-opacity="0"></use></g></g><g><use xlink:href="#a96e7LAe8" opacity="1" fill="#000000" fill-opacity="0"></use><g><use xlink:href="#a96e7LAe8" opacity="1" fill-opacity="0" stroke="#000000" stroke-width="1" stroke-opacity="0"></use></g></g><g><use xlink:href="#b1QrB8zsqi" opacity="1" fill="#ffffff" fill-opacity="1"></use><g><use xlink:href="#b1QrB8zsqi" opacity="1" fill-opacity="0" stroke="#000000" stroke-width="1" stroke-opacity="0"></use></g></g><g><use xlink:href="#bUthbdoN5" opacity="1" fill="#000000" fill-opacity="0"></use><g><use xlink:href="#bUthbdoN5" opacity="1" fill-opacity="0" stroke="#000000" stroke-width="1" stroke-opacity="0"></use></g></g><g><use xlink:href="#bzhGUUI7v" opacity="1" fill="#ffffff" fill-opacity="1"></use><g><use xlink:href="#bzhGUUI7v" opacity="1" fill-opacity="0" stroke="#000000" stroke-width="1" stroke-opacity="0"></use></g></g><g><use xlink:href="#bIS1hS6I5" opacity="1" fill="#000000" fill-opacity="0"></use><g><use xlink:href="#bIS1hS6I5" opacity="1" fill-opacity="0" stroke="#000000" stroke-width="1" stroke-opacity="0"></use></g></g></g></g></svg>