<?xml version="1.0" encoding="UTF-8" standalone="no"?>
<!DOCTYPE svg PUBLIC "-//W3C//DTD SVG 1.1//EN" "http://www.w3.org/Graphics/SVG/1.1/DTD/svg11.dtd">
<svg version="1.1" xmlns="http://www.w3.org/2000/svg" xmlns:xlink="http://www.w3.org/1999/xlink" preserveAspectRatio="xMidYMid meet" viewBox="0 0 640 640" width="640" height="640"><defs><path d="M460.06 337.76L462.23 338.21L464.4 338.99L466.49 339.91L468.48 340.95L470.39 342.12L472.2 343.38L473.9 344.77L475.51 346.27L477.01 347.85L478.4 349.51L479.66 351.27L480.81 353.11L481.85 355L482.75 356.96L483.54 358.99L484.19 361.06L484.7 363.18L485.08 365.33L485.31 367.52L485.39 369.72L485.34 371.96L485.13 374.2L484.75 376.44L484.23 378.7L484.21 378.75L484.21 378.8L484.18 378.91L484.18 378.96L484.14 379.06L484.14 379.11L484.11 379.22L484.11 379.27L484.07 379.37L484.07 379.43L484.04 379.53L484.04 379.58L484 379.69L484 379.74L483.95 379.9L483.34 382.03L482.6 384.08L481.73 386.06L480.72 387.95L479.61 389.76L478.38 391.46L477.04 393.07L475.6 394.58L474.06 396.01L472.44 397.31L470.74 398.49L468.97 399.57L467.13 400.52L465.22 401.34L463.26 402.05L461.26 402.62L459.19 403.06L457.11 403.35L454.99 403.51L452.86 403.51L450.7 403.37L448.53 403.07L446.36 402.62L444.19 401.84L442.09 400.92L440.1 399.88L438.2 398.72L436.4 397.45L434.68 396.06L433.08 394.57L431.59 392.99L430.2 391.32L428.93 389.57L427.77 387.73L426.74 385.83L425.82 383.87L425.04 381.84L424.4 379.77L423.88 377.66L423.51 375.5L423.27 373.32L423.18 371.11L423.25 368.87L423.46 366.63L423.83 364.39L424.37 362.13L424.37 362.08L424.4 361.98L424.4 361.93L424.43 361.82L424.43 361.77L424.45 361.72L424.45 361.67L424.49 361.56L424.49 361.51L424.54 361.35L424.54 361.3L424.57 361.2L424.57 361.14L424.63 360.99L424.63 360.94L425.23 358.8L425.98 356.75L426.87 354.77L427.85 352.88L428.98 351.07L430.22 349.37L431.55 347.76L432.99 346.25L434.52 344.82L436.14 343.54L437.84 342.34L439.63 341.26L441.47 340.31L443.36 339.49L445.32 338.78L447.34 338.21L449.38 337.78L451.47 337.48L453.59 337.32L455.74 337.32L457.89 337.46L460.06 337.76ZM449.73 360.59L447.84 361.84L446.26 363.45L445.06 365.43L444.31 367.69L443.98 370.16L444.18 372.55L444.85 374.83L445.98 376.91L447.53 378.73L449.44 380.23L451.69 381.3L452.04 381.39L452.11 381.39L452.18 381.41L454.54 381.6L456.83 381.25L458.93 380.42L460.81 379.15L462.37 377.5L463.55 375.52L464.26 373.25L464.61 370.8L464.42 368.4L463.74 366.13L462.6 364.06L461.07 362.26L459.14 360.8L456.9 359.76L456.85 359.74L456.78 359.74L456.62 359.69L456.55 359.69L456.5 359.67L454.12 359.46L451.85 359.77L449.73 360.59Z" id="d3L7YeMUIn"></path><path d="M460.06 337.76L462.23 338.21L464.4 338.99L466.49 339.91L468.48 340.95L470.39 342.12L472.2 343.38L473.9 344.77L475.51 346.27L477.01 347.85L478.4 349.51L479.66 351.27L480.81 353.11L481.85 355L482.75 356.96L483.54 358.99L484.19 361.06L484.7 363.18L485.08 365.33L485.31 367.52L485.39 369.72L485.34 371.96L485.13 374.2L484.75 376.44L484.23 378.7L484.21 378.75L484.21 378.8L484.18 378.91L484.18 378.96L484.14 379.06L484.14 379.11L484.11 379.22L484.11 379.27L484.07 379.37L484.07 379.43L484.04 379.53L484.04 379.58L484 379.69L484 379.74L483.95 379.9L483.34 382.03L482.6 384.08L481.73 386.06L480.72 387.95L479.61 389.76L478.38 391.46L477.04 393.07L475.6 394.58L474.06 396.01L472.44 397.31L470.74 398.49L468.97 399.57L467.13 400.52L465.22 401.34L463.26 402.05L461.26 402.62L459.19 403.06L457.11 403.35L454.99 403.51L452.86 403.51L450.7 403.37L448.53 403.07L446.36 402.62L444.19 401.84L442.09 400.92L440.1 399.88L438.2 398.72L436.4 397.45L434.68 396.06L433.08 394.57L431.59 392.99L430.2 391.32L428.93 389.57L427.77 387.73L426.74 385.83L425.82 383.87L425.04 381.84L424.4 379.77L423.88 377.66L423.51 375.5L423.27 373.32L423.18 371.11L423.25 368.87L423.46 366.63L423.83 364.39L424.37 362.13L424.37 362.08L424.4 361.98L424.4 361.93L424.43 361.82L424.43 361.77L424.45 361.72L424.45 361.67L424.49 361.56L424.49 361.51L424.54 361.35L424.54 361.3L424.57 361.2L424.57 361.14L424.63 360.99L424.63 360.94L425.23 358.8L425.98 356.75L426.87 354.77L427.85 352.88L428.98 351.07L430.22 349.37L431.55 347.76L432.99 346.25L434.52 344.82L436.14 343.54L437.84 342.34L439.63 341.26L441.47 340.31L443.36 339.49L445.32 338.78L447.34 338.21L449.38 337.78L451.47 337.48L453.59 337.32L455.74 337.32L457.89 337.46L460.06 337.76ZM449.73 360.59L447.84 361.84L446.26 363.45L445.06 365.43L444.31 367.69L443.98 370.16L444.18 372.55L444.85 374.83L445.98 376.91L447.53 378.73L449.44 380.23L451.69 381.3L452.04 381.39L452.11 381.39L452.18 381.41L454.54 381.6L456.83 381.25L458.93 380.42L460.81 379.15L462.37 377.5L463.55 375.52L464.26 373.25L464.61 370.8L464.42 368.4L463.74 366.13L462.6 364.06L461.07 362.26L459.14 360.8L456.9 359.76L456.85 359.74L456.78 359.74L456.62 359.69L456.55 359.69L456.5 359.67L454.12 359.46L451.85 359.77L449.73 360.59Z" id="aaiB4dLIU"></path><path d="M7.64 321.58C7.64 494.82 148.06 635.24 321.29 635.24C494.51 635.24 634.95 494.82 634.95 321.58C634.95 148.35 494.51 7.93 321.29 7.93C148.06 7.93 7.64 148.35 7.64 321.58Z" id="e4KGu7YyBj"></path><path d="M7.64 321.58C7.64 494.82 148.06 635.24 321.29 635.24C494.51 635.24 634.95 494.82 634.95 321.58C634.95 148.35 494.51 7.93 321.29 7.93C148.06 7.93 7.64 148.35 7.64 321.58Z" id="b458937o3i"></path><path d="M321.29 249.87C240.05 249.87 174.18 222 174.18 187.66C174.18 153.3 240.05 125.45 321.29 125.45C402.54 125.45 468.4 153.3 468.4 187.66C468.4 222 402.54 249.87 321.29 249.87Z" id="b2RRcnDVsE"></path><path d="M321.29 249.87C240.05 249.87 174.18 222 174.18 187.66C174.18 153.3 240.05 125.45 321.29 125.45C402.54 125.45 468.4 153.3 468.4 187.66C468.4 222 402.54 249.87 321.29 249.87Z" id="aRyTMYYi1"></path><path d="M321.18 267.53C241.84 267.53 176.38 241.92 168.74 209.09C168.71 209.09 168.45 209.09 168.01 209.09C168.01 233.47 168.01 428.52 168.01 452.9C168.01 452.9 168.01 452.9 168.01 452.9C168.01 488.65 236.61 517.82 321.29 517.82C405.98 517.82 474.56 488.65 474.56 452.9C474.56 436.65 474.56 355.38 474.56 209.09C474.12 209.09 473.83 209.09 473.73 209.09C466.09 241.92 400.54 267.53 321.18 267.53Z" id="b1OODTTX8a"></path><path d="M321.18 267.53C241.84 267.53 176.38 241.92 168.74 209.09C168.71 209.09 168.45 209.09 168.01 209.09C168.01 233.47 168.01 428.52 168.01 452.9C168.01 452.9 168.01 452.9 168.01 452.9C168.01 488.65 236.61 517.82 321.29 517.82C405.98 517.82 474.56 488.65 474.56 452.9C474.56 436.65 474.56 355.38 474.56 209.09C474.12 209.09 473.83 209.09 473.73 209.09C466.09 241.92 400.54 267.53 321.18 267.53Z" id="b1V6Tto8u8"></path></defs><g><g><g><use xlink:href="#d3L7YeMUIn" opacity="1" fill="#ffffff" fill-opacity="1"></use><g><use xlink:href="#d3L7YeMUIn" opacity="1" fill-opacity="0" stroke="#000000" stroke-width="1" stroke-opacity="0"></use></g></g><g><use xlink:href="#aaiB4dLIU" opacity="1" fill="#000000" fill-opacity="0"></use><g><use xlink:href="#aaiB4dLIU" opacity="1" fill-opacity="0" stroke="#000000" stroke-width="1" stroke-opacity="0"></use></g></g><g><use xlink:href="#e4KGu7YyBj" opacity="1" fill="#417192" fill-opacity="1"></use><g><use xlink:href="#e4KGu7YyBj" opacity="1" fill-opacity="0" stroke="#000000" stroke-width="1" stroke-opacity="0"></use></g></g><g><use xlink:href="#b458937o3i" opacity="1" fill="#000000" fill-opacity="0"></use><g><use xlink:href="#b458937o3i" opacity="1" fill-opacity="0" stroke="#000000" stroke-width="1" stroke-opacity="0"></use></g></g><g><use xlink:href="#b2RRcnDVsE" opacity="1" fill="#ffffff" fill-opacity="1"></use><g><use xlink:href="#b2RRcnDVsE" opacity="1" fill-opacity="0" stroke="#000000" stroke-width="1" stroke-opacity="0"></use></g></g><g><use xlink:href="#aRyTMYYi1" opacity="1" fill="#000000" fill-opacity="0"></use><g><use xlink:href="#aRyTMYYi1" opacity="1" fill-opacity="0" stroke="#000000" stroke-width="1" stroke-opacity="0"></use></g></g><g><use xlink:href="#b1OODTTX8a" opacity="1" fill="#ffffff" fill-opacity="1"></use><g><use xlink:href="#b1OODTTX8a" opacity="1" fill-opacity="0" stroke="#000000" stroke-width="1" stroke-opacity="0"></use></g></g><g><use xlink:href="#b1V6Tto8u8" opacity="1" fill="#000000" fill-opacity="0"></use><g><use xlink:href="#b1V6Tto8u8" opacity="1" fill-opacity="0" stroke="#000000" stroke-width="1" stroke-opacity="0"></use></g></g></g></g></svg>