<?xml version="1.0" encoding="UTF-8" standalone="no"?>
<!DOCTYPE svg PUBLIC "-//W3C//DTD SVG 1.1//EN" "http://www.w3.org/Graphics/SVG/1.1/DTD/svg11.dtd">
<svg version="1.1" xmlns="http://www.w3.org/2000/svg" xmlns:xlink="http://www.w3.org/1999/xlink" preserveAspectRatio="xMidYMid meet" viewBox="0 0 640 640" width="640" height="640"><defs><path d="M7.8 321.48C7.8 496.07 149.32 637.6 323.9 637.6C498.48 637.6 640 496.07 640 321.48C640 146.9 498.48 5.38 323.9 5.38C149.32 5.38 7.8 146.9 7.8 321.48Z" id="d91ypSdbw"></path><path d="M7.8 321.48C7.8 496.07 149.32 637.6 323.9 637.6C498.48 637.6 640 496.07 640 321.48C640 146.9 498.48 5.38 323.9 5.38C149.32 5.38 7.8 146.9 7.8 321.48Z" id="b2vkInkTm"></path><path d="M323.9 249.08C242.04 249.08 175.67 221.05 175.67 186.47C175.67 151.89 242.04 123.86 323.9 123.86C405.76 123.86 472.13 151.89 472.13 186.47C472.13 221.05 405.76 249.08 323.9 249.08Z" id="e2d3LKjNGu"></path><path d="M323.9 249.08C242.04 249.08 175.67 221.05 175.67 186.47C175.67 151.89 242.04 123.86 323.9 123.86C405.76 123.86 472.13 151.89 472.13 186.47C472.13 221.05 405.76 249.08 323.9 249.08Z" id="a2JblQ7ce"></path><path d="M323.9 267.02C243.35 267.02 177.93 241.15 170.2 207.96C170.15 207.96 169.9 207.96 169.44 207.96C169.44 232.54 169.44 429.22 169.44 453.81C169.44 453.81 169.44 453.81 169.44 453.81C169.44 489.9 238.62 519.23 323.9 519.23C409.18 519.23 478.36 489.9 478.36 453.81C478.36 437.42 478.36 355.48 478.36 207.96C477.95 207.96 477.7 207.96 477.6 207.96C469.87 241.15 404.45 267.02 323.9 267.02Z" id="c6RSGzf8r"></path><path d="M323.9 267.02C243.35 267.02 177.93 241.15 170.2 207.96C170.15 207.96 169.9 207.96 169.44 207.96C169.44 232.54 169.44 429.22 169.44 453.81C169.44 453.81 169.44 453.81 169.44 453.81C169.44 489.9 238.62 519.23 323.9 519.23C409.18 519.23 478.36 489.9 478.36 453.81C478.36 437.42 478.36 355.48 478.36 207.96C477.95 207.96 477.7 207.96 477.6 207.96C469.87 241.15 404.45 267.02 323.9 267.02Z" id="a5O60MhXIT"></path></defs><g><g><g><use xlink:href="#d91ypSdbw" opacity="1" fill="#335d80" fill-opacity="1"></use><g><use xlink:href="#d91ypSdbw" opacity="1" fill-opacity="0" stroke="#000000" stroke-width="1" stroke-opacity="0"></use></g></g><g><use xlink:href="#b2vkInkTm" opacity="1" fill="#000000" fill-opacity="0"></use><g><use xlink:href="#b2vkInkTm" opacity="1" fill-opacity="0" stroke="#000000" stroke-width="1" stroke-opacity="0"></use></g></g><g><use xlink:href="#e2d3LKjNGu" opacity="1" fill="#ffffff" fill-opacity="1"></use><g><use xlink:href="#e2d3LKjNGu" opacity="1" fill-opacity="0" stroke="#000000" stroke-width="1" stroke-opacity="0"></use></g></g><g><use xlink:href="#a2JblQ7ce" opacity="1" fill="#000000" fill-opacity="0"></use><g><use xlink:href="#a2JblQ7ce" opacity="1" fill-opacity="0" stroke="#000000" stroke-width="1" stroke-opacity="0"></use></g></g><g><use xlink:href="#c6RSGzf8r" opacity="1" fill="#ffffff" fill-opacity="1"></use><g><use xlink:href="#c6RSGzf8r" opacity="1" fill-opacity="0" stroke="#000000" stroke-width="1" stroke-opacity="0"></use></g></g><g><use xlink:href="#a5O60MhXIT" opacity="1" fill="#000000" fill-opacity="0"></use><g><use xlink:href="#a5O60MhXIT" opacity="1" fill-opacity="0" stroke="#000000" stroke-width="1" stroke-opacity="0"></use></g></g></g></g></svg>