<?xml version="1.0" encoding="UTF-8" standalone="no"?>
<!DOCTYPE svg PUBLIC "-//W3C//DTD SVG 1.1//EN" "http://www.w3.org/Graphics/SVG/1.1/DTD/svg11.dtd">
<svg version="1.1" xmlns="http://www.w3.org/2000/svg" xmlns:xlink="http://www.w3.org/1999/xlink" preserveAspectRatio="xMidYMid meet" viewBox="0 0 640 640" width="640" height="640"><defs><path d="M473.16 329.41L475.34 329.86L477.51 330.64L479.6 331.56L481.6 332.61L483.52 333.78L485.33 335.05L487.03 336.44L488.65 337.93L490.15 339.52L491.54 341.19L492.81 342.95L493.96 344.79L495 346.69L495.91 348.66L496.69 350.69L497.35 352.76L497.86 354.89L498.24 357.05L498.47 359.24L498.55 361.45L498.5 363.69L498.29 365.94L497.91 368.19L497.39 370.45L497.37 370.5L497.37 370.55L497.34 370.66L497.34 370.71L497.3 370.81L497.3 370.87L497.27 370.97L497.27 371.02L497.23 371.13L497.23 371.18L497.2 371.28L497.2 371.34L497.16 371.44L497.16 371.49L497.11 371.65L496.5 373.79L495.75 375.84L494.88 377.83L493.87 379.72L492.76 381.53L491.52 383.24L490.18 384.86L488.74 386.37L487.19 387.8L485.57 389.11L483.86 390.29L482.09 391.37L480.24 392.33L478.33 393.14L476.36 393.86L474.36 394.43L472.29 394.87L470.2 395.16L468.08 395.32L465.94 395.32L463.78 395.18L461.6 394.88L459.43 394.43L457.25 393.65L455.15 392.73L453.14 391.68L451.25 390.52L449.44 389.25L447.71 387.85L446.11 386.36L444.62 384.77L443.22 383.1L441.95 381.34L440.79 379.5L439.76 377.6L438.84 375.63L438.05 373.6L437.41 371.53L436.89 369.4L436.52 367.25L436.28 365.05L436.19 362.84L436.26 360.6L436.47 358.35L436.83 356.11L437.37 353.84L437.37 353.79L437.41 353.69L437.41 353.63L437.44 353.53L437.44 353.48L437.46 353.43L437.46 353.37L437.5 353.27L437.5 353.22L437.55 353.06L437.55 353.01L437.58 352.9L437.58 352.85L437.64 352.69L437.64 352.64L438.24 350.5L438.99 348.45L439.88 346.46L440.87 344.57L442 342.76L443.24 341.05L444.58 339.43L446.02 337.92L447.56 336.49L449.18 335.2L450.88 334L452.67 332.92L454.52 331.96L456.42 331.15L458.38 330.43L460.4 329.86L462.46 329.42L464.54 329.13L466.67 328.97L468.83 328.97L470.98 329.11L473.16 329.41ZM462.8 352.29L460.91 353.55L459.32 355.17L458.12 357.15L457.37 359.41L457.04 361.88L457.23 364.29L457.91 366.57L459.04 368.65L460.59 370.48L462.51 371.98L464.77 373.06L465.12 373.15L465.19 373.15L465.26 373.16L467.62 373.35L469.92 373.01L472.03 372.17L473.91 370.9L475.47 369.25L476.66 367.26L477.37 364.98L477.72 362.53L477.53 360.13L476.85 357.85L475.7 355.78L474.17 353.97L472.24 352.5L469.99 351.46L469.94 351.44L469.87 351.44L469.71 351.39L469.64 351.39L469.59 351.37L467.21 351.16L464.93 351.48L462.8 352.29Z" id="i9WRxmXx"></path><path d="M473.16 329.41L475.34 329.86L477.51 330.64L479.6 331.56L481.6 332.61L483.52 333.78L485.33 335.05L487.03 336.44L488.65 337.93L490.15 339.52L491.54 341.19L492.81 342.95L493.96 344.79L495 346.69L495.91 348.66L496.69 350.69L497.35 352.76L497.86 354.89L498.24 357.05L498.47 359.24L498.55 361.45L498.5 363.69L498.29 365.94L497.91 368.19L497.39 370.45L497.37 370.5L497.37 370.55L497.34 370.66L497.34 370.71L497.3 370.81L497.3 370.87L497.27 370.97L497.27 371.02L497.23 371.13L497.23 371.18L497.2 371.28L497.2 371.34L497.16 371.44L497.16 371.49L497.11 371.65L496.5 373.79L495.75 375.84L494.88 377.83L493.87 379.72L492.76 381.53L491.52 383.24L490.18 384.86L488.74 386.37L487.19 387.8L485.57 389.11L483.86 390.29L482.09 391.37L480.24 392.33L478.33 393.14L476.36 393.86L474.36 394.43L472.29 394.87L470.2 395.16L468.08 395.32L465.94 395.32L463.78 395.18L461.6 394.88L459.43 394.43L457.25 393.65L455.15 392.73L453.14 391.68L451.25 390.52L449.44 389.25L447.71 387.85L446.11 386.36L444.62 384.77L443.22 383.1L441.95 381.34L440.79 379.5L439.76 377.6L438.84 375.63L438.05 373.6L437.41 371.53L436.89 369.4L436.52 367.25L436.28 365.05L436.19 362.84L436.26 360.6L436.47 358.35L436.83 356.11L437.37 353.84L437.37 353.79L437.41 353.69L437.41 353.63L437.44 353.53L437.44 353.48L437.46 353.43L437.46 353.37L437.5 353.27L437.5 353.22L437.55 353.06L437.55 353.01L437.58 352.9L437.58 352.85L437.64 352.69L437.64 352.64L438.24 350.5L438.99 348.45L439.88 346.46L440.87 344.57L442 342.76L443.24 341.05L444.58 339.43L446.02 337.92L447.56 336.49L449.18 335.2L450.88 334L452.67 332.92L454.52 331.96L456.42 331.15L458.38 330.43L460.4 329.86L462.46 329.42L464.54 329.13L466.67 328.97L468.83 328.97L470.98 329.11L473.16 329.41ZM462.8 352.29L460.91 353.55L459.32 355.17L458.12 357.15L457.37 359.41L457.04 361.88L457.23 364.29L457.91 366.57L459.04 368.65L460.59 370.48L462.51 371.98L464.77 373.06L465.12 373.15L465.19 373.15L465.26 373.16L467.62 373.35L469.92 373.01L472.03 372.17L473.91 370.9L475.47 369.25L476.66 367.26L477.37 364.98L477.72 362.53L477.53 360.13L476.85 357.85L475.7 355.78L474.17 353.97L472.24 352.5L469.99 351.46L469.94 351.44L469.87 351.44L469.71 351.39L469.64 351.39L469.59 351.37L467.21 351.16L464.93 351.48L462.8 352.29Z" id="i1XbrXRFn6"></path><path d="M320.52 633.18C146.57 633.18 5.57 492.82 5.57 319.69C5.57 146.55 146.57 6.21 320.52 6.21C494.46 6.21 635.48 146.55 635.48 319.69C635.48 492.82 494.46 633.18 320.52 633.18Z" id="a1TakCW0go"></path><path d="M320.52 633.18C146.57 633.18 5.57 492.82 5.57 319.69C5.57 146.55 146.57 6.21 320.52 6.21C494.46 6.21 635.48 146.55 635.48 319.69C635.48 492.82 494.46 633.18 320.52 633.18Z" id="f219VB6Y3P"></path><path d="M423.92 213.44L426.25 213.49L428.58 213.52L430.92 213.58L437.91 213.78L442.58 213.96L444.91 214.06L447.24 214.15L456.57 214.64L458.9 214.78L461.24 214.93L463.57 215.07L465.88 215.23L472.88 215.75L475.2 215.94L477.53 216.13L481.91 216.81L486.21 217.61L490.44 218.55L494.57 219.63L498.61 220.83L502.56 222.17L506.42 223.64L510.2 225.22L513.87 226.91L517.44 228.73L520.92 230.67L524.3 232.72L527.59 234.88L530.75 237.14L533.82 239.53L536.78 242L539.63 244.57L542.38 247.24L545.01 250L547.51 252.86L549.92 255.8L552.2 258.85L554.35 261.96L556.39 265.16L558.31 268.44L560.1 271.8L561.77 275.22L563.32 278.72L564.71 282.29L566 285.93L567.13 289.62L568.14 293.4L569.01 297.21L569.74 301.07L570.33 305L570.79 308.99L571.1 313.01L571.25 317.08L571.25 321.19L571.13 325.35L570.84 329.49L570.38 333.6L569.78 337.64L569.03 341.62L568.12 345.54L567.08 349.4L565.88 353.2L564.54 356.92L563.06 360.58L561.46 364.16L559.72 367.66L557.84 371.09L555.83 374.45L553.71 377.72L551.47 380.89L549.1 383.99L546.61 387L544.02 389.91L541.3 392.73L538.48 395.44L535.56 398.07L532.53 400.58L529.4 403L526.16 405.29L522.83 407.49L519.42 409.56L515.92 411.52L512.32 413.37L508.65 415.09L504.89 416.71L501.04 418.19L497.13 419.53L493.14 420.75L489.09 421.85L484.96 422.8L480.77 423.6L476.5 424.28L472.18 424.82L467.82 425.2L463.38 425.45L461.43 425.52L459.46 425.57L457.51 425.62L455.55 425.67L453.58 425.71L451.63 425.74L447.7 425.81L445.75 425.83L443.78 425.85L441.81 425.85L439.85 425.87L433.96 425.87L432 425.85L430.05 425.85L424.15 425.8L422.2 425.78L420.23 425.76L418.28 425.74L416.31 425.71L414.35 425.69L412.4 425.67L410.43 425.64L406.53 425.6L404.57 425.57L392.87 425.47L390.92 425.47L388.97 425.45L382.58 425.45L381.73 425.43L379.22 425.38L378.39 425.34L376.72 425.24L375.9 425.17L375.08 425.08L374.28 425L372.68 424.75L371.9 424.6L371.13 424.44L370.36 424.25L369.62 424.04L368.89 423.79L368.15 423.53L367.46 423.25L366.76 422.94L366.08 422.59L365.42 422.23L364.17 421.39L363.58 420.92L362.98 420.42L362.43 419.88L361.91 419.3L361.38 418.68L360.9 418.03L360.44 417.34L360.01 416.61L359.59 415.82L359.23 414.99L358.86 414.12L358.55 413.21L358.25 412.24L358.01 411.26L357.82 410.31L357.66 409.38L357.57 408.46L357.52 407.57L357.54 406.72L357.59 405.87L357.68 405.05L357.83 404.27L358.01 403.48L358.25 402.72L358.51 401.99L358.84 401.27L359.19 400.58L359.59 399.9L360.03 399.25L360.5 398.61L361 397.98L361.56 397.39L362.13 396.8L362.74 396.24L363.4 395.69L364.08 395.16L364.78 394.64L365.53 394.15L366.29 393.67L367.09 393.2L367.91 392.76L368.76 392.33L369.63 391.91L370.54 391.49L371.46 391.11L372.4 390.72L373.36 390.36L374.35 390.01L375.34 389.68L376.37 389.35L377.41 389.04L378.46 388.74L379.54 388.44L378.16 387.37L376.79 386.27L375.43 385.21L374.07 384.13L372.73 383.07L371.39 382.02L370.05 380.96L368.73 379.92L367.39 378.89L366.08 377.84L364.76 376.82L363.45 375.79L362.15 374.78L360.84 373.75L356.98 370.73L355.71 369.72L354.42 368.72L353.15 367.72L351.9 366.72L350.63 365.73L346.87 362.75L340.69 357.79L338.25 355.81L337.03 354.8L334.6 352.82L333.4 351.81L332.2 350.81L328.59 347.79L328.09 347.35L327.6 346.95L327.11 346.59L326.64 346.24L326.17 345.92L325.72 345.65L325.27 345.38L324.83 345.14L324.4 344.93L323.98 344.74L323.56 344.58L323.14 344.44L322.34 344.24L321.94 344.17L321.54 344.13L321.16 344.11L320.76 344.1L319.99 344.17L319.59 344.22L319.21 344.31L318.83 344.41L318.43 344.53L318.04 344.67L317.66 344.83L317.26 345L316.86 345.19L316.46 345.4L316.04 345.63L315.64 345.87L315.23 346.13L314.79 346.41L314.37 346.69L313.94 347L313.48 347.32L313.03 347.65L312.56 348L311.62 348.73L310.46 349.68L309.29 350.66L308.14 351.62L305.81 353.53L304.63 354.49L303.46 355.44L302.28 356.4L301.11 357.34L299.93 358.3L298.73 359.26L297.54 360.21L296.34 361.15L292.74 364.03L289.08 366.9L287.85 367.87L286.61 368.83L284.14 370.78L281.63 372.73L280.36 373.7L279.11 374.69L277.84 375.69L276.55 376.68L273.97 378.7L272.67 379.71L271.38 380.72L268.74 382.77L266.09 384.86L264.75 385.9L262.03 388.03L263.03 388.32L264.02 388.64L264.99 388.95L265.95 389.26L267.83 389.92L268.75 390.27L269.66 390.62L271.4 391.35L272.25 391.75L273.07 392.13L273.87 392.55L274.65 392.99L275.4 393.42L276.13 393.88L276.83 394.34L277.51 394.83L278.15 395.35L278.76 395.88L279.35 396.42L279.91 396.99L280.41 397.58L280.9 398.19L281.35 398.82L281.76 399.48L282.14 400.16L282.47 400.85L282.76 401.59L283.01 402.33L283.22 403.12L283.39 403.94L283.51 404.77L283.58 405.64L283.62 406.55L283.58 407.47L283.51 408.43L283.39 409.42L283.22 410.44L283.01 411.51L282.73 412.55L282.43 413.56L282.1 414.5L281.76 415.41L281.37 416.24L280.95 417.04L280.52 417.81L280.07 418.5L279.58 419.18L279.07 419.81L278.54 420.38L277.98 420.94L277.4 421.44L276.81 421.91L276.19 422.35L275.56 422.75L274.9 423.12L274.22 423.46L273.54 423.76L272.83 424.04L272.11 424.3L271.38 424.53L269.88 424.91L269.1 425.07L267.54 425.31L266.73 425.41L265.92 425.48L265.12 425.55L264.28 425.6L263.46 425.64L262.63 425.67L261.77 425.69L258.4 425.69L256.69 425.66L252.03 425.8L245.03 425.95L242.7 425.99L240.35 426.02L233.35 426.07L228.69 426.07L221.69 426.02L219.34 425.99L217.01 425.95L210.01 425.8L205.35 425.66L198.35 425.4L193.68 425.19L186.69 424.82L184.37 424.68L182.04 424.54L175.04 424.07L172.71 423.9L170.4 423.71L168.06 423.53L165.73 423.34L163.42 423.13L159.19 422.65L155.03 422L150.92 421.18L146.88 420.23L142.91 419.1L139.02 417.82L135.19 416.4L131.44 414.85L127.79 413.14L124.2 411.3L120.71 409.33L117.29 407.22L113.99 405L110.77 402.65L107.65 400.19L104.62 397.6L101.72 394.92L98.91 392.12L96.22 389.21L93.62 386.22L91.17 383.12L88.82 379.93L86.59 376.64L84.48 373.28L82.52 369.84L80.67 366.32L78.97 362.72L77.4 359.05L75.96 355.31L74.69 351.51L73.54 347.65L72.55 343.73L71.71 339.76L71.01 335.74L70.49 331.67L70.13 327.56L69.93 323.42L69.9 319.24L70.04 315.03L70.33 310.78L70.65 306.87L71.12 303L71.74 299.17L72.53 295.38L73.45 291.65L74.53 287.96L75.75 284.33L77.12 280.76L78.62 277.24L80.26 273.8L82.03 270.4L83.93 267.08L85.96 263.84L88.12 260.67L90.4 257.58L92.79 254.56L95.29 251.62L97.92 248.79L100.65 246.04L103.49 243.36L106.43 240.8L109.46 238.33L112.61 235.94L115.83 233.68L119.16 231.52L122.57 229.47L126.07 227.53L129.65 225.71L133.31 224L137.05 222.4L140.86 220.94L144.74 219.61L148.69 218.4L152.7 217.33L156.79 216.39L160.91 215.59L165.11 214.93L169.35 214.41L173.63 214.04L177.99 213.84L179.93 213.77L181.9 213.71L183.85 213.68L185.82 213.63L187.77 213.59L189.73 213.56L191.7 213.54L193.67 213.51L195.62 213.49L197.58 213.47L201.5 213.47L203.47 213.45L205.43 213.45L207.4 213.47L211.32 213.47L215.25 213.51L217.2 213.52L221.13 213.56L223.08 213.58L225.05 213.59L227 213.61L228.97 213.63L230.91 213.64L232.88 213.68L234.83 213.7L236.8 213.71L246.54 213.8L248.49 213.8L250.44 213.82L252.39 213.82L254.32 213.84L258.76 213.84L259.6 213.85L260.43 213.85L261.27 213.87L262.1 213.91L262.92 213.94L263.76 213.99L264.58 214.04L265.39 214.11L266.19 214.2L267.01 214.29L267.8 214.41L268.6 214.53L269.36 214.69L270.13 214.86L270.89 215.05L271.63 215.26L272.36 215.51L273.07 215.77L273.78 216.06L274.46 216.38L275.14 216.73L275.79 217.11L276.41 217.51L277.02 217.96L277.61 218.43L278.19 218.95L278.74 219.49L279.27 220.08L279.75 220.69L280.24 221.37L280.69 222.07L281.11 222.82L281.51 223.62L281.88 224.45L282.21 225.34L282.52 226.26L282.8 227.26L283.03 228.25L283.2 229.2L283.32 230.14L283.39 231.07L283.41 231.95L283.39 232.81L283.32 233.64L283.2 234.46L283.03 235.26L282.83 236.03L282.57 236.78L282.29 237.49L281.96 238.2L281.6 238.88L281.2 239.53L280.78 240.17L280.31 240.8L279.82 241.39L279.3 241.96L278.74 242.52L278.17 243.06L277.56 243.58L276.93 244.09L276.29 244.59L275.63 245.06L274.95 245.51L274.24 245.95L273.52 246.37L272.79 246.78L271.29 247.55L270.53 247.92L269.75 248.28L268.98 248.61L268.2 248.94L267.4 249.26L266.61 249.57L265.81 249.86L265.03 250.14L264.25 250.4L264.32 250.56L264.37 250.72L264.44 250.86L264.51 251.01L264.56 251.15L264.61 251.27L264.66 251.41L264.82 251.78L264.85 251.9L264.91 252.01L264.98 252.21L265.06 252.42L265.1 252.51L265.13 252.61L265.2 252.79L265.24 252.86L265.25 252.95L265.29 253.02L265.32 253.1L265.43 253.31L265.46 253.36L265.48 253.43L265.52 253.49L265.55 253.55L265.62 253.66L265.67 253.71L265.71 253.76L265.74 253.8L265.78 253.85L265.83 253.89L265.86 253.94L265.92 253.97L269.9 257.56L273.71 260.97L277.33 264.19L280.8 267.22L284.1 270.07L287.26 272.72L290.28 275.21L293.17 277.49L295.96 279.59L298.62 281.51L301.2 283.25L303.69 284.8L306.1 286.14L308.44 287.32L310.73 288.3L312.96 289.08L315.17 289.69L317.35 290.11L319.51 290.33L321.65 290.35L323.81 290.21L325.96 289.86L328.16 289.32L330.39 288.59L332.65 287.67L334.96 286.55L337.33 285.25L339.78 283.77L342.32 282.08L344.95 280.2L347.67 278.13L350.52 275.85L353.48 273.4L356.58 270.73L359.82 267.9L363.21 264.85L366.76 261.61L370.49 258.18L374.39 254.55L378.48 250.72L377.59 250.47L376.68 250.23L375.8 249.97L374.91 249.69L374.04 249.43L373.17 249.13L372.31 248.84L371.48 248.54L370.64 248.21L369.83 247.88L369.02 247.53L368.24 247.18L366.74 246.42L365.32 245.58L364.66 245.15L363.99 244.68L363.37 244.21L362.78 243.7L362.2 243.18L361.66 242.64L361.16 242.07L360.69 241.48L360.23 240.87L359.83 240.22L359.45 239.56L359.12 238.86L358.83 238.15L358.56 237.4L358.36 236.62L358.18 235.82L358.06 234.98L357.97 234.11L357.92 233.21L357.94 232.27L357.99 231.31L358.09 230.3L358.25 229.27L358.46 228.2L358.72 227.13L359 226.11L359.31 225.15L359.66 224.24L360.03 223.39L360.43 222.57L360.84 221.81L361.3 221.09L361.77 220.42L362.27 219.79L362.79 219.2L363.33 218.64L363.91 218.14L364.5 217.67L365.11 217.21L365.73 216.81L366.38 216.45L367.04 216.1L367.72 215.79L368.42 215.51L369.11 215.26L369.84 215.02L370.57 214.83L371.32 214.65L372.09 214.48L372.85 214.36L373.64 214.24L374.42 214.13L375.22 214.04L376.02 213.98L376.82 213.92L378.46 213.85L379.28 213.84L380.11 213.82L383.42 213.82L384.25 213.84L386.59 213.75L391.25 213.61L395.92 213.51L398.25 213.47L400.58 213.42L402.91 213.4L405.24 213.37L407.59 213.35L414.59 213.35L421.59 213.4L423.92 213.44ZM459.6 248.3L457.62 248.45L455.63 248.66L453.68 248.92L451.73 249.24L449.78 249.62L447.87 250.06L445.96 250.54L444.06 251.08L442.16 251.69L440.28 252.34L438.42 253.05L436.57 253.8L434.73 254.6L432.88 255.45L431.07 256.36L429.26 257.31L427.45 258.32L425.66 259.37L423.89 260.46L422.11 261.61L420.35 262.8L418.61 264.03L416.87 265.3L415.13 266.63L413.43 267.98L411.7 269.38L351.97 319.17L353.19 320.77L354.44 322.36L355.73 323.91L357.03 325.42L358.37 326.9L359.73 328.36L361.11 329.79L362.51 331.2L363.92 332.59L365.37 333.95L366.83 335.29L368.31 336.61L369.81 337.9L371.32 339.19L372.84 340.46L374.39 341.71L377.48 344.18L379.05 345.4L382.22 347.8L383.8 348.99L390.21 353.72L391.81 354.89L393.41 356.07L394.99 357.25L398.2 359.62L399.78 360.81L401.35 362.01L402.93 363.22L404.48 364.44L406.05 365.68L407.58 366.91L409.11 368.17L410.62 369.44L412.12 370.73L413.2 371.72L414.3 372.68L415.41 373.62L416.52 374.52L417.67 375.41L418.82 376.28L420 377.11L421.19 377.93L422.39 378.73L423.61 379.5L424.83 380.23L426.08 380.96L427.33 381.66L428.58 382.32L429.87 382.96L431.16 383.59L432.47 384.18L433.77 384.75L435.09 385.29L436.43 385.82L437.77 386.3L439.13 386.77L440.49 387.21L441.87 387.63L443.24 388.01L444.62 388.38L446.02 388.71L447.42 389L448.83 389.3L450.24 389.54L451.66 389.77L453.09 389.96L454.52 390.13L455.95 390.27L457.39 390.39L458.84 390.48L460.28 390.53L461.72 390.57L463.19 390.57L464.63 390.55L464.84 390.76L467.4 390.74L469.92 390.66L472.43 390.48L474.9 390.22L477.37 389.85L479.81 389.42L482.21 388.91L484.59 388.31L486.94 387.63L489.26 386.88L491.56 386.04L493.8 385.14L496.01 384.15L498.19 383.08L500.33 381.97L502.43 380.77L504.47 379.5L506.49 378.16L508.44 376.77L510.35 375.3L512.22 373.77L514.03 372.17L515.77 370.53L517.47 368.81L519.11 367.05L520.69 365.23L522.21 363.35L523.67 361.4L525.06 359.41L526.4 357.38L527.66 355.29L528.86 353.15L529.97 350.97L531.01 348.74L531.99 346.46L532.89 344.15L533.71 341.78L534.46 339.38L535.12 336.94L535.7 334.47L536.24 331.83L536.69 329.18L537.02 326.53L537.25 323.91L537.38 321.28L537.4 318.67L537.33 316.06L537.18 313.48L536.91 310.9L536.57 308.36L536.11 305.84L535.57 303.33L534.95 300.86L534.23 298.41L533.43 296.01L532.53 293.62L531.55 291.27L530.49 288.97L529.36 286.71L528.12 284.5L526.84 282.33L525.44 280.2L524 278.13L522.45 276.09L520.85 274.13L519.18 272.23L517.42 270.37L515.59 268.59L513.71 266.87L511.75 265.22L509.73 263.61L507.64 262.1L505.48 260.66L503.27 259.3L500.99 258.01L498.66 256.79L496.26 255.68L493.8 254.63L491.31 253.68L488.74 252.82L486.58 252.08L484.42 251.4L482.28 250.77L480.14 250.23L478.03 249.74L475.93 249.33L473.84 248.98L471.77 248.7L469.71 248.47L467.66 248.32L465.62 248.23L463.6 248.19L461.59 248.21L459.6 248.3ZM174.35 248.66L171.49 248.82L168.66 249.08L165.85 249.46L163.09 249.95L160.35 250.54L157.67 251.22L155.03 252.02L152.42 252.91L149.86 253.9L147.35 255L144.9 256.17L142.48 257.44L140.13 258.79L137.85 260.24L135.6 261.75L133.43 263.37L131.32 265.06L129.29 266.82L127.32 268.66L125.4 270.56L123.58 272.54L121.82 274.6L120.15 276.72L118.55 278.91L117.03 281.16L115.61 283.46L114.25 285.82L112.99 288.24L111.83 290.71L110.77 293.24L109.77 295.81L108.9 298.43L108.12 301.09L107.44 303.8L106.87 306.55L106.4 309.34L106.05 312.16L105.79 315.01L105.67 317.9L105.7 320.44L105.82 322.95L106.03 325.44L106.33 327.91L106.69 330.36L107.15 332.78L107.69 335.18L108.3 337.55L108.97 339.88L109.74 342.2L110.58 344.48L111.5 346.72L112.47 348.93L113.53 351.09L114.65 353.23L115.83 355.32L117.1 357.38L118.43 359.38L119.8 361.34L121.24 363.26L122.76 365.12L124.34 366.93L125.96 368.71L127.65 370.41L129.39 372.07L131.2 373.67L133.05 375.22L134.96 376.7L136.93 378.12L138.93 379.48L140.98 380.79L143.09 382L145.25 383.17L147.44 384.27L149.68 385.29L151.98 386.23L154.3 387.12L156.66 387.92L159.08 388.64L161.52 389.28L163.68 389.66L166.08 389.87L168.69 389.89L171.51 389.75L174.52 389.42L177.72 388.95L181.07 388.32L184.56 387.56L188.2 386.63L191.94 385.59L195.81 384.41L199.74 383.1L203.76 381.69L207.84 380.18L211.94 378.54L216.1 376.84L220.26 375.03L224.42 373.13L228.56 371.14L232.69 369.11L236.76 367L240.78 364.84L244.72 362.62L248.58 360.35L252.34 358.06L255.96 355.72L259.46 353.37L262.82 350.99L266.02 348.59L269.03 346.18L271.85 343.78L274.48 341.38L276.88 339L279.04 336.63L280.95 334.3L282.59 331.98L283.97 329.7L285.04 327.46L285.81 325.28L286.25 323.16L286.4 321.56L286.42 320.01L286.3 318.51L286.09 317.07L285.74 315.67L285.29 314.32L284.75 312.99L284.09 311.72L283.34 310.49L282.5 309.3L281.6 308.14L280.61 307.01L279.53 305.89L278.4 304.81L277.19 303.77L275.92 302.74L274.62 301.73L273.26 300.74L271.85 299.77L270.41 298.79L268.93 297.85L267.43 296.89L265.9 295.97L264.35 295.03L262.8 294.11L261.23 293.17L259.67 292.25L256.53 290.37L254.99 289.41L253.45 288.45L251.96 287.48L250.46 286.49L249.02 285.48L247.61 284.45L246.23 283.39L244.91 282.33L243.66 281.21L242.44 280.08L241.29 278.91L241.01 278.65L240.73 278.41L240.17 277.89L239.9 277.64L239.34 277.12L239.06 276.88L238.78 276.62L238.49 276.37L238.21 276.13L237.93 275.87L237.63 275.62L237.35 275.38L237.06 275.14L236.78 274.89L236.48 274.65L236.21 274.41L235.61 273.92L235.34 273.68L234.74 273.19L234.45 272.96L234.15 272.72L233.86 272.49L233.56 272.25L233.26 272.02L232.97 271.78L232.38 271.33L232.08 271.08L231.77 270.86L231.18 270.4L230.86 270.18L230.27 269.72L229.64 269.27L228.58 268.28L227.5 267.3L226.41 266.35L225.29 265.41L224.16 264.5L223.01 263.63L221.85 262.76L220.66 261.93L219.46 261.11L218.26 260.33L217.04 259.56L215.81 258.83L214.55 258.11L213.3 257.42L212.01 256.76L210.74 256.11L209.44 255.5L208.13 254.91L206.81 254.34L205.49 253.8L204.15 253.29L202.79 252.81L201.43 252.34L200.06 251.9L198.68 251.5L197.31 251.12L195.9 250.75L194.5 250.44L193.09 250.13L191.68 249.85L190.26 249.6L187.4 249.19L185.96 249.03L184.51 248.89L183.07 248.79L181.62 248.7L180.16 248.65L178.7 248.63L177.25 248.63L174.35 248.66Z" id="e2A9sX7KZn"></path><path d="M423.92 213.44L426.25 213.49L428.58 213.52L430.92 213.58L437.91 213.78L442.58 213.96L444.91 214.06L447.24 214.15L456.57 214.64L458.9 214.78L461.24 214.93L463.57 215.07L465.88 215.23L472.88 215.75L475.2 215.94L477.53 216.13L481.91 216.81L486.21 217.61L490.44 218.55L494.57 219.63L498.61 220.83L502.56 222.17L506.42 223.64L510.2 225.22L513.87 226.91L517.44 228.73L520.92 230.67L524.3 232.72L527.59 234.88L530.75 237.14L533.82 239.53L536.78 242L539.63 244.57L542.38 247.24L545.01 250L547.51 252.86L549.92 255.8L552.2 258.85L554.35 261.96L556.39 265.16L558.31 268.44L560.1 271.8L561.77 275.22L563.32 278.72L564.71 282.29L566 285.93L567.13 289.62L568.14 293.4L569.01 297.21L569.74 301.07L570.33 305L570.79 308.99L571.1 313.01L571.25 317.08L571.25 321.19L571.13 325.35L570.84 329.49L570.38 333.6L569.78 337.64L569.03 341.62L568.12 345.54L567.08 349.4L565.88 353.2L564.54 356.92L563.06 360.58L561.46 364.16L559.72 367.66L557.84 371.09L555.83 374.45L553.71 377.72L551.47 380.89L549.1 383.99L546.61 387L544.02 389.91L541.3 392.73L538.48 395.44L535.56 398.07L532.53 400.58L529.4 403L526.16 405.29L522.83 407.49L519.42 409.56L515.92 411.52L512.32 413.37L508.65 415.09L504.89 416.71L501.04 418.19L497.13 419.53L493.14 420.75L489.09 421.85L484.96 422.8L480.77 423.6L476.5 424.28L472.18 424.82L467.82 425.2L463.38 425.45L461.43 425.52L459.46 425.57L457.51 425.62L455.55 425.67L453.58 425.71L451.63 425.74L447.7 425.81L445.75 425.83L443.78 425.85L441.81 425.85L439.85 425.87L433.96 425.87L432 425.85L430.05 425.85L424.15 425.8L422.2 425.78L420.23 425.76L418.28 425.74L416.31 425.71L414.35 425.69L412.4 425.67L410.43 425.64L406.53 425.6L404.57 425.57L392.87 425.47L390.92 425.47L388.97 425.45L382.58 425.45L381.73 425.43L379.22 425.38L378.39 425.34L376.72 425.24L375.9 425.17L375.08 425.08L374.28 425L372.68 424.75L371.9 424.6L371.13 424.44L370.36 424.25L369.62 424.04L368.89 423.79L368.15 423.53L367.46 423.25L366.76 422.94L366.08 422.59L365.42 422.23L364.17 421.39L363.58 420.92L362.98 420.42L362.43 419.88L361.91 419.3L361.38 418.68L360.9 418.03L360.44 417.34L360.01 416.61L359.59 415.82L359.23 414.99L358.86 414.12L358.55 413.21L358.25 412.24L358.01 411.26L357.82 410.31L357.66 409.38L357.57 408.46L357.52 407.57L357.54 406.72L357.59 405.87L357.68 405.05L357.83 404.27L358.01 403.48L358.25 402.72L358.51 401.99L358.84 401.27L359.19 400.58L359.59 399.9L360.03 399.25L360.5 398.61L361 397.98L361.56 397.39L362.13 396.8L362.74 396.24L363.4 395.69L364.08 395.16L364.78 394.64L365.53 394.15L366.29 393.67L367.09 393.2L367.91 392.76L368.76 392.33L369.63 391.91L370.54 391.49L371.46 391.11L372.4 390.72L373.36 390.36L374.35 390.01L375.34 389.68L376.37 389.35L377.41 389.04L378.46 388.74L379.54 388.44L378.16 387.37L376.79 386.27L375.43 385.21L374.07 384.13L372.73 383.07L371.39 382.02L370.05 380.96L368.73 379.92L367.39 378.89L366.08 377.84L364.76 376.82L363.45 375.79L362.15 374.78L360.84 373.75L356.98 370.73L355.71 369.72L354.42 368.72L353.15 367.72L351.9 366.72L350.63 365.73L346.87 362.75L340.69 357.79L338.25 355.81L337.03 354.8L334.6 352.82L333.4 351.81L332.2 350.81L328.59 347.79L328.09 347.35L327.6 346.95L327.11 346.59L326.64 346.24L326.17 345.92L325.72 345.65L325.27 345.38L324.83 345.14L324.4 344.93L323.98 344.74L323.56 344.58L323.14 344.44L322.34 344.24L321.94 344.17L321.54 344.13L321.16 344.11L320.76 344.1L319.99 344.17L319.59 344.22L319.21 344.31L318.83 344.41L318.43 344.53L318.04 344.67L317.66 344.83L317.26 345L316.86 345.19L316.46 345.4L316.04 345.63L315.64 345.87L315.23 346.13L314.79 346.41L314.37 346.69L313.94 347L313.48 347.32L313.03 347.65L312.56 348L311.62 348.73L310.46 349.68L309.29 350.66L308.14 351.62L305.81 353.53L304.63 354.49L303.46 355.44L302.28 356.4L301.11 357.34L299.93 358.3L298.73 359.26L297.54 360.21L296.34 361.15L292.74 364.03L289.08 366.9L287.85 367.87L286.61 368.83L284.14 370.78L281.63 372.73L280.36 373.7L279.11 374.69L277.84 375.69L276.55 376.68L273.97 378.7L272.67 379.71L271.38 380.72L268.74 382.77L266.09 384.86L264.75 385.9L262.03 388.03L263.03 388.32L264.02 388.64L264.99 388.95L265.95 389.26L267.83 389.92L268.75 390.27L269.66 390.62L271.4 391.35L272.25 391.75L273.07 392.13L273.87 392.55L274.65 392.99L275.4 393.42L276.13 393.88L276.83 394.34L277.51 394.83L278.15 395.35L278.76 395.88L279.35 396.42L279.91 396.99L280.41 397.58L280.9 398.19L281.35 398.82L281.76 399.48L282.14 400.16L282.47 400.85L282.76 401.59L283.01 402.33L283.22 403.12L283.39 403.94L283.51 404.77L283.58 405.64L283.62 406.55L283.58 407.47L283.51 408.43L283.39 409.42L283.22 410.44L283.01 411.51L282.73 412.55L282.43 413.56L282.1 414.5L281.76 415.41L281.37 416.24L280.95 417.04L280.52 417.81L280.07 418.5L279.58 419.18L279.07 419.81L278.54 420.38L277.98 420.94L277.4 421.44L276.81 421.91L276.19 422.35L275.56 422.75L274.9 423.12L274.22 423.46L273.54 423.76L272.83 424.04L272.11 424.3L271.38 424.53L269.88 424.91L269.1 425.07L267.54 425.31L266.73 425.41L265.92 425.48L265.12 425.55L264.28 425.6L263.46 425.64L262.63 425.67L261.77 425.69L258.4 425.69L256.69 425.66L252.03 425.8L245.03 425.95L242.7 425.99L240.35 426.02L233.35 426.07L228.69 426.07L221.69 426.02L219.34 425.99L217.01 425.95L210.01 425.8L205.35 425.66L198.35 425.4L193.68 425.19L186.69 424.82L184.37 424.68L182.04 424.54L175.04 424.07L172.71 423.9L170.4 423.71L168.06 423.53L165.73 423.34L163.42 423.13L159.19 422.65L155.03 422L150.92 421.18L146.88 420.23L142.91 419.1L139.02 417.82L135.19 416.4L131.44 414.85L127.79 413.14L124.2 411.3L120.71 409.33L117.29 407.22L113.99 405L110.77 402.65L107.65 400.19L104.62 397.6L101.72 394.92L98.91 392.12L96.22 389.21L93.62 386.22L91.17 383.12L88.82 379.93L86.59 376.64L84.48 373.28L82.52 369.84L80.67 366.32L78.97 362.72L77.4 359.05L75.96 355.31L74.69 351.51L73.54 347.65L72.55 343.73L71.71 339.76L71.01 335.74L70.49 331.67L70.13 327.56L69.93 323.42L69.9 319.24L70.04 315.03L70.33 310.78L70.65 306.87L71.12 303L71.74 299.17L72.53 295.38L73.45 291.65L74.53 287.96L75.75 284.33L77.12 280.76L78.62 277.24L80.26 273.8L82.03 270.4L83.93 267.08L85.96 263.84L88.12 260.67L90.4 257.58L92.79 254.56L95.29 251.62L97.92 248.79L100.65 246.04L103.49 243.36L106.43 240.8L109.46 238.33L112.61 235.94L115.83 233.68L119.16 231.52L122.57 229.47L126.07 227.53L129.65 225.71L133.31 224L137.05 222.4L140.86 220.94L144.74 219.61L148.69 218.4L152.7 217.33L156.79 216.39L160.91 215.59L165.11 214.93L169.35 214.41L173.63 214.04L177.99 213.84L179.93 213.77L181.9 213.71L183.85 213.68L185.82 213.63L187.77 213.59L189.73 213.56L191.7 213.54L193.67 213.51L195.62 213.49L197.58 213.47L201.5 213.47L203.47 213.45L205.43 213.45L207.4 213.47L211.32 213.47L215.25 213.51L217.2 213.52L221.13 213.56L223.08 213.58L225.05 213.59L227 213.61L228.97 213.63L230.91 213.64L232.88 213.68L234.83 213.7L236.8 213.71L246.54 213.8L248.49 213.8L250.44 213.82L252.39 213.82L254.32 213.84L258.76 213.84L259.6 213.85L260.43 213.85L261.27 213.87L262.1 213.91L262.92 213.94L263.76 213.99L264.58 214.04L265.39 214.11L266.19 214.2L267.01 214.29L267.8 214.41L268.6 214.53L269.36 214.69L270.13 214.86L270.89 215.05L271.63 215.26L272.36 215.51L273.07 215.77L273.78 216.06L274.46 216.38L275.14 216.73L275.79 217.11L276.41 217.51L277.02 217.96L277.61 218.43L278.19 218.95L278.74 219.49L279.27 220.08L279.75 220.69L280.24 221.37L280.69 222.07L281.11 222.82L281.51 223.62L281.88 224.45L282.21 225.34L282.52 226.26L282.8 227.26L283.03 228.25L283.2 229.2L283.32 230.14L283.39 231.07L283.41 231.95L283.39 232.81L283.32 233.64L283.2 234.46L283.03 235.26L282.83 236.03L282.57 236.78L282.29 237.49L281.96 238.2L281.6 238.88L281.2 239.53L280.78 240.17L280.31 240.8L279.82 241.39L279.3 241.96L278.74 242.52L278.17 243.06L277.56 243.58L276.93 244.09L276.29 244.59L275.63 245.06L274.95 245.51L274.24 245.95L273.52 246.37L272.79 246.78L271.29 247.55L270.53 247.92L269.75 248.28L268.98 248.61L268.2 248.94L267.4 249.26L266.61 249.57L265.81 249.86L265.03 250.14L264.25 250.4L264.32 250.56L264.37 250.72L264.44 250.86L264.51 251.01L264.56 251.15L264.61 251.27L264.66 251.41L264.82 251.78L264.85 251.9L264.91 252.01L264.98 252.21L265.06 252.42L265.1 252.51L265.13 252.61L265.2 252.79L265.24 252.86L265.25 252.95L265.29 253.02L265.32 253.1L265.43 253.31L265.46 253.36L265.48 253.43L265.52 253.49L265.55 253.55L265.62 253.66L265.67 253.71L265.71 253.76L265.74 253.8L265.78 253.85L265.83 253.89L265.86 253.94L265.92 253.97L269.9 257.56L273.71 260.97L277.33 264.19L280.8 267.22L284.1 270.07L287.26 272.72L290.28 275.21L293.17 277.49L295.96 279.59L298.62 281.51L301.2 283.25L303.69 284.8L306.1 286.14L308.44 287.32L310.73 288.3L312.96 289.08L315.17 289.69L317.35 290.11L319.51 290.33L321.65 290.35L323.81 290.21L325.96 289.86L328.16 289.32L330.39 288.59L332.65 287.67L334.96 286.55L337.33 285.25L339.78 283.77L342.32 282.08L344.95 280.2L347.67 278.13L350.52 275.85L353.48 273.4L356.58 270.73L359.82 267.9L363.21 264.85L366.76 261.61L370.49 258.18L374.39 254.55L378.48 250.72L377.59 250.47L376.68 250.23L375.8 249.97L374.91 249.69L374.04 249.43L373.17 249.13L372.31 248.84L371.48 248.54L370.64 248.21L369.83 247.88L369.02 247.53L368.24 247.18L366.74 246.42L365.32 245.58L364.66 245.15L363.99 244.68L363.37 244.21L362.78 243.7L362.2 243.18L361.66 242.64L361.16 242.07L360.69 241.48L360.23 240.87L359.83 240.22L359.45 239.56L359.12 238.86L358.83 238.15L358.56 237.4L358.36 236.62L358.18 235.82L358.06 234.98L357.97 234.11L357.92 233.21L357.94 232.27L357.99 231.31L358.09 230.3L358.25 229.27L358.46 228.2L358.72 227.13L359 226.11L359.31 225.15L359.66 224.24L360.03 223.39L360.43 222.57L360.84 221.81L361.3 221.09L361.77 220.42L362.27 219.79L362.79 219.2L363.33 218.64L363.91 218.14L364.5 217.67L365.11 217.21L365.73 216.81L366.38 216.45L367.04 216.1L367.72 215.79L368.42 215.51L369.11 215.26L369.84 215.02L370.57 214.83L371.32 214.65L372.09 214.48L372.85 214.36L373.64 214.24L374.42 214.13L375.22 214.04L376.02 213.98L376.82 213.92L378.46 213.85L379.28 213.84L380.11 213.82L383.42 213.82L384.25 213.84L386.59 213.75L391.25 213.61L395.92 213.51L398.25 213.47L400.58 213.42L402.91 213.4L405.24 213.37L407.59 213.35L414.59 213.35L421.59 213.4L423.92 213.44ZM459.6 248.3L457.62 248.45L455.63 248.66L453.68 248.92L451.73 249.24L449.78 249.62L447.87 250.06L445.96 250.54L444.06 251.08L442.16 251.69L440.28 252.34L438.42 253.05L436.57 253.8L434.73 254.6L432.88 255.45L431.07 256.36L429.26 257.31L427.45 258.32L425.66 259.37L423.89 260.46L422.11 261.61L420.35 262.8L418.61 264.03L416.87 265.3L415.13 266.63L413.43 267.98L411.7 269.38L351.97 319.17L353.19 320.77L354.44 322.36L355.73 323.91L357.03 325.42L358.37 326.9L359.73 328.36L361.11 329.79L362.51 331.2L363.92 332.59L365.37 333.95L366.83 335.29L368.31 336.61L369.81 337.9L371.32 339.19L372.84 340.46L374.39 341.71L377.48 344.18L379.05 345.4L382.22 347.8L383.8 348.99L390.21 353.72L391.81 354.89L393.41 356.07L394.99 357.25L398.2 359.62L399.78 360.81L401.35 362.01L402.93 363.22L404.48 364.44L406.05 365.68L407.58 366.91L409.11 368.17L410.62 369.44L412.12 370.73L413.2 371.72L414.3 372.68L415.41 373.62L416.52 374.52L417.67 375.41L418.82 376.28L420 377.11L421.19 377.93L422.39 378.73L423.61 379.5L424.83 380.23L426.08 380.96L427.33 381.66L428.58 382.32L429.87 382.96L431.16 383.59L432.47 384.18L433.77 384.75L435.09 385.29L436.43 385.82L437.77 386.3L439.13 386.77L440.49 387.21L441.87 387.63L443.24 388.01L444.62 388.38L446.02 388.71L447.42 389L448.83 389.3L450.24 389.54L451.66 389.77L453.09 389.96L454.52 390.13L455.95 390.27L457.39 390.39L458.84 390.48L460.28 390.53L461.72 390.57L463.19 390.57L464.63 390.55L464.84 390.76L467.4 390.74L469.92 390.66L472.43 390.48L474.9 390.22L477.37 389.85L479.81 389.42L482.21 388.91L484.59 388.31L486.94 387.63L489.26 386.88L491.56 386.04L493.8 385.14L496.01 384.15L498.19 383.08L500.33 381.97L502.43 380.77L504.47 379.5L506.49 378.16L508.44 376.77L510.35 375.3L512.22 373.77L514.03 372.17L515.77 370.53L517.47 368.81L519.11 367.05L520.69 365.23L522.21 363.35L523.67 361.4L525.06 359.41L526.4 357.38L527.66 355.29L528.86 353.15L529.97 350.97L531.01 348.74L531.99 346.46L532.89 344.15L533.71 341.78L534.46 339.38L535.12 336.94L535.7 334.47L536.24 331.83L536.69 329.18L537.02 326.53L537.25 323.91L537.38 321.28L537.4 318.67L537.33 316.06L537.18 313.48L536.91 310.9L536.57 308.36L536.11 305.84L535.57 303.33L534.95 300.86L534.23 298.41L533.43 296.01L532.53 293.62L531.55 291.27L530.49 288.97L529.36 286.71L528.12 284.5L526.84 282.33L525.44 280.2L524 278.13L522.45 276.09L520.85 274.13L519.18 272.23L517.42 270.37L515.59 268.59L513.71 266.87L511.75 265.22L509.73 263.61L507.64 262.1L505.48 260.66L503.27 259.3L500.99 258.01L498.66 256.79L496.26 255.68L493.8 254.63L491.31 253.68L488.74 252.82L486.58 252.08L484.42 251.4L482.28 250.77L480.14 250.23L478.03 249.74L475.93 249.33L473.84 248.98L471.77 248.7L469.71 248.47L467.66 248.32L465.62 248.23L463.6 248.19L461.59 248.21L459.6 248.3ZM174.35 248.66L171.49 248.82L168.66 249.08L165.85 249.46L163.09 249.95L160.35 250.54L157.67 251.22L155.03 252.02L152.42 252.91L149.86 253.9L147.35 255L144.9 256.17L142.48 257.44L140.13 258.79L137.85 260.24L135.6 261.75L133.43 263.37L131.32 265.06L129.29 266.82L127.32 268.66L125.4 270.56L123.58 272.54L121.82 274.6L120.15 276.72L118.55 278.91L117.03 281.16L115.61 283.46L114.25 285.82L112.99 288.24L111.83 290.71L110.77 293.24L109.77 295.81L108.9 298.43L108.12 301.09L107.44 303.8L106.87 306.55L106.4 309.34L106.05 312.16L105.79 315.01L105.67 317.9L105.7 320.44L105.82 322.95L106.03 325.44L106.33 327.91L106.69 330.36L107.15 332.78L107.69 335.18L108.3 337.55L108.97 339.88L109.74 342.2L110.58 344.48L111.5 346.72L112.47 348.93L113.53 351.09L114.65 353.23L115.83 355.32L117.1 357.38L118.43 359.38L119.8 361.34L121.24 363.26L122.76 365.12L124.34 366.93L125.96 368.71L127.65 370.41L129.39 372.07L131.2 373.67L133.05 375.22L134.96 376.7L136.93 378.12L138.93 379.48L140.98 380.79L143.09 382L145.25 383.17L147.44 384.27L149.68 385.29L151.98 386.23L154.3 387.12L156.66 387.92L159.08 388.64L161.52 389.28L163.68 389.66L166.08 389.87L168.69 389.89L171.51 389.75L174.52 389.42L177.72 388.95L181.07 388.32L184.56 387.56L188.2 386.63L191.94 385.59L195.81 384.41L199.74 383.1L203.76 381.69L207.84 380.18L211.94 378.54L216.1 376.84L220.26 375.03L224.42 373.13L228.56 371.14L232.69 369.11L236.76 367L240.78 364.84L244.72 362.62L248.58 360.35L252.34 358.06L255.96 355.72L259.46 353.37L262.82 350.99L266.02 348.59L269.03 346.18L271.85 343.78L274.48 341.38L276.88 339L279.04 336.63L280.95 334.3L282.59 331.98L283.97 329.7L285.04 327.46L285.81 325.28L286.25 323.16L286.4 321.56L286.42 320.01L286.3 318.51L286.09 317.07L285.74 315.67L285.29 314.32L284.75 312.99L284.09 311.72L283.34 310.49L282.5 309.3L281.6 308.14L280.61 307.01L279.53 305.89L278.4 304.81L277.19 303.77L275.92 302.74L274.62 301.73L273.26 300.74L271.85 299.77L270.41 298.79L268.93 297.85L267.43 296.89L265.9 295.97L264.35 295.03L262.8 294.11L261.23 293.17L259.67 292.25L256.53 290.37L254.99 289.41L253.45 288.45L251.96 287.48L250.46 286.49L249.02 285.48L247.61 284.45L246.23 283.39L244.91 282.33L243.66 281.21L242.44 280.08L241.29 278.91L241.01 278.65L240.73 278.41L240.17 277.89L239.9 277.64L239.34 277.12L239.06 276.88L238.78 276.62L238.49 276.37L238.21 276.13L237.93 275.87L237.63 275.62L237.35 275.38L237.06 275.14L236.78 274.89L236.48 274.65L236.21 274.41L235.61 273.92L235.34 273.68L234.74 273.19L234.45 272.96L234.15 272.72L233.86 272.49L233.56 272.25L233.26 272.02L232.97 271.78L232.38 271.33L232.08 271.08L231.77 270.86L231.18 270.4L230.86 270.18L230.27 269.72L229.64 269.27L228.58 268.28L227.5 267.3L226.41 266.35L225.29 265.41L224.16 264.5L223.01 263.63L221.85 262.76L220.66 261.93L219.46 261.11L218.26 260.33L217.04 259.56L215.81 258.83L214.55 258.11L213.3 257.42L212.01 256.76L210.74 256.11L209.44 255.5L208.13 254.91L206.81 254.34L205.49 253.8L204.15 253.29L202.79 252.81L201.43 252.34L200.06 251.9L198.68 251.5L197.31 251.12L195.9 250.75L194.5 250.44L193.09 250.13L191.68 249.85L190.26 249.6L187.4 249.19L185.96 249.03L184.51 248.89L183.07 248.79L181.62 248.7L180.16 248.65L178.7 248.63L177.25 248.63L174.35 248.66Z" id="b1hYO8Z7Gx"></path></defs><g><g><g><use xlink:href="#i9WRxmXx" opacity="1" fill="#ffffff" fill-opacity="1"></use><g><use xlink:href="#i9WRxmXx" opacity="1" fill-opacity="0" stroke="#000000" stroke-width="1" stroke-opacity="0"></use></g></g><g><use xlink:href="#i1XbrXRFn6" opacity="1" fill="#000000" fill-opacity="0"></use><g><use xlink:href="#i1XbrXRFn6" opacity="1" fill-opacity="0" stroke="#000000" stroke-width="1" stroke-opacity="0"></use></g></g><g><use xlink:href="#a1TakCW0go" opacity="1" fill="#417192" fill-opacity="1"></use><g><use xlink:href="#a1TakCW0go" opacity="1" fill-opacity="0" stroke="#000000" stroke-width="1" stroke-opacity="0"></use></g></g><g><use xlink:href="#f219VB6Y3P" opacity="1" fill="#000000" fill-opacity="0"></use><g><use xlink:href="#f219VB6Y3P" opacity="1" fill-opacity="0" stroke="#000000" stroke-width="1" stroke-opacity="0"></use></g></g><g><use xlink:href="#e2A9sX7KZn" opacity="1" fill="#ffffff" fill-opacity="1"></use><g><use xlink:href="#e2A9sX7KZn" opacity="1" fill-opacity="0" stroke="#000000" stroke-width="1" stroke-opacity="0"></use></g></g><g><use xlink:href="#b1hYO8Z7Gx" opacity="1" fill="#000000" fill-opacity="0"></use><g><use xlink:href="#b1hYO8Z7Gx" opacity="1" fill-opacity="0" stroke="#000000" stroke-width="1" stroke-opacity="0"></use></g></g></g></g></svg>