<?xml version="1.0" encoding="UTF-8" standalone="no"?>
<!DOCTYPE svg PUBLIC "-//W3C//DTD SVG 1.1//EN" "http://www.w3.org/Graphics/SVG/1.1/DTD/svg11.dtd">
<svg version="1.1" xmlns="http://www.w3.org/2000/svg" xmlns:xlink="http://www.w3.org/1999/xlink" preserveAspectRatio="xMidYMid meet" viewBox="0 0 640 640" width="640" height="640"><defs><path d="M505.52 359.06L505.93 359.39L506.36 359.72L506.78 360.04L507.19 360.39L508.02 361.05L508.44 361.4L509.23 362.09L510.03 362.82L510.43 363.17L510.81 363.54L511.19 363.92L511.57 364.28L512.33 365.05L513.06 365.81L513.79 366.6L514.14 366.99L514.49 367.4L515.19 368.2L515.54 368.61L516.53 369.86L516.86 370.29L517.18 370.7L517.51 371.13L517.82 371.56L518.12 371.99L518.44 372.43L519.63 374.22L519.91 374.66L542.45 373.14L550.78 403.36L529.12 414.95L529.1 415.2L529.09 415.43L529.05 415.66L529.04 415.91L529 416.14L528.99 416.38L528.95 416.62L528.94 416.86L528.87 417.32L528.84 417.57L528.82 417.8L528.79 418.03L528.75 418.28L528.65 418.98L528.6 419.23L528.5 419.93L528.45 420.16L528.42 420.41L528.37 420.64L528.34 420.87L528.29 421.1L528.26 421.34L528.21 421.57L528.16 421.82L528.11 422.05L528.07 422.28L527.77 423.67L527.71 423.91L527.41 425.3L527.36 425.51L527.26 425.98L527.21 426.19L527.11 426.66L527.05 426.89L527 427.11L526.95 427.34L526.88 427.57L526.83 427.79L526.76 428.02L526.71 428.23L526.58 428.7L526.53 428.91L526.46 429.15L526.4 429.36L526.33 429.59L526.27 429.81L526.2 430.04L526.13 430.26L526.07 430.49L526 430.71L525.93 430.94L525.87 431.15L525.78 431.37L525.72 431.6L525.65 431.82L525.57 432.05L525.5 432.26L525.42 432.48L525.35 432.71L525.19 433.14L525.12 433.36L538.54 455.04L516.88 476.7L497.92 463.58L497.47 463.83L497.01 464.06L496.55 464.31L496.08 464.52L495.6 464.75L494.67 465.19L494.19 465.4L493.23 465.8L492.76 466L492.28 466.2L491.79 466.38L490.82 466.74L490.33 466.91L489.85 467.09L489.35 467.24L488.87 467.41L486.88 468.01L486.38 468.14L485.86 468.27L485.37 468.39L484.87 468.52L484.36 468.64L483.86 468.74L483.34 468.85L482.83 468.95L482.33 469.05L481.82 469.13L481.3 469.23L480.79 469.32L480.28 469.38L479.76 469.46L478.73 469.6L478.22 469.65L468.25 490.01L439.66 482.1L440.31 458.82L439.87 458.5L439.46 458.17L439.03 457.84L438.2 457.18L437.8 456.83L437.39 456.48L436.99 456.13L436.57 455.78L436.18 455.43L435.79 455.07L435.4 454.7L435.01 454.34L434.62 453.97L433.49 452.85L433.12 452.47L432.76 452.07L432.39 451.69L432.03 451.29L431.68 450.89L431.32 450.49L430.97 450.09L430.62 449.68L430.29 449.28L429.94 448.87L429.61 448.45L429.28 448.02L428.96 447.61L428.63 447.17L428.31 446.74L428 446.33L427.68 445.88L427.39 445.45L427.07 445L426.77 444.57L426.47 444.12L425.91 443.23L402.72 445.17L394.38 414.95L416.04 403.36L416.07 403.12L416.09 402.89L416.11 402.64L416.14 402.41L416.16 402.18L416.19 401.93L416.21 401.7L416.24 401.47L416.27 401.22L416.29 400.99L416.36 400.52L416.39 400.27L416.49 399.58L416.52 399.33L416.59 398.86L416.64 398.63L416.67 398.38L416.71 398.15L416.75 397.92L416.79 397.68L416.84 397.45L416.87 397.22L416.92 396.97L416.97 396.74L417 396.51L417.25 395.35L417.3 395.1L417.5 394.17L417.57 393.94L417.62 393.7L417.68 393.49L417.75 393.26L417.8 393.02L417.93 392.56L418 392.34L418.2 391.65L418.26 391.43L418.4 390.97L418.48 390.75L418.61 390.29L418.7 390.07L418.76 389.84L418.84 389.61L418.91 389.39L418.99 389.16L419.06 388.94L419.14 388.71L419.23 388.5L419.31 388.26L419.39 388.05L419.46 387.82L419.62 387.39L419.71 387.15L419.81 386.94L419.89 386.71L420.06 386.27L420.14 386.04L420.24 385.83L420.32 385.61L420.42 385.4L420.5 385.16L420.6 384.95L407.17 363.29L428.83 341.63L448 354.73L448.47 354.5L448.91 354.25L449.38 354.02L449.86 353.78L450.79 353.35L451.27 353.14L451.73 352.92L452.21 352.71L453.18 352.31L453.66 352.13L454.14 351.93L454.62 351.74L455.1 351.58L455.6 351.4L456.08 351.23L456.58 351.06L457.07 350.92L457.57 350.75L458.05 350.6L458.55 350.45L459.05 350.32L459.56 350.19L460.56 349.92L461.07 349.8L461.57 349.69L462.08 349.57L462.58 349.47L463.09 349.37L463.59 349.27L464.11 349.17L465.65 348.92L467.7 348.66L477.67 328.31L506.26 336.2L505.52 359.06ZM470.86 354.3L468.15 354.3L467.67 354.35L467.21 354.41L466.73 354.46L466.26 354.53L465.8 354.61L465.33 354.68L464.85 354.76L463.92 354.93L462.99 355.13L462.55 355.23L462.08 355.33L461.62 355.44L461.17 355.56L460.24 355.79L459.35 356.06L458.88 356.19L456.64 356.94L456.21 357.1L455.76 357.27L455.32 357.45L454.88 357.62L454.44 357.8L453.57 358.16L451.85 358.96L451.43 359.17L451 359.39L450.59 359.61L450.16 359.82L447.67 361.11L445.3 359.51L429.59 348.66L414.2 364.7L425.03 382.24L426.56 384.63L425.46 387.34L425.38 387.53L425.31 387.73L425.15 388.13L425.06 388.35L424.98 388.55L424.91 388.75L424.75 389.14L424.68 389.36L424.6 389.56L424.53 389.76L424.45 389.97L424.32 390.37L424.23 390.59L424.1 390.98L424.04 391.2L423.9 391.6L423.84 391.81L423.77 392.01L423.7 392.23L423.64 392.43L423.57 392.64L423.5 392.84L423.44 393.06L423.39 393.26L423.32 393.47L423.27 393.69L423.21 393.89L423.14 394.1L423.09 394.3L423.04 394.52L422.97 394.73L422.92 394.93L422.87 395.15L422.81 395.36L422.76 395.56L422.51 396.64L422.48 396.86L422.33 397.5L422.29 397.72L422.24 397.93L422.21 398.15L422.16 398.36L422.13 398.58L422.08 398.8L422.01 399.23L421.96 399.44L421.7 401.17L421.66 401.4L421.65 401.62L421.58 402.05L421.56 402.26L421.53 402.48L421.51 402.69L421.48 402.93L421.47 403.14L421.43 403.36L421.4 403.79L421.37 404L421.35 404.24L421.35 407.15L418.86 408.45L401.1 417.98L407.17 439.64L426.01 438.14L428.83 438.14L429.81 440.84L430.06 441.25L430.32 441.65L430.6 442.07L430.87 442.46L432 444.06L432.3 444.44L432.58 444.82L433.17 445.58L433.49 445.96L433.79 446.35L434.1 446.71L434.42 447.09L435.05 447.82L435.38 448.17L435.71 448.53L436.04 448.88L436.37 449.25L436.71 449.6L437.05 449.93L437.39 450.28L437.73 450.62L438.43 451.29L438.8 451.62L439.16 451.93L439.51 452.27L439.87 452.58L440.26 452.9L440.62 453.21L441 453.53L441.37 453.84L442.51 454.74L442.91 455.04L445.07 456.64L445.07 459.46L444.53 478.21L465.55 484.06L473.67 467.49L474.85 464.89L477.57 464.89L478.04 464.82L478.52 464.75L478.98 464.69L479.46 464.61L480.39 464.44L480.87 464.36L482.27 464.06L482.73 463.94L483.19 463.84L483.66 463.73L484.11 463.59L484.57 463.48L485.04 463.34L485.48 463.21L485.95 463.08L487.29 462.63L487.74 462.47L488.2 462.32L488.63 462.15L489.08 461.98L489.98 461.62L490.41 461.44L490.86 461.26L491.29 461.07L492.58 460.48L493.44 460.04L493.86 459.83L494.29 459.61L494.7 459.38L495.14 459.17L495.55 458.93L498.04 457.62L500.43 459.25L516.13 470.08L531.51 454.06L520.78 436.94L519.27 434.55L520.34 431.85L520.59 431.25L520.68 431.04L520.76 430.84L520.83 430.64L520.99 430.24L521.06 430.03L521.14 429.83L521.21 429.63L521.29 429.43L521.36 429.21L521.44 429.01L521.51 428.81L521.57 428.6L521.66 428.4L521.72 428.2L521.79 427.99L521.85 427.79L521.92 427.57L522.05 427.17L522.12 426.96L522.19 426.76L522.25 426.54L522.32 426.34L522.37 426.13L522.43 425.91L522.5 425.71L522.55 425.5L522.62 425.3L522.67 425.08L522.73 424.88L522.78 424.67L522.85 424.45L522.9 424.25L523 423.82L523.06 423.62L523.21 422.98L523.25 422.76L523.45 421.9L523.48 421.68L523.58 421.25L523.61 421.04L523.66 420.82L523.73 420.39L523.78 420.17L523.88 419.53L523.93 419.31L524.09 418.23L524.13 418L524.14 417.79L524.21 417.35L524.23 417.14L524.29 416.71L524.31 416.48L524.34 416.26L524.38 415.83L524.41 415.61L524.42 415.4L524.44 415.17L524.46 414.95L524.46 412.03L526.96 410.74L544.61 399.89L538.54 378.23L519.81 380.19L516.99 380.19L515.47 377.7L515.22 377.3L514.69 376.51L514.41 376.12L514.14 375.73L513.01 374.2L512.72 373.84L512.43 373.47L512.14 373.09L511.54 372.36L511.22 372.01L510.91 371.65L510.61 371.28L510.28 370.93L509.65 370.24L509.32 369.9L508.98 369.56L508.67 369.22L507.99 368.54L507.66 368.23L506.96 367.57L506.26 366.94L505.9 366.62L505.55 366.31L505.19 366.01L504.82 365.69L504.09 365.1L503.71 364.8L503.35 364.51L502.96 364.22L502.58 363.93L500.43 362.31L500.43 359.51L500.96 340.77L479.94 334.91L472.05 351.69L470.86 354.3Z" id="bNPBhUXhv"></path><path d="M505.52 359.06L505.93 359.39L506.36 359.72L506.78 360.04L507.19 360.39L508.02 361.05L508.44 361.4L509.23 362.09L510.03 362.82L510.43 363.17L510.81 363.54L511.19 363.92L511.57 364.28L512.33 365.05L513.06 365.81L513.79 366.6L514.14 366.99L514.49 367.4L515.19 368.2L515.54 368.61L516.53 369.86L516.86 370.29L517.18 370.7L517.51 371.13L517.82 371.56L518.12 371.99L518.44 372.43L519.63 374.22L519.91 374.66L542.45 373.14L550.78 403.36L529.12 414.95L529.1 415.2L529.09 415.43L529.05 415.66L529.04 415.91L529 416.14L528.99 416.38L528.95 416.62L528.94 416.86L528.87 417.32L528.84 417.57L528.82 417.8L528.79 418.03L528.75 418.28L528.65 418.98L528.6 419.23L528.5 419.93L528.45 420.16L528.42 420.41L528.37 420.64L528.34 420.87L528.29 421.1L528.26 421.34L528.21 421.57L528.16 421.82L528.11 422.05L528.07 422.28L527.77 423.67L527.71 423.91L527.41 425.3L527.36 425.51L527.26 425.98L527.21 426.19L527.11 426.66L527.05 426.89L527 427.11L526.95 427.34L526.88 427.57L526.83 427.79L526.76 428.02L526.71 428.23L526.58 428.7L526.53 428.91L526.46 429.15L526.4 429.36L526.33 429.59L526.27 429.81L526.2 430.04L526.13 430.26L526.07 430.49L526 430.71L525.93 430.94L525.87 431.15L525.78 431.37L525.72 431.6L525.65 431.82L525.57 432.05L525.5 432.26L525.42 432.48L525.35 432.71L525.19 433.14L525.12 433.36L538.54 455.04L516.88 476.7L497.92 463.58L497.47 463.83L497.01 464.06L496.55 464.31L496.08 464.52L495.6 464.75L494.67 465.19L494.19 465.4L493.23 465.8L492.76 466L492.28 466.2L491.79 466.38L490.82 466.74L490.33 466.91L489.85 467.09L489.35 467.24L488.87 467.41L486.88 468.01L486.38 468.14L485.86 468.27L485.37 468.39L484.87 468.52L484.36 468.64L483.86 468.74L483.34 468.85L482.83 468.95L482.33 469.05L481.82 469.13L481.3 469.23L480.79 469.32L480.28 469.38L479.76 469.46L478.73 469.6L478.22 469.65L468.25 490.01L439.66 482.1L440.31 458.82L439.87 458.5L439.46 458.17L439.03 457.84L438.2 457.18L437.8 456.83L437.39 456.48L436.99 456.13L436.57 455.78L436.18 455.43L435.79 455.07L435.4 454.7L435.01 454.34L434.62 453.97L433.49 452.85L433.12 452.47L432.76 452.07L432.39 451.69L432.03 451.29L431.68 450.89L431.32 450.49L430.97 450.09L430.62 449.68L430.29 449.28L429.94 448.87L429.61 448.45L429.28 448.02L428.96 447.61L428.63 447.17L428.31 446.74L428 446.33L427.68 445.88L427.39 445.45L427.07 445L426.77 444.57L426.47 444.12L425.91 443.23L402.72 445.17L394.38 414.95L416.04 403.36L416.07 403.12L416.09 402.89L416.11 402.64L416.14 402.41L416.16 402.18L416.19 401.93L416.21 401.7L416.24 401.47L416.27 401.22L416.29 400.99L416.36 400.52L416.39 400.27L416.49 399.58L416.52 399.33L416.59 398.86L416.64 398.63L416.67 398.38L416.71 398.15L416.75 397.92L416.79 397.68L416.84 397.45L416.87 397.22L416.92 396.97L416.97 396.74L417 396.51L417.25 395.35L417.3 395.1L417.5 394.17L417.57 393.94L417.62 393.7L417.68 393.49L417.75 393.26L417.8 393.02L417.93 392.56L418 392.34L418.2 391.65L418.26 391.43L418.4 390.97L418.48 390.75L418.61 390.29L418.7 390.07L418.76 389.84L418.84 389.61L418.91 389.39L418.99 389.16L419.06 388.94L419.14 388.71L419.23 388.5L419.31 388.26L419.39 388.05L419.46 387.82L419.62 387.39L419.71 387.15L419.81 386.94L419.89 386.71L420.06 386.27L420.14 386.04L420.24 385.83L420.32 385.61L420.42 385.4L420.5 385.16L420.6 384.95L407.17 363.29L428.83 341.63L448 354.73L448.47 354.5L448.91 354.25L449.38 354.02L449.86 353.78L450.79 353.35L451.27 353.14L451.73 352.92L452.21 352.71L453.18 352.31L453.66 352.13L454.14 351.93L454.62 351.74L455.1 351.58L455.6 351.4L456.08 351.23L456.58 351.06L457.07 350.92L457.57 350.75L458.05 350.6L458.55 350.45L459.05 350.32L459.56 350.19L460.56 349.92L461.07 349.8L461.57 349.69L462.08 349.57L462.58 349.47L463.09 349.37L463.59 349.27L464.11 349.17L465.65 348.92L467.7 348.66L477.67 328.31L506.26 336.2L505.52 359.06ZM470.86 354.3L468.15 354.3L467.67 354.35L467.21 354.41L466.73 354.46L466.26 354.53L465.8 354.61L465.33 354.68L464.85 354.76L463.92 354.93L462.99 355.13L462.55 355.23L462.08 355.33L461.62 355.44L461.17 355.56L460.24 355.79L459.35 356.06L458.88 356.19L456.64 356.94L456.21 357.1L455.76 357.27L455.32 357.45L454.88 357.62L454.44 357.8L453.57 358.16L451.85 358.96L451.43 359.17L451 359.39L450.59 359.61L450.16 359.82L447.67 361.11L445.3 359.51L429.59 348.66L414.2 364.7L425.03 382.24L426.56 384.63L425.46 387.34L425.38 387.53L425.31 387.73L425.15 388.13L425.06 388.35L424.98 388.55L424.91 388.75L424.75 389.14L424.68 389.36L424.6 389.56L424.53 389.76L424.45 389.97L424.32 390.37L424.23 390.59L424.1 390.98L424.04 391.2L423.9 391.6L423.84 391.81L423.77 392.01L423.7 392.23L423.64 392.43L423.57 392.64L423.5 392.84L423.44 393.06L423.39 393.26L423.32 393.47L423.27 393.69L423.21 393.89L423.14 394.1L423.09 394.3L423.04 394.52L422.97 394.73L422.92 394.93L422.87 395.15L422.81 395.36L422.76 395.56L422.51 396.64L422.48 396.86L422.33 397.5L422.29 397.72L422.24 397.93L422.21 398.15L422.16 398.36L422.13 398.58L422.08 398.8L422.01 399.23L421.96 399.44L421.7 401.17L421.66 401.4L421.65 401.62L421.58 402.05L421.56 402.26L421.53 402.48L421.51 402.69L421.48 402.93L421.47 403.14L421.43 403.36L421.4 403.79L421.37 404L421.35 404.24L421.35 407.15L418.86 408.45L401.1 417.98L407.17 439.64L426.01 438.14L428.83 438.14L429.81 440.84L430.06 441.25L430.32 441.65L430.6 442.07L430.87 442.46L432 444.06L432.3 444.44L432.58 444.82L433.17 445.58L433.49 445.96L433.79 446.35L434.1 446.71L434.42 447.09L435.05 447.82L435.38 448.17L435.71 448.53L436.04 448.88L436.37 449.25L436.71 449.6L437.05 449.93L437.39 450.28L437.73 450.62L438.43 451.29L438.8 451.62L439.16 451.93L439.51 452.27L439.87 452.58L440.26 452.9L440.62 453.21L441 453.53L441.37 453.84L442.51 454.74L442.91 455.04L445.07 456.64L445.07 459.46L444.53 478.21L465.55 484.06L473.67 467.49L474.85 464.89L477.57 464.89L478.04 464.82L478.52 464.75L478.98 464.69L479.46 464.61L480.39 464.44L480.87 464.36L482.27 464.06L482.73 463.94L483.19 463.84L483.66 463.73L484.11 463.59L484.57 463.48L485.04 463.34L485.48 463.21L485.95 463.08L487.29 462.63L487.74 462.47L488.2 462.32L488.63 462.15L489.08 461.98L489.98 461.62L490.41 461.44L490.86 461.26L491.29 461.07L492.58 460.48L493.44 460.04L493.86 459.83L494.29 459.61L494.7 459.38L495.14 459.17L495.55 458.93L498.04 457.62L500.43 459.25L516.13 470.08L531.51 454.06L520.78 436.94L519.27 434.55L520.34 431.85L520.59 431.25L520.68 431.04L520.76 430.84L520.83 430.64L520.99 430.24L521.06 430.03L521.14 429.83L521.21 429.63L521.29 429.43L521.36 429.21L521.44 429.01L521.51 428.81L521.57 428.6L521.66 428.4L521.72 428.2L521.79 427.99L521.85 427.79L521.92 427.57L522.05 427.17L522.12 426.96L522.19 426.76L522.25 426.54L522.32 426.34L522.37 426.13L522.43 425.91L522.5 425.71L522.55 425.5L522.62 425.3L522.67 425.08L522.73 424.88L522.78 424.67L522.85 424.45L522.9 424.25L523 423.82L523.06 423.62L523.21 422.98L523.25 422.76L523.45 421.9L523.48 421.68L523.58 421.25L523.61 421.04L523.66 420.82L523.73 420.39L523.78 420.17L523.88 419.53L523.93 419.31L524.09 418.23L524.13 418L524.14 417.79L524.21 417.35L524.23 417.14L524.29 416.71L524.31 416.48L524.34 416.26L524.38 415.83L524.41 415.61L524.42 415.4L524.44 415.17L524.46 414.95L524.46 412.03L526.96 410.74L544.61 399.89L538.54 378.23L519.81 380.19L516.99 380.19L515.47 377.7L515.22 377.3L514.69 376.51L514.41 376.12L514.14 375.73L513.01 374.2L512.72 373.84L512.43 373.47L512.14 373.09L511.54 372.36L511.22 372.01L510.91 371.65L510.61 371.28L510.28 370.93L509.65 370.24L509.32 369.9L508.98 369.56L508.67 369.22L507.99 368.54L507.66 368.23L506.96 367.57L506.26 366.94L505.9 366.62L505.55 366.31L505.19 366.01L504.82 365.69L504.09 365.1L503.71 364.8L503.35 364.51L502.96 364.22L502.58 363.93L500.43 362.31L500.43 359.51L500.96 340.77L479.94 334.91L472.05 351.69L470.86 354.3Z" id="cPQ6zJ5YI"></path><path d="M478.2 377.8L480.28 378.23L482.35 378.98L484.34 379.86L486.25 380.85L488.07 381.96L489.8 383.17L491.42 384.5L492.96 385.93L494.39 387.44L495.72 389.03L496.93 390.7L498.02 392.46L499.02 394.27L499.88 396.14L500.63 398.08L501.26 400.06L501.74 402.08L502.1 404.14L502.32 406.23L502.4 408.33L502.35 410.47L502.15 412.61L501.79 414.75L501.29 416.91L501.27 416.96L501.27 417.01L501.24 417.11L501.24 417.16L501.21 417.26L501.21 417.3L501.17 417.4L501.17 417.45L501.14 417.55L501.14 417.6L501.11 417.7L501.11 417.75L501.07 417.85L501.07 417.9L501.02 418.05L500.44 420.09L499.73 422.05L498.9 423.94L497.94 425.75L496.88 427.47L495.7 429.1L494.42 430.64L493.05 432.08L491.57 433.44L490.03 434.69L488.4 435.81L486.71 436.84L484.95 437.75L483.13 438.53L481.25 439.21L479.35 439.76L477.37 440.18L475.38 440.46L473.36 440.61L471.32 440.61L469.26 440.47L467.19 440.19L465.12 439.76L463.04 439.01L461.04 438.14L459.13 437.14L457.32 436.03L455.6 434.82L453.96 433.49L452.43 432.07L451 430.56L449.68 428.96L448.47 427.29L447.35 425.53L446.38 423.72L445.5 421.85L444.75 419.91L444.14 417.94L443.64 415.91L443.29 413.86L443.06 411.77L442.98 409.66L443.04 407.52L443.24 405.38L443.59 403.24L444.1 401.08L444.1 401.03L444.14 400.94L444.14 400.89L444.17 400.79L444.17 400.74L444.19 400.69L444.19 400.64L444.22 400.54L444.22 400.49L444.27 400.34L444.27 400.29L444.3 400.19L444.3 400.14L444.35 399.99L444.35 399.94L444.93 397.9L445.65 395.94L446.49 394.05L447.44 392.24L448.52 390.52L449.69 388.89L450.97 387.35L452.35 385.91L453.81 384.55L455.35 383.32L456.97 382.18L458.68 381.15L460.44 380.24L462.25 379.46L464.12 378.78L466.05 378.23L468 377.82L469.99 377.53L472.02 377.38L474.07 377.38L476.13 377.52L478.2 377.8ZM468.33 399.61L466.53 400.8L465.02 402.35L463.87 404.24L463.16 406.39L462.84 408.75L463.03 411.04L463.67 413.21L464.75 415.2L466.23 416.94L468.05 418.37L470.21 419.39L470.54 419.48L470.61 419.48L470.67 419.49L472.93 419.68L475.12 419.34L477.12 418.55L478.92 417.34L480.41 415.76L481.54 413.87L482.22 411.7L482.55 409.36L482.37 407.07L481.72 404.9L480.62 402.93L479.16 401.2L477.32 399.81L475.18 398.81L475.13 398.8L475.07 398.8L474.92 398.75L474.85 398.75L474.8 398.73L472.53 398.53L470.36 398.83L468.33 399.61Z" id="adhWr1TR"></path><path d="M478.2 377.8L480.28 378.23L482.35 378.98L484.34 379.86L486.25 380.85L488.07 381.96L489.8 383.17L491.42 384.5L492.96 385.93L494.39 387.44L495.72 389.03L496.93 390.7L498.02 392.46L499.02 394.27L499.88 396.14L500.63 398.08L501.26 400.06L501.74 402.08L502.1 404.14L502.32 406.23L502.4 408.33L502.35 410.47L502.15 412.61L501.79 414.75L501.29 416.91L501.27 416.96L501.27 417.01L501.24 417.11L501.24 417.16L501.21 417.26L501.21 417.3L501.17 417.4L501.17 417.45L501.14 417.55L501.14 417.6L501.11 417.7L501.11 417.75L501.07 417.85L501.07 417.9L501.02 418.05L500.44 420.09L499.73 422.05L498.9 423.94L497.94 425.75L496.88 427.47L495.7 429.1L494.42 430.64L493.05 432.08L491.57 433.44L490.03 434.69L488.4 435.81L486.71 436.84L484.95 437.75L483.13 438.53L481.25 439.21L479.35 439.76L477.37 440.18L475.38 440.46L473.36 440.61L471.32 440.61L469.26 440.47L467.19 440.19L465.12 439.76L463.04 439.01L461.04 438.14L459.13 437.14L457.32 436.03L455.6 434.82L453.96 433.49L452.43 432.07L451 430.56L449.68 428.96L448.47 427.29L447.35 425.53L446.38 423.72L445.5 421.85L444.75 419.91L444.14 417.94L443.64 415.91L443.29 413.86L443.06 411.77L442.98 409.66L443.04 407.52L443.24 405.38L443.59 403.24L444.1 401.08L444.1 401.03L444.14 400.94L444.14 400.89L444.17 400.79L444.17 400.74L444.19 400.69L444.19 400.64L444.22 400.54L444.22 400.49L444.27 400.34L444.27 400.29L444.3 400.19L444.3 400.14L444.35 399.99L444.35 399.94L444.93 397.9L445.65 395.94L446.49 394.05L447.44 392.24L448.52 390.52L449.69 388.89L450.97 387.35L452.35 385.91L453.81 384.55L455.35 383.32L456.97 382.18L458.68 381.15L460.44 380.24L462.25 379.46L464.12 378.78L466.05 378.23L468 377.82L469.99 377.53L472.02 377.38L474.07 377.38L476.13 377.52L478.2 377.8ZM468.33 399.61L466.53 400.8L465.02 402.35L463.87 404.24L463.16 406.39L462.84 408.75L463.03 411.04L463.67 413.21L464.75 415.2L466.23 416.94L468.05 418.37L470.21 419.39L470.54 419.48L470.61 419.48L470.67 419.49L472.93 419.68L475.12 419.34L477.12 418.55L478.92 417.34L480.41 415.76L481.54 413.87L482.22 411.7L482.55 409.36L482.37 407.07L481.72 404.9L480.62 402.93L479.16 401.2L477.32 399.81L475.18 398.81L475.13 398.8L475.07 398.8L474.92 398.75L474.85 398.75L474.8 398.73L472.53 398.53L470.36 398.83L468.33 399.61Z" id="c10Ghx1y3B"></path><path d="M4.75 320.12C4.75 493.99 145.71 634.93 319.58 634.93C493.44 634.93 634.4 493.99 634.4 320.12C634.4 146.24 493.44 5.3 319.58 5.3C145.71 5.3 4.75 146.24 4.75 320.12Z" id="a26Lf8fXJD"></path><path d="M4.75 320.12C4.75 493.99 145.71 634.93 319.58 634.93C493.44 634.93 634.4 493.99 634.4 320.12C634.4 146.24 493.44 5.3 319.58 5.3C145.71 5.3 4.75 146.24 4.75 320.12Z" id="d39hFzB87u"></path><path d="M407.52 309.87C387.15 309.87 370.63 326.39 370.63 346.75C370.63 347.76 370.63 355.74 370.63 356.74C393.44 343.47 421.6 343.47 444.4 356.74C444.4 354.75 444.4 347.76 444.4 346.75C444.4 326.39 427.88 309.87 407.52 309.87Z" id="b3i7qdit78"></path><path d="M407.52 309.87C387.15 309.87 370.63 326.39 370.63 346.75C370.63 347.76 370.63 355.74 370.63 356.74C393.44 343.47 421.6 343.47 444.4 356.74C444.4 354.75 444.4 347.76 444.4 346.75C444.4 326.39 427.88 309.87 407.52 309.87Z" id="b9i1sZsazb"></path><path d="M359.49 427.11L393.77 461.29L455.55 399.41L442.49 386.36L393.77 435.18L393.77 435.18L372.54 414.05L359.49 427.11Z" id="aTspfuBzb"></path><path d="M359.49 427.11L393.77 461.29L455.55 399.41L442.49 386.36L393.77 435.18L393.77 435.18L372.54 414.05L359.49 427.11Z" id="ciIp7g9O8"></path><path d="M262.9 256.96C208.96 256.96 165.24 238.47 165.24 215.66C165.24 192.86 208.96 174.38 262.9 174.38C316.83 174.38 360.55 192.86 360.55 215.66C360.55 238.47 316.83 256.96 262.9 256.96Z" id="akxbFxef6"></path><path d="M262.9 256.96C208.96 256.96 165.24 238.47 165.24 215.66C165.24 192.86 208.96 174.38 262.9 174.38C316.83 174.38 360.55 192.86 360.55 215.66C360.55 238.47 316.83 256.96 262.9 256.96Z" id="aB4E12KWG"></path><path d="M365.54 311.63C365.54 306.19 365.54 278.97 365.54 229.99C365.54 229.99 365.54 229.99 365.54 229.99C359.92 251.75 316.5 269.17 263.74 269.17C210.98 269.17 167.47 252.18 162.37 230.42C162.37 230.42 162.37 230.42 162.37 230.42C162.37 246.59 162.37 375.91 162.37 392.08C162.37 392.08 162.37 392.08 162.37 392.08C162.37 415.86 208.02 435.18 264.17 435.18C288.09 435.58 311.87 431.55 334.33 423.29C334.33 422.45 334.33 421.48 334.33 420.64C334.18 402.74 340.55 385.43 352.27 371.91C352.27 371.91 352.27 349.27 352.27 346.75C352.41 333.85 357.12 321.41 365.54 311.63Z" id="a2J7Uq34UR"></path><path d="M365.54 311.63C365.54 306.19 365.54 278.97 365.54 229.99C365.54 229.99 365.54 229.99 365.54 229.99C359.92 251.75 316.5 269.17 263.74 269.17C210.98 269.17 167.47 252.18 162.37 230.42C162.37 230.42 162.37 230.42 162.37 230.42C162.37 246.59 162.37 375.91 162.37 392.08C162.37 392.08 162.37 392.08 162.37 392.08C162.37 415.86 208.02 435.18 264.17 435.18C288.09 435.58 311.87 431.55 334.33 423.29C334.33 422.45 334.33 421.48 334.33 420.64C334.18 402.74 340.55 385.43 352.27 371.91C352.27 371.91 352.27 349.27 352.27 346.75C352.41 333.85 357.12 321.41 365.54 311.63Z" id="c1nSWvC3kq"></path><path d="M409.52 291.71L411.75 291.96L413.94 292.3L416.09 292.72L418.23 293.22L420.32 293.81L422.38 294.48L424.42 295.21L426.41 296.02L428.35 296.91L430.27 297.86L432.13 298.89L433.95 300L435.74 301.16L437.47 302.39L439.14 303.66L440.79 305.02L442.36 306.43L443.89 307.89L445.35 309.42L446.76 310.99L448.12 312.64L449.39 314.31L450.62 316.04L451.78 317.83L452.89 319.65L453.92 321.51L454.87 323.43L455.76 325.37L456.58 327.36L457.31 329.4L457.97 331.46L458.57 333.55L459.06 335.69L459.48 337.85L459.83 340.04L460.07 342.26L460.24 344.5L460.32 346.75L460.32 371.91L461.17 372.89L462 373.87L462.79 374.86L463.59 375.88L465.12 377.93L465.85 378.98L466.56 380.04L467.26 381.1L467.94 382.18L469.23 384.37L469.84 385.48L470.44 386.61L471.02 387.73L471.58 388.86L472.12 390.02L472.65 391.17L473.14 392.34L473.62 393.51L474.07 394.7L474.52 395.88L474.94 397.09L475.33 398.28L475.71 399.49L476.41 401.95L476.71 403.17L477.01 404.42L477.29 405.65L477.54 406.91L477.77 408.15L477.97 409.41L478.15 410.67L478.32 411.95L478.47 413.21L478.58 414.49L478.68 415.76L478.77 417.06L478.82 418.33L478.85 421.38L478.77 424.39L478.57 427.37L478.25 430.32L477.82 433.24L477.27 436.13L476.61 438.96L475.85 441.77L474.97 444.52L473.99 447.22L472.91 449.89L471.72 452.5L470.44 455.05L469.08 457.54L467.6 459.98L466.05 462.35L464.4 464.67L462.68 466.91L460.87 469.08L458.98 471.19L457.01 473.23L454.95 475.19L452.83 477.06L450.62 478.85L448.37 480.56L446.03 482.19L443.64 483.73L441.17 485.17L438.65 486.53L436.06 487.79L433.44 488.94L430.74 490L428 490.96L425.21 491.8L422.38 492.55L419.49 493.18L416.57 493.7L413.6 494.09L410.6 494.38L407.57 494.54L404.52 494.57L401.51 494.49L398.53 494.29L395.58 493.98L392.66 493.55L389.77 493L386.94 492.34L384.13 491.57L381.38 490.69L378.68 489.72L376.01 488.64L373.4 487.44L370.85 486.17L368.36 484.81L365.92 483.33L363.55 481.77L361.23 480.13L358.99 478.4L356.82 476.6L354.71 474.71L352.67 472.73L350.71 470.68L348.84 468.55L347.05 466.35L345.34 464.09L343.71 461.75L342.17 459.36L340.73 456.89L339.37 454.37L338.11 451.79L336.96 449.15L335.9 446.46L334.94 443.72L334.1 440.94L333.35 438.1L332.72 435.22L332.2 432.3L331.81 429.33L331.52 426.33L331.36 423.29L362.57 311.31L363.37 310.38L364.18 309.47L365.01 308.57L365.87 307.69L366.73 306.85L367.63 306.02L368.53 305.21L370.38 303.65L371.33 302.92L372.31 302.19L373.29 301.49L374.28 300.81L375.28 300.15L376.3 299.52L377.33 298.9L378.38 298.31L379.44 297.74L380.52 297.2L381.59 296.68L382.69 296.18L384.91 295.26L386.02 294.84L387.17 294.44L388.31 294.06L389.46 293.71L390.62 293.38L391.78 293.08L392.96 292.8L394.13 292.55L395.33 292.32L396.52 292.12L397.72 291.96L398.93 291.81L400.14 291.67L401.35 291.59L402.57 291.51L403.8 291.47L405.03 291.46L407.28 291.54L409.52 291.71ZM370.1 414.05L357.05 427.11L391.23 461.29L453.21 399.51L440.16 386.46L391.33 435.28L370.1 414.05ZM399.74 310.18L397.4 310.56L395.11 311.09L392.89 311.76L390.72 312.55L388.61 313.48L386.59 314.53L384.63 315.71L382.76 317L380.98 318.39L379.27 319.88L377.68 321.49L376.17 323.18L374.78 324.98L373.48 326.85L372.32 328.81L371.26 330.83L370.33 332.94L369.54 335.09L368.87 337.33L368.34 339.62L367.98 341.94L367.75 344.33L367.66 346.75L367.66 356.74L370.42 355.21L373.24 353.8L376.09 352.54L378.97 351.38L381.89 350.37L384.86 349.47L387.85 348.71L390.85 348.08L393.87 347.56L396.9 347.18L399.95 346.93L403.02 346.8L406.07 346.8L409.13 346.93L412.18 347.18L415.21 347.56L418.25 348.08L421.25 348.71L424.23 349.47L427.19 350.37L430.12 351.38L433.01 352.54L435.86 353.8L438.66 355.21L441.43 356.74L441.43 346.75L441.35 344.33L441.12 341.94L440.74 339.62L440.21 337.33L439.54 335.09L438.75 332.94L437.82 330.83L436.77 328.81L435.6 326.85L434.32 324.98L432.91 323.18L431.42 321.49L429.81 319.88L428.12 318.39L426.32 317L424.45 315.71L422.49 314.53L420.47 313.48L418.36 312.55L416.21 311.76L413.97 311.09L411.7 310.56L409.36 310.18L406.97 309.95L404.55 309.87L402.13 309.95L399.74 310.18Z" id="c6qHtYwoZD"></path><path d="M409.52 291.71L411.75 291.96L413.94 292.3L416.09 292.72L418.23 293.22L420.32 293.81L422.38 294.48L424.42 295.21L426.41 296.02L428.35 296.91L430.27 297.86L432.13 298.89L433.95 300L435.74 301.16L437.47 302.39L439.14 303.66L440.79 305.02L442.36 306.43L443.89 307.89L445.35 309.42L446.76 310.99L448.12 312.64L449.39 314.31L450.62 316.04L451.78 317.83L452.89 319.65L453.92 321.51L454.87 323.43L455.76 325.37L456.58 327.36L457.31 329.4L457.97 331.46L458.57 333.55L459.06 335.69L459.48 337.85L459.83 340.04L460.07 342.26L460.24 344.5L460.32 346.75L460.32 371.91L461.17 372.89L462 373.87L462.79 374.86L463.59 375.88L465.12 377.93L465.85 378.98L466.56 380.04L467.26 381.1L467.94 382.18L469.23 384.37L469.84 385.48L470.44 386.61L471.02 387.73L471.58 388.86L472.12 390.02L472.65 391.17L473.14 392.34L473.62 393.51L474.07 394.7L474.52 395.88L474.94 397.09L475.33 398.28L475.71 399.49L476.41 401.95L476.71 403.17L477.01 404.42L477.29 405.65L477.54 406.91L477.77 408.15L477.97 409.41L478.15 410.67L478.32 411.95L478.47 413.21L478.58 414.49L478.68 415.76L478.77 417.06L478.82 418.33L478.85 421.38L478.77 424.39L478.57 427.37L478.25 430.32L477.82 433.24L477.27 436.13L476.61 438.96L475.85 441.77L474.97 444.52L473.99 447.22L472.91 449.89L471.72 452.5L470.44 455.05L469.08 457.54L467.6 459.98L466.05 462.35L464.4 464.67L462.68 466.91L460.87 469.08L458.98 471.19L457.01 473.23L454.95 475.19L452.83 477.06L450.62 478.85L448.37 480.56L446.03 482.19L443.64 483.73L441.17 485.17L438.65 486.53L436.06 487.79L433.44 488.94L430.74 490L428 490.96L425.21 491.8L422.38 492.55L419.49 493.18L416.57 493.7L413.6 494.09L410.6 494.38L407.57 494.54L404.52 494.57L401.51 494.49L398.53 494.29L395.58 493.98L392.66 493.55L389.77 493L386.94 492.34L384.13 491.57L381.38 490.69L378.68 489.72L376.01 488.64L373.4 487.44L370.85 486.17L368.36 484.81L365.92 483.33L363.55 481.77L361.23 480.13L358.99 478.4L356.82 476.6L354.71 474.71L352.67 472.73L350.71 470.68L348.84 468.55L347.05 466.35L345.34 464.09L343.71 461.75L342.17 459.36L340.73 456.89L339.37 454.37L338.11 451.79L336.96 449.15L335.9 446.46L334.94 443.72L334.1 440.94L333.35 438.1L332.72 435.22L332.2 432.3L331.81 429.33L331.52 426.33L331.36 423.29L362.57 311.31L363.37 310.38L364.18 309.47L365.01 308.57L365.87 307.69L366.73 306.85L367.63 306.02L368.53 305.21L370.38 303.65L371.33 302.92L372.31 302.19L373.29 301.49L374.28 300.81L375.28 300.15L376.3 299.52L377.33 298.9L378.38 298.31L379.44 297.74L380.52 297.2L381.59 296.68L382.69 296.18L384.91 295.26L386.02 294.84L387.17 294.44L388.31 294.06L389.46 293.71L390.62 293.38L391.78 293.08L392.96 292.8L394.13 292.55L395.33 292.32L396.52 292.12L397.72 291.96L398.93 291.81L400.14 291.67L401.35 291.59L402.57 291.51L403.8 291.47L405.03 291.46L407.28 291.54L409.52 291.71ZM370.1 414.05L357.05 427.11L391.23 461.29L453.21 399.51L440.16 386.46L391.33 435.28L370.1 414.05ZM399.74 310.18L397.4 310.56L395.11 311.09L392.89 311.76L390.72 312.55L388.61 313.48L386.59 314.53L384.63 315.71L382.76 317L380.98 318.39L379.27 319.88L377.68 321.49L376.17 323.18L374.78 324.98L373.48 326.85L372.32 328.81L371.26 330.83L370.33 332.94L369.54 335.09L368.87 337.33L368.34 339.62L367.98 341.94L367.75 344.33L367.66 346.75L367.66 356.74L370.42 355.21L373.24 353.8L376.09 352.54L378.97 351.38L381.89 350.37L384.86 349.47L387.85 348.71L390.85 348.08L393.87 347.56L396.9 347.18L399.95 346.93L403.02 346.8L406.07 346.8L409.13 346.93L412.18 347.18L415.21 347.56L418.25 348.08L421.25 348.71L424.23 349.47L427.19 350.37L430.12 351.38L433.01 352.54L435.86 353.8L438.66 355.21L441.43 356.74L441.43 346.75L441.35 344.33L441.12 341.94L440.74 339.62L440.21 337.33L439.54 335.09L438.75 332.94L437.82 330.83L436.77 328.81L435.6 326.85L434.32 324.98L432.91 323.18L431.42 321.49L429.81 319.88L428.12 318.39L426.32 317L424.45 315.71L422.49 314.53L420.47 313.48L418.36 312.55L416.21 311.76L413.97 311.09L411.7 310.56L409.36 310.18L406.97 309.95L404.55 309.87L402.13 309.95L399.74 310.18Z" id="c7Ybvh6KdE"></path><path d="M365.54 311.63C357.05 321.49 352.34 334.06 352.27 347.08C352.27 349.59 352.27 369.62 352.27 372.13C340.38 385.53 333.81 402.83 333.8 420.74C333.8 421.58 333.8 422.55 333.8 423.39" id="i1LP2njYB"></path><path d="M365.54 311.63C357.05 321.49 352.34 334.06 352.27 347.08C352.27 349.59 352.27 369.62 352.27 372.13C340.38 385.53 333.81 402.83 333.8 420.74C333.8 421.58 333.8 422.55 333.8 423.39" id="k3nQdrRHtj"></path><path d="M440.06 386.36L452.99 399.41L391.23 461.29L357.05 427.11L370.1 414.05L370.1 414.05L391.23 435.18L440.06 386.36Z" id="aTc5dzYoF"></path><path d="M440.06 386.36L452.99 399.41L391.23 461.29L357.05 427.11L370.1 414.05L370.1 414.05L391.23 435.18L440.06 386.36Z" id="a6CnBFIsN"></path></defs><g><g><g><use xlink:href="#bNPBhUXhv" opacity="1" fill="#ffffff" fill-opacity="1"></use><g><use xlink:href="#bNPBhUXhv" opacity="1" fill-opacity="0" stroke="#000000" stroke-width="1" stroke-opacity="0"></use></g></g><g><use xlink:href="#cPQ6zJ5YI" opacity="1" fill="#000000" fill-opacity="0"></use><g><use xlink:href="#cPQ6zJ5YI" opacity="1" fill-opacity="0" stroke="#000000" stroke-width="1" stroke-opacity="0"></use></g></g><g><use xlink:href="#adhWr1TR" opacity="1" fill="#ffffff" fill-opacity="1"></use><g><use xlink:href="#adhWr1TR" opacity="1" fill-opacity="0" stroke="#000000" stroke-width="1" stroke-opacity="0"></use></g></g><g><use xlink:href="#c10Ghx1y3B" opacity="1" fill="#000000" fill-opacity="0"></use><g><use xlink:href="#c10Ghx1y3B" opacity="1" fill-opacity="0" stroke="#000000" stroke-width="1" stroke-opacity="0"></use></g></g><g><use xlink:href="#a26Lf8fXJD" opacity="1" fill="#325c80" fill-opacity="1"></use><g><use xlink:href="#a26Lf8fXJD" opacity="1" fill-opacity="0" stroke="#000000" stroke-width="1" stroke-opacity="0"></use></g></g><g><use xlink:href="#d39hFzB87u" opacity="1" fill="#000000" fill-opacity="0"></use><g><use xlink:href="#d39hFzB87u" opacity="1" fill-opacity="0" stroke="#000000" stroke-width="1" stroke-opacity="0"></use></g></g><g><use xlink:href="#b3i7qdit78" opacity="1" fill="#000000" fill-opacity="0"></use><g><use xlink:href="#b3i7qdit78" opacity="1" fill-opacity="0" stroke="#000000" stroke-width="1" stroke-opacity="0"></use></g></g><g><use xlink:href="#b9i1sZsazb" opacity="1" fill="#000000" fill-opacity="0"></use><g><use xlink:href="#b9i1sZsazb" opacity="1" fill-opacity="0" stroke="#000000" stroke-width="1" stroke-opacity="0"></use></g></g><g><use xlink:href="#aTspfuBzb" opacity="1" fill="#000000" fill-opacity="0"></use><g><use xlink:href="#aTspfuBzb" opacity="1" fill-opacity="0" stroke="#000000" stroke-width="1" stroke-opacity="0"></use></g></g><g><use xlink:href="#ciIp7g9O8" opacity="1" fill="#000000" fill-opacity="0"></use><g><use xlink:href="#ciIp7g9O8" opacity="1" fill-opacity="0" stroke="#000000" stroke-width="1" stroke-opacity="0"></use></g></g><g><use xlink:href="#akxbFxef6" opacity="1" fill="#ffffff" fill-opacity="1"></use><g><use xlink:href="#akxbFxef6" opacity="1" fill-opacity="0" stroke="#000000" stroke-width="1" stroke-opacity="0"></use></g></g><g><use xlink:href="#aB4E12KWG" opacity="1" fill="#000000" fill-opacity="0"></use><g><use xlink:href="#aB4E12KWG" opacity="1" fill-opacity="0" stroke="#000000" stroke-width="1" stroke-opacity="0"></use></g></g><g><use xlink:href="#a2J7Uq34UR" opacity="1" fill="#ffffff" fill-opacity="1"></use><g><use xlink:href="#a2J7Uq34UR" opacity="1" fill-opacity="0" stroke="#000000" stroke-width="1" stroke-opacity="0"></use></g></g><g><use xlink:href="#c1nSWvC3kq" opacity="1" fill="#000000" fill-opacity="0"></use><g><use xlink:href="#c1nSWvC3kq" opacity="1" fill-opacity="0" stroke="#000000" stroke-width="1" stroke-opacity="0"></use></g></g><g><use xlink:href="#c6qHtYwoZD" opacity="1" fill="#000000" fill-opacity="0"></use><g><use xlink:href="#c6qHtYwoZD" opacity="1" fill-opacity="0" stroke="#000000" stroke-width="1" stroke-opacity="0"></use></g></g><g><use xlink:href="#c7Ybvh6KdE" opacity="1" fill="#000000" fill-opacity="0"></use><g><use xlink:href="#c7Ybvh6KdE" opacity="1" fill-opacity="0" stroke="#ffffff" stroke-width="4" stroke-opacity="1"></use></g></g><g><use xlink:href="#i1LP2njYB" opacity="1" fill="#000000" fill-opacity="0"></use><g><use xlink:href="#i1LP2njYB" opacity="1" fill-opacity="0" stroke="#000000" stroke-width="1" stroke-opacity="0"></use></g></g><g><use xlink:href="#k3nQdrRHtj" opacity="1" fill="#000000" fill-opacity="0"></use><g><use xlink:href="#k3nQdrRHtj" opacity="1" fill-opacity="0" stroke="#ffffff" stroke-width="0.19" stroke-opacity="1"></use></g></g><g><use xlink:href="#aTc5dzYoF" opacity="1" fill="#ffffff" fill-opacity="1"></use><g><use xlink:href="#aTc5dzYoF" opacity="1" fill-opacity="0" stroke="#000000" stroke-width="1" stroke-opacity="0"></use></g></g><g><use xlink:href="#a6CnBFIsN" opacity="1" fill="#000000" fill-opacity="0"></use><g><use xlink:href="#a6CnBFIsN" opacity="1" fill-opacity="0" stroke="#000000" stroke-width="1" stroke-opacity="0"></use></g></g></g></g></svg>