<?xml version="1.0" encoding="UTF-8" standalone="no"?>
<!DOCTYPE svg PUBLIC "-//W3C//DTD SVG 1.1//EN" "http://www.w3.org/Graphics/SVG/1.1/DTD/svg11.dtd">
<svg version="1.1" xmlns="http://www.w3.org/2000/svg" xmlns:xlink="http://www.w3.org/1999/xlink" preserveAspectRatio="xMidYMid meet" viewBox="0 0 640 640" width="640" height="640"><defs><path d="M6.51 321.79C6.51 496.71 148.31 638.53 323.26 638.53C498.18 638.53 640 496.71 640 321.79C640 146.84 498.18 5.04 323.26 5.04C148.31 5.04 6.51 146.84 6.51 321.79Z" id="a3siPHtqAC"></path><path d="M6.51 321.79C6.51 496.71 148.31 638.53 323.26 638.53C498.18 638.53 640 496.71 640 321.79C640 146.84 498.18 5.04 323.26 5.04C148.31 5.04 6.51 146.84 6.51 321.79Z" id="a3nnfqj4p"></path><path d="M319.93 158.54C279.38 158.54 246.49 144.64 246.49 127.5C246.49 110.35 279.38 96.45 319.93 96.45C360.48 96.45 393.36 110.35 393.36 127.5C393.36 144.64 360.48 158.54 319.93 158.54Z" id="gHMtkyDi7"></path><path d="M319.93 158.54C279.38 158.54 246.49 144.64 246.49 127.5C246.49 110.35 279.38 96.45 319.93 96.45C360.48 96.45 393.36 110.35 393.36 127.5C393.36 144.64 360.48 158.54 319.93 158.54Z" id="aSZJlXgz"></path><path d="M319.93 167.43C280.21 167.43 247.58 154.68 243.71 138.3C243.71 138.3 243.71 138.3 243.71 138.3C243.71 150.52 243.71 248.23 243.71 260.45C243.71 260.45 243.71 260.45 243.71 260.45C243.71 278.32 277.97 292.56 320.26 292.56C362.53 292.56 396.79 278.1 396.79 260.45C396.79 252.3 396.79 211.59 396.79 138.3C396.39 138.3 396.15 138.3 396.05 138.3C392.18 154.68 359.64 167.43 319.93 167.43Z" id="e9dNV6OW0"></path><path d="M319.93 167.43C280.21 167.43 247.58 154.68 243.71 138.3C243.71 138.3 243.71 138.3 243.71 138.3C243.71 150.52 243.71 248.23 243.71 260.45C243.71 260.45 243.71 260.45 243.71 260.45C243.71 278.32 277.97 292.56 320.26 292.56C362.53 292.56 396.79 278.1 396.79 260.45C396.79 252.3 396.79 211.59 396.79 138.3C396.39 138.3 396.15 138.3 396.05 138.3C392.18 154.68 359.64 167.43 319.93 167.43Z" id="e9e5feUFI3"></path><path d="M203.89 363.42C163.34 363.42 130.46 349.52 130.46 332.37C130.46 315.23 163.34 301.33 203.89 301.33C244.45 301.33 277.33 315.23 277.33 332.37C277.33 349.52 244.45 363.42 203.89 363.42Z" id="a1eP84GiN9"></path><path d="M203.89 363.42C163.34 363.42 130.46 349.52 130.46 332.37C130.46 315.23 163.34 301.33 203.89 301.33C244.45 301.33 277.33 315.23 277.33 332.37C277.33 349.52 244.45 363.42 203.89 363.42Z" id="albv0XO3y"></path><path d="M203.89 372.2C164.18 372.2 131.53 359.47 127.79 343.08C127.79 343.08 127.79 343.08 127.79 343.08C127.79 355.26 127.79 452.72 127.79 464.9C127.79 464.9 127.79 464.9 127.79 464.9C127.79 482.78 162.05 497.01 204.32 497.01C246.61 497.01 280.87 482.57 280.87 464.9C280.87 456.78 280.87 416.17 280.87 343.08C280.41 343.08 280.11 343.08 280 343.08C276.15 359.47 243.61 372.2 203.89 372.2Z" id="c140uf0YGc"></path><path d="M203.89 372.2C164.18 372.2 131.53 359.47 127.79 343.08C127.79 343.08 127.79 343.08 127.79 343.08C127.79 355.26 127.79 452.72 127.79 464.9C127.79 464.9 127.79 464.9 127.79 464.9C127.79 482.78 162.05 497.01 204.32 497.01C246.61 497.01 280.87 482.57 280.87 464.9C280.87 456.78 280.87 416.17 280.87 343.08C280.41 343.08 280.11 343.08 280 343.08C276.15 359.47 243.61 372.2 203.89 372.2Z" id="h2F1zd96Ti"></path><path d="M442.17 363.42C401.62 363.42 368.74 349.52 368.74 332.37C368.74 315.23 401.62 301.33 442.17 301.33C482.73 301.33 515.61 315.23 515.61 332.37C515.61 349.52 482.73 363.42 442.17 363.42Z" id="cAAhA9DbO"></path><path d="M442.17 363.42C401.62 363.42 368.74 349.52 368.74 332.37C368.74 315.23 401.62 301.33 442.17 301.33C482.73 301.33 515.61 315.23 515.61 332.37C515.61 349.52 482.73 363.42 442.17 363.42Z" id="a804Vi659"></path><path d="M442.17 372.2C402.46 372.2 369.82 359.47 366.07 343.08C366.07 343.08 366.07 343.08 366.07 343.08C366.07 355.26 366.07 452.72 366.07 464.9C366.07 464.9 366.07 464.9 366.07 464.9C366.07 482.78 400.33 497.01 442.6 497.01C484.89 497.01 519.15 482.57 519.15 464.9C519.15 456.78 519.15 416.17 519.15 343.08C518.69 343.08 518.39 343.08 518.28 343.08C514.43 359.47 481.89 372.2 442.17 372.2Z" id="bITAlnOeU"></path><path d="M442.17 372.2C402.46 372.2 369.82 359.47 366.07 343.08C366.07 343.08 366.07 343.08 366.07 343.08C366.07 355.26 366.07 452.72 366.07 464.9C366.07 464.9 366.07 464.9 366.07 464.9C366.07 482.78 400.33 497.01 442.6 497.01C484.89 497.01 519.15 482.57 519.15 464.9C519.15 456.78 519.15 416.17 519.15 343.08C518.69 343.08 518.39 343.08 518.28 343.08C514.43 359.47 481.89 372.2 442.17 372.2Z" id="aph1DB5ns"></path><path d="M356.55 401.43C356.55 423.84 356.55 436.29 356.55 438.79C356.55 438.79 356.55 438.79 356.55 438.79C316.58 438.79 294.39 438.79 289.96 438.79C289.96 438.79 289.96 438.79 289.96 438.79C289.96 416.36 289.96 403.91 289.96 401.43C289.96 401.43 289.96 401.43 289.96 401.43C329.91 401.43 352.1 401.43 356.55 401.43C356.55 401.43 356.55 401.43 356.55 401.43Z" id="a1lSH9iZvT"></path><path d="M356.55 401.43C356.55 423.84 356.55 436.29 356.55 438.79C356.55 438.79 356.55 438.79 356.55 438.79C316.58 438.79 294.39 438.79 289.96 438.79C289.96 438.79 289.96 438.79 289.96 438.79C289.96 416.36 289.96 403.91 289.96 401.43C289.96 401.43 289.96 401.43 289.96 401.43C329.91 401.43 352.1 401.43 356.55 401.43C356.55 401.43 356.55 401.43 356.55 401.43Z" id="co1vsllF"></path><path d="M200.89 292.56C204.24 292.56 206.09 292.56 206.47 292.56C219.83 292.46 233.14 294.12 246.07 297.48C247.05 296.53 254.84 288.81 255.8 287.86C243.5 282.07 235.91 274.46 235.91 266.43C235.91 266.43 235.91 266.43 235.91 266.43C235.94 265.88 236.12 263.14 236.43 258.2C215.11 278.82 203.26 290.27 200.89 292.56Z" id="b1ViManq1K"></path><path d="M200.89 292.56C204.24 292.56 206.09 292.56 206.47 292.56C219.83 292.46 233.14 294.12 246.07 297.48C247.05 296.53 254.84 288.81 255.8 287.86C243.5 282.07 235.91 274.46 235.91 266.43C235.91 266.43 235.91 266.43 235.91 266.43C235.94 265.88 236.12 263.14 236.43 258.2C215.11 278.82 203.26 290.27 200.89 292.56Z" id="a1yHF7At2U"></path><path d="M404.28 256.48C404.28 262.91 404.28 266.48 404.28 267.19C404.28 275.1 397.54 282.28 386.41 287.95C387.38 288.9 395.08 296.53 396.05 297.48C409.21 294.03 422.78 292.38 436.4 292.56C436.94 292.56 438.29 292.56 440.47 292.56C433.23 285.34 407.9 260.09 404.28 256.48Z" id="bxtOduAQs"></path><path d="M404.28 256.48C404.28 262.91 404.28 266.48 404.28 267.19C404.28 275.1 397.54 282.28 386.41 287.95C387.38 288.9 395.08 296.53 396.05 297.48C409.21 294.03 422.78 292.38 436.4 292.56C436.94 292.56 438.29 292.56 440.47 292.56C433.23 285.34 407.9 260.09 404.28 256.48Z" id="k1e4LS0mO"></path></defs><g><g><g><use xlink:href="#a3siPHtqAC" opacity="1" fill="#345d80" fill-opacity="1"></use><g><use xlink:href="#a3siPHtqAC" opacity="1" fill-opacity="0" stroke="#000000" stroke-width="1" stroke-opacity="0"></use></g></g><g><use xlink:href="#a3nnfqj4p" opacity="1" fill="#000000" fill-opacity="0"></use><g><use xlink:href="#a3nnfqj4p" opacity="1" fill-opacity="0" stroke="#000000" stroke-width="1" stroke-opacity="0"></use></g></g><g><use xlink:href="#gHMtkyDi7" opacity="1" fill="#ffffff" fill-opacity="1"></use><g><use xlink:href="#gHMtkyDi7" opacity="1" fill-opacity="0" stroke="#000000" stroke-width="1" stroke-opacity="0"></use></g></g><g><use xlink:href="#aSZJlXgz" opacity="1" fill="#000000" fill-opacity="0"></use><g><use xlink:href="#aSZJlXgz" opacity="1" fill-opacity="0" stroke="#000000" stroke-width="1" stroke-opacity="0"></use></g></g><g><use xlink:href="#e9dNV6OW0" opacity="1" fill="#ffffff" fill-opacity="1"></use><g><use xlink:href="#e9dNV6OW0" opacity="1" fill-opacity="0" stroke="#000000" stroke-width="1" stroke-opacity="0"></use></g></g><g><use xlink:href="#e9e5feUFI3" opacity="1" fill="#000000" fill-opacity="0"></use><g><use xlink:href="#e9e5feUFI3" opacity="1" fill-opacity="0" stroke="#000000" stroke-width="1" stroke-opacity="0"></use></g></g><g><use xlink:href="#a1eP84GiN9" opacity="1" fill="#ffffff" fill-opacity="1"></use><g><use xlink:href="#a1eP84GiN9" opacity="1" fill-opacity="0" stroke="#000000" stroke-width="1" stroke-opacity="0"></use></g></g><g><use xlink:href="#albv0XO3y" opacity="1" fill="#000000" fill-opacity="0"></use><g><use xlink:href="#albv0XO3y" opacity="1" fill-opacity="0" stroke="#000000" stroke-width="1" stroke-opacity="0"></use></g></g><g><use xlink:href="#c140uf0YGc" opacity="1" fill="#ffffff" fill-opacity="1"></use><g><use xlink:href="#c140uf0YGc" opacity="1" fill-opacity="0" stroke="#000000" stroke-width="1" stroke-opacity="0"></use></g></g><g><use xlink:href="#h2F1zd96Ti" opacity="1" fill="#000000" fill-opacity="0"></use><g><use xlink:href="#h2F1zd96Ti" opacity="1" fill-opacity="0" stroke="#000000" stroke-width="1" stroke-opacity="0"></use></g></g><g><use xlink:href="#cAAhA9DbO" opacity="1" fill="#ffffff" fill-opacity="1"></use><g><use xlink:href="#cAAhA9DbO" opacity="1" fill-opacity="0" stroke="#000000" stroke-width="1" stroke-opacity="0"></use></g></g><g><use xlink:href="#a804Vi659" opacity="1" fill="#000000" fill-opacity="0"></use><g><use xlink:href="#a804Vi659" opacity="1" fill-opacity="0" stroke="#000000" stroke-width="1" stroke-opacity="0"></use></g></g><g><use xlink:href="#bITAlnOeU" opacity="1" fill="#ffffff" fill-opacity="1"></use><g><use xlink:href="#bITAlnOeU" opacity="1" fill-opacity="0" stroke="#000000" stroke-width="1" stroke-opacity="0"></use></g></g><g><use xlink:href="#aph1DB5ns" opacity="1" fill="#000000" fill-opacity="0"></use><g><use xlink:href="#aph1DB5ns" opacity="1" fill-opacity="0" stroke="#000000" stroke-width="1" stroke-opacity="0"></use></g></g><g><use xlink:href="#a1lSH9iZvT" opacity="1" fill="#ffffff" fill-opacity="1"></use><g><use xlink:href="#a1lSH9iZvT" opacity="1" fill-opacity="0" stroke="#000000" stroke-width="1" stroke-opacity="0"></use></g></g><g><use xlink:href="#co1vsllF" opacity="1" fill="#000000" fill-opacity="0"></use><g><use xlink:href="#co1vsllF" opacity="1" fill-opacity="0" stroke="#000000" stroke-width="1" stroke-opacity="0"></use></g></g><g><use xlink:href="#b1ViManq1K" opacity="1" fill="#ffffff" fill-opacity="1"></use><g><use xlink:href="#b1ViManq1K" opacity="1" fill-opacity="0" stroke="#000000" stroke-width="1" stroke-opacity="0"></use></g></g><g><use xlink:href="#a1yHF7At2U" opacity="1" fill="#000000" fill-opacity="0"></use><g><use xlink:href="#a1yHF7At2U" opacity="1" fill-opacity="0" stroke="#000000" stroke-width="1" stroke-opacity="0"></use></g></g><g><use xlink:href="#bxtOduAQs" opacity="1" fill="#ffffff" fill-opacity="1"></use><g><use xlink:href="#bxtOduAQs" opacity="1" fill-opacity="0" stroke="#000000" stroke-width="1" stroke-opacity="0"></use></g></g><g><use xlink:href="#k1e4LS0mO" opacity="1" fill="#000000" fill-opacity="0"></use><g><use xlink:href="#k1e4LS0mO" opacity="1" fill-opacity="0" stroke="#000000" stroke-width="1" stroke-opacity="0"></use></g></g></g></g></svg>