<?xml version="1.0" encoding="UTF-8" standalone="no"?>
<!DOCTYPE svg PUBLIC "-//W3C//DTD SVG 1.1//EN" "http://www.w3.org/Graphics/SVG/1.1/DTD/svg11.dtd">
<svg version="1.1" xmlns="http://www.w3.org/2000/svg" xmlns:xlink="http://www.w3.org/1999/xlink" preserveAspectRatio="xMidYMid meet" viewBox="0 0 640 640" width="640" height="640"><defs><path d="M5.46 318.93C5.46 492.79 146.4 633.71 320.24 633.71C494.09 633.71 635.02 492.79 635.02 318.93C635.02 145.1 494.09 4.17 320.24 4.17C146.4 4.17 5.46 145.1 5.46 318.93Z" id="cgfyWwU0U"></path><path d="M5.46 318.93C5.46 492.79 146.4 633.71 320.24 633.71C494.09 633.71 635.02 492.79 635.02 318.93C635.02 145.1 494.09 4.17 320.24 4.17C146.4 4.17 5.46 145.1 5.46 318.93Z" id="foXDK82vI"></path><path d="M284.85 217.62L511.91 219.43L511.91 257.27L510.43 459.26L132.07 456.5L133.57 254.51L133.57 178.83L284.85 179.78L284.85 217.62ZM497.46 446.2L499.16 256.96L146 254.51L144.31 443.75L497.46 446.2Z" id="angBg7h1q"></path><path d="M284.85 217.62L511.91 219.43L511.91 257.27L510.43 459.26L132.07 456.5L133.57 254.51L133.57 178.83L284.85 179.78L284.85 217.62ZM497.46 446.2L499.16 256.96L146 254.51L144.31 443.75L497.46 446.2Z" id="bs9l9Vxyc"></path><path d="M281.65 399.73C281.65 399.73 281.65 399.73 281.65 399.73C281.65 400.74 281.65 405.77 281.65 414.82C290.66 414.9 362.78 415.5 371.79 415.58C371.79 406.19 371.79 400.98 371.79 399.94C371.86 391.67 365.19 384.91 356.92 384.85C356.92 384.85 356.92 384.85 356.92 384.85C344.89 384.85 302.77 384.85 296.75 384.85C288.48 384.78 281.72 391.46 281.65 399.73Z" id="b1h4xAtwoZ"></path><path d="M281.65 399.73C281.65 399.73 281.65 399.73 281.65 399.73C281.65 400.74 281.65 405.77 281.65 414.82C290.66 414.9 362.78 415.5 371.79 415.58C371.79 406.19 371.79 400.98 371.79 399.94C371.86 391.67 365.19 384.91 356.92 384.85C356.92 384.85 356.92 384.85 356.92 384.85C344.89 384.85 302.77 384.85 296.75 384.85C288.48 384.78 281.72 391.46 281.65 399.73Z" id="dgSeStfNh"></path><path d="M290.8 331.06C290.8 350.91 306.88 366.98 326.72 366.98C346.58 366.98 362.66 350.91 362.66 331.06C362.66 311.22 346.58 295.13 326.72 295.13C306.88 295.13 290.8 311.22 290.8 331.06Z" id="bhq2wTtwE"></path><path d="M290.8 331.06C290.8 350.91 306.88 366.98 326.72 366.98C346.58 366.98 362.66 350.91 362.66 331.06C362.66 311.22 346.58 295.13 326.72 295.13C306.88 295.13 290.8 311.22 290.8 331.06Z" id="fwlYMDN5P"></path></defs><g><g><g><use xlink:href="#cgfyWwU0U" opacity="1" fill="#335d80" fill-opacity="1"></use><g><use xlink:href="#cgfyWwU0U" opacity="1" fill-opacity="0" stroke="#000000" stroke-width="1" stroke-opacity="0"></use></g></g><g><use xlink:href="#foXDK82vI" opacity="1" fill="#000000" fill-opacity="0"></use><g><use xlink:href="#foXDK82vI" opacity="1" fill-opacity="0" stroke="#000000" stroke-width="1" stroke-opacity="0"></use></g></g><g><use xlink:href="#angBg7h1q" opacity="1" fill="#ffffff" fill-opacity="1"></use><g><use xlink:href="#angBg7h1q" opacity="1" fill-opacity="0" stroke="#000000" stroke-width="1" stroke-opacity="0"></use></g></g><g><use xlink:href="#bs9l9Vxyc" opacity="1" fill="#000000" fill-opacity="0"></use><g><use xlink:href="#bs9l9Vxyc" opacity="1" fill-opacity="0" stroke="#000000" stroke-width="1" stroke-opacity="0"></use></g></g><g><use xlink:href="#b1h4xAtwoZ" opacity="1" fill="#ffffff" fill-opacity="1"></use><g><use xlink:href="#b1h4xAtwoZ" opacity="1" fill-opacity="0" stroke="#000000" stroke-width="1" stroke-opacity="0"></use></g></g><g><use xlink:href="#dgSeStfNh" opacity="1" fill="#000000" fill-opacity="0"></use><g><use xlink:href="#dgSeStfNh" opacity="1" fill-opacity="0" stroke="#000000" stroke-width="1" stroke-opacity="0"></use></g></g><g><use xlink:href="#bhq2wTtwE" opacity="1" fill="#000000" fill-opacity="0"></use><g><use xlink:href="#bhq2wTtwE" opacity="1" fill-opacity="0" stroke="#000000" stroke-width="1" stroke-opacity="0"></use></g></g><g><use xlink:href="#fwlYMDN5P" opacity="1" fill="#000000" fill-opacity="0"></use><g><use xlink:href="#fwlYMDN5P" opacity="1" fill-opacity="0" stroke="#ffffff" stroke-width="4" stroke-opacity="1"></use></g></g></g></g></svg>