<?xml version="1.0" encoding="UTF-8" standalone="no"?>
<!DOCTYPE svg PUBLIC "-//W3C//DTD SVG 1.1//EN" "http://www.w3.org/Graphics/SVG/1.1/DTD/svg11.dtd">
<svg version="1.1" xmlns="http://www.w3.org/2000/svg" xmlns:xlink="http://www.w3.org/1999/xlink" preserveAspectRatio="xMidYMid meet" viewBox="0 0 640 640" width="640" height="640"><defs><path d="M319.48 634.26C145.51 634.26 4.5 493.62 4.5 320.12C4.5 146.63 145.51 5.98 319.48 5.98C493.44 5.98 634.47 146.63 634.47 320.12C634.47 493.62 493.44 634.26 319.48 634.26Z" id="d3eAjITR1X"></path><path d="M319.48 634.26C145.51 634.26 4.5 493.62 4.5 320.12C4.5 146.63 145.51 5.98 319.48 5.98C493.44 5.98 634.47 146.63 634.47 320.12C634.47 493.62 493.44 634.26 319.48 634.26Z" id="dc26RWn7H"></path><path d="M427.4 161.33L431.51 161.46L433.56 161.54L435.61 161.65L437.65 161.78L439.69 161.93L441.74 162.09L443.78 162.26L445.82 162.46L449.9 162.91L453.95 163.42L455.99 163.71L458.02 164.01L460.03 164.34L462.05 164.69L464.06 165.04L466.08 165.41L470.1 166.22L472.1 166.65L474.09 167.1L476.1 167.57L478.09 168.05L480.07 168.55L482.06 169.08L484.04 169.61L486.01 170.17L487.97 170.73L489.94 171.33L491.9 171.94L493.86 172.57L495.8 173.19L499.69 174.54L502.74 175.8L502.74 394.95L495.91 392.22L494.07 391.59L490.34 390.37L488.47 389.79L486.61 389.23L482.85 388.14L480.97 387.62L479.09 387.12L477.19 386.64L475.29 386.18L473.4 385.73L471.5 385.29L469.59 384.87L467.68 384.47L465.76 384.09L463.85 383.72L461.94 383.36L460.01 383.03L458.1 382.71L456.17 382.4L454.24 382.13L452.3 381.85L450.37 381.6L448.44 381.36L444.55 380.94L440.66 380.58L436.77 380.29L432.88 380.07L430.92 379.99L428.97 379.92L427.01 379.88L425.05 379.84L423.11 379.83L421.15 379.83L419.19 379.84L417.19 379.84L413.21 379.91L411.2 379.97L409.21 380.04L407.21 380.12L405.22 380.23L403.24 380.34L399.26 380.63L397.28 380.79L395.29 380.99L393.31 381.18L391.32 381.39L387.36 381.87L385.4 382.13L383.43 382.4L381.45 382.71L379.49 383.01L377.53 383.33L375.55 383.67L373.59 384.02L371.65 384.39L369.69 384.78L367.74 385.18L365.8 385.6L363.85 386.03L361.91 386.48L359.96 386.95L356.1 387.91L354.18 388.43L352.25 388.96L350.32 389.5L348.41 390.05L346.49 390.63L344.6 391.21L342.68 391.82L340.79 392.43L334.28 394.53L334.28 175.47L337.64 174.33L339.62 173.69L341.59 173.06L343.58 172.45L345.56 171.86L347.55 171.28L349.56 170.72L351.56 170.17L355.57 169.14L357.58 168.64L359.61 168.16L361.62 167.7L363.64 167.25L365.67 166.81L367.71 166.39L369.73 166.01L371.77 165.62L373.82 165.25L375.86 164.9L377.9 164.56L379.94 164.24L382 163.95L384.04 163.66L386.09 163.39L388.15 163.13L392.27 162.68L394.34 162.47L398.45 162.12L400.53 161.96L404.67 161.7L406.75 161.6L408.8 161.51L410.89 161.44L412.97 161.38L417.11 161.31L419.19 161.31L423.3 161.28L425.36 161.3L427.4 161.33ZM415.47 171.62L413.58 171.65L411.67 171.7L409.77 171.76L407.86 171.84L405.96 171.92L404.05 172.03L402.15 172.15L400.25 172.28L398.36 172.42L392.67 172.95L390.77 173.16L388.89 173.38L386.99 173.61L385.11 173.87L383.22 174.12L379.46 174.7L377.58 175.01L375.71 175.33L373.83 175.65L371.97 176L370.09 176.37L368.22 176.74L366.36 177.13L364.51 177.55L362.65 177.97L360.8 178.4L358.93 178.85L357.09 179.3L355.25 179.78L353.4 180.26L349.74 181.29L347.91 181.82L346.08 182.37L344.24 182.93L344.24 380.89L346.08 380.36L347.91 379.84L349.74 379.35L351.59 378.85L353.44 378.38L355.27 377.92L357.12 377.47L358.98 377.03L360.83 376.61L362.68 376.21L364.54 375.81L368.27 375.07L370.14 374.72L372.02 374.38L373.88 374.06L375.76 373.74L377.63 373.45L379.51 373.16L383.27 372.64L385.16 372.4L387.04 372.16L388.92 371.95L390.82 371.74L392.7 371.57L394.6 371.39L396.49 371.23L398.39 371.09L402.18 370.83L405.98 370.64L407.87 370.55L409.78 370.49L411.68 370.44L413.58 370.41L415.49 370.39L417.39 370.38L419.3 370.39L421.16 370.38L423.03 370.38L428.62 370.47L430.49 370.54L432.35 370.62L434.2 370.7L437.93 370.92L439.78 371.05L441.64 371.2L443.49 371.36L445.34 371.54L447.2 371.71L450.9 372.13L452.75 372.35L454.59 372.6L456.43 372.85L458.27 373.13L461.94 373.7L463.79 374.03L465.62 374.35L467.43 374.69L469.27 375.04L471.1 375.41L474.73 376.18L478.36 377.02L480.18 377.45L481.98 377.9L483.8 378.37L487.4 379.33L489.18 379.84L490.98 380.36L492.76 380.89L492.76 182.93L490.98 182.37L487.41 181.28L483.81 180.25L482.01 179.75L480.21 179.27L478.41 178.8L476.6 178.35L474.78 177.92L471.15 177.08L469.32 176.7L467.5 176.31L463.83 175.6L462 175.27L460.17 174.94L458.32 174.64L456.49 174.35L452.79 173.8L449.1 173.32L447.25 173.11L445.38 172.9L443.54 172.71L441.67 172.53L439.82 172.37L437.96 172.23L436.09 172.1L434.23 171.99L432.37 171.89L428.64 171.73L424.91 171.63L423.03 171.6L417.39 171.6L415.47 171.62Z" id="bjbZOPQXJ"></path><path d="M427.4 161.33L431.51 161.46L433.56 161.54L435.61 161.65L437.65 161.78L439.69 161.93L441.74 162.09L443.78 162.26L445.82 162.46L449.9 162.91L453.95 163.42L455.99 163.71L458.02 164.01L460.03 164.34L462.05 164.69L464.06 165.04L466.08 165.41L470.1 166.22L472.1 166.65L474.09 167.1L476.1 167.57L478.09 168.05L480.07 168.55L482.06 169.08L484.04 169.61L486.01 170.17L487.97 170.73L489.94 171.33L491.9 171.94L493.86 172.57L495.8 173.19L499.69 174.54L502.74 175.8L502.74 394.95L495.91 392.22L494.07 391.59L490.34 390.37L488.47 389.79L486.61 389.23L482.85 388.14L480.97 387.62L479.09 387.12L477.19 386.64L475.29 386.18L473.4 385.73L471.5 385.29L469.59 384.87L467.68 384.47L465.76 384.09L463.85 383.72L461.94 383.36L460.01 383.03L458.1 382.71L456.17 382.4L454.24 382.13L452.3 381.85L450.37 381.6L448.44 381.36L444.55 380.94L440.66 380.58L436.77 380.29L432.88 380.07L430.92 379.99L428.97 379.92L427.01 379.88L425.05 379.84L423.11 379.83L421.15 379.83L419.19 379.84L417.19 379.84L413.21 379.91L411.2 379.97L409.21 380.04L407.21 380.12L405.22 380.23L403.24 380.34L399.26 380.63L397.28 380.79L395.29 380.99L393.31 381.18L391.32 381.39L387.36 381.87L385.4 382.13L383.43 382.4L381.45 382.71L379.49 383.01L377.53 383.33L375.55 383.67L373.59 384.02L371.65 384.39L369.69 384.78L367.74 385.18L365.8 385.6L363.85 386.03L361.91 386.48L359.96 386.95L356.1 387.91L354.18 388.43L352.25 388.96L350.32 389.5L348.41 390.05L346.49 390.63L344.6 391.21L342.68 391.82L340.79 392.43L334.28 394.53L334.28 175.47L337.64 174.33L339.62 173.69L341.59 173.06L343.58 172.45L345.56 171.86L347.55 171.28L349.56 170.72L351.56 170.17L355.57 169.14L357.58 168.64L359.61 168.16L361.62 167.7L363.64 167.25L365.67 166.81L367.71 166.39L369.73 166.01L371.77 165.62L373.82 165.25L375.86 164.9L377.9 164.56L379.94 164.24L382 163.95L384.04 163.66L386.09 163.39L388.15 163.13L392.27 162.68L394.34 162.47L398.45 162.12L400.53 161.96L404.67 161.7L406.75 161.6L408.8 161.51L410.89 161.44L412.97 161.38L417.11 161.31L419.19 161.31L423.3 161.28L425.36 161.3L427.4 161.33ZM415.47 171.62L413.58 171.65L411.67 171.7L409.77 171.76L407.86 171.84L405.96 171.92L404.05 172.03L402.15 172.15L400.25 172.28L398.36 172.42L392.67 172.95L390.77 173.16L388.89 173.38L386.99 173.61L385.11 173.87L383.22 174.12L379.46 174.7L377.58 175.01L375.71 175.33L373.83 175.65L371.97 176L370.09 176.37L368.22 176.74L366.36 177.13L364.51 177.55L362.65 177.97L360.8 178.4L358.93 178.85L357.09 179.3L355.25 179.78L353.4 180.26L349.74 181.29L347.91 181.82L346.08 182.37L344.24 182.93L344.24 380.89L346.08 380.36L347.91 379.84L349.74 379.35L351.59 378.85L353.44 378.38L355.27 377.92L357.12 377.47L358.98 377.03L360.83 376.61L362.68 376.21L364.54 375.81L368.27 375.07L370.14 374.72L372.02 374.38L373.88 374.06L375.76 373.74L377.63 373.45L379.51 373.16L383.27 372.64L385.16 372.4L387.04 372.16L388.92 371.95L390.82 371.74L392.7 371.57L394.6 371.39L396.49 371.23L398.39 371.09L402.18 370.83L405.98 370.64L407.87 370.55L409.78 370.49L411.68 370.44L413.58 370.41L415.49 370.39L417.39 370.38L419.3 370.39L421.16 370.38L423.03 370.38L428.62 370.47L430.49 370.54L432.35 370.62L434.2 370.7L437.93 370.92L439.78 371.05L441.64 371.2L443.49 371.36L445.34 371.54L447.2 371.71L450.9 372.13L452.75 372.35L454.59 372.6L456.43 372.85L458.27 373.13L461.94 373.7L463.79 374.03L465.62 374.35L467.43 374.69L469.27 375.04L471.1 375.41L474.73 376.18L478.36 377.02L480.18 377.45L481.98 377.9L483.8 378.37L487.4 379.33L489.18 379.84L490.98 380.36L492.76 380.89L492.76 182.93L490.98 182.37L487.41 181.28L483.81 180.25L482.01 179.75L480.21 179.27L478.41 178.8L476.6 178.35L474.78 177.92L471.15 177.08L469.32 176.7L467.5 176.31L463.83 175.6L462 175.27L460.17 174.94L458.32 174.64L456.49 174.35L452.79 173.8L449.1 173.32L447.25 173.11L445.38 172.9L443.54 172.71L441.67 172.53L439.82 172.37L437.96 172.23L436.09 172.1L434.23 171.99L432.37 171.89L428.64 171.73L424.91 171.63L423.03 171.6L417.39 171.6L415.47 171.62Z" id="a2U6KrPw2"></path><path d="M330.18 403.04L508.93 403.04L508.93 191.43L518.8 191.43L518.8 412.9L518.8 412.9L330.18 412.9L330.18 403.04Z" id="c27YstdONA"></path><path d="M330.18 403.04L508.93 403.04L508.93 191.43L518.8 191.43L518.8 412.9L518.8 412.9L330.18 412.9L330.18 403.04Z" id="f8ZK4VJKQ"></path><path d="M149.34 191.43C149.34 254.03 149.34 288.81 149.34 295.77C152.38 294.71 155.74 293.76 159.21 292.93C159.21 279.4 159.21 245.56 159.21 191.43C157.23 191.43 150.33 191.43 149.34 191.43Z" id="c14HKz6Vno"></path><path d="M149.34 191.43C149.34 254.03 149.34 288.81 149.34 295.77C152.38 294.71 155.74 293.76 159.21 292.93C159.21 279.4 159.21 245.56 159.21 191.43C157.23 191.43 150.33 191.43 149.34 191.43Z" id="d3Geueu0cM"></path><path d="M250.09 161.41C222.74 160.99 195.51 165.43 169.7 174.54C169.49 174.62 168.48 175.04 166.67 175.8C166.67 245.58 166.67 284.35 166.67 292.09C169.88 291.53 173.16 291.08 176.52 290.73C176.52 226.05 176.52 190.12 176.52 182.93C200.26 175.27 225.05 171.44 250 171.6C275.58 171.5 301.03 175.31 325.46 182.93C325.46 202.73 325.46 361.09 325.46 380.89C311.23 376.23 296.57 373.03 281.69 371.34C281.69 372.34 281.69 380.31 281.69 381.31C297.8 383.2 313.64 386.9 328.93 392.33C329.36 392.46 331.53 393.17 335.44 394.42C335.44 372.53 335.44 197.37 335.44 175.47C333.41 174.93 332.16 174.57 331.66 174.43C305.33 165.78 277.8 161.4 250.09 161.41Z" id="b50iH1c15"></path><path d="M250.09 161.41C222.74 160.99 195.51 165.43 169.7 174.54C169.49 174.62 168.48 175.04 166.67 175.8C166.67 245.58 166.67 284.35 166.67 292.09C169.88 291.53 173.16 291.08 176.52 290.73C176.52 226.05 176.52 190.12 176.52 182.93C200.26 175.27 225.05 171.44 250 171.6C275.58 171.5 301.03 175.31 325.46 182.93C325.46 202.73 325.46 361.09 325.46 380.89C311.23 376.23 296.57 373.03 281.69 371.34C281.69 372.34 281.69 380.31 281.69 381.31C297.8 383.2 313.64 386.9 328.93 392.33C329.36 392.46 331.53 393.17 335.44 394.42C335.44 372.53 335.44 197.37 335.44 175.47C333.41 174.93 332.16 174.57 331.66 174.43C305.33 165.78 277.8 161.4 250.09 161.41Z" id="g3GxiBVONZ"></path><path d="M333.65 403.04C333.65 408.95 333.65 412.25 333.65 412.9C333.65 412.9 333.65 412.9 333.65 412.9C302.28 412.9 284.86 412.9 281.39 412.9C281.39 412.9 281.39 412.9 281.39 412.9C281.39 406.97 281.39 403.7 281.39 403.04C281.39 403.04 281.39 403.04 281.39 403.04C312.74 403.04 330.16 403.04 333.65 403.04C333.65 403.04 333.65 403.04 333.65 403.04Z" id="a2KlwdMiR"></path><path d="M333.65 403.04C333.65 408.95 333.65 412.25 333.65 412.9C333.65 412.9 333.65 412.9 333.65 412.9C302.28 412.9 284.86 412.9 281.39 412.9C281.39 412.9 281.39 412.9 281.39 412.9C281.39 406.97 281.39 403.7 281.39 403.04C281.39 403.04 281.39 403.04 281.39 403.04C312.74 403.04 330.16 403.04 333.65 403.04C333.65 403.04 333.65 403.04 333.65 403.04Z" id="a1cTi0INob"></path><path d="M194.16 361.15C153.87 361.15 121.21 347.38 121.21 330.41C121.21 313.42 153.87 299.65 194.16 299.65C234.44 299.65 267.1 313.42 267.1 330.41C267.1 347.38 234.44 361.15 194.16 361.15Z" id="b1RyVcoqJ"></path><path d="M194.16 361.15C153.87 361.15 121.21 347.38 121.21 330.41C121.21 313.42 153.87 299.65 194.16 299.65C234.44 299.65 267.1 313.42 267.1 330.41C267.1 347.38 234.44 361.15 194.16 361.15Z" id="aszak83a7"></path><path d="M194.16 369.98C154.69 369.98 122.26 357.28 118.48 341.11C118.48 341.11 118.48 341.11 118.48 341.11C118.48 353.18 118.48 449.74 118.48 461.81C118.48 461.81 118.48 461.81 118.48 461.81C118.48 479.55 152.49 493.92 194.58 493.92C236.67 493.92 270.67 479.55 270.67 461.81C270.67 453.76 270.67 413.53 270.67 341.11C270.23 341.11 269.94 341.11 269.83 341.11C266.05 357.38 233.62 369.98 194.16 369.98Z" id="f1jTi0c8lK"></path><path d="M194.16 369.98C154.69 369.98 122.26 357.28 118.48 341.11C118.48 341.11 118.48 341.11 118.48 341.11C118.48 353.18 118.48 449.74 118.48 461.81C118.48 461.81 118.48 461.81 118.48 461.81C118.48 479.55 152.49 493.92 194.58 493.92C236.67 493.92 270.67 479.55 270.67 461.81C270.67 453.76 270.67 413.53 270.67 341.11C270.23 341.11 269.94 341.11 269.83 341.11C266.05 357.38 233.62 369.98 194.16 369.98Z" id="c3g6Orgfmq"></path></defs><g><g><g><use xlink:href="#d3eAjITR1X" opacity="1" fill="#325c80" fill-opacity="1"></use><g><use xlink:href="#d3eAjITR1X" opacity="1" fill-opacity="0" stroke="#000000" stroke-width="1" stroke-opacity="0"></use></g></g><g><use xlink:href="#dc26RWn7H" opacity="1" fill="#000000" fill-opacity="0"></use><g><use xlink:href="#dc26RWn7H" opacity="1" fill-opacity="0" stroke="#000000" stroke-width="1" stroke-opacity="0"></use></g></g><g><use xlink:href="#bjbZOPQXJ" opacity="1" fill="#ffffff" fill-opacity="1"></use><g><use xlink:href="#bjbZOPQXJ" opacity="1" fill-opacity="0" stroke="#000000" stroke-width="1" stroke-opacity="0"></use></g></g><g><use xlink:href="#a2U6KrPw2" opacity="1" fill="#000000" fill-opacity="0"></use><g><use xlink:href="#a2U6KrPw2" opacity="1" fill-opacity="0" stroke="#000000" stroke-width="1" stroke-opacity="0"></use></g></g><g><use xlink:href="#c27YstdONA" opacity="1" fill="#ffffff" fill-opacity="1"></use><g><use xlink:href="#c27YstdONA" opacity="1" fill-opacity="0" stroke="#000000" stroke-width="1" stroke-opacity="0"></use></g></g><g><use xlink:href="#f8ZK4VJKQ" opacity="1" fill="#000000" fill-opacity="0"></use><g><use xlink:href="#f8ZK4VJKQ" opacity="1" fill-opacity="0" stroke="#000000" stroke-width="1" stroke-opacity="0"></use></g></g><g><use xlink:href="#c14HKz6Vno" opacity="1" fill="#ffffff" fill-opacity="1"></use><g><use xlink:href="#c14HKz6Vno" opacity="1" fill-opacity="0" stroke="#000000" stroke-width="1" stroke-opacity="0"></use></g></g><g><use xlink:href="#d3Geueu0cM" opacity="1" fill="#000000" fill-opacity="0"></use><g><use xlink:href="#d3Geueu0cM" opacity="1" fill-opacity="0" stroke="#000000" stroke-width="1" stroke-opacity="0"></use></g></g><g><use xlink:href="#b50iH1c15" opacity="1" fill="#ffffff" fill-opacity="1"></use><g><use xlink:href="#b50iH1c15" opacity="1" fill-opacity="0" stroke="#000000" stroke-width="1" stroke-opacity="0"></use></g></g><g><use xlink:href="#g3GxiBVONZ" opacity="1" fill="#000000" fill-opacity="0"></use><g><use xlink:href="#g3GxiBVONZ" opacity="1" fill-opacity="0" stroke="#000000" stroke-width="1" stroke-opacity="0"></use></g></g><g><use xlink:href="#a2KlwdMiR" opacity="1" fill="#ffffff" fill-opacity="1"></use><g><use xlink:href="#a2KlwdMiR" opacity="1" fill-opacity="0" stroke="#000000" stroke-width="1" stroke-opacity="0"></use></g></g><g><use xlink:href="#a1cTi0INob" opacity="1" fill="#000000" fill-opacity="0"></use><g><use xlink:href="#a1cTi0INob" opacity="1" fill-opacity="0" stroke="#000000" stroke-width="1" stroke-opacity="0"></use></g></g><g><use xlink:href="#b1RyVcoqJ" opacity="1" fill="#ffffff" fill-opacity="1"></use><g><use xlink:href="#b1RyVcoqJ" opacity="1" fill-opacity="0" stroke="#000000" stroke-width="1" stroke-opacity="0"></use></g></g><g><use xlink:href="#aszak83a7" opacity="1" fill="#000000" fill-opacity="0"></use><g><use xlink:href="#aszak83a7" opacity="1" fill-opacity="0" stroke="#000000" stroke-width="1" stroke-opacity="0"></use></g></g><g><use xlink:href="#f1jTi0c8lK" opacity="1" fill="#ffffff" fill-opacity="1"></use><g><use xlink:href="#f1jTi0c8lK" opacity="1" fill-opacity="0" stroke="#000000" stroke-width="1" stroke-opacity="0"></use></g></g><g><use xlink:href="#c3g6Orgfmq" opacity="1" fill="#000000" fill-opacity="0"></use><g><use xlink:href="#c3g6Orgfmq" opacity="1" fill-opacity="0" stroke="#000000" stroke-width="1" stroke-opacity="0"></use></g></g></g></g></svg>