<?xml version="1.0" encoding="UTF-8" standalone="no"?>
<!DOCTYPE svg PUBLIC "-//W3C//DTD SVG 1.1//EN" "http://www.w3.org/Graphics/SVG/1.1/DTD/svg11.dtd">
<svg version="1.1" xmlns="http://www.w3.org/2000/svg" xmlns:xlink="http://www.w3.org/1999/xlink" preserveAspectRatio="xMidYMid meet" viewBox="0 0 640 640" width="640" height="640"><defs><path d="M546.75 193.65C546.75 242.67 546.75 269.9 546.75 275.36C546.75 275.36 546.75 275.36 546.75 275.36C485.03 275.36 450.73 275.36 443.88 275.36C443.88 275.36 443.88 275.36 443.88 275.36C443.88 226.33 443.88 199.09 443.88 193.65C443.88 193.65 443.88 193.65 443.88 193.65C505.6 193.65 539.88 193.65 546.75 193.65C546.75 193.65 546.75 193.65 546.75 193.65Z" id="btv1LbPUO"></path><path d="M546.75 193.65C546.75 242.67 546.75 269.9 546.75 275.36C546.75 275.36 546.75 275.36 546.75 275.36C485.03 275.36 450.73 275.36 443.88 275.36C443.88 275.36 443.88 275.36 443.88 275.36C443.88 226.33 443.88 199.09 443.88 193.65C443.88 193.65 443.88 193.65 443.88 193.65C505.6 193.65 539.88 193.65 546.75 193.65C546.75 193.65 546.75 193.65 546.75 193.65Z" id="aywgcnpwW"></path><path d="M531.2 207.59C531.2 239.73 531.2 257.59 531.2 261.16C531.2 261.16 531.2 261.16 531.2 261.16C488.2 261.16 464.31 261.16 459.54 261.16C459.54 261.16 459.54 261.16 459.54 261.16C459.54 229.02 459.54 211.16 459.54 207.59C459.54 207.59 459.54 207.59 459.54 207.59C502.54 207.59 526.43 207.59 531.2 207.59C531.2 207.59 531.2 207.59 531.2 207.59Z" id="a3k3RXs6YS"></path><path d="M531.2 207.59C531.2 239.73 531.2 257.59 531.2 261.16C531.2 261.16 531.2 261.16 531.2 261.16C488.2 261.16 464.31 261.16 459.54 261.16C459.54 261.16 459.54 261.16 459.54 261.16C459.54 229.02 459.54 211.16 459.54 207.59C459.54 207.59 459.54 207.59 459.54 207.59C502.54 207.59 526.43 207.59 531.2 207.59C531.2 207.59 531.2 207.59 531.2 207.59Z" id="h4qUnOZwoF"></path><path d="M546.75 300.05C546.75 349.08 546.75 376.32 546.75 381.76C546.75 381.76 546.75 381.76 546.75 381.76C485.03 381.76 450.73 381.76 443.88 381.76C443.88 381.76 443.88 381.76 443.88 381.76C443.88 332.73 443.88 305.5 443.88 300.05C443.88 300.05 443.88 300.05 443.88 300.05C505.6 300.05 539.88 300.05 546.75 300.05C546.75 300.05 546.75 300.05 546.75 300.05Z" id="blppK8qcf"></path><path d="M546.75 300.05C546.75 349.08 546.75 376.32 546.75 381.76C546.75 381.76 546.75 381.76 546.75 381.76C485.03 381.76 450.73 381.76 443.88 381.76C443.88 381.76 443.88 381.76 443.88 381.76C443.88 332.73 443.88 305.5 443.88 300.05C443.88 300.05 443.88 300.05 443.88 300.05C505.6 300.05 539.88 300.05 546.75 300.05C546.75 300.05 546.75 300.05 546.75 300.05Z" id="b21Y5NOt5"></path><path d="M531.2 314.12C531.2 346.26 531.2 364.12 531.2 367.69C531.2 367.69 531.2 367.69 531.2 367.69C488.2 367.69 464.31 367.69 459.54 367.69C459.54 367.69 459.54 367.69 459.54 367.69C459.54 335.55 459.54 317.69 459.54 314.12C459.54 314.12 459.54 314.12 459.54 314.12C502.54 314.12 526.43 314.12 531.2 314.12C531.2 314.12 531.2 314.12 531.2 314.12Z" id="cgqlNFPbR"></path><path d="M531.2 314.12C531.2 346.26 531.2 364.12 531.2 367.69C531.2 367.69 531.2 367.69 531.2 367.69C488.2 367.69 464.31 367.69 459.54 367.69C459.54 367.69 459.54 367.69 459.54 367.69C459.54 335.55 459.54 317.69 459.54 314.12C459.54 314.12 459.54 314.12 459.54 314.12C502.54 314.12 526.43 314.12 531.2 314.12C531.2 314.12 531.2 314.12 531.2 314.12Z" id="e4Z1qJnmFN"></path><path d="M409.27 416.01C409.27 448.14 409.27 466 409.27 469.57C409.27 469.57 409.27 469.57 409.27 469.57C366.25 469.57 342.36 469.57 337.59 469.57C337.59 469.57 337.59 469.57 337.59 469.57C337.59 437.44 337.59 419.58 337.59 416.01C337.59 416.01 337.59 416.01 337.59 416.01C380.59 416.01 404.48 416.01 409.27 416.01C409.27 416.01 409.27 416.01 409.27 416.01Z" id="angyw22T5"></path><path d="M409.27 416.01C409.27 448.14 409.27 466 409.27 469.57C409.27 469.57 409.27 469.57 409.27 469.57C366.25 469.57 342.36 469.57 337.59 469.57C337.59 469.57 337.59 469.57 337.59 469.57C337.59 437.44 337.59 419.58 337.59 416.01C337.59 416.01 337.59 416.01 337.59 416.01C380.59 416.01 404.48 416.01 409.27 416.01C409.27 416.01 409.27 416.01 409.27 416.01Z" id="d2e5TLQyj"></path><path d="M169.29 416.01C169.29 448.14 169.29 466 169.29 469.57C169.29 469.57 169.29 469.57 169.29 469.57C126.29 469.57 102.4 469.57 97.61 469.57C97.61 469.57 97.61 469.57 97.61 469.57C97.61 437.44 97.61 419.58 97.61 416.01C97.61 416.01 97.61 416.01 97.61 416.01C140.63 416.01 164.52 416.01 169.29 416.01C169.29 416.01 169.29 416.01 169.29 416.01Z" id="buRQT00Em"></path><path d="M169.29 416.01C169.29 448.14 169.29 466 169.29 469.57C169.29 469.57 169.29 469.57 169.29 469.57C126.29 469.57 102.4 469.57 97.61 469.57C97.61 469.57 97.61 469.57 97.61 469.57C97.61 437.44 97.61 419.58 97.61 416.01C97.61 416.01 97.61 416.01 97.61 416.01C140.63 416.01 164.52 416.01 169.29 416.01C169.29 416.01 169.29 416.01 169.29 416.01Z" id="j1taeJMp2i"></path><path d="M303.71 506.15C303.71 555.17 303.71 582.4 303.71 587.86C303.71 587.86 303.71 587.86 303.71 587.86C241.99 587.86 207.71 587.86 200.84 587.86C200.84 587.86 200.84 587.86 200.84 587.86C200.84 538.83 200.84 511.59 200.84 506.15C200.84 506.15 200.84 506.15 200.84 506.15C262.56 506.15 296.85 506.15 303.71 506.15C303.71 506.15 303.71 506.15 303.71 506.15Z" id="b1u3gD8oW8"></path><path d="M303.71 506.15C303.71 555.17 303.71 582.4 303.71 587.86C303.71 587.86 303.71 587.86 303.71 587.86C241.99 587.86 207.71 587.86 200.84 587.86C200.84 587.86 200.84 587.86 200.84 587.86C200.84 538.83 200.84 511.59 200.84 506.15C200.84 506.15 200.84 506.15 200.84 506.15C262.56 506.15 296.85 506.15 303.71 506.15C303.71 506.15 303.71 506.15 303.71 506.15Z" id="fH9Isss81"></path><path d="M288.05 520.22C288.05 552.36 288.05 570.22 288.05 573.79C288.05 573.79 288.05 573.79 288.05 573.79C245.05 573.79 221.16 573.79 216.39 573.79C216.39 573.79 216.39 573.79 216.39 573.79C216.39 541.65 216.39 523.79 216.39 520.22C216.39 520.22 216.39 520.22 216.39 520.22C259.39 520.22 283.28 520.22 288.05 520.22C288.05 520.22 288.05 520.22 288.05 520.22Z" id="a9Vg2WkS6"></path><path d="M288.05 520.22C288.05 552.36 288.05 570.22 288.05 573.79C288.05 573.79 288.05 573.79 288.05 573.79C245.05 573.79 221.16 573.79 216.39 573.79C216.39 573.79 216.39 573.79 216.39 573.79C216.39 541.65 216.39 523.79 216.39 520.22C216.39 520.22 216.39 520.22 216.39 520.22C259.39 520.22 283.28 520.22 288.05 520.22C288.05 520.22 288.05 520.22 288.05 520.22Z" id="b4t3vC3s5n"></path><path d="M7.1 320.37C7.1 493.73 147.62 634.25 320.98 634.25C494.32 634.25 634.86 493.73 634.86 320.37C634.86 147.03 494.32 6.51 320.98 6.51C147.62 6.51 7.1 147.03 7.1 320.37Z" id="b1vR1d8HPN"></path><path d="M7.1 320.37C7.1 493.73 147.62 634.25 320.98 634.25C494.32 634.25 634.86 493.73 634.86 320.37C634.86 147.03 494.32 6.51 320.98 6.51C147.62 6.51 7.1 147.03 7.1 320.37Z" id="b2KDWgDdL9"></path><path d="M533.14 140.75C533.14 356.24 533.14 475.95 533.14 499.9C533.14 499.9 533.14 499.9 533.14 499.9C278.61 499.9 137.22 499.9 108.93 499.9C108.93 499.9 108.93 499.9 108.93 499.9C108.93 284.41 108.93 164.7 108.93 140.75C108.93 140.75 108.93 140.75 108.93 140.75C363.46 140.75 504.85 140.75 533.14 140.75C533.14 140.75 533.14 140.75 533.14 140.75Z" id="ak8zQxMVE"></path><path d="M533.14 140.75C533.14 356.24 533.14 475.95 533.14 499.9C533.14 499.9 533.14 499.9 533.14 499.9C278.61 499.9 137.22 499.9 108.93 499.9C108.93 499.9 108.93 499.9 108.93 499.9C108.93 284.41 108.93 164.7 108.93 140.75C108.93 140.75 108.93 140.75 108.93 140.75C363.46 140.75 504.85 140.75 533.14 140.75C533.14 140.75 533.14 140.75 533.14 140.75Z" id="htqPIxNyM"></path><path d="M243.49 152.57C243.49 210.62 243.49 242.87 243.49 249.31C243.49 249.31 243.49 249.31 243.49 249.31C169.85 249.31 128.92 249.31 120.74 249.31C120.74 249.31 120.74 249.31 120.74 249.31C120.74 191.27 120.74 159.01 120.74 152.57C120.74 152.57 120.74 152.57 120.74 152.57C194.4 152.57 235.31 152.57 243.49 152.57C243.49 152.57 243.49 152.57 243.49 152.57Z" id="c14rdY6Zk"></path><path d="M243.49 152.57C243.49 210.62 243.49 242.87 243.49 249.31C243.49 249.31 243.49 249.31 243.49 249.31C169.85 249.31 128.92 249.31 120.74 249.31C120.74 249.31 120.74 249.31 120.74 249.31C120.74 191.27 120.74 159.01 120.74 152.57C120.74 152.57 120.74 152.57 120.74 152.57C194.4 152.57 235.31 152.57 243.49 152.57C243.49 152.57 243.49 152.57 243.49 152.57Z" id="b6ySwyj3G1"></path><path d="M210.14 195.67C210.14 201.99 210.14 205.52 210.14 206.23C210.14 206.23 210.14 206.23 210.14 206.23C176.44 206.23 157.74 206.23 154 206.23C154 206.23 154 206.23 154 206.23C154 199.89 154 196.36 154 195.67C154 195.67 154 195.67 154 195.67C187.67 195.67 206.39 195.67 210.14 195.67C210.14 195.67 210.14 195.67 210.14 195.67Z" id="jfIfrKeEA"></path><path d="M210.14 195.67C210.14 201.99 210.14 205.52 210.14 206.23C210.14 206.23 210.14 206.23 210.14 206.23C176.44 206.23 157.74 206.23 154 206.23C154 206.23 154 206.23 154 206.23C154 199.89 154 196.36 154 195.67C154 195.67 154 195.67 154 195.67C187.67 195.67 206.39 195.67 210.14 195.67C210.14 195.67 210.14 195.67 210.14 195.67Z" id="ccCzYHSB6"></path><path d="M385.73 152.57C385.73 210.62 385.73 242.87 385.73 249.31C385.73 249.31 385.73 249.31 385.73 249.31C306.16 249.31 261.97 249.31 253.12 249.31C253.12 249.31 253.12 249.31 253.12 249.31C253.12 191.27 253.12 159.01 253.12 152.57C253.12 152.57 253.12 152.57 253.12 152.57C332.69 152.57 376.88 152.57 385.73 152.57C385.73 152.57 385.73 152.57 385.73 152.57Z" id="b300yJTOAS"></path><path d="M385.73 152.57C385.73 210.62 385.73 242.87 385.73 249.31C385.73 249.31 385.73 249.31 385.73 249.31C306.16 249.31 261.97 249.31 253.12 249.31C253.12 249.31 253.12 249.31 253.12 249.31C253.12 191.27 253.12 159.01 253.12 152.57C253.12 152.57 253.12 152.57 253.12 152.57C332.69 152.57 376.88 152.57 385.73 152.57C385.73 152.57 385.73 152.57 385.73 152.57Z" id="i6IIgoX9Ki"></path><path d="M349.77 195.67C349.77 201.99 349.77 205.52 349.77 206.23C349.77 206.23 349.77 206.23 349.77 206.23C313.35 206.23 293.13 206.23 289.08 206.23C289.08 206.23 289.08 206.23 289.08 206.23C289.08 199.89 289.08 196.36 289.08 195.67C289.08 195.67 289.08 195.67 289.08 195.67C325.5 195.67 345.72 195.67 349.77 195.67C349.77 195.67 349.77 195.67 349.77 195.67Z" id="a21PMpMTcD"></path><path d="M349.77 195.67C349.77 201.99 349.77 205.52 349.77 206.23C349.77 206.23 349.77 206.23 349.77 206.23C313.35 206.23 293.13 206.23 289.08 206.23C289.08 206.23 289.08 206.23 289.08 206.23C289.08 199.89 289.08 196.36 289.08 195.67C289.08 195.67 289.08 195.67 289.08 195.67C325.5 195.67 345.72 195.67 349.77 195.67C349.77 195.67 349.77 195.67 349.77 195.67Z" id="c2CUrTnTOW"></path><path d="M523.6 152.57C523.6 210.62 523.6 242.87 523.6 249.31C523.6 249.31 523.6 249.31 523.6 249.31C449.96 249.31 409.03 249.31 400.85 249.31C400.85 249.31 400.85 249.31 400.85 249.31C400.85 191.27 400.85 159.01 400.85 152.57C400.85 152.57 400.85 152.57 400.85 152.57C474.49 152.57 515.42 152.57 523.6 152.57C523.6 152.57 523.6 152.57 523.6 152.57Z" id="a1hSEBJNKw"></path><path d="M523.6 152.57C523.6 210.62 523.6 242.87 523.6 249.31C523.6 249.31 523.6 249.31 523.6 249.31C449.96 249.31 409.03 249.31 400.85 249.31C400.85 249.31 400.85 249.31 400.85 249.31C400.85 191.27 400.85 159.01 400.85 152.57C400.85 152.57 400.85 152.57 400.85 152.57C474.49 152.57 515.42 152.57 523.6 152.57C523.6 152.57 523.6 152.57 523.6 152.57Z" id="a8VXM1wlm"></path><path d="M490.24 195.67C490.24 201.99 490.24 205.52 490.24 206.23C490.24 206.23 490.24 206.23 490.24 206.23C456.55 206.23 437.84 206.23 434.09 206.23C434.09 206.23 434.09 206.23 434.09 206.23C434.09 199.89 434.09 196.36 434.09 195.67C434.09 195.67 434.09 195.67 434.09 195.67C467.78 195.67 486.5 195.67 490.24 195.67C490.24 195.67 490.24 195.67 490.24 195.67Z" id="bgjWKQQ3y"></path><path d="M490.24 195.67C490.24 201.99 490.24 205.52 490.24 206.23C490.24 206.23 490.24 206.23 490.24 206.23C456.55 206.23 437.84 206.23 434.09 206.23C434.09 206.23 434.09 206.23 434.09 206.23C434.09 199.89 434.09 196.36 434.09 195.67C434.09 195.67 434.09 195.67 434.09 195.67C467.78 195.67 486.5 195.67 490.24 195.67C490.24 195.67 490.24 195.67 490.24 195.67Z" id="d1hSDfkpI9"></path><path d="M517.5 259.88C517.5 330.3 517.5 369.42 517.5 377.26C517.5 377.26 517.5 377.26 517.5 377.26C447.5 377.26 408.62 377.26 400.85 377.26C400.85 377.26 400.85 377.26 400.85 377.26C400.85 306.83 400.85 267.71 400.85 259.88C400.85 259.88 400.85 259.88 400.85 259.88C470.83 259.88 509.71 259.88 517.5 259.88C517.5 259.88 517.5 259.88 517.5 259.88Z" id="a34y3ZmWn"></path><path d="M517.5 259.88C517.5 330.3 517.5 369.42 517.5 377.26C517.5 377.26 517.5 377.26 517.5 377.26C447.5 377.26 408.62 377.26 400.85 377.26C400.85 377.26 400.85 377.26 400.85 377.26C400.85 306.83 400.85 267.71 400.85 259.88C400.85 259.88 400.85 259.88 400.85 259.88C470.83 259.88 509.71 259.88 517.5 259.88C517.5 259.88 517.5 259.88 517.5 259.88Z" id="bDJNI37Nj"></path><path d="M485.79 312.19C485.79 319.9 485.79 324.18 485.79 325.04C485.79 325.04 485.79 325.04 485.79 325.04C453.78 325.04 436 325.04 432.44 325.04C432.44 325.04 432.44 325.04 432.44 325.04C432.44 317.33 432.44 313.05 432.44 312.19C432.44 312.19 432.44 312.19 432.44 312.19C464.45 312.19 482.23 312.19 485.79 312.19C485.79 312.19 485.79 312.19 485.79 312.19Z" id="a19LDO7FQF"></path><path d="M485.79 312.19C485.79 319.9 485.79 324.18 485.79 325.04C485.79 325.04 485.79 325.04 485.79 325.04C453.78 325.04 436 325.04 432.44 325.04C432.44 325.04 432.44 325.04 432.44 325.04C432.44 317.33 432.44 313.05 432.44 312.19C432.44 312.19 432.44 312.19 432.44 312.19C464.45 312.19 482.23 312.19 485.79 312.19C485.79 312.19 485.79 312.19 485.79 312.19Z" id="f1ESguxkX4"></path><path d="M241.21 259.88C241.21 330.3 241.21 369.42 241.21 377.26C241.21 377.26 241.21 377.26 241.21 377.26C167.56 377.26 126.65 377.26 118.47 377.26C118.47 377.26 118.47 377.26 118.47 377.26C118.47 306.83 118.47 267.71 118.47 259.88C118.47 259.88 118.47 259.88 118.47 259.88C192.12 259.88 233.02 259.88 241.21 259.88C241.21 259.88 241.21 259.88 241.21 259.88Z" id="bow0fN4xs"></path><path d="M241.21 259.88C241.21 330.3 241.21 369.42 241.21 377.26C241.21 377.26 241.21 377.26 241.21 377.26C167.56 377.26 126.65 377.26 118.47 377.26C118.47 377.26 118.47 377.26 118.47 377.26C118.47 306.83 118.47 267.71 118.47 259.88C118.47 259.88 118.47 259.88 118.47 259.88C192.12 259.88 233.02 259.88 241.21 259.88C241.21 259.88 241.21 259.88 241.21 259.88Z" id="aiAXT1qt"></path><path d="M207.96 312.19C207.96 319.9 207.96 324.18 207.96 325.04C207.96 325.04 207.96 325.04 207.96 325.04C174.27 325.04 155.55 325.04 151.81 325.04C151.81 325.04 151.81 325.04 151.81 325.04C151.81 317.33 151.81 313.05 151.81 312.19C151.81 312.19 151.81 312.19 151.81 312.19C185.5 312.19 204.22 312.19 207.96 312.19C207.96 312.19 207.96 312.19 207.96 312.19Z" id="c1JlncWBPl"></path><path d="M207.96 312.19C207.96 319.9 207.96 324.18 207.96 325.04C207.96 325.04 207.96 325.04 207.96 325.04C174.27 325.04 155.55 325.04 151.81 325.04C151.81 325.04 151.81 325.04 151.81 325.04C151.81 317.33 151.81 313.05 151.81 312.19C151.81 312.19 151.81 312.19 151.81 312.19C185.5 312.19 204.22 312.19 207.96 312.19C207.96 312.19 207.96 312.19 207.96 312.19Z" id="bnsWoDM0M"></path><path d="M386.65 259.88C386.65 332.05 386.65 372.13 386.65 380.16C386.65 380.16 386.65 380.16 386.65 380.16C306.55 380.16 262.04 380.16 253.12 380.16C253.12 380.16 253.12 380.16 253.12 380.16C253.12 307.99 253.12 267.9 253.12 259.88C253.12 259.88 253.12 259.88 253.12 259.88C333.24 259.88 377.75 259.88 386.65 259.88C386.65 259.88 386.65 259.88 386.65 259.88Z" id="f4VK6JbT8S"></path><path d="M386.65 259.88C386.65 332.05 386.65 372.13 386.65 380.16C386.65 380.16 386.65 380.16 386.65 380.16C306.55 380.16 262.04 380.16 253.12 380.16C253.12 380.16 253.12 380.16 253.12 380.16C253.12 307.99 253.12 267.9 253.12 259.88C253.12 259.88 253.12 259.88 253.12 259.88C333.24 259.88 377.75 259.88 386.65 259.88C386.65 259.88 386.65 259.88 386.65 259.88Z" id="a35GMKB3gS"></path><path d="M350.4 313.44C350.4 321.33 350.4 325.72 350.4 326.59C350.4 326.59 350.4 326.59 350.4 326.59C313.73 326.59 293.35 326.59 289.29 326.59C289.29 326.59 289.29 326.59 289.29 326.59C289.29 318.71 289.29 314.31 289.29 313.44C289.29 313.44 289.29 313.44 289.29 313.44C325.94 313.44 346.33 313.44 350.4 313.44C350.4 313.44 350.4 313.44 350.4 313.44Z" id="bjQ9bB8jO"></path><path d="M350.4 313.44C350.4 321.33 350.4 325.72 350.4 326.59C350.4 326.59 350.4 326.59 350.4 326.59C313.73 326.59 293.35 326.59 289.29 326.59C289.29 326.59 289.29 326.59 289.29 326.59C289.29 318.71 289.29 314.31 289.29 313.44C289.29 313.44 289.29 313.44 289.29 313.44C325.94 313.44 346.33 313.44 350.4 313.44C350.4 313.44 350.4 313.44 350.4 313.44Z" id="g2Y1DxFK59"></path><path d="M243.49 391.34C243.49 449.4 243.49 481.64 243.49 488.08C243.49 488.08 243.49 488.08 243.49 488.08C169.85 488.08 128.92 488.08 120.74 488.08C120.74 488.08 120.74 488.08 120.74 488.08C120.74 430.04 120.74 397.78 120.74 391.34C120.74 391.34 120.74 391.34 120.74 391.34C194.4 391.34 235.31 391.34 243.49 391.34C243.49 391.34 243.49 391.34 243.49 391.34Z" id="a545bBGOq"></path><path d="M243.49 391.34C243.49 449.4 243.49 481.64 243.49 488.08C243.49 488.08 243.49 488.08 243.49 488.08C169.85 488.08 128.92 488.08 120.74 488.08C120.74 488.08 120.74 488.08 120.74 488.08C120.74 430.04 120.74 397.78 120.74 391.34C120.74 391.34 120.74 391.34 120.74 391.34C194.4 391.34 235.31 391.34 243.49 391.34C243.49 391.34 243.49 391.34 243.49 391.34Z" id="g8a3INQLgh"></path><path d="M210.14 434.44C210.14 440.77 210.14 444.29 210.14 445C210.14 445 210.14 445 210.14 445C176.44 445 157.74 445 154 445C154 445 154 445 154 445C154 438.66 154 435.14 154 434.44C154 434.44 154 434.44 154 434.44C187.67 434.44 206.39 434.44 210.14 434.44C210.14 434.44 210.14 434.44 210.14 434.44Z" id="c3kXiFFl22"></path><path d="M210.14 434.44C210.14 440.77 210.14 444.29 210.14 445C210.14 445 210.14 445 210.14 445C176.44 445 157.74 445 154 445C154 445 154 445 154 445C154 438.66 154 435.14 154 434.44C154 434.44 154 434.44 154 434.44C187.67 434.44 206.39 434.44 210.14 434.44C210.14 434.44 210.14 434.44 210.14 434.44Z" id="b7EsD8mipt"></path><path d="M386.65 391.34C386.65 449.4 386.65 481.64 386.65 488.08C386.65 488.08 386.65 488.08 386.65 488.08C306.55 488.08 262.04 488.08 253.12 488.08C253.12 488.08 253.12 488.08 253.12 488.08C253.12 430.04 253.12 397.78 253.12 391.34C253.12 391.34 253.12 391.34 253.12 391.34C333.24 391.34 377.75 391.34 386.65 391.34C386.65 391.34 386.65 391.34 386.65 391.34Z" id="d1B9BsEU2Y"></path><path d="M386.65 391.34C386.65 449.4 386.65 481.64 386.65 488.08C386.65 488.08 386.65 488.08 386.65 488.08C306.55 488.08 262.04 488.08 253.12 488.08C253.12 488.08 253.12 488.08 253.12 488.08C253.12 430.04 253.12 397.78 253.12 391.34C253.12 391.34 253.12 391.34 253.12 391.34C333.24 391.34 377.75 391.34 386.65 391.34C386.65 391.34 386.65 391.34 386.65 391.34Z" id="a248n1X5X"></path><path d="M350.4 434.44C350.4 440.77 350.4 444.29 350.4 445C350.4 445 350.4 445 350.4 445C313.73 445 293.35 445 289.29 445C289.29 445 289.29 445 289.29 445C289.29 438.66 289.29 435.14 289.29 434.44C289.29 434.44 289.29 434.44 289.29 434.44C325.94 434.44 346.33 434.44 350.4 434.44C350.4 434.44 350.4 434.44 350.4 434.44Z" id="d3CQhnxgGn"></path><path d="M350.4 434.44C350.4 440.77 350.4 444.29 350.4 445C350.4 445 350.4 445 350.4 445C313.73 445 293.35 445 289.29 445C289.29 445 289.29 445 289.29 445C289.29 438.66 289.29 435.14 289.29 434.44C289.29 434.44 289.29 434.44 289.29 434.44C325.94 434.44 346.33 434.44 350.4 434.44C350.4 434.44 350.4 434.44 350.4 434.44Z" id="afBHbp28"></path><path d="M517.5 391.34C517.5 449.4 517.5 481.64 517.5 488.08C517.5 488.08 517.5 488.08 517.5 488.08C447.5 488.08 408.62 488.08 400.85 488.08C400.85 488.08 400.85 488.08 400.85 488.08C400.85 430.04 400.85 397.78 400.85 391.34C400.85 391.34 400.85 391.34 400.85 391.34C470.83 391.34 509.71 391.34 517.5 391.34C517.5 391.34 517.5 391.34 517.5 391.34Z" id="d1nbtiaNTY"></path><path d="M517.5 391.34C517.5 449.4 517.5 481.64 517.5 488.08C517.5 488.08 517.5 488.08 517.5 488.08C447.5 488.08 408.62 488.08 400.85 488.08C400.85 488.08 400.85 488.08 400.85 488.08C400.85 430.04 400.85 397.78 400.85 391.34C400.85 391.34 400.85 391.34 400.85 391.34C470.83 391.34 509.71 391.34 517.5 391.34C517.5 391.34 517.5 391.34 517.5 391.34Z" id="edAp2Ftp9"></path><path d="M485.79 434.44C485.79 440.77 485.79 444.29 485.79 445C485.79 445 485.79 445 485.79 445C453.78 445 436 445 432.44 445C432.44 445 432.44 445 432.44 445C432.44 438.66 432.44 435.14 432.44 434.44C432.44 434.44 432.44 434.44 432.44 434.44C464.45 434.44 482.23 434.44 485.79 434.44C485.79 434.44 485.79 434.44 485.79 434.44Z" id="i7llnp5eB"></path><path d="M485.79 434.44C485.79 440.77 485.79 444.29 485.79 445C485.79 445 485.79 445 485.79 445C453.78 445 436 445 432.44 445C432.44 445 432.44 445 432.44 445C432.44 438.66 432.44 435.14 432.44 434.44C432.44 434.44 432.44 434.44 432.44 434.44C464.45 434.44 482.23 434.44 485.79 434.44C485.79 434.44 485.79 434.44 485.79 434.44Z" id="j7jyP3ZqWm"></path></defs><g><g><g><use xlink:href="#btv1LbPUO" opacity="1" fill="#ffffff" fill-opacity="1"></use><g><use xlink:href="#btv1LbPUO" opacity="1" fill-opacity="0" stroke="#000000" stroke-width="1" stroke-opacity="0"></use></g></g><g><use xlink:href="#aywgcnpwW" opacity="1" fill="#000000" fill-opacity="0"></use><g><use xlink:href="#aywgcnpwW" opacity="1" fill-opacity="0" stroke="#000000" stroke-width="1" stroke-opacity="0"></use></g></g><g><use xlink:href="#a3k3RXs6YS" opacity="1" fill="#ffffff" fill-opacity="1"></use><g><use xlink:href="#a3k3RXs6YS" opacity="1" fill-opacity="0" stroke="#000000" stroke-width="1" stroke-opacity="0"></use></g></g><g><use xlink:href="#h4qUnOZwoF" opacity="1" fill="#000000" fill-opacity="0"></use><g><use xlink:href="#h4qUnOZwoF" opacity="1" fill-opacity="0" stroke="#000000" stroke-width="1" stroke-opacity="0"></use></g></g><g><use xlink:href="#blppK8qcf" opacity="1" fill="#ffffff" fill-opacity="1"></use><g><use xlink:href="#blppK8qcf" opacity="1" fill-opacity="0" stroke="#000000" stroke-width="1" stroke-opacity="0"></use></g></g><g><use xlink:href="#b21Y5NOt5" opacity="1" fill="#000000" fill-opacity="0"></use><g><use xlink:href="#b21Y5NOt5" opacity="1" fill-opacity="0" stroke="#000000" stroke-width="1" stroke-opacity="0"></use></g></g><g><use xlink:href="#cgqlNFPbR" opacity="1" fill="#ffffff" fill-opacity="1"></use><g><use xlink:href="#cgqlNFPbR" opacity="1" fill-opacity="0" stroke="#000000" stroke-width="1" stroke-opacity="0"></use></g></g><g><use xlink:href="#e4Z1qJnmFN" opacity="1" fill="#000000" fill-opacity="0"></use><g><use xlink:href="#e4Z1qJnmFN" opacity="1" fill-opacity="0" stroke="#000000" stroke-width="1" stroke-opacity="0"></use></g></g><g><use xlink:href="#angyw22T5" opacity="1" fill="#ffffff" fill-opacity="1"></use><g><use xlink:href="#angyw22T5" opacity="1" fill-opacity="0" stroke="#000000" stroke-width="1" stroke-opacity="0"></use></g></g><g><use xlink:href="#d2e5TLQyj" opacity="1" fill="#000000" fill-opacity="0"></use><g><use xlink:href="#d2e5TLQyj" opacity="1" fill-opacity="0" stroke="#000000" stroke-width="1" stroke-opacity="0"></use></g></g><g><use xlink:href="#buRQT00Em" opacity="1" fill="#ffffff" fill-opacity="1"></use><g><use xlink:href="#buRQT00Em" opacity="1" fill-opacity="0" stroke="#000000" stroke-width="1" stroke-opacity="0"></use></g></g><g><use xlink:href="#j1taeJMp2i" opacity="1" fill="#000000" fill-opacity="0"></use><g><use xlink:href="#j1taeJMp2i" opacity="1" fill-opacity="0" stroke="#000000" stroke-width="1" stroke-opacity="0"></use></g></g><g><use xlink:href="#b1u3gD8oW8" opacity="1" fill="#ffffff" fill-opacity="1"></use><g><use xlink:href="#b1u3gD8oW8" opacity="1" fill-opacity="0" stroke="#000000" stroke-width="1" stroke-opacity="0"></use></g></g><g><use xlink:href="#fH9Isss81" opacity="1" fill="#000000" fill-opacity="0"></use><g><use xlink:href="#fH9Isss81" opacity="1" fill-opacity="0" stroke="#000000" stroke-width="1" stroke-opacity="0"></use></g></g><g><use xlink:href="#a9Vg2WkS6" opacity="1" fill="#ffffff" fill-opacity="1"></use><g><use xlink:href="#a9Vg2WkS6" opacity="1" fill-opacity="0" stroke="#000000" stroke-width="1" stroke-opacity="0"></use></g></g><g><use xlink:href="#b4t3vC3s5n" opacity="1" fill="#000000" fill-opacity="0"></use><g><use xlink:href="#b4t3vC3s5n" opacity="1" fill-opacity="0" stroke="#000000" stroke-width="1" stroke-opacity="0"></use></g></g><g><use xlink:href="#b1vR1d8HPN" opacity="1" fill="#325c80" fill-opacity="1"></use><g><use xlink:href="#b1vR1d8HPN" opacity="1" fill-opacity="0" stroke="#000000" stroke-width="1" stroke-opacity="0"></use></g></g><g><use xlink:href="#b2KDWgDdL9" opacity="1" fill="#000000" fill-opacity="0"></use><g><use xlink:href="#b2KDWgDdL9" opacity="1" fill-opacity="0" stroke="#000000" stroke-width="1" stroke-opacity="0"></use></g></g><g><use xlink:href="#ak8zQxMVE" opacity="1" fill="#ffffff" fill-opacity="1"></use><g><use xlink:href="#ak8zQxMVE" opacity="1" fill-opacity="0" stroke="#000000" stroke-width="1" stroke-opacity="0"></use></g></g><g><use xlink:href="#htqPIxNyM" opacity="1" fill="#000000" fill-opacity="0"></use><g><use xlink:href="#htqPIxNyM" opacity="1" fill-opacity="0" stroke="#000000" stroke-width="1" stroke-opacity="0"></use></g></g><g><use xlink:href="#c14rdY6Zk" opacity="1" fill="#325c80" fill-opacity="1"></use><g><use xlink:href="#c14rdY6Zk" opacity="1" fill-opacity="0" stroke="#000000" stroke-width="1" stroke-opacity="0"></use></g></g><g><use xlink:href="#b6ySwyj3G1" opacity="1" fill="#000000" fill-opacity="0"></use><g><use xlink:href="#b6ySwyj3G1" opacity="1" fill-opacity="0" stroke="#000000" stroke-width="1" stroke-opacity="0"></use></g></g><g><use xlink:href="#jfIfrKeEA" opacity="1" fill="#ffffff" fill-opacity="1"></use><g><use xlink:href="#jfIfrKeEA" opacity="1" fill-opacity="0" stroke="#000000" stroke-width="1" stroke-opacity="0"></use></g></g><g><use xlink:href="#ccCzYHSB6" opacity="1" fill="#000000" fill-opacity="0"></use><g><use xlink:href="#ccCzYHSB6" opacity="1" fill-opacity="0" stroke="#000000" stroke-width="1" stroke-opacity="0"></use></g></g><g><use xlink:href="#b300yJTOAS" opacity="1" fill="#325c80" fill-opacity="1"></use><g><use xlink:href="#b300yJTOAS" opacity="1" fill-opacity="0" stroke="#000000" stroke-width="1" stroke-opacity="0"></use></g></g><g><use xlink:href="#i6IIgoX9Ki" opacity="1" fill="#000000" fill-opacity="0"></use><g><use xlink:href="#i6IIgoX9Ki" opacity="1" fill-opacity="0" stroke="#000000" stroke-width="1" stroke-opacity="0"></use></g></g><g><use xlink:href="#a21PMpMTcD" opacity="1" fill="#ffffff" fill-opacity="1"></use><g><use xlink:href="#a21PMpMTcD" opacity="1" fill-opacity="0" stroke="#000000" stroke-width="1" stroke-opacity="0"></use></g></g><g><use xlink:href="#c2CUrTnTOW" opacity="1" fill="#000000" fill-opacity="0"></use><g><use xlink:href="#c2CUrTnTOW" opacity="1" fill-opacity="0" stroke="#000000" stroke-width="1" stroke-opacity="0"></use></g></g><g><use xlink:href="#a1hSEBJNKw" opacity="1" fill="#325c80" fill-opacity="1"></use><g><use xlink:href="#a1hSEBJNKw" opacity="1" fill-opacity="0" stroke="#000000" stroke-width="1" stroke-opacity="0"></use></g></g><g><use xlink:href="#a8VXM1wlm" opacity="1" fill="#000000" fill-opacity="0"></use><g><use xlink:href="#a8VXM1wlm" opacity="1" fill-opacity="0" stroke="#000000" stroke-width="1" stroke-opacity="0"></use></g></g><g><use xlink:href="#bgjWKQQ3y" opacity="1" fill="#ffffff" fill-opacity="1"></use><g><use xlink:href="#bgjWKQQ3y" opacity="1" fill-opacity="0" stroke="#000000" stroke-width="1" stroke-opacity="0"></use></g></g><g><use xlink:href="#d1hSDfkpI9" opacity="1" fill="#000000" fill-opacity="0"></use><g><use xlink:href="#d1hSDfkpI9" opacity="1" fill-opacity="0" stroke="#000000" stroke-width="1" stroke-opacity="0"></use></g></g><g><use xlink:href="#a34y3ZmWn" opacity="1" fill="#325c80" fill-opacity="1"></use><g><use xlink:href="#a34y3ZmWn" opacity="1" fill-opacity="0" stroke="#000000" stroke-width="1" stroke-opacity="0"></use></g></g><g><use xlink:href="#bDJNI37Nj" opacity="1" fill="#000000" fill-opacity="0"></use><g><use xlink:href="#bDJNI37Nj" opacity="1" fill-opacity="0" stroke="#000000" stroke-width="1" stroke-opacity="0"></use></g></g><g><use xlink:href="#a19LDO7FQF" opacity="1" fill="#ffffff" fill-opacity="1"></use><g><use xlink:href="#a19LDO7FQF" opacity="1" fill-opacity="0" stroke="#000000" stroke-width="1" stroke-opacity="0"></use></g></g><g><use xlink:href="#f1ESguxkX4" opacity="1" fill="#000000" fill-opacity="0"></use><g><use xlink:href="#f1ESguxkX4" opacity="1" fill-opacity="0" stroke="#000000" stroke-width="1" stroke-opacity="0"></use></g></g><g><use xlink:href="#bow0fN4xs" opacity="1" fill="#325c80" fill-opacity="1"></use><g><use xlink:href="#bow0fN4xs" opacity="1" fill-opacity="0" stroke="#000000" stroke-width="1" stroke-opacity="0"></use></g></g><g><use xlink:href="#aiAXT1qt" opacity="1" fill="#000000" fill-opacity="0"></use><g><use xlink:href="#aiAXT1qt" opacity="1" fill-opacity="0" stroke="#000000" stroke-width="1" stroke-opacity="0"></use></g></g><g><use xlink:href="#c1JlncWBPl" opacity="1" fill="#ffffff" fill-opacity="1"></use><g><use xlink:href="#c1JlncWBPl" opacity="1" fill-opacity="0" stroke="#000000" stroke-width="1" stroke-opacity="0"></use></g></g><g><use xlink:href="#bnsWoDM0M" opacity="1" fill="#000000" fill-opacity="0"></use><g><use xlink:href="#bnsWoDM0M" opacity="1" fill-opacity="0" stroke="#000000" stroke-width="1" stroke-opacity="0"></use></g></g><g><use xlink:href="#f4VK6JbT8S" opacity="1" fill="#325c80" fill-opacity="1"></use><g><use xlink:href="#f4VK6JbT8S" opacity="1" fill-opacity="0" stroke="#000000" stroke-width="1" stroke-opacity="0"></use></g></g><g><use xlink:href="#a35GMKB3gS" opacity="1" fill="#000000" fill-opacity="0"></use><g><use xlink:href="#a35GMKB3gS" opacity="1" fill-opacity="0" stroke="#000000" stroke-width="1" stroke-opacity="0"></use></g></g><g><use xlink:href="#bjQ9bB8jO" opacity="1" fill="#ffffff" fill-opacity="1"></use><g><use xlink:href="#bjQ9bB8jO" opacity="1" fill-opacity="0" stroke="#000000" stroke-width="1" stroke-opacity="0"></use></g></g><g><use xlink:href="#g2Y1DxFK59" opacity="1" fill="#000000" fill-opacity="0"></use><g><use xlink:href="#g2Y1DxFK59" opacity="1" fill-opacity="0" stroke="#000000" stroke-width="1" stroke-opacity="0"></use></g></g><g><use xlink:href="#a545bBGOq" opacity="1" fill="#325c80" fill-opacity="1"></use><g><use xlink:href="#a545bBGOq" opacity="1" fill-opacity="0" stroke="#000000" stroke-width="1" stroke-opacity="0"></use></g></g><g><use xlink:href="#g8a3INQLgh" opacity="1" fill="#000000" fill-opacity="0"></use><g><use xlink:href="#g8a3INQLgh" opacity="1" fill-opacity="0" stroke="#000000" stroke-width="1" stroke-opacity="0"></use></g></g><g><use xlink:href="#c3kXiFFl22" opacity="1" fill="#ffffff" fill-opacity="1"></use><g><use xlink:href="#c3kXiFFl22" opacity="1" fill-opacity="0" stroke="#000000" stroke-width="1" stroke-opacity="0"></use></g></g><g><use xlink:href="#b7EsD8mipt" opacity="1" fill="#000000" fill-opacity="0"></use><g><use xlink:href="#b7EsD8mipt" opacity="1" fill-opacity="0" stroke="#000000" stroke-width="1" stroke-opacity="0"></use></g></g><g><use xlink:href="#d1B9BsEU2Y" opacity="1" fill="#325c80" fill-opacity="1"></use><g><use xlink:href="#d1B9BsEU2Y" opacity="1" fill-opacity="0" stroke="#000000" stroke-width="1" stroke-opacity="0"></use></g></g><g><use xlink:href="#a248n1X5X" opacity="1" fill="#000000" fill-opacity="0"></use><g><use xlink:href="#a248n1X5X" opacity="1" fill-opacity="0" stroke="#000000" stroke-width="1" stroke-opacity="0"></use></g></g><g><use xlink:href="#d3CQhnxgGn" opacity="1" fill="#ffffff" fill-opacity="1"></use><g><use xlink:href="#d3CQhnxgGn" opacity="1" fill-opacity="0" stroke="#000000" stroke-width="1" stroke-opacity="0"></use></g></g><g><use xlink:href="#afBHbp28" opacity="1" fill="#000000" fill-opacity="0"></use><g><use xlink:href="#afBHbp28" opacity="1" fill-opacity="0" stroke="#000000" stroke-width="1" stroke-opacity="0"></use></g></g><g><use xlink:href="#d1nbtiaNTY" opacity="1" fill="#325c80" fill-opacity="1"></use><g><use xlink:href="#d1nbtiaNTY" opacity="1" fill-opacity="0" stroke="#000000" stroke-width="1" stroke-opacity="0"></use></g></g><g><use xlink:href="#edAp2Ftp9" opacity="1" fill="#000000" fill-opacity="0"></use><g><use xlink:href="#edAp2Ftp9" opacity="1" fill-opacity="0" stroke="#000000" stroke-width="1" stroke-opacity="0"></use></g></g><g><use xlink:href="#i7llnp5eB" opacity="1" fill="#ffffff" fill-opacity="1"></use><g><use xlink:href="#i7llnp5eB" opacity="1" fill-opacity="0" stroke="#000000" stroke-width="1" stroke-opacity="0"></use></g></g><g><use xlink:href="#j7jyP3ZqWm" opacity="1" fill="#000000" fill-opacity="0"></use><g><use xlink:href="#j7jyP3ZqWm" opacity="1" fill-opacity="0" stroke="#000000" stroke-width="1" stroke-opacity="0"></use></g></g></g></g></svg>