<?xml version="1.0" encoding="UTF-8" standalone="no"?>
<!DOCTYPE svg PUBLIC "-//W3C//DTD SVG 1.1//EN" "http://www.w3.org/Graphics/SVG/1.1/DTD/svg11.dtd">
<svg version="1.1" xmlns="http://www.w3.org/2000/svg" xmlns:xlink="http://www.w3.org/1999/xlink" preserveAspectRatio="xMidYMid meet" viewBox="0 0 640 640" width="640" height="640"><defs><path d="M320.01 628.69C147.03 628.69 6.81 490.48 6.81 320C6.81 149.52 147.03 11.31 320.01 11.31C492.97 11.31 633.18 149.52 633.18 320C633.18 490.48 492.97 628.69 320.01 628.69Z" id="aacWlyzd4e"></path><path d="M320.01 628.69C147.03 628.69 6.81 490.48 6.81 320C6.81 149.52 147.03 11.31 320.01 11.31C492.97 11.31 633.18 149.52 633.18 320C633.18 490.48 492.97 628.69 320.01 628.69Z" id="h13KZpVCjM"></path><path d="M321.57 468.7C238.29 468.7 170.78 402.13 170.78 320C170.78 237.87 238.29 171.3 321.57 171.3C404.84 171.3 472.36 237.87 472.36 320C472.36 402.13 404.84 468.7 321.57 468.7Z" id="a3ydypKLq"></path><path d="M321.57 468.7C238.29 468.7 170.78 402.13 170.78 320C170.78 237.87 238.29 171.3 321.57 171.3C404.84 171.3 472.36 237.87 472.36 320C472.36 402.13 404.84 468.7 321.57 468.7Z" id="b1y0sl9R8f"></path><path d="M321.57 363.33C297.29 363.33 277.62 343.92 277.62 320C277.62 296.08 297.29 276.67 321.57 276.67C345.84 276.67 365.51 296.08 365.51 320C365.51 343.92 345.84 363.33 321.57 363.33Z" id="a4IaeKHXw"></path><path d="M321.57 363.33C297.29 363.33 277.62 343.92 277.62 320C277.62 296.08 297.29 276.67 321.57 276.67C345.84 276.67 365.51 296.08 365.51 320C365.51 343.92 345.84 363.33 321.57 363.33Z" id="c2b4hwYejn"></path><path d="M320.01 548.84C191.77 548.84 87.8 446.39 87.8 320C87.8 193.61 191.77 91.16 320.01 91.16C448.23 91.16 552.2 193.61 552.2 320C552.2 446.39 448.23 548.84 320.01 548.84Z" id="buqavZCcT"></path><path d="M320.01 548.84C191.77 548.84 87.8 446.39 87.8 320C87.8 193.61 191.77 91.16 320.01 91.16C448.23 91.16 552.2 193.61 552.2 320C552.2 446.39 448.23 548.84 320.01 548.84Z" id="ah6I96Rvg"></path><path d="M551.99 414.8L494.64 463.89L480.93 487.52L460 498L410.2 560.04L387.7 461.78L365.51 363.22L458.64 389.07L551.99 414.8Z" id="b1p1MigRy8"></path><path d="M551.99 414.8L494.64 463.89L480.93 487.52L460 498L410.2 560.04L387.7 461.78L365.51 363.22L458.64 389.07L551.99 414.8Z" id="c9enOezaj"></path><path d="M451.74 488.78L487.53 454.25L550.41 517.55L550.41 517.55L514.63 552.09L451.74 488.78Z" id="e2DeYlFM0e"></path><path d="M451.74 488.78L487.53 454.25L550.41 517.55L550.41 517.55L514.63 552.09L451.74 488.78Z" id="aJrvprohD"></path><path d="M452.89 470.16L418.99 513.59L403.19 450.79L387.39 387.28L451.11 405.6L514.84 423.91L468.38 455.3L466.92 468.8L452.89 470.16Z" id="aUWAojqLm"></path><path d="M452.89 470.16L418.99 513.59L403.19 450.79L387.39 387.28L451.11 405.6L514.84 423.91L468.38 455.3L466.92 468.8L452.89 470.16Z" id="a6XTVIby2e"></path><path d="M466.92 468.8L525.52 528.96" id="e2dwaWsyY"></path><path d="M466.92 468.8L525.52 528.96" id="aaKfVmuPF"></path></defs><g><g><g><use xlink:href="#aacWlyzd4e" opacity="1" fill="#325c80" fill-opacity="1"></use><g><use xlink:href="#aacWlyzd4e" opacity="1" fill-opacity="0" stroke="#000000" stroke-width="1" stroke-opacity="0"></use></g></g><g><use xlink:href="#h13KZpVCjM" opacity="1" fill="#000000" fill-opacity="0"></use><g><use xlink:href="#h13KZpVCjM" opacity="1" fill-opacity="0" stroke="#000000" stroke-width="1" stroke-opacity="0"></use></g></g><g><use xlink:href="#a3ydypKLq" opacity="1" fill="#000000" fill-opacity="0"></use><g><use xlink:href="#a3ydypKLq" opacity="1" fill-opacity="0" stroke="#000000" stroke-width="1" stroke-opacity="0"></use></g></g><g><use xlink:href="#b1y0sl9R8f" opacity="1" fill="#000000" fill-opacity="0"></use><g><use xlink:href="#b1y0sl9R8f" opacity="1" fill-opacity="0" stroke="#ffffff" stroke-width="15" stroke-opacity="1"></use></g></g><g><use xlink:href="#a4IaeKHXw" opacity="1" fill="#ffffff" fill-opacity="1"></use><g><use xlink:href="#a4IaeKHXw" opacity="1" fill-opacity="0" stroke="#000000" stroke-width="1" stroke-opacity="0"></use></g></g><g><use xlink:href="#c2b4hwYejn" opacity="1" fill="#000000" fill-opacity="0"></use><g><use xlink:href="#c2b4hwYejn" opacity="1" fill-opacity="0" stroke="#ffffff" stroke-width="2" stroke-opacity="1"></use></g></g><g><use xlink:href="#buqavZCcT" opacity="1" fill="#000000" fill-opacity="0"></use><g><use xlink:href="#buqavZCcT" opacity="1" fill-opacity="0" stroke="#000000" stroke-width="1" stroke-opacity="0"></use></g></g><g><use xlink:href="#ah6I96Rvg" opacity="1" fill="#000000" fill-opacity="0"></use><g><use xlink:href="#ah6I96Rvg" opacity="1" fill-opacity="0" stroke="#ffffff" stroke-width="15" stroke-opacity="1"></use></g></g><g><use xlink:href="#b1p1MigRy8" opacity="1" fill="#325c80" fill-opacity="1"></use><g><use xlink:href="#b1p1MigRy8" opacity="1" fill-opacity="0" stroke="#000000" stroke-width="1" stroke-opacity="0"></use></g></g><g><use xlink:href="#c9enOezaj" opacity="1" fill="#000000" fill-opacity="0"></use><g><use xlink:href="#c9enOezaj" opacity="1" fill-opacity="0" stroke="#000000" stroke-width="1" stroke-opacity="0"></use></g></g><g><use xlink:href="#e2DeYlFM0e" opacity="1" fill="#325c80" fill-opacity="1"></use><g><use xlink:href="#e2DeYlFM0e" opacity="1" fill-opacity="0" stroke="#000000" stroke-width="1" stroke-opacity="0"></use></g></g><g><use xlink:href="#aJrvprohD" opacity="1" fill="#000000" fill-opacity="0"></use><g><use xlink:href="#aJrvprohD" opacity="1" fill-opacity="0" stroke="#000000" stroke-width="1" stroke-opacity="0"></use></g></g><g><use xlink:href="#aUWAojqLm" opacity="1" fill="#ffffff" fill-opacity="1"></use><g><use xlink:href="#aUWAojqLm" opacity="1" fill-opacity="0" stroke="#000000" stroke-width="1" stroke-opacity="0"></use></g></g><g><use xlink:href="#a6XTVIby2e" opacity="1" fill="#000000" fill-opacity="0"></use><g><use xlink:href="#a6XTVIby2e" opacity="1" fill-opacity="0" stroke="#ffffff" stroke-width="15" stroke-opacity="1"></use></g></g><g><use xlink:href="#e2dwaWsyY" opacity="1" fill="#000000" fill-opacity="0"></use><g><use xlink:href="#e2dwaWsyY" opacity="1" fill-opacity="0" stroke="#000000" stroke-width="1" stroke-opacity="0"></use></g></g><g><use xlink:href="#aaKfVmuPF" opacity="1" fill="#000000" fill-opacity="0"></use><g><use xlink:href="#aaKfVmuPF" opacity="1" fill-opacity="0" stroke="#ffffff" stroke-width="15" stroke-opacity="1"></use></g></g></g></g></svg>