<?xml version="1.0" encoding="UTF-8" standalone="no"?>
<!DOCTYPE svg PUBLIC "-//W3C//DTD SVG 1.1//EN" "http://www.w3.org/Graphics/SVG/1.1/DTD/svg11.dtd">
<svg version="1.1" xmlns="http://www.w3.org/2000/svg" xmlns:xlink="http://www.w3.org/1999/xlink" preserveAspectRatio="xMidYMid meet" viewBox="0 0 640 640" width="640" height="640"><defs><path d="M6.86 318.27C6.86 491.47 147.26 631.89 320.48 631.89C493.68 631.89 634.1 491.47 634.1 318.27C634.1 145.07 493.68 4.65 320.48 4.65C147.26 4.65 6.86 145.07 6.86 318.27Z" id="a28wwFIkGU"></path><path d="M6.86 318.27C6.86 491.47 147.26 631.89 320.48 631.89C493.68 631.89 634.1 491.47 634.1 318.27C634.1 145.07 493.68 4.65 320.48 4.65C147.26 4.65 6.86 145.07 6.86 318.27Z" id="aqWIyPEc"></path><path d="M234.13 243.36L320.9 200.62L402.12 243.36L318.45 289.2L234.13 243.36Z" id="a1klKtf35Q"></path><path d="M234.13 243.36L320.9 200.62L402.12 243.36L318.45 289.2L234.13 243.36Z" id="b2xMRW7LlI"></path><path d="M321.87 394.03L321.87 298.71L406.38 250.84L409.16 345.2L321.87 394.03Z" id="e12yfj7uFN"></path><path d="M321.87 394.03L321.87 298.71L406.38 250.84L409.16 345.2L321.87 394.03Z" id="a2H5avexp6"></path><path d="M231.79 346.05L231.79 250.84L314.6 297.64L314.28 394.45L231.79 346.05Z" id="b2hPJhuSx3"></path><path d="M231.79 346.05L231.79 250.84L314.6 297.64L314.28 394.45L231.79 346.05Z" id="deUKoL9j0"></path><path d="M539.53 153.82C539.53 326.53 539.53 422.49 539.53 441.69C539.53 441.69 539.53 441.69 539.53 441.69C276.67 441.69 130.63 441.69 101.43 441.69C101.43 441.69 101.43 441.69 101.43 441.69C101.43 268.96 101.43 173 101.43 153.82C101.43 153.82 101.43 153.82 101.43 153.82C364.28 153.82 510.32 153.82 539.53 153.82C539.53 153.82 539.53 153.82 539.53 153.82Z" id="d2uwmLvanq"></path><path d="M539.53 153.82C539.53 326.53 539.53 422.49 539.53 441.69C539.53 441.69 539.53 441.69 539.53 441.69C276.67 441.69 130.63 441.69 101.43 441.69C101.43 441.69 101.43 441.69 101.43 441.69C101.43 268.96 101.43 173 101.43 153.82C101.43 153.82 101.43 153.82 101.43 153.82C364.28 153.82 510.32 153.82 539.53 153.82C539.53 153.82 539.53 153.82 539.53 153.82Z" id="ikNXIXNLa"></path><path d="M366.52 451.29C366.52 461.88 366.52 467.76 366.52 468.94C366.52 468.94 366.52 468.94 366.52 468.94C311.2 468.94 280.47 468.94 274.31 468.94C274.31 468.94 274.31 468.94 274.31 468.94C274.31 458.35 274.31 452.47 274.31 451.29C274.31 451.29 274.31 451.29 274.31 451.29C329.64 451.29 360.38 451.29 366.52 451.29C366.52 451.29 366.52 451.29 366.52 451.29Z" id="a4rTBSNhA"></path><path d="M366.52 451.29C366.52 461.88 366.52 467.76 366.52 468.94C366.52 468.94 366.52 468.94 366.52 468.94C311.2 468.94 280.47 468.94 274.31 468.94C274.31 468.94 274.31 468.94 274.31 468.94C274.31 458.35 274.31 452.47 274.31 451.29C274.31 451.29 274.31 451.29 274.31 451.29C329.64 451.29 360.38 451.29 366.52 451.29C366.52 451.29 366.52 451.29 366.52 451.29Z" id="b1yAso6T2Y"></path><path d="M204.86 482.61L438.88 482.61" id="b1jo8BFA0j"></path><path d="M204.86 482.61L438.88 482.61" id="e2BSzO9Izo"></path></defs><g><g><g><use xlink:href="#a28wwFIkGU" opacity="1" fill="#325c80" fill-opacity="1"></use><g><use xlink:href="#a28wwFIkGU" opacity="1" fill-opacity="0" stroke="#000000" stroke-width="1" stroke-opacity="0"></use></g></g><g><use xlink:href="#aqWIyPEc" opacity="1" fill="#000000" fill-opacity="0"></use><g><use xlink:href="#aqWIyPEc" opacity="1" fill-opacity="0" stroke="#000000" stroke-width="1" stroke-opacity="0"></use></g></g><g><use xlink:href="#a1klKtf35Q" opacity="1" fill="#ffffff" fill-opacity="1"></use><g><use xlink:href="#a1klKtf35Q" opacity="1" fill-opacity="0" stroke="#000000" stroke-width="1" stroke-opacity="0"></use></g></g><g><use xlink:href="#b2xMRW7LlI" opacity="1" fill="#000000" fill-opacity="0"></use><g><use xlink:href="#b2xMRW7LlI" opacity="1" fill-opacity="0" stroke="#000000" stroke-width="1" stroke-opacity="0"></use></g></g><g><use xlink:href="#e12yfj7uFN" opacity="1" fill="#ffffff" fill-opacity="1"></use><g><use xlink:href="#e12yfj7uFN" opacity="1" fill-opacity="0" stroke="#000000" stroke-width="1" stroke-opacity="0"></use></g></g><g><use xlink:href="#a2H5avexp6" opacity="1" fill="#000000" fill-opacity="0"></use><g><use xlink:href="#a2H5avexp6" opacity="1" fill-opacity="0" stroke="#000000" stroke-width="1" stroke-opacity="0"></use></g></g><g><use xlink:href="#b2hPJhuSx3" opacity="1" fill="#ffffff" fill-opacity="1"></use><g><use xlink:href="#b2hPJhuSx3" opacity="1" fill-opacity="0" stroke="#000000" stroke-width="1" stroke-opacity="0"></use></g></g><g><use xlink:href="#deUKoL9j0" opacity="1" fill="#000000" fill-opacity="0"></use><g><use xlink:href="#deUKoL9j0" opacity="1" fill-opacity="0" stroke="#000000" stroke-width="1" stroke-opacity="0"></use></g></g><g><use xlink:href="#d2uwmLvanq" opacity="1" fill="#000000" fill-opacity="0"></use><g><use xlink:href="#d2uwmLvanq" opacity="1" fill-opacity="0" stroke="#000000" stroke-width="1" stroke-opacity="0"></use></g></g><g><use xlink:href="#ikNXIXNLa" opacity="1" fill="#000000" fill-opacity="0"></use><g><use xlink:href="#ikNXIXNLa" opacity="1" fill-opacity="0" stroke="#ffffff" stroke-width="11" stroke-opacity="1"></use></g></g><g><use xlink:href="#a4rTBSNhA" opacity="1" fill="#ffffff" fill-opacity="1"></use><g><use xlink:href="#a4rTBSNhA" opacity="1" fill-opacity="0" stroke="#000000" stroke-width="1" stroke-opacity="0"></use></g></g><g><use xlink:href="#b1yAso6T2Y" opacity="1" fill="#000000" fill-opacity="0"></use><g><use xlink:href="#b1yAso6T2Y" opacity="1" fill-opacity="0" stroke="#ffffff" stroke-width="11" stroke-opacity="1"></use></g></g><g><use xlink:href="#b1jo8BFA0j" opacity="1" fill="#000000" fill-opacity="0"></use><g><use xlink:href="#b1jo8BFA0j" opacity="1" fill-opacity="0" stroke="#000000" stroke-width="1" stroke-opacity="0"></use></g></g><g><use xlink:href="#e2BSzO9Izo" opacity="1" fill="#000000" fill-opacity="0"></use><g><use xlink:href="#e2BSzO9Izo" opacity="1" fill-opacity="0" stroke="#ffffff" stroke-width="11" stroke-opacity="1"></use></g></g></g></g></svg>