<?xml version="1.0" encoding="UTF-8" standalone="no"?>
<!DOCTYPE svg PUBLIC "-//W3C//DTD SVG 1.1//EN" "http://www.w3.org/Graphics/SVG/1.1/DTD/svg11.dtd">
<svg version="1.1" xmlns="http://www.w3.org/2000/svg" xmlns:xlink="http://www.w3.org/1999/xlink" preserveAspectRatio="xMidYMid meet" viewBox="0 0 640 640" width="640" height="640"><defs><path d="M5.76 320.97C5.76 494.64 146.55 635.43 320.22 635.43C493.89 635.43 634.68 494.64 634.68 320.97C634.68 147.3 493.89 6.51 320.22 6.51C146.55 6.51 5.76 147.3 5.76 320.97Z" id="aHRZM7SLz"></path><path d="M5.76 320.97C5.76 494.64 146.55 635.43 320.22 635.43C493.89 635.43 634.68 494.64 634.68 320.97C634.68 147.3 493.89 6.51 320.22 6.51C146.55 6.51 5.76 147.3 5.76 320.97Z" id="c7GUDJl6w"></path><path d="M489.9 354.16L490.3 354.48L490.72 354.8L491.12 355.11L491.53 355.45L492.33 356.09L492.73 356.43L493.51 357.1L494.28 357.81L494.66 358.15L495.03 358.5L495.4 358.87L495.77 359.23L496.51 359.97L497.22 360.71L497.93 361.48L498.27 361.85L498.61 362.25L499.28 363.02L499.62 363.43L500.58 364.63L500.91 365.05L501.21 365.45L501.53 365.87L501.84 366.29L502.13 366.71L502.43 367.13L503.59 368.86L503.87 369.3L525.73 367.82L533.81 397.13L512.8 408.38L512.78 408.62L512.76 408.84L512.73 409.07L512.72 409.31L512.68 409.54L512.67 409.76L512.63 410L512.62 410.23L512.55 410.68L512.52 410.92L512.51 411.14L512.47 411.37L512.44 411.61L512.35 412.29L512.3 412.53L512.2 413.2L512.15 413.43L512.12 413.67L512.07 413.9L512.04 414.12L511.99 414.35L511.96 414.57L511.91 414.8L511.86 415.04L511.81 415.26L511.78 415.49L511.49 416.84L511.43 417.06L511.14 418.42L511.09 418.63L510.99 419.08L510.95 419.29L510.85 419.74L510.78 419.96L510.74 420.17L510.69 420.4L510.62 420.62L510.58 420.83L510.51 421.05L510.46 421.26L510.33 421.71L510.29 421.92L510.22 422.15L510.16 422.36L510.09 422.58L510.03 422.79L509.96 423.02L509.9 423.23L509.84 423.45L509.77 423.66L509.71 423.89L509.64 424.1L509.56 424.3L509.5 424.53L509.43 424.74L509.35 424.96L509.29 425.17L509.21 425.38L509.14 425.61L508.98 426.03L508.92 426.24L521.93 447.26L500.92 468.27L482.53 455.55L482.1 455.79L481.65 456.01L481.2 456.26L480.75 456.46L480.28 456.69L479.38 457.11L478.91 457.32L477.98 457.7L477.53 457.9L477.06 458.09L476.58 458.27L475.65 458.62L475.17 458.78L474.7 458.96L474.22 459.1L473.75 459.26L471.82 459.84L471.34 459.97L470.84 460.1L470.36 460.21L469.87 460.34L469.37 460.45L468.89 460.55L468.39 460.66L467.89 460.76L467.41 460.86L466.91 460.94L466.41 461.03L465.91 461.11L465.42 461.18L464.92 461.26L463.92 461.39L463.42 461.44L453.75 481.19L426.02 473.52L426.64 450.93L426.23 450.62L425.82 450.3L425.4 449.98L424.6 449.34L424.21 449L423.81 448.66L423.43 448.32L423.02 447.99L422.64 447.65L422.27 447.29L421.88 446.94L421.51 446.59L421.13 446.23L420.03 445.14L419.68 444.77L419.32 444.38L418.97 444.01L418.62 443.63L418.28 443.24L417.92 442.85L417.59 442.47L417.25 442.07L416.93 441.68L416.59 441.28L416.27 440.88L415.94 440.46L415.64 440.05L415.32 439.64L415.01 439.22L414.71 438.82L414.4 438.38L414.11 437.96L413.81 437.53L413.52 437.11L413.23 436.68L412.68 435.81L390.19 437.69L382.1 408.38L403.11 397.13L403.14 396.91L403.15 396.68L403.17 396.44L403.2 396.21L403.22 395.99L403.25 395.75L403.27 395.52L403.3 395.3L403.33 395.06L403.35 394.83L403.41 394.38L403.44 394.14L403.54 393.46L403.57 393.22L403.64 392.77L403.69 392.55L403.72 392.31L403.75 392.08L403.8 391.85L403.83 391.63L403.88 391.4L403.91 391.18L403.96 390.94L404.01 390.71L404.04 390.49L404.28 389.36L404.33 389.12L404.52 388.22L404.59 387.99L404.63 387.77L404.7 387.56L404.76 387.33L404.81 387.11L404.94 386.66L405 386.45L405.2 385.77L405.26 385.56L405.39 385.11L405.47 384.9L405.6 384.45L405.68 384.24L405.74 384.02L405.83 383.79L405.89 383.59L405.97 383.36L406.03 383.15L406.11 382.93L406.2 382.72L406.28 382.49L406.36 382.28L406.42 382.06L406.58 381.64L406.66 381.41L406.76 381.2L406.84 380.98L407 380.56L407.08 380.34L407.18 380.13L407.26 379.92L407.35 379.71L407.43 379.48L407.53 379.27L394.5 358.26L415.51 337.25L434.11 349.96L434.56 349.74L434.99 349.49L435.44 349.27L435.91 349.04L436.81 348.63L437.28 348.42L437.73 348.21L438.19 348L439.13 347.61L439.59 347.44L440.06 347.24L440.53 347.07L440.99 346.9L441.48 346.73L441.94 346.57L442.43 346.41L442.91 346.26L443.39 346.1L443.86 345.95L444.34 345.81L444.82 345.68L445.32 345.55L446.29 345.3L446.79 345.18L447.27 345.07L447.77 344.96L448.25 344.86L448.75 344.76L449.23 344.67L449.73 344.57L451.23 344.33L453.22 344.07L462.89 324.33L490.63 331.99L489.9 354.16ZM456.28 349.54L453.66 349.54L453.19 349.59L452.74 349.66L452.27 349.7L451.82 349.77L451.37 349.85L450.92 349.91L450.45 349.99L449.55 350.15L448.65 350.35L448.22 350.44L447.77 350.54L447.32 350.65L446.88 350.77L445.98 350.99L445.11 351.25L444.66 351.38L442.49 352.1L442.07 352.26L441.64 352.42L441.2 352.6L440.78 352.76L440.35 352.94L439.51 353.29L437.84 354.06L437.44 354.27L437.02 354.48L436.62 354.69L436.2 354.9L433.79 356.15L431.49 354.59L416.25 344.07L401.32 359.63L411.83 376.65L413.31 378.97L412.24 381.59L412.16 381.78L412.1 381.98L411.94 382.36L411.86 382.57L411.78 382.76L411.71 382.96L411.55 383.34L411.49 383.55L411.41 383.75L411.34 383.94L411.26 384.15L411.13 384.53L411.05 384.74L410.93 385.13L410.86 385.34L410.73 385.73L410.67 385.93L410.6 386.13L410.54 386.34L410.47 386.53L410.41 386.74L410.35 386.93L410.28 387.14L410.23 387.33L410.17 387.54L410.12 387.75L410.06 387.95L409.99 388.15L409.94 388.35L409.9 388.56L409.83 388.77L409.78 388.96L409.73 389.17L409.67 389.38L409.62 389.57L409.38 390.62L409.35 390.82L409.2 391.45L409.17 391.66L409.12 391.87L409.09 392.08L409.04 392.29L409.01 392.5L408.96 392.71L408.9 393.13L408.85 393.33L408.59 395.01L408.56 395.23L408.54 395.44L408.48 395.86L408.46 396.07L408.43 396.28L408.42 396.49L408.38 396.71L408.37 396.92L408.34 397.13L408.3 397.55L408.27 397.76L408.25 397.98L408.25 400.82L405.84 402.07L388.61 411.32L394.5 432.33L412.78 430.87L415.51 430.87L416.46 433.49L416.7 433.89L416.96 434.28L417.23 434.68L417.49 435.07L418.58 436.61L418.87 436.98L419.15 437.35L419.73 438.09L420.03 438.46L420.32 438.83L420.63 439.19L420.93 439.56L421.54 440.26L421.87 440.6L422.19 440.96L422.51 441.29L422.83 441.65L423.15 441.99L423.49 442.31L423.81 442.65L424.15 442.98L424.83 443.63L425.18 443.95L425.53 444.25L425.87 444.58L426.23 444.88L426.6 445.19L426.95 445.49L427.32 445.8L427.67 446.1L428.78 446.97L429.17 447.26L431.26 448.82L431.26 451.56L430.75 469.74L451.13 475.42L459.01 459.34L460.16 456.82L462.79 456.82L463.24 456.75L463.71 456.69L464.16 456.63L464.63 456.55L465.53 456.38L466 456.3L467.35 456.01L467.8 455.9L468.25 455.81L468.7 455.69L469.13 455.56L469.58 455.45L470.03 455.32L470.47 455.19L470.92 455.07L472.22 454.63L472.66 454.47L473.11 454.33L473.52 454.16L473.96 454L474.83 453.65L475.25 453.47L475.68 453.3L476.1 453.12L477.35 452.54L478.19 452.12L478.59 451.91L479.01 451.7L479.41 451.48L479.83 451.27L480.23 451.04L482.65 449.77L484.96 451.35L500.2 461.85L515.11 446.31L504.7 429.71L503.24 427.39L504.29 424.77L504.53 424.19L504.61 423.98L504.69 423.79L504.75 423.6L504.91 423.21L504.98 423L505.06 422.81L505.12 422.62L505.2 422.42L505.27 422.21L505.35 422.02L505.41 421.83L505.48 421.62L505.56 421.42L505.62 421.23L505.68 421.02L505.75 420.83L505.81 420.62L505.94 420.23L506.01 420.03L506.07 419.83L506.14 419.62L506.2 419.43L506.25 419.22L506.31 419.01L506.38 418.82L506.42 418.61L506.49 418.42L506.54 418.21L506.6 418.01L506.65 417.8L506.71 417.6L506.76 417.4L506.86 416.98L506.92 416.79L507.07 416.16L507.1 415.95L507.29 415.12L507.33 414.91L507.42 414.49L507.45 414.28L507.5 414.07L507.57 413.65L507.62 413.44L507.71 412.82L507.76 412.61L507.92 411.56L507.95 411.34L507.97 411.13L508.03 410.71L508.05 410.5L508.11 410.08L508.13 409.86L508.16 409.65L508.19 409.23L508.23 409.02L508.24 408.81L508.26 408.59L508.27 408.38L508.27 405.55L510.7 404.29L527.82 393.77L521.93 372.76L503.77 374.66L501.04 374.66L499.56 372.24L499.31 371.86L498.8 371.08L498.53 370.71L498.27 370.33L497.17 368.85L496.88 368.49L496.61 368.14L496.32 367.77L495.74 367.06L495.44 366.72L495.13 366.37L494.84 366.02L494.52 365.68L493.91 365L493.59 364.68L493.26 364.34L492.96 364.02L492.3 363.36L491.98 363.06L491.3 362.41L490.63 361.8L490.27 361.5L489.93 361.19L489.58 360.9L489.23 360.6L488.52 360.02L488.15 359.73L487.79 359.45L487.42 359.16L487.05 358.89L484.96 357.31L484.96 354.59L485.48 336.41L465.09 330.74L457.44 347.02L456.28 349.54Z" id="b27QbcXR1F"></path><path d="M489.9 354.16L490.3 354.48L490.72 354.8L491.12 355.11L491.53 355.45L492.33 356.09L492.73 356.43L493.51 357.1L494.28 357.81L494.66 358.15L495.03 358.5L495.4 358.87L495.77 359.23L496.51 359.97L497.22 360.71L497.93 361.48L498.27 361.85L498.61 362.25L499.28 363.02L499.62 363.43L500.58 364.63L500.91 365.05L501.21 365.45L501.53 365.87L501.84 366.29L502.13 366.71L502.43 367.13L503.59 368.86L503.87 369.3L525.73 367.82L533.81 397.13L512.8 408.38L512.78 408.62L512.76 408.84L512.73 409.07L512.72 409.31L512.68 409.54L512.67 409.76L512.63 410L512.62 410.23L512.55 410.68L512.52 410.92L512.51 411.14L512.47 411.37L512.44 411.61L512.35 412.29L512.3 412.53L512.2 413.2L512.15 413.43L512.12 413.67L512.07 413.9L512.04 414.12L511.99 414.35L511.96 414.57L511.91 414.8L511.86 415.04L511.81 415.26L511.78 415.49L511.49 416.84L511.43 417.06L511.14 418.42L511.09 418.63L510.99 419.08L510.95 419.29L510.85 419.74L510.78 419.96L510.74 420.17L510.69 420.4L510.62 420.62L510.58 420.83L510.51 421.05L510.46 421.26L510.33 421.71L510.29 421.92L510.22 422.15L510.16 422.36L510.09 422.58L510.03 422.79L509.96 423.02L509.9 423.23L509.84 423.45L509.77 423.66L509.71 423.89L509.64 424.1L509.56 424.3L509.5 424.53L509.43 424.74L509.35 424.96L509.29 425.17L509.21 425.38L509.14 425.61L508.98 426.03L508.92 426.24L521.93 447.26L500.92 468.27L482.53 455.55L482.1 455.79L481.65 456.01L481.2 456.26L480.75 456.46L480.28 456.69L479.38 457.11L478.91 457.32L477.98 457.7L477.53 457.9L477.06 458.09L476.58 458.27L475.65 458.62L475.17 458.78L474.7 458.96L474.22 459.1L473.75 459.26L471.82 459.84L471.34 459.97L470.84 460.1L470.36 460.21L469.87 460.34L469.37 460.45L468.89 460.55L468.39 460.66L467.89 460.76L467.41 460.86L466.91 460.94L466.41 461.03L465.91 461.11L465.42 461.18L464.92 461.26L463.92 461.39L463.42 461.44L453.75 481.19L426.02 473.52L426.64 450.93L426.23 450.62L425.82 450.3L425.4 449.98L424.6 449.34L424.21 449L423.81 448.66L423.43 448.32L423.02 447.99L422.64 447.65L422.27 447.29L421.88 446.94L421.51 446.59L421.13 446.23L420.03 445.14L419.68 444.77L419.32 444.38L418.97 444.01L418.62 443.63L418.28 443.24L417.92 442.85L417.59 442.47L417.25 442.07L416.93 441.68L416.59 441.28L416.27 440.88L415.94 440.46L415.64 440.05L415.32 439.64L415.01 439.22L414.71 438.82L414.4 438.38L414.11 437.96L413.81 437.53L413.52 437.11L413.23 436.68L412.68 435.81L390.19 437.69L382.1 408.38L403.11 397.13L403.14 396.91L403.15 396.68L403.17 396.44L403.2 396.21L403.22 395.99L403.25 395.75L403.27 395.52L403.3 395.3L403.33 395.06L403.35 394.83L403.41 394.38L403.44 394.14L403.54 393.46L403.57 393.22L403.64 392.77L403.69 392.55L403.72 392.31L403.75 392.08L403.8 391.85L403.83 391.63L403.88 391.4L403.91 391.18L403.96 390.94L404.01 390.71L404.04 390.49L404.28 389.36L404.33 389.12L404.52 388.22L404.59 387.99L404.63 387.77L404.7 387.56L404.76 387.33L404.81 387.11L404.94 386.66L405 386.45L405.2 385.77L405.26 385.56L405.39 385.11L405.47 384.9L405.6 384.45L405.68 384.24L405.74 384.02L405.83 383.79L405.89 383.59L405.97 383.36L406.03 383.15L406.11 382.93L406.2 382.72L406.28 382.49L406.36 382.28L406.42 382.06L406.58 381.64L406.66 381.41L406.76 381.2L406.84 380.98L407 380.56L407.08 380.34L407.18 380.13L407.26 379.92L407.35 379.71L407.43 379.48L407.53 379.27L394.5 358.26L415.51 337.25L434.11 349.96L434.56 349.74L434.99 349.49L435.44 349.27L435.91 349.04L436.81 348.63L437.28 348.42L437.73 348.21L438.19 348L439.13 347.61L439.59 347.44L440.06 347.24L440.53 347.07L440.99 346.9L441.48 346.73L441.94 346.57L442.43 346.41L442.91 346.26L443.39 346.1L443.86 345.95L444.34 345.81L444.82 345.68L445.32 345.55L446.29 345.3L446.79 345.18L447.27 345.07L447.77 344.96L448.25 344.86L448.75 344.76L449.23 344.67L449.73 344.57L451.23 344.33L453.22 344.07L462.89 324.33L490.63 331.99L489.9 354.16ZM456.28 349.54L453.66 349.54L453.19 349.59L452.74 349.66L452.27 349.7L451.82 349.77L451.37 349.85L450.92 349.91L450.45 349.99L449.55 350.15L448.65 350.35L448.22 350.44L447.77 350.54L447.32 350.65L446.88 350.77L445.98 350.99L445.11 351.25L444.66 351.38L442.49 352.1L442.07 352.26L441.64 352.42L441.2 352.6L440.78 352.76L440.35 352.94L439.51 353.29L437.84 354.06L437.44 354.27L437.02 354.48L436.62 354.69L436.2 354.9L433.79 356.15L431.49 354.59L416.25 344.07L401.32 359.63L411.83 376.65L413.31 378.97L412.24 381.59L412.16 381.78L412.1 381.98L411.94 382.36L411.86 382.57L411.78 382.76L411.71 382.96L411.55 383.34L411.49 383.55L411.41 383.75L411.34 383.94L411.26 384.15L411.13 384.53L411.05 384.74L410.93 385.13L410.86 385.34L410.73 385.73L410.67 385.93L410.6 386.13L410.54 386.34L410.47 386.53L410.41 386.74L410.35 386.93L410.28 387.14L410.23 387.33L410.17 387.54L410.12 387.75L410.06 387.95L409.99 388.15L409.94 388.35L409.9 388.56L409.83 388.77L409.78 388.96L409.73 389.17L409.67 389.38L409.62 389.57L409.38 390.62L409.35 390.82L409.2 391.45L409.17 391.66L409.12 391.87L409.09 392.08L409.04 392.29L409.01 392.5L408.96 392.71L408.9 393.13L408.85 393.33L408.59 395.01L408.56 395.23L408.54 395.44L408.48 395.86L408.46 396.07L408.43 396.28L408.42 396.49L408.38 396.71L408.37 396.92L408.34 397.13L408.3 397.55L408.27 397.76L408.25 397.98L408.25 400.82L405.84 402.07L388.61 411.32L394.5 432.33L412.78 430.87L415.51 430.87L416.46 433.49L416.7 433.89L416.96 434.28L417.23 434.68L417.49 435.07L418.58 436.61L418.87 436.98L419.15 437.35L419.73 438.09L420.03 438.46L420.32 438.83L420.63 439.19L420.93 439.56L421.54 440.26L421.87 440.6L422.19 440.96L422.51 441.29L422.83 441.65L423.15 441.99L423.49 442.31L423.81 442.65L424.15 442.98L424.83 443.63L425.18 443.95L425.53 444.25L425.87 444.58L426.23 444.88L426.6 445.19L426.95 445.49L427.32 445.8L427.67 446.1L428.78 446.97L429.17 447.26L431.26 448.82L431.26 451.56L430.75 469.74L451.13 475.42L459.01 459.34L460.16 456.82L462.79 456.82L463.24 456.75L463.71 456.69L464.16 456.63L464.63 456.55L465.53 456.38L466 456.3L467.35 456.01L467.8 455.9L468.25 455.81L468.7 455.69L469.13 455.56L469.58 455.45L470.03 455.32L470.47 455.19L470.92 455.07L472.22 454.63L472.66 454.47L473.11 454.33L473.52 454.16L473.96 454L474.83 453.65L475.25 453.47L475.68 453.3L476.1 453.12L477.35 452.54L478.19 452.12L478.59 451.91L479.01 451.7L479.41 451.48L479.83 451.27L480.23 451.04L482.65 449.77L484.96 451.35L500.2 461.85L515.11 446.31L504.7 429.71L503.24 427.39L504.29 424.77L504.53 424.19L504.61 423.98L504.69 423.79L504.75 423.6L504.91 423.21L504.98 423L505.06 422.81L505.12 422.62L505.2 422.42L505.27 422.21L505.35 422.02L505.41 421.83L505.48 421.62L505.56 421.42L505.62 421.23L505.68 421.02L505.75 420.83L505.81 420.62L505.94 420.23L506.01 420.03L506.07 419.83L506.14 419.62L506.2 419.43L506.25 419.22L506.31 419.01L506.38 418.82L506.42 418.61L506.49 418.42L506.54 418.21L506.6 418.01L506.65 417.8L506.71 417.6L506.76 417.4L506.86 416.98L506.92 416.79L507.07 416.16L507.1 415.95L507.29 415.12L507.33 414.91L507.42 414.49L507.45 414.28L507.5 414.07L507.57 413.65L507.62 413.44L507.71 412.82L507.76 412.61L507.92 411.56L507.95 411.34L507.97 411.13L508.03 410.71L508.05 410.5L508.11 410.08L508.13 409.86L508.16 409.65L508.19 409.23L508.23 409.02L508.24 408.81L508.26 408.59L508.27 408.38L508.27 405.55L510.7 404.29L527.82 393.77L521.93 372.76L503.77 374.66L501.04 374.66L499.56 372.24L499.31 371.86L498.8 371.08L498.53 370.71L498.27 370.33L497.17 368.85L496.88 368.49L496.61 368.14L496.32 367.77L495.74 367.06L495.44 366.72L495.13 366.37L494.84 366.02L494.52 365.68L493.91 365L493.59 364.68L493.26 364.34L492.96 364.02L492.3 363.36L491.98 363.06L491.3 362.41L490.63 361.8L490.27 361.5L489.93 361.19L489.58 360.9L489.23 360.6L488.52 360.02L488.15 359.73L487.79 359.45L487.42 359.16L487.05 358.89L484.96 357.31L484.96 354.59L485.48 336.41L465.09 330.74L457.44 347.02L456.28 349.54Z" id="cSfsGQ1hy"></path><path d="M463.4 372.34L465.42 372.76L467.43 373.48L469.36 374.33L471.21 375.3L472.98 376.38L474.65 377.55L476.23 378.84L477.72 380.22L479.11 381.69L480.39 383.23L481.57 384.86L482.63 386.56L483.6 388.32L484.43 390.13L485.16 392.02L485.77 393.93L486.23 395.89L486.59 397.89L486.8 399.91L486.88 401.96L486.83 404.03L486.64 406.11L486.28 408.18L485.8 410.28L485.78 410.32L485.78 410.37L485.75 410.47L485.75 410.52L485.72 410.61L485.72 410.66L485.69 410.76L485.69 410.81L485.65 410.9L485.65 410.95L485.62 411.05L485.62 411.1L485.59 411.19L485.59 411.24L485.54 411.39L484.98 413.36L484.29 415.26L483.48 417.1L482.55 418.85L481.52 420.52L480.38 422.1L479.14 423.6L477.8 425L476.37 426.32L474.88 427.52L473.3 428.62L471.66 429.61L469.95 430.5L468.18 431.25L466.37 431.91L464.52 432.45L462.6 432.85L460.67 433.12L458.71 433.27L456.73 433.27L454.73 433.14L452.72 432.86L450.71 432.45L448.7 431.72L446.75 430.87L444.9 429.9L443.15 428.83L441.48 427.65L439.88 426.36L438.4 424.98L437.02 423.52L435.73 421.97L434.56 420.35L433.48 418.64L432.53 416.89L431.68 415.07L430.96 413.19L430.36 411.27L429.88 409.31L429.54 407.32L429.31 405.29L429.23 403.25L429.3 401.17L429.49 399.09L429.83 397.02L430.33 394.93L430.33 394.88L430.36 394.78L430.36 394.73L430.39 394.64L430.39 394.59L430.41 394.54L430.41 394.49L430.44 394.4L430.44 394.35L430.49 394.2L430.49 394.16L430.52 394.06L430.52 394.01L430.57 393.87L430.57 393.82L431.13 391.84L431.82 389.94L432.64 388.11L433.56 386.35L434.61 384.68L435.75 383.1L436.99 381.61L438.32 380.21L439.74 378.89L441.24 377.7L442.81 376.59L444.47 375.59L446.17 374.7L447.93 373.95L449.75 373.29L451.61 372.76L453.51 372.36L455.44 372.08L457.4 371.94L459.4 371.94L461.39 372.07L463.4 372.34ZM453.83 393.5L452.08 394.65L450.61 396.15L449.5 397.98L448.81 400.08L448.51 402.36L448.68 404.58L449.31 406.69L450.36 408.62L451.79 410.31L453.56 411.69L455.65 412.69L455.97 412.77L456.04 412.77L456.1 412.79L458.29 412.96L460.41 412.64L462.36 411.87L464.1 410.69L465.54 409.17L466.64 407.33L467.3 405.22L467.62 402.96L467.44 400.74L466.82 398.63L465.75 396.71L464.34 395.04L462.55 393.69L460.48 392.72L460.43 392.71L460.36 392.71L460.22 392.66L460.16 392.66L460.11 392.64L457.9 392.45L455.8 392.74L453.83 393.5Z" id="enx5nffbN"></path><path d="M463.4 372.34L465.42 372.76L467.43 373.48L469.36 374.33L471.21 375.3L472.98 376.38L474.65 377.55L476.23 378.84L477.72 380.22L479.11 381.69L480.39 383.23L481.57 384.86L482.63 386.56L483.6 388.32L484.43 390.13L485.16 392.02L485.77 393.93L486.23 395.89L486.59 397.89L486.8 399.91L486.88 401.96L486.83 404.03L486.64 406.11L486.28 408.18L485.8 410.28L485.78 410.32L485.78 410.37L485.75 410.47L485.75 410.52L485.72 410.61L485.72 410.66L485.69 410.76L485.69 410.81L485.65 410.9L485.65 410.95L485.62 411.05L485.62 411.1L485.59 411.19L485.59 411.24L485.54 411.39L484.98 413.36L484.29 415.26L483.48 417.1L482.55 418.85L481.52 420.52L480.38 422.1L479.14 423.6L477.8 425L476.37 426.32L474.88 427.52L473.3 428.62L471.66 429.61L469.95 430.5L468.18 431.25L466.37 431.91L464.52 432.45L462.6 432.85L460.67 433.12L458.71 433.27L456.73 433.27L454.73 433.14L452.72 432.86L450.71 432.45L448.7 431.72L446.75 430.87L444.9 429.9L443.15 428.83L441.48 427.65L439.88 426.36L438.4 424.98L437.02 423.52L435.73 421.97L434.56 420.35L433.48 418.64L432.53 416.89L431.68 415.07L430.96 413.19L430.36 411.27L429.88 409.31L429.54 407.32L429.31 405.29L429.23 403.25L429.3 401.17L429.49 399.09L429.83 397.02L430.33 394.93L430.33 394.88L430.36 394.78L430.36 394.73L430.39 394.64L430.39 394.59L430.41 394.54L430.41 394.49L430.44 394.4L430.44 394.35L430.49 394.2L430.49 394.16L430.52 394.06L430.52 394.01L430.57 393.87L430.57 393.82L431.13 391.84L431.82 389.94L432.64 388.11L433.56 386.35L434.61 384.68L435.75 383.1L436.99 381.61L438.32 380.21L439.74 378.89L441.24 377.7L442.81 376.59L444.47 375.59L446.17 374.7L447.93 373.95L449.75 373.29L451.61 372.76L453.51 372.36L455.44 372.08L457.4 371.94L459.4 371.94L461.39 372.07L463.4 372.34ZM453.83 393.5L452.08 394.65L450.61 396.15L449.5 397.98L448.81 400.08L448.51 402.36L448.68 404.58L449.31 406.69L450.36 408.62L451.79 410.31L453.56 411.69L455.65 412.69L455.97 412.77L456.04 412.77L456.1 412.79L458.29 412.96L460.41 412.64L462.36 411.87L464.1 410.69L465.54 409.17L466.64 407.33L467.3 405.22L467.62 402.96L467.44 400.74L466.82 398.63L465.75 396.71L464.34 395.04L462.55 393.69L460.48 392.72L460.43 392.71L460.36 392.71L460.22 392.66L460.16 392.66L460.11 392.64L457.9 392.45L455.8 392.74L453.83 393.5Z" id="b15BLEOqm"></path><path d="M106.83 160.75L106.83 200.98L106.83 241.22L106.83 455.77L399.53 455.77L399.53 442.32L120.28 442.32L120.28 241.22L495.68 241.22L495.68 359.52L509.13 359.52L509.13 241.22L509.13 200.98L267.68 200.98L267.68 200.98L267.68 160.75L106.83 160.75Z" id="b3w1qAAlrX"></path><path d="M106.83 160.75L106.83 200.98L106.83 241.22L106.83 455.77L399.53 455.77L399.53 442.32L120.28 442.32L120.28 241.22L495.68 241.22L495.68 359.52L509.13 359.52L509.13 241.22L509.13 200.98L267.68 200.98L267.68 200.98L267.68 160.75L106.83 160.75Z" id="a2gFmy6D4V"></path></defs><g><g><g><use xlink:href="#aHRZM7SLz" opacity="1" fill="#325c80" fill-opacity="1"></use><g><use xlink:href="#aHRZM7SLz" opacity="1" fill-opacity="0" stroke="#000000" stroke-width="1" stroke-opacity="0"></use></g></g><g><use xlink:href="#c7GUDJl6w" opacity="1" fill="#000000" fill-opacity="0"></use><g><use xlink:href="#c7GUDJl6w" opacity="1" fill-opacity="0" stroke="#000000" stroke-width="1" stroke-opacity="0"></use></g></g><g><use xlink:href="#b27QbcXR1F" opacity="1" fill="#ffffff" fill-opacity="1"></use><g><use xlink:href="#b27QbcXR1F" opacity="1" fill-opacity="0" stroke="#000000" stroke-width="1" stroke-opacity="0"></use></g></g><g><use xlink:href="#cSfsGQ1hy" opacity="1" fill="#000000" fill-opacity="0"></use><g><use xlink:href="#cSfsGQ1hy" opacity="1" fill-opacity="0" stroke="#000000" stroke-width="1" stroke-opacity="0"></use></g></g><g><use xlink:href="#enx5nffbN" opacity="1" fill="#ffffff" fill-opacity="1"></use><g><use xlink:href="#enx5nffbN" opacity="1" fill-opacity="0" stroke="#000000" stroke-width="1" stroke-opacity="0"></use></g></g><g><use xlink:href="#b15BLEOqm" opacity="1" fill="#000000" fill-opacity="0"></use><g><use xlink:href="#b15BLEOqm" opacity="1" fill-opacity="0" stroke="#000000" stroke-width="1" stroke-opacity="0"></use></g></g><g><use xlink:href="#b3w1qAAlrX" opacity="1" fill="#ffffff" fill-opacity="1"></use><g><use xlink:href="#b3w1qAAlrX" opacity="1" fill-opacity="0" stroke="#000000" stroke-width="1" stroke-opacity="0"></use></g></g><g><use xlink:href="#a2gFmy6D4V" opacity="1" fill="#000000" fill-opacity="0"></use><g><use xlink:href="#a2gFmy6D4V" opacity="1" fill-opacity="0" stroke="#000000" stroke-width="1" stroke-opacity="0"></use></g></g></g></g></svg>