<?xml version="1.0" encoding="UTF-8"?>
<svg width="16px" height="16px" viewBox="0 0 16 16" version="1.1" xmlns="http://www.w3.org/2000/svg" xmlns:xlink="http://www.w3.org/1999/xlink">
    <!-- Generator: Sketch 59.1 (86144) - https://sketch.com -->
    <title>Cloud Shell Icon</title>
    <desc>Created with Sketch.</desc>
    <defs>
        <path d="M16.25,2.5 L3.75,2.5 C3.05964406,2.5 2.5,3.05964406 2.5,3.75 L2.5,16.25 C2.5,16.9403559 3.05964406,17.5 3.75,17.5 L16.25,17.5 C16.9403559,17.5 17.5,16.9403559 17.5,16.25 L17.5,3.75 C17.5,3.05964406 16.9403559,2.5 16.25,2.5 Z M16.25,3.75 L16.25,6.25 L3.75,6.25 L3.75,3.75 L16.25,3.75 Z M3.75,16.25 L3.75,7.5 L16.25,7.5 L16.25,16.25 L3.75,16.25 Z M5.99125,10.25875 L7.6075,11.875 L5.99125,13.49125 L6.875,14.375 L9.375,11.875 L6.875,9.375 L5.99125,10.25875 L5.99125,10.25875 Z" id="path-1"></path>
    </defs>
    <g id="Cloud-Shell-Design" stroke="none" stroke-width="1" fill="none" fill-rule="evenodd">
        <g id="icon/image/terminal/20" transform="translate(-2.000000, -2.000000)">
            <mask id="mask-2" fill="white">
                <use xlink:href="#path-1"></use>
            </mask>
            <use id="icon-color" fill="#161616" fill-rule="evenodd" xlink:href="#path-1"></use>
        </g>
    </g>
</svg>
