<svg xmlns="http://www.w3.org/2000/svg" viewBox="0 0 58.32 64.35"><defs><style>.a{font-size:11.21px;fill:#787678;font-family:HelvNeueMediumforIBM, HelvNeue Medium for IBM;}.b{letter-spacing:-0.03em;}.c{fill:#787778;}</style></defs><title>Journey Icons 2 </title><text class="a" transform="translate(19.82 30.33)"><tspan class="b">A</tspan><tspan x="7.13" y="0">CL</tspan></text><path class="c" d="M57.75,17.07c0,1.15-.06,2.46-.16,3.77s-.27,2.86-.45,4.29a56.53,56.53,0,0,1-1.55,7.51,57.91,57.91,0,0,1-1.93,5.75,52.09,52.09,0,0,1-3,6.26A44.67,44.67,0,0,1,47.86,49a45.73,45.73,0,0,1-4.16,5.05A42.81,42.81,0,0,1,40,57.51a38,38,0,0,1-6.27,4.21c-.9.47-1.83.88-2.74,1.32a1.09,1.09,0,0,1-1,0A38,38,0,0,1,21.1,57.6,41.48,41.48,0,0,1,17,53.82a47.75,47.75,0,0,1-5.79-7.63,50.76,50.76,0,0,1-3.44-6.68,48.94,48.94,0,0,1-2.3-6.59c-.37-1.36-.72-2.73-1-4.12S4,26,3.79,24.53s-.3-2.79-.4-4.19a54.82,54.82,0,0,1,0-6.41,4.09,4.09,0,0,1,.07-.6c.09-.43.35-.61.86-.66,1.09-.09,2.19-.16,3.29-.29s2.07-.24,3.09-.44c1.55-.29,3.11-.59,4.65-1a43.68,43.68,0,0,0,8.13-2.88,33.93,33.93,0,0,0,5.81-3.42c.22-.16.44-.34.65-.51a.86.86,0,0,1,1.2,0,31.88,31.88,0,0,0,5.78,3.59,43.08,43.08,0,0,0,7.7,2.91c1.45.39,2.92.73,4.39,1,1.24.25,2.49.44,3.75.59s2.64.26,4,.38c.32,0,.64.08.8.4a1.61,1.61,0,0,1,.15.61C57.68,14.75,57.71,15.83,57.75,17.07ZM4.17,13.47l0,.22c0,.73-.06,1.46-.07,2.2a60.22,60.22,0,0,0,.41,8.05,58,58,0,0,0,1,5.84,53.76,53.76,0,0,0,4.88,13.28,45.51,45.51,0,0,0,9.76,12.68,37.27,37.27,0,0,0,10.22,6.59.55.55,0,0,0,.31,0,37.36,37.36,0,0,0,10.72-7.06,44.31,44.31,0,0,0,7.44-9.05,54,54,0,0,0,7.67-22c.19-1.49.3-3,.39-4.49a56.06,56.06,0,0,0,0-6.08c0-.11,0-.16-.16-.17-.77,0-1.54-.12-2.31-.19-1.84-.17-3.67-.44-5.48-.78A52.49,52.49,0,0,1,40,10a36.41,36.41,0,0,1-8.75-4.71l-.78-.59-.12.09a32.23,32.23,0,0,1-5.27,3.36,45.27,45.27,0,0,1-9.62,3.58,52.8,52.8,0,0,1-6.11,1.21c-1.2.17-2.42.28-3.63.41C5.23,13.4,4.71,13.43,4.17,13.47Z"/><path class="c" d="M6.11,15.44c.76-.08,1.5-.14,2.24-.25,1.71-.25,3.42-.49,5.12-.8a52,52,0,0,0,7.83-2.11A34.13,34.13,0,0,0,29,8.52c.53-.35,1-.73,1.53-1.1.54.39,1.08.8,1.64,1.18a32.6,32.6,0,0,0,6.37,3.23,54.1,54.1,0,0,0,9.91,2.73q2.79.51,5.63.79l.86.09v.69a50,50,0,0,1-.17,5.74,50.87,50.87,0,0,1-1.38,8.23A50,50,0,0,1,47,44.74a48.21,48.21,0,0,1-6,7.54,29.91,29.91,0,0,1-8.25,5.94c-.69.34-1.4.63-2.11,1a.44.44,0,0,1-.37,0,30.69,30.69,0,0,1-11.14-7.73A49.52,49.52,0,0,1,8.54,33.17a49,49,0,0,1-1.67-6.65,51,51,0,0,1-.66-5.24c-.14-1.91-.16-3.83-.11-5.74C6.1,15.5,6.11,15.47,6.11,15.44Zm.78.71s0,.06,0,.08A40.37,40.37,0,0,0,7,21.15c.11,1.36.28,2.72.46,4.08a37.76,37.76,0,0,0,.89,4.48,52,52,0,0,0,1.92,6,49.9,49.9,0,0,0,4,7.91,48.07,48.07,0,0,0,5,6.76,29.59,29.59,0,0,0,11.05,8,.46.46,0,0,0,.41,0l1.48-.67a29.92,29.92,0,0,0,9.15-6.83,50.29,50.29,0,0,0,5.6-7.46,49.69,49.69,0,0,0,4.87-10.67A47,47,0,0,0,53.45,26a51.81,51.81,0,0,0,.6-5.27c.07-1.26.06-2.53.09-3.79,0-.25,0-.5,0-.74l-.43,0c-1.24-.16-2.5-.29-3.74-.49-1.53-.26-3-.56-4.56-.89a47,47,0,0,1-5.07-1.41,42.72,42.72,0,0,1-5-2,28.19,28.19,0,0,1-4.69-2.82.16.16,0,0,0-.24,0l-.57.42a32.69,32.69,0,0,1-7.19,3.72,47.93,47.93,0,0,1-6.83,2.06c-1.47.33-3,.61-4.43.87-1,.18-2,.3-3,.44Z"/></svg>