<svg xmlns="http://www.w3.org/2000/svg" viewBox="0 0 61.01 61.82"><defs><style>.a{fill:#787778;}.b{fill:none;stroke:#787678;stroke-miterlimit:10;stroke-width:2px;}</style></defs><title>Journey Icons 2 </title><path class="a" d="M26.88,31.15a2,2,0,0,0-.45-.95c-.08-.13-.11-.34.12-.63V24a8.92,8.92,0,0,0-.61-1.45,3,3,0,0,0-1-1,4.39,4.39,0,0,0-1.39-.55A7.37,7.37,0,0,0,22,20.9a9.19,9.19,0,0,0-1.75.16,4.48,4.48,0,0,0-1.53.59,3.36,3.36,0,0,0-1.12,1.1,4.06,4.06,0,0,0-.5,2.14h2.38c.05-1,.3-1.42.73-1.7a3,3,0,0,1,1.64-.42,4.93,4.93,0,0,1,.75.06,2.24,2.24,0,0,1,.72.2,1.6,1.6,0,0,1,.55.45,1.28,1.28,0,0,1,.22.75,1.07,1.07,0,0,1-.27.79,1.57,1.57,0,0,1-.7.38,5.74,5.74,0,0,1-1,.18,9.62,9.62,0,0,0-1.23.18,12.49,12.49,0,0,0-1.49.24,4.09,4.09,0,0,0-1.33.51,2.66,2.66,0,0,0-1,1,3.11,3.11,0,0,0-.37,1.62A2.94,2.94,0,0,0,17,30.5a2.77,2.77,0,0,0,.81,1,3.73,3.73,0,0,0,1.18.59,4.91,4.91,0,0,0,1.39.19,6.86,6.86,0,0,0,2-.31,4.3,4.3,0,0,0,1.74-1,1.44,1.44,0,0,0,.62,1,2.24,2.24,0,0,0,1.21.29,2.43,2.43,0,0,0,.36,0l.41-.06.41-.09a6,6,0,0,1,1.49-.1V30.34c-1.29,0-1.4.05-1.5.81Zm-2.42-2.81a1.61,1.61,0,0,1-.27.95,2.31,2.31,0,0,1-.68.64,3.05,3.05,0,0,1-.86.35,3.85,3.85,0,0,1-.86.1,4.62,4.62,0,0,1-.7-.06,2.45,2.45,0,0,1-.71-.22,1.62,1.62,0,0,1-.55-.42A1,1,0,0,1,19.6,29a1.67,1.67,0,0,1,.16-.78,1.31,1.31,0,0,1,.43-.53,2.25,2.25,0,0,1,.62-.31,6,6,0,0,1,.73-.18c.53-.09,1.06-.17,1.59-.21a3,3,0,0,0,1.33-.43Z"/><path class="a" d="M38.14,22.73a4.65,4.65,0,0,0-1.66-1.3A5.52,5.52,0,0,0,34.14,21a4.82,4.82,0,0,0-2,.43,3.06,3.06,0,0,0-1.47,1.42h.09V20.72H28.63v14.6h2.09V31.15h0a3.37,3.37,0,0,0,.71.8,4.25,4.25,0,0,0,.94.56,5.12,5.12,0,0,0,1.05.32,6.82,6.82,0,0,0,1.1.1,4.52,4.52,0,0,0,2.17-.5,4.44,4.44,0,0,0,1.53-1.32,5.8,5.8,0,0,0,.9-1.89A8.25,8.25,0,0,0,39.45,27a8.45,8.45,0,0,0-.32-2.35A5.64,5.64,0,0,0,38.14,22.73Zm-1,5.25a3.76,3.76,0,0,1-.52,1.21,3.06,3.06,0,0,1-.93.86,2.71,2.71,0,0,1-1.38.34,2.66,2.66,0,0,1-1.28-.3A2.78,2.78,0,0,1,32,29.3a3.37,3.37,0,0,1-.59-1.2,5.2,5.2,0,0,1-.2-1.51A4.57,4.57,0,0,1,32,23.82a2.61,2.61,0,0,1,2.26-1.05,2.54,2.54,0,0,1,1.3.33,2.91,2.91,0,0,1,.93.85,4,4,0,0,1,.57,1.22,5.58,5.58,0,0,1,.18,1.42A6.5,6.5,0,0,1,37.09,28Z"/><rect class="a" x="41.14" y="16.55" width="2.09" height="2.09"/><rect class="a" x="41.14" y="20.72" width="2.09" height="10.43"/><path class="b" d="M3.61,4V58.26H57.83V4ZM7.78,8.21H53.66V45.75H7.78Z"/></svg>