<svg xmlns="http://www.w3.org/2000/svg" viewBox="0 0 74.24 55.37"><defs><style>.a{fill:#787678;}.b{fill:none;stroke:#787778;stroke-miterlimit:10;}</style></defs><title>Journey Icons 2 </title><path class="a" d="M45.27,14.74H42.9a14.43,14.43,0,0,1-1,5.31l-7.52-3.89a5.33,5.33,0,0,0-1.2-5,4.51,4.51,0,0,0-5.77-.79L25.63,8.44,24,10.24l1.79,1.91a5.36,5.36,0,0,0,.74,6.18,4.51,4.51,0,0,0,4.68,1.28l10.3,22.8,1.07-.56L36.89,29.38a15.81,15.81,0,0,0,3.83-3,17,17,0,0,0,2.81-4.1l11.66,6,.52-1.15-11.66-6A17.09,17.09,0,0,0,45.27,14.74ZM29,13.85a1.14,1.14,0,0,1,1.68,0,1.35,1.35,0,0,1,0,1.8,1.14,1.14,0,0,1-1.68,0A1.35,1.35,0,0,1,29,13.85Zm6.88,13.27-3.61-8a4.82,4.82,0,0,0,.93-.77,4.61,4.61,0,0,0,.72-1l7.5,3.87A13.69,13.69,0,0,1,35.86,27.12Z"/><rect class="b" x="3.42" y="2.69" width="68.26" height="44.84"/><rect class="b" x="30.36" y="49.03" width="14.37" height="2.74"/><line class="b" x1="19.32" y1="53.91" x2="55.78" y2="53.91"/></svg>