<svg xmlns="http://www.w3.org/2000/svg" viewBox="0 0 45.92 63.22"><defs><style>.a{fill:#787778;}</style></defs><title>Journey Icons</title><path class="a" d="M41.7,59.61H7.24v-.67q0-25.83,0-51.64a3.44,3.44,0,0,1,3.59-3.62q13.67.07,27.31,0A3.42,3.42,0,0,1,41.71,7.3q0,25.82,0,51.63ZM39.54,57.5V7.14c0-1-.39-1.32-1.4-1.32H10.83c-1.08,0-1.43.35-1.43,1.42V57.5Z"/><path class="a" d="M37.32,25.18H11.62V18.79h25.7ZM13.72,23H35.23V21H13.72Z"/><path class="a" d="M11.61,33.79V27.44H37.33v6.35Zm2.11-2.16h21.5V29.54H13.72Z"/><path class="a" d="M11.61,42.38V36H37.33v6.35Zm2.11-2.12H35.21V38.17H13.72Z"/><path class="a" d="M37.32,10.2v6.34H11.61V10.2ZM13.7,14.41H35.2V12.33H13.7Z"/><path class="a" d="M24.47,46.77a4.29,4.29,0,1,1-4.31,4.28A4.29,4.29,0,0,1,24.47,46.77Zm2.14,4.3a2.14,2.14,0,1,0-4.28,0,2.14,2.14,0,1,0,4.28,0Z"/></svg>