<svg xmlns="http://www.w3.org/2000/svg" viewBox="0 0 72.53 65.32"><defs><style>.a{fill:none;stroke:#787678;stroke-miterlimit:10;stroke-width:2px;}</style></defs><title>Journey Icons 2 </title><path class="a" d="M36.57,44c-5.12,0-10.24,0-15.35,0-1.1,0-1.51-.22-1.5-1.42q.08-12.58,0-25.16c0-1.08.21-1.52,1.41-1.52q15.52.08,31.05,0c1.28,0,1.52.45,1.51,1.61q-.06,12.42,0,24.84c0,1.24-.28,1.68-1.61,1.66C46.92,44,41.75,44,36.57,44Z"/><path class="a" d="M17.12,28.4a7.22,7.22,0,0,0,0,1.14,2.16,2.16,0,0,1-1.46,2.65,7.41,7.41,0,0,0-3.23,3.14c-.75,1.22-1.09,2.27-.18,3.71a5.11,5.11,0,0,1-1,6.27c-.33.31-.8,1.14-1.27.47s-1.51-1.25-.73-2.34a4.34,4.34,0,0,0,.7-1.08A2.72,2.72,0,0,0,6.15,39a2.48,2.48,0,0,0-1.51,2.5c0,.62.51,1.29-.43,1.84-1.6.94-1.9.88-2.29-1a5.42,5.42,0,0,1,3-5.81,2.66,2.66,0,0,0,1.49-1.7,14.71,14.71,0,0,1,9-9.08c1.24-.48,2-.47,1.73,1.16A10.29,10.29,0,0,0,17.12,28.4Z"/><path class="a" d="M69.85,41.46a4.94,4.94,0,0,1-.08.88c-.15.63,0,1.79-.9,1.56s-2.28-.29-1.78-2A2.37,2.37,0,0,0,65.53,39a2.75,2.75,0,0,0-3.43,4c.27.43,1.15.7.55,1.47-.39.5-.41,1.4-1.11,1.48s-1.12-.61-1.49-1.13a5.15,5.15,0,0,1-.46-6,2.57,2.57,0,0,0,0-3,5.15,5.15,0,0,0-1.31-1.83c-2.21-1.33-2.22-3.38-2-5.53.07-.84-.43-2.07.25-2.43s1.68.48,2.46.95a14.38,14.38,0,0,1,6.36,7.78,2.59,2.59,0,0,0,1.49,1.72A5.11,5.11,0,0,1,69.85,41.46Z"/><path class="a" d="M36.27,13.41c-2.83,0-5.66,0-8.49,0-1.23,0-1.38-.37-1-1.44a10.09,10.09,0,0,1,18.74-.08c.54,1.31.14,1.56-1.13,1.52C41.72,13.36,39,13.41,36.27,13.41Z"/><path class="a" d="M26.61,62.69c-1.9,0-3.8,0-5.7,0-.92,0-1.33-.21-1.09-1.18s.39-2,.7-3c1-3.27,3.18-4.88,6.31-4.82,3.28.07,5.31,1.73,6.23,5.13,1.06,3.87,1.06,3.87-2.86,3.87Z"/><path class="a" d="M47.22,62.69c-1.9,0-3.8,0-5.7,0-.92,0-1.33-.22-1.11-1.18s.33-1.93.6-2.86c1.19-4.06,4.17-5.77,8.26-4.73,2.24.56,3.37,2.25,4.1,4.27,1.55,4.28,1.41,4.49-3,4.49Z"/><path class="a" d="M27.09,46.67c2.79,0,2.79,0,2.79,2.8,0,.43,0,.86,0,1.29s0,.85-.72.66A12.22,12.22,0,0,0,25,51.25c-.22,0-.58.11-.63,0-.7-1.24-.2-2.59-.32-3.89-.08-.86.61-.71,1.13-.72S26.44,46.67,27.09,46.67Z"/><path class="a" d="M47.37,46.67c2.87,0,2.82,0,2.89,2.9,0,1.35-.08,2.17-1.75,1.67a12.41,12.41,0,0,0-1.94-.07c-.73-.09-1.92.59-2.06,0A15,15,0,0,1,44.42,47c0-.34.51-.3.83-.3C46,46.66,46.66,46.67,47.37,46.67Z"/></svg>