<svg xmlns="http://www.w3.org/2000/svg" viewBox="0 0 82.87 73.79"><defs><style>.a{fill:none;stroke:#787778;stroke-miterlimit:10;}.b{fill:#787778;}</style></defs><title>Journey Icons</title><path class="a" d="M13.14,13.61c.34-.72.68-1.43,1-2.15,2.47,2.44,4.88,4.94,7.43,7.29a4.23,4.23,0,0,1,1.53,4.73,6.21,6.21,0,0,0,5.54,7.38c4,.38,7.11-2.16,7.28-6.05s-2.82-7.56-6.48-6.72S24.28,17,22.33,15s-3.87-3.93-5.81-5.89l2.16-1,47.2,0a7.15,7.15,0,0,1,6.21,6.2V60.81c-.37.92-.73,1.84-1.09,2.76-2.46-2.44-4.87-4.94-7.42-7.29A4.24,4.24,0,0,1,62,51.55a6.18,6.18,0,0,0-5.54-7.37c-4-.39-7.11,2.15-7.28,6S52,57.78,55.7,56.94s5.19,1.12,7.15,3.1l5.79,5.89L65.88,67l-47.2,0a7.63,7.63,0,0,1-5.54-5.55ZM55.25,30.88c4.11,0,6.88-2.74,6.94-6.37a6.54,6.54,0,0,0-6.6-6.6c-3.62.06-7,3-6.19,6.41.92,3.8-1.27,5.37-3.29,7.4-3.54,3.54-7.12,7-10.6,10.63-1.46,1.52-2.75,2.82-5.18,1.9a4.78,4.78,0,0,0-3.85.54A6.55,6.55,0,0,0,30.8,57c3.27-.68,5.77-3.61,5-6.93-.62-2.73.49-4.11,2.15-5.72C41.49,41,44.89,37.44,48.39,34,50.41,32,52,29,55.25,30.88Z"/><path class="a" d="M68.64,65.93,62.85,60c-2-2-3.53-3.93-7.15-3.1s-6.65-2.8-6.48-6.73,3.23-6.42,7.28-6A6.18,6.18,0,0,1,62,51.55a4.24,4.24,0,0,0,1.54,4.73c2.55,2.35,5,4.85,7.42,7.29A4.3,4.3,0,0,1,68.64,65.93Zm-12.81-13A2.12,2.12,0,0,0,58,50.48a2.17,2.17,0,0,0-2.32-2.31,2.38,2.38,0,1,0,.2,4.74Z"/><path class="a" d="M16.52,9.09c1.94,2,3.86,3.93,5.81,5.89s3.5,3.94,7.14,3.11,6.65,2.79,6.48,6.72-3.23,6.43-7.28,6.05a6.21,6.21,0,0,1-5.54-7.38,4.23,4.23,0,0,0-1.53-4.73c-2.55-2.35-5-4.85-7.43-7.29A4.4,4.4,0,0,1,16.52,9.09Zm13,13a2.14,2.14,0,0,0-2.35,2.26,2.21,2.21,0,0,0,2.16,2.48,2.39,2.39,0,0,0,2.57-2.48A2.26,2.26,0,0,0,29.56,22.12Z"/><path class="a" d="M55.25,30.88C52,29,50.41,32,48.39,34c-3.5,3.44-6.9,7-10.43,10.37-1.66,1.61-2.77,3-2.15,5.72.76,3.32-1.74,6.25-5,6.93a6.55,6.55,0,0,1-4.32-12.23,4.78,4.78,0,0,1,3.85-.54c2.43.92,3.72-.38,5.18-1.9,3.48-3.6,7.06-7.09,10.6-10.63,2-2,4.21-3.6,3.29-7.4C48.57,20.89,52,18,55.59,17.91a6.54,6.54,0,0,1,6.6,6.6C62.13,28.14,59.36,30.87,55.25,30.88Zm.44-8.77a2.29,2.29,0,0,0-2.45,2.16,2.32,2.32,0,0,0,2.41,2.6A2.2,2.2,0,0,0,58,24.52C58,23.05,57.22,22.26,55.69,22.11ZM29.43,52.91a2.29,2.29,0,0,0,2.51-2.19,2.33,2.33,0,0,0-2.46-2.56,2.2,2.2,0,0,0-2.26,2.39A2.13,2.13,0,0,0,29.43,52.91Z"/><path class="b" d="M55.83,52.91a2.38,2.38,0,1,1-.2-4.74A2.17,2.17,0,0,1,58,50.48,2.12,2.12,0,0,1,55.83,52.91Z"/><path class="b" d="M29.56,22.12a2.26,2.26,0,0,1,2.38,2.26,2.39,2.39,0,0,1-2.57,2.48,2.21,2.21,0,0,1-2.16-2.48A2.14,2.14,0,0,1,29.56,22.12Z"/><path class="b" d="M55.69,22.11c1.53.15,2.32.94,2.27,2.41a2.2,2.2,0,0,1-2.31,2.35,2.32,2.32,0,0,1-2.41-2.6A2.29,2.29,0,0,1,55.69,22.11Z"/><path class="b" d="M29.43,52.91a2.13,2.13,0,0,1-2.21-2.36,2.2,2.2,0,0,1,2.26-2.39,2.33,2.33,0,0,1,2.46,2.56A2.29,2.29,0,0,1,29.43,52.91Z"/></svg>