<svg xmlns="http://www.w3.org/2000/svg" viewBox="0 0 82.03 77.15"><defs><style>.a{fill:#787778;}.b{fill:#fff;}</style></defs><title>Journey Icons</title><path class="a" d="M38.34,6.1H43.5c1,.15,2,.16,3,.22a18.75,18.75,0,0,1,4.52,1,31.92,31.92,0,0,1,9.9,5.23A32.51,32.51,0,0,1,72.93,32a18.55,18.55,0,0,1,.26,2.78,58.11,58.11,0,0,1-.15,9,26.71,26.71,0,0,1-2.16,7.46A31.66,31.66,0,0,1,65.7,59.5a32.42,32.42,0,0,1-8.53,7.07,32.79,32.79,0,0,1-9.85,3.7,17.69,17.69,0,0,1-2.81.26,57.86,57.86,0,0,1-9.12-.17,26.87,26.87,0,0,1-7.33-2.16,31.44,31.44,0,0,1-8.24-5.15A32.66,32.66,0,0,1,9.2,45.42a27.65,27.65,0,0,1-.38-4c0-.16.06-.34-.06-.48V35.68c.14-.92.14-1.85.21-2.77a23,23,0,0,1,1.59-6.16,31.07,31.07,0,0,1,5.72-9.62,32.55,32.55,0,0,1,13.83-9.5,24,24,0,0,1,8-1.47A.34.34,0,0,0,38.34,6.1Z"/><path class="b" d="M69.27,38.33A28.29,28.29,0,1,1,41,10,28.33,28.33,0,0,1,69.27,38.33Z"/><path class="a" d="M39.66,46.58c0-2.35,0-4.7,0-7,0-.47-.14-.63-.61-.73A19.56,19.56,0,0,1,32,36.09a9.11,9.11,0,0,1-4.08-6.89,11.17,11.17,0,0,1,3.6-9.81,10.74,10.74,0,0,1,6.75-2.84c1.43-.12,1.43-.09,1.43-1.54,0-.61,0-1.22,0-1.82,0-.32.09-.46.43-.45.61,0,1.22,0,1.82,0,.37,0,.46.14.46.48,0,.9,0,1.8,0,2.7,0,.37.08.5.47.53a14.46,14.46,0,0,1,6,1.74,10,10,0,0,1,5.07,7.93c.14,1.24.1,1.25-1.13,1.25-1,0-2.06,0-3.08,0-.46,0-.64-.09-.71-.59a6.47,6.47,0,0,0-3.92-5.5,8.68,8.68,0,0,0-2.25-.53c-.41-.05-.54.06-.49.45a2.08,2.08,0,0,1,0,.25c0,4.07,0,8.13,0,12.2,0,.52.12.76.65.91a46.22,46.22,0,0,1,6.16,2.13A8.87,8.87,0,0,1,55,45.36a14.24,14.24,0,0,1-1.66,7.44,9.76,9.76,0,0,1-4.95,4.27,18.8,18.8,0,0,1-5.17,1.26c-.62.06-.87.26-.83,1,.07,1.36,0,2.73,0,4.09,0,.4-.11.56-.53.53s-1.13,0-1.7,0c-.39,0-.5-.14-.49-.51,0-1.46,0-2.93,0-4.4,0-.39-.1-.53-.51-.57a17.37,17.37,0,0,1-5.59-1.33,10.34,10.34,0,0,1-6.29-8.53A26.31,26.31,0,0,1,27,45.49c0-.39.12-.5.5-.49,1.32,0,2.64,0,4,0,.47,0,.56.17.58.58a14.44,14.44,0,0,0,.71,4A6.58,6.58,0,0,0,38,53.92c.36.09.75.08,1.11.19.55.17.61-.08.61-.55C39.65,51.23,39.66,48.91,39.66,46.58Z"/><path class="b" d="M42.36,47c0-2.26,0-4.53,0-6.79,0-.48.11-.56.57-.42A27.17,27.17,0,0,1,46,40.88a6,6,0,0,1,3.87,5.29,7.18,7.18,0,0,1-2.55,6.56,8.31,8.31,0,0,1-4.56,1.58c-.47,0-.38-.27-.38-.52Z"/><path class="b" d="M39.66,27.24c0,2,0,4,0,6,0,.52-.15.57-.6.45a12.09,12.09,0,0,1-3.37-1.33,5.46,5.46,0,0,1-2.83-4.85,6.87,6.87,0,0,1,3.47-6.11,8.73,8.73,0,0,1,2.79-.69c.42,0,.54.1.54.51C39.65,23.22,39.66,25.23,39.66,27.24Z"/></svg>