<svg xmlns="http://www.w3.org/2000/svg" viewBox="0 0 78.94 46.98"><defs><style>.a{fill:#4b5ca9;}.b{fill:#fdda1c;}.c{fill:#fcfdfe;}</style></defs><title>Journey Icons 2 </title><path class="a" d="M20.62,44.23c-4.53,0-9.06,0-13.6,0-1.48,0-3,0-4.46-.07-.31,0-.84.17-.85-.32s.52-.33.84-.33l16.64,0q9.36,0,18.72.09c.8,0,1-.22,1-1,0-9.16,0-18.32,0-27.48,0-.92.25-1.2,1.16-1.16,1.33.06,2.66,0,4-.06.7,0,1,.16,1,.88s0,1.52,0,2.28c0,.4.11.57.54.56,1.2,0,2.41,0,3.61,0,.43,0,.55-.17.54-.57,0-.79,0-1.58,0-2.37,0-.54.15-.84.74-.84H55c.59,0,.76.28.73.83,0,.76,0,1.52,0,2.28,0,.46.08.69.62.67q1.76,0,3.51,0c.46,0,.62-.13.6-.59,0-.82,0-1.65,0-2.47,0-.49.18-.68.68-.67,1.61,0,3.23.08,4.84.07.51,0,.68.22.68.68,0,.28,0,.57,0,.85,0,9,0,18,0,27,0,.78.17,1.05,1,1,1.33-.08,2.66,0,4,0,.27,0,.64-.06.62.37s-.36.29-.59.29l-5,0c-.48,0-.68-.19-.67-.68,0-.82,0-1.64,0-2.47,0-8.46,0-16.92,0-25.38,0-.86-.23-1.09-1-1a29.91,29.91,0,0,1-3.14,0c-.5,0-.66.16-.64.65,0,.76,0,1.52,0,2.28,0,.56-.18.8-.76.79-1.53,0-3,0-4.57,0-.52,0-.74-.17-.72-.71,0-.76,0-1.53,0-2.29s-.19-.74-.76-.72c-1.1,0-2.22,0-3.32,0-.49,0-.68.11-.65.63,0,.76,0,1.52,0,2.28,0,.56-.17.82-.76.81q-2.28,0-4.56,0c-.56,0-.8-.2-.77-.78s0-1.46,0-2.19c0-.56-.12-.79-.73-.76a29.71,29.71,0,0,1-3.13,0c-.68,0-.86.21-.85.86,0,3.3,0,6.6,0,9.89,0,5.9,0,11.79,0,17.69,0,.91-.19,1.25-1.2,1.25-5.93-.06-11.85,0-17.78,0Z"/><path class="a" d="M14.27,11.28a3.42,3.42,0,0,1-.74,2.32,1,1,0,0,0-.15,1.18q4,9.71,8,19.43c.2.48.4.63.9.37A12.09,12.09,0,0,1,23.9,34a3,3,0,0,1,4,1.77c.78,2.13,1.49,4.3,2.22,6.46.1.28.31.68-.11.81s-.45-.36-.54-.62c-.72-2.06-1.41-4.13-2.13-6.19A2.33,2.33,0,0,0,24,34.62c-2.17.86-4.32,1.75-6.47,2.67a2.33,2.33,0,0,0-1.28,3.29c.26.61.57,1.2.88,1.79.13.25.21.49-.11.63s-.4-.13-.49-.31a25,25,0,0,1-1.1-2.42,2.91,2.91,0,0,1,1.44-3.39,19.09,19.09,0,0,1,1.92-.82c.41-.16.56-.32.36-.82Q15,25.51,11,15.75a1,1,0,0,0-.87-.7,3.64,3.64,0,0,1-3-2.31c-.51-1.19-1-2.39-1.52-3.57C5.34,8.58,5.41,8.26,6,8c1.82-.72,3.61-1.49,5.42-2.23.32-.14.71-.36.89.11a33.19,33.19,0,0,1,1.89,5A1.5,1.5,0,0,1,14.27,11.28Zm-4,3.12a3.05,3.05,0,0,0,3.18-3.9c-.22-.72-.56-1.4-.82-2.11-.17-.48-.41-.54-.85-.33-.86.4-1.79.66-2.61,1.11S7.05,9.43,7,10.47a5.64,5.64,0,0,0,1.08,2.58A2.69,2.69,0,0,0,10.28,14.4Zm6.94,11.52-.15-.36c-1.12-2.71-2.25-5.42-3.37-8.14-.16-.41-.29-.63-.81-.41s-.41.45-.24.81.4,1,.61,1.49L16,26c.1.24.15.62.57.43C16.83,26.27,17.18,26.29,17.22,25.92Zm.34.85c-.67.21-1.07.3-.78,1,1,2.36,2,4.75,3,7.13.11.28.19.58.67.36s.49-.35.31-.77c-1-2.4-2-4.82-3-7.22C17.67,27.07,17.66,26.75,17.56,26.77ZM6.77,9.42l5.12-2.13c.25-.11.13-.29.06-.47s-.13-.4-.45-.26L6.55,8.61c-.14.06-.37.12-.2.39S6.44,9.46,6.77,9.42ZM13,15.87c-.28-.29-.13-.95-.69-1-.22,0-.8.05-.62.57s.11,1,.69,1A.53.53,0,0,0,13,15.87Z"/><path class="a" d="M69.56,26.93c0-5,0-10,0-15,0-.69.06-1.22,1-1.1.32,0,.45-.14.44-.45v-.29C71,7.53,71,7.53,68.51,7.53c-8.59,0-17.18,0-25.76,0-.79,0-1.1.18-1,1a6.47,6.47,0,0,1,0,1.32c0,.61-.07,1.17.84,1,.34-.06.51.17.5.52s0,.57,0,.86.15.75-.29.78-.37-.44-.36-.73c0-.46,0-.82-.64-.75s-.72-.25-.71-.75c0-1,0-2,0-3,0-.74.27-.91.95-.91,3.83,0,7.66,0,11.5,0,5.64,0,11.28,0,16.92,0,.9,0,1.26.23,1.18,1.17s0,1.9,0,2.85c0,.42-.14.73-.58.67-.77-.09-.76.34-.76.91q0,14.69,0,29.37c0,.41.3,1.17-.36,1.16s-.35-.77-.36-1.19C69.55,36.82,69.56,31.88,69.56,26.93Z"/><path class="a" d="M46,36.45c0-2.31,0-4.62,0-6.93,0-.67.21-.87.87-.87,4,0,8,0,12.07,0,.62,0,.83.21.82.82,0,2.7,0,5.39,0,8.08,0,.29.1.77-.34.74s-.27-.5-.27-.78q0-3.66,0-7.32c0-.6-.09-.89-.81-.89q-5.41.06-10.83,0c-.72,0-.83.28-.83.9,0,4.21,0,8.42,0,12.63,0,.19,0,.38,0,.57s.08.76-.35.76-.3-.48-.3-.77C45.94,41.08,46,38.76,46,36.45Z"/><path class="a" d="M56.36,11.56H45.44c-.26,0-.51,0-.76,0a.39.39,0,0,1-.4-.33c0-.24.19-.33.37-.36a4.84,4.84,0,0,1,.76,0H67.63c.35,0,.9-.11.89.41s-.54.33-.86.33Z"/><path class="b" d="M28.63,31.19c-.11-.06-.25-.09-.31-.18-.16-.27,0-.48.19-.67l2.85-3.53c.36-.44.7-.89,1.08-1.32.16-.18.31-.57.65-.28s.08.52-.1.74c-1.18,1.48-2.37,2.94-3.56,4.41A2.63,2.63,0,0,1,28.63,31.19Z"/><path class="b" d="M11.32,35.72c-.12.26-.26.39-.58.27-1.64-.63-3.29-1.24-4.93-1.86-.2-.08-.41-.22-.31-.5a.35.35,0,0,1,.47-.2l5.1,1.92A.36.36,0,0,1,11.32,35.72Z"/><path class="b" d="M35,32.1c.26,0,.41,0,.47.21a.31.31,0,0,1-.13.41c-1.32.49-2.65,1-4,1.44-.16.06-.3-.06-.37-.21a.29.29,0,0,1,.13-.41C32.42,33,33.75,32.56,35,32.1Z"/><path class="b" d="M12.56,30.73c-.11.28-.29.52-.54.25-.73-.78-1.41-1.61-2.1-2.42a.33.33,0,0,1,.05-.5.3.3,0,0,1,.49.05q1,1.17,2,2.37C12.53,30.54,12.53,30.65,12.56,30.73Z"/><path class="a" d="M75.5,43.47c.43.22,1.29-.33,1.3.41,0,.54-.85.28-1.3.26s-1.31.37-1.31-.34S75,43.64,75.5,43.47Z"/><path class="a" d="M59,43c.19-.46-.23-1.24.34-1.25s.31.77.31,1.19.28,1.19-.29,1.19S59.27,43.32,59,43Z"/><path class="b" d="M25.78,28.6c-.11.32-.24.65-.68.64a.58.58,0,0,1-.62-.58.6.6,0,0,1,.64-.67A.69.69,0,0,1,25.78,28.6Z"/><path class="b" d="M14.14,32.55c-.05.19-.18.37-.38.3a1.49,1.49,0,0,1-.86-.94c-.08-.19.12-.34.32-.37S14.15,32.3,14.14,32.55Z"/><path class="a" d="M59,40c.08-.3-.13-.79.35-.75s.29.5.28.79.13.76-.33.73S59.13,40.22,59,40Z"/><path class="b" d="M10.93,39.23c-.06.26-.17.46-.48.48a.44.44,0,0,1-.51-.42.45.45,0,0,1,.49-.53C10.73,38.76,10.85,39,10.93,39.23Z"/><path class="c" d="M10.28,14.4a2.69,2.69,0,0,1-2.2-1.35A5.64,5.64,0,0,1,7,10.47c0-1,1.42-.88,2.18-1.3s1.75-.71,2.61-1.11c.44-.21.68-.15.85.33.26.71.6,1.39.82,2.11A3.05,3.05,0,0,1,10.28,14.4Z"/><path class="c" d="M17.22,25.92c0,.37-.39.35-.63.46-.42.19-.47-.19-.57-.43l-2.76-6.64c-.21-.5-.39-1-.61-1.49s-.25-.59.24-.81.65,0,.81.41c1.12,2.72,2.25,5.43,3.37,8.14Z"/><path class="c" d="M17.56,26.77c.1,0,.11.3.17.46,1,2.4,2,4.82,3,7.22.18.42.1.57-.31.77s-.56-.08-.67-.36c-1-2.38-1.95-4.77-3-7.13C16.49,27.07,16.89,27,17.56,26.77Z"/><path class="c" d="M6.77,9.42c-.33,0-.32-.24-.42-.42s.06-.33.2-.39l5-2c.32-.14.37,0,.45.26s.19.36-.06.47Z"/><path class="c" d="M13,15.87a.53.53,0,0,1-.62.58c-.58-.05-.56-.65-.69-1s.4-.6.62-.57C12.91,14.92,12.76,15.58,13,15.87Z"/></svg>