<svg xmlns="http://www.w3.org/2000/svg" viewBox="0 0 39.66 62.41"><defs><style>.a{fill:#787778;}</style></defs><title>Journey Icons 2 </title><path class="a" d="M36.85,59.57H2.39v-.68q0-25.81,0-51.64A3.43,3.43,0,0,1,6,3.64q13.67.06,27.31,0a3.42,3.42,0,0,1,3.59,3.61q0,25.82,0,51.64Zm-2.16-2.12V56.9q0-24.9,0-49.8c0-1-.38-1.32-1.39-1.32H6c-1.08,0-1.43.34-1.43,1.41V57.45Z"/><path class="a" d="M32.07,25.13H6.37V18.74h25.7ZM8.47,23H30v-2H8.47Z"/><path class="a" d="M6.37,33.74V27.39H32.09v6.35Zm2.11-2.16H30V29.49H8.48Z"/><path class="a" d="M6.76,42.34V36H32.48v6.36Zm2.11-2.13H30.36V38.13H8.87Z"/><path class="a" d="M32.1,10.15v6.34H6.39V10.15ZM8.47,14.37H30V12.28H8.47Z"/><path class="a" d="M19.23,46.73A4.28,4.28,0,1,1,14.92,51,4.28,4.28,0,0,1,19.23,46.73ZM21.38,51a2.15,2.15,0,1,0-4.29,0,2.15,2.15,0,1,0,4.29,0Z"/></svg>