<svg xmlns="http://www.w3.org/2000/svg" viewBox="0 0 58.29 65.16"><defs><style>.a,.c{fill:#79777a;}.b{fill:#fff;}.c{stroke:#79777a;stroke-miterlimit:10;}</style></defs><title>Journey Icons 2 </title><path class="a" d="M36.07,2.84q2.19,2.24,4.39,4.46Q46,12.88,51.62,18.47a1.21,1.21,0,0,1,.34.73c0,3.12,0,6.23,0,9.35,0,.07,0,.15,0,.26H48.28V21.44H33.41V6.59h-26v52H27.79v3.7H3.68V2.84Zm1.08,6.53v8.3h8.31Z"/><path class="b" d="M37.15,9.37l8.31,8.3H37.15Z"/><path class="c" d="M51.11,48.53a11.46,11.46,0,0,0,.5-1.8l4.57-1.82-1.09-6-4.59-.14a11.6,11.6,0,0,0-2.59-3.28l.6-4.41L42.88,29l-2.41,3.74a11.46,11.46,0,0,0-4.1.8l-3.58-2.89L28.06,34.5l2.28,4.36a12.41,12.41,0,0,0-.79,1.69,11.65,11.65,0,0,0-.5,1.79l-4.57,1.83,1.09,6,4.59.14a11.42,11.42,0,0,0,2.59,3.27L32.15,58l5.63,2.08,2.41-3.74a11.46,11.46,0,0,0,4.1-.8l3.58,2.89,4.74-3.85-2.29-4.36A12.41,12.41,0,0,0,51.11,48.53Zm.21,5.79-3.44,2.8-3-2.39-.44-.36-.53.21a10.47,10.47,0,0,1-3.75.73h-.54l-.3.46-2,3-4.13-1.52.49-3.6.07-.55-.41-.36a10.55,10.55,0,0,1-2.36-3l-.27-.51-.57,0-3.8-.11-.79-4.36L29.4,43.3l.52-.21.11-.55a10.89,10.89,0,0,1,.46-1.64,9.49,9.49,0,0,1,.72-1.54l.27-.5-.26-.5-1.88-3.6L32.78,32l3,2.39.44.36.53-.21a10.47,10.47,0,0,1,3.75-.73H41l.3-.46,2-3.06,4.13,1.53-.49,3.6-.07.55.41.36a10.55,10.55,0,0,1,2.36,3l.27.51.57,0,3.8.11L55,44.27l-3.78,1.51-.52.21-.11.55a11.24,11.24,0,0,1-.46,1.64,9.49,9.49,0,0,1-.72,1.54l-.27.5.26.5Z"/><path class="c" d="M42.48,38.74A6.19,6.19,0,1,0,46,46.62,6.1,6.1,0,0,0,42.48,38.74Zm-2.87,7.73a2.06,2.06,0,1,1,2.6-1.24A2,2,0,0,1,39.61,46.47Z"/></svg>