<svg xmlns="http://www.w3.org/2000/svg" viewBox="0 0 92.21 78.7"><defs><style>.a{fill:#fff;stroke:#787678;stroke-miterlimit:10;stroke-width:2px;}</style></defs><title>Journey Icons</title><path class="a" d="M20.07,70.62c-2.72-1.28-4.86-3-5-6.31a6.7,6.7,0,0,1,13-2.67,6.64,6.64,0,0,1-3.19,8.2l-1.45.78Zm4-6.65c-1-.79-1.64-1.64-2.21-1.61s-1.18.89-1.76,1.38c.55.61,1,1.53,1.68,1.71C22.26,65.57,23,64.7,24.07,64Z"/><path class="a" d="M36,70.62c-2.72-1.28-4.87-3-5-6.31a6.7,6.7,0,0,1,13-2.67,6.64,6.64,0,0,1-3.19,8.2l-1.45.78Zm4-6.78c-1.07-.73-1.73-1.54-2.31-1.48s-1.11,1-1.67,1.48c.59.57,1.1,1.47,1.77,1.61C38.3,65.54,39,64.63,40,63.84Z"/><path class="a" d="M52,70.62c-2.72-1.28-4.87-3-5-6.31a6.7,6.7,0,0,1,13-2.67,6.64,6.64,0,0,1-3.19,8.2l-1.46.78Zm1.79-4.39c.71-1.1,1.5-1.78,1.43-2.35s-1-1.09-1.53-1.63c-.56.6-1.44,1.14-1.56,1.81C52,64.56,53,65.22,53.76,66.23Z"/><path class="a" d="M67.91,70.62c-2.71-1.28-4.86-3-5-6.31a6.7,6.7,0,0,1,13-2.67,6.63,6.63,0,0,1-3.18,8.2l-1.46.78Zm4-6.67c-1-.78-1.72-1.69-2.21-1.59-.67.13-1.19,1-1.77,1.61.55.53,1.07,1.42,1.67,1.48S70.85,64.69,71.92,64Z"/><path class="a" d="M46.09,47.11H24.29c-2.65,0-3.36-.71-3.37-3.34,0-7.61,0-15.23,0-22.85a5.24,5.24,0,0,1,.67-2.54c1.94-3.31,3.89-6.63,6.06-9.79a4.32,4.32,0,0,1,3-1.68q15.4-.18,30.82,0a4.29,4.29,0,0,1,3,1.67c2.18,3.16,4.13,6.48,6.07,9.79a5.24,5.24,0,0,1,.67,2.54c.06,7.69,0,15.38,0,23.07,0,2.33-.8,3.12-3.15,3.12C60.77,47.12,53.43,47.11,46.09,47.11Zm-20-23.41V41.92h40V23.7Zm17.4-11.84c-3.8,0-7.42,0-11,0a1.63,1.63,0,0,0-1.18.6c-1.24,1.9-2.41,3.86-3.72,6H43.49Zm5.21,6.57H64.62c-1.26-2-2.36-3.9-3.54-5.69a1.88,1.88,0,0,0-1.25-.84c-3.68-.07-7.36,0-11.13,0Z"/><path class="a" d="M46.12,54.66h-34c-.63,0-1.46.23-1.85-.08-.82-.67-2-1.63-2-2.46s1.19-1.73,2-2.41c.34-.28,1.08-.07,1.64-.07H80.14a11.83,11.83,0,0,1,1.46,0,2.3,2.3,0,0,1,2.25,2.52,2.25,2.25,0,0,1-2.31,2.45c-1.67.09-3.35,0-5,0Z"/><path class="a" d="M24.07,64c-1.07.73-1.81,1.6-2.29,1.48-.67-.18-1.13-1.1-1.68-1.71.58-.49,1.15-1.36,1.76-1.38S23.05,63.18,24.07,64Z"/><path class="a" d="M40,63.84c-1,.79-1.72,1.7-2.21,1.61-.67-.14-1.18-1-1.77-1.61.56-.53,1.07-1.43,1.67-1.48S39,63.11,40,63.84Z"/><path class="a" d="M53.76,66.23c-.81-1-1.74-1.67-1.66-2.17.12-.67,1-1.21,1.56-1.81.54.54,1.46,1,1.53,1.63S54.47,65.13,53.76,66.23Z"/><path class="a" d="M71.92,64c-1.07.74-1.73,1.56-2.31,1.5s-1.12-1-1.67-1.48c.58-.58,1.1-1.48,1.77-1.61C70.2,62.26,70.89,63.17,71.92,64Z"/><path class="a" d="M26.09,23.7h40V41.92h-40Z"/><path class="a" d="M43.49,11.86v6.61H27.55c1.31-2.12,2.48-4.08,3.72-6a1.63,1.63,0,0,1,1.18-.6C36.07,11.84,39.69,11.86,43.49,11.86Z"/><path class="a" d="M48.7,18.43V11.86c3.77,0,7.45,0,11.13,0a1.88,1.88,0,0,1,1.25.84c1.18,1.79,2.28,3.65,3.54,5.69Z"/></svg>