<svg xmlns="http://www.w3.org/2000/svg" viewBox="0 0 75.95 68.31"><defs><style>.a{fill:none;stroke:#787778;stroke-miterlimit:10;}</style></defs><title>Journey Icons 2 </title><path class="a" d="M2.91,51.24A29.72,29.72,0,0,1,5.83,44a26.74,26.74,0,0,1,6.48-7.68c2.4-1.92,5-2.45,7.84-1a18.78,18.78,0,0,0,10.31,2.06,21.47,21.47,0,0,0,7.37-2.22,6.27,6.27,0,0,1,5.72,0c.12.06.23.14.39.23a4.9,4.9,0,0,0-1.45,3.16,28.61,28.61,0,0,0,.25,4.54,9.1,9.1,0,0,0,1.07,2.27c-2,2.63-2,7.17-.06,9.6-.43,1-.8,2-1.21,2.91a1,1,0,0,1-.52.44,37.21,37.21,0,0,1-12.58,2.27,38.44,38.44,0,0,1-14.75-2.58,39.66,39.66,0,0,0-8-2c-.13,0-.26-.07-.4-.1a4.21,4.21,0,0,1-3.34-3Z"/><path class="a" d="M40.54,18.29c-.12,4.34-1.43,8.37-4.86,11.48a10,10,0,0,1-14.2-.4,15.22,15.22,0,0,1-4.33-9.78A16.25,16.25,0,0,1,19.8,8.87a10.91,10.91,0,0,1,7.1-5,9.92,9.92,0,0,1,9.51,3.26C39.31,10.19,40.47,14,40.54,18.29Z"/><path class="a" d="M59.07,36c4,0,7.9.05,11.84,0a2.81,2.81,0,0,1,3,3,15.72,15.72,0,0,0,0,2.91A2.82,2.82,0,0,1,71,44.72c-4.94,0-9.88,0-14.82,0H47.11a2.69,2.69,0,0,1-2.9-2.88v-3A2.64,2.64,0,0,1,47,36Z"/><path class="a" d="M59,64.43h-12a2.64,2.64,0,0,1-2.84-2.85c0-1.06,0-2.12,0-3.18a2.56,2.56,0,0,1,2.58-2.59q12.23,0,24.45,0a2.54,2.54,0,0,1,2.61,2.62q0,1.7,0,3.39a2.56,2.56,0,0,1-2.64,2.6C67.16,64.44,63.1,64.43,59,64.43Z"/><path class="a" d="M59.06,54.56H46.94a2.64,2.64,0,0,1-2.73-2.69c0-1.08,0-2.16,0-3.25a2.61,2.61,0,0,1,2.71-2.7c1.89,0,3.78,0,5.67,0,6,0,12.1.06,18.14,0A2.84,2.84,0,0,1,73.88,49c-.1,1,0,1.94,0,2.91a2.6,2.6,0,0,1-2.68,2.64Z"/></svg>