<svg xmlns="http://www.w3.org/2000/svg" viewBox="0 0 80.47 65.91"><defs><style>.a{fill:none;}.a,.b{stroke:#787778;stroke-miterlimit:10;stroke-width:1.94px;}.b{fill:#fff;}.c{fill:#787778;}</style></defs><title>Journey Icons</title><rect class="a" x="9.9" y="14.31" width="61.54" height="40.43"/><rect class="b" x="34.2" y="56.09" width="12.96" height="2.47"/><line class="a" x1="24.24" y1="60.49" x2="57.11" y2="60.49"/><path class="c" d="M24.53,35.58c2.77,1.1,5.55,2.2,8.33,3.28,2,.78,2,.77,2,2.9s0,2.17-2,1.32c-4.12-1.79-8.23-3.6-12.37-5.35a1.4,1.4,0,0,1-1-1.59c.11-3.06-.51-2.24,2.27-3.47,4-1.75,8-3.47,12-5.23.84-.37,1.05-.25,1.05.68,0,3.15,0,3.16-2.89,4.28l-7.47,2.85Z"/><path class="c" d="M56.82,35.31C53.93,34.18,51.07,33,48.14,32a2.08,2.08,0,0,1-1.7-2.44c.14-2.43.05-2.45,2.31-1.48,4,1.71,8,3.46,12,5.15a1.58,1.58,0,0,1,1.07,1.55c.23,1.93-.42,2.89-2.31,3.61-4,1.53-7.9,3.37-11.82,5.12-.84.37-1.18.35-1.18-.72,0-3-.05-3,2.78-4.15l7.58-3Z"/><path class="c" d="M38.05,46.92c-1.69,0-1.71,0-1.37-1.45q2.48-10.35,5-20.69c.1-.42.12-.93.71-.93a5.55,5.55,0,0,1,2.44.14c.29.14,0,.66-.06,1Q42.36,34.81,40,44.62a5.42,5.42,0,0,0-.14.7C39.69,46.5,39.24,47.28,38.05,46.92Z"/></svg>