<svg xmlns="http://www.w3.org/2000/svg" viewBox="0 0 61.43 72.15"><defs><style>.a,.d{fill:none;}.a,.c,.d{stroke:#787678;stroke-miterlimit:10;}.a,.c{stroke-width:2px;}.b{fill:#787778;}.c{fill:#fff;}</style></defs><title>Journey Icons 2 </title><rect class="a" x="18.07" y="2.99" width="40.35" height="53.15"/><path class="b" d="M44.75,20.1a3.42,3.42,0,0,0-1-2.49A3.49,3.49,0,0,0,41,16.67c0,.59,0,1.18,0,1.78L41.13,20l1.64,0Q43.79,20,44.75,20.1Z"/><rect class="c" x="12.1" y="11.06" width="40.35" height="53.15"/><rect class="c" x="3.87" y="17.09" width="40.35" height="53.15"/><rect class="d" x="14.14" y="28.75" width="19.8" height="2.48"/><rect class="d" x="14.14" y="33.7" width="19.8" height="2.48"/><rect class="d" x="14.14" y="38.65" width="19.8" height="2.48"/><rect class="d" x="14.14" y="43.49" width="19.8" height="2.48"/><rect class="d" x="14.14" y="48.44" width="19.8" height="2.48"/><rect class="d" x="14.14" y="53.39" width="19.8" height="2.48"/><rect class="d" x="14.14" y="58.34" width="9.9" height="2.48"/></svg>