<svg xmlns="http://www.w3.org/2000/svg" viewBox="0 0 83.63 75.26"><defs><style>.a{fill:#787778;}.b{fill:#fff;}</style></defs><title>Journey Icons 2 </title><path class="a" d="M39.18,34.91c-4.39,0-8.77,0-13.16,0-1.36,0-1.67-.3-1.68-1.67q0-10.76,0-21.52c0-.35,0-.7,0-1.05A1.44,1.44,0,0,1,25,9.25c3-1.8,6-3.62,9-5.4a3,3,0,0,1,1.37-.4q12.59,0,25.17,0A1.28,1.28,0,0,1,62,4.82q0,9.21,0,18.43c0,1.41,0,2.82,0,4.22A1.9,1.9,0,0,1,61,29.3c-2.47,1.75-4.91,3.55-7.38,5.3a2,2,0,0,1-1.05.33q-6.7,0-13.4,0Zm12.33-2.44V11.64H43.07c0,1.25,0,2.44,0,3.62,0,1-.16,1.13-1.15,1.13H36.48c-1,0-1.17-.17-1.17-1.19V11.63h-8.5V32.47Zm8-25.37c-.31.19-.53.32-.74.47-1.34,1-2.66,1.95-4,2.88A1.57,1.57,0,0,0,54,11.92C54,18,54,24.11,54,30.2c0,.31,0,.62.05,1.07.34-.22.56-.35.77-.5,1.37-1,2.72-2,4.1-2.92a1.33,1.33,0,0,0,.64-1.27c0-6.2,0-12.4,0-18.6C59.52,7.72,59.5,7.47,59.48,7.1ZM45.61,8.93l0,.17c.25,0,.5,0,.76,0,1.48,0,3-.05,4.45,0a3.76,3.76,0,0,0,2.75-.88c1-.8,2-1.48,3.11-2.26-.19-.1-.25-.16-.32-.16l-5.75,0a.84.84,0,0,0-.47.11Q47.9,7.43,45.61,8.93Zm-15.32,0,.05.22a17,17,0,0,1,2.14,0,8.82,8.82,0,0,0,7.39-2.25A14.33,14.33,0,0,1,41.13,6c-1.42-.16-2.77-.1-4.11-.18a4.84,4.84,0,0,0-3.19.91C32.69,7.52,31.47,8.21,30.29,8.93Zm11.15,5.83v-3.1H36.92v3.1ZM47,6.09,47,5.76a9.21,9.21,0,0,0-3,.36,35.25,35.25,0,0,0-4.13,2.7c-.07,0-.09.15-.23.39,1.08-.07,2.15.14,2.92-.25A46,46,0,0,0,47,6.09Z"/><path class="a" d="M74.74,54.2l5.67,4.44c.12.1.26.19.38.3a1.2,1.2,0,0,1,.34,1.77,1.18,1.18,0,0,1-1.79.15c-.66-.48-1.29-1-1.92-1.49-1.52-1.19-3-2.36-4.54-3.56a1.49,1.49,0,0,0-1.32-.36,14.21,14.21,0,0,1-2.37,0l-.91,10.58a4.81,4.81,0,0,1,.88.27A14.62,14.62,0,0,1,72.07,68a3.06,3.06,0,0,1,0,4.78,6.92,6.92,0,0,1-7.46,1.47,7.11,7.11,0,0,1-2.38-1.48,3,3,0,0,1,0-4.82,12.18,12.18,0,0,1,2.94-1.63c.42-.19.63-.33.67-.83.28-3.42.61-6.84.88-10.26a1.26,1.26,0,0,0-.49-.88c-1.17-.9-2.13-1.91-1.89-3.51a10.53,10.53,0,0,1,.67-1.92l-.65-.52q-6.16-4.57-12.33-9.14c-.3-.22-.72-.5-.75-.79a2,2,0,0,1,.32-1.37,1.09,1.09,0,0,1,1.55,0l4.5,3.33c2.93,2.17,5.88,4.34,8.8,6.53a1.56,1.56,0,0,0,1.61.29,7,7,0,0,1,6.48,1c2.24,1.57,2.39,3.76.45,5.67ZM67.1,68.3a15.79,15.79,0,0,0-2.67.78,1.41,1.41,0,0,0,0,2.66,5.84,5.84,0,0,0,5.32,0,2.19,2.19,0,0,0,1-1.36,1.27,1.27,0,0,0-1-1.41C68.92,68.7,68.05,68.54,67.1,68.3Zm3.33-15a15.17,15.17,0,0,0,2.68-.81,1.39,1.39,0,0,0,0-2.61,5.89,5.89,0,0,0-5.46,0,1.41,1.41,0,0,0,.07,2.69A15.72,15.72,0,0,0,70.43,53.33Z"/><path class="a" d="M15,66.27c-1.53-2.49-.49-4.49,2.57-6-.17-.24-.33-.48-.5-.7-1.25-1.57-2.47-3.15-3.75-4.69a2.06,2.06,0,0,0-1.06-.63,7,7,0,0,1-3.39-1.8,3.16,3.16,0,0,1,0-4.81,6.77,6.77,0,0,1,5.66-1.88,2.18,2.18,0,0,0,1.51-.3c4.41-2.74,8.84-5.45,13.26-8.17a1.23,1.23,0,1,1,1.27,2.05L18.94,46.52c-.25.15-.49.32-.74.48,2.7,3.28,2.11,5.15-2.25,7.16.13.19.24.39.38.57,1.19,1.51,2.36,3,3.59,4.51a1.85,1.85,0,0,0,1,.57,7.31,7.31,0,0,1,4.34,2,3.11,3.11,0,0,1,0,4.69,6.9,6.9,0,0,1-7.43,1.58,1.55,1.55,0,0,0-1.49.19c-3.27,2.07-6.55,4.12-9.82,6.18A3.09,3.09,0,0,1,6,74.8a1.17,1.17,0,0,1-1.54-.52,1.09,1.09,0,0,1,.34-1.51c.61-.45,1.27-.83,1.91-1.24l7.56-4.74C14.47,66.64,14.71,66.47,15,66.27ZM13.78,52.16a15.35,15.35,0,0,0,2.67-.74,2.26,2.26,0,0,0,1-1.35c.17-.64-.34-1.12-.91-1.38a6,6,0,0,0-5.32,0,1.41,1.41,0,0,0,0,2.69A14.7,14.7,0,0,0,13.78,52.16Zm6.56,14.13a16.37,16.37,0,0,0,2.73-.82,1.4,1.4,0,0,0,0-2.62,5.83,5.83,0,0,0-5.46,0,1.4,1.4,0,0,0,0,2.65A16.36,16.36,0,0,0,20.34,66.29Z"/><path class="a" d="M47.49,65.78l4.61,4c1.08.94,2.17,1.88,3.24,2.83a1.22,1.22,0,1,1-1.59,1.8q-4.14-3.58-8.25-7.22a1.25,1.25,0,0,0-1.24-.33,10.83,10.83,0,0,1-5.84-.17,1.19,1.19,0,0,0-1.29.34c-2.59,2.38-5.2,4.74-7.81,7.11-.16.14-.31.3-.48.43a1.24,1.24,0,0,1-1.69-.11,1.16,1.16,0,0,1,.1-1.68c.87-.84,1.79-1.64,2.69-2.46l5.39-4.91c-.44-.37-.83-.69-1.2-1a4.72,4.72,0,0,1-.06-7.28,10,10,0,0,1,5.55-2.66c.7-.11.88-.36.87-1,0-4.44,0-8.88,0-13.32a2.58,2.58,0,0,1,.07-.88,1.11,1.11,0,0,1,1.3-.74,1.15,1.15,0,0,1,1,1.25c0,1.9,0,3.79,0,5.69,0,2.68,0,5.36,0,8,0,.61.1.88.79,1a10.23,10.23,0,0,1,5.27,2.34c2.7,2.36,2.69,5.56,0,7.9C48.49,65.07,48,65.37,47.49,65.78Zm-5.89-1a10.09,10.09,0,0,0,5.07-1.22c2.51-1.53,2.55-4.29,0-5.68a10.24,10.24,0,0,0-9.87-.06,3.18,3.18,0,0,0-2,2.94,3.42,3.42,0,0,0,2.05,2.9A10.37,10.37,0,0,0,41.6,64.83Z"/><path class="b" d="M59.48,7.1c0,.37,0,.62,0,.88,0,6.2,0,12.4,0,18.6a1.33,1.33,0,0,1-.64,1.27c-1.38.95-2.73,1.95-4.1,2.92-.21.15-.43.28-.77.5,0-.45-.05-.76-.05-1.07,0-6.09,0-12.19,0-18.28a1.57,1.57,0,0,1,.75-1.47c1.37-.93,2.69-1.92,4-2.88C59,7.42,59.17,7.29,59.48,7.1Z"/><path class="b" d="M45.61,8.93q2.28-1.5,4.58-3a.84.84,0,0,1,.47-.11l5.75,0c.07,0,.13.06.32.16-1.08.78-2.14,1.46-3.11,2.26a3.76,3.76,0,0,1-2.75.88c-1.48-.08-3,0-4.45,0-.26,0-.51,0-.76,0Z"/><path class="b" d="M30.29,8.93c1.18-.72,2.4-1.41,3.54-2.19A4.84,4.84,0,0,1,37,5.83c1.34.08,2.69,0,4.11.18a14.33,14.33,0,0,0-1.26.9,8.82,8.82,0,0,1-7.39,2.25,17,17,0,0,0-2.14,0Z"/><path class="b" d="M41.44,14.76H36.92v-3.1h4.52Z"/><path class="b" d="M47,6.09A46,46,0,0,1,42.56,9c-.77.39-1.84.18-2.92.25.14-.24.16-.34.23-.39A35.25,35.25,0,0,1,44,6.12a9.21,9.21,0,0,1,3-.36Z"/><path class="b" d="M67.1,68.3c1,.24,1.82.4,2.65.69a1.27,1.27,0,0,1,1,1.41,2.19,2.19,0,0,1-1,1.36,5.84,5.84,0,0,1-5.32,0,1.41,1.41,0,0,1,0-2.66A15.79,15.79,0,0,1,67.1,68.3Z"/><path class="b" d="M70.43,53.33a15.72,15.72,0,0,1-2.69-.75,1.41,1.41,0,0,1-.07-2.69,5.89,5.89,0,0,1,5.46,0,1.39,1.39,0,0,1,0,2.61A15.17,15.17,0,0,1,70.43,53.33Z"/><path class="b" d="M13.78,52.16a14.7,14.7,0,0,1-2.64-.78,1.41,1.41,0,0,1,0-2.69,6,6,0,0,1,5.32,0c.57.26,1.08.74.91,1.38a2.26,2.26,0,0,1-1,1.35A15.35,15.35,0,0,1,13.78,52.16Z"/><path class="b" d="M20.34,66.29a16.36,16.36,0,0,1-2.73-.81,1.4,1.4,0,0,1,0-2.65,5.83,5.83,0,0,1,5.46,0,1.4,1.4,0,0,1,0,2.62A16.37,16.37,0,0,1,20.34,66.29Z"/><path class="b" d="M41.6,64.83a10.37,10.37,0,0,1-4.75-1.12,3.42,3.42,0,0,1-2.05-2.9,3.18,3.18,0,0,1,2-2.94,10.24,10.24,0,0,1,9.87.06c2.57,1.39,2.53,4.15,0,5.68A10.09,10.09,0,0,1,41.6,64.83Z"/></svg>