<svg xmlns="http://www.w3.org/2000/svg" viewBox="0 0 78.18 73.65"><defs><style>.a{fill:none;}.a,.b{stroke:#787778;stroke-miterlimit:10;}.b{fill:#fff;}.c{fill:#787778;}</style></defs><title>Journey Icons</title><path class="a" d="M66.79,54.81H26.55a.66.66,0,0,1-.25-.54c0-.26,0-.51,0-.77V7.75c0-.32,0-.65,0-1a.45.45,0,0,1,.46-.46,5.78,5.78,0,0,1,.72,0H65.84c1.18,0,1.2,0,1.2,1.2q0,23.13,0,46.26C67,54.12,67.14,54.52,66.79,54.81Z"/><path class="b" d="M63.7,58.81H23.45a.67.67,0,0,1-.24-.54c0-.26,0-.52,0-.78V11.75a8,8,0,0,1,0-1,.46.46,0,0,1,.46-.46q.36,0,.72,0H62.74c1.19,0,1.21,0,1.21,1.21V57.75C64,58.11,64,58.52,63.7,58.81Z"/><path class="b" d="M60.6,62.8H20.36a.64.64,0,0,1-.24-.54c0-.26,0-.51,0-.77V15.74c0-.32,0-.65,0-1a.47.47,0,0,1,.46-.46,5.78,5.78,0,0,1,.72,0H59.65c1.19,0,1.21,0,1.21,1.2q0,23.15,0,46.27C60.85,62.11,61,62.51,60.6,62.8Z"/><path class="b" d="M57.43,66.49H17.19A.67.67,0,0,1,17,66c0-.26,0-.52,0-.77V19.43a8,8,0,0,1,0-1,.46.46,0,0,1,.45-.46c.24,0,.48,0,.72,0H56.48c1.19,0,1.21,0,1.21,1.2V65.43C57.69,65.8,57.78,66.2,57.43,66.49Z"/><path class="c" d="M48.29,44.54c-.59.55-.78.57-1.53.18,0,.19,0,.36,0,.53v5.18c0,.63-.23.88-.86.88H28.48c-.62,0-.85-.24-.85-.88,0-1.63,0-3.27,0-4.9v-.64a1.32,1.32,0,0,1-.51.08c-.26-.09-.61-.19-.72-.39a1.52,1.52,0,0,1,0-.87c0-.14.2-.25.32-.37l9.69-9.69c.67-.67,1-.67,1.7,0l9.69,9.7a5.93,5.93,0,0,1,.47.53ZM37.23,35.26a.82.82,0,0,0-.18.11c-2.61,2.6-5.22,5.2-7.81,7.83a1.41,1.41,0,0,0-.42.86c0,1.83,0,3.67,0,5.5a.55.55,0,0,0,.63.59c.79,0,1.58,0,2.37,0H34.2V44.31A1.17,1.17,0,0,1,35.45,43c1.23,0,2.45,0,3.68,0a1.18,1.18,0,0,1,1.23,1.31v5.81h4.78c.37,0,.41-.28.41-.58,0-1.87,0-3.75,0-5.62a1.56,1.56,0,0,0-.42-.95c-1.65-1.7-3.32-3.37-5-5C39.16,37,38.18,36.16,37.23,35.26Z"/><path class="c" d="M46.49,40.48c-.91-.91-1.73-1.71-2.54-2.53a.58.58,0,0,1-.1-.35c0-.61,0-1.21,0-1.94h1.75c1,0,.89-.14.9.91C46.5,37.82,46.49,39.08,46.49,40.48Z"/><path class="a" d="M51.06,53.91H23.5a.3.3,0,0,1-.17-.27c0-.12,0-.24,0-.37v-22a3.62,3.62,0,0,1,0-.47c0-.14.12-.21.32-.22l.49,0H50.41c.81,0,.83,0,.83.58q0,11.11,0,22.24C51.23,53.57,51.3,53.77,51.06,53.91Z"/></svg>