<svg xmlns="http://www.w3.org/2000/svg" viewBox="0 0 94.86 85.97"><defs><style>.a{fill:#787778;stroke:#787678;stroke-miterlimit:10;stroke-width:2px;}</style></defs><title>Journey Icons</title><path class="a" d="M7,39.46c.2-1.39.36-2.79.62-4.18A38.2,38.2,0,0,1,21.46,12a37.4,37.4,0,0,1,19-8.24A37.77,37.77,0,0,1,66.54,9.41c9.38,6,15.33,14.55,17.35,25.52,2.34,12.71-.93,24-9.64,33.6a37.8,37.8,0,0,1-22,11.93c-1.24.22-2.49.35-3.73.52H43.08l-2.61-.34a38.35,38.35,0,0,1-19.95-9A38.13,38.13,0,0,1,7.63,49c-.25-1.36-.41-2.74-.61-4.1Zm3.54,2.7A35.25,35.25,0,1,0,45.81,6.93,35.31,35.31,0,0,0,10.56,42.16Z"/><path class="a" d="M59.91,36.91,47.63,27.26V61.53H44V27.24L31.72,36.9c0-1.22,0-2.31,0-3.4,0-.13.18-.29.31-.39L45.67,22.9a1.84,1.84,0,0,1,.19-.09l6.32,4.75c2.41,1.8,4.8,3.61,7.22,5.39A1.13,1.13,0,0,1,59.92,34C59.89,34.92,59.91,35.82,59.91,36.91Z"/></svg>