<svg xmlns="http://www.w3.org/2000/svg" viewBox="0 0 81.5 84.11"><defs><style>.a{fill:#66c6bc;}.b{fill:#fcfefd;}</style></defs><title>Journey Icons 2 </title><path class="a" d="M79.08,44.34c0,3.2,0,6.4,0,9.59,0,1.36-.27,2.37-1.6,2.91-.16.06-.28.22-.43.28-6.11,2-7.95,6.32-6.88,12.32.31,1.67-.47,2.64-2,3.47-5.43,3-10.8,6.17-16.13,9.36-1.3.78-2.48.94-3.56,0-4.94-4.51-9.8-4.25-14.74,0-1.07.92-2.21.88-3.55.08-5.25-3.16-10.56-6.22-15.9-9.23-1.61-.91-2.61-2-2.22-3.91,1.22-6.06-1.07-10-6.93-12-1.74-.59-2.41-1.9-2.38-3.83.11-6,.09-12.1,0-18.15,0-1.78.49-3.05,2.21-3.64,6-2.08,8.36-6.2,7.08-12.43-.35-1.71.59-2.67,2-3.48q8-4.54,15.9-9.23c1.45-.86,2.84-1,4.07.09,4.79,4.3,9.5,4.25,14.25,0,1.2-1.07,2.48-.9,3.82-.12Q60.44,11.18,68.75,16a2.44,2.44,0,0,1,1.43,2.76c-1.27,6.49,1,10.89,7.39,13.07,1.19.41,1.56,1.42,1.53,2.7C79,37.77,79.08,41.05,79.08,44.34ZM12,46.51c0-2.6,0-4.84,0-7.09,0-.92.21-1.84,1.29-1.94a1.63,1.63,0,0,1,1.83,1.75c.07,3.37.13,6.75,0,10.12-.07,1.74-1.24,2.18-2.74,1.39a40.14,40.14,0,0,1-3.81-2.21c-1.92-1.29-2.27-.7-2.43,1.43-.21,3,.62,5,3.51,6a10.88,10.88,0,0,1,2.46,1.43,2,2,0,0,0,2.81,0c5.35-5,10.62-4.35,15.86.17a3.44,3.44,0,0,0,.9.51A2.72,2.72,0,0,1,33.38,61c-.08,2.94,0,5.88,0,8.82,0,2.37-1,2.91-3.11,1.75-2.65-1.44-5.25-3-7.86-4.52-.91-.53-1.92-1.14-1.15-2.42s1.73-.87,2.7-.32c1.58.89,3.16,1.79,4.72,2.71,1.11.64,1.43.32,1.55-.92.32-3.25,0-6-3.74-7.13A9.86,9.86,0,0,1,24,57.51a2.5,2.5,0,0,0-2.87,0c-6,3.27-6,3.24-6,10a3.23,3.23,0,0,0,1.89,3.28c3.19,1.72,6.3,3.6,9.43,5.42,5.49,3.2,5.47,3.17,11-.16a3.11,3.11,0,0,0,1.76-3.09c-.11-4,0-8,0-11.93,0-1.14.1-2.41,1.69-2.4s1.64,1.3,1.66,2.43c0,2.51,0,5,0,7.53,0,6.53,0,6.5,5.56,9.69a3.18,3.18,0,0,0,3.59,0c4.38-2.6,8.82-5.12,13.22-7.69.51-.29,1.28-.65,1.37-1.09a27.79,27.79,0,0,0,.14-8c-.13-1.39-1.88-1.64-3-2.24-1.48-.82-2.9-2.6-4.55-2.13a16.63,16.63,0,0,0-6.89,4c-1.22,1.2-.32,3.32-.46,5-.1,1.34.49,1.49,1.54.86,1.56-.93,3.12-1.84,4.69-2.76,1-.58,2-.75,2.71.4s-.2,1.81-1,2.31C57.68,68,55.8,69.12,53.9,70.13c-1.48.79-2.9,2.62-4.61,1.74s-.55-3.16-.9-4.77c-1.4-6.38,1.52-10,7.25-12.39,2.36-1,4.25-1.81,6.31.11,4,3.68,7.87,3.27,11.8,0a1.82,1.82,0,0,1,.45-.26,1.77,1.77,0,0,0,1.13-1.84c0-1.7,0-3.4,0-5.53-2.22,1.25-4.06,2.31-5.93,3.34-2.14,1.18-3.22.6-3.28-1.88-.08-2.85,0-5.7,0-8.56,0-1.2.21-2.47,1.6-2.54,1.66-.09,1.77,1.38,1.83,2.59.09,1.55,0,3.11,0,4.67,0,.64-.16,1.47,1,1.28,2.55-.41,4.46-2.9,4.79-5.41.55-4.23-.68-7.16-4.91-8.53a7.63,7.63,0,0,1-1.79-1A1.61,1.61,0,0,0,67,31c-5.89,2.34-6.66,3.44-6.66,9.77,0,1,0,2.07,0,3.11,0,1.22-.47,2.13-1.74,2.09s-1.4-1-1.39-2.09c0-2.33-.1-4.67,0-7a2.64,2.64,0,0,0-1.78-3C48.93,31.65,46.76,27,48,20.49a9.38,9.38,0,0,0,0-1.3c.11-2.69,1.06-3.33,3.4-2.08,2.59,1.38,5.1,2.9,7.65,4.36,1,.57,1.72,1.37,1.15,2.52-.64,1.31-1.71.83-2.66.3-1.93-1.08-3.84-2.19-5.72-3.27-1.28,4.56-.1,7.75,4.39,9.31a10.41,10.41,0,0,1,1.81,1,1.9,1.9,0,0,0,1.94,0c6.26-2.79,6.59-3.36,6.57-10.17a3.26,3.26,0,0,0-2-3.26c-3-1.63-6-3.41-9-5.17-6-3.54-5.94-3.51-11.87.09a2.68,2.68,0,0,0-1.53,2.66c.07,3.89,0,7.78,0,11.67,0,1.24.34,2.92-1.65,2.87-1.74,0-1.5-1.57-1.51-2.76,0-2.51,0-5,0-7.52,0-6.53,0-6.5-5.85-9.49a2.91,2.91,0,0,0-3.13,0c-4.46,2.64-9,5.19-13.45,7.79-.58.34-1.44.56-1.46,1.34a41,41,0,0,0,.07,7.76c.28,1.65,2.44,2,3.82,2.78,1.16.65,2.3,2.18,3.65,1.6a25.29,25.29,0,0,0,6.63-3.94c1.18-1,.29-3.15.43-4.76s-.63-1.68-1.81-.95c-1.47.9-3,1.76-4.46,2.64-.85.49-1.69.56-2.3-.31a1.56,1.56,0,0,1,.64-2.41c2.82-1.68,5.64-3.37,8.55-4.89,1.77-.92,2.83-.23,2.9,1.77.09,2.25-.17,4.52.07,6.74.32,2.95-.53,5.05-3.42,6.06-5,1.74-6.72,5.18-5.95,10.33.2,1.37,1.19,4.15-1.46,4.09-2.41,0-1.53-2.68-1.54-4.25-.08-7.1,0-7.09-6.2-10.35A2.1,2.1,0,0,0,12.65,31c-6.21,2.82-6.44,3.13-6.41,10,0,.34,0,.69,0,1a1.88,1.88,0,0,0,.92,2A23.46,23.46,0,0,0,12,46.51Z"/><path class="b" d="M12,46.51a23.46,23.46,0,0,1-4.86-2.46,1.88,1.88,0,0,1-.92-2c0-.34,0-.69,0-1,0-6.87.2-7.18,6.41-10a2.1,2.1,0,0,1,2.13.23c6.16,3.26,6.12,3.25,6.2,10.35,0,1.57-.87,4.2,1.54,4.25,2.65.06,1.66-2.72,1.46-4.09-.77-5.15,1-8.59,5.95-10.33,2.89-1,3.74-3.11,3.42-6.06-.24-2.22,0-4.49-.07-6.74-.07-2-1.13-2.69-2.9-1.77-2.91,1.52-5.73,3.21-8.55,4.89a1.56,1.56,0,0,0-.64,2.41c.61.87,1.45.8,2.3.31,1.49-.88,3-1.74,4.46-2.64,1.18-.73,1.95-.78,1.81.95s.75,3.72-.43,4.76A25.29,25.29,0,0,1,22.7,31.5c-1.35.58-2.49-.95-3.65-1.6-1.38-.78-3.54-1.13-3.82-2.78a41,41,0,0,1-.07-7.76c0-.78.88-1,1.46-1.34,4.48-2.6,9-5.15,13.45-7.79a2.91,2.91,0,0,1,3.13,0c5.84,3,5.85,3,5.85,9.49,0,2.5,0,5,0,7.52,0,1.19-.23,2.72,1.51,2.76,2,.05,1.64-1.63,1.65-2.87,0-3.89.06-7.78,0-11.67a2.68,2.68,0,0,1,1.53-2.66c5.93-3.6,5.9-3.63,11.87-.09,3,1.76,5.94,3.54,9,5.17a3.26,3.26,0,0,1,2,3.26c0,6.81-.31,7.38-6.57,10.17a1.9,1.9,0,0,1-1.94,0,10.41,10.41,0,0,0-1.81-1c-4.49-1.56-5.67-4.75-4.39-9.31,1.88,1.08,3.79,2.19,5.72,3.27,1,.53,2,1,2.66-.3.57-1.15-.15-1.95-1.15-2.52-2.55-1.46-5.06-3-7.65-4.36-2.34-1.25-3.29-.61-3.4,2.08a9.38,9.38,0,0,1,0,1.3c-1.24,6.55.93,11.16,7.47,13.4a2.64,2.64,0,0,1,1.78,3c-.14,2.33,0,4.67,0,7,0,1,.19,2,1.39,2.09s1.76-.87,1.74-2.09c0-1,0-2.07,0-3.11,0-6.33.77-7.43,6.66-9.77a1.61,1.61,0,0,1,1.68,0,7.63,7.63,0,0,0,1.79,1c4.23,1.37,5.46,4.3,4.91,8.53-.33,2.51-2.24,5-4.79,5.41-1.19.19-1-.64-1-1.28,0-1.56,0-3.12,0-4.67-.06-1.21-.17-2.68-1.83-2.59-1.39.07-1.6,1.34-1.6,2.54,0,2.86-.06,5.71,0,8.56.06,2.48,1.14,3.06,3.28,1.88,1.87-1,3.71-2.09,5.93-3.34,0,2.13,0,3.83,0,5.53a1.77,1.77,0,0,1-1.13,1.84,1.82,1.82,0,0,0-.45.26c-3.93,3.31-7.84,3.72-11.8,0-2.06-1.92-4-1.09-6.31-.11-5.73,2.38-8.65,6-7.25,12.39.35,1.61-1,3.82.9,4.77s3.13-1,4.61-1.74c1.9-1,3.78-2.09,5.62-3.22.8-.5,1.67-1.19,1-2.31s-1.71-1-2.71-.4c-1.57.92-3.13,1.83-4.69,2.76-1,.63-1.64.48-1.54-.86.14-1.7-.76-3.82.46-5a16.63,16.63,0,0,1,6.89-4c1.65-.47,3.07,1.31,4.55,2.13,1.08.6,2.83.85,3,2.24a27.79,27.79,0,0,1-.14,8c-.09.44-.86.8-1.37,1.09-4.4,2.57-8.84,5.09-13.22,7.69a3.18,3.18,0,0,1-3.59,0c-5.54-3.19-5.56-3.16-5.56-9.69,0-2.51,0-5,0-7.53,0-1.13-.08-2.41-1.66-2.43S39.21,59.86,39.2,61c0,4-.09,8,0,11.93A3.11,3.11,0,0,1,37.46,76c-5.51,3.33-5.49,3.36-11,.16-3.13-1.82-6.24-3.7-9.43-5.42a3.23,3.23,0,0,1-1.89-3.28c0-6.72,0-6.69,6-10a2.5,2.5,0,0,1,2.87,0,9.86,9.86,0,0,0,2.46,1.43c3.74,1.11,4.06,3.88,3.74,7.13-.12,1.24-.44,1.56-1.55.92-1.56-.92-3.14-1.82-4.72-2.71-1-.55-2-.88-2.7.32s.24,1.89,1.15,2.42c2.61,1.53,5.21,3.08,7.86,4.52,2.15,1.16,3.07.62,3.11-1.75,0-2.94-.05-5.88,0-8.82a2.72,2.72,0,0,0-1.68-2.89,3.44,3.44,0,0,1-.9-.51c-5.24-4.52-10.51-5.22-15.86-.17a2,2,0,0,1-2.81,0A10.88,10.88,0,0,0,9.67,56c-2.89-1-3.72-3-3.51-6,.16-2.13.51-2.72,2.43-1.43a40.14,40.14,0,0,0,3.81,2.21c1.5.79,2.67.35,2.74-1.39.13-3.37.07-6.75,0-10.12a1.63,1.63,0,0,0-1.83-1.75c-1.08.1-1.28,1-1.29,1.94C12,41.67,12,43.91,12,46.51Zm36.37-5.22c0,3.21,0,5.37,0,7.52,0,1.15.21,2.24,1.52,2.27s1.62-1.06,1.62-2.21c0-3.11,0-6.22,0-9.33,0-2.14-.87-2.62-2.79-1.56-2.19,1.2-4.33,2.5-6.45,3.84a1.86,1.86,0,0,1-2.32,0c-2.28-1.4-4.61-2.72-7-4-1.66-.89-2.71-.38-2.74,1.58,0,3.11,0,6.22,0,9.33,0,1.13.21,2.27,1.5,2.32,1.5.06,1.6-1.18,1.64-2.39.09-2.17-.34-4.38.42-7.11C38.56,46.61,43.29,46.23,48.39,41.29Z"/><path class="a" d="M48.39,41.29c-5.1,4.94-9.83,5.32-14.6.27-.76,2.73-.33,4.94-.42,7.11,0,1.21-.14,2.45-1.64,2.39-1.29-.05-1.51-1.19-1.5-2.32,0-3.11,0-6.22,0-9.33,0-2,1.08-2.47,2.74-1.58,2.35,1.28,4.68,2.6,7,4a1.86,1.86,0,0,0,2.32,0c2.12-1.34,4.26-2.64,6.45-3.84,1.92-1.06,2.75-.58,2.79,1.56.06,3.11,0,6.22,0,9.33,0,1.15-.32,2.23-1.62,2.21S48.37,50,48.38,48.81C48.42,46.66,48.39,44.5,48.39,41.29Z"/></svg>