<svg xmlns="http://www.w3.org/2000/svg" viewBox="0 0 75.52 69.95"><defs><style>.a{fill:#fff;}</style></defs><title>Journey Icons 2 </title><path d="M2.9,36.37Q9,23,15.13,9.76c.36-.77.53-1.31-.19-2.07a2.94,2.94,0,0,1,.59-4.4,3,3,0,0,1,4.39,1.08c.36.73.74.82,1.48.75,7.21-.71,14.43-1.36,21.65-2,2.23-.2,4.45-.38,6.66-.65a1.44,1.44,0,0,1,1.57.68c5.46,7.76,11,15.49,16.42,23.24a1.48,1.48,0,0,0,1.83.76,3,3,0,1,1,.49,6c-.94-.06-1.24.32-1.56,1-4,8.66-7.95,17.31-11.9,26a1.33,1.33,0,0,1-1.3.91c-9.44.85-18.88,1.74-28.33,2.61a1.17,1.17,0,0,0-1.24,1,3,3,0,1,1-5.51-2.28c.44-.75.14-1.15-.23-1.68Zm22.31-6.79a5.93,5.93,0,0,0,.37-1.32,6.41,6.41,0,0,0-.24-1.41C24.78,24,24.21,21.13,23.59,18c-1.9,1.75-3.65,3.29-5.31,4.93a2.66,2.66,0,0,0-.71,1.63c-.07,2.46,0,4.92,0,7.39a2,2,0,0,0,2.67,1.91c-.92,1,.5,2,.14,3.09,0,.14.72.55,1.1.83-.48,0-1.12-.24-1.43,0-1.86,1.38-1.84,1.43-1.42,3.79A15.44,15.44,0,0,0,19.11,44a3.06,3.06,0,0,0,1.08,1.51c2.88,1.7,5.8,3.31,8.71,4.94.29.16.6.28,1,.46a4.24,4.24,0,0,0,0-.63c-.59-3.08-1.18-6.17-1.81-9.24a5.43,5.43,0,0,0-.7-1.32c.12-.19.36-.4.33-.56-.56-3-1.15-6.09-1.78-9.12C25.89,29.86,25.46,29.74,25.21,29.58Zm21.3,16.85c.39-.11.89-.11,1.14-.36.81-.8,1.68-1.74,2.83-1.2,1.71.82,2.69,0,3.72-1.12a10.51,10.51,0,0,0,1.14-1A3.7,3.7,0,0,0,56.12,41c.14-3.34.17-6.69.23-10a5.29,5.29,0,0,0-.14-.92c-2.64,2.25-5.15,4.39-7.63,6.56-.25.22-.3.69-.42,1a2.34,2.34,0,0,0-.31-.27c-2.65,2.19-5.29,4.39-8,6.65l.77.52a1.91,1.91,0,0,0-2,.58c-1.29,1.18-2.64,2.28-4,3.42L31,51.57c2.31.81,4.38,1.6,6.5,2.24a2.69,2.69,0,0,0,1.85-.19c2.28-1.23,4.5-2.56,6.73-3.85A2,2,0,0,0,46.51,46.43ZM41,15.94a19.55,19.55,0,0,0-.45-2.28,1.57,1.57,0,0,0-.75-1,24.66,24.66,0,0,0-3.54-1,2.9,2.9,0,0,0-1.77.21c-3,1.55-5.86,3.19-8.78,4.81-.32.17-.61.39-1.14.73,3.09,1.11,5.94,2.1,8.75,3.17a2.22,2.22,0,0,0,2.5-.23l-.66.86,21.07,7.55c-.58-2.58-1.06-4.87-1.66-7.13a2.7,2.7,0,0,0-1.06-1.43c-2.06-1.36-4.17-2.66-6.29-3.92-.45-.27-1.17-.57-1.53-.39-.68.34-1.76.64-1.28,1.9C44.16,16.93,42.44,16,41,15.94Zm6.77,19.43.4.73,7.9-6.77-10-3.59.28,1.15c-.43-.51-.76-1.28-1.3-1.49-3.21-1.24-6.46-2.38-9.72-3.49C35,21.78,34.47,22,34,22c-.31-.31-.57-.78-.95-.93-2.6-1-5.22-1.89-7.84-2.82A9.78,9.78,0,0,0,24.2,18l2,10.25,1-.41A1.84,1.84,0,0,0,26.5,30c.65,3,1.18,6.06,1.8,9.07A6.24,6.24,0,0,0,29,40.52a2.9,2.9,0,0,0-.24,1.09c.23,1.44.55,2.88.83,4.32.33,1.65.66,3.3,1,5.2,2.72-2.33,5.25-4.49,7.75-6.68.14-.13,0-.6,0-.91.65.51,1.09.05,1.55-.34,2.38-2,4.78-4,7.11-6.14C47.46,36.68,47.56,35.94,47.81,35.37Zm-44.09.91,14.85,8.37c-.28-1.55-.53-2.79-.72-4-.11-.78-.35-1.21-1.27-1.36a2.72,2.72,0,0,1-2.32-2.55,2.54,2.54,0,0,1,1.41-2.9C17,33.3,17.05,32.44,17,31.33S17,29.1,17,28V24.47l-.3-.12Zm52,23.95c.13-5.85.25-11.42.38-17.35-1.15,1-2,1.72-2.84,2.53A1.45,1.45,0,0,0,53,46.58a3.17,3.17,0,0,1-1,3.74c-1.18.84-2.47.72-3.86-.23A1.39,1.39,0,0,0,46.85,50c-2,1.06-3.87,2.2-5.8,3.32-.53.31-1,.64-1.8,1.1ZM4.55,37.51c.22.42.31.63.43.81l15.54,22.1a1.56,1.56,0,0,0,.28.38c.14.11.43.26.48.21a.94.94,0,0,0,.28-.56,2.17,2.17,0,0,0-.09-.71c-.84-4.42-1.7-8.84-2.5-13.26a2.14,2.14,0,0,0-1.19-1.63c-4-2.24-8.06-4.53-12.08-6.79C5.4,37.89,5.09,37.76,4.55,37.51Zm49.27,23,.06-.25a3.46,3.46,0,0,0-.5-.27c-4.73-1.66-9.45-3.34-14.19-4.94a2.11,2.11,0,0,0-1.53.28c-3.74,2.11-7.46,4.27-11.17,6.44-.33.2-.53.65-.79,1a5,5,0,0,0,1.28.27q8.73-.78,17.47-1.62ZM36.32,10.86c.29.22.35.28.42.3.95.29,1.92.52,2.86.86a1.4,1.4,0,0,0,1.84-.47,2.84,2.84,0,0,1,3.37-.76,2.68,2.68,0,0,1,1.79,2.93C46.29,15,47,15.47,47.87,16s1.83,1.13,2.74,1.69l3.64,2.25L50.39,3.1ZM4.44,34.44l.17.12a3.52,3.52,0,0,0,.45-.3c3.78-3.47,7.57-6.93,11.31-10.44A2.39,2.39,0,0,0,17,22.26c.05-3.38,0-6.77,0-10.15,0-.87,0-1.75,0-2.62,0-.23-.22-.45-.34-.68a3.42,3.42,0,0,0-.62.43,1.87,1.87,0,0,0-.26.53L4.94,33.29C4.77,33.67,4.61,34.06,4.44,34.44Zm52,24.26c.24-.38.35-.52.43-.68q5.63-12.26,11.24-24.5a2.74,2.74,0,0,0,.07-1,2.8,2.8,0,0,0-.9.37c-3.35,2.94-6.69,5.89-10,8.89a2.25,2.25,0,0,0-.61,1.43c-.14,4.81-.23,9.62-.33,14.44C56.34,57.94,56.38,58.2,56.43,58.7ZM51.49,4.43a5.77,5.77,0,0,0-.05.7c1.11,4.85,2.21,9.7,3.36,14.53a2.12,2.12,0,0,0,.9,1.15c3.67,2.33,7.36,4.61,11,6.9a6.88,6.88,0,0,0,1,.41l.31-.34Zm-3-1-.09-.32L20.34,5.79l0,.43a4.83,4.83,0,0,0,.79.39c4.5,1.32,9,2.65,13.52,3.92a2.21,2.21,0,0,0,1.44-.22c2.25-1.19,4.48-2.44,6.71-3.67Zm-29,42.36c.05.51.06.7.09.89.82,4.38,1.64,8.76,2.5,13.13a1.2,1.2,0,0,0,.74.82c.62.08,1.31.58,1.86-.37,1.26-2.17,2.66-4.25,4-6.37.44-.69.86-1.4,1.33-2.17ZM34.23,11.34,34.17,11C29.9,9.77,25.62,8.54,21.35,7.27a1.4,1.4,0,0,0-1.82.46c-.59.73-.2,1.14.09,1.67.91,1.64,1.83,3.27,2.74,4.9L23.91,17ZM56.88,41.26c.31-.24.6-.43.85-.66,3-2.61,5.9-5.24,8.86-7.85.56-.5.92-.87.57-1.79s-.9-.84-1.56-.88l-2-.14-6.69-.39ZM17.65,22.68C19.46,21,21.07,19.5,22.73,18A1,1,0,0,0,23,16.52c-1.32-2.26-2.56-4.58-3.88-6.84a4.41,4.41,0,0,0-1-.93A4,4,0,0,0,17.57,10c0,3.78,0,7.56,0,11.33C17.55,21.7,17.6,22.05,17.65,22.68ZM37.74,54.55c-2.23-.79-4.26-1.47-6.25-2.22a1,1,0,0,0-1.44.5c-1.57,2.53-3.19,5-4.76,7.56A4.34,4.34,0,0,0,25,61.55a4.64,4.64,0,0,0,1.26-.29c3.45-2,6.89-4,10.32-6C36.87,55.11,37.19,54.89,37.74,54.55ZM55.46,21.37l-.24.19c.47,2.08,1,4.15,1.41,6.24.16.84.48,1.21,1.37,1.25,2.74.13,5.47.36,8.21.5.28,0,.58-.24.87-.37-.17-.3-.27-.72-.52-.88-2.11-1.36-4.24-2.66-6.37-4Z"/><path class="a" d="M34,22c.43,0,.91-.24,1.28-.11C38.58,23,41.83,24.16,45,25.4c.54.21.87,1,1.3,1.49.07.5.12,1,.21,1.51.41,2.32.83,4.65,1.26,7-.25.57-.35,1.31-.78,1.69-2.33,2.1-4.73,4.1-7.11,6.14-.46.39-.9.85-1.55.34l-9.34-3a6.24,6.24,0,0,1-.73-1.43c-.62-3-1.15-6.06-1.8-9.07a1.84,1.84,0,0,1,.67-2.16Z"/><path class="a" d="M41,15.94c1.4.05,3.12,1,3.41,1.86-.48-1.26.6-1.56,1.28-1.9.36-.18,1.08.12,1.53.39,2.12,1.26,4.23,2.56,6.29,3.92a2.7,2.7,0,0,1,1.06,1.43c.6,2.26,1.08,4.55,1.66,7.13L35.2,21.22l.66-.86Z"/><path class="a" d="M40.62,44.49,39.85,44c2.71-2.26,5.35-4.46,8-6.65a2.34,2.34,0,0,1,.31.27c.12-.32.17-.79.42-1,2.48-2.17,5-4.31,7.63-6.56a5.29,5.29,0,0,1,.14.92c-.06,3.34-.09,6.69-.23,10a3.7,3.7,0,0,1-.78,1.73,10.51,10.51,0,0,1-1.14,1c-1,1.09-2,1.94-3.72,1.12-1.15-.54-2,.4-2.83,1.2-.25.25-.75.25-1.14.36Z"/><path class="a" d="M3.72,36.28l13-11.93.3.12V28c0,1.12,0,2.24,0,3.35s0,2-1.33,2.48a2.54,2.54,0,0,0-1.41,2.9,2.72,2.72,0,0,0,2.32,2.55c.92.15,1.16.58,1.27,1.36.19,1.24.44,2.48.72,4Z"/><path class="a" d="M55.7,60.23,39.25,54.46c.76-.46,1.27-.79,1.8-1.1C43,52.24,44.9,51.1,46.85,50a1.39,1.39,0,0,1,1.21.05c1.39.95,2.68,1.07,3.86.23a3.17,3.17,0,0,0,1-3.74,1.45,1.45,0,0,1,.29-1.17c.79-.81,1.69-1.52,2.84-2.53C56,48.81,55.83,54.38,55.7,60.23Z"/><path class="a" d="M4.55,37.51c.54.25.85.38,1.15.55,4,2.26,8,4.55,12.08,6.79A2.14,2.14,0,0,1,19,46.48c.8,4.42,1.66,8.84,2.5,13.26a2.17,2.17,0,0,1,.09.71.94.94,0,0,1-.28.56c-.05.05-.34-.1-.48-.21a1.56,1.56,0,0,1-.28-.38L5,38.32C4.86,38.14,4.77,37.93,4.55,37.51Z"/><path class="a" d="M53.82,60.54l-9.37.89q-8.75.82-17.47,1.62a5,5,0,0,1-1.28-.27c.26-.33.46-.78.79-1,3.71-2.17,7.43-4.33,11.17-6.44a2.11,2.11,0,0,1,1.53-.28c4.74,1.6,9.46,3.28,14.19,4.94a3.46,3.46,0,0,1,.5.27Z"/><path class="a" d="M36.32,10.86,50.39,3.1l3.86,16.82-3.64-2.25c-.91-.56-1.81-1.16-2.74-1.69S46.29,15,46.6,13.72a2.68,2.68,0,0,0-1.79-2.93,2.84,2.84,0,0,0-3.37.76A1.4,1.4,0,0,1,39.6,12c-.94-.34-1.91-.57-2.86-.86C36.67,11.14,36.61,11.08,36.32,10.86Z"/><path class="a" d="M4.44,34.44c.17-.38.33-.77.5-1.15L15.75,9.77A1.87,1.87,0,0,1,16,9.24a3.42,3.42,0,0,1,.62-.43c.12.23.33.45.34.68,0,.87,0,1.75,0,2.62,0,3.38,0,6.77,0,10.15a2.39,2.39,0,0,1-.59,1.56c-3.74,3.51-7.53,7-11.31,10.44a3.52,3.52,0,0,1-.45.3Z"/><path class="a" d="M56.43,58.7c0-.5-.09-.76-.09-1,.1-4.82.19-9.63.33-14.44a2.25,2.25,0,0,1,.61-1.43c3.3-3,6.64-6,10-8.89a2.8,2.8,0,0,1,.9-.37,2.74,2.74,0,0,1-.07,1Q62.51,45.77,56.86,58C56.78,58.18,56.67,58.32,56.43,58.7Z"/><path class="a" d="M51.49,4.43,68,27.78l-.31.34a6.88,6.88,0,0,1-1-.41c-3.68-2.29-7.37-4.57-11-6.9a2.12,2.12,0,0,1-.9-1.15C53.65,14.83,52.55,10,51.44,5.13A5.77,5.77,0,0,1,51.49,4.43Z"/><path class="a" d="M48.5,3.47,42.78,6.64c-2.23,1.23-4.46,2.48-6.71,3.67a2.21,2.21,0,0,1-1.44.22c-4.52-1.27-9-2.6-13.52-3.92a4.83,4.83,0,0,1-.79-.39l0-.43L48.41,3.15Z"/><path class="a" d="M27.38,39.74a5.43,5.43,0,0,1,.7,1.32c.63,3.07,1.22,6.16,1.81,9.24a4.24,4.24,0,0,1,0,.63c-.39-.18-.7-.3-1-.46-2.91-1.63-5.83-3.24-8.71-4.94A3.06,3.06,0,0,1,19.11,44a15.44,15.44,0,0,1-.51-2.45c-.42-2.36-.44-2.41,1.42-3.79.31-.23.95,0,1.43,0Z"/><path class="a" d="M40.62,44.49l5.89,1.94a2,2,0,0,1-.4,3.34c-2.23,1.29-4.45,2.62-6.73,3.85a2.69,2.69,0,0,1-1.85.19c-2.12-.64-4.19-1.43-6.5-2.24l3.59-3.08c1.33-1.14,2.68-2.24,4-3.42A1.91,1.91,0,0,1,40.62,44.49Z"/><path class="a" d="M20.21,33.87A2,2,0,0,1,17.54,32c0-2.47,0-4.93,0-7.39a2.66,2.66,0,0,1,.71-1.63c1.66-1.64,3.41-3.18,5.31-4.93.62,3.12,1.19,6,1.75,8.84a6.41,6.41,0,0,1,.24,1.41,5.93,5.93,0,0,1-.37,1.32Z"/><path class="a" d="M41,15.94l-5.18,4.42a2.22,2.22,0,0,1-2.5.23c-2.81-1.07-5.66-2.06-8.75-3.17.53-.34.82-.56,1.14-.73,2.92-1.62,5.83-3.26,8.78-4.81a2.9,2.9,0,0,1,1.77-.21,24.66,24.66,0,0,1,3.54,1,1.57,1.57,0,0,1,.75,1A19.55,19.55,0,0,1,41,15.94Z"/><path class="a" d="M19.49,45.83,30,51.76c-.47.77-.89,1.48-1.33,2.17-1.34,2.12-2.74,4.2-4,6.37-.55,1-1.24.45-1.86.37a1.2,1.2,0,0,1-.74-.82c-.86-4.37-1.68-8.75-2.5-13.13C19.55,46.53,19.54,46.34,19.49,45.83Z"/><path class="a" d="M34.23,11.34,23.91,17,22.36,14.3c-.91-1.63-1.83-3.26-2.74-4.9-.29-.53-.68-.94-.09-1.67a1.4,1.4,0,0,1,1.82-.46C25.62,8.54,29.9,9.77,34.17,11Z"/><path class="a" d="M56.88,41.26V29.55l6.69.39,2,.14c.66,0,1.22,0,1.56.88s0,1.29-.57,1.79c-3,2.61-5.9,5.24-8.86,7.85C57.48,40.83,57.19,41,56.88,41.26Z"/><path class="a" d="M29,40.52l9.34,3c0,.31.17.78,0,.91-2.5,2.19-5,4.35-7.75,6.68-.37-1.9-.7-3.55-1-5.2-.28-1.44-.6-2.88-.83-4.32A2.9,2.9,0,0,1,29,40.52Z"/><path class="a" d="M34,22l-6.87,5.84-1,.41L24.2,18a9.78,9.78,0,0,1,1.05.25c2.62.93,5.24,1.84,7.84,2.82C33.47,21.24,33.73,21.71,34,22Z"/><path class="a" d="M47.81,35.37c-.43-2.32-.85-4.65-1.26-7-.09-.5-.14-1-.21-1.51l-.28-1.15,10,3.59-7.9,6.77Z"/><path class="a" d="M20.21,33.87l5-4.29c.25.16.68.28.72.48.63,3,1.22,6.08,1.78,9.12,0,.16-.21.37-.33.56l-5.93-2c-.38-.28-1.14-.69-1.1-.83C20.71,35.88,19.29,34.91,20.21,33.87Z"/><path class="a" d="M17.65,22.68c0-.63-.1-1-.1-1.32,0-3.77,0-7.55,0-11.33a4,4,0,0,1,.49-1.28,4.41,4.41,0,0,1,1,.93c1.32,2.26,2.56,4.58,3.88,6.84A1,1,0,0,1,22.73,18C21.07,19.5,19.46,21,17.65,22.68Z"/><path class="a" d="M37.74,54.55c-.55.34-.87.56-1.21.75-3.43,2-6.87,4-10.32,6a4.64,4.64,0,0,1-1.26.29,4.34,4.34,0,0,1,.34-1.16c1.57-2.53,3.19-5,4.76-7.56a1,1,0,0,1,1.44-.5C33.48,53.08,35.51,53.76,37.74,54.55Z"/><path class="a" d="M55.46,21.37l4.73,2.95c2.13,1.32,4.26,2.62,6.37,4,.25.16.35.58.52.88-.29.13-.59.39-.87.37-2.74-.14-5.47-.37-8.21-.5-.89,0-1.21-.41-1.37-1.25-.42-2.09-.94-4.16-1.41-6.24Z"/></svg>