<svg xmlns="http://www.w3.org/2000/svg" viewBox="0 0 79.97 41.39"><defs><style>.a{fill:#7cc9c2;}</style></defs><title>Journey Icons 2 </title><path class="a" d="M49.71,31.46c-2.86-2.27-5.46-4.23-7.93-6.34-1.07-.91-1.71-.64-2.64.14-2.41,2-4.91,3.9-7.73,6.12,2.08.62,3.79,1.43,3.24,3.65s-2.34,2.24-4.1,2.21c-4.85-.08-9.76.27-14.53-.39C6.73,35.58,1,28.37,1.56,19.37,2,11.13,9.27,4.56,18.32,4.27c4.06-.13,8.13,0,12.2,0,1.72,0,3.6-.06,4.14,2.1.59,2.31-1.21,3.05-2.95,3.61.15.32.17.48.26.55,8.49,7.65,8.81,7.65,17.54-.51-1.87-.51-3.61-1.23-3.12-3.51s2.3-2.25,4-2.23c4.85.06,9.76-.27,14.53.37,9.2,1.23,15,8.34,14.58,17S72.05,36.87,62.81,37.22c-4.06.15-8.13,0-12.2,0-1.73,0-3.61,0-4.19-2.05C45.79,32.87,47.48,32,49.71,31.46ZM63,31.81c5.44,0,10.15-3.76,11-8.77,1-5.83-1.78-10.74-7.32-12.71-4.52-1.61-8.45-.37-12,2.58L45.4,20.66c2.52,3.39,6.27,5.34,9.37,8A11.49,11.49,0,0,0,63,31.81ZM18.21,9.69A11.07,11.07,0,0,0,7.06,20.47,11.35,11.35,0,0,0,15.77,31.6c4.22,1,18.85-5.94,19.42-10.31.44-3.38-4.68-4.44-7-6.89a19,19,0,0,0-1.81-1.5C24,11,21.43,9.49,18.21,9.69Z"/></svg>