<svg xmlns="http://www.w3.org/2000/svg" viewBox="0 0 87.54 89.65"><defs><style>.a{fill:#077bae;}.b{fill:#fefefe;}</style></defs><title>Journey Icons 2 </title><path class="a" d="M43.83,87.48c-1,.3-1.75-.27-2.49-1q-4.83-4.93-9.73-9.82c-2.08-2.09-4.2-4.13-6.27-6.22a2.6,2.6,0,0,1,.11-3.83c.86-.91,1.77-1.77,2.65-2.66,1.52-1.53,3-3.08,4.56-4.6.29-.29.33-.52.06-.81l-.17-.17c-1.47-1.53-1.55-1.48-3.13.18-1.93,2-3.92,4-5.92,5.9a2.6,2.6,0,0,1-3.23,0c-2.92-2.63-5.61-5.5-8.39-8.28s-5.59-5.54-8.4-8.29C2,46.44,2.1,44.68,3.62,43.18c4.05-4,8.06-8,12.11-12,1.63-1.6,3-3.43,5-4.7a1.94,1.94,0,0,1,2.27,0c1.88,1.11,3.06,2.95,4.68,4.32.48.41.9.9,1.36,1.34,1.26,1.23,1.26,1.22,2.51.06s1.17-1.08,0-2.23c-1.79-1.71-3.56-3.44-5.29-5.2a2.77,2.77,0,0,1,.05-4.21Q34.33,12.45,42.49,4.4c1.44-1.42,3.45-1.22,4.92.31C49.5,6.88,51.62,9,53.74,11.19c2.46,2.49,5,4.87,7.38,7.46.89,1,2.12,1.63,2.7,2.92a2.57,2.57,0,0,1-.59,3.23L57,30.93c-.32.32-.76.65-.49,1.21A4.74,4.74,0,0,0,58,33.64c.05,0,.4-.19.56-.34,1.73-1.72,3.49-3.43,5.18-5.2A8.83,8.83,0,0,1,66,26.33a2,2,0,0,1,2.11.15,34.21,34.21,0,0,1,4.63,4.37C76,34,79.13,37.26,82.35,40.47c1.06,1.05,2.19,2.05,3.17,3.17a2.85,2.85,0,0,1-.21,4.16c-4,4-8,8-12,12-1.6,1.57-3.06,3.28-4.81,4.69a2.68,2.68,0,0,1-3.24-.06c-2.46-2.36-4.91-4.74-7.31-7.17-.52-.54-.72-.48-1.19,0C55,59.13,55,59.17,56.91,61s3.86,3.81,5.75,5.75c1.45,1.49.68,3.14-.39,4.16-2.91,2.79-5.7,5.71-8.56,8.55-2.47,2.44-5,4.84-7.34,7.39A2.78,2.78,0,0,1,43.83,87.48ZM30.47,46.56a31.6,31.6,0,0,1-.41-4.08,11,11,0,0,0-.4-2.85c-.08-.39-.11-.6-.66-.48a7,7,0,0,1-5.67-1.07,1.92,1.92,0,0,0-2.23,0,8.4,8.4,0,0,1-5.37,1.15c-.85-.09-1.14.21-1.18.9-.15,2.56-.35,5.12-.35,7.68A3.08,3.08,0,0,0,16,50.7c1.56.75,3.09,1.56,4.64,2.31a3,3,0,0,0,3,.11C24.75,52.48,26,52,27.2,51.36,29,50.44,30.56,49.35,30.47,46.56Zm24.81-10c-.16-.62-.79-.8-1.09-1.26-.46-.7-1-.71-1.54-.11-2,2-4,4-6,6.07a3,3,0,0,1-3.64.2l-1.74-1.75C39.53,38,37.79,36.2,36,34.48c-.19-.18-.42-.74-.81-.45-.75.57-1.66,1.16-1.91,2-.16.53.67,1.16,1.2,1.67,2,1.9,4,3.82,5.88,5.82a2.86,2.86,0,0,1-.09,4.22c-1.85,1.7-3.55,3.55-5.33,5.32-1.28,1.28-1.27,1.25-.06,2.5a1,1,0,0,0,1.79-.07c.56-.66,1.08-1.34,1.69-1.94,1.13-1.08,2.36-2.06,3.44-3.18,1.59-1.64,3.06-1.64,4.63,0s3.29,3.18,4.83,4.87c.84.93,1.44.89,2.15,0,.14-.19.38-.3.54-.47a1,1,0,0,0,0-1.62c-1.84-1.76-3.57-3.64-5.45-5.35a2.93,2.93,0,0,1,0-4.32c2-2,4.06-4,6.08-6A9.77,9.77,0,0,0,55.28,36.57ZM52.34,63.35a2.08,2.08,0,0,0-2.21-1.46,1,1,0,0,1-1-.15,4.4,4.4,0,0,0-2.09-1c-.31,0-.59-.29-.55-.56.21-1.5-1.1-1.11-1.8-1.45a.61.61,0,0,0-.94.55c-.07.81-.62.92-1.25,1a8.52,8.52,0,0,0-1.25.34c-.91.21-1.8,1.23-2.82.22-.15-.14-.4,0-.56.11a6.48,6.48,0,0,0-1.3,1.2c-.22.33.25.71.46,1s0,.59-.15.83a6.89,6.89,0,0,0-.84,2,1,1,0,0,1-1,.89c-.4,0-.74,0-.72.56s-.39,1.81.18,1.88c1.32.17,1.1,1.22,1.43,1.89s.82,1.68,0,2.65c-.26.3.5.94.84,1.41s.66.54.9.26c.58-.7,1.12-.32,1.45.09.81,1,3,.58,2.85,2.61,0,0,.13.11.19.12a17.61,17.61,0,0,0,1.92,0c.53,0,.32-.56.4-.87s.33-.28.56-.32a6.45,6.45,0,0,0,3.19-1.17c.43-.35.8-.32,1.06.21.17.34.42.56.75.29a12.11,12.11,0,0,0,1.34-1.34c.4-.47-.24-.67-.35-1a.9.9,0,0,1,0-.81A8,8,0,0,0,52.19,71a1,1,0,0,1,.94-.69c1.07-.06.72-1,.86-1.67s-.18-.94-.79-.89-.87-.25-.82-.83A3.35,3.35,0,0,0,52,65.6c-.23-.68-.86-1.44.21-2C52.28,63.56,52.3,63.41,52.34,63.35ZM44.61,24.22c.31.56,0,1-.16,1.43-.21.86-.51,1.48-1.69,1.53a2.79,2.79,0,0,0-2.12,4.21,2.93,2.93,0,0,0,3.58,1.06c1.31-.86,2-2.53,1.13-3.65A2.86,2.86,0,0,1,45,26.09c.62-2.17.68-2.23,2.34-.71.33.3,1,.51.57,1.32A2.43,2.43,0,0,0,49,29.87a2.47,2.47,0,0,0,3.16-.37,2.34,2.34,0,0,0,.42-3.32,2.6,2.6,0,0,0-3.13-1.07c-.77.3-2.75-.57-2.83-1.42s.94-.54,1.42-.83a5.35,5.35,0,0,1,.58-.39c.38-.18.8-.25,1.08.12.55.73,1.32.64,2.07.66,1.7,0,2.44-1.05,2.52-2.53a2.64,2.64,0,0,0-2.61-2.8A2.4,2.4,0,0,0,49,20.33,1.46,1.46,0,0,1,47.59,22c-.59.1-1.15,1-1.62.46-.35-.41-.11-1.3-.16-2s.4-.62.69-.86a2,2,0,0,0,.5-2.9,1.73,1.73,0,0,0-2.65-.58,2.18,2.18,0,0,0-.06,3.45c.6.44,1.09,2,.64,2.53-.67.71-1-.23-1.55-.45a2.69,2.69,0,0,0-.46-.14,1.77,1.77,0,0,1-1.44-2.25,3.66,3.66,0,0,0-1.33-3.61,3.6,3.6,0,0,0-4.5-.26,3.7,3.7,0,0,0-1.83,3.63A3.77,3.77,0,0,0,36,22.22a4,4,0,0,0,4.29-.53c.27-.19.45-.5.92-.24a11.93,11.93,0,0,1,3,2.1A1.73,1.73,0,0,1,42,23.48a.67.67,0,0,0-.54-.15c-.63.31-1.26.63-1.37,1.48a1.52,1.52,0,0,0,1.16,1.72,1.33,1.33,0,0,0,1.66-.82C43.21,24.73,44,24.62,44.61,24.22ZM70.7,49.3c-.37.45-.71.84-.2,1.28A22.06,22.06,0,0,1,73,52.88a.65.65,0,0,0,1,0,10.37,10.37,0,0,0,2.63-5.45A7.51,7.51,0,0,0,76.58,44a10.63,10.63,0,0,0-5.28-6.61c-3.76-2-7.38-1.15-10.25.82a9.33,9.33,0,0,0-3.71,5.45c-1,3.56,0,6.53,2.37,9.21a.55.55,0,0,0,.92.06,23.55,23.55,0,0,1,2.62-2.38c.33-.27.24-.66,0-1s-.48.09-.63.22c-2.42,2-2.42,2-3.83-.61a3,3,0,0,1-.14-.45C57,44.2,60.16,38.52,65,37.74c4-.65,7,.53,9.11,3.65a8.23,8.23,0,0,1-.26,9.79c-.33.49-.58.61-1,.13C72.2,50.57,71.29,50.14,70.7,49.3ZM63.09,44l-.1.2c1,.89,2.11,1.77,3.12,2.7.34.31.66.45,1,.24A1.31,1.31,0,0,0,68,45.75a1,1,0,0,0-.7-1C65.89,44.43,64.49,44.21,63.09,44Zm4.38-4.76c.09-.51-.15-1-.61-.94s-.59.53-.57,1,.07.82.59.84S67.51,39.66,67.47,39.2Zm4.47,3.48c.59-.12.9-.68,1.29-1.09.1-.11-.34-.55-.52-.49a2.06,2.06,0,0,0-1.38,1.09C71.24,42.45,71.59,42.63,71.94,42.68Zm-9.7-.32a14.5,14.5,0,0,0-1.5-.94c-.28-.13-.46.29-.4.43A1.8,1.8,0,0,0,61.52,43C61.93,43.09,62,42.7,62.24,42.36ZM63.81,41a.48.48,0,0,0,.45-.52A1.37,1.37,0,0,0,63.42,39c-.11,0-.61.19-.56.49C63,40.13,63.52,40.47,63.81,41Zm-3.56,4.85c.37,0,.75,0,.72-.44,0-.68-.6-.61-1.08-.65s-.76,0-.72.53C59.24,46,59.9,45.66,60.25,45.82ZM73.77,44.4c-.3.19-1,0-1.06.6a.4.4,0,0,0,.54.45c.43-.19,1.13,0,1.27-.63C74.62,44.36,74.18,44.41,73.77,44.4Zm-3.43-5c0-.3-.06-.56-.36-.54-.74.06-.62.81-.91,1.22s.13.39.32.41C70.25,40.61,70,39.72,70.34,39.42Z"/><path class="b" d="M30.47,46.56c.09,2.79-1.49,3.88-3.27,4.8-1.2.61-2.45,1.12-3.63,1.76a3,3,0,0,1-3-.11c-1.55-.75-3.08-1.56-4.64-2.31a3.08,3.08,0,0,1-1.76-2.89c0-2.56.2-5.12.35-7.68,0-.69.33-1,1.18-.9a8.4,8.4,0,0,0,5.37-1.15,1.92,1.92,0,0,1,2.23,0A7,7,0,0,0,29,39.15c.55-.12.58.09.66.48a11,11,0,0,1,.4,2.85A31.6,31.6,0,0,0,30.47,46.56Zm-6.7-2.68c.15-1-.67-1.24-1.27-1.52s-1.11.25-1.41.66a1.36,1.36,0,0,0,.07,1.86,1.72,1.72,0,0,1,.52,1.59c0,.84,0,1.68,0,2.52,0,.49-.16,1.15.69,1.08s.43-.71.48-1.12c.21-1.5-.54-3.18.83-4.49C23.8,44.36,23.75,44.08,23.77,43.88Z"/><path class="b" d="M55.28,36.57a9.77,9.77,0,0,1-.76.92c-2,2-4.06,4-6.08,6a2.93,2.93,0,0,0,0,4.32c1.88,1.71,3.61,3.59,5.45,5.35a1,1,0,0,1,0,1.62c-.16.17-.4.28-.54.47-.71.93-1.31,1-2.15,0C49.72,53.56,48,52,46.43,50.38s-3-1.64-4.63,0c-1.08,1.12-2.31,2.1-3.44,3.18-.61.6-1.13,1.28-1.69,1.94a1,1,0,0,1-1.79.07c-1.21-1.25-1.22-1.22.06-2.5,1.78-1.77,3.48-3.62,5.33-5.32a2.86,2.86,0,0,0,.09-4.22c-1.89-2-3.89-3.92-5.88-5.82-.53-.51-1.36-1.14-1.2-1.67.25-.85,1.16-1.44,1.91-2,.39-.29.62.27.81.45,1.79,1.72,3.53,3.49,5.27,5.24L43,41.47a3,3,0,0,0,3.64-.2c2-2.06,4-4.05,6-6.07.58-.6,1.08-.59,1.54.11C54.49,35.77,55.12,36,55.28,36.57Z"/><path class="b" d="M52.34,63.35c0,.06-.06.21-.15.25-1.07.56-.44,1.32-.21,2a3.35,3.35,0,0,1,.4,1.35c-.05.58.16.89.82.83s.92.29.79.89.21,1.61-.86,1.67a1,1,0,0,0-.94.69,8,8,0,0,1-1.13,2.2A.9.9,0,0,0,51,74c.11.34.75.54.35,1A12.11,12.11,0,0,1,50,76.39c-.33.27-.58,0-.75-.29-.26-.53-.63-.56-1.06-.21A6.45,6.45,0,0,1,45,77.06c-.23,0-.49,0-.56.32s.13.83-.4.87a17.61,17.61,0,0,1-1.92,0c-.06,0-.19-.09-.19-.12.13-2-2-1.57-2.85-2.61-.33-.41-.87-.79-1.45-.09-.24.28-.63.09-.9-.26s-1.1-1.11-.84-1.41c.84-1,.42-1.84,0-2.65s-.11-1.72-1.43-1.89c-.57-.07-.14-1.22-.18-1.88s.32-.55.72-.56a1,1,0,0,0,1-.89,6.89,6.89,0,0,1,.84-2c.13-.24.47-.42.15-.83s-.68-.66-.46-1a6.48,6.48,0,0,1,1.3-1.2c.16-.14.41-.25.56-.11,1,1,1.91,0,2.82-.22a8.52,8.52,0,0,1,1.25-.34c.63-.06,1.18-.17,1.25-1a.61.61,0,0,1,.94-.55c.7.34,2,0,1.8,1.45,0,.27.24.52.55.56a4.4,4.4,0,0,1,2.09,1,1,1,0,0,0,1,.15A2.08,2.08,0,0,1,52.34,63.35ZM49.81,68.5c.13-3.22-3.05-5.76-5.74-5.78-3,0-6,2.92-6,5.8.05,3,3.08,6.08,6.08,5.83C47.32,74.08,49.77,72,49.81,68.5Z"/><path class="b" d="M44.61,24.22c-.64.4-1.4.51-1.68,1.49a1.33,1.33,0,0,1-1.66.82,1.52,1.52,0,0,1-1.16-1.72c.11-.85.74-1.17,1.37-1.48a.67.67,0,0,1,.54.15,1.73,1.73,0,0,0,2.22.07,11.93,11.93,0,0,0-3-2.1c-.47-.26-.65.05-.92.24a4,4,0,0,1-4.29.53,3.77,3.77,0,0,1-2.18-3.13,3.7,3.7,0,0,1,1.83-3.63,3.6,3.6,0,0,1,4.5.26,3.66,3.66,0,0,1,1.33,3.61,1.77,1.77,0,0,0,1.44,2.25,2.69,2.69,0,0,1,.46.14c.5.22.88,1.16,1.55.45.45-.49,0-2.09-.64-2.53a2.18,2.18,0,0,1,.06-3.45,1.73,1.73,0,0,1,2.65.58,2,2,0,0,1-.5,2.9c-.29.24-.74.32-.69.86s-.19,1.56.16,2c.47.58,1-.36,1.62-.46A1.46,1.46,0,0,0,49,20.33a2.4,2.4,0,0,1,2.69-2.41,2.64,2.64,0,0,1,2.61,2.8c-.08,1.48-.82,2.57-2.52,2.53-.75,0-1.52.07-2.07-.66-.28-.37-.7-.3-1.08-.12a5.35,5.35,0,0,0-.58.39c-.48.29-1.5,0-1.42.83s2.06,1.72,2.83,1.42a2.6,2.6,0,0,1,3.13,1.07,2.34,2.34,0,0,1-.42,3.32,2.47,2.47,0,0,1-3.16.37,2.43,2.43,0,0,1-1.08-3.17c.41-.81-.24-1-.57-1.32-1.66-1.52-1.72-1.46-2.34.71a2.86,2.86,0,0,0,.34,2.71c.82,1.12.18,2.79-1.13,3.65a2.93,2.93,0,0,1-3.58-1.06,2.79,2.79,0,0,1,2.12-4.21c1.18-.05,1.48-.67,1.69-1.53C44.56,25.21,44.92,24.78,44.61,24.22ZM37.7,21.64a2.62,2.62,0,0,0,3-2.93,3,3,0,0,0-2.9-3,3,3,0,0,0-3.09,3A2.76,2.76,0,0,0,37.7,21.64Zm12.09-.93a1.71,1.71,0,0,0,1.8,1.77,1.93,1.93,0,0,0,1.89-1.88,2,2,0,0,0-1.91-1.77A1.68,1.68,0,0,0,49.79,20.71Zm-5,9.28A1.75,1.75,0,0,0,43,28.15a1.88,1.88,0,0,0-1.94,1.68,1.84,1.84,0,0,0,1.79,1.92A1.66,1.66,0,0,0,44.79,30Zm5.66-1.25c.61-.16,1.1-.48,1-1.2a1,1,0,0,0-1.14-.95,1,1,0,0,0-1,1.1C49.38,28.36,49.79,28.66,50.45,28.74Z"/><path class="b" d="M70.7,49.3c.59.84,1.5,1.27,2.15,2,.42.48.67.36,1-.13a8.23,8.23,0,0,0,.26-9.79C72.05,38.27,69,37.09,65,37.74c-4.84.78-8,6.46-6.38,11a3,3,0,0,0,.14.45c1.41,2.66,1.41,2.66,3.83.61.15-.13.28-.62.63-.22s.36.7,0,1a23.55,23.55,0,0,0-2.62,2.38.55.55,0,0,1-.92-.06c-2.33-2.68-3.33-5.65-2.37-9.21a9.33,9.33,0,0,1,3.71-5.45c2.87-2,6.49-2.86,10.25-.82A10.63,10.63,0,0,1,76.58,44a7.51,7.51,0,0,1,.13,3.46,10.37,10.37,0,0,1-2.63,5.45.65.65,0,0,1-1,0,22.06,22.06,0,0,0-2.53-2.3C70,50.14,70.33,49.75,70.7,49.3Z"/><path class="b" d="M63.09,44c1.4.25,2.8.47,4.18.77a1,1,0,0,1,.7,1,1.31,1.31,0,0,1-.81,1.35c-.39.21-.71.07-1-.24-1-.93-2.08-1.81-3.12-2.7Z"/><path class="b" d="M67.47,39.2c0,.46,0,.93-.59.92s-.57-.41-.59-.84.12-1,.57-1S67.56,38.69,67.47,39.2Z"/><path class="b" d="M71.94,42.68c-.35,0-.7-.23-.61-.49a2.06,2.06,0,0,1,1.38-1.09c.18-.06.62.38.52.49C72.84,42,72.53,42.56,71.94,42.68Z"/><path class="b" d="M62.24,42.36c-.21.34-.31.73-.72.62a1.8,1.8,0,0,1-1.18-1.13c-.06-.14.12-.56.4-.43A14.5,14.5,0,0,1,62.24,42.36Z"/><path class="b" d="M63.81,41c-.29-.5-.85-.84-1-1.44,0-.3.45-.54.56-.49a1.37,1.37,0,0,1,.84,1.41A.48.48,0,0,1,63.81,41Z"/><path class="b" d="M60.25,45.82c-.35-.16-1,.18-1.08-.56,0-.49.32-.56.72-.53s1,0,1.08.65C61,45.84,60.62,45.82,60.25,45.82Z"/><path class="b" d="M73.77,44.4c.41,0,.85,0,.75.42-.14.64-.84.44-1.27.63a.4.4,0,0,1-.54-.45C72.82,44.35,73.47,44.59,73.77,44.4Z"/><path class="b" d="M70.34,39.42c-.37.3-.09,1.19-1,1.09-.19,0-.56,0-.32-.41s.17-1.16.91-1.22C70.28,38.86,70.34,39.12,70.34,39.42Z"/><path class="a" d="M23.77,43.88c0,.2,0,.48-.08.58-1.37,1.31-.62,3-.83,4.49-.05.41.33,1.06-.48,1.12s-.68-.59-.69-1.08c0-.84,0-1.68,0-2.52a1.72,1.72,0,0,0-.52-1.59A1.36,1.36,0,0,1,21.09,43c.3-.41.85-.91,1.41-.66S23.92,42.9,23.77,43.88Z"/><path class="a" d="M49.81,68.5c0,3.5-2.49,5.58-5.65,5.85-3,.25-6-2.78-6.08-5.83,0-2.88,3-5.83,6-5.8C46.76,62.74,49.94,65.28,49.81,68.5Zm-5.74-3.23a3.36,3.36,0,0,0-3.39,3.27A3.77,3.77,0,0,0,44.13,72a3.82,3.82,0,0,0,3.21-3.49A3.41,3.41,0,0,0,44.07,65.27Z"/><path class="a" d="M37.7,21.64a2.76,2.76,0,0,1-3-2.92,3,3,0,0,1,3.09-3,3,3,0,0,1,2.9,3A2.62,2.62,0,0,1,37.7,21.64Zm-.05-4.36a1.36,1.36,0,0,0-1.33,1.47c0,1,.59,1.37,1.36,1.48a1.45,1.45,0,0,0,1.43-1.55C39,17.85,38.65,17.22,37.65,17.28Z"/><path class="a" d="M49.79,20.71a1.68,1.68,0,0,1,1.78-1.88,2,2,0,0,1,1.91,1.77,1.93,1.93,0,0,1-1.89,1.88A1.71,1.71,0,0,1,49.79,20.71Z"/><path class="a" d="M44.79,30a1.66,1.66,0,0,1-1.9,1.76,1.84,1.84,0,0,1-1.79-1.92A1.88,1.88,0,0,1,43,28.15,1.75,1.75,0,0,1,44.79,30Z"/><path class="a" d="M50.45,28.74c-.66-.08-1.07-.38-1.1-1a1,1,0,0,1,1-1.1,1,1,0,0,1,1.14.95C51.55,28.26,51.06,28.58,50.45,28.74Z"/><path class="b" d="M44.07,65.27a3.41,3.41,0,0,1,3.27,3.22A3.82,3.82,0,0,1,44.13,72a3.77,3.77,0,0,1-3.45-3.44A3.36,3.36,0,0,1,44.07,65.27Z"/><path class="b" d="M37.65,17.28c1-.06,1.37.57,1.46,1.4a1.45,1.45,0,0,1-1.43,1.55c-.77-.11-1.4-.49-1.36-1.48A1.36,1.36,0,0,1,37.65,17.28Z"/></svg>