<svg xmlns="http://www.w3.org/2000/svg" viewBox="0 0 80.64 82.88"><defs><style>.a{fill:#787778;}</style></defs><title>Journey Icons 2 </title><path class="a" d="M3.62,58V47.1c0-.26,0-.53,0-.79a1.1,1.1,0,0,1,.65-1.09l6.59-3.14,10.29-4.92c.27-.13.54-.28.83-.39s.24-.19.24-.4V13.82a1.06,1.06,0,0,1,.65-1L38,5.46,40,4.52a1.26,1.26,0,0,1,1.15,0q9,4.06,18.1,8.09a1.58,1.58,0,0,1,1.07,1.65c0,7.39,0,14.78,0,22.17a.36.36,0,0,0,.23.39l7.44,3.84,8.67,4.48.19.09a1.12,1.12,0,0,1,.66,1.11c0,.22,0,.45,0,.68q0,11.32,0,22.64a1.27,1.27,0,0,1-.66,1.2q-5.74,3.47-11.47,7l-5.7,3.45a1.13,1.13,0,0,1-1.21,0l-10-5.66-7.7-4.38a.35.35,0,0,0-.41,0L24.07,81.1c-.1.05-.18.11-.28.17a1.12,1.12,0,0,1-1.17,0L10.89,74.6,4.28,70.85a1.22,1.22,0,0,1-.67-1.15C3.62,65.81,3.62,61.91,3.62,58ZM41.69,44.44l1.53-.73,14.6-7a.27.27,0,0,0,.19-.3V15.81a1.65,1.65,0,0,0,0-.21l-.19.08L42,23.08a.41.41,0,0,0-.27.44q0,10.31,0,20.62ZM5.89,48.19a2.2,2.2,0,0,0,0,.23q0,10.26,0,20.52a.31.31,0,0,0,.19.31c1,.53,1.89,1.07,2.83,1.61q6.51,3.67,13,7.37l.18.09v-.27q0-10.3,0-20.62a.35.35,0,0,0-.2-.35c-2.2-1.21-4.39-2.44-6.59-3.66l-.19-.09V58a1.13,1.13,0,1,1-2.25.05q0-2.9,0-5.79a.37.37,0,0,0-.22-.37l-5.5-3Zm35.8,0V69a.3.3,0,0,0,.18.29l15.83,9s.1,0,.17.08v-.24q0-10.32,0-20.66a.32.32,0,0,0-.2-.33L51.1,53.43l-.2-.1V58a1.8,1.8,0,0,1,0,.46,1.12,1.12,0,0,1-2.21-.31c0-1.94,0-3.88,0-5.81a.34.34,0,0,0-.19-.34L43.1,49Zm33.51.06-.22.13L60.29,57.07a.33.33,0,0,0-.16.33V78c0,.08,0,.15,0,.25l.27-.16L75,69.31a.43.43,0,0,0,.24-.42V48.25Zm-35.82,0-.22.13L24.53,57.05a.36.36,0,0,0-.2.36V78.27l.27-.15L39.17,69.3a.38.38,0,0,0,.22-.38q0-10.2,0-20.39Zm-14.9-32.6V16q0,10.21,0,20.43a.4.4,0,0,0,.24.41L39,44.16c.14.07.27.14.44.21V26.76c0-1.13,0-2.26,0-3.39a.23.23,0,0,0-.14-.25l-6.06-3.06-.16,0v.25c0,1.28,0,2.55,0,3.82A1.13,1.13,0,1,1,30.82,24q0-2.41,0-4.83a.36.36,0,0,0-.23-.39l-4.71-2.37ZM74,46.33l-.15-.09-6-3.08a.4.4,0,0,0-.42,0l-14,7.51-1.35.73.21.12,6.49,3.61a.25.25,0,0,0,.3,0L72.88,47Zm-35.79,0-.12-.08-5.94-3.06a.44.44,0,0,0-.48,0l-14,7.55-1.27.68.23.13c2.12,1.18,4.24,2.35,6.35,3.54a.45.45,0,0,0,.54,0l13-7.71ZM29.43,41.8a.21.21,0,0,1-.08,0l-5.91-3a.42.42,0,0,0-.31,0l-15.7,7.5-.2.11.17.11L13.83,50a.32.32,0,0,0,.35,0l12.65-6.8Zm35.79,0-.09-.06-5.89-3a.36.36,0,0,0-.25,0l-4.11,2L44,45.86l-1,.47.08.06L49.64,50A.27.27,0,0,0,50,50l11.52-6.19Zm-8.83-28-.1-.05-6.91-3.09a.45.45,0,0,0-.28,0l-3.47,1.76L35.17,17.78l-.69.36s.05.05.07.05l5.89,3a.41.41,0,0,0,.29,0l14.92-7Zm-30.48,0,.15.08,5.77,2.91a.36.36,0,0,0,.25,0l2.63-1.34L45.62,9.93l1-.49-.17-.08c-1.79-.8-3.58-1.59-5.36-2.41a.85.85,0,0,0-.94,0,2.69,2.69,0,0,1-.54.26L28,12.8Z"/></svg>