<svg xmlns="http://www.w3.org/2000/svg" viewBox="0 0 86.83 72.81"><defs><style>.a{fill:#797779;stroke:#787778;stroke-miterlimit:10;}</style></defs><title>Journey Icons</title><path class="a" d="M63.62,21H52.87v-3.2c0-3.08-1.68-5.59-3.73-5.59H31.92c-2.06,0-3.74,2.51-3.74,5.59V21H18.39a7.69,7.69,0,0,0-7.64,7.68v12.8A72.57,72.57,0,0,0,37.9,48,3.11,3.11,0,0,1,44,48a72.69,72.69,0,0,0,27.27-6.58V28.64A7.69,7.69,0,0,0,63.62,21ZM50.17,19.82A4.13,4.13,0,0,1,50,21H31.17A3.78,3.78,0,0,1,31,19.82v-.59c0-1.51.83-2.76,1.84-2.76H48.33c1,0,1.84,1.25,1.84,2.76Z"/><path class="a" d="M44.06,50.79v1.14a3.12,3.12,0,1,1-6.23,0V50.76A80.32,80.32,0,0,1,23,48.55a78.64,78.64,0,0,1-12.22-4.09V58.82a7.69,7.69,0,0,0,7.64,7.69H63.62a7.69,7.69,0,0,0,7.64-7.69V44.1A73,73,0,0,1,44.06,50.79Z"/></svg>