<svg xmlns="http://www.w3.org/2000/svg" viewBox="0 0 59.73 78.56"><defs><style>.a{fill:#787778;}</style></defs><title>Journey Icons 2 </title><path class="a" d="M31.47,2.11c.77.19,1.55.35,2.31.59a10.87,10.87,0,0,1,5.89,4.08,1.38,1.38,0,0,1,.26.43c.32,1.28,1.3,1.64,2.44,2C44,9.67,45.44,10.39,47,11a2,2,0,0,0,.77.15c1.37,0,2.74.09,4.09,0A4.9,4.9,0,0,1,56.72,16c0,6.14,0,12.28,0,18.41q0,18.8,0,37.57A4.89,4.89,0,0,1,53,76.86a4.22,4.22,0,0,1-.94.09H7.63A4.78,4.78,0,0,1,3,72.17Q3,64.07,3,56,3,36,3,16.12a4.81,4.81,0,0,1,2.91-4.59,3.41,3.41,0,0,1,1.33-.35,31.37,31.37,0,0,0,4.95-.09,26.09,26.09,0,0,0,4.54-1.72l.14,0A4.12,4.12,0,0,0,19.93,7c1.49-2.69,4.17-3.9,7.07-4.6l1.25-.3ZM10.3,14.27H8.17c-1.76,0-2,.23-2,1.95V72.28c0,1.18.34,1.51,1.52,1.54.14,0,.29,0,.44,0h30c4.51,0,9,0,13.52,0,1.63,0,1.87-.25,1.87-1.85V15.77c0-1-.29-1.41-1.14-1.47-1-.06-2,0-3,0,.15,1.53.35,3,.41,4.51s-.55,2-2,2h-36c-1.34,0-2-.57-1.92-1.9C10,17.4,10.15,15.89,10.3,14.27Zm2.57,3.36H46.75c-.13-.71-.23-1.35-.36-2a3.09,3.09,0,0,0-2.23-2.54C42.42,12.55,40.69,12,39,11.47a1.62,1.62,0,0,1-1.3-1.41,4.69,4.69,0,0,0-2.57-3.58A9.85,9.85,0,0,0,30,5.25a9.93,9.93,0,0,0-6.08,1.68,4,4,0,0,0-1.8,3,1.6,1.6,0,0,1-1.35,1.51c-1.83.57-3.67,1.12-5.46,1.79a2.74,2.74,0,0,0-1.47,1.19A20.11,20.11,0,0,0,12.87,17.63Z"/><path class="a" d="M10.19,57.33c0-1.7,0-3.41,0-5.11,0-1.37.58-1.95,2-1.95q4.89,0,9.78,0c1.5,0,2.06.65,2.05,2.17,0,3.31,0,6.62,0,9.93,0,1.61-.53,2.14-2.14,2.14H12.1a1.67,1.67,0,0,1-1.91-1.92C10.18,60.83,10.19,59.08,10.19,57.33Zm3.18,4h7.4V53.46h-7.4Z"/><path class="a" d="M10.18,36.48V31.37c0-1.41.59-2,2-2H22c1.47,0,2,.64,2,2.12,0,3.33,0,6.67,0,10,0,1.57-.54,2.11-2.1,2.11H12.23c-1.48,0-2-.55-2-2,0-1.7,0-3.41,0-5.11Zm3.18,3.9h7.39V32.56H13.36Z"/><path class="a" d="M47.92,38.11H28.31V35.05H47.92Z"/><path class="a" d="M47.93,56v3H28.31V56Z"/></svg>