<svg xmlns="http://www.w3.org/2000/svg" viewBox="0 0 51.19 70.61"><defs><style>.a{fill:#787778;}</style></defs><title>Journey Icons 2 </title><path class="a" d="M35.9,16.15l-.14,2.1,8.62.57-14.79,12a6.17,6.17,0,0,0-3.46-2.69l.34-21.2,5.78,6.42L33.81,12,25.38,2.59l-8.74,9.09,1.52,1.45,6-6.23-.34,21a6.08,6.08,0,0,0-4.18,2.21L5.9,18.22l8.63-.3-.07-2.1-12.6.44L3.21,28.79l2.09-.22L4.37,20,18.5,32.24A5.88,5.88,0,0,0,18.22,34a6.11,6.11,0,0,0,3.08,5.29v17.2a6,6,0,1,0,6.4,0V39.11a6,6,0,0,0,2.67-6.27L45.51,20.73l-1,8.5,2.17.27L48.48,17ZM24.5,65A3.47,3.47,0,1,1,28,61.52,3.48,3.48,0,0,1,24.5,65Z"/></svg>