<svg xmlns="http://www.w3.org/2000/svg" viewBox="0 0 67.41 68.85"><defs><style>.a{fill:#797779;}</style></defs><title>Journey Icons 2 </title><path class="a" d="M3.55,52.06V25.19H10V3.66H49v12H56.9v.86q0,18.71,0,37.41a1,1,0,0,0,.68,1.12A5.08,5.08,0,0,1,60.35,58a.7.7,0,0,0,.79.5c1.18,0,2.35,0,3.57,0v2.66c-.7,0-1.4.05-2.09,0a2.42,2.42,0,0,0-2.83,1.41A4.53,4.53,0,0,1,55,64.94a5.19,5.19,0,0,1-4.25-3.26.82.82,0,0,0-.91-.57H33.52v5H12.61V53.43h7.66v4h5.47v-4h7.74v5c.2,0,.36.05.52.05H50a.67.67,0,0,0,.72-.49,5.41,5.41,0,0,1,3-3,.66.66,0,0,0,.48-.73q0-15.27,0-30.55V18.48H49.07V30.53H42.53V52.06ZM39.82,27.93H6.22V49.35h33.6ZM12.75,25.2h29.8v2.58h3.77V6.38H12.75Zm4.87,35v-4H15.31v7.32H30.75V56.14H28.4v4Zm35.43-.4a2.31,2.31,0,0,0,2.5,2.53,2.53,2.53,0,0,0,0-5.05A2.32,2.32,0,0,0,53.05,59.78Z"/></svg>