<svg xmlns="http://www.w3.org/2000/svg" viewBox="0 0 69.12 56.78"><defs><style>.a{fill:#fff;stroke:#787678;stroke-miterlimit:10;stroke-width:2px;}</style></defs><title>Journey Icons 2 </title><path class="a" d="M5.41,14.5V49c0,.63,0,1.26,0,1.89,0,.17,0,.37.26.31H64.54c.52.09,1.07-.09,1.55.2l.29.39c.06,1.63.23,2.23-2,2.1l-.27,0h-59l-1.83-.08-.42-.33c-.24-.46-.08-1-.15-1.45V6.28c0-.13,0-.27,0-.4,0-1.06.26-1.3,1.33-1.31l.4,0,.33,0a1.27,1.27,0,0,1,.62,1.29V14.5Z"/><path class="a" d="M61.13,38.38v8l0,1.12c0,.79-.34,1.1-1.14,1.12l-1.12,0H53a5.58,5.58,0,0,1-1.58-.15L51.07,48l-.08-2V21.53a1.07,1.07,0,0,1,1.08-1h8l.66.16a1.25,1.25,0,0,1,.43,1.05V38.38Z"/><path class="a" d="M37.07,14.93A4.46,4.46,0,0,0,37.83,16a.73.73,0,0,0,.29.38A6.32,6.32,0,0,0,39,17.64l.15.18A6.18,6.18,0,0,0,40,19l.33.42a5.73,5.73,0,0,0,.85,1.17c.19.46.39.48.75.12q5.16-5.19,10.34-10.34c.36-.36.33-.57-.08-.79a4.77,4.77,0,0,0-.93-.92l-.4-.4c-.61-.75-.55-.94.41-1.2.44-.12.88-.27,1.31-.4a2.15,2.15,0,0,0,.93-.25,19.75,19.75,0,0,0,2.92-.81,2,2,0,0,0,.79-.18l2.66-.75a1.87,1.87,0,0,1,.78,0c.31.61-.17,1.13-.19,1.71a2.52,2.52,0,0,0-.21.91,20.58,20.58,0,0,0-.78,2.92,1,1,0,0,0-.15.65h0c-.11.06-.11.17-.1.28a20.23,20.23,0,0,0-.69,2.65,1.84,1.84,0,0,0-.22.8l-.29.31-.52-.09L56.61,14l-.41-.4a3.34,3.34,0,0,1-.35-.4c-.39-.55-.7-.53-1.2,0-3.17,3.22-6.37,6.4-9.57,9.59-.93.93-1.88,1.85-2.82,2.78a.32.32,0,0,0-.27.14h0a1.27,1.27,0,0,0-.66.12c-.54.09-.89-.31-1.3-.53L39.79,25a6.21,6.21,0,0,0-.85-1.18l-.39-.54a5.13,5.13,0,0,0-.79-1.06l-.39-.55a5,5,0,0,0-.8-1.07.56.56,0,0,0-.27-.38l-.77-1.07a.67.67,0,0,0-.28-.38,6.6,6.6,0,0,0-.92-1.25.63.63,0,0,0-.27-.37l-.72-1L33,15.68a6.79,6.79,0,0,0-.93-1.27L32,14.23a6.68,6.68,0,0,0-.85-1.18l-.32-.43a7,7,0,0,0-.85-1.17l-.21-.28c-.29-.25-.25-1-.93-.63-.93.56-1.82,1.19-2.73,1.79a11.11,11.11,0,0,0-1.7,1.08c-1.76,1.07-3.49,2.16-5.18,3.33-.11,0-.2.05-.24.16l-.16.1a12.21,12.21,0,0,0-1.85,1.16l-.67.4c-1.51.93-3,2-4.51,2.82l-.53,0A2.87,2.87,0,0,1,10,20.87l-.39-.54a2.1,2.1,0,0,1,.19-1.84l.48-.46c1.82-1.15,3.66-2.27,5.43-3.51a13.06,13.06,0,0,0,1.85-1.16c1.75-1.08,3.49-2.17,5.18-3.34A.31.31,0,0,0,23,9.86l.15-.1A13.22,13.22,0,0,0,25,8.59c1.09-.69,2.2-1.38,3.29-2.08A3,3,0,0,1,29.52,6L30,6a2.85,2.85,0,0,1,1.11.77l.22.28a6.49,6.49,0,0,0,.84,1.18l.4.53a5.43,5.43,0,0,0,.78,1.07l.4.55.66.91a1.62,1.62,0,0,0,.4.54,5.36,5.36,0,0,0,.78,1.06.6.6,0,0,0,.28.38,5.33,5.33,0,0,0,.92,1.24A.56.56,0,0,0,37.07,14.93Z"/><path class="a" d="M23,9.86a.31.31,0,0,1-.25.16A.23.23,0,0,1,23,9.86Z"/><path class="a" d="M42.26,25.5a.25.25,0,0,1-.27.14A.32.32,0,0,1,42.26,25.5Z"/><path class="a" d="M19.18,16.74a.25.25,0,0,1-.24.16C19,16.79,19.07,16.76,19.18,16.74Z"/><path class="a" d="M12.28,33.83h5.31l.52.18a1.58,1.58,0,0,1,.37,1.18,1.33,1.33,0,0,0,0,.79,8.18,8.18,0,0,0,0,1.85,1,1,0,0,0,0,.68,11,11,0,0,0,0,2,.68.68,0,0,0,.05.65,6.58,6.58,0,0,0,0,2,1,1,0,0,0,0,.68,10.18,10.18,0,0,0,0,2,1.26,1.26,0,0,0,0,.79c0,.31,0,.62,0,.92,0,.73-.35,1-1.06,1.06l-1,0h-6a5.53,5.53,0,0,1-1.72-.17l-.24-.25a6.57,6.57,0,0,1-.16-1.71V35.19c.11-1.16.24-1.28,1.46-1.36h2.52Z"/><path class="a" d="M32.46,24.05l.23.4,0,1.86V47.53a1.05,1.05,0,0,1-1.06,1.07h-8a1.18,1.18,0,0,1-1.06-.54l-.07-.54V44.87l0-2a1.36,1.36,0,0,0,0-.8,8.09,8.09,0,0,0,0-1.84,1,1,0,0,0,0-.68,9.46,9.46,0,0,0,0-2,1.06,1.06,0,0,0,0-.8,5.91,5.91,0,0,0,0-1.83,1,1,0,0,0,0-.69,9.36,9.36,0,0,0,0-2,1.36,1.36,0,0,0,0-.8,8.9,8.9,0,0,0,0-1.86,1.36,1.36,0,0,0,0-.8,8.8,8.8,0,0,0,0-1.85,1.36,1.36,0,0,0,0-.8l.09-1.84.38-.43a11.9,11.9,0,0,1,2.15-.15H31C31.48,23.83,32,23.64,32.46,24.05Z"/><path class="a" d="M36.78,31.33a1.22,1.22,0,0,1,.71-.79l2,0h6c.49,0,1,0,1.33.42l.15.4V47.26c-.08,1.09-.26,1.26-1.34,1.35h-8l-.28-.08c-.59-.3-.54-.87-.56-1.4V31.33Z"/></svg>