<svg xmlns="http://www.w3.org/2000/svg" viewBox="0 0 80.31 64.21"><defs><style>.a{fill:#787778;}.b{fill:none;stroke:#787678;stroke-miterlimit:10;}</style></defs><title>Journey Icons</title><path class="a" d="M76.19,39s-.1.06-.12.11c-.73,2.62-2.7,3.74-5.19,4.12a10.41,10.41,0,0,1-6.08-.65,5.6,5.6,0,0,1-3.23-4.92c0-.23.07-.31.29-.31l2.93,0c.26,0,.31.14.35.35a2.75,2.75,0,0,0,2.21,2.42,6.29,6.29,0,0,0,4.06-.24,1.87,1.87,0,0,0,1.23-1.77,1.74,1.74,0,0,0-1.22-1.7c-1.28-.48-2.61-.77-3.92-1.12a17.7,17.7,0,0,1-3.44-1.25c-1.75-.9-2.22-2.42-2.12-4.23.17-2.83,2.12-4.5,4.77-5a11,11,0,0,1,4.17,0A6,6,0,0,1,75.74,30c.05.42-.06.54-.47.52-.88,0-1.77,0-2.65,0-.23,0-.4,0-.45-.31a2.9,2.9,0,0,0-2.24-2.29,4.6,4.6,0,0,0-3.36.17,2.12,2.12,0,0,0-1.17,2,1.41,1.41,0,0,0,1,1.24,26.24,26.24,0,0,0,3.79,1.14A15.52,15.52,0,0,1,74.32,34,3.74,3.74,0,0,1,76,36.53c0,.14,0,.32.15.42Z"/><path class="a" d="M48.82,29.17a1.7,1.7,0,0,0-.24.76C47.73,34,46.87,38,46,42.07c-.1.47-.25.67-.77.63a23.19,23.19,0,0,0-2.36,0,.58.58,0,0,1-.67-.52c-.6-2.28-1.21-4.55-1.82-6.83q-1.35-5.07-2.72-10.15c-.11-.38,0-.42.34-.41,1,0,2,0,2.93,0,.38,0,.52.14.6.51q1.26,5.93,2.56,11.85a4.5,4.5,0,0,0,.16.51,2.42,2.42,0,0,0,.27-1Q45.75,31,46.94,25.28c.06-.3.14-.44.47-.43,1,0,2.07,0,3.11,0,.38,0,.47.16.53.49Q52,30.43,53,35.52a12.58,12.58,0,0,0,.54,2.11c.62-2.57,1.23-5.14,1.85-7.71.37-1.52.75-3,1.11-4.58.07-.31.21-.38.5-.38,1,0,1.92,0,2.88,0,.4,0,.44.11.33.46q-1.74,6-3.46,11.91c-.47,1.64-1,3.27-1.41,4.92-.1.37-.26.54-.67.52-.88,0-1.76,0-2.65,0-.31,0-.4-.11-.46-.42-.82-4.27-1.66-8.53-2.49-12.8C49,29.39,49,29.24,48.82,29.17Z"/><path class="a" d="M7.85,29.62a1.24,1.24,0,0,0-.12.75c-.05,3.76-.1,7.51-.13,11.27,0,.46-.1.65-.6.62-.78,0-1.57,0-2.36,0-.39,0-.52-.11-.51-.52,0-1.34,0-2.68,0-4q.09-6.3.16-12.6c0-.54.13-.74.7-.71.9.06,1.8,0,2.7,0a.72.72,0,0,1,.74.42q2,3.61,4,7.23,1.28,2.31,2.57,4.61a.6.6,0,0,0,.14.13c.2-.17.12-.4.12-.59,0-3.7.09-7.4.1-11.1,0-.49.15-.62.62-.59.73,0,1.46,0,2.19,0,.51,0,.68.12.67.66-.06,3.78-.09,7.56-.12,11.33,0,1.75-.05,3.49,0,5.24,0,.47-.13.64-.62.61-.88,0-1.77,0-2.65,0a.63.63,0,0,1-.67-.38q-3.19-5.76-6.4-11.49C8.22,30.21,8,29.94,7.85,29.62Z"/><path class="a" d="M22.47,33.56c0-2.78,0-5.56,0-8.34,0-.48.14-.61.62-.61q6,.09,12,.12c.45,0,.56.14.53.56a19.45,19.45,0,0,0,0,2c0,.46-.15.59-.6.58-2.7-.06-5.41-.07-8.11-.14-.54,0-.75.11-.73.68a18.64,18.64,0,0,1,0,2.48c0,.61.19.73.75.72,2.45,0,4.91.05,7.36.05.52,0,.67.16.63.66a13.22,13.22,0,0,0,0,1.78c0,.48-.12.63-.61.62-2.47-.05-4.95-.06-7.42-.11-.54,0-.73.1-.72.68,0,1.13,0,2.26-.06,3.39,0,.49.1.66.63.66,2.86,0,5.72,0,8.57,0,.51,0,.68.15.64.66a16.86,16.86,0,0,0,0,2c0,.4-.11.52-.51.51-3-.05-6-.07-9-.11-1.13,0-2.26,0-3.39,0-.45,0-.59-.11-.58-.57,0-2.78,0-5.56,0-8.34Z"/><path class="b" d="M36.36,58.59a23.82,23.82,0,0,1-7.22-2.26,25,25,0,0,1-9-7.54c-.43-.56-.78-1.18-1.19-1.76-.26-.36-.09-.41.24-.41l6,.08c.69,0,1.38,0,2.07,0a.74.74,0,0,1,.79.5,34.32,34.32,0,0,0,3.29,5.45,43.49,43.49,0,0,0,4.88,5.63A.29.29,0,0,1,36.36,58.59Z"/><path class="b" d="M43.5,58.43c.86-.81,1.76-1.58,2.57-2.44a37.21,37.21,0,0,0,6-8.47A.86.86,0,0,1,53,47c2.65.06,5.29.08,7.94.11.14,0,.33-.06.43.07s-.08.28-.16.4a24.76,24.76,0,0,1-8.16,7.84,24.51,24.51,0,0,1-8.62,3.17l-.63.09a.52.52,0,0,1-.17,0Z"/><path class="b" d="M44.83,9.21a19.44,19.44,0,0,1,5.08,1.45A25.19,25.19,0,0,1,60.3,18.73c.45.59.85,1.23,1.27,1.85.17.25.29.47-.22.46l-8-.1a.5.5,0,0,1-.55-.31A39.58,39.58,0,0,0,45,9.52C44.92,9.44,44.8,9.38,44.83,9.21Z"/><path class="b" d="M36.31,9.08c-1.23,1.25-2.34,2.41-3.37,3.64a35.78,35.78,0,0,0-4.77,7.21,1.06,1.06,0,0,1-1.12.72c-2.49-.07-5-.06-7.48-.09-.6,0-.63,0-.29-.54a24.39,24.39,0,0,1,4-4.71,25.14,25.14,0,0,1,7.63-4.81,28.53,28.53,0,0,1,4.79-1.39A4.23,4.23,0,0,1,36.31,9.08Z"/><path class="b" d="M39.51,8.89c0,.9,0,1.76,0,2.62,0,2.87,0,5.75-.06,8.62,0,.5-.13.66-.64.65-2.76-.06-5.52-.09-8.28-.11-.47,0-.58-.09-.34-.54a39.34,39.34,0,0,1,5.79-8c1-1,2-2,3-3A.93.93,0,0,1,39.51,8.89Z"/><path class="b" d="M41.54,8.87a21,21,0,0,1,2.32,2.2,39.67,39.67,0,0,1,5.67,7.41c.38.64.7,1.32,1.07,2,.17.3.16.44-.24.43l-8.62-.07c-.27,0-.41-.08-.41-.4V8.93Z"/><path class="b" d="M50.2,47a39,39,0,0,1-9.15,11.16c-.19-.09-.11-.27-.11-.4l.12-10.42c0-.3,0-.51.42-.5,2.86,0,5.72.07,8.57.11A.5.5,0,0,1,50.2,47Z"/><path class="b" d="M39,58.26a43.83,43.83,0,0,1-5.32-5.71,35.43,35.43,0,0,1-3.44-5.28c-.18-.32-.32-.54.24-.53l8.17.09c.41,0,.51.13.51.53q-.08,5.25-.12,10.52C39,58,39,58.06,39,58.26Z"/></svg>