<svg xmlns="http://www.w3.org/2000/svg" viewBox="0 0 64 62.9"><defs><style>.a{fill:none;stroke:#787778;stroke-miterlimit:10;}</style></defs><title>Journey Icons 2 </title><path class="a" d="M8.25,60.27l2.89-12.44c-.51,0-.92-.13-1.33-.14-1.27,0-2.55,0-3.82,0A3.77,3.77,0,0,1,2.4,44.09c0-.39,0-.79,0-1.18V12.18c0-3.39,1.43-4.82,4.79-4.83h2.9c0,.48.1.9.1,1.31q0,14.06,0,28.09c0,4.07,2.19,6.57,6.33,6.66,7,.15,14,.26,21,.07,2.66-.06,4.69.42,6.17,2.66A13.59,13.59,0,0,0,45,47.6c-.79,0-1.28.08-1.78.08-6.86,0-13.72,0-20.57,0a3.1,3.1,0,0,0-2.43,1c-3.54,3.61-7.14,7.16-10.7,10.75a6.52,6.52,0,0,0-.74,1.26Z"/><path class="a" d="M54.46,55.12c-2.33-2.44-4.65-4.89-7-7.31-1.52-1.58-3.05-3.17-4.68-4.64a3.41,3.41,0,0,0-2-.85c-8,0-16,0-24,0-3.72,0-5.08-1.37-5.08-5.09,0-10.28,0-20.56,0-30.84,0-3,1.56-4.47,4.51-4.47q20,0,40.07,0c3,0,4.46,1.52,4.46,4.48q0,15.69,0,31.37c0,3-1.48,4.45-4.45,4.48-1.39,0-2.77,0-4.35,0,1,4.36,2,8.44,2.91,12.53Zm-41-17.72"/></svg>