<svg xmlns="http://www.w3.org/2000/svg" viewBox="0 0 66.89 87.11"><defs><style>.a{fill:none;stroke:#787678;stroke-miterlimit:10;stroke-width:2.02px;}</style></defs><title>Journey Icons</title><path class="a" d="M53.52,74.71H10.86V5.91H53.52ZM12.12,7V73.55H52.26V7Z"/><path class="a" d="M12.12,7H52.26V73.55H12.12Zm20.12,7.54c-2,0-4-.12-6,.05a5.25,5.25,0,0,0-2.89,1.09c-6.11,5.34-5.6,15.62,1,20.41a3.21,3.21,0,0,0,1.73.54c4.12.05,8.24,0,12.37,0A2.89,2.89,0,0,0,40,36.15c6.75-4.73,7.16-15.59.76-20.76a4.23,4.23,0,0,0-2.31-.82C36.37,14.45,34.31,14.53,32.24,14.53Zm0,29.44c-1.84,0-3.68.14-5.5,0A4.94,4.94,0,0,0,22.35,46a13.5,13.5,0,0,0,1.94,19.5,3.24,3.24,0,0,0,1.88.57q6,.07,12,0a3.23,3.23,0,0,0,1.88-.56,13.49,13.49,0,0,0,1.86-19.62,4.88,4.88,0,0,0-4.32-2C35.85,44.1,34.06,44,32.29,44Z"/><path class="a" d="M32.24,14.53c2.07,0,4.13-.08,6.19,0a4.23,4.23,0,0,1,2.31.82c6.4,5.17,6,16-.76,20.76a2.89,2.89,0,0,1-1.57.47c-4.13,0-8.25.05-12.37,0a3.21,3.21,0,0,1-1.73-.54c-6.56-4.79-7.07-15.07-1-20.41a5.25,5.25,0,0,1,2.89-1.09C28.23,14.41,30.24,14.53,32.24,14.53Zm.11,1.09c-1.94,0-3.9-.1-5.83.05a4.6,4.6,0,0,0-2.57,1,12,12,0,0,0,.68,18,3,3,0,0,0,1.71.55c3.9,0,7.79.05,11.69,0a3.1,3.1,0,0,0,1.83-.66,12.09,12.09,0,0,0,1.4-17.06,4.41,4.41,0,0,0-4.1-1.91A42.82,42.82,0,0,1,32.35,15.62Z"/><path class="a" d="M32.29,44c1.77,0,3.56.13,5.32,0a4.88,4.88,0,0,1,4.32,2A13.49,13.49,0,0,1,40.07,65.5a3.23,3.23,0,0,1-1.88.56q-6,.07-12,0a3.24,3.24,0,0,1-1.88-.57A13.5,13.5,0,0,1,22.35,46a4.94,4.94,0,0,1,4.44-2.06C28.61,44.11,30.45,44,32.29,44Zm.08,1.12c-1.95,0-3.91-.11-5.85,0a4.87,4.87,0,0,0-2.71,1.07,12,12,0,0,0,.82,17.88,3.55,3.55,0,0,0,2,.62c3.67.06,7.34.09,11,0a4.33,4.33,0,0,0,2.55-1,12.12,12.12,0,0,0,.62-17.26,3.64,3.64,0,0,0-3.14-1.35C35.92,45.18,34.14,45.09,32.37,45.09Z"/><path class="a" d="M32.35,15.62a42.82,42.82,0,0,0,4.81,0,4.41,4.41,0,0,1,4.1,1.91,12.09,12.09,0,0,1-1.4,17.06,3.1,3.1,0,0,1-1.83.66c-3.9.06-7.79,0-11.69,0a3,3,0,0,1-1.71-.55,12,12,0,0,1-.68-18,4.6,4.6,0,0,1,2.57-1C28.45,15.52,30.41,15.62,32.35,15.62ZM34.94,34c-.43-1.34-.48-2.81-1.23-3.45a3.14,3.14,0,0,0-3.07,0c-.74.64-.77,2.11-1.16,3.43ZM28,20.15c-1.52,0-1.55,0-1.57,1.08,0,1.32,0,2.63,0,3.94s.5,1.45,1.59,1.14Zm9.79,5.49c0-1.34.06-2.7,0-4,0-.34-.52-.65-.79-1-.26.34-.7.66-.74,1-.1,1,0,2,0,3.06C36.14,25.91,36.71,26.05,37.79,25.64Z"/><path class="a" d="M32.37,45.09c1.77,0,3.55.09,5.32,0a3.64,3.64,0,0,1,3.14,1.35,12.12,12.12,0,0,1-.62,17.26,4.33,4.33,0,0,1-2.55,1c-3.66.11-7.33.08-11,0a3.55,3.55,0,0,1-2-.62,12,12,0,0,1-.82-17.88,4.87,4.87,0,0,1,2.71-1.07C28.46,45,30.42,45.09,32.37,45.09ZM35,63.39c-.46-1.39-.52-2.86-1.28-3.46a3.19,3.19,0,0,0-3.1.07c-.72.63-.7,2.11-1,3.39Zm-7-7.72v-6c-1.14-.37-1.63-.06-1.58,1.14a36.08,36.08,0,0,1,0,3.75C26.34,55.68,26.81,56,28,55.67Zm8.22-3h0a6.35,6.35,0,0,0,0,1.69c.1.37.54.64.83,1,.24-.31.67-.6.69-.92a25.16,25.16,0,0,0,0-3.58c0-.3-.48-.57-.74-.85-.27.27-.7.51-.77.83A9.7,9.7,0,0,0,36.21,52.69Z"/><path class="a" d="M34.94,34H29.48c.39-1.32.42-2.79,1.16-3.43a3.14,3.14,0,0,1,3.07,0C34.46,31.17,34.51,32.64,34.94,34Z"/><path class="a" d="M28,20.15v6.16c-1.09.31-1.65.1-1.59-1.14s0-2.62,0-3.94C26.45,20.11,26.48,20.11,28,20.15Z"/><path class="a" d="M37.79,25.64c-1.08.41-1.65.27-1.6-.92,0-1-.06-2,0-3.06,0-.37.48-.69.74-1,.27.32.76.63.79,1C37.85,22.94,37.79,24.3,37.79,25.64Z"/><path class="a" d="M35,63.39H29.54c.34-1.28.32-2.76,1-3.39a3.19,3.19,0,0,1,3.1-.07C34.44,60.53,34.5,62,35,63.39Z"/><path class="a" d="M28,55.67c-1.18.32-1.65,0-1.59-1.12a36.08,36.08,0,0,0,0-3.75c-.05-1.2.44-1.51,1.58-1.14Z"/><path class="a" d="M36.21,52.69a9.7,9.7,0,0,1,0-1.87c.07-.32.5-.56.77-.83.26.28.72.55.74.85a25.16,25.16,0,0,1,0,3.58c0,.32-.45.61-.69.92-.29-.32-.73-.59-.83-1a6.35,6.35,0,0,1,0-1.69Z"/></svg>