<svg xmlns="http://www.w3.org/2000/svg" viewBox="0 0 65.44 70.66"><defs><style>.a{fill:#797779;}.b{fill:#fff;}.c{fill:#edecec;}</style></defs><title>Journey Icons 2 </title><path class="a" d="M25.79,12.81c.41-.55.8-1.1,1.21-1.62a21.68,21.68,0,0,1,6.45-5.53,20.56,20.56,0,0,1,7-2.42,21.42,21.42,0,0,1,4.8-.16,20.18,20.18,0,0,1,10.18,3.7A21.21,21.21,0,0,1,61.27,13a23.34,23.34,0,0,1,3.07,7.61,21.64,21.64,0,0,1,.47,5.56,22.44,22.44,0,0,1-3.2,10.66,20.26,20.26,0,0,1-11.29,9,19.55,19.55,0,0,1-4.07.87,30.49,30.49,0,0,1-4.58.09c-.41,0-.82-.1-1.23-.13a.63.63,0,0,0-.32.1A15.57,15.57,0,0,1,34,49.52a16.24,16.24,0,0,1-4.92.3A15.52,15.52,0,0,1,21.46,47,16,16,0,0,1,18,43.67a.6.6,0,0,0-.53-.27,15.45,15.45,0,0,1-9.73-3.7,15.89,15.89,0,0,1-5.26-8.35,16.1,16.1,0,0,1-.53-3.85,16,16,0,0,1,3-9.87,15.88,15.88,0,0,1,9.71-6.56,15.57,15.57,0,0,1,5-.27,14.8,14.8,0,0,1,6,1.94ZM43.52,43.66a16,16,0,0,0,4.75-.52A17.27,17.27,0,0,0,60,33a19.12,19.12,0,0,0,1.65-7.22,18.42,18.42,0,0,0-.61-5.43A19.47,19.47,0,0,0,55.66,11a17.36,17.36,0,0,0-6.14-3.82,17.14,17.14,0,0,0-4.66-1A18.07,18.07,0,0,0,41,6.32a16.84,16.84,0,0,0-5.16,1.61,18.79,18.79,0,0,0-5.66,4.27,19.31,19.31,0,0,0-2.48,3.48,1.69,1.69,0,0,1-.77.77,1.53,1.53,0,0,1-1.62-.15,13.32,13.32,0,0,0-2.61-1.51,12.3,12.3,0,0,0-5.46-.92,11.5,11.5,0,0,0-5,1.35A13.1,13.1,0,0,0,5.12,26a12.76,12.76,0,0,0,.82,6,12.7,12.7,0,0,0,5.67,6.68,12.39,12.39,0,0,0,6.7,1.68,1.84,1.84,0,0,1,1.7.85,12.87,12.87,0,0,0,3.23,3.27,12.51,12.51,0,0,0,9,2.25,12,12,0,0,0,4.56-1.49,20.52,20.52,0,0,0,2-1.37A1.59,1.59,0,0,1,40,43.38,14.32,14.32,0,0,0,43.52,43.66Z"/><path class="a" d="M53.22,55.53A5.57,5.57,0,1,1,47.75,50,5.59,5.59,0,0,1,53.22,55.53Zm-8,0a2.44,2.44,0,1,0,2.43-2.45A2.44,2.44,0,0,0,45.21,55.53Z"/><path class="a" d="M58.74,65.13a3.6,3.6,0,1,1-3.54-3.6A3.61,3.61,0,0,1,58.74,65.13Zm-5.17,0a1.57,1.57,0,1,0,1.56-1.58A1.59,1.59,0,0,0,53.57,65.13Z"/><path class="a" d="M17,28.59a2.77,2.77,0,0,1,2.88-2.78,2.8,2.8,0,0,1-.1,5.59A2.77,2.77,0,0,1,17,28.59Zm3.16,0a.36.36,0,0,0-.35-.38.37.37,0,0,0-.39.34.37.37,0,1,0,.74,0Z"/><path class="b" d="M20.19,28.62a.37.37,0,1,1-.74,0,.37.37,0,0,1,.39-.34A.36.36,0,0,1,20.19,28.62Z"/><path class="a" d="M27.73,31.4a2.8,2.8,0,1,1,2.78-2.83A2.75,2.75,0,0,1,27.73,31.4Zm.36-2.79a.38.38,0,0,0-.37-.37.37.37,0,0,0-.37.36.38.38,0,0,0,.38.38A.39.39,0,0,0,28.09,28.61Z"/><path class="b" d="M28.09,28.61a.39.39,0,0,1-.36.37.38.38,0,0,1-.38-.38.37.37,0,0,1,.37-.36A.38.38,0,0,1,28.09,28.61Z"/><path class="a" d="M35.31,31.4a2.8,2.8,0,1,1,0-5.6,2.8,2.8,0,1,1,0,5.6Zm.36-2.8a.36.36,0,0,0-.38-.36.36.36,0,0,0-.35.38.38.38,0,0,0,.38.36A.37.37,0,0,0,35.67,28.6Z"/><path class="b" d="M35.67,28.6a.37.37,0,0,1-.35.38.38.38,0,0,1-.38-.36.36.36,0,0,1,.35-.38A.36.36,0,0,1,35.67,28.6Z"/><path class="a" d="M42.65,31.4a2.8,2.8,0,1,1,2.81-2.8A2.79,2.79,0,0,1,42.65,31.4ZM43,28.6a.36.36,0,0,0-.38-.36.35.35,0,0,0-.35.38.37.37,0,0,0,.37.36A.38.38,0,0,0,43,28.6Z"/><path class="c" d="M43,28.6a.38.38,0,0,1-.36.38.37.37,0,0,1-.37-.36.35.35,0,0,1,.35-.38A.36.36,0,0,1,43,28.6Z"/><path class="a" d="M49.65,31.4a2.8,2.8,0,1,1,0-5.6,2.8,2.8,0,1,1,0,5.6ZM50,28.6a.35.35,0,0,0-.37-.36.36.36,0,0,0-.36.38.38.38,0,0,0,.38.36A.37.37,0,0,0,50,28.6Z"/><path class="b" d="M50,28.6a.37.37,0,0,1-.35.38.38.38,0,0,1-.38-.36.36.36,0,0,1,.36-.38A.35.35,0,0,1,50,28.6Z"/></svg>