<svg xmlns="http://www.w3.org/2000/svg" viewBox="0 0 72.53 55.75"><defs><style>.a{fill:#038571;}</style></defs><title>Journey Icons 2 </title><path class="a" d="M14.49,52.2c-1-1-2.07-1.91-3-3A33.66,33.66,0,0,1,6,11.53,33.74,33.74,0,0,1,14,1.19c.3-.26.46-.31.76,0,.94,1,1.91,1.94,2.89,2.89.24.23.24.35,0,.57A28.42,28.42,0,0,0,8.52,19.05a28,28,0,0,0-.81,10.4,28.5,28.5,0,0,0,8.35,17.36c.55.56,1.14,1.08,1.74,1.58.28.23.3.36,0,.61Q16.41,50.4,15,51.82c-.12.11-.28.19-.32.38Z"/><path class="a" d="M57.83,52.2c-.84-1-1.83-1.86-2.73-2.81a4.89,4.89,0,0,0-.4-.39c-.3-.23-.26-.37,0-.61a28.4,28.4,0,0,0,6.72-8.19A27.51,27.51,0,0,0,64.8,29.5,28.33,28.33,0,0,0,56.33,5.94c-.46-.47-1-.9-1.47-1.34-.18-.15-.22-.24,0-.43q1.58-1.53,3.11-3.11c.25-.25.37-.08.53.06a34.47,34.47,0,0,1,7.64,9.67,33.57,33.57,0,0,1,3.55,11,18,18,0,0,1,.23,2.54c0,.09,0,.21.1.25v3.78c-.11,0-.09.12-.1.2a28.08,28.08,0,0,1-.51,4.08,33.44,33.44,0,0,1-8.27,16.51c-1,1.07-2,2-3.08,3Z"/><path class="a" d="M26.57,13.08A16.52,16.52,0,0,0,26.78,40c0,.09-.06.14-.12.19-1,1.05-2.1,2.09-3.13,3.15-.2.2-.32.22-.54,0a21,21,0,0,1-7.77-12.55,21,21,0,0,1,5.34-19,21.34,21.34,0,0,1,2.19-2.06c.21-.17.32-.15.5,0C24.34,10.87,25.44,12,26.57,13.08Z"/><path class="a" d="M57.77,26.48A21.42,21.42,0,0,1,49.58,43.3c-.23.19-.37.23-.62,0-1-1-2-2-3-3-.25-.24-.24-.34,0-.55a15.92,15.92,0,0,0,6.32-9.62,16.07,16.07,0,0,0-3.89-14.76,13.73,13.73,0,0,0-2.22-2c-.24-.18-.24-.28,0-.49,1-1,2-2,3-3,.23-.25.36-.22.61,0a21.4,21.4,0,0,1,7.7,13.59A26.77,26.77,0,0,1,57.77,26.48Z"/><path class="a" d="M42.6,26.52a6.38,6.38,0,0,1-6.41,6.38,6.36,6.36,0,1,1,.22-12.72A6.36,6.36,0,0,1,42.6,26.52Z"/></svg>