<svg xmlns="http://www.w3.org/2000/svg" viewBox="0 0 67.41 67.33"><defs><style>.a{fill:#fff;}.a,.b{stroke:#787678;stroke-miterlimit:10;stroke-width:2px;}.b{fill:none;}</style></defs><title>Journey Icons 2 </title><path class="a" d="M3,19.38A2.17,2.17,0,0,1,5.12,18c1.6-.1,1.59-.12,2.13-1.65.18-.52.48-1,.67-1.53a.8.8,0,0,0-.08-.64c-.33-.5-.74-.95-1.1-1.43a1.68,1.68,0,0,1,.14-2.41c.8-.84,1.62-1.66,2.47-2.47a1.63,1.63,0,0,1,2.4-.11c.53.4,1,.82,1.52,1.19,1.17-.47,2.3-.91,3.42-1.38a.58.58,0,0,0,.27-.4c.1-.55.16-1.11.23-1.67A1.63,1.63,0,0,1,19,3.92c1.14,0,2.28,0,3.43,0a1.69,1.69,0,0,1,1.86,1.61,7.34,7.34,0,0,1,.13,1.23.89.89,0,0,0,.76,1,16.1,16.1,0,0,1,2.34,1,.71.71,0,0,0,.94-.1,11.94,11.94,0,0,1,1.17-.93,1.6,1.6,0,0,1,2.3.15c.86.81,1.69,1.65,2.51,2.51a1.63,1.63,0,0,1,.14,2.35c-.32.44-.65.86-1,1.27a.61.61,0,0,0-.11.77,26.63,26.63,0,0,1,1,2.47.7.7,0,0,0,.72.53A14.27,14.27,0,0,1,37,18a1.49,1.49,0,0,1,1.25,1.56c0,1.25,0,2.5,0,3.74A1.59,1.59,0,0,1,36.76,25c-.59.09-1.2.13-1.79.25a.8.8,0,0,0-.5.4c-.39.86-.76,1.74-1.1,2.63a.84.84,0,0,0,.07.66c.33.48.72.91,1.07,1.37a1.66,1.66,0,0,1-.1,2.45c-.8.84-1.62,1.67-2.46,2.47a1.67,1.67,0,0,1-2.41.12c-.57-.42-1.07-1.13-1.68-1.23s-1.25.58-1.91.69c-1.41.22-1.79,1-1.81,2.33,0,1.56-.67,2.08-2.24,2.08h-3A1.68,1.68,0,0,1,17,37.61q-.15-.93-.21-1.86a.67.67,0,0,0-.5-.67c-.8-.3-1.56-.68-2.36-1a1,1,0,0,0-.76.08c-.5.33-.94.74-1.42,1.11a1.68,1.68,0,0,1-2.5-.15C8.5,34.38,7.73,33.6,7,32.82a1.72,1.72,0,0,1-.12-2.6c.37-.48.77-.93,1.11-1.42A.82.82,0,0,0,8,28.15c-.3-.8-.63-1.58-1-2.35a1,1,0,0,0-.58-.42A12,12,0,0,0,5,25.22a2,2,0,0,1-2-1.47Z"/><path class="a" d="M65.6,37.72c-.25,1.24-1.17,1.61-2.26,1.72a.86.86,0,0,0-.86.78c-.13.62-.41,1.22-.57,1.83a.84.84,0,0,0,.12.64c.27.37.63.67.91,1a1.48,1.48,0,0,1,.05,2,27.16,27.16,0,0,1-1.76,2.1,1.5,1.5,0,0,1-2.14.21,2.15,2.15,0,0,0-2.78-.15c-1,.53-1.45,1-1.36,2.15s-.57,1.68-1.64,1.79L51.14,52a1.62,1.62,0,0,1-2-1.44,2.15,2.15,0,0,0-1.84-2.1,1.84,1.84,0,0,0-2.22.5c-1,1-1.7,1-2.76.1-.53-.44-1.06-.87-1.57-1.33a1.57,1.57,0,0,1-.32-2.32,2.11,2.11,0,0,0,.16-2.78,1.76,1.76,0,0,0-1.83-1.1c-1.37.06-1.94-.49-2.08-1.84-.08-.74-.14-1.49-.16-2.23a1.5,1.5,0,0,1,1.36-1.72c1.2-.12,1.67-.67,2-1.84a2,2,0,0,0-.55-2.4,1.61,1.61,0,0,1-.09-2.48c.47-.58,1-1.15,1.44-1.72A1.54,1.54,0,0,1,43,27c.88.7,1.51.55,2.49.07,1.17-.57,1.77-1.18,1.67-2.51a1.29,1.29,0,0,1,1.21-1.3,29.43,29.43,0,0,1,3.1-.25,1.42,1.42,0,0,1,1.43,1.39c.09,1.14.71,1.43,1.68,1.78,1.15.42,1.93.48,2.78-.5a1.44,1.44,0,0,1,2.09,0c.64.5,1.26,1,1.86,1.57a1.53,1.53,0,0,1,.28,2.31A2,2,0,0,0,61.5,32a2.06,2.06,0,0,0,2.24,1.46c1,0,1.51.67,1.6,1.71.07.72.17,1.43.26,2.14Z"/><path class="a" d="M51.06,42.5A5.13,5.13,0,1,0,46,37.35,5,5,0,0,0,51.06,42.5Z"/><path class="a" d="M19.94,44.54a10.53,10.53,0,0,1,1.29.78.7.7,0,0,0,.94.09,1.32,1.32,0,0,1,.45-.21,1.9,1.9,0,0,0,1.72-1.86,1.19,1.19,0,0,1,1.2-1,14.41,14.41,0,0,1,2.18,0A1.53,1.53,0,0,1,29,44c0,.55.21.85.74.95a.77.77,0,0,1,.35.13A1.75,1.75,0,0,0,32.52,45a1.23,1.23,0,0,1,1.61.16,11.74,11.74,0,0,1,1.4,1.42,1.54,1.54,0,0,1-.16,2.19c-.38.44-.5.82-.13,1.29a.14.14,0,0,1,0,.06c.23,1,.66,1.68,1.85,1.73a1.21,1.21,0,0,1,1,1.24,14.43,14.43,0,0,1,0,1.86,1.52,1.52,0,0,1-1.53,1.57c-.7,0-1,.33-1.28.95A2,2,0,0,0,35.51,60a1.29,1.29,0,0,1-.15,1.72A11,11,0,0,1,34,63.05a1.56,1.56,0,0,1-2.2-.06,1.36,1.36,0,0,0-1.63-.24c-1,.35-1.61.74-1.66,1.9A1.29,1.29,0,0,1,27.2,65.8a15.59,15.59,0,0,1-2.05,0,1.49,1.49,0,0,1-1.31-1.52,1.44,1.44,0,0,0-1.06-1.48,1.73,1.73,0,0,0-2.19.2,1.45,1.45,0,0,1-2.08-.17c-.35-.32-.69-.67-1-1a1.58,1.58,0,0,1-.1-2.34,1.41,1.41,0,0,0,.25-1.78c-.33-.79-.65-1.24-1.58-1.29s-1.41-.76-1.44-1.79a12.61,12.61,0,0,1,0-1.37,1.59,1.59,0,0,1,1.61-1.63,1.28,1.28,0,0,0,1.24-.92,2.08,2.08,0,0,0-.17-2.55,1.38,1.38,0,0,1-.08-1.32,15.19,15.19,0,0,1,2-2c.13-.12.39-.1.59-.14Z"/><path class="a" d="M26.47,49.8A4.16,4.16,0,0,0,22.3,54a4.2,4.2,0,0,0,4.17,4.16A4.25,4.25,0,0,0,30.66,54,4.18,4.18,0,0,0,26.47,49.8Z"/><path class="b" d="M20.12,14.89a6.29,6.29,0,1,0,6.27,6.28A6.35,6.35,0,0,0,20.12,14.89Z"/></svg>