<svg xmlns="http://www.w3.org/2000/svg" viewBox="0 0 66.13 70.44"><defs><style>.a{fill:#787778;}.b{fill:none;stroke:#797779;stroke-miterlimit:10;stroke-width:2px;}</style></defs><title>Journey Icons 2 </title><path class="a" d="M16.5,44.44v.75c0,6.06-.06,12.12,0,18.18a4,4,0,0,1-4.3,4.26c-1.09,0-2.18,0-3.27,0a3.87,3.87,0,0,1-4-4.08V38.61c-.34-.06-.63-.08-.91-.15A3.85,3.85,0,0,1,1,34.7c0-2.59,0-5.18,0-7.76a4.65,4.65,0,0,1,.4-1.71Q5.22,16.62,9.06,8a3.8,3.8,0,0,1,3.71-2.4h38.4A3.9,3.9,0,0,1,55,8.15c2.52,5.68,5,11.34,7.54,17a5.44,5.44,0,0,1,.44,2c.05,2.29,0,4.58,0,6.88,0,2.7-1.16,4.07-3.9,4.52v.84c0,7.94-.05,15.88,0,23.82a4.14,4.14,0,0,1-4.35,4.37q-14.1-.06-28.19,0a4.1,4.1,0,0,1-4.29-4.29c.09-6,0-12,0-18v-.94ZM12.67,63.71V40.53H26.2V63.68h29v-27H8.82v27ZM59.08,28.92H5v5.73H59.08ZM31,9.52c-2.62,0-5.16,0-7.69,0a.73.73,0,0,0-.82.59Q19.74,18.22,17,26.34c-.06.18-.1.37-.15.56H31Zm2,17.4H47.19a4.86,4.86,0,0,0-.14-.55c-1.85-5.44-3.72-10.88-5.56-16.32a.68.68,0,0,0-.78-.54c-2.4,0-4.8,0-7.21,0a4.88,4.88,0,0,0-.52.06Zm26.1,0c-.12-.31-.2-.54-.3-.76q-3.27-7.35-6.54-14.71c-.28-.64-.43-1.52-.93-1.83s-1.4-.12-2.12-.14H43.32c0,.15,0,.24.06.32q2.86,8.36,5.7,16.71c.14.42.4.41.73.41,2,0,4.08,0,6.12,0ZM20.73,9.52c-2.55,0-5,0-7.5,0a.79.79,0,0,0-.85.57c-2.39,5.4-4.8,10.8-7.19,16.21-.09.2-.16.4-.27.68,3.13,0,6.17,0,9.21,0a.75.75,0,0,0,.86-.62q2-5.82,4-11.64Z"/><path class="b" d="M51.3,59.85H30.13V40.54H51.3Z"/></svg>