<svg xmlns="http://www.w3.org/2000/svg" viewBox="0 0 61.01 84.16"><defs><style>.a{fill:none;stroke:#79777a;stroke-miterlimit:10;stroke-width:2px;}</style></defs><title>Journey Icons 2 </title><path class="a" d="M38.32,81.84c-1.94-.63-3.88-1.27-5.83-1.87Q18.37,75.58,4.25,71.21c-1.15-.36-1.33-.58-1.17-1.78.51-3.71,1.06-7.41,1.6-11.11q1-6.66,1.94-13.3Q7.75,37.25,8.88,29.5c.48-3.29,1-6.59,1.43-9.88.19-1.3.41-1.45,1.65-1.07s2.69.83,4,1.24c1.11.33,1.28.19,1.68-.9,1-2.69,1.92-5.4,3.05-8a16.4,16.4,0,0,1,4-5.62C28.53,1.69,33.45,2.48,36,7.06a21.62,21.62,0,0,1,2.3,7.76,52.1,52.1,0,0,1,.34,10.52c-.08,1.33.06,1.47,1.31,1.86,1.9.59,3.81,1.19,5.71,1.8.92.29,1.13.62,1,1.6q-1.29,9-2.6,17.94-1.11,7.68-2.21,15.37c-.75,5.12-1.49,10.24-2.27,15.35-.13.87-.4,1.72-.61,2.58ZM8.25,55.56c0,.8.5,1.16,1.25,1.39L35,64.83c1.72.53,1.9.39,2.16-1.39q1.18-8.25,2.4-16.5c.15-1-.11-1.49-1.09-1.8l-25.68-8c-1.58-.49-1.8-.32-2,1.31-.54,3.78-1.1,7.56-1.65,11.34C8.79,51.72,8.52,53.62,8.25,55.56ZM36.35,21.5l.22,0c-.28-2.72-.49-5.46-.87-8.17a12.84,12.84,0,0,0-2.16-5.86c-1.69-2.37-4.37-2.86-6.63-1A14.71,14.71,0,0,0,24,9.8a35.63,35.63,0,0,0-4.2,10.28.74.74,0,0,0,.57,1.05c4.94,1.53,9.88,3.07,14.83,4.58.89.28,1.16.06,1.19-.9S36.35,22.6,36.35,21.5Z"/><path class="a" d="M57,78.78c-.07.23-.11.84-.33.92a1.58,1.58,0,0,1-1.18-.28c-1.32-.84-2.6-1.74-3.88-2.64a1.68,1.68,0,0,0-2.06,0c-2,1.29-4.09,2.57-6.16,3.79a6.56,6.56,0,0,1-1.56.46,6.86,6.86,0,0,1-.13-1.55q1.52-10.62,3.06-21.22Q46,50,47.14,41.77q.75-5.13,1.53-10.26A6.88,6.88,0,0,1,49.1,30c.08-.21.32-.35.49-.52.16.18.42.34.47.55.26,1.12.52,2.24.69,3.38.62,4.31,1.2,8.63,1.79,12.94.65,4.65,1.28,9.29,1.93,13.94.58,4.23,1.18,8.47,1.77,12.71C56.5,74.89,56.75,76.75,57,78.78Z"/><path class="a" d="M40.55,11.19a4.33,4.33,0,0,1,.64,1.09,37.63,37.63,0,0,1,1.21,5c.31,2.43.39,4.89.51,7.34,0,.38.35,1.09-.48,1.12a1.39,1.39,0,0,1-1.61-1.28c0-1.3.08-2.62,0-3.92-.17-2.6-.45-5.19-.66-7.79a10.06,10.06,0,0,1,.07-1.45Z"/><path class="a" d="M30.34,7.46a4.91,4.91,0,0,1,1.18,1c.1.16-.27.77-.56,1a16,16,0,0,0-4.21,5.89,43.47,43.47,0,0,0-1.67,4.13c-.31.86-.82.63-1.4.45s-1.11-.37-.83-1.16a28.34,28.34,0,0,1,5.27-9.73,12.2,12.2,0,0,1,1.71-1.39c.08-.07.24,0,.37-.06Z"/></svg>