<svg xmlns="http://www.w3.org/2000/svg" viewBox="0 0 61.86 73.33"><defs><style>.a,.d{fill:none;}.a,.c,.d{stroke:#787678;stroke-miterlimit:10;}.a,.c{stroke-width:2px;}.b{fill:#787778;}.c{fill:#fff;}</style></defs><title>Journey Icons 2 </title><rect class="a" x="18.07" y="3.31" width="40.35" height="53.15"/><path class="b" d="M44.75,20.41a3.41,3.41,0,0,0-1-2.48A3.51,3.51,0,0,0,41,17c0,.59,0,1.18,0,1.78l.06,1.54,1.64,0Q43.79,20.35,44.75,20.41Z"/><rect class="c" x="12.1" y="11.38" width="40.35" height="53.15"/><rect class="c" x="3.87" y="17.4" width="40.35" height="53.15"/><rect class="d" x="14.14" y="29.07" width="19.8" height="2.48"/><rect class="d" x="14.14" y="34.02" width="19.8" height="2.48"/><rect class="d" x="14.14" y="38.97" width="19.8" height="2.48"/><rect class="d" x="14.14" y="43.8" width="19.8" height="2.48"/><rect class="d" x="14.14" y="48.75" width="19.8" height="2.48"/><rect class="d" x="14.14" y="53.7" width="19.8" height="2.48"/><rect class="d" x="14.14" y="58.66" width="9.9" height="2.48"/></svg>