<svg xmlns="http://www.w3.org/2000/svg" viewBox="0 0 80.41 61.67"><defs><style>.a{fill:#797779;stroke:#787778;stroke-miterlimit:10;}</style></defs><title>Journey Icons</title><path class="a" d="M50.32,50.89c-.68-1.82-1.34-4-2.26-6A20.83,20.83,0,0,0,45.18,40c-2.57-3-6.45-2.69-8.54.62a38.83,38.83,0,0,0-2.7,6.1c-.62,1.47-.77,3.54-1.85,4.29s-3.09.3-4.69.24c-4.86-.16-9.72-.42-14.58-.56-1.27,0-1.68-.59-1.73-1.73-.19-4.27-.57-8.54-.59-12.82,0-6.47.17-12.94.3-19.41,0-1.12.2-2.24.32-3.35.09-.82.4-1.32,1.38-1.37,2.4-.13,4.79-.53,7.19-.53,15.08-.06,30.17,0,45.26,0,1,0,2,.22,3,.27,3.13.17,3.48.39,3.49,3.57,0,10.48.07,21,0,31.44,0,3.81-.15,4-4,4.13C61.84,51,56.22,50.89,50.32,50.89ZM16.24,30a8.84,8.84,0,1,0,8.84-8.9A8.9,8.9,0,0,0,16.24,30Zm49.6.2a9,9,0,0,0-8.69-9.1,9.12,9.12,0,0,0-9.07,8.75,8.88,8.88,0,1,0,17.76.35Z"/></svg>