<svg xmlns="http://www.w3.org/2000/svg" viewBox="0 0 80.64 78.86"><defs><style>.a{fill:#787778;}.b{fill:#fff;}.c{fill:#069ed9;}</style></defs><title>Journey Icons 2 </title><path class="a" d="M41,77.84A37.2,37.2,0,1,1,78.16,40.71,37.28,37.28,0,0,1,41,77.84Z"/><path class="b" d="M76,40.69C76.2,59.9,60.14,75.8,40.89,75.76a35.35,35.35,0,0,1-35-35.21,35.34,35.34,0,0,1,35.24-35C60.24,5.59,76.25,21.47,76,40.69Z"/><path class="c" d="M73.83,40.62A32.85,32.85,0,1,1,41,7.81,32.81,32.81,0,0,1,73.83,40.62Z"/><path class="b" d="M42.23,31.24c4.51,0,7.11,1.7,8.31,4.62a12.15,12.15,0,0,1,.24,9,7.52,7.52,0,0,1-14.18.39,11.65,11.65,0,0,1,.3-9.86C38.22,32.65,40.52,31.26,42.23,31.24Z"/><path class="b" d="M58.79,50c-3.7,0-6-1.68-6.76-4.73-.31-1.3-.09-1.55,1.26-1.57.5,0,.71.18.78.64.55,3.57,5.14,4.16,7.39,2.8a2.69,2.69,0,0,0,1.36-2.55,2.62,2.62,0,0,0-1.64-2.26,16.2,16.2,0,0,0-2.89-.92,18.44,18.44,0,0,1-3-1,4.44,4.44,0,0,1-2.82-4.58,4.65,4.65,0,0,1,3.15-4.2,7.6,7.6,0,0,1,5.55.09,5,5,0,0,1,3.17,4c.07.4.14.9-.43.86s-1.33.65-1.67-.35a5.38,5.38,0,0,0-.63-1.53c-1.26-1.76-5-2-6.4-.34a2.25,2.25,0,0,0,.66,3.63,15.61,15.61,0,0,0,2.3.79c1.06.33,2.15.57,3.19.95A4.89,4.89,0,0,1,65,44.75a5.38,5.38,0,0,1-4.26,5.09A6.61,6.61,0,0,1,58.79,50Z"/><path class="b" d="M22.93,39.47c-1.63,0-3,0-4.35,0-.82,0-1.17-.19-1.16-1.09,0-1.85,0-1.85,1.86-1.85,2.28,0,4.56,0,6.84,0,.92,0,1.16.31,1.16,1.18a3.44,3.44,0,0,1-.82,2.4c-1.51,1.8-2.94,3.66-4.4,5.5l-.75,1a4,4,0,0,0,1.55.11c1.2,0,2.41,0,3.62,0a1.47,1.47,0,0,1,.67.05c1,.58.32,1.52.47,2.29.1.52-.2.78-.73.78q-4.61,0-9.19,0c-.53,0-.75-.26-.78-.78a4.05,4.05,0,0,1,.91-3.16C19.54,43.87,21.12,41.76,22.93,39.47Z"/><path class="b" d="M29.91,50c-.71.08-.89-.17-.73-.79Q31.39,40.6,33.54,32c.18-.75.69-.8,1.26-.69.79.14.38.71.28,1.08-1.38,5.57-2.79,11.13-4.19,16.69C30.75,49.61,30.64,50.2,29.91,50Z"/><path class="c" d="M38,40.7a9.82,9.82,0,0,1,.6-3.84,5,5,0,0,1,4.45-3.46,4.83,4.83,0,0,1,5.19,2.88,9.84,9.84,0,0,1,.06,8.62,4.83,4.83,0,0,1-4.83,3,5.19,5.19,0,0,1-4.7-3.14A8.07,8.07,0,0,1,38,40.7Z"/></svg>