<?xml version="1.0" encoding="UTF-8" standalone="no"?>
<!DOCTYPE svg PUBLIC "-//W3C//DTD SVG 1.1//EN" "http://www.w3.org/Graphics/SVG/1.1/DTD/svg11.dtd">
<svg version="1.1" xmlns="http://www.w3.org/2000/svg" xmlns:xlink="http://www.w3.org/1999/xlink" preserveAspectRatio="xMidYMid meet" viewBox="0 0 640 640" width="640" height="640"><defs><path d="M21.28 418.34C-32.64 253.08 57.53 75.43 222.67 21.53C387.81 -32.35 565.4 57.92 619.32 223.19C673.26 388.43 583.09 566.08 417.95 619.98C252.8 673.87 75.21 583.58 21.28 418.34Z" id="a3aqtMzoR"></path><path d="M21.28 418.34C-32.64 253.08 57.53 75.43 222.67 21.53C387.81 -32.35 565.4 57.92 619.32 223.19C673.26 388.43 583.09 566.08 417.95 619.98C252.8 673.87 75.21 583.58 21.28 418.34Z" id="fechjeIwd"></path><path d="M21.28 418.34C-32.64 253.08 57.53 75.43 222.67 21.53C387.81 -32.35 565.4 57.92 619.32 223.19C673.26 388.43 583.09 566.08 417.95 619.98C252.8 673.87 75.21 583.58 21.28 418.34Z" id="cRCsZuJcP"></path><path d="M21.28 418.34C-32.64 253.08 57.53 75.43 222.67 21.53C387.81 -32.35 565.4 57.92 619.32 223.19C673.26 388.43 583.09 566.08 417.95 619.98C252.8 673.87 75.21 583.58 21.28 418.34Z" id="cuqw7HxzY"></path><path d="M156.18 460.54L156.18 141.46L484.55 141.46L484.55 460.54L156.18 460.54ZM167.16 444.61L473.69 444.61L473.69 157.49L167.16 157.49L167.16 444.61Z" id="l55bHrJdXy"></path><path d="M156.18 460.54L156.18 141.46L484.55 141.46L484.55 460.54L156.18 460.54ZM167.16 444.61L473.69 444.61L473.69 157.49L167.16 157.49L167.16 444.61Z" id="c1oJCryw59"></path><path d="M156.18 460.54L156.18 141.46L484.55 141.46L484.55 460.54L156.18 460.54ZM167.16 444.61L473.69 444.61L473.69 157.49L167.16 157.49L167.16 444.61Z" id="h2018AeRF4"></path><path d="M156.18 460.54L156.18 141.46L484.55 141.46L484.55 460.54L156.18 460.54ZM167.16 444.61L473.69 444.61L473.69 157.49L167.16 157.49L167.16 444.61Z" id="jwMhKiK3i"></path><path d="M436.24 210.86C436.24 210.86 436.24 210.86 436.24 210.86C291.55 210.86 211.18 210.86 195.11 210.86C195.11 210.86 195.11 210.86 195.11 210.86C195.11 190.92 195.11 179.85 195.11 177.63C195.11 177.63 195.11 177.63 195.11 177.63C339.79 177.63 420.17 177.63 436.24 177.63C436.24 177.63 436.24 177.63 436.24 177.63C436.24 197.57 436.24 208.65 436.24 210.86Z" id="f4a7DPtCB3"></path><path d="M436.24 210.86C436.24 210.86 436.24 210.86 436.24 210.86C291.55 210.86 211.18 210.86 195.11 210.86C195.11 210.86 195.11 210.86 195.11 210.86C195.11 190.92 195.11 179.85 195.11 177.63C195.11 177.63 195.11 177.63 195.11 177.63C339.79 177.63 420.17 177.63 436.24 177.63C436.24 177.63 436.24 177.63 436.24 177.63C436.24 197.57 436.24 208.65 436.24 210.86Z" id="ijuPDX0oA"></path><path d="M436.24 210.86C436.24 210.86 436.24 210.86 436.24 210.86C291.55 210.86 211.18 210.86 195.11 210.86C195.11 210.86 195.11 210.86 195.11 210.86C195.11 190.92 195.11 179.85 195.11 177.63C195.11 177.63 195.11 177.63 195.11 177.63C339.79 177.63 420.17 177.63 436.24 177.63C436.24 177.63 436.24 177.63 436.24 177.63C436.24 197.57 436.24 208.65 436.24 210.86Z" id="a9t5Cgdo8"></path><path d="M436.24 210.86C436.24 210.86 436.24 210.86 436.24 210.86C291.55 210.86 211.18 210.86 195.11 210.86C195.11 210.86 195.11 210.86 195.11 210.86C195.11 190.92 195.11 179.85 195.11 177.63C195.11 177.63 195.11 177.63 195.11 177.63C339.79 177.63 420.17 177.63 436.24 177.63C436.24 177.63 436.24 177.63 436.24 177.63C436.24 197.57 436.24 208.65 436.24 210.86Z" id="eLrBHkiDC"></path><path d="M238.78 415.92C238.78 415.92 238.78 415.92 238.78 415.92C212.57 415.92 198.02 415.92 195.11 415.92C195.11 415.92 195.11 415.92 195.11 415.92C195.11 308.27 195.11 248.46 195.11 236.5C195.11 236.5 195.11 236.5 195.11 236.5C221.3 236.5 235.87 236.5 238.78 236.5C238.78 236.5 238.78 236.5 238.78 236.5C238.78 344.15 238.78 403.96 238.78 415.92Z" id="a17WQ1Be3k"></path><path d="M238.78 415.92C238.78 415.92 238.78 415.92 238.78 415.92C212.57 415.92 198.02 415.92 195.11 415.92C195.11 415.92 195.11 415.92 195.11 415.92C195.11 308.27 195.11 248.46 195.11 236.5C195.11 236.5 195.11 236.5 195.11 236.5C221.3 236.5 235.87 236.5 238.78 236.5C238.78 236.5 238.78 236.5 238.78 236.5C238.78 344.15 238.78 403.96 238.78 415.92Z" id="fMf4PxT8q"></path><path d="M238.78 415.92C238.78 415.92 238.78 415.92 238.78 415.92C212.57 415.92 198.02 415.92 195.11 415.92C195.11 415.92 195.11 415.92 195.11 415.92C195.11 308.27 195.11 248.46 195.11 236.5C195.11 236.5 195.11 236.5 195.11 236.5C221.3 236.5 235.87 236.5 238.78 236.5C238.78 236.5 238.78 236.5 238.78 236.5C238.78 344.15 238.78 403.96 238.78 415.92Z" id="b7fRibLyI0"></path><path d="M238.78 415.92C238.78 415.92 238.78 415.92 238.78 415.92C212.57 415.92 198.02 415.92 195.11 415.92C195.11 415.92 195.11 415.92 195.11 415.92C195.11 308.27 195.11 248.46 195.11 236.5C195.11 236.5 195.11 236.5 195.11 236.5C221.3 236.5 235.87 236.5 238.78 236.5C238.78 236.5 238.78 236.5 238.78 236.5C238.78 344.15 238.78 403.96 238.78 415.92Z" id="c1SFsWhiAD"></path><path d="M436.24 270.67C436.24 270.67 436.24 270.67 436.24 270.67C335.98 270.67 280.3 270.67 269.15 270.67C269.15 270.67 269.15 270.67 269.15 270.67C269.15 250.17 269.15 238.76 269.15 236.5C269.15 236.5 269.15 236.5 269.15 236.5C369.41 236.5 425.09 236.5 436.24 236.5C436.24 236.5 436.24 236.5 436.24 236.5C436.24 257 436.24 268.39 436.24 270.67Z" id="e1sxLzxlhe"></path><path d="M436.24 270.67C436.24 270.67 436.24 270.67 436.24 270.67C335.98 270.67 280.3 270.67 269.15 270.67C269.15 270.67 269.15 270.67 269.15 270.67C269.15 250.17 269.15 238.76 269.15 236.5C269.15 236.5 269.15 236.5 269.15 236.5C369.41 236.5 425.09 236.5 436.24 236.5C436.24 236.5 436.24 236.5 436.24 236.5C436.24 257 436.24 268.39 436.24 270.67Z" id="ajF3dXTR3"></path><path d="M436.24 270.67C436.24 270.67 436.24 270.67 436.24 270.67C335.98 270.67 280.3 270.67 269.15 270.67C269.15 270.67 269.15 270.67 269.15 270.67C269.15 250.17 269.15 238.76 269.15 236.5C269.15 236.5 269.15 236.5 269.15 236.5C369.41 236.5 425.09 236.5 436.24 236.5C436.24 236.5 436.24 236.5 436.24 236.5C436.24 257 436.24 268.39 436.24 270.67Z" id="k8NpAyiim"></path><path d="M436.24 270.67C436.24 270.67 436.24 270.67 436.24 270.67C335.98 270.67 280.3 270.67 269.15 270.67C269.15 270.67 269.15 270.67 269.15 270.67C269.15 250.17 269.15 238.76 269.15 236.5C269.15 236.5 269.15 236.5 269.15 236.5C369.41 236.5 425.09 236.5 436.24 236.5C436.24 236.5 436.24 236.5 436.24 236.5C436.24 257 436.24 268.39 436.24 270.67Z" id="dInzt0SuP"></path><path d="M436.24 318.13C436.24 318.13 436.24 318.13 436.24 318.13C335.98 318.13 280.3 318.13 269.15 318.13C269.15 318.13 269.15 318.13 269.15 318.13C269.15 297.63 269.15 286.24 269.15 283.95C269.15 283.95 269.15 283.95 269.15 283.95C369.41 283.95 425.09 283.95 436.24 283.95C436.24 283.95 436.24 283.95 436.24 283.95C436.24 304.46 436.24 315.86 436.24 318.13Z" id="bQrEMw5Un"></path><path d="M436.24 318.13C436.24 318.13 436.24 318.13 436.24 318.13C335.98 318.13 280.3 318.13 269.15 318.13C269.15 318.13 269.15 318.13 269.15 318.13C269.15 297.63 269.15 286.24 269.15 283.95C269.15 283.95 269.15 283.95 269.15 283.95C369.41 283.95 425.09 283.95 436.24 283.95C436.24 283.95 436.24 283.95 436.24 283.95C436.24 304.46 436.24 315.86 436.24 318.13Z" id="cGrv7GhD"></path><path d="M436.24 318.13C436.24 318.13 436.24 318.13 436.24 318.13C335.98 318.13 280.3 318.13 269.15 318.13C269.15 318.13 269.15 318.13 269.15 318.13C269.15 297.63 269.15 286.24 269.15 283.95C269.15 283.95 269.15 283.95 269.15 283.95C369.41 283.95 425.09 283.95 436.24 283.95C436.24 283.95 436.24 283.95 436.24 283.95C436.24 304.46 436.24 315.86 436.24 318.13Z" id="f5ps1NBWNV"></path><path d="M436.24 318.13C436.24 318.13 436.24 318.13 436.24 318.13C335.98 318.13 280.3 318.13 269.15 318.13C269.15 318.13 269.15 318.13 269.15 318.13C269.15 297.63 269.15 286.24 269.15 283.95C269.15 283.95 269.15 283.95 269.15 283.95C369.41 283.95 425.09 283.95 436.24 283.95C436.24 283.95 436.24 283.95 436.24 283.95C436.24 304.46 436.24 315.86 436.24 318.13Z" id="aoUyEzsm8"></path><path d="M436.24 366.87C436.24 366.87 436.24 366.87 436.24 366.87C335.98 366.87 280.3 366.87 269.15 366.87C269.15 366.87 269.15 366.87 269.15 366.87C269.15 346.37 269.15 334.97 269.15 332.7C269.15 332.7 269.15 332.7 269.15 332.7C369.41 332.7 425.09 332.7 436.24 332.7C436.24 332.7 436.24 332.7 436.24 332.7C436.24 353.2 436.24 364.59 436.24 366.87Z" id="a2ypB2VgYW"></path><path d="M436.24 366.87C436.24 366.87 436.24 366.87 436.24 366.87C335.98 366.87 280.3 366.87 269.15 366.87C269.15 366.87 269.15 366.87 269.15 366.87C269.15 346.37 269.15 334.97 269.15 332.7C269.15 332.7 269.15 332.7 269.15 332.7C369.41 332.7 425.09 332.7 436.24 332.7C436.24 332.7 436.24 332.7 436.24 332.7C436.24 353.2 436.24 364.59 436.24 366.87Z" id="amXGRg2fs"></path><path d="M436.24 366.87C436.24 366.87 436.24 366.87 436.24 366.87C335.98 366.87 280.3 366.87 269.15 366.87C269.15 366.87 269.15 366.87 269.15 366.87C269.15 346.37 269.15 334.97 269.15 332.7C269.15 332.7 269.15 332.7 269.15 332.7C369.41 332.7 425.09 332.7 436.24 332.7C436.24 332.7 436.24 332.7 436.24 332.7C436.24 353.2 436.24 364.59 436.24 366.87Z" id="cSXOEBaOL"></path><path d="M436.24 366.87C436.24 366.87 436.24 366.87 436.24 366.87C335.98 366.87 280.3 366.87 269.15 366.87C269.15 366.87 269.15 366.87 269.15 366.87C269.15 346.37 269.15 334.97 269.15 332.7C269.15 332.7 269.15 332.7 269.15 332.7C369.41 332.7 425.09 332.7 436.24 332.7C436.24 332.7 436.24 332.7 436.24 332.7C436.24 353.2 436.24 364.59 436.24 366.87Z" id="c1gVeL35PP"></path><path d="M436.24 413.81C436.24 413.81 436.24 413.81 436.24 413.81C335.98 413.81 280.3 413.81 269.15 413.81C269.15 413.81 269.15 413.81 269.15 413.81C269.15 393.31 269.15 381.9 269.15 379.63C269.15 379.63 269.15 379.63 269.15 379.63C369.41 379.63 425.09 379.63 436.24 379.63C436.24 379.63 436.24 379.63 436.24 379.63C436.24 400.14 436.24 411.53 436.24 413.81Z" id="a1T5dgIrKe"></path><path d="M436.24 413.81C436.24 413.81 436.24 413.81 436.24 413.81C335.98 413.81 280.3 413.81 269.15 413.81C269.15 413.81 269.15 413.81 269.15 413.81C269.15 393.31 269.15 381.9 269.15 379.63C269.15 379.63 269.15 379.63 269.15 379.63C369.41 379.63 425.09 379.63 436.24 379.63C436.24 379.63 436.24 379.63 436.24 379.63C436.24 400.14 436.24 411.53 436.24 413.81Z" id="eiInsM7hR"></path><path d="M436.24 413.81C436.24 413.81 436.24 413.81 436.24 413.81C335.98 413.81 280.3 413.81 269.15 413.81C269.15 413.81 269.15 413.81 269.15 413.81C269.15 393.31 269.15 381.9 269.15 379.63C269.15 379.63 269.15 379.63 269.15 379.63C369.41 379.63 425.09 379.63 436.24 379.63C436.24 379.63 436.24 379.63 436.24 379.63C436.24 400.14 436.24 411.53 436.24 413.81Z" id="b55AAW2O8B"></path><path d="M436.24 413.81C436.24 413.81 436.24 413.81 436.24 413.81C335.98 413.81 280.3 413.81 269.15 413.81C269.15 413.81 269.15 413.81 269.15 413.81C269.15 393.31 269.15 381.9 269.15 379.63C269.15 379.63 269.15 379.63 269.15 379.63C369.41 379.63 425.09 379.63 436.24 379.63C436.24 379.63 436.24 379.63 436.24 379.63C436.24 400.14 436.24 411.53 436.24 413.81Z" id="c61Yjp9b4i"></path></defs><g><g><g><use xlink:href="#a3aqtMzoR" opacity="1" fill="#bf6328" fill-opacity="1"></use><g><use xlink:href="#a3aqtMzoR" opacity="1" fill-opacity="0" stroke="#000000" stroke-width="1" stroke-opacity="0"></use></g></g><g><use xlink:href="#fechjeIwd" opacity="1" fill="#000000" fill-opacity="0"></use><g><use xlink:href="#fechjeIwd" opacity="1" fill-opacity="0" stroke="#000000" stroke-width="1" stroke-opacity="0"></use></g></g><g><use xlink:href="#cRCsZuJcP" opacity="1" fill="#000000" fill-opacity="0"></use><g><use xlink:href="#cRCsZuJcP" opacity="1" fill-opacity="0" stroke="#000000" stroke-width="1" stroke-opacity="0"></use></g></g><g><use xlink:href="#cuqw7HxzY" opacity="1" fill="#000000" fill-opacity="0"></use><g><use xlink:href="#cuqw7HxzY" opacity="1" fill-opacity="0" stroke="#000000" stroke-width="1" stroke-opacity="0"></use></g></g><g><use xlink:href="#l55bHrJdXy" opacity="1" fill="#ffffff" fill-opacity="1"></use><g><use xlink:href="#l55bHrJdXy" opacity="1" fill-opacity="0" stroke="#000000" stroke-width="1" stroke-opacity="0"></use></g></g><g><use xlink:href="#c1oJCryw59" opacity="1" fill="#000000" fill-opacity="0"></use><g><use xlink:href="#c1oJCryw59" opacity="1" fill-opacity="0" stroke="#000000" stroke-width="1" stroke-opacity="0"></use></g></g><g><use xlink:href="#h2018AeRF4" opacity="1" fill="#000000" fill-opacity="0"></use><g><use xlink:href="#h2018AeRF4" opacity="1" fill-opacity="0" stroke="#000000" stroke-width="1" stroke-opacity="0"></use></g></g><g><use xlink:href="#jwMhKiK3i" opacity="1" fill="#000000" fill-opacity="0"></use><g><use xlink:href="#jwMhKiK3i" opacity="1" fill-opacity="0" stroke="#000000" stroke-width="1" stroke-opacity="0"></use></g></g><g><use xlink:href="#f4a7DPtCB3" opacity="1" fill="#000000" fill-opacity="0"></use><g><use xlink:href="#f4a7DPtCB3" opacity="1" fill-opacity="0" stroke="#000000" stroke-width="1" stroke-opacity="0"></use></g></g><g><use xlink:href="#ijuPDX0oA" opacity="1" fill="#000000" fill-opacity="0"></use><g><use xlink:href="#ijuPDX0oA" opacity="1" fill-opacity="0" stroke="#000000" stroke-width="1" stroke-opacity="0"></use></g></g><g><use xlink:href="#a9t5Cgdo8" opacity="1" fill="#000000" fill-opacity="0"></use><g><use xlink:href="#a9t5Cgdo8" opacity="1" fill-opacity="0" stroke="#000000" stroke-width="1" stroke-opacity="0"></use></g></g><g><use xlink:href="#eLrBHkiDC" opacity="1" fill="#000000" fill-opacity="0"></use><g><use xlink:href="#eLrBHkiDC" opacity="1" fill-opacity="0" stroke="#ffffff" stroke-width="1" stroke-opacity="1"></use></g></g><g><use xlink:href="#a17WQ1Be3k" opacity="1" fill="#000000" fill-opacity="0"></use><g><use xlink:href="#a17WQ1Be3k" opacity="1" fill-opacity="0" stroke="#000000" stroke-width="1" stroke-opacity="0"></use></g></g><g><use xlink:href="#fMf4PxT8q" opacity="1" fill="#000000" fill-opacity="0"></use><g><use xlink:href="#fMf4PxT8q" opacity="1" fill-opacity="0" stroke="#000000" stroke-width="1" stroke-opacity="0"></use></g></g><g><use xlink:href="#b7fRibLyI0" opacity="1" fill="#000000" fill-opacity="0"></use><g><use xlink:href="#b7fRibLyI0" opacity="1" fill-opacity="0" stroke="#000000" stroke-width="1" stroke-opacity="0"></use></g></g><g><use xlink:href="#c1SFsWhiAD" opacity="1" fill="#000000" fill-opacity="0"></use><g><use xlink:href="#c1SFsWhiAD" opacity="1" fill-opacity="0" stroke="#ffffff" stroke-width="1" stroke-opacity="1"></use></g></g><g><use xlink:href="#e1sxLzxlhe" opacity="1" fill="#000000" fill-opacity="0"></use><g><use xlink:href="#e1sxLzxlhe" opacity="1" fill-opacity="0" stroke="#000000" stroke-width="1" stroke-opacity="0"></use></g></g><g><use xlink:href="#ajF3dXTR3" opacity="1" fill="#000000" fill-opacity="0"></use><g><use xlink:href="#ajF3dXTR3" opacity="1" fill-opacity="0" stroke="#000000" stroke-width="1" stroke-opacity="0"></use></g></g><g><use xlink:href="#k8NpAyiim" opacity="1" fill="#000000" fill-opacity="0"></use><g><use xlink:href="#k8NpAyiim" opacity="1" fill-opacity="0" stroke="#000000" stroke-width="1" stroke-opacity="0"></use></g></g><g><use xlink:href="#dInzt0SuP" opacity="1" fill="#000000" fill-opacity="0"></use><g><use xlink:href="#dInzt0SuP" opacity="1" fill-opacity="0" stroke="#ffffff" stroke-width="1" stroke-opacity="1"></use></g></g><g><use xlink:href="#bQrEMw5Un" opacity="1" fill="#000000" fill-opacity="0"></use><g><use xlink:href="#bQrEMw5Un" opacity="1" fill-opacity="0" stroke="#000000" stroke-width="1" stroke-opacity="0"></use></g></g><g><use xlink:href="#cGrv7GhD" opacity="1" fill="#000000" fill-opacity="0"></use><g><use xlink:href="#cGrv7GhD" opacity="1" fill-opacity="0" stroke="#000000" stroke-width="1" stroke-opacity="0"></use></g></g><g><use xlink:href="#f5ps1NBWNV" opacity="1" fill="#000000" fill-opacity="0"></use><g><use xlink:href="#f5ps1NBWNV" opacity="1" fill-opacity="0" stroke="#000000" stroke-width="1" stroke-opacity="0"></use></g></g><g><use xlink:href="#aoUyEzsm8" opacity="1" fill="#000000" fill-opacity="0"></use><g><use xlink:href="#aoUyEzsm8" opacity="1" fill-opacity="0" stroke="#ffffff" stroke-width="1" stroke-opacity="1"></use></g></g><g><use xlink:href="#a2ypB2VgYW" opacity="1" fill="#000000" fill-opacity="0"></use><g><use xlink:href="#a2ypB2VgYW" opacity="1" fill-opacity="0" stroke="#000000" stroke-width="1" stroke-opacity="0"></use></g></g><g><use xlink:href="#amXGRg2fs" opacity="1" fill="#000000" fill-opacity="0"></use><g><use xlink:href="#amXGRg2fs" opacity="1" fill-opacity="0" stroke="#000000" stroke-width="1" stroke-opacity="0"></use></g></g><g><use xlink:href="#cSXOEBaOL" opacity="1" fill="#000000" fill-opacity="0"></use><g><use xlink:href="#cSXOEBaOL" opacity="1" fill-opacity="0" stroke="#000000" stroke-width="1" stroke-opacity="0"></use></g></g><g><use xlink:href="#c1gVeL35PP" opacity="1" fill="#000000" fill-opacity="0"></use><g><use xlink:href="#c1gVeL35PP" opacity="1" fill-opacity="0" stroke="#ffffff" stroke-width="1" stroke-opacity="1"></use></g></g><g><use xlink:href="#a1T5dgIrKe" opacity="1" fill="#000000" fill-opacity="0"></use><g><use xlink:href="#a1T5dgIrKe" opacity="1" fill-opacity="0" stroke="#000000" stroke-width="1" stroke-opacity="0"></use></g></g><g><use xlink:href="#eiInsM7hR" opacity="1" fill="#000000" fill-opacity="0"></use><g><use xlink:href="#eiInsM7hR" opacity="1" fill-opacity="0" stroke="#000000" stroke-width="1" stroke-opacity="0"></use></g></g><g><use xlink:href="#b55AAW2O8B" opacity="1" fill="#000000" fill-opacity="0"></use><g><use xlink:href="#b55AAW2O8B" opacity="1" fill-opacity="0" stroke="#000000" stroke-width="1" stroke-opacity="0"></use></g></g><g><use xlink:href="#c61Yjp9b4i" opacity="1" fill="#000000" fill-opacity="0"></use><g><use xlink:href="#c61Yjp9b4i" opacity="1" fill-opacity="0" stroke="#ffffff" stroke-width="1" stroke-opacity="1"></use></g></g></g></g></svg>