<?xml version="1.0" encoding="UTF-8" standalone="no"?>
<!DOCTYPE svg PUBLIC "-//W3C//DTD SVG 1.1//EN" "http://www.w3.org/Graphics/SVG/1.1/DTD/svg11.dtd">
<svg version="1.1" xmlns="http://www.w3.org/2000/svg" xmlns:xlink="http://www.w3.org/1999/xlink" preserveAspectRatio="xMidYMid meet" viewBox="0 0 640 640" width="640" height="640"><defs><path d="M640 321.75C639.79 496.19 498.14 637.44 323.64 637.23C149.12 637.01 7.82 495.43 8.03 320.97C8.24 146.52 149.89 5.29 324.41 5.5C498.92 5.71 640.21 147.3 640 321.75Z" id="a45qt9sQsO"></path><path d="M640 321.75C639.79 496.19 498.14 637.44 323.64 637.23C149.12 637.01 7.82 495.43 8.03 320.97C8.24 146.52 149.89 5.29 324.41 5.5C498.92 5.71 640.21 147.3 640 321.75Z" id="h1jCSeidVV"></path><path d="M640 321.75C639.79 496.19 498.14 637.44 323.64 637.23C149.12 637.01 7.82 495.43 8.03 320.97C8.24 146.52 149.89 5.29 324.41 5.5C498.92 5.71 640.21 147.3 640 321.75Z" id="a2QWS9qgmS"></path><path d="M640 321.75C639.79 496.19 498.14 637.44 323.64 637.23C149.12 637.01 7.82 495.43 8.03 320.97C8.24 146.52 149.89 5.29 324.41 5.5C498.92 5.71 640.21 147.3 640 321.75Z" id="a1cTuqeKKl"></path><path d="M528.43 212.85L528.43 471.2L120.51 471.2L120.51 172.06L283.47 172.06L283.47 212.85L528.43 212.85ZM133.89 457.39L514.41 457.39L514.41 253.54L133.89 253.54L133.89 457.39Z" id="h1l3PhTnCL"></path><path d="M528.43 212.85L528.43 471.2L120.51 471.2L120.51 172.06L283.47 172.06L283.47 212.85L528.43 212.85ZM133.89 457.39L514.41 457.39L514.41 253.54L133.89 253.54L133.89 457.39Z" id="aRAe38fjK"></path><path d="M528.43 212.85L528.43 471.2L120.51 471.2L120.51 172.06L283.47 172.06L283.47 212.85L528.43 212.85ZM133.89 457.39L514.41 457.39L514.41 253.54L133.89 253.54L133.89 457.39Z" id="cpLQ05x8"></path><path d="M528.43 212.85L528.43 471.2L120.51 471.2L120.51 172.06L283.47 172.06L283.47 212.85L528.43 212.85ZM133.89 457.39L514.41 457.39L514.41 253.54L133.89 253.54L133.89 457.39Z" id="d23jh7VQm"></path><path d="M337.57 282.7L340.44 283.29L343.29 283.97L346.09 284.77L348.85 285.66L351.58 286.67L354.24 287.78L356.87 288.99L359.44 290.28L361.96 291.69L364.4 293.18L366.81 294.78L369.14 296.45L371.41 298.22L373.62 300.06L375.73 302L377.8 304.02L379.77 306.11L381.68 308.28L383.5 310.54L385.23 312.86L386.87 315.25L388.43 317.72L389.9 320.26L391.26 322.84L392.53 325.5L393.69 328.23L394.76 331L395.71 333.85L396.56 336.73L397.29 339.69L397.92 342.68L398.41 345.73L408.25 345.73L408.38 345.85L408.49 345.96L408.61 346.09L408.72 346.22L408.84 346.35L408.93 346.47L409.05 346.6L409.13 346.73L409.23 346.87L409.32 347L409.4 347.14L409.49 347.28L409.56 347.41L409.63 347.55L409.7 347.7L409.76 347.84L409.82 347.98L409.86 348.12L409.9 348.27L409.93 348.41L409.97 348.55L409.99 348.69L410 348.83L410.02 348.98L410.03 349.12L410.02 349.27L410.02 349.42L410 349.55L409.97 349.69L409.94 349.83L409.9 349.97L409.86 350.11L409.8 350.24L409.75 350.38L409.67 350.51L409.59 350.65L409.5 350.78L409.4 350.91L409.3 351.04L409.19 351.17L389.11 371.46L388.99 371.58L388.86 371.68L388.72 371.8L388.59 371.9L388.45 371.98L388.3 372.08L388.16 372.15L388.01 372.24L387.86 372.29L387.71 372.37L387.55 372.42L387.41 372.47L387.25 372.52L387.1 372.55L386.92 372.59L386.77 372.62L386.61 372.64L386.46 372.65L386.28 372.66L386.13 372.66L385.97 372.66L385.8 372.65L385.65 372.64L385.49 372.62L385.33 372.59L385.16 372.55L385.01 372.52L384.85 372.47L384.69 372.42L384.55 372.37L384.39 372.29L384.25 372.24L384.1 372.15L383.95 372.08L383.81 371.98L383.67 371.9L383.54 371.8L383.4 371.68L383.27 371.58L383.14 371.46L363.17 351.17L362.99 350.95L362.84 350.75L362.7 350.57L362.57 350.37L362.44 350.18L362.34 350.01L362.26 349.83L362.17 349.67L362.1 349.5L362.04 349.35L362 349.19L361.97 349.05L361.96 348.91L361.94 348.76L361.93 348.62L361.94 348.48L361.96 348.35L361.99 348.22L362.01 348.09L362.06 347.98L362.11 347.85L362.16 347.74L362.23 347.63L362.3 347.51L362.37 347.4L362.45 347.28L362.54 347.17L362.63 347.06L362.72 346.96L362.82 346.84L362.94 346.73L363.05 346.63L363.15 346.52L363.28 346.4L363.39 346.3L363.51 346.19L363.63 346.08L363.76 345.96L363.88 345.85L364 345.73L376.77 345.73L376.52 344.6L376.25 343.46L375.96 342.34L375.64 341.23L375.29 340.13L374.94 339.04L374.55 337.94L374.14 336.88L373.72 335.81L373.26 334.76L372.78 333.72L372.28 332.7L371.77 331.67L371.23 330.66L370.67 329.67L370.09 328.69L369.48 327.72L368.87 326.77L368.21 325.83L367.56 324.9L366.88 323.98L366.18 323.08L365.45 322.2L364.72 321.34L363.96 320.48L363.18 319.64L362.4 318.83L361.57 318.02L360.75 317.24L359.91 316.47L359.04 315.72L358.16 314.98L357.26 314.27L356.34 313.56L355.42 312.89L354.46 312.22L353.51 311.58L352.53 310.96L351.53 310.36L350.53 309.78L348.58 308.74L346.62 307.79L344.62 306.92L342.61 306.14L340.59 305.44L338.54 304.84L336.49 304.32L334.43 303.88L332.37 303.52L330.29 303.24L328.22 303.05L326.14 302.94L324.06 302.91L322 302.97L319.94 303.09L317.89 303.31L315.85 303.59L313.83 303.96L311.82 304.4L309.83 304.91L307.86 305.51L305.92 306.18L304 306.92L302.11 307.73L300.25 308.62L298.41 309.58L296.62 310.61L294.87 311.72L293.15 312.89L291.49 314.14L289.85 315.45L288.28 316.83L286.74 318.28L285.26 319.79L283.84 321.38L282.48 323.01L281.17 324.73L279.92 326.51L278.74 328.35L277.61 330.25L257.52 322.52L258.38 320.89L259.26 319.3L260.18 317.74L261.13 316.2L262.11 314.68L263.14 313.2L264.19 311.75L265.29 310.32L266.39 308.92L267.55 307.56L268.74 306.21L269.95 304.9L271.19 303.62L272.47 302.38L273.76 301.16L275.08 299.98L276.43 298.83L277.83 297.7L279.22 296.62L280.66 295.57L282.11 294.55L283.58 293.57L285.09 292.61L286.61 291.7L288.16 290.82L289.74 289.98L291.32 289.19L292.94 288.42L294.56 287.69L296.21 287L297.87 286.36L299.57 285.73L301.26 285.16L302.98 284.64L304.71 284.14L306.46 283.7L308.23 283.29L310 282.92L311.79 282.59L313.6 282.31L316.66 281.92L319.71 281.68L322.74 281.55L325.76 281.54L328.76 281.65L331.71 281.89L334.66 282.23L337.57 282.7Z" id="iwNsdqUtk"></path><path d="M337.57 282.7L340.44 283.29L343.29 283.97L346.09 284.77L348.85 285.66L351.58 286.67L354.24 287.78L356.87 288.99L359.44 290.28L361.96 291.69L364.4 293.18L366.81 294.78L369.14 296.45L371.41 298.22L373.62 300.06L375.73 302L377.8 304.02L379.77 306.11L381.68 308.28L383.5 310.54L385.23 312.86L386.87 315.25L388.43 317.72L389.9 320.26L391.26 322.84L392.53 325.5L393.69 328.23L394.76 331L395.71 333.85L396.56 336.73L397.29 339.69L397.92 342.68L398.41 345.73L408.25 345.73L408.38 345.85L408.49 345.96L408.61 346.09L408.72 346.22L408.84 346.35L408.93 346.47L409.05 346.6L409.13 346.73L409.23 346.87L409.32 347L409.4 347.14L409.49 347.28L409.56 347.41L409.63 347.55L409.7 347.7L409.76 347.84L409.82 347.98L409.86 348.12L409.9 348.27L409.93 348.41L409.97 348.55L409.99 348.69L410 348.83L410.02 348.98L410.03 349.12L410.02 349.27L410.02 349.42L410 349.55L409.97 349.69L409.94 349.83L409.9 349.97L409.86 350.11L409.8 350.24L409.75 350.38L409.67 350.51L409.59 350.65L409.5 350.78L409.4 350.91L409.3 351.04L409.19 351.17L389.11 371.46L388.99 371.58L388.86 371.68L388.72 371.8L388.59 371.9L388.45 371.98L388.3 372.08L388.16 372.15L388.01 372.24L387.86 372.29L387.71 372.37L387.55 372.42L387.41 372.47L387.25 372.52L387.1 372.55L386.92 372.59L386.77 372.62L386.61 372.64L386.46 372.65L386.28 372.66L386.13 372.66L385.97 372.66L385.8 372.65L385.65 372.64L385.49 372.62L385.33 372.59L385.16 372.55L385.01 372.52L384.85 372.47L384.69 372.42L384.55 372.37L384.39 372.29L384.25 372.24L384.1 372.15L383.95 372.08L383.81 371.98L383.67 371.9L383.54 371.8L383.4 371.68L383.27 371.58L383.14 371.46L363.17 351.17L362.99 350.95L362.84 350.75L362.7 350.57L362.57 350.37L362.44 350.18L362.34 350.01L362.26 349.83L362.17 349.67L362.1 349.5L362.04 349.35L362 349.19L361.97 349.05L361.96 348.91L361.94 348.76L361.93 348.62L361.94 348.48L361.96 348.35L361.99 348.22L362.01 348.09L362.06 347.98L362.11 347.85L362.16 347.74L362.23 347.63L362.3 347.51L362.37 347.4L362.45 347.28L362.54 347.17L362.63 347.06L362.72 346.96L362.82 346.84L362.94 346.73L363.05 346.63L363.15 346.52L363.28 346.4L363.39 346.3L363.51 346.19L363.63 346.08L363.76 345.96L363.88 345.85L364 345.73L376.77 345.73L376.52 344.6L376.25 343.46L375.96 342.34L375.64 341.23L375.29 340.13L374.94 339.04L374.55 337.94L374.14 336.88L373.72 335.81L373.26 334.76L372.78 333.72L372.28 332.7L371.77 331.67L371.23 330.66L370.67 329.67L370.09 328.69L369.48 327.72L368.87 326.77L368.21 325.83L367.56 324.9L366.88 323.98L366.18 323.08L365.45 322.2L364.72 321.34L363.96 320.48L363.18 319.64L362.4 318.83L361.57 318.02L360.75 317.24L359.91 316.47L359.04 315.72L358.16 314.98L357.26 314.27L356.34 313.56L355.42 312.89L354.46 312.22L353.51 311.58L352.53 310.96L351.53 310.36L350.53 309.78L348.58 308.74L346.62 307.79L344.62 306.92L342.61 306.14L340.59 305.44L338.54 304.84L336.49 304.32L334.43 303.88L332.37 303.52L330.29 303.24L328.22 303.05L326.14 302.94L324.06 302.91L322 302.97L319.94 303.09L317.89 303.31L315.85 303.59L313.83 303.96L311.82 304.4L309.83 304.91L307.86 305.51L305.92 306.18L304 306.92L302.11 307.73L300.25 308.62L298.41 309.58L296.62 310.61L294.87 311.72L293.15 312.89L291.49 314.14L289.85 315.45L288.28 316.83L286.74 318.28L285.26 319.79L283.84 321.38L282.48 323.01L281.17 324.73L279.92 326.51L278.74 328.35L277.61 330.25L257.52 322.52L258.38 320.89L259.26 319.3L260.18 317.74L261.13 316.2L262.11 314.68L263.14 313.2L264.19 311.75L265.29 310.32L266.39 308.92L267.55 307.56L268.74 306.21L269.95 304.9L271.19 303.62L272.47 302.38L273.76 301.16L275.08 299.98L276.43 298.83L277.83 297.7L279.22 296.62L280.66 295.57L282.11 294.55L283.58 293.57L285.09 292.61L286.61 291.7L288.16 290.82L289.74 289.98L291.32 289.19L292.94 288.42L294.56 287.69L296.21 287L297.87 286.36L299.57 285.73L301.26 285.16L302.98 284.64L304.71 284.14L306.46 283.7L308.23 283.29L310 282.92L311.79 282.59L313.6 282.31L316.66 281.92L319.71 281.68L322.74 281.55L325.76 281.54L328.76 281.65L331.71 281.89L334.66 282.23L337.57 282.7Z" id="aAMWiO5uc"></path><path d="M337.57 282.7L340.44 283.29L343.29 283.97L346.09 284.77L348.85 285.66L351.58 286.67L354.24 287.78L356.87 288.99L359.44 290.28L361.96 291.69L364.4 293.18L366.81 294.78L369.14 296.45L371.41 298.22L373.62 300.06L375.73 302L377.8 304.02L379.77 306.11L381.68 308.28L383.5 310.54L385.23 312.86L386.87 315.25L388.43 317.72L389.9 320.26L391.26 322.84L392.53 325.5L393.69 328.23L394.76 331L395.71 333.85L396.56 336.73L397.29 339.69L397.92 342.68L398.41 345.73L408.25 345.73L408.38 345.85L408.49 345.96L408.61 346.09L408.72 346.22L408.84 346.35L408.93 346.47L409.05 346.6L409.13 346.73L409.23 346.87L409.32 347L409.4 347.14L409.49 347.28L409.56 347.41L409.63 347.55L409.7 347.7L409.76 347.84L409.82 347.98L409.86 348.12L409.9 348.27L409.93 348.41L409.97 348.55L409.99 348.69L410 348.83L410.02 348.98L410.03 349.12L410.02 349.27L410.02 349.42L410 349.55L409.97 349.69L409.94 349.83L409.9 349.97L409.86 350.11L409.8 350.24L409.75 350.38L409.67 350.51L409.59 350.65L409.5 350.78L409.4 350.91L409.3 351.04L409.19 351.17L389.11 371.46L388.99 371.58L388.86 371.68L388.72 371.8L388.59 371.9L388.45 371.98L388.3 372.08L388.16 372.15L388.01 372.24L387.86 372.29L387.71 372.37L387.55 372.42L387.41 372.47L387.25 372.52L387.1 372.55L386.92 372.59L386.77 372.62L386.61 372.64L386.46 372.65L386.28 372.66L386.13 372.66L385.97 372.66L385.8 372.65L385.65 372.64L385.49 372.62L385.33 372.59L385.16 372.55L385.01 372.52L384.85 372.47L384.69 372.42L384.55 372.37L384.39 372.29L384.25 372.24L384.1 372.15L383.95 372.08L383.81 371.98L383.67 371.9L383.54 371.8L383.4 371.68L383.27 371.58L383.14 371.46L363.17 351.17L362.99 350.95L362.84 350.75L362.7 350.57L362.57 350.37L362.44 350.18L362.34 350.01L362.26 349.83L362.17 349.67L362.1 349.5L362.04 349.35L362 349.19L361.97 349.05L361.96 348.91L361.94 348.76L361.93 348.62L361.94 348.48L361.96 348.35L361.99 348.22L362.01 348.09L362.06 347.98L362.11 347.85L362.16 347.74L362.23 347.63L362.3 347.51L362.37 347.4L362.45 347.28L362.54 347.17L362.63 347.06L362.72 346.96L362.82 346.84L362.94 346.73L363.05 346.63L363.15 346.52L363.28 346.4L363.39 346.3L363.51 346.19L363.63 346.08L363.76 345.96L363.88 345.85L364 345.73L376.77 345.73L376.52 344.6L376.25 343.46L375.96 342.34L375.64 341.23L375.29 340.13L374.94 339.04L374.55 337.94L374.14 336.88L373.72 335.81L373.26 334.76L372.78 333.72L372.28 332.7L371.77 331.67L371.23 330.66L370.67 329.67L370.09 328.69L369.48 327.72L368.87 326.77L368.21 325.83L367.56 324.9L366.88 323.98L366.18 323.08L365.45 322.2L364.72 321.34L363.96 320.48L363.18 319.64L362.4 318.83L361.57 318.02L360.75 317.24L359.91 316.47L359.04 315.72L358.16 314.98L357.26 314.27L356.34 313.56L355.42 312.89L354.46 312.22L353.51 311.58L352.53 310.96L351.53 310.36L350.53 309.78L348.58 308.74L346.62 307.79L344.62 306.92L342.61 306.14L340.59 305.44L338.54 304.84L336.49 304.32L334.43 303.88L332.37 303.52L330.29 303.24L328.22 303.05L326.14 302.94L324.06 302.91L322 302.97L319.94 303.09L317.89 303.31L315.85 303.59L313.83 303.96L311.82 304.4L309.83 304.91L307.86 305.51L305.92 306.18L304 306.92L302.11 307.73L300.25 308.62L298.41 309.58L296.62 310.61L294.87 311.72L293.15 312.89L291.49 314.14L289.85 315.45L288.28 316.83L286.74 318.28L285.26 319.79L283.84 321.38L282.48 323.01L281.17 324.73L279.92 326.51L278.74 328.35L277.61 330.25L257.52 322.52L258.38 320.89L259.26 319.3L260.18 317.74L261.13 316.2L262.11 314.68L263.14 313.2L264.19 311.75L265.29 310.32L266.39 308.92L267.55 307.56L268.74 306.21L269.95 304.9L271.19 303.62L272.47 302.38L273.76 301.16L275.08 299.98L276.43 298.83L277.83 297.7L279.22 296.62L280.66 295.57L282.11 294.55L283.58 293.57L285.09 292.61L286.61 291.7L288.16 290.82L289.74 289.98L291.32 289.19L292.94 288.42L294.56 287.69L296.21 287L297.87 286.36L299.57 285.73L301.26 285.16L302.98 284.64L304.71 284.14L306.46 283.7L308.23 283.29L310 282.92L311.79 282.59L313.6 282.31L316.66 281.92L319.71 281.68L322.74 281.55L325.76 281.54L328.76 281.65L331.71 281.89L334.66 282.23L337.57 282.7Z" id="a9X4rUhd7"></path><path d="M337.57 282.7L340.44 283.29L343.29 283.97L346.09 284.77L348.85 285.66L351.58 286.67L354.24 287.78L356.87 288.99L359.44 290.28L361.96 291.69L364.4 293.18L366.81 294.78L369.14 296.45L371.41 298.22L373.62 300.06L375.73 302L377.8 304.02L379.77 306.11L381.68 308.28L383.5 310.54L385.23 312.86L386.87 315.25L388.43 317.72L389.9 320.26L391.26 322.84L392.53 325.5L393.69 328.23L394.76 331L395.71 333.85L396.56 336.73L397.29 339.69L397.92 342.68L398.41 345.73L408.25 345.73L408.38 345.85L408.49 345.96L408.61 346.09L408.72 346.22L408.84 346.35L408.93 346.47L409.05 346.6L409.13 346.73L409.23 346.87L409.32 347L409.4 347.14L409.49 347.28L409.56 347.41L409.63 347.55L409.7 347.7L409.76 347.84L409.82 347.98L409.86 348.12L409.9 348.27L409.93 348.41L409.97 348.55L409.99 348.69L410 348.83L410.02 348.98L410.03 349.12L410.02 349.27L410.02 349.42L410 349.55L409.97 349.69L409.94 349.83L409.9 349.97L409.86 350.11L409.8 350.24L409.75 350.38L409.67 350.51L409.59 350.65L409.5 350.78L409.4 350.91L409.3 351.04L409.19 351.17L389.11 371.46L388.99 371.58L388.86 371.68L388.72 371.8L388.59 371.9L388.45 371.98L388.3 372.08L388.16 372.15L388.01 372.24L387.86 372.29L387.71 372.37L387.55 372.42L387.41 372.47L387.25 372.52L387.1 372.55L386.92 372.59L386.77 372.62L386.61 372.64L386.46 372.65L386.28 372.66L386.13 372.66L385.97 372.66L385.8 372.65L385.65 372.64L385.49 372.62L385.33 372.59L385.16 372.55L385.01 372.52L384.85 372.47L384.69 372.42L384.55 372.37L384.39 372.29L384.25 372.24L384.1 372.15L383.95 372.08L383.81 371.98L383.67 371.9L383.54 371.8L383.4 371.68L383.27 371.58L383.14 371.46L363.17 351.17L362.99 350.95L362.84 350.75L362.7 350.57L362.57 350.37L362.44 350.18L362.34 350.01L362.26 349.83L362.17 349.67L362.1 349.5L362.04 349.35L362 349.19L361.97 349.05L361.96 348.91L361.94 348.76L361.93 348.62L361.94 348.48L361.96 348.35L361.99 348.22L362.01 348.09L362.06 347.98L362.11 347.85L362.16 347.74L362.23 347.63L362.3 347.51L362.37 347.4L362.45 347.28L362.54 347.17L362.63 347.06L362.72 346.96L362.82 346.84L362.94 346.73L363.05 346.63L363.15 346.52L363.28 346.4L363.39 346.3L363.51 346.19L363.63 346.08L363.76 345.96L363.88 345.85L364 345.73L376.77 345.73L376.52 344.6L376.25 343.46L375.96 342.34L375.64 341.23L375.29 340.13L374.94 339.04L374.55 337.94L374.14 336.88L373.72 335.81L373.26 334.76L372.78 333.72L372.28 332.7L371.77 331.67L371.23 330.66L370.67 329.67L370.09 328.69L369.48 327.72L368.87 326.77L368.21 325.83L367.56 324.9L366.88 323.98L366.18 323.08L365.45 322.2L364.72 321.34L363.96 320.48L363.18 319.64L362.4 318.83L361.57 318.02L360.75 317.24L359.91 316.47L359.04 315.72L358.16 314.98L357.26 314.27L356.34 313.56L355.42 312.89L354.46 312.22L353.51 311.58L352.53 310.96L351.53 310.36L350.53 309.78L348.58 308.74L346.62 307.79L344.62 306.92L342.61 306.14L340.59 305.44L338.54 304.84L336.49 304.32L334.43 303.88L332.37 303.52L330.29 303.24L328.22 303.05L326.14 302.94L324.06 302.91L322 302.97L319.94 303.09L317.89 303.31L315.85 303.59L313.83 303.96L311.82 304.4L309.83 304.91L307.86 305.51L305.92 306.18L304 306.92L302.11 307.73L300.25 308.62L298.41 309.58L296.62 310.61L294.87 311.72L293.15 312.89L291.49 314.14L289.85 315.45L288.28 316.83L286.74 318.28L285.26 319.79L283.84 321.38L282.48 323.01L281.17 324.73L279.92 326.51L278.74 328.35L277.61 330.25L257.52 322.52L258.38 320.89L259.26 319.3L260.18 317.74L261.13 316.2L262.11 314.68L263.14 313.2L264.19 311.75L265.29 310.32L266.39 308.92L267.55 307.56L268.74 306.21L269.95 304.9L271.19 303.62L272.47 302.38L273.76 301.16L275.08 299.98L276.43 298.83L277.83 297.7L279.22 296.62L280.66 295.57L282.11 294.55L283.58 293.57L285.09 292.61L286.61 291.7L288.16 290.82L289.74 289.98L291.32 289.19L292.94 288.42L294.56 287.69L296.21 287L297.87 286.36L299.57 285.73L301.26 285.16L302.98 284.64L304.71 284.14L306.46 283.7L308.23 283.29L310 282.92L311.79 282.59L313.6 282.31L316.66 281.92L319.71 281.68L322.74 281.55L325.76 281.54L328.76 281.65L331.71 281.89L334.66 282.23L337.57 282.7Z" id="b2xHgQliYA"></path><path d="M263.48 344.84L263.64 344.87L263.81 344.9L263.96 344.94L264.12 344.98L264.28 345.04L264.42 345.09L264.57 345.15L264.72 345.22L264.87 345.29L265.02 345.38L265.16 345.46L265.3 345.56L265.43 345.66L265.57 345.76L265.7 345.88L265.83 345.99L285.8 366.28L285.97 366.49L286.13 366.69L286.27 366.89L286.4 367.08L286.53 367.26L286.63 367.45L286.71 367.62L286.8 367.79L286.87 367.94L286.91 368.1L286.97 368.26L287 368.41L287.01 368.56L287.03 368.7L287.04 368.84L287.03 368.97L287.01 369.1L286.98 369.22L286.95 369.35L286.91 369.48L286.85 369.59L286.81 369.72L286.74 369.83L286.67 369.95L286.6 370.06L286.51 370.18L286.43 370.28L286.33 370.39L286.24 370.5L286.14 370.62L286.03 370.72L285.92 370.83L285.82 370.94L285.69 371.04L285.58 371.16L285.46 371.27L285.33 371.38L285.21 371.5L285.09 371.61L284.96 371.73L272.2 371.73L272.45 372.86L272.72 373.99L273.01 375.11L273.33 376.22L273.67 377.33L274.03 378.42L274.41 379.5L274.83 380.58L275.25 381.64L275.71 382.69L276.19 383.74L276.69 384.76L277.2 385.79L277.74 386.78L278.3 387.78L278.88 388.76L279.49 389.73L280.1 390.69L280.76 391.63L281.41 392.56L282.09 393.47L282.79 394.36L283.51 395.24L284.25 396.11L285.01 396.96L285.79 397.8L286.57 398.63L287.4 399.42L288.22 400.22L289.06 400.99L289.93 401.74L290.81 402.48L291.7 403.19L292.63 403.89L293.55 404.57L294.5 405.22L295.46 405.86L296.44 406.49L297.43 407.09L298.44 407.67L300.39 408.72L302.35 409.68L304.34 410.54L306.36 411.31L308.38 412.01L310.43 412.62L312.48 413.14L314.54 413.59L316.6 413.94L318.68 414.21L320.75 414.41L322.83 414.51L324.9 414.54L326.97 414.5L329.03 414.37L331.07 414.15L333.12 413.87L335.14 413.5L337.15 413.06L339.14 412.55L341.11 411.95L343.05 411.28L344.97 410.54L346.86 409.72L348.72 408.84L350.55 407.87L352.35 406.85L354.09 405.74L355.81 404.56L357.48 403.32L359.11 402.01L360.69 400.63L362.23 399.18L363.71 397.66L365.13 396.08L366.49 394.43L367.8 392.73L369.05 390.95L370.23 389.12L371.36 387.21L391.45 394.94L390.59 396.57L389.71 398.16L388.79 399.72L387.83 401.26L386.85 402.76L385.83 404.26L384.78 405.71L383.68 407.13L382.57 408.54L381.42 409.9L380.23 411.24L379.02 412.55L377.78 413.83L376.5 415.08L375.21 416.3L373.89 417.48L372.54 418.63L371.14 419.76L369.75 420.84L368.31 421.89L366.86 422.9L365.38 423.89L363.88 424.83L362.36 425.74L360.81 426.62L359.23 427.46L357.65 428.27L356.03 429.04L354.41 429.77L352.76 430.45L351.09 431.1L349.4 431.71L347.71 432.28L345.99 432.82L344.25 433.31L342.51 433.76L340.74 434.17L338.97 434.54L337.17 434.87L335.37 435.14L332.31 435.52L329.25 435.78L326.23 435.91L323.21 435.91L320.21 435.79L317.25 435.57L314.31 435.21L311.4 434.76L308.52 434.17L305.68 433.49L302.88 432.69L300.12 431.78L297.39 430.79L294.73 429.68L292.1 428.47L289.53 427.16L287.01 425.77L284.57 424.26L282.16 422.69L279.83 421.01L277.56 419.24L275.35 417.38L273.23 415.45L271.17 413.44L269.2 411.34L267.29 409.16L265.47 406.92L263.74 404.6L262.1 402.2L260.54 399.74L259.07 397.21L257.71 394.6L256.44 391.94L255.28 389.23L254.21 386.44L253.26 383.61L252.4 380.71L251.68 377.77L251.05 374.77L250.56 371.73L240.72 371.73L240.59 371.61L240.47 371.48L240.36 371.36L240.25 371.24L240.13 371.11L240.03 370.99L239.92 370.84L239.82 370.72L239.73 370.59L239.65 370.45L239.56 370.32L239.48 370.18L239.41 370.03L239.34 369.89L239.27 369.75L239.21 369.62L239.15 369.48L239.11 369.34L239.07 369.2L239.04 369.04L239 368.9L238.98 368.75L238.95 368.61L238.95 368.47L238.94 368.33L238.95 368.19L238.95 368.04L238.97 367.9L239 367.76L239.02 367.62L239.07 367.49L239.11 367.35L239.17 367.2L239.22 367.08L239.29 366.93L239.38 366.81L239.46 366.68L239.56 366.54L239.66 366.41L239.78 366.28L259.85 345.99L259.98 345.88L260.11 345.76L260.25 345.66L260.38 345.56L260.52 345.46L260.66 345.38L260.81 345.29L260.96 345.22L261.11 345.15L261.26 345.09L261.42 345.04L261.56 344.98L261.72 344.94L261.87 344.9L262.04 344.87L262.2 344.84L262.36 344.81L262.51 344.8L262.68 344.8L262.84 344.8L263 344.8L263.17 344.8L263.32 344.81L263.48 344.84Z" id="c2yrRUoklI"></path><path d="M263.48 344.84L263.64 344.87L263.81 344.9L263.96 344.94L264.12 344.98L264.28 345.04L264.42 345.09L264.57 345.15L264.72 345.22L264.87 345.29L265.02 345.38L265.16 345.46L265.3 345.56L265.43 345.66L265.57 345.76L265.7 345.88L265.83 345.99L285.8 366.28L285.97 366.49L286.13 366.69L286.27 366.89L286.4 367.08L286.53 367.26L286.63 367.45L286.71 367.62L286.8 367.79L286.87 367.94L286.91 368.1L286.97 368.26L287 368.41L287.01 368.56L287.03 368.7L287.04 368.84L287.03 368.97L287.01 369.1L286.98 369.22L286.95 369.35L286.91 369.48L286.85 369.59L286.81 369.72L286.74 369.83L286.67 369.95L286.6 370.06L286.51 370.18L286.43 370.28L286.33 370.39L286.24 370.5L286.14 370.62L286.03 370.72L285.92 370.83L285.82 370.94L285.69 371.04L285.58 371.16L285.46 371.27L285.33 371.38L285.21 371.5L285.09 371.61L284.96 371.73L272.2 371.73L272.45 372.86L272.72 373.99L273.01 375.11L273.33 376.22L273.67 377.33L274.03 378.42L274.41 379.5L274.83 380.58L275.25 381.64L275.71 382.69L276.19 383.74L276.69 384.76L277.2 385.79L277.74 386.78L278.3 387.78L278.88 388.76L279.49 389.73L280.1 390.69L280.76 391.63L281.41 392.56L282.09 393.47L282.79 394.36L283.51 395.24L284.25 396.11L285.01 396.96L285.79 397.8L286.57 398.63L287.4 399.42L288.22 400.22L289.06 400.99L289.93 401.74L290.81 402.48L291.7 403.19L292.63 403.89L293.55 404.57L294.5 405.22L295.46 405.86L296.44 406.49L297.43 407.09L298.44 407.67L300.39 408.72L302.35 409.68L304.34 410.54L306.36 411.31L308.38 412.01L310.43 412.62L312.48 413.14L314.54 413.59L316.6 413.94L318.68 414.21L320.75 414.41L322.83 414.51L324.9 414.54L326.97 414.5L329.03 414.37L331.07 414.15L333.12 413.87L335.14 413.5L337.15 413.06L339.14 412.55L341.11 411.95L343.05 411.28L344.97 410.54L346.86 409.72L348.72 408.84L350.55 407.87L352.35 406.85L354.09 405.74L355.81 404.56L357.48 403.32L359.11 402.01L360.69 400.63L362.23 399.18L363.71 397.66L365.13 396.08L366.49 394.43L367.8 392.73L369.05 390.95L370.23 389.12L371.36 387.21L391.45 394.94L390.59 396.57L389.71 398.16L388.79 399.72L387.83 401.26L386.85 402.76L385.83 404.26L384.78 405.71L383.68 407.13L382.57 408.54L381.42 409.9L380.23 411.24L379.02 412.55L377.78 413.83L376.5 415.08L375.21 416.3L373.89 417.48L372.54 418.63L371.14 419.76L369.75 420.84L368.31 421.89L366.86 422.9L365.38 423.89L363.88 424.83L362.36 425.74L360.81 426.62L359.23 427.46L357.65 428.27L356.03 429.04L354.41 429.77L352.76 430.45L351.09 431.1L349.4 431.71L347.71 432.28L345.99 432.82L344.25 433.31L342.51 433.76L340.74 434.17L338.97 434.54L337.17 434.87L335.37 435.14L332.31 435.52L329.25 435.78L326.23 435.91L323.21 435.91L320.21 435.79L317.25 435.57L314.31 435.21L311.4 434.76L308.52 434.17L305.68 433.49L302.88 432.69L300.12 431.78L297.39 430.79L294.73 429.68L292.1 428.47L289.53 427.16L287.01 425.77L284.57 424.26L282.16 422.69L279.83 421.01L277.56 419.24L275.35 417.38L273.23 415.45L271.17 413.44L269.2 411.34L267.29 409.16L265.47 406.92L263.74 404.6L262.1 402.2L260.54 399.74L259.07 397.21L257.71 394.6L256.44 391.94L255.28 389.23L254.21 386.44L253.26 383.61L252.4 380.71L251.68 377.77L251.05 374.77L250.56 371.73L240.72 371.73L240.59 371.61L240.47 371.48L240.36 371.36L240.25 371.24L240.13 371.11L240.03 370.99L239.92 370.84L239.82 370.72L239.73 370.59L239.65 370.45L239.56 370.32L239.48 370.18L239.41 370.03L239.34 369.89L239.27 369.75L239.21 369.62L239.15 369.48L239.11 369.34L239.07 369.2L239.04 369.04L239 368.9L238.98 368.75L238.95 368.61L238.95 368.47L238.94 368.33L238.95 368.19L238.95 368.04L238.97 367.9L239 367.76L239.02 367.62L239.07 367.49L239.11 367.35L239.17 367.2L239.22 367.08L239.29 366.93L239.38 366.81L239.46 366.68L239.56 366.54L239.66 366.41L239.78 366.28L259.85 345.99L259.98 345.88L260.11 345.76L260.25 345.66L260.38 345.56L260.52 345.46L260.66 345.38L260.81 345.29L260.96 345.22L261.11 345.15L261.26 345.09L261.42 345.04L261.56 344.98L261.72 344.94L261.87 344.9L262.04 344.87L262.2 344.84L262.36 344.81L262.51 344.8L262.68 344.8L262.84 344.8L263 344.8L263.17 344.8L263.32 344.81L263.48 344.84Z" id="b1NXVs7GpC"></path><path d="M263.48 344.84L263.64 344.87L263.81 344.9L263.96 344.94L264.12 344.98L264.28 345.04L264.42 345.09L264.57 345.15L264.72 345.22L264.87 345.29L265.02 345.38L265.16 345.46L265.3 345.56L265.43 345.66L265.57 345.76L265.7 345.88L265.83 345.99L285.8 366.28L285.97 366.49L286.13 366.69L286.27 366.89L286.4 367.08L286.53 367.26L286.63 367.45L286.71 367.62L286.8 367.79L286.87 367.94L286.91 368.1L286.97 368.26L287 368.41L287.01 368.56L287.03 368.7L287.04 368.84L287.03 368.97L287.01 369.1L286.98 369.22L286.95 369.35L286.91 369.48L286.85 369.59L286.81 369.72L286.74 369.83L286.67 369.95L286.6 370.06L286.51 370.18L286.43 370.28L286.33 370.39L286.24 370.5L286.14 370.62L286.03 370.72L285.92 370.83L285.82 370.94L285.69 371.04L285.58 371.16L285.46 371.27L285.33 371.38L285.21 371.5L285.09 371.61L284.96 371.73L272.2 371.73L272.45 372.86L272.72 373.99L273.01 375.11L273.33 376.22L273.67 377.33L274.03 378.42L274.41 379.5L274.83 380.58L275.25 381.64L275.71 382.69L276.19 383.74L276.69 384.76L277.2 385.79L277.74 386.78L278.3 387.78L278.88 388.76L279.49 389.73L280.1 390.69L280.76 391.63L281.41 392.56L282.09 393.47L282.79 394.36L283.51 395.24L284.25 396.11L285.01 396.96L285.79 397.8L286.57 398.63L287.4 399.42L288.22 400.22L289.06 400.99L289.93 401.74L290.81 402.48L291.7 403.19L292.63 403.89L293.55 404.57L294.5 405.22L295.46 405.86L296.44 406.49L297.43 407.09L298.44 407.67L300.39 408.72L302.35 409.68L304.34 410.54L306.36 411.31L308.38 412.01L310.43 412.62L312.48 413.14L314.54 413.59L316.6 413.94L318.68 414.21L320.75 414.41L322.83 414.51L324.9 414.54L326.97 414.5L329.03 414.37L331.07 414.15L333.12 413.87L335.14 413.5L337.15 413.06L339.14 412.55L341.11 411.95L343.05 411.28L344.97 410.54L346.86 409.72L348.72 408.84L350.55 407.87L352.35 406.85L354.09 405.74L355.81 404.56L357.48 403.32L359.11 402.01L360.69 400.63L362.23 399.18L363.71 397.66L365.13 396.08L366.49 394.43L367.8 392.73L369.05 390.95L370.23 389.12L371.36 387.21L391.45 394.94L390.59 396.57L389.71 398.16L388.79 399.72L387.83 401.26L386.85 402.76L385.83 404.26L384.78 405.71L383.68 407.13L382.57 408.54L381.42 409.9L380.23 411.24L379.02 412.55L377.78 413.83L376.5 415.08L375.21 416.3L373.89 417.48L372.54 418.63L371.14 419.76L369.75 420.84L368.31 421.89L366.86 422.9L365.38 423.89L363.88 424.83L362.36 425.74L360.81 426.62L359.23 427.46L357.65 428.27L356.03 429.04L354.41 429.77L352.76 430.45L351.09 431.1L349.4 431.71L347.71 432.28L345.99 432.82L344.25 433.31L342.51 433.76L340.74 434.17L338.97 434.54L337.17 434.87L335.37 435.14L332.31 435.52L329.25 435.78L326.23 435.91L323.21 435.91L320.21 435.79L317.25 435.57L314.31 435.21L311.4 434.76L308.52 434.17L305.68 433.49L302.88 432.69L300.12 431.78L297.39 430.79L294.73 429.68L292.1 428.47L289.53 427.16L287.01 425.77L284.57 424.26L282.16 422.69L279.83 421.01L277.56 419.24L275.35 417.38L273.23 415.45L271.17 413.44L269.2 411.34L267.29 409.16L265.47 406.92L263.74 404.6L262.1 402.2L260.54 399.74L259.07 397.21L257.71 394.6L256.44 391.94L255.28 389.23L254.21 386.44L253.26 383.61L252.4 380.71L251.68 377.77L251.05 374.77L250.56 371.73L240.72 371.73L240.59 371.61L240.47 371.48L240.36 371.36L240.25 371.24L240.13 371.11L240.03 370.99L239.92 370.84L239.82 370.72L239.73 370.59L239.65 370.45L239.56 370.32L239.48 370.18L239.41 370.03L239.34 369.89L239.27 369.75L239.21 369.62L239.15 369.48L239.11 369.34L239.07 369.2L239.04 369.04L239 368.9L238.98 368.75L238.95 368.61L238.95 368.47L238.94 368.33L238.95 368.19L238.95 368.04L238.97 367.9L239 367.76L239.02 367.62L239.07 367.49L239.11 367.35L239.17 367.2L239.22 367.08L239.29 366.93L239.38 366.81L239.46 366.68L239.56 366.54L239.66 366.41L239.78 366.28L259.85 345.99L259.98 345.88L260.11 345.76L260.25 345.66L260.38 345.56L260.52 345.46L260.66 345.38L260.81 345.29L260.96 345.22L261.11 345.15L261.26 345.09L261.42 345.04L261.56 344.98L261.72 344.94L261.87 344.9L262.04 344.87L262.2 344.84L262.36 344.81L262.51 344.8L262.68 344.8L262.84 344.8L263 344.8L263.17 344.8L263.32 344.81L263.48 344.84Z" id="a3lDzdEgu"></path><path d="M263.48 344.84L263.64 344.87L263.81 344.9L263.96 344.94L264.12 344.98L264.28 345.04L264.42 345.09L264.57 345.15L264.72 345.22L264.87 345.29L265.02 345.38L265.16 345.46L265.3 345.56L265.43 345.66L265.57 345.76L265.7 345.88L265.83 345.99L285.8 366.28L285.97 366.49L286.13 366.69L286.27 366.89L286.4 367.08L286.53 367.26L286.63 367.45L286.71 367.62L286.8 367.79L286.87 367.94L286.91 368.1L286.97 368.26L287 368.41L287.01 368.56L287.03 368.7L287.04 368.84L287.03 368.97L287.01 369.1L286.98 369.22L286.95 369.35L286.91 369.48L286.85 369.59L286.81 369.72L286.74 369.83L286.67 369.95L286.6 370.06L286.51 370.18L286.43 370.28L286.33 370.39L286.24 370.5L286.14 370.62L286.03 370.72L285.92 370.83L285.82 370.94L285.69 371.04L285.58 371.16L285.46 371.27L285.33 371.38L285.21 371.5L285.09 371.61L284.96 371.73L272.2 371.73L272.45 372.86L272.72 373.99L273.01 375.11L273.33 376.22L273.67 377.33L274.03 378.42L274.41 379.5L274.83 380.58L275.25 381.64L275.71 382.69L276.19 383.74L276.69 384.76L277.2 385.79L277.74 386.78L278.3 387.78L278.88 388.76L279.49 389.73L280.1 390.69L280.76 391.63L281.41 392.56L282.09 393.47L282.79 394.36L283.51 395.24L284.25 396.11L285.01 396.96L285.79 397.8L286.57 398.63L287.4 399.42L288.22 400.22L289.06 400.99L289.93 401.74L290.81 402.48L291.7 403.19L292.63 403.89L293.55 404.57L294.5 405.22L295.46 405.86L296.44 406.49L297.43 407.09L298.44 407.67L300.39 408.72L302.35 409.68L304.34 410.54L306.36 411.31L308.38 412.01L310.43 412.62L312.48 413.14L314.54 413.59L316.6 413.94L318.68 414.21L320.75 414.41L322.83 414.51L324.9 414.54L326.97 414.5L329.03 414.37L331.07 414.15L333.12 413.87L335.14 413.5L337.15 413.06L339.14 412.55L341.11 411.95L343.05 411.28L344.97 410.54L346.86 409.72L348.72 408.84L350.55 407.87L352.35 406.85L354.09 405.74L355.81 404.56L357.48 403.32L359.11 402.01L360.69 400.63L362.23 399.18L363.71 397.66L365.13 396.08L366.49 394.43L367.8 392.73L369.05 390.95L370.23 389.12L371.36 387.21L391.45 394.94L390.59 396.57L389.71 398.16L388.79 399.72L387.83 401.26L386.85 402.76L385.83 404.26L384.78 405.71L383.68 407.13L382.57 408.54L381.42 409.9L380.23 411.24L379.02 412.55L377.78 413.83L376.5 415.08L375.21 416.3L373.89 417.48L372.54 418.63L371.14 419.76L369.75 420.84L368.31 421.89L366.86 422.9L365.38 423.89L363.88 424.83L362.36 425.74L360.81 426.62L359.23 427.46L357.65 428.27L356.03 429.04L354.41 429.77L352.76 430.45L351.09 431.1L349.4 431.71L347.71 432.28L345.99 432.82L344.25 433.31L342.51 433.76L340.74 434.17L338.97 434.54L337.17 434.87L335.37 435.14L332.31 435.52L329.25 435.78L326.23 435.91L323.21 435.91L320.21 435.79L317.25 435.57L314.31 435.21L311.4 434.76L308.52 434.17L305.68 433.49L302.88 432.69L300.12 431.78L297.39 430.79L294.73 429.68L292.1 428.47L289.53 427.16L287.01 425.77L284.57 424.26L282.16 422.69L279.83 421.01L277.56 419.24L275.35 417.38L273.23 415.45L271.17 413.44L269.2 411.34L267.29 409.16L265.47 406.92L263.74 404.6L262.1 402.2L260.54 399.74L259.07 397.21L257.71 394.6L256.44 391.94L255.28 389.23L254.21 386.44L253.26 383.61L252.4 380.71L251.68 377.77L251.05 374.77L250.56 371.73L240.72 371.73L240.59 371.61L240.47 371.48L240.36 371.36L240.25 371.24L240.13 371.11L240.03 370.99L239.92 370.84L239.82 370.72L239.73 370.59L239.65 370.45L239.56 370.32L239.48 370.18L239.41 370.03L239.34 369.89L239.27 369.75L239.21 369.62L239.15 369.48L239.11 369.34L239.07 369.2L239.04 369.04L239 368.9L238.98 368.75L238.95 368.61L238.95 368.47L238.94 368.33L238.95 368.19L238.95 368.04L238.97 367.9L239 367.76L239.02 367.62L239.07 367.49L239.11 367.35L239.17 367.2L239.22 367.08L239.29 366.93L239.38 366.81L239.46 366.68L239.56 366.54L239.66 366.41L239.78 366.28L259.85 345.99L259.98 345.88L260.11 345.76L260.25 345.66L260.38 345.56L260.52 345.46L260.66 345.38L260.81 345.29L260.96 345.22L261.11 345.15L261.26 345.09L261.42 345.04L261.56 344.98L261.72 344.94L261.87 344.9L262.04 344.87L262.2 344.84L262.36 344.81L262.51 344.8L262.68 344.8L262.84 344.8L263 344.8L263.17 344.8L263.32 344.81L263.48 344.84Z" id="c3x7wJQ7Mt"></path></defs><g><g><g><use xlink:href="#a45qt9sQsO" opacity="1" fill="#bf6328" fill-opacity="1"></use><g><use xlink:href="#a45qt9sQsO" opacity="1" fill-opacity="0" stroke="#000000" stroke-width="1" stroke-opacity="0"></use></g></g><g><use xlink:href="#h1jCSeidVV" opacity="1" fill="#000000" fill-opacity="0"></use><g><use xlink:href="#h1jCSeidVV" opacity="1" fill-opacity="0" stroke="#000000" stroke-width="1" stroke-opacity="0"></use></g></g><g><use xlink:href="#a2QWS9qgmS" opacity="1" fill="#000000" fill-opacity="0"></use><g><use xlink:href="#a2QWS9qgmS" opacity="1" fill-opacity="0" stroke="#000000" stroke-width="1" stroke-opacity="0"></use></g></g><g><use xlink:href="#a1cTuqeKKl" opacity="1" fill="#000000" fill-opacity="0"></use><g><use xlink:href="#a1cTuqeKKl" opacity="1" fill-opacity="0" stroke="#000000" stroke-width="1" stroke-opacity="0"></use></g></g><g><use xlink:href="#h1l3PhTnCL" opacity="1" fill="#ffffff" fill-opacity="1"></use><g><use xlink:href="#h1l3PhTnCL" opacity="1" fill-opacity="0" stroke="#000000" stroke-width="1" stroke-opacity="0"></use></g></g><g><use xlink:href="#aRAe38fjK" opacity="1" fill="#000000" fill-opacity="0"></use><g><use xlink:href="#aRAe38fjK" opacity="1" fill-opacity="0" stroke="#000000" stroke-width="1" stroke-opacity="0"></use></g></g><g><use xlink:href="#cpLQ05x8" opacity="1" fill="#000000" fill-opacity="0"></use><g><use xlink:href="#cpLQ05x8" opacity="1" fill-opacity="0" stroke="#000000" stroke-width="1" stroke-opacity="0"></use></g></g><g><use xlink:href="#d23jh7VQm" opacity="1" fill="#000000" fill-opacity="0"></use><g><use xlink:href="#d23jh7VQm" opacity="1" fill-opacity="0" stroke="#000000" stroke-width="1" stroke-opacity="0"></use></g></g><g><use xlink:href="#iwNsdqUtk" opacity="1" fill="#ffffff" fill-opacity="1"></use><g><use xlink:href="#iwNsdqUtk" opacity="1" fill-opacity="0" stroke="#000000" stroke-width="1" stroke-opacity="0"></use></g></g><g><use xlink:href="#aAMWiO5uc" opacity="1" fill="#000000" fill-opacity="0"></use><g><use xlink:href="#aAMWiO5uc" opacity="1" fill-opacity="0" stroke="#000000" stroke-width="1" stroke-opacity="0"></use></g></g><g><use xlink:href="#a9X4rUhd7" opacity="1" fill="#000000" fill-opacity="0"></use><g><use xlink:href="#a9X4rUhd7" opacity="1" fill-opacity="0" stroke="#000000" stroke-width="1" stroke-opacity="0"></use></g></g><g><use xlink:href="#b2xHgQliYA" opacity="1" fill="#000000" fill-opacity="0"></use><g><use xlink:href="#b2xHgQliYA" opacity="1" fill-opacity="0" stroke="#000000" stroke-width="1" stroke-opacity="0"></use></g></g><g><use xlink:href="#c2yrRUoklI" opacity="1" fill="#ffffff" fill-opacity="1"></use><g><use xlink:href="#c2yrRUoklI" opacity="1" fill-opacity="0" stroke="#000000" stroke-width="1" stroke-opacity="0"></use></g></g><g><use xlink:href="#b1NXVs7GpC" opacity="1" fill="#000000" fill-opacity="0"></use><g><use xlink:href="#b1NXVs7GpC" opacity="1" fill-opacity="0" stroke="#000000" stroke-width="1" stroke-opacity="0"></use></g></g><g><use xlink:href="#a3lDzdEgu" opacity="1" fill="#000000" fill-opacity="0"></use><g><use xlink:href="#a3lDzdEgu" opacity="1" fill-opacity="0" stroke="#000000" stroke-width="1" stroke-opacity="0"></use></g></g><g><use xlink:href="#c3x7wJQ7Mt" opacity="1" fill="#000000" fill-opacity="0"></use><g><use xlink:href="#c3x7wJQ7Mt" opacity="1" fill-opacity="0" stroke="#000000" stroke-width="1" stroke-opacity="0"></use></g></g></g></g></svg>