<?xml version="1.0" encoding="UTF-8" standalone="no"?>
<!DOCTYPE svg PUBLIC "-//W3C//DTD SVG 1.1//EN" "http://www.w3.org/Graphics/SVG/1.1/DTD/svg11.dtd">
<svg version="1.1" xmlns="http://www.w3.org/2000/svg" xmlns:xlink="http://www.w3.org/1999/xlink" preserveAspectRatio="xMidYMid meet" viewBox="0 0 640 640" width="640" height="640"><defs><path d="M633.13 321.06C632.91 494.4 492.15 634.75 318.74 634.55C145.33 634.33 4.92 493.64 5.14 320.29C5.34 146.94 146.1 6.58 319.51 6.8C492.92 7 633.33 147.71 633.13 321.06Z" id="dRYlftt3W"></path><path d="M633.13 321.06C632.91 494.4 492.15 634.75 318.74 634.55C145.33 634.33 4.92 493.64 5.14 320.29C5.34 146.94 146.1 6.58 319.51 6.8C492.92 7 633.33 147.71 633.13 321.06Z" id="c1Xcwwrdhe"></path><path d="M633.13 321.06C632.91 494.4 492.15 634.75 318.74 634.55C145.33 634.33 4.92 493.64 5.14 320.29C5.34 146.94 146.1 6.58 319.51 6.8C492.92 7 633.33 147.71 633.13 321.06Z" id="aukbLpB9H"></path><path d="M633.13 321.06C632.91 494.4 492.15 634.75 318.74 634.55C145.33 634.33 4.92 493.64 5.14 320.29C5.34 146.94 146.1 6.58 319.51 6.8C492.92 7 633.33 147.71 633.13 321.06Z" id="bYsBsoK1z"></path><path d="M176.76 524.7C176.76 525.91 176.76 531.97 176.76 542.9C187.68 542.98 274.93 543.56 285.84 543.64C285.84 532.4 285.84 526.16 285.84 524.91C285.9 514.86 277.8 506.68 267.75 506.61C267.75 506.61 267.75 506.61 267.75 506.61C253.21 506.61 202.35 506.61 195.07 506.61C185.02 506.55 176.83 514.65 176.76 524.7C176.76 524.7 176.76 524.7 176.76 524.7Z" id="d2IPwjGCxe"></path><path d="M176.76 524.7C176.76 525.91 176.76 531.97 176.76 542.9C187.68 542.98 274.93 543.56 285.84 543.64C285.84 532.4 285.84 526.16 285.84 524.91C285.9 514.86 277.8 506.68 267.75 506.61C267.75 506.61 267.75 506.61 267.75 506.61C253.21 506.61 202.35 506.61 195.07 506.61C185.02 506.55 176.83 514.65 176.76 524.7C176.76 524.7 176.76 524.7 176.76 524.7Z" id="f1qGFIZyye"></path><path d="M176.76 524.7C176.76 525.91 176.76 531.97 176.76 542.9C187.68 542.98 274.93 543.56 285.84 543.64C285.84 532.4 285.84 526.16 285.84 524.91C285.9 514.86 277.8 506.68 267.75 506.61C267.75 506.61 267.75 506.61 267.75 506.61C253.21 506.61 202.35 506.61 195.07 506.61C185.02 506.55 176.83 514.65 176.76 524.7C176.76 524.7 176.76 524.7 176.76 524.7Z" id="e4nVxdSH1G"></path><path d="M176.76 524.7C176.76 525.91 176.76 531.97 176.76 542.9C187.68 542.98 274.93 543.56 285.84 543.64C285.84 532.4 285.84 526.16 285.84 524.91C285.9 514.86 277.8 506.68 267.75 506.61C267.75 506.61 267.75 506.61 267.75 506.61C253.21 506.61 202.35 506.61 195.07 506.61C185.02 506.55 176.83 514.65 176.76 524.7C176.76 524.7 176.76 524.7 176.76 524.7Z" id="d1hTB7e3Lz"></path><path d="M235.57 395.18L237.58 395.4L239.58 395.7L241.54 396.09L243.46 396.56L245.36 397.11L247.23 397.74L249.05 398.45L250.84 399.23L252.58 400.08L254.29 401.01L255.96 402L257.57 403.05L259.15 404.16L260.65 405.36L262.13 406.6L263.54 407.9L264.91 409.25L266.21 410.68L267.45 412.14L268.63 413.66L269.75 415.23L270.81 416.85L271.8 418.5L272.71 420.21L273.58 421.96L274.35 423.75L275.05 425.58L275.68 427.44L276.23 429.34L276.7 431.27L277.09 433.23L277.41 435.21L277.63 437.23L277.75 439.28L277.8 441.33L277.75 443.41L277.63 445.45L277.41 447.46L277.09 449.45L276.7 451.4L276.23 453.33L275.68 455.23L275.05 457.1L274.35 458.92L273.58 460.71L272.71 462.45L271.8 464.17L270.81 465.83L269.75 467.45L268.63 469.02L267.45 470.53L266.21 472L264.91 473.42L263.54 474.77L262.13 476.07L260.65 477.33L259.15 478.5L257.57 479.62L255.96 480.69L254.29 481.68L252.58 482.59L250.84 483.43L249.05 484.22L247.23 484.93L245.36 485.55L243.46 486.1L241.54 486.58L239.58 486.97L237.58 487.27L235.57 487.49L233.53 487.63L231.46 487.67L229.4 487.63L227.36 487.49L225.35 487.27L223.36 486.97L221.39 486.58L219.46 486.1L217.56 485.55L215.71 484.93L213.87 484.22L212.1 483.43L210.34 482.59L208.64 481.68L206.98 480.69L205.36 479.62L203.79 478.5L202.27 477.33L200.81 476.07L199.39 474.77L198.03 473.42L196.72 472L195.48 470.53L194.29 469.02L193.17 467.45L192.12 465.83L191.13 464.17L190.21 462.45L189.36 460.71L188.59 458.92L187.88 457.1L187.25 455.23L186.69 453.33L186.22 451.4L185.84 449.45L185.53 447.46L185.31 445.45L185.17 443.41L185.13 441.33L185.17 439.28L185.31 437.23L185.53 435.21L185.84 433.23L186.22 431.27L186.69 429.34L187.25 427.44L187.88 425.58L188.59 423.75L189.36 421.96L190.21 420.21L191.13 418.5L192.12 416.85L193.17 415.23L194.29 413.66L195.48 412.14L196.72 410.68L198.03 409.25L199.39 407.9L200.81 406.6L202.27 405.36L203.79 404.16L205.36 403.05L206.98 402L208.64 401.01L210.34 400.08L212.1 399.23L213.87 398.45L215.71 397.74L217.56 397.11L219.46 396.56L221.39 396.09L223.36 395.7L225.35 395.4L227.36 395.18L229.4 395.04L231.46 394.99L233.53 395.04L235.57 395.18ZM227.33 401.12L225.29 401.37L223.29 401.71L221.33 402.15L219.42 402.7L217.53 403.33L215.69 404.05L213.9 404.85L212.14 405.75L210.45 406.71L208.82 407.76L207.23 408.89L205.69 410.08L204.21 411.36L202.82 412.71L201.47 414.1L200.19 415.56L199 417.1L197.87 418.69L196.82 420.32L195.84 422.02L194.95 423.78L194.13 425.57L193.41 427.4L192.77 429.29L192.22 431.2L191.78 433.17L191.42 435.16L191.15 437.19L190.99 439.24L190.94 441.33L190.99 443.42L191.15 445.48L191.42 447.5L191.78 449.5L192.22 451.46L192.77 453.38L193.41 455.26L194.13 457.1L194.95 458.91L195.84 460.65L196.82 462.34L197.87 463.99L199 465.58L200.19 467.1L201.47 468.58L202.82 469.99L204.21 471.33L205.69 472.6L207.23 473.81L208.82 474.94L210.45 475.99L212.14 476.96L213.9 477.86L215.69 478.68L217.53 479.4L219.42 480.03L221.33 480.58L223.29 481.03L225.29 481.39L227.33 481.64L229.39 481.8L231.46 481.85L233.55 481.8L235.61 481.64L237.63 481.39L239.63 481.03L241.59 480.58L243.52 480.03L245.39 479.4L247.24 478.68L249.03 477.86L250.78 476.96L252.47 475.99L254.12 474.94L255.71 473.81L257.25 472.6L258.71 471.33L260.12 469.99L261.45 468.58L262.73 467.1L263.93 465.58L265.07 463.99L266.12 462.34L267.09 460.65L267.99 458.91L268.8 457.1L269.53 455.26L270.17 453.38L270.7 451.46L271.16 449.5L271.52 447.5L271.77 445.48L271.93 443.42L271.99 441.33L271.93 439.26L271.77 437.2L271.5 435.18L271.14 433.18L270.69 431.24L270.14 429.3L269.49 427.44L268.77 425.6L267.95 423.81L267.06 422.07L266.09 420.37L265.03 418.74L263.9 417.15L262.69 415.63L261.42 414.15L260.07 412.75L258.67 411.42L257.2 410.15L255.67 408.95L254.09 407.82L252.44 406.77L250.74 405.8L249 404.9L247.21 404.1L245.37 403.38L243.49 402.73L241.57 402.2L239.61 401.74L237.63 401.38L235.61 401.13L233.55 400.98L231.46 400.93L229.39 400.96L227.33 401.12Z" id="aMUzlaWaP"></path><path d="M235.57 395.18L237.58 395.4L239.58 395.7L241.54 396.09L243.46 396.56L245.36 397.11L247.23 397.74L249.05 398.45L250.84 399.23L252.58 400.08L254.29 401.01L255.96 402L257.57 403.05L259.15 404.16L260.65 405.36L262.13 406.6L263.54 407.9L264.91 409.25L266.21 410.68L267.45 412.14L268.63 413.66L269.75 415.23L270.81 416.85L271.8 418.5L272.71 420.21L273.58 421.96L274.35 423.75L275.05 425.58L275.68 427.44L276.23 429.34L276.7 431.27L277.09 433.23L277.41 435.21L277.63 437.23L277.75 439.28L277.8 441.33L277.75 443.41L277.63 445.45L277.41 447.46L277.09 449.45L276.7 451.4L276.23 453.33L275.68 455.23L275.05 457.1L274.35 458.92L273.58 460.71L272.71 462.45L271.8 464.17L270.81 465.83L269.75 467.45L268.63 469.02L267.45 470.53L266.21 472L264.91 473.42L263.54 474.77L262.13 476.07L260.65 477.33L259.15 478.5L257.57 479.62L255.96 480.69L254.29 481.68L252.58 482.59L250.84 483.43L249.05 484.22L247.23 484.93L245.36 485.55L243.46 486.1L241.54 486.58L239.58 486.97L237.58 487.27L235.57 487.49L233.53 487.63L231.46 487.67L229.4 487.63L227.36 487.49L225.35 487.27L223.36 486.97L221.39 486.58L219.46 486.1L217.56 485.55L215.71 484.93L213.87 484.22L212.1 483.43L210.34 482.59L208.64 481.68L206.98 480.69L205.36 479.62L203.79 478.5L202.27 477.33L200.81 476.07L199.39 474.77L198.03 473.42L196.72 472L195.48 470.53L194.29 469.02L193.17 467.45L192.12 465.83L191.13 464.17L190.21 462.45L189.36 460.71L188.59 458.92L187.88 457.1L187.25 455.23L186.69 453.33L186.22 451.4L185.84 449.45L185.53 447.46L185.31 445.45L185.17 443.41L185.13 441.33L185.17 439.28L185.31 437.23L185.53 435.21L185.84 433.23L186.22 431.27L186.69 429.34L187.25 427.44L187.88 425.58L188.59 423.75L189.36 421.96L190.21 420.21L191.13 418.5L192.12 416.85L193.17 415.23L194.29 413.66L195.48 412.14L196.72 410.68L198.03 409.25L199.39 407.9L200.81 406.6L202.27 405.36L203.79 404.16L205.36 403.05L206.98 402L208.64 401.01L210.34 400.08L212.1 399.23L213.87 398.45L215.71 397.74L217.56 397.11L219.46 396.56L221.39 396.09L223.36 395.7L225.35 395.4L227.36 395.18L229.4 395.04L231.46 394.99L233.53 395.04L235.57 395.18ZM227.33 401.12L225.29 401.37L223.29 401.71L221.33 402.15L219.42 402.7L217.53 403.33L215.69 404.05L213.9 404.85L212.14 405.75L210.45 406.71L208.82 407.76L207.23 408.89L205.69 410.08L204.21 411.36L202.82 412.71L201.47 414.1L200.19 415.56L199 417.1L197.87 418.69L196.82 420.32L195.84 422.02L194.95 423.78L194.13 425.57L193.41 427.4L192.77 429.29L192.22 431.2L191.78 433.17L191.42 435.16L191.15 437.19L190.99 439.24L190.94 441.33L190.99 443.42L191.15 445.48L191.42 447.5L191.78 449.5L192.22 451.46L192.77 453.38L193.41 455.26L194.13 457.1L194.95 458.91L195.84 460.65L196.82 462.34L197.87 463.99L199 465.58L200.19 467.1L201.47 468.58L202.82 469.99L204.21 471.33L205.69 472.6L207.23 473.81L208.82 474.94L210.45 475.99L212.14 476.96L213.9 477.86L215.69 478.68L217.53 479.4L219.42 480.03L221.33 480.58L223.29 481.03L225.29 481.39L227.33 481.64L229.39 481.8L231.46 481.85L233.55 481.8L235.61 481.64L237.63 481.39L239.63 481.03L241.59 480.58L243.52 480.03L245.39 479.4L247.24 478.68L249.03 477.86L250.78 476.96L252.47 475.99L254.12 474.94L255.71 473.81L257.25 472.6L258.71 471.33L260.12 469.99L261.45 468.58L262.73 467.1L263.93 465.58L265.07 463.99L266.12 462.34L267.09 460.65L267.99 458.91L268.8 457.1L269.53 455.26L270.17 453.38L270.7 451.46L271.16 449.5L271.52 447.5L271.77 445.48L271.93 443.42L271.99 441.33L271.93 439.26L271.77 437.2L271.5 435.18L271.14 433.18L270.69 431.24L270.14 429.3L269.49 427.44L268.77 425.6L267.95 423.81L267.06 422.07L266.09 420.37L265.03 418.74L263.9 417.15L262.69 415.63L261.42 414.15L260.07 412.75L258.67 411.42L257.2 410.15L255.67 408.95L254.09 407.82L252.44 406.77L250.74 405.8L249 404.9L247.21 404.1L245.37 403.38L243.49 402.73L241.57 402.2L239.61 401.74L237.63 401.38L235.61 401.13L233.55 400.98L231.46 400.93L229.39 400.96L227.33 401.12Z" id="abfIhyJd"></path><path d="M235.57 395.18L237.58 395.4L239.58 395.7L241.54 396.09L243.46 396.56L245.36 397.11L247.23 397.74L249.05 398.45L250.84 399.23L252.58 400.08L254.29 401.01L255.96 402L257.57 403.05L259.15 404.16L260.65 405.36L262.13 406.6L263.54 407.9L264.91 409.25L266.21 410.68L267.45 412.14L268.63 413.66L269.75 415.23L270.81 416.85L271.8 418.5L272.71 420.21L273.58 421.96L274.35 423.75L275.05 425.58L275.68 427.44L276.23 429.34L276.7 431.27L277.09 433.23L277.41 435.21L277.63 437.23L277.75 439.28L277.8 441.33L277.75 443.41L277.63 445.45L277.41 447.46L277.09 449.45L276.7 451.4L276.23 453.33L275.68 455.23L275.05 457.1L274.35 458.92L273.58 460.71L272.71 462.45L271.8 464.17L270.81 465.83L269.75 467.45L268.63 469.02L267.45 470.53L266.21 472L264.91 473.42L263.54 474.77L262.13 476.07L260.65 477.33L259.15 478.5L257.57 479.62L255.96 480.69L254.29 481.68L252.58 482.59L250.84 483.43L249.05 484.22L247.23 484.93L245.36 485.55L243.46 486.1L241.54 486.58L239.58 486.97L237.58 487.27L235.57 487.49L233.53 487.63L231.46 487.67L229.4 487.63L227.36 487.49L225.35 487.27L223.36 486.97L221.39 486.58L219.46 486.1L217.56 485.55L215.71 484.93L213.87 484.22L212.1 483.43L210.34 482.59L208.64 481.68L206.98 480.69L205.36 479.62L203.79 478.5L202.27 477.33L200.81 476.07L199.39 474.77L198.03 473.42L196.72 472L195.48 470.53L194.29 469.02L193.17 467.45L192.12 465.83L191.13 464.17L190.21 462.45L189.36 460.71L188.59 458.92L187.88 457.1L187.25 455.23L186.69 453.33L186.22 451.4L185.84 449.45L185.53 447.46L185.31 445.45L185.17 443.41L185.13 441.33L185.17 439.28L185.31 437.23L185.53 435.21L185.84 433.23L186.22 431.27L186.69 429.34L187.25 427.44L187.88 425.58L188.59 423.75L189.36 421.96L190.21 420.21L191.13 418.5L192.12 416.85L193.17 415.23L194.29 413.66L195.48 412.14L196.72 410.68L198.03 409.25L199.39 407.9L200.81 406.6L202.27 405.36L203.79 404.16L205.36 403.05L206.98 402L208.64 401.01L210.34 400.08L212.1 399.23L213.87 398.45L215.71 397.74L217.56 397.11L219.46 396.56L221.39 396.09L223.36 395.7L225.35 395.4L227.36 395.18L229.4 395.04L231.46 394.99L233.53 395.04L235.57 395.18ZM227.33 401.12L225.29 401.37L223.29 401.71L221.33 402.15L219.42 402.7L217.53 403.33L215.69 404.05L213.9 404.85L212.14 405.75L210.45 406.71L208.82 407.76L207.23 408.89L205.69 410.08L204.21 411.36L202.82 412.71L201.47 414.1L200.19 415.56L199 417.1L197.87 418.69L196.82 420.32L195.84 422.02L194.95 423.78L194.13 425.57L193.41 427.4L192.77 429.29L192.22 431.2L191.78 433.17L191.42 435.16L191.15 437.19L190.99 439.24L190.94 441.33L190.99 443.42L191.15 445.48L191.42 447.5L191.78 449.5L192.22 451.46L192.77 453.38L193.41 455.26L194.13 457.1L194.95 458.91L195.84 460.65L196.82 462.34L197.87 463.99L199 465.58L200.19 467.1L201.47 468.58L202.82 469.99L204.21 471.33L205.69 472.6L207.23 473.81L208.82 474.94L210.45 475.99L212.14 476.96L213.9 477.86L215.69 478.68L217.53 479.4L219.42 480.03L221.33 480.58L223.29 481.03L225.29 481.39L227.33 481.64L229.39 481.8L231.46 481.85L233.55 481.8L235.61 481.64L237.63 481.39L239.63 481.03L241.59 480.58L243.52 480.03L245.39 479.4L247.24 478.68L249.03 477.86L250.78 476.96L252.47 475.99L254.12 474.94L255.71 473.81L257.25 472.6L258.71 471.33L260.12 469.99L261.45 468.58L262.73 467.1L263.93 465.58L265.07 463.99L266.12 462.34L267.09 460.65L267.99 458.91L268.8 457.1L269.53 455.26L270.17 453.38L270.7 451.46L271.16 449.5L271.52 447.5L271.77 445.48L271.93 443.42L271.99 441.33L271.93 439.26L271.77 437.2L271.5 435.18L271.14 433.18L270.69 431.24L270.14 429.3L269.49 427.44L268.77 425.6L267.95 423.81L267.06 422.07L266.09 420.37L265.03 418.74L263.9 417.15L262.69 415.63L261.42 414.15L260.07 412.75L258.67 411.42L257.2 410.15L255.67 408.95L254.09 407.82L252.44 406.77L250.74 405.8L249 404.9L247.21 404.1L245.37 403.38L243.49 402.73L241.57 402.2L239.61 401.74L237.63 401.38L235.61 401.13L233.55 400.98L231.46 400.93L229.39 400.96L227.33 401.12Z" id="f53JM5A27"></path><path d="M235.57 395.18L237.58 395.4L239.58 395.7L241.54 396.09L243.46 396.56L245.36 397.11L247.23 397.74L249.05 398.45L250.84 399.23L252.58 400.08L254.29 401.01L255.96 402L257.57 403.05L259.15 404.16L260.65 405.36L262.13 406.6L263.54 407.9L264.91 409.25L266.21 410.68L267.45 412.14L268.63 413.66L269.75 415.23L270.81 416.85L271.8 418.5L272.71 420.21L273.58 421.96L274.35 423.75L275.05 425.58L275.68 427.44L276.23 429.34L276.7 431.27L277.09 433.23L277.41 435.21L277.63 437.23L277.75 439.28L277.8 441.33L277.75 443.41L277.63 445.45L277.41 447.46L277.09 449.45L276.7 451.4L276.23 453.33L275.68 455.23L275.05 457.1L274.35 458.92L273.58 460.71L272.71 462.45L271.8 464.17L270.81 465.83L269.75 467.45L268.63 469.02L267.45 470.53L266.21 472L264.91 473.42L263.54 474.77L262.13 476.07L260.65 477.33L259.15 478.5L257.57 479.62L255.96 480.69L254.29 481.68L252.58 482.59L250.84 483.43L249.05 484.22L247.23 484.93L245.36 485.55L243.46 486.1L241.54 486.58L239.58 486.97L237.58 487.27L235.57 487.49L233.53 487.63L231.46 487.67L229.4 487.63L227.36 487.49L225.35 487.27L223.36 486.97L221.39 486.58L219.46 486.1L217.56 485.55L215.71 484.93L213.87 484.22L212.1 483.43L210.34 482.59L208.64 481.68L206.98 480.69L205.36 479.62L203.79 478.5L202.27 477.33L200.81 476.07L199.39 474.77L198.03 473.42L196.72 472L195.48 470.53L194.29 469.02L193.17 467.45L192.12 465.83L191.13 464.17L190.21 462.45L189.36 460.71L188.59 458.92L187.88 457.1L187.25 455.23L186.69 453.33L186.22 451.4L185.84 449.45L185.53 447.46L185.31 445.45L185.17 443.41L185.13 441.33L185.17 439.28L185.31 437.23L185.53 435.21L185.84 433.23L186.22 431.27L186.69 429.34L187.25 427.44L187.88 425.58L188.59 423.75L189.36 421.96L190.21 420.21L191.13 418.5L192.12 416.85L193.17 415.23L194.29 413.66L195.48 412.14L196.72 410.68L198.03 409.25L199.39 407.9L200.81 406.6L202.27 405.36L203.79 404.16L205.36 403.05L206.98 402L208.64 401.01L210.34 400.08L212.1 399.23L213.87 398.45L215.71 397.74L217.56 397.11L219.46 396.56L221.39 396.09L223.36 395.7L225.35 395.4L227.36 395.18L229.4 395.04L231.46 394.99L233.53 395.04L235.57 395.18ZM227.33 401.12L225.29 401.37L223.29 401.71L221.33 402.15L219.42 402.7L217.53 403.33L215.69 404.05L213.9 404.85L212.14 405.75L210.45 406.71L208.82 407.76L207.23 408.89L205.69 410.08L204.21 411.36L202.82 412.71L201.47 414.1L200.19 415.56L199 417.1L197.87 418.69L196.82 420.32L195.84 422.02L194.95 423.78L194.13 425.57L193.41 427.4L192.77 429.29L192.22 431.2L191.78 433.17L191.42 435.16L191.15 437.19L190.99 439.24L190.94 441.33L190.99 443.42L191.15 445.48L191.42 447.5L191.78 449.5L192.22 451.46L192.77 453.38L193.41 455.26L194.13 457.1L194.95 458.91L195.84 460.65L196.82 462.34L197.87 463.99L199 465.58L200.19 467.1L201.47 468.58L202.82 469.99L204.21 471.33L205.69 472.6L207.23 473.81L208.82 474.94L210.45 475.99L212.14 476.96L213.9 477.86L215.69 478.68L217.53 479.4L219.42 480.03L221.33 480.58L223.29 481.03L225.29 481.39L227.33 481.64L229.39 481.8L231.46 481.85L233.55 481.8L235.61 481.64L237.63 481.39L239.63 481.03L241.59 480.58L243.52 480.03L245.39 479.4L247.24 478.68L249.03 477.86L250.78 476.96L252.47 475.99L254.12 474.94L255.71 473.81L257.25 472.6L258.71 471.33L260.12 469.99L261.45 468.58L262.73 467.1L263.93 465.58L265.07 463.99L266.12 462.34L267.09 460.65L267.99 458.91L268.8 457.1L269.53 455.26L270.17 453.38L270.7 451.46L271.16 449.5L271.52 447.5L271.77 445.48L271.93 443.42L271.99 441.33L271.93 439.26L271.77 437.2L271.5 435.18L271.14 433.18L270.69 431.24L270.14 429.3L269.49 427.44L268.77 425.6L267.95 423.81L267.06 422.07L266.09 420.37L265.03 418.74L263.9 417.15L262.69 415.63L261.42 414.15L260.07 412.75L258.67 411.42L257.2 410.15L255.67 408.95L254.09 407.82L252.44 406.77L250.74 405.8L249 404.9L247.21 404.1L245.37 403.38L243.49 402.73L241.57 402.2L239.61 401.74L237.63 401.38L235.61 401.13L233.55 400.98L231.46 400.93L229.39 400.96L227.33 401.12Z" id="dxFMWR4N2"></path><path d="M318.43 524.7C318.43 525.91 318.43 531.97 318.43 542.9C329.34 542.98 416.59 543.56 427.5 543.64C427.5 532.4 427.5 526.16 427.5 524.91C427.55 514.86 419.46 506.68 409.41 506.61C409.41 506.61 409.41 506.61 409.41 506.61C394.87 506.61 343.99 506.61 336.72 506.61C326.69 506.55 318.49 514.65 318.43 524.7C318.43 524.7 318.43 524.7 318.43 524.7Z" id="dHqQB76BQ"></path><path d="M318.43 524.7C318.43 525.91 318.43 531.97 318.43 542.9C329.34 542.98 416.59 543.56 427.5 543.64C427.5 532.4 427.5 526.16 427.5 524.91C427.55 514.86 419.46 506.68 409.41 506.61C409.41 506.61 409.41 506.61 409.41 506.61C394.87 506.61 343.99 506.61 336.72 506.61C326.69 506.55 318.49 514.65 318.43 524.7C318.43 524.7 318.43 524.7 318.43 524.7Z" id="arI850ze6"></path><path d="M318.43 524.7C318.43 525.91 318.43 531.97 318.43 542.9C329.34 542.98 416.59 543.56 427.5 543.64C427.5 532.4 427.5 526.16 427.5 524.91C427.55 514.86 419.46 506.68 409.41 506.61C409.41 506.61 409.41 506.61 409.41 506.61C394.87 506.61 343.99 506.61 336.72 506.61C326.69 506.55 318.49 514.65 318.43 524.7C318.43 524.7 318.43 524.7 318.43 524.7Z" id="k1TRisvTOb"></path><path d="M318.43 524.7C318.43 525.91 318.43 531.97 318.43 542.9C329.34 542.98 416.59 543.56 427.5 543.64C427.5 532.4 427.5 526.16 427.5 524.91C427.55 514.86 419.46 506.68 409.41 506.61C409.41 506.61 409.41 506.61 409.41 506.61C394.87 506.61 343.99 506.61 336.72 506.61C326.69 506.55 318.49 514.65 318.43 524.7C318.43 524.7 318.43 524.7 318.43 524.7Z" id="k1n2Di99ju"></path><path d="M377.02 395.18L379.03 395.4L381.02 395.7L382.98 396.09L384.91 396.56L386.8 397.11L388.67 397.74L390.49 398.45L392.28 399.23L394.04 400.08L395.73 401.01L397.4 402L399.02 403.05L400.59 404.16L402.11 405.36L403.57 406.6L404.98 407.9L406.35 409.25L407.65 410.68L408.89 412.14L410.07 413.66L411.2 415.23L412.25 416.85L413.24 418.5L414.17 420.21L415.02 421.96L415.79 423.75L416.49 425.58L417.12 427.44L417.67 429.34L418.14 431.27L418.54 433.23L418.85 435.21L419.07 437.23L419.2 439.28L419.24 441.33L419.2 443.41L419.07 445.45L418.85 447.46L418.54 449.45L418.14 451.4L417.67 453.33L417.12 455.23L416.49 457.1L415.79 458.92L415.02 460.71L414.17 462.45L413.24 464.17L412.25 465.83L411.2 467.45L410.07 469.02L408.89 470.53L407.65 472L406.35 473.42L404.98 474.77L403.57 476.07L402.11 477.33L400.59 478.5L399.02 479.62L397.4 480.69L395.73 481.68L394.04 482.59L392.28 483.43L390.49 484.22L388.67 484.93L386.8 485.55L384.91 486.1L382.98 486.58L381.02 486.97L379.03 487.27L377.02 487.49L374.97 487.63L372.9 487.67L370.84 487.63L368.8 487.49L366.79 487.27L364.8 486.97L362.84 486.58L360.9 486.1L359.02 485.55L357.15 484.93L355.33 484.22L353.54 483.43L351.78 482.59L350.08 481.68L348.42 480.69L346.8 479.62L345.23 478.5L343.71 477.33L342.25 476.07L340.84 474.77L339.47 473.42L338.17 472L336.92 470.53L335.75 469.02L334.62 467.45L333.56 465.83L332.58 464.17L331.65 462.45L330.8 460.71L330.03 458.92L329.32 457.1L328.7 455.23L328.15 453.33L327.68 451.4L327.28 449.45L326.97 447.46L326.75 445.45L326.62 443.41L326.58 441.33L326.62 439.28L326.75 437.23L326.97 435.21L327.28 433.23L327.68 431.27L328.15 429.34L328.7 427.44L329.32 425.58L330.03 423.75L330.8 421.96L331.65 420.21L332.58 418.5L333.56 416.85L334.62 415.23L335.75 413.66L336.92 412.14L338.17 410.68L339.47 409.25L340.84 407.9L342.25 406.6L343.71 405.36L345.23 404.16L346.8 403.05L348.42 402L350.08 401.01L351.78 400.08L353.54 399.23L355.33 398.45L357.15 397.74L359.02 397.11L360.9 396.56L362.84 396.09L364.8 395.7L366.79 395.4L368.8 395.18L370.84 395.04L372.9 394.99L374.97 395.04L377.02 395.18ZM368.77 401.12L366.75 401.37L364.74 401.71L362.79 402.15L360.86 402.7L358.97 403.33L357.14 404.05L355.35 404.85L353.6 405.75L351.91 406.71L350.26 407.76L348.67 408.89L347.13 410.08L345.67 411.36L344.26 412.71L342.92 414.1L341.64 415.56L340.44 417.1L339.31 418.69L338.26 420.32L337.29 422.02L336.39 423.78L335.57 425.57L334.85 427.4L334.21 429.29L333.66 431.2L333.22 433.17L332.86 435.16L332.61 437.19L332.45 439.24L332.39 441.33L332.45 443.42L332.61 445.48L332.86 447.5L333.22 449.5L333.66 451.46L334.21 453.38L334.85 455.26L335.57 457.1L336.39 458.91L337.29 460.65L338.26 462.34L339.31 463.99L340.44 465.58L341.64 467.1L342.92 468.58L344.26 469.99L345.67 471.33L347.13 472.6L348.67 473.81L350.26 474.94L351.91 475.99L353.6 476.96L355.35 477.86L357.14 478.68L358.97 479.4L360.86 480.03L362.79 480.58L364.74 481.03L366.75 481.39L368.77 481.64L370.83 481.8L372.9 481.85L374.99 481.8L377.05 481.64L379.07 481.39L381.07 481.03L383.03 480.58L384.96 480.03L386.85 479.4L388.68 478.68L390.47 477.86L392.22 476.96L393.91 475.99L395.56 474.94L397.15 473.81L398.69 472.6L400.15 471.33L401.56 469.99L402.9 468.58L404.17 467.1L405.38 465.58L406.51 463.99L407.56 462.34L408.53 460.65L409.43 458.91L410.24 457.1L410.97 455.26L411.61 453.38L412.14 451.46L412.6 449.5L412.96 447.5L413.21 445.48L413.37 443.42L413.43 441.33L413.37 439.26L413.21 437.2L412.95 435.18L412.58 433.18L412.13 431.24L411.58 429.3L410.94 427.44L410.21 425.6L409.4 423.81L408.5 422.07L407.53 420.37L406.48 418.74L405.35 417.15L404.14 415.63L402.86 414.15L401.53 412.75L400.12 411.42L398.64 410.15L397.12 408.95L395.53 407.82L393.88 406.77L392.19 405.8L390.44 404.9L388.65 404.1L386.82 403.38L384.93 402.73L383.01 402.2L381.07 401.74L379.07 401.38L377.05 401.13L374.99 400.98L372.9 400.93L370.83 400.96L368.77 401.12Z" id="a2HjLwMIy"></path><path d="M377.02 395.18L379.03 395.4L381.02 395.7L382.98 396.09L384.91 396.56L386.8 397.11L388.67 397.74L390.49 398.45L392.28 399.23L394.04 400.08L395.73 401.01L397.4 402L399.02 403.05L400.59 404.16L402.11 405.36L403.57 406.6L404.98 407.9L406.35 409.25L407.65 410.68L408.89 412.14L410.07 413.66L411.2 415.23L412.25 416.85L413.24 418.5L414.17 420.21L415.02 421.96L415.79 423.75L416.49 425.58L417.12 427.44L417.67 429.34L418.14 431.27L418.54 433.23L418.85 435.21L419.07 437.23L419.2 439.28L419.24 441.33L419.2 443.41L419.07 445.45L418.85 447.46L418.54 449.45L418.14 451.4L417.67 453.33L417.12 455.23L416.49 457.1L415.79 458.92L415.02 460.71L414.17 462.45L413.24 464.17L412.25 465.83L411.2 467.45L410.07 469.02L408.89 470.53L407.65 472L406.35 473.42L404.98 474.77L403.57 476.07L402.11 477.33L400.59 478.5L399.02 479.62L397.4 480.69L395.73 481.68L394.04 482.59L392.28 483.43L390.49 484.22L388.67 484.93L386.8 485.55L384.91 486.1L382.98 486.58L381.02 486.97L379.03 487.27L377.02 487.49L374.97 487.63L372.9 487.67L370.84 487.63L368.8 487.49L366.79 487.27L364.8 486.97L362.84 486.58L360.9 486.1L359.02 485.55L357.15 484.93L355.33 484.22L353.54 483.43L351.78 482.59L350.08 481.68L348.42 480.69L346.8 479.62L345.23 478.5L343.71 477.33L342.25 476.07L340.84 474.77L339.47 473.42L338.17 472L336.92 470.53L335.75 469.02L334.62 467.45L333.56 465.83L332.58 464.17L331.65 462.45L330.8 460.71L330.03 458.92L329.32 457.1L328.7 455.23L328.15 453.33L327.68 451.4L327.28 449.45L326.97 447.46L326.75 445.45L326.62 443.41L326.58 441.33L326.62 439.28L326.75 437.23L326.97 435.21L327.28 433.23L327.68 431.27L328.15 429.34L328.7 427.44L329.32 425.58L330.03 423.75L330.8 421.96L331.65 420.21L332.58 418.5L333.56 416.85L334.62 415.23L335.75 413.66L336.92 412.14L338.17 410.68L339.47 409.25L340.84 407.9L342.25 406.6L343.71 405.36L345.23 404.16L346.8 403.05L348.42 402L350.08 401.01L351.78 400.08L353.54 399.23L355.33 398.45L357.15 397.74L359.02 397.11L360.9 396.56L362.84 396.09L364.8 395.7L366.79 395.4L368.8 395.18L370.84 395.04L372.9 394.99L374.97 395.04L377.02 395.18ZM368.77 401.12L366.75 401.37L364.74 401.71L362.79 402.15L360.86 402.7L358.97 403.33L357.14 404.05L355.35 404.85L353.6 405.75L351.91 406.71L350.26 407.76L348.67 408.89L347.13 410.08L345.67 411.36L344.26 412.71L342.92 414.1L341.64 415.56L340.44 417.1L339.31 418.69L338.26 420.32L337.29 422.02L336.39 423.78L335.57 425.57L334.85 427.4L334.21 429.29L333.66 431.2L333.22 433.17L332.86 435.16L332.61 437.19L332.45 439.24L332.39 441.33L332.45 443.42L332.61 445.48L332.86 447.5L333.22 449.5L333.66 451.46L334.21 453.38L334.85 455.26L335.57 457.1L336.39 458.91L337.29 460.65L338.26 462.34L339.31 463.99L340.44 465.58L341.64 467.1L342.92 468.58L344.26 469.99L345.67 471.33L347.13 472.6L348.67 473.81L350.26 474.94L351.91 475.99L353.6 476.96L355.35 477.86L357.14 478.68L358.97 479.4L360.86 480.03L362.79 480.58L364.74 481.03L366.75 481.39L368.77 481.64L370.83 481.8L372.9 481.85L374.99 481.8L377.05 481.64L379.07 481.39L381.07 481.03L383.03 480.58L384.96 480.03L386.85 479.4L388.68 478.68L390.47 477.86L392.22 476.96L393.91 475.99L395.56 474.94L397.15 473.81L398.69 472.6L400.15 471.33L401.56 469.99L402.9 468.58L404.17 467.1L405.38 465.58L406.51 463.99L407.56 462.34L408.53 460.65L409.43 458.91L410.24 457.1L410.97 455.26L411.61 453.38L412.14 451.46L412.6 449.5L412.96 447.5L413.21 445.48L413.37 443.42L413.43 441.33L413.37 439.26L413.21 437.2L412.95 435.18L412.58 433.18L412.13 431.24L411.58 429.3L410.94 427.44L410.21 425.6L409.4 423.81L408.5 422.07L407.53 420.37L406.48 418.74L405.35 417.15L404.14 415.63L402.86 414.15L401.53 412.75L400.12 411.42L398.64 410.15L397.12 408.95L395.53 407.82L393.88 406.77L392.19 405.8L390.44 404.9L388.65 404.1L386.82 403.38L384.93 402.73L383.01 402.2L381.07 401.74L379.07 401.38L377.05 401.13L374.99 400.98L372.9 400.93L370.83 400.96L368.77 401.12Z" id="c3jzsIi29U"></path><path d="M377.02 395.18L379.03 395.4L381.02 395.7L382.98 396.09L384.91 396.56L386.8 397.11L388.67 397.74L390.49 398.45L392.28 399.23L394.04 400.08L395.73 401.01L397.4 402L399.02 403.05L400.59 404.16L402.11 405.36L403.57 406.6L404.98 407.9L406.35 409.25L407.65 410.68L408.89 412.14L410.07 413.66L411.2 415.23L412.25 416.85L413.24 418.5L414.17 420.21L415.02 421.96L415.79 423.75L416.49 425.58L417.12 427.44L417.67 429.34L418.14 431.27L418.54 433.23L418.85 435.21L419.07 437.23L419.2 439.28L419.24 441.33L419.2 443.41L419.07 445.45L418.85 447.46L418.54 449.45L418.14 451.4L417.67 453.33L417.12 455.23L416.49 457.1L415.79 458.92L415.02 460.71L414.17 462.45L413.24 464.17L412.25 465.83L411.2 467.45L410.07 469.02L408.89 470.53L407.65 472L406.35 473.42L404.98 474.77L403.57 476.07L402.11 477.33L400.59 478.5L399.02 479.62L397.4 480.69L395.73 481.68L394.04 482.59L392.28 483.43L390.49 484.22L388.67 484.93L386.8 485.55L384.91 486.1L382.98 486.58L381.02 486.97L379.03 487.27L377.02 487.49L374.97 487.63L372.9 487.67L370.84 487.63L368.8 487.49L366.79 487.27L364.8 486.97L362.84 486.58L360.9 486.1L359.02 485.55L357.15 484.93L355.33 484.22L353.54 483.43L351.78 482.59L350.08 481.68L348.42 480.69L346.8 479.62L345.23 478.5L343.71 477.33L342.25 476.07L340.84 474.77L339.47 473.42L338.17 472L336.92 470.53L335.75 469.02L334.62 467.45L333.56 465.83L332.58 464.17L331.65 462.45L330.8 460.71L330.03 458.92L329.32 457.1L328.7 455.23L328.15 453.33L327.68 451.4L327.28 449.45L326.97 447.46L326.75 445.45L326.62 443.41L326.58 441.33L326.62 439.28L326.75 437.23L326.97 435.21L327.28 433.23L327.68 431.27L328.15 429.34L328.7 427.44L329.32 425.58L330.03 423.75L330.8 421.96L331.65 420.21L332.58 418.5L333.56 416.85L334.62 415.23L335.75 413.66L336.92 412.14L338.17 410.68L339.47 409.25L340.84 407.9L342.25 406.6L343.71 405.36L345.23 404.16L346.8 403.05L348.42 402L350.08 401.01L351.78 400.08L353.54 399.23L355.33 398.45L357.15 397.74L359.02 397.11L360.9 396.56L362.84 396.09L364.8 395.7L366.79 395.4L368.8 395.18L370.84 395.04L372.9 394.99L374.97 395.04L377.02 395.18ZM368.77 401.12L366.75 401.37L364.74 401.71L362.79 402.15L360.86 402.7L358.97 403.33L357.14 404.05L355.35 404.85L353.6 405.75L351.91 406.71L350.26 407.76L348.67 408.89L347.13 410.08L345.67 411.36L344.26 412.71L342.92 414.1L341.64 415.56L340.44 417.1L339.31 418.69L338.26 420.32L337.29 422.02L336.39 423.78L335.57 425.57L334.85 427.4L334.21 429.29L333.66 431.2L333.22 433.17L332.86 435.16L332.61 437.19L332.45 439.24L332.39 441.33L332.45 443.42L332.61 445.48L332.86 447.5L333.22 449.5L333.66 451.46L334.21 453.38L334.85 455.26L335.57 457.1L336.39 458.91L337.29 460.65L338.26 462.34L339.31 463.99L340.44 465.58L341.64 467.1L342.92 468.58L344.26 469.99L345.67 471.33L347.13 472.6L348.67 473.81L350.26 474.94L351.91 475.99L353.6 476.96L355.35 477.86L357.14 478.68L358.97 479.4L360.86 480.03L362.79 480.58L364.74 481.03L366.75 481.39L368.77 481.64L370.83 481.8L372.9 481.85L374.99 481.8L377.05 481.64L379.07 481.39L381.07 481.03L383.03 480.58L384.96 480.03L386.85 479.4L388.68 478.68L390.47 477.86L392.22 476.96L393.91 475.99L395.56 474.94L397.15 473.81L398.69 472.6L400.15 471.33L401.56 469.99L402.9 468.58L404.17 467.1L405.38 465.58L406.51 463.99L407.56 462.34L408.53 460.65L409.43 458.91L410.24 457.1L410.97 455.26L411.61 453.38L412.14 451.46L412.6 449.5L412.96 447.5L413.21 445.48L413.37 443.42L413.43 441.33L413.37 439.26L413.21 437.2L412.95 435.18L412.58 433.18L412.13 431.24L411.58 429.3L410.94 427.44L410.21 425.6L409.4 423.81L408.5 422.07L407.53 420.37L406.48 418.74L405.35 417.15L404.14 415.63L402.86 414.15L401.53 412.75L400.12 411.42L398.64 410.15L397.12 408.95L395.53 407.82L393.88 406.77L392.19 405.8L390.44 404.9L388.65 404.1L386.82 403.38L384.93 402.73L383.01 402.2L381.07 401.74L379.07 401.38L377.05 401.13L374.99 400.98L372.9 400.93L370.83 400.96L368.77 401.12Z" id="a2612BLR5G"></path><path d="M377.02 395.18L379.03 395.4L381.02 395.7L382.98 396.09L384.91 396.56L386.8 397.11L388.67 397.74L390.49 398.45L392.28 399.23L394.04 400.08L395.73 401.01L397.4 402L399.02 403.05L400.59 404.16L402.11 405.36L403.57 406.6L404.98 407.9L406.35 409.25L407.65 410.68L408.89 412.14L410.07 413.66L411.2 415.23L412.25 416.85L413.24 418.5L414.17 420.21L415.02 421.96L415.79 423.75L416.49 425.58L417.12 427.44L417.67 429.34L418.14 431.27L418.54 433.23L418.85 435.21L419.07 437.23L419.2 439.28L419.24 441.33L419.2 443.41L419.07 445.45L418.85 447.46L418.54 449.45L418.14 451.4L417.67 453.33L417.12 455.23L416.49 457.1L415.79 458.92L415.02 460.71L414.17 462.45L413.24 464.17L412.25 465.83L411.2 467.45L410.07 469.02L408.89 470.53L407.65 472L406.35 473.42L404.98 474.77L403.57 476.07L402.11 477.33L400.59 478.5L399.02 479.62L397.4 480.69L395.73 481.68L394.04 482.59L392.28 483.43L390.49 484.22L388.67 484.93L386.8 485.55L384.91 486.1L382.98 486.58L381.02 486.97L379.03 487.27L377.02 487.49L374.97 487.63L372.9 487.67L370.84 487.63L368.8 487.49L366.79 487.27L364.8 486.97L362.84 486.58L360.9 486.1L359.02 485.55L357.15 484.93L355.33 484.22L353.54 483.43L351.78 482.59L350.08 481.68L348.42 480.69L346.8 479.62L345.23 478.5L343.71 477.33L342.25 476.07L340.84 474.77L339.47 473.42L338.17 472L336.92 470.53L335.75 469.02L334.62 467.45L333.56 465.83L332.58 464.17L331.65 462.45L330.8 460.71L330.03 458.92L329.32 457.1L328.7 455.23L328.15 453.33L327.68 451.4L327.28 449.45L326.97 447.46L326.75 445.45L326.62 443.41L326.58 441.33L326.62 439.28L326.75 437.23L326.97 435.21L327.28 433.23L327.68 431.27L328.15 429.34L328.7 427.44L329.32 425.58L330.03 423.75L330.8 421.96L331.65 420.21L332.58 418.5L333.56 416.85L334.62 415.23L335.75 413.66L336.92 412.14L338.17 410.68L339.47 409.25L340.84 407.9L342.25 406.6L343.71 405.36L345.23 404.16L346.8 403.05L348.42 402L350.08 401.01L351.78 400.08L353.54 399.23L355.33 398.45L357.15 397.74L359.02 397.11L360.9 396.56L362.84 396.09L364.8 395.7L366.79 395.4L368.8 395.18L370.84 395.04L372.9 394.99L374.97 395.04L377.02 395.18ZM368.77 401.12L366.75 401.37L364.74 401.71L362.79 402.15L360.86 402.7L358.97 403.33L357.14 404.05L355.35 404.85L353.6 405.75L351.91 406.71L350.26 407.76L348.67 408.89L347.13 410.08L345.67 411.36L344.26 412.71L342.92 414.1L341.64 415.56L340.44 417.1L339.31 418.69L338.26 420.32L337.29 422.02L336.39 423.78L335.57 425.57L334.85 427.4L334.21 429.29L333.66 431.2L333.22 433.17L332.86 435.16L332.61 437.19L332.45 439.24L332.39 441.33L332.45 443.42L332.61 445.48L332.86 447.5L333.22 449.5L333.66 451.46L334.21 453.38L334.85 455.26L335.57 457.1L336.39 458.91L337.29 460.65L338.26 462.34L339.31 463.99L340.44 465.58L341.64 467.1L342.92 468.58L344.26 469.99L345.67 471.33L347.13 472.6L348.67 473.81L350.26 474.94L351.91 475.99L353.6 476.96L355.35 477.86L357.14 478.68L358.97 479.4L360.86 480.03L362.79 480.58L364.74 481.03L366.75 481.39L368.77 481.64L370.83 481.8L372.9 481.85L374.99 481.8L377.05 481.64L379.07 481.39L381.07 481.03L383.03 480.58L384.96 480.03L386.85 479.4L388.68 478.68L390.47 477.86L392.22 476.96L393.91 475.99L395.56 474.94L397.15 473.81L398.69 472.6L400.15 471.33L401.56 469.99L402.9 468.58L404.17 467.1L405.38 465.58L406.51 463.99L407.56 462.34L408.53 460.65L409.43 458.91L410.24 457.1L410.97 455.26L411.61 453.38L412.14 451.46L412.6 449.5L412.96 447.5L413.21 445.48L413.37 443.42L413.43 441.33L413.37 439.26L413.21 437.2L412.95 435.18L412.58 433.18L412.13 431.24L411.58 429.3L410.94 427.44L410.21 425.6L409.4 423.81L408.5 422.07L407.53 420.37L406.48 418.74L405.35 417.15L404.14 415.63L402.86 414.15L401.53 412.75L400.12 411.42L398.64 410.15L397.12 408.95L395.53 407.82L393.88 406.77L392.19 405.8L390.44 404.9L388.65 404.1L386.82 403.38L384.93 402.73L383.01 402.2L381.07 401.74L379.07 401.38L377.05 401.13L374.99 400.98L372.9 400.93L370.83 400.96L368.77 401.12Z" id="beWJ4OZa1"></path><path d="M355.75 96.91L360.13 97.33L364.5 97.93L368.85 98.68L373.18 99.61L377.47 100.69L381.73 101.96L385.94 103.39L390.1 104.99L394.21 106.75L398.28 108.68L402.27 110.79L406.19 113.07L410.04 115.5L413.83 118.11L417.52 120.87L421.11 123.81L424.61 126.92L428.02 130.2L429.62 131.83L431.19 133.48L432.72 135.16L434.21 136.87L435.67 138.62L437.08 140.37L438.46 142.16L439.81 143.97L441.12 145.81L442.39 147.66L443.61 149.55L444.81 151.45L445.97 153.38L447.09 155.32L448.15 157.29L449.19 159.28L450.19 161.29L451.15 163.3L452.08 165.36L452.94 167.42L453.79 169.49L454.58 171.58L455.35 173.7L456.05 175.82L456.73 177.95L457.36 180.1L457.95 182.27L458.5 184.45L459 186.64L459.46 188.84L459.88 191.05L460.26 193.28L460.59 195.51L460.87 197.74L461.12 200L461.31 202.25L461.47 204.52L461.58 206.78L461.64 209.06L461.67 211.34L461.66 213.73L461.6 216.11L461.5 218.48L461.34 220.86L461.16 223.23L460.92 225.58L460.64 227.92L460.32 230.26L459.95 232.59L459.54 234.91L459.08 237.22L458.58 239.53L458.03 241.82L457.45 244.08L456.82 246.36L456.16 248.6L455.44 250.83L454.69 253.06L453.9 255.28L453.07 257.46L452.19 259.64L451.26 261.79L450.3 263.95L449.32 266.07L448.28 268.17L447.2 270.26L446.08 272.33L444.92 274.37L443.72 276.4L442.48 278.41L441.21 280.39L439.89 282.35L438.54 284.28L437.15 286.2L435.73 288.08L434.26 289.95L432.76 291.79L431.22 293.59L429.64 295.38L428.02 297.14L346.88 383.36L346.88 326.02L345.34 326.01L343.79 325.99L342.23 325.93L340.69 325.87L339.15 325.77L337.62 325.66L336.08 325.52L334.54 325.36L333.01 325.19L331.48 325L329.95 324.78L328.44 324.55L326.92 324.28L325.41 324.01L323.91 323.71L320.89 323.05L319.4 322.69L317.91 322.32L316.43 321.92L314.96 321.5L313.48 321.06L312 320.6L310.54 320.12L309.1 319.63L307.64 319.11L306.21 318.58L304.76 318.01L303.34 317.45L301.92 316.85L300.51 316.22L299.11 315.59L297.71 314.95L296.32 314.28L294.93 313.58L292.2 312.14L290.85 311.39L289.5 310.62L288.17 309.83L287.69 311.79L287.16 313.71L286.56 315.59L285.9 317.46L285.18 319.29L284.41 321.09L283.58 322.85L282.68 324.56L281.74 326.26L280.74 327.91L279.69 329.51L278.59 331.08L277.42 332.62L276.23 334.11L274.97 335.55L273.69 336.95L272.34 338.3L270.95 339.62L269.53 340.88L268.06 342.09L266.56 343.26L265.02 344.38L263.43 345.45L261.83 346.45L260.17 347.41L258.49 348.32L256.77 349.17L255.03 349.95L253.26 350.69L251.45 351.37L249.63 351.98L247.78 352.55L245.91 353.03L244.01 353.47L242.08 353.83L240.14 354.15L238.18 354.38L236.2 354.56L234.21 354.65L232.2 354.7L232.2 383.47L191.68 340.41L190.88 339.53L190.1 338.63L189.33 337.72L188.57 336.81L187.84 335.87L187.13 334.93L186.42 333.97L185.75 332.99L185.09 332.02L184.46 331.03L183.83 330.03L183.23 329.01L182.65 327.99L181.55 325.91L181.04 324.84L180.53 323.79L180.06 322.71L179.61 321.64L179.17 320.54L178.74 319.44L178.35 318.34L177.97 317.23L177.61 316.11L177.28 314.98L176.97 313.85L176.67 312.71L176.4 311.56L176.15 310.41L175.93 309.25L175.73 308.09L175.54 306.93L175.38 305.76L175.24 304.59L175.12 303.41L175.02 302.22L174.94 301.04L174.9 299.84L174.86 298.65L174.86 297.46L174.91 295.1L175.05 292.76L175.29 290.44L175.62 288.16L176.03 285.9L176.53 283.69L177.13 281.49L177.79 279.34L178.54 277.22L179.37 275.14L180.28 273.1L181.27 271.11L182.32 269.16L183.45 267.26L184.66 265.41L185.94 263.6L187.27 261.84L188.67 260.15L190.13 258.5L191.67 256.91L193.25 255.39L194.89 253.93L196.58 252.51L198.34 251.18L200.15 249.91L202 248.71L203.9 247.58L205.85 246.51L207.84 245.54L209.88 244.63L211.97 243.8L214.08 243.04L216.24 242.37L218.43 241.79L220.66 241.29L222.9 240.86L225.19 240.55L227.5 240.31L229.84 240.17L232.2 240.12L235.9 240.12L235.18 237.16L234.54 234.19L233.97 231.22L233.49 228.25L233.08 225.27L232.75 222.28L232.5 219.3L232.32 216.32L232.23 213.33L232.21 210.37L232.28 207.38L232.42 204.43L232.64 201.46L232.92 198.52L233.28 195.59L233.72 192.67L234.24 189.76L234.84 186.86L235.5 183.98L236.23 181.13L237.05 178.3L237.93 175.47L238.89 172.69L239.92 169.91L241.02 167.18L242.19 164.46L243.44 161.78L244.75 159.11L246.13 156.49L247.59 153.9L249.11 151.34L250.7 148.82L252.35 146.33L254.07 143.89L255.88 141.47L257.73 139.12L259.66 136.79L261.66 134.52L263.71 132.29L265.85 130.12L269.26 126.84L272.78 123.73L276.37 120.79L280.06 118.03L283.85 115.42L287.69 112.99L291.62 110.73L295.62 108.64L299.68 106.71L303.79 104.95L307.97 103.35L312.18 101.92L316.43 100.66L320.73 99.58L325.05 98.65L329.4 97.9L333.77 97.32L338.15 96.89L342.55 96.66L346.96 96.56L351.36 96.66L355.75 96.91ZM338.78 106.5L334.76 106.91L330.75 107.46L326.76 108.17L322.81 109.03L318.87 110.05L314.97 111.23L311.11 112.55L307.31 114.04L303.54 115.67L299.82 117.45L296.17 119.39L292.58 121.48L289.06 123.74L285.61 126.15L282.23 128.69L278.93 131.41L275.73 134.27L272.62 137.28L270.59 139.37L268.63 141.51L266.75 143.69L264.91 145.9L263.15 148.18L261.45 150.47L259.82 152.83L258.27 155.2L256.77 157.62L255.34 160.07L253.99 162.56L252.71 165.08L251.48 167.62L250.34 170.2L249.25 172.8L248.25 175.42L247.3 178.08L246.44 180.76L245.66 183.45L244.93 186.17L244.27 188.91L243.69 191.66L243.19 194.43L242.77 197.21L242.41 200L242.12 202.8L241.92 205.61L241.78 208.43L241.73 211.26L241.75 214.09L241.84 216.93L242.01 219.77L242.25 222.6L242.58 225.44L242.99 228.27L243.46 231.09L244.02 233.92L244.65 236.73L245.37 239.54L246.17 242.34L248.07 242.86L249.94 243.42L251.78 244.05L253.59 244.74L255.36 245.49L257.1 246.3L258.8 247.16L260.48 248.07L262.11 249.03L263.71 250.03L265.27 251.1L266.79 252.22L268.27 253.38L269.71 254.57L271.11 255.83L272.46 257.11L273.77 258.45L275.04 259.83L276.26 261.24L277.42 262.71L278.55 264.2L279.62 265.72L280.66 267.29L281.63 268.88L282.56 270.51L283.42 272.17L284.24 273.85L285.01 275.58L285.72 277.33L286.36 279.1L286.96 280.89L287.49 282.71L287.96 284.56L288.39 286.42L288.73 288.3L289.03 290.22L289.25 292.13L289.42 294.07L289.52 296.03L289.55 297.99L289.55 300.1L290.83 300.93L292.12 301.74L293.44 302.53L294.75 303.3L297.41 304.78L298.77 305.48L300.12 306.17L301.48 306.83L302.85 307.48L304.23 308.1L305.63 308.72L307.03 309.3L308.44 309.86L309.85 310.41L311.27 310.95L312.69 311.45L314.12 311.92L315.57 312.39L317.01 312.83L318.47 313.26L319.93 313.65L321.39 314.02L322.87 314.39L324.35 314.72L325.84 315.03L327.31 315.33L328.81 315.59L330.31 315.85L331.81 316.07L333.31 316.27L334.82 316.46L336.33 316.62L337.85 316.76L339.36 316.88L340.88 316.98L342.41 317.06L343.93 317.1L345.47 317.13L356.51 317.13L356.51 359.45L421.05 290.58L422.54 288.96L424.02 287.31L425.45 285.65L426.84 283.95L428.21 282.24L429.54 280.5L430.83 278.74L432.1 276.95L433.33 275.14L434.51 273.32L435.67 271.47L436.78 269.6L437.87 267.71L438.9 265.8L439.91 263.87L440.88 261.94L441.81 259.97L442.7 257.99L443.57 256L444.38 253.99L445.17 251.96L445.91 249.92L446.61 247.87L447.27 245.81L447.9 243.72L448.48 241.63L449.03 239.53L449.55 237.41L450.01 235.29L450.45 233.15L450.82 231L451.17 228.85L451.48 226.68L451.75 224.51L451.97 222.33L452.16 220.15L452.3 217.95L452.39 215.75L452.46 213.55L452.47 211.34L452.44 209.23L452.38 207.15L452.28 205.06L452.13 202.97L451.95 200.88L451.72 198.81L451.45 196.75L451.14 194.69L450.79 192.65L450.41 190.61L449.97 188.58L449.5 186.56L449 184.55L448.45 182.55L447.87 180.58L447.24 178.61L446.58 176.65L445.89 174.7L445.15 172.79L444.37 170.87L443.57 168.97L442.72 167.09L441.82 165.22L440.9 163.38L439.94 161.54L438.95 159.74L437.91 157.95L436.85 156.17L435.75 154.41L434.6 152.69L433.44 150.97L432.23 149.28L430.99 147.61L429.7 145.98L428.4 144.35L427.05 142.76L425.67 141.19L424.25 139.64L422.81 138.11L421.33 136.62L418.19 133.64L414.96 130.8L411.64 128.13L408.25 125.6L404.78 123.23L401.23 121.01L397.62 118.94L393.94 117.04L390.22 115.28L386.44 113.68L382.62 112.23L378.74 110.95L374.83 109.8L370.89 108.83L366.93 107.99L362.95 107.32L358.93 106.8L354.91 106.42L350.87 106.22L346.83 106.16L342.8 106.25L338.78 106.5Z" id="m3FvE1KBOC"></path><path d="M355.75 96.91L360.13 97.33L364.5 97.93L368.85 98.68L373.18 99.61L377.47 100.69L381.73 101.96L385.94 103.39L390.1 104.99L394.21 106.75L398.28 108.68L402.27 110.79L406.19 113.07L410.04 115.5L413.83 118.11L417.52 120.87L421.11 123.81L424.61 126.92L428.02 130.2L429.62 131.83L431.19 133.48L432.72 135.16L434.21 136.87L435.67 138.62L437.08 140.37L438.46 142.16L439.81 143.97L441.12 145.81L442.39 147.66L443.61 149.55L444.81 151.45L445.97 153.38L447.09 155.32L448.15 157.29L449.19 159.28L450.19 161.29L451.15 163.3L452.08 165.36L452.94 167.42L453.79 169.49L454.58 171.58L455.35 173.7L456.05 175.82L456.73 177.95L457.36 180.1L457.95 182.27L458.5 184.45L459 186.64L459.46 188.84L459.88 191.05L460.26 193.28L460.59 195.51L460.87 197.74L461.12 200L461.31 202.25L461.47 204.52L461.58 206.78L461.64 209.06L461.67 211.34L461.66 213.73L461.6 216.11L461.5 218.48L461.34 220.86L461.16 223.23L460.92 225.58L460.64 227.92L460.32 230.26L459.95 232.59L459.54 234.91L459.08 237.22L458.58 239.53L458.03 241.82L457.45 244.08L456.82 246.36L456.16 248.6L455.44 250.83L454.69 253.06L453.9 255.28L453.07 257.46L452.19 259.64L451.26 261.79L450.3 263.95L449.32 266.07L448.28 268.17L447.2 270.26L446.08 272.33L444.92 274.37L443.72 276.4L442.48 278.41L441.21 280.39L439.89 282.35L438.54 284.28L437.15 286.2L435.73 288.08L434.26 289.95L432.76 291.79L431.22 293.59L429.64 295.38L428.02 297.14L346.88 383.36L346.88 326.02L345.34 326.01L343.79 325.99L342.23 325.93L340.69 325.87L339.15 325.77L337.62 325.66L336.08 325.52L334.54 325.36L333.01 325.19L331.48 325L329.95 324.78L328.44 324.55L326.92 324.28L325.41 324.01L323.91 323.71L320.89 323.05L319.4 322.69L317.91 322.32L316.43 321.92L314.96 321.5L313.48 321.06L312 320.6L310.54 320.12L309.1 319.63L307.64 319.11L306.21 318.58L304.76 318.01L303.34 317.45L301.92 316.85L300.51 316.22L299.11 315.59L297.71 314.95L296.32 314.28L294.93 313.58L292.2 312.14L290.85 311.39L289.5 310.62L288.17 309.83L287.69 311.79L287.16 313.71L286.56 315.59L285.9 317.46L285.18 319.29L284.41 321.09L283.58 322.85L282.68 324.56L281.74 326.26L280.74 327.91L279.69 329.51L278.59 331.08L277.42 332.62L276.23 334.11L274.97 335.55L273.69 336.95L272.34 338.3L270.95 339.62L269.53 340.88L268.06 342.09L266.56 343.26L265.02 344.38L263.43 345.45L261.83 346.45L260.17 347.41L258.49 348.32L256.77 349.17L255.03 349.95L253.26 350.69L251.45 351.37L249.63 351.98L247.78 352.55L245.91 353.03L244.01 353.47L242.08 353.83L240.14 354.15L238.18 354.38L236.2 354.56L234.21 354.65L232.2 354.7L232.2 383.47L191.68 340.41L190.88 339.53L190.1 338.63L189.33 337.72L188.57 336.81L187.84 335.87L187.13 334.93L186.42 333.97L185.75 332.99L185.09 332.02L184.46 331.03L183.83 330.03L183.23 329.01L182.65 327.99L181.55 325.91L181.04 324.84L180.53 323.79L180.06 322.71L179.61 321.64L179.17 320.54L178.74 319.44L178.35 318.34L177.97 317.23L177.61 316.11L177.28 314.98L176.97 313.85L176.67 312.71L176.4 311.56L176.15 310.41L175.93 309.25L175.73 308.09L175.54 306.93L175.38 305.76L175.24 304.59L175.12 303.41L175.02 302.22L174.94 301.04L174.9 299.84L174.86 298.65L174.86 297.46L174.91 295.1L175.05 292.76L175.29 290.44L175.62 288.16L176.03 285.9L176.53 283.69L177.13 281.49L177.79 279.34L178.54 277.22L179.37 275.14L180.28 273.1L181.27 271.11L182.32 269.16L183.45 267.26L184.66 265.41L185.94 263.6L187.27 261.84L188.67 260.15L190.13 258.5L191.67 256.91L193.25 255.39L194.89 253.93L196.58 252.51L198.34 251.18L200.15 249.91L202 248.71L203.9 247.58L205.85 246.51L207.84 245.54L209.88 244.63L211.97 243.8L214.08 243.04L216.24 242.37L218.43 241.79L220.66 241.29L222.9 240.86L225.19 240.55L227.5 240.31L229.84 240.17L232.2 240.12L235.9 240.12L235.18 237.16L234.54 234.19L233.97 231.22L233.49 228.25L233.08 225.27L232.75 222.28L232.5 219.3L232.32 216.32L232.23 213.33L232.21 210.37L232.28 207.38L232.42 204.43L232.64 201.46L232.92 198.52L233.28 195.59L233.72 192.67L234.24 189.76L234.84 186.86L235.5 183.98L236.23 181.13L237.05 178.3L237.93 175.47L238.89 172.69L239.92 169.91L241.02 167.18L242.19 164.46L243.44 161.78L244.75 159.11L246.13 156.49L247.59 153.9L249.11 151.34L250.7 148.82L252.35 146.33L254.07 143.89L255.88 141.47L257.73 139.12L259.66 136.79L261.66 134.52L263.71 132.29L265.85 130.12L269.26 126.84L272.78 123.73L276.37 120.79L280.06 118.03L283.85 115.42L287.69 112.99L291.62 110.73L295.62 108.64L299.68 106.71L303.79 104.95L307.97 103.35L312.18 101.92L316.43 100.66L320.73 99.58L325.05 98.65L329.4 97.9L333.77 97.32L338.15 96.89L342.55 96.66L346.96 96.56L351.36 96.66L355.75 96.91ZM338.78 106.5L334.76 106.91L330.75 107.46L326.76 108.17L322.81 109.03L318.87 110.05L314.97 111.23L311.11 112.55L307.31 114.04L303.54 115.67L299.82 117.45L296.17 119.39L292.58 121.48L289.06 123.74L285.61 126.15L282.23 128.69L278.93 131.41L275.73 134.27L272.62 137.28L270.59 139.37L268.63 141.51L266.75 143.69L264.91 145.9L263.15 148.18L261.45 150.47L259.82 152.83L258.27 155.2L256.77 157.62L255.34 160.07L253.99 162.56L252.71 165.08L251.48 167.62L250.34 170.2L249.25 172.8L248.25 175.42L247.3 178.08L246.44 180.76L245.66 183.45L244.93 186.17L244.27 188.91L243.69 191.66L243.19 194.43L242.77 197.21L242.41 200L242.12 202.8L241.92 205.61L241.78 208.43L241.73 211.26L241.75 214.09L241.84 216.93L242.01 219.77L242.25 222.6L242.58 225.44L242.99 228.27L243.46 231.09L244.02 233.92L244.65 236.73L245.37 239.54L246.17 242.34L248.07 242.86L249.94 243.42L251.78 244.05L253.59 244.74L255.36 245.49L257.1 246.3L258.8 247.16L260.48 248.07L262.11 249.03L263.71 250.03L265.27 251.1L266.79 252.22L268.27 253.38L269.71 254.57L271.11 255.83L272.46 257.11L273.77 258.45L275.04 259.83L276.26 261.24L277.42 262.71L278.55 264.2L279.62 265.72L280.66 267.29L281.63 268.88L282.56 270.51L283.42 272.17L284.24 273.85L285.01 275.58L285.72 277.33L286.36 279.1L286.96 280.89L287.49 282.71L287.96 284.56L288.39 286.42L288.73 288.3L289.03 290.22L289.25 292.13L289.42 294.07L289.52 296.03L289.55 297.99L289.55 300.1L290.83 300.93L292.12 301.74L293.44 302.53L294.75 303.3L297.41 304.78L298.77 305.48L300.12 306.17L301.48 306.83L302.85 307.48L304.23 308.1L305.63 308.72L307.03 309.3L308.44 309.86L309.85 310.41L311.27 310.95L312.69 311.45L314.12 311.92L315.57 312.39L317.01 312.83L318.47 313.26L319.93 313.65L321.39 314.02L322.87 314.39L324.35 314.72L325.84 315.03L327.31 315.33L328.81 315.59L330.31 315.85L331.81 316.07L333.31 316.27L334.82 316.46L336.33 316.62L337.85 316.76L339.36 316.88L340.88 316.98L342.41 317.06L343.93 317.1L345.47 317.13L356.51 317.13L356.51 359.45L421.05 290.58L422.54 288.96L424.02 287.31L425.45 285.65L426.84 283.95L428.21 282.24L429.54 280.5L430.83 278.74L432.1 276.95L433.33 275.14L434.51 273.32L435.67 271.47L436.78 269.6L437.87 267.71L438.9 265.8L439.91 263.87L440.88 261.94L441.81 259.97L442.7 257.99L443.57 256L444.38 253.99L445.17 251.96L445.91 249.92L446.61 247.87L447.27 245.81L447.9 243.72L448.48 241.63L449.03 239.53L449.55 237.41L450.01 235.29L450.45 233.15L450.82 231L451.17 228.85L451.48 226.68L451.75 224.51L451.97 222.33L452.16 220.15L452.3 217.95L452.39 215.75L452.46 213.55L452.47 211.34L452.44 209.23L452.38 207.15L452.28 205.06L452.13 202.97L451.95 200.88L451.72 198.81L451.45 196.75L451.14 194.69L450.79 192.65L450.41 190.61L449.97 188.58L449.5 186.56L449 184.55L448.45 182.55L447.87 180.58L447.24 178.61L446.58 176.65L445.89 174.7L445.15 172.79L444.37 170.87L443.57 168.97L442.72 167.09L441.82 165.22L440.9 163.38L439.94 161.54L438.95 159.74L437.91 157.95L436.85 156.17L435.75 154.41L434.6 152.69L433.44 150.97L432.23 149.28L430.99 147.61L429.7 145.98L428.4 144.35L427.05 142.76L425.67 141.19L424.25 139.64L422.81 138.11L421.33 136.62L418.19 133.64L414.96 130.8L411.64 128.13L408.25 125.6L404.78 123.23L401.23 121.01L397.62 118.94L393.94 117.04L390.22 115.28L386.44 113.68L382.62 112.23L378.74 110.95L374.83 109.8L370.89 108.83L366.93 107.99L362.95 107.32L358.93 106.8L354.91 106.42L350.87 106.22L346.83 106.16L342.8 106.25L338.78 106.5Z" id="cq5aHg2AV"></path><path d="M355.75 96.91L360.13 97.33L364.5 97.93L368.85 98.68L373.18 99.61L377.47 100.69L381.73 101.96L385.94 103.39L390.1 104.99L394.21 106.75L398.28 108.68L402.27 110.79L406.19 113.07L410.04 115.5L413.83 118.11L417.52 120.87L421.11 123.81L424.61 126.92L428.02 130.2L429.62 131.83L431.19 133.48L432.72 135.16L434.21 136.87L435.67 138.62L437.08 140.37L438.46 142.16L439.81 143.97L441.12 145.81L442.39 147.66L443.61 149.55L444.81 151.45L445.97 153.38L447.09 155.32L448.15 157.29L449.19 159.28L450.19 161.29L451.15 163.3L452.08 165.36L452.94 167.42L453.79 169.49L454.58 171.58L455.35 173.7L456.05 175.82L456.73 177.95L457.36 180.1L457.95 182.27L458.5 184.45L459 186.64L459.46 188.84L459.88 191.05L460.26 193.28L460.59 195.51L460.87 197.74L461.12 200L461.31 202.25L461.47 204.52L461.58 206.78L461.64 209.06L461.67 211.34L461.66 213.73L461.6 216.11L461.5 218.48L461.34 220.86L461.16 223.23L460.92 225.58L460.64 227.92L460.32 230.26L459.95 232.59L459.54 234.91L459.08 237.22L458.58 239.53L458.03 241.82L457.45 244.08L456.82 246.36L456.16 248.6L455.44 250.83L454.69 253.06L453.9 255.28L453.07 257.46L452.19 259.64L451.26 261.79L450.3 263.95L449.32 266.07L448.28 268.17L447.2 270.26L446.08 272.33L444.92 274.37L443.72 276.4L442.48 278.41L441.21 280.39L439.89 282.35L438.54 284.28L437.15 286.2L435.73 288.08L434.26 289.95L432.76 291.79L431.22 293.59L429.64 295.38L428.02 297.14L346.88 383.36L346.88 326.02L345.34 326.01L343.79 325.99L342.23 325.93L340.69 325.87L339.15 325.77L337.62 325.66L336.08 325.52L334.54 325.36L333.01 325.19L331.48 325L329.95 324.78L328.44 324.55L326.92 324.28L325.41 324.01L323.91 323.71L320.89 323.05L319.4 322.69L317.91 322.32L316.43 321.92L314.96 321.5L313.48 321.06L312 320.6L310.54 320.12L309.1 319.63L307.64 319.11L306.21 318.58L304.76 318.01L303.34 317.45L301.92 316.85L300.51 316.22L299.11 315.59L297.71 314.95L296.32 314.28L294.93 313.58L292.2 312.14L290.85 311.39L289.5 310.62L288.17 309.83L287.69 311.79L287.16 313.71L286.56 315.59L285.9 317.46L285.18 319.29L284.41 321.09L283.58 322.85L282.68 324.56L281.74 326.26L280.74 327.91L279.69 329.51L278.59 331.08L277.42 332.62L276.23 334.11L274.97 335.55L273.69 336.95L272.34 338.3L270.95 339.62L269.53 340.88L268.06 342.09L266.56 343.26L265.02 344.38L263.43 345.45L261.83 346.45L260.17 347.41L258.49 348.32L256.77 349.17L255.03 349.95L253.26 350.69L251.45 351.37L249.63 351.98L247.78 352.55L245.91 353.03L244.01 353.47L242.08 353.83L240.14 354.15L238.18 354.38L236.2 354.56L234.21 354.65L232.2 354.7L232.2 383.47L191.68 340.41L190.88 339.53L190.1 338.63L189.33 337.72L188.57 336.81L187.84 335.87L187.13 334.93L186.42 333.97L185.75 332.99L185.09 332.02L184.46 331.03L183.83 330.03L183.23 329.01L182.65 327.99L181.55 325.91L181.04 324.84L180.53 323.79L180.06 322.71L179.61 321.64L179.17 320.54L178.74 319.44L178.35 318.34L177.97 317.23L177.61 316.11L177.28 314.98L176.97 313.85L176.67 312.71L176.4 311.56L176.15 310.41L175.93 309.25L175.73 308.09L175.54 306.93L175.38 305.76L175.24 304.59L175.12 303.41L175.02 302.22L174.94 301.04L174.9 299.84L174.86 298.65L174.86 297.46L174.91 295.1L175.05 292.76L175.29 290.44L175.62 288.16L176.03 285.9L176.53 283.69L177.13 281.49L177.79 279.34L178.54 277.22L179.37 275.14L180.28 273.1L181.27 271.11L182.32 269.16L183.45 267.26L184.66 265.41L185.94 263.6L187.27 261.84L188.67 260.15L190.13 258.5L191.67 256.91L193.25 255.39L194.89 253.93L196.58 252.51L198.34 251.18L200.15 249.91L202 248.71L203.9 247.58L205.85 246.51L207.84 245.54L209.88 244.63L211.97 243.8L214.08 243.04L216.24 242.37L218.43 241.79L220.66 241.29L222.9 240.86L225.19 240.55L227.5 240.31L229.84 240.17L232.2 240.12L235.9 240.12L235.18 237.16L234.54 234.19L233.97 231.22L233.49 228.25L233.08 225.27L232.75 222.28L232.5 219.3L232.32 216.32L232.23 213.33L232.21 210.37L232.28 207.38L232.42 204.43L232.64 201.46L232.92 198.52L233.28 195.59L233.72 192.67L234.24 189.76L234.84 186.86L235.5 183.98L236.23 181.13L237.05 178.3L237.93 175.47L238.89 172.69L239.92 169.91L241.02 167.18L242.19 164.46L243.44 161.78L244.75 159.11L246.13 156.49L247.59 153.9L249.11 151.34L250.7 148.82L252.35 146.33L254.07 143.89L255.88 141.47L257.73 139.12L259.66 136.79L261.66 134.52L263.71 132.29L265.85 130.12L269.26 126.84L272.78 123.73L276.37 120.79L280.06 118.03L283.85 115.42L287.69 112.99L291.62 110.73L295.62 108.64L299.68 106.71L303.79 104.95L307.97 103.35L312.18 101.92L316.43 100.66L320.73 99.58L325.05 98.65L329.4 97.9L333.77 97.32L338.15 96.89L342.55 96.66L346.96 96.56L351.36 96.66L355.75 96.91ZM338.78 106.5L334.76 106.91L330.75 107.46L326.76 108.17L322.81 109.03L318.87 110.05L314.97 111.23L311.11 112.55L307.31 114.04L303.54 115.67L299.82 117.45L296.17 119.39L292.58 121.48L289.06 123.74L285.61 126.15L282.23 128.69L278.93 131.41L275.73 134.27L272.62 137.28L270.59 139.37L268.63 141.51L266.75 143.69L264.91 145.9L263.15 148.18L261.45 150.47L259.82 152.83L258.27 155.2L256.77 157.62L255.34 160.07L253.99 162.56L252.71 165.08L251.48 167.62L250.34 170.2L249.25 172.8L248.25 175.42L247.3 178.08L246.44 180.76L245.66 183.45L244.93 186.17L244.27 188.91L243.69 191.66L243.19 194.43L242.77 197.21L242.41 200L242.12 202.8L241.92 205.61L241.78 208.43L241.73 211.26L241.75 214.09L241.84 216.93L242.01 219.77L242.25 222.6L242.58 225.44L242.99 228.27L243.46 231.09L244.02 233.92L244.65 236.73L245.37 239.54L246.17 242.34L248.07 242.86L249.94 243.42L251.78 244.05L253.59 244.74L255.36 245.49L257.1 246.3L258.8 247.16L260.48 248.07L262.11 249.03L263.71 250.03L265.27 251.1L266.79 252.22L268.27 253.38L269.71 254.57L271.11 255.83L272.46 257.11L273.77 258.45L275.04 259.83L276.26 261.24L277.42 262.71L278.55 264.2L279.62 265.72L280.66 267.29L281.63 268.88L282.56 270.51L283.42 272.17L284.24 273.85L285.01 275.58L285.72 277.33L286.36 279.1L286.96 280.89L287.49 282.71L287.96 284.56L288.39 286.42L288.73 288.3L289.03 290.22L289.25 292.13L289.42 294.07L289.52 296.03L289.55 297.99L289.55 300.1L290.83 300.93L292.12 301.74L293.44 302.53L294.75 303.3L297.41 304.78L298.77 305.48L300.12 306.17L301.48 306.83L302.85 307.48L304.23 308.1L305.63 308.72L307.03 309.3L308.44 309.86L309.85 310.41L311.27 310.95L312.69 311.45L314.12 311.92L315.57 312.39L317.01 312.83L318.47 313.26L319.93 313.65L321.39 314.02L322.87 314.39L324.35 314.72L325.84 315.03L327.31 315.33L328.81 315.59L330.31 315.85L331.81 316.07L333.31 316.27L334.82 316.46L336.33 316.62L337.85 316.76L339.36 316.88L340.88 316.98L342.41 317.06L343.93 317.1L345.47 317.13L356.51 317.13L356.51 359.45L421.05 290.58L422.54 288.96L424.02 287.31L425.45 285.65L426.84 283.95L428.21 282.24L429.54 280.5L430.83 278.74L432.1 276.95L433.33 275.14L434.51 273.32L435.67 271.47L436.78 269.6L437.87 267.71L438.9 265.8L439.91 263.87L440.88 261.94L441.81 259.97L442.7 257.99L443.57 256L444.38 253.99L445.17 251.96L445.91 249.92L446.61 247.87L447.27 245.81L447.9 243.72L448.48 241.63L449.03 239.53L449.55 237.41L450.01 235.29L450.45 233.15L450.82 231L451.17 228.85L451.48 226.68L451.75 224.51L451.97 222.33L452.16 220.15L452.3 217.95L452.39 215.75L452.46 213.55L452.47 211.34L452.44 209.23L452.38 207.15L452.28 205.06L452.13 202.97L451.95 200.88L451.72 198.81L451.45 196.75L451.14 194.69L450.79 192.65L450.41 190.61L449.97 188.58L449.5 186.56L449 184.55L448.45 182.55L447.87 180.58L447.24 178.61L446.58 176.65L445.89 174.7L445.15 172.79L444.37 170.87L443.57 168.97L442.72 167.09L441.82 165.22L440.9 163.38L439.94 161.54L438.95 159.74L437.91 157.95L436.85 156.17L435.75 154.41L434.6 152.69L433.44 150.97L432.23 149.28L430.99 147.61L429.7 145.98L428.4 144.35L427.05 142.76L425.67 141.19L424.25 139.64L422.81 138.11L421.33 136.62L418.19 133.64L414.96 130.8L411.64 128.13L408.25 125.6L404.78 123.23L401.23 121.01L397.62 118.94L393.94 117.04L390.22 115.28L386.44 113.68L382.62 112.23L378.74 110.95L374.83 109.8L370.89 108.83L366.93 107.99L362.95 107.32L358.93 106.8L354.91 106.42L350.87 106.22L346.83 106.16L342.8 106.25L338.78 106.5Z" id="b1gtIi3olU"></path><path d="M355.75 96.91L360.13 97.33L364.5 97.93L368.85 98.68L373.18 99.61L377.47 100.69L381.73 101.96L385.94 103.39L390.1 104.99L394.21 106.75L398.28 108.68L402.27 110.79L406.19 113.07L410.04 115.5L413.83 118.11L417.52 120.87L421.11 123.81L424.61 126.92L428.02 130.2L429.62 131.83L431.19 133.48L432.72 135.16L434.21 136.87L435.67 138.62L437.08 140.37L438.46 142.16L439.81 143.97L441.12 145.81L442.39 147.66L443.61 149.55L444.81 151.45L445.97 153.38L447.09 155.32L448.15 157.29L449.19 159.28L450.19 161.29L451.15 163.3L452.08 165.36L452.94 167.42L453.79 169.49L454.58 171.58L455.35 173.7L456.05 175.82L456.73 177.95L457.36 180.1L457.95 182.27L458.5 184.45L459 186.64L459.46 188.84L459.88 191.05L460.26 193.28L460.59 195.51L460.87 197.74L461.12 200L461.31 202.25L461.47 204.52L461.58 206.78L461.64 209.06L461.67 211.34L461.66 213.73L461.6 216.11L461.5 218.48L461.34 220.86L461.16 223.23L460.92 225.58L460.64 227.92L460.32 230.26L459.95 232.59L459.54 234.91L459.08 237.22L458.58 239.53L458.03 241.82L457.45 244.08L456.82 246.36L456.16 248.6L455.44 250.83L454.69 253.06L453.9 255.28L453.07 257.46L452.19 259.64L451.26 261.79L450.3 263.95L449.32 266.07L448.28 268.17L447.2 270.26L446.08 272.33L444.92 274.37L443.72 276.4L442.48 278.41L441.21 280.39L439.89 282.35L438.54 284.28L437.15 286.2L435.73 288.08L434.26 289.95L432.76 291.79L431.22 293.59L429.64 295.38L428.02 297.14L346.88 383.36L346.88 326.02L345.34 326.01L343.79 325.99L342.23 325.93L340.69 325.87L339.15 325.77L337.62 325.66L336.08 325.52L334.54 325.36L333.01 325.19L331.48 325L329.95 324.78L328.44 324.55L326.92 324.28L325.41 324.01L323.91 323.71L320.89 323.05L319.4 322.69L317.91 322.32L316.43 321.92L314.96 321.5L313.48 321.06L312 320.6L310.54 320.12L309.1 319.63L307.64 319.11L306.21 318.58L304.76 318.01L303.34 317.45L301.92 316.85L300.51 316.22L299.11 315.59L297.71 314.95L296.32 314.28L294.93 313.58L292.2 312.14L290.85 311.39L289.5 310.62L288.17 309.83L287.69 311.79L287.16 313.71L286.56 315.59L285.9 317.46L285.18 319.29L284.41 321.09L283.58 322.85L282.68 324.56L281.74 326.26L280.74 327.91L279.69 329.51L278.59 331.08L277.42 332.62L276.23 334.11L274.97 335.55L273.69 336.95L272.34 338.3L270.95 339.62L269.53 340.88L268.06 342.09L266.56 343.26L265.02 344.38L263.43 345.45L261.83 346.45L260.17 347.41L258.49 348.32L256.77 349.17L255.03 349.95L253.26 350.69L251.45 351.37L249.63 351.98L247.78 352.55L245.91 353.03L244.01 353.47L242.08 353.83L240.14 354.15L238.18 354.38L236.2 354.56L234.21 354.65L232.2 354.7L232.2 383.47L191.68 340.41L190.88 339.53L190.1 338.63L189.33 337.72L188.57 336.81L187.84 335.87L187.13 334.93L186.42 333.97L185.75 332.99L185.09 332.02L184.46 331.03L183.83 330.03L183.23 329.01L182.65 327.99L181.55 325.91L181.04 324.84L180.53 323.79L180.06 322.71L179.61 321.64L179.17 320.54L178.74 319.44L178.35 318.34L177.97 317.23L177.61 316.11L177.28 314.98L176.97 313.85L176.67 312.71L176.4 311.56L176.15 310.41L175.93 309.25L175.73 308.09L175.54 306.93L175.38 305.76L175.24 304.59L175.12 303.41L175.02 302.22L174.94 301.04L174.9 299.84L174.86 298.65L174.86 297.46L174.91 295.1L175.05 292.76L175.29 290.44L175.62 288.16L176.03 285.9L176.53 283.69L177.13 281.49L177.79 279.34L178.54 277.22L179.37 275.14L180.28 273.1L181.27 271.11L182.32 269.16L183.45 267.26L184.66 265.41L185.94 263.6L187.27 261.84L188.67 260.15L190.13 258.5L191.67 256.91L193.25 255.39L194.89 253.93L196.58 252.51L198.34 251.18L200.15 249.91L202 248.71L203.9 247.58L205.85 246.51L207.84 245.54L209.88 244.63L211.97 243.8L214.08 243.04L216.24 242.37L218.43 241.79L220.66 241.29L222.9 240.86L225.19 240.55L227.5 240.31L229.84 240.17L232.2 240.12L235.9 240.12L235.18 237.16L234.54 234.19L233.97 231.22L233.49 228.25L233.08 225.27L232.75 222.28L232.5 219.3L232.32 216.32L232.23 213.33L232.21 210.37L232.28 207.38L232.42 204.43L232.64 201.46L232.92 198.52L233.28 195.59L233.72 192.67L234.24 189.76L234.84 186.86L235.5 183.98L236.23 181.13L237.05 178.3L237.93 175.47L238.89 172.69L239.92 169.91L241.02 167.18L242.19 164.46L243.44 161.78L244.75 159.11L246.13 156.49L247.59 153.9L249.11 151.34L250.7 148.82L252.35 146.33L254.07 143.89L255.88 141.47L257.73 139.12L259.66 136.79L261.66 134.52L263.71 132.29L265.85 130.12L269.26 126.84L272.78 123.73L276.37 120.79L280.06 118.03L283.85 115.42L287.69 112.99L291.62 110.73L295.62 108.64L299.68 106.71L303.79 104.95L307.97 103.35L312.18 101.92L316.43 100.66L320.73 99.58L325.05 98.65L329.4 97.9L333.77 97.32L338.15 96.89L342.55 96.66L346.96 96.56L351.36 96.66L355.75 96.91ZM338.78 106.5L334.76 106.91L330.75 107.46L326.76 108.17L322.81 109.03L318.87 110.05L314.97 111.23L311.11 112.55L307.31 114.04L303.54 115.67L299.82 117.45L296.17 119.39L292.58 121.48L289.06 123.74L285.61 126.15L282.23 128.69L278.93 131.41L275.73 134.27L272.62 137.28L270.59 139.37L268.63 141.51L266.75 143.69L264.91 145.9L263.15 148.18L261.45 150.47L259.82 152.83L258.27 155.2L256.77 157.62L255.34 160.07L253.99 162.56L252.71 165.08L251.48 167.62L250.34 170.2L249.25 172.8L248.25 175.42L247.3 178.08L246.44 180.76L245.66 183.45L244.93 186.17L244.27 188.91L243.69 191.66L243.19 194.43L242.77 197.21L242.41 200L242.12 202.8L241.92 205.61L241.78 208.43L241.73 211.26L241.75 214.09L241.84 216.93L242.01 219.77L242.25 222.6L242.58 225.44L242.99 228.27L243.46 231.09L244.02 233.92L244.65 236.73L245.37 239.54L246.17 242.34L248.07 242.86L249.94 243.42L251.78 244.05L253.59 244.74L255.36 245.49L257.1 246.3L258.8 247.16L260.48 248.07L262.11 249.03L263.71 250.03L265.27 251.1L266.79 252.22L268.27 253.38L269.71 254.57L271.11 255.83L272.46 257.11L273.77 258.45L275.04 259.83L276.26 261.24L277.42 262.71L278.55 264.2L279.62 265.72L280.66 267.29L281.63 268.88L282.56 270.51L283.42 272.17L284.24 273.85L285.01 275.58L285.72 277.33L286.36 279.1L286.96 280.89L287.49 282.71L287.96 284.56L288.39 286.42L288.73 288.3L289.03 290.22L289.25 292.13L289.42 294.07L289.52 296.03L289.55 297.99L289.55 300.1L290.83 300.93L292.12 301.74L293.44 302.53L294.75 303.3L297.41 304.78L298.77 305.48L300.12 306.17L301.48 306.83L302.85 307.48L304.23 308.1L305.63 308.72L307.03 309.3L308.44 309.86L309.85 310.41L311.27 310.95L312.69 311.45L314.12 311.92L315.57 312.39L317.01 312.83L318.47 313.26L319.93 313.65L321.39 314.02L322.87 314.39L324.35 314.72L325.84 315.03L327.31 315.33L328.81 315.59L330.31 315.85L331.81 316.07L333.31 316.27L334.82 316.46L336.33 316.62L337.85 316.76L339.36 316.88L340.88 316.98L342.41 317.06L343.93 317.1L345.47 317.13L356.51 317.13L356.51 359.45L421.05 290.58L422.54 288.96L424.02 287.31L425.45 285.65L426.84 283.95L428.21 282.24L429.54 280.5L430.83 278.74L432.1 276.95L433.33 275.14L434.51 273.32L435.67 271.47L436.78 269.6L437.87 267.71L438.9 265.8L439.91 263.87L440.88 261.94L441.81 259.97L442.7 257.99L443.57 256L444.38 253.99L445.17 251.96L445.91 249.92L446.61 247.87L447.27 245.81L447.9 243.72L448.48 241.63L449.03 239.53L449.55 237.41L450.01 235.29L450.45 233.15L450.82 231L451.17 228.85L451.48 226.68L451.75 224.51L451.97 222.33L452.16 220.15L452.3 217.95L452.39 215.75L452.46 213.55L452.47 211.34L452.44 209.23L452.38 207.15L452.28 205.06L452.13 202.97L451.95 200.88L451.72 198.81L451.45 196.75L451.14 194.69L450.79 192.65L450.41 190.61L449.97 188.58L449.5 186.56L449 184.55L448.45 182.55L447.87 180.58L447.24 178.61L446.58 176.65L445.89 174.7L445.15 172.79L444.37 170.87L443.57 168.97L442.72 167.09L441.82 165.22L440.9 163.38L439.94 161.54L438.95 159.74L437.91 157.95L436.85 156.17L435.75 154.41L434.6 152.69L433.44 150.97L432.23 149.28L430.99 147.61L429.7 145.98L428.4 144.35L427.05 142.76L425.67 141.19L424.25 139.64L422.81 138.11L421.33 136.62L418.19 133.64L414.96 130.8L411.64 128.13L408.25 125.6L404.78 123.23L401.23 121.01L397.62 118.94L393.94 117.04L390.22 115.28L386.44 113.68L382.62 112.23L378.74 110.95L374.83 109.8L370.89 108.83L366.93 107.99L362.95 107.32L358.93 106.8L354.91 106.42L350.87 106.22L346.83 106.16L342.8 106.25L338.78 106.5Z" id="b153vgnaos"></path><path d="M346.99 225.72C354.94 225.72 361.38 219.28 361.38 211.34C361.38 203.39 354.94 196.95 346.99 196.95C339.04 196.95 332.61 203.39 332.61 211.34C332.61 219.28 339.04 225.72 346.99 225.72Z" id="b2nXp6386r"></path><path d="M346.99 225.72C354.94 225.72 361.38 219.28 361.38 211.34C361.38 203.39 354.94 196.95 346.99 196.95C339.04 196.95 332.61 203.39 332.61 211.34C332.61 219.28 339.04 225.72 346.99 225.72Z" id="dcadUW5f8"></path><path d="M346.99 225.72C354.94 225.72 361.38 219.28 361.38 211.34C361.38 203.39 354.94 196.95 346.99 196.95C339.04 196.95 332.61 203.39 332.61 211.34C332.61 219.28 339.04 225.72 346.99 225.72Z" id="b5l3sdyOhO"></path><path d="M346.99 225.72C354.94 225.72 361.38 219.28 361.38 211.34C361.38 203.39 354.94 196.95 346.99 196.95C339.04 196.95 332.61 203.39 332.61 211.34C332.61 219.28 339.04 225.72 346.99 225.72Z" id="dbyxka1Rx"></path><path d="M394.7 225.72C402.64 225.72 409.08 219.28 409.08 211.34C409.08 203.39 402.64 196.95 394.7 196.95C386.75 196.95 380.31 203.39 380.31 211.34C380.31 219.28 386.75 225.72 394.7 225.72Z" id="aWBOp9m7"></path><path d="M394.7 225.72C402.64 225.72 409.08 219.28 409.08 211.34C409.08 203.39 402.64 196.95 394.7 196.95C386.75 196.95 380.31 203.39 380.31 211.34C380.31 219.28 386.75 225.72 394.7 225.72Z" id="b2ZohCTax"></path><path d="M394.7 225.72C402.64 225.72 409.08 219.28 409.08 211.34C409.08 203.39 402.64 196.95 394.7 196.95C386.75 196.95 380.31 203.39 380.31 211.34C380.31 219.28 386.75 225.72 394.7 225.72Z" id="b5PXTBQYZ"></path><path d="M394.7 225.72C402.64 225.72 409.08 219.28 409.08 211.34C409.08 203.39 402.64 196.95 394.7 196.95C386.75 196.95 380.31 203.39 380.31 211.34C380.31 219.28 386.75 225.72 394.7 225.72Z" id="c5zoaAHSzK"></path><path d="M299.17 225.72C307.12 225.72 313.56 219.28 313.56 211.34C313.56 203.39 307.12 196.95 299.17 196.95C291.23 196.95 284.79 203.39 284.79 211.34C284.79 219.28 291.23 225.72 299.17 225.72Z" id="gluUfZau"></path><path d="M299.17 225.72C307.12 225.72 313.56 219.28 313.56 211.34C313.56 203.39 307.12 196.95 299.17 196.95C291.23 196.95 284.79 203.39 284.79 211.34C284.79 219.28 291.23 225.72 299.17 225.72Z" id="a2s94Nvyq1"></path><path d="M299.17 225.72C307.12 225.72 313.56 219.28 313.56 211.34C313.56 203.39 307.12 196.95 299.17 196.95C291.23 196.95 284.79 203.39 284.79 211.34C284.79 219.28 291.23 225.72 299.17 225.72Z" id="cNQq1AWBV"></path><path d="M299.17 225.72C307.12 225.72 313.56 219.28 313.56 211.34C313.56 203.39 307.12 196.95 299.17 196.95C291.23 196.95 284.79 203.39 284.79 211.34C284.79 219.28 291.23 225.72 299.17 225.72Z" id="a5wDJJ3x5F"></path></defs><g><g><g><use xlink:href="#dRYlftt3W" opacity="1" fill="#bf6328" fill-opacity="1"></use><g><use xlink:href="#dRYlftt3W" opacity="1" fill-opacity="0" stroke="#000000" stroke-width="1" stroke-opacity="0"></use></g></g><g><use xlink:href="#c1Xcwwrdhe" opacity="1" fill="#000000" fill-opacity="0"></use><g><use xlink:href="#c1Xcwwrdhe" opacity="1" fill-opacity="0" stroke="#000000" stroke-width="1" stroke-opacity="0"></use></g></g><g><use xlink:href="#aukbLpB9H" opacity="1" fill="#000000" fill-opacity="0"></use><g><use xlink:href="#aukbLpB9H" opacity="1" fill-opacity="0" stroke="#000000" stroke-width="1" stroke-opacity="0"></use></g></g><g><use xlink:href="#bYsBsoK1z" opacity="1" fill="#000000" fill-opacity="0"></use><g><use xlink:href="#bYsBsoK1z" opacity="1" fill-opacity="0" stroke="#000000" stroke-width="1" stroke-opacity="0"></use></g></g><g><use xlink:href="#d2IPwjGCxe" opacity="1" fill="#ffffff" fill-opacity="1"></use><g><use xlink:href="#d2IPwjGCxe" opacity="1" fill-opacity="0" stroke="#000000" stroke-width="1" stroke-opacity="0"></use></g></g><g><use xlink:href="#f1qGFIZyye" opacity="1" fill="#000000" fill-opacity="0"></use><g><use xlink:href="#f1qGFIZyye" opacity="1" fill-opacity="0" stroke="#000000" stroke-width="1" stroke-opacity="0"></use></g></g><g><use xlink:href="#e4nVxdSH1G" opacity="1" fill="#000000" fill-opacity="0"></use><g><use xlink:href="#e4nVxdSH1G" opacity="1" fill-opacity="0" stroke="#000000" stroke-width="1" stroke-opacity="0"></use></g></g><g><use xlink:href="#d1hTB7e3Lz" opacity="1" fill="#000000" fill-opacity="0"></use><g><use xlink:href="#d1hTB7e3Lz" opacity="1" fill-opacity="0" stroke="#000000" stroke-width="1" stroke-opacity="0"></use></g></g><g><use xlink:href="#aMUzlaWaP" opacity="1" fill="#ffffff" fill-opacity="1"></use><g><use xlink:href="#aMUzlaWaP" opacity="1" fill-opacity="0" stroke="#000000" stroke-width="1" stroke-opacity="0"></use></g></g><g><use xlink:href="#abfIhyJd" opacity="1" fill="#000000" fill-opacity="0"></use><g><use xlink:href="#abfIhyJd" opacity="1" fill-opacity="0" stroke="#000000" stroke-width="1" stroke-opacity="0"></use></g></g><g><use xlink:href="#f53JM5A27" opacity="1" fill="#000000" fill-opacity="0"></use><g><use xlink:href="#f53JM5A27" opacity="1" fill-opacity="0" stroke="#000000" stroke-width="1" stroke-opacity="0"></use></g></g><g><use xlink:href="#dxFMWR4N2" opacity="1" fill="#000000" fill-opacity="0"></use><g><use xlink:href="#dxFMWR4N2" opacity="1" fill-opacity="0" stroke="#000000" stroke-width="1" stroke-opacity="0"></use></g></g><g><use xlink:href="#dHqQB76BQ" opacity="1" fill="#ffffff" fill-opacity="1"></use><g><use xlink:href="#dHqQB76BQ" opacity="1" fill-opacity="0" stroke="#000000" stroke-width="1" stroke-opacity="0"></use></g></g><g><use xlink:href="#arI850ze6" opacity="1" fill="#000000" fill-opacity="0"></use><g><use xlink:href="#arI850ze6" opacity="1" fill-opacity="0" stroke="#000000" stroke-width="1" stroke-opacity="0"></use></g></g><g><use xlink:href="#k1TRisvTOb" opacity="1" fill="#000000" fill-opacity="0"></use><g><use xlink:href="#k1TRisvTOb" opacity="1" fill-opacity="0" stroke="#000000" stroke-width="1" stroke-opacity="0"></use></g></g><g><use xlink:href="#k1n2Di99ju" opacity="1" fill="#000000" fill-opacity="0"></use><g><use xlink:href="#k1n2Di99ju" opacity="1" fill-opacity="0" stroke="#000000" stroke-width="1" stroke-opacity="0"></use></g></g><g><use xlink:href="#a2HjLwMIy" opacity="1" fill="#ffffff" fill-opacity="1"></use><g><use xlink:href="#a2HjLwMIy" opacity="1" fill-opacity="0" stroke="#000000" stroke-width="1" stroke-opacity="0"></use></g></g><g><use xlink:href="#c3jzsIi29U" opacity="1" fill="#000000" fill-opacity="0"></use><g><use xlink:href="#c3jzsIi29U" opacity="1" fill-opacity="0" stroke="#000000" stroke-width="1" stroke-opacity="0"></use></g></g><g><use xlink:href="#a2612BLR5G" opacity="1" fill="#000000" fill-opacity="0"></use><g><use xlink:href="#a2612BLR5G" opacity="1" fill-opacity="0" stroke="#000000" stroke-width="1" stroke-opacity="0"></use></g></g><g><use xlink:href="#beWJ4OZa1" opacity="1" fill="#000000" fill-opacity="0"></use><g><use xlink:href="#beWJ4OZa1" opacity="1" fill-opacity="0" stroke="#000000" stroke-width="1" stroke-opacity="0"></use></g></g><g><use xlink:href="#m3FvE1KBOC" opacity="1" fill="#ffffff" fill-opacity="1"></use><g><use xlink:href="#m3FvE1KBOC" opacity="1" fill-opacity="0" stroke="#000000" stroke-width="1" stroke-opacity="0"></use></g></g><g><use xlink:href="#cq5aHg2AV" opacity="1" fill="#000000" fill-opacity="0"></use><g><use xlink:href="#cq5aHg2AV" opacity="1" fill-opacity="0" stroke="#000000" stroke-width="1" stroke-opacity="0"></use></g></g><g><use xlink:href="#b1gtIi3olU" opacity="1" fill="#000000" fill-opacity="0"></use><g><use xlink:href="#b1gtIi3olU" opacity="1" fill-opacity="0" stroke="#000000" stroke-width="1" stroke-opacity="0"></use></g></g><g><use xlink:href="#b153vgnaos" opacity="1" fill="#000000" fill-opacity="0"></use><g><use xlink:href="#b153vgnaos" opacity="1" fill-opacity="0" stroke="#000000" stroke-width="1" stroke-opacity="0"></use></g></g><g><use xlink:href="#b2nXp6386r" opacity="1" fill="#ffffff" fill-opacity="1"></use><g><use xlink:href="#b2nXp6386r" opacity="1" fill-opacity="0" stroke="#000000" stroke-width="1" stroke-opacity="0"></use></g></g><g><use xlink:href="#dcadUW5f8" opacity="1" fill="#000000" fill-opacity="0"></use><g><use xlink:href="#dcadUW5f8" opacity="1" fill-opacity="0" stroke="#000000" stroke-width="1" stroke-opacity="0"></use></g></g><g><use xlink:href="#b5l3sdyOhO" opacity="1" fill="#000000" fill-opacity="0"></use><g><use xlink:href="#b5l3sdyOhO" opacity="1" fill-opacity="0" stroke="#000000" stroke-width="1" stroke-opacity="0"></use></g></g><g><use xlink:href="#dbyxka1Rx" opacity="1" fill="#000000" fill-opacity="0"></use><g><use xlink:href="#dbyxka1Rx" opacity="1" fill-opacity="0" stroke="#000000" stroke-width="1" stroke-opacity="0"></use></g></g><g><use xlink:href="#aWBOp9m7" opacity="1" fill="#ffffff" fill-opacity="1"></use><g><use xlink:href="#aWBOp9m7" opacity="1" fill-opacity="0" stroke="#000000" stroke-width="1" stroke-opacity="0"></use></g></g><g><use xlink:href="#b2ZohCTax" opacity="1" fill="#000000" fill-opacity="0"></use><g><use xlink:href="#b2ZohCTax" opacity="1" fill-opacity="0" stroke="#000000" stroke-width="1" stroke-opacity="0"></use></g></g><g><use xlink:href="#b5PXTBQYZ" opacity="1" fill="#000000" fill-opacity="0"></use><g><use xlink:href="#b5PXTBQYZ" opacity="1" fill-opacity="0" stroke="#000000" stroke-width="1" stroke-opacity="0"></use></g></g><g><use xlink:href="#c5zoaAHSzK" opacity="1" fill="#000000" fill-opacity="0"></use><g><use xlink:href="#c5zoaAHSzK" opacity="1" fill-opacity="0" stroke="#000000" stroke-width="1" stroke-opacity="0"></use></g></g><g><use xlink:href="#gluUfZau" opacity="1" fill="#ffffff" fill-opacity="1"></use><g><use xlink:href="#gluUfZau" opacity="1" fill-opacity="0" stroke="#000000" stroke-width="1" stroke-opacity="0"></use></g></g><g><use xlink:href="#a2s94Nvyq1" opacity="1" fill="#000000" fill-opacity="0"></use><g><use xlink:href="#a2s94Nvyq1" opacity="1" fill-opacity="0" stroke="#000000" stroke-width="1" stroke-opacity="0"></use></g></g><g><use xlink:href="#cNQq1AWBV" opacity="1" fill="#000000" fill-opacity="0"></use><g><use xlink:href="#cNQq1AWBV" opacity="1" fill-opacity="0" stroke="#000000" stroke-width="1" stroke-opacity="0"></use></g></g><g><use xlink:href="#a5wDJJ3x5F" opacity="1" fill="#000000" fill-opacity="0"></use><g><use xlink:href="#a5wDJJ3x5F" opacity="1" fill-opacity="0" stroke="#000000" stroke-width="1" stroke-opacity="0"></use></g></g></g></g></svg>