<?xml version="1.0" encoding="UTF-8" standalone="no"?>
<!DOCTYPE svg PUBLIC "-//W3C//DTD SVG 1.1//EN" "http://www.w3.org/Graphics/SVG/1.1/DTD/svg11.dtd">
<svg version="1.1" xmlns="http://www.w3.org/2000/svg" xmlns:xlink="http://www.w3.org/1999/xlink" preserveAspectRatio="xMidYMid meet" viewBox="0 0 640 640" width="640" height="640"><defs><path d="M417.51 620.45C252.15 674.18 74.5 583.59 20.74 418.11C-33.03 252.63 57.44 74.92 222.81 21.19C388.17 -32.54 565.81 58.05 619.58 223.53C673.35 389.01 582.89 566.72 417.51 620.45Z" id="bCVTqgDZ1"></path><path d="M417.51 620.45C252.15 674.18 74.5 583.59 20.74 418.11C-33.03 252.63 57.44 74.92 222.81 21.19C388.17 -32.54 565.81 58.05 619.58 223.53C673.35 389.01 582.89 566.72 417.51 620.45Z" id="bjdqKqrMn"></path><path d="M529.37 470.55L110.75 470.55L110.75 270.83L320.11 171.07L529.37 270.83L529.37 470.55ZM124.3 289.99L124.3 458.16L515.39 458.16L514.85 289.99L319.58 383.18L124.3 289.99ZM194.52 310.86L320.11 371.12L445.6 310.86L445.6 258.44L194.52 258.44L194.52 310.86Z" id="dn8OCs8A0"></path><path d="M529.37 470.55L110.75 470.55L110.75 270.83L320.11 171.07L529.37 270.83L529.37 470.55ZM124.3 289.99L124.3 458.16L515.39 458.16L514.85 289.99L319.58 383.18L124.3 289.99ZM194.52 310.86L320.11 371.12L445.6 310.86L445.6 258.44L194.52 258.44L194.52 310.86Z" id="a9CL5bRiCL"></path></defs><g><g><g><use xlink:href="#bCVTqgDZ1" opacity="1" fill="#bf6328" fill-opacity="1"></use><g><use xlink:href="#bCVTqgDZ1" opacity="1" fill-opacity="0" stroke="#000000" stroke-width="1" stroke-opacity="0"></use></g></g><g><use xlink:href="#bjdqKqrMn" opacity="1" fill="#000000" fill-opacity="0"></use><g><use xlink:href="#bjdqKqrMn" opacity="1" fill-opacity="0" stroke="#000000" stroke-width="1" stroke-opacity="0"></use></g></g><g><use xlink:href="#dn8OCs8A0" opacity="1" fill="#ffffff" fill-opacity="1"></use><g><use xlink:href="#dn8OCs8A0" opacity="1" fill-opacity="0" stroke="#000000" stroke-width="1" stroke-opacity="0"></use></g></g><g><use xlink:href="#a9CL5bRiCL" opacity="1" fill="#000000" fill-opacity="0"></use><g><use xlink:href="#a9CL5bRiCL" opacity="1" fill-opacity="0" stroke="#000000" stroke-width="1" stroke-opacity="0"></use></g></g></g></g></svg>