<?xml version="1.0" encoding="UTF-8" standalone="no"?>
<!DOCTYPE svg PUBLIC "-//W3C//DTD SVG 1.1//EN" "http://www.w3.org/Graphics/SVG/1.1/DTD/svg11.dtd">
<svg version="1.1" xmlns="http://www.w3.org/2000/svg" xmlns:xlink="http://www.w3.org/1999/xlink" preserveAspectRatio="xMidYMid meet" viewBox="0 0 640 640" width="640" height="640"><defs><path d="M319.29 632.3C145.94 632.3 5.4 491.83 5.4 318.53C5.4 145.23 145.94 4.76 319.29 4.76C492.64 4.76 633.19 145.23 633.19 318.53C633.19 491.83 492.64 632.3 319.29 632.3Z" id="a2J5IpeAnc"></path><path d="M319.29 632.3C145.94 632.3 5.4 491.83 5.4 318.53C5.4 145.23 145.94 4.76 319.29 4.76C492.64 4.76 633.19 145.23 633.19 318.53C633.19 491.83 492.64 632.3 319.29 632.3Z" id="b2IoiXXGiA"></path><path d="M262.5 167.52C262.5 168.81 262.5 175.26 262.5 186.87C274.13 186.96 367.2 187.63 378.83 187.71C378.83 176.11 378.83 169.65 378.83 168.36C378.9 157.67 370.27 148.96 359.59 148.9C359.48 148.9 359.37 148.9 359.27 148.91C359.27 148.91 289.7 148.43 281.96 148.38C271.32 148.32 262.62 156.87 262.5 167.52Z" id="dfoPtgyI0"></path><path d="M262.5 167.52C262.5 168.81 262.5 175.26 262.5 186.87C274.13 186.96 367.2 187.63 378.83 187.71C378.83 176.11 378.83 169.65 378.83 168.36C378.9 157.67 370.27 148.96 359.59 148.9C359.48 148.9 359.37 148.9 359.27 148.91C359.27 148.91 289.7 148.43 281.96 148.38C271.32 148.32 262.62 156.87 262.5 167.52Z" id="acDN1ZoAO"></path><path d="M324.4 30.52L326.38 30.71L328.35 31L330.28 31.35L332.2 31.78L334.08 32.29L335.93 32.86L337.75 33.51L339.54 34.22L341.28 35L342.99 35.85L344.68 36.76L346.31 37.73L347.9 38.76L349.45 39.86L350.96 41.01L352.43 42.22L353.84 43.47L355.2 44.78L356.52 46.15L357.77 47.55L358.97 49.02L360.12 50.53L361.22 52.08L362.25 53.67L363.22 55.3L364.13 56.99L364.98 58.7L365.76 60.45L366.47 62.24L367.12 64.05L367.7 65.9L368.2 67.78L368.63 69.7L368.98 71.64L369.27 73.6L369.46 75.59L369.59 77.6L369.63 79.63L369.59 81.66L369.46 83.68L369.27 85.67L368.98 87.63L368.63 89.56L368.2 91.47L367.7 93.36L367.12 95.21L366.47 97.02L365.76 98.82L364.98 100.56L364.13 102.28L363.22 103.95L362.25 105.6L361.22 107.19L360.12 108.74L358.97 110.25L357.77 111.7L356.52 113.11L355.2 114.48L353.84 115.79L352.43 117.05L350.96 118.26L349.45 119.41L347.9 120.51L346.31 121.53L344.68 122.51L342.99 123.41L341.28 124.26L339.54 125.05L337.75 125.76L335.93 126.4L334.08 126.98L332.2 127.49L330.28 127.91L328.35 128.27L326.38 128.56L324.4 128.75L322.38 128.87L320.35 128.91L318.32 128.87L316.3 128.75L314.31 128.56L312.35 128.27L310.42 127.91L308.51 127.49L306.62 126.98L304.77 126.4L302.96 125.76L301.16 125.05L299.42 124.26L297.71 123.41L296.03 122.51L294.39 121.53L292.8 120.51L291.25 119.41L289.74 118.26L288.28 117.05L286.87 115.79L285.5 114.48L284.2 113.11L282.93 111.7L281.73 110.25L280.57 108.74L279.49 107.19L278.45 105.6L277.47 103.95L276.57 102.28L275.72 100.56L274.94 98.82L274.22 97.02L273.58 95.21L273 93.36L272.5 91.47L272.07 89.56L271.71 87.63L271.44 85.67L271.23 83.68L271.11 81.66L271.07 79.63L271.11 77.6L271.23 75.59L271.44 73.6L271.71 71.64L272.07 69.7L272.5 67.78L273 65.9L273.58 64.05L274.22 62.24L274.94 60.45L275.72 58.7L276.57 56.99L277.47 55.3L278.45 53.67L279.49 52.08L280.57 50.53L281.73 49.02L282.93 47.55L284.2 46.15L285.5 44.78L286.87 43.47L288.28 42.22L289.74 41.01L291.25 39.86L292.8 38.76L294.39 37.73L296.03 36.76L297.71 35.85L299.42 35L301.16 34.22L302.96 33.51L304.77 32.86L306.62 32.29L308.51 31.78L310.42 31.35L312.35 31L314.31 30.71L316.3 30.52L318.32 30.39L320.35 30.35L322.38 30.39L324.4 30.52ZM316.73 36.66L314.96 36.85L313.19 37.13L311.46 37.46L309.76 37.87L308.07 38.34L306.43 38.87L304.8 39.47L303.21 40.15L301.66 40.86L300.13 41.64L298.64 42.49L297.18 43.38L295.79 44.34L294.41 45.34L293.08 46.4L291.79 47.51L290.55 48.66L289.35 49.87L288.2 51.12L287.1 52.41L286.06 53.74L285.06 55.12L284.13 56.54L283.24 57.99L282.41 59.48L281.63 61.02L280.92 62.57L280.27 64.18L279.68 65.79L279.16 67.45L278.7 69.14L278.31 70.84L277.98 72.58L277.74 74.34L277.56 76.12L277.45 77.92L277.42 79.74L277.46 81.55L277.57 83.36L277.76 85.13L278.02 86.89L278.35 88.63L278.75 90.33L279.22 92.02L279.75 93.66L280.36 95.28L281.01 96.87L281.73 98.44L282.51 99.96L283.35 101.45L284.24 102.89L285.18 104.31L286.18 105.68L287.24 107.01L288.35 108.3L289.5 109.53L290.7 110.74L291.94 111.88L293.25 112.98L294.58 114.03L295.95 115.02L297.36 115.97L298.83 116.86L300.31 117.68L301.85 118.45L303.41 119.16L305 119.82L306.62 120.41L308.28 120.93L309.97 121.38L311.67 121.78L313.41 122.1L315.17 122.36L316.95 122.54L318.74 122.64L320.57 122.67L322.38 122.63L324.18 122.52L325.95 122.33L327.7 122.07L329.44 121.74L331.14 121.34L332.82 120.88L334.46 120.34L336.09 119.75L337.67 119.09L339.24 118.38L340.76 117.6L342.24 116.76L343.69 115.87L345.11 114.92L346.48 113.92L347.79 112.88L349.08 111.77L350.33 110.63L351.52 109.42L352.66 108.19L353.77 106.9L354.82 105.57L355.82 104.18L356.75 102.77L357.64 101.33L358.48 99.84L359.25 98.31L359.96 96.75L360.62 95.16L361.21 93.54L361.73 91.89L362.2 90.21L362.58 88.51L362.91 86.78L363.17 85.02L363.35 83.24L363.46 81.44L363.5 79.63L363.46 77.81L363.35 76L363.17 74.22L362.91 72.46L362.58 70.72L362.18 69L361.72 67.32L361.19 65.67L360.59 64.04L359.95 62.43L359.22 60.87L358.45 59.35L357.61 57.85L356.72 56.4L355.76 54.99L354.76 53.6L353.72 52.27L352.61 50.98L351.46 49.73L350.25 48.53L349.01 47.37L347.71 46.26L346.38 45.22L345.01 44.22L343.58 43.26L342.13 42.37L340.63 41.55L339.11 40.76L337.55 40.05L335.94 39.39L334.33 38.79L332.67 38.27L330.98 37.8L329.26 37.4L327.52 37.07L325.77 36.81L323.98 36.63L322.17 36.53L320.35 36.48L318.53 36.54L316.73 36.66Z" id="a8BUaLKPI"></path><path d="M324.4 30.52L326.38 30.71L328.35 31L330.28 31.35L332.2 31.78L334.08 32.29L335.93 32.86L337.75 33.51L339.54 34.22L341.28 35L342.99 35.85L344.68 36.76L346.31 37.73L347.9 38.76L349.45 39.86L350.96 41.01L352.43 42.22L353.84 43.47L355.2 44.78L356.52 46.15L357.77 47.55L358.97 49.02L360.12 50.53L361.22 52.08L362.25 53.67L363.22 55.3L364.13 56.99L364.98 58.7L365.76 60.45L366.47 62.24L367.12 64.05L367.7 65.9L368.2 67.78L368.63 69.7L368.98 71.64L369.27 73.6L369.46 75.59L369.59 77.6L369.63 79.63L369.59 81.66L369.46 83.68L369.27 85.67L368.98 87.63L368.63 89.56L368.2 91.47L367.7 93.36L367.12 95.21L366.47 97.02L365.76 98.82L364.98 100.56L364.13 102.28L363.22 103.95L362.25 105.6L361.22 107.19L360.12 108.74L358.97 110.25L357.77 111.7L356.52 113.11L355.2 114.48L353.84 115.79L352.43 117.05L350.96 118.26L349.45 119.41L347.9 120.51L346.31 121.53L344.68 122.51L342.99 123.41L341.28 124.26L339.54 125.05L337.75 125.76L335.93 126.4L334.08 126.98L332.2 127.49L330.28 127.91L328.35 128.27L326.38 128.56L324.4 128.75L322.38 128.87L320.35 128.91L318.32 128.87L316.3 128.75L314.31 128.56L312.35 128.27L310.42 127.91L308.51 127.49L306.62 126.98L304.77 126.4L302.96 125.76L301.16 125.05L299.42 124.26L297.71 123.41L296.03 122.51L294.39 121.53L292.8 120.51L291.25 119.41L289.74 118.26L288.28 117.05L286.87 115.79L285.5 114.48L284.2 113.11L282.93 111.7L281.73 110.25L280.57 108.74L279.49 107.19L278.45 105.6L277.47 103.95L276.57 102.28L275.72 100.56L274.94 98.82L274.22 97.02L273.58 95.21L273 93.36L272.5 91.47L272.07 89.56L271.71 87.63L271.44 85.67L271.23 83.68L271.11 81.66L271.07 79.63L271.11 77.6L271.23 75.59L271.44 73.6L271.71 71.64L272.07 69.7L272.5 67.78L273 65.9L273.58 64.05L274.22 62.24L274.94 60.45L275.72 58.7L276.57 56.99L277.47 55.3L278.45 53.67L279.49 52.08L280.57 50.53L281.73 49.02L282.93 47.55L284.2 46.15L285.5 44.78L286.87 43.47L288.28 42.22L289.74 41.01L291.25 39.86L292.8 38.76L294.39 37.73L296.03 36.76L297.71 35.85L299.42 35L301.16 34.22L302.96 33.51L304.77 32.86L306.62 32.29L308.51 31.78L310.42 31.35L312.35 31L314.31 30.71L316.3 30.52L318.32 30.39L320.35 30.35L322.38 30.39L324.4 30.52ZM316.73 36.66L314.96 36.85L313.19 37.13L311.46 37.46L309.76 37.87L308.07 38.34L306.43 38.87L304.8 39.47L303.21 40.15L301.66 40.86L300.13 41.64L298.64 42.49L297.18 43.38L295.79 44.34L294.41 45.34L293.08 46.4L291.79 47.51L290.55 48.66L289.35 49.87L288.2 51.12L287.1 52.41L286.06 53.74L285.06 55.12L284.13 56.54L283.24 57.99L282.41 59.48L281.63 61.02L280.92 62.57L280.27 64.18L279.68 65.79L279.16 67.45L278.7 69.14L278.31 70.84L277.98 72.58L277.74 74.34L277.56 76.12L277.45 77.92L277.42 79.74L277.46 81.55L277.57 83.36L277.76 85.13L278.02 86.89L278.35 88.63L278.75 90.33L279.22 92.02L279.75 93.66L280.36 95.28L281.01 96.87L281.73 98.44L282.51 99.96L283.35 101.45L284.24 102.89L285.18 104.31L286.18 105.68L287.24 107.01L288.35 108.3L289.5 109.53L290.7 110.74L291.94 111.88L293.25 112.98L294.58 114.03L295.95 115.02L297.36 115.97L298.83 116.86L300.31 117.68L301.85 118.45L303.41 119.16L305 119.82L306.62 120.41L308.28 120.93L309.97 121.38L311.67 121.78L313.41 122.1L315.17 122.36L316.95 122.54L318.74 122.64L320.57 122.67L322.38 122.63L324.18 122.52L325.95 122.33L327.7 122.07L329.44 121.74L331.14 121.34L332.82 120.88L334.46 120.34L336.09 119.75L337.67 119.09L339.24 118.38L340.76 117.6L342.24 116.76L343.69 115.87L345.11 114.92L346.48 113.92L347.79 112.88L349.08 111.77L350.33 110.63L351.52 109.42L352.66 108.19L353.77 106.9L354.82 105.57L355.82 104.18L356.75 102.77L357.64 101.33L358.48 99.84L359.25 98.31L359.96 96.75L360.62 95.16L361.21 93.54L361.73 91.89L362.2 90.21L362.58 88.51L362.91 86.78L363.17 85.02L363.35 83.24L363.46 81.44L363.5 79.63L363.46 77.81L363.35 76L363.17 74.22L362.91 72.46L362.58 70.72L362.18 69L361.72 67.32L361.19 65.67L360.59 64.04L359.95 62.43L359.22 60.87L358.45 59.35L357.61 57.85L356.72 56.4L355.76 54.99L354.76 53.6L353.72 52.27L352.61 50.98L351.46 49.73L350.25 48.53L349.01 47.37L347.71 46.26L346.38 45.22L345.01 44.22L343.58 43.26L342.13 42.37L340.63 41.55L339.11 40.76L337.55 40.05L335.94 39.39L334.33 38.79L332.67 38.27L330.98 37.8L329.26 37.4L327.52 37.07L325.77 36.81L323.98 36.63L322.17 36.53L320.35 36.48L318.53 36.54L316.73 36.66Z" id="aL8OXravq"></path><path d="M264.09 502.35C264.09 503.63 264.09 510.09 264.09 521.7C275.72 521.78 368.79 522.46 380.42 522.55C380.42 510.93 380.42 504.49 380.42 503.2C380.48 492.51 371.87 483.79 361.18 483.73C361.07 483.73 360.96 483.73 360.85 483.73C345.39 483.62 291.27 483.25 283.55 483.21C272.89 483.14 264.2 491.7 264.09 502.35Z" id="aR30IdLZN"></path><path d="M264.09 502.35C264.09 503.63 264.09 510.09 264.09 521.7C275.72 521.78 368.79 522.46 380.42 522.55C380.42 510.93 380.42 504.49 380.42 503.2C380.48 492.51 371.87 483.79 361.18 483.73C361.07 483.73 360.96 483.73 360.85 483.73C345.39 483.62 291.27 483.25 283.55 483.21C272.89 483.14 264.2 491.7 264.09 502.35Z" id="d2U7PB7EJ0"></path><path d="M326.08 365.34L328.07 365.55L330.03 365.82L331.98 366.18L333.89 366.62L335.77 367.11L337.62 367.69L339.44 368.34L341.22 369.06L342.98 369.84L344.69 370.68L346.37 371.6L348 372.57L349.6 373.6L351.15 374.7L352.65 375.83L354.12 377.04L355.53 378.3L356.89 379.62L358.2 380.98L359.47 382.39L360.67 383.84L361.81 385.35L362.91 386.9L363.94 388.51L364.91 390.14L365.83 391.81L366.67 393.53L367.45 395.28L368.16 397.07L368.82 398.89L369.4 400.74L369.89 402.62L370.33 404.53L370.69 406.47L370.96 408.44L371.17 410.42L371.29 412.43L371.33 414.46L371.29 416.5L371.17 418.5L370.96 420.49L370.69 422.45L370.33 424.4L369.89 426.31L369.4 428.19L368.82 430.04L368.16 431.86L367.45 433.64L366.67 435.4L365.83 437.11L364.91 438.79L363.94 440.42L362.91 442.01L361.81 443.57L360.67 445.07L359.47 446.54L358.2 447.95L356.89 449.31L355.53 450.62L354.12 451.89L352.65 453.09L351.15 454.23L349.6 455.33L348 456.36L346.37 457.33L344.69 458.25L342.98 459.09L341.22 459.87L339.44 460.58L337.62 461.24L335.77 461.82L333.89 462.31L331.98 462.75L330.03 463.11L328.07 463.38L326.08 463.59L324.08 463.71L322.05 463.75L320.01 463.71L318 463.59L316.02 463.38L314.05 463.11L312.11 462.75L310.2 462.31L308.32 461.82L306.47 461.24L304.65 460.58L302.86 459.87L301.11 459.09L299.39 458.25L297.72 457.33L296.09 456.36L294.48 455.33L292.93 454.23L291.44 453.09L289.97 451.89L288.56 450.62L287.2 449.31L285.88 447.95L284.62 446.54L283.41 445.07L282.28 443.57L281.18 442.01L280.15 440.42L279.18 438.79L278.26 437.11L277.42 435.4L276.64 433.64L275.92 431.86L275.27 430.04L274.69 428.19L274.2 426.31L273.76 424.4L273.4 422.45L273.13 420.49L272.92 418.5L272.8 416.5L272.76 414.46L272.8 412.43L272.92 410.42L273.13 408.44L273.4 406.47L273.76 404.53L274.2 402.62L274.69 400.74L275.27 398.89L275.92 397.07L276.64 395.28L277.42 393.53L278.26 391.81L279.18 390.14L280.15 388.51L281.18 386.9L282.28 385.35L283.41 383.84L284.62 382.39L285.88 380.98L287.2 379.62L288.56 378.3L289.97 377.04L291.44 375.83L292.93 374.7L294.48 373.6L296.09 372.57L297.72 371.6L299.39 370.68L301.11 369.84L302.86 369.06L304.65 368.34L306.47 367.69L308.32 367.11L310.2 366.62L312.11 366.18L314.05 365.82L316.02 365.55L318 365.34L320.01 365.22L322.05 365.18L324.08 365.22L326.08 365.34ZM318.43 371.58L316.65 371.77L314.89 372.03L313.15 372.36L311.45 372.76L309.76 373.23L308.12 373.76L306.5 374.35L304.91 375.01L303.34 375.74L301.82 376.51L300.34 377.36L298.88 378.25L297.47 379.19L296.1 380.19L294.77 381.25L293.48 382.35L292.25 383.5L291.05 384.71L289.9 385.96L288.8 387.24L287.75 388.58L286.76 389.96L285.81 391.37L284.92 392.83L284.1 394.32L283.33 395.84L282.62 397.41L281.96 399L281.37 400.63L280.85 402.29L280.4 403.96L280 405.68L279.68 407.41L279.42 409.16L279.24 410.95L279.13 412.76L279.11 414.57L279.15 416.39L279.27 418.19L279.45 419.97L279.71 421.73L280.05 423.45L280.45 425.17L280.92 426.84L281.44 428.5L282.04 430.12L282.7 431.71L283.41 433.27L284.2 434.8L285.03 436.28L285.92 437.73L286.88 439.14L287.88 440.52L288.94 441.85L290.04 443.12L291.19 444.37L292.4 445.56L293.65 446.72L294.93 447.81L296.27 448.85L297.65 449.86L299.06 450.8L300.52 451.68L302.01 452.52L303.53 453.29L305.1 454L306.69 454.64L308.32 455.23L309.97 455.75L311.65 456.22L313.37 456.6L315.1 456.93L316.85 457.18L318.64 457.36L320.43 457.47L322.26 457.51L324.07 457.47L325.86 457.34L327.65 457.15L329.4 456.89L331.13 456.56L332.83 456.17L334.52 455.7L336.16 455.18L337.78 454.57L339.37 453.93L340.92 453.2L342.45 452.43L343.94 451.6L345.38 450.71L346.79 449.76L348.16 448.76L349.5 447.7L350.78 446.61L352.02 445.45L353.21 444.26L354.36 443.01L355.46 441.72L356.5 440.39L357.5 439.02L358.45 437.61L359.33 436.15L360.17 434.67L360.93 433.15L361.65 431.59L362.31 430L362.9 428.38L363.42 426.72L363.88 425.04L364.28 423.34L364.6 421.6L364.86 419.85L365.05 418.08L365.16 416.28L365.2 414.46L365.14 412.65L365.03 410.84L364.84 409.07L364.58 407.3L364.25 405.57L363.86 403.85L363.39 402.18L362.85 400.52L362.26 398.9L361.61 397.31L360.88 395.75L360.1 394.23L359.26 392.73L358.37 391.28L357.42 389.86L356.42 388.49L355.37 387.16L354.27 385.87L353.12 384.63L351.91 383.43L350.66 382.28L349.37 381.17L348.04 380.13L346.66 379.13L345.24 378.18L343.79 377.29L342.29 376.46L340.77 375.68L339.21 374.97L337.62 374.31L335.99 373.72L334.34 373.2L332.65 372.73L330.94 372.34L329.21 372.01L327.44 371.76L325.67 371.57L323.86 371.46L322.05 371.42L320.23 371.46L318.43 371.58Z" id="dKknG3n9L"></path><path d="M326.08 365.34L328.07 365.55L330.03 365.82L331.98 366.18L333.89 366.62L335.77 367.11L337.62 367.69L339.44 368.34L341.22 369.06L342.98 369.84L344.69 370.68L346.37 371.6L348 372.57L349.6 373.6L351.15 374.7L352.65 375.83L354.12 377.04L355.53 378.3L356.89 379.62L358.2 380.98L359.47 382.39L360.67 383.84L361.81 385.35L362.91 386.9L363.94 388.51L364.91 390.14L365.83 391.81L366.67 393.53L367.45 395.28L368.16 397.07L368.82 398.89L369.4 400.74L369.89 402.62L370.33 404.53L370.69 406.47L370.96 408.44L371.17 410.42L371.29 412.43L371.33 414.46L371.29 416.5L371.17 418.5L370.96 420.49L370.69 422.45L370.33 424.4L369.89 426.31L369.4 428.19L368.82 430.04L368.16 431.86L367.45 433.64L366.67 435.4L365.83 437.11L364.91 438.79L363.94 440.42L362.91 442.01L361.81 443.57L360.67 445.07L359.47 446.54L358.2 447.95L356.89 449.31L355.53 450.62L354.12 451.89L352.65 453.09L351.15 454.23L349.6 455.33L348 456.36L346.37 457.33L344.69 458.25L342.98 459.09L341.22 459.87L339.44 460.58L337.62 461.24L335.77 461.82L333.89 462.31L331.98 462.75L330.03 463.11L328.07 463.38L326.08 463.59L324.08 463.71L322.05 463.75L320.01 463.71L318 463.59L316.02 463.38L314.05 463.11L312.11 462.75L310.2 462.31L308.32 461.82L306.47 461.24L304.65 460.58L302.86 459.87L301.11 459.09L299.39 458.25L297.72 457.33L296.09 456.36L294.48 455.33L292.93 454.23L291.44 453.09L289.97 451.89L288.56 450.62L287.2 449.31L285.88 447.95L284.62 446.54L283.41 445.07L282.28 443.57L281.18 442.01L280.15 440.42L279.18 438.79L278.26 437.11L277.42 435.4L276.64 433.64L275.92 431.86L275.27 430.04L274.69 428.19L274.2 426.31L273.76 424.4L273.4 422.45L273.13 420.49L272.92 418.5L272.8 416.5L272.76 414.46L272.8 412.43L272.92 410.42L273.13 408.44L273.4 406.47L273.76 404.53L274.2 402.62L274.69 400.74L275.27 398.89L275.92 397.07L276.64 395.28L277.42 393.53L278.26 391.81L279.18 390.14L280.15 388.51L281.18 386.9L282.28 385.35L283.41 383.84L284.62 382.39L285.88 380.98L287.2 379.62L288.56 378.3L289.97 377.04L291.44 375.83L292.93 374.7L294.48 373.6L296.09 372.57L297.72 371.6L299.39 370.68L301.11 369.84L302.86 369.06L304.65 368.34L306.47 367.69L308.32 367.11L310.2 366.62L312.11 366.18L314.05 365.82L316.02 365.55L318 365.34L320.01 365.22L322.05 365.18L324.08 365.22L326.08 365.34ZM318.43 371.58L316.65 371.77L314.89 372.03L313.15 372.36L311.45 372.76L309.76 373.23L308.12 373.76L306.5 374.35L304.91 375.01L303.34 375.74L301.82 376.51L300.34 377.36L298.88 378.25L297.47 379.19L296.1 380.19L294.77 381.25L293.48 382.35L292.25 383.5L291.05 384.71L289.9 385.96L288.8 387.24L287.75 388.58L286.76 389.96L285.81 391.37L284.92 392.83L284.1 394.32L283.33 395.84L282.62 397.41L281.96 399L281.37 400.63L280.85 402.29L280.4 403.96L280 405.68L279.68 407.41L279.42 409.16L279.24 410.95L279.13 412.76L279.11 414.57L279.15 416.39L279.27 418.19L279.45 419.97L279.71 421.73L280.05 423.45L280.45 425.17L280.92 426.84L281.44 428.5L282.04 430.12L282.7 431.71L283.41 433.27L284.2 434.8L285.03 436.28L285.92 437.73L286.88 439.14L287.88 440.52L288.94 441.85L290.04 443.12L291.19 444.37L292.4 445.56L293.65 446.72L294.93 447.81L296.27 448.85L297.65 449.86L299.06 450.8L300.52 451.68L302.01 452.52L303.53 453.29L305.1 454L306.69 454.64L308.32 455.23L309.97 455.75L311.65 456.22L313.37 456.6L315.1 456.93L316.85 457.18L318.64 457.36L320.43 457.47L322.26 457.51L324.07 457.47L325.86 457.34L327.65 457.15L329.4 456.89L331.13 456.56L332.83 456.17L334.52 455.7L336.16 455.18L337.78 454.57L339.37 453.93L340.92 453.2L342.45 452.43L343.94 451.6L345.38 450.71L346.79 449.76L348.16 448.76L349.5 447.7L350.78 446.61L352.02 445.45L353.21 444.26L354.36 443.01L355.46 441.72L356.5 440.39L357.5 439.02L358.45 437.61L359.33 436.15L360.17 434.67L360.93 433.15L361.65 431.59L362.31 430L362.9 428.38L363.42 426.72L363.88 425.04L364.28 423.34L364.6 421.6L364.86 419.85L365.05 418.08L365.16 416.28L365.2 414.46L365.14 412.65L365.03 410.84L364.84 409.07L364.58 407.3L364.25 405.57L363.86 403.85L363.39 402.18L362.85 400.52L362.26 398.9L361.61 397.31L360.88 395.75L360.1 394.23L359.26 392.73L358.37 391.28L357.42 389.86L356.42 388.49L355.37 387.16L354.27 385.87L353.12 384.63L351.91 383.43L350.66 382.28L349.37 381.17L348.04 380.13L346.66 379.13L345.24 378.18L343.79 377.29L342.29 376.46L340.77 375.68L339.21 374.97L337.62 374.31L335.99 373.72L334.34 373.2L332.65 372.73L330.94 372.34L329.21 372.01L327.44 371.76L325.67 371.57L323.86 371.46L322.05 371.42L320.23 371.46L318.43 371.58Z" id="ae53bDd6i"></path><path d="M436.57 363.7C436.57 364.98 436.57 371.44 436.57 383.05C448.21 383.13 541.28 383.81 552.91 383.9C552.91 372.28 552.91 365.83 552.91 364.55C552.98 353.86 544.35 345.14 533.67 345.08C533.56 345.08 533.46 345.08 533.35 345.08C533.35 345.08 463.77 344.6 456.04 344.56C445.39 344.49 436.7 353.05 436.57 363.7Z" id="dCz4Z9LB4"></path><path d="M436.57 363.7C436.57 364.98 436.57 371.44 436.57 383.05C448.21 383.13 541.28 383.81 552.91 383.9C552.91 372.28 552.91 365.83 552.91 364.55C552.98 353.86 544.35 345.14 533.67 345.08C533.56 345.08 533.46 345.08 533.35 345.08C533.35 345.08 463.77 344.6 456.04 344.56C445.39 344.49 436.7 353.05 436.57 363.7Z" id="l1OgYwwylj"></path><path d="M498.47 226.59L500.46 226.79L502.42 227.07L504.36 227.43L506.28 227.86L508.16 228.36L510.01 228.94L511.83 229.58L513.61 230.3L515.37 231.08L517.07 231.93L518.76 232.84L520.39 233.81L521.98 234.84L523.53 235.94L525.04 237.09L526.51 238.29L527.92 239.54L529.28 240.86L530.59 242.22L531.84 243.63L533.05 245.1L534.2 246.61L535.3 248.16L536.33 249.75L537.3 251.38L538.21 253.07L539.06 254.78L539.84 256.52L540.55 258.31L541.2 260.13L541.77 261.98L542.28 263.86L542.71 265.78L543.06 267.71L543.35 269.68L543.56 271.66L543.67 273.68L543.71 275.71L543.67 277.74L543.56 279.76L543.35 281.73L543.06 283.71L542.71 285.64L542.28 287.55L541.77 289.44L541.2 291.29L540.55 293.1L539.84 294.88L539.06 296.64L538.21 298.35L537.3 300.03L536.33 301.67L535.3 303.26L534.2 304.81L533.05 306.32L531.84 307.78L530.59 309.19L529.28 310.56L527.92 311.86L526.51 313.13L525.04 314.33L523.53 315.49L521.98 316.57L520.39 317.61L518.76 318.58L517.07 319.49L515.37 320.34L513.61 321.12L511.83 321.84L510.01 322.48L508.16 323.06L506.28 323.56L504.36 323.99L502.42 324.35L500.46 324.62L498.47 324.83L496.46 324.95L494.43 324.99L492.4 324.95L490.38 324.83L488.41 324.62L486.43 324.35L484.5 323.99L482.59 323.56L480.7 323.06L478.85 322.48L477.04 321.84L475.25 321.12L473.5 320.34L471.78 319.49L470.11 318.58L468.46 317.61L466.87 316.57L465.32 315.49L463.81 314.33L462.36 313.13L460.95 311.86L459.58 310.56L458.27 309.19L457.01 307.78L455.8 306.32L454.65 304.81L453.57 303.26L452.53 301.67L451.55 300.03L450.65 298.35L449.8 296.64L449.01 294.88L448.3 293.1L447.66 291.29L447.08 289.44L446.57 287.55L446.15 285.64L445.79 283.71L445.52 281.73L445.31 279.76L445.19 277.74L445.15 275.71L445.19 273.68L445.31 271.66L445.52 269.68L445.79 267.71L446.15 265.78L446.57 263.86L447.08 261.98L447.66 260.13L448.3 258.31L449.01 256.52L449.8 254.78L450.65 253.07L451.55 251.38L452.53 249.75L453.57 248.16L454.65 246.61L455.8 245.1L457.01 243.63L458.27 242.22L459.58 240.86L460.95 239.54L462.36 238.29L463.81 237.09L465.32 235.94L466.87 234.84L468.46 233.81L470.11 232.84L471.78 231.93L473.5 231.08L475.25 230.3L477.04 229.58L478.85 228.94L480.7 228.36L482.59 227.86L484.5 227.43L486.43 227.07L488.41 226.79L490.38 226.59L492.4 226.47L494.43 226.43L496.46 226.47L498.47 226.59ZM490.81 232.62L489.04 232.81L487.28 233.07L485.54 233.4L483.84 233.8L482.15 234.26L480.51 234.8L478.87 235.39L477.28 236.04L475.73 236.77L474.21 237.54L472.72 238.38L471.28 239.28L469.86 240.23L468.49 241.23L467.16 242.29L465.87 243.38L464.62 244.53L463.43 245.74L462.29 246.99L461.18 248.28L460.14 249.61L459.14 250.99L458.2 252.41L457.31 253.86L456.49 255.36L455.71 256.88L454.99 258.44L454.35 260.03L453.76 261.67L453.24 263.31L452.79 265L452.39 266.71L452.06 268.44L451.81 270.2L451.63 271.98L451.52 273.78L451.5 275.6L451.54 277.42L451.65 279.22L451.84 281L452.1 282.76L452.43 284.49L452.83 286.2L453.29 287.88L453.83 289.54L454.43 291.15L455.09 292.74L455.8 294.29L456.59 295.83L457.42 297.31L458.31 298.77L459.26 300.18L460.26 301.55L461.32 302.88L462.43 304.16L463.58 305.4L464.77 306.6L466.02 307.75L467.33 308.85L468.66 309.89L470.03 310.89L471.45 311.84L472.91 312.71L474.39 313.55L475.92 314.32L477.49 315.03L479.08 315.68L480.7 316.27L482.36 316.79L484.04 317.25L485.75 317.64L487.49 317.97L489.24 318.21L491.03 318.39L492.82 318.5L494.65 318.54L496.46 318.5L498.25 318.38L500.04 318.19L501.78 317.93L503.52 317.6L505.22 317.2L506.89 316.73L508.54 316.21L510.17 315.61L511.75 314.95L513.31 314.24L514.84 313.47L516.32 312.63L517.77 311.74L519.18 310.79L520.56 309.79L521.89 308.74L523.16 307.64L524.41 306.49L525.6 305.29L526.75 304.05L527.85 302.76L528.89 301.43L529.9 300.06L530.83 298.64L531.72 297.19L532.56 295.71L533.32 294.17L534.04 292.62L534.7 291.03L535.29 289.41L535.81 287.75L536.27 286.08L536.66 284.38L536.99 282.64L537.25 280.88L537.43 279.11L537.53 277.31L537.58 275.49L537.53 273.68L537.43 271.87L537.23 270.1L536.97 268.33L536.64 266.6L536.25 264.89L535.78 263.22L535.24 261.56L534.64 259.94L533.98 258.35L533.27 256.78L532.49 255.26L531.65 253.77L530.76 252.31L529.81 250.9L528.81 249.53L527.76 248.2L526.64 246.91L525.49 245.66L524.3 244.47L523.05 243.31L521.76 242.2L520.42 241.16L519.05 240.16L517.63 239.21L516.18 238.32L514.68 237.5L513.16 236.72L511.6 236L509.99 235.35L508.38 234.76L506.72 234.23L505.04 233.77L503.33 233.37L501.59 233.04L499.83 232.79L498.05 232.6L496.25 232.49L494.43 232.45L492.62 232.49L490.81 232.62Z" id="a1NJ8Yjh1c"></path><path d="M498.47 226.59L500.46 226.79L502.42 227.07L504.36 227.43L506.28 227.86L508.16 228.36L510.01 228.94L511.83 229.58L513.61 230.3L515.37 231.08L517.07 231.93L518.76 232.84L520.39 233.81L521.98 234.84L523.53 235.94L525.04 237.09L526.51 238.29L527.92 239.54L529.28 240.86L530.59 242.22L531.84 243.63L533.05 245.1L534.2 246.61L535.3 248.16L536.33 249.75L537.3 251.38L538.21 253.07L539.06 254.78L539.84 256.52L540.55 258.31L541.2 260.13L541.77 261.98L542.28 263.86L542.71 265.78L543.06 267.71L543.35 269.68L543.56 271.66L543.67 273.68L543.71 275.71L543.67 277.74L543.56 279.76L543.35 281.73L543.06 283.71L542.71 285.64L542.28 287.55L541.77 289.44L541.2 291.29L540.55 293.1L539.84 294.88L539.06 296.64L538.21 298.35L537.3 300.03L536.33 301.67L535.3 303.26L534.2 304.81L533.05 306.32L531.84 307.78L530.59 309.19L529.28 310.56L527.92 311.86L526.51 313.13L525.04 314.33L523.53 315.49L521.98 316.57L520.39 317.61L518.76 318.58L517.07 319.49L515.37 320.34L513.61 321.12L511.83 321.84L510.01 322.48L508.16 323.06L506.28 323.56L504.36 323.99L502.42 324.35L500.46 324.62L498.47 324.83L496.46 324.95L494.43 324.99L492.4 324.95L490.38 324.83L488.41 324.62L486.43 324.35L484.5 323.99L482.59 323.56L480.7 323.06L478.85 322.48L477.04 321.84L475.25 321.12L473.5 320.34L471.78 319.49L470.11 318.58L468.46 317.61L466.87 316.57L465.32 315.49L463.81 314.33L462.36 313.13L460.95 311.86L459.58 310.56L458.27 309.19L457.01 307.78L455.8 306.32L454.65 304.81L453.57 303.26L452.53 301.67L451.55 300.03L450.65 298.35L449.8 296.64L449.01 294.88L448.3 293.1L447.66 291.29L447.08 289.44L446.57 287.55L446.15 285.64L445.79 283.71L445.52 281.73L445.31 279.76L445.19 277.74L445.15 275.71L445.19 273.68L445.31 271.66L445.52 269.68L445.79 267.71L446.15 265.78L446.57 263.86L447.08 261.98L447.66 260.13L448.3 258.31L449.01 256.52L449.8 254.78L450.65 253.07L451.55 251.38L452.53 249.75L453.57 248.16L454.65 246.61L455.8 245.1L457.01 243.63L458.27 242.22L459.58 240.86L460.95 239.54L462.36 238.29L463.81 237.09L465.32 235.94L466.87 234.84L468.46 233.81L470.11 232.84L471.78 231.93L473.5 231.08L475.25 230.3L477.04 229.58L478.85 228.94L480.7 228.36L482.59 227.86L484.5 227.43L486.43 227.07L488.41 226.79L490.38 226.59L492.4 226.47L494.43 226.43L496.46 226.47L498.47 226.59ZM490.81 232.62L489.04 232.81L487.28 233.07L485.54 233.4L483.84 233.8L482.15 234.26L480.51 234.8L478.87 235.39L477.28 236.04L475.73 236.77L474.21 237.54L472.72 238.38L471.28 239.28L469.86 240.23L468.49 241.23L467.16 242.29L465.87 243.38L464.62 244.53L463.43 245.74L462.29 246.99L461.18 248.28L460.14 249.61L459.14 250.99L458.2 252.41L457.31 253.86L456.49 255.36L455.71 256.88L454.99 258.44L454.35 260.03L453.76 261.67L453.24 263.31L452.79 265L452.39 266.71L452.06 268.44L451.81 270.2L451.63 271.98L451.52 273.78L451.5 275.6L451.54 277.42L451.65 279.22L451.84 281L452.1 282.76L452.43 284.49L452.83 286.2L453.29 287.88L453.83 289.54L454.43 291.15L455.09 292.74L455.8 294.29L456.59 295.83L457.42 297.31L458.31 298.77L459.26 300.18L460.26 301.55L461.32 302.88L462.43 304.16L463.58 305.4L464.77 306.6L466.02 307.75L467.33 308.85L468.66 309.89L470.03 310.89L471.45 311.84L472.91 312.71L474.39 313.55L475.92 314.32L477.49 315.03L479.08 315.68L480.7 316.27L482.36 316.79L484.04 317.25L485.75 317.64L487.49 317.97L489.24 318.21L491.03 318.39L492.82 318.5L494.65 318.54L496.46 318.5L498.25 318.38L500.04 318.19L501.78 317.93L503.52 317.6L505.22 317.2L506.89 316.73L508.54 316.21L510.17 315.61L511.75 314.95L513.31 314.24L514.84 313.47L516.32 312.63L517.77 311.74L519.18 310.79L520.56 309.79L521.89 308.74L523.16 307.64L524.41 306.49L525.6 305.29L526.75 304.05L527.85 302.76L528.89 301.43L529.9 300.06L530.83 298.64L531.72 297.19L532.56 295.71L533.32 294.17L534.04 292.62L534.7 291.03L535.29 289.41L535.81 287.75L536.27 286.08L536.66 284.38L536.99 282.64L537.25 280.88L537.43 279.11L537.53 277.31L537.58 275.49L537.53 273.68L537.43 271.87L537.23 270.1L536.97 268.33L536.64 266.6L536.25 264.89L535.78 263.22L535.24 261.56L534.64 259.94L533.98 258.35L533.27 256.78L532.49 255.26L531.65 253.77L530.76 252.31L529.81 250.9L528.81 249.53L527.76 248.2L526.64 246.91L525.49 245.66L524.3 244.47L523.05 243.31L521.76 242.2L520.42 241.16L519.05 240.16L517.63 239.21L516.18 238.32L514.68 237.5L513.16 236.72L511.6 236L509.99 235.35L508.38 234.76L506.72 234.23L505.04 233.77L503.33 233.37L501.59 233.04L499.83 232.79L498.05 232.6L496.25 232.49L494.43 232.45L492.62 232.49L490.81 232.62Z" id="c4ft0rWAqa"></path><path d="M88.32 363.7C88.32 364.98 88.32 371.44 88.32 383.05C99.96 383.13 193.01 383.81 204.65 383.9C204.65 372.28 204.65 365.83 204.65 364.55C204.71 353.86 196.1 345.14 185.4 345.08C185.29 345.08 185.2 345.08 185.09 345.08C185.09 345.08 115.51 344.6 107.77 344.56C97.13 344.49 88.43 353.05 88.32 363.7Z" id="f1CCpceuDC"></path><path d="M88.32 363.7C88.32 364.98 88.32 371.44 88.32 383.05C99.96 383.13 193.01 383.81 204.65 383.9C204.65 372.28 204.65 365.83 204.65 364.55C204.71 353.86 196.1 345.14 185.4 345.08C185.29 345.08 185.2 345.08 185.09 345.08C185.09 345.08 115.51 344.6 107.77 344.56C97.13 344.49 88.43 353.05 88.32 363.7Z" id="n4KclKgquS"></path><path d="M150.21 226.59L152.2 226.79L154.16 227.07L156.11 227.43L158.01 227.86L159.89 228.36L161.74 228.94L163.57 229.58L165.35 230.3L167.11 231.08L168.82 231.93L170.49 232.84L172.13 233.81L173.72 234.84L175.28 235.94L176.78 237.09L178.24 238.29L179.66 239.54L181.01 240.86L182.33 242.22L183.59 243.63L184.8 245.1L185.94 246.61L187.03 248.16L188.06 249.75L189.04 251.38L189.96 253.07L190.79 254.78L191.57 256.52L192.29 258.31L192.93 260.13L193.51 261.98L194.02 263.86L194.45 265.78L194.81 267.71L195.09 269.68L195.29 271.66L195.41 273.68L195.46 275.71L195.41 277.74L195.29 279.76L195.09 281.73L194.81 283.71L194.45 285.64L194.02 287.55L193.51 289.44L192.93 291.29L192.29 293.1L191.57 294.88L190.79 296.64L189.96 298.35L189.04 300.03L188.06 301.67L187.03 303.26L185.94 304.81L184.8 306.32L183.59 307.78L182.33 309.19L181.01 310.56L179.66 311.86L178.24 313.13L176.78 314.33L175.28 315.49L173.72 316.57L172.13 317.61L170.49 318.58L168.82 319.49L167.11 320.34L165.35 321.12L163.57 321.84L161.74 322.48L159.89 323.06L158.01 323.56L156.11 323.99L154.16 324.35L152.2 324.62L150.21 324.83L148.19 324.95L146.16 324.99L144.13 324.95L142.13 324.83L140.14 324.62L138.18 324.35L136.23 323.99L134.33 323.56L132.45 323.06L130.6 322.48L128.77 321.84L126.99 321.12L125.23 320.34L123.52 319.49L121.84 318.58L120.21 317.61L118.61 316.57L117.06 315.49L115.55 314.33L114.1 313.13L112.68 311.86L111.32 310.56L110.01 309.19L108.75 307.78L107.54 306.32L106.39 304.81L105.3 303.26L104.26 301.67L103.3 300.03L102.38 298.35L101.53 296.64L100.75 294.88L100.04 293.1L99.39 291.29L98.82 289.44L98.32 287.55L97.88 285.64L97.53 283.71L97.25 281.73L97.05 279.76L96.92 277.74L96.88 275.71L96.92 273.68L97.05 271.66L97.25 269.68L97.53 267.71L97.88 265.78L98.32 263.86L98.82 261.98L99.39 260.13L100.04 258.31L100.75 256.52L101.53 254.78L102.38 253.07L103.3 251.38L104.26 249.75L105.3 248.16L106.39 246.61L107.54 245.1L108.75 243.63L110.01 242.22L111.32 240.86L112.68 239.54L114.1 238.29L115.55 237.09L117.06 235.94L118.61 234.84L120.21 233.81L121.84 232.84L123.52 231.93L125.23 231.08L126.99 230.3L128.77 229.58L130.6 228.94L132.45 228.36L134.33 227.86L136.23 227.43L138.18 227.07L140.14 226.79L142.13 226.59L144.13 226.47L146.16 226.43L148.19 226.47L150.21 226.59ZM146.16 232.67L144.35 232.71L142.54 232.82L140.77 233.01L139.02 233.27L137.27 233.6L135.57 234L133.89 234.47L132.24 235L130.62 235.61L129.03 236.26L127.47 236.98L125.95 237.76L124.45 238.6L123.01 239.49L121.6 240.43L120.23 241.44L118.9 242.49L117.61 243.6L116.37 244.75L115.17 245.95L114.03 247.2L112.93 248.5L111.87 249.83L110.89 251.2L109.94 252.61L109.05 254.08L108.23 255.56L107.46 257.1L106.74 258.66L106.09 260.25L105.5 261.87L104.97 263.53L104.52 265.22L104.12 266.92L103.81 268.66L103.55 270.42L103.37 272.2L103.26 274L103.23 275.82L103.27 277.63L103.38 279.43L103.58 281.21L103.84 282.97L104.17 284.71L104.58 286.41L105.04 288.1L105.56 289.74L106.17 291.36L106.83 292.95L107.54 294.51L108.32 296.04L109.16 297.52L110.05 298.97L111 300.38L112.01 301.76L113.05 303.09L114.16 304.38L115.32 305.61L116.52 306.82L117.77 307.96L119.06 309.05L120.39 310.11L121.76 311.1L123.19 312.04L124.64 312.93L126.14 313.76L127.66 314.53L129.22 315.24L130.81 315.9L132.43 316.49L134.09 317.01L135.78 317.46L137.48 317.86L139.22 318.17L140.98 318.43L142.76 318.61L144.56 318.72L146.38 318.75L148.19 318.71L149.99 318.6L151.77 318.41L153.53 318.15L155.26 317.82L156.96 317.42L158.63 316.95L160.29 316.42L161.91 315.83L163.5 315.17L165.05 314.46L166.57 313.67L168.05 312.84L169.51 311.95L170.92 311L172.29 310L173.62 308.96L174.9 307.85L176.14 306.69L177.34 305.5L178.49 304.25L179.59 302.98L180.63 301.63L181.63 300.26L182.58 298.85L183.45 297.41L184.29 295.91L185.06 294.39L185.77 292.83L186.43 291.24L187.02 289.62L187.54 287.97L188.01 286.28L188.41 284.58L188.72 282.86L188.98 281.1L189.16 279.32L189.28 277.52L189.31 275.71L189.28 273.89L189.17 272.08L189 270.29L188.74 268.54L188.42 266.8L188.02 265.08L187.57 263.39L187.03 261.73L186.44 260.1L185.8 258.51L185.09 256.95L184.31 255.41L183.48 253.92L182.59 252.46L181.64 251.04L180.64 249.65L179.6 248.32L178.5 247.03L177.35 245.77L176.14 244.58L174.91 243.41L173.62 242.3L172.28 241.24L170.91 240.24L169.49 239.3L168.04 238.4L166.54 237.55L165.02 236.77L163.46 236.06L161.87 235.4L160.23 234.8L158.57 234.26L156.89 233.8L155.19 233.4L153.45 233.07L151.69 232.81L149.91 232.62L148.1 232.49L146.27 232.45L146.16 232.45L146.16 232.67Z" id="b4AnE4axVv"></path><path d="M150.21 226.59L152.2 226.79L154.16 227.07L156.11 227.43L158.01 227.86L159.89 228.36L161.74 228.94L163.57 229.58L165.35 230.3L167.11 231.08L168.82 231.93L170.49 232.84L172.13 233.81L173.72 234.84L175.28 235.94L176.78 237.09L178.24 238.29L179.66 239.54L181.01 240.86L182.33 242.22L183.59 243.63L184.8 245.1L185.94 246.61L187.03 248.16L188.06 249.75L189.04 251.38L189.96 253.07L190.79 254.78L191.57 256.52L192.29 258.31L192.93 260.13L193.51 261.98L194.02 263.86L194.45 265.78L194.81 267.71L195.09 269.68L195.29 271.66L195.41 273.68L195.46 275.71L195.41 277.74L195.29 279.76L195.09 281.73L194.81 283.71L194.45 285.64L194.02 287.55L193.51 289.44L192.93 291.29L192.29 293.1L191.57 294.88L190.79 296.64L189.96 298.35L189.04 300.03L188.06 301.67L187.03 303.26L185.94 304.81L184.8 306.32L183.59 307.78L182.33 309.19L181.01 310.56L179.66 311.86L178.24 313.13L176.78 314.33L175.28 315.49L173.72 316.57L172.13 317.61L170.49 318.58L168.82 319.49L167.11 320.34L165.35 321.12L163.57 321.84L161.74 322.48L159.89 323.06L158.01 323.56L156.11 323.99L154.16 324.35L152.2 324.62L150.21 324.83L148.19 324.95L146.16 324.99L144.13 324.95L142.13 324.83L140.14 324.62L138.18 324.35L136.23 323.99L134.33 323.56L132.45 323.06L130.6 322.48L128.77 321.84L126.99 321.12L125.23 320.34L123.52 319.49L121.84 318.58L120.21 317.61L118.61 316.57L117.06 315.49L115.55 314.33L114.1 313.13L112.68 311.86L111.32 310.56L110.01 309.19L108.75 307.78L107.54 306.32L106.39 304.81L105.3 303.26L104.26 301.67L103.3 300.03L102.38 298.35L101.53 296.64L100.75 294.88L100.04 293.1L99.39 291.29L98.82 289.44L98.32 287.55L97.88 285.64L97.53 283.71L97.25 281.73L97.05 279.76L96.92 277.74L96.88 275.71L96.92 273.68L97.05 271.66L97.25 269.68L97.53 267.71L97.88 265.78L98.32 263.86L98.82 261.98L99.39 260.13L100.04 258.31L100.75 256.52L101.53 254.78L102.38 253.07L103.3 251.38L104.26 249.75L105.3 248.16L106.39 246.61L107.54 245.1L108.75 243.63L110.01 242.22L111.32 240.86L112.68 239.54L114.1 238.29L115.55 237.09L117.06 235.94L118.61 234.84L120.21 233.81L121.84 232.84L123.52 231.93L125.23 231.08L126.99 230.3L128.77 229.58L130.6 228.94L132.45 228.36L134.33 227.86L136.23 227.43L138.18 227.07L140.14 226.79L142.13 226.59L144.13 226.47L146.16 226.43L148.19 226.47L150.21 226.59ZM146.16 232.67L144.35 232.71L142.54 232.82L140.77 233.01L139.02 233.27L137.27 233.6L135.57 234L133.89 234.47L132.24 235L130.62 235.61L129.03 236.26L127.47 236.98L125.95 237.76L124.45 238.6L123.01 239.49L121.6 240.43L120.23 241.44L118.9 242.49L117.61 243.6L116.37 244.75L115.17 245.95L114.03 247.2L112.93 248.5L111.87 249.83L110.89 251.2L109.94 252.61L109.05 254.08L108.23 255.56L107.46 257.1L106.74 258.66L106.09 260.25L105.5 261.87L104.97 263.53L104.52 265.22L104.12 266.92L103.81 268.66L103.55 270.42L103.37 272.2L103.26 274L103.23 275.82L103.27 277.63L103.38 279.43L103.58 281.21L103.84 282.97L104.17 284.71L104.58 286.41L105.04 288.1L105.56 289.74L106.17 291.36L106.83 292.95L107.54 294.51L108.32 296.04L109.16 297.52L110.05 298.97L111 300.38L112.01 301.76L113.05 303.09L114.16 304.38L115.32 305.61L116.52 306.82L117.77 307.96L119.06 309.05L120.39 310.11L121.76 311.1L123.19 312.04L124.64 312.93L126.14 313.76L127.66 314.53L129.22 315.24L130.81 315.9L132.43 316.49L134.09 317.01L135.78 317.46L137.48 317.86L139.22 318.17L140.98 318.43L142.76 318.61L144.56 318.72L146.38 318.75L148.19 318.71L149.99 318.6L151.77 318.41L153.53 318.15L155.26 317.82L156.96 317.42L158.63 316.95L160.29 316.42L161.91 315.83L163.5 315.17L165.05 314.46L166.57 313.67L168.05 312.84L169.51 311.95L170.92 311L172.29 310L173.62 308.96L174.9 307.85L176.14 306.69L177.34 305.5L178.49 304.25L179.59 302.98L180.63 301.63L181.63 300.26L182.58 298.85L183.45 297.41L184.29 295.91L185.06 294.39L185.77 292.83L186.43 291.24L187.02 289.62L187.54 287.97L188.01 286.28L188.41 284.58L188.72 282.86L188.98 281.1L189.16 279.32L189.28 277.52L189.31 275.71L189.28 273.89L189.17 272.08L189 270.29L188.74 268.54L188.42 266.8L188.02 265.08L187.57 263.39L187.03 261.73L186.44 260.1L185.8 258.51L185.09 256.95L184.31 255.41L183.48 253.92L182.59 252.46L181.64 251.04L180.64 249.65L179.6 248.32L178.5 247.03L177.35 245.77L176.14 244.58L174.91 243.41L173.62 242.3L172.28 241.24L170.91 240.24L169.49 239.3L168.04 238.4L166.54 237.55L165.02 236.77L163.46 236.06L161.87 235.4L160.23 234.8L158.57 234.26L156.89 233.8L155.19 233.4L153.45 233.07L151.69 232.81L149.91 232.62L148.1 232.49L146.27 232.45L146.16 232.45L146.16 232.67Z" id="a11fONVwL8"></path><path d="M146.16 337.9C146.16 434.1 224.15 512.08 320.35 512.08C416.55 512.08 494.54 434.1 494.54 337.9C494.54 241.7 416.55 163.71 320.35 163.71C224.15 163.71 146.16 241.7 146.16 337.9Z" id="azOB5REqd"></path><path d="M146.16 337.9C146.16 434.1 224.15 512.08 320.35 512.08C416.55 512.08 494.54 434.1 494.54 337.9C494.54 241.7 416.55 163.71 320.35 163.71C224.15 163.71 146.16 241.7 146.16 337.9Z" id="a2BUyhStG1"></path><path d="M103.55 275.71C103.55 299.25 122.63 318.32 146.16 318.32C169.71 318.32 188.79 299.25 188.79 275.71C188.79 252.17 169.71 233.08 146.16 233.08C122.63 233.08 103.55 252.17 103.55 275.71Z" id="bo0LVTZW0"></path><path d="M103.55 275.71C103.55 299.25 122.63 318.32 146.16 318.32C169.71 318.32 188.79 299.25 188.79 275.71C188.79 252.17 169.71 233.08 146.16 233.08C122.63 233.08 103.55 252.17 103.55 275.71Z" id="g3XGCVaQuu"></path><path d="M277.74 79.63C277.74 103.17 296.81 122.25 320.35 122.25C343.89 122.25 362.98 103.17 362.98 79.63C362.98 56.1 343.89 37.01 320.35 37.01C296.81 37.01 277.74 56.1 277.74 79.63Z" id="c37Ub5gV7"></path><path d="M277.74 79.63C277.74 103.17 296.81 122.25 320.35 122.25C343.89 122.25 362.98 103.17 362.98 79.63C362.98 56.1 343.89 37.01 320.35 37.01C296.81 37.01 277.74 56.1 277.74 79.63Z" id="avvdfMOEL"></path><path d="M279.42 414.46C279.42 438.01 298.5 457.08 322.05 457.08C345.59 457.08 364.66 438.01 364.66 414.46C364.66 390.92 345.59 371.84 322.05 371.84C298.5 371.84 279.42 390.92 279.42 414.46Z" id="f5rrpDY6Vr"></path><path d="M279.42 414.46C279.42 438.01 298.5 457.08 322.05 457.08C345.59 457.08 364.66 438.01 364.66 414.46C364.66 390.92 345.59 371.84 322.05 371.84C298.5 371.84 279.42 390.92 279.42 414.46Z" id="c3oVVuaGw"></path><path d="M451.91 275.71C451.91 299.25 471 318.32 494.54 318.32C518.07 318.32 537.15 299.25 537.15 275.71C537.15 252.17 518.07 233.08 494.54 233.08C471 233.08 451.91 252.17 451.91 275.71Z" id="e2K9uZS2RQ"></path><path d="M451.91 275.71C451.91 299.25 471 318.32 494.54 318.32C518.07 318.32 537.15 299.25 537.15 275.71C537.15 252.17 518.07 233.08 494.54 233.08C471 233.08 451.91 252.17 451.91 275.71Z" id="eJ6Rg2UR"></path></defs><g><g><g><use xlink:href="#a2J5IpeAnc" opacity="1" fill="#bf6328" fill-opacity="1"></use><g><use xlink:href="#a2J5IpeAnc" opacity="1" fill-opacity="0" stroke="#000000" stroke-width="1" stroke-opacity="0"></use></g></g><g><use xlink:href="#b2IoiXXGiA" opacity="1" fill="#000000" fill-opacity="0"></use><g><use xlink:href="#b2IoiXXGiA" opacity="1" fill-opacity="0" stroke="#000000" stroke-width="1" stroke-opacity="0"></use></g></g><g><use xlink:href="#dfoPtgyI0" opacity="1" fill="#ffffff" fill-opacity="1"></use><g><use xlink:href="#dfoPtgyI0" opacity="1" fill-opacity="0" stroke="#000000" stroke-width="1" stroke-opacity="0"></use></g></g><g><use xlink:href="#acDN1ZoAO" opacity="1" fill="#000000" fill-opacity="0"></use><g><use xlink:href="#acDN1ZoAO" opacity="1" fill-opacity="0" stroke="#000000" stroke-width="1" stroke-opacity="0"></use></g></g><g><use xlink:href="#a8BUaLKPI" opacity="1" fill="#ffffff" fill-opacity="1"></use><g><use xlink:href="#a8BUaLKPI" opacity="1" fill-opacity="0" stroke="#000000" stroke-width="1" stroke-opacity="0"></use></g></g><g><use xlink:href="#aL8OXravq" opacity="1" fill="#000000" fill-opacity="0"></use><g><use xlink:href="#aL8OXravq" opacity="1" fill-opacity="0" stroke="#000000" stroke-width="1" stroke-opacity="0"></use></g></g><g><use xlink:href="#aR30IdLZN" opacity="1" fill="#ffffff" fill-opacity="1"></use><g><use xlink:href="#aR30IdLZN" opacity="1" fill-opacity="0" stroke="#000000" stroke-width="1" stroke-opacity="0"></use></g></g><g><use xlink:href="#d2U7PB7EJ0" opacity="1" fill="#000000" fill-opacity="0"></use><g><use xlink:href="#d2U7PB7EJ0" opacity="1" fill-opacity="0" stroke="#000000" stroke-width="1" stroke-opacity="0"></use></g></g><g><use xlink:href="#dKknG3n9L" opacity="1" fill="#ffffff" fill-opacity="1"></use><g><use xlink:href="#dKknG3n9L" opacity="1" fill-opacity="0" stroke="#000000" stroke-width="1" stroke-opacity="0"></use></g></g><g><use xlink:href="#ae53bDd6i" opacity="1" fill="#000000" fill-opacity="0"></use><g><use xlink:href="#ae53bDd6i" opacity="1" fill-opacity="0" stroke="#000000" stroke-width="1" stroke-opacity="0"></use></g></g><g><use xlink:href="#dCz4Z9LB4" opacity="1" fill="#ffffff" fill-opacity="1"></use><g><use xlink:href="#dCz4Z9LB4" opacity="1" fill-opacity="0" stroke="#000000" stroke-width="1" stroke-opacity="0"></use></g></g><g><use xlink:href="#l1OgYwwylj" opacity="1" fill="#000000" fill-opacity="0"></use><g><use xlink:href="#l1OgYwwylj" opacity="1" fill-opacity="0" stroke="#000000" stroke-width="1" stroke-opacity="0"></use></g></g><g><use xlink:href="#a1NJ8Yjh1c" opacity="1" fill="#ffffff" fill-opacity="1"></use><g><use xlink:href="#a1NJ8Yjh1c" opacity="1" fill-opacity="0" stroke="#000000" stroke-width="1" stroke-opacity="0"></use></g></g><g><use xlink:href="#c4ft0rWAqa" opacity="1" fill="#000000" fill-opacity="0"></use><g><use xlink:href="#c4ft0rWAqa" opacity="1" fill-opacity="0" stroke="#000000" stroke-width="1" stroke-opacity="0"></use></g></g><g><use xlink:href="#f1CCpceuDC" opacity="1" fill="#ffffff" fill-opacity="1"></use><g><use xlink:href="#f1CCpceuDC" opacity="1" fill-opacity="0" stroke="#000000" stroke-width="1" stroke-opacity="0"></use></g></g><g><use xlink:href="#n4KclKgquS" opacity="1" fill="#000000" fill-opacity="0"></use><g><use xlink:href="#n4KclKgquS" opacity="1" fill-opacity="0" stroke="#000000" stroke-width="1" stroke-opacity="0"></use></g></g><g><use xlink:href="#b4AnE4axVv" opacity="1" fill="#ffffff" fill-opacity="1"></use><g><use xlink:href="#b4AnE4axVv" opacity="1" fill-opacity="0" stroke="#000000" stroke-width="1" stroke-opacity="0"></use></g></g><g><use xlink:href="#a11fONVwL8" opacity="1" fill="#000000" fill-opacity="0"></use><g><use xlink:href="#a11fONVwL8" opacity="1" fill-opacity="0" stroke="#000000" stroke-width="1" stroke-opacity="0"></use></g></g><g><use xlink:href="#azOB5REqd" opacity="1" fill="#000000" fill-opacity="0"></use><g><use xlink:href="#azOB5REqd" opacity="1" fill-opacity="0" stroke="#000000" stroke-width="1" stroke-opacity="0"></use></g></g><g><use xlink:href="#a2BUyhStG1" opacity="1" fill="#000000" fill-opacity="0"></use><g><use xlink:href="#a2BUyhStG1" opacity="1" fill-opacity="0" stroke="#ffffff" stroke-width="1" stroke-opacity="1"></use></g></g><g><use xlink:href="#bo0LVTZW0" opacity="1" fill="#ffffff" fill-opacity="1"></use><g><use xlink:href="#bo0LVTZW0" opacity="1" fill-opacity="0" stroke="#000000" stroke-width="1" stroke-opacity="0"></use></g></g><g><use xlink:href="#g3XGCVaQuu" opacity="1" fill="#000000" fill-opacity="0"></use><g><use xlink:href="#g3XGCVaQuu" opacity="1" fill-opacity="0" stroke="#000000" stroke-width="1" stroke-opacity="0"></use></g></g><g><use xlink:href="#c37Ub5gV7" opacity="1" fill="#ffffff" fill-opacity="1"></use><g><use xlink:href="#c37Ub5gV7" opacity="1" fill-opacity="0" stroke="#000000" stroke-width="1" stroke-opacity="0"></use></g></g><g><use xlink:href="#avvdfMOEL" opacity="1" fill="#000000" fill-opacity="0"></use><g><use xlink:href="#avvdfMOEL" opacity="1" fill-opacity="0" stroke="#000000" stroke-width="1" stroke-opacity="0"></use></g></g><g><use xlink:href="#f5rrpDY6Vr" opacity="1" fill="#ffffff" fill-opacity="1"></use><g><use xlink:href="#f5rrpDY6Vr" opacity="1" fill-opacity="0" stroke="#000000" stroke-width="1" stroke-opacity="0"></use></g></g><g><use xlink:href="#c3oVVuaGw" opacity="1" fill="#000000" fill-opacity="0"></use><g><use xlink:href="#c3oVVuaGw" opacity="1" fill-opacity="0" stroke="#000000" stroke-width="1" stroke-opacity="0"></use></g></g><g><use xlink:href="#e2K9uZS2RQ" opacity="1" fill="#ffffff" fill-opacity="1"></use><g><use xlink:href="#e2K9uZS2RQ" opacity="1" fill-opacity="0" stroke="#000000" stroke-width="1" stroke-opacity="0"></use></g></g><g><use xlink:href="#eJ6Rg2UR" opacity="1" fill="#000000" fill-opacity="0"></use><g><use xlink:href="#eJ6Rg2UR" opacity="1" fill-opacity="0" stroke="#000000" stroke-width="1" stroke-opacity="0"></use></g></g></g></g></svg>