<?xml version="1.0" encoding="UTF-8" standalone="no"?>
<!DOCTYPE svg PUBLIC "-//W3C//DTD SVG 1.1//EN" "http://www.w3.org/Graphics/SVG/1.1/DTD/svg11.dtd">
<svg version="1.1" xmlns="http://www.w3.org/2000/svg" xmlns:xlink="http://www.w3.org/1999/xlink" preserveAspectRatio="xMidYMid meet" viewBox="0 0 640 640" width="640" height="640"><defs><path d="M5.87 319.5C5.87 493.02 146.52 633.66 320.03 633.66C493.53 633.66 634.19 493.02 634.19 319.5C634.19 146.01 493.53 5.36 320.03 5.36C146.52 5.36 5.87 146.01 5.87 319.5Z" id="d6mEykznQ"></path><path d="M5.87 319.5C5.87 493.02 146.52 633.66 320.03 633.66C493.53 633.66 634.19 493.02 634.19 319.5C634.19 146.01 493.53 5.36 320.03 5.36C146.52 5.36 5.87 146.01 5.87 319.5Z" id="fcCcrOECM"></path><path d="M377.19 538.77C359.64 538.77 345.38 530.97 345.38 521.33C345.38 511.71 359.64 503.91 377.19 503.91C394.76 503.91 409 511.71 409 521.33C409 530.97 394.76 538.77 377.19 538.77Z" id="i5xjFWcdWT"></path><path d="M377.19 538.77C359.64 538.77 345.38 530.97 345.38 521.33C345.38 511.71 359.64 503.91 377.19 503.91C394.76 503.91 409 511.71 409 521.33C409 530.97 394.76 538.77 377.19 538.77Z" id="c2Rzd7uHw"></path><path d="M314.54 505.91C209.03 505.91 123.49 420.85 123.49 315.92C123.49 210.98 209.03 125.92 314.54 125.92C420.05 125.92 505.59 210.98 505.59 315.92C505.59 420.85 420.05 505.91 314.54 505.91Z" id="a4Y2biZO0J"></path><path d="M314.54 505.91C209.03 505.91 123.49 420.85 123.49 315.92C123.49 210.98 209.03 125.92 314.54 125.92C420.05 125.92 505.59 210.98 505.59 315.92C505.59 420.85 420.05 505.91 314.54 505.91Z" id="b3HyB4MZa"></path><path d="M549.64 189.54L495.22 269.63" id="e2THnPMGw"></path><path d="M549.64 189.54L495.22 269.63" id="akQoBwVPq"></path><path d="M505.59 264.55L376.13 247.13" id="e2e60V0R3c"></path><path d="M505.59 264.55L376.13 247.13" id="b36Cgjg41"></path><path d="M48.46 362.09L131.72 314.86" id="aP9oLsz1p"></path><path d="M48.46 362.09L131.72 314.86" id="gqHmnTRem"></path><path d="M121.47 313.8L229.25 387.78" id="a15Gc97FF9"></path><path d="M121.47 313.8L229.25 387.78" id="a4N5hNW1A"></path><path d="M424.44 543.95C393.2 543.95 367.9 519.12 367.9 488.47C367.9 457.83 393.2 433.01 424.44 433.01C455.65 433.01 480.97 457.83 480.97 488.47C480.97 519.12 455.65 543.95 424.44 543.95Z" id="bNnYhZIxq"></path><path d="M424.44 543.95C393.2 543.95 367.9 519.12 367.9 488.47C367.9 457.83 393.2 433.01 424.44 433.01C455.65 433.01 480.97 457.83 480.97 488.47C480.97 519.12 455.65 543.95 424.44 543.95Z" id="asI03E52f"></path><path d="M313.48 580.94C271.52 580.94 237.5 547.82 237.5 506.97C237.5 466.11 271.52 433.01 313.48 433.01C355.44 433.01 389.46 466.11 389.46 506.97C389.46 547.82 355.44 580.94 313.48 580.94Z" id="c464QC2stF"></path><path d="M313.48 580.94C271.52 580.94 237.5 547.82 237.5 506.97C237.5 466.11 271.52 433.01 313.48 433.01C355.44 433.01 389.46 466.11 389.46 506.97C389.46 547.82 355.44 580.94 313.48 580.94Z" id="bielcTX4"></path><path d="M326.02 458.17L326.6 458.21L326.77 458.25L326.96 458.26L327.14 458.29L327.33 458.33L327.53 458.34L327.7 458.37L327.89 458.41L328.07 458.45L328.26 458.49L328.44 458.52L328.63 458.57L328.81 458.61L328.98 458.65L329.17 458.69L329.53 458.79L329.72 458.85L330.07 458.95L330.25 459.01L330.42 459.06L331.3 459.38L331.48 459.46L331.66 459.53L331.83 459.61L332.01 459.67L332.17 459.75L332.52 459.91L332.68 459.99L332.86 460.07L333.02 460.15L333.4 460.28L333.58 460.34L333.77 460.41L333.95 460.47L334.14 460.54L334.32 460.62L334.49 460.68L334.68 460.74L334.86 460.81L335.05 460.89L335.23 460.95L335.4 461.03L335.6 461.1L335.77 461.18L335.95 461.24L336.14 461.32L336.32 461.4L336.49 461.47L336.67 461.55L336.86 461.63L337.57 461.95L337.76 462.03L338.64 462.43L338.82 462.52L339.17 462.68L339.34 462.78L339.52 462.86L339.7 462.95L339.86 463.03L340.21 463.23L358.71 454.03L374.13 474.01L361.77 489.43L362.05 490.26L362.2 490.69L362.34 491.11L362.47 491.54L362.6 491.96L362.86 492.82L362.97 493.24L363.1 493.67L363.21 494.1L363.3 494.54L363.42 494.97L363.8 496.7L363.88 497.13L363.96 497.58L364.12 498.45L364.18 498.89L364.26 499.33L364.33 499.77L364.38 500.21L364.44 500.66L364.49 501.09L364.54 501.54L364.59 501.97L364.63 502.42L364.67 502.87L364.7 503.3L364.76 504.19L364.78 504.63L364.83 505.97L364.83 506.85L380.26 517.42L370.96 540.57L352.46 538.56L352.21 538.93L351.95 539.28L351.68 539.65L351.13 540.36L350.84 540.71L349.98 541.72L349.37 542.39L348.76 543.03L348.44 543.35L348.12 543.66L347.8 543.98L347.48 544.28L347.14 544.57L346.82 544.87L346.49 545.16L346.14 545.45L345.8 545.74L344.39 546.83L344.04 547.08L342.93 547.85L342.55 548.09L342.18 548.33L341.8 548.57L340.64 549.25L340.24 549.45L339.84 549.68L339.46 549.87L339.06 550.08L338 569.63L313.37 573.75L306.19 554.2L305.62 554.15L305.44 554.13L305.25 554.12L305.06 554.08L304.88 554.05L304.69 554.03L304.51 554L304.32 553.97L304.14 553.94L303.95 553.91L303.77 553.86L303.58 553.83L303.41 553.78L303.21 553.75L302.86 553.65L302.67 553.6L302.32 553.51L302.14 553.44L301.95 553.39L301.77 553.33L301.6 553.28L300.54 552.9L300.36 552.82L300.19 552.75L300.03 552.67L299.67 552.51L299.51 552.43L299.16 552.27L299 552.19L298.81 552.13L298.63 552.07L298.44 552L298.26 551.94L298.07 551.87L297.9 551.81L297.7 551.74L297.53 551.66L297.34 551.6L297.16 551.54L296.98 551.46L296.79 551.39L296.62 551.33L296.44 551.25L296.25 551.17L296.07 551.1L295.89 551.02L295.7 550.96L295.17 550.72L294.98 550.64L294.81 550.58L294.1 550.26L293.92 550.16L293.22 549.84L293.04 549.74L292.87 549.66L292.69 549.57L292.52 549.49L292.34 549.39L292.16 549.31L291.99 549.21L291.81 549.13L273.42 558.1L258 538.56L270.69 523.35L270.53 522.95L270.38 522.53L270.09 521.73L269.95 521.32L269.82 520.9L269.69 520.5L269.44 519.67L269.31 519.27L268.86 517.6L268.57 516.35L268.48 515.92L268.38 515.5L268.22 514.67L268.14 514.24L268.06 513.82L267.98 513.39L267.92 512.97L267.85 512.54L267.79 512.12L267.72 511.69L267.68 511.27L267.53 509.98L267.48 509.56L267.36 507.83L267.34 507.4L267.32 506.98L267.31 506.55L251.87 495.98L261.06 472.31L279.56 474.31L279.82 473.96L280.09 473.61L280.34 473.25L280.62 472.9L280.9 472.55L281.18 472.21L281.75 471.54L282.04 471.22L282.35 470.88L282.63 470.56L282.94 470.24L283.56 469.62L284.52 468.7L284.84 468.42L285.85 467.55L286.19 467.28L286.54 467.01L286.88 466.73L287.23 466.46L287.58 466.21L287.95 465.95L288.3 465.69L288.67 465.44L289.78 464.72L290.16 464.49L290.53 464.27L290.91 464.04L291.3 463.84L291.68 463.61L292.08 463.4L292.47 463.21L292.87 463L293.92 443.46L318.65 438.6L325.84 458.15L326.02 458.17ZM294.98 465.23L294.98 467.23L292.98 468.29L292.63 468.51L291.62 469.18L291.28 469.43L290.95 469.65L290.27 470.13L289.95 470.37L289.62 470.61L289.3 470.85L288.98 471.11L288.64 471.35L287.68 472.12L287.37 472.37L287.05 472.63L286.75 472.88L286.43 473.16L286.13 473.41L284.6 474.77L284.32 475.06L284.01 475.33L283.43 475.91L283.13 476.18L282.84 476.47L282.57 476.78L281.99 477.35L281.72 477.66L281.43 477.95L280.62 478.86L279.56 480.86L277.56 480.86L262.12 478.86L256 496.3L268.67 504.85L270.69 505.91L270.69 509.11L270.73 510.31L270.77 510.71L270.78 511.1L270.85 511.9L270.89 512.3L270.93 512.68L270.97 513.08L271.02 513.47L271.09 513.87L271.13 514.27L271.2 514.65L271.26 515.05L271.34 515.44L271.41 515.82L271.49 516.22L271.65 516.99L271.74 517.38L271.82 517.78L272.02 518.54L272.13 518.93L272.22 519.31L272.34 519.68L272.45 520.07L272.58 520.45L272.69 520.83L272.82 521.2L272.94 521.59L273.07 521.96L273.22 522.34L273.34 522.71L273.63 523.45L274.69 525.46L273.63 527.47L263.08 539.83L274.39 554.2L289.81 545.96L291.81 544.91L294.04 546.28L300.15 549.34L300.35 549.41L300.52 549.45L300.88 549.58L301.05 549.63L301.23 549.69L301.4 549.74L301.76 549.87L302.11 549.97L302.3 550.03L302.48 550.08L302.65 550.14L303.18 550.29L303.37 550.35L304.08 550.54L304.27 550.59L304.62 550.69L304.82 550.74L305.34 550.88L305.54 550.93L305.71 550.96L305.89 551.01L306.08 551.06L306.26 551.1L306.43 551.14L306.63 551.18L306.8 551.23L306.98 551.26L307.17 551.31L307.35 551.34L309.35 551.34L310.4 553.36L316.54 568.79L335.04 565.73L336.09 550.29L336.09 548.29L338.1 547.23L338.45 547L339.46 546.33L339.79 546.09L340.13 545.87L340.8 545.39L341.12 545.15L341.46 544.91L341.78 544.67L342.1 544.41L342.44 544.17L343.08 543.66L343.38 543.42L343.7 543.14L344.02 542.89L344.33 542.63L344.65 542.36L344.95 542.1L346.47 540.74L346.76 540.47L347.06 540.18L347.35 539.89L347.64 539.62L347.95 539.33L348.23 539.04L348.51 538.76L348.79 538.45L349.08 538.16L349.35 537.86L349.64 537.57L350.46 536.66L351.52 534.66L353.52 534.66L368.96 536.66L374.45 518.48L362.09 510.25L360.08 509.19L360.08 507.17L360.07 506.79L360.07 506.39L360.04 505.59L360.02 505.2L360 504.8L359.97 504.4L359.94 504.02L359.88 503.22L359.83 502.83L359.78 502.43L359.73 502.05L359.68 501.65L359.62 501.26L359.57 500.88L359.51 500.48L359.43 500.09L359.36 499.71L359.28 499.31L359.04 498.16L358.66 496.62L358.55 496.24L358.45 495.87L358.34 495.48L358.21 495.1L358.1 494.73L357.97 494.35L357.71 493.61L357.59 493.22L357.01 491.75L355.95 489.75L357.01 487.73L367.58 475.37L356.27 461L340.85 469.25L338.83 470.31L336.83 469.25L330.7 466.17L330.55 466.11L330.07 465.92L329.9 465.87L329.72 465.81L329.56 465.76L329.38 465.71L329.19 465.66L329.01 465.61L328.82 465.57L328.65 465.52L328.45 465.49L328.26 465.44L327.88 465.37L327.69 465.33L327.49 465.29L327.3 465.25L326.92 465.18L326.72 465.13L326.53 465.1L326.34 465.05L326.15 465.02L325.96 464.97L325.76 464.94L325.38 464.84L325.03 464.75L324.83 464.7L324.66 464.64L324.48 464.59L324.32 464.52L324.15 464.46L323.99 464.4L323.83 464.32L323.67 464.25L323.52 464.17L321.71 464.17L320.65 462.17L314.54 446.73L296.04 449.81L294.98 465.23Z" id="abRnrxhK2k"></path><path d="M326.02 458.17L326.6 458.21L326.77 458.25L326.96 458.26L327.14 458.29L327.33 458.33L327.53 458.34L327.7 458.37L327.89 458.41L328.07 458.45L328.26 458.49L328.44 458.52L328.63 458.57L328.81 458.61L328.98 458.65L329.17 458.69L329.53 458.79L329.72 458.85L330.07 458.95L330.25 459.01L330.42 459.06L331.3 459.38L331.48 459.46L331.66 459.53L331.83 459.61L332.01 459.67L332.17 459.75L332.52 459.91L332.68 459.99L332.86 460.07L333.02 460.15L333.4 460.28L333.58 460.34L333.77 460.41L333.95 460.47L334.14 460.54L334.32 460.62L334.49 460.68L334.68 460.74L334.86 460.81L335.05 460.89L335.23 460.95L335.4 461.03L335.6 461.1L335.77 461.18L335.95 461.24L336.14 461.32L336.32 461.4L336.49 461.47L336.67 461.55L336.86 461.63L337.57 461.95L337.76 462.03L338.64 462.43L338.82 462.52L339.17 462.68L339.34 462.78L339.52 462.86L339.7 462.95L339.86 463.03L340.21 463.23L358.71 454.03L374.13 474.01L361.77 489.43L362.05 490.26L362.2 490.69L362.34 491.11L362.47 491.54L362.6 491.96L362.86 492.82L362.97 493.24L363.1 493.67L363.21 494.1L363.3 494.54L363.42 494.97L363.8 496.7L363.88 497.13L363.96 497.58L364.12 498.45L364.18 498.89L364.26 499.33L364.33 499.77L364.38 500.21L364.44 500.66L364.49 501.09L364.54 501.54L364.59 501.97L364.63 502.42L364.67 502.87L364.7 503.3L364.76 504.19L364.78 504.63L364.83 505.97L364.83 506.85L380.26 517.42L370.96 540.57L352.46 538.56L352.21 538.93L351.95 539.28L351.68 539.65L351.13 540.36L350.84 540.71L349.98 541.72L349.37 542.39L348.76 543.03L348.44 543.35L348.12 543.66L347.8 543.98L347.48 544.28L347.14 544.57L346.82 544.87L346.49 545.16L346.14 545.45L345.8 545.74L344.39 546.83L344.04 547.08L342.93 547.85L342.55 548.09L342.18 548.33L341.8 548.57L340.64 549.25L340.24 549.45L339.84 549.68L339.46 549.87L339.06 550.08L338 569.63L313.37 573.75L306.19 554.2L305.62 554.15L305.44 554.13L305.25 554.12L305.06 554.08L304.88 554.05L304.69 554.03L304.51 554L304.32 553.97L304.14 553.94L303.95 553.91L303.77 553.86L303.58 553.83L303.41 553.78L303.21 553.75L302.86 553.65L302.67 553.6L302.32 553.51L302.14 553.44L301.95 553.39L301.77 553.33L301.6 553.28L300.54 552.9L300.36 552.82L300.19 552.75L300.03 552.67L299.67 552.51L299.51 552.43L299.16 552.27L299 552.19L298.81 552.13L298.63 552.07L298.44 552L298.26 551.94L298.07 551.87L297.9 551.81L297.7 551.74L297.53 551.66L297.34 551.6L297.16 551.54L296.98 551.46L296.79 551.39L296.62 551.33L296.44 551.25L296.25 551.17L296.07 551.1L295.89 551.02L295.7 550.96L295.17 550.72L294.98 550.64L294.81 550.58L294.1 550.26L293.92 550.16L293.22 549.84L293.04 549.74L292.87 549.66L292.69 549.57L292.52 549.49L292.34 549.39L292.16 549.31L291.99 549.21L291.81 549.13L273.42 558.1L258 538.56L270.69 523.35L270.53 522.95L270.38 522.53L270.09 521.73L269.95 521.32L269.82 520.9L269.69 520.5L269.44 519.67L269.31 519.27L268.86 517.6L268.57 516.35L268.48 515.92L268.38 515.5L268.22 514.67L268.14 514.24L268.06 513.82L267.98 513.39L267.92 512.97L267.85 512.54L267.79 512.12L267.72 511.69L267.68 511.27L267.53 509.98L267.48 509.56L267.36 507.83L267.34 507.4L267.32 506.98L267.31 506.55L251.87 495.98L261.06 472.31L279.56 474.31L279.82 473.96L280.09 473.61L280.34 473.25L280.62 472.9L280.9 472.55L281.18 472.21L281.75 471.54L282.04 471.22L282.35 470.88L282.63 470.56L282.94 470.24L283.56 469.62L284.52 468.7L284.84 468.42L285.85 467.55L286.19 467.28L286.54 467.01L286.88 466.73L287.23 466.46L287.58 466.21L287.95 465.95L288.3 465.69L288.67 465.44L289.78 464.72L290.16 464.49L290.53 464.27L290.91 464.04L291.3 463.84L291.68 463.61L292.08 463.4L292.47 463.21L292.87 463L293.92 443.46L318.65 438.6L325.84 458.15L326.02 458.17ZM294.98 465.23L294.98 467.23L292.98 468.29L292.63 468.51L291.62 469.18L291.28 469.43L290.95 469.65L290.27 470.13L289.95 470.37L289.62 470.61L289.3 470.85L288.98 471.11L288.64 471.35L287.68 472.12L287.37 472.37L287.05 472.63L286.75 472.88L286.43 473.16L286.13 473.41L284.6 474.77L284.32 475.06L284.01 475.33L283.43 475.91L283.13 476.18L282.84 476.47L282.57 476.78L281.99 477.35L281.72 477.66L281.43 477.95L280.62 478.86L279.56 480.86L277.56 480.86L262.12 478.86L256 496.3L268.67 504.85L270.69 505.91L270.69 509.11L270.73 510.31L270.77 510.71L270.78 511.1L270.85 511.9L270.89 512.3L270.93 512.68L270.97 513.08L271.02 513.47L271.09 513.87L271.13 514.27L271.2 514.65L271.26 515.05L271.34 515.44L271.41 515.82L271.49 516.22L271.65 516.99L271.74 517.38L271.82 517.78L272.02 518.54L272.13 518.93L272.22 519.31L272.34 519.68L272.45 520.07L272.58 520.45L272.69 520.83L272.82 521.2L272.94 521.59L273.07 521.96L273.22 522.34L273.34 522.71L273.63 523.45L274.69 525.46L273.63 527.47L263.08 539.83L274.39 554.2L289.81 545.96L291.81 544.91L294.04 546.28L300.15 549.34L300.35 549.41L300.52 549.45L300.88 549.58L301.05 549.63L301.23 549.69L301.4 549.74L301.76 549.87L302.11 549.97L302.3 550.03L302.48 550.08L302.65 550.14L303.18 550.29L303.37 550.35L304.08 550.54L304.27 550.59L304.62 550.69L304.82 550.74L305.34 550.88L305.54 550.93L305.71 550.96L305.89 551.01L306.08 551.06L306.26 551.1L306.43 551.14L306.63 551.18L306.8 551.23L306.98 551.26L307.17 551.31L307.35 551.34L309.35 551.34L310.4 553.36L316.54 568.79L335.04 565.73L336.09 550.29L336.09 548.29L338.1 547.23L338.45 547L339.46 546.33L339.79 546.09L340.13 545.87L340.8 545.39L341.12 545.15L341.46 544.91L341.78 544.67L342.1 544.41L342.44 544.17L343.08 543.66L343.38 543.42L343.7 543.14L344.02 542.89L344.33 542.63L344.65 542.36L344.95 542.1L346.47 540.74L346.76 540.47L347.06 540.18L347.35 539.89L347.64 539.62L347.95 539.33L348.23 539.04L348.51 538.76L348.79 538.45L349.08 538.16L349.35 537.86L349.64 537.57L350.46 536.66L351.52 534.66L353.52 534.66L368.96 536.66L374.45 518.48L362.09 510.25L360.08 509.19L360.08 507.17L360.07 506.79L360.07 506.39L360.04 505.59L360.02 505.2L360 504.8L359.97 504.4L359.94 504.02L359.88 503.22L359.83 502.83L359.78 502.43L359.73 502.05L359.68 501.65L359.62 501.26L359.57 500.88L359.51 500.48L359.43 500.09L359.36 499.71L359.28 499.31L359.04 498.16L358.66 496.62L358.55 496.24L358.45 495.87L358.34 495.48L358.21 495.1L358.1 494.73L357.97 494.35L357.71 493.61L357.59 493.22L357.01 491.75L355.95 489.75L357.01 487.73L367.58 475.37L356.27 461L340.85 469.25L338.83 470.31L336.83 469.25L330.7 466.17L330.55 466.11L330.07 465.92L329.9 465.87L329.72 465.81L329.56 465.76L329.38 465.71L329.19 465.66L329.01 465.61L328.82 465.57L328.65 465.52L328.45 465.49L328.26 465.44L327.88 465.37L327.69 465.33L327.49 465.29L327.3 465.25L326.92 465.18L326.72 465.13L326.53 465.1L326.34 465.05L326.15 465.02L325.96 464.97L325.76 464.94L325.38 464.84L325.03 464.75L324.83 464.7L324.66 464.64L324.48 464.59L324.32 464.52L324.15 464.46L323.99 464.4L323.83 464.32L323.67 464.25L323.52 464.17L321.71 464.17L320.65 462.17L314.54 446.73L296.04 449.81L294.98 465.23Z" id="bizZxhiRR"></path><path d="M320.11 481.63L322.05 482.03L323.95 482.57L325.84 483.29L325.86 483.31L325.92 483.33L325.96 483.34L326.02 483.36L326.05 483.37L326.12 483.39L326.2 483.42L326.23 483.44L328.15 484.24L329.99 485.18L331.71 486.26L333.32 487.44L334.83 488.76L336.22 490.17L337.49 491.67L338.62 493.27L339.63 494.94L340.53 496.68L341.27 498.49L341.88 500.35L342.34 502.26L342.66 504.19L342.84 506.16L342.85 508.17L342.69 510.17L342.39 512.17L341.91 514.17L341.27 516.16L341.25 516.19L341.25 516.22L341.22 516.29L341.2 516.33L341.19 516.37L341.17 516.43L341.12 516.53L341.11 516.57L341.09 516.61L341.07 516.67L341.06 516.7L341.03 516.75L340.18 518.62L339.2 520.4L338.1 522.05L336.88 523.61L335.53 525.05L334.11 526.36L332.59 527.56L330.98 528.63L329.32 529.6L327.57 530.4L325.78 531.08L323.92 531.63L322.03 532.01L320.13 532.27L318.17 532.38L316.22 532.33L314.25 532.13L312.29 531.76L310.34 531.23L308.4 530.52L308.39 530.52L308.32 530.51L308.29 530.49L308.23 530.48L308.13 530.43L308.05 530.41L308.02 530.4L306.1 529.58L304.25 528.65L302.54 527.58L300.92 526.38L299.42 525.08L298.02 523.67L296.76 522.15L295.62 520.56L294.6 518.88L293.72 517.15L292.98 515.34L292.37 513.48L291.89 511.58L291.59 509.62L291.41 507.65L291.39 505.67L291.54 503.67L291.86 501.66L292.32 499.66L292.98 497.66L293 497.6L293.03 497.53L293.06 497.45L293.08 497.39L293.11 497.31L293.14 497.24L293.16 497.18L293.19 497.1L293.22 497.04L293.24 496.96L293.3 496.83L293.32 496.75L293.38 496.62L293.41 496.54L293.44 496.48L293.46 496.41L293.49 496.33L293.52 496.27L294.39 494.44L295.4 492.71L296.5 491.11L297.74 489.6L299.07 488.21L300.49 486.95L302.01 485.79L303.61 484.77L305.26 483.86L306.99 483.09L308.77 482.45L310.6 481.95L312.47 481.6L314.36 481.37L316.27 481.31L318.19 481.39L320.11 481.63ZM312.29 499.02L310.44 500.05L309.04 501.65L308.19 503.91L307.67 506.2L307.78 508.49L308.43 510.63L309.64 512.54L311.29 514.09L313.37 515.21L315.67 515.73L317.95 515.63L320.11 514.96L322.03 513.77L323.63 512.11L324.79 510.02L325.11 507.75L324.9 505.52L324.19 503.43L323.04 501.54L321.46 499.93L319.5 498.72L316.94 498.41L314.5 498.49L312.29 499.02Z" id="doVOX378J"></path><path d="M320.11 481.63L322.05 482.03L323.95 482.57L325.84 483.29L325.86 483.31L325.92 483.33L325.96 483.34L326.02 483.36L326.05 483.37L326.12 483.39L326.2 483.42L326.23 483.44L328.15 484.24L329.99 485.18L331.71 486.26L333.32 487.44L334.83 488.76L336.22 490.17L337.49 491.67L338.62 493.27L339.63 494.94L340.53 496.68L341.27 498.49L341.88 500.35L342.34 502.26L342.66 504.19L342.84 506.16L342.85 508.17L342.69 510.17L342.39 512.17L341.91 514.17L341.27 516.16L341.25 516.19L341.25 516.22L341.22 516.29L341.2 516.33L341.19 516.37L341.17 516.43L341.12 516.53L341.11 516.57L341.09 516.61L341.07 516.67L341.06 516.7L341.03 516.75L340.18 518.62L339.2 520.4L338.1 522.05L336.88 523.61L335.53 525.05L334.11 526.36L332.59 527.56L330.98 528.63L329.32 529.6L327.57 530.4L325.78 531.08L323.92 531.63L322.03 532.01L320.13 532.27L318.17 532.38L316.22 532.33L314.25 532.13L312.29 531.76L310.34 531.23L308.4 530.52L308.39 530.52L308.32 530.51L308.29 530.49L308.23 530.48L308.13 530.43L308.05 530.41L308.02 530.4L306.1 529.58L304.25 528.65L302.54 527.58L300.92 526.38L299.42 525.08L298.02 523.67L296.76 522.15L295.62 520.56L294.6 518.88L293.72 517.15L292.98 515.34L292.37 513.48L291.89 511.58L291.59 509.62L291.41 507.65L291.39 505.67L291.54 503.67L291.86 501.66L292.32 499.66L292.98 497.66L293 497.6L293.03 497.53L293.06 497.45L293.08 497.39L293.11 497.31L293.14 497.24L293.16 497.18L293.19 497.1L293.22 497.04L293.24 496.96L293.3 496.83L293.32 496.75L293.38 496.62L293.41 496.54L293.44 496.48L293.46 496.41L293.49 496.33L293.52 496.27L294.39 494.44L295.4 492.71L296.5 491.11L297.74 489.6L299.07 488.21L300.49 486.95L302.01 485.79L303.61 484.77L305.26 483.86L306.99 483.09L308.77 482.45L310.6 481.95L312.47 481.6L314.36 481.37L316.27 481.31L318.19 481.39L320.11 481.63ZM312.29 499.02L310.44 500.05L309.04 501.65L308.19 503.91L307.67 506.2L307.78 508.49L308.43 510.63L309.64 512.54L311.29 514.09L313.37 515.21L315.67 515.73L317.95 515.63L320.11 514.96L322.03 513.77L323.63 512.11L324.79 510.02L325.11 507.75L324.9 505.52L324.19 503.43L323.04 501.54L321.46 499.93L319.5 498.72L316.94 498.41L314.5 498.49L312.29 499.02Z" id="d2sfdYElUo"></path><path d="M449.05 461.74L449.29 461.91L449.53 462.07L450.01 462.43L450.24 462.6L450.48 462.78L450.7 462.95L450.94 463.13L451.39 463.52L451.61 463.69L452.29 464.27L452.49 464.48L452.72 464.67L452.93 464.86L453.97 465.9L454.16 466.11L454.37 466.32L454.56 466.54L454.75 466.75L454.96 466.97L455.34 467.42L455.52 467.65L455.71 467.87L455.89 468.1L456.08 468.32L456.26 468.56L456.43 468.78L456.96 469.51L457.12 469.75L457.3 469.99L469.13 469.87L472.19 486.35L460.89 491.54L460.79 492.12L460.73 492.42L460.66 492.71L460.61 493L460.42 493.86L460.34 494.15L460.28 494.44L460.2 494.73L460.13 495.02L459.97 495.59L459.88 495.88L459.8 496.17L459.72 496.44L459.52 497.02L459.43 497.29L459.33 497.58L459.14 498.12L459.04 498.41L458.82 498.96L458.71 499.25L458.37 500.06L458.24 500.33L458.13 500.61L457.88 501.15L457.75 501.41L457.49 501.95L457.36 502.21L457.22 502.48L457.07 502.74L463.21 514.04L450.84 525.35L439.54 517.1L439.38 517.12L439.23 517.12L439.09 517.14L438.93 517.14L438.8 517.15L438.66 517.17L438.51 517.2L438.38 517.22L437.62 517.41L437.5 517.44L437.38 517.49L437.26 517.52L437.15 517.57L437.02 517.6L436.91 517.63L436.8 517.68L436.67 517.71L436.56 517.76L436.45 517.79L436.32 517.84L436.09 517.9L435.84 517.97L435.73 518L435.47 518.06L435.21 518.1L435.07 518.13L434.94 518.14L434.8 518.14L434.65 518.16L434.36 518.16L434.24 518.22L434.12 518.29L434 518.35L433.88 518.4L433.76 518.46L433.63 518.51L433.52 518.56L433.39 518.62L433.26 518.67L433.13 518.7L432.88 518.8L432.76 518.83L432.63 518.88L432.51 518.91L432.36 518.94L431.72 519.11L431.59 519.12L431.45 519.14L431.32 519.17L431.07 519.2L430.92 519.22L430.79 519.22L430.67 519.23L430.52 519.25L430.26 519.25L430.12 519.27L429.86 519.27L429.72 519.25L429.45 519.25L429.19 519.22L421.89 530.64L406.47 525.46L407.52 513.1L407.28 512.92L407.04 512.76L406.56 512.41L406.34 512.23L406.1 512.06L405.87 511.88L405.63 511.71L405.18 511.32L404.96 511.15L404.29 510.57L404.08 510.36L403.86 510.17L403.65 509.98L402.61 508.94L402.41 508.73L402.21 508.52L402.01 508.29L401.81 508.09L401.23 507.41L401.05 507.19L400.86 506.97L400.68 506.74L400.49 506.52L400.32 506.28L400.14 506.05L399.61 505.33L399.45 505.09L399.27 504.85L386.91 504.85L384.17 488.47L395.48 483.29L395.53 483.01L395.59 482.7L395.66 482.41L395.72 482.11L395.78 481.82L395.85 481.52L396.01 480.94L396.07 480.64L396.31 479.77L396.41 479.48L396.49 479.19L396.97 477.75L397.06 477.48L397.29 476.9L397.38 476.63L397.5 476.34L397.61 476.07L397.74 475.78L397.85 475.51L397.98 475.24L398.09 474.95L398.6 473.86L398.75 473.59L398.87 473.32L399.02 473.06L399.31 472.52L399.45 472.26L399.59 471.99L393.46 460.68L405.83 449.37L417.13 457.62L417.29 457.62L417.45 457.61L417.6 457.61L418.03 457.56L418.16 457.53L418.3 457.51L418.43 457.48L418.56 457.46L418.81 457.4L418.93 457.35L419.18 457.29L419.29 457.25L419.42 457.21L419.53 457.17L419.65 457.13L419.77 457.09L419.89 457.05L420 457.01L420.11 456.97L420.24 456.93L420.35 456.9L420.48 456.85L420.59 456.82L420.72 456.79L420.83 456.76L421.09 456.69L421.22 456.68L421.34 456.64L421.6 456.61L421.74 456.6L421.87 456.58L422.02 456.56L422.32 456.56L422.43 456.5L422.56 456.44L422.67 456.37L422.8 456.32L422.91 456.26L423.3 456.12L423.41 456.07L423.79 455.92L424.05 455.86L424.18 455.81L424.69 455.68L424.84 455.65L424.96 455.64L425.09 455.6L425.35 455.57L425.49 455.56L425.75 455.52L425.89 455.51L426.02 455.49L426.15 455.49L426.29 455.48L427.09 455.48L427.22 455.49L427.37 455.49L427.49 455.51L434.68 444.2L450.11 449.37L449.05 461.74ZM429.19 456.45L427.29 456.45L427.16 456.52L427.01 456.58L426.89 456.63L426.76 456.69L426.61 456.74L426.49 456.79L426.34 456.85L426.21 456.9L426.07 456.93L425.94 456.98L425.8 457.03L425.67 457.08L425.38 457.14L425.25 457.19L424.82 457.29L424.69 457.3L424.4 457.37L424.26 457.38L424.11 457.41L423.83 457.45L423.7 457.46L423.41 457.49L423.27 457.49L423.12 457.51L422.83 457.51L422.69 457.53L422.26 457.53L422.1 457.51L421.63 457.51L421.52 457.53L421.41 457.53L421.28 457.54L421.17 457.54L420.83 457.59L420.7 457.61L420.37 457.65L420.14 457.72L420.03 457.73L419.47 457.89L419.36 457.94L419.25 457.97L419.13 458.02L419.04 458.05L418.81 458.15L418.72 458.2L418.49 458.29L418.4 458.34L418.29 458.41L418.19 458.45L418.09 458.52L417.98 458.57L416.92 459.62L415.87 458.57L406.67 451.39L397.48 459.62L402.88 468.4L403.94 469.46L402.88 470.51L402.78 470.79L402.7 471.06L402.62 471.35L402.53 471.64L402.13 473.08L402.03 473.38L401.95 473.67L401.79 474.28L401.71 474.57L401.55 475.17L401.47 475.46L401.39 475.77L401.29 476.06L401.21 476.36L401.13 476.65L401.05 476.95L400.65 478.39L400.56 478.68L400.48 478.95L400.4 479.24L400.24 479.79L400.16 480.04L400.06 480.32L399.9 480.83L399.8 481.08L399.8 482.14L398.75 483.2L389.55 487.31L391.57 499.68L402.45 499.68L403.5 500.74L403.66 500.99L403.81 501.25L404.13 501.76L404.29 502L404.45 502.26L404.61 502.5L404.77 502.75L405.65 503.95L405.84 504.18L406.02 504.42L406.98 505.54L407.19 505.76L407.38 505.99L407.79 506.4L408 506.63L408.21 506.84L408.44 507.03L408.64 507.24L408.87 507.45L409.09 507.64L409.32 507.85L409.99 508.42L410.23 508.6L410.45 508.79L410.69 508.97L411.75 510.02L411.75 512.57L410.69 523.14L422 527.26L428.13 518.06L429.19 517.01L431.61 517.01L431.75 516.94L431.88 516.88L432.01 516.83L432.14 516.77L432.28 516.72L432.41 516.67L432.55 516.62L432.68 516.57L432.83 516.53L432.96 516.48L433.1 516.43L433.23 516.4L433.37 516.35L433.52 516.32L433.64 516.29L433.79 516.24L434.08 516.17L434.2 516.16L434.49 516.09L434.78 516.06L434.93 516.03L435.36 515.98L435.49 515.98L435.77 515.95L436.21 515.95L436.37 515.93L436.51 515.93L436.65 515.95L437.38 515.95L437.49 515.93L437.62 515.93L437.95 515.89L438.08 515.89L438.19 515.85L438.53 515.81L438.64 515.77L438.75 515.76L439.54 515.53L439.65 515.49L439.76 515.45L439.87 515.41L439.97 515.36L440.19 515.26L440.29 515.21L440.4 515.17L440.5 515.12L440.61 515.07L440.71 515.01L440.82 514.96L440.91 514.89L441.97 513.84L443.03 514.89L452.22 522.08L461.41 513.84L456.24 504.64L455.18 503.59L456.24 502.53L456.32 502.26L456.4 501.97L456.5 501.7L456.82 500.54L456.91 500.25L456.99 499.95L457.07 499.66L457.15 499.36L457.23 499.07L457.31 498.77L457.39 498.48L457.49 498.17L457.57 497.87L457.65 497.58L457.81 496.97L457.89 496.68L457.97 496.38L458.13 495.8L458.21 495.5L458.29 495.21L458.39 494.92L458.47 494.65L458.63 494.07L458.79 493.53L458.88 493.26L458.96 492.98L459.12 492.47L459.22 492.22L459.3 491.96L459.3 490.9L460.36 489.84L469.55 485.73L467.23 473.25L455.92 473.25L454.86 472.2L454.72 471.94L454.4 471.43L454.26 471.17L454.1 470.93L453.92 470.67L453.76 470.43L453.6 470.18L452.72 468.98L452.53 468.75L452.35 468.51L451.39 467.39L451.18 467.17L450.99 466.96L450.78 466.73L450.16 466.11L449.93 465.9L449.72 465.69L449.5 465.49L449.05 465.1L448.83 464.89L448.38 464.51L448.14 464.33L447.91 464.14L447.67 463.96L446.62 462.91L446.62 460.89L447.67 450.33L436.37 446.2L430.25 455.4L429.19 456.45Z" id="e5O3bWDVVK"></path><path d="M449.05 461.74L449.29 461.91L449.53 462.07L450.01 462.43L450.24 462.6L450.48 462.78L450.7 462.95L450.94 463.13L451.39 463.52L451.61 463.69L452.29 464.27L452.49 464.48L452.72 464.67L452.93 464.86L453.97 465.9L454.16 466.11L454.37 466.32L454.56 466.54L454.75 466.75L454.96 466.97L455.34 467.42L455.52 467.65L455.71 467.87L455.89 468.1L456.08 468.32L456.26 468.56L456.43 468.78L456.96 469.51L457.12 469.75L457.3 469.99L469.13 469.87L472.19 486.35L460.89 491.54L460.79 492.12L460.73 492.42L460.66 492.71L460.61 493L460.42 493.86L460.34 494.15L460.28 494.44L460.2 494.73L460.13 495.02L459.97 495.59L459.88 495.88L459.8 496.17L459.72 496.44L459.52 497.02L459.43 497.29L459.33 497.58L459.14 498.12L459.04 498.41L458.82 498.96L458.71 499.25L458.37 500.06L458.24 500.33L458.13 500.61L457.88 501.15L457.75 501.41L457.49 501.95L457.36 502.21L457.22 502.48L457.07 502.74L463.21 514.04L450.84 525.35L439.54 517.1L439.38 517.12L439.23 517.12L439.09 517.14L438.93 517.14L438.8 517.15L438.66 517.17L438.51 517.2L438.38 517.22L437.62 517.41L437.5 517.44L437.38 517.49L437.26 517.52L437.15 517.57L437.02 517.6L436.91 517.63L436.8 517.68L436.67 517.71L436.56 517.76L436.45 517.79L436.32 517.84L436.09 517.9L435.84 517.97L435.73 518L435.47 518.06L435.21 518.1L435.07 518.13L434.94 518.14L434.8 518.14L434.65 518.16L434.36 518.16L434.24 518.22L434.12 518.29L434 518.35L433.88 518.4L433.76 518.46L433.63 518.51L433.52 518.56L433.39 518.62L433.26 518.67L433.13 518.7L432.88 518.8L432.76 518.83L432.63 518.88L432.51 518.91L432.36 518.94L431.72 519.11L431.59 519.12L431.45 519.14L431.32 519.17L431.07 519.2L430.92 519.22L430.79 519.22L430.67 519.23L430.52 519.25L430.26 519.25L430.12 519.27L429.86 519.27L429.72 519.25L429.45 519.25L429.19 519.22L421.89 530.64L406.47 525.46L407.52 513.1L407.28 512.92L407.04 512.76L406.56 512.41L406.34 512.23L406.1 512.06L405.87 511.88L405.63 511.71L405.18 511.32L404.96 511.15L404.29 510.57L404.08 510.36L403.86 510.17L403.65 509.98L402.61 508.94L402.41 508.73L402.21 508.52L402.01 508.29L401.81 508.09L401.23 507.41L401.05 507.19L400.86 506.97L400.68 506.74L400.49 506.52L400.32 506.28L400.14 506.05L399.61 505.33L399.45 505.09L399.27 504.85L386.91 504.85L384.17 488.47L395.48 483.29L395.53 483.01L395.59 482.7L395.66 482.41L395.72 482.11L395.78 481.82L395.85 481.52L396.01 480.94L396.07 480.64L396.31 479.77L396.41 479.48L396.49 479.19L396.97 477.75L397.06 477.48L397.29 476.9L397.38 476.63L397.5 476.34L397.61 476.07L397.74 475.78L397.85 475.51L397.98 475.24L398.09 474.95L398.6 473.86L398.75 473.59L398.87 473.32L399.02 473.06L399.31 472.52L399.45 472.26L399.59 471.99L393.46 460.68L405.83 449.37L417.13 457.62L417.29 457.62L417.45 457.61L417.6 457.61L418.03 457.56L418.16 457.53L418.3 457.51L418.43 457.48L418.56 457.46L418.81 457.4L418.93 457.35L419.18 457.29L419.29 457.25L419.42 457.21L419.53 457.17L419.65 457.13L419.77 457.09L419.89 457.05L420 457.01L420.11 456.97L420.24 456.93L420.35 456.9L420.48 456.85L420.59 456.82L420.72 456.79L420.83 456.76L421.09 456.69L421.22 456.68L421.34 456.64L421.6 456.61L421.74 456.6L421.87 456.58L422.02 456.56L422.32 456.56L422.43 456.5L422.56 456.44L422.67 456.37L422.8 456.32L422.91 456.26L423.3 456.12L423.41 456.07L423.79 455.92L424.05 455.86L424.18 455.81L424.69 455.68L424.84 455.65L424.96 455.64L425.09 455.6L425.35 455.57L425.49 455.56L425.75 455.52L425.89 455.51L426.02 455.49L426.15 455.49L426.29 455.48L427.09 455.48L427.22 455.49L427.37 455.49L427.49 455.51L434.68 444.2L450.11 449.37L449.05 461.74ZM429.19 456.45L427.29 456.45L427.16 456.52L427.01 456.58L426.89 456.63L426.76 456.69L426.61 456.74L426.49 456.79L426.34 456.85L426.21 456.9L426.07 456.93L425.94 456.98L425.8 457.03L425.67 457.08L425.38 457.14L425.25 457.19L424.82 457.29L424.69 457.3L424.4 457.37L424.26 457.38L424.11 457.41L423.83 457.45L423.7 457.46L423.41 457.49L423.27 457.49L423.12 457.51L422.83 457.51L422.69 457.53L422.26 457.53L422.1 457.51L421.63 457.51L421.52 457.53L421.41 457.53L421.28 457.54L421.17 457.54L420.83 457.59L420.7 457.61L420.37 457.65L420.14 457.72L420.03 457.73L419.47 457.89L419.36 457.94L419.25 457.97L419.13 458.02L419.04 458.05L418.81 458.15L418.72 458.2L418.49 458.29L418.4 458.34L418.29 458.41L418.19 458.45L418.09 458.52L417.98 458.57L416.92 459.62L415.87 458.57L406.67 451.39L397.48 459.62L402.88 468.4L403.94 469.46L402.88 470.51L402.78 470.79L402.7 471.06L402.62 471.35L402.53 471.64L402.13 473.08L402.03 473.38L401.95 473.67L401.79 474.28L401.71 474.57L401.55 475.17L401.47 475.46L401.39 475.77L401.29 476.06L401.21 476.36L401.13 476.65L401.05 476.95L400.65 478.39L400.56 478.68L400.48 478.95L400.4 479.24L400.24 479.79L400.16 480.04L400.06 480.32L399.9 480.83L399.8 481.08L399.8 482.14L398.75 483.2L389.55 487.31L391.57 499.68L402.45 499.68L403.5 500.74L403.66 500.99L403.81 501.25L404.13 501.76L404.29 502L404.45 502.26L404.61 502.5L404.77 502.75L405.65 503.95L405.84 504.18L406.02 504.42L406.98 505.54L407.19 505.76L407.38 505.99L407.79 506.4L408 506.63L408.21 506.84L408.44 507.03L408.64 507.24L408.87 507.45L409.09 507.64L409.32 507.85L409.99 508.42L410.23 508.6L410.45 508.79L410.69 508.97L411.75 510.02L411.75 512.57L410.69 523.14L422 527.26L428.13 518.06L429.19 517.01L431.61 517.01L431.75 516.94L431.88 516.88L432.01 516.83L432.14 516.77L432.28 516.72L432.41 516.67L432.55 516.62L432.68 516.57L432.83 516.53L432.96 516.48L433.1 516.43L433.23 516.4L433.37 516.35L433.52 516.32L433.64 516.29L433.79 516.24L434.08 516.17L434.2 516.16L434.49 516.09L434.78 516.06L434.93 516.03L435.36 515.98L435.49 515.98L435.77 515.95L436.21 515.95L436.37 515.93L436.51 515.93L436.65 515.95L437.38 515.95L437.49 515.93L437.62 515.93L437.95 515.89L438.08 515.89L438.19 515.85L438.53 515.81L438.64 515.77L438.75 515.76L439.54 515.53L439.65 515.49L439.76 515.45L439.87 515.41L439.97 515.36L440.19 515.26L440.29 515.21L440.4 515.17L440.5 515.12L440.61 515.07L440.71 515.01L440.82 514.96L440.91 514.89L441.97 513.84L443.03 514.89L452.22 522.08L461.41 513.84L456.24 504.64L455.18 503.59L456.24 502.53L456.32 502.26L456.4 501.97L456.5 501.7L456.82 500.54L456.91 500.25L456.99 499.95L457.07 499.66L457.15 499.36L457.23 499.07L457.31 498.77L457.39 498.48L457.49 498.17L457.57 497.87L457.65 497.58L457.81 496.97L457.89 496.68L457.97 496.38L458.13 495.8L458.21 495.5L458.29 495.21L458.39 494.92L458.47 494.65L458.63 494.07L458.79 493.53L458.88 493.26L458.96 492.98L459.12 492.47L459.22 492.22L459.3 491.96L459.3 490.9L460.36 489.84L469.55 485.73L467.23 473.25L455.92 473.25L454.86 472.2L454.72 471.94L454.4 471.43L454.26 471.17L454.1 470.93L453.92 470.67L453.76 470.43L453.6 470.18L452.72 468.98L452.53 468.75L452.35 468.51L451.39 467.39L451.18 467.17L450.99 466.96L450.78 466.73L450.16 466.11L449.93 465.9L449.72 465.69L449.5 465.49L449.05 465.1L448.83 464.89L448.38 464.51L448.14 464.33L447.91 464.14L447.67 463.96L446.62 462.91L446.62 460.89L447.67 450.33L436.37 446.2L430.25 455.4L429.19 456.45Z" id="e2ExNYGP0G"></path><path d="M431.64 471.03L433.61 471.52L435.52 472.23L437.33 473.14L439.01 474.23L440.58 475.51L441.99 476.97L443.25 478.57L444.33 480.33L445.21 482.22L445.88 484.26L445.9 484.3L445.9 484.35L445.91 484.4L445.93 484.46L445.93 484.51L445.94 484.56L445.96 484.62L445.96 484.67L445.98 484.72L445.98 484.77L445.99 484.83L446.01 484.88L446.01 484.93L446.23 486.98L446.18 489L445.9 490.95L445.4 492.84L444.66 494.65L443.73 496.35L442.61 497.92L441.32 499.36L439.84 500.62L438.22 501.73L436.46 502.64L434.57 503.33L432.57 503.79L430.44 504L428.36 503.97L426.31 503.7L424.32 503.2L422.43 502.5L420.62 501.6L418.93 500.5L417.37 499.21L415.95 497.77L414.7 496.15L413.62 494.39L412.74 492.5L412.07 490.49L412.06 490.42L411.8 488.34L411.8 486.29L412.04 484.29L412.54 482.35L413.24 480.49L414.15 478.75L415.26 477.13L416.56 475.64L418.03 474.31L419.66 473.16L421.44 472.2L423.35 471.44L425.38 470.93L427.49 470.72L429.59 470.75L431.64 471.03ZM427.13 482.27L426.76 482.32L426.39 482.41L426.04 482.53L424.52 483.47L423.49 484.9L423.09 486.59L423.38 488.37L423.38 488.42L423.39 488.44L423.39 488.45L424.45 490.52L426.15 491.96L428.26 492.66L430.55 492.49L430.92 492.47L431.29 492.41L431.66 492.33L432.01 492.2L433.55 491.25L434.56 489.83L434.96 488.15L434.68 486.35L434.64 486.11L434.57 485.89L434.51 485.65L434.43 485.41L433.29 483.6L431.61 482.4L429.61 481.9L427.49 482.24L427.13 482.27Z" id="c6iXMs4JW"></path><path d="M431.64 471.03L433.61 471.52L435.52 472.23L437.33 473.14L439.01 474.23L440.58 475.51L441.99 476.97L443.25 478.57L444.33 480.33L445.21 482.22L445.88 484.26L445.9 484.3L445.9 484.35L445.91 484.4L445.93 484.46L445.93 484.51L445.94 484.56L445.96 484.62L445.96 484.67L445.98 484.72L445.98 484.77L445.99 484.83L446.01 484.88L446.01 484.93L446.23 486.98L446.18 489L445.9 490.95L445.4 492.84L444.66 494.65L443.73 496.35L442.61 497.92L441.32 499.36L439.84 500.62L438.22 501.73L436.46 502.64L434.57 503.33L432.57 503.79L430.44 504L428.36 503.97L426.31 503.7L424.32 503.2L422.43 502.5L420.62 501.6L418.93 500.5L417.37 499.21L415.95 497.77L414.7 496.15L413.62 494.39L412.74 492.5L412.07 490.49L412.06 490.42L411.8 488.34L411.8 486.29L412.04 484.29L412.54 482.35L413.24 480.49L414.15 478.75L415.26 477.13L416.56 475.64L418.03 474.31L419.66 473.16L421.44 472.2L423.35 471.44L425.38 470.93L427.49 470.72L429.59 470.75L431.64 471.03ZM427.13 482.27L426.76 482.32L426.39 482.41L426.04 482.53L424.52 483.47L423.49 484.9L423.09 486.59L423.38 488.37L423.38 488.42L423.39 488.44L423.39 488.45L424.45 490.52L426.15 491.96L428.26 492.66L430.55 492.49L430.92 492.47L431.29 492.41L431.66 492.33L432.01 492.2L433.55 491.25L434.56 489.83L434.96 488.15L434.68 486.35L434.64 486.11L434.57 485.89L434.51 485.65L434.43 485.41L433.29 483.6L431.61 482.4L429.61 481.9L427.49 482.24L427.13 482.27Z" id="a3iAQIg3Pm"></path></defs><g><g><g><use xlink:href="#d6mEykznQ" opacity="1" fill="#f3783a" fill-opacity="1"></use><g><use xlink:href="#d6mEykznQ" opacity="1" fill-opacity="0" stroke="#000000" stroke-width="1" stroke-opacity="0"></use></g></g><g><use xlink:href="#fcCcrOECM" opacity="1" fill="#000000" fill-opacity="0"></use><g><use xlink:href="#fcCcrOECM" opacity="1" fill-opacity="0" stroke="#000000" stroke-width="1" stroke-opacity="0"></use></g></g><g><use xlink:href="#i5xjFWcdWT" opacity="1" fill="#f3783a" fill-opacity="1"></use><g><use xlink:href="#i5xjFWcdWT" opacity="1" fill-opacity="0" stroke="#000000" stroke-width="1" stroke-opacity="0"></use></g></g><g><use xlink:href="#c2Rzd7uHw" opacity="1" fill="#000000" fill-opacity="0"></use><g><use xlink:href="#c2Rzd7uHw" opacity="1" fill-opacity="0" stroke="#000000" stroke-width="1" stroke-opacity="0"></use></g></g><g><use xlink:href="#a4Y2biZO0J" opacity="1" fill="#000000" fill-opacity="0"></use><g><use xlink:href="#a4Y2biZO0J" opacity="1" fill-opacity="0" stroke="#000000" stroke-width="1" stroke-opacity="0"></use></g></g><g><use xlink:href="#b3HyB4MZa" opacity="1" fill="#000000" fill-opacity="0"></use><g><use xlink:href="#b3HyB4MZa" opacity="1" fill-opacity="0" stroke="#ffffff" stroke-width="35" stroke-opacity="1"></use></g></g><g><use xlink:href="#e2THnPMGw" opacity="1" fill="#000000" fill-opacity="0"></use><g><use xlink:href="#e2THnPMGw" opacity="1" fill-opacity="0" stroke="#000000" stroke-width="1" stroke-opacity="0"></use></g></g><g><use xlink:href="#akQoBwVPq" opacity="1" fill="#000000" fill-opacity="0"></use><g><use xlink:href="#akQoBwVPq" opacity="1" fill-opacity="0" stroke="#f3783b" stroke-width="13" stroke-opacity="1"></use></g></g><g><use xlink:href="#e2e60V0R3c" opacity="1" fill="#000000" fill-opacity="0"></use><g><use xlink:href="#e2e60V0R3c" opacity="1" fill-opacity="0" stroke="#000000" stroke-width="1" stroke-opacity="0"></use></g></g><g><use xlink:href="#b36Cgjg41" opacity="1" fill="#000000" fill-opacity="0"></use><g><use xlink:href="#b36Cgjg41" opacity="1" fill-opacity="0" stroke="#f3783b" stroke-width="13" stroke-opacity="1"></use></g></g><g><use xlink:href="#aP9oLsz1p" opacity="1" fill="#000000" fill-opacity="0"></use><g><use xlink:href="#aP9oLsz1p" opacity="1" fill-opacity="0" stroke="#000000" stroke-width="1" stroke-opacity="0"></use></g></g><g><use xlink:href="#gqHmnTRem" opacity="1" fill="#000000" fill-opacity="0"></use><g><use xlink:href="#gqHmnTRem" opacity="1" fill-opacity="0" stroke="#f3783b" stroke-width="13" stroke-opacity="1"></use></g></g><g><use xlink:href="#a15Gc97FF9" opacity="1" fill="#000000" fill-opacity="0"></use><g><use xlink:href="#a15Gc97FF9" opacity="1" fill-opacity="0" stroke="#000000" stroke-width="1" stroke-opacity="0"></use></g></g><g><use xlink:href="#a4N5hNW1A" opacity="1" fill="#000000" fill-opacity="0"></use><g><use xlink:href="#a4N5hNW1A" opacity="1" fill-opacity="0" stroke="#f3783b" stroke-width="13" stroke-opacity="1"></use></g></g><g><use xlink:href="#bNnYhZIxq" opacity="1" fill="#f3783a" fill-opacity="1"></use><g><use xlink:href="#bNnYhZIxq" opacity="1" fill-opacity="0" stroke="#000000" stroke-width="1" stroke-opacity="0"></use></g></g><g><use xlink:href="#asI03E52f" opacity="1" fill="#000000" fill-opacity="0"></use><g><use xlink:href="#asI03E52f" opacity="1" fill-opacity="0" stroke="#000000" stroke-width="4" stroke-opacity="0"></use></g></g><g><use xlink:href="#c464QC2stF" opacity="1" fill="#f3783a" fill-opacity="1"></use><g><use xlink:href="#c464QC2stF" opacity="1" fill-opacity="0" stroke="#000000" stroke-width="1" stroke-opacity="0"></use></g></g><g><use xlink:href="#bielcTX4" opacity="1" fill="#000000" fill-opacity="0"></use><g><use xlink:href="#bielcTX4" opacity="1" fill-opacity="0" stroke="#000000" stroke-width="1" stroke-opacity="0"></use></g></g><g><use xlink:href="#abRnrxhK2k" opacity="1" fill="#ffffff" fill-opacity="1"></use><g><use xlink:href="#abRnrxhK2k" opacity="1" fill-opacity="0" stroke="#000000" stroke-width="1" stroke-opacity="0"></use></g></g><g><use xlink:href="#bizZxhiRR" opacity="1" fill="#000000" fill-opacity="0"></use><g><use xlink:href="#bizZxhiRR" opacity="1" fill-opacity="0" stroke="#ffffff" stroke-width="5" stroke-opacity="1"></use></g></g><g><use xlink:href="#doVOX378J" opacity="1" fill="#ffffff" fill-opacity="1"></use><g><use xlink:href="#doVOX378J" opacity="1" fill-opacity="0" stroke="#000000" stroke-width="1" stroke-opacity="0"></use></g></g><g><use xlink:href="#d2sfdYElUo" opacity="1" fill="#000000" fill-opacity="0"></use><g><use xlink:href="#d2sfdYElUo" opacity="1" fill-opacity="0" stroke="#000000" stroke-width="1" stroke-opacity="0"></use></g></g><g><use xlink:href="#e5O3bWDVVK" opacity="1" fill="#ffffff" fill-opacity="1"></use><g><use xlink:href="#e5O3bWDVVK" opacity="1" fill-opacity="0" stroke="#000000" stroke-width="1" stroke-opacity="0"></use></g></g><g><use xlink:href="#e2ExNYGP0G" opacity="1" fill="#000000" fill-opacity="0"></use><g><use xlink:href="#e2ExNYGP0G" opacity="1" fill-opacity="0" stroke="#ffffff" stroke-width="5" stroke-opacity="1"></use></g></g><g><use xlink:href="#c6iXMs4JW" opacity="1" fill="#ffffff" fill-opacity="1"></use><g><use xlink:href="#c6iXMs4JW" opacity="1" fill-opacity="0" stroke="#000000" stroke-width="1" stroke-opacity="0"></use></g></g><g><use xlink:href="#a3iAQIg3Pm" opacity="1" fill="#000000" fill-opacity="0"></use><g><use xlink:href="#a3iAQIg3Pm" opacity="1" fill-opacity="0" stroke="#000000" stroke-width="1" stroke-opacity="0"></use></g></g></g></g></svg>