<?xml version="1.0" encoding="UTF-8" standalone="no"?>
<!DOCTYPE svg PUBLIC "-//W3C//DTD SVG 1.1//EN" "http://www.w3.org/Graphics/SVG/1.1/DTD/svg11.dtd">
<svg version="1.1" xmlns="http://www.w3.org/2000/svg" xmlns:xlink="http://www.w3.org/1999/xlink" preserveAspectRatio="xMidYMid meet" viewBox="0 0 640 640" width="640" height="640"><defs><path d="M4.23 319.44C4.23 493.24 145.13 634.13 318.93 634.13C492.73 634.13 633.63 493.24 633.63 319.44C633.63 145.63 492.73 4.74 318.93 4.74C145.13 4.74 4.23 145.63 4.23 319.44Z" id="b1LJpLHvgQ"></path><path d="M4.23 319.44C4.23 493.24 145.13 634.13 318.93 634.13C492.73 634.13 633.63 493.24 633.63 319.44C633.63 145.63 492.73 4.74 318.93 4.74C145.13 4.74 4.23 145.63 4.23 319.44Z" id="gd0Iqmo2N"></path><path d="M288.02 550.62C288.02 569.55 303.38 584.91 322.32 584.91C341.26 584.91 356.62 569.55 356.62 550.62C356.62 531.68 341.26 516.32 322.32 516.32C303.38 516.32 288.02 531.68 288.02 550.62Z" id="a295qMDLGi"></path><path d="M288.02 550.62C288.02 569.55 303.38 584.91 322.32 584.91C341.26 584.91 356.62 569.55 356.62 550.62C356.62 531.68 341.26 516.32 322.32 516.32C303.38 516.32 288.02 531.68 288.02 550.62Z" id="du8oZCDfN"></path><path d="M283.47 87.2C283.47 106.15 298.82 121.49 317.77 121.49C336.71 121.49 352.06 106.15 352.06 87.2C352.06 68.26 336.71 52.91 317.77 52.91C298.82 52.91 283.47 68.26 283.47 87.2Z" id="aezbX8zDA"></path><path d="M283.47 87.2C283.47 106.15 298.82 121.49 317.77 121.49C336.71 121.49 352.06 106.15 352.06 87.2C352.06 68.26 336.71 52.91 317.77 52.91C298.82 52.91 283.47 68.26 283.47 87.2Z" id="bZQHfygd4"></path><path d="M288.02 397.24C288.02 416.18 303.38 431.54 322.32 431.54C341.26 431.54 356.62 416.18 356.62 397.24C356.62 378.3 341.26 362.94 322.32 362.94C303.38 362.94 288.02 378.3 288.02 397.24Z" id="bAX5LMBrC"></path><path d="M288.02 397.24C288.02 416.18 303.38 431.54 322.32 431.54C341.26 431.54 356.62 416.18 356.62 397.24C356.62 378.3 341.26 362.94 322.32 362.94C303.38 362.94 288.02 378.3 288.02 397.24Z" id="d3cL7rAD3"></path><path d="M288.02 241.64C288.02 260.58 303.38 275.94 322.32 275.94C341.26 275.94 356.62 260.58 356.62 241.64C356.62 222.7 341.26 207.34 322.32 207.34C303.38 207.34 288.02 222.7 288.02 241.64Z" id="fdDkOLk3y"></path><path d="M288.02 241.64C288.02 260.58 303.38 275.94 322.32 275.94C341.26 275.94 356.62 260.58 356.62 241.64C356.62 222.7 341.26 207.34 322.32 207.34C303.38 207.34 288.02 222.7 288.02 241.64Z" id="dfJSx2fQC"></path><path d="M451.67 241.64C451.67 277.65 480.86 306.84 516.87 306.84C552.89 306.84 582.08 277.65 582.08 241.64C582.08 205.63 552.89 176.43 516.87 176.43C480.86 176.43 451.67 205.63 451.67 241.64Z" id="d5qM8qHmtL"></path><path d="M451.67 241.64C451.67 277.65 480.86 306.84 516.87 306.84C552.89 306.84 582.08 277.65 582.08 241.64C582.08 205.63 552.89 176.43 516.87 176.43C480.86 176.43 451.67 205.63 451.67 241.64Z" id="a2Ggoy5cdw"></path><path d="M56.95 397.24C56.95 433.25 86.14 462.44 122.16 462.44C158.17 462.44 187.36 433.25 187.36 397.24C187.36 361.23 158.17 332.03 122.16 332.03C86.14 332.03 56.95 361.23 56.95 397.24Z" id="b4Cs32RPmL"></path><path d="M56.95 397.24C56.95 433.25 86.14 462.44 122.16 462.44C158.17 462.44 187.36 433.25 187.36 397.24C187.36 361.23 158.17 332.03 122.16 332.03C86.14 332.03 56.95 361.23 56.95 397.24Z" id="bEDGyv0WF"></path><path d="M336.07 103.18L476.86 207.34" id="aT66IQChp"></path><path d="M336.07 103.18L476.86 207.34" id="b6dMidNiY2"></path><path d="M157.61 374.38L308.66 246.29" id="l2iJ6Bex2l"></path><path d="M157.61 374.38L308.66 246.29" id="b11rgSPnyr"></path><path d="M161 377.87L157.61 374.38" id="afJsZXi3"></path><path d="M161 377.87L157.61 374.38" id="aaSKJwaWu"></path><path d="M152.74 422.44L314.06 550.62" id="bhz3VfST"></path><path d="M152.74 422.44L314.06 550.62" id="i17aBu2HF"></path><path d="M331.53 386.97L500.89 259.95" id="auCnyzMqV"></path><path d="M331.53 386.97L500.89 259.95" id="c2ltmBVCjh"></path></defs><g><g><g><use xlink:href="#b1LJpLHvgQ" opacity="1" fill="#f3783a" fill-opacity="1"></use><g><use xlink:href="#b1LJpLHvgQ" opacity="1" fill-opacity="0" stroke="#000000" stroke-width="1" stroke-opacity="0"></use></g></g><g><use xlink:href="#gd0Iqmo2N" opacity="1" fill="#000000" fill-opacity="0"></use><g><use xlink:href="#gd0Iqmo2N" opacity="1" fill-opacity="0" stroke="#000000" stroke-width="13" stroke-opacity="0"></use></g></g><g><use xlink:href="#a295qMDLGi" opacity="1" fill="#ffffff" fill-opacity="1"></use><g><use xlink:href="#a295qMDLGi" opacity="1" fill-opacity="0" stroke="#000000" stroke-width="1" stroke-opacity="0"></use></g></g><g><use xlink:href="#du8oZCDfN" opacity="1" fill="#000000" fill-opacity="0"></use><g><use xlink:href="#du8oZCDfN" opacity="1" fill-opacity="0" stroke="#000000" stroke-width="1" stroke-opacity="0"></use></g></g><g><use xlink:href="#aezbX8zDA" opacity="1" fill="#ffffff" fill-opacity="1"></use><g><use xlink:href="#aezbX8zDA" opacity="1" fill-opacity="0" stroke="#000000" stroke-width="1" stroke-opacity="0"></use></g></g><g><use xlink:href="#bZQHfygd4" opacity="1" fill="#000000" fill-opacity="0"></use><g><use xlink:href="#bZQHfygd4" opacity="1" fill-opacity="0" stroke="#000000" stroke-width="1" stroke-opacity="0"></use></g></g><g><use xlink:href="#bAX5LMBrC" opacity="1" fill="#ffffff" fill-opacity="1"></use><g><use xlink:href="#bAX5LMBrC" opacity="1" fill-opacity="0" stroke="#000000" stroke-width="1" stroke-opacity="0"></use></g></g><g><use xlink:href="#d3cL7rAD3" opacity="1" fill="#000000" fill-opacity="0"></use><g><use xlink:href="#d3cL7rAD3" opacity="1" fill-opacity="0" stroke="#000000" stroke-width="1" stroke-opacity="0"></use></g></g><g><use xlink:href="#fdDkOLk3y" opacity="1" fill="#ffffff" fill-opacity="1"></use><g><use xlink:href="#fdDkOLk3y" opacity="1" fill-opacity="0" stroke="#000000" stroke-width="1" stroke-opacity="0"></use></g></g><g><use xlink:href="#dfJSx2fQC" opacity="1" fill="#000000" fill-opacity="0"></use><g><use xlink:href="#dfJSx2fQC" opacity="1" fill-opacity="0" stroke="#000000" stroke-width="1" stroke-opacity="0"></use></g></g><g><use xlink:href="#d5qM8qHmtL" opacity="1" fill="#ffffff" fill-opacity="1"></use><g><use xlink:href="#d5qM8qHmtL" opacity="1" fill-opacity="0" stroke="#000000" stroke-width="1" stroke-opacity="0"></use></g></g><g><use xlink:href="#a2Ggoy5cdw" opacity="1" fill="#000000" fill-opacity="0"></use><g><use xlink:href="#a2Ggoy5cdw" opacity="1" fill-opacity="0" stroke="#000000" stroke-width="1" stroke-opacity="0"></use></g></g><g><use xlink:href="#b4Cs32RPmL" opacity="1" fill="#ffffff" fill-opacity="1"></use><g><use xlink:href="#b4Cs32RPmL" opacity="1" fill-opacity="0" stroke="#000000" stroke-width="1" stroke-opacity="0"></use></g></g><g><use xlink:href="#bEDGyv0WF" opacity="1" fill="#000000" fill-opacity="0"></use><g><use xlink:href="#bEDGyv0WF" opacity="1" fill-opacity="0" stroke="#000000" stroke-width="1" stroke-opacity="0"></use></g></g><g><use xlink:href="#aT66IQChp" opacity="1" fill="#000000" fill-opacity="0"></use><g><use xlink:href="#aT66IQChp" opacity="1" fill-opacity="0" stroke="#000000" stroke-width="1" stroke-opacity="0"></use></g></g><g><use xlink:href="#b6dMidNiY2" opacity="1" fill="#000000" fill-opacity="0"></use><g><use xlink:href="#b6dMidNiY2" opacity="1" fill-opacity="0" stroke="#ffffff" stroke-width="13" stroke-opacity="1"></use></g></g><g><use xlink:href="#l2iJ6Bex2l" opacity="1" fill="#000000" fill-opacity="0"></use><g><use xlink:href="#l2iJ6Bex2l" opacity="1" fill-opacity="0" stroke="#000000" stroke-width="1" stroke-opacity="0"></use></g></g><g><use xlink:href="#b11rgSPnyr" opacity="1" fill="#000000" fill-opacity="0"></use><g><use xlink:href="#b11rgSPnyr" opacity="1" fill-opacity="0" stroke="#ffffff" stroke-width="13" stroke-opacity="1"></use></g></g><g><use xlink:href="#afJsZXi3" opacity="1" fill="#000000" fill-opacity="0"></use><g><use xlink:href="#afJsZXi3" opacity="1" fill-opacity="0" stroke="#000000" stroke-width="1" stroke-opacity="0"></use></g></g><g><use xlink:href="#aaSKJwaWu" opacity="1" fill="#000000" fill-opacity="0"></use><g><use xlink:href="#aaSKJwaWu" opacity="1" fill-opacity="0" stroke="#000000" stroke-width="1" stroke-opacity="0"></use></g></g><g><use xlink:href="#bhz3VfST" opacity="1" fill="#000000" fill-opacity="0"></use><g><use xlink:href="#bhz3VfST" opacity="1" fill-opacity="0" stroke="#000000" stroke-width="1" stroke-opacity="0"></use></g></g><g><use xlink:href="#i17aBu2HF" opacity="1" fill="#000000" fill-opacity="0"></use><g><use xlink:href="#i17aBu2HF" opacity="1" fill-opacity="0" stroke="#ffffff" stroke-width="13" stroke-opacity="1"></use></g></g><g><use xlink:href="#auCnyzMqV" opacity="1" fill="#000000" fill-opacity="0"></use><g><use xlink:href="#auCnyzMqV" opacity="1" fill-opacity="0" stroke="#000000" stroke-width="1" stroke-opacity="0"></use></g></g><g><use xlink:href="#c2ltmBVCjh" opacity="1" fill="#000000" fill-opacity="0"></use><g><use xlink:href="#c2ltmBVCjh" opacity="1" fill-opacity="0" stroke="#ffffff" stroke-width="13" stroke-opacity="1"></use></g></g></g></g></svg>