<?xml version="1.0" encoding="UTF-8" standalone="no"?>
<!DOCTYPE svg PUBLIC "-//W3C//DTD SVG 1.1//EN" "http://www.w3.org/Graphics/SVG/1.1/DTD/svg11.dtd">
<svg version="1.1" xmlns="http://www.w3.org/2000/svg" xmlns:xlink="http://www.w3.org/1999/xlink" preserveAspectRatio="xMidYMid meet" viewBox="0 0 640 640" width="640" height="640"><defs><path d="M4.13 320.82C4.13 494.7 145.08 635.66 318.95 635.66C492.82 635.66 633.77 494.7 633.77 320.82C633.77 146.95 492.82 6 318.95 6C145.08 6 4.13 146.95 4.13 320.82Z" id="a1u98Qgz3"></path><path d="M4.13 320.82C4.13 494.7 145.08 635.66 318.95 635.66C492.82 635.66 633.77 494.7 633.77 320.82C633.77 146.95 492.82 6 318.95 6C145.08 6 4.13 146.95 4.13 320.82Z" id="d9zKkapVX"></path><path d="M418.47 154.45C458.28 194.26 480.4 216.38 484.82 220.8C484.82 220.8 484.82 220.8 484.82 220.8C464.89 240.73 453.81 251.8 451.61 254.01C451.61 254.01 451.61 254.01 451.61 254.01C411.8 214.21 389.68 192.09 385.26 187.67C385.26 187.67 385.26 187.67 385.26 187.67C405.19 167.74 416.26 156.66 418.47 154.45C418.47 154.45 418.47 154.45 418.47 154.45Z" id="e1EKYyxqD"></path><path d="M418.47 154.45C458.28 194.26 480.4 216.38 484.82 220.8C484.82 220.8 484.82 220.8 484.82 220.8C464.89 240.73 453.81 251.8 451.61 254.01C451.61 254.01 451.61 254.01 451.61 254.01C411.8 214.21 389.68 192.09 385.26 187.67C385.26 187.67 385.26 187.67 385.26 187.67C405.19 167.74 416.26 156.66 418.47 154.45C418.47 154.45 418.47 154.45 418.47 154.45Z" id="a4dplqDPmJ"></path><path d="M263.14 443.29L196.8 376.96L363.42 209.82L429.75 276.68L263.14 443.29ZM262.81 427.37L412.88 276.25L362.48 225.85L211.37 376.96L262.81 427.37Z" id="b1W2zssTMV"></path><path d="M263.14 443.29L196.8 376.96L363.42 209.82L429.75 276.68L263.14 443.29ZM262.81 427.37L412.88 276.25L362.48 225.85L211.37 376.96L262.81 427.37Z" id="b9a9KJUq6"></path><path d="M174.71 431.94L151.8 487.97L151.8 487.97L207.93 465.06L174.71 431.94Z" id="fvhP7tYjs"></path><path d="M174.71 431.94L151.8 487.97L151.8 487.97L207.93 465.06L174.71 431.94Z" id="a59nKx7GBP"></path></defs><g><g><g><use xlink:href="#a1u98Qgz3" opacity="1" fill="#f3783a" fill-opacity="1"></use><g><use xlink:href="#a1u98Qgz3" opacity="1" fill-opacity="0" stroke="#000000" stroke-width="1" stroke-opacity="0"></use></g></g><g><use xlink:href="#d9zKkapVX" opacity="1" fill="#000000" fill-opacity="0"></use><g><use xlink:href="#d9zKkapVX" opacity="1" fill-opacity="0" stroke="#000000" stroke-width="1" stroke-opacity="0"></use></g></g><g><use xlink:href="#e1EKYyxqD" opacity="1" fill="#ffffff" fill-opacity="1"></use><g><use xlink:href="#e1EKYyxqD" opacity="1" fill-opacity="0" stroke="#000000" stroke-width="1" stroke-opacity="0"></use></g></g><g><use xlink:href="#a4dplqDPmJ" opacity="1" fill="#000000" fill-opacity="0"></use><g><use xlink:href="#a4dplqDPmJ" opacity="1" fill-opacity="0" stroke="#000000" stroke-width="1" stroke-opacity="0"></use></g></g><g><use xlink:href="#b1W2zssTMV" opacity="1" fill="#ffffff" fill-opacity="1"></use><g><use xlink:href="#b1W2zssTMV" opacity="1" fill-opacity="0" stroke="#000000" stroke-width="1" stroke-opacity="0"></use></g></g><g><use xlink:href="#b9a9KJUq6" opacity="1" fill="#000000" fill-opacity="0"></use><g><use xlink:href="#b9a9KJUq6" opacity="1" fill-opacity="0" stroke="#000000" stroke-width="1" stroke-opacity="0"></use></g></g><g><use xlink:href="#fvhP7tYjs" opacity="1" fill="#ffffff" fill-opacity="1"></use><g><use xlink:href="#fvhP7tYjs" opacity="1" fill-opacity="0" stroke="#000000" stroke-width="1" stroke-opacity="0"></use></g></g><g><use xlink:href="#a59nKx7GBP" opacity="1" fill="#000000" fill-opacity="0"></use><g><use xlink:href="#a59nKx7GBP" opacity="1" fill-opacity="0" stroke="#000000" stroke-width="1" stroke-opacity="0"></use></g></g></g></g></svg>