<?xml version="1.0" encoding="UTF-8" standalone="no"?>
<!DOCTYPE svg PUBLIC "-//W3C//DTD SVG 1.1//EN" "http://www.w3.org/Graphics/SVG/1.1/DTD/svg11.dtd">
<svg version="1.1" xmlns="http://www.w3.org/2000/svg" xmlns:xlink="http://www.w3.org/1999/xlink" preserveAspectRatio="xMidYMid meet" viewBox="0 0 640 640" width="640" height="640"><defs><path d="M411.64 157.47C411.64 166.41 411.64 171.37 411.64 172.36C411.64 172.36 411.64 172.36 411.64 172.36C311.49 172.36 255.85 172.36 244.73 172.36C244.73 172.36 244.73 172.36 244.73 172.36C244.73 163.42 244.73 158.47 244.73 157.47C244.73 157.47 244.73 157.47 244.73 157.47C344.87 157.47 400.51 157.47 411.64 157.47C411.64 157.47 411.64 157.47 411.64 157.47Z" id="b51jE737nA"></path><path d="M411.64 157.47C411.64 166.41 411.64 171.37 411.64 172.36C411.64 172.36 411.64 172.36 411.64 172.36C311.49 172.36 255.85 172.36 244.73 172.36C244.73 172.36 244.73 172.36 244.73 172.36C244.73 163.42 244.73 158.47 244.73 157.47C244.73 157.47 244.73 157.47 244.73 157.47C344.87 157.47 400.51 157.47 411.64 157.47C411.64 157.47 411.64 157.47 411.64 157.47Z" id="encou9cxk"></path><path d="M320.68 633.07C147.43 633.07 6.97 492.68 6.97 319.47C6.97 146.27 147.43 5.88 320.68 5.88C493.94 5.88 634.38 146.27 634.38 319.47C634.38 492.68 493.94 633.07 320.68 633.07Z" id="a3N6PGMfdo"></path><path d="M320.68 633.07C147.43 633.07 6.97 492.68 6.97 319.47C6.97 146.27 147.43 5.88 320.68 5.88C493.94 5.88 634.38 146.27 634.38 319.47C634.38 492.68 493.94 633.07 320.68 633.07Z" id="chsD8AuMx"></path><path d="M192.95 307.28L192.95 325.2L178.47 339.58L131.57 292.7L146.07 278.22L163.98 278.22L163.98 260.39L237.96 186.53L331.72 186.53L211.08 307.28L192.95 307.28ZM172.52 263.95L172.52 286.86L149.61 286.86L143.67 292.7L178.47 327.49L184.41 321.55L184.41 298.64L207.32 298.64L311.51 194.45L241.4 194.45L172.52 263.95Z" id="axZQtDR7z"></path><path d="M192.95 307.28L192.95 325.2L178.47 339.58L131.57 292.7L146.07 278.22L163.98 278.22L163.98 260.39L237.96 186.53L331.72 186.53L211.08 307.28L192.95 307.28ZM172.52 263.95L172.52 286.86L149.61 286.86L143.67 292.7L178.47 327.49L184.41 321.55L184.41 298.64L207.32 298.64L311.51 194.45L241.4 194.45L172.52 263.95Z" id="d21V9PPEGa"></path><path d="M442.51 198.32L445.51 198.67L448.51 199.14L464.66 202.06L424.55 242.17L423.73 243.02L422.96 243.89L422.22 244.79L421.52 245.72L420.88 246.66L420.28 247.62L419.71 248.61L419.19 249.61L418.7 250.62L418.25 251.65L417.86 252.69L417.5 253.75L417.18 254.8L416.91 255.88L416.69 256.95L416.5 258.04L416.34 259.13L416.25 260.24L416.19 261.33L416.15 262.43L416.19 263.54L416.25 264.63L416.34 265.73L416.5 266.82L416.69 267.91L416.91 268.98L417.18 270.06L417.5 271.12L417.86 272.17L418.25 273.22L418.7 274.24L419.19 275.25L419.71 276.26L420.28 277.24L420.88 278.21L421.52 279.14L422.22 280.07L422.96 280.97L423.73 281.84L424.55 282.69L425.41 283.51L426.28 284.29L427.18 285.03L428.11 285.72L429.05 286.37L430.02 286.97L431 287.54L431.99 288.08L433 288.55L434.03 288.99L435.07 289.39L436.13 289.75L437.19 290.06L438.26 290.33L439.35 290.57L440.42 290.76L441.53 290.9L442.62 291.01L443.71 291.08L444.81 291.09L445.92 291.08L447.01 291.01L448.11 290.9L449.2 290.76L450.29 290.57L451.37 290.33L452.44 290.06L453.5 289.75L454.56 289.39L455.6 288.99L456.63 288.55L457.64 288.08L458.65 287.54L459.63 286.97L460.59 286.37L461.52 285.72L462.45 285.03L463.35 284.29L464.22 283.51L465.07 282.69L505.2 242.58L508.1 258.74L508.26 259.65L508.42 260.58L508.55 261.52L508.67 262.43L508.78 263.36L508.88 264.29L509.03 266.16L509.1 267.09L509.15 268.01L509.19 268.94L509.22 269.87L509.24 270.8L509.24 271.73L509.21 273.6L509.18 274.53L509.08 276.39L509.02 277.31L508.94 278.24L508.85 279.17L508.75 280.09L508.64 281.02L508.51 281.93L508.37 282.86L508.23 283.78L508.06 284.7L507.9 285.61L507.71 286.53L507.52 287.43L507.31 288.34L507.09 289.24L506.86 290.16L506.62 291.06L506.37 291.96L506.1 292.86L505.83 293.74L505.54 294.64L505.24 295.53L504.2 298.39L503.05 301.17L501.8 303.88L500.44 306.53L498.99 309.11L497.46 311.6L495.83 314.02L494.11 316.36L492.31 318.63L490.43 320.81L488.48 322.91L486.45 324.91L484.35 326.84L482.17 328.69L479.93 330.44L477.64 332.12L475.27 333.69L472.86 335.16L470.39 336.55L467.88 337.85L465.31 339.05L462.7 340.14L460.05 341.13L457.35 342.03L454.62 342.82L451.87 343.52L449.08 344.1L446.27 344.57L443.42 344.94L440.57 345.19L437.69 345.33L434.8 345.36L431.9 345.28L428.99 345.08L426.07 344.76L423.16 344.32L420.24 343.77L417.34 343.09L414.43 342.28L411.53 341.35L411.21 341.35L375.9 376.77L437.99 438.88L399.54 477.31L337.45 415.22L286.29 466.38L285.36 467.28L284.38 468.15L283.39 468.96L282.36 469.73L281.32 470.46L280.24 471.14L279.15 471.77L278.05 472.34L276.93 472.87L275.79 473.38L274.64 473.82L273.47 474.22L272.28 474.56L271.1 474.86L269.9 475.13L268.7 475.34L267.48 475.49L266.27 475.62L265.05 475.68L263.84 475.72L262.61 475.68L261.39 475.62L260.17 475.51L258.96 475.35L257.76 475.13L256.56 474.88L255.37 474.58L254.19 474.23L253.02 473.84L251.87 473.39L250.73 472.91L249.59 472.38L248.49 471.8L247.4 471.17L246.33 470.49L245.28 469.78L244.26 469L243.26 468.2L242.28 467.33L241.34 466.43L240.44 465.48L239.57 464.5L238.76 463.51L237.99 462.5L237.26 461.44L236.58 460.38L235.95 459.29L235.37 458.19L234.83 457.07L234.34 455.91L233.9 454.76L233.5 453.59L233.16 452.42L232.86 451.22L232.59 450.02L232.38 448.82L232.22 447.61L232.1 446.39L232.03 445.18L232 443.96L232.02 442.74L232.1 441.53L232.21 440.31L232.37 439.1L232.59 437.88L232.84 436.7L233.14 435.5L233.49 434.31L233.88 433.14L234.32 431.99L234.8 430.85L235.33 429.73L235.92 428.63L236.55 427.54L237.21 426.46L237.94 425.42L238.71 424.4L239.52 423.39L240.39 422.42L241.29 421.47L292.45 370.31L228.48 306.35L266.92 267.89L330.88 331.88L365.89 296.13L365.7 295.56L365.5 294.98L365.31 294.39L365.13 293.81L364.94 293.22L364.77 292.62L364.61 292.04L364.44 291.45L364.28 290.85L364.12 290.27L363.7 288.47L363.56 287.89L363.3 286.69L363.19 286.09L363.07 285.49L362.97 284.87L362.86 284.27L362.67 283.07L362.58 282.45L362.5 281.85L362.42 281.24L362.34 280.64L362.28 280.02L362.2 279.42L362.15 278.81L362.09 278.19L362.04 277.59L361.99 276.97L361.96 276.36L361.93 275.76L361.9 275.14L361.88 274.53L361.85 273.91L361.85 273.3L361.83 272.68L361.83 270.74L361.85 270.41L361.85 270.07L361.87 269.74L361.87 269.41L361.98 267.09L362.01 266.76L362.02 266.43L362.06 266.09L362.07 265.76L362.26 263.77L362.31 263.44L362.34 263.11L362.39 262.79L362.42 262.46L362.66 260.8L362.7 260.49L362.8 259.83L362.86 259.49L362.91 259.16L362.97 258.85L363.57 255.86L364.27 252.93L365.09 250.05L366.02 247.22L367.04 244.46L368.18 241.76L369.43 239.12L370.76 236.55L372.19 234.04L373.71 231.59L375.32 229.21L377.01 226.92L378.79 224.68L380.66 222.53L382.6 220.44L384.62 218.44L386.7 216.53L388.87 214.7L391.09 212.94L393.38 211.27L395.74 209.71L398.14 208.21L400.62 206.82L403.13 205.52L405.7 204.32L408.32 203.22L410.99 202.21L413.69 201.31L416.45 200.52L419.23 199.82L422.04 199.24L424.9 198.76L427.78 198.4L430.68 198.15L433.62 198.01L436.57 197.99L439.54 198.1L442.51 198.32ZM434.27 206.52L433.44 206.55L431.8 206.64L430.98 206.71L430.18 206.77L429.35 206.85L428.53 206.94L427.73 207.04L426.91 207.15L425.3 207.4L424.48 207.54L422.86 207.86L422.06 208.03L421.27 208.21L420.46 208.41L419.68 208.6L418.87 208.82L418.08 209.04L416.5 209.52L415.71 209.77L414.94 210.04L412.41 210.95L409.95 211.98L407.55 213.09L405.21 214.29L402.94 215.56L400.73 216.92L398.58 218.36L396.51 219.88L394.52 221.47L392.59 223.13L390.73 224.87L388.95 226.65L387.24 228.51L385.61 230.44L384.07 232.41L382.6 234.45L381.19 236.53L379.88 238.67L378.67 240.86L377.53 243.09L376.47 245.36L375.49 247.67L374.62 250L373.82 252.39L373.12 254.8L372.52 257.24L372 259.7L371.59 262.19L371.26 264.71L371.04 267.23L370.91 269.77L370.88 272.33L370.96 274.89L371.13 277.46L371.42 280.04L371.81 282.63L372.3 285.2L372.9 287.78L373.61 290.35L374.43 292.91L376.31 298.43L247.23 427.51L246.56 428.2L245.93 428.91L245.33 429.65L244.78 430.4L244.24 431.17L243.75 431.94L243.29 432.75L242.87 433.55L242.47 434.38L242.11 435.21L241.79 436.07L241.49 436.92L241.24 437.79L241.02 438.66L240.83 439.52L240.69 440.41L240.56 441.29L240.48 442.19L240.42 443.08L240.4 443.98L240.42 444.88L240.48 445.76L240.56 446.65L240.69 447.55L240.83 448.43L241.02 449.3L241.24 450.17L241.49 451.04L241.79 451.89L242.11 452.74L242.47 453.58L242.87 454.4L243.29 455.2L243.75 456.01L244.24 456.78L244.78 457.56L245.33 458.3L245.93 459.03L246.56 459.75L247.23 460.43L247.92 461.11L248.63 461.73L249.36 462.33L250.11 462.89L250.87 463.41L251.66 463.92L252.45 464.38L253.27 464.8L254.09 465.2L254.93 465.55L255.77 465.88L256.64 466.16L257.49 466.42L258.36 466.64L259.24 466.83L260.13 466.98L261.01 467.11L261.91 467.19L262.79 467.24L263.69 467.25L264.58 467.24L265.48 467.19L266.36 467.11L267.25 466.98L268.13 466.83L269.02 466.64L269.88 466.42L270.75 466.16L271.61 465.88L272.44 465.55L273.28 465.2L274.1 464.8L274.92 464.38L275.71 463.92L276.5 463.41L277.26 462.89L278.02 462.33L278.74 461.73L279.45 461.11L280.15 460.43L405.07 335.53L409.03 330.93L414.65 333.65L415.44 333.92L416.25 334.18L417.05 334.44L417.86 334.67L419.47 335.12L420.29 335.34L421.1 335.53L421.92 335.72L422.72 335.89L423.54 336.06L424.37 336.22L425.2 336.36L426.02 336.51L426.84 336.62L427.67 336.74L429.34 336.93L430.16 337.01L431 337.09L431.83 337.14L432.66 337.2L434.33 337.26L435.17 337.28L436.84 337.28L438.51 337.25L439.35 337.2L440.17 337.15L441.01 337.11L443.52 336.87L444.36 336.76L445.18 336.65L446.85 336.39L447.67 336.25L450.29 335.72L452.88 335.08L455.41 334.36L457.9 333.54L460.34 332.62L462.7 331.61L465.04 330.52L467.3 329.34L469.51 328.07L471.66 326.72L473.76 325.29L475.78 323.79L477.74 322.21L479.63 320.57L481.46 318.87L483.23 317.08L484.91 315.24L486.52 313.32L488.06 311.37L489.52 309.33L490.91 307.26L492.22 305.13L493.43 302.95L494.57 300.72L495.63 298.45L496.59 296.14L497.48 293.79L498.27 291.41L498.96 288.98L499.56 286.53L500.07 284.03L500.48 281.52L500.79 278.98L501.01 276.42L501.12 273.85L501.12 271.24L501.03 268.62L500.82 266L500.51 263.36L500.08 260.71L471.55 289.26L470.43 290.32L469.27 291.31L468.09 292.24L466.89 293.14L465.66 293.97L464.39 294.75L463.12 295.47L461.82 296.14L460.49 296.74L459.15 297.31L457.79 297.82L456.42 298.26L455.05 298.65L453.64 299L452.24 299.29L450.83 299.52L449.41 299.7L447.99 299.81L446.55 299.89L445.13 299.9L443.69 299.86L442.27 299.76L440.85 299.6L439.43 299.4L438.02 299.14L436.63 298.83L435.24 298.47L433.86 298.04L432.5 297.57L431.16 297.03L429.83 296.44L428.52 295.81L427.22 295.12L425.96 294.36L424.71 293.57L423.5 292.7L422.31 291.8L421.14 290.84L420.02 289.81L418.93 288.74L417.88 287.62L416.88 286.48L415.93 285.3L415.05 284.1L414.21 282.85L413.44 281.6L412.71 280.32L412.05 279.01L411.43 277.68L410.88 276.36L410.37 275L409.92 273.63L409.52 272.24L409.19 270.85L408.91 269.44L408.67 268.02L408.5 266.6L408.37 265.18L408.31 263.76L408.29 262.32L408.34 260.9L408.43 259.48L408.57 258.06L408.78 256.64L409.05 255.23L409.35 253.83L409.73 252.44L410.14 251.06L410.63 249.7L411.15 248.35L411.73 247.02L412.38 245.71L413.07 244.43L413.82 243.15L414.62 241.92L415.47 240.7L416.39 239.5L417.35 238.35L418.38 237.21L419.45 236.12L447.37 207.48L446.55 207.34L445.75 207.21L444.1 206.99L442.46 206.8L441.64 206.74L440.83 206.67L440.01 206.61L439.19 206.56L438.37 206.53L436.73 206.5L435.09 206.5L434.27 206.52ZM343.5 409.28L399.54 465.34L425.91 438.97L369.86 383.02L347.04 405.75L343.5 409.28ZM298.48 364.28L324.74 337.91L266.82 279.99L240.45 306.35L298.48 364.28Z" id="bqT7fIKwL"></path><path d="M442.51 198.32L445.51 198.67L448.51 199.14L464.66 202.06L424.55 242.17L423.73 243.02L422.96 243.89L422.22 244.79L421.52 245.72L420.88 246.66L420.28 247.62L419.71 248.61L419.19 249.61L418.7 250.62L418.25 251.65L417.86 252.69L417.5 253.75L417.18 254.8L416.91 255.88L416.69 256.95L416.5 258.04L416.34 259.13L416.25 260.24L416.19 261.33L416.15 262.43L416.19 263.54L416.25 264.63L416.34 265.73L416.5 266.82L416.69 267.91L416.91 268.98L417.18 270.06L417.5 271.12L417.86 272.17L418.25 273.22L418.7 274.24L419.19 275.25L419.71 276.26L420.28 277.24L420.88 278.21L421.52 279.14L422.22 280.07L422.96 280.97L423.73 281.84L424.55 282.69L425.41 283.51L426.28 284.29L427.18 285.03L428.11 285.72L429.05 286.37L430.02 286.97L431 287.54L431.99 288.08L433 288.55L434.03 288.99L435.07 289.39L436.13 289.75L437.19 290.06L438.26 290.33L439.35 290.57L440.42 290.76L441.53 290.9L442.62 291.01L443.71 291.08L444.81 291.09L445.92 291.08L447.01 291.01L448.11 290.9L449.2 290.76L450.29 290.57L451.37 290.33L452.44 290.06L453.5 289.75L454.56 289.39L455.6 288.99L456.63 288.55L457.64 288.08L458.65 287.54L459.63 286.97L460.59 286.37L461.52 285.72L462.45 285.03L463.35 284.29L464.22 283.51L465.07 282.69L505.2 242.58L508.1 258.74L508.26 259.65L508.42 260.58L508.55 261.52L508.67 262.43L508.78 263.36L508.88 264.29L509.03 266.16L509.1 267.09L509.15 268.01L509.19 268.94L509.22 269.87L509.24 270.8L509.24 271.73L509.21 273.6L509.18 274.53L509.08 276.39L509.02 277.31L508.94 278.24L508.85 279.17L508.75 280.09L508.64 281.02L508.51 281.93L508.37 282.86L508.23 283.78L508.06 284.7L507.9 285.61L507.71 286.53L507.52 287.43L507.31 288.34L507.09 289.24L506.86 290.16L506.62 291.06L506.37 291.96L506.1 292.86L505.83 293.74L505.54 294.64L505.24 295.53L504.2 298.39L503.05 301.17L501.8 303.88L500.44 306.53L498.99 309.11L497.46 311.6L495.83 314.02L494.11 316.36L492.31 318.63L490.43 320.81L488.48 322.91L486.45 324.91L484.35 326.84L482.17 328.69L479.93 330.44L477.64 332.12L475.27 333.69L472.86 335.16L470.39 336.55L467.88 337.85L465.31 339.05L462.7 340.14L460.05 341.13L457.35 342.03L454.62 342.82L451.87 343.52L449.08 344.1L446.27 344.57L443.42 344.94L440.57 345.19L437.69 345.33L434.8 345.36L431.9 345.28L428.99 345.08L426.07 344.76L423.16 344.32L420.24 343.77L417.34 343.09L414.43 342.28L411.53 341.35L411.21 341.35L375.9 376.77L437.99 438.88L399.54 477.31L337.45 415.22L286.29 466.38L285.36 467.28L284.38 468.15L283.39 468.96L282.36 469.73L281.32 470.46L280.24 471.14L279.15 471.77L278.05 472.34L276.93 472.87L275.79 473.38L274.64 473.82L273.47 474.22L272.28 474.56L271.1 474.86L269.9 475.13L268.7 475.34L267.48 475.49L266.27 475.62L265.05 475.68L263.84 475.72L262.61 475.68L261.39 475.62L260.17 475.51L258.96 475.35L257.76 475.13L256.56 474.88L255.37 474.58L254.19 474.23L253.02 473.84L251.87 473.39L250.73 472.91L249.59 472.38L248.49 471.8L247.4 471.17L246.33 470.49L245.28 469.78L244.26 469L243.26 468.2L242.28 467.33L241.34 466.43L240.44 465.48L239.57 464.5L238.76 463.51L237.99 462.5L237.26 461.44L236.58 460.38L235.95 459.29L235.37 458.19L234.83 457.07L234.34 455.91L233.9 454.76L233.5 453.59L233.16 452.42L232.86 451.22L232.59 450.02L232.38 448.82L232.22 447.61L232.1 446.39L232.03 445.18L232 443.96L232.02 442.74L232.1 441.53L232.21 440.31L232.37 439.1L232.59 437.88L232.84 436.7L233.14 435.5L233.49 434.31L233.88 433.14L234.32 431.99L234.8 430.85L235.33 429.73L235.92 428.63L236.55 427.54L237.21 426.46L237.94 425.42L238.71 424.4L239.52 423.39L240.39 422.42L241.29 421.47L292.45 370.31L228.48 306.35L266.92 267.89L330.88 331.88L365.89 296.13L365.7 295.56L365.5 294.98L365.31 294.39L365.13 293.81L364.94 293.22L364.77 292.62L364.61 292.04L364.44 291.45L364.28 290.85L364.12 290.27L363.7 288.47L363.56 287.89L363.3 286.69L363.19 286.09L363.07 285.49L362.97 284.87L362.86 284.27L362.67 283.07L362.58 282.45L362.5 281.85L362.42 281.24L362.34 280.64L362.28 280.02L362.2 279.42L362.15 278.81L362.09 278.19L362.04 277.59L361.99 276.97L361.96 276.36L361.93 275.76L361.9 275.14L361.88 274.53L361.85 273.91L361.85 273.3L361.83 272.68L361.83 270.74L361.85 270.41L361.85 270.07L361.87 269.74L361.87 269.41L361.98 267.09L362.01 266.76L362.02 266.43L362.06 266.09L362.07 265.76L362.26 263.77L362.31 263.44L362.34 263.11L362.39 262.79L362.42 262.46L362.66 260.8L362.7 260.49L362.8 259.83L362.86 259.49L362.91 259.16L362.97 258.85L363.57 255.86L364.27 252.93L365.09 250.05L366.02 247.22L367.04 244.46L368.18 241.76L369.43 239.12L370.76 236.55L372.19 234.04L373.71 231.59L375.32 229.21L377.01 226.92L378.79 224.68L380.66 222.53L382.6 220.44L384.62 218.44L386.7 216.53L388.87 214.7L391.09 212.94L393.38 211.27L395.74 209.71L398.14 208.21L400.62 206.82L403.13 205.52L405.7 204.32L408.32 203.22L410.99 202.21L413.69 201.31L416.45 200.52L419.23 199.82L422.04 199.24L424.9 198.76L427.78 198.4L430.68 198.15L433.62 198.01L436.57 197.99L439.54 198.1L442.51 198.32ZM434.27 206.52L433.44 206.55L431.8 206.64L430.98 206.71L430.18 206.77L429.35 206.85L428.53 206.94L427.73 207.04L426.91 207.15L425.3 207.4L424.48 207.54L422.86 207.86L422.06 208.03L421.27 208.21L420.46 208.41L419.68 208.6L418.87 208.82L418.08 209.04L416.5 209.52L415.71 209.77L414.94 210.04L412.41 210.95L409.95 211.98L407.55 213.09L405.21 214.29L402.94 215.56L400.73 216.92L398.58 218.36L396.51 219.88L394.52 221.47L392.59 223.13L390.73 224.87L388.95 226.65L387.24 228.51L385.61 230.44L384.07 232.41L382.6 234.45L381.19 236.53L379.88 238.67L378.67 240.86L377.53 243.09L376.47 245.36L375.49 247.67L374.62 250L373.82 252.39L373.12 254.8L372.52 257.24L372 259.7L371.59 262.19L371.26 264.71L371.04 267.23L370.91 269.77L370.88 272.33L370.96 274.89L371.13 277.46L371.42 280.04L371.81 282.63L372.3 285.2L372.9 287.78L373.61 290.35L374.43 292.91L376.31 298.43L247.23 427.51L246.56 428.2L245.93 428.91L245.33 429.65L244.78 430.4L244.24 431.17L243.75 431.94L243.29 432.75L242.87 433.55L242.47 434.38L242.11 435.21L241.79 436.07L241.49 436.92L241.24 437.79L241.02 438.66L240.83 439.52L240.69 440.41L240.56 441.29L240.48 442.19L240.42 443.08L240.4 443.98L240.42 444.88L240.48 445.76L240.56 446.65L240.69 447.55L240.83 448.43L241.02 449.3L241.24 450.17L241.49 451.04L241.79 451.89L242.11 452.74L242.47 453.58L242.87 454.4L243.29 455.2L243.75 456.01L244.24 456.78L244.78 457.56L245.33 458.3L245.93 459.03L246.56 459.75L247.23 460.43L247.92 461.11L248.63 461.73L249.36 462.33L250.11 462.89L250.87 463.41L251.66 463.92L252.45 464.38L253.27 464.8L254.09 465.2L254.93 465.55L255.77 465.88L256.64 466.16L257.49 466.42L258.36 466.64L259.24 466.83L260.13 466.98L261.01 467.11L261.91 467.19L262.79 467.24L263.69 467.25L264.58 467.24L265.48 467.19L266.36 467.11L267.25 466.98L268.13 466.83L269.02 466.64L269.88 466.42L270.75 466.16L271.61 465.88L272.44 465.55L273.28 465.2L274.1 464.8L274.92 464.38L275.71 463.92L276.5 463.41L277.26 462.89L278.02 462.33L278.74 461.73L279.45 461.11L280.15 460.43L405.07 335.53L409.03 330.93L414.65 333.65L415.44 333.92L416.25 334.18L417.05 334.44L417.86 334.67L419.47 335.12L420.29 335.34L421.1 335.53L421.92 335.72L422.72 335.89L423.54 336.06L424.37 336.22L425.2 336.36L426.02 336.51L426.84 336.62L427.67 336.74L429.34 336.93L430.16 337.01L431 337.09L431.83 337.14L432.66 337.2L434.33 337.26L435.17 337.28L436.84 337.28L438.51 337.25L439.35 337.2L440.17 337.15L441.01 337.11L443.52 336.87L444.36 336.76L445.18 336.65L446.85 336.39L447.67 336.25L450.29 335.72L452.88 335.08L455.41 334.36L457.9 333.54L460.34 332.62L462.7 331.61L465.04 330.52L467.3 329.34L469.51 328.07L471.66 326.72L473.76 325.29L475.78 323.79L477.74 322.21L479.63 320.57L481.46 318.87L483.23 317.08L484.91 315.24L486.52 313.32L488.06 311.37L489.52 309.33L490.91 307.26L492.22 305.13L493.43 302.95L494.57 300.72L495.63 298.45L496.59 296.14L497.48 293.79L498.27 291.41L498.96 288.98L499.56 286.53L500.07 284.03L500.48 281.52L500.79 278.98L501.01 276.42L501.12 273.85L501.12 271.24L501.03 268.62L500.82 266L500.51 263.36L500.08 260.71L471.55 289.26L470.43 290.32L469.27 291.31L468.09 292.24L466.89 293.14L465.66 293.97L464.39 294.75L463.12 295.47L461.82 296.14L460.49 296.74L459.15 297.31L457.79 297.82L456.42 298.26L455.05 298.65L453.64 299L452.24 299.29L450.83 299.52L449.41 299.7L447.99 299.81L446.55 299.89L445.13 299.9L443.69 299.86L442.27 299.76L440.85 299.6L439.43 299.4L438.02 299.14L436.63 298.83L435.24 298.47L433.86 298.04L432.5 297.57L431.16 297.03L429.83 296.44L428.52 295.81L427.22 295.12L425.96 294.36L424.71 293.57L423.5 292.7L422.31 291.8L421.14 290.84L420.02 289.81L418.93 288.74L417.88 287.62L416.88 286.48L415.93 285.3L415.05 284.1L414.21 282.85L413.44 281.6L412.71 280.32L412.05 279.01L411.43 277.68L410.88 276.36L410.37 275L409.92 273.63L409.52 272.24L409.19 270.85L408.91 269.44L408.67 268.02L408.5 266.6L408.37 265.18L408.31 263.76L408.29 262.32L408.34 260.9L408.43 259.48L408.57 258.06L408.78 256.64L409.05 255.23L409.35 253.83L409.73 252.44L410.14 251.06L410.63 249.7L411.15 248.35L411.73 247.02L412.38 245.71L413.07 244.43L413.82 243.15L414.62 241.92L415.47 240.7L416.39 239.5L417.35 238.35L418.38 237.21L419.45 236.12L447.37 207.48L446.55 207.34L445.75 207.21L444.1 206.99L442.46 206.8L441.64 206.74L440.83 206.67L440.01 206.61L439.19 206.56L438.37 206.53L436.73 206.5L435.09 206.5L434.27 206.52ZM343.5 409.28L399.54 465.34L425.91 438.97L369.86 383.02L347.04 405.75L343.5 409.28ZM298.48 364.28L324.74 337.91L266.82 279.99L240.45 306.35L298.48 364.28Z" id="abWDfqZlo"></path></defs><g><g><g><use xlink:href="#b51jE737nA" opacity="1" fill="#ffffff" fill-opacity="1"></use><g><use xlink:href="#b51jE737nA" opacity="1" fill-opacity="0" stroke="#000000" stroke-width="1" stroke-opacity="0"></use></g></g><g><use xlink:href="#encou9cxk" opacity="1" fill="#000000" fill-opacity="0"></use><g><use xlink:href="#encou9cxk" opacity="1" fill-opacity="0" stroke="#000000" stroke-width="1" stroke-opacity="0"></use></g></g><g><use xlink:href="#a3N6PGMfdo" opacity="1" fill="#f37738" fill-opacity="1"></use><g><use xlink:href="#a3N6PGMfdo" opacity="1" fill-opacity="0" stroke="#000000" stroke-width="1" stroke-opacity="0"></use></g></g><g><use xlink:href="#chsD8AuMx" opacity="1" fill="#000000" fill-opacity="0"></use><g><use xlink:href="#chsD8AuMx" opacity="1" fill-opacity="0" stroke="#000000" stroke-width="1" stroke-opacity="0"></use></g></g><g><use xlink:href="#axZQtDR7z" opacity="1" fill="#ffffff" fill-opacity="1"></use><g><use xlink:href="#axZQtDR7z" opacity="1" fill-opacity="0" stroke="#000000" stroke-width="1" stroke-opacity="0"></use></g></g><g><use xlink:href="#d21V9PPEGa" opacity="1" fill="#000000" fill-opacity="0"></use><g><use xlink:href="#d21V9PPEGa" opacity="1" fill-opacity="0" stroke="#000000" stroke-width="1" stroke-opacity="0"></use></g></g><g><use xlink:href="#bqT7fIKwL" opacity="1" fill="#ffffff" fill-opacity="1"></use><g><use xlink:href="#bqT7fIKwL" opacity="1" fill-opacity="0" stroke="#000000" stroke-width="1" stroke-opacity="0"></use></g></g><g><use xlink:href="#abWDfqZlo" opacity="1" fill="#000000" fill-opacity="0"></use><g><use xlink:href="#abWDfqZlo" opacity="1" fill-opacity="0" stroke="#000000" stroke-width="1" stroke-opacity="0"></use></g></g></g></g></svg>