<?xml version="1.0" encoding="UTF-8" standalone="no"?>
<!DOCTYPE svg PUBLIC "-//W3C//DTD SVG 1.1//EN" "http://www.w3.org/Graphics/SVG/1.1/DTD/svg11.dtd">
<svg version="1.1" xmlns="http://www.w3.org/2000/svg" xmlns:xlink="http://www.w3.org/1999/xlink" preserveAspectRatio="xMidYMid meet" viewBox="0 0 640 640" width="640" height="640"><defs><path d="M6.09 319.67C6.09 493.41 146.95 634.27 320.69 634.27C494.45 634.27 635.29 493.41 635.29 319.67C635.29 145.93 494.45 5.07 320.69 5.07C146.95 5.07 6.09 145.93 6.09 319.67Z" id="iTQIda97"></path><path d="M6.09 319.67C6.09 493.41 146.95 634.27 320.69 634.27C494.45 634.27 635.29 493.41 635.29 319.67C635.29 145.93 494.45 5.07 320.69 5.07C146.95 5.07 6.09 145.93 6.09 319.67Z" id="b27EQwu0fv"></path><path d="M445.48 455.13L202.37 455.13L247.11 326.04L247.11 326.04L400.75 326.04L445.48 455.13Z" id="c2mavp8p5f"></path><path d="M445.48 455.13L202.37 455.13L247.11 326.04L247.11 326.04L400.75 326.04L445.48 455.13Z" id="b1QMV9pDnF"></path><path d="M366.58 299.39C366.58 308.36 366.58 313.35 366.58 314.35C366.58 314.35 366.58 314.35 366.58 314.35C321.8 314.35 296.93 314.35 291.95 314.35C291.95 314.35 291.95 314.35 291.95 314.35C291.95 305.37 291.95 300.39 291.95 299.39C291.95 299.39 291.95 299.39 291.95 299.39C336.72 299.39 361.61 299.39 366.58 299.39C366.58 299.39 366.58 299.39 366.58 299.39Z" id="o1OlpXhF68"></path><path d="M366.58 299.39C366.58 308.36 366.58 313.35 366.58 314.35C366.58 314.35 366.58 314.35 366.58 314.35C321.8 314.35 296.93 314.35 291.95 314.35C291.95 314.35 291.95 314.35 291.95 314.35C291.95 305.37 291.95 300.39 291.95 299.39C291.95 299.39 291.95 299.39 291.95 299.39C336.72 299.39 361.61 299.39 366.58 299.39C366.58 299.39 366.58 299.39 366.58 299.39Z" id="b11HYHEuJh"></path><path d="M366.58 273.79C366.58 282.76 366.58 287.73 366.58 288.73C366.58 288.73 366.58 288.73 366.58 288.73C339.67 288.73 324.73 288.73 321.74 288.73C321.74 288.73 321.74 288.73 321.74 288.73C321.74 279.77 321.74 274.78 321.74 273.79C321.74 273.79 321.74 273.79 321.74 273.79C348.65 273.79 363.59 273.79 366.58 273.79C366.58 273.79 366.58 273.79 366.58 273.79Z" id="a44EnYHAJx"></path><path d="M366.58 273.79C366.58 282.76 366.58 287.73 366.58 288.73C366.58 288.73 366.58 288.73 366.58 288.73C339.67 288.73 324.73 288.73 321.74 288.73C321.74 288.73 321.74 288.73 321.74 288.73C321.74 279.77 321.74 274.78 321.74 273.79C321.74 273.79 321.74 273.79 321.74 273.79C348.65 273.79 363.59 273.79 366.58 273.79C366.58 273.79 366.58 273.79 366.58 273.79Z" id="b2PRXbyDub"></path><path d="M366.58 249.23C366.58 258.19 366.58 263.18 366.58 264.18C366.58 264.18 366.58 264.18 366.58 264.18C321.8 264.18 296.93 264.18 291.95 264.18C291.95 264.18 291.95 264.18 291.95 264.18C291.95 255.2 291.95 250.22 291.95 249.23C291.95 249.23 291.95 249.23 291.95 249.23C336.72 249.23 361.61 249.23 366.58 249.23C366.58 249.23 366.58 249.23 366.58 249.23Z" id="a15d0WUdfs"></path><path d="M366.58 249.23C366.58 258.19 366.58 263.18 366.58 264.18C366.58 264.18 366.58 264.18 366.58 264.18C321.8 264.18 296.93 264.18 291.95 264.18C291.95 264.18 291.95 264.18 291.95 264.18C291.95 255.2 291.95 250.22 291.95 249.23C291.95 249.23 291.95 249.23 291.95 249.23C336.72 249.23 361.61 249.23 366.58 249.23C366.58 249.23 366.58 249.23 366.58 249.23Z" id="c1Sur8LhPi"></path><path d="M366.58 224.77C366.58 233.73 366.58 238.72 366.58 239.72C366.58 239.72 366.58 239.72 366.58 239.72C339.67 239.72 324.73 239.72 321.74 239.72C321.74 239.72 321.74 239.72 321.74 239.72C321.74 230.74 321.74 225.77 321.74 224.77C321.74 224.77 321.74 224.77 321.74 224.77C348.65 224.77 363.59 224.77 366.58 224.77C366.58 224.77 366.58 224.77 366.58 224.77Z" id="c32JypZgGG"></path><path d="M366.58 224.77C366.58 233.73 366.58 238.72 366.58 239.72C366.58 239.72 366.58 239.72 366.58 239.72C339.67 239.72 324.73 239.72 321.74 239.72C321.74 239.72 321.74 239.72 321.74 239.72C321.74 230.74 321.74 225.77 321.74 224.77C321.74 224.77 321.74 224.77 321.74 224.77C348.65 224.77 363.59 224.77 366.58 224.77C366.58 224.77 366.58 224.77 366.58 224.77Z" id="b3HCvTLYib"></path><path d="M490.33 487.11L157.54 487.11L254.63 216.2L254.63 136.25L398.56 136.25L398.56 216.2L490.33 487.11ZM269.48 218.29L178.87 472.15L470.05 472.15L383.61 218.29L383.61 150.05L269.48 150.05L269.48 218.29Z" id="a7qpXfbSJ"></path><path d="M490.33 487.11L157.54 487.11L254.63 216.2L254.63 136.25L398.56 136.25L398.56 216.2L490.33 487.11ZM269.48 218.29L178.87 472.15L470.05 472.15L383.61 218.29L383.61 150.05L269.48 150.05L269.48 218.29Z" id="bsdIpCeHa"></path><path d="M410.27 136.25C410.27 145.21 410.27 150.19 410.27 151.19C410.27 151.19 410.27 151.19 410.27 151.19C309.81 151.19 253.98 151.19 242.83 151.19C242.83 151.19 242.83 151.19 242.83 151.19C242.83 142.22 242.83 137.25 242.83 136.25C242.83 136.25 242.83 136.25 242.83 136.25C343.29 136.25 399.1 136.25 410.27 136.25C410.27 136.25 410.27 136.25 410.27 136.25Z" id="a7f8kiKZGM"></path><path d="M410.27 136.25C410.27 145.21 410.27 150.19 410.27 151.19C410.27 151.19 410.27 151.19 410.27 151.19C309.81 151.19 253.98 151.19 242.83 151.19C242.83 151.19 242.83 151.19 242.83 151.19C242.83 142.22 242.83 137.25 242.83 136.25C242.83 136.25 242.83 136.25 242.83 136.25C343.29 136.25 399.1 136.25 410.27 136.25C410.27 136.25 410.27 136.25 410.27 136.25Z" id="ewZf2NuHm"></path></defs><g><g><g><use xlink:href="#iTQIda97" opacity="1" fill="#f37738" fill-opacity="1"></use><g><use xlink:href="#iTQIda97" opacity="1" fill-opacity="0" stroke="#000000" stroke-width="1" stroke-opacity="0"></use></g></g><g><use xlink:href="#b27EQwu0fv" opacity="1" fill="#000000" fill-opacity="0"></use><g><use xlink:href="#b27EQwu0fv" opacity="1" fill-opacity="0" stroke="#000000" stroke-width="1" stroke-opacity="0"></use></g></g><g><use xlink:href="#c2mavp8p5f" opacity="1" fill="#ffffff" fill-opacity="1"></use><g><use xlink:href="#c2mavp8p5f" opacity="1" fill-opacity="0" stroke="#000000" stroke-width="1" stroke-opacity="0"></use></g></g><g><use xlink:href="#b1QMV9pDnF" opacity="1" fill="#000000" fill-opacity="0"></use><g><use xlink:href="#b1QMV9pDnF" opacity="1" fill-opacity="0" stroke="#000000" stroke-width="1" stroke-opacity="0"></use></g></g><g><use xlink:href="#o1OlpXhF68" opacity="1" fill="#ffffff" fill-opacity="1"></use><g><use xlink:href="#o1OlpXhF68" opacity="1" fill-opacity="0" stroke="#000000" stroke-width="1" stroke-opacity="0"></use></g></g><g><use xlink:href="#b11HYHEuJh" opacity="1" fill="#000000" fill-opacity="0"></use><g><use xlink:href="#b11HYHEuJh" opacity="1" fill-opacity="0" stroke="#000000" stroke-width="1" stroke-opacity="0"></use></g></g><g><use xlink:href="#a44EnYHAJx" opacity="1" fill="#ffffff" fill-opacity="1"></use><g><use xlink:href="#a44EnYHAJx" opacity="1" fill-opacity="0" stroke="#000000" stroke-width="1" stroke-opacity="0"></use></g></g><g><use xlink:href="#b2PRXbyDub" opacity="1" fill="#000000" fill-opacity="0"></use><g><use xlink:href="#b2PRXbyDub" opacity="1" fill-opacity="0" stroke="#000000" stroke-width="1" stroke-opacity="0"></use></g></g><g><use xlink:href="#a15d0WUdfs" opacity="1" fill="#ffffff" fill-opacity="1"></use><g><use xlink:href="#a15d0WUdfs" opacity="1" fill-opacity="0" stroke="#000000" stroke-width="1" stroke-opacity="0"></use></g></g><g><use xlink:href="#c1Sur8LhPi" opacity="1" fill="#000000" fill-opacity="0"></use><g><use xlink:href="#c1Sur8LhPi" opacity="1" fill-opacity="0" stroke="#000000" stroke-width="1" stroke-opacity="0"></use></g></g><g><use xlink:href="#c32JypZgGG" opacity="1" fill="#ffffff" fill-opacity="1"></use><g><use xlink:href="#c32JypZgGG" opacity="1" fill-opacity="0" stroke="#000000" stroke-width="1" stroke-opacity="0"></use></g></g><g><use xlink:href="#b3HCvTLYib" opacity="1" fill="#000000" fill-opacity="0"></use><g><use xlink:href="#b3HCvTLYib" opacity="1" fill-opacity="0" stroke="#000000" stroke-width="1" stroke-opacity="0"></use></g></g><g><use xlink:href="#a7qpXfbSJ" opacity="1" fill="#ffffff" fill-opacity="1"></use><g><use xlink:href="#a7qpXfbSJ" opacity="1" fill-opacity="0" stroke="#000000" stroke-width="1" stroke-opacity="0"></use></g></g><g><use xlink:href="#bsdIpCeHa" opacity="1" fill="#000000" fill-opacity="0"></use><g><use xlink:href="#bsdIpCeHa" opacity="1" fill-opacity="0" stroke="#000000" stroke-width="1" stroke-opacity="0"></use></g></g><g><use xlink:href="#a7f8kiKZGM" opacity="1" fill="#ffffff" fill-opacity="1"></use><g><use xlink:href="#a7f8kiKZGM" opacity="1" fill-opacity="0" stroke="#000000" stroke-width="1" stroke-opacity="0"></use></g></g><g><use xlink:href="#ewZf2NuHm" opacity="1" fill="#000000" fill-opacity="0"></use><g><use xlink:href="#ewZf2NuHm" opacity="1" fill-opacity="0" stroke="#000000" stroke-width="1" stroke-opacity="0"></use></g></g></g></g></svg>