<?xml version="1.0" encoding="UTF-8" standalone="no"?>
<!DOCTYPE svg PUBLIC "-//W3C//DTD SVG 1.1//EN" "http://www.w3.org/Graphics/SVG/1.1/DTD/svg11.dtd">
<svg version="1.1" xmlns="http://www.w3.org/2000/svg" xmlns:xlink="http://www.w3.org/1999/xlink" preserveAspectRatio="xMidYMid meet" viewBox="0 0 640 640" width="640" height="640"><defs><path d="M4.6 320.33C4.6 493.57 145.03 634 318.27 634C491.5 634 631.93 493.57 631.93 320.33C631.93 147.1 491.5 6.67 318.27 6.67C145.03 6.67 4.6 147.1 4.6 320.33Z" id="biU6c2nN7"></path><path d="M4.6 320.33C4.6 493.57 145.03 634 318.27 634C491.5 634 631.93 493.57 631.93 320.33C631.93 147.1 491.5 6.67 318.27 6.67C145.03 6.67 4.6 147.1 4.6 320.33Z" id="a9kuxrCXW"></path><path d="M189.88 429.25C174.37 449.27 165.76 460.4 164.02 462.62C164.02 462.62 164.02 462.62 164.02 462.62C159.58 459.18 157.11 457.26 156.61 456.88C156.61 456.88 156.61 456.88 156.61 456.88C172.12 436.86 180.73 425.73 182.45 423.51C182.45 423.51 182.45 423.51 182.45 423.51C186.91 426.95 189.38 428.87 189.88 429.25C189.88 429.25 189.88 429.25 189.88 429.25Z" id="azK2odFhe"></path><path d="M189.88 429.25C174.37 449.27 165.76 460.4 164.02 462.62C164.02 462.62 164.02 462.62 164.02 462.62C159.58 459.18 157.11 457.26 156.61 456.88C156.61 456.88 156.61 456.88 156.61 456.88C172.12 436.86 180.73 425.73 182.45 423.51C182.45 423.51 182.45 423.51 182.45 423.51C186.91 426.95 189.38 428.87 189.88 429.25C189.88 429.25 189.88 429.25 189.88 429.25Z" id="avgI41DLF"></path><path d="M205.9 453.72C182.83 476.89 170.01 489.77 167.45 492.33C167.45 492.33 167.45 492.33 167.45 492.33C163.46 488.36 161.24 486.16 160.79 485.72C160.79 485.72 160.79 485.72 160.79 485.72C183.88 462.56 196.69 449.68 199.26 447.11C199.26 447.11 199.26 447.11 199.26 447.11C203.24 451.08 205.46 453.29 205.9 453.72C205.9 453.72 205.9 453.72 205.9 453.72Z" id="b19u68Kpuo"></path><path d="M205.9 453.72C182.83 476.89 170.01 489.77 167.45 492.33C167.45 492.33 167.45 492.33 167.45 492.33C163.46 488.36 161.24 486.16 160.79 485.72C160.79 485.72 160.79 485.72 160.79 485.72C183.88 462.56 196.69 449.68 199.26 447.11C199.26 447.11 199.26 447.11 199.26 447.11C203.24 451.08 205.46 453.29 205.9 453.72C205.9 453.72 205.9 453.72 205.9 453.72Z" id="afMIjLj2u"></path><path d="M229.88 470.12C209.71 485.69 198.52 494.33 196.29 496.05C196.29 496.05 196.29 496.05 196.29 496.05C192.85 491.61 190.94 489.14 190.57 488.64C190.57 488.64 190.57 488.64 190.57 488.64C210.71 473.09 221.91 464.45 224.16 462.71C224.16 462.71 224.16 462.71 224.16 462.71C227.58 467.15 229.49 469.62 229.88 470.12C229.88 470.12 229.88 470.12 229.88 470.12Z" id="eG2cujI8Z"></path><path d="M229.88 470.12C209.71 485.69 198.52 494.33 196.29 496.05C196.29 496.05 196.29 496.05 196.29 496.05C192.85 491.61 190.94 489.14 190.57 488.64C190.57 488.64 190.57 488.64 190.57 488.64C210.71 473.09 221.91 464.45 224.16 462.71C224.16 462.71 224.16 462.71 224.16 462.71C227.58 467.15 229.49 469.62 229.88 470.12C229.88 470.12 229.88 470.12 229.88 470.12Z" id="bpIuB1V4q"></path><path d="M436.63 164.06L440.42 164.58L444.07 165.19L447.64 165.89L451.11 166.62L454.48 167.38L457.78 168.09L461 168.75L464.18 169.31L467.29 169.75L470.33 170.03L473.35 170.11L476.35 169.95L479.31 169.53L482.26 168.8L485.18 167.73L488.12 166.31L488.25 166.45L488.58 166.87L489.09 167.58L489.75 168.56L490.56 169.81L491.45 171.35L492.42 173.13L493.44 175.19L494.47 177.5L495.48 180.08L496.45 182.91L497.36 185.99L498.17 189.32L498.85 192.9L499.38 196.72L499.72 200.76L499.86 205.06L499.75 209.6L499.38 214.35L498.72 219.33L497.74 224.54L496.39 229.96L494.67 235.61L492.55 241.47L489.97 247.55L486.95 253.82L483.42 260.3L479.38 266.99L474.79 273.89L469.61 280.97L463.85 288.25L457.44 295.71L450.36 303.37L442.6 311.2L434.12 319.22L424.89 327.41L414.89 335.79L404.09 344.32L392.46 353.04L379.95 361.91L362.67 373.9L362.67 376.71L362.81 381.88L362.7 386.93L362.34 391.87L361.74 396.7L360.91 401.41L359.87 405.99L358.65 410.46L357.23 414.79L355.65 419.02L353.9 423.12L352.02 427.1L350 430.95L347.86 434.69L345.64 438.3L343.31 441.77L340.92 445.13L338.47 448.35L335.97 451.44L333.42 454.41L330.87 457.26L328.29 459.96L325.73 462.52L323.2 464.98L320.7 467.29L318.23 469.47L315.83 471.5L313.51 473.4L311.27 475.19L309.13 476.81L307.11 478.31L305.21 479.66L303.45 480.88L301.86 481.95L300.44 482.89L299.19 483.69L298.14 484.35L297.3 484.85L296.69 485.21L296.31 485.42L296.17 485.5L281.27 430.28L262.52 443.1L260.2 443.95L260.17 443.97L260.02 444.03L259.84 444.06L259.66 444.08L259.45 444.1L259.22 444.11L258.69 444.11L258.39 444.1L258.06 444.05L257.72 444L257.33 443.94L256.94 443.86L256.5 443.77L256.04 443.64L255.56 443.5L255.04 443.35L254.5 443.16L253.92 442.94L253.31 442.7L252.67 442.42L252.01 442.13L251.31 441.8L250.57 441.42L249.79 441.03L249 440.59L248.15 440.13L247.28 439.61L246.37 439.05L245.42 438.45L244.43 437.83L243.41 437.14L242.35 436.41L241.24 435.64L240.1 434.81L238.93 433.94L237.69 433.01L236.43 432.04L235.13 431L233.77 429.92L232.38 428.76L230.94 427.56L230.88 427.51L230.8 427.46L230.74 427.42L230.66 427.37L230.6 427.32L230.52 427.26L230.46 427.21L230.38 427.17L230.32 427.12L230.25 427.06L230.17 427.01L230.05 426.92L229.99 426.85L229.91 426.81L229.85 426.74L229.78 426.7L229.72 426.64L229.64 426.59L229.58 426.53L229.52 426.48L229.46 426.42L229.39 426.37L229.33 426.31L229.27 426.26L229.19 426.2L229.13 426.14L229.07 426.09L228.94 425.96L228.88 425.92L228.75 425.79L228.71 425.73L228.64 425.68L228.33 425.37L227.71 424.65L226.17 422.84L224.74 421.1L223.39 419.43L222.12 417.82L220.94 416.27L219.84 414.8L218.81 413.38L217.87 412.04L217 410.75L216.18 409.52L215.45 408.35L214.78 407.22L214.17 406.17L213.62 405.16L213.12 404.2L212.67 403.31L212.28 402.45L211.93 401.66L211.64 400.91L211.37 400.2L211.15 399.55L210.98 398.94L210.82 398.37L210.71 397.84L210.62 397.36L210.56 396.92L210.51 396.51L210.5 396.14L210.5 395.81L210.51 395.51L210.53 395.25L210.56 395.01L210.6 394.83L210.65 394.65L210.7 394.51L210.73 394.4L210.78 394.33L210.82 394.23L210.82 392.86L223.23 374.72L170.4 360.56L170.46 360.42L170.68 360.05L171.06 359.44L171.56 358.59L172.21 357.53L173.01 356.29L173.95 354.86L175.04 353.26L176.26 351.51L177.62 349.6L179.12 347.59L180.75 345.45L182.53 343.2L184.44 340.87L186.49 338.46L188.66 336.01L190.97 333.49L193.41 330.94L195.99 328.38L198.69 325.8L201.54 323.23L204.51 320.69L207.6 318.19L210.82 315.72L214.17 313.32L217.64 311L221.25 308.74L224.97 306.62L228.82 304.59L232.79 302.7L236.87 300.94L241.07 299.37L245.4 297.94L249.85 296.69L254.42 295.65L259.11 294.82L263.89 294.21L268.82 293.83L273.83 293.72L278.98 293.86L292.22 274.68L301.02 262.21L309.52 250.67L317.74 240.03L325.67 230.26L333.31 221.32L340.7 213.17L347.82 205.8L354.69 199.15L361.31 193.2L367.7 187.91L373.86 183.26L379.8 179.18L385.52 175.68L391.04 172.69L396.35 170.19L401.48 168.14L406.43 166.52L411.2 165.28L415.81 164.41L420.27 163.84L424.57 163.56L428.72 163.51L432.74 163.7L436.63 164.06ZM385.49 232.26L383.5 232.59L381.56 233.03L379.67 233.57L377.83 234.21L376.03 234.98L374.3 235.82L372.62 236.78L371 237.81L369.45 238.94L367.96 240.15L366.54 241.45L365.21 242.81L363.95 244.27L362.78 245.77L361.7 247.36L360.7 249L359.79 250.71L358.98 252.46L358.27 254.27L357.66 256.13L357.16 258.04L356.77 259.99L356.51 261.98L356.33 263.99L356.3 266.04L356.4 268.09L356.6 270.1L356.93 272.09L357.37 274.03L357.9 275.92L358.55 277.76L359.3 279.56L360.16 281.3L361.12 282.97L362.15 284.59L363.28 286.14L364.49 287.63L365.78 289.05L367.15 290.38L368.59 291.63L370.11 292.82L371.68 293.89L373.34 294.9L375.05 295.8L376.8 296.61L378.61 297.32L380.47 297.93L382.38 298.43L384.33 298.82L386.32 299.08L388.33 299.24L390.38 299.29L392.41 299.19L394.41 298.99L396.37 298.68L398.29 298.24L400.18 297.71L402.01 297.07L403.79 296.32L405.51 295.49L407.18 294.55L408.79 293.52L410.34 292.41L411.83 291.22L413.23 289.94L414.58 288.6L415.83 287.17L417 285.67L418.09 284.11L419.09 282.48L420.02 280.81L420.83 279.06L421.55 277.28L422.17 275.43L422.69 273.56L423.1 271.62L423.38 269.65L423.57 267.65L423.63 265.62L423.63 265.21L423.53 263.16L423.33 261.15L423 259.16L422.56 257.22L422.02 255.33L421.36 253.49L420.61 251.69L419.77 249.96L418.81 248.28L417.78 246.66L416.64 245.11L415.44 243.62L414.14 242.2L412.78 240.87L411.33 239.62L409.81 238.43L408.23 237.36L406.59 236.36L404.89 235.45L403.14 234.64L401.32 233.93L399.46 233.32L397.55 232.82L395.6 232.43L393.62 232.17L391.6 232.01L389.55 231.96L387.5 232.06L385.49 232.26Z" id="aCeEL4yzJ"></path><path d="M436.63 164.06L440.42 164.58L444.07 165.19L447.64 165.89L451.11 166.62L454.48 167.38L457.78 168.09L461 168.75L464.18 169.31L467.29 169.75L470.33 170.03L473.35 170.11L476.35 169.95L479.31 169.53L482.26 168.8L485.18 167.73L488.12 166.31L488.25 166.45L488.58 166.87L489.09 167.58L489.75 168.56L490.56 169.81L491.45 171.35L492.42 173.13L493.44 175.19L494.47 177.5L495.48 180.08L496.45 182.91L497.36 185.99L498.17 189.32L498.85 192.9L499.38 196.72L499.72 200.76L499.86 205.06L499.75 209.6L499.38 214.35L498.72 219.33L497.74 224.54L496.39 229.96L494.67 235.61L492.55 241.47L489.97 247.55L486.95 253.82L483.42 260.3L479.38 266.99L474.79 273.89L469.61 280.97L463.85 288.25L457.44 295.71L450.36 303.37L442.6 311.2L434.12 319.22L424.89 327.41L414.89 335.79L404.09 344.32L392.46 353.04L379.95 361.91L362.67 373.9L362.67 376.71L362.81 381.88L362.7 386.93L362.34 391.87L361.74 396.7L360.91 401.41L359.87 405.99L358.65 410.46L357.23 414.79L355.65 419.02L353.9 423.12L352.02 427.1L350 430.95L347.86 434.69L345.64 438.3L343.31 441.77L340.92 445.13L338.47 448.35L335.97 451.44L333.42 454.41L330.87 457.26L328.29 459.96L325.73 462.52L323.2 464.98L320.7 467.29L318.23 469.47L315.83 471.5L313.51 473.4L311.27 475.19L309.13 476.81L307.11 478.31L305.21 479.66L303.45 480.88L301.86 481.95L300.44 482.89L299.19 483.69L298.14 484.35L297.3 484.85L296.69 485.21L296.31 485.42L296.17 485.5L281.27 430.28L262.52 443.1L260.2 443.95L260.17 443.97L260.02 444.03L259.84 444.06L259.66 444.08L259.45 444.1L259.22 444.11L258.69 444.11L258.39 444.1L258.06 444.05L257.72 444L257.33 443.94L256.94 443.86L256.5 443.77L256.04 443.64L255.56 443.5L255.04 443.35L254.5 443.16L253.92 442.94L253.31 442.7L252.67 442.42L252.01 442.13L251.31 441.8L250.57 441.42L249.79 441.03L249 440.59L248.15 440.13L247.28 439.61L246.37 439.05L245.42 438.45L244.43 437.83L243.41 437.14L242.35 436.41L241.24 435.64L240.1 434.81L238.93 433.94L237.69 433.01L236.43 432.04L235.13 431L233.77 429.92L232.38 428.76L230.94 427.56L230.88 427.51L230.8 427.46L230.74 427.42L230.66 427.37L230.6 427.32L230.52 427.26L230.46 427.21L230.38 427.17L230.32 427.12L230.25 427.06L230.17 427.01L230.05 426.92L229.99 426.85L229.91 426.81L229.85 426.74L229.78 426.7L229.72 426.64L229.64 426.59L229.58 426.53L229.52 426.48L229.46 426.42L229.39 426.37L229.33 426.31L229.27 426.26L229.19 426.2L229.13 426.14L229.07 426.09L228.94 425.96L228.88 425.92L228.75 425.79L228.71 425.73L228.64 425.68L228.33 425.37L227.71 424.65L226.17 422.84L224.74 421.1L223.39 419.43L222.12 417.82L220.94 416.27L219.84 414.8L218.81 413.38L217.87 412.04L217 410.75L216.18 409.52L215.45 408.35L214.78 407.22L214.17 406.17L213.62 405.16L213.12 404.2L212.67 403.31L212.28 402.45L211.93 401.66L211.64 400.91L211.37 400.2L211.15 399.55L210.98 398.94L210.82 398.37L210.71 397.84L210.62 397.36L210.56 396.92L210.51 396.51L210.5 396.14L210.5 395.81L210.51 395.51L210.53 395.25L210.56 395.01L210.6 394.83L210.65 394.65L210.7 394.51L210.73 394.4L210.78 394.33L210.82 394.23L210.82 392.86L223.23 374.72L170.4 360.56L170.46 360.42L170.68 360.05L171.06 359.44L171.56 358.59L172.21 357.53L173.01 356.29L173.95 354.86L175.04 353.26L176.26 351.51L177.62 349.6L179.12 347.59L180.75 345.45L182.53 343.2L184.44 340.87L186.49 338.46L188.66 336.01L190.97 333.49L193.41 330.94L195.99 328.38L198.69 325.8L201.54 323.23L204.51 320.69L207.6 318.19L210.82 315.72L214.17 313.32L217.64 311L221.25 308.74L224.97 306.62L228.82 304.59L232.79 302.7L236.87 300.94L241.07 299.37L245.4 297.94L249.85 296.69L254.42 295.65L259.11 294.82L263.89 294.21L268.82 293.83L273.83 293.72L278.98 293.86L292.22 274.68L301.02 262.21L309.52 250.67L317.74 240.03L325.67 230.26L333.31 221.32L340.7 213.17L347.82 205.8L354.69 199.15L361.31 193.2L367.7 187.91L373.86 183.26L379.8 179.18L385.52 175.68L391.04 172.69L396.35 170.19L401.48 168.14L406.43 166.52L411.2 165.28L415.81 164.41L420.27 163.84L424.57 163.56L428.72 163.51L432.74 163.7L436.63 164.06ZM385.49 232.26L383.5 232.59L381.56 233.03L379.67 233.57L377.83 234.21L376.03 234.98L374.3 235.82L372.62 236.78L371 237.81L369.45 238.94L367.96 240.15L366.54 241.45L365.21 242.81L363.95 244.27L362.78 245.77L361.7 247.36L360.7 249L359.79 250.71L358.98 252.46L358.27 254.27L357.66 256.13L357.16 258.04L356.77 259.99L356.51 261.98L356.33 263.99L356.3 266.04L356.4 268.09L356.6 270.1L356.93 272.09L357.37 274.03L357.9 275.92L358.55 277.76L359.3 279.56L360.16 281.3L361.12 282.97L362.15 284.59L363.28 286.14L364.49 287.63L365.78 289.05L367.15 290.38L368.59 291.63L370.11 292.82L371.68 293.89L373.34 294.9L375.05 295.8L376.8 296.61L378.61 297.32L380.47 297.93L382.38 298.43L384.33 298.82L386.32 299.08L388.33 299.24L390.38 299.29L392.41 299.19L394.41 298.99L396.37 298.68L398.29 298.24L400.18 297.71L402.01 297.07L403.79 296.32L405.51 295.49L407.18 294.55L408.79 293.52L410.34 292.41L411.83 291.22L413.23 289.94L414.58 288.6L415.83 287.17L417 285.67L418.09 284.11L419.09 282.48L420.02 280.81L420.83 279.06L421.55 277.28L422.17 275.43L422.69 273.56L423.1 271.62L423.38 269.65L423.57 267.65L423.63 265.62L423.63 265.21L423.53 263.16L423.33 261.15L423 259.16L422.56 257.22L422.02 255.33L421.36 253.49L420.61 251.69L419.77 249.96L418.81 248.28L417.78 246.66L416.64 245.11L415.44 243.62L414.14 242.2L412.78 240.87L411.33 239.62L409.81 238.43L408.23 237.36L406.59 236.36L404.89 235.45L403.14 234.64L401.32 233.93L399.46 233.32L397.55 232.82L395.6 232.43L393.62 232.17L391.6 232.01L389.55 231.96L387.5 232.06L385.49 232.26Z" id="a5ytClXLmi"></path><path d="M453.08 172.5C433.71 172.5 417.98 169.64 417.98 166.12C417.98 162.61 433.71 159.75 453.08 159.75C472.44 159.75 488.17 162.61 488.17 166.12C488.17 169.64 472.44 172.5 453.08 172.5Z" id="c14brarh5P"></path></defs><g><g><g><use xlink:href="#biU6c2nN7" opacity="1" fill="#f37738" fill-opacity="1"></use><g><use xlink:href="#biU6c2nN7" opacity="1" fill-opacity="0" stroke="#000000" stroke-width="1" stroke-opacity="0"></use></g></g><g><use xlink:href="#a9kuxrCXW" opacity="1" fill="#000000" fill-opacity="0"></use><g><use xlink:href="#a9kuxrCXW" opacity="1" fill-opacity="0" stroke="#000000" stroke-width="1" stroke-opacity="0"></use></g></g><g><use xlink:href="#azK2odFhe" opacity="1" fill="#ffffff" fill-opacity="1"></use><g><use xlink:href="#azK2odFhe" opacity="1" fill-opacity="0" stroke="#000000" stroke-width="1" stroke-opacity="0"></use></g></g><g><use xlink:href="#avgI41DLF" opacity="1" fill="#000000" fill-opacity="0"></use><g><use xlink:href="#avgI41DLF" opacity="1" fill-opacity="0" stroke="#000000" stroke-width="1" stroke-opacity="0"></use></g></g><g><use xlink:href="#b19u68Kpuo" opacity="1" fill="#ffffff" fill-opacity="1"></use><g><use xlink:href="#b19u68Kpuo" opacity="1" fill-opacity="0" stroke="#000000" stroke-width="1" stroke-opacity="0"></use></g></g><g><use xlink:href="#afMIjLj2u" opacity="1" fill="#000000" fill-opacity="0"></use><g><use xlink:href="#afMIjLj2u" opacity="1" fill-opacity="0" stroke="#000000" stroke-width="1" stroke-opacity="0"></use></g></g><g><use xlink:href="#eG2cujI8Z" opacity="1" fill="#ffffff" fill-opacity="1"></use><g><use xlink:href="#eG2cujI8Z" opacity="1" fill-opacity="0" stroke="#000000" stroke-width="1" stroke-opacity="0"></use></g></g><g><use xlink:href="#bpIuB1V4q" opacity="1" fill="#000000" fill-opacity="0"></use><g><use xlink:href="#bpIuB1V4q" opacity="1" fill-opacity="0" stroke="#000000" stroke-width="1" stroke-opacity="0"></use></g></g><g><use xlink:href="#aCeEL4yzJ" opacity="1" fill="#ffffff" fill-opacity="1"></use><g><use xlink:href="#aCeEL4yzJ" opacity="1" fill-opacity="0" stroke="#000000" stroke-width="1" stroke-opacity="0"></use></g></g><g><use xlink:href="#a5ytClXLmi" opacity="1" fill="#000000" fill-opacity="0"></use><g><use xlink:href="#a5ytClXLmi" opacity="1" fill-opacity="0" stroke="#000000" stroke-width="1" stroke-opacity="0"></use></g></g><g><use xlink:href="#c14brarh5P" opacity="1" fill="#ffffff" fill-opacity="1"></use><g><use xlink:href="#c14brarh5P" opacity="1" fill-opacity="0" stroke="#000000" stroke-width="1" stroke-opacity="0"></use></g></g></g></g></svg>