<?xml version="1.0" encoding="UTF-8" standalone="no"?>
<!DOCTYPE svg PUBLIC "-//W3C//DTD SVG 1.1//EN" "http://www.w3.org/Graphics/SVG/1.1/DTD/svg11.dtd">
<svg version="1.1" xmlns="http://www.w3.org/2000/svg" xmlns:xlink="http://www.w3.org/1999/xlink" preserveAspectRatio="xMidYMid meet" viewBox="0 0 640 640" width="640" height="640"><defs><path d="M319.65 630.82C146.85 630.82 6.77 490.8 6.77 318.05C6.77 145.3 146.85 5.28 319.65 5.28C492.45 5.28 632.53 145.3 632.53 318.05C632.53 490.8 492.45 630.82 319.65 630.82Z" id="e2sUPOlXHM"></path><path d="M319.65 630.82C146.85 630.82 6.77 490.8 6.77 318.05C6.77 145.3 146.85 5.28 319.65 5.28C492.45 5.28 632.53 145.3 632.53 318.05C632.53 490.8 492.45 630.82 319.65 630.82Z" id="d1N3FPvNTz"></path><path d="M516.26 312.72L516.48 312.75L516.9 312.84L517.1 312.89L517.3 312.96L517.7 313.1L517.89 313.19L518.44 313.48L518.6 313.61L518.77 313.72L518.94 313.84L519.09 313.97L519.4 314.25L519.68 314.56L519.81 314.71L520.06 315.04L520.17 315.23L520.27 315.39L520.38 315.58L520.46 315.77L520.55 315.95L520.63 316.15L520.7 316.36L520.76 316.55L520.87 316.97L520.9 317.18L520.94 317.39L520.95 317.6L520.97 317.83L520.97 514.12L520.95 514.35L520.94 514.56L520.9 514.77L520.87 514.99L520.81 515.19L520.7 515.61L520.63 515.8L520.55 516L520.46 516.18L520.38 516.37L520.27 516.56L520.17 516.72L520.06 516.91L519.81 517.24L519.68 517.39L519.4 517.7L519.09 517.98L518.94 518.11L518.6 518.36L518.44 518.47L517.89 518.76L517.5 518.93L517.3 519L517.1 519.06L516.9 519.11L516.48 519.2L516.26 519.23L516.05 519.25L515.82 519.27L417.41 519.27L417.19 519.25L416.98 519.23L416.75 519.2L416.33 519.11L416.14 519.06L415.93 519L415.73 518.93L415.34 518.76L414.8 518.47L414.63 518.36L414.29 518.11L414.14 517.98L413.83 517.7L413.55 517.39L413.43 517.24L413.17 516.91L413.06 516.72L412.95 516.56L412.85 516.37L412.77 516.18L412.68 516L412.6 515.8L412.53 515.61L412.42 515.19L412.36 514.99L412.34 514.77L412.29 514.56L412.28 514.35L412.27 514.12L412.27 317.83L412.28 317.6L412.29 317.39L412.34 317.18L412.36 316.97L412.48 316.55L412.53 316.36L412.6 316.15L412.68 315.95L412.77 315.77L412.85 315.58L412.95 315.39L413.06 315.23L413.17 315.04L413.43 314.71L413.55 314.56L413.83 314.25L414.14 313.97L414.29 313.84L414.46 313.72L414.63 313.61L414.8 313.48L415.34 313.19L415.54 313.1L415.93 312.96L416.14 312.89L416.33 312.84L416.75 312.75L416.98 312.72L417.19 312.7L417.41 312.68L515.82 312.68L516.05 312.7L516.26 312.72ZM423 508.74L510.23 508.74L510.23 323.42L423.21 323.42L423 508.74Z" id="atHtDvoOY"></path><path d="M516.26 312.72L516.48 312.75L516.9 312.84L517.1 312.89L517.3 312.96L517.7 313.1L517.89 313.19L518.44 313.48L518.6 313.61L518.77 313.72L518.94 313.84L519.09 313.97L519.4 314.25L519.68 314.56L519.81 314.71L520.06 315.04L520.17 315.23L520.27 315.39L520.38 315.58L520.46 315.77L520.55 315.95L520.63 316.15L520.7 316.36L520.76 316.55L520.87 316.97L520.9 317.18L520.94 317.39L520.95 317.6L520.97 317.83L520.97 514.12L520.95 514.35L520.94 514.56L520.9 514.77L520.87 514.99L520.81 515.19L520.7 515.61L520.63 515.8L520.55 516L520.46 516.18L520.38 516.37L520.27 516.56L520.17 516.72L520.06 516.91L519.81 517.24L519.68 517.39L519.4 517.7L519.09 517.98L518.94 518.11L518.6 518.36L518.44 518.47L517.89 518.76L517.5 518.93L517.3 519L517.1 519.06L516.9 519.11L516.48 519.2L516.26 519.23L516.05 519.25L515.82 519.27L417.41 519.27L417.19 519.25L416.98 519.23L416.75 519.2L416.33 519.11L416.14 519.06L415.93 519L415.73 518.93L415.34 518.76L414.8 518.47L414.63 518.36L414.29 518.11L414.14 517.98L413.83 517.7L413.55 517.39L413.43 517.24L413.17 516.91L413.06 516.72L412.95 516.56L412.85 516.37L412.77 516.18L412.68 516L412.6 515.8L412.53 515.61L412.42 515.19L412.36 514.99L412.34 514.77L412.29 514.56L412.28 514.35L412.27 514.12L412.27 317.83L412.28 317.6L412.29 317.39L412.34 317.18L412.36 316.97L412.48 316.55L412.53 316.36L412.6 316.15L412.68 315.95L412.77 315.77L412.85 315.58L412.95 315.39L413.06 315.23L413.17 315.04L413.43 314.71L413.55 314.56L413.83 314.25L414.14 313.97L414.29 313.84L414.46 313.72L414.63 313.61L414.8 313.48L415.34 313.19L415.54 313.1L415.93 312.96L416.14 312.89L416.33 312.84L416.75 312.75L416.98 312.72L417.19 312.7L417.41 312.68L515.82 312.68L516.05 312.7L516.26 312.72ZM423 508.74L510.23 508.74L510.23 323.42L423.21 323.42L423 508.74Z" id="j4chv9wNhU"></path><path d="M294.07 116.79L294.13 116.8L294.2 116.8L294.34 116.83L294.41 116.83L294.46 116.85L294.67 116.89L294.73 116.9L294.87 116.93L294.93 116.96L295.07 116.99L295.12 117.01L295.19 117.03L295.25 117.04L295.32 117.07L295.37 117.1L295.44 117.11L295.51 117.14L295.62 117.2L295.69 117.22L295.75 117.25L295.82 117.28L295.93 117.34L296 117.36L296.06 117.39L296.11 117.43L296.18 117.46L381.11 166.4L381.29 166.51L381.66 166.76L381.99 167.04L382.14 167.18L382.28 167.33L382.44 167.49L382.56 167.65L382.7 167.82L382.93 168.16L383.04 168.34L383.23 168.7L383.32 168.9L383.4 169.08L383.47 169.28L383.58 169.67L383.64 169.88L383.68 170.07L383.71 170.28L383.74 170.48L383.77 170.9L383.77 171.11L383.75 171.32L383.74 171.51L383.68 171.93L383.6 172.35L383.54 172.55L383.47 172.76L383.4 172.95L383.32 173.16L383.23 173.36L383.14 173.55L383.02 173.75L382.98 173.8L382.96 173.86L382.91 173.92L382.89 173.97L382.51 174.48L382.47 174.52L382.38 174.63L382.33 174.67L382.28 174.73L382.05 174.96L381.99 175.01L381.89 175.1L381.67 175.27L381.63 175.31L381.4 175.48L381.35 175.51L381.28 175.55L381.22 175.59L381.17 175.62L381.11 175.66L296.28 224.6L296.23 224.63L296.16 224.67L296.04 224.72L295.97 224.77L295.92 224.79L295.85 224.82L295.79 224.85L295.72 224.88L295.67 224.91L295.6 224.93L295.54 224.96L295.47 224.99L295.42 225L295.28 225.06L295.22 225.07L295.15 225.1L295.01 225.13L294.95 225.16L294.67 225.21L294.62 225.23L294.34 225.28L294.27 225.28L294.2 225.3L294.13 225.3L294.07 225.31L294 225.31L293.93 225.32L293.72 225.32L293.65 225.34L293.54 225.44L293.33 225.44L293.11 225.42L292.89 225.39L292.68 225.37L292.26 225.28L292.05 225.23L291.46 225.02L291.26 224.93L290.72 224.64L290.55 224.51L290.38 224.4L290.05 224.15L289.89 224.01L289.75 223.87L289.34 223.41L289.21 223.24L289.1 223.07L288.99 222.89L288.87 222.72L288.78 222.54L288.69 222.35L288.61 222.17L288.52 221.97L288.45 221.76L288.38 221.56L288.34 221.36L288.29 221.15L288.24 220.94L288.22 220.73L288.2 220.52L288.17 220.07L288.17 122.09L288.19 121.86L288.2 121.65L288.23 121.43L288.26 121.22L288.34 120.8L288.4 120.59L288.54 120.2L288.71 119.81L288.9 119.45L289.01 119.26L289.24 118.93L289.38 118.76L289.5 118.61L289.64 118.45L289.78 118.31L290.09 118.03L290.24 117.91L290.58 117.66L290.76 117.55L291.31 117.25L291.5 117.17L291.89 117.03L292.1 116.97L292.3 116.92L292.72 116.83L292.94 116.8L293.15 116.79L293.37 116.78L293.86 116.78L293.93 116.79L294.07 116.79ZM367.64 171.13L298.91 131.45L298.91 210.8L367.64 171.13Z" id="a7SlAmQ8JN"></path><path d="M294.07 116.79L294.13 116.8L294.2 116.8L294.34 116.83L294.41 116.83L294.46 116.85L294.67 116.89L294.73 116.9L294.87 116.93L294.93 116.96L295.07 116.99L295.12 117.01L295.19 117.03L295.25 117.04L295.32 117.07L295.37 117.1L295.44 117.11L295.51 117.14L295.62 117.2L295.69 117.22L295.75 117.25L295.82 117.28L295.93 117.34L296 117.36L296.06 117.39L296.11 117.43L296.18 117.46L381.11 166.4L381.29 166.51L381.66 166.76L381.99 167.04L382.14 167.18L382.28 167.33L382.44 167.49L382.56 167.65L382.7 167.82L382.93 168.16L383.04 168.34L383.23 168.7L383.32 168.9L383.4 169.08L383.47 169.28L383.58 169.67L383.64 169.88L383.68 170.07L383.71 170.28L383.74 170.48L383.77 170.9L383.77 171.11L383.75 171.32L383.74 171.51L383.68 171.93L383.6 172.35L383.54 172.55L383.47 172.76L383.4 172.95L383.32 173.16L383.23 173.36L383.14 173.55L383.02 173.75L382.98 173.8L382.96 173.86L382.91 173.92L382.89 173.97L382.51 174.48L382.47 174.52L382.38 174.63L382.33 174.67L382.28 174.73L382.05 174.96L381.99 175.01L381.89 175.1L381.67 175.27L381.63 175.31L381.4 175.48L381.35 175.51L381.28 175.55L381.22 175.59L381.17 175.62L381.11 175.66L296.28 224.6L296.23 224.63L296.16 224.67L296.04 224.72L295.97 224.77L295.92 224.79L295.85 224.82L295.79 224.85L295.72 224.88L295.67 224.91L295.6 224.93L295.54 224.96L295.47 224.99L295.42 225L295.28 225.06L295.22 225.07L295.15 225.1L295.01 225.13L294.95 225.16L294.67 225.21L294.62 225.23L294.34 225.28L294.27 225.28L294.2 225.3L294.13 225.3L294.07 225.31L294 225.31L293.93 225.32L293.72 225.32L293.65 225.34L293.54 225.44L293.33 225.44L293.11 225.42L292.89 225.39L292.68 225.37L292.26 225.28L292.05 225.23L291.46 225.02L291.26 224.93L290.72 224.64L290.55 224.51L290.38 224.4L290.05 224.15L289.89 224.01L289.75 223.87L289.34 223.41L289.21 223.24L289.1 223.07L288.99 222.89L288.87 222.72L288.78 222.54L288.69 222.35L288.61 222.17L288.52 221.97L288.45 221.76L288.38 221.56L288.34 221.36L288.29 221.15L288.24 220.94L288.22 220.73L288.2 220.52L288.17 220.07L288.17 122.09L288.19 121.86L288.2 121.65L288.23 121.43L288.26 121.22L288.34 120.8L288.4 120.59L288.54 120.2L288.71 119.81L288.9 119.45L289.01 119.26L289.24 118.93L289.38 118.76L289.5 118.61L289.64 118.45L289.78 118.31L290.09 118.03L290.24 117.91L290.58 117.66L290.76 117.55L291.31 117.25L291.5 117.17L291.89 117.03L292.1 116.97L292.3 116.92L292.72 116.83L292.94 116.8L293.15 116.79L293.37 116.78L293.86 116.78L293.93 116.79L294.07 116.79ZM367.64 171.13L298.91 131.45L298.91 210.8L367.64 171.13Z" id="a3OUzAZdIV"></path><path d="M172.74 377.51C169.77 377.51 167.37 375.11 167.37 372.14C167.37 352.04 167.37 191.23 167.37 171.13C167.37 168.17 169.77 165.77 172.74 165.77C172.74 165.77 172.74 165.77 172.74 165.77C184.81 165.77 281.47 165.77 293.54 165.77C296.45 166.35 298.34 169.18 297.75 172.09C297.33 174.21 295.67 175.86 293.54 176.29C285.83 176.29 247.24 176.29 177.78 176.29C177.78 293.8 177.78 359.09 177.78 372.14C177.78 375.11 175.38 377.51 172.41 377.51" id="b8k73kNkhU"></path><path d="M172.74 377.51C169.77 377.51 167.37 375.11 167.37 372.14C167.37 352.04 167.37 191.23 167.37 171.13C167.37 168.17 169.77 165.77 172.74 165.77C172.74 165.77 172.74 165.77 172.74 165.77C184.81 165.77 281.47 165.77 293.54 165.77C296.45 166.35 298.34 169.18 297.75 172.09C297.33 174.21 295.67 175.86 293.54 176.29C285.83 176.29 247.24 176.29 177.78 176.29C177.78 293.8 177.78 359.09 177.78 372.14C177.78 375.11 175.38 377.51 172.41 377.51" id="bu07VHpq9"></path><path d="M177.18 410.85L179.38 411.07L181.54 411.38L183.68 411.77L185.78 412.24L187.86 412.79L189.9 413.43L191.9 414.14L193.87 414.93L195.8 415.79L197.69 416.72L199.53 417.72L201.33 418.8L203.1 419.93L204.8 421.13L206.46 422.4L208.07 423.73L209.62 425.12L211.13 426.57L212.57 428.07L213.97 429.63L215.3 431.24L216.56 432.89L217.76 434.61L218.9 436.35L219.97 438.16L220.97 440.02L221.91 441.9L222.76 443.83L223.56 445.8L224.27 447.8L224.9 449.84L225.46 451.91L225.93 454.02L226.33 456.16L226.63 458.33L226.86 460.51L227 462.73L227.04 464.97L226.98 467.2L226.84 469.41L226.62 471.6L226.31 473.77L225.92 475.9L225.43 478.01L224.87 480.07L224.24 482.12L223.53 484.11L222.73 486.09L221.88 488.01L220.94 489.9L219.94 491.75L218.86 493.55L217.73 495.3L216.53 497.02L215.26 498.66L213.93 500.27L212.54 501.84L211.1 503.33L209.59 504.77L208.04 506.17L206.44 507.5L204.77 508.76L203.07 509.96L201.31 511.1L199.52 512.18L197.67 513.17L195.77 514.11L193.86 514.98L191.89 515.76L189.89 516.47L187.85 517.11L185.76 517.67L183.67 518.15L181.53 518.54L179.38 518.86L177.18 519.09L174.97 519.23L172.74 519.27L170.49 519.23L168.28 519.09L166.08 518.86L163.92 518.55L161.79 518.16L159.68 517.69L157.61 517.14L155.57 516.5L153.56 515.79L151.59 515L149.66 514.14L147.77 513.22L145.93 512.21L144.12 511.13L142.36 510L140.66 508.8L139 507.53L137.39 506.2L135.84 504.81L134.33 503.36L132.89 501.87L131.5 500.3L130.18 498.69L128.9 497.04L127.7 495.32L126.57 493.58L125.49 491.77L124.49 489.91L123.55 488.03L122.7 486.1L121.9 484.13L121.19 482.13L120.56 480.09L120 478.02L119.52 475.91L119.13 473.77L118.83 471.6L118.6 469.42L118.48 467.2L118.42 464.97L118.48 462.73L118.6 460.51L118.83 458.33L119.13 456.16L119.52 454.02L120 451.91L120.56 449.84L121.19 447.8L121.9 445.8L122.7 443.83L123.55 441.9L124.49 440.02L125.49 438.16L126.57 436.35L127.7 434.61L128.9 432.89L130.18 431.24L131.5 429.63L132.89 428.07L134.33 426.57L135.84 425.12L137.39 423.73L139 422.4L140.66 421.13L142.36 419.93L144.12 418.8L145.93 417.72L147.77 416.72L149.66 415.79L151.59 414.93L153.56 414.14L155.57 413.43L157.61 412.79L159.68 412.24L161.79 411.77L163.92 411.38L166.08 411.07L168.28 410.85L170.49 410.71L172.74 410.66L174.97 410.71L177.18 410.85ZM169.06 421.44L167.27 421.64L165.48 421.89L163.74 422.22L162 422.61L160.3 423.09L158.63 423.62L156.98 424.22L155.38 424.89L153.8 425.61L152.25 426.4L150.74 427.24L149.27 428.14L147.84 429.1L146.45 430.11L145.1 431.17L143.79 432.29L142.53 433.45L141.32 434.66L140.16 435.92L139.04 437.23L137.97 438.58L136.97 439.97L136 441.4L135.11 442.87L134.27 444.38L133.47 445.93L132.76 447.51L132.09 449.12L131.49 450.75L130.96 452.43L130.5 454.13L130.09 455.87L129.76 457.61L129.5 459.39L129.31 461.19L129.2 463.02L129.16 464.85L129.2 466.7L129.31 468.53L129.5 470.32L129.76 472.11L130.09 473.85L130.5 475.59L130.96 477.29L131.49 478.97L132.09 480.61L132.76 482.21L133.47 483.79L134.27 485.34L135.11 486.85L136 488.32L136.97 489.75L137.97 491.14L139.04 492.49L140.16 493.8L141.32 495.06L142.53 496.27L143.79 497.43L145.1 498.55L146.45 499.62L147.84 500.62L149.27 501.59L150.74 502.48L152.25 503.32L153.8 504.12L155.38 504.83L156.98 505.5L158.63 506.1L160.3 506.63L162 507.09L163.74 507.5L165.48 507.83L167.27 508.09L169.06 508.28L170.89 508.39L172.74 508.43L174.57 508.39L176.38 508.28L178.19 508.09L179.96 507.83L181.71 507.5L183.44 507.11L185.15 506.63L186.81 506.1L188.46 505.5L190.07 504.84L191.65 504.13L193.19 503.35L194.69 502.49L196.16 501.6L197.59 500.65L198.99 499.64L200.33 498.58L201.63 497.46L202.89 496.3L204.1 495.1L205.26 493.84L206.38 492.54L207.44 491.19L208.46 489.8L209.41 488.38L210.32 486.91L211.16 485.4L211.94 483.86L212.67 482.28L213.34 480.68L213.94 479.04L214.47 477.38L214.95 475.67L215.35 473.95L215.69 472.19L215.95 470.42L216.14 468.63L216.26 466.81L216.3 464.97L216.26 463.12L216.15 461.3L215.95 459.5L215.7 457.71L215.37 455.96L214.98 454.23L214.5 452.53L213.97 450.85L213.37 449.2L212.71 447.59L211.98 446.01L211.2 444.46L210.35 442.95L209.45 441.48L208.5 440.04L207.48 438.66L206.42 437.3L205.3 435.99L204.14 434.73L202.93 433.52L201.67 432.36L200.37 431.24L199.03 430.16L197.63 429.16L196.2 428.19L194.72 427.28L193.23 426.44L191.68 425.65L190.1 424.92L188.49 424.26L186.84 423.66L185.16 423.12L183.47 422.64L181.74 422.24L179.98 421.9L178.2 421.65L176.4 421.45L174.57 421.33L172.74 421.29L170.89 421.33L169.06 421.44Z" id="b6h52xtxE"></path><path d="M177.18 410.85L179.38 411.07L181.54 411.38L183.68 411.77L185.78 412.24L187.86 412.79L189.9 413.43L191.9 414.14L193.87 414.93L195.8 415.79L197.69 416.72L199.53 417.72L201.33 418.8L203.1 419.93L204.8 421.13L206.46 422.4L208.07 423.73L209.62 425.12L211.13 426.57L212.57 428.07L213.97 429.63L215.3 431.24L216.56 432.89L217.76 434.61L218.9 436.35L219.97 438.16L220.97 440.02L221.91 441.9L222.76 443.83L223.56 445.8L224.27 447.8L224.9 449.84L225.46 451.91L225.93 454.02L226.33 456.16L226.63 458.33L226.86 460.51L227 462.73L227.04 464.97L226.98 467.2L226.84 469.41L226.62 471.6L226.31 473.77L225.92 475.9L225.43 478.01L224.87 480.07L224.24 482.12L223.53 484.11L222.73 486.09L221.88 488.01L220.94 489.9L219.94 491.75L218.86 493.55L217.73 495.3L216.53 497.02L215.26 498.66L213.93 500.27L212.54 501.84L211.1 503.33L209.59 504.77L208.04 506.17L206.44 507.5L204.77 508.76L203.07 509.96L201.31 511.1L199.52 512.18L197.67 513.17L195.77 514.11L193.86 514.98L191.89 515.76L189.89 516.47L187.85 517.11L185.76 517.67L183.67 518.15L181.53 518.54L179.38 518.86L177.18 519.09L174.97 519.23L172.74 519.27L170.49 519.23L168.28 519.09L166.08 518.86L163.92 518.55L161.79 518.16L159.68 517.69L157.61 517.14L155.57 516.5L153.56 515.79L151.59 515L149.66 514.14L147.77 513.22L145.93 512.21L144.12 511.13L142.36 510L140.66 508.8L139 507.53L137.39 506.2L135.84 504.81L134.33 503.36L132.89 501.87L131.5 500.3L130.18 498.69L128.9 497.04L127.7 495.32L126.57 493.58L125.49 491.77L124.49 489.91L123.55 488.03L122.7 486.1L121.9 484.13L121.19 482.13L120.56 480.09L120 478.02L119.52 475.91L119.13 473.77L118.83 471.6L118.6 469.42L118.48 467.2L118.42 464.97L118.48 462.73L118.6 460.51L118.83 458.33L119.13 456.16L119.52 454.02L120 451.91L120.56 449.84L121.19 447.8L121.9 445.8L122.7 443.83L123.55 441.9L124.49 440.02L125.49 438.16L126.57 436.35L127.7 434.61L128.9 432.89L130.18 431.24L131.5 429.63L132.89 428.07L134.33 426.57L135.84 425.12L137.39 423.73L139 422.4L140.66 421.13L142.36 419.93L144.12 418.8L145.93 417.72L147.77 416.72L149.66 415.79L151.59 414.93L153.56 414.14L155.57 413.43L157.61 412.79L159.68 412.24L161.79 411.77L163.92 411.38L166.08 411.07L168.28 410.85L170.49 410.71L172.74 410.66L174.97 410.71L177.18 410.85ZM169.06 421.44L167.27 421.64L165.48 421.89L163.74 422.22L162 422.61L160.3 423.09L158.63 423.62L156.98 424.22L155.38 424.89L153.8 425.61L152.25 426.4L150.74 427.24L149.27 428.14L147.84 429.1L146.45 430.11L145.1 431.17L143.79 432.29L142.53 433.45L141.32 434.66L140.16 435.92L139.04 437.23L137.97 438.58L136.97 439.97L136 441.4L135.11 442.87L134.27 444.38L133.47 445.93L132.76 447.51L132.09 449.12L131.49 450.75L130.96 452.43L130.5 454.13L130.09 455.87L129.76 457.61L129.5 459.39L129.31 461.19L129.2 463.02L129.16 464.85L129.2 466.7L129.31 468.53L129.5 470.32L129.76 472.11L130.09 473.85L130.5 475.59L130.96 477.29L131.49 478.97L132.09 480.61L132.76 482.21L133.47 483.79L134.27 485.34L135.11 486.85L136 488.32L136.97 489.75L137.97 491.14L139.04 492.49L140.16 493.8L141.32 495.06L142.53 496.27L143.79 497.43L145.1 498.55L146.45 499.62L147.84 500.62L149.27 501.59L150.74 502.48L152.25 503.32L153.8 504.12L155.38 504.83L156.98 505.5L158.63 506.1L160.3 506.63L162 507.09L163.74 507.5L165.48 507.83L167.27 508.09L169.06 508.28L170.89 508.39L172.74 508.43L174.57 508.39L176.38 508.28L178.19 508.09L179.96 507.83L181.71 507.5L183.44 507.11L185.15 506.63L186.81 506.1L188.46 505.5L190.07 504.84L191.65 504.13L193.19 503.35L194.69 502.49L196.16 501.6L197.59 500.65L198.99 499.64L200.33 498.58L201.63 497.46L202.89 496.3L204.1 495.1L205.26 493.84L206.38 492.54L207.44 491.19L208.46 489.8L209.41 488.38L210.32 486.91L211.16 485.4L211.94 483.86L212.67 482.28L213.34 480.68L213.94 479.04L214.47 477.38L214.95 475.67L215.35 473.95L215.69 472.19L215.95 470.42L216.14 468.63L216.26 466.81L216.3 464.97L216.26 463.12L216.15 461.3L215.95 459.5L215.7 457.71L215.37 455.96L214.98 454.23L214.5 452.53L213.97 450.85L213.37 449.2L212.71 447.59L211.98 446.01L211.2 444.46L210.35 442.95L209.45 441.48L208.5 440.04L207.48 438.66L206.42 437.3L205.3 435.99L204.14 434.73L202.93 433.52L201.67 432.36L200.37 431.24L199.03 430.16L197.63 429.16L196.2 428.19L194.72 427.28L193.23 426.44L191.68 425.65L190.1 424.92L188.49 424.26L186.84 423.66L185.16 423.12L183.47 422.64L181.74 422.24L179.98 421.9L178.2 421.65L176.4 421.45L174.57 421.33L172.74 421.29L170.89 421.33L169.06 421.44Z" id="j7VNlegYem"></path><path d="M375.46 459.74L375.67 459.77L375.87 459.81L376.08 459.85L376.27 459.91L376.47 459.98L376.67 460.05L376.86 460.12L377.06 460.2L377.24 460.28L377.42 460.38L377.6 460.49L377.77 460.6L377.94 460.72L378.1 460.84L378.26 460.97L378.43 461.11L378.57 461.25L378.72 461.4L378.86 461.55L378.99 461.71L379.11 461.88L379.24 462.04L379.35 462.23L379.46 462.41L379.56 462.59L379.66 462.78L379.74 462.98L379.82 463.18L379.89 463.37L379.95 463.58L380.01 463.79L380.06 464.01L380.1 464.22L380.13 464.45L380.15 464.66L380.16 464.88L380.17 465.09L380.16 465.31L380.15 465.52L380.13 465.73L380.09 465.94L380.06 466.14L380.01 466.35L379.96 466.54L379.89 466.75L379.82 466.95L379.75 467.13L379.67 467.33L379.57 467.51L379.49 467.69L379.38 467.87L379.26 468.04L379.15 468.21L379.03 468.38L378.9 468.54L378.76 468.7L378.62 468.84L378.47 468.99L378.31 469.13L378.16 469.26L377.99 469.38L377.83 469.51L377.64 469.62L377.46 469.73L377.28 469.83L377.08 469.93L376.89 470.01L376.69 470.1L376.5 470.16L376.29 470.23L376.08 470.29L375.85 470.33L375.8 470.35L375.76 470.35L375.7 470.36L375.64 470.37L375.59 470.37L375.55 470.39L375.49 470.39L375.44 470.4L375.38 470.4L375.32 470.42L375.28 470.42L375.23 470.42L375.17 470.43L375.11 470.43L375.06 470.43L375.02 470.43L374.96 470.43L374.9 470.43L374.85 470.44L374.79 470.44L374.75 470.44L374.69 470.43L374.64 470.43L374.58 470.43L374.53 470.43L374.48 470.43L374.43 470.43L374.37 470.42L374.32 470.42L374.26 470.42L374.22 470.4L374.16 470.4L374.11 470.39L374.05 470.39L374.01 470.37L373.95 470.37L373.9 470.36L373.84 470.35L373.8 470.35L373.74 470.33L221.77 470.33L221.56 470.37L221.34 470.4L221.13 470.42L220.9 470.43L220.69 470.44L220.48 470.43L220.26 470.42L220.05 470.4L219.85 470.37L219.64 470.33L219.43 470.29L219.24 470.23L219.04 470.16L218.85 470.1L218.65 470.03L218.46 469.94L218.27 469.86L218.09 469.76L217.91 469.65L217.74 469.54L217.58 469.42L217.41 469.3L217.25 469.17L217.09 469.03L216.95 468.89L216.79 468.74L216.65 468.59L216.53 468.43L216.4 468.26L216.28 468.1L216.16 467.91L216.05 467.73L215.95 467.55L215.86 467.36L215.77 467.17L215.69 466.96L215.62 466.77L215.56 466.56L215.51 466.35L215.45 466.13L215.41 465.92L215.38 465.69L215.37 465.48L215.35 465.26L215.35 465.05L215.35 464.84L215.37 464.62L215.38 464.41L215.42 464.2L215.45 464L215.51 463.79L215.55 463.6L215.62 463.4L215.69 463.2L215.76 463.01L215.84 462.81L215.94 462.63L216.04 462.45L216.14 462.27L216.25 462.1L216.36 461.93L216.49 461.76L216.61 461.6L216.75 461.44L216.89 461.3L217.04 461.15L217.2 461.01L217.35 460.88L217.52 460.76L217.69 460.63L217.87 460.52L218.05 460.41L218.23 460.31L218.43 460.21L218.62 460.13L218.82 460.05L219.02 459.98L219.22 459.92L219.43 459.85L219.66 459.81L219.71 459.79L219.76 459.79L219.81 459.78L219.87 459.77L219.92 459.77L219.98 459.75L220.02 459.75L220.08 459.74L220.13 459.74L220.19 459.72L220.23 459.72L220.29 459.72L220.34 459.71L220.4 459.71L220.45 459.71L220.5 459.71L220.55 459.71L220.61 459.71L220.66 459.71L220.72 459.71L220.76 459.71L220.82 459.71L220.87 459.71L220.93 459.71L220.99 459.71L221.03 459.71L221.08 459.71L221.14 459.72L221.2 459.72L221.25 459.72L221.29 459.74L221.35 459.74L221.41 459.75L221.46 459.75L221.5 459.77L221.56 459.77L221.62 459.78L221.67 459.79L221.73 459.79L221.77 459.81L373.74 459.81L373.95 459.77L374.18 459.74L374.39 459.72L374.61 459.71L374.82 459.7L375.03 459.71L375.25 459.72L375.46 459.74Z" id="caAn7XlJu"></path><path d="M375.46 459.74L375.67 459.77L375.87 459.81L376.08 459.85L376.27 459.91L376.47 459.98L376.67 460.05L376.86 460.12L377.06 460.2L377.24 460.28L377.42 460.38L377.6 460.49L377.77 460.6L377.94 460.72L378.1 460.84L378.26 460.97L378.43 461.11L378.57 461.25L378.72 461.4L378.86 461.55L378.99 461.71L379.11 461.88L379.24 462.04L379.35 462.23L379.46 462.41L379.56 462.59L379.66 462.78L379.74 462.98L379.82 463.18L379.89 463.37L379.95 463.58L380.01 463.79L380.06 464.01L380.1 464.22L380.13 464.45L380.15 464.66L380.16 464.88L380.17 465.09L380.16 465.31L380.15 465.52L380.13 465.73L380.09 465.94L380.06 466.14L380.01 466.35L379.96 466.54L379.89 466.75L379.82 466.95L379.75 467.13L379.67 467.33L379.57 467.51L379.49 467.69L379.38 467.87L379.26 468.04L379.15 468.21L379.03 468.38L378.9 468.54L378.76 468.7L378.62 468.84L378.47 468.99L378.31 469.13L378.16 469.26L377.99 469.38L377.83 469.51L377.64 469.62L377.46 469.73L377.28 469.83L377.08 469.93L376.89 470.01L376.69 470.1L376.5 470.16L376.29 470.23L376.08 470.29L375.85 470.33L375.8 470.35L375.76 470.35L375.7 470.36L375.64 470.37L375.59 470.37L375.55 470.39L375.49 470.39L375.44 470.4L375.38 470.4L375.32 470.42L375.28 470.42L375.23 470.42L375.17 470.43L375.11 470.43L375.06 470.43L375.02 470.43L374.96 470.43L374.9 470.43L374.85 470.44L374.79 470.44L374.75 470.44L374.69 470.43L374.64 470.43L374.58 470.43L374.53 470.43L374.48 470.43L374.43 470.43L374.37 470.42L374.32 470.42L374.26 470.42L374.22 470.4L374.16 470.4L374.11 470.39L374.05 470.39L374.01 470.37L373.95 470.37L373.9 470.36L373.84 470.35L373.8 470.35L373.74 470.33L221.77 470.33L221.56 470.37L221.34 470.4L221.13 470.42L220.9 470.43L220.69 470.44L220.48 470.43L220.26 470.42L220.05 470.4L219.85 470.37L219.64 470.33L219.43 470.29L219.24 470.23L219.04 470.16L218.85 470.1L218.65 470.03L218.46 469.94L218.27 469.86L218.09 469.76L217.91 469.65L217.74 469.54L217.58 469.42L217.41 469.3L217.25 469.17L217.09 469.03L216.95 468.89L216.79 468.74L216.65 468.59L216.53 468.43L216.4 468.26L216.28 468.1L216.16 467.91L216.05 467.73L215.95 467.55L215.86 467.36L215.77 467.17L215.69 466.96L215.62 466.77L215.56 466.56L215.51 466.35L215.45 466.13L215.41 465.92L215.38 465.69L215.37 465.48L215.35 465.26L215.35 465.05L215.35 464.84L215.37 464.62L215.38 464.41L215.42 464.2L215.45 464L215.51 463.79L215.55 463.6L215.62 463.4L215.69 463.2L215.76 463.01L215.84 462.81L215.94 462.63L216.04 462.45L216.14 462.27L216.25 462.1L216.36 461.93L216.49 461.76L216.61 461.6L216.75 461.44L216.89 461.3L217.04 461.15L217.2 461.01L217.35 460.88L217.52 460.76L217.69 460.63L217.87 460.52L218.05 460.41L218.23 460.31L218.43 460.21L218.62 460.13L218.82 460.05L219.02 459.98L219.22 459.92L219.43 459.85L219.66 459.81L219.71 459.79L219.76 459.79L219.81 459.78L219.87 459.77L219.92 459.77L219.98 459.75L220.02 459.75L220.08 459.74L220.13 459.74L220.19 459.72L220.23 459.72L220.29 459.72L220.34 459.71L220.4 459.71L220.45 459.71L220.5 459.71L220.55 459.71L220.61 459.71L220.66 459.71L220.72 459.71L220.76 459.71L220.82 459.71L220.87 459.71L220.93 459.71L220.99 459.71L221.03 459.71L221.08 459.71L221.14 459.72L221.2 459.72L221.25 459.72L221.29 459.74L221.35 459.74L221.41 459.75L221.46 459.75L221.5 459.77L221.56 459.77L221.62 459.78L221.67 459.79L221.73 459.79L221.77 459.81L373.74 459.81L373.95 459.77L374.18 459.74L374.39 459.72L374.61 459.71L374.82 459.7L375.03 459.71L375.25 459.72L375.46 459.74Z" id="a1rW08m4AU"></path></defs><g><g><g><use xlink:href="#e2sUPOlXHM" opacity="1" fill="#f37738" fill-opacity="1"></use><g><use xlink:href="#e2sUPOlXHM" opacity="1" fill-opacity="0" stroke="#000000" stroke-width="1" stroke-opacity="0"></use></g></g><g><use xlink:href="#d1N3FPvNTz" opacity="1" fill="#000000" fill-opacity="0"></use><g><use xlink:href="#d1N3FPvNTz" opacity="1" fill-opacity="0" stroke="#000000" stroke-width="1" stroke-opacity="0"></use></g></g><g><use xlink:href="#atHtDvoOY" opacity="1" fill="#ffffff" fill-opacity="1"></use><g><use xlink:href="#atHtDvoOY" opacity="1" fill-opacity="0" stroke="#000000" stroke-width="1" stroke-opacity="0"></use></g></g><g><use xlink:href="#j4chv9wNhU" opacity="1" fill="#000000" fill-opacity="0"></use><g><use xlink:href="#j4chv9wNhU" opacity="1" fill-opacity="0" stroke="#000000" stroke-width="1" stroke-opacity="0"></use></g></g><g><use xlink:href="#a7SlAmQ8JN" opacity="1" fill="#ffffff" fill-opacity="1"></use><g><use xlink:href="#a7SlAmQ8JN" opacity="1" fill-opacity="0" stroke="#000000" stroke-width="1" stroke-opacity="0"></use></g></g><g><use xlink:href="#a3OUzAZdIV" opacity="1" fill="#000000" fill-opacity="0"></use><g><use xlink:href="#a3OUzAZdIV" opacity="1" fill-opacity="0" stroke="#000000" stroke-width="1" stroke-opacity="0"></use></g></g><g><use xlink:href="#b8k73kNkhU" opacity="1" fill="#ffffff" fill-opacity="1"></use><g><use xlink:href="#b8k73kNkhU" opacity="1" fill-opacity="0" stroke="#000000" stroke-width="1" stroke-opacity="0"></use></g></g><g><use xlink:href="#bu07VHpq9" opacity="1" fill="#000000" fill-opacity="0"></use><g><use xlink:href="#bu07VHpq9" opacity="1" fill-opacity="0" stroke="#000000" stroke-width="1" stroke-opacity="0"></use></g></g><g><use xlink:href="#b6h52xtxE" opacity="1" fill="#ffffff" fill-opacity="1"></use><g><use xlink:href="#b6h52xtxE" opacity="1" fill-opacity="0" stroke="#000000" stroke-width="1" stroke-opacity="0"></use></g></g><g><use xlink:href="#j7VNlegYem" opacity="1" fill="#000000" fill-opacity="0"></use><g><use xlink:href="#j7VNlegYem" opacity="1" fill-opacity="0" stroke="#000000" stroke-width="1" stroke-opacity="0"></use></g></g><g><use xlink:href="#caAn7XlJu" opacity="1" fill="#ffffff" fill-opacity="1"></use><g><use xlink:href="#caAn7XlJu" opacity="1" fill-opacity="0" stroke="#000000" stroke-width="1" stroke-opacity="0"></use></g></g><g><use xlink:href="#a1rW08m4AU" opacity="1" fill="#000000" fill-opacity="0"></use><g><use xlink:href="#a1rW08m4AU" opacity="1" fill-opacity="0" stroke="#000000" stroke-width="1" stroke-opacity="0"></use></g></g></g></g></svg>