<?xml version="1.0" encoding="UTF-8" standalone="no"?>
<!DOCTYPE svg PUBLIC "-//W3C//DTD SVG 1.1//EN" "http://www.w3.org/Graphics/SVG/1.1/DTD/svg11.dtd">
<svg version="1.1" xmlns="http://www.w3.org/2000/svg" xmlns:xlink="http://www.w3.org/1999/xlink" preserveAspectRatio="xMidYMid meet" viewBox="0 0 640 640" width="640" height="640"><defs><path d="M116.53 523.61L112.22 519.18" id="ca5PbEop6"></path><path d="M116.53 523.61L112.22 519.18" id="j2lt7BZ24R"></path><path d="M270.64 144.31L270.7 144.33L270.78 144.33L270.94 144.36L271.02 144.36L271.08 144.38L271.32 144.43L271.38 144.44L271.54 144.47L271.6 144.5L271.76 144.54L271.82 144.57L271.9 144.58L271.97 144.6L272.05 144.63L272.11 144.66L272.19 144.68L272.27 144.71L272.39 144.77L272.47 144.8L272.53 144.84L272.61 144.87L272.74 144.93L272.82 144.96L272.88 144.99L272.94 145.04L273.02 145.07L368.86 200.29L369.06 200.42L369.47 200.7L369.85 201.02L370.02 201.18L370.18 201.35L370.36 201.52L370.5 201.71L370.66 201.9L370.91 202.28L371.03 202.48L371.26 202.89L371.35 203.12L371.44 203.32L371.52 203.54L371.65 203.98L371.71 204.22L371.76 204.44L371.79 204.68L371.82 204.9L371.85 205.37L371.85 205.61L371.84 205.84L371.82 206.06L371.76 206.54L371.67 207.01L371.6 207.23L371.52 207.47L371.44 207.69L371.35 207.93L371.26 208.15L371.14 208.37L371.02 208.59L370.97 208.65L370.94 208.71L370.89 208.78L370.86 208.84L370.44 209.41L370.39 209.46L370.29 209.58L370.23 209.63L370.18 209.69L369.91 209.96L369.85 210.01L369.74 210.12L369.49 210.31L369.44 210.35L369.19 210.54L369.13 210.58L369.05 210.62L368.98 210.67L368.92 210.7L368.86 210.75L273.13 265.97L273.07 266L272.99 266.05L272.87 266.11L272.79 266.16L272.72 266.19L272.64 266.22L272.58 266.25L272.5 266.28L272.44 266.32L272.36 266.35L272.3 266.38L272.22 266.41L272.16 266.43L272 266.49L271.94 266.51L271.86 266.54L271.7 266.57L271.64 266.6L271.32 266.66L271.26 266.68L270.94 266.74L270.86 266.74L270.78 266.76L270.7 266.76L270.64 266.77L270.56 266.77L270.48 266.79L270.25 266.79L270.17 266.8L270.04 266.92L269.81 266.92L269.55 266.9L269.3 266.87L269.06 266.84L268.59 266.74L268.35 266.68L267.69 266.44L267.47 266.35L266.86 266.02L266.67 265.87L266.48 265.75L266.1 265.46L265.93 265.31L265.77 265.15L265.29 264.63L265.15 264.44L265.03 264.25L264.9 264.04L264.77 263.86L264.66 263.65L264.57 263.43L264.47 263.22L264.38 263L264.3 262.77L264.22 262.55L264.18 262.31L264.11 262.07L264.06 261.84L264.03 261.6L264.02 261.36L263.99 260.86L263.99 150.29L264 150.04L264.02 149.8L264.05 149.55L264.08 149.31L264.18 148.84L264.24 148.6L264.4 148.16L264.59 147.72L264.81 147.31L264.93 147.11L265.18 146.73L265.34 146.54L265.48 146.37L265.64 146.19L265.8 146.03L266.15 145.72L266.32 145.58L266.7 145.29L266.9 145.17L267.52 144.84L267.74 144.74L268.18 144.58L268.42 144.52L268.64 144.46L269.11 144.36L269.36 144.33L269.6 144.31L269.85 144.3L270.41 144.3L270.48 144.31L270.64 144.31ZM353.65 205.64L276.1 160.86L276.1 250.4L353.65 205.64Z" id="aRTy6I5D9"></path><path d="M270.64 144.31L270.7 144.33L270.78 144.33L270.94 144.36L271.02 144.36L271.08 144.38L271.32 144.43L271.38 144.44L271.54 144.47L271.6 144.5L271.76 144.54L271.82 144.57L271.9 144.58L271.97 144.6L272.05 144.63L272.11 144.66L272.19 144.68L272.27 144.71L272.39 144.77L272.47 144.8L272.53 144.84L272.61 144.87L272.74 144.93L272.82 144.96L272.88 144.99L272.94 145.04L273.02 145.07L368.86 200.29L369.06 200.42L369.47 200.7L369.85 201.02L370.02 201.18L370.18 201.35L370.36 201.52L370.5 201.71L370.66 201.9L370.91 202.28L371.03 202.48L371.26 202.89L371.35 203.12L371.44 203.32L371.52 203.54L371.65 203.98L371.71 204.22L371.76 204.44L371.79 204.68L371.82 204.9L371.85 205.37L371.85 205.61L371.84 205.84L371.82 206.06L371.76 206.54L371.67 207.01L371.6 207.23L371.52 207.47L371.44 207.69L371.35 207.93L371.26 208.15L371.14 208.37L371.02 208.59L370.97 208.65L370.94 208.71L370.89 208.78L370.86 208.84L370.44 209.41L370.39 209.46L370.29 209.58L370.23 209.63L370.18 209.69L369.91 209.96L369.85 210.01L369.74 210.12L369.49 210.31L369.44 210.35L369.19 210.54L369.13 210.58L369.05 210.62L368.98 210.67L368.92 210.7L368.86 210.75L273.13 265.97L273.07 266L272.99 266.05L272.87 266.11L272.79 266.16L272.72 266.19L272.64 266.22L272.58 266.25L272.5 266.28L272.44 266.32L272.36 266.35L272.3 266.38L272.22 266.41L272.16 266.43L272 266.49L271.94 266.51L271.86 266.54L271.7 266.57L271.64 266.6L271.32 266.66L271.26 266.68L270.94 266.74L270.86 266.74L270.78 266.76L270.7 266.76L270.64 266.77L270.56 266.77L270.48 266.79L270.25 266.79L270.17 266.8L270.04 266.92L269.81 266.92L269.55 266.9L269.3 266.87L269.06 266.84L268.59 266.74L268.35 266.68L267.69 266.44L267.47 266.35L266.86 266.02L266.67 265.87L266.48 265.75L266.1 265.46L265.93 265.31L265.77 265.15L265.29 264.63L265.15 264.44L265.03 264.25L264.9 264.04L264.77 263.86L264.66 263.65L264.57 263.43L264.47 263.22L264.38 263L264.3 262.77L264.22 262.55L264.18 262.31L264.11 262.07L264.06 261.84L264.03 261.6L264.02 261.36L263.99 260.86L263.99 150.29L264 150.04L264.02 149.8L264.05 149.55L264.08 149.31L264.18 148.84L264.24 148.6L264.4 148.16L264.59 147.72L264.81 147.31L264.93 147.11L265.18 146.73L265.34 146.54L265.48 146.37L265.64 146.19L265.8 146.03L266.15 145.72L266.32 145.58L266.7 145.29L266.9 145.17L267.52 144.84L267.74 144.74L268.18 144.58L268.42 144.52L268.64 144.46L269.11 144.36L269.36 144.33L269.6 144.31L269.85 144.3L270.41 144.3L270.48 144.31L270.64 144.31ZM353.65 205.64L276.1 160.86L276.1 250.4L353.65 205.64Z" id="a24i7I6gaa"></path><path d="M362.49 531.31L362.72 531.34L362.94 531.39L363.18 531.44L363.4 531.5L363.62 531.58L363.84 531.66L364.06 531.74L364.28 531.83L364.49 531.93L364.69 532.04L364.9 532.16L365.09 532.29L365.28 532.42L365.47 532.56L365.64 532.7L365.83 532.86L365.99 533.01L366.16 533.19L366.32 533.36L366.46 533.54L366.6 533.72L366.74 533.91L366.87 534.12L367 534.32L367.11 534.53L367.22 534.75L367.31 534.97L367.41 535.19L367.49 535.41L367.55 535.65L367.61 535.89L367.67 536.14L367.72 536.37L367.75 536.63L367.77 536.86L367.79 537.12L367.8 537.35L367.79 537.6L367.77 537.84L367.75 538.08L367.71 538.31L367.67 538.53L367.61 538.77L367.56 538.99L367.49 539.23L367.41 539.45L367.33 539.65L367.23 539.88L367.12 540.08L367.03 540.29L366.9 540.49L366.78 540.68L366.65 540.87L366.51 541.06L366.37 541.25L366.21 541.42L366.05 541.58L365.88 541.75L365.7 541.91L365.53 542.05L365.34 542.19L365.15 542.34L364.95 542.46L364.74 542.59L364.54 542.7L364.32 542.81L364.09 542.9L363.87 543L363.65 543.08L363.42 543.16L363.18 543.22L362.93 543.27L362.86 543.28L362.82 543.28L362.75 543.3L362.69 543.31L362.63 543.31L362.58 543.33L362.52 543.33L362.45 543.35L362.39 543.35L362.33 543.36L362.28 543.36L362.22 543.36L362.15 543.38L362.09 543.38L362.03 543.38L361.98 543.38L361.92 543.38L361.85 543.38L361.79 543.39L361.73 543.39L361.68 543.39L361.62 543.38L361.56 543.38L361.49 543.38L361.43 543.38L361.38 543.38L361.32 543.38L361.26 543.36L361.19 543.36L361.13 543.36L361.08 543.35L361.02 543.35L360.96 543.33L360.89 543.33L360.85 543.31L360.78 543.31L360.72 543.3L360.66 543.28L360.61 543.28L360.55 543.27L189.05 543.27L188.81 543.31L188.56 543.35L188.32 543.36L188.07 543.38L187.84 543.39L187.6 543.38L187.35 543.36L187.11 543.35L186.89 543.31L186.65 543.27L186.42 543.22L186.2 543.16L185.97 543.08L185.75 543L185.53 542.92L185.31 542.83L185.11 542.73L184.9 542.62L184.7 542.49L184.51 542.37L184.32 542.24L184.13 542.1L183.96 541.96L183.77 541.8L183.61 541.64L183.44 541.47L183.28 541.3L183.14 541.12L182.99 540.93L182.85 540.74L182.73 540.54L182.6 540.33L182.49 540.13L182.38 539.91L182.28 539.7L182.19 539.47L182.11 539.24L182.05 539.01L181.98 538.77L181.92 538.52L181.87 538.28L181.84 538.03L181.83 537.79L181.81 537.54L181.81 537.3L181.81 537.07L181.83 536.82L181.84 536.58L181.89 536.34L181.92 536.12L181.98 535.89L182.03 535.66L182.11 535.44L182.19 535.22L182.27 535L182.36 534.78L182.47 534.58L182.58 534.37L182.69 534.17L182.82 533.98L182.95 533.79L183.09 533.6L183.23 533.41L183.39 533.24L183.55 533.08L183.72 532.9L183.89 532.75L184.07 532.6L184.26 532.46L184.44 532.32L184.65 532.19L184.85 532.07L185.06 531.96L185.28 531.85L185.5 531.75L185.72 531.66L185.94 531.58L186.18 531.52L186.42 531.44L186.67 531.39L186.73 531.37L186.78 531.37L186.84 531.36L186.91 531.34L186.97 531.34L187.03 531.33L187.08 531.33L187.14 531.31L187.2 531.31L187.27 531.3L187.32 531.3L187.38 531.3L187.44 531.28L187.5 531.28L187.57 531.28L187.61 531.28L187.68 531.28L187.74 531.28L187.8 531.28L187.87 531.28L187.91 531.28L187.98 531.28L188.04 531.28L188.1 531.28L188.17 531.28L188.21 531.28L188.28 531.28L188.34 531.3L188.4 531.3L188.47 531.3L188.51 531.31L188.58 531.31L188.64 531.33L188.7 531.33L188.75 531.34L188.81 531.34L188.88 531.36L188.94 531.37L189 531.37L189.05 531.39L360.55 531.39L360.78 531.34L361.03 531.31L361.27 531.3L361.52 531.28L361.76 531.26L362 531.28L362.25 531.3L362.49 531.31Z" id="a8fp6Ej3YB"></path><path d="M362.49 531.31L362.72 531.34L362.94 531.39L363.18 531.44L363.4 531.5L363.62 531.58L363.84 531.66L364.06 531.74L364.28 531.83L364.49 531.93L364.69 532.04L364.9 532.16L365.09 532.29L365.28 532.42L365.47 532.56L365.64 532.7L365.83 532.86L365.99 533.01L366.16 533.19L366.32 533.36L366.46 533.54L366.6 533.72L366.74 533.91L366.87 534.12L367 534.32L367.11 534.53L367.22 534.75L367.31 534.97L367.41 535.19L367.49 535.41L367.55 535.65L367.61 535.89L367.67 536.14L367.72 536.37L367.75 536.63L367.77 536.86L367.79 537.12L367.8 537.35L367.79 537.6L367.77 537.84L367.75 538.08L367.71 538.31L367.67 538.53L367.61 538.77L367.56 538.99L367.49 539.23L367.41 539.45L367.33 539.65L367.23 539.88L367.12 540.08L367.03 540.29L366.9 540.49L366.78 540.68L366.65 540.87L366.51 541.06L366.37 541.25L366.21 541.42L366.05 541.58L365.88 541.75L365.7 541.91L365.53 542.05L365.34 542.19L365.15 542.34L364.95 542.46L364.74 542.59L364.54 542.7L364.32 542.81L364.09 542.9L363.87 543L363.65 543.08L363.42 543.16L363.18 543.22L362.93 543.27L362.86 543.28L362.82 543.28L362.75 543.3L362.69 543.31L362.63 543.31L362.58 543.33L362.52 543.33L362.45 543.35L362.39 543.35L362.33 543.36L362.28 543.36L362.22 543.36L362.15 543.38L362.09 543.38L362.03 543.38L361.98 543.38L361.92 543.38L361.85 543.38L361.79 543.39L361.73 543.39L361.68 543.39L361.62 543.38L361.56 543.38L361.49 543.38L361.43 543.38L361.38 543.38L361.32 543.38L361.26 543.36L361.19 543.36L361.13 543.36L361.08 543.35L361.02 543.35L360.96 543.33L360.89 543.33L360.85 543.31L360.78 543.31L360.72 543.3L360.66 543.28L360.61 543.28L360.55 543.27L189.05 543.27L188.81 543.31L188.56 543.35L188.32 543.36L188.07 543.38L187.84 543.39L187.6 543.38L187.35 543.36L187.11 543.35L186.89 543.31L186.65 543.27L186.42 543.22L186.2 543.16L185.97 543.08L185.75 543L185.53 542.92L185.31 542.83L185.11 542.73L184.9 542.62L184.7 542.49L184.51 542.37L184.32 542.24L184.13 542.1L183.96 541.96L183.77 541.8L183.61 541.64L183.44 541.47L183.28 541.3L183.14 541.12L182.99 540.93L182.85 540.74L182.73 540.54L182.6 540.33L182.49 540.13L182.38 539.91L182.28 539.7L182.19 539.47L182.11 539.24L182.05 539.01L181.98 538.77L181.92 538.52L181.87 538.28L181.84 538.03L181.83 537.79L181.81 537.54L181.81 537.3L181.81 537.07L181.83 536.82L181.84 536.58L181.89 536.34L181.92 536.12L181.98 535.89L182.03 535.66L182.11 535.44L182.19 535.22L182.27 535L182.36 534.78L182.47 534.58L182.58 534.37L182.69 534.17L182.82 533.98L182.95 533.79L183.09 533.6L183.23 533.41L183.39 533.24L183.55 533.08L183.72 532.9L183.89 532.75L184.07 532.6L184.26 532.46L184.44 532.32L184.65 532.19L184.85 532.07L185.06 531.96L185.28 531.85L185.5 531.75L185.72 531.66L185.94 531.58L186.18 531.52L186.42 531.44L186.67 531.39L186.73 531.37L186.78 531.37L186.84 531.36L186.91 531.34L186.97 531.34L187.03 531.33L187.08 531.33L187.14 531.31L187.2 531.31L187.27 531.3L187.32 531.3L187.38 531.3L187.44 531.28L187.5 531.28L187.57 531.28L187.61 531.28L187.68 531.28L187.74 531.28L187.8 531.28L187.87 531.28L187.91 531.28L187.98 531.28L188.04 531.28L188.1 531.28L188.17 531.28L188.21 531.28L188.28 531.28L188.34 531.3L188.4 531.3L188.47 531.3L188.51 531.31L188.58 531.31L188.64 531.33L188.7 531.33L188.75 531.34L188.81 531.34L188.88 531.36L188.94 531.37L189 531.37L189.05 531.39L360.55 531.39L360.78 531.34L361.03 531.31L361.27 531.3L361.52 531.28L361.76 531.26L362 531.28L362.25 531.3L362.49 531.31Z" id="a146u70qT9"></path><path d="M0 322.14C0 497.68 142.32 640 317.88 640C493.43 640 635.75 497.68 635.75 322.14C635.75 146.59 493.43 4.27 317.88 4.27C142.32 4.27 0 146.59 0 322.14Z" id="c5tw1Fr5t"></path><path d="M0 322.14C0 497.68 142.32 640 317.88 640C493.43 640 635.75 497.68 635.75 322.14C635.75 146.59 493.43 4.27 317.88 4.27C142.32 4.27 0 146.59 0 322.14Z" id="b2g4PJOmeP"></path><path d="M323.76 229.91L323.76 309.94L452.89 309.94L452.89 414.99L477.5 414.99L477.5 482.27L410.2 482.27L410.2 414.56L434.69 414.56L434.69 328.13L323.76 328.13L323.76 414.99L348.37 414.99L348.37 482.27L281.07 482.27L281.07 414.56L305.67 414.56L305.67 328.13L201.05 328.13L201.05 414.99L225.55 414.99L225.55 482.27L158.26 482.27L158.26 414.56L182.87 414.56L182.87 309.94L305.67 309.94L305.67 229.91L281.07 229.91L281.07 162.63L348.37 162.63L348.37 229.91L323.76 229.91ZM331.13 464.09L331.13 433.17L300.22 432.65L300.22 464.09L331.13 464.09ZM459.3 464.09L459.3 433.17L428.38 432.65L428.38 464.09L459.3 464.09ZM208.31 464.09L208.31 433.17L177.39 432.65L177.39 464.09L208.31 464.09Z" id="a8JJLQPbX"></path><path d="M323.76 229.91L323.76 309.94L452.89 309.94L452.89 414.99L477.5 414.99L477.5 482.27L410.2 482.27L410.2 414.56L434.69 414.56L434.69 328.13L323.76 328.13L323.76 414.99L348.37 414.99L348.37 482.27L281.07 482.27L281.07 414.56L305.67 414.56L305.67 328.13L201.05 328.13L201.05 414.99L225.55 414.99L225.55 482.27L158.26 482.27L158.26 414.56L182.87 414.56L182.87 309.94L305.67 309.94L305.67 229.91L281.07 229.91L281.07 162.63L348.37 162.63L348.37 229.91L323.76 229.91ZM331.13 464.09L331.13 433.17L300.22 432.65L300.22 464.09L331.13 464.09ZM459.3 464.09L459.3 433.17L428.38 432.65L428.38 464.09L459.3 464.09ZM208.31 464.09L208.31 433.17L177.39 432.65L177.39 464.09L208.31 464.09Z" id="cW2mD0rQz"></path></defs><g><g><g><use xlink:href="#ca5PbEop6" opacity="1" fill="#000000" fill-opacity="0"></use><g><use xlink:href="#ca5PbEop6" opacity="1" fill-opacity="0" stroke="#000000" stroke-width="1" stroke-opacity="0"></use></g></g><g><use xlink:href="#j2lt7BZ24R" opacity="1" fill="#000000" fill-opacity="0"></use><g><use xlink:href="#j2lt7BZ24R" opacity="1" fill-opacity="0" stroke="#000000" stroke-width="1" stroke-opacity="0"></use></g></g><g><use xlink:href="#aRTy6I5D9" opacity="1" fill="#ffffff" fill-opacity="1"></use><g><use xlink:href="#aRTy6I5D9" opacity="1" fill-opacity="0" stroke="#000000" stroke-width="1" stroke-opacity="0"></use></g></g><g><use xlink:href="#a24i7I6gaa" opacity="1" fill="#000000" fill-opacity="0"></use><g><use xlink:href="#a24i7I6gaa" opacity="1" fill-opacity="0" stroke="#000000" stroke-width="1" stroke-opacity="0"></use></g></g><g><use xlink:href="#a8fp6Ej3YB" opacity="1" fill="#ffffff" fill-opacity="1"></use><g><use xlink:href="#a8fp6Ej3YB" opacity="1" fill-opacity="0" stroke="#000000" stroke-width="1" stroke-opacity="0"></use></g></g><g><use xlink:href="#a146u70qT9" opacity="1" fill="#000000" fill-opacity="0"></use><g><use xlink:href="#a146u70qT9" opacity="1" fill-opacity="0" stroke="#000000" stroke-width="1" stroke-opacity="0"></use></g></g><g><use xlink:href="#c5tw1Fr5t" opacity="1" fill="#f3783a" fill-opacity="1"></use><g><use xlink:href="#c5tw1Fr5t" opacity="1" fill-opacity="0" stroke="#000000" stroke-width="1" stroke-opacity="0"></use></g></g><g><use xlink:href="#b2g4PJOmeP" opacity="1" fill="#000000" fill-opacity="0"></use><g><use xlink:href="#b2g4PJOmeP" opacity="1" fill-opacity="0" stroke="#000000" stroke-width="1" stroke-opacity="0"></use></g></g><g><use xlink:href="#a8JJLQPbX" opacity="1" fill="#ffffff" fill-opacity="1"></use><g><use xlink:href="#a8JJLQPbX" opacity="1" fill-opacity="0" stroke="#000000" stroke-width="1" stroke-opacity="0"></use></g></g><g><use xlink:href="#cW2mD0rQz" opacity="1" fill="#000000" fill-opacity="0"></use><g><use xlink:href="#cW2mD0rQz" opacity="1" fill-opacity="0" stroke="#000000" stroke-width="1" stroke-opacity="0"></use></g></g></g></g></svg>