<?xml version="1.0" encoding="UTF-8"?>
<svg width="48px" height="48px" viewBox="0 0 48 48" version="1.1" xmlns="http://www.w3.org/2000/svg" xmlns:xlink="http://www.w3.org/1999/xlink">
    <title>document--unprotected</title>
    <g id="V2-Icons" stroke="none" stroke-width="1" fill="none" fill-rule="evenodd">
        <g id="IBM-/-Cloud-/-Security" transform="translate(-792, -14)">
            <g id="document--unprotected" transform="translate(792, 14)">
                <rect id="Rectangle" fill="#FA4D56" x="0" y="0" width="48" height="48"></rect>
                <path d="M29.62425,18.81375 L24.53025,13.71975 C24.3896305,13.579088 24.1988961,13.5 24,13.5 L16.5,13.5 C15.6725645,13.5023892 15.0023892,14.1725645 15,15 L15,33 C15.0023892,33.8274355 15.6725645,34.4976108 16.5,34.5 L22.5,34.5 L22.5,33 L16.5,33 L16.5,15 L22.5,15 L22.5,19.5 C22.5009506,20.3280331 23.1719669,20.9990494 24,21 L28.719,21 C29.2369499,20.9999182 29.7038528,20.6878475 29.9020031,20.2092991 C30.1001533,19.7307507 29.9905308,19.1799609 29.62425,18.81375 Z M24,19.5 L24,15.310575 L28.18905,19.5 L24,19.5 Z" id="Shape" fill="#FFFFFF" fill-rule="nonzero"></path>
                <path d="M33,27.75 L28.5,27.75 L28.5,25.5 C28.5,24.6715729 29.1715729,24 30,24 C30.8284271,24 31.5,24.6715729 31.5,25.5 L33,25.5 C33,23.8431458 31.6568542,22.5 30,22.5 C28.3431458,22.5 27,23.8431458 27,25.5 L27,27.75 C26.1720012,27.7510331 25.5010331,28.4220012 25.5,29.25 L25.5,33 C25.5010331,33.8279988 26.1720012,34.4989669 27,34.5 L33,34.5 C33.8279988,34.4989669 34.4989669,33.8279988 34.5,33 L34.5,29.25 C34.4989669,28.4220012 33.8279988,27.7510331 33,27.75 Z M27,33 L27,29.25 L33,29.25 L33,33 L27,33 Z" id="Shape" fill="#FFFFFF" fill-rule="nonzero"></path>
                <rect id="_Transparent_Rectangle_" x="12" y="12" width="24" height="24"></rect>
            </g>
        </g>
    </g>
</svg>