<?xml version="1.0" encoding="UTF-8" standalone="no"?>
<!DOCTYPE svg PUBLIC "-//W3C//DTD SVG 1.1//EN" "http://www.w3.org/Graphics/SVG/1.1/DTD/svg11.dtd">
<svg version="1.1" xmlns="http://www.w3.org/2000/svg" xmlns:xlink="http://www.w3.org/1999/xlink" preserveAspectRatio="xMidYMid meet" viewBox="0 0 640 640" width="640" height="640"><defs><path d="M3.97 320.53C3.97 493.74 144.24 634.14 317.3 634.14C490.35 634.14 630.65 493.74 630.65 320.53C630.65 147.32 490.35 6.9 317.3 6.9C144.24 6.9 3.97 147.32 3.97 320.53Z" id="eYm1cEfUe"></path><path d="M3.97 320.53C3.97 493.74 144.24 634.14 317.3 634.14C490.35 634.14 630.65 493.74 630.65 320.53C630.65 147.32 490.35 6.9 317.3 6.9C144.24 6.9 3.97 147.32 3.97 320.53Z" id="a58ak3XERO"></path><path d="M265.22 258.12L265.47 258.14L265.72 258.14L267.23 258.24L267.46 258.26L267.71 258.27L267.96 258.31L268.21 258.32L268.46 258.36L268.71 258.37L268.95 258.41L269.95 258.54L270.18 258.57L270.94 258.67L271.17 258.73L271.42 258.76L271.67 258.81L271.9 258.86L272.15 258.89L272.41 258.94L272.64 258.99L273.14 259.09L273.84 259.24L274.06 259.31L274.53 259.41L274.74 259.48L274.98 259.54L275.21 259.59L275.43 259.66L275.66 259.73L275.88 259.81L276.1 259.88L276.33 259.95L276.55 260.03L276.77 260.1L277 260.18L278.09 260.6L278.3 260.7L278.52 260.78L278.74 260.88L278.95 260.97L279.39 261.17L279.59 261.27L279.81 261.37L280.01 261.48L280.22 261.58L280.44 261.7L280.64 261.8L280.84 261.92L281.06 262.04L282.06 262.62L282.43 262.86L282.61 262.99L282.8 263.11L282.98 263.24L283.16 263.36L283.33 263.49L283.52 263.62L283.68 263.76L283.87 263.89L284.03 264.04L284.2 264.18L284.37 264.33L284.53 264.46L284.87 264.76L285.02 264.91L285.19 265.06L285.34 265.21L285.49 265.38L285.8 265.7L285.94 265.85L286.39 266.35L286.66 266.68L286.81 266.87L287.07 267.2L287.21 267.39L287.33 267.57L287.46 267.76L287.59 267.92L287.71 268.11L287.83 268.31L287.94 268.49L288.08 268.69L288.19 268.91L288.31 269.11L288.41 269.33L288.53 269.54L289.03 270.63L289.11 270.85L289.2 271.08L289.36 271.52L289.45 271.75L289.51 271.97L289.71 272.67L289.76 272.89L289.83 273.12L289.98 273.83L290.01 274.06L290.07 274.29L290.1 274.53L290.13 274.78L290.15 275.01L290.18 275.25L290.2 275.48L290.22 275.73L290.25 276.2L290.27 276.45L290.27 277.17L290.25 277.4L290.25 312.02L290.23 312.14L290.23 312.64L290.25 312.74L290.25 312.96L290.27 313.06L290.27 313.16L290.42 314.06L290.45 314.16L290.47 314.26L290.5 314.36L290.52 314.46L290.55 314.56L290.58 314.64L290.62 314.74L290.63 314.85L290.67 314.95L290.72 315.05L290.75 315.13L290.82 315.33L290.87 315.41L290.9 315.51L290.95 315.61L290.98 315.7L291.13 315.9L291.2 315.95L291.25 316.02L291.3 316.07L291.44 316.17L291.49 316.22L291.75 316.42L291.89 316.48L291.95 316.53L292.15 316.63L292.24 316.67L292.3 316.68L292.39 316.72L292.45 316.75L292.54 316.77L292.6 316.79L292.69 316.8L292.75 316.82L292.92 316.85L292.99 316.87L293.16 316.87L293.24 316.89L293.47 316.89L293.56 316.87L293.64 316.87L293.71 316.85L296.01 316.33L298.12 316.33L298.12 326.82L296.13 327.35L293.61 327.87L288.9 327.87L288.7 327.89L288.09 327.89L287.89 327.87L287.69 327.87L287.49 327.86L287.29 327.86L287.11 327.84L286.91 327.82L286.71 327.79L286.51 327.77L286.31 327.74L286.12 327.7L285.72 327.64L285.54 327.6L285.34 327.57L285.14 327.52L284.95 327.47L284.75 327.42L284.38 327.32L284.18 327.27L283.82 327.14L283.62 327.07L283.06 326.87L282.88 326.79L282.7 326.72L282.33 326.55L282.16 326.47L281.98 326.37L281.79 326.28L281.63 326.18L281.44 326.08L281.29 325.98L281.13 325.87L280.98 325.75L280.81 325.61L280.66 325.5L280.51 325.36L280.37 325.23L280.22 325.1L279.96 324.83L279.82 324.68L279.69 324.54L279.56 324.39L279.44 324.24L279.32 324.08L279.09 323.78L278.99 323.61L278.87 323.44L278.67 323.11L278.59 322.94L278.49 322.77L278.4 322.6L278.32 322.42L278.24 322.25L277.9 321.33L277.85 321.15L277.8 320.95L277.7 320.58L277.63 320.18L277.6 320L277.57 319.8L277.35 320.01L276.88 320.45L276.65 320.65L276.4 320.87L276.16 321.07L275.91 321.27L275.68 321.47L275.43 321.67L274.68 322.22L274.41 322.4L274.16 322.59L273.89 322.77L273.64 322.94L272.84 323.44L272.56 323.59L272.29 323.76L272.02 323.91L271.74 324.06L271.47 324.21L271.19 324.34L270.9 324.49L270.33 324.76L270.05 324.88L269.75 325.01L269.18 325.25L268.58 325.48L268.3 325.58L267.99 325.7L267.39 325.9L267.09 325.98L266.77 326.08L266.47 326.17L266.17 326.27L265.86 326.35L265.56 326.43L265.24 326.52L264.94 326.58L264.62 326.67L264.32 326.75L263.68 326.89L263.38 326.95L262.75 327.09L262.45 327.14L262.13 327.2L260.86 327.4L260.56 327.45L260.24 327.5L259.92 327.54L259.61 327.59L258.66 327.69L258.34 327.7L257.7 327.77L257.39 327.79L257.05 327.81L256.1 327.86L255.78 327.86L255.46 327.87L254.14 327.87L253.93 327.86L253.71 327.86L253.48 327.84L253.26 327.84L253.04 327.82L252.81 327.81L252.37 327.77L252.14 327.75L251.92 327.74L251.7 327.7L251.47 327.69L251.25 327.65L251.04 327.64L250.8 327.6L249.93 327.47L249.7 327.44L249.48 327.4L249.27 327.35L249.05 327.32L248.4 327.17L248.18 327.14L247.96 327.07L247.31 326.92L247.09 326.85L246.88 326.8L246.66 326.73L246.44 326.68L246.22 326.62L246.02 326.55L245.82 326.5L245.42 326.37L245.24 326.3L244.64 326.1L244.45 326.03L244.25 325.95L244.05 325.88L243.87 325.8L243.67 325.71L243.3 325.55L243.1 325.46L242.55 325.21L242.35 325.11L242.16 325.01L241.98 324.93L241.43 324.63L241.26 324.53L241.08 324.43L240.9 324.31L240.71 324.21L240.54 324.09L240.36 323.99L240.19 323.88L240.01 323.76L239.51 323.41L239.32 323.29L239.16 323.17L238.99 323.04L238.82 322.92L238.67 322.81L238.51 322.67L238.36 322.55L238.21 322.42L238.04 322.29L237.59 321.89L237.45 321.73L237.15 321.47L237.02 321.32L236.74 321.03L236.2 320.43L236.07 320.26L235.93 320.11L235.82 319.96L235.68 319.8L235.57 319.64L234.86 318.64L234.66 318.31L234.55 318.12L234.35 317.79L234.15 317.42L234.06 317.25L233.96 317.07L233.86 316.87L233.76 316.65L233.68 316.45L233.58 316.25L233.49 316.03L233.41 315.83L233.33 315.61L233.24 315.41L233.18 315.2L233.09 314.98L233.03 314.78L232.94 314.56L232.88 314.34L232.83 314.13L232.69 313.69L232.39 312.39L232.36 312.15L232.29 311.72L232.26 311.48L232.19 311.05L232.17 310.82L232.14 310.6L232.12 310.38L232.11 310.15L232.09 309.93L232.09 309.69L232.07 309.48L232.07 308.57L232.04 308.01L232.04 307.72L232.02 307.45L232.02 306.89L232.04 306.62L232.04 306.33L232.06 306.05L232.07 305.78L232.11 305.5L232.12 305.23L232.16 304.95L232.19 304.68L232.22 304.39L232.27 304.13L232.31 303.84L232.36 303.57L232.42 303.31L232.47 303.04L232.54 302.76L232.59 302.49L232.68 302.22L232.81 301.68L232.98 301.15L233.06 300.9L233.26 300.36L233.36 300.11L233.46 299.85L233.56 299.59L233.68 299.33L233.78 299.08L233.89 298.83L234.03 298.57L234.15 298.32L234.28 298.07L234.38 297.89L234.96 296.97L235.1 296.79L235.21 296.62L235.35 296.43L235.62 296.1L235.75 295.92L236.02 295.58L236.17 295.43L236.3 295.26L236.45 295.1L236.6 294.95L236.75 294.78L237.05 294.48L237.22 294.33L237.37 294.18L237.54 294.03L237.69 293.89L237.85 293.74L238.19 293.47L238.36 293.32L238.52 293.19L238.71 293.07L238.87 292.94L239.06 292.81L239.22 292.69L239.41 292.55L239.96 292.2L240.14 292.1L240.54 291.87L240.73 291.75L240.93 291.65L241.13 291.53L242.13 291.03L242.35 290.93L242.55 290.83L242.75 290.75L242.95 290.65L243.17 290.56L243.37 290.48L243.59 290.4L243.79 290.31L244 290.23L244.2 290.15L244.64 289.98L244.84 289.91L245.06 289.83L245.92 289.56L246.12 289.49L246.34 289.43L246.56 289.38L246.78 289.31L247.01 289.26L247.23 289.19L248.1 288.99L248.33 288.94L248.4 288.93L248.48 288.91L248.68 288.88L248.8 288.84L249.07 288.78L249.22 288.72L249.37 288.69L249.7 288.59L249.88 288.56L250.07 288.51L250.27 288.46L250.47 288.39L250.9 288.29L251.37 288.19L251.62 288.12L252.12 288.02L252.39 287.97L252.67 287.92L252.94 287.87L253.23 287.82L253.53 287.79L253.83 287.74L254.13 287.7L254.43 287.65L255.06 287.59L255.4 287.57L255.71 287.54L256.07 287.52L256.73 287.49L257.08 287.49L257.44 287.47L257.64 287.44L257.82 287.4L258.02 287.37L258.2 287.34L258.61 287.27L258.79 287.24L258.99 287.2L259.17 287.17L259.37 287.14L259.56 287.1L259.76 287.07L259.94 287.04L260.14 287.02L260.33 286.99L260.73 286.92L260.91 286.9L261.11 286.87L261.29 286.84L261.5 286.82L261.7 286.79L261.88 286.77L262.08 286.73L262.26 286.72L262.46 286.68L262.66 286.67L262.85 286.65L263.05 286.62L263.23 286.6L263.63 286.57L263.82 286.53L264.22 286.5L264.4 286.48L264.8 286.45L264.99 286.43L265.49 286.38L265.64 286.37L266.14 286.32L266.29 286.3L266.79 286.25L266.94 286.23L267.11 286.2L267.28 286.18L267.43 286.17L267.59 286.13L267.76 286.12L267.91 286.08L268.08 286.07L268.25 286.03L268.4 286L268.56 285.98L268.73 285.95L268.88 285.92L269.21 285.85L269.36 285.82L269.53 285.8L269.68 285.77L269.85 285.71L270 285.68L270.33 285.61L270.48 285.58L270.65 285.55L270.8 285.5L270.97 285.46L271.12 285.41L271.29 285.38L271.4 285.35L271.54 285.31L271.65 285.28L271.79 285.25L271.9 285.2L272.04 285.16L272.15 285.11L272.27 285.08L272.41 285.03L272.76 284.88L272.89 284.83L273.24 284.68L273.36 284.61L273.47 284.56L273.59 284.49L273.69 284.43L273.93 284.29L274.03 284.23L274.26 284.09L274.36 284.03L274.48 283.96L274.58 283.88L274.68 283.81L274.79 283.72L274.99 283.56L275.1 283.49L275.3 283.32L275.4 283.22L275.6 283.06L275.68 282.97L275.76 282.86L275.86 282.76L275.95 282.65L276.01 282.54L276.1 282.44L276.18 282.32L276.25 282.22L276.58 281.63L276.63 281.52L276.7 281.4L276.75 281.27L276.85 281.03L276.9 280.9L276.93 280.78L276.98 280.65L277.02 280.51L277.05 280.4L277.12 280.13L277.15 280.01L277.17 279.88L277.2 279.75L277.27 279.21L277.27 278.94L277.28 278.81L277.28 278.54L277.27 278.41L277.27 278.27L277.25 278.14L277.27 278.01L277.27 277.64L277.25 277.5L277.25 277.39L277.23 277.25L277.23 277.14L277.22 277L277.2 276.89L277.18 276.75L277.15 276.52L277.12 276.38L277.1 276.27L277.07 276.15L277.03 276.02L277.02 275.9L276.98 275.78L276.93 275.66L276.9 275.53L276.87 275.41L276.82 275.3L276.78 275.18L276.63 274.83L276.58 274.73L276.48 274.49L276.42 274.38L276.36 274.28L276.3 274.16L276.23 274.06L276.16 273.94L276.1 273.84L276.03 273.72L275.9 273.52L275.83 273.44L275.76 273.34L275.68 273.26L275.55 273.09L275.46 273.01L275.4 272.92L275.31 272.84L275.25 272.76L274.84 272.35L274.76 272.29L274.68 272.2L274.51 272.07L274.43 271.99L274.34 271.92L274.24 271.85L274.08 271.72L273.98 271.65L273.81 271.52L273.71 271.45L273.61 271.4L273.52 271.33L273.42 271.28L273.32 271.22L273.24 271.17L273.14 271.1L272.44 270.75L272.32 270.7L272.22 270.65L272.1 270.6L272 270.56L271.89 270.51L271.79 270.46L271.67 270.43L271.55 270.38L271.45 270.35L271.34 270.3L271.24 270.26L271.12 270.23L271 270.18L270.9 270.15L270.55 270.05L270.45 270.01L269.98 269.88L269.88 269.86L269.65 269.8L269.53 269.78L269.41 269.75L269.3 269.73L269.18 269.69L268.83 269.64L268.71 269.61L268.13 269.53L263.25 269.53L262.68 269.49L262.11 269.49L261.83 269.51L261.55 269.51L261.28 269.53L260.99 269.54L260.71 269.58L260.44 269.59L260.16 269.63L259.87 269.68L259.61 269.71L259.32 269.76L259.06 269.81L258.77 269.86L258.5 269.91L258.22 269.98L257.42 270.18L256.35 270.51L256.08 270.61L255.83 270.71L255.3 270.92L254.8 271.15L254.53 271.27L254.28 271.38L254.03 271.52L253.78 271.63L253.53 271.77L253.29 271.92L253.04 272.05L252.84 272.2L252.64 272.34L252.44 272.49L252.26 272.65L252.07 272.81L251.89 272.97L251.72 273.14L251.54 273.31L251.37 273.49L251.2 273.66L251.05 273.84L250.89 274.03L250.74 274.23L250.6 274.41L250.45 274.61L250.05 275.21L249.93 275.41L249.7 275.85L249.58 276.05L249.48 276.27L249.38 276.5L249.3 276.72L249.2 276.94L249.12 277.17L249.05 277.4L248.96 277.62L248.83 278.09L248.78 278.32L248.73 278.57L248.68 278.81L248.65 279.04L248.6 279.29L248.58 279.54L248.55 279.78L248.53 280.03L233.96 280.03L233.98 279.75L233.98 279.46L234.01 279.18L234.05 278.61L234.08 278.32L234.11 278.06L234.15 277.77L234.2 277.49L234.23 277.2L234.28 276.94L234.38 276.37L234.45 276.1L234.5 275.82L234.56 275.55L234.63 275.26L234.71 275L234.78 274.73L234.95 274.19L235.03 273.91L235.11 273.64L235.21 273.37L235.3 273.12L235.4 272.86L235.52 272.59L235.62 272.32L235.72 272.07L235.83 271.8L235.95 271.55L236.07 271.28L236.2 271.03L236.32 270.78L236.85 269.78L237 269.53L237.14 269.33L237.27 269.11L237.4 268.91L237.55 268.69L237.69 268.49L238.44 267.49L238.59 267.3L238.76 267.1L238.91 266.92L239.07 266.74L239.24 266.53L239.41 266.35L239.58 266.18L239.74 266L240.28 265.46L241.2 264.63L241.4 264.46L241.58 264.31L241.78 264.16L241.96 263.99L242.37 263.69L242.57 263.56L242.77 263.41L242.98 263.26L243.38 262.99L244.04 262.59L244.27 262.45L244.49 262.32L244.72 262.19L244.94 262.07L245.17 261.95L245.41 261.82L245.87 261.58L246.11 261.48L246.58 261.25L247.04 261.05L247.29 260.93L247.76 260.73L248.01 260.65L248.25 260.55L248.5 260.46L248.73 260.36L249.23 260.2L249.47 260.11L249.97 259.95L250.47 259.81L250.72 259.73L251.47 259.53L251.72 259.48L251.97 259.41L252.22 259.36L252.49 259.29L253.24 259.14L254.31 258.94L254.58 258.91L255.11 258.81L255.38 258.78L255.65 258.73L256.18 258.66L256.45 258.61L257.52 258.47L257.8 258.44L258.07 258.42L258.61 258.36L258.87 258.34L259.14 258.31L259.94 258.26L260.23 258.22L261.03 258.17L261.29 258.17L261.56 258.16L261.85 258.14L262.11 258.14L262.38 258.12L262.65 258.12L262.92 258.11L264.74 258.11L264.99 258.12L265.22 258.12ZM274.16 294.61L273.37 294.98L272.57 295.31L271.75 295.6L270.94 295.83L270.08 296.03L269.23 296.2L268.38 296.32L267.51 296.4L267.13 296.45L266.57 296.5L265.89 296.57L265.04 296.67L264.07 296.77L263 296.92L261.81 297.07L260.53 297.27L259.17 297.5L257.75 297.76L256.85 297.92L256.38 298.01L255.03 298.31L254.58 298.42L254.14 298.54L253.24 298.81L252.84 298.94L252.42 299.09L252.02 299.24L251.62 299.41L251.24 299.59L250.47 300L250.1 300.21L249.73 300.45L249.37 300.7L249.03 300.97L248.71 301.23L248.41 301.53L248.13 301.84L247.86 302.15L247.59 302.49L247.36 302.84L247.14 303.21L246.94 303.57L246.74 303.96L246.56 304.41L246.38 304.88L246.22 305.35L246.09 305.83L245.99 306.3L245.91 306.8L245.84 307.29L245.81 307.79L245.79 308.27L245.81 308.78L245.81 309.23L245.84 309.66L245.89 310.1L245.99 310.53L246.11 310.95L246.27 311.37L246.46 311.75L246.66 312.14L246.91 312.52L247.18 312.87L247.75 313.51L248.38 314.08L248.71 314.36L249.05 314.61L249.42 314.85L249.77 315.08L250.15 315.3L250.52 315.5L250.95 315.68L251.37 315.87L252.24 316.2L252.67 316.33L253.12 316.47L253.56 316.58L254.01 316.68L254.48 316.79L254.93 316.85L255.36 316.89L255.78 316.92L256.22 316.94L257.94 316.94L258.37 316.92L258.79 316.89L259.22 316.85L259.76 316.85L260.28 316.82L261.35 316.75L262.38 316.62L262.92 316.53L263.43 316.45L263.95 316.35L264.47 316.23L265.04 316.08L265.59 315.93L266.69 315.56L267.23 315.35L268.3 314.88L268.81 314.61L269.31 314.33L269.82 314.03L270.3 313.72L270.77 313.39L271.24 313.04L271.69 312.69L272.1 312.3L272.52 311.9L272.92 311.48L273.31 311.05L274.01 310.15L274.34 309.61L274.64 309.06L274.89 308.51L275.13 307.92L275.31 307.34L275.46 306.73L275.58 306.13L275.65 305.51L275.68 304.9L275.68 293.78L274.93 294.21L274.16 294.61Z" id="b1yG99e1OJ"></path><path d="M265.22 258.12L265.47 258.14L265.72 258.14L267.23 258.24L267.46 258.26L267.71 258.27L267.96 258.31L268.21 258.32L268.46 258.36L268.71 258.37L268.95 258.41L269.95 258.54L270.18 258.57L270.94 258.67L271.17 258.73L271.42 258.76L271.67 258.81L271.9 258.86L272.15 258.89L272.41 258.94L272.64 258.99L273.14 259.09L273.84 259.24L274.06 259.31L274.53 259.41L274.74 259.48L274.98 259.54L275.21 259.59L275.43 259.66L275.66 259.73L275.88 259.81L276.1 259.88L276.33 259.95L276.55 260.03L276.77 260.1L277 260.18L278.09 260.6L278.3 260.7L278.52 260.78L278.74 260.88L278.95 260.97L279.39 261.17L279.59 261.27L279.81 261.37L280.01 261.48L280.22 261.58L280.44 261.7L280.64 261.8L280.84 261.92L281.06 262.04L282.06 262.62L282.43 262.86L282.61 262.99L282.8 263.11L282.98 263.24L283.16 263.36L283.33 263.49L283.52 263.62L283.68 263.76L283.87 263.89L284.03 264.04L284.2 264.18L284.37 264.33L284.53 264.46L284.87 264.76L285.02 264.91L285.19 265.06L285.34 265.21L285.49 265.38L285.8 265.7L285.94 265.85L286.39 266.35L286.66 266.68L286.81 266.87L287.07 267.2L287.21 267.39L287.33 267.57L287.46 267.76L287.59 267.92L287.71 268.11L287.83 268.31L287.94 268.49L288.08 268.69L288.19 268.91L288.31 269.11L288.41 269.33L288.53 269.54L289.03 270.63L289.11 270.85L289.2 271.08L289.36 271.52L289.45 271.75L289.51 271.97L289.71 272.67L289.76 272.89L289.83 273.12L289.98 273.83L290.01 274.06L290.07 274.29L290.1 274.53L290.13 274.78L290.15 275.01L290.18 275.25L290.2 275.48L290.22 275.73L290.25 276.2L290.27 276.45L290.27 277.17L290.25 277.4L290.25 312.02L290.23 312.14L290.23 312.64L290.25 312.74L290.25 312.96L290.27 313.06L290.27 313.16L290.42 314.06L290.45 314.16L290.47 314.26L290.5 314.36L290.52 314.46L290.55 314.56L290.58 314.64L290.62 314.74L290.63 314.85L290.67 314.95L290.72 315.05L290.75 315.13L290.82 315.33L290.87 315.41L290.9 315.51L290.95 315.61L290.98 315.7L291.13 315.9L291.2 315.95L291.25 316.02L291.3 316.07L291.44 316.17L291.49 316.22L291.75 316.42L291.89 316.48L291.95 316.53L292.15 316.63L292.24 316.67L292.3 316.68L292.39 316.72L292.45 316.75L292.54 316.77L292.6 316.79L292.69 316.8L292.75 316.82L292.92 316.85L292.99 316.87L293.16 316.87L293.24 316.89L293.47 316.89L293.56 316.87L293.64 316.87L293.71 316.85L296.01 316.33L298.12 316.33L298.12 326.82L296.13 327.35L293.61 327.87L288.9 327.87L288.7 327.89L288.09 327.89L287.89 327.87L287.69 327.87L287.49 327.86L287.29 327.86L287.11 327.84L286.91 327.82L286.71 327.79L286.51 327.77L286.31 327.74L286.12 327.7L285.72 327.64L285.54 327.6L285.34 327.57L285.14 327.52L284.95 327.47L284.75 327.42L284.38 327.32L284.18 327.27L283.82 327.14L283.62 327.07L283.06 326.87L282.88 326.79L282.7 326.72L282.33 326.55L282.16 326.47L281.98 326.37L281.79 326.28L281.63 326.18L281.44 326.08L281.29 325.98L281.13 325.87L280.98 325.75L280.81 325.61L280.66 325.5L280.51 325.36L280.37 325.23L280.22 325.1L279.96 324.83L279.82 324.68L279.69 324.54L279.56 324.39L279.44 324.24L279.32 324.08L279.09 323.78L278.99 323.61L278.87 323.44L278.67 323.11L278.59 322.94L278.49 322.77L278.4 322.6L278.32 322.42L278.24 322.25L277.9 321.33L277.85 321.15L277.8 320.95L277.7 320.58L277.63 320.18L277.6 320L277.57 319.8L277.35 320.01L276.88 320.45L276.65 320.65L276.4 320.87L276.16 321.07L275.91 321.27L275.68 321.47L275.43 321.67L274.68 322.22L274.41 322.4L274.16 322.59L273.89 322.77L273.64 322.94L272.84 323.44L272.56 323.59L272.29 323.76L272.02 323.91L271.74 324.06L271.47 324.21L271.19 324.34L270.9 324.49L270.33 324.76L270.05 324.88L269.75 325.01L269.18 325.25L268.58 325.48L268.3 325.58L267.99 325.7L267.39 325.9L267.09 325.98L266.77 326.08L266.47 326.17L266.17 326.27L265.86 326.35L265.56 326.43L265.24 326.52L264.94 326.58L264.62 326.67L264.32 326.75L263.68 326.89L263.38 326.95L262.75 327.09L262.45 327.14L262.13 327.2L260.86 327.4L260.56 327.45L260.24 327.5L259.92 327.54L259.61 327.59L258.66 327.69L258.34 327.7L257.7 327.77L257.39 327.79L257.05 327.81L256.1 327.86L255.78 327.86L255.46 327.87L254.14 327.87L253.93 327.86L253.71 327.86L253.48 327.84L253.26 327.84L253.04 327.82L252.81 327.81L252.37 327.77L252.14 327.75L251.92 327.74L251.7 327.7L251.47 327.69L251.25 327.65L251.04 327.64L250.8 327.6L249.93 327.47L249.7 327.44L249.48 327.4L249.27 327.35L249.05 327.32L248.4 327.17L248.18 327.14L247.96 327.07L247.31 326.92L247.09 326.85L246.88 326.8L246.66 326.73L246.44 326.68L246.22 326.62L246.02 326.55L245.82 326.5L245.42 326.37L245.24 326.3L244.64 326.1L244.45 326.03L244.25 325.95L244.05 325.88L243.87 325.8L243.67 325.71L243.3 325.55L243.1 325.46L242.55 325.21L242.35 325.11L242.16 325.01L241.98 324.93L241.43 324.63L241.26 324.53L241.08 324.43L240.9 324.31L240.71 324.21L240.54 324.09L240.36 323.99L240.19 323.88L240.01 323.76L239.51 323.41L239.32 323.29L239.16 323.17L238.99 323.04L238.82 322.92L238.67 322.81L238.51 322.67L238.36 322.55L238.21 322.42L238.04 322.29L237.59 321.89L237.45 321.73L237.15 321.47L237.02 321.32L236.74 321.03L236.2 320.43L236.07 320.26L235.93 320.11L235.82 319.96L235.68 319.8L235.57 319.64L234.86 318.64L234.66 318.31L234.55 318.12L234.35 317.79L234.15 317.42L234.06 317.25L233.96 317.07L233.86 316.87L233.76 316.65L233.68 316.45L233.58 316.25L233.49 316.03L233.41 315.83L233.33 315.61L233.24 315.41L233.18 315.2L233.09 314.98L233.03 314.78L232.94 314.56L232.88 314.34L232.83 314.13L232.69 313.69L232.39 312.39L232.36 312.15L232.29 311.72L232.26 311.48L232.19 311.05L232.17 310.82L232.14 310.6L232.12 310.38L232.11 310.15L232.09 309.93L232.09 309.69L232.07 309.48L232.07 308.57L232.04 308.01L232.04 307.72L232.02 307.45L232.02 306.89L232.04 306.62L232.04 306.33L232.06 306.05L232.07 305.78L232.11 305.5L232.12 305.23L232.16 304.95L232.19 304.68L232.22 304.39L232.27 304.13L232.31 303.84L232.36 303.57L232.42 303.31L232.47 303.04L232.54 302.76L232.59 302.49L232.68 302.22L232.81 301.68L232.98 301.15L233.06 300.9L233.26 300.36L233.36 300.11L233.46 299.85L233.56 299.59L233.68 299.33L233.78 299.08L233.89 298.83L234.03 298.57L234.15 298.32L234.28 298.07L234.38 297.89L234.96 296.97L235.1 296.79L235.21 296.62L235.35 296.43L235.62 296.1L235.75 295.92L236.02 295.58L236.17 295.43L236.3 295.26L236.45 295.1L236.6 294.95L236.75 294.78L237.05 294.48L237.22 294.33L237.37 294.18L237.54 294.03L237.69 293.89L237.85 293.74L238.19 293.47L238.36 293.32L238.52 293.19L238.71 293.07L238.87 292.94L239.06 292.81L239.22 292.69L239.41 292.55L239.96 292.2L240.14 292.1L240.54 291.87L240.73 291.75L240.93 291.65L241.13 291.53L242.13 291.03L242.35 290.93L242.55 290.83L242.75 290.75L242.95 290.65L243.17 290.56L243.37 290.48L243.59 290.4L243.79 290.31L244 290.23L244.2 290.15L244.64 289.98L244.84 289.91L245.06 289.83L245.92 289.56L246.12 289.49L246.34 289.43L246.56 289.38L246.78 289.31L247.01 289.26L247.23 289.19L248.1 288.99L248.33 288.94L248.4 288.93L248.48 288.91L248.68 288.88L248.8 288.84L249.07 288.78L249.22 288.72L249.37 288.69L249.7 288.59L249.88 288.56L250.07 288.51L250.27 288.46L250.47 288.39L250.9 288.29L251.37 288.19L251.62 288.12L252.12 288.02L252.39 287.97L252.67 287.92L252.94 287.87L253.23 287.82L253.53 287.79L253.83 287.74L254.13 287.7L254.43 287.65L255.06 287.59L255.4 287.57L255.71 287.54L256.07 287.52L256.73 287.49L257.08 287.49L257.44 287.47L257.64 287.44L257.82 287.4L258.02 287.37L258.2 287.34L258.61 287.27L258.79 287.24L258.99 287.2L259.17 287.17L259.37 287.14L259.56 287.1L259.76 287.07L259.94 287.04L260.14 287.02L260.33 286.99L260.73 286.92L260.91 286.9L261.11 286.87L261.29 286.84L261.5 286.82L261.7 286.79L261.88 286.77L262.08 286.73L262.26 286.72L262.46 286.68L262.66 286.67L262.85 286.65L263.05 286.62L263.23 286.6L263.63 286.57L263.82 286.53L264.22 286.5L264.4 286.48L264.8 286.45L264.99 286.43L265.49 286.38L265.64 286.37L266.14 286.32L266.29 286.3L266.79 286.25L266.94 286.23L267.11 286.2L267.28 286.18L267.43 286.17L267.59 286.13L267.76 286.12L267.91 286.08L268.08 286.07L268.25 286.03L268.4 286L268.56 285.98L268.73 285.95L268.88 285.92L269.21 285.85L269.36 285.82L269.53 285.8L269.68 285.77L269.85 285.71L270 285.68L270.33 285.61L270.48 285.58L270.65 285.55L270.8 285.5L270.97 285.46L271.12 285.41L271.29 285.38L271.4 285.35L271.54 285.31L271.65 285.28L271.79 285.25L271.9 285.2L272.04 285.16L272.15 285.11L272.27 285.08L272.41 285.03L272.76 284.88L272.89 284.83L273.24 284.68L273.36 284.61L273.47 284.56L273.59 284.49L273.69 284.43L273.93 284.29L274.03 284.23L274.26 284.09L274.36 284.03L274.48 283.96L274.58 283.88L274.68 283.81L274.79 283.72L274.99 283.56L275.1 283.49L275.3 283.32L275.4 283.22L275.6 283.06L275.68 282.97L275.76 282.86L275.86 282.76L275.95 282.65L276.01 282.54L276.1 282.44L276.18 282.32L276.25 282.22L276.58 281.63L276.63 281.52L276.7 281.4L276.75 281.27L276.85 281.03L276.9 280.9L276.93 280.78L276.98 280.65L277.02 280.51L277.05 280.4L277.12 280.13L277.15 280.01L277.17 279.88L277.2 279.75L277.27 279.21L277.27 278.94L277.28 278.81L277.28 278.54L277.27 278.41L277.27 278.27L277.25 278.14L277.27 278.01L277.27 277.64L277.25 277.5L277.25 277.39L277.23 277.25L277.23 277.14L277.22 277L277.2 276.89L277.18 276.75L277.15 276.52L277.12 276.38L277.1 276.27L277.07 276.15L277.03 276.02L277.02 275.9L276.98 275.78L276.93 275.66L276.9 275.53L276.87 275.41L276.82 275.3L276.78 275.18L276.63 274.83L276.58 274.73L276.48 274.49L276.42 274.38L276.36 274.28L276.3 274.16L276.23 274.06L276.16 273.94L276.1 273.84L276.03 273.72L275.9 273.52L275.83 273.44L275.76 273.34L275.68 273.26L275.55 273.09L275.46 273.01L275.4 272.92L275.31 272.84L275.25 272.76L274.84 272.35L274.76 272.29L274.68 272.2L274.51 272.07L274.43 271.99L274.34 271.92L274.24 271.85L274.08 271.72L273.98 271.65L273.81 271.52L273.71 271.45L273.61 271.4L273.52 271.33L273.42 271.28L273.32 271.22L273.24 271.17L273.14 271.1L272.44 270.75L272.32 270.7L272.22 270.65L272.1 270.6L272 270.56L271.89 270.51L271.79 270.46L271.67 270.43L271.55 270.38L271.45 270.35L271.34 270.3L271.24 270.26L271.12 270.23L271 270.18L270.9 270.15L270.55 270.05L270.45 270.01L269.98 269.88L269.88 269.86L269.65 269.8L269.53 269.78L269.41 269.75L269.3 269.73L269.18 269.69L268.83 269.64L268.71 269.61L268.13 269.53L263.25 269.53L262.68 269.49L262.11 269.49L261.83 269.51L261.55 269.51L261.28 269.53L260.99 269.54L260.71 269.58L260.44 269.59L260.16 269.63L259.87 269.68L259.61 269.71L259.32 269.76L259.06 269.81L258.77 269.86L258.5 269.91L258.22 269.98L257.42 270.18L256.35 270.51L256.08 270.61L255.83 270.71L255.3 270.92L254.8 271.15L254.53 271.27L254.28 271.38L254.03 271.52L253.78 271.63L253.53 271.77L253.29 271.92L253.04 272.05L252.84 272.2L252.64 272.34L252.44 272.49L252.26 272.65L252.07 272.81L251.89 272.97L251.72 273.14L251.54 273.31L251.37 273.49L251.2 273.66L251.05 273.84L250.89 274.03L250.74 274.23L250.6 274.41L250.45 274.61L250.05 275.21L249.93 275.41L249.7 275.85L249.58 276.05L249.48 276.27L249.38 276.5L249.3 276.72L249.2 276.94L249.12 277.17L249.05 277.4L248.96 277.62L248.83 278.09L248.78 278.32L248.73 278.57L248.68 278.81L248.65 279.04L248.6 279.29L248.58 279.54L248.55 279.78L248.53 280.03L233.96 280.03L233.98 279.75L233.98 279.46L234.01 279.18L234.05 278.61L234.08 278.32L234.11 278.06L234.15 277.77L234.2 277.49L234.23 277.2L234.28 276.94L234.38 276.37L234.45 276.1L234.5 275.82L234.56 275.55L234.63 275.26L234.71 275L234.78 274.73L234.95 274.19L235.03 273.91L235.11 273.64L235.21 273.37L235.3 273.12L235.4 272.86L235.52 272.59L235.62 272.32L235.72 272.07L235.83 271.8L235.95 271.55L236.07 271.28L236.2 271.03L236.32 270.78L236.85 269.78L237 269.53L237.14 269.33L237.27 269.11L237.4 268.91L237.55 268.69L237.69 268.49L238.44 267.49L238.59 267.3L238.76 267.1L238.91 266.92L239.07 266.74L239.24 266.53L239.41 266.35L239.58 266.18L239.74 266L240.28 265.46L241.2 264.63L241.4 264.46L241.58 264.31L241.78 264.16L241.96 263.99L242.37 263.69L242.57 263.56L242.77 263.41L242.98 263.26L243.38 262.99L244.04 262.59L244.27 262.45L244.49 262.32L244.72 262.19L244.94 262.07L245.17 261.95L245.41 261.82L245.87 261.58L246.11 261.48L246.58 261.25L247.04 261.05L247.29 260.93L247.76 260.73L248.01 260.65L248.25 260.55L248.5 260.46L248.73 260.36L249.23 260.2L249.47 260.11L249.97 259.95L250.47 259.81L250.72 259.73L251.47 259.53L251.72 259.48L251.97 259.41L252.22 259.36L252.49 259.29L253.24 259.14L254.31 258.94L254.58 258.91L255.11 258.81L255.38 258.78L255.65 258.73L256.18 258.66L256.45 258.61L257.52 258.47L257.8 258.44L258.07 258.42L258.61 258.36L258.87 258.34L259.14 258.31L259.94 258.26L260.23 258.22L261.03 258.17L261.29 258.17L261.56 258.16L261.85 258.14L262.11 258.14L262.38 258.12L262.65 258.12L262.92 258.11L264.74 258.11L264.99 258.12L265.22 258.12ZM274.16 294.61L273.37 294.98L272.57 295.31L271.75 295.6L270.94 295.83L270.08 296.03L269.23 296.2L268.38 296.32L267.51 296.4L267.13 296.45L266.57 296.5L265.89 296.57L265.04 296.67L264.07 296.77L263 296.92L261.81 297.07L260.53 297.27L259.17 297.5L257.75 297.76L256.85 297.92L256.38 298.01L255.03 298.31L254.58 298.42L254.14 298.54L253.24 298.81L252.84 298.94L252.42 299.09L252.02 299.24L251.62 299.41L251.24 299.59L250.47 300L250.1 300.21L249.73 300.45L249.37 300.7L249.03 300.97L248.71 301.23L248.41 301.53L248.13 301.84L247.86 302.15L247.59 302.49L247.36 302.84L247.14 303.21L246.94 303.57L246.74 303.96L246.56 304.41L246.38 304.88L246.22 305.35L246.09 305.83L245.99 306.3L245.91 306.8L245.84 307.29L245.81 307.79L245.79 308.27L245.81 308.78L245.81 309.23L245.84 309.66L245.89 310.1L245.99 310.53L246.11 310.95L246.27 311.37L246.46 311.75L246.66 312.14L246.91 312.52L247.18 312.87L247.75 313.51L248.38 314.08L248.71 314.36L249.05 314.61L249.42 314.85L249.77 315.08L250.15 315.3L250.52 315.5L250.95 315.68L251.37 315.87L252.24 316.2L252.67 316.33L253.12 316.47L253.56 316.58L254.01 316.68L254.48 316.79L254.93 316.85L255.36 316.89L255.78 316.92L256.22 316.94L257.94 316.94L258.37 316.92L258.79 316.89L259.22 316.85L259.76 316.85L260.28 316.82L261.35 316.75L262.38 316.62L262.92 316.53L263.43 316.45L263.95 316.35L264.47 316.23L265.04 316.08L265.59 315.93L266.69 315.56L267.23 315.35L268.3 314.88L268.81 314.61L269.31 314.33L269.82 314.03L270.3 313.72L270.77 313.39L271.24 313.04L271.69 312.69L272.1 312.3L272.52 311.9L272.92 311.48L273.31 311.05L274.01 310.15L274.34 309.61L274.64 309.06L274.89 308.51L275.13 307.92L275.31 307.34L275.46 306.73L275.58 306.13L275.65 305.51L275.68 304.9L275.68 293.78L274.93 294.21L274.16 294.61Z" id="a4u7bsojfh"></path><path d="M342.89 258.62L343.28 258.64L343.65 258.67L344.03 258.69L344.4 258.73L345.17 258.79L345.9 258.89L346.29 258.94L346.65 258.99L347.04 259.06L348.14 259.26L348.51 259.34L348.89 259.43L349.26 259.51L349.61 259.61L349.98 259.69L350.35 259.8L350.71 259.91L351.08 260.01L351.43 260.13L351.8 260.25L352.15 260.36L352.52 260.5L353.57 260.9L354.62 261.35L354.92 261.5L355.22 261.63L355.52 261.79L355.83 261.95L356.11 262.1L356.41 262.27L356.69 262.42L356.99 262.6L357.56 262.94L357.85 263.12L358.11 263.31L358.4 263.49L358.67 263.67L358.95 263.88L359.22 264.06L359.75 264.46L360.02 264.68L360.27 264.88L360.52 265.1L360.79 265.31L361.29 265.75L361.52 265.98L361.77 266.2L362.01 266.43L362.26 266.67L362.73 267.14L362.94 267.39L363.18 267.64L363.39 267.89L363.63 268.14L364.06 268.64L364.26 268.91L364.48 269.18L364.68 269.44L365.08 270.01L365.28 270.28L365.48 270.56L366.03 271.42L366.22 271.72L366.4 272L366.57 272.3L366.75 272.59L367.25 273.49L367.4 273.79L367.57 274.09L367.72 274.39L367.87 274.71L368.02 275.01L368.16 275.31L368.31 275.63L368.57 276.27L368.71 276.57L368.82 276.89L368.96 277.2L369.07 277.54L369.43 278.49L369.53 278.83L369.63 279.14L369.74 279.48L369.83 279.8L369.93 280.13L370.13 280.87L370.23 281.22L370.33 281.58L370.41 281.95L370.51 282.32L370.76 283.42L370.83 283.79L370.91 284.16L371.18 285.63L371.23 286L371.3 286.38L371.45 287.49L371.5 287.87L371.53 288.24L371.58 288.62L371.65 289.36L371.68 289.75L371.7 290.11L371.73 290.5L371.75 290.87L371.76 291.25L371.78 291.62L371.8 292L371.8 292.37L371.81 292.76L371.81 294.95L371.8 295.3L371.8 295.65L371.73 297.05L371.7 297.4L371.68 297.76L371.48 299.86L371.28 301.27L371.23 301.6L371.18 301.95L371.11 302.3L371.06 302.65L371 303.01L370.93 303.34L370.8 304.04L370.71 304.38L370.64 304.73L370.56 305.08L370.48 305.41L370.39 305.77L370.31 306.1L370.23 306.45L370.14 306.79L370.04 307.1L369.96 307.44L369.86 307.75L369.78 308.07L369.58 308.71L369.46 309.03L369.36 309.34L369.12 309.98L369.01 310.28L368.89 310.6L368.76 310.9L368.64 311.22L368.37 311.82L368.24 312.14L368.09 312.44L367.95 312.74L367.5 313.64L367.35 313.93L367.2 314.23L367.04 314.51L366.87 314.81L366.53 315.38L366.37 315.68L366.2 315.97L366.02 316.25L365.83 316.52L365.47 317.09L365.28 317.35L365.08 317.64L364.9 317.91L364.48 318.46L364.06 318.99L363.16 320.03L362.71 320.53L362.22 321.02L361.74 321.48L360.74 322.39L360.2 322.81L359.68 323.22L359.13 323.62L358.58 324.01L358.03 324.38L357.46 324.73L356.29 325.4L355.71 325.7L355.11 325.98L354.49 326.27L353.87 326.53L353.25 326.77L352.62 327L351.35 327.4L350.7 327.59L349.39 327.89L348.72 328.02L347.39 328.22L346.72 328.29L346.03 328.36L345.35 328.39L344.66 328.41L343.98 328.41L343.29 328.39L343.13 328.41L342.94 328.41L342.78 328.39L342.09 328.39L341.91 328.37L341.56 328.37L341.39 328.36L341.22 328.36L341.04 328.34L340.87 328.34L340.69 328.32L340.52 328.31L340.35 328.31L340.17 328.29L339.84 328.26L339.65 328.24L339.32 328.21L339.13 328.19L338.8 328.16L338.62 328.12L338.28 328.09L338.1 328.06L337.93 328.04L337.76 328.01L337.6 327.99L337.41 327.96L337.25 327.94L336.91 327.87L336.73 327.84L336.39 327.77L336.21 327.74L335.88 327.67L335.71 327.62L335.53 327.59L335.36 327.55L335.19 327.5L335.02 327.47L334.69 327.37L334.51 327.34L333.34 326.99L333.17 326.92L332.84 326.82L332.67 326.75L332.52 326.7L332.35 326.63L332.18 326.58L331.68 326.38L331.53 326.32L331.37 326.27L331.2 326.2L331.05 326.12L330.71 325.98L330.56 325.92L330.4 325.85L330.25 325.78L330.1 325.7L329.93 325.63L329.78 325.56L329.48 325.4L329.31 325.33L329.01 325.16L328.86 325.1L328.26 324.76L328.11 324.66L327.81 324.49L327.67 324.41L327.52 324.31L327.37 324.23L327.22 324.13L327.09 324.04L326.94 323.94L326.8 323.84L326.65 323.76L326.52 323.66L326.37 323.56L326.24 323.46L326.09 323.36L325.69 323.06L325.53 322.94L325.27 322.74L325.13 322.62L325 322.52L324.87 322.4L324.73 322.3L324.62 322.19L324.35 321.95L324.23 321.84L324.1 321.72L323.98 321.6L323.85 321.48L323.61 321.25L323.5 321.12L323.36 321L323.25 320.87L323.15 320.75L323.03 320.61L322.91 320.5L322.68 320.23L322.58 320.1L322.46 319.96L322.36 319.83L322.24 319.69L321.84 319.16L321.74 319.01L321.64 318.88L321.54 318.72L321.44 318.59L321.36 318.44L321.26 318.31L321.17 318.16L321.07 318.01L321.07 350.85L306.4 350.85L306.4 260.41L320.44 260.41L320.44 269.43L320.61 269.14L320.76 268.84L321.26 267.99L321.44 267.7L321.61 267.44L321.81 267.17L321.99 266.9L322.39 266.37L322.59 266.12L323.03 265.61L323.25 265.38L323.46 265.13L323.7 264.9L323.91 264.66L324.16 264.44L324.4 264.21L324.65 263.99L324.88 263.79L325.13 263.57L325.4 263.37L325.65 263.17L325.92 262.97L326.19 262.79L326.45 262.59L326.74 262.42L327.01 262.24L327.86 261.74L328.16 261.58L328.44 261.43L328.74 261.28L329.04 261.15L329.34 261L329.66 260.88L329.96 260.75L330.28 260.61L330.58 260.5L330.9 260.38L331.2 260.26L331.83 260.06L332.15 259.95L332.47 259.86L333.1 259.66L333.42 259.58L333.75 259.49L334.07 259.41L334.39 259.34L334.72 259.28L335.04 259.19L335.38 259.14L335.69 259.08L336.03 259.03L336.34 258.96L336.68 258.91L337.01 258.88L337.33 258.83L338.67 258.69L339 258.67L339.32 258.66L339.99 258.62L341.37 258.62L341.76 258.61L342.13 258.61L342.51 258.62L342.89 258.62ZM335.98 270.25L334.99 270.4L334.02 270.61L333.07 270.88L332.13 271.22L331.22 271.6L330.33 272.04L329.48 272.54L328.64 273.09L327.86 273.67L327.09 274.33L326.37 275.03L325.7 275.78L325.07 276.57L324.45 277.52L323.88 278.51L323.35 279.49L322.86 280.51L322.41 281.55L322.01 282.6L321.64 283.66L321.32 284.73L321.04 285.83L320.81 286.92L320.62 288.04L320.47 289.14L320.37 290.28L320.32 291.4L320.31 292.54L320.34 293.67L320.34 294.26L320.36 294.85L320.37 295.45L320.41 296.03L320.51 297.2L320.64 298.37L320.72 298.96L320.92 300.13L321.04 300.71L321.17 301.28L321.31 301.87L321.44 302.44L321.59 303.01L321.74 303.51L321.89 303.99L322.06 304.49L322.24 304.98L322.43 305.45L322.63 305.93L322.84 306.4L323.08 306.87L323.31 307.32L323.81 308.22L324.08 308.66L324.37 309.09L324.65 309.51L324.95 309.95L325.27 310.35L325.57 310.71L325.89 311.08L326.2 311.43L326.54 311.79L326.89 312.12L327.22 312.45L327.59 312.77L328.32 313.37L329.09 313.94L329.49 314.21L330.3 314.71L331.13 315.18L332.07 315.61L333 315.98L333.49 316.15L333.97 316.3L334.47 316.43L334.96 316.55L335.46 316.67L335.96 316.75L336.96 316.89L337.46 316.92L337.98 316.95L338.48 316.97L339.55 316.97L340.12 316.95L340.67 316.92L341.22 316.87L341.76 316.8L342.31 316.72L342.86 316.62L343.93 316.35L344.45 316.18L344.98 316.02L345.5 315.82L346.5 315.38L347 315.13L347.49 314.86L347.91 314.61L348.32 314.34L348.72 314.06L349.13 313.76L349.89 313.16L350.26 312.84L350.61 312.5L351.31 311.8L351.65 311.45L351.97 311.08L352.28 310.7L352.58 310.31L353.15 309.51L353.44 309.09L353.72 308.66L353.97 308.22L354.47 307.32L354.71 306.87L354.92 306.4L355.12 305.95L355.32 305.46L355.52 305L355.69 304.51L355.86 304.04L356.01 303.54L356.16 303.06L356.28 302.55L356.41 302.07L356.51 301.53L356.59 301.02L356.69 300.48L356.76 299.96L356.84 299.43L356.91 298.89L356.96 298.37L357.01 297.84L357.05 297.3L357.1 296.77L357.15 295.16L357.15 293.56L357.13 293.01L357.13 292.45L357.1 291.92L357.03 290.82L356.98 290.26L356.91 289.71L356.84 289.18L356.78 288.62L356.69 288.09L356.59 287.54L356.49 287L356.38 286.47L356.26 285.92L356.13 285.38L355.99 284.86L355.69 283.86L355.54 283.37L355.36 282.89L355.19 282.4L354.99 281.92L354.79 281.45L354.36 280.51L354.12 280.05L353.89 279.59L353.64 279.14L353.1 278.27L352.82 277.84L352.52 277.4L352.25 277L351.97 276.62L351.67 276.25L351.35 275.87L350.71 275.16L350.38 274.81L350.03 274.48L349.68 274.16L349.31 273.84L348.94 273.54L348.56 273.24L347.79 272.67L347.37 272.42L346.97 272.15L346.03 271.68L345.57 271.47L345.08 271.27L344.6 271.08L344.11 270.92L343.61 270.77L343.11 270.63L342.61 270.51L342.11 270.41L341.59 270.33L341.07 270.26L340.55 270.21L340.04 270.18L339.52 270.16L339 270.16L337.98 270.13L336.98 270.16L335.98 270.25Z" id="btwJesa4U"></path><path d="M342.89 258.62L343.28 258.64L343.65 258.67L344.03 258.69L344.4 258.73L345.17 258.79L345.9 258.89L346.29 258.94L346.65 258.99L347.04 259.06L348.14 259.26L348.51 259.34L348.89 259.43L349.26 259.51L349.61 259.61L349.98 259.69L350.35 259.8L350.71 259.91L351.08 260.01L351.43 260.13L351.8 260.25L352.15 260.36L352.52 260.5L353.57 260.9L354.62 261.35L354.92 261.5L355.22 261.63L355.52 261.79L355.83 261.95L356.11 262.1L356.41 262.27L356.69 262.42L356.99 262.6L357.56 262.94L357.85 263.12L358.11 263.31L358.4 263.49L358.67 263.67L358.95 263.88L359.22 264.06L359.75 264.46L360.02 264.68L360.27 264.88L360.52 265.1L360.79 265.31L361.29 265.75L361.52 265.98L361.77 266.2L362.01 266.43L362.26 266.67L362.73 267.14L362.94 267.39L363.18 267.64L363.39 267.89L363.63 268.14L364.06 268.64L364.26 268.91L364.48 269.18L364.68 269.44L365.08 270.01L365.28 270.28L365.48 270.56L366.03 271.42L366.22 271.72L366.4 272L366.57 272.3L366.75 272.59L367.25 273.49L367.4 273.79L367.57 274.09L367.72 274.39L367.87 274.71L368.02 275.01L368.16 275.31L368.31 275.63L368.57 276.27L368.71 276.57L368.82 276.89L368.96 277.2L369.07 277.54L369.43 278.49L369.53 278.83L369.63 279.14L369.74 279.48L369.83 279.8L369.93 280.13L370.13 280.87L370.23 281.22L370.33 281.58L370.41 281.95L370.51 282.32L370.76 283.42L370.83 283.79L370.91 284.16L371.18 285.63L371.23 286L371.3 286.38L371.45 287.49L371.5 287.87L371.53 288.24L371.58 288.62L371.65 289.36L371.68 289.75L371.7 290.11L371.73 290.5L371.75 290.87L371.76 291.25L371.78 291.62L371.8 292L371.8 292.37L371.81 292.76L371.81 294.95L371.8 295.3L371.8 295.65L371.73 297.05L371.7 297.4L371.68 297.76L371.48 299.86L371.28 301.27L371.23 301.6L371.18 301.95L371.11 302.3L371.06 302.65L371 303.01L370.93 303.34L370.8 304.04L370.71 304.38L370.64 304.73L370.56 305.08L370.48 305.41L370.39 305.77L370.31 306.1L370.23 306.45L370.14 306.79L370.04 307.1L369.96 307.44L369.86 307.75L369.78 308.07L369.58 308.71L369.46 309.03L369.36 309.34L369.12 309.98L369.01 310.28L368.89 310.6L368.76 310.9L368.64 311.22L368.37 311.82L368.24 312.14L368.09 312.44L367.95 312.74L367.5 313.64L367.35 313.93L367.2 314.23L367.04 314.51L366.87 314.81L366.53 315.38L366.37 315.68L366.2 315.97L366.02 316.25L365.83 316.52L365.47 317.09L365.28 317.35L365.08 317.64L364.9 317.91L364.48 318.46L364.06 318.99L363.16 320.03L362.71 320.53L362.22 321.02L361.74 321.48L360.74 322.39L360.2 322.81L359.68 323.22L359.13 323.62L358.58 324.01L358.03 324.38L357.46 324.73L356.29 325.4L355.71 325.7L355.11 325.98L354.49 326.27L353.87 326.53L353.25 326.77L352.62 327L351.35 327.4L350.7 327.59L349.39 327.89L348.72 328.02L347.39 328.22L346.72 328.29L346.03 328.36L345.35 328.39L344.66 328.41L343.98 328.41L343.29 328.39L343.13 328.41L342.94 328.41L342.78 328.39L342.09 328.39L341.91 328.37L341.56 328.37L341.39 328.36L341.22 328.36L341.04 328.34L340.87 328.34L340.69 328.32L340.52 328.31L340.35 328.31L340.17 328.29L339.84 328.26L339.65 328.24L339.32 328.21L339.13 328.19L338.8 328.16L338.62 328.12L338.28 328.09L338.1 328.06L337.93 328.04L337.76 328.01L337.6 327.99L337.41 327.96L337.25 327.94L336.91 327.87L336.73 327.84L336.39 327.77L336.21 327.74L335.88 327.67L335.71 327.62L335.53 327.59L335.36 327.55L335.19 327.5L335.02 327.47L334.69 327.37L334.51 327.34L333.34 326.99L333.17 326.92L332.84 326.82L332.67 326.75L332.52 326.7L332.35 326.63L332.18 326.58L331.68 326.38L331.53 326.32L331.37 326.27L331.2 326.2L331.05 326.12L330.71 325.98L330.56 325.92L330.4 325.85L330.25 325.78L330.1 325.7L329.93 325.63L329.78 325.56L329.48 325.4L329.31 325.33L329.01 325.16L328.86 325.1L328.26 324.76L328.11 324.66L327.81 324.49L327.67 324.41L327.52 324.31L327.37 324.23L327.22 324.13L327.09 324.04L326.94 323.94L326.8 323.84L326.65 323.76L326.52 323.66L326.37 323.56L326.24 323.46L326.09 323.36L325.69 323.06L325.53 322.94L325.27 322.74L325.13 322.62L325 322.52L324.87 322.4L324.73 322.3L324.62 322.19L324.35 321.95L324.23 321.84L324.1 321.72L323.98 321.6L323.85 321.48L323.61 321.25L323.5 321.12L323.36 321L323.25 320.87L323.15 320.75L323.03 320.61L322.91 320.5L322.68 320.23L322.58 320.1L322.46 319.96L322.36 319.83L322.24 319.69L321.84 319.16L321.74 319.01L321.64 318.88L321.54 318.72L321.44 318.59L321.36 318.44L321.26 318.31L321.17 318.16L321.07 318.01L321.07 350.85L306.4 350.85L306.4 260.41L320.44 260.41L320.44 269.43L320.61 269.14L320.76 268.84L321.26 267.99L321.44 267.7L321.61 267.44L321.81 267.17L321.99 266.9L322.39 266.37L322.59 266.12L323.03 265.61L323.25 265.38L323.46 265.13L323.7 264.9L323.91 264.66L324.16 264.44L324.4 264.21L324.65 263.99L324.88 263.79L325.13 263.57L325.4 263.37L325.65 263.17L325.92 262.97L326.19 262.79L326.45 262.59L326.74 262.42L327.01 262.24L327.86 261.74L328.16 261.58L328.44 261.43L328.74 261.28L329.04 261.15L329.34 261L329.66 260.88L329.96 260.75L330.28 260.61L330.58 260.5L330.9 260.38L331.2 260.26L331.83 260.06L332.15 259.95L332.47 259.86L333.1 259.66L333.42 259.58L333.75 259.49L334.07 259.41L334.39 259.34L334.72 259.28L335.04 259.19L335.38 259.14L335.69 259.08L336.03 259.03L336.34 258.96L336.68 258.91L337.01 258.88L337.33 258.83L338.67 258.69L339 258.67L339.32 258.66L339.99 258.62L341.37 258.62L341.76 258.61L342.13 258.61L342.51 258.62L342.89 258.62ZM335.98 270.25L334.99 270.4L334.02 270.61L333.07 270.88L332.13 271.22L331.22 271.6L330.33 272.04L329.48 272.54L328.64 273.09L327.86 273.67L327.09 274.33L326.37 275.03L325.7 275.78L325.07 276.57L324.45 277.52L323.88 278.51L323.35 279.49L322.86 280.51L322.41 281.55L322.01 282.6L321.64 283.66L321.32 284.73L321.04 285.83L320.81 286.92L320.62 288.04L320.47 289.14L320.37 290.28L320.32 291.4L320.31 292.54L320.34 293.67L320.34 294.26L320.36 294.85L320.37 295.45L320.41 296.03L320.51 297.2L320.64 298.37L320.72 298.96L320.92 300.13L321.04 300.71L321.17 301.28L321.31 301.87L321.44 302.44L321.59 303.01L321.74 303.51L321.89 303.99L322.06 304.49L322.24 304.98L322.43 305.45L322.63 305.93L322.84 306.4L323.08 306.87L323.31 307.32L323.81 308.22L324.08 308.66L324.37 309.09L324.65 309.51L324.95 309.95L325.27 310.35L325.57 310.71L325.89 311.08L326.2 311.43L326.54 311.79L326.89 312.12L327.22 312.45L327.59 312.77L328.32 313.37L329.09 313.94L329.49 314.21L330.3 314.71L331.13 315.18L332.07 315.61L333 315.98L333.49 316.15L333.97 316.3L334.47 316.43L334.96 316.55L335.46 316.67L335.96 316.75L336.96 316.89L337.46 316.92L337.98 316.95L338.48 316.97L339.55 316.97L340.12 316.95L340.67 316.92L341.22 316.87L341.76 316.8L342.31 316.72L342.86 316.62L343.93 316.35L344.45 316.18L344.98 316.02L345.5 315.82L346.5 315.38L347 315.13L347.49 314.86L347.91 314.61L348.32 314.34L348.72 314.06L349.13 313.76L349.89 313.16L350.26 312.84L350.61 312.5L351.31 311.8L351.65 311.45L351.97 311.08L352.28 310.7L352.58 310.31L353.15 309.51L353.44 309.09L353.72 308.66L353.97 308.22L354.47 307.32L354.71 306.87L354.92 306.4L355.12 305.95L355.32 305.46L355.52 305L355.69 304.51L355.86 304.04L356.01 303.54L356.16 303.06L356.28 302.55L356.41 302.07L356.51 301.53L356.59 301.02L356.69 300.48L356.76 299.96L356.84 299.43L356.91 298.89L356.96 298.37L357.01 297.84L357.05 297.3L357.1 296.77L357.15 295.16L357.15 293.56L357.13 293.01L357.13 292.45L357.1 291.92L357.03 290.82L356.98 290.26L356.91 289.71L356.84 289.18L356.78 288.62L356.69 288.09L356.59 287.54L356.49 287L356.38 286.47L356.26 285.92L356.13 285.38L355.99 284.86L355.69 283.86L355.54 283.37L355.36 282.89L355.19 282.4L354.99 281.92L354.79 281.45L354.36 280.51L354.12 280.05L353.89 279.59L353.64 279.14L353.1 278.27L352.82 277.84L352.52 277.4L352.25 277L351.97 276.62L351.67 276.25L351.35 275.87L350.71 275.16L350.38 274.81L350.03 274.48L349.68 274.16L349.31 273.84L348.94 273.54L348.56 273.24L347.79 272.67L347.37 272.42L346.97 272.15L346.03 271.68L345.57 271.47L345.08 271.27L344.6 271.08L344.11 270.92L343.61 270.77L343.11 270.63L342.61 270.51L342.11 270.41L341.59 270.33L341.07 270.26L340.55 270.21L340.04 270.18L339.52 270.16L339 270.16L337.98 270.13L336.98 270.16L335.98 270.25Z" id="c6MhWMoYL"></path><path d="M399.28 235.11C399.28 243.42 399.28 248.04 399.28 248.98C399.28 248.98 399.28 248.98 399.28 248.98C390.54 248.98 385.68 248.98 384.71 248.98C384.71 248.98 384.71 248.98 384.71 248.98C384.71 240.66 384.71 236.05 384.71 235.11C384.71 235.11 384.71 235.11 384.71 235.11C393.45 235.11 398.31 235.11 399.28 235.11C399.28 235.11 399.28 235.11 399.28 235.11Z" id="c48t6BpiM6"></path><path d="M399.28 235.11C399.28 243.42 399.28 248.04 399.28 248.98C399.28 248.98 399.28 248.98 399.28 248.98C390.54 248.98 385.68 248.98 384.71 248.98C384.71 248.98 384.71 248.98 384.71 248.98C384.71 240.66 384.71 236.05 384.71 235.11C384.71 235.11 384.71 235.11 384.71 235.11C393.45 235.11 398.31 235.11 399.28 235.11C399.28 235.11 399.28 235.11 399.28 235.11Z" id="ed9hQ3xc4"></path><path d="M399.28 260.3C399.28 300.1 399.28 322.19 399.28 326.62C399.28 326.62 399.28 326.62 399.28 326.62C390.54 326.62 385.68 326.62 384.71 326.62C384.71 326.62 384.71 326.62 384.71 326.62C384.71 286.84 384.71 264.73 384.71 260.3C384.71 260.3 384.71 260.3 384.71 260.3C393.45 260.3 398.31 260.3 399.28 260.3C399.28 260.3 399.28 260.3 399.28 260.3Z" id="doXuEiGyk"></path><path d="M399.28 260.3C399.28 300.1 399.28 322.19 399.28 326.62C399.28 326.62 399.28 326.62 399.28 326.62C390.54 326.62 385.68 326.62 384.71 326.62C384.71 326.62 384.71 326.62 384.71 326.62C384.71 286.84 384.71 264.73 384.71 260.3C384.71 260.3 384.71 260.3 384.71 260.3C393.45 260.3 398.31 260.3 399.28 260.3C399.28 260.3 399.28 260.3 399.28 260.3Z" id="b3twh96XQ3"></path><path d="M150.73 487.25L150.73 153.91L483.77 153.91L483.77 487.25L150.73 487.25ZM163.82 423.14L470.99 423.14L470.99 166.7L163.82 166.7L163.82 423.14Z" id="algJIRi5F"></path><path d="M150.73 487.25L150.73 153.91L483.77 153.91L483.77 487.25L150.73 487.25ZM163.82 423.14L470.99 423.14L470.99 166.7L163.82 166.7L163.82 423.14Z" id="b4pkoFAhIT"></path></defs><g><g><g><use xlink:href="#eYm1cEfUe" opacity="1" fill="#e02333" fill-opacity="1"></use><g><use xlink:href="#eYm1cEfUe" opacity="1" fill-opacity="0" stroke="#000000" stroke-width="1" stroke-opacity="0"></use></g></g><g><use xlink:href="#a58ak3XERO" opacity="1" fill="#000000" fill-opacity="0"></use><g><use xlink:href="#a58ak3XERO" opacity="1" fill-opacity="0" stroke="#000000" stroke-width="1" stroke-opacity="0"></use></g></g><g><use xlink:href="#b1yG99e1OJ" opacity="1" fill="#ffffff" fill-opacity="1"></use><g><use xlink:href="#b1yG99e1OJ" opacity="1" fill-opacity="0" stroke="#000000" stroke-width="1" stroke-opacity="0"></use></g></g><g><use xlink:href="#a4u7bsojfh" opacity="1" fill="#000000" fill-opacity="0"></use><g><use xlink:href="#a4u7bsojfh" opacity="1" fill-opacity="0" stroke="#000000" stroke-width="1" stroke-opacity="0"></use></g></g><g><use xlink:href="#btwJesa4U" opacity="1" fill="#ffffff" fill-opacity="1"></use><g><use xlink:href="#btwJesa4U" opacity="1" fill-opacity="0" stroke="#000000" stroke-width="1" stroke-opacity="0"></use></g></g><g><use xlink:href="#c6MhWMoYL" opacity="1" fill="#000000" fill-opacity="0"></use><g><use xlink:href="#c6MhWMoYL" opacity="1" fill-opacity="0" stroke="#000000" stroke-width="1" stroke-opacity="0"></use></g></g><g><use xlink:href="#c48t6BpiM6" opacity="1" fill="#ffffff" fill-opacity="1"></use><g><use xlink:href="#c48t6BpiM6" opacity="1" fill-opacity="0" stroke="#000000" stroke-width="1" stroke-opacity="0"></use></g></g><g><use xlink:href="#ed9hQ3xc4" opacity="1" fill="#000000" fill-opacity="0"></use><g><use xlink:href="#ed9hQ3xc4" opacity="1" fill-opacity="0" stroke="#000000" stroke-width="1" stroke-opacity="0"></use></g></g><g><use xlink:href="#doXuEiGyk" opacity="1" fill="#ffffff" fill-opacity="1"></use><g><use xlink:href="#doXuEiGyk" opacity="1" fill-opacity="0" stroke="#000000" stroke-width="1" stroke-opacity="0"></use></g></g><g><use xlink:href="#b3twh96XQ3" opacity="1" fill="#000000" fill-opacity="0"></use><g><use xlink:href="#b3twh96XQ3" opacity="1" fill-opacity="0" stroke="#000000" stroke-width="1" stroke-opacity="0"></use></g></g><g><use xlink:href="#algJIRi5F" opacity="1" fill="#ffffff" fill-opacity="1"></use><g><use xlink:href="#algJIRi5F" opacity="1" fill-opacity="0" stroke="#000000" stroke-width="1" stroke-opacity="0"></use></g></g><g><use xlink:href="#b4pkoFAhIT" opacity="1" fill="#000000" fill-opacity="0"></use><g><use xlink:href="#b4pkoFAhIT" opacity="1" fill-opacity="0" stroke="#000000" stroke-width="1" stroke-opacity="0"></use></g></g></g></g></svg>