<?xml version="1.0" encoding="UTF-8"?>
<svg width="48px" height="48px" viewBox="0 0 48 48" version="1.1" xmlns="http://www.w3.org/2000/svg" xmlns:xlink="http://www.w3.org/1999/xlink">
    <title>bastion-host</title>
    <g id="V2-Icons" stroke="none" stroke-width="1" fill="none" fill-rule="evenodd">
        <g id="IBM-/-Cloud-/-Security" transform="translate(-133, -14)">
            <g id="bastion-host(1)" transform="translate(133, 14)">
                <polygon id="Fill-4" fill="#FA4D56" points="0 48 48 48 48 0 0 0"></polygon>
                <path d="M32.645475,14.03175 C32.3607923,13.6941952 31.9415737,13.4995865 31.5,13.4999993 L29.481825,13.4999993 C29.0555996,13.4999993 28.6659512,13.7407911 28.4754,14.12205 L28.03635,14.9999993 L27,14.9999993 L27,14.625 C27,14.0036797 26.4963203,13.4999993 25.875,13.4999993 L22.125,13.4999993 C21.5036797,13.4999993 21,14.0036797 21,14.625 L21,14.9999993 L19.96365,14.9999993 L19.5249,14.1225 C19.3340883,13.7409614 18.944092,13.4999993 18.5175,13.4999993 L16.5,13.4999993 C16.0585631,13.4999993 15.6395749,13.6946108 15.3546324,14.031767 C15.0696899,14.3689232 14.9477257,14.8144749 15.021225,15.24975 L15.5493,18.375 C15.7322679,19.4574527 16.6696926,20.249839 17.7675,20.25 L18,20.25 L18,29.25 C16.7579248,29.251364 15.751364,30.2579248 15.75,31.4999993 L15.75,34.4999993 L32.25,34.4999993 L32.25,31.4999993 C32.248636,30.2579248 31.2420752,29.251364 30,29.25 L30,20.25 L30.2325,20.25 C31.3303925,20.2499488 32.2679429,19.4575366 32.450925,18.375 L32.979,15.24975 C33.0531032,14.8144204 32.9310231,14.3685962 32.645475,14.03175 Z M30.75,31.5 L30.75,33 L17.25,33 L17.25,31.5 C17.2503722,31.0859407 17.5859407,30.7503722 18,30.75 L30,30.75 C30.4140593,30.7503722 30.7496278,31.0859407 30.75,31.5 L30.75,31.5 Z M28.5,29.25 L19.5,29.25 L19.5,20.25 L28.5,20.25 L28.5,29.25 Z M30.971925,18.12525 C30.9115144,18.4863702 30.5986375,18.750724 30.2325,18.750002 L17.7675,18.750002 C17.401129,18.7508406 17.0880403,18.4862564 17.027775,18.124875 L16.5,15 L18.28635,15 L19.03635,16.5 L22.5,16.5 L22.5,15 L25.5,15 L25.5,16.5 L28.9629,16.5 L29.71365,15 L31.5,15 L30.971925,18.12525 Z" id="Shape" fill="#FFFFFF" fill-rule="nonzero"></path>
                <rect id="_Transparent_Rectangle_" x="12" y="12" width="24" height="24"></rect>
            </g>
        </g>
    </g>
</svg>