<?xml version="1.0" encoding="UTF-8"?>
<svg width="48px" height="48px" viewBox="0 0 48 48" version="1.1" xmlns="http://www.w3.org/2000/svg" xmlns:xlink="http://www.w3.org/1999/xlink">
    <title>firewall--classic</title>
    <g id="V2-Icons" stroke="none" stroke-width="1" fill="none" fill-rule="evenodd">
        <g id="IBM-/-Cloud-/-Security" transform="translate(-269, -13)">
            <g id="firewall--classic" transform="translate(269, 13)">
                <polygon id="Fill-4" fill="#FA4D56" points="0 48 48 48 48 0 0 0"></polygon>
                <path d="M33,27 L33,24.75 C33,23.0931458 31.6568542,21.75 30,21.75 C28.3431458,21.75 27,23.0931458 27,24.75 L27,27 C26.1719669,27.0009506 25.5009506,27.6719669 25.5,28.5 L25.5,33 C25.5009506,33.8280331 26.1719669,34.4990494 27,34.5 L33,34.5 C33.8280331,34.4990494 34.4990494,33.8280331 34.5,33 L34.5,28.5 C34.4990494,27.6719669 33.8280331,27.0009506 33,27 Z M28.5,24.75 C28.5,23.9215729 29.1715729,23.25 30,23.25 C30.8284271,23.25 31.5,23.9215729 31.5,24.75 L31.5,27 L28.5,27 L28.5,24.75 Z M33,33 L27,33 L27,28.5 L33,28.5 L33,33 Z" id="Shape" fill="#FFFFFF" fill-rule="nonzero"></path>
                <path d="M23.25,32.25 L15,32.25 C14.1715729,32.25 13.5,31.5784271 13.5,30.75 L13.5,28.5 C13.5,27.6715729 14.1715729,27 15,27 L23.25,27 L23.25,28.5 L15,28.5 L15,30.75 L23.25,30.75 L23.25,32.25 Z" id="Path" fill="#FFFFFF" fill-rule="nonzero"></path>
                <path d="M24.75,25.5 L18,25.5 C17.1715729,25.5 16.5,24.8284271 16.5,24 L16.5,21.75 C16.5,20.9215729 17.1715729,20.25 18,20.25 L26.25,20.25 L26.25,21.75 L18,21.75 L18,24 L24.75,24 L24.75,25.5 Z" id="Path" fill="#FFFFFF" fill-rule="nonzero"></path>
                <path d="M28.5,18.75 L15,18.75 C14.1715729,18.75 13.5,18.0784271 13.5,17.25 L13.5,15 C13.5,14.1715729 14.1715729,13.5 15,13.5 L28.5,13.5 C29.3284271,13.5 30,14.1715729 30,15 L30,17.25 C30,18.0784271 29.3284271,18.75 28.5,18.75 Z M15,17.25 L28.5,17.25 L28.5,15 L15,15 L15,17.25 Z" id="Shape" fill="#FFFFFF" fill-rule="nonzero"></path>
                <rect id="_Transparent_Rectangle_" x="12" y="12" width="24" height="24"></rect>
            </g>
        </g>
    </g>
</svg>