<?xml version="1.0" encoding="UTF-8"?>
<svg width="48px" height="48px" viewBox="0 0 48 48" version="1.1" xmlns="http://www.w3.org/2000/svg" xmlns:xlink="http://www.w3.org/1999/xlink">
    <title>document--signed</title>
    <g id="V2-Icons" stroke="none" stroke-width="1" fill="none" fill-rule="evenodd">
        <g id="IBM-/-Cloud-/-Security" transform="translate(-724, -13)">
            <g id="document--signed" transform="translate(724, 13)">
                <rect id="Rectangle-Copy-5" fill="#FA4D56" x="0" y="0" width="48" height="48"></rect>
                <g transform="translate(12, 12)">
                    <path d="M14.560575,22.5 L11.25,22.5 L11.25,19.189275 L15.025275,15.414 C15.0085671,15.2766307 15.0001269,15.1383816 15,15 C14.9990317,13.4452081 15.9575981,12.0510776 17.4096888,11.4953698 C18.8617795,10.939662 20.5061807,11.33765 21.5434608,12.4958506 C22.580741,13.6540511 22.7957323,15.3322133 22.083916,16.7144927 C21.3720997,18.096772 19.8811312,18.8964359 18.33585,18.724725 L14.560575,22.5 Z M12.75,21 L13.939425,21 L17.844,17.095275 L18.248625,17.188125 C19.2393939,17.4241685 20.2663834,16.9733459 20.7632519,16.084267 C21.2601203,15.1951881 21.1059302,14.0842544 20.3857109,13.3640991 C19.6654915,12.6439438 18.5545441,12.4898525 17.6655094,12.9868 C16.7764747,13.4837475 16.3257434,14.5107771 16.561875,15.501525 L16.654575,15.906 L12.75,19.810725 L12.75,21 Z" id="Shape" fill="#FFFFFF" fill-rule="nonzero"></path>
                    <circle id="Oval" fill="#FFFFFF" fill-rule="nonzero" cx="18.75" cy="15" r="1"></circle>
                    <rect id="Rectangle" fill="#FFFFFF" fill-rule="nonzero" x="6" y="4.5" width="9" height="1.5"></rect>
                    <rect id="Rectangle" fill="#FFFFFF" fill-rule="nonzero" x="6" y="7.5" width="9" height="1.5"></rect>
                    <rect id="Rectangle" fill="#FFFFFF" fill-rule="nonzero" x="6" y="10.5" width="4.5" height="1.5"></rect>
                    <rect id="Rectangle" fill="#FFFFFF" fill-rule="nonzero" x="6" y="18" width="3" height="1.5"></rect>
                    <path d="M9,22.5 L4.5,22.5 C3.67193272,22.4991319 3.0008681,21.8280673 3,21 L3,3 C3.0008681,2.17193272 3.67193272,1.5008681 4.5,1.5 L16.5,1.5 C17.3280673,1.5008681 17.9991319,2.17193272 18,3 L18,9.75 L16.5,9.75 L16.5,3 L4.5,3 L4.5,21 L9,21 L9,22.5 Z" id="Path" fill="#FFFFFF" fill-rule="nonzero"></path>
                    <rect id="_Transparent_Rectangle_" x="0" y="0" width="24" height="24"></rect>
                </g>
            </g>
        </g>
    </g>
</svg>