<?xml version="1.0" encoding="UTF-8"?>
<svg width="48px" height="48px" viewBox="0 0 48 48" version="1.1" xmlns="http://www.w3.org/2000/svg" xmlns:xlink="http://www.w3.org/1999/xlink">
    <title>document--protected</title>
    <g id="V2-Icons" stroke="none" stroke-width="1" fill="none" fill-rule="evenodd">
        <g id="IBM-/-Cloud-/-Security" transform="translate(-595, -13)">
            <g id="document--protected" transform="translate(595, 13)">
                <rect id="Rectangle" fill="#FA4D56" x="0" y="0" width="48" height="48"></rect>
                <g transform="translate(12, 12)">
                    <path d="M21,15.75 L21,13.5 C21,11.8431458 19.6568542,10.5 18,10.5 C16.3431458,10.5 15,11.8431458 15,13.5 L15,15.75 C14.1720012,15.7510331 13.5010331,16.4220012 13.5,17.25 L13.5,21 C13.5010331,21.8279988 14.1720012,22.4989669 15,22.5 L21,22.5 C21.8279988,22.4989669 22.4989669,21.8279988 22.5,21 L22.5,17.25 C22.4989669,16.4220012 21.8279988,15.7510331 21,15.75 Z M16.5,13.5 C16.5,12.6715729 17.1715729,12 18,12 C18.8284271,12 19.5,12.6715729 19.5,13.5 L19.5,15.75 L16.5,15.75 L16.5,13.5 Z M15,21 L15,17.25 L21,17.25 L21,21 L15,21 Z" id="Shape" fill="#FFFFFF" fill-rule="nonzero"></path>
                    <path d="M17.62425,6.81375 L12.53025,1.71975 C12.3896305,1.57908797 12.1988961,1.5 12,1.5 L4.5,1.5 C3.67256453,1.50238918 3.00238918,2.17256453 3,3 L3,21 C3.00238918,21.8274355 3.67256453,22.4976108 4.5,22.5 L10.5,22.5 L10.5,21 L4.5,21 L4.5,3 L10.5,3 L10.5,7.5 C10.5009506,8.32803305 11.1719669,8.9990494 12,9 L16.719,9 C17.2369499,8.99991821 17.7038528,8.68784754 17.9020031,8.20929913 C18.1001533,7.73075072 17.9905308,7.17996094 17.62425,6.81375 Z M12,7.5 L12,3.310575 L16.18905,7.5 L12,7.5 Z" id="Shape" fill="#FFFFFF" fill-rule="nonzero"></path>
                    <rect id="_Transparent_Rectangle_" x="0" y="0" width="24" height="24"></rect>
                </g>
            </g>
        </g>
    </g>
</svg>