<?xml version="1.0" encoding="UTF-8"?>
<svg width="48px" height="48px" viewBox="0 0 48 48" version="1.1" xmlns="http://www.w3.org/2000/svg" xmlns:xlink="http://www.w3.org/1999/xlink">
    <title>fingerprint-recognition</title>
    <g id="V2-Icons" stroke="none" stroke-width="1" fill="none" fill-rule="evenodd">
        <g id="IBM-/-Cloud-/-Security" transform="translate(-921, -13)">
            <g id="fingerprint-recognition" transform="translate(921, 13)">
                <rect id="Rectangle" fill="#FA4D56" x="0" y="0" width="48" height="48"></rect>
                <g transform="translate(12, 12)">
                    <path d="M5.25,3.9075 C5.00415246,3.90436681 4.78724485,3.74591882 4.70949472,3.51266843 C4.63174458,3.27941803 4.71020188,3.02251508 4.905,2.8725 C6.9744038,1.40845847 9.4665703,0.662916063 12,0.75 C13.995,0.75 16.86,1.0875 19.125,2.715 C19.3828391,2.89997759 19.4431246,3.2583416 19.26,3.5175 C19.0699454,3.77377455 18.7095927,3.83049674 18.45,3.645 C16.5266235,2.42265295 14.2773698,1.81326211 12,1.8975 C9.72636547,1.82025615 7.4891442,2.48352646 5.625,3.7875 C5.51886599,3.87198502 5.38546472,3.91467343 5.25,3.9075 L5.25,3.9075 Z" id="Path" fill="#FFFFFF" fill-rule="nonzero"></path>
                    <path d="M21.1725,9.195 C20.9843641,9.19328118 20.8085366,9.10118111 20.7,8.9475 C19.4025,7.1175 17.085,4.68 12,4.68 C8.56851038,4.59359024 5.31144024,6.18991868 3.2775,8.955 C3.0901984,9.21033217 2.73221454,9.26720811 2.475,9.0825 C2.34391932,8.9912748 2.25712072,8.84924367 2.235734,8.69098189 C2.21434727,8.53272012 2.26033421,8.37274499 2.3625,8.25 C4.61707738,5.20428098 8.2116194,3.44477365 12,3.5325 C16.2075,3.5325 19.3575,5.0925 21.63,8.2875 C21.8115734,8.54860421 21.7478671,8.9073712 21.4875,9.09 C21.3946536,9.15430717 21.2853614,9.19073788 21.1725,9.195 L21.1725,9.195 Z" id="Path" fill="#FFFFFF" fill-rule="nonzero"></path>
                    <path d="M9.21,23.25 C8.97200194,23.248752 8.7584844,23.1034415 8.67,22.8825 C8.60938579,22.7396913 8.61044427,22.578189 8.67292513,22.4361871 C8.73540598,22.2941851 8.85376092,22.1842933 9,22.1325 C12.2775,20.8725 14.25,18.2925 14.25,15.225 C14.2953408,14.6154899 14.0728902,14.0164689 13.6407106,13.5842894 C13.2085311,13.1521098 12.6095101,12.9296592 12,12.975 C10.605,12.975 9.93,13.725 9.75,15.4875 C9.57605111,17.2006861 8.07850131,18.4696277 6.36,18.36 C5.46088319,18.3730652 4.59769644,18.0075245 3.98140846,17.3527185 C3.36512049,16.6979125 3.05251685,15.814176 3.12,14.9175 C3.20627247,10.0904834 7.17251858,6.23813282 12,6.2925 C16.9501322,6.29241578 20.9711242,10.289952 21,15.24 C20.9470571,16.9142954 20.5939562,18.5654867 19.9575,20.115 C19.8305287,20.4021594 19.4995111,20.5378766 19.2075,20.4225 C19.0666996,20.3645052 18.9549586,20.252583 18.8971919,20.1116888 C18.8394253,19.9707946 18.8404365,19.812644 18.9,19.6725 C19.4759231,18.2625818 19.7983731,16.762047 19.8525,15.24 C19.8318392,10.9202613 16.3197801,7.43168305 12,7.44 C9.97240846,7.39984733 8.01214605,8.16801277 6.55165701,9.57503497 C5.09116796,10.9820572 4.25046082,12.912321 4.215,14.94 C4.15281892,15.5302111 4.34602695,16.1188381 4.74588477,16.5573918 C5.1457426,16.9959456 5.71407044,17.2425515 6.3075,17.235 C6.85303629,17.2892455 7.39763215,17.1232609 7.8201736,16.77396 C8.24271505,16.4246591 8.50816882,15.9210026 8.5575,15.375 C8.8275,13.0425 9.975,11.8575 11.9775,11.8575 C12.8953184,11.8111071 13.789499,12.1575665 14.4364543,12.8102471 C15.0834095,13.4629276 15.4219775,14.3601259 15.3675,15.2775 C15.3675,18.8325 13.1175,21.8175 9.3675,23.25 C9.31517209,23.2560115 9.26232791,23.2560115 9.21,23.25 Z" id="Path" fill="#FFFFFF" fill-rule="nonzero"></path>
                    <path d="M14.8275,22.71 C14.6838531,22.7076878 14.5456739,22.6545419 14.4375,22.56 C14.3294068,22.4529498 14.2685923,22.3071311 14.2685923,22.155 C14.2685923,22.0028689 14.3294068,21.8570502 14.4375,21.75 C16.1248468,20.0009362 17.0753839,17.6702409 17.0925,15.24 C17.0925,14.07 16.7325,10.2525 12.0675,10.2525 C10.6943876,10.2042022 9.35943258,10.7095394 8.3625,11.655 C7.47031186,12.5377372 6.97495075,13.7450107 6.99,15 C6.98589561,15.3160117 6.72853832,15.5700267 6.4125,15.57 L6.4125,15.57 C6.26003132,15.5720063 6.11311537,15.5128398 6.004592,15.4057259 C5.89606864,15.2986119 5.8349868,15.1524819 5.835,15 C5.81138958,13.447953 6.41114794,11.9512587 7.5,10.845 C8.70695707,9.68656079 10.3276689,9.05988557 12,9.105 C16.56,9.105 18.18,12.405 18.18,15.24 C18.1701932,17.9451834 17.1233126,20.5435948 15.255,22.5 C15.1506297,22.6298535 14.9940671,22.7067614 14.8275,22.71 Z" id="Path" fill="#FFFFFF" fill-rule="nonzero"></path>
                    <path d="M6.495,20.805 C6.10405395,20.8040829 5.7134577,20.7815485 5.325,20.7375 C5.12135861,20.7147243 4.94533689,20.5850373 4.86324052,20.3972909 C4.78114415,20.2095444 4.80544551,19.9922617 4.92699052,19.8272909 C5.04853553,19.6623201 5.24885861,19.5747243 5.4525,19.5975 C7.32,19.8075 8.79,19.4775 9.8325,18.6075 C10.8035308,17.7391337 11.3778609,16.5119095 11.4225,15.21 C11.4300068,15.056531 11.4999671,14.9128128 11.6161273,14.8122351 C11.7322875,14.7116574 11.8845356,14.6629756 12.0375,14.6775 C12.3517582,14.7014743 12.5905351,14.9700983 12.5775,15.285 C12.5136384,16.9061326 11.7869804,18.4299453 10.5675,19.5 C9.4098198,20.408168 7.96490227,20.8711802 6.495,20.805 L6.495,20.805 Z" id="Path" fill="#FFFFFF" fill-rule="nonzero"></path>
                    <rect id="_Transparent_Rectangle_" x="0" y="0" width="24" height="24"></rect>
                </g>
            </g>
        </g>
    </g>
</svg>