<?xml version="1.0" encoding="UTF-8"?>
<svg width="48px" height="48px" viewBox="0 0 48 48" version="1.1" xmlns="http://www.w3.org/2000/svg" xmlns:xlink="http://www.w3.org/1999/xlink">
    <title>firewall</title>
    <g id="V2-Icons" stroke="none" stroke-width="1" fill="none" fill-rule="evenodd">
        <g id="IBM-/-Cloud-/-Security" transform="translate(-989, -14)">
            <g id="firewall" transform="translate(989, 14)">
                <g id="Key-v2-Icon-Copy" fill="#FA4D56">
                    <polygon id="Fill-4" points="0 48 48 48 48 0 0 0"></polygon>
                </g>
                <g transform="translate(12, 12)">
                    <path d="M20.25,15.2979 L20.25,17.5479 C19.5,17.5479 18.75,16.4229 18.75,14.5479 L18.75,12.2979 C15,16.0479 15,17.5479 15,19.0479 C15,20.5526582 15.8993446,21.9117337 17.28435,22.5 C17.5135854,21.4810804 18.0209412,20.5457097 18.75,19.7979 C19.4790588,20.5457097 19.9864146,21.4810804 20.21565,22.5 C21.6006554,21.9117337 22.5,20.5526582 22.5,19.0479 C22.5,17.5479 21.65625,16.36935 20.25,15.2979 Z" id="Path" fill="#FFFFFF" fill-rule="nonzero"></path>
                    <path d="M12.75,21 L3,21 L3,18 L12.75,18 L12.75,16.5 L3,16.5 C2.17196695,16.5009506 1.5009506,17.1719669 1.5,18 L1.5,21 C1.5009506,21.8280331 2.17196695,22.4990494 3,22.5 L12.75,22.5 L12.75,21 Z" id="Path" fill="#FFFFFF" fill-rule="nonzero"></path>
                    <path d="M21,9 L5.25,9 C4.42196695,9.0009506 3.7509506,9.67196695 3.75,10.5 L3.75,13.5 C3.7509506,14.3280331 4.42196695,14.9990494 5.25,15 L12.75,15 L12.75,13.5 L5.25,13.5 L5.25,10.5 L21,10.5 L21.000825,12 L22.5,12 L22.5,10.5 C22.4990494,9.67196695 21.8280331,9.0009506 21,9 Z" id="Path" fill="#FFFFFF" fill-rule="nonzero"></path>
                    <path d="M18.75,7.5 L3,7.5 C2.17193272,7.4991319 1.5008681,6.82806728 1.5,6 L1.5,3 C1.5008681,2.17193272 2.17193272,1.5008681 3,1.5 L18.75,1.5 C19.5780673,1.5008681 20.2491319,2.17193272 20.25,3 L20.25,6 C20.2491319,6.82806728 19.5780673,7.4991319 18.75,7.5 L18.75,7.5 Z M3,3 L3,6 L18.75,6 L18.75,3 L3,3 Z" id="Shape" fill="#FFFFFF" fill-rule="nonzero"></path>
                    <rect id="_Transparent_Rectangle_" x="0" y="0" width="24" height="24"></rect>
                </g>
            </g>
        </g>
    </g>
</svg>