<?xml version="1.0" encoding="UTF-8"?>
<svg width="48px" height="48px" viewBox="0 0 48 48" version="1.1" xmlns="http://www.w3.org/2000/svg" xmlns:xlink="http://www.w3.org/1999/xlink">
    <title>gateway--vpn</title>
    <g id="V2-Icons" stroke="none" stroke-width="1" fill="none" fill-rule="evenodd">
        <g id="IBM-/-Cloud-/-Security" transform="translate(-1057, -77)">
            <g id="gateway--vpn" transform="translate(1057, 77)">
                <polygon id="Fill-4" fill="#FA4D56" points="0 48 48 48 48 0 0 0"></polygon>
                <path d="M27,22.708725 L27,21 C27,19.3431458 25.6568542,18 24,18 C22.3431458,18 21,19.3431458 21,21 L21,22.708725 C20.5374947,22.9744829 20.2516735,23.4665812 20.25,24 L20.25,27.75 C20.2509506,28.5780331 20.9219669,29.2490494 21.75,29.25 L26.25,29.25 C27.0780331,29.2490494 27.7490494,28.5780331 27.75,27.75 L27.75,24 C27.7483265,23.4665812 27.4625053,22.9744829 27,22.708725 Z M24,19.5 C24.8280331,19.5009506 25.4990494,20.1719669 25.5,21 L25.5,22.5 L22.5,22.5 L22.5,21 C22.5009506,20.1719669 23.1719669,19.5009506 24,19.5 L24,19.5 Z M26.25,27.75 L21.75,27.75 L21.75,24 L26.25,24 L26.25,27.75 Z" id="Shape" fill="#FFFFFF" fill-rule="nonzero"></path>
                <path d="M34.810575,25.060575 C35.0919194,24.7793261 35.249985,24.3978135 35.249985,24 C35.249985,23.6021865 35.0919194,23.2206739 34.810575,22.939425 L30.4704,18.599475 L32.64585,16.452375 C33.3055118,16.6158395 33.9927139,16.3157904 34.3212414,15.7208584 C34.649769,15.1259264 34.5376801,14.3845007 34.0479698,13.9132701 C33.5582596,13.4420395 32.8130725,13.3585393 32.2312114,13.7096974 C31.6493503,14.0608556 31.3759442,14.7590857 31.56465,15.411975 L29.409675,17.5386 L25.060575,13.189425 C24.7793261,12.9080806 24.3978135,12.750015 24,12.750015 C23.6021865,12.750015 23.2206739,12.9080806 22.939425,13.189425 L18.599475,17.52945 L16.4526,15.353775 C16.6159719,14.6939986 16.3157503,14.0067606 15.7206713,13.6783153 C15.1255924,13.34987 14.3840915,13.4621441 13.9129208,13.9520353 C13.44175,14.4419265 13.3584374,15.1872372 13.7098077,15.7690741 C14.0611781,16.3509109 14.7595863,16.6241416 15.4125,16.4352 L17.53875,18.590325 L13.189425,22.939425 C12.9080806,23.2206739 12.750015,23.6021865 12.750015,24 C12.750015,24.3978135 12.9080806,24.7793261 13.189425,25.060575 L17.5386,29.409675 L15.4125,31.5648 C14.7610771,31.3772454 14.0648794,31.6504414 13.7148622,32.2309726 C13.3648449,32.8115039 13.4482193,33.5547239 13.9181658,34.0432717 C14.3881122,34.5318195 15.1275378,34.6439673 15.7212122,34.3167377 C16.3148867,33.9895081 16.6148888,33.3044344 16.45275,32.646225 L18.599625,30.47055 L22.939575,34.810575 C23.2208239,35.0919194 23.6023365,35.249985 24.00015,35.249985 C24.3979635,35.249985 24.7794761,35.0919194 25.060725,34.810575 L29.409825,30.4614 L31.5648,32.588025 C31.3772523,33.2395875 31.6505691,33.9359006 32.2312561,34.2859156 C32.8119431,34.6359306 33.5553012,34.5524288 34.0438616,34.0823047 C34.5324219,33.6121806 34.6444421,32.8725824 34.3170118,32.2788677 C33.9895814,31.6851529 33.3042915,31.3852668 32.646,31.547625 L30.47055,29.400525 L34.810575,25.060575 Z M24,33.75 L14.25,24 L24,14.25 L33.75,24 L24,33.75 Z" id="Shape" fill="#FFFFFF" fill-rule="nonzero"></path>
                <rect id="_Transparent_Rectangle_" x="12" y="12" width="24" height="24"></rect>
            </g>
        </g>
    </g>
</svg>