<?xml version="1.0" encoding="UTF-8" standalone="no"?>
<!DOCTYPE svg PUBLIC "-//W3C//DTD SVG 1.1//EN" "http://www.w3.org/Graphics/SVG/1.1/DTD/svg11.dtd">
<svg version="1.1" xmlns="http://www.w3.org/2000/svg" xmlns:xlink="http://www.w3.org/1999/xlink" preserveAspectRatio="xMidYMid meet" viewBox="0 0 640 640" width="640" height="640"><defs><path d="M334.93 337.91L334.93 351.43L319.1 351.43L319.1 337.91L334.93 337.91Z" id="cc5zsClt5"></path><path d="M335.23 73.66L339.16 74.06L343.05 74.61L346.9 75.32L350.69 76.17L354.41 77.18L358.09 78.32L361.69 79.59L365.23 81.01L368.71 82.56L372.1 84.23L375.43 86.03L378.66 87.96L381.83 90.01L384.91 92.18L387.89 94.45L390.79 96.83L393.59 99.33L396.28 101.92L398.88 104.63L401.38 107.43L403.77 110.32L406.05 113.3L408.21 116.38L410.27 119.53L412.19 122.78L413.99 126.1L415.68 129.49L417.23 132.95L418.63 136.5L419.93 140.1L421.06 143.76L422.06 147.49L422.92 151.28L423.62 155.11L424.17 159.01L424.58 162.94L424.83 166.93L424.9 170.94L424.9 215.31L428.08 219.04L431.09 222.87L433.94 226.77L436.63 230.76L439.15 234.81L441.51 238.94L443.71 243.13L445.74 247.38L447.62 251.68L449.32 256.04L450.87 260.45L452.26 264.89L453.48 269.37L454.53 273.89L455.43 278.43L456.16 282.99L456.73 287.58L457.14 292.17L457.39 296.78L457.47 301.39L457.39 306.01L457.14 310.6L456.73 315.2L456.16 319.78L455.43 324.35L454.53 328.89L453.48 333.4L452.26 337.88L450.87 342.34L449.32 346.74L447.62 351.09L445.74 355.41L443.71 359.65L441.51 363.85L439.15 367.96L436.63 372.02L433.94 376.01L431.09 379.92L428.08 383.74L424.9 387.47L421.26 391.43L417.51 395.19L413.64 398.78L409.65 402.18L405.56 405.39L401.35 408.42L397.07 411.27L392.69 413.93L388.23 416.41L383.69 418.69L379.07 420.81L374.4 422.72L369.67 424.45L364.87 425.99L360.05 427.35L355.16 428.51L350.26 429.49L345.31 430.27L340.35 430.87L335.37 431.28L330.37 431.49L325.37 431.52L320.37 431.36L315.37 431.01L310.39 430.46L305.42 429.72L300.48 428.78L295.57 427.66L290.68 426.34L285.85 424.84L281.05 423.13L276.33 421.23L271.64 419.13L267.02 416.85L262.5 414.37L258.02 411.69L253.65 408.81L249.35 405.73L245.14 402.46L241.05 399L237.09 395.37L233.33 391.61L229.74 387.74L226.33 383.75L223.11 379.67L220.08 375.48L217.23 371.18L214.56 366.81L212.09 362.36L209.8 357.82L207.68 353.21L205.77 348.54L204.04 343.81L202.5 339.03L201.14 334.2L199.97 329.33L198.99 324.42L198.21 319.48L197.62 314.52L197.21 309.54L196.99 304.54L196.96 299.55L197.12 294.56L197.48 289.56L198.03 284.58L198.77 279.62L199.7 274.68L200.83 269.77L202.15 264.89L203.65 260.07L205.36 255.29L207.26 250.55L209.36 245.88L211.65 241.27L214.13 236.73L216.82 232.26L219.7 227.89L222.78 223.59L226.04 219.41L229.51 215.31L229.51 170.94L229.59 166.93L229.84 162.94L230.23 159.01L230.79 155.11L231.5 151.28L232.35 147.49L233.36 143.76L234.49 140.1L235.77 136.5L237.19 132.95L238.74 129.49L240.41 126.1L242.22 122.78L244.15 119.53L246.19 116.38L248.37 113.3L250.64 110.32L253.02 107.43L255.52 104.63L258.12 101.92L260.83 99.33L263.63 96.83L266.53 94.45L269.51 92.18L272.59 90.01L275.74 87.96L279 86.03L282.32 84.23L285.71 82.56L289.18 81.01L292.73 79.59L296.33 78.32L300 77.18L303.73 76.17L307.52 75.32L311.36 74.61L315.26 74.06L319.19 73.66L323.18 73.42L327.2 73.34L331.24 73.42L335.23 73.66ZM265.49 289.55L242.49 312.53L302.78 372.88L411.55 263.83L388.55 240.84L302.41 326.92L265.49 289.55ZM321.92 106.22L319.32 106.53L316.77 106.96L314.22 107.47L311.73 108.08L309.27 108.78L306.86 109.57L304.47 110.45L302.14 111.41L299.85 112.48L297.61 113.6L295.42 114.82L293.28 116.11L291.19 117.49L289.16 118.93L287.19 120.45L285.27 122.03L283.43 123.69L281.64 125.42L279.9 127.2L278.24 129.05L276.67 130.96L275.15 132.94L273.7 134.97L272.32 137.05L271.03 139.19L269.81 141.38L268.69 143.62L267.62 145.9L266.66 148.23L265.78 150.61L264.98 153.03L264.28 155.48L263.67 157.98L263.16 160.52L262.74 163.07L262.42 165.67L262.2 168.29L262.08 170.94L262.08 188.54L265.12 186.83L268.19 185.2L271.28 183.67L274.42 182.22L277.58 180.86L280.77 179.58L283.98 178.39L287.22 177.3L290.48 176.29L293.75 175.37L297.04 174.53L300.35 173.78L303.69 173.13L307.03 172.55L310.36 172.06L313.73 171.68L317.09 171.37L320.46 171.14L323.84 171.01L327.2 170.97L330.58 171.01L333.96 171.14L337.33 171.37L340.69 171.68L344.04 172.06L347.4 172.55L350.73 173.13L354.05 173.78L357.36 174.53L360.66 175.37L363.94 176.29L367.2 177.3L370.43 178.39L373.65 179.58L376.83 180.86L380 182.22L383.12 183.67L386.23 185.2L389.3 186.83L392.34 188.54L392.34 170.94L392.22 168.29L392 165.67L391.67 163.07L391.26 160.52L390.75 157.98L390.14 155.48L389.43 153.03L388.63 150.61L387.75 148.23L386.78 145.9L385.73 143.62L384.6 141.38L383.39 139.19L382.08 137.05L380.72 134.97L379.27 132.94L377.75 130.96L376.16 129.05L374.5 127.2L372.78 125.42L370.99 123.69L369.13 122.03L367.22 120.45L365.24 118.93L363.21 117.49L361.14 116.11L359 114.82L356.81 113.6L354.57 112.48L352.28 111.41L349.94 110.45L347.57 109.57L345.14 108.78L342.68 108.08L340.18 107.47L337.65 106.96L335.08 106.53L332.49 106.22L329.86 105.99L327.2 105.88L324.55 105.99L321.92 106.22Z" id="e1OCs5KGjR"></path><path d="M335.23 73.66L339.16 74.06L343.05 74.61L346.9 75.32L350.69 76.17L354.41 77.18L358.09 78.32L361.69 79.59L365.23 81.01L368.71 82.56L372.1 84.23L375.43 86.03L378.66 87.96L381.83 90.01L384.91 92.18L387.89 94.45L390.79 96.83L393.59 99.33L396.28 101.92L398.88 104.63L401.38 107.43L403.77 110.32L406.05 113.3L408.21 116.38L410.27 119.53L412.19 122.78L413.99 126.1L415.68 129.49L417.23 132.95L418.63 136.5L419.93 140.1L421.06 143.76L422.06 147.49L422.92 151.28L423.62 155.11L424.17 159.01L424.58 162.94L424.83 166.93L424.9 170.94L424.9 215.31L428.08 219.04L431.09 222.87L433.94 226.77L436.63 230.76L439.15 234.81L441.51 238.94L443.71 243.13L445.74 247.38L447.62 251.68L449.32 256.04L450.87 260.45L452.26 264.89L453.48 269.37L454.53 273.89L455.43 278.43L456.16 282.99L456.73 287.58L457.14 292.17L457.39 296.78L457.47 301.39L457.39 306.01L457.14 310.6L456.73 315.2L456.16 319.78L455.43 324.35L454.53 328.89L453.48 333.4L452.26 337.88L450.87 342.34L449.32 346.74L447.62 351.09L445.74 355.41L443.71 359.65L441.51 363.85L439.15 367.96L436.63 372.02L433.94 376.01L431.09 379.92L428.08 383.74L424.9 387.47L421.26 391.43L417.51 395.19L413.64 398.78L409.65 402.18L405.56 405.39L401.35 408.42L397.07 411.27L392.69 413.93L388.23 416.41L383.69 418.69L379.07 420.81L374.4 422.72L369.67 424.45L364.87 425.99L360.05 427.35L355.16 428.51L350.26 429.49L345.31 430.27L340.35 430.87L335.37 431.28L330.37 431.49L325.37 431.52L320.37 431.36L315.37 431.01L310.39 430.46L305.42 429.72L300.48 428.78L295.57 427.66L290.68 426.34L285.85 424.84L281.05 423.13L276.33 421.23L271.64 419.13L267.02 416.85L262.5 414.37L258.02 411.69L253.65 408.81L249.35 405.73L245.14 402.46L241.05 399L237.09 395.37L233.33 391.61L229.74 387.74L226.33 383.75L223.11 379.67L220.08 375.48L217.23 371.18L214.56 366.81L212.09 362.36L209.8 357.82L207.68 353.21L205.77 348.54L204.04 343.81L202.5 339.03L201.14 334.2L199.97 329.33L198.99 324.42L198.21 319.48L197.62 314.52L197.21 309.54L196.99 304.54L196.96 299.55L197.12 294.56L197.48 289.56L198.03 284.58L198.77 279.62L199.7 274.68L200.83 269.77L202.15 264.89L203.65 260.07L205.36 255.29L207.26 250.55L209.36 245.88L211.65 241.27L214.13 236.73L216.82 232.26L219.7 227.89L222.78 223.59L226.04 219.41L229.51 215.31L229.51 170.94L229.59 166.93L229.84 162.94L230.23 159.01L230.79 155.11L231.5 151.28L232.35 147.49L233.36 143.76L234.49 140.1L235.77 136.5L237.19 132.95L238.74 129.49L240.41 126.1L242.22 122.78L244.15 119.53L246.19 116.38L248.37 113.3L250.64 110.32L253.02 107.43L255.52 104.63L258.12 101.92L260.83 99.33L263.63 96.83L266.53 94.45L269.51 92.18L272.59 90.01L275.74 87.96L279 86.03L282.32 84.23L285.71 82.56L289.18 81.01L292.73 79.59L296.33 78.32L300 77.18L303.73 76.17L307.52 75.32L311.36 74.61L315.26 74.06L319.19 73.66L323.18 73.42L327.2 73.34L331.24 73.42L335.23 73.66ZM265.49 289.55L242.49 312.53L302.78 372.88L411.55 263.83L388.55 240.84L302.41 326.92L265.49 289.55ZM321.92 106.22L319.32 106.53L316.77 106.96L314.22 107.47L311.73 108.08L309.27 108.78L306.86 109.57L304.47 110.45L302.14 111.41L299.85 112.48L297.61 113.6L295.42 114.82L293.28 116.11L291.19 117.49L289.16 118.93L287.19 120.45L285.27 122.03L283.43 123.69L281.64 125.42L279.9 127.2L278.24 129.05L276.67 130.96L275.15 132.94L273.7 134.97L272.32 137.05L271.03 139.19L269.81 141.38L268.69 143.62L267.62 145.9L266.66 148.23L265.78 150.61L264.98 153.03L264.28 155.48L263.67 157.98L263.16 160.52L262.74 163.07L262.42 165.67L262.2 168.29L262.08 170.94L262.08 188.54L265.12 186.83L268.19 185.2L271.28 183.67L274.42 182.22L277.58 180.86L280.77 179.58L283.98 178.39L287.22 177.3L290.48 176.29L293.75 175.37L297.04 174.53L300.35 173.78L303.69 173.13L307.03 172.55L310.36 172.06L313.73 171.68L317.09 171.37L320.46 171.14L323.84 171.01L327.2 170.97L330.58 171.01L333.96 171.14L337.33 171.37L340.69 171.68L344.04 172.06L347.4 172.55L350.73 173.13L354.05 173.78L357.36 174.53L360.66 175.37L363.94 176.29L367.2 177.3L370.43 178.39L373.65 179.58L376.83 180.86L380 182.22L383.12 183.67L386.23 185.2L389.3 186.83L392.34 188.54L392.34 170.94L392.22 168.29L392 165.67L391.67 163.07L391.26 160.52L390.75 157.98L390.14 155.48L389.43 153.03L388.63 150.61L387.75 148.23L386.78 145.9L385.73 143.62L384.6 141.38L383.39 139.19L382.08 137.05L380.72 134.97L379.27 132.94L377.75 130.96L376.16 129.05L374.5 127.2L372.78 125.42L370.99 123.69L369.13 122.03L367.22 120.45L365.24 118.93L363.21 117.49L361.14 116.11L359 114.82L356.81 113.6L354.57 112.48L352.28 111.41L349.94 110.45L347.57 109.57L345.14 108.78L342.68 108.08L340.18 107.47L337.65 106.96L335.08 106.53L332.49 106.22L329.86 105.99L327.2 105.88L324.55 105.99L321.92 106.22Z" id="gpTBF49W"></path><path d="M3.24 319.27C3.24 493.56 144.65 634.85 319.1 634.85C493.54 634.85 634.95 493.56 634.95 319.27C634.95 145 493.54 3.71 319.1 3.71C144.65 3.71 3.24 145 3.24 319.27Z" id="b3j6OwNgJY"></path><path d="M3.24 319.27C3.24 493.56 144.65 634.85 319.1 634.85C493.54 634.85 634.95 493.56 634.95 319.27C634.95 145 493.54 3.71 319.1 3.71C144.65 3.71 3.24 145 3.24 319.27Z" id="b1nvDvxYYF"></path><path d="M143.26 158.69C143.73 154.98 147.11 152.36 150.82 152.83C153.88 153.21 156.3 155.62 156.68 158.69C156.68 179.07 156.68 280.95 156.68 464.33C167.31 461.17 252.35 435.84 262.98 432.67C262.98 289.56 262.98 210.07 262.98 194.17C263.45 190.47 266.83 187.84 270.53 188.31C273.6 188.69 276.01 191.1 276.41 194.17C276.41 210.64 276.41 292.98 276.41 441.22C267.53 443.87 223.15 457.1 143.26 480.92C143.26 280.42 143.26 173.01 143.26 158.69Z" id="alIy7eKrJ"></path><path d="M143.26 158.69C143.73 154.98 147.11 152.36 150.82 152.83C153.88 153.21 156.3 155.62 156.68 158.69C156.68 179.07 156.68 280.95 156.68 464.33C167.31 461.17 252.35 435.84 262.98 432.67C262.98 289.56 262.98 210.07 262.98 194.17C263.45 190.47 266.83 187.84 270.53 188.31C273.6 188.69 276.01 191.1 276.41 194.17C276.41 210.64 276.41 292.98 276.41 441.22C267.53 443.87 223.15 457.1 143.26 480.92C143.26 280.42 143.26 173.01 143.26 158.69Z" id="aC2Gt9WM4"></path><path d="M173.69 464.24C173.69 434.91 173.69 200.37 173.69 171.04C174.07 168.56 176.39 166.87 178.87 167.24C180.83 167.55 182.37 169.09 182.68 171.04C182.68 200.37 182.68 435.01 182.68 464.33C182.89 466.56 180.66 468.25 178.14 468.25C175.79 468.36 173.82 466.58 173.69 464.25C173.69 464.25 173.69 464.24 173.69 464.24Z" id="c1OHFawUtb"></path><path d="M173.69 464.24C173.69 434.91 173.69 200.37 173.69 171.04C174.07 168.56 176.39 166.87 178.87 167.24C180.83 167.55 182.37 169.09 182.68 171.04C182.68 200.37 182.68 435.01 182.68 464.33C182.89 466.56 180.66 468.25 178.14 468.25C175.79 468.36 173.82 466.58 173.69 464.25C173.69 464.25 173.69 464.24 173.69 464.24Z" id="a28UtwovuS"></path><path d="M205.07 455.06C205.07 427.38 205.07 206 205.07 178.32C205.46 175.85 207.78 174.15 210.25 174.53C212.21 174.83 213.76 176.36 214.06 178.32C214.06 206.03 214.06 427.66 214.06 455.37C214.16 457.06 211.94 459.06 209.52 459.06C207.19 459.18 205.2 457.4 205.07 455.06C205.07 455.06 205.07 455.06 205.07 455.06Z" id="ewTXv47Vv"></path><path d="M205.07 455.06C205.07 427.38 205.07 206 205.07 178.32C205.46 175.85 207.78 174.15 210.25 174.53C212.21 174.83 213.76 176.36 214.06 178.32C214.06 206.03 214.06 427.66 214.06 455.37C214.16 457.06 211.94 459.06 209.52 459.06C207.19 459.18 205.2 457.4 205.07 455.06C205.07 455.06 205.07 455.06 205.07 455.06Z" id="bfJIPqSrh"></path><path d="M235.62 444.6C235.62 418.65 235.62 211.14 235.62 185.19C236 182.72 238.31 181.02 240.8 181.4C242.76 181.7 244.29 183.23 244.6 185.19C244.6 211.15 244.6 418.85 244.6 444.81C244.38 447.1 242.35 448.8 240.06 448.62C237.72 448.73 235.73 446.94 235.62 444.61C235.62 444.6 235.62 444.6 235.62 444.6Z" id="bNnN4rqBu"></path><path d="M235.62 444.6C235.62 418.65 235.62 211.14 235.62 185.19C236 182.72 238.31 181.02 240.8 181.4C242.76 181.7 244.29 183.23 244.6 185.19C244.6 211.15 244.6 418.85 244.6 444.81C244.38 447.1 242.35 448.8 240.06 448.62C237.72 448.73 235.73 446.94 235.62 444.61C235.62 444.6 235.62 444.6 235.62 444.6Z" id="b1yaSZmbUB"></path><path d="M150.87 190.68L270.8 223.72L268.16 231.23L268.16 231.23L148.12 198.18L150.87 190.68Z" id="b1GHGVvhGw"></path><path d="M150.87 190.68L270.8 223.72L268.16 231.23L268.16 231.23L148.12 198.18L150.87 190.68Z" id="a14x0O2LTp"></path><path d="M156.47 152.25C156.47 353.06 156.47 464.62 156.47 486.93C156.47 486.93 156.47 486.93 156.47 486.93C140.24 486.93 131.22 486.93 129.42 486.93C129.42 486.93 129.42 486.93 129.42 486.93C129.42 286.13 129.42 174.56 129.42 152.25C129.42 152.25 129.42 152.25 129.42 152.25C145.65 152.25 154.66 152.25 156.47 152.25C156.47 152.25 156.47 152.25 156.47 152.25Z" id="b8idCKeVL"></path><path d="M156.47 152.25C156.47 353.06 156.47 464.62 156.47 486.93C156.47 486.93 156.47 486.93 156.47 486.93C140.24 486.93 131.22 486.93 129.42 486.93C129.42 486.93 129.42 486.93 129.42 486.93C129.42 286.13 129.42 174.56 129.42 152.25C129.42 152.25 129.42 152.25 129.42 152.25C145.65 152.25 154.66 152.25 156.47 152.25C156.47 152.25 156.47 152.25 156.47 152.25Z" id="cMlOqpWZD"></path><path d="M361.99 441.44C361.99 293.19 361.99 210.85 361.99 194.38C362.46 190.68 365.84 188.05 369.55 188.52C372.61 188.9 375.03 191.32 375.43 194.38C375.43 210.28 375.43 289.82 375.43 432.98C386.05 436.15 471.09 461.49 481.72 464.66C481.72 281.21 481.72 179.29 481.72 158.9C482.19 155.2 485.57 152.57 489.28 153.04C492.35 153.42 494.76 155.83 495.14 158.9C495.14 180.36 495.14 287.7 495.14 480.92C495.16 480.92 495.27 480.92 495.47 480.92C415.38 457.23 370.89 444.07 361.99 441.44Z" id="e1gZbff16N"></path><path d="M361.99 441.44C361.99 293.19 361.99 210.85 361.99 194.38C362.46 190.68 365.84 188.05 369.55 188.52C372.61 188.9 375.03 191.32 375.43 194.38C375.43 210.28 375.43 289.82 375.43 432.98C386.05 436.15 471.09 461.49 481.72 464.66C481.72 281.21 481.72 179.29 481.72 158.9C482.19 155.2 485.57 152.57 489.28 153.04C492.35 153.42 494.76 155.83 495.14 158.9C495.14 180.36 495.14 287.7 495.14 480.92C495.16 480.92 495.27 480.92 495.47 480.92C415.38 457.23 370.89 444.07 361.99 441.44Z" id="aRZ2vUXAO"></path><path d="M455.84 464.02C455.84 434.71 455.84 200.16 455.84 170.83C456.22 168.35 458.54 166.66 461.02 167.03C462.98 167.34 464.51 168.87 464.81 170.83C464.81 200.16 464.81 434.71 464.81 464.02C464.71 466.35 462.72 468.15 460.4 468.04C460.35 468.04 460.31 468.04 460.27 468.04C457.94 468.15 455.95 466.36 455.84 464.04C455.84 464.03 455.84 464.03 455.84 464.02Z" id="f1hi7DhguJ"></path><path d="M455.84 464.02C455.84 434.71 455.84 200.16 455.84 170.83C456.22 168.35 458.54 166.66 461.02 167.03C462.98 167.34 464.51 168.87 464.81 170.83C464.81 200.16 464.81 434.71 464.81 464.02C464.71 466.35 462.72 468.15 460.4 468.04C460.35 468.04 460.31 468.04 460.27 468.04C457.94 468.15 455.95 466.36 455.84 464.04C455.84 464.03 455.84 464.03 455.84 464.02Z" id="f2vxY9XVO"></path><path d="M424.13 454.84C424.13 427.15 424.13 205.69 424.13 178.01C424.51 175.53 426.84 173.84 429.31 174.22C431.27 174.52 432.82 176.05 433.12 178.01C433.12 205.74 433.12 427.63 433.12 455.37C432.73 457.54 430.76 459.04 428.57 458.86C426.25 458.97 424.26 457.18 424.13 454.84C424.13 454.84 424.13 454.84 424.13 454.84Z" id="a3Is8RqHJ"></path><path d="M424.13 454.84C424.13 427.15 424.13 205.69 424.13 178.01C424.51 175.53 426.84 173.84 429.31 174.22C431.27 174.52 432.82 176.05 433.12 178.01C433.12 205.74 433.12 427.63 433.12 455.37C432.73 457.54 430.76 459.04 428.57 458.86C426.25 458.97 424.26 457.18 424.13 454.84C424.13 454.84 424.13 454.84 424.13 454.84Z" id="a1YC6t78Ih"></path><path d="M393.91 444.39C393.91 418.45 393.91 210.92 393.91 184.97C394.3 182.51 396.61 180.8 399.1 181.19C401.06 181.48 402.59 183.02 402.89 184.97C402.89 210.97 402.89 418.82 402.89 444.81C402.56 447.01 400.57 448.59 398.34 448.4C396.01 448.52 394.03 446.73 393.91 444.4C393.91 444.39 393.91 444.39 393.91 444.39Z" id="c2eSKAuHG4"></path><path d="M393.91 444.39C393.91 418.45 393.91 210.92 393.91 184.97C394.3 182.51 396.61 180.8 399.1 181.19C401.06 181.48 402.59 183.02 402.89 184.97C402.89 210.97 402.89 418.82 402.89 444.81C402.56 447.01 400.57 448.59 398.34 448.4C396.01 448.52 394.03 446.73 393.91 444.4C393.91 444.39 393.91 444.39 393.91 444.39Z" id="biLgk0Wec"></path><path d="M487.22 190.47L489.97 197.86L370.03 231.23L370.03 231.23L367.29 223.52L487.22 190.47Z" id="j4jtYrfjd"></path><path d="M487.22 190.47L489.97 197.86L370.03 231.23L370.03 231.23L367.29 223.52L487.22 190.47Z" id="c5YEwX3mJg"></path><path d="M508.89 151.93C508.89 352.74 508.89 464.31 508.89 486.62C508.89 486.62 508.89 486.62 508.89 486.62C492.66 486.62 483.64 486.62 481.84 486.62C481.84 486.62 481.84 486.62 481.84 486.62C481.84 285.8 481.84 174.25 481.84 151.93C481.84 151.93 481.84 151.93 481.84 151.93C498.07 151.93 507.08 151.93 508.89 151.93C508.89 151.93 508.89 151.93 508.89 151.93Z" id="a2IUl9H0v"></path><path d="M508.89 151.93C508.89 352.74 508.89 464.31 508.89 486.62C508.89 486.62 508.89 486.62 508.89 486.62C492.66 486.62 483.64 486.62 481.84 486.62C481.84 486.62 481.84 486.62 481.84 486.62C481.84 285.8 481.84 174.25 481.84 151.93C481.84 151.93 481.84 151.93 481.84 151.93C498.07 151.93 507.08 151.93 508.89 151.93C508.89 151.93 508.89 151.93 508.89 151.93Z" id="e2PGZZyDmt"></path></defs><g><g><g><use xlink:href="#cc5zsClt5" opacity="1" fill="#ffffff" fill-opacity="1"></use><g><use xlink:href="#cc5zsClt5" opacity="1" fill-opacity="0" stroke="#000000" stroke-width="1" stroke-opacity="0"></use></g></g><g><use xlink:href="#e1OCs5KGjR" opacity="1" fill="#ffffff" fill-opacity="1"></use><g><use xlink:href="#e1OCs5KGjR" opacity="1" fill-opacity="0" stroke="#000000" stroke-width="1" stroke-opacity="0"></use></g></g><g><use xlink:href="#gpTBF49W" opacity="1" fill="#000000" fill-opacity="0"></use><g><use xlink:href="#gpTBF49W" opacity="1" fill-opacity="0" stroke="#000000" stroke-width="1" stroke-opacity="0"></use></g></g><g><use xlink:href="#b3j6OwNgJY" opacity="1" fill="#e02533" fill-opacity="1"></use><g><use xlink:href="#b3j6OwNgJY" opacity="1" fill-opacity="0" stroke="#000000" stroke-width="1" stroke-opacity="0"></use></g></g><g><use xlink:href="#b1nvDvxYYF" opacity="1" fill="#000000" fill-opacity="0"></use><g><use xlink:href="#b1nvDvxYYF" opacity="1" fill-opacity="0" stroke="#000000" stroke-width="1" stroke-opacity="0"></use></g></g><g><use xlink:href="#alIy7eKrJ" opacity="1" fill="#ffffff" fill-opacity="1"></use><g><use xlink:href="#alIy7eKrJ" opacity="1" fill-opacity="0" stroke="#000000" stroke-width="1" stroke-opacity="0"></use></g></g><g><use xlink:href="#aC2Gt9WM4" opacity="1" fill="#000000" fill-opacity="0"></use><g><use xlink:href="#aC2Gt9WM4" opacity="1" fill-opacity="0" stroke="#000000" stroke-width="1" stroke-opacity="0"></use></g></g><g><use xlink:href="#c1OHFawUtb" opacity="1" fill="#ffffff" fill-opacity="1"></use><g><use xlink:href="#c1OHFawUtb" opacity="1" fill-opacity="0" stroke="#000000" stroke-width="1" stroke-opacity="0"></use></g></g><g><use xlink:href="#a28UtwovuS" opacity="1" fill="#000000" fill-opacity="0"></use><g><use xlink:href="#a28UtwovuS" opacity="1" fill-opacity="0" stroke="#000000" stroke-width="1" stroke-opacity="0"></use></g></g><g><use xlink:href="#ewTXv47Vv" opacity="1" fill="#ffffff" fill-opacity="1"></use><g><use xlink:href="#ewTXv47Vv" opacity="1" fill-opacity="0" stroke="#000000" stroke-width="1" stroke-opacity="0"></use></g></g><g><use xlink:href="#bfJIPqSrh" opacity="1" fill="#000000" fill-opacity="0"></use><g><use xlink:href="#bfJIPqSrh" opacity="1" fill-opacity="0" stroke="#000000" stroke-width="1" stroke-opacity="0"></use></g></g><g><use xlink:href="#bNnN4rqBu" opacity="1" fill="#ffffff" fill-opacity="1"></use><g><use xlink:href="#bNnN4rqBu" opacity="1" fill-opacity="0" stroke="#000000" stroke-width="1" stroke-opacity="0"></use></g></g><g><use xlink:href="#b1yaSZmbUB" opacity="1" fill="#000000" fill-opacity="0"></use><g><use xlink:href="#b1yaSZmbUB" opacity="1" fill-opacity="0" stroke="#000000" stroke-width="1" stroke-opacity="0"></use></g></g><g><use xlink:href="#b1GHGVvhGw" opacity="1" fill="#ffffff" fill-opacity="1"></use><g><use xlink:href="#b1GHGVvhGw" opacity="1" fill-opacity="0" stroke="#000000" stroke-width="1" stroke-opacity="0"></use></g></g><g><use xlink:href="#a14x0O2LTp" opacity="1" fill="#000000" fill-opacity="0"></use><g><use xlink:href="#a14x0O2LTp" opacity="1" fill-opacity="0" stroke="#000000" stroke-width="1" stroke-opacity="0"></use></g></g><g><use xlink:href="#b8idCKeVL" opacity="1" fill="#ffffff" fill-opacity="1"></use><g><use xlink:href="#b8idCKeVL" opacity="1" fill-opacity="0" stroke="#000000" stroke-width="1" stroke-opacity="0"></use></g></g><g><use xlink:href="#cMlOqpWZD" opacity="1" fill="#000000" fill-opacity="0"></use><g><use xlink:href="#cMlOqpWZD" opacity="1" fill-opacity="0" stroke="#000000" stroke-width="1" stroke-opacity="0"></use></g></g><g><use xlink:href="#e1gZbff16N" opacity="1" fill="#ffffff" fill-opacity="1"></use><g><use xlink:href="#e1gZbff16N" opacity="1" fill-opacity="0" stroke="#000000" stroke-width="1" stroke-opacity="0"></use></g></g><g><use xlink:href="#aRZ2vUXAO" opacity="1" fill="#000000" fill-opacity="0"></use><g><use xlink:href="#aRZ2vUXAO" opacity="1" fill-opacity="0" stroke="#000000" stroke-width="1" stroke-opacity="0"></use></g></g><g><use xlink:href="#f1hi7DhguJ" opacity="1" fill="#ffffff" fill-opacity="1"></use><g><use xlink:href="#f1hi7DhguJ" opacity="1" fill-opacity="0" stroke="#000000" stroke-width="1" stroke-opacity="0"></use></g></g><g><use xlink:href="#f2vxY9XVO" opacity="1" fill="#000000" fill-opacity="0"></use><g><use xlink:href="#f2vxY9XVO" opacity="1" fill-opacity="0" stroke="#000000" stroke-width="1" stroke-opacity="0"></use></g></g><g><use xlink:href="#a3Is8RqHJ" opacity="1" fill="#ffffff" fill-opacity="1"></use><g><use xlink:href="#a3Is8RqHJ" opacity="1" fill-opacity="0" stroke="#000000" stroke-width="1" stroke-opacity="0"></use></g></g><g><use xlink:href="#a1YC6t78Ih" opacity="1" fill="#000000" fill-opacity="0"></use><g><use xlink:href="#a1YC6t78Ih" opacity="1" fill-opacity="0" stroke="#000000" stroke-width="1" stroke-opacity="0"></use></g></g><g><use xlink:href="#c2eSKAuHG4" opacity="1" fill="#ffffff" fill-opacity="1"></use><g><use xlink:href="#c2eSKAuHG4" opacity="1" fill-opacity="0" stroke="#000000" stroke-width="1" stroke-opacity="0"></use></g></g><g><use xlink:href="#biLgk0Wec" opacity="1" fill="#000000" fill-opacity="0"></use><g><use xlink:href="#biLgk0Wec" opacity="1" fill-opacity="0" stroke="#000000" stroke-width="1" stroke-opacity="0"></use></g></g><g><use xlink:href="#j4jtYrfjd" opacity="1" fill="#ffffff" fill-opacity="1"></use><g><use xlink:href="#j4jtYrfjd" opacity="1" fill-opacity="0" stroke="#000000" stroke-width="1" stroke-opacity="0"></use></g></g><g><use xlink:href="#c5YEwX3mJg" opacity="1" fill="#000000" fill-opacity="0"></use><g><use xlink:href="#c5YEwX3mJg" opacity="1" fill-opacity="0" stroke="#000000" stroke-width="1" stroke-opacity="0"></use></g></g><g><use xlink:href="#a2IUl9H0v" opacity="1" fill="#ffffff" fill-opacity="1"></use><g><use xlink:href="#a2IUl9H0v" opacity="1" fill-opacity="0" stroke="#000000" stroke-width="1" stroke-opacity="0"></use></g></g><g><use xlink:href="#e2PGZZyDmt" opacity="1" fill="#000000" fill-opacity="0"></use><g><use xlink:href="#e2PGZZyDmt" opacity="1" fill-opacity="0" stroke="#000000" stroke-width="1" stroke-opacity="0"></use></g></g></g></g></svg>