<?xml version="1.0" encoding="UTF-8"?>
<svg width="48px" height="48px" viewBox="0 0 48 48" version="1.1" xmlns="http://www.w3.org/2000/svg" xmlns:xlink="http://www.w3.org/1999/xlink">
    <title>gateway--user-access</title>
    <g id="V2-Icons" stroke="none" stroke-width="1" fill="none" fill-rule="evenodd">
        <g id="IBM-/-Cloud-/-Security" transform="translate(-1057, -13)">
            <g id="gateway--user-access" transform="translate(1057, 13)">
                <g id="Key-v2-Icon-Copy-2" fill="#FA4D56">
                    <polygon id="Fill-4" points="0 48 48 48 48 0 0 0"></polygon>
                </g>
                <g transform="translate(11.7556, 12.0638)">
                    <path d="M15.75,16.5 L14.25,16.5 L14.25,15 C14.2495453,14.5859749 13.9140251,14.2504547 13.5,14.25 L10.5,14.25 C10.0859749,14.2504547 9.75045468,14.5859749 9.75,15 L9.75,16.5 L8.25,16.5 L8.25,15 C8.25136403,13.7579248 9.25792475,12.751364 10.5,12.75 L13.5,12.75 C14.7420752,12.751364 15.748636,13.7579248 15.75,15 L15.75,16.5 Z" id="Path" fill="#FFFFFF" fill-rule="nonzero"></path>
                    <path d="M12,12 C10.5502525,12 9.375,10.8247475 9.375,9.375 C9.375,7.92525253 10.5502525,6.75 12,6.75 C13.4497475,6.75 14.625,7.92525253 14.625,9.375 C14.6233055,10.824045 13.449045,11.9983055 12,12 L12,12 Z M12,8.25 C11.3786797,8.25 10.875,8.75367966 10.875,9.375 C10.875,9.99632034 11.3786797,10.5 12,10.5 C12.6213203,10.5 13.125,9.99632034 13.125,9.375 C13.1242974,8.75397093 12.6210291,8.25070264 12,8.25 Z" id="Shape" fill="#FFFFFF" fill-rule="nonzero"></path>
                    <path d="M22.810575,13.060575 C23.0919194,12.7793261 23.249985,12.3978135 23.249985,12 C23.249985,11.6021865 23.0919194,11.2206739 22.810575,10.939425 L18.4704,6.599475 L20.64585,4.452375 C21.3055118,4.61583948 21.9927139,4.31579038 22.3212414,3.72085841 C22.649769,3.12592645 22.5376801,2.38450066 22.0479698,1.91327006 C21.5582596,1.44203946 20.8130725,1.35853926 20.2312114,1.70969744 C19.6493503,2.06085562 19.3759442,2.75908566 19.56465,3.411975 L17.409675,5.5386 L13.060575,1.189425 C12.7793261,0.908080633 12.3978135,0.750014983 12,0.750014983 C11.6021865,0.750014983 11.2206739,0.908080633 10.939425,1.189425 L6.599475,5.52945 L4.4526,3.353775 C4.61597186,2.69399862 4.31575026,2.00676062 3.72067134,1.67831531 C3.12559243,1.34987 2.38409152,1.46214413 1.91292078,1.95203532 C1.44175004,2.4419265 1.35843737,3.18723722 1.70980772,3.76907407 C2.06117807,4.35091092 2.7595863,4.62414163 3.4125,4.4352 L5.53875,6.590325 L1.189425,10.939425 C0.908080633,11.2206739 0.750014983,11.6021865 0.750014983,12 C0.750014983,12.3978135 0.908080633,12.7793261 1.189425,13.060575 L5.5386,17.409675 L3.4125,19.5648 C2.76107706,19.3772454 2.06487936,19.6504414 1.71486216,20.2309726 C1.36484495,20.8115039 1.44821933,21.5547239 1.91816577,22.0432717 C2.38811221,22.5318195 3.12753775,22.6439673 3.72121223,22.3167377 C4.31488671,21.9895081 4.6148888,21.3044344 4.45275,20.646225 L6.599625,18.47055 L10.939575,22.810575 C11.2208239,23.0919194 11.6023365,23.249985 12.00015,23.249985 C12.3979635,23.249985 12.7794761,23.0919194 13.060725,22.810575 L17.409825,18.4614 L19.5648,20.588025 C19.3772523,21.2395875 19.6505691,21.9359006 20.2312561,22.2859156 C20.8119431,22.6359306 21.5553012,22.5524288 22.0438616,22.0823047 C22.5324219,21.6121806 22.6444421,20.8725824 22.3170118,20.2788677 C21.9895814,19.6851529 21.3042915,19.3852668 20.646,19.547625 L18.47055,17.400525 L22.810575,13.060575 Z M12,21.75 L2.25,12 L12,2.25 L21.75,12 L12,21.75 Z" id="Shape" fill="#FFFFFF" fill-rule="nonzero"></path>
                    <rect id="_Transparent_Rectangle_" x="0" y="0" width="24" height="24"></rect>
                </g>
            </g>
        </g>
    </g>
</svg>