<?xml version="1.0" encoding="UTF-8" standalone="no"?>
<!DOCTYPE svg PUBLIC "-//W3C//DTD SVG 1.1//EN" "http://www.w3.org/Graphics/SVG/1.1/DTD/svg11.dtd">
<svg version="1.1" xmlns="http://www.w3.org/2000/svg" xmlns:xlink="http://www.w3.org/1999/xlink" preserveAspectRatio="xMidYMid meet" viewBox="0 0 640 640" width="640" height="640"><defs><path d="M101.45 542.53C222.7 665.17 419.3 665.17 540.56 542.53C661.81 419.9 661.81 221.07 540.56 98.44C419.3 -24.2 222.7 -24.2 101.45 98.44C-19.81 221.07 -19.81 419.9 101.45 542.53Z" id="a1OvuLZzK4"></path><path d="M101.45 542.53C222.7 665.17 419.3 665.17 540.56 542.53C661.81 419.9 661.81 221.07 540.56 98.44C419.3 -24.2 222.7 -24.2 101.45 98.44C-19.81 221.07 -19.81 419.9 101.45 542.53Z" id="bwL2K67Z"></path><path d="M471.25 412.58C471.25 423.75 471.25 429.97 471.25 431.2C471.25 431.2 471.25 431.2 471.25 431.2C290.96 431.2 190.82 431.2 170.78 431.2C170.78 431.2 170.78 431.2 170.78 431.2C170.78 420.03 170.78 413.84 170.78 412.58C170.78 412.58 170.78 412.58 170.78 412.58C351.06 412.58 451.22 412.58 471.25 412.58C471.25 412.58 471.25 412.58 471.25 412.58Z" id="b4Ou1KbQ4"></path><path d="M471.25 412.58C471.25 423.75 471.25 429.97 471.25 431.2C471.25 431.2 471.25 431.2 471.25 431.2C290.96 431.2 190.82 431.2 170.78 431.2C170.78 431.2 170.78 431.2 170.78 431.2C170.78 420.03 170.78 413.84 170.78 412.58C170.78 412.58 170.78 412.58 170.78 412.58C351.06 412.58 451.22 412.58 471.25 412.58C471.25 412.58 471.25 412.58 471.25 412.58Z" id="bdgyIUfE3"></path><path d="M460.58 252.19C460.58 263.35 460.58 269.57 460.58 270.8C460.58 270.8 460.58 270.8 460.58 270.8C293.1 270.8 200.05 270.8 181.45 270.8C181.45 270.8 181.45 270.8 181.45 270.8C181.45 259.64 181.45 253.44 181.45 252.19C181.45 252.19 181.45 252.19 181.45 252.19C348.92 252.19 441.97 252.19 460.58 252.19C460.58 252.19 460.58 252.19 460.58 252.19Z" id="almig4Kvk"></path><path d="M460.58 252.19C460.58 263.35 460.58 269.57 460.58 270.8C460.58 270.8 460.58 270.8 460.58 270.8C293.1 270.8 200.05 270.8 181.45 270.8C181.45 270.8 181.45 270.8 181.45 270.8C181.45 259.64 181.45 253.44 181.45 252.19C181.45 252.19 181.45 252.19 181.45 252.19C348.92 252.19 441.97 252.19 460.58 252.19C460.58 252.19 460.58 252.19 460.58 252.19Z" id="a5UdA1yzZJ"></path><path d="M491 441.99C491 453.15 491 459.35 491 460.6C491 460.6 491 460.6 491 460.6C287.08 460.6 173.78 460.6 151.14 460.6C151.14 460.6 151.14 460.6 151.14 460.6C151.14 449.42 151.14 443.22 151.14 441.99C151.14 441.99 151.14 441.99 151.14 441.99C355.05 441.99 468.35 441.99 491 441.99C491 441.99 491 441.99 491 441.99Z" id="f3AUNUNs"></path><path d="M491 441.99C491 453.15 491 459.35 491 460.6C491 460.6 491 460.6 491 460.6C287.08 460.6 173.78 460.6 151.14 460.6C151.14 460.6 151.14 460.6 151.14 460.6C151.14 449.42 151.14 443.22 151.14 441.99C151.14 441.99 151.14 441.99 151.14 441.99C355.05 441.99 468.35 441.99 491 441.99C491 441.99 491 441.99 491 441.99Z" id="dk6f3rAX8"></path><path d="M160.85 244.16L481.18 244.16L481.18 234.55L321.01 180.3L321.01 180.3L160.85 234.55L160.85 244.16Z" id="g2VoBWMk2"></path><path d="M160.85 244.16L481.18 244.16L481.18 234.55L321.01 180.3L321.01 180.3L160.85 234.55L160.85 244.16Z" id="a31ShxjqOW"></path><path d="M216.17 279.89C216.17 355.14 216.17 396.94 216.17 405.29C216.17 405.29 216.17 405.29 216.17 405.29C195.33 405.29 183.77 405.29 181.45 405.29C181.45 405.29 181.45 405.29 181.45 405.29C181.45 330.05 181.45 288.25 181.45 279.89C181.45 279.89 181.45 279.89 181.45 279.89C202.27 279.89 213.84 279.89 216.17 279.89C216.17 279.89 216.17 279.89 216.17 279.89Z" id="b8PzSgQQUX"></path><path d="M216.17 279.89C216.17 355.14 216.17 396.94 216.17 405.29C216.17 405.29 216.17 405.29 216.17 405.29C195.33 405.29 183.77 405.29 181.45 405.29C181.45 405.29 181.45 405.29 181.45 405.29C181.45 330.05 181.45 288.25 181.45 279.89C181.45 279.89 181.45 279.89 181.45 279.89C202.27 279.89 213.84 279.89 216.17 279.89C216.17 279.89 216.17 279.89 216.17 279.89Z" id="fAUMN1LJp"></path><path d="M460.58 279.89C460.58 355.14 460.58 396.94 460.58 405.29C460.58 405.29 460.58 405.29 460.58 405.29C439.76 405.29 428.18 405.29 425.87 405.29C425.87 405.29 425.87 405.29 425.87 405.29C425.87 330.05 425.87 288.25 425.87 279.89C425.87 279.89 425.87 279.89 425.87 279.89C446.7 279.89 458.27 279.89 460.58 279.89C460.58 279.89 460.58 279.89 460.58 279.89Z" id="c7y2GifBe"></path><path d="M460.58 279.89C460.58 355.14 460.58 396.94 460.58 405.29C460.58 405.29 460.58 405.29 460.58 405.29C439.76 405.29 428.18 405.29 425.87 405.29C425.87 405.29 425.87 405.29 425.87 405.29C425.87 330.05 425.87 288.25 425.87 279.89C425.87 279.89 425.87 279.89 425.87 279.89C446.7 279.89 458.27 279.89 460.58 279.89C460.58 279.89 460.58 279.89 460.58 279.89Z" id="fbMu27MCz"></path><path d="M338.36 279.89C338.36 355.14 338.36 396.94 338.36 405.29C338.36 405.29 338.36 405.29 338.36 405.29C317.54 405.29 305.97 405.29 303.66 405.29C303.66 405.29 303.66 405.29 303.66 405.29C303.66 330.05 303.66 288.25 303.66 279.89C303.66 279.89 303.66 279.89 303.66 279.89C324.48 279.89 336.05 279.89 338.36 279.89C338.36 279.89 338.36 279.89 338.36 279.89Z" id="b4qcLfiUB"></path><path d="M338.36 279.89C338.36 355.14 338.36 396.94 338.36 405.29C338.36 405.29 338.36 405.29 338.36 405.29C317.54 405.29 305.97 405.29 303.66 405.29C303.66 405.29 303.66 405.29 303.66 405.29C303.66 330.05 303.66 288.25 303.66 279.89C303.66 279.89 303.66 279.89 303.66 279.89C324.48 279.89 336.05 279.89 338.36 279.89C338.36 279.89 338.36 279.89 338.36 279.89Z" id="bquhOieVX"></path><path d="M277.84 279.89C277.84 355.14 277.84 396.94 277.84 405.29C277.84 405.29 277.84 405.29 277.84 405.29C257.01 405.29 245.44 405.29 243.13 405.29C243.13 405.29 243.13 405.29 243.13 405.29C243.13 330.05 243.13 288.25 243.13 279.89C243.13 279.89 243.13 279.89 243.13 279.89C263.96 279.89 275.53 279.89 277.84 279.89C277.84 279.89 277.84 279.89 277.84 279.89Z" id="a8rpxlGdl"></path><path d="M277.84 279.89C277.84 355.14 277.84 396.94 277.84 405.29C277.84 405.29 277.84 405.29 277.84 405.29C257.01 405.29 245.44 405.29 243.13 405.29C243.13 405.29 243.13 405.29 243.13 405.29C243.13 330.05 243.13 288.25 243.13 279.89C243.13 279.89 243.13 279.89 243.13 279.89C263.96 279.89 275.53 279.89 277.84 279.89C277.84 279.89 277.84 279.89 277.84 279.89Z" id="b17e9SsfZE"></path><path d="M400.88 279.89C400.88 355.14 400.88 396.94 400.88 405.29C400.88 405.29 400.88 405.29 400.88 405.29C380.06 405.29 368.49 405.29 366.18 405.29C366.18 405.29 366.18 405.29 366.18 405.29C366.18 330.05 366.18 288.25 366.18 279.89C366.18 279.89 366.18 279.89 366.18 279.89C387 279.89 398.57 279.89 400.88 279.89C400.88 279.89 400.88 279.89 400.88 279.89Z" id="a1CDqZYCXg"></path><path d="M400.88 279.89C400.88 355.14 400.88 396.94 400.88 405.29C400.88 405.29 400.88 405.29 400.88 405.29C380.06 405.29 368.49 405.29 366.18 405.29C366.18 405.29 366.18 405.29 366.18 405.29C366.18 330.05 366.18 288.25 366.18 279.89C366.18 279.89 366.18 279.89 366.18 279.89C387 279.89 398.57 279.89 400.88 279.89C400.88 279.89 400.88 279.89 400.88 279.89Z" id="e2LUROqN9n"></path></defs><g><g><g><use xlink:href="#a1OvuLZzK4" opacity="1" fill="#d81f2e" fill-opacity="1"></use><g><use xlink:href="#a1OvuLZzK4" opacity="1" fill-opacity="0" stroke="#000000" stroke-width="1" stroke-opacity="0"></use></g></g><g><use xlink:href="#bwL2K67Z" opacity="1" fill="#000000" fill-opacity="0"></use><g><use xlink:href="#bwL2K67Z" opacity="1" fill-opacity="0" stroke="#000000" stroke-width="1" stroke-opacity="0"></use></g></g><g><use xlink:href="#b4Ou1KbQ4" opacity="1" fill="#ffffff" fill-opacity="1"></use><g><use xlink:href="#b4Ou1KbQ4" opacity="1" fill-opacity="0" stroke="#000000" stroke-width="1" stroke-opacity="0"></use></g></g><g><use xlink:href="#bdgyIUfE3" opacity="1" fill="#000000" fill-opacity="0"></use><g><use xlink:href="#bdgyIUfE3" opacity="1" fill-opacity="0" stroke="#000000" stroke-width="1" stroke-opacity="0"></use></g></g><g><use xlink:href="#almig4Kvk" opacity="1" fill="#ffffff" fill-opacity="1"></use><g><use xlink:href="#almig4Kvk" opacity="1" fill-opacity="0" stroke="#000000" stroke-width="1" stroke-opacity="0"></use></g></g><g><use xlink:href="#a5UdA1yzZJ" opacity="1" fill="#000000" fill-opacity="0"></use><g><use xlink:href="#a5UdA1yzZJ" opacity="1" fill-opacity="0" stroke="#000000" stroke-width="1" stroke-opacity="0"></use></g></g><g><use xlink:href="#f3AUNUNs" opacity="1" fill="#ffffff" fill-opacity="1"></use><g><use xlink:href="#f3AUNUNs" opacity="1" fill-opacity="0" stroke="#000000" stroke-width="1" stroke-opacity="0"></use></g></g><g><use xlink:href="#dk6f3rAX8" opacity="1" fill="#000000" fill-opacity="0"></use><g><use xlink:href="#dk6f3rAX8" opacity="1" fill-opacity="0" stroke="#000000" stroke-width="1" stroke-opacity="0"></use></g></g><g><use xlink:href="#g2VoBWMk2" opacity="1" fill="#ffffff" fill-opacity="1"></use><g><use xlink:href="#g2VoBWMk2" opacity="1" fill-opacity="0" stroke="#000000" stroke-width="1" stroke-opacity="0"></use></g></g><g><use xlink:href="#a31ShxjqOW" opacity="1" fill="#000000" fill-opacity="0"></use><g><use xlink:href="#a31ShxjqOW" opacity="1" fill-opacity="0" stroke="#000000" stroke-width="1" stroke-opacity="0"></use></g></g><g><use xlink:href="#b8PzSgQQUX" opacity="1" fill="#ffffff" fill-opacity="1"></use><g><use xlink:href="#b8PzSgQQUX" opacity="1" fill-opacity="0" stroke="#000000" stroke-width="1" stroke-opacity="0"></use></g></g><g><use xlink:href="#fAUMN1LJp" opacity="1" fill="#000000" fill-opacity="0"></use><g><use xlink:href="#fAUMN1LJp" opacity="1" fill-opacity="0" stroke="#000000" stroke-width="1" stroke-opacity="0"></use></g></g><g><use xlink:href="#c7y2GifBe" opacity="1" fill="#ffffff" fill-opacity="1"></use><g><use xlink:href="#c7y2GifBe" opacity="1" fill-opacity="0" stroke="#000000" stroke-width="1" stroke-opacity="0"></use></g></g><g><use xlink:href="#fbMu27MCz" opacity="1" fill="#000000" fill-opacity="0"></use><g><use xlink:href="#fbMu27MCz" opacity="1" fill-opacity="0" stroke="#000000" stroke-width="1" stroke-opacity="0"></use></g></g><g><use xlink:href="#b4qcLfiUB" opacity="1" fill="#ffffff" fill-opacity="1"></use><g><use xlink:href="#b4qcLfiUB" opacity="1" fill-opacity="0" stroke="#000000" stroke-width="1" stroke-opacity="0"></use></g></g><g><use xlink:href="#bquhOieVX" opacity="1" fill="#000000" fill-opacity="0"></use><g><use xlink:href="#bquhOieVX" opacity="1" fill-opacity="0" stroke="#000000" stroke-width="1" stroke-opacity="0"></use></g></g><g><use xlink:href="#a8rpxlGdl" opacity="1" fill="#ffffff" fill-opacity="1"></use><g><use xlink:href="#a8rpxlGdl" opacity="1" fill-opacity="0" stroke="#000000" stroke-width="1" stroke-opacity="0"></use></g></g><g><use xlink:href="#b17e9SsfZE" opacity="1" fill="#000000" fill-opacity="0"></use><g><use xlink:href="#b17e9SsfZE" opacity="1" fill-opacity="0" stroke="#000000" stroke-width="1" stroke-opacity="0"></use></g></g><g><use xlink:href="#a1CDqZYCXg" opacity="1" fill="#ffffff" fill-opacity="1"></use><g><use xlink:href="#a1CDqZYCXg" opacity="1" fill-opacity="0" stroke="#000000" stroke-width="1" stroke-opacity="0"></use></g></g><g><use xlink:href="#e2LUROqN9n" opacity="1" fill="#000000" fill-opacity="0"></use><g><use xlink:href="#e2LUROqN9n" opacity="1" fill-opacity="0" stroke="#000000" stroke-width="1" stroke-opacity="0"></use></g></g></g></g></svg>