<?xml version="1.0" encoding="UTF-8"?>
<svg width="48px" height="48px" viewBox="0 0 48 48" version="1.1" xmlns="http://www.w3.org/2000/svg" xmlns:xlink="http://www.w3.org/1999/xlink">
    <title>group--security</title>
    <g id="V2-Icons" stroke="none" stroke-width="1" fill="none" fill-rule="evenodd">
        <g id="IBM-/-Cloud-/-Security" transform="translate(-595, -77)">
            <g id="group--security" transform="translate(595, 77)">
                <rect id="Rectangle-Copy-2" fill="#FA4D56" x="0" y="0" width="48" height="48"></rect>
                <g transform="translate(12, 12)">
                    <path d="M8.25,15.75 L6.75,15.75 L6.75,14.25 C6.75136403,13.0079248 7.75792475,12.001364 9,12 L13.5,12 L13.5,13.5 L9,13.5 C8.58597492,13.5004547 8.25045468,13.8359749 8.25,14.25 L8.25,15.75 Z" id="Path" fill="#FFFFFF" fill-rule="nonzero"></path>
                    <path d="M11.25,11.25 C9.59314575,11.25 8.25,9.90685425 8.25,8.25 C8.25,6.59314575 9.59314575,5.25 11.25,5.25 C12.9068542,5.25 14.25,6.59314575 14.25,8.25 C14.24814,9.90608322 12.9060832,11.24814 11.25,11.25 Z M11.25,6.75 C10.4215729,6.75 9.75,7.42157288 9.75,8.25 C9.75,9.07842712 10.4215729,9.75 11.25,9.75 C12.0784271,9.75 12.75,9.07842712 12.75,8.25 C12.7491319,7.42193272 12.0780673,6.7508681 11.25,6.75 Z" id="Shape" fill="#FFFFFF" fill-rule="nonzero"></path>
                    <path d="M18,16.5 C16.3431458,16.5 15,15.1568542 15,13.5 C15,11.8431458 16.3431458,10.5 18,10.5 C19.6568542,10.5 21,11.8431458 21,13.5 C20.99814,15.1560832 19.6560832,16.49814 18,16.5 L18,16.5 Z M18,12 C17.1715729,12 16.5,12.6715729 16.5,13.5 C16.5,14.3284271 17.1715729,15 18,15 C18.8284271,15 19.5,14.3284271 19.5,13.5 C19.4991319,12.6719327 18.8280673,12.0008681 18,12 L18,12 Z" id="Shape" fill="#FFFFFF" fill-rule="nonzero"></path>
                    <path d="M22.5,21 L21,21 L21,19.5 C20.9995453,19.0859749 20.6640251,18.7504547 20.25,18.75 L15.75,18.75 C15.3359749,18.7504547 15.0004547,19.0859749 15,19.5 L15,21 L13.5,21 L13.5,19.5 C13.501364,18.2579248 14.5079248,17.251364 15.75,17.25 L20.25,17.25 C21.4920752,17.251364 22.498636,18.2579248 22.5,19.5 L22.5,21 Z" id="Path" fill="#FFFFFF" fill-rule="nonzero"></path>
                    <path d="M10.4999951,20.80005 L6.5742,18.7068 C4.37238036,17.5354958 2.99742718,15.2439841 2.99999512,12.75 L2.99999512,3 L17.9999951,3 L17.9999951,7.5 L19.4999951,7.5 L19.4999951,3 C19.4990494,2.17196695 18.8280331,1.5009506 17.9999951,1.5 L2.99999512,1.5 C2.17196695,1.5009506 1.5009506,2.17196695 1.49999512,3 L1.49999512,12.75 C1.4966903,15.7980902 3.17710112,18.5987749 5.86815,20.03025 L10.4999951,22.5 L10.4999951,20.80005 Z" id="Path" fill="#FFFFFF" fill-rule="nonzero"></path>
                    <rect id="_Transparent_Rectangle_" x="0" y="0" width="24" height="24"></rect>
                </g>
            </g>
        </g>
    </g>
</svg>