<?xml version="1.0" encoding="UTF-8" standalone="no"?>
<!DOCTYPE svg PUBLIC "-//W3C//DTD SVG 1.1//EN" "http://www.w3.org/Graphics/SVG/1.1/DTD/svg11.dtd">
<svg version="1.1" xmlns="http://www.w3.org/2000/svg" xmlns:xlink="http://www.w3.org/1999/xlink" preserveAspectRatio="xMidYMid meet" viewBox="0 0 640 640" width="640" height="640"><defs><path d="M479.8 404.7C479.8 417.75 479.8 425.02 479.8 426.46C479.8 426.46 479.8 426.46 479.8 426.46C268.09 426.46 150.49 426.46 126.95 426.46C126.95 426.46 126.95 426.46 126.95 426.46C126.95 413.41 126.95 406.16 126.95 404.7C126.95 404.7 126.95 404.7 126.95 404.7C338.66 404.7 456.28 404.7 479.8 404.7C479.8 404.7 479.8 404.7 479.8 404.7Z" id="d4zGpfgwx"></path><path d="M479.8 404.7C479.8 417.75 479.8 425.02 479.8 426.46C479.8 426.46 479.8 426.46 479.8 426.46C268.09 426.46 150.49 426.46 126.95 426.46C126.95 426.46 126.95 426.46 126.95 426.46C126.95 413.41 126.95 406.16 126.95 404.7C126.95 404.7 126.95 404.7 126.95 404.7C338.66 404.7 456.28 404.7 479.8 404.7C479.8 404.7 479.8 404.7 479.8 404.7Z" id="b8QrdIFxrz"></path><path d="M467.27 217.2C467.27 230.25 467.27 237.51 467.27 238.95C467.27 238.95 467.27 238.95 467.27 238.95C270.6 238.95 161.33 238.95 139.48 238.95C139.48 238.95 139.48 238.95 139.48 238.95C139.48 225.9 139.48 218.66 139.48 217.2C139.48 217.2 139.48 217.2 139.48 217.2C336.15 217.2 445.42 217.2 467.27 217.2C467.27 217.2 467.27 217.2 467.27 217.2Z" id="a16yr6aj8h"></path><path d="M467.27 217.2C467.27 230.25 467.27 237.51 467.27 238.95C467.27 238.95 467.27 238.95 467.27 238.95C270.6 238.95 161.33 238.95 139.48 238.95C139.48 238.95 139.48 238.95 139.48 238.95C139.48 225.9 139.48 218.66 139.48 217.2C139.48 217.2 139.48 217.2 139.48 217.2C336.15 217.2 445.42 217.2 467.27 217.2C467.27 217.2 467.27 217.2 467.27 217.2Z" id="b2jZkvuDRZ"></path><path d="M502.99 439.07C502.99 452.12 502.99 459.37 502.99 460.83C502.99 460.83 502.99 460.83 502.99 460.83C263.53 460.83 130.48 460.83 103.89 460.83C103.89 460.83 103.89 460.83 103.89 460.83C103.89 447.76 103.89 440.51 103.89 439.07C103.89 439.07 103.89 439.07 103.89 439.07C343.35 439.07 476.4 439.07 502.99 439.07C502.99 439.07 502.99 439.07 502.99 439.07Z" id="b42Jk2UWpI"></path><path d="M502.99 439.07C502.99 452.12 502.99 459.37 502.99 460.83C502.99 460.83 502.99 460.83 502.99 460.83C263.53 460.83 130.48 460.83 103.89 460.83C103.89 460.83 103.89 460.83 103.89 460.83C103.89 447.76 103.89 440.51 103.89 439.07C103.89 439.07 103.89 439.07 103.89 439.07C343.35 439.07 476.4 439.07 502.99 439.07C502.99 439.07 502.99 439.07 502.99 439.07Z" id="cX02fbrk"></path><path d="M115.29 207.81L491.46 207.81L491.46 196.57L303.38 133.15L303.38 133.15L115.29 196.57L115.29 207.81Z" id="c35InZMHz1"></path><path d="M115.29 207.81L491.46 207.81L491.46 196.57L303.38 133.15L303.38 133.15L115.29 196.57L115.29 207.81Z" id="c9Xm9A3tX"></path><path d="M180.25 249.58C180.25 337.55 180.25 386.41 180.25 396.17C180.25 396.17 180.25 396.17 180.25 396.17C155.78 396.17 142.21 396.17 139.48 396.17C139.48 396.17 139.48 396.17 139.48 396.17C139.48 308.22 139.48 259.36 139.48 249.58C139.48 249.58 139.48 249.58 139.48 249.58C163.93 249.58 177.52 249.58 180.25 249.58C180.25 249.58 180.25 249.58 180.25 249.58Z" id="mi6J7C9Iu"></path><path d="M180.25 249.58C180.25 337.55 180.25 386.41 180.25 396.17C180.25 396.17 180.25 396.17 180.25 396.17C155.78 396.17 142.21 396.17 139.48 396.17C139.48 396.17 139.48 396.17 139.48 396.17C139.48 308.22 139.48 259.36 139.48 249.58C139.48 249.58 139.48 249.58 139.48 249.58C163.93 249.58 177.52 249.58 180.25 249.58C180.25 249.58 180.25 249.58 180.25 249.58Z" id="b2brCSxWMp"></path><path d="M467.27 249.58C467.27 337.55 467.27 386.41 467.27 396.17C467.27 396.17 467.27 396.17 467.27 396.17C442.82 396.17 429.23 396.17 426.52 396.17C426.52 396.17 426.52 396.17 426.52 396.17C426.52 308.22 426.52 259.36 426.52 249.58C426.52 249.58 426.52 249.58 426.52 249.58C450.97 249.58 464.56 249.58 467.27 249.58C467.27 249.58 467.27 249.58 467.27 249.58Z" id="b2nXSa0sWa"></path><path d="M467.27 249.58C467.27 337.55 467.27 386.41 467.27 396.17C467.27 396.17 467.27 396.17 467.27 396.17C442.82 396.17 429.23 396.17 426.52 396.17C426.52 396.17 426.52 396.17 426.52 396.17C426.52 308.22 426.52 259.36 426.52 249.58C426.52 249.58 426.52 249.58 426.52 249.58C450.97 249.58 464.56 249.58 467.27 249.58C467.27 249.58 467.27 249.58 467.27 249.58Z" id="ax4WIvpYc"></path><path d="M323.75 249.58C323.75 337.55 323.75 386.41 323.75 396.17C323.75 396.17 323.75 396.17 323.75 396.17C299.3 396.17 285.71 396.17 283 396.17C283 396.17 283 396.17 283 396.17C283 308.22 283 259.36 283 249.58C283 249.58 283 249.58 283 249.58C307.45 249.58 321.04 249.58 323.75 249.58C323.75 249.58 323.75 249.58 323.75 249.58Z" id="f5qDwBGvS"></path><path d="M323.75 249.58C323.75 337.55 323.75 386.41 323.75 396.17C323.75 396.17 323.75 396.17 323.75 396.17C299.3 396.17 285.71 396.17 283 396.17C283 396.17 283 396.17 283 396.17C283 308.22 283 259.36 283 249.58C283 249.58 283 249.58 283 249.58C307.45 249.58 321.04 249.58 323.75 249.58C323.75 249.58 323.75 249.58 323.75 249.58Z" id="c5ILyt9mAf"></path><path d="M252.67 249.58C252.67 337.55 252.67 386.41 252.67 396.17C252.67 396.17 252.67 396.17 252.67 396.17C228.22 396.17 214.63 396.17 211.92 396.17C211.92 396.17 211.92 396.17 211.92 396.17C211.92 308.22 211.92 259.36 211.92 249.58C211.92 249.58 211.92 249.58 211.92 249.58C236.37 249.58 249.96 249.58 252.67 249.58C252.67 249.58 252.67 249.58 252.67 249.58Z" id="a3VYw9NAK9"></path><path d="M252.67 249.58C252.67 337.55 252.67 386.41 252.67 396.17C252.67 396.17 252.67 396.17 252.67 396.17C228.22 396.17 214.63 396.17 211.92 396.17C211.92 396.17 211.92 396.17 211.92 396.17C211.92 308.22 211.92 259.36 211.92 249.58C211.92 249.58 211.92 249.58 211.92 249.58C236.37 249.58 249.96 249.58 252.67 249.58C252.67 249.58 252.67 249.58 252.67 249.58Z" id="d376r50XJ"></path><path d="M397.17 249.58C397.17 337.55 397.17 386.41 397.17 396.17C397.17 396.17 397.17 396.17 397.17 396.17C372.72 396.17 359.13 396.17 356.42 396.17C356.42 396.17 356.42 396.17 356.42 396.17C356.42 308.22 356.42 259.36 356.42 249.58C356.42 249.58 356.42 249.58 356.42 249.58C380.87 249.58 394.46 249.58 397.17 249.58C397.17 249.58 397.17 249.58 397.17 249.58Z" id="im09S88vX"></path><path d="M397.17 249.58C397.17 337.55 397.17 386.41 397.17 396.17C397.17 396.17 397.17 396.17 397.17 396.17C372.72 396.17 359.13 396.17 356.42 396.17C356.42 396.17 356.42 396.17 356.42 396.17C356.42 308.22 356.42 259.36 356.42 249.58C356.42 249.58 356.42 249.58 356.42 249.58C380.87 249.58 394.46 249.58 397.17 249.58C397.17 249.58 397.17 249.58 397.17 249.58Z" id="a1taOASSUn"></path><path d="M102.74 546.07C224.84 669 422.81 669 544.91 546.07C667.02 423.12 667.02 223.83 544.91 100.9C422.81 -22.03 224.84 -22.03 102.74 100.9C-19.36 223.83 -19.36 423.12 102.74 546.07Z" id="a11XHs91fh"></path><path d="M102.74 546.07C224.84 669 422.81 669 544.91 546.07C667.02 423.12 667.02 223.83 544.91 100.9C422.81 -22.03 224.84 -22.03 102.74 100.9C-19.36 223.83 -19.36 423.12 102.74 546.07Z" id="ca8rE1aPD"></path><path d="M154.16 485.45C154.16 487.13 154.16 495.53 154.16 510.63C169.19 510.74 289.51 511.59 304.55 511.7C304.55 496.58 304.55 488.2 304.55 486.52C304.65 472.59 293.56 461.22 279.75 461.12C279.57 461.12 279.4 461.12 279.23 461.12C259.16 460.96 188.99 460.46 178.95 460.37C165.25 460.48 154.22 471.68 154.16 485.45Z" id="fOQe0fOoV"></path><path d="M154.16 485.45C154.16 487.13 154.16 495.53 154.16 510.63C169.19 510.74 289.51 511.59 304.55 511.7C304.55 496.58 304.55 488.2 304.55 486.52C304.65 472.59 293.56 461.22 279.75 461.12C279.57 461.12 279.4 461.12 279.23 461.12C259.16 460.96 188.99 460.46 178.95 460.37C165.25 460.48 154.22 471.68 154.16 485.45Z" id="aVrhP8FCL"></path><path d="M234.88 306.8L237.74 307.13L240.54 307.59L243.31 308.16L246.02 308.85L248.69 309.66L251.31 310.58L253.89 311.6L256.4 312.74L258.85 313.98L261.24 315.34L263.56 316.78L265.83 318.33L268.02 319.94L270.12 321.66L272.16 323.48L274.13 325.37L276 327.36L277.8 329.41L279.51 331.55L281.14 333.75L282.65 336.02L284.08 338.38L285.41 340.78L286.64 343.25L287.77 345.78L288.79 348.38L289.7 351.02L290.5 353.7L291.19 356.43L291.76 359.22L292.19 362.06L292.52 364.92L292.71 367.82L292.78 370.74L292.71 373.69L292.52 376.59L292.19 379.47L291.74 382.31L291.15 385.08L290.48 387.83L289.68 390.54L288.74 393.18L287.73 395.75L286.6 398.29L285.36 400.77L284.02 403.17L282.59 405.53L281.05 407.8L279.42 410.01L277.71 412.14L275.91 414.2L274.03 416.18L272.05 418.08L270.02 419.89L267.89 421.62L265.7 423.23L263.43 424.78L261.11 426.22L258.7 427.55L256.25 428.79L253.71 429.93L251.16 430.96L248.51 431.89L245.85 432.68L243.12 433.38L240.34 433.95L237.54 434.4L234.68 434.71L231.8 434.91L228.87 434.99L225.95 434.91L223.06 434.71L220.22 434.38L217.41 433.92L214.65 433.36L211.92 432.66L209.26 431.85L206.63 430.93L204.05 429.89L201.54 428.75L199.09 427.51L196.68 426.15L194.37 424.71L192.11 423.16L189.92 421.53L187.8 419.8L185.76 417.99L183.81 416.09L181.92 414.11L180.12 412.06L178.41 409.92L176.81 407.71L175.27 405.42L173.84 403.09L172.52 400.66L171.28 398.2L170.15 395.67L169.13 393.07L168.25 390.43L167.44 387.72L166.75 384.97L166.21 382.2L165.75 379.37L165.45 376.51L165.25 373.58L165.19 370.66L165.25 367.71L165.45 364.81L165.77 361.93L166.23 359.11L166.81 356.32L167.49 353.57L168.29 350.89L169.22 348.24L170.24 345.65L171.37 343.14L172.6 340.65L173.95 338.25L175.4 335.91L176.92 333.62L178.54 331.42L180.25 329.3L182.05 327.25L183.94 325.27L185.91 323.37L187.97 321.58L190.07 319.85L192.28 318.22L194.54 316.69L196.88 315.25L199.26 313.9L201.73 312.67L204.25 311.54L206.83 310.51L209.45 309.6L212.12 308.79L214.85 308.11L217.62 307.54L220.42 307.11L223.28 306.78L226.16 306.58L229.09 306.52L232 306.61L234.88 306.8ZM223.17 314.96L220.38 315.31L217.62 315.79L214.94 316.43L212.29 317.19L209.69 318.06L207.15 319.07L204.68 320.2L202.3 321.45L199.96 322.8L197.7 324.26L195.51 325.81L193.41 327.49L191.37 329.26L189.44 331.11L187.6 333.08L185.85 335.11L184.2 337.22L182.64 339.43L181.21 341.72L179.86 344.08L178.63 346.5L177.52 348.99L176.53 351.54L175.66 354.16L174.9 356.82L174.29 359.53L173.79 362.3L173.45 365.11L173.25 367.97L173.17 370.85L173.25 373.76L173.47 376.62L173.84 379.41L174.34 382.18L174.96 384.91L175.72 387.57L176.59 390.17L177.61 392.72L178.71 395.21L179.97 397.63L181.32 399.99L182.77 402.26L184.33 404.46L185.98 406.58L187.75 408.61L189.6 410.55L191.55 412.41L193.56 414.17L195.67 415.83L197.88 417.4L200.13 418.87L202.47 420.22L204.88 421.44L207.35 422.58L209.89 423.56L212.49 424.45L215.13 425.19L217.84 425.83L220.59 426.31L223.39 426.66L226.21 426.87L229.09 426.94L231.95 426.85L234.79 426.63L237.57 426.29L240.32 425.78L243.01 425.15L245.65 424.39L248.25 423.51L250.77 422.49L253.24 421.37L255.64 420.13L257.99 418.78L260.24 417.32L262.43 415.74L264.53 414.06L266.55 412.3L268.48 410.44L270.32 408.5L272.07 406.45L273.72 404.33L275.28 402.13L276.74 399.86L278.08 397.5L279.29 395.08L280.42 392.59L281.42 390.06L282.28 387.44L283.04 384.78L283.65 382.07L284.15 379.3L284.5 376.48L284.71 373.65L284.8 370.74L284.71 367.86L284.47 365.01L284.13 362.21L283.61 359.44L282.98 356.73L282.22 354.07L281.33 351.45L280.33 348.92L279.21 346.43L277.97 344.01L276.63 341.65L275.17 339.38L273.61 337.18L271.94 335.06L270.19 333.03L268.35 331.09L266.4 329.24L264.38 327.47L262.26 325.81L260.07 324.24L257.81 322.78L255.47 321.45L253.06 320.2L250.59 319.09L248.06 318.09L245.46 317.19L242.81 316.45L240.12 315.82L237.37 315.31L234.57 314.96L231.76 314.75L228.87 314.68L226.01 314.75L223.17 314.96Z" id="fZNqdLDz1"></path><path d="M234.88 306.8L237.74 307.13L240.54 307.59L243.31 308.16L246.02 308.85L248.69 309.66L251.31 310.58L253.89 311.6L256.4 312.74L258.85 313.98L261.24 315.34L263.56 316.78L265.83 318.33L268.02 319.94L270.12 321.66L272.16 323.48L274.13 325.37L276 327.36L277.8 329.41L279.51 331.55L281.14 333.75L282.65 336.02L284.08 338.38L285.41 340.78L286.64 343.25L287.77 345.78L288.79 348.38L289.7 351.02L290.5 353.7L291.19 356.43L291.76 359.22L292.19 362.06L292.52 364.92L292.71 367.82L292.78 370.74L292.71 373.69L292.52 376.59L292.19 379.47L291.74 382.31L291.15 385.08L290.48 387.83L289.68 390.54L288.74 393.18L287.73 395.75L286.6 398.29L285.36 400.77L284.02 403.17L282.59 405.53L281.05 407.8L279.42 410.01L277.71 412.14L275.91 414.2L274.03 416.18L272.05 418.08L270.02 419.89L267.89 421.62L265.7 423.23L263.43 424.78L261.11 426.22L258.7 427.55L256.25 428.79L253.71 429.93L251.16 430.96L248.51 431.89L245.85 432.68L243.12 433.38L240.34 433.95L237.54 434.4L234.68 434.71L231.8 434.91L228.87 434.99L225.95 434.91L223.06 434.71L220.22 434.38L217.41 433.92L214.65 433.36L211.92 432.66L209.26 431.85L206.63 430.93L204.05 429.89L201.54 428.75L199.09 427.51L196.68 426.15L194.37 424.71L192.11 423.16L189.92 421.53L187.8 419.8L185.76 417.99L183.81 416.09L181.92 414.11L180.12 412.06L178.41 409.92L176.81 407.71L175.27 405.42L173.84 403.09L172.52 400.66L171.28 398.2L170.15 395.67L169.13 393.07L168.25 390.43L167.44 387.72L166.75 384.97L166.21 382.2L165.75 379.37L165.45 376.51L165.25 373.58L165.19 370.66L165.25 367.71L165.45 364.81L165.77 361.93L166.23 359.11L166.81 356.32L167.49 353.57L168.29 350.89L169.22 348.24L170.24 345.65L171.37 343.14L172.6 340.65L173.95 338.25L175.4 335.91L176.92 333.62L178.54 331.42L180.25 329.3L182.05 327.25L183.94 325.27L185.91 323.37L187.97 321.58L190.07 319.85L192.28 318.22L194.54 316.69L196.88 315.25L199.26 313.9L201.73 312.67L204.25 311.54L206.83 310.51L209.45 309.6L212.12 308.79L214.85 308.11L217.62 307.54L220.42 307.11L223.28 306.78L226.16 306.58L229.09 306.52L232 306.61L234.88 306.8ZM223.17 314.96L220.38 315.31L217.62 315.79L214.94 316.43L212.29 317.19L209.69 318.06L207.15 319.07L204.68 320.2L202.3 321.45L199.96 322.8L197.7 324.26L195.51 325.81L193.41 327.49L191.37 329.26L189.44 331.11L187.6 333.08L185.85 335.11L184.2 337.22L182.64 339.43L181.21 341.72L179.86 344.08L178.63 346.5L177.52 348.99L176.53 351.54L175.66 354.16L174.9 356.82L174.29 359.53L173.79 362.3L173.45 365.11L173.25 367.97L173.17 370.85L173.25 373.76L173.47 376.62L173.84 379.41L174.34 382.18L174.96 384.91L175.72 387.57L176.59 390.17L177.61 392.72L178.71 395.21L179.97 397.63L181.32 399.99L182.77 402.26L184.33 404.46L185.98 406.58L187.75 408.61L189.6 410.55L191.55 412.41L193.56 414.17L195.67 415.83L197.88 417.4L200.13 418.87L202.47 420.22L204.88 421.44L207.35 422.58L209.89 423.56L212.49 424.45L215.13 425.19L217.84 425.83L220.59 426.31L223.39 426.66L226.21 426.87L229.09 426.94L231.95 426.85L234.79 426.63L237.57 426.29L240.32 425.78L243.01 425.15L245.65 424.39L248.25 423.51L250.77 422.49L253.24 421.37L255.64 420.13L257.99 418.78L260.24 417.32L262.43 415.74L264.53 414.06L266.55 412.3L268.48 410.44L270.32 408.5L272.07 406.45L273.72 404.33L275.28 402.13L276.74 399.86L278.08 397.5L279.29 395.08L280.42 392.59L281.42 390.06L282.28 387.44L283.04 384.78L283.65 382.07L284.15 379.3L284.5 376.48L284.71 373.65L284.8 370.74L284.71 367.86L284.47 365.01L284.13 362.21L283.61 359.44L282.98 356.73L282.22 354.07L281.33 351.45L280.33 348.92L279.21 346.43L277.97 344.01L276.63 341.65L275.17 339.38L273.61 337.18L271.94 335.06L270.19 333.03L268.35 331.09L266.4 329.24L264.38 327.47L262.26 325.81L260.07 324.24L257.81 322.78L255.47 321.45L253.06 320.2L250.59 319.09L248.06 318.09L245.46 317.19L242.81 316.45L240.12 315.82L237.37 315.31L234.57 314.96L231.76 314.75L228.87 314.68L226.01 314.75L223.17 314.96Z" id="b1xX0ZD875"></path><path d="M357.2 485.34C357.2 485.34 357.2 485.34 357.2 485.34C357.2 487.02 357.2 495.42 357.2 510.52C372.24 510.63 492.55 511.49 507.59 511.59C507.59 496.47 507.59 488.09 507.59 486.41C507.65 472.51 496.51 461.18 482.68 461.12C482.68 461.12 482.68 461.12 482.68 461.12C482.68 461.12 392.44 460.46 382.43 460.37C368.62 460.26 357.33 471.44 357.2 485.34Z" id="aqO3W5knS"></path><path d="M357.2 485.34C357.2 485.34 357.2 485.34 357.2 485.34C357.2 487.02 357.2 495.42 357.2 510.52C372.24 510.63 492.55 511.49 507.59 511.59C507.59 496.47 507.59 488.09 507.59 486.41C507.65 472.51 496.51 461.18 482.68 461.12C482.68 461.12 482.68 461.12 482.68 461.12C482.68 461.12 392.44 460.46 382.43 460.37C368.62 460.26 357.33 471.44 357.2 485.34Z" id="aDoADz4nX"></path><path d="M438.25 306.8L441.11 307.13L443.9 307.59L446.68 308.16L449.39 308.85L452.05 309.66L454.68 310.58L457.26 311.6L459.77 312.74L462.22 313.98L464.6 315.34L466.92 316.78L469.18 318.33L471.37 319.94L473.49 321.66L475.53 323.48L477.5 325.37L479.37 327.36L481.16 329.41L482.88 331.55L484.5 333.75L486.02 336.02L487.45 338.38L488.77 340.78L490.01 343.25L491.14 345.78L492.15 348.38L493.07 351.02L493.87 353.7L494.54 356.43L495.12 359.22L495.56 362.06L495.88 364.92L496.08 367.82L496.14 370.74L496.08 373.69L495.86 376.59L495.54 379.47L495.1 382.31L494.52 385.08L493.82 387.83L493.02 390.54L492.11 393.18L491.09 395.75L489.97 398.29L488.71 400.77L487.39 403.17L485.96 405.53L484.42 407.8L482.79 410.01L481.08 412.14L479.28 414.2L477.39 416.18L475.42 418.08L473.38 419.89L471.26 421.62L469.05 423.23L466.79 424.78L464.45 426.22L462.07 427.55L459.6 428.79L457.08 429.93L454.52 430.96L451.88 431.89L449.21 432.68L446.48 433.38L443.71 433.95L440.91 434.4L438.05 434.71L435.17 434.91L432.24 434.99L429.31 434.91L426.43 434.71L423.59 434.38L420.77 433.92L418 433.36L415.29 432.66L412.6 431.85L409.98 430.93L407.42 429.89L404.91 428.75L402.46 427.51L400.05 426.15L397.73 424.71L395.48 423.16L393.29 421.53L391.16 419.8L389.13 417.99L387.15 416.09L385.29 414.11L383.49 412.06L381.78 409.92L380.15 407.71L378.64 405.42L377.21 403.09L375.88 400.66L374.65 398.2L373.52 395.67L372.5 393.07L371.59 390.43L370.81 387.72L370.12 384.97L369.55 382.2L369.12 379.37L368.79 376.51L368.62 373.58L368.56 370.66L368.62 367.71L368.82 364.81L369.14 361.93L369.6 359.11L370.16 356.32L370.85 353.57L371.66 350.89L372.59 348.24L373.61 345.65L374.73 343.14L375.97 340.65L377.31 338.25L378.74 335.91L380.28 333.62L381.91 331.42L383.62 329.3L385.42 327.25L387.31 325.27L389.28 323.37L391.32 321.58L393.44 319.85L395.65 318.22L397.91 316.69L400.25 315.25L402.63 313.9L405.1 312.67L407.62 311.54L410.17 310.51L412.82 309.6L415.49 308.79L418.22 308.11L420.99 307.54L423.79 307.11L426.65 306.78L429.53 306.58L432.46 306.52L435.36 306.61L438.25 306.8ZM426.54 314.96L423.74 315.31L420.99 315.79L418.3 316.43L415.66 317.19L413.06 318.06L410.52 319.07L408.05 320.2L405.64 321.45L403.33 322.8L401.05 324.26L398.88 325.81L396.76 327.49L394.74 329.26L392.81 331.11L390.97 333.08L389.21 335.11L387.57 337.22L386.01 339.43L384.55 341.72L383.23 344.08L382 346.5L380.89 348.99L379.89 351.54L379.03 354.16L378.27 356.82L377.66 359.53L377.16 362.3L376.81 365.11L376.6 367.97L376.53 370.85L376.62 373.76L376.84 376.62L377.21 379.41L377.7 382.18L378.33 384.91L379.07 387.57L379.96 390.17L380.96 392.72L382.08 395.21L383.32 397.63L384.68 399.99L386.14 402.26L387.7 404.46L389.34 406.58L391.1 408.61L392.96 410.55L394.89 412.41L396.93 414.17L399.03 415.83L401.22 417.4L403.5 418.87L405.84 420.22L408.25 421.44L410.72 422.58L413.25 423.56L415.85 424.45L418.5 425.19L421.21 425.83L423.96 426.31L426.74 426.66L429.58 426.87L432.46 426.94L435.32 426.85L438.16 426.63L440.93 426.29L443.69 425.78L446.37 425.15L449.02 424.39L451.62 423.51L454.13 422.49L456.61 421.37L459.01 420.13L461.33 418.78L463.61 417.32L465.77 415.74L467.9 414.06L469.91 412.3L471.84 410.44L473.69 408.5L475.44 406.45L477.09 404.33L478.65 402.13L480.1 399.86L481.42 397.5L482.66 395.08L483.79 392.59L484.78 390.06L485.65 387.44L486.41 384.78L487.02 382.07L487.52 379.3L487.86 376.48L488.08 373.65L488.14 370.74L488.08 367.86L487.84 365.01L487.47 362.21L486.97 359.44L486.35 356.73L485.59 354.07L484.7 351.45L483.7 348.92L482.57 346.43L481.34 344.01L479.99 341.65L478.54 339.38L476.98 337.18L475.31 335.06L473.56 333.03L471.69 331.09L469.76 329.24L467.73 327.47L465.62 325.81L463.43 324.24L461.18 322.78L458.84 321.45L456.43 320.2L453.96 319.09L451.42 318.09L448.82 317.19L446.18 316.45L443.49 315.82L440.74 315.31L437.94 314.96L435.1 314.75L432.24 314.68L429.36 314.75L426.54 314.96Z" id="blQdyRhff"></path><path d="M438.25 306.8L441.11 307.13L443.9 307.59L446.68 308.16L449.39 308.85L452.05 309.66L454.68 310.58L457.26 311.6L459.77 312.74L462.22 313.98L464.6 315.34L466.92 316.78L469.18 318.33L471.37 319.94L473.49 321.66L475.53 323.48L477.5 325.37L479.37 327.36L481.16 329.41L482.88 331.55L484.5 333.75L486.02 336.02L487.45 338.38L488.77 340.78L490.01 343.25L491.14 345.78L492.15 348.38L493.07 351.02L493.87 353.7L494.54 356.43L495.12 359.22L495.56 362.06L495.88 364.92L496.08 367.82L496.14 370.74L496.08 373.69L495.86 376.59L495.54 379.47L495.1 382.31L494.52 385.08L493.82 387.83L493.02 390.54L492.11 393.18L491.09 395.75L489.97 398.29L488.71 400.77L487.39 403.17L485.96 405.53L484.42 407.8L482.79 410.01L481.08 412.14L479.28 414.2L477.39 416.18L475.42 418.08L473.38 419.89L471.26 421.62L469.05 423.23L466.79 424.78L464.45 426.22L462.07 427.55L459.6 428.79L457.08 429.93L454.52 430.96L451.88 431.89L449.21 432.68L446.48 433.38L443.71 433.95L440.91 434.4L438.05 434.71L435.17 434.91L432.24 434.99L429.31 434.91L426.43 434.71L423.59 434.38L420.77 433.92L418 433.36L415.29 432.66L412.6 431.85L409.98 430.93L407.42 429.89L404.91 428.75L402.46 427.51L400.05 426.15L397.73 424.71L395.48 423.16L393.29 421.53L391.16 419.8L389.13 417.99L387.15 416.09L385.29 414.11L383.49 412.06L381.78 409.92L380.15 407.71L378.64 405.42L377.21 403.09L375.88 400.66L374.65 398.2L373.52 395.67L372.5 393.07L371.59 390.43L370.81 387.72L370.12 384.97L369.55 382.2L369.12 379.37L368.79 376.51L368.62 373.58L368.56 370.66L368.62 367.71L368.82 364.81L369.14 361.93L369.6 359.11L370.16 356.32L370.85 353.57L371.66 350.89L372.59 348.24L373.61 345.65L374.73 343.14L375.97 340.65L377.31 338.25L378.74 335.91L380.28 333.62L381.91 331.42L383.62 329.3L385.42 327.25L387.31 325.27L389.28 323.37L391.32 321.58L393.44 319.85L395.65 318.22L397.91 316.69L400.25 315.25L402.63 313.9L405.1 312.67L407.62 311.54L410.17 310.51L412.82 309.6L415.49 308.79L418.22 308.11L420.99 307.54L423.79 307.11L426.65 306.78L429.53 306.58L432.46 306.52L435.36 306.61L438.25 306.8ZM426.54 314.96L423.74 315.31L420.99 315.79L418.3 316.43L415.66 317.19L413.06 318.06L410.52 319.07L408.05 320.2L405.64 321.45L403.33 322.8L401.05 324.26L398.88 325.81L396.76 327.49L394.74 329.26L392.81 331.11L390.97 333.08L389.21 335.11L387.57 337.22L386.01 339.43L384.55 341.72L383.23 344.08L382 346.5L380.89 348.99L379.89 351.54L379.03 354.16L378.27 356.82L377.66 359.53L377.16 362.3L376.81 365.11L376.6 367.97L376.53 370.85L376.62 373.76L376.84 376.62L377.21 379.41L377.7 382.18L378.33 384.91L379.07 387.57L379.96 390.17L380.96 392.72L382.08 395.21L383.32 397.63L384.68 399.99L386.14 402.26L387.7 404.46L389.34 406.58L391.1 408.61L392.96 410.55L394.89 412.41L396.93 414.17L399.03 415.83L401.22 417.4L403.5 418.87L405.84 420.22L408.25 421.44L410.72 422.58L413.25 423.56L415.85 424.45L418.5 425.19L421.21 425.83L423.96 426.31L426.74 426.66L429.58 426.87L432.46 426.94L435.32 426.85L438.16 426.63L440.93 426.29L443.69 425.78L446.37 425.15L449.02 424.39L451.62 423.51L454.13 422.49L456.61 421.37L459.01 420.13L461.33 418.78L463.61 417.32L465.77 415.74L467.9 414.06L469.91 412.3L471.84 410.44L473.69 408.5L475.44 406.45L477.09 404.33L478.65 402.13L480.1 399.86L481.42 397.5L482.66 395.08L483.79 392.59L484.78 390.06L485.65 387.44L486.41 384.78L487.02 382.07L487.52 379.3L487.86 376.48L488.08 373.65L488.14 370.74L488.08 367.86L487.84 365.01L487.47 362.21L486.97 359.44L486.35 356.73L485.59 354.07L484.7 351.45L483.7 348.92L482.57 346.43L481.34 344.01L479.99 341.65L478.54 339.38L476.98 337.18L475.31 335.06L473.56 333.03L471.69 331.09L469.76 329.24L467.73 327.47L465.62 325.81L463.43 324.24L461.18 322.78L458.84 321.45L456.43 320.2L453.96 319.09L451.42 318.09L448.82 317.19L446.18 316.45L443.49 315.82L440.74 315.31L437.94 314.96L435.1 314.75L432.24 314.68L429.36 314.75L426.54 314.96Z" id="b1UwNsDtgT"></path><path d="M257.25 158.4C256.49 150.5 257.2 142.54 259.35 134.9C261.65 126.93 265.44 119.45 270.49 112.9C280.98 97.97 297.02 87.98 314.95 85.16C321.48 83.99 328.11 83.68 334.72 84.23C341.92 84.73 348.98 86.3 355.72 88.87C363.42 92.02 370.53 96.45 376.75 101.99C381.78 106.44 386.16 111.57 389.78 117.24C393.16 122.55 395.74 128.31 397.45 134.38C398.4 137.85 399.03 141.38 399.34 144.96C400.81 162.2 400.4 190.57 400.29 195.44" id="i3e3g3Frsp"></path><path d="M257.25 158.4C256.49 150.5 257.2 142.54 259.35 134.9C261.65 126.93 265.44 119.45 270.49 112.9C280.98 97.97 297.02 87.98 314.95 85.16C321.48 83.99 328.11 83.68 334.72 84.23C341.92 84.73 348.98 86.3 355.72 88.87C363.42 92.02 370.53 96.45 376.75 101.99C381.78 106.44 386.16 111.57 389.78 117.24C393.16 122.55 395.74 128.31 397.45 134.38C398.4 137.85 399.03 141.38 399.34 144.96C400.81 162.2 400.4 190.57 400.29 195.44" id="b1uUve0rY2"></path><path d="M255.15 174.27C261.65 174.99 267.98 171.91 271.45 166.33C273.22 163.05 274.33 159.45 274.7 155.74C275.85 149.19 275.43 147.49 276.39 142.63C277.19 138.44 278.49 134.35 280.27 130.47C284.52 122.05 291.08 115.02 299.19 110.26C311.72 101.2 327.63 98.37 342.48 102.54C348.2 104.09 353.62 106.55 358.56 109.83C363.57 113.19 368.04 117.29 371.81 122C375.54 125.95 378.46 130.58 380.43 135.64C381.35 138.22 382 140.88 382.32 143.59C383.47 158.88 383.79 174.27 383.27 189.61C382.71 192.84 383.04 196.18 384.21 199.24C385.68 201.96 387.85 204.23 390.51 205.8C394.07 208.2 398.14 209.71 402.39 210.23" id="e6dnMWRVn"></path><path d="M255.15 174.27C261.65 174.99 267.98 171.91 271.45 166.33C273.22 163.05 274.33 159.45 274.7 155.74C275.85 149.19 275.43 147.49 276.39 142.63C277.19 138.44 278.49 134.35 280.27 130.47C284.52 122.05 291.08 115.02 299.19 110.26C311.72 101.2 327.63 98.37 342.48 102.54C348.2 104.09 353.62 106.55 358.56 109.83C363.57 113.19 368.04 117.29 371.81 122C375.54 125.95 378.46 130.58 380.43 135.64C381.35 138.22 382 140.88 382.32 143.59C383.47 158.88 383.79 174.27 383.27 189.61C382.71 192.84 383.04 196.18 384.21 199.24C385.68 201.96 387.85 204.23 390.51 205.8C394.07 208.2 398.14 209.71 402.39 210.23" id="g1DiTwEvP8"></path><path d="M254.63 191.73C258.12 192.3 261.65 192.3 265.14 191.73C269.54 190.77 273.72 188.93 277.43 186.34C281.66 183.92 285.25 180.55 287.94 176.5C290.46 170.43 291.87 163.99 292.15 157.44C292.1 151.9 292.88 146.36 294.47 141.03C296.11 137.15 298.43 133.57 301.29 130.47C303.92 127.57 306.95 125.1 310.33 123.16C317.62 119.27 326.03 118.1 334.07 119.89C337.73 120.32 341.29 121.35 344.58 122.94C347.86 124.64 350.85 126.87 353.43 129.51C356.46 132.19 359.06 135.38 361.1 138.92C362.9 142.21 364.16 145.79 364.76 149.5C365 151.68 365 153.89 364.76 156.07C364.76 170.67 365.82 185.27 364.76 199.98C364.78 202.38 365.17 204.78 365.93 207.07C368.06 211.13 370.94 214.71 374.43 217.65C377.12 220.12 380.11 222.17 383.36 223.79C389.02 226.38 395.13 227.71 401.35 227.69" id="d2yslyHu5D"></path><path d="M254.63 191.73C258.12 192.3 261.65 192.3 265.14 191.73C269.54 190.77 273.72 188.93 277.43 186.34C281.66 183.92 285.25 180.55 287.94 176.5C290.46 170.43 291.87 163.99 292.15 157.44C292.1 151.9 292.88 146.36 294.47 141.03C296.11 137.15 298.43 133.57 301.29 130.47C303.92 127.57 306.95 125.1 310.33 123.16C317.62 119.27 326.03 118.1 334.07 119.89C337.73 120.32 341.29 121.35 344.58 122.94C347.86 124.64 350.85 126.87 353.43 129.51C356.46 132.19 359.06 135.38 361.1 138.92C362.9 142.21 364.16 145.79 364.76 149.5C365 151.68 365 153.89 364.76 156.07C364.76 170.67 365.82 185.27 364.76 199.98C364.78 202.38 365.17 204.78 365.93 207.07C368.06 211.13 370.94 214.71 374.43 217.65C377.12 220.12 380.11 222.17 383.36 223.79C389.02 226.38 395.13 227.71 401.35 227.69" id="aolYXPkV"></path><path d="M255.15 209.6C258.22 210.1 261.34 210.1 264.4 209.6C269.04 208.97 273.51 207.42 277.54 205.06C280.85 203.34 284.02 201.31 286.99 199.02C292.17 195.07 296.79 190.42 300.67 185.16C303.29 181.95 305.48 178.39 307.17 174.57C308.32 170.95 308.97 167.18 309.08 163.36C309.4 159.78 310.1 156.22 311.18 152.8C311.63 150.35 312.52 148.04 313.8 145.9C315.28 143.78 317.18 141.99 319.37 140.62C321.8 138.52 324.73 137.15 327.87 136.6C330.12 136.38 332.38 136.67 334.5 137.45C336.74 138.22 338.79 139.4 340.59 140.95C342.72 142.78 344.43 145.05 345.64 147.6C347.36 152.27 347.64 157.36 346.49 162.2C345.97 169.01 344.8 175.73 343.02 182.3C340.42 190.53 336.58 198.32 331.66 205.37C322.86 217.72 311.16 227.67 297.61 234.37C284.52 240.92 270.19 244.52 255.58 244.96" id="chGyQDPoM"></path><path d="M255.15 209.6C258.22 210.1 261.34 210.1 264.4 209.6C269.04 208.97 273.51 207.42 277.54 205.06C280.85 203.34 284.02 201.31 286.99 199.02C292.17 195.07 296.79 190.42 300.67 185.16C303.29 181.95 305.48 178.39 307.17 174.57C308.32 170.95 308.97 167.18 309.08 163.36C309.4 159.78 310.1 156.22 311.18 152.8C311.63 150.35 312.52 148.04 313.8 145.9C315.28 143.78 317.18 141.99 319.37 140.62C321.8 138.52 324.73 137.15 327.87 136.6C330.12 136.38 332.38 136.67 334.5 137.45C336.74 138.22 338.79 139.4 340.59 140.95C342.72 142.78 344.43 145.05 345.64 147.6C347.36 152.27 347.64 157.36 346.49 162.2C345.97 169.01 344.8 175.73 343.02 182.3C340.42 190.53 336.58 198.32 331.66 205.37C322.86 217.72 311.16 227.67 297.61 234.37C284.52 240.92 270.19 244.52 255.58 244.96" id="hc41NAjgx"></path><path d="M257.88 227.39C263.77 227.47 269.65 226.78 275.33 225.27C286.08 222.35 295.94 216.78 304.03 209.08C309.4 204.01 314.11 198.25 318.01 191.95C320.98 187.69 323.49 183.11 325.46 178.28C328.58 170.06 329.78 161.22 328.93 152.47" id="cRtDWSc2u"></path><path d="M257.88 227.39C263.77 227.47 269.65 226.78 275.33 225.27C286.08 222.35 295.94 216.78 304.03 209.08C309.4 204.01 314.11 198.25 318.01 191.95C320.98 187.69 323.49 183.11 325.46 178.28C328.58 170.06 329.78 161.22 328.93 152.47" id="e2DBnOxhka"></path><path d="M332.07 225.69L340.92 225.69" id="k2wuxLPZMI"></path><path d="M332.07 225.69L340.92 225.69" id="k2WJmrbij7"></path><path d="M349.42 208.86C350.3 211.85 351.5 214.73 352.99 217.44C355.4 221.69 358.46 225.55 362.03 228.87C366.04 232.97 370.55 236.53 375.49 239.46C379.2 241.7 383.19 243.45 387.37 244.63C392.64 246.02 398.12 246.44 403.54 245.78" id="b6O1fYRMXj"></path><path d="M349.42 208.86C350.3 211.85 351.5 214.73 352.99 217.44C355.4 221.69 358.46 225.55 362.03 228.87C366.04 232.97 370.55 236.53 375.49 239.46C379.2 241.7 383.19 243.45 387.37 244.63C392.64 246.02 398.12 246.44 403.54 245.78" id="a8jRy4Osdq"></path><path d="M391.03 263.99C388.3 263.16 384.42 261.87 380 260.19C376.03 258.77 372.15 257.02 368.45 254.99C362.47 251.61 361.19 250.87 356.27 248.34C351.8 246.07 347.12 244.32 342.28 243.14C337.02 241.75 331.47 241.75 326.2 243.14C322.56 244.23 319.05 245.7 315.69 247.49C304.55 252.68 304.24 254.25 296.87 257.11C291.26 259.29 285.41 260.82 279.42 261.67C275.11 262.35 270.75 262.74 266.4 262.83" id="c7u7ESnvX"></path><path d="M391.03 263.99C388.3 263.16 384.42 261.87 380 260.19C376.03 258.77 372.15 257.02 368.45 254.99C362.47 251.61 361.19 250.87 356.27 248.34C351.8 246.07 347.12 244.32 342.28 243.14C337.02 241.75 331.47 241.75 326.2 243.14C322.56 244.23 319.05 245.7 315.69 247.49C304.55 252.68 304.24 254.25 296.87 257.11C291.26 259.29 285.41 260.82 279.42 261.67C275.11 262.35 270.75 262.74 266.4 262.83" id="d8TLVBfSk"></path><path d="M279.75 279.33C283.3 279.28 286.81 278.78 290.26 277.86C293.9 276.88 297.44 275.51 300.77 273.72C304.44 271.82 304.44 271.51 309.27 268.85C314.11 266.21 315.36 265.8 317.47 264.84C320.33 263.33 323.36 262.24 326.5 261.56C328.74 261.3 331.01 261.3 333.25 261.56C336.04 261.63 338.84 262.02 341.55 262.72C344.52 263.75 347.38 265.1 350.04 266.73C350.69 267.11 355.83 270.07 356.46 270.44C357.63 271.08 361.81 273.41 365.2 275.01C369.73 277.04 374.54 278.39 379.48 279.02" id="dyToUW9gt"></path><path d="M279.75 279.33C283.3 279.28 286.81 278.78 290.26 277.86C293.9 276.88 297.44 275.51 300.77 273.72C304.44 271.82 304.44 271.51 309.27 268.85C314.11 266.21 315.36 265.8 317.47 264.84C320.33 263.33 323.36 262.24 326.5 261.56C328.74 261.3 331.01 261.3 333.25 261.56C336.04 261.63 338.84 262.02 341.55 262.72C344.52 263.75 347.38 265.1 350.04 266.73C350.69 267.11 355.83 270.07 356.46 270.44C357.63 271.08 361.81 273.41 365.2 275.01C369.73 277.04 374.54 278.39 379.48 279.02" id="a2EZuSIUX1"></path><path d="M298.56 294.36C301.92 293.51 305.22 292.42 308.43 291.09C312.13 289.54 315.64 287.64 318.94 285.37C322.84 282.73 322.73 281.99 325.25 281.03C328.32 279.94 331.6 279.63 334.81 280.18C337.73 280.57 340.57 281.42 343.22 282.73C345.56 283.89 347.81 285.24 349.96 286.75C353.62 289.17 354.47 289.91 357.09 291.4C358.89 292.38 360.75 293.23 362.66 293.93" id="cH166O7T"></path><path d="M298.56 294.36C301.92 293.51 305.22 292.42 308.43 291.09C312.13 289.54 315.64 287.64 318.94 285.37C322.84 282.73 322.73 281.99 325.25 281.03C328.32 279.94 331.6 279.63 334.81 280.18C337.73 280.57 340.57 281.42 343.22 282.73C345.56 283.89 347.81 285.24 349.96 286.75C353.62 289.17 354.47 289.91 357.09 291.4C358.89 292.38 360.75 293.23 362.66 293.93" id="b8jwKjTvz9"></path><path d="M328.93 299.75L339.44 299.75" id="c2pwqiyAMc"></path><path d="M328.93 299.75L339.44 299.75" id="a4PpeK2aO5"></path></defs><g><g><g><use xlink:href="#d4zGpfgwx" opacity="1" fill="#ffffff" fill-opacity="1"></use><g><use xlink:href="#d4zGpfgwx" opacity="1" fill-opacity="0" stroke="#000000" stroke-width="1" stroke-opacity="0"></use></g></g><g><use xlink:href="#b8QrdIFxrz" opacity="1" fill="#000000" fill-opacity="0"></use><g><use xlink:href="#b8QrdIFxrz" opacity="1" fill-opacity="0" stroke="#000000" stroke-width="4" stroke-opacity="0"></use></g></g><g><use xlink:href="#a16yr6aj8h" opacity="1" fill="#ffffff" fill-opacity="1"></use><g><use xlink:href="#a16yr6aj8h" opacity="1" fill-opacity="0" stroke="#000000" stroke-width="1" stroke-opacity="0"></use></g></g><g><use xlink:href="#b2jZkvuDRZ" opacity="1" fill="#000000" fill-opacity="0"></use><g><use xlink:href="#b2jZkvuDRZ" opacity="1" fill-opacity="0" stroke="#000000" stroke-width="4" stroke-opacity="0"></use></g></g><g><use xlink:href="#b42Jk2UWpI" opacity="1" fill="#ffffff" fill-opacity="1"></use><g><use xlink:href="#b42Jk2UWpI" opacity="1" fill-opacity="0" stroke="#000000" stroke-width="1" stroke-opacity="0"></use></g></g><g><use xlink:href="#cX02fbrk" opacity="1" fill="#000000" fill-opacity="0"></use><g><use xlink:href="#cX02fbrk" opacity="1" fill-opacity="0" stroke="#000000" stroke-width="1" stroke-opacity="0"></use></g></g><g><use xlink:href="#c35InZMHz1" opacity="1" fill="#ffffff" fill-opacity="1"></use><g><use xlink:href="#c35InZMHz1" opacity="1" fill-opacity="0" stroke="#000000" stroke-width="1" stroke-opacity="0"></use></g></g><g><use xlink:href="#c9Xm9A3tX" opacity="1" fill="#000000" fill-opacity="0"></use><g><use xlink:href="#c9Xm9A3tX" opacity="1" fill-opacity="0" stroke="#000000" stroke-width="4" stroke-opacity="0"></use></g></g><g><use xlink:href="#mi6J7C9Iu" opacity="1" fill="#ffffff" fill-opacity="1"></use><g><use xlink:href="#mi6J7C9Iu" opacity="1" fill-opacity="0" stroke="#000000" stroke-width="1" stroke-opacity="0"></use></g></g><g><use xlink:href="#b2brCSxWMp" opacity="1" fill="#000000" fill-opacity="0"></use><g><use xlink:href="#b2brCSxWMp" opacity="1" fill-opacity="0" stroke="#000000" stroke-width="4" stroke-opacity="0"></use></g></g><g><use xlink:href="#b2nXSa0sWa" opacity="1" fill="#ffffff" fill-opacity="1"></use><g><use xlink:href="#b2nXSa0sWa" opacity="1" fill-opacity="0" stroke="#000000" stroke-width="1" stroke-opacity="0"></use></g></g><g><use xlink:href="#ax4WIvpYc" opacity="1" fill="#000000" fill-opacity="0"></use><g><use xlink:href="#ax4WIvpYc" opacity="1" fill-opacity="0" stroke="#000000" stroke-width="4" stroke-opacity="0"></use></g></g><g><use xlink:href="#f5qDwBGvS" opacity="1" fill="#ffffff" fill-opacity="1"></use><g><use xlink:href="#f5qDwBGvS" opacity="1" fill-opacity="0" stroke="#000000" stroke-width="1" stroke-opacity="0"></use></g></g><g><use xlink:href="#c5ILyt9mAf" opacity="1" fill="#000000" fill-opacity="0"></use><g><use xlink:href="#c5ILyt9mAf" opacity="1" fill-opacity="0" stroke="#000000" stroke-width="4" stroke-opacity="0"></use></g></g><g><use xlink:href="#a3VYw9NAK9" opacity="1" fill="#ffffff" fill-opacity="1"></use><g><use xlink:href="#a3VYw9NAK9" opacity="1" fill-opacity="0" stroke="#000000" stroke-width="1" stroke-opacity="0"></use></g></g><g><use xlink:href="#d376r50XJ" opacity="1" fill="#000000" fill-opacity="0"></use><g><use xlink:href="#d376r50XJ" opacity="1" fill-opacity="0" stroke="#000000" stroke-width="4" stroke-opacity="0"></use></g></g><g><use xlink:href="#im09S88vX" opacity="1" fill="#ffffff" fill-opacity="1"></use><g><use xlink:href="#im09S88vX" opacity="1" fill-opacity="0" stroke="#000000" stroke-width="1" stroke-opacity="0"></use></g></g><g><use xlink:href="#a1taOASSUn" opacity="1" fill="#000000" fill-opacity="0"></use><g><use xlink:href="#a1taOASSUn" opacity="1" fill-opacity="0" stroke="#000000" stroke-width="4" stroke-opacity="0"></use></g></g><g><use xlink:href="#a11XHs91fh" opacity="1" fill="#d81f2e" fill-opacity="1"></use><g><use xlink:href="#a11XHs91fh" opacity="1" fill-opacity="0" stroke="#000000" stroke-width="1" stroke-opacity="0"></use></g></g><g><use xlink:href="#ca8rE1aPD" opacity="1" fill="#000000" fill-opacity="0"></use><g><use xlink:href="#ca8rE1aPD" opacity="1" fill-opacity="0" stroke="#000000" stroke-width="4" stroke-opacity="0"></use></g></g><g><use xlink:href="#fOQe0fOoV" opacity="1" fill="#ffffff" fill-opacity="1"></use><g><use xlink:href="#fOQe0fOoV" opacity="1" fill-opacity="0" stroke="#000000" stroke-width="1" stroke-opacity="0"></use></g></g><g><use xlink:href="#aVrhP8FCL" opacity="1" fill="#000000" fill-opacity="0"></use><g><use xlink:href="#aVrhP8FCL" opacity="1" fill-opacity="0" stroke="#000000" stroke-width="1" stroke-opacity="0"></use></g></g><g><use xlink:href="#fZNqdLDz1" opacity="1" fill="#ffffff" fill-opacity="1"></use><g><use xlink:href="#fZNqdLDz1" opacity="1" fill-opacity="0" stroke="#000000" stroke-width="1" stroke-opacity="0"></use></g></g><g><use xlink:href="#b1xX0ZD875" opacity="1" fill="#000000" fill-opacity="0"></use><g><use xlink:href="#b1xX0ZD875" opacity="1" fill-opacity="0" stroke="#000000" stroke-width="4" stroke-opacity="0"></use></g></g><g><use xlink:href="#aqO3W5knS" opacity="1" fill="#ffffff" fill-opacity="1"></use><g><use xlink:href="#aqO3W5knS" opacity="1" fill-opacity="0" stroke="#000000" stroke-width="1" stroke-opacity="0"></use></g></g><g><use xlink:href="#aDoADz4nX" opacity="1" fill="#000000" fill-opacity="0"></use><g><use xlink:href="#aDoADz4nX" opacity="1" fill-opacity="0" stroke="#000000" stroke-width="1" stroke-opacity="0"></use></g></g><g><use xlink:href="#blQdyRhff" opacity="1" fill="#ffffff" fill-opacity="1"></use><g><use xlink:href="#blQdyRhff" opacity="1" fill-opacity="0" stroke="#000000" stroke-width="1" stroke-opacity="0"></use></g></g><g><use xlink:href="#b1UwNsDtgT" opacity="1" fill="#000000" fill-opacity="0"></use><g><use xlink:href="#b1UwNsDtgT" opacity="1" fill-opacity="0" stroke="#000000" stroke-width="4" stroke-opacity="0"></use></g></g><g><use xlink:href="#i3e3g3Frsp" opacity="1" fill="#000000" fill-opacity="0"></use><g><use xlink:href="#i3e3g3Frsp" opacity="1" fill-opacity="0" stroke="#000000" stroke-width="1" stroke-opacity="0"></use></g></g><g><use xlink:href="#b1uUve0rY2" opacity="1" fill="#000000" fill-opacity="0"></use><g><use xlink:href="#b1uUve0rY2" opacity="1" fill-opacity="0" stroke="#ffffff" stroke-width="4" stroke-opacity="1"></use></g></g><g><use xlink:href="#e6dnMWRVn" opacity="1" fill="#000000" fill-opacity="0"></use><g><use xlink:href="#e6dnMWRVn" opacity="1" fill-opacity="0" stroke="#000000" stroke-width="1" stroke-opacity="0"></use></g></g><g><use xlink:href="#g1DiTwEvP8" opacity="1" fill="#000000" fill-opacity="0"></use><g><use xlink:href="#g1DiTwEvP8" opacity="1" fill-opacity="0" stroke="#ffffff" stroke-width="4" stroke-opacity="1"></use></g></g><g><use xlink:href="#d2yslyHu5D" opacity="1" fill="#000000" fill-opacity="0"></use><g><use xlink:href="#d2yslyHu5D" opacity="1" fill-opacity="0" stroke="#000000" stroke-width="1" stroke-opacity="0"></use></g></g><g><use xlink:href="#aolYXPkV" opacity="1" fill="#000000" fill-opacity="0"></use><g><use xlink:href="#aolYXPkV" opacity="1" fill-opacity="0" stroke="#ffffff" stroke-width="4" stroke-opacity="1"></use></g></g><g><use xlink:href="#chGyQDPoM" opacity="1" fill="#000000" fill-opacity="0"></use><g><use xlink:href="#chGyQDPoM" opacity="1" fill-opacity="0" stroke="#000000" stroke-width="1" stroke-opacity="0"></use></g></g><g><use xlink:href="#hc41NAjgx" opacity="1" fill="#000000" fill-opacity="0"></use><g><use xlink:href="#hc41NAjgx" opacity="1" fill-opacity="0" stroke="#ffffff" stroke-width="4" stroke-opacity="1"></use></g></g><g><use xlink:href="#cRtDWSc2u" opacity="1" fill="#000000" fill-opacity="0"></use><g><use xlink:href="#cRtDWSc2u" opacity="1" fill-opacity="0" stroke="#000000" stroke-width="1" stroke-opacity="0"></use></g></g><g><use xlink:href="#e2DBnOxhka" opacity="1" fill="#000000" fill-opacity="0"></use><g><use xlink:href="#e2DBnOxhka" opacity="1" fill-opacity="0" stroke="#ffffff" stroke-width="4" stroke-opacity="1"></use></g></g><g><use xlink:href="#k2wuxLPZMI" opacity="1" fill="#000000" fill-opacity="0"></use><g><use xlink:href="#k2wuxLPZMI" opacity="1" fill-opacity="0" stroke="#000000" stroke-width="1" stroke-opacity="0"></use></g></g><g><use xlink:href="#k2WJmrbij7" opacity="1" fill="#000000" fill-opacity="0"></use><g><use xlink:href="#k2WJmrbij7" opacity="1" fill-opacity="0" stroke="#ffffff" stroke-width="4" stroke-opacity="1"></use></g></g><g><use xlink:href="#b6O1fYRMXj" opacity="1" fill="#000000" fill-opacity="0"></use><g><use xlink:href="#b6O1fYRMXj" opacity="1" fill-opacity="0" stroke="#000000" stroke-width="1" stroke-opacity="0"></use></g></g><g><use xlink:href="#a8jRy4Osdq" opacity="1" fill="#000000" fill-opacity="0"></use><g><use xlink:href="#a8jRy4Osdq" opacity="1" fill-opacity="0" stroke="#ffffff" stroke-width="4" stroke-opacity="1"></use></g></g><g><use xlink:href="#c7u7ESnvX" opacity="1" fill="#000000" fill-opacity="0"></use><g><use xlink:href="#c7u7ESnvX" opacity="1" fill-opacity="0" stroke="#000000" stroke-width="1" stroke-opacity="0"></use></g></g><g><use xlink:href="#d8TLVBfSk" opacity="1" fill="#000000" fill-opacity="0"></use><g><use xlink:href="#d8TLVBfSk" opacity="1" fill-opacity="0" stroke="#ffffff" stroke-width="4" stroke-opacity="1"></use></g></g><g><use xlink:href="#dyToUW9gt" opacity="1" fill="#000000" fill-opacity="0"></use><g><use xlink:href="#dyToUW9gt" opacity="1" fill-opacity="0" stroke="#000000" stroke-width="1" stroke-opacity="0"></use></g></g><g><use xlink:href="#a2EZuSIUX1" opacity="1" fill="#000000" fill-opacity="0"></use><g><use xlink:href="#a2EZuSIUX1" opacity="1" fill-opacity="0" stroke="#ffffff" stroke-width="4" stroke-opacity="1"></use></g></g><g><use xlink:href="#cH166O7T" opacity="1" fill="#000000" fill-opacity="0"></use><g><use xlink:href="#cH166O7T" opacity="1" fill-opacity="0" stroke="#000000" stroke-width="1" stroke-opacity="0"></use></g></g><g><use xlink:href="#b8jwKjTvz9" opacity="1" fill="#000000" fill-opacity="0"></use><g><use xlink:href="#b8jwKjTvz9" opacity="1" fill-opacity="0" stroke="#ffffff" stroke-width="4" stroke-opacity="1"></use></g></g><g><use xlink:href="#c2pwqiyAMc" opacity="1" fill="#000000" fill-opacity="0"></use><g><use xlink:href="#c2pwqiyAMc" opacity="1" fill-opacity="0" stroke="#000000" stroke-width="1" stroke-opacity="0"></use></g></g><g><use xlink:href="#a4PpeK2aO5" opacity="1" fill="#000000" fill-opacity="0"></use><g><use xlink:href="#a4PpeK2aO5" opacity="1" fill-opacity="0" stroke="#ffffff" stroke-width="4" stroke-opacity="1"></use></g></g></g></g></svg>