<?xml version="1.0" encoding="UTF-8" standalone="no"?>
<!DOCTYPE svg PUBLIC "-//W3C//DTD SVG 1.1//EN" "http://www.w3.org/Graphics/SVG/1.1/DTD/svg11.dtd">
<svg version="1.1" xmlns="http://www.w3.org/2000/svg" xmlns:xlink="http://www.w3.org/1999/xlink" preserveAspectRatio="xMidYMid meet" viewBox="0 0 640 640" width="640" height="640"><defs><path d="M4.63 320.96C4.63 494.33 145.66 634.88 319.63 634.88C493.6 634.88 634.64 494.33 634.64 320.96C634.64 147.58 493.6 7.03 319.63 7.03C145.66 7.03 4.63 147.58 4.63 320.96Z" id="bkHCQYhlv"></path><path d="M4.63 320.96C4.63 494.33 145.66 634.88 319.63 634.88C493.6 634.88 634.64 494.33 634.64 320.96C634.64 147.58 493.6 7.03 319.63 7.03C145.66 7.03 4.63 147.58 4.63 320.96Z" id="a2PTklaXTy"></path><path d="M441.99 148.81C441.99 355.38 441.99 470.14 441.99 493.1C441.99 523.55 426.71 538.78 396.14 538.78C304.2 538.78 253.13 538.78 242.91 538.78C212.35 538.78 197.06 523.55 197.06 493.1C197.06 286.53 197.06 171.77 197.06 148.81C197.06 118.36 212.35 103.13 242.91 103.13C334.85 103.13 385.92 103.13 396.14 103.13C426.71 103.13 441.99 118.36 441.99 148.81Z" id="ax0ZdeQ1K"></path><path d="M441.99 148.81C441.99 355.38 441.99 470.14 441.99 493.1C441.99 523.55 426.71 538.78 396.14 538.78C304.2 538.78 253.13 538.78 242.91 538.78C212.35 538.78 197.06 523.55 197.06 493.1C197.06 286.53 197.06 171.77 197.06 148.81C197.06 118.36 212.35 103.13 242.91 103.13C334.85 103.13 385.92 103.13 396.14 103.13C426.71 103.13 441.99 118.36 441.99 148.81Z" id="emCNa9jwg"></path><path d="M408.58 201.22C408.58 336.45 408.58 411.58 408.58 426.61C408.58 457.07 393.29 472.3 362.74 472.3C310.88 472.3 282.08 472.3 276.31 472.3C245.76 472.3 230.48 457.07 230.48 426.61C230.48 291.38 230.48 216.25 230.48 201.22C230.48 170.76 245.76 155.53 276.31 155.53C328.17 155.53 356.97 155.53 362.74 155.53C393.29 155.53 408.58 170.76 408.58 201.22Z" id="cqcE1QwMu"></path><path d="M408.58 201.22C408.58 336.45 408.58 411.58 408.58 426.61C408.58 457.07 393.29 472.3 362.74 472.3C310.88 472.3 282.08 472.3 276.31 472.3C245.76 472.3 230.48 457.07 230.48 426.61C230.48 291.38 230.48 216.25 230.48 201.22C230.48 170.76 245.76 155.53 276.31 155.53C328.17 155.53 356.97 155.53 362.74 155.53C393.29 155.53 408.58 170.76 408.58 201.22Z" id="c3F6Zas8KP"></path><path d="M245.96 279.78C245.18 271.81 245.9 263.75 248.07 256.05C250.44 247.93 254.35 240.34 259.56 233.68C270.3 218.57 286.73 208.47 305.1 205.63C311.77 204.29 318.61 203.84 325.43 204.26C332.64 204.82 339.75 206.41 346.5 209C354.23 212.23 361.36 216.73 367.59 222.33C372.74 226.84 377.24 232.03 380.97 237.77C384.42 243.14 387.08 248.98 388.87 255.1C389.85 258.75 390.49 262.48 390.77 266.23C392.24 283.66 391.82 312.44 391.71 317.38" id="b7eaKhun4R"></path><path d="M245.96 279.78C245.18 271.81 245.9 263.75 248.07 256.05C250.44 247.93 254.35 240.34 259.56 233.68C270.3 218.57 286.73 208.47 305.1 205.63C311.77 204.29 318.61 203.84 325.43 204.26C332.64 204.82 339.75 206.41 346.5 209C354.23 212.23 361.36 216.73 367.59 222.33C372.74 226.84 377.24 232.03 380.97 237.77C384.42 243.14 387.08 248.98 388.87 255.1C389.85 258.75 390.49 262.48 390.77 266.23C392.24 283.66 391.82 312.44 391.71 317.38" id="b5eS8WpE0"></path><path d="M243.85 295.96C250.31 296.62 256.6 293.67 260.2 288.29C262 285.05 263.16 281.48 263.56 277.79C264.83 271.18 264.3 269.49 265.25 264.46C266.02 260.18 267.29 256.02 269.05 252.06C273.39 243.53 280.07 236.43 288.33 231.58C301.15 222.38 317.48 219.48 332.71 223.7C338.54 225.26 344.09 227.74 349.15 231.05C354.28 234.48 358.86 238.65 362.74 243.44C366.65 247.26 369.81 251.78 372 256.79C372.94 259.4 373.58 262.12 373.91 264.88C375.08 280.39 375.4 295.95 374.85 311.51C374.27 314.78 374.6 318.16 375.8 321.27C377.29 324.03 379.53 326.32 382.23 327.89C385.86 330.32 390.01 331.87 394.36 332.4" id="ambVJnKcK"></path><path d="M243.85 295.96C250.31 296.62 256.6 293.67 260.2 288.29C262 285.05 263.16 281.48 263.56 277.79C264.83 271.18 264.3 269.49 265.25 264.46C266.02 260.18 267.29 256.02 269.05 252.06C273.39 243.53 280.07 236.43 288.33 231.58C301.15 222.38 317.48 219.48 332.71 223.7C338.54 225.26 344.09 227.74 349.15 231.05C354.28 234.48 358.86 238.65 362.74 243.44C366.65 247.26 369.81 251.78 372 256.79C372.94 259.4 373.58 262.12 373.91 264.88C375.08 280.39 375.4 295.95 374.85 311.51C374.27 314.78 374.6 318.16 375.8 321.27C377.29 324.03 379.53 326.32 382.23 327.89C385.86 330.32 390.01 331.87 394.36 332.4" id="gksdylcB4"></path><path d="M243.33 313.5C246.82 314.05 250.37 314.05 253.86 313.5C258.42 312.54 262.7 310.68 266.52 308.03C270.82 305.43 274.43 301.83 277.06 297.54C279.58 291.43 281 284.91 281.27 278.32C281.44 272.89 282.41 267.51 284.12 262.35C285.82 258.49 288.18 254.93 291.08 251.84C293.77 248.93 296.9 246.45 300.34 244.5C307.72 240.32 316.36 238.9 324.7 240.51C328.34 240.95 331.91 241.98 335.22 243.55C338.59 245.26 341.64 247.49 344.3 250.16C347.44 252.9 350.1 256.13 352.2 259.72C354.04 262.99 355.33 266.55 355.98 270.22C356.22 272.42 356.22 274.64 355.98 276.85C355.98 291.65 357.05 306.46 355.98 321.27C356 323.7 356.39 326.12 357.16 328.41C359.33 332.43 362.26 336 365.79 338.91C368.53 341.41 371.63 343.5 374.96 345.1C380.75 347.75 387.04 349.11 393.4 349.1" id="c1E83ajeEc"></path><path d="M243.33 313.5C246.82 314.05 250.37 314.05 253.86 313.5C258.42 312.54 262.7 310.68 266.52 308.03C270.82 305.43 274.43 301.83 277.06 297.54C279.58 291.43 281 284.91 281.27 278.32C281.44 272.89 282.41 267.51 284.12 262.35C285.82 258.49 288.18 254.93 291.08 251.84C293.77 248.93 296.9 246.45 300.34 244.5C307.72 240.32 316.36 238.9 324.7 240.51C328.34 240.95 331.91 241.98 335.22 243.55C338.59 245.26 341.64 247.49 344.3 250.16C347.44 252.9 350.1 256.13 352.2 259.72C354.04 262.99 355.33 266.55 355.98 270.22C356.22 272.42 356.22 274.64 355.98 276.85C355.98 291.65 357.05 306.46 355.98 321.27C356 323.7 356.39 326.12 357.16 328.41C359.33 332.43 362.26 336 365.79 338.91C368.53 341.41 371.63 343.5 374.96 345.1C380.75 347.75 387.04 349.11 393.4 349.1" id="ftyCSeboS"></path><path d="M243.85 331.67C246.96 332.35 250.17 332.52 253.35 332.2C258.07 331.54 262.61 329.97 266.72 327.57C270.13 325.83 273.37 323.79 276.42 321.49C281.71 317.46 286.39 312.72 290.33 307.41C293.07 303.99 295.3 300.2 296.98 296.17C298.18 292.47 298.85 288.61 298.98 284.72C299.32 281.15 300.03 277.63 301.09 274.22C301.56 271.77 302.45 269.43 303.72 267.28C305.24 265.14 307.18 263.32 309.41 261.93C311.9 259.79 314.92 258.39 318.16 257.83C320.47 257.6 322.82 257.88 325.01 258.67C327.28 259.47 329.39 260.68 331.22 262.24C333.39 264.14 335.16 266.47 336.38 269.07C338.13 273.81 338.43 278.97 337.23 283.88C336.76 290.62 335.68 297.3 333.96 303.84C331.31 312.15 327.4 320.02 322.37 327.14C313.35 339.66 301.37 349.77 287.5 356.56C274.2 363.33 259.6 367.16 244.7 367.8" id="e6JyC2UX5"></path><path d="M243.85 331.67C246.96 332.35 250.17 332.52 253.35 332.2C258.07 331.54 262.61 329.97 266.72 327.57C270.13 325.83 273.37 323.79 276.42 321.49C281.71 317.46 286.39 312.72 290.33 307.41C293.07 303.99 295.3 300.2 296.98 296.17C298.18 292.47 298.85 288.61 298.98 284.72C299.32 281.15 300.03 277.63 301.09 274.22C301.56 271.77 302.45 269.43 303.72 267.28C305.24 265.14 307.18 263.32 309.41 261.93C311.9 259.79 314.92 258.39 318.16 257.83C320.47 257.6 322.82 257.88 325.01 258.67C327.28 259.47 329.39 260.68 331.22 262.24C333.39 264.14 335.16 266.47 336.38 269.07C338.13 273.81 338.43 278.97 337.23 283.88C336.76 290.62 335.68 297.3 333.96 303.84C331.31 312.15 327.4 320.02 322.37 327.14C313.35 339.66 301.37 349.77 287.5 356.56C274.2 363.33 259.6 367.16 244.7 367.8" id="a2YENLrEup"></path><path d="M246.7 349.63C252.74 349.75 258.78 349.05 264.63 347.52C275.59 344.54 285.65 338.91 293.91 331.14C299.43 326.02 304.25 320.19 308.26 313.81C311.29 309.53 313.82 304.91 315.84 300.05C319.05 291.74 320.27 282.77 319.42 273.9" id="e658CwM80z"></path><path d="M246.7 349.63C252.74 349.75 258.78 349.05 264.63 347.52C275.59 344.54 285.65 338.91 293.91 331.14C299.43 326.02 304.25 320.19 308.26 313.81C311.29 309.53 313.82 304.91 315.84 300.05C319.05 291.74 320.27 282.77 319.42 273.9" id="c13X4E4kgv"></path><path d="M322.58 348.47L331.64 348.47" id="c1TBXCLu2Y"></path><path d="M322.58 348.47L331.64 348.47" id="cTmGTMo56"></path><path d="M340.39 330.93C341.29 333.97 342.53 336.89 344.08 339.65C346.55 343.97 349.68 347.86 353.36 351.2C357.44 355.28 362.05 358.81 367.06 361.71C370.84 364 374.91 365.76 379.18 366.96C384.56 368.41 390.18 368.83 395.72 368.22" id="a1SS83khSF"></path><path d="M340.39 330.93C341.29 333.97 342.53 336.89 344.08 339.65C346.55 343.97 349.68 347.86 353.36 351.2C357.44 355.28 362.05 358.81 367.06 361.71C370.84 364 374.91 365.76 379.18 366.96C384.56 368.41 390.18 368.83 395.72 368.22" id="fR4NYFopK"></path><path d="M382.97 386.81C380.12 385.97 376.23 384.7 371.69 382.93C367.59 381.49 363.6 379.73 359.78 377.67C353.67 374.21 352.31 373.46 347.24 370.95C342.69 368.65 337.87 366.88 332.91 365.7C327.5 364.23 321.79 364.23 316.36 365.7C312.49 366.77 308.76 368.26 305.19 370.11C293.71 375.36 293.39 376.94 285.9 379.87C280.13 382.05 274.12 383.57 267.99 384.39C263.56 385.11 259.09 385.53 254.61 385.65" id="i16Eb2A53"></path><path d="M382.97 386.81C380.12 385.97 376.23 384.7 371.69 382.93C367.59 381.49 363.6 379.73 359.78 377.67C353.67 374.21 352.31 373.46 347.24 370.95C342.69 368.65 337.87 366.88 332.91 365.7C327.5 364.23 321.79 364.23 316.36 365.7C312.49 366.77 308.76 368.26 305.19 370.11C293.71 375.36 293.39 376.94 285.9 379.87C280.13 382.05 274.12 383.57 267.99 384.39C263.56 385.11 259.09 385.53 254.61 385.65" id="e51dCa0nym"></path><path d="M269.05 402.46C272.6 402.4 276.14 401.9 279.58 400.98C283.24 399.98 286.78 398.58 290.12 396.79C293.82 394.9 293.82 394.48 298.87 391.84C303.92 389.22 305.1 388.8 307.19 387.85C310.12 386.32 313.25 385.19 316.47 384.5C318.75 384.24 321.05 384.24 323.32 384.5C326.2 384.58 329.08 385 331.86 385.76C334.91 386.76 337.84 388.1 340.61 389.75C343.56 391.33 344.08 391.75 347.24 393.53C348.4 394.17 352.73 396.58 356.09 398.05C360.75 400.08 365.7 401.42 370.75 402.04" id="bx71UQ4yu"></path><path d="M269.05 402.46C272.6 402.4 276.14 401.9 279.58 400.98C283.24 399.98 286.78 398.58 290.12 396.79C293.82 394.9 293.82 394.48 298.87 391.84C303.92 389.22 305.1 388.8 307.19 387.85C310.12 386.32 313.25 385.19 316.47 384.5C318.75 384.24 321.05 384.24 323.32 384.5C326.2 384.58 329.08 385 331.86 385.76C334.91 386.76 337.84 388.1 340.61 389.75C343.56 391.33 344.08 391.75 347.24 393.53C348.4 394.17 352.73 396.58 356.09 398.05C360.75 400.08 365.7 401.42 370.75 402.04" id="b4s5ECEZkN"></path><path d="M288.23 417.58C291.81 416.74 295.35 415.6 298.76 414.22C302.47 412.66 306 410.72 309.3 408.45C313.2 405.81 313.2 404.97 315.73 404.04C318.88 402.93 322.26 402.63 325.54 403.19C328.53 403.57 331.45 404.41 334.18 405.72C336.55 406.87 338.84 408.21 341.03 409.71C344.81 412.13 345.66 412.95 348.3 414.43C350.13 415.42 352.03 416.26 353.98 416.94" id="a1p89w0CNr"></path><path d="M288.23 417.58C291.81 416.74 295.35 415.6 298.76 414.22C302.47 412.66 306 410.72 309.3 408.45C313.2 405.81 313.2 404.97 315.73 404.04C318.88 402.93 322.26 402.63 325.54 403.19C328.53 403.57 331.45 404.41 334.18 405.72C336.55 406.87 338.84 408.21 341.03 409.71C344.81 412.13 345.66 412.95 348.3 414.43C350.13 415.42 352.03 416.26 353.98 416.94" id="b1ykpDTQV"></path><path d="M319.42 423.46L329.95 423.46" id="e2X0Jaaal"></path><path d="M319.42 423.46L329.95 423.46" id="exL1ncbK8"></path><path d="M318.05 523.55C307.8 523.55 299.51 515.04 299.51 504.55C299.51 494.05 307.8 485.54 318.05 485.54C328.29 485.54 336.6 494.05 336.6 504.55C336.6 515.04 328.29 523.55 318.05 523.55Z" id="aFrKYy4Ms"></path><path d="M318.05 523.55C307.8 523.55 299.51 515.04 299.51 504.55C299.51 494.05 307.8 485.54 318.05 485.54C328.29 485.54 336.6 494.05 336.6 504.55C336.6 515.04 328.29 523.55 318.05 523.55Z" id="c3b77qoCwK"></path><path d="M344.39 118.36C344.39 123.71 344.39 126.69 344.39 127.28C344.39 127.28 344.39 127.28 344.39 127.28C314.04 127.28 297.18 127.28 293.82 127.28C293.82 127.28 293.82 127.28 293.82 127.28C293.82 121.93 293.82 118.95 293.82 118.36C293.82 118.36 293.82 118.36 293.82 118.36C324.16 118.36 341.03 118.36 344.39 118.36C344.39 118.36 344.39 118.36 344.39 118.36Z" id="bx6vYHtuz"></path><path d="M344.39 118.36C344.39 123.71 344.39 126.69 344.39 127.28C344.39 127.28 344.39 127.28 344.39 127.28C314.04 127.28 297.18 127.28 293.82 127.28C293.82 127.28 293.82 127.28 293.82 127.28C293.82 121.93 293.82 118.95 293.82 118.36C293.82 118.36 293.82 118.36 293.82 118.36C324.16 118.36 341.03 118.36 344.39 118.36C344.39 118.36 344.39 118.36 344.39 118.36Z" id="a1yKeo80Lf"></path></defs><g><g><g><use xlink:href="#bkHCQYhlv" opacity="1" fill="#e22133" fill-opacity="1"></use><g><use xlink:href="#bkHCQYhlv" opacity="1" fill-opacity="0" stroke="#000000" stroke-width="1" stroke-opacity="0"></use></g></g><g><use xlink:href="#a2PTklaXTy" opacity="1" fill="#000000" fill-opacity="0"></use><g><use xlink:href="#a2PTklaXTy" opacity="1" fill-opacity="0" stroke="#000000" stroke-width="1" stroke-opacity="0"></use></g></g><g><use xlink:href="#ax0ZdeQ1K" opacity="1" fill="#ffffff" fill-opacity="1"></use><g><use xlink:href="#ax0ZdeQ1K" opacity="1" fill-opacity="0" stroke="#000000" stroke-width="1" stroke-opacity="0"></use></g></g><g><use xlink:href="#emCNa9jwg" opacity="1" fill="#000000" fill-opacity="0"></use><g><use xlink:href="#emCNa9jwg" opacity="1" fill-opacity="0" stroke="#ffffff" stroke-width="1.2" stroke-opacity="1"></use></g></g><g><use xlink:href="#cqcE1QwMu" opacity="1" fill="#df2233" fill-opacity="1"></use><g><use xlink:href="#cqcE1QwMu" opacity="1" fill-opacity="0" stroke="#000000" stroke-width="1" stroke-opacity="0"></use></g></g><g><use xlink:href="#c3F6Zas8KP" opacity="1" fill="#000000" fill-opacity="0"></use><g><use xlink:href="#c3F6Zas8KP" opacity="1" fill-opacity="0" stroke="#000000" stroke-width="1" stroke-opacity="0"></use></g></g><g><use xlink:href="#b7eaKhun4R" opacity="1" fill="#000000" fill-opacity="0"></use><g><use xlink:href="#b7eaKhun4R" opacity="1" fill-opacity="0" stroke="#000000" stroke-width="1" stroke-opacity="0"></use></g></g><g><use xlink:href="#b5eS8WpE0" opacity="1" fill="#000000" fill-opacity="0"></use><g><use xlink:href="#b5eS8WpE0" opacity="1" fill-opacity="0" stroke="#ffffff" stroke-width="0.8" stroke-opacity="1"></use></g></g><g><use xlink:href="#ambVJnKcK" opacity="1" fill="#000000" fill-opacity="0"></use><g><use xlink:href="#ambVJnKcK" opacity="1" fill-opacity="0" stroke="#000000" stroke-width="1" stroke-opacity="0"></use></g></g><g><use xlink:href="#gksdylcB4" opacity="1" fill="#000000" fill-opacity="0"></use><g><use xlink:href="#gksdylcB4" opacity="1" fill-opacity="0" stroke="#ffffff" stroke-width="0.8" stroke-opacity="1"></use></g></g><g><use xlink:href="#c1E83ajeEc" opacity="1" fill="#000000" fill-opacity="0"></use><g><use xlink:href="#c1E83ajeEc" opacity="1" fill-opacity="0" stroke="#000000" stroke-width="1" stroke-opacity="0"></use></g></g><g><use xlink:href="#ftyCSeboS" opacity="1" fill="#000000" fill-opacity="0"></use><g><use xlink:href="#ftyCSeboS" opacity="1" fill-opacity="0" stroke="#ffffff" stroke-width="0.8" stroke-opacity="1"></use></g></g><g><use xlink:href="#e6JyC2UX5" opacity="1" fill="#000000" fill-opacity="0"></use><g><use xlink:href="#e6JyC2UX5" opacity="1" fill-opacity="0" stroke="#000000" stroke-width="1" stroke-opacity="0"></use></g></g><g><use xlink:href="#a2YENLrEup" opacity="1" fill="#000000" fill-opacity="0"></use><g><use xlink:href="#a2YENLrEup" opacity="1" fill-opacity="0" stroke="#ffffff" stroke-width="0.8" stroke-opacity="1"></use></g></g><g><use xlink:href="#e658CwM80z" opacity="1" fill="#000000" fill-opacity="0"></use><g><use xlink:href="#e658CwM80z" opacity="1" fill-opacity="0" stroke="#000000" stroke-width="1" stroke-opacity="0"></use></g></g><g><use xlink:href="#c13X4E4kgv" opacity="1" fill="#000000" fill-opacity="0"></use><g><use xlink:href="#c13X4E4kgv" opacity="1" fill-opacity="0" stroke="#ffffff" stroke-width="0.8" stroke-opacity="1"></use></g></g><g><use xlink:href="#c1TBXCLu2Y" opacity="1" fill="#000000" fill-opacity="0"></use><g><use xlink:href="#c1TBXCLu2Y" opacity="1" fill-opacity="0" stroke="#000000" stroke-width="1" stroke-opacity="0"></use></g></g><g><use xlink:href="#cTmGTMo56" opacity="1" fill="#000000" fill-opacity="0"></use><g><use xlink:href="#cTmGTMo56" opacity="1" fill-opacity="0" stroke="#ffffff" stroke-width="0.8" stroke-opacity="1"></use></g></g><g><use xlink:href="#a1SS83khSF" opacity="1" fill="#000000" fill-opacity="0"></use><g><use xlink:href="#a1SS83khSF" opacity="1" fill-opacity="0" stroke="#000000" stroke-width="1" stroke-opacity="0"></use></g></g><g><use xlink:href="#fR4NYFopK" opacity="1" fill="#000000" fill-opacity="0"></use><g><use xlink:href="#fR4NYFopK" opacity="1" fill-opacity="0" stroke="#ffffff" stroke-width="0.8" stroke-opacity="1"></use></g></g><g><use xlink:href="#i16Eb2A53" opacity="1" fill="#000000" fill-opacity="0"></use><g><use xlink:href="#i16Eb2A53" opacity="1" fill-opacity="0" stroke="#000000" stroke-width="1" stroke-opacity="0"></use></g></g><g><use xlink:href="#e51dCa0nym" opacity="1" fill="#000000" fill-opacity="0"></use><g><use xlink:href="#e51dCa0nym" opacity="1" fill-opacity="0" stroke="#ffffff" stroke-width="0.8" stroke-opacity="1"></use></g></g><g><use xlink:href="#bx71UQ4yu" opacity="1" fill="#000000" fill-opacity="0"></use><g><use xlink:href="#bx71UQ4yu" opacity="1" fill-opacity="0" stroke="#000000" stroke-width="1" stroke-opacity="0"></use></g></g><g><use xlink:href="#b4s5ECEZkN" opacity="1" fill="#000000" fill-opacity="0"></use><g><use xlink:href="#b4s5ECEZkN" opacity="1" fill-opacity="0" stroke="#ffffff" stroke-width="0.8" stroke-opacity="1"></use></g></g><g><use xlink:href="#a1p89w0CNr" opacity="1" fill="#000000" fill-opacity="0"></use><g><use xlink:href="#a1p89w0CNr" opacity="1" fill-opacity="0" stroke="#000000" stroke-width="1" stroke-opacity="0"></use></g></g><g><use xlink:href="#b1ykpDTQV" opacity="1" fill="#000000" fill-opacity="0"></use><g><use xlink:href="#b1ykpDTQV" opacity="1" fill-opacity="0" stroke="#ffffff" stroke-width="0.8" stroke-opacity="1"></use></g></g><g><use xlink:href="#e2X0Jaaal" opacity="1" fill="#000000" fill-opacity="0"></use><g><use xlink:href="#e2X0Jaaal" opacity="1" fill-opacity="0" stroke="#000000" stroke-width="1" stroke-opacity="0"></use></g></g><g><use xlink:href="#exL1ncbK8" opacity="1" fill="#000000" fill-opacity="0"></use><g><use xlink:href="#exL1ncbK8" opacity="1" fill-opacity="0" stroke="#ffffff" stroke-width="0.8" stroke-opacity="1"></use></g></g><g><use xlink:href="#aFrKYy4Ms" opacity="1" fill="#df2233" fill-opacity="1"></use><g><use xlink:href="#aFrKYy4Ms" opacity="1" fill-opacity="0" stroke="#000000" stroke-width="1" stroke-opacity="0"></use></g></g><g><use xlink:href="#c3b77qoCwK" opacity="1" fill="#000000" fill-opacity="0"></use><g><use xlink:href="#c3b77qoCwK" opacity="1" fill-opacity="0" stroke="#000000" stroke-width="1" stroke-opacity="0"></use></g></g><g><use xlink:href="#bx6vYHtuz" opacity="1" fill="#df2233" fill-opacity="1"></use><g><use xlink:href="#bx6vYHtuz" opacity="1" fill-opacity="0" stroke="#000000" stroke-width="1" stroke-opacity="0"></use></g></g><g><use xlink:href="#a1yKeo80Lf" opacity="1" fill="#000000" fill-opacity="0"></use><g><use xlink:href="#a1yKeo80Lf" opacity="1" fill-opacity="0" stroke="#000000" stroke-width="1" stroke-opacity="0"></use></g></g></g></g></svg>