<?xml version="1.0" encoding="UTF-8"?>
<svg width="48px" height="48px" viewBox="0 0 48 48" version="1.1" xmlns="http://www.w3.org/2000/svg" xmlns:xlink="http://www.w3.org/1999/xlink">
    <title>Identity and Access Management</title>
    <g id="V2-Icons" stroke="none" stroke-width="1" fill="none" fill-rule="evenodd">
        <g id="IBM-/-Cloud-/-Security" transform="translate(-1186, -14)">
            <g id="Identity-and-Access-Management" transform="translate(1186, 14)">
                <rect id="Rectangle" fill="#FA4D56" x="0" y="0" width="48" height="48"></rect>
                <g id="id-management(1)" transform="translate(12, 12)">
                    <path d="M11.25,15 L6.75,15 C5.50735931,15 4.5,16.0073593 4.5,17.25 L4.5,18.75 L6,18.75 L6,17.25 C6,16.8357864 6.33578644,16.5 6.75,16.5 L11.25,16.5 C11.6642136,16.5 12,16.8357864 12,17.25 L12,18.75 L13.5,18.75 L13.5,17.25 C13.5,16.0073593 12.4926407,15 11.25,15 Z" id="Path" fill="#FFFFFF" fill-rule="nonzero"></path>
                    <path d="M9,14.25 C10.6568542,14.25 12,12.9068542 12,11.25 C12,9.59314575 10.6568542,8.25 9,8.25 C7.34314575,8.25 6,9.59314575 6,11.25 C6,12.9068542 7.34314575,14.25 9,14.25 Z M9,9.75 C9.82842712,9.75 10.5,10.4215729 10.5,11.25 C10.5,12.0784271 9.82842712,12.75 9,12.75 C8.17157288,12.75 7.5,12.0784271 7.5,11.25 C7.5,10.4215729 8.17157288,9.75 9,9.75 Z" id="Shape" fill="#FFFFFF" fill-rule="nonzero"></path>
                    <path d="M21,14.25 L21,21 L3,21 L3,6 L12,6 L12,4.5 L3,4.5 C2.17157288,4.5 1.5,5.17157288 1.5,6 L1.5,21 C1.5,21.8284271 2.17157288,22.5 3,22.5 L21,22.5 C21.8284271,22.5 22.5,21.8284271 22.5,21 L22.5,14.25 L21,14.25 Z" id="Path-2" fill="#FFFFFF" fill-rule="nonzero"></path>
                    <rect id="Rectangle" fill="#FFFFFF" fill-rule="nonzero" x="15" y="14.25" width="4.5" height="1.5"></rect>
                    <rect id="Rectangle" fill="#FFFFFF" fill-rule="nonzero" x="16.5" y="17.25" width="3" height="1.5"></rect>
                    <path d="M24,7.5 L24,6 L22.424175,6 C22.3274664,5.5305463 22.1410847,5.08416235 21.87525,4.685325 L22.99275,3.567825 L21.93225,2.507325 L20.81475,3.624825 C20.4158958,3.35895498 19.9694852,3.17254737 19.5,3.075825 L19.5,1.5 L18,1.5 L18,3.075825 C17.5305463,3.1725336 17.0841623,3.35891526 16.685325,3.62475 L15.567825,2.50725 L14.507325,3.56775 L15.624825,4.68525 C15.358955,5.08410424 15.1725474,5.5305148 15.075825,6 L13.5,6 L13.5,7.5 L15.075825,7.5 C15.1725336,7.9694537 15.3589153,8.41583765 15.62475,8.814675 L14.50725,9.932175 L15.56775,10.992675 L16.68525,9.875175 C17.0841042,10.141045 17.5305148,10.3274526 18,10.424175 L18,12 L19.5,12 L19.5,10.424175 C19.9694537,10.3274664 20.4158377,10.1410847 20.814675,9.87525 L21.932175,10.99275 L22.992675,9.93225 L21.875175,8.81475 C22.141045,8.41589576 22.3274526,7.9694852 22.424175,7.5 L24,7.5 Z M18.75,9 C17.5073593,9 16.5,7.99264069 16.5,6.75 C16.5,5.50735931 17.5073593,4.5 18.75,4.5 C19.9926407,4.5 21,5.50735931 21,6.75 C20.998636,7.99207525 19.9920752,8.99863597 18.75,9 L18.75,9 Z" id="Shape" fill="#FFFFFF" fill-rule="nonzero"></path>
                    <rect id="_Transparent_Rectangle_" x="0" y="0" width="24" height="24"></rect>
                </g>
            </g>
        </g>
    </g>
</svg>