<?xml version="1.0" encoding="UTF-8"?>
<svg width="48px" height="48px" viewBox="0 0 48 48" version="1.1" xmlns="http://www.w3.org/2000/svg" xmlns:xlink="http://www.w3.org/1999/xlink">
    <title>Key</title>
    <g id="V2-Icons" stroke="none" stroke-width="1" fill="none" fill-rule="evenodd">
        <g id="IBM-/-Cloud-/-Security" transform="translate(-1322, -13)">
            <g id="Key" transform="translate(1322, 13)">
                <rect id="Rectangle" fill="#FA4D56" x="0" y="0" width="48" height="48"></rect>
                <g transform="translate(12, 12)">
                    <path d="M15.75,1.49999966 C13.6125771,1.49945187 11.6012662,2.51153736 10.3280046,4.2283314 C9.05474308,5.94512543 8.67008987,8.16362282 9.291075,10.20885 L1.5,17.9999997 L1.5,22.4999997 L6,22.4999997 L13.791075,14.70885 C16.3271308,15.4788562 19.079129,14.6934531 20.8267695,12.7009068 C22.5744101,10.7083604 22.9942463,7.87744365 21.900113,5.46345093 C20.8059797,3.04945821 18.400375,1.4991621 15.75,1.49999966 L15.75,1.49999966 Z M15.75,13.499999 C15.2335778,13.4996885 14.7200172,13.423319 14.22585,13.27335 L13.36575,13.0125 L12.73035,13.6479 L10.344525,16.0338 L9.310575,14.999999 L8.25,16.060575 L9.284025,17.094525 L8.0946,18.284025 L7.060575,17.25 L6,18.310575 L7.034025,19.344525 L5.3787,20.999999 L3,20.999999 L3,18.6213 L10.351725,11.269575 L10.987125,10.634025 L10.72665,9.774 C10.0691532,7.60653195 10.8758443,5.26175277 12.7277082,3.95759798 C14.5795722,2.65344319 17.0590495,2.68397446 18.8782392,4.03333309 C20.6974288,5.38269173 21.4461388,7.74662348 20.7354708,9.89724451 C20.0248029,12.0478655 18.0149988,13.5002524 15.75,13.499999 L15.75,13.499999 Z" id="Shape" fill="#FFFFFF" fill-rule="nonzero"></path>
                    <circle id="Oval" fill="#FFFFFF" fill-rule="nonzero" cx="16.5" cy="7.5" r="1.5"></circle>
                    <rect id="_Transparent_Rectangle_" x="0" y="0" width="24" height="24"></rect>
                </g>
            </g>
        </g>
    </g>
</svg>