<?xml version="1.0" encoding="UTF-8"?>
<svg width="48px" height="48px" viewBox="0 0 48 48" version="1.1" xmlns="http://www.w3.org/2000/svg" xmlns:xlink="http://www.w3.org/1999/xlink">
    <title>Network ACL</title>
    <g id="V2-Icons" stroke="none" stroke-width="1" fill="none" fill-rule="evenodd">
        <g id="IBM-/-Cloud-/-Security" transform="translate(-1458, -13)">
            <g id="Network-ACL" transform="translate(1458, 13)">
                <rect id="Rectangle" fill="#FA4D56" x="0" y="0" width="48" height="48"></rect>
                <g id="locked" transform="translate(12, 12)">
                    <path d="M18,10.5 L16.5,10.5 L16.5,6 C16.5,3.51471863 14.4852814,1.5 12,1.5 C9.51471863,1.5 7.5,3.51471863 7.5,6 L7.5,10.5 L6,10.5 C5.17157288,10.5 4.5,11.1715729 4.5,12 L4.5,21 C4.5,21.8284271 5.17157288,22.5 6,22.5 L18,22.5 C18.8284271,22.5 19.5,21.8284271 19.5,21 L19.5,12 C19.5,11.1715729 18.8284271,10.5 18,10.5 Z M9,6 C9,4.34314575 10.3431458,3 12,3 C13.6568542,3 15,4.34314575 15,6 L15,10.5 L9,10.5 L9,6 Z M18,21 L6,21 L6,12 L18,12 L18,21 Z" id="Shape" fill="#FFFFFF" fill-rule="nonzero"></path>
                    <rect id="_Transparent_Rectangle_" x="0" y="0" width="24" height="24"></rect>
                </g>
            </g>
        </g>
    </g>
</svg>