<?xml version="1.0" encoding="UTF-8"?>
<svg width="48px" height="48px" viewBox="0 0 48 48" version="1.1" xmlns="http://www.w3.org/2000/svg" xmlns:xlink="http://www.w3.org/1999/xlink">
    <title>network--admin-control</title>
    <g id="V2-Icons" stroke="none" stroke-width="1" fill="none" fill-rule="evenodd">
        <g id="IBM-/-Cloud-/-Security" transform="translate(-133, -77)">
            <g id="network--admin-control" transform="translate(133, 77)">
                <rect id="Rectangle" fill="#FA4D56" x="0" y="0" width="48" height="48"></rect>
                <g transform="translate(12, 12)">
                    <polygon id="Path" fill="#FFFFFF" fill-rule="nonzero" points="20.25 15.31125 19.1895 14.25 17.25 16.19025 15.3105 14.25 14.25 15.31125 16.1895 17.25 14.25 19.1895 15.3105 20.25 17.25 18.3105 19.1895 20.25 20.25 19.1895 18.3105 17.25"></polygon>
                    <path d="M18,3 C16.3439168,3.00185996 15.00186,4.34391678 15,6 C15.0027387,6.53383365 15.1496384,7.05701323 15.425175,7.51425 L7.51425,15.425175 C7.05699686,15.1496763 6.53382791,15.0027796 6,15 C4.34314575,15 3,16.3431458 3,18 C3,19.6568542 4.34314575,21 6,21 C7.65685425,21 9,19.6568542 9,18 C8.99726128,17.4661664 8.85036157,16.9429868 8.574825,16.48575 L16.48575,8.574825 C16.9430031,8.85032369 17.4661721,8.99722041 18,9 C19.6568542,9 21,7.65685425 21,6 C21,4.34314575 19.6568542,3 18,3 Z M6,19.5 C5.17157288,19.5 4.5,18.8284271 4.5,18 C4.5,17.1715729 5.17157288,16.5 6,16.5 C6.82842712,16.5 7.5,17.1715729 7.5,18 C7.4990494,18.8280331 6.82803305,19.4990494 6,19.5 Z M18,7.5 C17.1715729,7.5 16.5,6.82842712 16.5,6 C16.5,5.17157288 17.1715729,4.5 18,4.5 C18.8284271,4.5 19.5,5.17157288 19.5,6 C19.4990494,6.82803305 18.8280331,7.4990494 18,7.5 L18,7.5 Z" id="Shape" fill="#FFFFFF" fill-rule="nonzero"></path>
                    <polygon id="Path" fill="#FFFFFF" fill-rule="nonzero" points="6 8.385 4.0575 6.4425 3 7.5 6 10.5 11.25 5.25 10.1925 4.1925"></polygon>
                    <rect id="_Transparent_Rectangle_" x="0" y="0" width="24" height="24"></rect>
                </g>
            </g>
        </g>
    </g>
</svg>