<?xml version="1.0" encoding="UTF-8"?>
<svg width="48px" height="48px" viewBox="0 0 48 48" version="1.1" xmlns="http://www.w3.org/2000/svg" xmlns:xlink="http://www.w3.org/1999/xlink">
    <title>wifi--not-secure</title>
    <g id="V2-Icons" stroke="none" stroke-width="1" fill="none" fill-rule="evenodd">
        <g id="IBM-/-Cloud-/-Security" transform="translate(-989, -77)">
            <g id="wifi--not-secure" transform="translate(989, 77)">
                <rect id="Rectangle" fill="#FA4D56" x="0" y="0" width="48" height="48"></rect>
                <g transform="translate(12, 12)">
                    <path d="M15,15 L10.5,15 L10.5,12.75 C10.5,11.9215729 11.1715729,11.25 12,11.25 C12.8284271,11.25 13.5,11.9215729 13.5,12.75 L15,12.75 C15,11.0931458 13.6568542,9.75 12,9.75 C10.3431458,9.75 9,11.0931458 9,12.75 L9,15 C8.17200116,15.0010331 7.50103306,15.6720012 7.5,16.5 L7.5,21 C7.50103306,21.8279988 8.17200116,22.4989669 9,22.5 L15,22.5 C15.8279988,22.4989669 16.4989669,21.8279988 16.5,21 L16.5,16.5 C16.4989669,15.6720012 15.8279988,15.0010331 15,15 L15,15 Z M15,21 L9,21 L9,16.5 L15,16.5 L15,21 Z" id="Shape" fill="#FFFFFF" fill-rule="nonzero"></path>
                    <path d="M12,5.99999862 C10.2097908,5.99885231 8.49293726,6.71120295 7.2294,7.9794 L8.289375,9.039525 C9.2726997,8.05391086 10.6077491,7.49999862 12,7.49999862 C13.3922509,7.49999862 14.7273003,8.05391086 15.710625,9.039525 L16.77075,7.9794 C15.5071384,6.71122229 13.7902479,5.99887875 12,5.99999862 Z" id="Path" fill="#FFFFFF" fill-rule="nonzero"></path>
                    <path d="M4.578675,5.32875 L5.6391,6.38895 C7.32480252,4.69946245 9.61337871,3.7499994 12,3.7499994 C14.3866213,3.7499994 16.6751975,4.69946245 18.3609,6.38895 L19.421175,5.32875 C17.4544472,3.35766925 14.7843779,2.24996095 11.999925,2.24996095 C9.21547215,2.24996095 6.54540283,3.35766925 4.578675,5.32875 L4.578675,5.32875 Z" id="Path" fill="#FFFFFF" fill-rule="nonzero"></path>
                    <rect id="_Transparent_Rectangle_" x="0" y="0" width="24" height="24"></rect>
                </g>
            </g>
        </g>
    </g>
</svg>