<?xml version="1.0" encoding="UTF-8"?>
<svg width="48px" height="48px" viewBox="0 0 48 48" version="1.1" xmlns="http://www.w3.org/2000/svg" xmlns:xlink="http://www.w3.org/1999/xlink">
    <title>pcn--e-node</title>
    <g id="V2-Icons" stroke="none" stroke-width="1" fill="none" fill-rule="evenodd">
        <g id="IBM-/-Cloud-/-Security" transform="translate(-201, -77)">
            <g id="pcn--e-node" transform="translate(201, 77)">
                <polygon id="Fill-4" fill="#FA4D56" points="0 48 48 48 48 0 0 0"></polygon>
                <polygon id="Path" fill="#FFFFFF" fill-rule="nonzero" points="26.7555743 20.3137773 26.7555743 18.8137773 20.7555743 18.8137773 20.7555743 29.3137773 26.7555743 29.3137773 26.7555743 27.8137773 22.2555743 27.8137773 22.2555743 24.8137773 26.0055743 24.8137773 26.0055743 23.3137773 22.2555743 23.3137773 22.2555743 20.3137773"></polygon>
                <path d="M34.5661493,25.1243523 C34.8474937,24.8431035 35.0055594,24.4615908 35.0055594,24.0637773 C35.0055594,23.6659638 34.8474937,23.2844512 34.5661493,23.0032023 L30.2259743,18.6632523 L32.4014243,16.5161523 C33.0610862,16.6796168 33.7482882,16.3795677 34.0768158,15.7846357 C34.4053433,15.1897038 34.2932544,14.448278 33.8035442,13.9770474 C33.313834,13.5058168 32.5686468,13.4223166 31.9867858,13.7734748 C31.4049247,14.1246329 31.1315185,14.822863 31.3202243,15.4757523 L29.1652493,17.6023773 L24.8161493,13.2532023 C24.5349005,12.971858 24.1533878,12.8137923 23.7555743,12.8137923 C23.3577608,12.8137923 22.9762482,12.971858 22.6949993,13.2532023 L18.3550493,17.5932273 L16.2081743,15.4175523 C16.3715462,14.7577759 16.0713246,14.0705379 15.4762457,13.7420926 C14.8811668,13.4136473 14.1396659,13.5259215 13.6684951,14.0158126 C13.1973244,14.5057038 13.1140117,15.2510145 13.4653821,15.8328514 C13.8167524,16.4146882 14.5151606,16.687919 15.1680743,16.4989773 L17.2943243,18.6541023 L12.9449993,23.0032023 C12.663655,23.2844512 12.5055893,23.6659638 12.5055893,24.0637773 C12.5055893,24.4615908 12.663655,24.8431035 12.9449993,25.1243523 L17.2941743,29.4734523 L15.1680743,31.6285773 C14.5166514,31.4410227 13.8204537,31.7142187 13.4704365,32.2947499 C13.1204193,32.8752812 13.2037937,33.6185012 13.6737401,34.107049 C14.1436865,34.5955968 14.8831121,34.7077446 15.4767866,34.380515 C16.070461,34.0532854 16.3704631,33.3682117 16.2083243,32.7100023 L18.3551993,30.5343273 L22.6951493,34.8743523 C22.9763982,35.1556967 23.3579108,35.3137623 23.7557243,35.3137623 C24.1535378,35.3137623 24.5350505,35.1556967 24.8162993,34.8743523 L29.1653993,30.5251773 L31.3203743,32.6518023 C31.1328266,33.3033649 31.4061434,33.9996779 31.9868304,34.3496929 C32.5675174,34.6997079 33.3108756,34.6162061 33.7994359,34.146082 C34.2879963,33.6759579 34.4000165,32.9363598 34.0725861,32.342645 C33.7451557,31.7489302 33.0598658,31.4490441 32.4015743,31.6114023 L30.2261243,29.4643023 L34.5661493,25.1243523 Z M23.7555743,33.8137773 L14.0055743,24.0637773 L23.7555743,14.3137773 L33.5055743,24.0637773 L23.7555743,33.8137773 Z" id="Shape" fill="#FFFFFF" fill-rule="nonzero"></path>
                <rect id="_Transparent_Rectangle_" x="11.7555743" y="12.0637773" width="24" height="24"></rect>
            </g>
        </g>
    </g>
</svg>