<?xml version="1.0" encoding="UTF-8" standalone="no"?>
<!DOCTYPE svg PUBLIC "-//W3C//DTD SVG 1.1//EN" "http://www.w3.org/Graphics/SVG/1.1/DTD/svg11.dtd">
<svg version="1.1" xmlns="http://www.w3.org/2000/svg" xmlns:xlink="http://www.w3.org/1999/xlink" preserveAspectRatio="xMidYMid meet" viewBox="0 0 640 640" width="640" height="640"><defs><path d="M96.48 542.6C219.97 665.48 420.17 665.48 543.66 542.6C667.14 419.73 667.14 220.51 543.66 97.64C420.17 -25.22 219.97 -25.22 96.48 97.64C-27 220.51 -27 419.73 96.48 542.6Z" id="akjiemtkb"></path><path d="M96.48 542.6C219.97 665.48 420.17 665.48 543.66 542.6C667.14 419.73 667.14 220.51 543.66 97.64C420.17 -25.22 219.97 -25.22 96.48 97.64C-27 220.51 -27 419.73 96.48 542.6Z" id="bFvA8O2n5"></path><path d="M305.88 316.72C305.88 324.51 312.23 330.83 320.07 330.83C327.91 330.83 334.26 324.51 334.26 316.72C334.26 308.92 327.91 302.6 320.07 302.6C312.23 302.6 305.88 308.92 305.88 316.72Z" id="g7XQ94iBRr"></path><path d="M305.88 316.72C305.88 324.51 312.23 330.83 320.07 330.83C327.91 330.83 334.26 324.51 334.26 316.72C334.26 308.92 327.91 302.6 320.07 302.6C312.23 302.6 305.88 308.92 305.88 316.72Z" id="baHjUfAYi"></path><path d="M324.39 269.8L326.5 270.03L328.6 270.36L330.66 270.79L332.69 271.3L334.67 271.89L336.63 272.56L338.55 273.31L340.41 274.15L342.24 275.05L344.02 276.06L345.75 277.11L347.44 278.24L349.07 279.44L350.64 280.7L352.17 282.03L353.62 283.43L355.03 284.89L356.36 286.4L357.63 287.97L358.84 289.58L359.97 291.26L361.05 293L362.04 294.77L362.96 296.57L363.8 298.45L364.56 300.35L365.24 302.29L365.83 304.27L366.34 306.29L366.75 308.33L367.08 310.41L367.33 312.53L367.48 314.66L367.53 316.83L367.48 318.98L367.32 321.11L367.08 323.23L366.74 325.3L366.33 327.35L365.81 329.37L365.2 331.34L364.53 333.28L363.77 335.18L362.93 337.04L362 338.86L361.01 340.63L359.94 342.36L358.8 344.03L357.6 345.65L356.33 347.21L354.99 348.72L353.59 350.18L352.14 351.58L350.62 352.91L349.04 354.17L347.4 355.37L345.72 356.5L343.99 357.57L342.22 358.56L340.39 359.48L338.53 360.31L336.62 361.07L334.67 361.74L332.67 362.33L330.64 362.84L328.6 363.27L326.5 363.6L324.39 363.84L322.25 363.99L320.07 364.04L317.89 363.99L315.75 363.86L313.64 363.61L311.54 363.28L309.48 362.86L307.45 362.36L305.47 361.76L303.51 361.08L301.59 360.33L299.73 359.49L297.9 358.59L296.12 357.6L294.38 356.54L292.7 355.4L291.07 354.21L289.5 352.94L287.97 351.61L286.52 350.22L285.11 348.76L283.78 347.25L282.51 345.67L281.3 344.06L280.16 342.39L279.09 340.65L278.1 338.89L277.18 337.07L276.34 335.2L275.58 333.29L274.9 331.36L274.31 329.37L273.8 327.35L273.38 325.32L273.04 323.23L272.81 321.11L272.66 318.98L272.61 316.83L272.66 314.66L272.81 312.53L273.04 310.41L273.38 308.33L273.8 306.29L274.31 304.27L274.9 302.29L275.58 300.35L276.34 298.45L277.18 296.57L278.1 294.77L279.09 293L280.16 291.26L281.3 289.58L282.51 287.97L283.78 286.4L285.11 284.89L286.52 283.43L287.97 282.03L289.5 280.7L291.07 279.44L292.7 278.24L294.38 277.11L296.12 276.06L297.9 275.05L299.73 274.15L301.59 273.31L303.51 272.56L305.47 271.89L307.45 271.3L309.48 270.79L311.54 270.36L313.64 270.03L315.75 269.8L317.89 269.65L320.07 269.61L322.25 269.65L324.39 269.8ZM317.91 282.74L315.78 282.93L313.69 283.28L311.64 283.74L309.64 284.31L307.7 285L305.8 285.81L303.97 286.71L302.2 287.73L300.5 288.84L298.89 290.04L297.34 291.34L295.87 292.72L294.48 294.19L293.18 295.74L291.98 297.36L290.85 299.05L289.85 300.81L288.94 302.63L288.15 304.5L287.46 306.44L286.88 308.44L286.43 310.48L286.1 312.55L285.91 314.66L285.84 316.83L285.91 318.98L286.1 321.1L286.43 323.17L286.88 325.2L287.46 327.2L288.15 329.14L288.94 331.01L289.85 332.83L290.85 334.59L291.98 336.28L293.18 337.91L294.48 339.45L295.87 340.91L297.34 342.29L298.89 343.59L300.5 344.78L302.2 345.88L303.97 346.9L305.8 347.8L307.7 348.59L309.64 349.28L311.64 349.84L313.69 350.3L315.78 350.63L317.91 350.83L320.07 350.89L322.23 350.83L324.36 350.63L326.45 350.3L328.5 349.84L330.5 349.28L332.44 348.59L334.34 347.8L336.17 346.9L337.94 345.88L339.63 344.78L341.25 343.59L342.8 342.29L344.27 340.91L345.66 339.45L346.96 337.91L348.16 336.28L349.29 334.59L350.29 332.83L351.2 331.01L351.99 329.14L352.68 327.2L353.26 325.2L353.71 323.17L354.04 321.1L354.23 318.98L354.3 316.83L354.23 314.66L354.05 312.55L353.72 310.46L353.28 308.43L352.72 306.44L352.04 304.5L351.25 302.62L350.34 300.79L349.33 299.04L348.23 297.35L347.03 295.72L345.74 294.18L344.35 292.7L342.88 291.32L341.33 290.02L339.72 288.81L338.02 287.71L336.25 286.69L334.42 285.79L332.54 284.99L330.59 284.3L328.6 283.72L326.55 283.26L324.47 282.93L322.35 282.72L320.17 282.65L320.07 282.65L317.91 282.74Z" id="bI0iq8cD"></path><path d="M324.39 269.8L326.5 270.03L328.6 270.36L330.66 270.79L332.69 271.3L334.67 271.89L336.63 272.56L338.55 273.31L340.41 274.15L342.24 275.05L344.02 276.06L345.75 277.11L347.44 278.24L349.07 279.44L350.64 280.7L352.17 282.03L353.62 283.43L355.03 284.89L356.36 286.4L357.63 287.97L358.84 289.58L359.97 291.26L361.05 293L362.04 294.77L362.96 296.57L363.8 298.45L364.56 300.35L365.24 302.29L365.83 304.27L366.34 306.29L366.75 308.33L367.08 310.41L367.33 312.53L367.48 314.66L367.53 316.83L367.48 318.98L367.32 321.11L367.08 323.23L366.74 325.3L366.33 327.35L365.81 329.37L365.2 331.34L364.53 333.28L363.77 335.18L362.93 337.04L362 338.86L361.01 340.63L359.94 342.36L358.8 344.03L357.6 345.65L356.33 347.21L354.99 348.72L353.59 350.18L352.14 351.58L350.62 352.91L349.04 354.17L347.4 355.37L345.72 356.5L343.99 357.57L342.22 358.56L340.39 359.48L338.53 360.31L336.62 361.07L334.67 361.74L332.67 362.33L330.64 362.84L328.6 363.27L326.5 363.6L324.39 363.84L322.25 363.99L320.07 364.04L317.89 363.99L315.75 363.86L313.64 363.61L311.54 363.28L309.48 362.86L307.45 362.36L305.47 361.76L303.51 361.08L301.59 360.33L299.73 359.49L297.9 358.59L296.12 357.6L294.38 356.54L292.7 355.4L291.07 354.21L289.5 352.94L287.97 351.61L286.52 350.22L285.11 348.76L283.78 347.25L282.51 345.67L281.3 344.06L280.16 342.39L279.09 340.65L278.1 338.89L277.18 337.07L276.34 335.2L275.58 333.29L274.9 331.36L274.31 329.37L273.8 327.35L273.38 325.32L273.04 323.23L272.81 321.11L272.66 318.98L272.61 316.83L272.66 314.66L272.81 312.53L273.04 310.41L273.38 308.33L273.8 306.29L274.31 304.27L274.9 302.29L275.58 300.35L276.34 298.45L277.18 296.57L278.1 294.77L279.09 293L280.16 291.26L281.3 289.58L282.51 287.97L283.78 286.4L285.11 284.89L286.52 283.43L287.97 282.03L289.5 280.7L291.07 279.44L292.7 278.24L294.38 277.11L296.12 276.06L297.9 275.05L299.73 274.15L301.59 273.31L303.51 272.56L305.47 271.89L307.45 271.3L309.48 270.79L311.54 270.36L313.64 270.03L315.75 269.8L317.89 269.65L320.07 269.61L322.25 269.65L324.39 269.8ZM317.91 282.74L315.78 282.93L313.69 283.28L311.64 283.74L309.64 284.31L307.7 285L305.8 285.81L303.97 286.71L302.2 287.73L300.5 288.84L298.89 290.04L297.34 291.34L295.87 292.72L294.48 294.19L293.18 295.74L291.98 297.36L290.85 299.05L289.85 300.81L288.94 302.63L288.15 304.5L287.46 306.44L286.88 308.44L286.43 310.48L286.1 312.55L285.91 314.66L285.84 316.83L285.91 318.98L286.1 321.1L286.43 323.17L286.88 325.2L287.46 327.2L288.15 329.14L288.94 331.01L289.85 332.83L290.85 334.59L291.98 336.28L293.18 337.91L294.48 339.45L295.87 340.91L297.34 342.29L298.89 343.59L300.5 344.78L302.2 345.88L303.97 346.9L305.8 347.8L307.7 348.59L309.64 349.28L311.64 349.84L313.69 350.3L315.78 350.63L317.91 350.83L320.07 350.89L322.23 350.83L324.36 350.63L326.45 350.3L328.5 349.84L330.5 349.28L332.44 348.59L334.34 347.8L336.17 346.9L337.94 345.88L339.63 344.78L341.25 343.59L342.8 342.29L344.27 340.91L345.66 339.45L346.96 337.91L348.16 336.28L349.29 334.59L350.29 332.83L351.2 331.01L351.99 329.14L352.68 327.2L353.26 325.2L353.71 323.17L354.04 321.1L354.23 318.98L354.3 316.83L354.23 314.66L354.05 312.55L353.72 310.46L353.28 308.43L352.72 306.44L352.04 304.5L351.25 302.62L350.34 300.79L349.33 299.04L348.23 297.35L347.03 295.72L345.74 294.18L344.35 292.7L342.88 291.32L341.33 290.02L339.72 288.81L338.02 287.71L336.25 286.69L334.42 285.79L332.54 284.99L330.59 284.3L328.6 283.72L326.55 283.26L324.47 282.93L322.35 282.72L320.17 282.65L320.07 282.65L317.91 282.74Z" id="h2mHdOecCk"></path><path d="M326.67 236.97L329.9 237.3L333.12 237.76L336.27 238.33L339.39 239.02L342.47 239.85L345.49 240.78L348.46 241.83L351.36 243L354.22 244.26L357.02 245.64L359.76 247.12L362.43 248.69L365.02 250.37L367.56 252.14L370.02 254.01L372.4 255.96L374.71 258.02L376.93 260.13L379.06 262.35L381.12 264.65L383.09 267.01L384.97 269.46L386.75 271.99L388.43 274.56L390.02 277.22L391.5 279.95L392.89 282.74L394.16 285.58L395.33 288.47L396.38 291.42L397.32 294.44L398.15 297.49L398.84 300.6L399.43 303.73L399.88 306.93L400.21 310.15L400.41 313.42L400.47 316.72L400.41 320.01L400.21 323.28L399.86 326.5L399.42 329.68L398.82 332.83L398.11 335.94L397.29 338.99L396.35 341.99L395.29 344.95L394.14 347.84L392.85 350.68L391.47 353.47L389.98 356.18L388.4 358.84L386.72 361.43L384.93 363.94L383.05 366.39L381.09 368.75L379.04 371.05L376.9 373.26L374.67 375.4L372.36 377.43L369.99 379.39L367.53 381.26L365.01 383.03L362.4 384.71L359.73 386.28L357.01 387.76L354.2 389.14L351.35 390.42L348.44 391.57L345.47 392.62L342.46 393.55L339.39 394.39L336.27 395.08L333.1 395.67L329.9 396.13L326.67 396.46L323.39 396.66L320.07 396.72L316.75 396.66L313.47 396.46L310.24 396.13L307.02 395.69L303.87 395.1L300.75 394.41L297.67 393.59L294.65 392.65L291.68 391.6L288.78 390.43L285.91 389.17L283.12 387.79L280.38 386.31L277.71 384.74L275.12 383.06L272.58 381.29L270.12 379.42L267.74 377.47L265.43 375.43L263.21 373.3L261.08 371.08L259.02 368.78L257.05 366.42L255.17 363.97L253.39 361.45L251.71 358.87L250.12 356.21L248.64 353.48L247.25 350.71L245.98 347.85L244.81 344.97L243.76 342.01L242.82 339.01L241.99 335.94L241.3 332.83L240.7 329.7L240.26 326.5L239.93 323.28L239.73 320.01L239.67 316.72L239.73 313.42L239.93 310.15L240.26 306.93L240.7 303.73L241.3 300.6L241.99 297.49L242.82 294.44L243.76 291.42L244.81 288.47L245.98 285.58L247.25 282.74L248.64 279.95L250.12 277.22L251.71 274.56L253.39 271.99L255.17 269.46L257.05 267.01L259.02 264.65L261.08 262.35L263.21 260.13L265.43 258.02L267.74 255.96L270.12 254.01L272.58 252.14L275.12 250.37L277.71 248.69L280.38 247.12L283.12 245.64L285.91 244.26L288.78 243L291.68 241.83L294.65 240.78L297.67 239.85L300.75 239.02L303.87 238.33L307.02 237.76L310.24 237.3L313.47 236.97L316.75 236.78L320.07 236.71L323.39 236.78L326.67 236.97ZM314.56 250.19L311.85 250.47L309.17 250.84L306.53 251.34L303.92 251.91L301.36 252.6L298.84 253.37L296.35 254.26L293.92 255.23L291.53 256.28L289.19 257.43L286.91 258.67L284.68 259.99L282.51 261.38L280.4 262.87L278.33 264.43L276.34 266.06L274.42 267.77L272.56 269.56L270.78 271.39L269.06 273.31L267.41 275.3L265.85 277.34L264.36 279.44L262.94 281.6L261.62 283.82L260.39 286.1L259.23 288.43L258.16 290.8L257.18 293.23L256.31 295.69L255.52 298.2L254.84 300.76L254.25 303.35L253.77 305.98L253.37 308.64L253.11 311.33L252.95 314.07L252.88 316.83L252.95 319.57L253.11 322.31L253.37 325L253.77 327.66L254.25 330.29L254.84 332.88L255.52 335.44L256.31 337.96L257.18 340.42L258.16 342.85L259.23 345.23L260.39 347.54L261.62 349.82L262.94 352.04L264.36 354.21L265.85 356.31L267.41 358.34L269.06 360.33L270.78 362.25L272.56 364.09L274.42 365.88L276.34 367.58L278.33 369.21L280.4 370.77L282.51 372.26L284.68 373.66L286.91 374.97L289.19 376.22L291.53 377.37L293.92 378.42L296.35 379.39L298.84 380.27L301.36 381.04L303.92 381.73L306.53 382.32L309.17 382.8L311.85 383.18L314.56 383.46L317.3 383.62L320.07 383.67L322.84 383.62L325.58 383.46L328.28 383.18L330.97 382.8L333.61 382.32L336.22 381.73L338.78 381.04L341.3 380.27L343.79 379.39L346.22 378.42L348.61 377.37L350.95 376.22L353.23 374.97L355.45 373.66L357.63 372.26L359.74 370.77L361.81 369.21L363.79 367.58L365.72 365.88L367.58 364.09L369.36 362.25L371.08 360.33L372.73 358.34L374.29 356.31L375.78 354.21L377.2 352.04L378.52 349.82L379.75 347.54L380.91 345.23L381.98 342.85L382.95 340.42L383.83 337.96L384.62 335.44L385.3 332.88L385.89 330.29L386.37 327.66L386.77 325L387.03 322.31L387.19 319.57L387.26 316.83L387.19 314.07L387.03 311.33L386.77 308.64L386.37 305.98L385.89 303.35L385.3 300.76L384.62 298.2L383.83 295.69L382.95 293.23L381.98 290.8L380.91 288.43L379.75 286.1L378.52 283.82L377.2 281.6L375.78 279.44L374.29 277.34L372.73 275.3L371.08 273.31L369.36 271.39L367.58 269.56L365.72 267.77L363.79 266.06L361.81 264.43L359.74 262.87L357.63 261.38L355.45 259.99L353.23 258.67L350.95 257.43L348.61 256.28L346.22 255.23L343.79 254.26L341.3 253.37L338.78 252.6L336.22 251.91L333.61 251.34L330.97 250.84L328.28 250.47L325.58 250.19L322.84 250.02L320.07 249.97L317.3 250.02L314.56 250.19Z" id="a3ER1P6TQB"></path><path d="M326.67 236.97L329.9 237.3L333.12 237.76L336.27 238.33L339.39 239.02L342.47 239.85L345.49 240.78L348.46 241.83L351.36 243L354.22 244.26L357.02 245.64L359.76 247.12L362.43 248.69L365.02 250.37L367.56 252.14L370.02 254.01L372.4 255.96L374.71 258.02L376.93 260.13L379.06 262.35L381.12 264.65L383.09 267.01L384.97 269.46L386.75 271.99L388.43 274.56L390.02 277.22L391.5 279.95L392.89 282.74L394.16 285.58L395.33 288.47L396.38 291.42L397.32 294.44L398.15 297.49L398.84 300.6L399.43 303.73L399.88 306.93L400.21 310.15L400.41 313.42L400.47 316.72L400.41 320.01L400.21 323.28L399.86 326.5L399.42 329.68L398.82 332.83L398.11 335.94L397.29 338.99L396.35 341.99L395.29 344.95L394.14 347.84L392.85 350.68L391.47 353.47L389.98 356.18L388.4 358.84L386.72 361.43L384.93 363.94L383.05 366.39L381.09 368.75L379.04 371.05L376.9 373.26L374.67 375.4L372.36 377.43L369.99 379.39L367.53 381.26L365.01 383.03L362.4 384.71L359.73 386.28L357.01 387.76L354.2 389.14L351.35 390.42L348.44 391.57L345.47 392.62L342.46 393.55L339.39 394.39L336.27 395.08L333.1 395.67L329.9 396.13L326.67 396.46L323.39 396.66L320.07 396.72L316.75 396.66L313.47 396.46L310.24 396.13L307.02 395.69L303.87 395.1L300.75 394.41L297.67 393.59L294.65 392.65L291.68 391.6L288.78 390.43L285.91 389.17L283.12 387.79L280.38 386.31L277.71 384.74L275.12 383.06L272.58 381.29L270.12 379.42L267.74 377.47L265.43 375.43L263.21 373.3L261.08 371.08L259.02 368.78L257.05 366.42L255.17 363.97L253.39 361.45L251.71 358.87L250.12 356.21L248.64 353.48L247.25 350.71L245.98 347.85L244.81 344.97L243.76 342.01L242.82 339.01L241.99 335.94L241.3 332.83L240.7 329.7L240.26 326.5L239.93 323.28L239.73 320.01L239.67 316.72L239.73 313.42L239.93 310.15L240.26 306.93L240.7 303.73L241.3 300.6L241.99 297.49L242.82 294.44L243.76 291.42L244.81 288.47L245.98 285.58L247.25 282.74L248.64 279.95L250.12 277.22L251.71 274.56L253.39 271.99L255.17 269.46L257.05 267.01L259.02 264.65L261.08 262.35L263.21 260.13L265.43 258.02L267.74 255.96L270.12 254.01L272.58 252.14L275.12 250.37L277.71 248.69L280.38 247.12L283.12 245.64L285.91 244.26L288.78 243L291.68 241.83L294.65 240.78L297.67 239.85L300.75 239.02L303.87 238.33L307.02 237.76L310.24 237.3L313.47 236.97L316.75 236.78L320.07 236.71L323.39 236.78L326.67 236.97ZM314.56 250.19L311.85 250.47L309.17 250.84L306.53 251.34L303.92 251.91L301.36 252.6L298.84 253.37L296.35 254.26L293.92 255.23L291.53 256.28L289.19 257.43L286.91 258.67L284.68 259.99L282.51 261.38L280.4 262.87L278.33 264.43L276.34 266.06L274.42 267.77L272.56 269.56L270.78 271.39L269.06 273.31L267.41 275.3L265.85 277.34L264.36 279.44L262.94 281.6L261.62 283.82L260.39 286.1L259.23 288.43L258.16 290.8L257.18 293.23L256.31 295.69L255.52 298.2L254.84 300.76L254.25 303.35L253.77 305.98L253.37 308.64L253.11 311.33L252.95 314.07L252.88 316.83L252.95 319.57L253.11 322.31L253.37 325L253.77 327.66L254.25 330.29L254.84 332.88L255.52 335.44L256.31 337.96L257.18 340.42L258.16 342.85L259.23 345.23L260.39 347.54L261.62 349.82L262.94 352.04L264.36 354.21L265.85 356.31L267.41 358.34L269.06 360.33L270.78 362.25L272.56 364.09L274.42 365.88L276.34 367.58L278.33 369.21L280.4 370.77L282.51 372.26L284.68 373.66L286.91 374.97L289.19 376.22L291.53 377.37L293.92 378.42L296.35 379.39L298.84 380.27L301.36 381.04L303.92 381.73L306.53 382.32L309.17 382.8L311.85 383.18L314.56 383.46L317.3 383.62L320.07 383.67L322.84 383.62L325.58 383.46L328.28 383.18L330.97 382.8L333.61 382.32L336.22 381.73L338.78 381.04L341.3 380.27L343.79 379.39L346.22 378.42L348.61 377.37L350.95 376.22L353.23 374.97L355.45 373.66L357.63 372.26L359.74 370.77L361.81 369.21L363.79 367.58L365.72 365.88L367.58 364.09L369.36 362.25L371.08 360.33L372.73 358.34L374.29 356.31L375.78 354.21L377.2 352.04L378.52 349.82L379.75 347.54L380.91 345.23L381.98 342.85L382.95 340.42L383.83 337.96L384.62 335.44L385.3 332.88L385.89 330.29L386.37 327.66L386.77 325L387.03 322.31L387.19 319.57L387.26 316.83L387.19 314.07L387.03 311.33L386.77 308.64L386.37 305.98L385.89 303.35L385.3 300.76L384.62 298.2L383.83 295.69L382.95 293.23L381.98 290.8L380.91 288.43L379.75 286.1L378.52 283.82L377.2 281.6L375.78 279.44L374.29 277.34L372.73 275.3L371.08 273.31L369.36 271.39L367.58 269.56L365.72 267.77L363.79 266.06L361.81 264.43L359.74 262.87L357.63 261.38L355.45 259.99L353.23 258.67L350.95 257.43L348.61 256.28L346.22 255.23L343.79 254.26L341.3 253.37L338.78 252.6L336.22 251.91L333.61 251.34L330.97 250.84L328.28 250.47L325.58 250.19L322.84 250.02L320.07 249.97L317.3 250.02L314.56 250.19Z" id="d1HsO4geZs"></path><path d="M329.32 204.93L333.86 205.39L338.36 206.01L342.8 206.84L347.17 207.8L351.48 208.95L355.72 210.27L359.88 211.74L363.97 213.37L367.98 215.14L371.89 217.06L375.73 219.15L379.47 221.35L383.12 223.71L386.67 226.19L390.11 228.8L393.46 231.54L396.7 234.41L399.81 237.4L402.82 240.5L405.7 243.72L408.46 247.03L411.1 250.47L413.59 253.99L415.96 257.62L418.19 261.35L420.27 265.16L422.22 269.06L424 273.05L425.63 277.12L427.12 281.26L428.44 285.48L429.59 289.76L430.58 294.11L431.41 298.51L432.05 302.99L432.51 307.51L432.81 312.09L432.91 316.72L432.81 321.34L432.51 325.92L432.05 330.45L431.41 334.92L430.6 339.33L429.61 343.7L428.45 347.99L427.12 352.2L425.65 356.34L424.01 360.41L422.22 364.4L420.29 368.31L418.19 372.13L415.96 375.86L413.61 379.49L411.1 383.01L408.47 386.46L405.72 389.78L402.83 393.01L399.83 396.11L396.71 399.1L393.48 401.97L390.13 404.71L386.68 407.34L383.14 409.84L379.49 412.18L375.75 414.4L371.9 416.48L367.98 418.42L363.98 420.21L359.89 421.84L355.72 423.31L351.48 424.63L347.17 425.79L342.8 426.78L338.36 427.6L333.88 428.24L329.32 428.7L324.72 428.99L320.07 429.09L315.42 428.99L310.82 428.71L306.26 428.25L301.77 427.63L297.34 426.81L292.95 425.82L288.64 424.67L284.4 423.36L280.25 421.9L276.16 420.28L272.15 418.49L268.22 416.57L264.38 414.48L260.63 412.27L256.99 409.92L253.44 407.42L249.99 404.81L246.64 402.07L243.41 399.2L240.29 396.21L237.29 393.11L234.4 389.89L231.65 386.56L229.01 383.13L226.5 379.6L224.14 375.96L221.92 372.23L219.84 368.42L217.89 364.51L216.11 360.53L214.48 356.46L212.99 352.3L211.67 348.08L210.52 343.8L209.53 339.45L208.72 335.03L208.07 330.55L207.61 326.02L207.33 321.44L207.23 316.83L207.33 312.2L207.61 307.62L208.07 303.09L208.72 298.61L209.53 294.19L210.52 289.84L211.67 285.56L212.99 281.34L214.48 277.19L216.11 273.12L217.89 269.13L219.84 265.22L221.92 261.41L224.14 257.69L226.5 254.04L229.01 250.51L231.65 247.08L234.4 243.75L237.29 240.53L240.29 237.43L243.41 234.44L246.64 231.57L249.99 228.83L253.44 226.22L256.99 223.73L260.63 221.38L264.38 219.16L268.22 217.08L272.15 215.16L276.16 213.37L280.25 211.74L284.4 210.28L288.64 208.97L292.95 207.82L297.34 206.84L301.77 206.01L306.26 205.39L310.82 204.93L315.42 204.65L320.07 204.55L324.72 204.65L329.32 204.93ZM311.9 217.85L307.88 218.26L303.92 218.82L299.99 219.54L296.13 220.43L292.32 221.44L288.59 222.61L284.92 223.91L281.3 225.35L277.76 226.93L274.29 228.63L270.91 230.47L267.59 232.43L264.38 234.51L261.24 236.71L258.19 239.02L255.25 241.44L252.38 243.98L249.63 246.62L246.99 249.37L244.43 252.21L242.01 255.14L239.68 258.18L237.47 261.3L235.39 264.5L233.41 267.8L231.58 271.16L229.87 274.61L228.28 278.14L226.85 281.74L225.54 285.4L224.37 289.11L223.35 292.9L222.49 296.74L221.77 300.65L221.21 304.58L220.79 308.59L220.55 312.63L220.46 316.72L220.55 320.8L220.79 324.84L221.21 328.85L221.77 332.79L222.49 336.69L223.35 340.53L224.37 344.32L225.54 348.05L226.85 351.7L228.28 355.29L229.87 358.82L231.58 362.27L233.41 365.63L235.39 368.93L237.47 372.13L239.68 375.25L242.01 378.29L244.43 381.23L246.99 384.06L249.63 386.81L252.38 389.43L255.25 391.98L258.19 394.39L261.24 396.7L264.38 398.9L267.59 400.97L270.91 402.94L274.29 404.76L277.76 406.47L281.3 408.05L284.92 409.47L288.59 410.77L292.32 411.94L296.13 412.95L299.99 413.81L303.92 414.53L307.88 415.09L311.9 415.5L315.96 415.75L320.07 415.83L324.18 415.75L328.24 415.5L332.26 415.09L336.22 414.53L340.15 413.81L344.01 412.95L347.82 411.94L351.55 410.77L355.22 409.47L358.84 408.05L362.38 406.47L365.85 404.76L369.23 402.94L372.55 400.97L375.76 398.9L378.9 396.7L381.95 394.39L384.88 391.98L387.74 389.43L390.49 386.81L393.15 384.06L395.71 381.23L398.13 378.29L400.46 375.25L402.67 372.13L404.75 368.93L406.71 365.63L408.56 362.27L410.27 358.82L411.84 355.29L413.29 351.7L414.59 348.05L415.77 344.32L416.77 340.53L417.65 336.69L418.37 332.79L418.93 328.85L419.35 324.84L419.59 320.8L419.68 316.72L419.59 312.63L419.35 308.59L418.93 304.58L418.37 300.63L417.65 296.74L416.79 292.9L415.77 289.11L414.59 285.38L413.29 281.72L411.86 278.12L410.27 274.6L408.56 271.15L406.73 267.78L404.76 264.48L402.67 261.28L400.46 258.15L398.13 255.13L395.71 252.19L393.17 249.33L390.51 246.59L387.76 243.95L384.9 241.42L381.95 238.99L378.9 236.68L375.76 234.48L372.55 232.39L369.25 230.44L365.85 228.6L362.38 226.89L358.85 225.32L355.24 223.89L351.56 222.58L347.82 221.43L344.01 220.41L340.15 219.54L336.24 218.82L332.26 218.24L328.24 217.83L324.18 217.59L320.07 217.5L315.96 217.59L311.9 217.85Z" id="huaWloStx"></path><path d="M329.32 204.93L333.86 205.39L338.36 206.01L342.8 206.84L347.17 207.8L351.48 208.95L355.72 210.27L359.88 211.74L363.97 213.37L367.98 215.14L371.89 217.06L375.73 219.15L379.47 221.35L383.12 223.71L386.67 226.19L390.11 228.8L393.46 231.54L396.7 234.41L399.81 237.4L402.82 240.5L405.7 243.72L408.46 247.03L411.1 250.47L413.59 253.99L415.96 257.62L418.19 261.35L420.27 265.16L422.22 269.06L424 273.05L425.63 277.12L427.12 281.26L428.44 285.48L429.59 289.76L430.58 294.11L431.41 298.51L432.05 302.99L432.51 307.51L432.81 312.09L432.91 316.72L432.81 321.34L432.51 325.92L432.05 330.45L431.41 334.92L430.6 339.33L429.61 343.7L428.45 347.99L427.12 352.2L425.65 356.34L424.01 360.41L422.22 364.4L420.29 368.31L418.19 372.13L415.96 375.86L413.61 379.49L411.1 383.01L408.47 386.46L405.72 389.78L402.83 393.01L399.83 396.11L396.71 399.1L393.48 401.97L390.13 404.71L386.68 407.34L383.14 409.84L379.49 412.18L375.75 414.4L371.9 416.48L367.98 418.42L363.98 420.21L359.89 421.84L355.72 423.31L351.48 424.63L347.17 425.79L342.8 426.78L338.36 427.6L333.88 428.24L329.32 428.7L324.72 428.99L320.07 429.09L315.42 428.99L310.82 428.71L306.26 428.25L301.77 427.63L297.34 426.81L292.95 425.82L288.64 424.67L284.4 423.36L280.25 421.9L276.16 420.28L272.15 418.49L268.22 416.57L264.38 414.48L260.63 412.27L256.99 409.92L253.44 407.42L249.99 404.81L246.64 402.07L243.41 399.2L240.29 396.21L237.29 393.11L234.4 389.89L231.65 386.56L229.01 383.13L226.5 379.6L224.14 375.96L221.92 372.23L219.84 368.42L217.89 364.51L216.11 360.53L214.48 356.46L212.99 352.3L211.67 348.08L210.52 343.8L209.53 339.45L208.72 335.03L208.07 330.55L207.61 326.02L207.33 321.44L207.23 316.83L207.33 312.2L207.61 307.62L208.07 303.09L208.72 298.61L209.53 294.19L210.52 289.84L211.67 285.56L212.99 281.34L214.48 277.19L216.11 273.12L217.89 269.13L219.84 265.22L221.92 261.41L224.14 257.69L226.5 254.04L229.01 250.51L231.65 247.08L234.4 243.75L237.29 240.53L240.29 237.43L243.41 234.44L246.64 231.57L249.99 228.83L253.44 226.22L256.99 223.73L260.63 221.38L264.38 219.16L268.22 217.08L272.15 215.16L276.16 213.37L280.25 211.74L284.4 210.28L288.64 208.97L292.95 207.82L297.34 206.84L301.77 206.01L306.26 205.39L310.82 204.93L315.42 204.65L320.07 204.55L324.72 204.65L329.32 204.93ZM311.9 217.85L307.88 218.26L303.92 218.82L299.99 219.54L296.13 220.43L292.32 221.44L288.59 222.61L284.92 223.91L281.3 225.35L277.76 226.93L274.29 228.63L270.91 230.47L267.59 232.43L264.38 234.51L261.24 236.71L258.19 239.02L255.25 241.44L252.38 243.98L249.63 246.62L246.99 249.37L244.43 252.21L242.01 255.14L239.68 258.18L237.47 261.3L235.39 264.5L233.41 267.8L231.58 271.16L229.87 274.61L228.28 278.14L226.85 281.74L225.54 285.4L224.37 289.11L223.35 292.9L222.49 296.74L221.77 300.65L221.21 304.58L220.79 308.59L220.55 312.63L220.46 316.72L220.55 320.8L220.79 324.84L221.21 328.85L221.77 332.79L222.49 336.69L223.35 340.53L224.37 344.32L225.54 348.05L226.85 351.7L228.28 355.29L229.87 358.82L231.58 362.27L233.41 365.63L235.39 368.93L237.47 372.13L239.68 375.25L242.01 378.29L244.43 381.23L246.99 384.06L249.63 386.81L252.38 389.43L255.25 391.98L258.19 394.39L261.24 396.7L264.38 398.9L267.59 400.97L270.91 402.94L274.29 404.76L277.76 406.47L281.3 408.05L284.92 409.47L288.59 410.77L292.32 411.94L296.13 412.95L299.99 413.81L303.92 414.53L307.88 415.09L311.9 415.5L315.96 415.75L320.07 415.83L324.18 415.75L328.24 415.5L332.26 415.09L336.22 414.53L340.15 413.81L344.01 412.95L347.82 411.94L351.55 410.77L355.22 409.47L358.84 408.05L362.38 406.47L365.85 404.76L369.23 402.94L372.55 400.97L375.76 398.9L378.9 396.7L381.95 394.39L384.88 391.98L387.74 389.43L390.49 386.81L393.15 384.06L395.71 381.23L398.13 378.29L400.46 375.25L402.67 372.13L404.75 368.93L406.71 365.63L408.56 362.27L410.27 358.82L411.84 355.29L413.29 351.7L414.59 348.05L415.77 344.32L416.77 340.53L417.65 336.69L418.37 332.79L418.93 328.85L419.35 324.84L419.59 320.8L419.68 316.72L419.59 312.63L419.35 308.59L418.93 304.58L418.37 300.63L417.65 296.74L416.79 292.9L415.77 289.11L414.59 285.38L413.29 281.72L411.86 278.12L410.27 274.6L408.56 271.15L406.73 267.78L404.76 264.48L402.67 261.28L400.46 258.15L398.13 255.13L395.71 252.19L393.17 249.33L390.51 246.59L387.76 243.95L384.9 241.42L381.95 238.99L378.9 236.68L375.76 234.48L372.55 232.39L369.25 230.44L365.85 228.6L362.38 226.89L358.85 225.32L355.24 223.89L351.56 222.58L347.82 221.43L344.01 220.41L340.15 219.54L336.24 218.82L332.26 218.24L328.24 217.83L324.18 217.59L320.07 217.5L315.96 217.59L311.9 217.85Z" id="bgXHadf3D"></path><path d="M331.78 175.2L337.54 175.78L343.21 176.6L348.84 177.62L354.37 178.86L359.83 180.31L365.19 181.97L370.45 183.84L375.63 185.89L380.69 188.14L385.66 190.58L390.51 193.19L395.26 196L399.88 198.97L404.37 202.12L408.74 205.44L412.96 208.9L417.05 212.53L421.01 216.31L424.81 220.25L428.45 224.32L431.95 228.52L435.28 232.85L438.45 237.32L441.43 241.91L444.26 246.62L446.9 251.47L449.35 256.39L451.61 261.45L453.69 266.58L455.56 271.84L457.24 277.17L458.69 282.59L459.94 288.1L460.98 293.69L461.79 299.35L462.39 305.08L462.75 310.86L462.86 316.72L462.75 322.58L462.39 328.37L461.79 334.1L460.98 339.76L459.94 345.34L458.69 350.86L457.24 356.29L455.56 361.63L453.69 366.88L451.61 372.02L449.35 377.07L446.9 382.01L444.26 386.84L441.45 391.57L438.45 396.16L435.28 400.63L431.95 404.98L428.47 409.2L424.82 413.27L421.01 417.19L417.07 420.98L412.98 424.61L408.76 428.09L404.38 431.4L399.9 434.56L395.28 437.54L390.53 440.35L385.68 442.98L380.71 445.42L375.65 447.67L370.47 449.74L365.19 451.61L359.83 453.27L354.38 454.73L348.84 455.98L343.23 457.01L337.54 457.83L331.78 458.42L325.96 458.78L320.07 458.92L314.18 458.78L308.36 458.44L302.6 457.87L296.91 457.04L291.28 456.03L285.76 454.78L280.3 453.34L274.93 451.66L269.66 449.81L264.49 447.74L259.41 445.49L254.45 443.06L249.6 440.43L244.85 437.63L240.23 434.64L235.74 431.5L231.37 428.19L227.14 424.71L223.05 421.08L219.09 417.29L215.3 413.37L211.65 409.29L208.16 405.08L204.82 400.74L201.66 396.26L198.67 391.66L195.85 386.95L193.21 382.13L190.75 377.17L188.49 372.13L186.43 366.98L184.55 361.74L182.88 356.39L181.42 350.97L180.18 345.46L179.14 339.88L178.33 334.21L177.75 328.47L177.39 322.67L177.28 316.83L177.39 310.97L177.75 305.18L178.33 299.43L179.14 293.77L180.18 288.19L181.42 282.67L182.88 277.25L184.55 271.92L186.43 266.67L188.49 261.51L190.75 256.47L193.21 251.53L195.85 246.69L198.67 241.98L201.66 237.38L204.82 232.9L208.16 228.57L211.65 224.35L215.3 220.28L219.09 216.36L223.05 212.56L227.14 208.94L231.37 205.46L235.74 202.14L240.23 199.01L244.85 196.02L249.6 193.21L254.45 190.6L259.41 188.16L264.49 185.91L269.66 183.84L274.93 181.98L280.3 180.33L285.76 178.86L291.28 177.62L296.91 176.6L302.6 175.79L308.36 175.2L314.18 174.86L320.07 174.73L325.96 174.86L331.78 175.2ZM309.45 188.22L304.22 188.75L299.05 189.47L293.96 190.4L288.92 191.54L283.98 192.85L279.11 194.36L274.32 196.05L269.64 197.92L265.04 199.96L260.52 202.17L256.11 204.55L251.82 207.1L247.62 209.81L243.54 212.66L239.58 215.67L235.74 218.82L232.03 222.12L228.45 225.55L225 229.11L221.68 232.8L218.52 236.63L215.5 240.57L212.63 244.64L209.91 248.81L207.35 253.08L204.96 257.46L202.73 261.96L200.68 266.54L198.8 271.2L197.1 275.96L195.59 280.82L194.27 285.74L193.13 290.73L192.19 295.8L191.46 300.94L190.92 306.14L190.6 311.4L190.49 316.72L190.6 322.03L190.92 327.29L191.46 332.49L192.19 337.63L193.13 342.7L194.27 347.71L195.59 352.63L197.1 357.47L198.8 362.23L200.68 366.9L202.73 371.47L204.96 375.97L207.35 380.36L209.91 384.62L212.63 388.81L215.5 392.86L218.52 396.8L221.68 400.63L225 404.32L228.45 407.88L232.03 411.31L235.74 414.61L239.58 417.76L243.54 420.77L247.62 423.62L251.82 426.33L256.11 428.88L260.52 431.26L265.04 433.47L269.64 435.51L274.32 437.38L279.11 439.07L283.98 440.58L288.92 441.89L293.96 443.03L299.05 443.96L304.22 444.68L309.45 445.23L314.72 445.54L320.07 445.65L325.41 445.54L330.69 445.23L335.92 444.68L341.09 443.96L346.18 443.03L351.22 441.89L356.15 440.58L361.03 439.07L365.81 437.38L370.5 435.51L375.1 433.47L379.62 431.26L384.03 428.88L388.32 426.33L392.52 423.62L396.6 420.77L400.56 417.76L404.4 414.61L408.11 411.31L411.69 407.88L415.14 404.32L418.46 400.63L421.62 396.8L424.64 392.86L427.51 388.81L430.23 384.62L432.79 380.36L435.18 375.97L437.41 371.47L439.46 366.9L441.34 362.23L443.04 357.47L444.55 352.63L445.87 347.71L447.01 342.7L447.95 337.63L448.68 332.49L449.2 327.29L449.53 322.03L449.65 316.72L449.53 311.4L449.2 306.14L448.68 300.94L447.93 295.8L446.99 290.75L445.86 285.74L444.52 280.82L443.02 275.97L441.32 271.21L439.44 266.55L437.38 261.97L435.15 257.49L432.76 253.11L430.2 248.82L427.48 244.65L424.61 240.6L421.59 236.66L418.42 232.84L415.11 229.14L411.66 225.58L408.08 222.15L404.37 218.85L400.52 215.7L396.56 212.7L392.49 209.84L388.3 207.13L383.99 204.59L379.59 202.21L375.09 199.99L370.48 197.94L365.8 196.08L361.01 194.38L356.15 192.88L351.2 191.55L346.17 190.42L341.09 189.48L335.92 188.75L330.69 188.22L325.41 187.89L320.07 187.79L314.72 187.89L309.45 188.22Z" id="a62WrijPx"></path><path d="M331.78 175.2L337.54 175.78L343.21 176.6L348.84 177.62L354.37 178.86L359.83 180.31L365.19 181.97L370.45 183.84L375.63 185.89L380.69 188.14L385.66 190.58L390.51 193.19L395.26 196L399.88 198.97L404.37 202.12L408.74 205.44L412.96 208.9L417.05 212.53L421.01 216.31L424.81 220.25L428.45 224.32L431.95 228.52L435.28 232.85L438.45 237.32L441.43 241.91L444.26 246.62L446.9 251.47L449.35 256.39L451.61 261.45L453.69 266.58L455.56 271.84L457.24 277.17L458.69 282.59L459.94 288.1L460.98 293.69L461.79 299.35L462.39 305.08L462.75 310.86L462.86 316.72L462.75 322.58L462.39 328.37L461.79 334.1L460.98 339.76L459.94 345.34L458.69 350.86L457.24 356.29L455.56 361.63L453.69 366.88L451.61 372.02L449.35 377.07L446.9 382.01L444.26 386.84L441.45 391.57L438.45 396.16L435.28 400.63L431.95 404.98L428.47 409.2L424.82 413.27L421.01 417.19L417.07 420.98L412.98 424.61L408.76 428.09L404.38 431.4L399.9 434.56L395.28 437.54L390.53 440.35L385.68 442.98L380.71 445.42L375.65 447.67L370.47 449.74L365.19 451.61L359.83 453.27L354.38 454.73L348.84 455.98L343.23 457.01L337.54 457.83L331.78 458.42L325.96 458.78L320.07 458.92L314.18 458.78L308.36 458.44L302.6 457.87L296.91 457.04L291.28 456.03L285.76 454.78L280.3 453.34L274.93 451.66L269.66 449.81L264.49 447.74L259.41 445.49L254.45 443.06L249.6 440.43L244.85 437.63L240.23 434.64L235.74 431.5L231.37 428.19L227.14 424.71L223.05 421.08L219.09 417.29L215.3 413.37L211.65 409.29L208.16 405.08L204.82 400.74L201.66 396.26L198.67 391.66L195.85 386.95L193.21 382.13L190.75 377.17L188.49 372.13L186.43 366.98L184.55 361.74L182.88 356.39L181.42 350.97L180.18 345.46L179.14 339.88L178.33 334.21L177.75 328.47L177.39 322.67L177.28 316.83L177.39 310.97L177.75 305.18L178.33 299.43L179.14 293.77L180.18 288.19L181.42 282.67L182.88 277.25L184.55 271.92L186.43 266.67L188.49 261.51L190.75 256.47L193.21 251.53L195.85 246.69L198.67 241.98L201.66 237.38L204.82 232.9L208.16 228.57L211.65 224.35L215.3 220.28L219.09 216.36L223.05 212.56L227.14 208.94L231.37 205.46L235.74 202.14L240.23 199.01L244.85 196.02L249.6 193.21L254.45 190.6L259.41 188.16L264.49 185.91L269.66 183.84L274.93 181.98L280.3 180.33L285.76 178.86L291.28 177.62L296.91 176.6L302.6 175.79L308.36 175.2L314.18 174.86L320.07 174.73L325.96 174.86L331.78 175.2ZM309.45 188.22L304.22 188.75L299.05 189.47L293.96 190.4L288.92 191.54L283.98 192.85L279.11 194.36L274.32 196.05L269.64 197.92L265.04 199.96L260.52 202.17L256.11 204.55L251.82 207.1L247.62 209.81L243.54 212.66L239.58 215.67L235.74 218.82L232.03 222.12L228.45 225.55L225 229.11L221.68 232.8L218.52 236.63L215.5 240.57L212.63 244.64L209.91 248.81L207.35 253.08L204.96 257.46L202.73 261.96L200.68 266.54L198.8 271.2L197.1 275.96L195.59 280.82L194.27 285.74L193.13 290.73L192.19 295.8L191.46 300.94L190.92 306.14L190.6 311.4L190.49 316.72L190.6 322.03L190.92 327.29L191.46 332.49L192.19 337.63L193.13 342.7L194.27 347.71L195.59 352.63L197.1 357.47L198.8 362.23L200.68 366.9L202.73 371.47L204.96 375.97L207.35 380.36L209.91 384.62L212.63 388.81L215.5 392.86L218.52 396.8L221.68 400.63L225 404.32L228.45 407.88L232.03 411.31L235.74 414.61L239.58 417.76L243.54 420.77L247.62 423.62L251.82 426.33L256.11 428.88L260.52 431.26L265.04 433.47L269.64 435.51L274.32 437.38L279.11 439.07L283.98 440.58L288.92 441.89L293.96 443.03L299.05 443.96L304.22 444.68L309.45 445.23L314.72 445.54L320.07 445.65L325.41 445.54L330.69 445.23L335.92 444.68L341.09 443.96L346.18 443.03L351.22 441.89L356.15 440.58L361.03 439.07L365.81 437.38L370.5 435.51L375.1 433.47L379.62 431.26L384.03 428.88L388.32 426.33L392.52 423.62L396.6 420.77L400.56 417.76L404.4 414.61L408.11 411.31L411.69 407.88L415.14 404.32L418.46 400.63L421.62 396.8L424.64 392.86L427.51 388.81L430.23 384.62L432.79 380.36L435.18 375.97L437.41 371.47L439.46 366.9L441.34 362.23L443.04 357.47L444.55 352.63L445.87 347.71L447.01 342.7L447.95 337.63L448.68 332.49L449.2 327.29L449.53 322.03L449.65 316.72L449.53 311.4L449.2 306.14L448.68 300.94L447.93 295.8L446.99 290.75L445.86 285.74L444.52 280.82L443.02 275.97L441.32 271.21L439.44 266.55L437.38 261.97L435.15 257.49L432.76 253.11L430.2 248.82L427.48 244.65L424.61 240.6L421.59 236.66L418.42 232.84L415.11 229.14L411.66 225.58L408.08 222.15L404.37 218.85L400.52 215.7L396.56 212.7L392.49 209.84L388.3 207.13L383.99 204.59L379.59 202.21L375.09 199.99L370.48 197.94L365.8 196.08L361.01 194.38L356.15 192.88L351.2 191.55L346.17 190.42L341.09 189.48L335.92 188.75L330.69 188.22L325.41 187.89L320.07 187.79L314.72 187.89L309.45 188.22Z" id="cgpUS8NCg"></path><path d="M334.12 146.86L341.04 147.56L347.85 148.53L354.6 149.76L361.23 151.25L367.78 152.99L374.21 154.98L380.55 157.21L386.75 159.69L392.84 162.38L398.79 165.31L404.63 168.46L410.31 171.82L415.85 175.4L421.24 179.18L426.49 183.15L431.57 187.32L436.47 191.67L441.22 196.2L445.77 200.91L450.16 205.8L454.35 210.86L458.34 216.06L462.14 221.43L465.73 226.94L469.12 232.59L472.28 238.38L475.24 244.33L477.94 250.37L480.43 256.56L482.68 262.84L484.69 269.24L486.44 275.76L487.94 282.36L489.19 289.07L490.17 295.87L490.88 302.73L491.3 309.69L491.45 316.72L491.3 323.74L490.88 330.7L490.17 337.58L489.19 344.37L487.96 351.09L486.45 357.69L484.69 364.2L482.69 370.62L480.43 376.91L477.96 383.1L475.24 389.15L472.28 395.08L469.13 400.87L465.75 406.54L462.15 412.05L458.36 417.44L454.35 422.64L450.16 427.7L445.79 432.59L441.22 437.3L436.49 441.84L431.57 446.21L426.51 450.38L421.26 454.35L415.87 458.14L410.32 461.72L404.63 465.09L398.81 468.24L392.85 471.18L386.77 473.89L380.56 476.36L374.23 478.6L367.79 480.6L361.25 482.36L354.6 483.85L347.87 485.08L341.04 486.07L334.12 486.77L327.13 487.2L320.07 487.35L313.01 487.22L306.01 486.79L299.1 486.08L292.27 485.11L285.53 483.88L278.88 482.39L272.35 480.65L265.89 478.66L259.58 476.41L253.36 473.95L247.27 471.24L241.31 468.32L235.49 465.17L229.8 461.81L224.26 458.23L218.86 454.45L213.62 450.48L208.54 446.29L203.62 441.94L198.89 437.4L194.33 432.69L189.94 427.79L185.75 422.75L181.76 417.53L177.97 412.17L174.37 406.65L170.99 400.99L167.82 395.19L164.87 389.25L162.16 383.19L159.67 377.02L157.43 370.72L155.43 364.32L153.67 357.8L152.17 351.19L150.93 344.49L149.96 337.69L149.26 330.82L148.84 323.86L148.69 316.83L148.84 309.79L149.26 302.83L149.96 295.95L150.93 289.15L152.17 282.46L153.67 275.84L155.43 269.33L157.43 262.92L159.67 256.62L162.16 250.45L164.87 244.39L167.82 238.45L170.99 232.66L174.37 226.99L177.97 221.48L181.76 216.11L185.75 210.91L189.94 205.85L194.33 200.96L198.89 196.25L203.62 191.7L208.54 187.35L213.62 183.18L218.86 179.19L224.26 175.42L229.8 171.84L235.49 168.47L241.31 165.32L247.27 162.4L253.36 159.69L259.58 157.23L265.89 154.98L272.35 152.99L278.88 151.25L285.53 149.76L292.27 148.53L299.1 147.56L306.01 146.86L313.01 146.45L320.07 146.3L327.13 146.43L334.12 146.86ZM307.1 159.87L300.72 160.51L294.42 161.4L288.2 162.55L282.06 163.93L276.02 165.54L270.09 167.37L264.25 169.43L258.5 171.71L252.9 174.2L247.39 176.91L242.01 179.82L236.76 182.92L231.65 186.22L226.67 189.71L221.83 193.38L217.15 197.23L212.61 201.25L208.24 205.44L204.03 209.79L199.99 214.3L196.11 218.97L192.44 223.78L188.92 228.73L185.61 233.82L182.49 239.04L179.57 244.39L176.85 249.87L174.34 255.46L172.05 261.17L169.98 266.98L168.14 272.89L166.52 278.9L165.13 285L163.98 291.19L163.09 297.46L162.44 303.81L162.05 310.23L161.92 316.72L162.05 323.2L162.44 329.62L163.09 335.97L163.98 342.24L165.13 348.43L166.52 354.53L168.14 360.54L169.98 366.45L172.05 372.26L174.34 377.98L176.85 383.56L179.57 389.04L182.49 394.39L185.61 399.61L188.92 404.7L192.44 409.66L196.11 414.46L199.99 419.13L204.03 423.64L208.24 427.99L212.61 432.18L217.15 436.2L221.83 440.06L226.67 443.72L231.65 447.21L236.76 450.51L242.01 453.61L247.39 456.52L252.9 459.23L258.5 461.72L264.25 464L270.09 466.06L276.02 467.89L282.06 469.52L288.2 470.88L294.42 472.03L300.72 472.92L307.1 473.56L313.55 473.95L320.07 474.08L326.59 473.95L333.04 473.56L339.42 472.92L345.72 472.03L351.94 470.88L358.08 469.52L364.12 467.89L370.05 466.06L375.89 464L381.63 461.72L387.24 459.23L392.75 456.52L398.13 453.61L403.38 450.51L408.49 447.21L413.47 443.72L418.31 440.06L422.99 436.2L427.53 432.18L431.9 427.99L436.11 423.64L440.15 419.13L444.02 414.46L447.7 409.66L451.22 404.7L454.53 399.61L457.65 394.39L460.57 389.04L463.29 383.56L465.8 377.98L468.09 372.26L470.16 366.45L472 360.54L473.62 354.53L475.01 348.43L476.16 342.24L477.05 335.97L477.69 329.62L478.09 323.2L478.22 316.72L478.09 310.23L477.68 303.81L477.03 297.48L476.13 291.21L474.97 285.02L473.59 278.93L471.97 272.92L470.11 267.01L468.03 261.2L465.73 255.5L463.23 249.91L460.5 244.44L457.59 239.09L454.47 233.87L451.15 228.78L447.64 223.82L443.96 219.01L440.08 214.35L436.04 209.86L431.83 205.51L427.46 201.32L422.94 197.3L418.26 193.44L413.42 189.78L408.44 186.28L403.33 182.98L398.08 179.88L392.7 176.98L387.21 174.27L381.59 171.77L375.86 169.49L370.02 167.42L364.08 165.57L358.04 163.96L351.92 162.58L345.71 161.43L339.4 160.53L333.04 159.89L326.59 159.48L320.07 159.35L313.55 159.48L307.1 159.87Z" id="b7SggvP5u"></path><path d="M334.12 146.86L341.04 147.56L347.85 148.53L354.6 149.76L361.23 151.25L367.78 152.99L374.21 154.98L380.55 157.21L386.75 159.69L392.84 162.38L398.79 165.31L404.63 168.46L410.31 171.82L415.85 175.4L421.24 179.18L426.49 183.15L431.57 187.32L436.47 191.67L441.22 196.2L445.77 200.91L450.16 205.8L454.35 210.86L458.34 216.06L462.14 221.43L465.73 226.94L469.12 232.59L472.28 238.38L475.24 244.33L477.94 250.37L480.43 256.56L482.68 262.84L484.69 269.24L486.44 275.76L487.94 282.36L489.19 289.07L490.17 295.87L490.88 302.73L491.3 309.69L491.45 316.72L491.3 323.74L490.88 330.7L490.17 337.58L489.19 344.37L487.96 351.09L486.45 357.69L484.69 364.2L482.69 370.62L480.43 376.91L477.96 383.1L475.24 389.15L472.28 395.08L469.13 400.87L465.75 406.54L462.15 412.05L458.36 417.44L454.35 422.64L450.16 427.7L445.79 432.59L441.22 437.3L436.49 441.84L431.57 446.21L426.51 450.38L421.26 454.35L415.87 458.14L410.32 461.72L404.63 465.09L398.81 468.24L392.85 471.18L386.77 473.89L380.56 476.36L374.23 478.6L367.79 480.6L361.25 482.36L354.6 483.85L347.87 485.08L341.04 486.07L334.12 486.77L327.13 487.2L320.07 487.35L313.01 487.22L306.01 486.79L299.1 486.08L292.27 485.11L285.53 483.88L278.88 482.39L272.35 480.65L265.89 478.66L259.58 476.41L253.36 473.95L247.27 471.24L241.31 468.32L235.49 465.17L229.8 461.81L224.26 458.23L218.86 454.45L213.62 450.48L208.54 446.29L203.62 441.94L198.89 437.4L194.33 432.69L189.94 427.79L185.75 422.75L181.76 417.53L177.97 412.17L174.37 406.65L170.99 400.99L167.82 395.19L164.87 389.25L162.16 383.19L159.67 377.02L157.43 370.72L155.43 364.32L153.67 357.8L152.17 351.19L150.93 344.49L149.96 337.69L149.26 330.82L148.84 323.86L148.69 316.83L148.84 309.79L149.26 302.83L149.96 295.95L150.93 289.15L152.17 282.46L153.67 275.84L155.43 269.33L157.43 262.92L159.67 256.62L162.16 250.45L164.87 244.39L167.82 238.45L170.99 232.66L174.37 226.99L177.97 221.48L181.76 216.11L185.75 210.91L189.94 205.85L194.33 200.96L198.89 196.25L203.62 191.7L208.54 187.35L213.62 183.18L218.86 179.19L224.26 175.42L229.8 171.84L235.49 168.47L241.31 165.32L247.27 162.4L253.36 159.69L259.58 157.23L265.89 154.98L272.35 152.99L278.88 151.25L285.53 149.76L292.27 148.53L299.1 147.56L306.01 146.86L313.01 146.45L320.07 146.3L327.13 146.43L334.12 146.86ZM307.1 159.87L300.72 160.51L294.42 161.4L288.2 162.55L282.06 163.93L276.02 165.54L270.09 167.37L264.25 169.43L258.5 171.71L252.9 174.2L247.39 176.91L242.01 179.82L236.76 182.92L231.65 186.22L226.67 189.71L221.83 193.38L217.15 197.23L212.61 201.25L208.24 205.44L204.03 209.79L199.99 214.3L196.11 218.97L192.44 223.78L188.92 228.73L185.61 233.82L182.49 239.04L179.57 244.39L176.85 249.87L174.34 255.46L172.05 261.17L169.98 266.98L168.14 272.89L166.52 278.9L165.13 285L163.98 291.19L163.09 297.46L162.44 303.81L162.05 310.23L161.92 316.72L162.05 323.2L162.44 329.62L163.09 335.97L163.98 342.24L165.13 348.43L166.52 354.53L168.14 360.54L169.98 366.45L172.05 372.26L174.34 377.98L176.85 383.56L179.57 389.04L182.49 394.39L185.61 399.61L188.92 404.7L192.44 409.66L196.11 414.46L199.99 419.13L204.03 423.64L208.24 427.99L212.61 432.18L217.15 436.2L221.83 440.06L226.67 443.72L231.65 447.21L236.76 450.51L242.01 453.61L247.39 456.52L252.9 459.23L258.5 461.72L264.25 464L270.09 466.06L276.02 467.89L282.06 469.52L288.2 470.88L294.42 472.03L300.72 472.92L307.1 473.56L313.55 473.95L320.07 474.08L326.59 473.95L333.04 473.56L339.42 472.92L345.72 472.03L351.94 470.88L358.08 469.52L364.12 467.89L370.05 466.06L375.89 464L381.63 461.72L387.24 459.23L392.75 456.52L398.13 453.61L403.38 450.51L408.49 447.21L413.47 443.72L418.31 440.06L422.99 436.2L427.53 432.18L431.9 427.99L436.11 423.64L440.15 419.13L444.02 414.46L447.7 409.66L451.22 404.7L454.53 399.61L457.65 394.39L460.57 389.04L463.29 383.56L465.8 377.98L468.09 372.26L470.16 366.45L472 360.54L473.62 354.53L475.01 348.43L476.16 342.24L477.05 335.97L477.69 329.62L478.09 323.2L478.22 316.72L478.09 310.23L477.68 303.81L477.03 297.48L476.13 291.21L474.97 285.02L473.59 278.93L471.97 272.92L470.11 267.01L468.03 261.2L465.73 255.5L463.23 249.91L460.5 244.44L457.59 239.09L454.47 233.87L451.15 228.78L447.64 223.82L443.96 219.01L440.08 214.35L436.04 209.86L431.83 205.51L427.46 201.32L422.94 197.3L418.26 193.44L413.42 189.78L408.44 186.28L403.33 182.98L398.08 179.88L392.7 176.98L387.21 174.27L381.59 171.77L375.86 169.49L370.02 167.42L364.08 165.57L358.04 163.96L351.92 162.58L345.71 161.43L339.4 160.53L333.04 159.89L326.59 159.48L320.07 159.35L313.55 159.48L307.1 159.87Z" id="a2zUDDnfUZ"></path></defs><g><g><g><use xlink:href="#akjiemtkb" opacity="1" fill="#d81f2e" fill-opacity="1"></use><g><use xlink:href="#akjiemtkb" opacity="1" fill-opacity="0" stroke="#000000" stroke-width="1" stroke-opacity="0"></use></g></g><g><use xlink:href="#bFvA8O2n5" opacity="1" fill="#000000" fill-opacity="0"></use><g><use xlink:href="#bFvA8O2n5" opacity="1" fill-opacity="0" stroke="#000000" stroke-width="1" stroke-opacity="0"></use></g></g><g><use xlink:href="#g7XQ94iBRr" opacity="1" fill="#ffffff" fill-opacity="1"></use><g><use xlink:href="#g7XQ94iBRr" opacity="1" fill-opacity="0" stroke="#000000" stroke-width="1" stroke-opacity="0"></use></g></g><g><use xlink:href="#baHjUfAYi" opacity="1" fill="#000000" fill-opacity="0"></use><g><use xlink:href="#baHjUfAYi" opacity="1" fill-opacity="0" stroke="#000000" stroke-width="1" stroke-opacity="0"></use></g></g><g><use xlink:href="#bI0iq8cD" opacity="1" fill="#ffffff" fill-opacity="1"></use><g><use xlink:href="#bI0iq8cD" opacity="1" fill-opacity="0" stroke="#000000" stroke-width="1" stroke-opacity="0"></use></g></g><g><use xlink:href="#h2mHdOecCk" opacity="1" fill="#000000" fill-opacity="0"></use><g><use xlink:href="#h2mHdOecCk" opacity="1" fill-opacity="0" stroke="#000000" stroke-width="1" stroke-opacity="0"></use></g></g><g><use xlink:href="#a3ER1P6TQB" opacity="1" fill="#ffffff" fill-opacity="1"></use><g><use xlink:href="#a3ER1P6TQB" opacity="1" fill-opacity="0" stroke="#000000" stroke-width="1" stroke-opacity="0"></use></g></g><g><use xlink:href="#d1HsO4geZs" opacity="1" fill="#000000" fill-opacity="0"></use><g><use xlink:href="#d1HsO4geZs" opacity="1" fill-opacity="0" stroke="#000000" stroke-width="1" stroke-opacity="0"></use></g></g><g><use xlink:href="#huaWloStx" opacity="1" fill="#ffffff" fill-opacity="1"></use><g><use xlink:href="#huaWloStx" opacity="1" fill-opacity="0" stroke="#000000" stroke-width="1" stroke-opacity="0"></use></g></g><g><use xlink:href="#bgXHadf3D" opacity="1" fill="#000000" fill-opacity="0"></use><g><use xlink:href="#bgXHadf3D" opacity="1" fill-opacity="0" stroke="#000000" stroke-width="1" stroke-opacity="0"></use></g></g><g><use xlink:href="#a62WrijPx" opacity="1" fill="#ffffff" fill-opacity="1"></use><g><use xlink:href="#a62WrijPx" opacity="1" fill-opacity="0" stroke="#000000" stroke-width="1" stroke-opacity="0"></use></g></g><g><use xlink:href="#cgpUS8NCg" opacity="1" fill="#000000" fill-opacity="0"></use><g><use xlink:href="#cgpUS8NCg" opacity="1" fill-opacity="0" stroke="#000000" stroke-width="1" stroke-opacity="0"></use></g></g><g><use xlink:href="#b7SggvP5u" opacity="1" fill="#ffffff" fill-opacity="1"></use><g><use xlink:href="#b7SggvP5u" opacity="1" fill-opacity="0" stroke="#000000" stroke-width="1" stroke-opacity="0"></use></g></g><g><use xlink:href="#a2zUDDnfUZ" opacity="1" fill="#000000" fill-opacity="0"></use><g><use xlink:href="#a2zUDDnfUZ" opacity="1" fill-opacity="0" stroke="#000000" stroke-width="1" stroke-opacity="0"></use></g></g></g></g></svg>