<?xml version="1.0" encoding="UTF-8"?>
<svg width="48px" height="48px" viewBox="0 0 48 48" version="1.1" xmlns="http://www.w3.org/2000/svg" xmlns:xlink="http://www.w3.org/1999/xlink">
    <title>security-services</title>
    <g id="V2-Icons" stroke="none" stroke-width="1" fill="none" fill-rule="evenodd">
        <g id="IBM-/-Cloud-/-Security" transform="translate(-656, -77)">
            <g id="security-services" transform="translate(656, 77)">
                <rect id="Rectangle" fill="#FA4D56" x="0" y="0" width="48" height="48"></rect>
                <path d="M34.5,30 L34.5,28.5 L32.924175,28.5 C32.8274664,28.0305463 32.6410847,27.5841623 32.37525,27.185325 L33.49275,26.067825 L32.43225,25.007325 L31.31475,26.124825 C30.9158958,25.858955 30.4694852,25.6725474 30,25.575825 L30,24 L28.5,24 L28.5,25.575825 C28.0305463,25.6725336 27.5841623,25.8589153 27.185325,26.12475 L26.067825,25.00725 L25.007325,26.06775 L26.124825,27.18525 C25.858955,27.5841042 25.6725474,28.0305148 25.575825,28.5 L24,28.5 L24,30 L25.575825,30 C25.6725336,30.4694537 25.8589153,30.9158377 26.12475,31.314675 L25.00725,32.432175 L26.06775,33.492675 L27.18525,32.375175 C27.5841042,32.641045 28.0305148,32.8274526 28.5,32.924175 L28.5,34.5 L30,34.5 L30,32.924175 C30.4694537,32.8274664 30.9158377,32.6410847 31.314675,32.37525 L32.432175,33.49275 L33.492675,32.43225 L32.375175,31.31475 C32.641045,30.9158958 32.8274526,30.4694852 32.924175,30 L34.5,30 Z M29.25,31.5 C28.0073593,31.5 27,30.4926407 27,29.25 C27,28.0073593 28.0073593,27 29.25,27 C30.4926407,27 31.5,28.0073593 31.5,29.25 C31.498636,30.4920752 30.4920752,31.498636 29.25,31.5 L29.25,31.5 Z" id="Shape" fill="#FFFFFF" fill-rule="nonzero"></path>
                <path d="M22.4999951,32.00025 L20.0742,30.7068 C17.8723804,29.5354958 16.4974272,27.2439841 16.4999951,24.75 L16.4999951,15 L31.4999951,15 L31.4999951,22.5 L32.9999951,22.5 L32.9999951,15 C32.9990494,14.1719669 32.3280331,13.5009506 31.4999951,13.5 L16.4999951,13.5 C15.6719669,13.5009506 15.0009506,14.1719669 14.9999951,15 L14.9999951,24.75 C14.9966903,27.7980902 16.6771011,30.5987749 19.36815,32.03025 L22.4999951,33.7002 L22.4999951,32.00025 Z" id="Path" fill="#FFFFFF" fill-rule="nonzero"></path>
                <rect id="_Transparent_Rectangle_" x="12" y="12" width="24" height="24"></rect>
            </g>
        </g>
    </g>
</svg>