<?xml version="1.0" encoding="UTF-8" standalone="no"?>
<!DOCTYPE svg PUBLIC "-//W3C//DTD SVG 1.1//EN" "http://www.w3.org/Graphics/SVG/1.1/DTD/svg11.dtd">
<svg version="1.1" xmlns="http://www.w3.org/2000/svg" xmlns:xlink="http://www.w3.org/1999/xlink" preserveAspectRatio="xMidYMid meet" viewBox="0 0 640 640" width="640" height="640"><defs><path d="M329 415.5L329 430.57L311.41 430.57L311.41 415.5L329 415.5Z" id="cNVH26rs5"></path><path d="M5.52 320.01C5.52 494.13 146.31 635.28 320.01 635.28C493.69 635.28 634.48 494.13 634.48 320.01C634.48 145.87 493.69 4.72 320.01 4.72C146.31 4.72 5.52 145.87 5.52 320.01Z" id="a30q6RmOYX"></path><path d="M5.52 320.01C5.52 494.13 146.31 635.28 320.01 635.28C493.69 635.28 634.48 494.13 634.48 320.01C634.48 145.87 493.69 4.72 320.01 4.72C146.31 4.72 5.52 145.87 5.52 320.01Z" id="b4s3g77mOE"></path><path d="M329.33 120.79L333.71 121.23L338.03 121.85L342.31 122.64L346.52 123.59L350.66 124.71L354.74 125.98L358.75 127.4L362.68 128.99L366.55 130.71L370.32 132.58L374.01 134.59L377.61 136.74L381.13 139.02L384.56 141.44L387.87 143.97L391.09 146.63L394.2 149.41L397.2 152.31L400.08 155.33L402.86 158.45L405.51 161.67L408.05 165L410.45 168.43L412.74 171.94L414.87 175.57L416.88 179.27L418.75 183.05L420.47 186.91L422.04 190.87L423.47 194.89L424.74 198.97L425.84 203.13L426.8 207.35L427.58 211.63L428.19 215.98L428.65 220.36L428.92 224.81L429 229.28L429 278.76L432.53 282.92L435.88 287.19L439.05 291.54L442.03 295.99L444.84 300.51L447.46 305.12L449.91 309.79L452.16 314.53L454.25 319.33L456.14 324.19L457.86 329.11L459.41 334.06L460.77 339.06L461.93 344.09L462.93 349.15L463.75 354.25L464.38 359.36L464.84 364.48L465.11 369.63L465.2 374.77L465.11 379.91L464.84 385.04L464.38 390.16L463.75 395.27L462.93 400.37L461.93 405.43L460.77 410.46L459.41 415.46L457.86 420.43L456.14 425.34L454.25 430.19L452.16 435L449.91 439.74L447.46 444.42L444.84 449.01L442.03 453.53L439.05 457.98L435.88 462.35L432.53 466.6L429 470.76L424.96 475.18L420.79 479.37L416.48 483.37L412.05 487.17L407.5 490.75L402.83 494.13L398.06 497.31L393.2 500.27L388.25 503.04L383.2 505.59L378.07 507.95L372.88 510.08L367.62 512.01L362.29 513.72L356.92 515.24L351.49 516.54L346.05 517.63L340.54 518.5L335.03 519.16L329.49 519.62L323.94 519.86L318.38 519.89L312.83 519.72L307.27 519.32L301.73 518.7L296.21 517.88L290.72 516.84L285.26 515.59L279.83 514.12L274.46 512.44L269.13 510.54L263.87 508.42L258.66 506.08L253.54 503.53L248.5 500.76L243.53 497.77L238.67 494.56L233.89 491.13L229.22 487.49L224.67 483.63L220.27 479.58L216.09 475.38L212.09 471.06L208.3 466.62L204.72 462.06L201.36 457.39L198.19 452.6L195.22 447.73L192.48 442.76L189.93 437.69L187.58 432.55L185.45 427.35L183.53 422.08L181.82 416.75L180.31 411.35L179.01 405.92L177.92 400.45L177.06 394.94L176.39 389.4L175.94 383.85L175.7 378.28L175.67 372.71L175.84 367.14L176.24 361.57L176.85 356.02L177.67 350.48L178.71 344.98L179.96 339.5L181.43 334.06L183.1 328.68L185 323.35L187.11 318.06L189.45 312.86L191.99 307.71L194.75 302.65L197.73 297.67L200.93 292.79L204.36 288L207.99 283.33L211.84 278.76L211.84 229.28L211.93 224.81L212.2 220.36L212.64 215.98L213.26 211.63L214.05 207.35L215 203.13L216.12 198.97L217.38 194.89L218.8 190.87L220.38 186.91L222.1 183.05L223.96 179.27L225.96 175.57L228.11 171.94L230.38 168.43L232.8 165L235.32 161.67L237.97 158.45L240.75 155.33L243.64 152.31L246.65 149.41L249.76 146.63L252.98 143.97L256.3 141.44L259.72 139.02L263.23 136.74L266.84 134.59L270.53 132.58L274.3 130.71L278.15 128.99L282.1 127.4L286.11 125.98L290.18 124.71L294.33 123.59L298.54 122.64L302.81 121.85L307.15 121.23L311.52 120.79L315.95 120.52L320.42 120.43L324.9 120.52L329.33 120.79ZM251.83 361.56L226.26 387.19L293.27 454.5L414.16 332.87L388.6 307.24L292.86 403.23L251.83 361.56ZM314.55 157.1L311.66 157.45L308.82 157.92L305.99 158.49L303.22 159.17L300.49 159.95L297.8 160.84L295.15 161.82L292.56 162.89L290.02 164.08L287.53 165.33L285.1 166.69L282.72 168.13L280.4 169.66L278.14 171.28L275.95 172.97L273.81 174.73L271.76 176.58L269.77 178.51L267.85 180.5L266 182.56L264.25 184.7L262.56 186.89L260.95 189.16L259.42 191.48L257.99 193.87L256.63 196.31L255.38 198.81L254.2 201.36L253.12 203.95L252.15 206.61L251.26 209.3L250.49 212.04L249.81 214.82L249.24 217.65L248.77 220.5L248.42 223.4L248.17 226.32L248.04 229.28L248.04 248.9L251.42 247L254.83 245.18L258.27 243.48L261.76 241.86L265.26 240.34L268.81 238.92L272.38 237.59L275.98 236.37L279.61 235.25L283.24 234.22L286.9 233.29L290.57 232.45L294.28 231.72L297.99 231.07L301.7 230.53L305.44 230.11L309.18 229.76L312.92 229.5L316.68 229.36L320.42 229.31L324.17 229.36L327.93 229.5L331.67 229.76L335.41 230.11L339.14 230.53L342.86 231.07L346.57 231.72L350.26 232.45L353.94 233.29L357.6 234.22L361.25 235.25L364.88 236.37L368.46 237.59L372.04 238.92L375.58 240.34L379.09 241.86L382.57 243.48L386.02 245.18L389.43 247L392.81 248.9L392.81 229.28L392.68 226.32L392.43 223.4L392.07 220.5L391.61 217.65L391.04 214.82L390.36 212.04L389.57 209.3L388.69 206.61L387.71 203.95L386.64 201.36L385.47 198.81L384.21 196.31L382.87 193.87L381.41 191.48L379.9 189.16L378.29 186.89L376.6 184.7L374.83 182.56L372.99 180.5L371.08 178.51L369.09 176.58L367.02 174.73L364.89 172.97L362.7 171.28L360.44 169.66L358.14 168.13L355.75 166.69L353.32 165.33L350.83 164.08L348.29 162.89L345.68 161.82L343.05 160.84L340.35 159.95L337.62 159.17L334.84 158.49L332.03 157.92L329.18 157.45L326.29 157.1L323.37 156.85L320.42 156.72L317.47 156.85L314.55 157.1Z" id="a2WvLAm7iH"></path><path d="M329.33 120.79L333.71 121.23L338.03 121.85L342.31 122.64L346.52 123.59L350.66 124.71L354.74 125.98L358.75 127.4L362.68 128.99L366.55 130.71L370.32 132.58L374.01 134.59L377.61 136.74L381.13 139.02L384.56 141.44L387.87 143.97L391.09 146.63L394.2 149.41L397.2 152.31L400.08 155.33L402.86 158.45L405.51 161.67L408.05 165L410.45 168.43L412.74 171.94L414.87 175.57L416.88 179.27L418.75 183.05L420.47 186.91L422.04 190.87L423.47 194.89L424.74 198.97L425.84 203.13L426.8 207.35L427.58 211.63L428.19 215.98L428.65 220.36L428.92 224.81L429 229.28L429 278.76L432.53 282.92L435.88 287.19L439.05 291.54L442.03 295.99L444.84 300.51L447.46 305.12L449.91 309.79L452.16 314.53L454.25 319.33L456.14 324.19L457.86 329.11L459.41 334.06L460.77 339.06L461.93 344.09L462.93 349.15L463.75 354.25L464.38 359.36L464.84 364.48L465.11 369.63L465.2 374.77L465.11 379.91L464.84 385.04L464.38 390.16L463.75 395.27L462.93 400.37L461.93 405.43L460.77 410.46L459.41 415.46L457.86 420.43L456.14 425.34L454.25 430.19L452.16 435L449.91 439.74L447.46 444.42L444.84 449.01L442.03 453.53L439.05 457.98L435.88 462.35L432.53 466.6L429 470.76L424.96 475.18L420.79 479.37L416.48 483.37L412.05 487.17L407.5 490.75L402.83 494.13L398.06 497.31L393.2 500.27L388.25 503.04L383.2 505.59L378.07 507.95L372.88 510.08L367.62 512.01L362.29 513.72L356.92 515.24L351.49 516.54L346.05 517.63L340.54 518.5L335.03 519.16L329.49 519.62L323.94 519.86L318.38 519.89L312.83 519.72L307.27 519.32L301.73 518.7L296.21 517.88L290.72 516.84L285.26 515.59L279.83 514.12L274.46 512.44L269.13 510.54L263.87 508.42L258.66 506.08L253.54 503.53L248.5 500.76L243.53 497.77L238.67 494.56L233.89 491.13L229.22 487.49L224.67 483.63L220.27 479.58L216.09 475.38L212.09 471.06L208.3 466.62L204.72 462.06L201.36 457.39L198.19 452.6L195.22 447.73L192.48 442.76L189.93 437.69L187.58 432.55L185.45 427.35L183.53 422.08L181.82 416.75L180.31 411.35L179.01 405.92L177.92 400.45L177.06 394.94L176.39 389.4L175.94 383.85L175.7 378.28L175.67 372.71L175.84 367.14L176.24 361.57L176.85 356.02L177.67 350.48L178.71 344.98L179.96 339.5L181.43 334.06L183.1 328.68L185 323.35L187.11 318.06L189.45 312.86L191.99 307.71L194.75 302.65L197.73 297.67L200.93 292.79L204.36 288L207.99 283.33L211.84 278.76L211.84 229.28L211.93 224.81L212.2 220.36L212.64 215.98L213.26 211.63L214.05 207.35L215 203.13L216.12 198.97L217.38 194.89L218.8 190.87L220.38 186.91L222.1 183.05L223.96 179.27L225.96 175.57L228.11 171.94L230.38 168.43L232.8 165L235.32 161.67L237.97 158.45L240.75 155.33L243.64 152.31L246.65 149.41L249.76 146.63L252.98 143.97L256.3 141.44L259.72 139.02L263.23 136.74L266.84 134.59L270.53 132.58L274.3 130.71L278.15 128.99L282.1 127.4L286.11 125.98L290.18 124.71L294.33 123.59L298.54 122.64L302.81 121.85L307.15 121.23L311.52 120.79L315.95 120.52L320.42 120.43L324.9 120.52L329.33 120.79ZM251.83 361.56L226.26 387.19L293.27 454.5L414.16 332.87L388.6 307.24L292.86 403.23L251.83 361.56ZM314.55 157.1L311.66 157.45L308.82 157.92L305.99 158.49L303.22 159.17L300.49 159.95L297.8 160.84L295.15 161.82L292.56 162.89L290.02 164.08L287.53 165.33L285.1 166.69L282.72 168.13L280.4 169.66L278.14 171.28L275.95 172.97L273.81 174.73L271.76 176.58L269.77 178.51L267.85 180.5L266 182.56L264.25 184.7L262.56 186.89L260.95 189.16L259.42 191.48L257.99 193.87L256.63 196.31L255.38 198.81L254.2 201.36L253.12 203.95L252.15 206.61L251.26 209.3L250.49 212.04L249.81 214.82L249.24 217.65L248.77 220.5L248.42 223.4L248.17 226.32L248.04 229.28L248.04 248.9L251.42 247L254.83 245.18L258.27 243.48L261.76 241.86L265.26 240.34L268.81 238.92L272.38 237.59L275.98 236.37L279.61 235.25L283.24 234.22L286.9 233.29L290.57 232.45L294.28 231.72L297.99 231.07L301.7 230.53L305.44 230.11L309.18 229.76L312.92 229.5L316.68 229.36L320.42 229.31L324.17 229.36L327.93 229.5L331.67 229.76L335.41 230.11L339.14 230.53L342.86 231.07L346.57 231.72L350.26 232.45L353.94 233.29L357.6 234.22L361.25 235.25L364.88 236.37L368.46 237.59L372.04 238.92L375.58 240.34L379.09 241.86L382.57 243.48L386.02 245.18L389.43 247L392.81 248.9L392.81 229.28L392.68 226.32L392.43 223.4L392.07 220.5L391.61 217.65L391.04 214.82L390.36 212.04L389.57 209.3L388.69 206.61L387.71 203.95L386.64 201.36L385.47 198.81L384.21 196.31L382.87 193.87L381.41 191.48L379.9 189.16L378.29 186.89L376.6 184.7L374.83 182.56L372.99 180.5L371.08 178.51L369.09 176.58L367.02 174.73L364.89 172.97L362.7 171.28L360.44 169.66L358.14 168.13L355.75 166.69L353.32 165.33L350.83 164.08L348.29 162.89L345.68 161.82L343.05 160.84L340.35 159.95L337.62 159.17L334.84 158.49L332.03 157.92L329.18 157.45L326.29 157.1L323.37 156.85L320.42 156.72L317.47 156.85L314.55 157.1Z" id="h36tkJkCJ"></path></defs><g><g><g><use xlink:href="#cNVH26rs5" opacity="1" fill="#ffffff" fill-opacity="1"></use><g><use xlink:href="#cNVH26rs5" opacity="1" fill-opacity="0" stroke="#000000" stroke-width="1" stroke-opacity="0"></use></g></g><g><use xlink:href="#a30q6RmOYX" opacity="1" fill="#e02533" fill-opacity="1"></use><g><use xlink:href="#a30q6RmOYX" opacity="1" fill-opacity="0" stroke="#000000" stroke-width="1" stroke-opacity="0"></use></g></g><g><use xlink:href="#b4s3g77mOE" opacity="1" fill="#000000" fill-opacity="0"></use><g><use xlink:href="#b4s3g77mOE" opacity="1" fill-opacity="0" stroke="#000000" stroke-width="1" stroke-opacity="0"></use></g></g><g><use xlink:href="#a2WvLAm7iH" opacity="1" fill="#ffffff" fill-opacity="1"></use><g><use xlink:href="#a2WvLAm7iH" opacity="1" fill-opacity="0" stroke="#000000" stroke-width="1" stroke-opacity="0"></use></g></g><g><use xlink:href="#h36tkJkCJ" opacity="1" fill="#000000" fill-opacity="0"></use><g><use xlink:href="#h36tkJkCJ" opacity="1" fill-opacity="0" stroke="#000000" stroke-width="1" stroke-opacity="0"></use></g></g></g></g></svg>