<?xml version="1.0" encoding="UTF-8"?>
<svg width="48px" height="48px" viewBox="0 0 48 48" version="1.1" xmlns="http://www.w3.org/2000/svg" xmlns:xlink="http://www.w3.org/1999/xlink">
    <title>sim-card</title>
    <g id="V2-Icons" stroke="none" stroke-width="1" fill="none" fill-rule="evenodd">
        <g id="IBM-/-Cloud-/-Security" transform="translate(-853, -77)">
            <g id="sim-card" transform="translate(853, 77)">
                <g id="Key-v2-Icon-Copy-7" fill="#FA4D56">
                    <polygon id="Fill-4" points="0 48 48 48 48 0 0 0"></polygon>
                </g>
                <g transform="translate(12, 12)">
                    <path d="M15.75,6.75 L6,6.75 C5.17196695,6.7509506 4.5009506,7.42196695 4.5,8.25 L4.5,15.75 C4.5009506,16.5780331 5.17196695,17.2490494 6,17.25 L15.75,17.25 C16.5780331,17.2490494 17.2490494,16.5780331 17.25,15.75 L17.25,8.25 C17.2490494,7.42196695 16.5780331,6.7509506 15.75,6.75 L15.75,6.75 Z M15.75,9.75 L13.5,9.75 L13.5,8.25 L15.75,8.25 L15.75,9.75 Z M13.5,11.25 L15.75,11.25 L15.75,12.75 L13.5,12.75 L13.5,11.25 Z M12,8.25 L12,15.75 L9.75,15.75 L9.75,10.5 C9.75,10.0857864 9.41421356,9.75 9,9.75 L6,9.75 L6,8.25 L12,8.25 Z M8.25,12.75 L6,12.75 L6,11.25 L8.25,11.25 L8.25,12.75 Z M6,14.25 L8.25,14.25 L8.25,15.75 L6,15.75 L6,14.25 Z M13.5,15.75 L13.5,14.25 L15.75,14.25 L15.75,15.75 L13.5,15.75 Z" id="Shape" fill="#FFFFFF" fill-rule="nonzero"></path>
                    <path d="M17.648775,20.25 L3,20.25 C2.17193272,20.2491319 1.5008681,19.5780673 1.5,18.75 L1.5,5.25 C1.5008681,4.42193272 2.17193272,3.7508681 3,3.75 L21,3.75 C21.8280673,3.7508681 22.4991319,4.42193272 22.5,5.25 L22.5,14.728425 C22.4997245,15.0794238 22.3766368,15.4192617 22.152075,15.689025 L18.800925,19.71 C18.5163949,20.0525181 18.0940568,20.2504633 17.648775,20.25 Z M3,5.25 L3,18.75 L17.648775,18.75 L21,14.728425 L21,5.25 L3,5.25 Z" id="Shape" fill="#FFFFFF" fill-rule="nonzero"></path>
                    <rect id="_Transparent_Rectangle_" x="0" y="0" width="24" height="24"></rect>
                </g>
            </g>
        </g>
    </g>
</svg>