<?xml version="1.0" encoding="UTF-8"?>
<svg width="48px" height="48px" viewBox="0 0 48 48" version="1.1" xmlns="http://www.w3.org/2000/svg" xmlns:xlink="http://www.w3.org/1999/xlink">
    <title>vpn--connection</title>
    <g id="V2-Icons" stroke="none" stroke-width="1" fill="none" fill-rule="evenodd">
        <g id="IBM-/-Cloud-/-Security" transform="translate(-1125, -77)">
            <g id="vpn--connection" transform="translate(1125, 77)">
                <rect id="Rectangle" fill="#FA4D56" x="0" y="0" width="48" height="48"></rect>
                <g id="vpn--connection(1)" transform="translate(12, 12)">
                    <path d="M21,5.25 C20.4662712,5.25125162 19.9737535,5.53715031 19.707975,6 L16.5,6 C16.5,3.51471863 14.4852814,1.5 12,1.5 C9.51471863,1.5 7.5,3.51471863 7.5,6 L4.292025,6 C3.95257074,5.41204798 3.2605336,5.12539681 2.60475833,5.30111126 C1.94898306,5.47682571 1.49298689,6.07109148 1.49298689,6.75 C1.49298689,7.42890852 1.94898306,8.02317429 2.60475833,8.19888874 C3.2605336,8.37460319 3.95257074,8.08795202 4.292025,7.5 L7.5,7.5 L7.5,10.5 L6,10.5 C5.17157288,10.5 4.5,11.1715729 4.5,12 L4.5,21 C4.5,21.8284271 5.17157288,22.5 6,22.5 L18,22.5 C18.8284271,22.5 19.5,21.8284271 19.5,21 L19.5,12 C19.5,11.1715729 18.8284271,10.5 18,10.5 L16.5,10.5 L16.5,7.5 L19.707975,7.5 C20.0730677,8.12806757 20.8362996,8.40348713 21.5183253,8.1532824 C22.2003511,7.90307767 22.6044078,7.19943222 22.476729,6.48426811 C22.3490502,5.769104 21.7264709,5.24874468 21,5.25 Z M9,6 C9,4.34314575 10.3431458,3 12,3 C13.6568542,3 15,4.34314575 15,6 L15,10.5 L9,10.5 L9,7.5 L12.75,7.5 L12.75,6 L9,6 Z M18,12 L18,21 L6,21 L6,12 L18,12 Z" id="Shape" fill="#FFFFFF" fill-rule="nonzero"></path>
                    <rect id="_Transparent_Rectangle_" x="0" y="0" width="24" height="24"></rect>
                </g>
            </g>
        </g>
    </g>
</svg>