<?xml version="1.0" encoding="UTF-8"?>
<svg width="48px" height="48px" viewBox="0 0 48 48" version="1.1" xmlns="http://www.w3.org/2000/svg" xmlns:xlink="http://www.w3.org/1999/xlink">
    <title>vpn--policy</title>
    <g id="V2-Icons" stroke="none" stroke-width="1" fill="none" fill-rule="evenodd">
        <g id="IBM-/-Cloud-/-Security" transform="translate(-1186, -77)">
            <g id="vpn--policy" transform="translate(1186, 77)">
                <rect id="Rectangle" fill="#FA4D56" x="0" y="0" width="48" height="48"></rect>
                <path d="M34.5000093,23.25 C34.504181,21.1810578 33.097093,19.3758563 31.0897257,18.8748419 C29.0823583,18.3738275 26.9920263,19.3061155 26.0235139,21.1343723 C25.0550015,22.9626291 25.4579022,25.2156982 27,26.595 L27,33.75 L30,32.33715 L33,33.75 L33,26.595 C33.9536635,25.7445802 34.4993198,24.5277666 34.5000093,23.25 L34.5000093,23.25 Z M31.5,31.385775 L30,30.67965 L28.5,31.385775 L28.5,27.4875 C29.4693575,27.8376002 30.5306425,27.8376002 31.5,27.4875 L31.5,31.385775 Z M30,26.25 C28.3431458,26.25 27,24.9068542 27,23.25 C27,21.5931458 28.3431458,20.25 30,20.25 C31.6568542,20.25 33,21.5931458 33,23.25 C32.99814,24.9060832 31.6560832,26.24814 30,26.25 Z" id="Shape" fill="#FFFFFF" fill-rule="nonzero"></path>
                <path d="M22.5,13.5 C20.0158495,13.5027281 18.0027281,15.5158495 18,18 L18,22.5 L16.5,22.5 C15.6719669,22.5009506 15.0009506,23.1719669 15,24 L15,33 C15.0009506,33.8280331 15.6719669,34.4990494 16.5,34.5 L24.75,34.5 L24.75,33 L16.5,33 L16.5,24 L23.25,24 L23.25,22.5 L19.5,22.5 L19.5,18 C19.498141,16.4586249 20.6646462,15.16666 22.1982033,15.0116003 C23.7317603,14.8565407 25.1332755,15.8888502 25.44,17.3994 L26.91,17.1006 C26.4781093,15.0075245 24.6371651,13.5044624 22.5,13.5 Z" id="Path" fill="#FFFFFF" fill-rule="nonzero"></path>
                <rect id="_Transparent_Rectangle_" x="12" y="12" width="24" height="24"></rect>
            </g>
        </g>
    </g>
</svg>