<?xml version="1.0" encoding="UTF-8" standalone="no"?>
<!DOCTYPE svg PUBLIC "-//W3C//DTD SVG 1.1//EN" "http://www.w3.org/Graphics/SVG/1.1/DTD/svg11.dtd">
<svg version="1.1" xmlns="http://www.w3.org/2000/svg" xmlns:xlink="http://www.w3.org/1999/xlink" preserveAspectRatio="xMidYMid meet" viewBox="0 0 640 640" width="640" height="640"><defs><path d="M283.3 307.83C237.24 307.83 199.92 270.6 199.92 224.67C199.92 178.73 237.24 141.5 283.3 141.5C329.34 141.5 366.66 178.73 366.66 224.67C366.66 270.6 329.34 307.83 283.3 307.83Z" id="czeVLWHh9"></path><path d="M283.3 307.83C237.24 307.83 199.92 270.6 199.92 224.67C199.92 178.73 237.24 141.5 283.3 141.5C329.34 141.5 366.66 178.73 366.66 224.67C366.66 270.6 329.34 307.83 283.3 307.83Z" id="awsiCK7hp"></path><path d="M283.3 282.14C251.49 282.14 225.72 256.41 225.72 224.67C225.72 192.94 251.49 167.2 283.3 167.2C315.09 167.2 340.86 192.94 340.86 224.67C340.86 256.41 315.09 282.14 283.3 282.14Z" id="a3PK0ll2HM"></path><path d="M283.3 282.14C251.49 282.14 225.72 256.41 225.72 224.67C225.72 192.94 251.49 167.2 283.3 167.2C315.09 167.2 340.86 192.94 340.86 224.67C340.86 256.41 315.09 282.14 283.3 282.14Z" id="bfuQBmsLe"></path><path d="M320.01 635.57C145.26 635.57 3.59 494.29 3.59 320C3.59 145.73 145.26 4.43 320.01 4.43C494.74 4.43 636.41 145.73 636.41 320C636.41 494.29 494.74 635.57 320.01 635.57Z" id="b2UxnEgtWi"></path><path d="M320.01 635.57C145.26 635.57 3.59 494.29 3.59 320C3.59 145.73 145.26 4.43 320.01 4.43C494.74 4.43 636.41 145.73 636.41 320C636.41 494.29 494.74 635.57 320.01 635.57Z" id="b6tPzmgv6"></path><path d="M225.72 214.72C225.72 223.65 225.72 228.61 225.72 229.6C225.72 229.6 225.72 229.6 225.72 229.6C210.24 229.6 201.63 229.6 199.92 229.6C199.92 229.6 199.92 229.6 199.92 229.6C199.92 220.66 199.92 215.7 199.92 214.72C199.92 214.72 199.92 214.72 199.92 214.72C215.4 214.72 224 214.72 225.72 214.72C225.72 214.72 225.72 214.72 225.72 214.72Z" id="c281CA511L"></path><path d="M225.72 214.72C225.72 223.65 225.72 228.61 225.72 229.6C225.72 229.6 225.72 229.6 225.72 229.6C210.24 229.6 201.63 229.6 199.92 229.6C199.92 229.6 199.92 229.6 199.92 229.6C199.92 220.66 199.92 215.7 199.92 214.72C199.92 214.72 199.92 214.72 199.92 214.72C215.4 214.72 224 214.72 225.72 214.72C225.72 214.72 225.72 214.72 225.72 214.72Z" id="kLi3mZ7Bv"></path><path d="M366.25 217.23C366.25 226.16 366.25 231.12 366.25 232.12C366.25 232.12 366.25 232.12 366.25 232.12C350.95 232.12 342.47 232.12 340.77 232.12C340.77 232.12 340.77 232.12 340.77 232.12C340.77 223.19 340.77 218.21 340.77 217.23C340.77 217.23 340.77 217.23 340.77 217.23C356.05 217.23 364.55 217.23 366.25 217.23C366.25 217.23 366.25 217.23 366.25 217.23Z" id="d6m3jvyKb"></path><path d="M366.25 217.23C366.25 226.16 366.25 231.12 366.25 232.12C366.25 232.12 366.25 232.12 366.25 232.12C350.95 232.12 342.47 232.12 340.77 232.12C340.77 232.12 340.77 232.12 340.77 232.12C340.77 223.19 340.77 218.21 340.77 217.23C340.77 217.23 340.77 217.23 340.77 217.23C356.05 217.23 364.55 217.23 366.25 217.23C366.25 217.23 366.25 217.23 366.25 217.23Z" id="a8MUvEDaP"></path><path d="M291.26 141.5C291.26 156.92 291.26 165.49 291.26 167.2C291.26 167.2 291.26 167.2 291.26 167.2C282.33 167.2 277.37 167.2 276.37 167.2C276.37 167.2 276.37 167.2 276.37 167.2C276.37 151.78 276.37 143.21 276.37 141.5C276.37 141.5 276.37 141.5 276.37 141.5C285.3 141.5 290.28 141.5 291.26 141.5C291.26 141.5 291.26 141.5 291.26 141.5Z" id="bacNqtCCB"></path><path d="M291.26 141.5C291.26 156.92 291.26 165.49 291.26 167.2C291.26 167.2 291.26 167.2 291.26 167.2C282.33 167.2 277.37 167.2 276.37 167.2C276.37 167.2 276.37 167.2 276.37 167.2C276.37 151.78 276.37 143.21 276.37 141.5C276.37 141.5 276.37 141.5 276.37 141.5C285.3 141.5 290.28 141.5 291.26 141.5C291.26 141.5 291.26 141.5 291.26 141.5Z" id="g18Vx7LDkE"></path><path d="M337.94 162.27L348.52 172.87L330.59 190.69L330.59 190.69L320.01 180.21L337.94 162.27Z" id="b4O7PbtVXH"></path><path d="M337.94 162.27L348.52 172.87L330.59 190.69L330.59 190.69L320.01 180.21L337.94 162.27Z" id="brPQBdYAD"></path><path d="M229.39 160.81L247.64 178.95L237.15 189.53L237.15 189.53L218.79 171.3L229.39 160.81Z" id="aAtPB0Xh"></path><path d="M229.39 160.81L247.64 178.95L237.15 189.53L237.15 189.53L218.79 171.3L229.39 160.81Z" id="fef1kLg2o"></path><path d="M286.35 199.98L287.32 200.1L288.28 200.27L289.2 200.47L290.13 200.7L291.03 200.98L291.93 201.29L292.81 201.62L293.67 202.01L294.51 202.41L295.33 202.86L296.15 203.32L296.92 203.81L297.69 204.35L298.43 204.91L299.15 205.49L299.84 206.09L300.52 206.74L301.17 207.4L301.79 208.08L302.39 208.79L302.96 209.53L303.5 210.28L304 211.05L304.5 211.85L304.94 212.67L305.36 213.5L305.76 214.36L306.11 215.23L306.44 216.12L306.73 217.01L306.98 217.94L307.19 218.88L307.38 219.82L307.53 220.79L307.64 221.76L307.7 222.74L307.73 223.73L307.73 224.38L307.72 224.59L307.72 224.81L307.67 225.45L307.64 225.65L307.62 225.87L307.59 226.09L307.58 226.3L307.55 226.52L307.52 226.72L307.48 226.93L307.44 227.15L307.41 227.35L307.32 227.78L307.27 227.98L307.22 228.2L307.18 228.4L307.12 228.61L307.05 228.81L307.01 229.01L306.95 229.23L306.88 229.43L306.81 229.63L306.75 229.83L306.67 230.04L306.61 230.24L306.38 230.84L306.28 231.03L306.21 231.23L306.02 231.63L305.94 231.82L305.84 232.02L325.14 293.48L325.26 293.46L325.37 293.44L325.49 293.44L325.6 293.43L325.72 293.41L325.83 293.41L325.95 293.4L326.06 293.4L326.18 293.38L326.42 293.38L326.52 293.37L326.75 293.37L326.86 293.35L328.02 293.35L328.14 293.37L328.37 293.37L328.48 293.38L328.71 293.38L328.83 293.4L328.94 293.4L329.06 293.41L329.17 293.41L329.3 293.43L329.4 293.44L329.53 293.44L329.63 293.46L329.76 293.48L330.67 293.46L331.58 293.48L332.47 293.54L333.36 293.63L334.24 293.75L335.12 293.91L335.98 294.09L336.83 294.31L337.66 294.57L338.49 294.85L339.29 295.15L340.09 295.51L340.86 295.88L341.63 296.26L342.37 296.69L343.11 297.16L343.82 297.63L344.51 298.13L345.18 298.67L345.84 299.22L346.47 299.79L347.07 300.39L347.67 301.02L348.23 301.67L348.77 302.33L349.29 303.01L349.78 303.72L350.24 304.44L350.69 305.2L351.09 305.95L351.48 306.74L351.83 307.54L352.15 308.35L352.46 309.17L352.72 310.02L352.96 310.88L353.16 311.76L353.33 312.64L353.46 313.53L353.56 314.44L377.15 318.64L377.59 318.37L378.45 317.84L378.88 317.6L379.77 317.1L381.11 316.41L381.56 316.2L382.02 315.98L382.47 315.78L382.93 315.56L383.39 315.38L383.86 315.18L384.33 314.99L384.79 314.81L385.26 314.64L386.21 314.3L387.17 313.99L387.64 313.85L388.12 313.7L388.61 313.58L389.09 313.44L389.59 313.31L390.08 313.21L390.56 313.08L391.05 312.98L392.53 312.7L393.04 312.62L394.02 312.47L394.53 312.41L395.02 312.34L395.53 312.28L396.04 312.24L397.09 312.33L398.12 312.47L399.14 312.62L400.14 312.84L401.12 313.07L402.11 313.35L403.06 313.67L404 314.01L404.93 314.39L405.84 314.81L406.73 315.26L407.61 315.73L408.45 316.24L409.29 316.78L410.09 317.35L410.87 317.94L411.63 318.57L412.37 319.21L413.08 319.89L413.77 320.6L414.43 321.32L415.06 322.08L415.68 322.85L416.25 323.64L416.8 324.45L417.33 325.3L417.82 326.16L418.28 327.02L418.7 327.93L419.1 328.84L419.45 329.77L419.79 330.72L420.08 331.68L420.33 332.66L420.56 333.65L420.75 334.65L420.88 335.67L420.99 336.7L421.07 337.73L421.1 338.78L421.05 339.53L420.99 340.29L420.92 341.03L420.81 341.77L420.68 342.5L420.53 343.23L420.36 343.94L420.18 344.66L419.96 345.35L419.73 346.06L419.48 346.74L419.22 347.43L418.93 348.1L418.62 348.76L418.3 349.42L417.96 350.05L417.59 350.68L417.22 351.3L416.82 351.92L416.4 352.52L415.97 353.1L415.52 353.67L415.06 354.23L414.58 354.78L414.09 355.32L413.58 355.83L413.06 356.34L412.52 356.83L411.95 357.31L411.38 357.77L410.81 358.2L410.21 358.63L409.59 359.05L408.96 359.45L408.33 359.82L407.68 360.17L407.01 360.51L406.34 360.83L405.65 361.14L404.94 361.44L413.45 412.61L413.8 412.37L414.51 411.94L414.88 411.73L415.62 411.33L416.73 410.77L417.88 410.26L418.65 409.96L419.04 409.82L419.44 409.68L419.82 409.54L420.62 409.29L421.82 408.97L422.23 408.88L422.64 408.79L423.04 408.69L423.46 408.62L423.86 408.55L425.11 408.37L425.52 408.32L426.77 408.23L428.02 408.18L428.86 408.18L429.28 408.2L429.5 408.2L429.71 408.22L429.93 408.22L430.14 408.23L430.36 408.23L430.57 408.25L430.77 408.26L430.99 408.26L432.28 408.35L432.48 408.39L432.7 408.4L432.92 408.43L433.13 408.45L433.35 408.48L433.56 408.49L433.76 408.52L434.62 408.65L434.83 408.68L435.26 408.74L435.46 408.79L435.67 408.82L435.89 408.86L436.1 408.89L436.3 408.94L436.52 408.99L436.74 409.02L436.94 409.06L437.15 409.11L437.35 409.16L437.78 409.25L484.76 305.43L483.75 304.72L483.27 304.35L482.79 303.97L482.33 303.58L481.87 303.18L481.42 302.76L480.99 302.35L480.57 301.92L479.77 301.02L479.39 300.56L479 300.08L478.29 299.13L477.95 298.64L477.63 298.13L477.32 297.62L477.02 297.1L476.46 296.05L476.2 295.51L475.95 294.97L475.71 294.41L475.27 293.31L474.9 292.17L474.74 291.58L474.58 291L474.44 290.41L474.32 289.82L474.21 289.22L474.12 288.64L474.04 288.04L473.97 287.42L473.92 286.82L473.86 285.59L473.86 284.99L473.89 283.97L473.95 282.97L474.06 281.98L474.2 281.01L474.38 280.06L474.6 279.1L474.84 278.18L475.14 277.26L475.46 276.36L475.81 275.48L476.21 274.61L476.63 273.76L477.09 272.93L477.57 272.13L478.09 271.34L478.63 270.57L479.2 269.83L479.8 269.11L480.43 268.4L481.08 267.74L481.76 267.09L482.47 266.46L483.19 265.87L483.95 265.3L484.72 264.76L485.5 264.25L486.32 263.78L487.15 263.33L488 262.91L488.88 262.53L489.75 262.18L490.66 261.85L491.59 261.57L492.51 261.33L493.47 261.13L494.42 260.94L495.41 260.82L496.39 260.71L497.38 260.67L498.4 260.65L498.56 260.65L498.6 260.64L499.03 260.64L499.07 260.65L499.13 260.65L500.12 260.68L501.11 260.74L502.08 260.87L503.05 261L503.99 261.21L504.93 261.42L505.83 261.68L506.74 261.98L507.62 262.3L508.5 262.67L509.35 263.05L510.18 263.48L511 263.93L511.8 264.42L512.57 264.95L513.32 265.49L514.04 266.06L514.75 266.66L515.43 267.29L516.09 267.94L516.73 268.61L517.34 269.31L517.91 270.03L518.47 270.77L518.99 271.54L519.48 272.33L519.96 273.14L520.39 273.96L520.79 274.81L521.16 275.67L521.5 276.55L521.81 277.44L522.07 278.35L522.32 279.27L522.5 280.21L522.67 281.17L522.79 282.12L522.89 283.11L522.93 284.08L522.93 285.08L522.89 286.1L522.81 287.1L522.69 288.1L522.53 289.09L522.33 290.06L522.1 291.01L521.82 291.95L521.52 292.87L521.18 293.77L520.79 294.66L520.39 295.54L519.94 296.39L519.48 297.22L518.97 298.03L518.43 298.82L517.88 299.59L517.3 300.33L516.68 301.05L516.03 301.76L515.35 302.42L514.66 303.07L513.94 303.7L513.2 304.29L512.44 304.86L511.64 305.38L510.84 305.89L510.01 306.37L509.16 306.81L508.3 307.23L507.41 307.6L506.51 307.95L505.59 308.26L504.66 308.54L503.71 308.77L502.75 308.97L501.78 309.14L500.78 309.26L499.8 309.36L498.78 309.4L497.76 309.42L493.57 309.42L444.28 414.28L444.76 414.56L445.24 414.85L445.72 415.16L446.16 415.47L446.61 415.81L447.04 416.15L447.47 416.5L447.89 416.86L448.29 417.23L448.67 417.61L449.41 418.41L449.77 418.83L450.11 419.24L450.43 419.68L450.75 420.12L451.06 420.57L451.61 421.49L452.14 422.45L452.37 422.93L452.6 423.42L452.8 423.93L453 424.42L453.19 424.94L453.34 425.45L453.49 425.98L453.63 426.5L453.76 427.04L453.86 427.58L453.96 428.12L454.03 428.66L454.09 429.2L454.14 429.75L454.17 430.3L454.19 430.86L454.19 431.41L454.17 431.97L454.14 432.54L454.14 432.78L454.16 432.83L454.16 433.26L454.17 433.29L454.17 433.62L454.16 434.57L454.11 435.53L454.02 436.45L453.89 437.37L453.74 438.3L453.54 439.19L453.31 440.09L453.05 440.95L452.74 441.81L452.42 442.66L452.06 443.47L451.66 444.29L451.25 445.08L450.78 445.85L450.31 446.6L449.8 447.34L449.27 448.05L448.7 448.74L448.12 449.42L447.5 450.05L446.87 450.68L446.21 451.28L445.53 451.85L444.82 452.39L444.1 452.92L443.34 453.41L442.59 453.87L441.8 454.3L441 454.7L440.17 455.09L439.34 455.43L438.49 455.74L437.61 456.01L436.74 456.26L435.84 456.46L434.93 456.64L434.01 456.78L433.07 456.88L432.13 456.94L431.17 456.97L430.16 456.95L429.16 456.89L428.17 456.78L427.2 456.64L426.23 456.47L425.29 456.26L424.35 456.01L423.43 455.72L422.53 455.41L421.64 455.06L420.78 454.67L419.91 454.24L419.08 453.79L418.27 453.32L417.48 452.81L416.71 452.25L415.96 451.68L415.23 451.1L414.52 450.47L413.85 449.82L413.2 449.14L412.57 448.45L411.97 447.73L411.4 446.97L410.86 446.2L410.33 445.41L409.86 444.6L409.39 443.77L408.98 442.92L408.59 442.06L408.22 441.16L407.9 440.27L407.62 439.35L407.36 438.41L407.15 437.47L406.96 436.5L406.82 435.53L406.71 434.54L406.65 433.54L406.62 432.54L406.62 432.09L406.64 431.86L406.64 431.41L406.67 430.95L406.68 430.74L406.7 430.5L406.71 430.29L406.73 430.06L406.74 429.84L406.78 429.61L406.81 429.4L406.84 429.16L406.87 428.95L406.9 428.72L406.93 428.5L406.96 428.27L407.01 428.06L407.04 427.84L407.08 427.61L407.22 426.96L407.28 426.73L407.38 426.3L407.68 425.22L407.76 425.01L407.82 424.79L407.98 424.36L408.04 424.14L408.12 423.94L408.21 423.73L395.73 363.79L395.55 363.79L395.39 363.78L395.24 363.78L394.78 363.73L393.73 363.73L392.68 363.68L391.65 363.61L390.62 363.48L389.62 363.33L388.61 363.13L387.63 362.9L386.64 362.64L385.69 362.33L384.75 361.99L383.82 361.62L382.9 361.22L382.01 360.77L381.14 360.31L380.28 359.8L379.45 359.28L378.63 358.72L377.83 358.12L377.06 357.51L376.32 356.86L375.6 356.2L374.89 355.5L374.21 354.78L373.57 354.03L372.95 353.26L372.35 352.47L371.79 351.65L371.25 350.81L370.75 349.94L370.27 349.07L369.84 348.17L369.42 347.25L369.05 346.31L368.7 345.35L368.39 344.38L368.13 343.4L367.88 342.4L367.68 341.38L367.53 340.35L367.4 339.3L367.4 333.22L349.89 327.66L349.72 328.33L349.52 329L349.31 329.64L349.07 330.29L348.81 330.92L348.53 331.54L348.24 332.14L347.92 332.74L347.6 333.32L347.24 333.89L346.87 334.45L346.47 334.99L346.07 335.51L345.65 336.02L345.22 336.53L344.76 337.01L344.3 337.47L343.82 337.93L343.31 338.36L342.8 338.78L342.28 339.18L341.76 339.56L341.2 339.93L340.65 340.29L340.06 340.63L339.49 340.93L338.89 341.23L338.29 341.5L337.68 341.75L337.04 342L336.41 342.21L335.78 342.4L335.12 342.58L334.47 342.74L333.81 342.86L333.13 342.97L332.45 343.06L331.76 343.12L331.08 343.17L330.39 343.18L329.37 343.15L328.36 343.06L327.37 342.95L326.38 342.8L325.41 342.6L324.46 342.37L323.52 342.1L322.6 341.81L321.69 341.47L320.81 341.1L319.93 340.7L319.07 340.27L318.24 339.79L317.42 339.3L316.63 338.78L315.86 338.22L315.11 337.64L314.39 337.02L313.68 336.39L313 335.73L312.35 335.03L311.72 334.33L311.14 333.59L310.57 332.83L310.01 332.05L309.5 331.24L309.03 330.41L308.56 329.58L308.15 328.72L307.76 327.84L307.41 326.95L307.08 326.02L306.81 325.1L306.55 324.16L306.34 323.19L306.16 322.22L306.02 321.25L305.93 320.25L305.87 319.25L305.84 318.23L305.87 317L305.91 316.36L305.96 315.72L306.02 315.06L306.1 314.39L306.18 313.72L306.39 312.36L306.53 311.68L306.67 310.99L306.98 309.63L307.35 308.28L307.55 307.62L307.76 306.95L307.98 306.32L308.22 305.67L308.47 305.06L308.72 304.46L308.99 303.86L309.27 303.29L309.86 302.21L310.16 301.7L310.49 301.22L310.81 300.76L311.15 300.33L311.5 299.93L311.86 299.56L312.23 299.22L312.61 298.93L313 298.65L313.38 298.42L313.8 298.23L314.2 298.08L314.63 297.97L315.05 297.9L315.49 297.88L297.24 243.55L297.24 244.49L296.92 244.72L296.58 244.95L295.56 245.6L295.22 245.8L294.51 246.2L294.18 246.39L293.81 246.57L293.45 246.76L293.1 246.93L292.73 247.08L292.36 247.25L291.99 247.4L291.62 247.54L291.25 247.7L290.88 247.83L290.49 247.96L290.13 248.08L289.74 248.2L288.58 248.53L287.81 248.71L287.43 248.79L287.03 248.87L286.64 248.94L285.84 249.07L285.46 249.11L284.66 249.21L283.46 249.3L283.05 249.31L282.25 249.31L281.56 249.34L280.88 249.34L280.19 249.33L279.51 249.3L278.85 249.24L278.17 249.16L277.51 249.07L276.85 248.96L276.18 248.84L275.54 248.68L274.89 248.51L274.26 248.33L273.63 248.13L273 247.91L272.38 247.68L271.76 247.43L271.15 247.16L270.56 246.88L269.96 246.57L269.39 246.26L268.25 245.59L267.7 245.22L266.62 244.45L266.11 244.03L265.59 243.61L264.6 242.72L264.14 242.24L263.66 241.77L263.22 241.27L262.78 240.76L262.35 240.24L261.55 239.16L261.17 238.59L260.81 238.02L260.46 237.44L260.12 236.84L164.48 318.75L164.6 319.06L164.68 319.21L164.74 319.38L164.8 319.54L164.86 319.71L164.99 320.02L165.05 320.18L165.11 320.34L165.23 320.68L165.28 320.83L165.34 321L165.39 321.16L165.45 321.32L165.5 321.49L165.54 321.65L165.59 321.82L165.65 321.99L165.7 322.16L165.74 322.31L165.77 322.48L165.91 322.99L165.94 323.16L165.99 323.31L166.02 323.48L166.07 323.65L166.31 325.01L166.33 325.18L166.36 325.36L166.36 325.87L166.34 326.38L166.28 327.39L166.24 327.9L166.11 328.92L166.03 329.41L165.94 329.9L165.85 330.41L165.74 330.91L165.62 331.38L165.5 331.88L165.36 332.37L165.05 333.32L164.88 333.8L164.33 335.19L163.89 336.11L163.68 336.56L163.43 337.01L163.19 337.44L162.94 337.88L162.68 338.3L162.4 338.73L161.85 339.56L161.54 339.98L160.92 340.78L160.6 341.16L160.26 341.55L159.92 341.92L159.21 342.66L158.47 343.37L157.72 344.03L156.95 344.66L156.16 345.25L155.34 345.8L154.53 346.32L153.68 346.8L152.83 347.25L151.97 347.65L151.09 348.02L150.2 348.36L149.31 348.67L148.4 348.93L147.49 349.16L146.56 349.34L145.64 349.5L144.7 349.62L143.78 349.7L142.84 349.76L141.91 349.76L140.97 349.74L140.05 349.68L139.11 349.59L138.19 349.47L137.26 349.3L136.35 349.1L135.44 348.87L134.55 348.59L133.66 348.28L132.78 347.94L131.9 347.57L131.05 347.16L130.21 346.71L129.37 346.23L128.57 345.71L127.77 345.15L127 344.57L126.25 343.95L125.51 343.29L124.78 342.61L124.09 341.87L123.43 341.13L122.81 340.35L122.21 339.56L121.66 338.76L121.15 337.93L120.67 337.1L120.22 336.24L119.81 335.37L119.44 334.49L119.1 333.6L118.81 332.71L118.55 331.8L118.31 330.89L118.11 329.97L117.96 329.04L117.84 328.12L117.76 327.18L117.71 326.25L117.7 325.31L117.71 324.37L117.78 323.45L117.87 322.53L118.01 321.6L118.16 320.68L118.36 319.75L118.61 318.84L118.87 317.95L119.18 317.06L119.52 316.18L119.9 315.32L120.3 314.45L120.75 313.61L121.24 312.79L121.75 311.97L122.3 311.17L122.89 310.4L123.51 309.65L124.17 308.91L124.86 308.2L125.59 307.51L126.34 306.85L127.11 306.21L127.9 305.63L128.71 305.07L129.53 304.55L130.38 304.07L131.22 303.63L132.09 303.23L132.96 302.84L133.86 302.52L134.75 302.21L135.66 301.95L136.58 301.72L137.49 301.53L138.42 301.38L139.36 301.25L140.28 301.16L141.22 301.12L142.14 301.1L143.08 301.13L144.01 301.19L144.95 301.28L145.87 301.41L146.8 301.58L147.7 301.78L148.61 302.01L149.51 302.29L150.4 302.58L151.28 302.93L152.16 303.3L153 303.72L153.85 304.17L154.68 304.64L155.48 305.17L156.28 305.71L157.05 306.31L157.82 306.92L158.55 307.57L159.27 308.26L159.97 308.99L258.66 225.1L258.66 224.47L258.67 223.45L258.73 222.45L258.84 221.46L258.98 220.48L259.16 219.52L259.38 218.57L259.64 217.63L259.92 216.7L260.24 215.8L260.6 214.92L261 214.04L261.41 213.19L261.88 212.35L262.35 211.54L262.86 210.74L263.42 209.97L263.99 209.22L264.59 208.49L265.2 207.79L265.86 207.11L266.54 206.45L267.24 205.81L267.97 205.21L268.71 204.64L269.48 204.09L270.29 203.58L271.09 203.09L271.93 202.63L272.78 202.21L273.64 201.81L274.54 201.46L275.45 201.13L276.37 200.84L277.29 200.58L278.25 200.36L279.22 200.18L280.19 200.02L281.18 199.91L282.18 199.85L283.19 199.82L284.39 199.82L285.38 199.88L286.35 199.98ZM427.46 419.66L425.66 420.32L424 421.23L422.47 422.36L421.13 423.68L419.98 425.19L419.05 426.84L418.34 428.63L417.91 430.54L417.74 432.54L417.88 434.54L418.28 436.45L418.96 438.25L419.87 439.92L420.99 441.44L422.32 442.8L423.81 443.95L425.48 444.91L427.26 445.62L429.17 446.09L431.17 446.28L433.18 446.12L435.1 445.69L436.92 445L438.6 444.07L440.11 442.93L441.46 441.58L442.6 440.07L443.53 438.39L444.22 436.57L444.65 434.65L444.81 432.65L444.65 430.66L444.24 428.75L443.56 426.96L442.65 425.31L441.51 423.8L440.19 422.46L438.69 421.32L437.04 420.4L435.26 419.71L433.36 419.28L431.37 419.11L429.37 419.24L427.46 419.66ZM395.73 363.79L395.85 363.81L396.01 363.81L396.16 363.82L396.47 363.82L396.64 363.84L396.95 363.84L397.1 363.85L398.3 363.85L398.2 363.84L398 363.84L397.9 363.82L397.8 363.82L397.69 363.81L397.59 363.81L397.49 363.79L397.38 363.79L397.29 363.78L397.18 363.78L397.07 363.76L396.98 363.75L396.87 363.73L395.72 363.73L395.73 363.79ZM400.35 363.78L400.2 363.79L400.04 363.79L399.89 363.81L399.72 363.81L399.57 363.82L399.26 363.82L399.1 363.84L398.8 363.84L398.64 363.85L399.54 363.85L399.64 363.84L399.84 363.84L399.94 363.82L400.04 363.82L400.15 363.81L400.24 363.81L400.35 363.79L400.46 363.79L400.55 363.78L400.66 363.78L400.77 363.76L400.86 363.75L400.97 363.73L400.51 363.78L400.35 363.78ZM393.57 325.65L391.77 326.36L390.11 327.3L388.6 328.46L387.26 329.81L386.12 331.34L385.2 333.02L384.52 334.83L384.1 336.76L383.98 338.78L384.13 340.73L384.55 342.6L385.21 344.35L386.1 345.99L387.2 347.48L388.48 348.8L389.94 349.96L391.54 350.9L393.28 351.62L395.15 352.09L397.09 352.3L397.13 352.3L397.19 352.32L397.7 352.32L399.72 352.15L401.63 351.72L403.45 351.01L405.11 350.07L406.62 348.91L407.96 347.56L409.1 346.03L410.01 344.34L410.69 342.54L411.1 340.61L411.24 338.59L411.07 336.57L410.64 334.65L409.93 332.85L408.99 331.18L407.84 329.67L406.48 328.33L404.96 327.19L403.26 326.27L401.46 325.59L399.54 325.18L397.52 325.05L395.5 325.21L393.57 325.65ZM138.94 312.27L137.12 312.88L135.43 313.73L133.87 314.81L132.49 316.1L131.28 317.57L130.3 319.18L129.54 320.96L129.05 322.85L128.82 324.84L128.9 326.84L129.25 328.76L129.87 330.58L130.71 332.28L131.79 333.83L133.07 335.22L134.55 336.42L136.17 337.41L137.94 338.16L139.83 338.65L141.82 338.88L142.13 338.88L144.15 338.75L146.07 338.33L147.89 337.65L149.57 336.74L151.11 335.6L152.46 334.28L153.62 332.75L154.56 331.09L155.27 329.29L155.71 327.36L155.87 325.36L155.73 323.4L155.33 321.54L154.67 319.78L153.79 318.15L152.71 316.67L151.43 315.33L149.98 314.19L148.38 313.25L146.66 312.53L144.81 312.05L142.87 311.85L140.87 311.91L138.94 312.27ZM326.68 305.63L324.88 306.29L323.2 307.18L321.67 308.29L320.32 309.6L319.15 311.1L318.21 312.74L317.5 314.53L317.03 316.44L316.87 318.43L316.97 320.43L317.37 322.34L318.04 324.16L318.93 325.84L320.05 327.36L321.36 328.72L322.87 329.87L324.54 330.83L326.34 331.54L328.25 332L330.28 332.17L332.27 332.03L334.16 331.61L335.95 330.94L337.6 330.04L339.12 328.92L340.46 327.61L341.6 326.13L342.56 324.48L343.27 322.71L343.73 320.83L343.91 318.84L343.79 316.84L343.41 314.93L342.74 313.13L341.85 311.45L340.73 309.93L339.42 308.57L337.92 307.42L336.27 306.46L334.49 305.75L332.59 305.29L330.59 305.12L328.6 305.23L326.68 305.63ZM354.76 321.02L354.5 322.09L354.19 323.16L354.4 323.16L354.67 322.09L354.87 321.02L355.02 319.94L355.13 318.84L354.97 319.94L354.76 321.02ZM495.53 272.51L493.71 273.13L492.02 273.99L490.46 275.07L489.08 276.35L487.87 277.81L486.89 279.43L486.13 281.2L485.64 283.09L485.41 285.08L485.47 287.08L485.83 289.01L486.44 290.83L487.29 292.54L488.37 294.08L489.66 295.46L491.12 296.66L492.74 297.65L494.51 298.4L496.41 298.91L498.4 299.13L498.4 298.71L498.63 298.71L498.66 298.73L498.83 298.73L500.83 298.57L502.75 298.14L504.57 297.45L506.24 296.53L507.76 295.37L509.1 294.03L510.26 292.5L511.18 290.83L511.87 289.02L512.3 287.1L512.44 285.08L512.24 283.2L511.78 281.4L511.1 279.7L510.19 278.13L509.1 276.7L507.84 275.44L506.4 274.34L504.83 273.45L503.14 272.76L501.35 272.31L499.46 272.1L497.46 272.17L495.53 272.51ZM279.9 211.68L278.08 212.3L276.39 213.16L274.83 214.24L273.44 215.52L272.24 216.98L271.26 218.61L270.5 220.39L270.01 222.27L269.78 224.27L269.85 226.27L270.19 228.18L270.81 230.01L271.67 231.71L272.75 233.26L274.03 234.65L275.49 235.84L277.12 236.82L278.9 237.58L280.78 238.08L282.78 238.3L283.41 238.3L285.41 238.13L287.34 237.67L289.12 236.94L290.79 235.99L292.3 234.82L293.62 233.46L294.75 231.92L295.64 230.23L296.3 228.41L296.7 226.49L296.83 224.47L296.64 222.56L296.21 220.72L295.53 219.01L294.64 217.41L293.54 215.97L292.28 214.67L290.85 213.56L289.26 212.64L287.55 211.94L285.74 211.48L283.82 211.27L281.82 211.34L279.9 211.68Z" id="aRDf4FvNQ"></path><path d="M286.35 199.98L287.32 200.1L288.28 200.27L289.2 200.47L290.13 200.7L291.03 200.98L291.93 201.29L292.81 201.62L293.67 202.01L294.51 202.41L295.33 202.86L296.15 203.32L296.92 203.81L297.69 204.35L298.43 204.91L299.15 205.49L299.84 206.09L300.52 206.74L301.17 207.4L301.79 208.08L302.39 208.79L302.96 209.53L303.5 210.28L304 211.05L304.5 211.85L304.94 212.67L305.36 213.5L305.76 214.36L306.11 215.23L306.44 216.12L306.73 217.01L306.98 217.94L307.19 218.88L307.38 219.82L307.53 220.79L307.64 221.76L307.7 222.74L307.73 223.73L307.73 224.38L307.72 224.59L307.72 224.81L307.67 225.45L307.64 225.65L307.62 225.87L307.59 226.09L307.58 226.3L307.55 226.52L307.52 226.72L307.48 226.93L307.44 227.15L307.41 227.35L307.32 227.78L307.27 227.98L307.22 228.2L307.18 228.4L307.12 228.61L307.05 228.81L307.01 229.01L306.95 229.23L306.88 229.43L306.81 229.63L306.75 229.83L306.67 230.04L306.61 230.24L306.38 230.84L306.28 231.03L306.21 231.23L306.02 231.63L305.94 231.82L305.84 232.02L325.14 293.48L325.26 293.46L325.37 293.44L325.49 293.44L325.6 293.43L325.72 293.41L325.83 293.41L325.95 293.4L326.06 293.4L326.18 293.38L326.42 293.38L326.52 293.37L326.75 293.37L326.86 293.35L328.02 293.35L328.14 293.37L328.37 293.37L328.48 293.38L328.71 293.38L328.83 293.4L328.94 293.4L329.06 293.41L329.17 293.41L329.3 293.43L329.4 293.44L329.53 293.44L329.63 293.46L329.76 293.48L330.67 293.46L331.58 293.48L332.47 293.54L333.36 293.63L334.24 293.75L335.12 293.91L335.98 294.09L336.83 294.31L337.66 294.57L338.49 294.85L339.29 295.15L340.09 295.51L340.86 295.88L341.63 296.26L342.37 296.69L343.11 297.16L343.82 297.63L344.51 298.13L345.18 298.67L345.84 299.22L346.47 299.79L347.07 300.39L347.67 301.02L348.23 301.67L348.77 302.33L349.29 303.01L349.78 303.72L350.24 304.44L350.69 305.2L351.09 305.95L351.48 306.74L351.83 307.54L352.15 308.35L352.46 309.17L352.72 310.02L352.96 310.88L353.16 311.76L353.33 312.64L353.46 313.53L353.56 314.44L377.15 318.64L377.59 318.37L378.45 317.84L378.88 317.6L379.77 317.1L381.11 316.41L381.56 316.2L382.02 315.98L382.47 315.78L382.93 315.56L383.39 315.38L383.86 315.18L384.33 314.99L384.79 314.81L385.26 314.64L386.21 314.3L387.17 313.99L387.64 313.85L388.12 313.7L388.61 313.58L389.09 313.44L389.59 313.31L390.08 313.21L390.56 313.08L391.05 312.98L392.53 312.7L393.04 312.62L394.02 312.47L394.53 312.41L395.02 312.34L395.53 312.28L396.04 312.24L397.09 312.33L398.12 312.47L399.14 312.62L400.14 312.84L401.12 313.07L402.11 313.35L403.06 313.67L404 314.01L404.93 314.39L405.84 314.81L406.73 315.26L407.61 315.73L408.45 316.24L409.29 316.78L410.09 317.35L410.87 317.94L411.63 318.57L412.37 319.21L413.08 319.89L413.77 320.6L414.43 321.32L415.06 322.08L415.68 322.85L416.25 323.64L416.8 324.45L417.33 325.3L417.82 326.16L418.28 327.02L418.7 327.93L419.1 328.84L419.45 329.77L419.79 330.72L420.08 331.68L420.33 332.66L420.56 333.65L420.75 334.65L420.88 335.67L420.99 336.7L421.07 337.73L421.1 338.78L421.05 339.53L420.99 340.29L420.92 341.03L420.81 341.77L420.68 342.5L420.53 343.23L420.36 343.94L420.18 344.66L419.96 345.35L419.73 346.06L419.48 346.74L419.22 347.43L418.93 348.1L418.62 348.76L418.3 349.42L417.96 350.05L417.59 350.68L417.22 351.3L416.82 351.92L416.4 352.52L415.97 353.1L415.52 353.67L415.06 354.23L414.58 354.78L414.09 355.32L413.58 355.83L413.06 356.34L412.52 356.83L411.95 357.31L411.38 357.77L410.81 358.2L410.21 358.63L409.59 359.05L408.96 359.45L408.33 359.82L407.68 360.17L407.01 360.51L406.34 360.83L405.65 361.14L404.94 361.44L413.45 412.61L413.8 412.37L414.51 411.94L414.88 411.73L415.62 411.33L416.73 410.77L417.88 410.26L418.65 409.96L419.04 409.82L419.44 409.68L419.82 409.54L420.62 409.29L421.82 408.97L422.23 408.88L422.64 408.79L423.04 408.69L423.46 408.62L423.86 408.55L425.11 408.37L425.52 408.32L426.77 408.23L428.02 408.18L428.86 408.18L429.28 408.2L429.5 408.2L429.71 408.22L429.93 408.22L430.14 408.23L430.36 408.23L430.57 408.25L430.77 408.26L430.99 408.26L432.28 408.35L432.48 408.39L432.7 408.4L432.92 408.43L433.13 408.45L433.35 408.48L433.56 408.49L433.76 408.52L434.62 408.65L434.83 408.68L435.26 408.74L435.46 408.79L435.67 408.82L435.89 408.86L436.1 408.89L436.3 408.94L436.52 408.99L436.74 409.02L436.94 409.06L437.15 409.11L437.35 409.16L437.78 409.25L484.76 305.43L483.75 304.72L483.27 304.35L482.79 303.97L482.33 303.58L481.87 303.18L481.42 302.76L480.99 302.35L480.57 301.92L479.77 301.02L479.39 300.56L479 300.08L478.29 299.13L477.95 298.64L477.63 298.13L477.32 297.62L477.02 297.1L476.46 296.05L476.2 295.51L475.95 294.97L475.71 294.41L475.27 293.31L474.9 292.17L474.74 291.58L474.58 291L474.44 290.41L474.32 289.82L474.21 289.22L474.12 288.64L474.04 288.04L473.97 287.42L473.92 286.82L473.86 285.59L473.86 284.99L473.89 283.97L473.95 282.97L474.06 281.98L474.2 281.01L474.38 280.06L474.6 279.1L474.84 278.18L475.14 277.26L475.46 276.36L475.81 275.48L476.21 274.61L476.63 273.76L477.09 272.93L477.57 272.13L478.09 271.34L478.63 270.57L479.2 269.83L479.8 269.11L480.43 268.4L481.08 267.74L481.76 267.09L482.47 266.46L483.19 265.87L483.95 265.3L484.72 264.76L485.5 264.25L486.32 263.78L487.15 263.33L488 262.91L488.88 262.53L489.75 262.18L490.66 261.85L491.59 261.57L492.51 261.33L493.47 261.13L494.42 260.94L495.41 260.82L496.39 260.71L497.38 260.67L498.4 260.65L498.56 260.65L498.6 260.64L499.03 260.64L499.07 260.65L499.13 260.65L500.12 260.68L501.11 260.74L502.08 260.87L503.05 261L503.99 261.21L504.93 261.42L505.83 261.68L506.74 261.98L507.62 262.3L508.5 262.67L509.35 263.05L510.18 263.48L511 263.93L511.8 264.42L512.57 264.95L513.32 265.49L514.04 266.06L514.75 266.66L515.43 267.29L516.09 267.94L516.73 268.61L517.34 269.31L517.91 270.03L518.47 270.77L518.99 271.54L519.48 272.33L519.96 273.14L520.39 273.96L520.79 274.81L521.16 275.67L521.5 276.55L521.81 277.44L522.07 278.35L522.32 279.27L522.5 280.21L522.67 281.17L522.79 282.12L522.89 283.11L522.93 284.08L522.93 285.08L522.89 286.1L522.81 287.1L522.69 288.1L522.53 289.09L522.33 290.06L522.1 291.01L521.82 291.95L521.52 292.87L521.18 293.77L520.79 294.66L520.39 295.54L519.94 296.39L519.48 297.22L518.97 298.03L518.43 298.82L517.88 299.59L517.3 300.33L516.68 301.05L516.03 301.76L515.35 302.42L514.66 303.07L513.94 303.7L513.2 304.29L512.44 304.86L511.64 305.38L510.84 305.89L510.01 306.37L509.16 306.81L508.3 307.23L507.41 307.6L506.51 307.95L505.59 308.26L504.66 308.54L503.71 308.77L502.75 308.97L501.78 309.14L500.78 309.26L499.8 309.36L498.78 309.4L497.76 309.42L493.57 309.42L444.28 414.28L444.76 414.56L445.24 414.85L445.72 415.16L446.16 415.47L446.61 415.81L447.04 416.15L447.47 416.5L447.89 416.86L448.29 417.23L448.67 417.61L449.41 418.41L449.77 418.83L450.11 419.24L450.43 419.68L450.75 420.12L451.06 420.57L451.61 421.49L452.14 422.45L452.37 422.93L452.6 423.42L452.8 423.93L453 424.42L453.19 424.94L453.34 425.45L453.49 425.98L453.63 426.5L453.76 427.04L453.86 427.58L453.96 428.12L454.03 428.66L454.09 429.2L454.14 429.75L454.17 430.3L454.19 430.86L454.19 431.41L454.17 431.97L454.14 432.54L454.14 432.78L454.16 432.83L454.16 433.26L454.17 433.29L454.17 433.62L454.16 434.57L454.11 435.53L454.02 436.45L453.89 437.37L453.74 438.3L453.54 439.19L453.31 440.09L453.05 440.95L452.74 441.81L452.42 442.66L452.06 443.47L451.66 444.29L451.25 445.08L450.78 445.85L450.31 446.6L449.8 447.34L449.27 448.05L448.7 448.74L448.12 449.42L447.5 450.05L446.87 450.68L446.21 451.28L445.53 451.85L444.82 452.39L444.1 452.92L443.34 453.41L442.59 453.87L441.8 454.3L441 454.7L440.17 455.09L439.34 455.43L438.49 455.74L437.61 456.01L436.74 456.26L435.84 456.46L434.93 456.64L434.01 456.78L433.07 456.88L432.13 456.94L431.17 456.97L430.16 456.95L429.16 456.89L428.17 456.78L427.2 456.64L426.23 456.47L425.29 456.26L424.35 456.01L423.43 455.72L422.53 455.41L421.64 455.06L420.78 454.67L419.91 454.24L419.08 453.79L418.27 453.32L417.48 452.81L416.71 452.25L415.96 451.68L415.23 451.1L414.52 450.47L413.85 449.82L413.2 449.14L412.57 448.45L411.97 447.73L411.4 446.97L410.86 446.2L410.33 445.41L409.86 444.6L409.39 443.77L408.98 442.92L408.59 442.06L408.22 441.16L407.9 440.27L407.62 439.35L407.36 438.41L407.15 437.47L406.96 436.5L406.82 435.53L406.71 434.54L406.65 433.54L406.62 432.54L406.62 432.09L406.64 431.86L406.64 431.41L406.67 430.95L406.68 430.74L406.7 430.5L406.71 430.29L406.73 430.06L406.74 429.84L406.78 429.61L406.81 429.4L406.84 429.16L406.87 428.95L406.9 428.72L406.93 428.5L406.96 428.27L407.01 428.06L407.04 427.84L407.08 427.61L407.22 426.96L407.28 426.73L407.38 426.3L407.68 425.22L407.76 425.01L407.82 424.79L407.98 424.36L408.04 424.14L408.12 423.94L408.21 423.73L395.73 363.79L395.55 363.79L395.39 363.78L395.24 363.78L394.78 363.73L393.73 363.73L392.68 363.68L391.65 363.61L390.62 363.48L389.62 363.33L388.61 363.13L387.63 362.9L386.64 362.64L385.69 362.33L384.75 361.99L383.82 361.62L382.9 361.22L382.01 360.77L381.14 360.31L380.28 359.8L379.45 359.28L378.63 358.72L377.83 358.12L377.06 357.51L376.32 356.86L375.6 356.2L374.89 355.5L374.21 354.78L373.57 354.03L372.95 353.26L372.35 352.47L371.79 351.65L371.25 350.81L370.75 349.94L370.27 349.07L369.84 348.17L369.42 347.25L369.05 346.31L368.7 345.35L368.39 344.38L368.13 343.4L367.88 342.4L367.68 341.38L367.53 340.35L367.4 339.3L367.4 333.22L349.89 327.66L349.72 328.33L349.52 329L349.31 329.64L349.07 330.29L348.81 330.92L348.53 331.54L348.24 332.14L347.92 332.74L347.6 333.32L347.24 333.89L346.87 334.45L346.47 334.99L346.07 335.51L345.65 336.02L345.22 336.53L344.76 337.01L344.3 337.47L343.82 337.93L343.31 338.36L342.8 338.78L342.28 339.18L341.76 339.56L341.2 339.93L340.65 340.29L340.06 340.63L339.49 340.93L338.89 341.23L338.29 341.5L337.68 341.75L337.04 342L336.41 342.21L335.78 342.4L335.12 342.58L334.47 342.74L333.81 342.86L333.13 342.97L332.45 343.06L331.76 343.12L331.08 343.17L330.39 343.18L329.37 343.15L328.36 343.06L327.37 342.95L326.38 342.8L325.41 342.6L324.46 342.37L323.52 342.1L322.6 341.81L321.69 341.47L320.81 341.1L319.93 340.7L319.07 340.27L318.24 339.79L317.42 339.3L316.63 338.78L315.86 338.22L315.11 337.64L314.39 337.02L313.68 336.39L313 335.73L312.35 335.03L311.72 334.33L311.14 333.59L310.57 332.83L310.01 332.05L309.5 331.24L309.03 330.41L308.56 329.58L308.15 328.72L307.76 327.84L307.41 326.95L307.08 326.02L306.81 325.1L306.55 324.16L306.34 323.19L306.16 322.22L306.02 321.25L305.93 320.25L305.87 319.25L305.84 318.23L305.87 317L305.91 316.36L305.96 315.72L306.02 315.06L306.1 314.39L306.18 313.72L306.39 312.36L306.53 311.68L306.67 310.99L306.98 309.63L307.35 308.28L307.55 307.62L307.76 306.95L307.98 306.32L308.22 305.67L308.47 305.06L308.72 304.46L308.99 303.86L309.27 303.29L309.86 302.21L310.16 301.7L310.49 301.22L310.81 300.76L311.15 300.33L311.5 299.93L311.86 299.56L312.23 299.22L312.61 298.93L313 298.65L313.38 298.42L313.8 298.23L314.2 298.08L314.63 297.97L315.05 297.9L315.49 297.88L297.24 243.55L297.24 244.49L296.92 244.72L296.58 244.95L295.56 245.6L295.22 245.8L294.51 246.2L294.18 246.39L293.81 246.57L293.45 246.76L293.1 246.93L292.73 247.08L292.36 247.25L291.99 247.4L291.62 247.54L291.25 247.7L290.88 247.83L290.49 247.96L290.13 248.08L289.74 248.2L288.58 248.53L287.81 248.71L287.43 248.79L287.03 248.87L286.64 248.94L285.84 249.07L285.46 249.11L284.66 249.21L283.46 249.3L283.05 249.31L282.25 249.31L281.56 249.34L280.88 249.34L280.19 249.33L279.51 249.3L278.85 249.24L278.17 249.16L277.51 249.07L276.85 248.96L276.18 248.84L275.54 248.68L274.89 248.51L274.26 248.33L273.63 248.13L273 247.91L272.38 247.68L271.76 247.43L271.15 247.16L270.56 246.88L269.96 246.57L269.39 246.26L268.25 245.59L267.7 245.22L266.62 244.45L266.11 244.03L265.59 243.61L264.6 242.72L264.14 242.24L263.66 241.77L263.22 241.27L262.78 240.76L262.35 240.24L261.55 239.16L261.17 238.59L260.81 238.02L260.46 237.44L260.12 236.84L164.48 318.75L164.6 319.06L164.68 319.21L164.74 319.38L164.8 319.54L164.86 319.71L164.99 320.02L165.05 320.18L165.11 320.34L165.23 320.68L165.28 320.83L165.34 321L165.39 321.16L165.45 321.32L165.5 321.49L165.54 321.65L165.59 321.82L165.65 321.99L165.7 322.16L165.74 322.31L165.77 322.48L165.91 322.99L165.94 323.16L165.99 323.31L166.02 323.48L166.07 323.65L166.31 325.01L166.33 325.18L166.36 325.36L166.36 325.87L166.34 326.38L166.28 327.39L166.24 327.9L166.11 328.92L166.03 329.41L165.94 329.9L165.85 330.41L165.74 330.91L165.62 331.38L165.5 331.88L165.36 332.37L165.05 333.32L164.88 333.8L164.33 335.19L163.89 336.11L163.68 336.56L163.43 337.01L163.19 337.44L162.94 337.88L162.68 338.3L162.4 338.73L161.85 339.56L161.54 339.98L160.92 340.78L160.6 341.16L160.26 341.55L159.92 341.92L159.21 342.66L158.47 343.37L157.72 344.03L156.95 344.66L156.16 345.25L155.34 345.8L154.53 346.32L153.68 346.8L152.83 347.25L151.97 347.65L151.09 348.02L150.2 348.36L149.31 348.67L148.4 348.93L147.49 349.16L146.56 349.34L145.64 349.5L144.7 349.62L143.78 349.7L142.84 349.76L141.91 349.76L140.97 349.74L140.05 349.68L139.11 349.59L138.19 349.47L137.26 349.3L136.35 349.1L135.44 348.87L134.55 348.59L133.66 348.28L132.78 347.94L131.9 347.57L131.05 347.16L130.21 346.71L129.37 346.23L128.57 345.71L127.77 345.15L127 344.57L126.25 343.95L125.51 343.29L124.78 342.61L124.09 341.87L123.43 341.13L122.81 340.35L122.21 339.56L121.66 338.76L121.15 337.93L120.67 337.1L120.22 336.24L119.81 335.37L119.44 334.49L119.1 333.6L118.81 332.71L118.55 331.8L118.31 330.89L118.11 329.97L117.96 329.04L117.84 328.12L117.76 327.18L117.71 326.25L117.7 325.31L117.71 324.37L117.78 323.45L117.87 322.53L118.01 321.6L118.16 320.68L118.36 319.75L118.61 318.84L118.87 317.95L119.18 317.06L119.52 316.18L119.9 315.32L120.3 314.45L120.75 313.61L121.24 312.79L121.75 311.97L122.3 311.17L122.89 310.4L123.51 309.65L124.17 308.91L124.86 308.2L125.59 307.51L126.34 306.85L127.11 306.21L127.9 305.63L128.71 305.07L129.53 304.55L130.38 304.07L131.22 303.63L132.09 303.23L132.96 302.84L133.86 302.52L134.75 302.21L135.66 301.95L136.58 301.72L137.49 301.53L138.42 301.38L139.36 301.25L140.28 301.16L141.22 301.12L142.14 301.1L143.08 301.13L144.01 301.19L144.95 301.28L145.87 301.41L146.8 301.58L147.7 301.78L148.61 302.01L149.51 302.29L150.4 302.58L151.28 302.93L152.16 303.3L153 303.72L153.85 304.17L154.68 304.64L155.48 305.17L156.28 305.71L157.05 306.31L157.82 306.92L158.55 307.57L159.27 308.26L159.97 308.99L258.66 225.1L258.66 224.47L258.67 223.45L258.73 222.45L258.84 221.46L258.98 220.48L259.16 219.52L259.38 218.57L259.64 217.63L259.92 216.7L260.24 215.8L260.6 214.92L261 214.04L261.41 213.19L261.88 212.35L262.35 211.54L262.86 210.74L263.42 209.97L263.99 209.22L264.59 208.49L265.2 207.79L265.86 207.11L266.54 206.45L267.24 205.81L267.97 205.21L268.71 204.64L269.48 204.09L270.29 203.58L271.09 203.09L271.93 202.63L272.78 202.21L273.64 201.81L274.54 201.46L275.45 201.13L276.37 200.84L277.29 200.58L278.25 200.36L279.22 200.18L280.19 200.02L281.18 199.91L282.18 199.85L283.19 199.82L284.39 199.82L285.38 199.88L286.35 199.98ZM427.46 419.66L425.66 420.32L424 421.23L422.47 422.36L421.13 423.68L419.98 425.19L419.05 426.84L418.34 428.63L417.91 430.54L417.74 432.54L417.88 434.54L418.28 436.45L418.96 438.25L419.87 439.92L420.99 441.44L422.32 442.8L423.81 443.95L425.48 444.91L427.26 445.62L429.17 446.09L431.17 446.28L433.18 446.12L435.1 445.69L436.92 445L438.6 444.07L440.11 442.93L441.46 441.58L442.6 440.07L443.53 438.39L444.22 436.57L444.65 434.65L444.81 432.65L444.65 430.66L444.24 428.75L443.56 426.96L442.65 425.31L441.51 423.8L440.19 422.46L438.69 421.32L437.04 420.4L435.26 419.71L433.36 419.28L431.37 419.11L429.37 419.24L427.46 419.66ZM395.73 363.79L395.85 363.81L396.01 363.81L396.16 363.82L396.47 363.82L396.64 363.84L396.95 363.84L397.1 363.85L398.3 363.85L398.2 363.84L398 363.84L397.9 363.82L397.8 363.82L397.69 363.81L397.59 363.81L397.49 363.79L397.38 363.79L397.29 363.78L397.18 363.78L397.07 363.76L396.98 363.75L396.87 363.73L395.72 363.73L395.73 363.79ZM400.35 363.78L400.2 363.79L400.04 363.79L399.89 363.81L399.72 363.81L399.57 363.82L399.26 363.82L399.1 363.84L398.8 363.84L398.64 363.85L399.54 363.85L399.64 363.84L399.84 363.84L399.94 363.82L400.04 363.82L400.15 363.81L400.24 363.81L400.35 363.79L400.46 363.79L400.55 363.78L400.66 363.78L400.77 363.76L400.86 363.75L400.97 363.73L400.51 363.78L400.35 363.78ZM393.57 325.65L391.77 326.36L390.11 327.3L388.6 328.46L387.26 329.81L386.12 331.34L385.2 333.02L384.52 334.83L384.1 336.76L383.98 338.78L384.13 340.73L384.55 342.6L385.21 344.35L386.1 345.99L387.2 347.48L388.48 348.8L389.94 349.96L391.54 350.9L393.28 351.62L395.15 352.09L397.09 352.3L397.13 352.3L397.19 352.32L397.7 352.32L399.72 352.15L401.63 351.72L403.45 351.01L405.11 350.07L406.62 348.91L407.96 347.56L409.1 346.03L410.01 344.34L410.69 342.54L411.1 340.61L411.24 338.59L411.07 336.57L410.64 334.65L409.93 332.85L408.99 331.18L407.84 329.67L406.48 328.33L404.96 327.19L403.26 326.27L401.46 325.59L399.54 325.18L397.52 325.05L395.5 325.21L393.57 325.65ZM138.94 312.27L137.12 312.88L135.43 313.73L133.87 314.81L132.49 316.1L131.28 317.57L130.3 319.18L129.54 320.96L129.05 322.85L128.82 324.84L128.9 326.84L129.25 328.76L129.87 330.58L130.71 332.28L131.79 333.83L133.07 335.22L134.55 336.42L136.17 337.41L137.94 338.16L139.83 338.65L141.82 338.88L142.13 338.88L144.15 338.75L146.07 338.33L147.89 337.65L149.57 336.74L151.11 335.6L152.46 334.28L153.62 332.75L154.56 331.09L155.27 329.29L155.71 327.36L155.87 325.36L155.73 323.4L155.33 321.54L154.67 319.78L153.79 318.15L152.71 316.67L151.43 315.33L149.98 314.19L148.38 313.25L146.66 312.53L144.81 312.05L142.87 311.85L140.87 311.91L138.94 312.27ZM326.68 305.63L324.88 306.29L323.2 307.18L321.67 308.29L320.32 309.6L319.15 311.1L318.21 312.74L317.5 314.53L317.03 316.44L316.87 318.43L316.97 320.43L317.37 322.34L318.04 324.16L318.93 325.84L320.05 327.36L321.36 328.72L322.87 329.87L324.54 330.83L326.34 331.54L328.25 332L330.28 332.17L332.27 332.03L334.16 331.61L335.95 330.94L337.6 330.04L339.12 328.92L340.46 327.61L341.6 326.13L342.56 324.48L343.27 322.71L343.73 320.83L343.91 318.84L343.79 316.84L343.41 314.93L342.74 313.13L341.85 311.45L340.73 309.93L339.42 308.57L337.92 307.42L336.27 306.46L334.49 305.75L332.59 305.29L330.59 305.12L328.6 305.23L326.68 305.63ZM354.76 321.02L354.5 322.09L354.19 323.16L354.4 323.16L354.67 322.09L354.87 321.02L355.02 319.94L355.13 318.84L354.97 319.94L354.76 321.02ZM495.53 272.51L493.71 273.13L492.02 273.99L490.46 275.07L489.08 276.35L487.87 277.81L486.89 279.43L486.13 281.2L485.64 283.09L485.41 285.08L485.47 287.08L485.83 289.01L486.44 290.83L487.29 292.54L488.37 294.08L489.66 295.46L491.12 296.66L492.74 297.65L494.51 298.4L496.41 298.91L498.4 299.13L498.4 298.71L498.63 298.71L498.66 298.73L498.83 298.73L500.83 298.57L502.75 298.14L504.57 297.45L506.24 296.53L507.76 295.37L509.1 294.03L510.26 292.5L511.18 290.83L511.87 289.02L512.3 287.1L512.44 285.08L512.24 283.2L511.78 281.4L511.1 279.7L510.19 278.13L509.1 276.7L507.84 275.44L506.4 274.34L504.83 273.45L503.14 272.76L501.35 272.31L499.46 272.1L497.46 272.17L495.53 272.51ZM279.9 211.68L278.08 212.3L276.39 213.16L274.83 214.24L273.44 215.52L272.24 216.98L271.26 218.61L270.5 220.39L270.01 222.27L269.78 224.27L269.85 226.27L270.19 228.18L270.81 230.01L271.67 231.71L272.75 233.26L274.03 234.65L275.49 235.84L277.12 236.82L278.9 237.58L280.78 238.08L282.78 238.3L283.41 238.3L285.41 238.13L287.34 237.67L289.12 236.94L290.79 235.99L292.3 234.82L293.62 233.46L294.75 231.92L295.64 230.23L296.3 228.41L296.7 226.49L296.83 224.47L296.64 222.56L296.21 220.72L295.53 219.01L294.64 217.41L293.54 215.97L292.28 214.67L290.85 213.56L289.26 212.64L287.55 211.94L285.74 211.48L283.82 211.27L281.82 211.34L279.9 211.68Z" id="b38w1HgSJm"></path><path d="M283.3 243.86C272.64 243.86 264 235.27 264 224.67C264 214.07 272.64 205.48 283.3 205.48C293.95 205.48 302.59 214.07 302.59 224.67C302.59 235.27 293.95 243.86 283.3 243.86Z" id="eGJxlToDs"></path><path d="M283.3 243.86C272.64 243.86 264 235.27 264 224.67C264 214.07 272.64 205.48 283.3 205.48C293.95 205.48 302.59 214.07 302.59 224.67C302.59 235.27 293.95 243.86 283.3 243.86Z" id="c6VuXgOmcp"></path></defs><g><g><g><use xlink:href="#czeVLWHh9" opacity="1" fill="#ffffff" fill-opacity="1"></use><g><use xlink:href="#czeVLWHh9" opacity="1" fill-opacity="0" stroke="#000000" stroke-width="1" stroke-opacity="0"></use></g></g><g><use xlink:href="#awsiCK7hp" opacity="1" fill="#000000" fill-opacity="0"></use><g><use xlink:href="#awsiCK7hp" opacity="1" fill-opacity="0" stroke="#000000" stroke-width="1" stroke-opacity="0"></use></g></g><g><use xlink:href="#a3PK0ll2HM" opacity="1" fill="#ffffff" fill-opacity="1"></use><g><use xlink:href="#a3PK0ll2HM" opacity="1" fill-opacity="0" stroke="#000000" stroke-width="1" stroke-opacity="0"></use></g></g><g><use xlink:href="#bfuQBmsLe" opacity="1" fill="#000000" fill-opacity="0"></use><g><use xlink:href="#bfuQBmsLe" opacity="1" fill-opacity="0" stroke="#000000" stroke-width="1" stroke-opacity="0"></use></g></g><g><use xlink:href="#b2UxnEgtWi" opacity="1" fill="#ecc01b" fill-opacity="1"></use><g><use xlink:href="#b2UxnEgtWi" opacity="1" fill-opacity="0" stroke="#000000" stroke-width="1" stroke-opacity="0"></use></g></g><g><use xlink:href="#b6tPzmgv6" opacity="1" fill="#000000" fill-opacity="0"></use><g><use xlink:href="#b6tPzmgv6" opacity="1" fill-opacity="0" stroke="#000000" stroke-width="1" stroke-opacity="0"></use></g></g><g><use xlink:href="#c281CA511L" opacity="1" fill="#ffffff" fill-opacity="1"></use><g><use xlink:href="#c281CA511L" opacity="1" fill-opacity="0" stroke="#000000" stroke-width="1" stroke-opacity="0"></use></g></g><g><use xlink:href="#kLi3mZ7Bv" opacity="1" fill="#000000" fill-opacity="0"></use><g><use xlink:href="#kLi3mZ7Bv" opacity="1" fill-opacity="0" stroke="#000000" stroke-width="1" stroke-opacity="0"></use></g></g><g><use xlink:href="#d6m3jvyKb" opacity="1" fill="#ffffff" fill-opacity="1"></use><g><use xlink:href="#d6m3jvyKb" opacity="1" fill-opacity="0" stroke="#000000" stroke-width="1" stroke-opacity="0"></use></g></g><g><use xlink:href="#a8MUvEDaP" opacity="1" fill="#000000" fill-opacity="0"></use><g><use xlink:href="#a8MUvEDaP" opacity="1" fill-opacity="0" stroke="#000000" stroke-width="1" stroke-opacity="0"></use></g></g><g><use xlink:href="#bacNqtCCB" opacity="1" fill="#ffffff" fill-opacity="1"></use><g><use xlink:href="#bacNqtCCB" opacity="1" fill-opacity="0" stroke="#000000" stroke-width="1" stroke-opacity="0"></use></g></g><g><use xlink:href="#g18Vx7LDkE" opacity="1" fill="#000000" fill-opacity="0"></use><g><use xlink:href="#g18Vx7LDkE" opacity="1" fill-opacity="0" stroke="#000000" stroke-width="1" stroke-opacity="0"></use></g></g><g><use xlink:href="#b4O7PbtVXH" opacity="1" fill="#ffffff" fill-opacity="1"></use><g><use xlink:href="#b4O7PbtVXH" opacity="1" fill-opacity="0" stroke="#000000" stroke-width="1" stroke-opacity="0"></use></g></g><g><use xlink:href="#brPQBdYAD" opacity="1" fill="#000000" fill-opacity="0"></use><g><use xlink:href="#brPQBdYAD" opacity="1" fill-opacity="0" stroke="#000000" stroke-width="1" stroke-opacity="0"></use></g></g><g><use xlink:href="#aAtPB0Xh" opacity="1" fill="#ffffff" fill-opacity="1"></use><g><use xlink:href="#aAtPB0Xh" opacity="1" fill-opacity="0" stroke="#000000" stroke-width="1" stroke-opacity="0"></use></g></g><g><use xlink:href="#fef1kLg2o" opacity="1" fill="#000000" fill-opacity="0"></use><g><use xlink:href="#fef1kLg2o" opacity="1" fill-opacity="0" stroke="#000000" stroke-width="1" stroke-opacity="0"></use></g></g><g><use xlink:href="#aRDf4FvNQ" opacity="1" fill="#ffffff" fill-opacity="1"></use><g><use xlink:href="#aRDf4FvNQ" opacity="1" fill-opacity="0" stroke="#000000" stroke-width="1" stroke-opacity="0"></use></g></g><g><use xlink:href="#b38w1HgSJm" opacity="1" fill="#000000" fill-opacity="0"></use><g><use xlink:href="#b38w1HgSJm" opacity="1" fill-opacity="0" stroke="#000000" stroke-width="1" stroke-opacity="0"></use></g></g><g><use xlink:href="#eGJxlToDs" opacity="1" fill="#ffffff" fill-opacity="1"></use><g><use xlink:href="#eGJxlToDs" opacity="1" fill-opacity="0" stroke="#000000" stroke-width="1" stroke-opacity="0"></use></g></g><g><use xlink:href="#c6VuXgOmcp" opacity="1" fill="#000000" fill-opacity="0"></use><g><use xlink:href="#c6VuXgOmcp" opacity="1" fill-opacity="0" stroke="#000000" stroke-width="1" stroke-opacity="0"></use></g></g></g></g></svg>