<?xml version="1.0" encoding="UTF-8" standalone="no"?>
<!DOCTYPE svg PUBLIC "-//W3C//DTD SVG 1.1//EN" "http://www.w3.org/Graphics/SVG/1.1/DTD/svg11.dtd">
<svg version="1.1" xmlns="http://www.w3.org/2000/svg" xmlns:xlink="http://www.w3.org/1999/xlink" preserveAspectRatio="xMidYMid meet" viewBox="0 0 640 640" width="640" height="640"><defs><path d="M323.6 636.22C148.86 636.22 7.21 494.79 7.21 320.35C7.21 145.89 148.86 4.48 323.6 4.48C498.35 4.48 640 145.89 640 320.35C640 494.79 498.35 636.22 323.6 636.22Z" id="a6OLWdZpuX"></path><path d="M323.6 636.22C148.86 636.22 7.21 494.79 7.21 320.35C7.21 145.89 148.86 4.48 323.6 4.48C498.35 4.48 640 145.89 640 320.35C640 494.79 498.35 636.22 323.6 636.22Z" id="a4QFloDht"></path><path d="M383.65 377.88L447.89 377.88L410 339.97L426.27 323.71L491.88 389.42L426.27 455.03L410 438.75L447.89 400.86L383.65 400.86L383.65 492.92L153.54 492.92L153.54 147.77L291.58 147.77L383.65 239.82L383.65 377.88ZM176.54 469.94L360.56 469.94L360.56 400.86L280.03 400.86L280.03 377.88L360.56 377.88L360.56 251.28L280.03 251.28L280.03 170.75L176.54 170.75L176.54 469.94Z" id="g1HENU1ljC"></path><path d="M383.65 377.88L447.89 377.88L410 339.97L426.27 323.71L491.88 389.42L426.27 455.03L410 438.75L447.89 400.86L383.65 400.86L383.65 492.92L153.54 492.92L153.54 147.77L291.58 147.77L383.65 239.82L383.65 377.88ZM176.54 469.94L360.56 469.94L360.56 400.86L280.03 400.86L280.03 377.88L360.56 377.88L360.56 251.28L280.03 251.28L280.03 170.75L176.54 170.75L176.54 469.94Z" id="a2bB1S8iXq"></path></defs><g><g><g><use xlink:href="#a6OLWdZpuX" opacity="1" fill="#ecc01b" fill-opacity="1"></use><g><use xlink:href="#a6OLWdZpuX" opacity="1" fill-opacity="0" stroke="#000000" stroke-width="1" stroke-opacity="0"></use></g></g><g><use xlink:href="#a4QFloDht" opacity="1" fill="#000000" fill-opacity="0"></use><g><use xlink:href="#a4QFloDht" opacity="1" fill-opacity="0" stroke="#000000" stroke-width="1" stroke-opacity="0"></use></g></g><g><use xlink:href="#g1HENU1ljC" opacity="1" fill="#ffffff" fill-opacity="1"></use><g><use xlink:href="#g1HENU1ljC" opacity="1" fill-opacity="0" stroke="#000000" stroke-width="1" stroke-opacity="0"></use></g></g><g><use xlink:href="#a2bB1S8iXq" opacity="1" fill="#000000" fill-opacity="0"></use><g><use xlink:href="#a2bB1S8iXq" opacity="1" fill-opacity="0" stroke="#000000" stroke-width="1" stroke-opacity="0"></use></g></g></g></g></svg>