<?xml version="1.0" encoding="UTF-8" standalone="no"?>
<!DOCTYPE svg PUBLIC "-//W3C//DTD SVG 1.1//EN" "http://www.w3.org/Graphics/SVG/1.1/DTD/svg11.dtd">
<svg version="1.1" xmlns="http://www.w3.org/2000/svg" xmlns:xlink="http://www.w3.org/1999/xlink" preserveAspectRatio="xMidYMid meet" viewBox="0 0 640 640" width="640" height="640"><defs><path d="M241.92 260.82L242.39 261.24L242.84 261.67L243.3 262.1L243.75 262.53L244.18 262.98L244.62 263.42L245.5 264.33L245.92 264.8L246.34 265.25L246.76 265.72L247.17 266.18L247.59 266.65L247.99 267.14L248.38 267.61L248.79 268.09L249.18 268.59L249.57 269.07L249.94 269.57L250.32 270.06L250.69 270.57L251.07 271.07L251.43 271.57L252.5 273.12L252.85 273.63L253.19 274.16L253.52 274.69L253.86 275.22L254.19 275.75L254.5 276.28L254.83 276.83L255.14 277.38L255.44 277.91L255.75 278.47L256.34 279.56L256.91 280.69L283.47 281.53L289.75 317.88L263.29 328.51L263.23 328.78L263.18 329.04L263.12 329.32L263.07 329.59L262.95 330.12L262.9 330.4L262.71 331.2L262.65 331.48L262.46 332.27L262.38 332.54L262.26 333.07L262.18 333.33L262.12 333.6L262.04 333.87L261.96 334.15L261.9 334.41L261.82 334.68L261.75 334.93L261.2 336.78L261.11 337.05L261.03 337.3L260.95 337.56L260.86 337.83L260.78 338.1L260.68 338.36L260.59 338.61L260.51 338.88L260.23 339.67L260.12 339.94L260.03 340.2L259.93 340.45L259.83 340.72L259.73 340.98L259.62 341.25L259.53 341.51L259.42 341.78L259.31 342.03L259.2 342.29L259.11 342.56L259 342.82L258.89 343.07L258.67 343.6L258.55 343.85L258.44 344.12L258.33 344.37L258.22 344.64L258.09 344.88L257.98 345.15L257.86 345.4L257.73 345.67L257.62 345.92L257.5 346.16L257.37 346.43L257.25 346.68L257.14 346.93L257.02 347.18L256.89 347.44L256.75 347.69L256.38 348.44L256.24 348.69L255.99 349.19L255.84 349.44L269.13 375.7L241.72 398.97L220.99 381.43L220.43 381.66L219.85 381.89L218.73 382.33L216.99 382.94L215.26 383.5L214.68 383.67L214.09 383.84L213.51 384.02L212.33 384.33L211.75 384.47L209.97 384.89L209.38 385.02L208.78 385.12L208.18 385.25L207.58 385.36L206.99 385.45L206.38 385.55L205.79 385.64L205.18 385.73L204.59 385.81L203.98 385.89L202.76 386.01L202.17 386.08L200.95 386.17L200.34 386.2L199.73 386.25L199.12 386.26L198.51 386.3L197.3 386.33L183.37 408.96L150.84 396.32L154.36 369.64L153.89 369.22L152.53 367.95L152.08 367.52L150.77 366.21L150.33 365.75L149.06 364.4L148.66 363.93L148.24 363.46L147.83 362.99L147.44 362.52L147.04 362.05L146.25 361.09L145.88 360.6L145.49 360.1L145.12 359.62L144.76 359.12L144.38 358.62L144.02 358.12L143.66 357.61L143.32 357.11L142.96 356.59L142.62 356.08L142.29 355.55L141.95 355.03L141.29 353.97L140.67 352.91L140.35 352.36L140.04 351.83L139.15 350.19L112.59 349.33L106.33 313L132.78 302.37L132.83 302.1L132.89 301.82L132.94 301.55L133 301.29L133.05 301.01L133.24 300.21L133.3 299.93L133.61 298.6L133.67 298.32L133.75 298.06L133.81 297.79L133.89 297.53L133.95 297.26L134.03 297L134.1 296.73L134.25 296.2L134.31 295.94L134.63 294.87L134.7 294.62L134.8 294.36L134.95 293.83L135.05 293.56L135.13 293.3L135.2 293.05L135.39 292.52L135.47 292.25L135.56 292L135.66 291.74L135.75 291.46L135.84 291.19L135.94 290.91L136.03 290.64L136.14 290.38L136.23 290.1L136.33 289.83L136.44 289.55L136.53 289.29L136.64 289.02L136.75 288.74L136.86 288.47L136.95 288.21L137.06 287.94L137.17 287.66L137.39 287.13L137.51 286.87L137.84 286.07L137.97 285.81L138.08 285.54L138.2 285.27L138.31 285.01L138.56 284.48L138.68 284.23L139.06 283.43L139.18 283.18L139.43 282.65L139.56 282.4L139.7 282.14L139.82 281.89L139.95 281.62L140.09 281.37L140.21 281.11L127.04 254.76L154.46 231.49L175.18 248.38L175.76 248.14L176.88 247.7L178.03 247.27L178.6 247.06L179.17 246.88L179.75 246.67L180.33 246.49L180.91 246.31L181.5 246.13L182.08 245.96L182.67 245.8L183.25 245.64L184.43 245.33L185.62 245.05L187.4 244.68L188.59 244.46L189.19 244.35L189.79 244.25L190.4 244.16L190.99 244.08L192.21 243.93L192.8 243.85L193.41 243.79L195.84 243.6L197.06 243.54L198.89 243.49L212.81 220.86L245.43 234.14L241.92 260.82ZM201.85 249.65L198.67 249.65L197.03 249.7L195.94 249.76L195.39 249.81L194.85 249.84L194.3 249.89L193.75 249.95L193.22 250.01L192.13 250.14L191.6 250.22L191.05 250.29L190.52 250.37L189.98 250.47L189.44 250.56L188.9 250.65L187.84 250.87L187.31 251L186.76 251.11L186.23 251.23L185.71 251.36L184.12 251.78L183.61 251.93L183.08 252.09L182.56 252.25L182.03 252.42L181.52 252.57L181 252.76L180.49 252.93L179.45 253.31L178.94 253.51L178.42 253.7L177.93 253.9L177.41 254.12L174.34 255.38L171.79 253.26L154.67 238.81L134.8 255.71L145.43 277.5L146.91 280.47L145.32 283.45L145.21 283.67L145.08 283.9L144.96 284.12L144.85 284.35L144.72 284.59L144.62 284.81L144.49 285.04L144.38 285.27L144.27 285.49L144.16 285.73L144.04 285.96L143.93 286.18L143.49 287.12L143.4 287.35L143.07 288.05L142.98 288.29L142.87 288.52L142.77 288.76L142.66 288.99L142.48 289.46L142.37 289.69L142.18 290.16L142.09 290.41L141.81 291.11L141.71 291.36L141.53 291.83L141.45 292.08L141.35 292.31L141.26 292.56L141.18 292.8L141.09 293.05L141.01 293.28L140.93 293.53L140.85 293.77L140.76 294.02L140.68 294.25L140.53 294.75L140.45 294.98L140.39 295.23L140.31 295.48L140.23 295.72L140.15 295.97L140.09 296.22L140.01 296.47L139.95 296.7L139.87 296.95L139.81 297.2L139.73 297.45L139.67 297.7L139.61 297.93L139.04 300.18L139 300.43L138.93 300.68L138.89 300.93L138.82 301.18L138.78 301.43L138.72 301.68L138.53 302.68L137.89 306.08L134.91 307.36L113.01 316.49L117.16 343.81L139.15 344.45L142.45 344.45L144.05 347.52L144.3 348.04L144.57 348.55L144.83 349.05L145.68 350.55L145.96 351.03L146.25 351.53L147.14 352.99L147.46 353.47L148.08 354.41L148.41 354.89L148.74 355.36L149.06 355.81L149.39 356.28L150.77 358.09L151.12 358.54L151.84 359.42L152.59 360.29L152.97 360.71L153.34 361.15L153.72 361.57L154.11 361.98L154.5 362.4L154.89 362.8L155.29 363.23L155.7 363.63L156.1 364.02L156.51 364.43L156.92 364.82L157.76 365.6L160.1 367.72L160.1 371.01L157.23 392.27L181.14 401.51L192.83 382.92L194.53 380.05L197.72 380.05L199.36 380L200.45 379.94L202.63 379.76L203.16 379.69L204.26 379.57L204.79 379.49L205.33 379.41L205.88 379.32L206.41 379.24L206.94 379.15L207.49 379.04L208.02 378.94L208.55 378.83L209.08 378.71L209.63 378.6L210.16 378.48L210.69 378.33L211.2 378.21L211.73 378.07L212.26 377.91L212.78 377.77L213.31 377.62L213.83 377.46L214.36 377.29L215.9 376.77L216.93 376.4L217.96 375.99L218.46 375.79L218.98 375.59L222.05 374.31L224.6 376.43L241.72 390.88L261.59 374.2L251.07 351.36L249.57 348.38L251.18 345.4L251.29 345.18L251.41 344.95L251.54 344.73L251.65 344.49L251.77 344.28L251.99 343.81L252.11 343.59L252.33 343.12L252.44 342.9L252.57 342.67L252.89 341.97L252.99 341.73L253.1 341.51L253.32 341.05L253.41 340.81L253.63 340.34L253.72 340.11L253.83 339.87L253.92 339.62L254.02 339.39L254.13 339.16L254.41 338.45L254.5 338.2L254.69 337.74L254.78 337.49L254.97 337.02L255.05 336.77L255.24 336.3L255.31 336.05L255.39 335.82L255.49 335.57L255.56 335.33L255.72 334.83L255.81 334.6L255.89 334.35L255.97 334.11L256.03 333.87L256.11 333.62L256.19 333.38L256.34 332.88L256.41 332.63L256.48 332.4L256.55 332.15L256.63 331.9L256.69 331.65L256.77 331.41L257.39 328.92L257.44 328.68L257.56 328.18L257.61 327.92L257.67 327.67L257.76 327.17L257.83 326.92L257.97 326.17L258.61 322.77L261.59 321.49L283.47 312.36L278.91 285.99L256.91 285.35L253.61 285.35L252.02 282.28L251.76 281.76L250.96 280.26L250.12 278.77L249.52 277.8L249.23 277.3L248.91 276.83L248.62 276.35L248.31 275.86L247.98 275.39L247.67 274.93L247.01 273.99L246.67 273.54L246.34 273.07L245.65 272.16L245.29 271.71L244.93 271.27L244.59 270.84L244.22 270.38L243.86 269.95L243.48 269.53L243.11 269.09L242.73 268.67L242.34 268.25L241.97 267.82L241.58 267.4L241.17 267L240.78 266.59L239.97 265.78L239.56 265.39L239.14 264.98L238.74 264.59L238.32 264.22L235.97 262.08L235.97 258.79L238.85 237.54L214.93 228.29L203.55 246.78L201.85 249.65Z" id="fwJ9Uq5nl"></path><path d="M241.92 260.82L242.39 261.24L242.84 261.67L243.3 262.1L243.75 262.53L244.18 262.98L244.62 263.42L245.5 264.33L245.92 264.8L246.34 265.25L246.76 265.72L247.17 266.18L247.59 266.65L247.99 267.14L248.38 267.61L248.79 268.09L249.18 268.59L249.57 269.07L249.94 269.57L250.32 270.06L250.69 270.57L251.07 271.07L251.43 271.57L252.5 273.12L252.85 273.63L253.19 274.16L253.52 274.69L253.86 275.22L254.19 275.75L254.5 276.28L254.83 276.83L255.14 277.38L255.44 277.91L255.75 278.47L256.34 279.56L256.91 280.69L283.47 281.53L289.75 317.88L263.29 328.51L263.23 328.78L263.18 329.04L263.12 329.32L263.07 329.59L262.95 330.12L262.9 330.4L262.71 331.2L262.65 331.48L262.46 332.27L262.38 332.54L262.26 333.07L262.18 333.33L262.12 333.6L262.04 333.87L261.96 334.15L261.9 334.41L261.82 334.68L261.75 334.93L261.2 336.78L261.11 337.05L261.03 337.3L260.95 337.56L260.86 337.83L260.78 338.1L260.68 338.36L260.59 338.61L260.51 338.88L260.23 339.67L260.12 339.94L260.03 340.2L259.93 340.45L259.83 340.72L259.73 340.98L259.62 341.25L259.53 341.51L259.42 341.78L259.31 342.03L259.2 342.29L259.11 342.56L259 342.82L258.89 343.07L258.67 343.6L258.55 343.85L258.44 344.12L258.33 344.37L258.22 344.64L258.09 344.88L257.98 345.15L257.86 345.4L257.73 345.67L257.62 345.92L257.5 346.16L257.37 346.43L257.25 346.68L257.14 346.93L257.02 347.18L256.89 347.44L256.75 347.69L256.38 348.44L256.24 348.69L255.99 349.19L255.84 349.44L269.13 375.7L241.72 398.97L220.99 381.43L220.43 381.66L219.85 381.89L218.73 382.33L216.99 382.94L215.26 383.5L214.68 383.67L214.09 383.84L213.51 384.02L212.33 384.33L211.75 384.47L209.97 384.89L209.38 385.02L208.78 385.12L208.18 385.25L207.58 385.36L206.99 385.45L206.38 385.55L205.79 385.64L205.18 385.73L204.59 385.81L203.98 385.89L202.76 386.01L202.17 386.08L200.95 386.17L200.34 386.2L199.73 386.25L199.12 386.26L198.51 386.3L197.3 386.33L183.37 408.96L150.84 396.32L154.36 369.64L153.89 369.22L152.53 367.95L152.08 367.52L150.77 366.21L150.33 365.75L149.06 364.4L148.66 363.93L148.24 363.46L147.83 362.99L147.44 362.52L147.04 362.05L146.25 361.09L145.88 360.6L145.49 360.1L145.12 359.62L144.76 359.12L144.38 358.62L144.02 358.12L143.66 357.61L143.32 357.11L142.96 356.59L142.62 356.08L142.29 355.55L141.95 355.03L141.29 353.97L140.67 352.91L140.35 352.36L140.04 351.83L139.15 350.19L112.59 349.33L106.33 313L132.78 302.37L132.83 302.1L132.89 301.82L132.94 301.55L133 301.29L133.05 301.01L133.24 300.21L133.3 299.93L133.61 298.6L133.67 298.32L133.75 298.06L133.81 297.79L133.89 297.53L133.95 297.26L134.03 297L134.1 296.73L134.25 296.2L134.31 295.94L134.63 294.87L134.7 294.62L134.8 294.36L134.95 293.83L135.05 293.56L135.13 293.3L135.2 293.05L135.39 292.52L135.47 292.25L135.56 292L135.66 291.74L135.75 291.46L135.84 291.19L135.94 290.91L136.03 290.64L136.14 290.38L136.23 290.1L136.33 289.83L136.44 289.55L136.53 289.29L136.64 289.02L136.75 288.74L136.86 288.47L136.95 288.21L137.06 287.94L137.17 287.66L137.39 287.13L137.51 286.87L137.84 286.07L137.97 285.81L138.08 285.54L138.2 285.27L138.31 285.01L138.56 284.48L138.68 284.23L139.06 283.43L139.18 283.18L139.43 282.65L139.56 282.4L139.7 282.14L139.82 281.89L139.95 281.62L140.09 281.37L140.21 281.11L127.04 254.76L154.46 231.49L175.18 248.38L175.76 248.14L176.88 247.7L178.03 247.27L178.6 247.06L179.17 246.88L179.75 246.67L180.33 246.49L180.91 246.31L181.5 246.13L182.08 245.96L182.67 245.8L183.25 245.64L184.43 245.33L185.62 245.05L187.4 244.68L188.59 244.46L189.19 244.35L189.79 244.25L190.4 244.16L190.99 244.08L192.21 243.93L192.8 243.85L193.41 243.79L195.84 243.6L197.06 243.54L198.89 243.49L212.81 220.86L245.43 234.14L241.92 260.82ZM201.85 249.65L198.67 249.65L197.03 249.7L195.94 249.76L195.39 249.81L194.85 249.84L194.3 249.89L193.75 249.95L193.22 250.01L192.13 250.14L191.6 250.22L191.05 250.29L190.52 250.37L189.98 250.47L189.44 250.56L188.9 250.65L187.84 250.87L187.31 251L186.76 251.11L186.23 251.23L185.71 251.36L184.12 251.78L183.61 251.93L183.08 252.09L182.56 252.25L182.03 252.42L181.52 252.57L181 252.76L180.49 252.93L179.45 253.31L178.94 253.51L178.42 253.7L177.93 253.9L177.41 254.12L174.34 255.38L171.79 253.26L154.67 238.81L134.8 255.71L145.43 277.5L146.91 280.47L145.32 283.45L145.21 283.67L145.08 283.9L144.96 284.12L144.85 284.35L144.72 284.59L144.62 284.81L144.49 285.04L144.38 285.27L144.27 285.49L144.16 285.73L144.04 285.96L143.93 286.18L143.49 287.12L143.4 287.35L143.07 288.05L142.98 288.29L142.87 288.52L142.77 288.76L142.66 288.99L142.48 289.46L142.37 289.69L142.18 290.16L142.09 290.41L141.81 291.11L141.71 291.36L141.53 291.83L141.45 292.08L141.35 292.31L141.26 292.56L141.18 292.8L141.09 293.05L141.01 293.28L140.93 293.53L140.85 293.77L140.76 294.02L140.68 294.25L140.53 294.75L140.45 294.98L140.39 295.23L140.31 295.48L140.23 295.72L140.15 295.97L140.09 296.22L140.01 296.47L139.95 296.7L139.87 296.95L139.81 297.2L139.73 297.45L139.67 297.7L139.61 297.93L139.04 300.18L139 300.43L138.93 300.68L138.89 300.93L138.82 301.18L138.78 301.43L138.72 301.68L138.53 302.68L137.89 306.08L134.91 307.36L113.01 316.49L117.16 343.81L139.15 344.45L142.45 344.45L144.05 347.52L144.3 348.04L144.57 348.55L144.83 349.05L145.68 350.55L145.96 351.03L146.25 351.53L147.14 352.99L147.46 353.47L148.08 354.41L148.41 354.89L148.74 355.36L149.06 355.81L149.39 356.28L150.77 358.09L151.12 358.54L151.84 359.42L152.59 360.29L152.97 360.71L153.34 361.15L153.72 361.57L154.11 361.98L154.5 362.4L154.89 362.8L155.29 363.23L155.7 363.63L156.1 364.02L156.51 364.43L156.92 364.82L157.76 365.6L160.1 367.72L160.1 371.01L157.23 392.27L181.14 401.51L192.83 382.92L194.53 380.05L197.72 380.05L199.36 380L200.45 379.94L202.63 379.76L203.16 379.69L204.26 379.57L204.79 379.49L205.33 379.41L205.88 379.32L206.41 379.24L206.94 379.15L207.49 379.04L208.02 378.94L208.55 378.83L209.08 378.71L209.63 378.6L210.16 378.48L210.69 378.33L211.2 378.21L211.73 378.07L212.26 377.91L212.78 377.77L213.31 377.62L213.83 377.46L214.36 377.29L215.9 376.77L216.93 376.4L217.96 375.99L218.46 375.79L218.98 375.59L222.05 374.31L224.6 376.43L241.72 390.88L261.59 374.2L251.07 351.36L249.57 348.38L251.18 345.4L251.29 345.18L251.41 344.95L251.54 344.73L251.65 344.49L251.77 344.28L251.99 343.81L252.11 343.59L252.33 343.12L252.44 342.9L252.57 342.67L252.89 341.97L252.99 341.73L253.1 341.51L253.32 341.05L253.41 340.81L253.63 340.34L253.72 340.11L253.83 339.87L253.92 339.62L254.02 339.39L254.13 339.16L254.41 338.45L254.5 338.2L254.69 337.74L254.78 337.49L254.97 337.02L255.05 336.77L255.24 336.3L255.31 336.05L255.39 335.82L255.49 335.57L255.56 335.33L255.72 334.83L255.81 334.6L255.89 334.35L255.97 334.11L256.03 333.87L256.11 333.62L256.19 333.38L256.34 332.88L256.41 332.63L256.48 332.4L256.55 332.15L256.63 331.9L256.69 331.65L256.77 331.41L257.39 328.92L257.44 328.68L257.56 328.18L257.61 327.92L257.67 327.67L257.76 327.17L257.83 326.92L257.97 326.17L258.61 322.77L261.59 321.49L283.47 312.36L278.91 285.99L256.91 285.35L253.61 285.35L252.02 282.28L251.76 281.76L250.96 280.26L250.12 278.77L249.52 277.8L249.23 277.3L248.91 276.83L248.62 276.35L248.31 275.86L247.98 275.39L247.67 274.93L247.01 273.99L246.67 273.54L246.34 273.07L245.65 272.16L245.29 271.71L244.93 271.27L244.59 270.84L244.22 270.38L243.86 269.95L243.48 269.53L243.11 269.09L242.73 268.67L242.34 268.25L241.97 267.82L241.58 267.4L241.17 267L240.78 266.59L239.97 265.78L239.56 265.39L239.14 264.98L238.74 264.59L238.32 264.22L235.97 262.08L235.97 258.79L238.85 237.54L214.93 228.29L203.55 246.78L201.85 249.65Z" id="b4K6MDyZlt"></path><path d="M203.16 278.14L205.13 278.41L207.08 278.8L209.05 279.31L211 279.94L212.89 280.86L214.7 281.86L216.45 282.96L218.1 284.14L219.69 285.4L221.19 286.73L222.61 288.13L223.96 289.61L225.2 291.14L226.38 292.75L227.45 294.39L228.45 296.11L229.34 297.86L230.15 299.65L230.85 301.49L231.46 303.37L231.98 305.25L232.4 307.19L232.71 309.14L232.92 311.12L233.02 313.11L233.01 315.1L232.9 317.12L232.68 319.13L232.35 321.14L231.9 323.14L231.34 325.14L230.67 327.12L230.64 327.22L230.62 327.25L230.61 327.29L230.61 327.34L230.59 327.37L230.56 327.45L230.53 327.54L230.53 327.57L230.5 327.67L230.48 327.7L230.45 327.79L230.45 327.82L230.42 327.92L230.4 327.95L230.39 328L230.37 328.03L230.36 328.07L230.36 328.12L230.32 328.2L230.31 328.25L230.29 328.28L229.59 330.2L228.78 332.05L227.87 333.85L226.87 335.57L225.78 337.21L224.61 338.77L223.36 340.26L222.04 341.69L220.65 343.01L219.18 344.26L217.67 345.42L216.07 346.49L214.43 347.49L212.75 348.38L211.02 349.18L209.24 349.9L207.43 350.5L205.57 351L203.7 351.43L201.79 351.72L199.87 351.92L197.92 352.02L195.97 352L194 351.86L192.04 351.63L190.05 351.27L188.09 350.79L186.14 350.19L184.2 349.29L182.34 348.29L180.55 347.2L178.85 346.02L177.22 344.76L175.68 343.42L174.23 342.01L172.85 340.53L171.56 338.97L170.37 337.36L169.26 335.69L168.25 333.96L167.33 332.18L166.5 330.37L165.78 328.5L165.14 326.61L164.63 324.67L164.2 322.72L163.88 320.72L163.67 318.72L163.56 316.71L163.58 314.67L163.71 312.64L163.94 310.59L164.28 308.55L164.75 306.52L165.34 304.49L166.05 302.48L166.06 302.43L166.08 302.37L166.3 301.71L166.31 301.65L166.48 301.13L167.23 299.23L168.08 297.37L169.01 295.61L170.03 293.91L171.15 292.28L172.34 290.74L173.62 289.25L174.96 287.87L176.38 286.55L177.86 285.34L179.39 284.2L181 283.15L182.65 282.18L184.36 281.33L186.1 280.54L187.9 279.86L189.71 279.28L191.57 278.8L193.46 278.42L195.36 278.16L197.3 277.99L199.25 277.92L201.2 277.97L203.16 278.14ZM193.82 303.9L192.07 304.83L190.51 306.05L189.16 307.53L188.09 309.25L187.31 311.19L186.68 313.29L186.45 315.42L186.59 317.51L187.06 319.54L187.87 321.46L188.98 323.2L190.38 324.77L192.07 326.09L194 327.12L194.05 327.15L194.24 327.2L194.3 327.23L194.35 327.25L194.47 327.28L194.53 327.31L196.58 327.73L198.61 327.78L200.59 327.48L202.46 326.86L204.21 325.94L205.77 324.72L207.11 323.24L208.19 321.52L208.99 319.58L209.6 317.48L209.83 315.35L209.69 313.26L209.22 311.23L208.41 309.31L207.3 307.55L205.9 305.99L204.23 304.68L202.29 303.65L202.23 303.61L202.1 303.58L202.04 303.55L201.99 303.54L201.87 303.51L201.81 303.47L201.74 303.46L199.7 303.04L197.67 302.97L195.69 303.27L193.82 303.9Z" id="a4mrpgo4LJ"></path><path d="M203.16 278.14L205.13 278.41L207.08 278.8L209.05 279.31L211 279.94L212.89 280.86L214.7 281.86L216.45 282.96L218.1 284.14L219.69 285.4L221.19 286.73L222.61 288.13L223.96 289.61L225.2 291.14L226.38 292.75L227.45 294.39L228.45 296.11L229.34 297.86L230.15 299.65L230.85 301.49L231.46 303.37L231.98 305.25L232.4 307.19L232.71 309.14L232.92 311.12L233.02 313.11L233.01 315.1L232.9 317.12L232.68 319.13L232.35 321.14L231.9 323.14L231.34 325.14L230.67 327.12L230.64 327.22L230.62 327.25L230.61 327.29L230.61 327.34L230.59 327.37L230.56 327.45L230.53 327.54L230.53 327.57L230.5 327.67L230.48 327.7L230.45 327.79L230.45 327.82L230.42 327.92L230.4 327.95L230.39 328L230.37 328.03L230.36 328.07L230.36 328.12L230.32 328.2L230.31 328.25L230.29 328.28L229.59 330.2L228.78 332.05L227.87 333.85L226.87 335.57L225.78 337.21L224.61 338.77L223.36 340.26L222.04 341.69L220.65 343.01L219.18 344.26L217.67 345.42L216.07 346.49L214.43 347.49L212.75 348.38L211.02 349.18L209.24 349.9L207.43 350.5L205.57 351L203.7 351.43L201.79 351.72L199.87 351.92L197.92 352.02L195.97 352L194 351.86L192.04 351.63L190.05 351.27L188.09 350.79L186.14 350.19L184.2 349.29L182.34 348.29L180.55 347.2L178.85 346.02L177.22 344.76L175.68 343.42L174.23 342.01L172.85 340.53L171.56 338.97L170.37 337.36L169.26 335.69L168.25 333.96L167.33 332.18L166.5 330.37L165.78 328.5L165.14 326.61L164.63 324.67L164.2 322.72L163.88 320.72L163.67 318.72L163.56 316.71L163.58 314.67L163.71 312.64L163.94 310.59L164.28 308.55L164.75 306.52L165.34 304.49L166.05 302.48L166.06 302.43L166.08 302.37L166.3 301.71L166.31 301.65L166.48 301.13L167.23 299.23L168.08 297.37L169.01 295.61L170.03 293.91L171.15 292.28L172.34 290.74L173.62 289.25L174.96 287.87L176.38 286.55L177.86 285.34L179.39 284.2L181 283.15L182.65 282.18L184.36 281.33L186.1 280.54L187.9 279.86L189.71 279.28L191.57 278.8L193.46 278.42L195.36 278.16L197.3 277.99L199.25 277.92L201.2 277.97L203.16 278.14ZM193.82 303.9L192.07 304.83L190.51 306.05L189.16 307.53L188.09 309.25L187.31 311.19L186.68 313.29L186.45 315.42L186.59 317.51L187.06 319.54L187.87 321.46L188.98 323.2L190.38 324.77L192.07 326.09L194 327.12L194.05 327.15L194.24 327.2L194.3 327.23L194.35 327.25L194.47 327.28L194.53 327.31L196.58 327.73L198.61 327.78L200.59 327.48L202.46 326.86L204.21 325.94L205.77 324.72L207.11 323.24L208.19 321.52L208.99 319.58L209.6 317.48L209.83 315.35L209.69 313.26L209.22 311.23L208.41 309.31L207.3 307.55L205.9 305.99L204.23 304.68L202.29 303.65L202.23 303.61L202.1 303.58L202.04 303.55L201.99 303.54L201.87 303.51L201.81 303.47L201.74 303.46L199.7 303.04L197.67 302.97L195.69 303.27L193.82 303.9Z" id="bwg3l1C6A"></path><path d="M450.22 322.02L450.83 322.6L451.44 323.16L452.05 323.73L452.64 324.31L453.24 324.91L454.97 326.68L455.55 327.29L456.11 327.9L456.65 328.53L457.22 329.15L457.76 329.78L458.29 330.4L458.84 331.04L459.35 331.68L459.88 332.32L460.91 333.63L461.41 334.29L462.41 335.63L463.38 336.97L464.32 338.34L464.77 339.03L465.24 339.72L465.68 340.42L466.13 341.12L466.57 341.84L466.99 342.54L468.25 344.7L468.64 345.43L469.05 346.16L469.83 347.63L470.2 348.38L505.59 349.22L513.99 397.47L478.8 412.14L478.74 412.52L478.58 413.27L478.52 413.64L478.44 414L478.29 414.75L478.19 415.13L478.12 415.5L478.04 415.86L477.94 416.23L477.87 416.61L477.77 416.97L477.59 417.72L477.51 418.08L477.41 418.45L477.3 418.81L477.12 419.56L477.02 419.92L476.91 420.29L476.82 420.65L476.71 421.01L476.6 421.38L476.51 421.74L476.4 422.12L476.07 423.19L475.95 423.57L475.73 424.29L475.6 424.65L475.49 425.01L475.37 425.36L475.24 425.74L474.24 428.61L474.1 428.97L473.98 429.33L473.56 430.41L473.43 430.77L473.29 431.11L473.14 431.47L472.86 432.19L472.72 432.53L472.56 432.89L472.42 433.23L472.26 433.59L472.12 433.93L471.97 434.29L471.81 434.64L471.65 435L471.34 435.68L471.19 436.04L471.03 436.38L470.86 436.73L470.7 437.07L470.53 437.41L470.37 437.76L469 440.51L468.81 440.83L486.47 475.91L450 506.41L422.49 483.13L421.72 483.45L419.43 484.33L418.66 484.62L417.88 484.88L417.12 485.15L416.34 485.41L414.77 485.91L413.99 486.15L413.21 486.36L412.42 486.58L411.64 486.8L410.05 487.21L408.45 487.58L407.66 487.75L406.86 487.91L406.05 488.08L405.25 488.22L404.44 488.36L403.65 488.5L402.02 488.75L400.4 488.97L398.78 489.16L397.15 489.31L396.34 489.38L395.51 489.44L394.7 489.49L393.87 489.53L393.06 489.56L392.24 489.6L391.42 489.61L390.6 489.61L372.01 519.69L328.64 503L333.33 467.51L332.7 466.95L332.09 466.38L330.91 465.23L329.72 464.04L329.14 463.45L328.57 462.84L328 462.25L327.44 461.62L326.88 461.02L325.24 459.14L324.18 457.86L323.65 457.21L323.13 456.57L322.64 455.91L322.12 455.26L321.62 454.58L320.17 452.57L318.76 450.51L318.31 449.81L317.86 449.12L317.42 448.4L316.55 447L315.71 445.56L315.3 444.83L314.89 444.11L314.49 443.38L314.1 442.64L313.72 441.89L313.35 441.16L277.95 440.1L269.55 391.85L304.73 377.18L304.81 376.81L304.87 376.45L304.95 376.07L305.01 375.71L305.09 375.34L305.25 374.62L305.33 374.25L305.4 373.89L305.5 373.51L305.65 372.79L305.75 372.42L305.82 372.06L305.92 371.7L306.01 371.33L306.11 370.97L306.18 370.61L306.28 370.25L306.39 369.89L306.48 369.52L306.67 368.8L306.78 368.44L306.87 368.08L307.09 367.36L307.18 367L307.73 365.21L307.85 364.86L307.96 364.51L308.09 364.15L308.2 363.79L308.32 363.43L308.43 363.08L308.56 362.73L308.68 362.38L308.81 362.02L308.95 361.68L309.07 361.32L309.21 360.98L309.34 360.63L309.48 360.29L309.6 359.93L310.59 357.53L310.74 357.18L310.88 356.84L311.04 356.5L311.18 356.15L311.49 355.47L311.65 355.14L311.8 354.8L311.94 354.45L312.11 354.13L312.43 353.44L312.58 353.11L312.75 352.77L312.91 352.44L313.08 352.11L313.24 351.77L313.58 351.11L313.75 350.77L314.61 349.13L297.08 314.06L333.53 283.14L361.06 306.41L361.81 306.1L362.58 305.78L363.34 305.49L364.11 305.21L364.89 304.93L365.65 304.65L366.43 304.38L367.2 304.13L368.76 303.63L369.56 303.4L370.34 303.16L371.12 302.94L372.71 302.54L373.49 302.34L375.08 301.96L375.89 301.79L376.69 301.62L377.49 301.46L378.3 301.3L379.09 301.16L379.9 301.04L380.7 300.9L381.51 300.79L382.32 300.66L383.14 300.57L383.95 300.46L385.57 300.31L386.4 300.23L388.02 300.1L388.85 300.06L389.66 300.01L390.47 299.98L391.3 299.95L392.13 299.93L392.94 299.92L411.54 269.84L454.89 286.52L450.22 322.02ZM396.98 308.64L392.1 308.64L391.35 308.66L389.88 308.72L389.13 308.75L388.4 308.8L387.66 308.86L386.91 308.91L386.18 308.98L385.45 309.05L384.71 309.14L383.98 309.22L383.24 309.31L382.51 309.42L381.79 309.53L381.06 309.64L380.33 309.76L379.61 309.89L378.87 310.03L378.16 310.17L377.42 310.33L375.99 310.64L375.27 310.81L373.83 311.19L373.13 311.37L372.41 311.56L371.71 311.78L370.99 311.98L370.29 312.2L368.18 312.9L367.5 313.15L366.79 313.4L366.11 313.67L365.4 313.93L364.72 314.2L364.03 314.48L359.89 316.18L356.49 313.31L333.64 294.08L307.18 316.49L321.73 345.62L323.76 349.55L321.64 353.59L321.46 353.89L321.15 354.48L321 354.8L320.84 355.09L320.68 355.41L320.53 355.7L320.37 356.01L320.23 356.31L320.08 356.62L319.94 356.92L319.78 357.23L319.64 357.54L319.48 357.84L318.92 359.09L318.78 359.39L318.36 360.32L318.23 360.63L317.95 361.26L317.83 361.57L317.7 361.9L317.56 362.21L317.19 363.15L317.06 363.48L316.81 364.1L316.69 364.43L316.58 364.74L316.45 365.07L316.33 365.38L316.22 365.71L316.11 366.02L315.99 366.35L315.88 366.67L315.77 366.99L315.67 367.31L315.46 367.97L315.35 368.28L315.25 368.61L315.14 368.94L315.05 369.27L314.94 369.59L314.19 372.22L314.11 372.54L314.02 372.87L313.94 373.2L313.85 373.54L313.69 374.2L313.6 374.53L313.52 374.85L313.44 375.2L313.29 375.85L313.22 376.2L313.07 376.85L313 377.2L312.93 377.52L312.86 377.87L312.79 378.19L312.72 378.52L312.66 378.87L312.6 379.19L311.74 383.66L307.71 385.36L278.59 397.47L284.64 432.54L313.97 433.4L318.34 433.4L319.94 436.9L320.28 437.59L320.62 438.26L320.98 438.93L321.36 439.6L321.71 440.26L322.09 440.91L323.26 442.88L324.48 444.8L324.9 445.44L325.74 446.69L326.18 447.31L326.62 447.92L327.07 448.54L327.51 449.15L327.97 449.75L328.43 450.35L329.36 451.54L329.85 452.13L330.81 453.29L331.81 454.44L332.31 455.01L333.34 456.13L333.86 456.68L334.92 457.77L336 458.85L336.54 459.36L337.09 459.89L338.21 460.92L341.4 463.79L340.87 468.26L337.04 497.17L368.92 509.5L384.12 484.94L386.46 481.23L390.6 481.23L391.35 481.21L392.08 481.2L392.83 481.17L394.3 481.1L395.05 481.06L395.78 481.01L397.25 480.89L398 480.81L398.73 480.73L399.46 480.64L400.18 480.54L400.91 480.45L401.65 480.34L402.38 480.21L403.1 480.09L403.83 479.96L404.57 479.82L405.28 479.68L407.44 479.22L408.17 479.04L408.87 478.87L409.59 478.68L410.31 478.48L411.01 478.29L411.73 478.09L413.14 477.65L413.85 477.42L414.56 477.2L415.24 476.95L416.65 476.45L417.33 476.2L418.02 475.94L419.4 475.38L423.55 473.67L427.37 476.55L450.22 495.78L476.68 473.36L462.02 444.45L459.99 440.52L462.12 436.48L462.29 436.18L462.44 435.88L462.6 435.57L462.91 434.98L463.07 434.67L463.22 434.37L463.38 434.06L463.52 433.76L463.83 433.14L463.97 432.84L464.11 432.53L464.27 432.22L464.41 431.92L465.11 430.36L465.25 430.06L465.54 429.44L465.66 429.13L465.8 428.8L466.05 428.17L466.19 427.86L466.44 427.24L466.57 426.91L466.81 426.29L466.94 425.96L467.06 425.65L467.17 425.33L467.3 425.01L467.42 424.69L467.53 424.37L467.64 424.05L467.77 423.73L467.99 423.07L468.09 422.76L468.19 422.43L468.41 421.77L468.5 421.46L468.61 421.13L468.7 420.81L468.81 420.48L469.56 417.86L469.64 417.53L469.73 417.19L469.81 416.86L469.91 416.53L469.98 416.2L470.08 415.87L470.16 415.55L470.23 415.2L470.39 414.55L470.47 414.2L470.55 413.88L470.61 413.55L470.69 413.21L470.75 412.88L470.83 412.55L470.89 412.21L470.97 411.88L471.03 411.53L471.09 411.21L471.15 410.86L472.01 406.4L476.04 404.7L505.17 393.02L499.11 357.95L469.78 356.98L465.43 356.98L463.4 352.95L463.05 352.27L462.71 351.6L462.35 350.93L461.99 350.27L461.62 349.6L460.87 348.29L460.48 347.63L460.09 346.99L459.7 346.34L458.89 345.06L457.62 343.18L456.75 341.93L456.31 341.33L455.4 340.11L454.95 339.52L454.48 338.91L454.02 338.31L453.55 337.74L453.06 337.14L452.58 336.57L452.08 335.99L450.58 334.3L449.55 333.18L449.02 332.63L448.51 332.09L447.96 331.55L447.43 331.02L446.34 329.96L445.79 329.45L445.23 328.93L442.04 326.06L442.57 321.6L446.4 292.69L414.51 280.36L399.32 304.91L396.98 308.64Z" id="acoDmqv9u"></path><path d="M450.22 322.02L450.83 322.6L451.44 323.16L452.05 323.73L452.64 324.31L453.24 324.91L454.97 326.68L455.55 327.29L456.11 327.9L456.65 328.53L457.22 329.15L457.76 329.78L458.29 330.4L458.84 331.04L459.35 331.68L459.88 332.32L460.91 333.63L461.41 334.29L462.41 335.63L463.38 336.97L464.32 338.34L464.77 339.03L465.24 339.72L465.68 340.42L466.13 341.12L466.57 341.84L466.99 342.54L468.25 344.7L468.64 345.43L469.05 346.16L469.83 347.63L470.2 348.38L505.59 349.22L513.99 397.47L478.8 412.14L478.74 412.52L478.58 413.27L478.52 413.64L478.44 414L478.29 414.75L478.19 415.13L478.12 415.5L478.04 415.86L477.94 416.23L477.87 416.61L477.77 416.97L477.59 417.72L477.51 418.08L477.41 418.45L477.3 418.81L477.12 419.56L477.02 419.92L476.91 420.29L476.82 420.65L476.71 421.01L476.6 421.38L476.51 421.74L476.4 422.12L476.07 423.19L475.95 423.57L475.73 424.29L475.6 424.65L475.49 425.01L475.37 425.36L475.24 425.74L474.24 428.61L474.1 428.97L473.98 429.33L473.56 430.41L473.43 430.77L473.29 431.11L473.14 431.47L472.86 432.19L472.72 432.53L472.56 432.89L472.42 433.23L472.26 433.59L472.12 433.93L471.97 434.29L471.81 434.64L471.65 435L471.34 435.68L471.19 436.04L471.03 436.38L470.86 436.73L470.7 437.07L470.53 437.41L470.37 437.76L469 440.51L468.81 440.83L486.47 475.91L450 506.41L422.49 483.13L421.72 483.45L419.43 484.33L418.66 484.62L417.88 484.88L417.12 485.15L416.34 485.41L414.77 485.91L413.99 486.15L413.21 486.36L412.42 486.58L411.64 486.8L410.05 487.21L408.45 487.58L407.66 487.75L406.86 487.91L406.05 488.08L405.25 488.22L404.44 488.36L403.65 488.5L402.02 488.75L400.4 488.97L398.78 489.16L397.15 489.31L396.34 489.38L395.51 489.44L394.7 489.49L393.87 489.53L393.06 489.56L392.24 489.6L391.42 489.61L390.6 489.61L372.01 519.69L328.64 503L333.33 467.51L332.7 466.95L332.09 466.38L330.91 465.23L329.72 464.04L329.14 463.45L328.57 462.84L328 462.25L327.44 461.62L326.88 461.02L325.24 459.14L324.18 457.86L323.65 457.21L323.13 456.57L322.64 455.91L322.12 455.26L321.62 454.58L320.17 452.57L318.76 450.51L318.31 449.81L317.86 449.12L317.42 448.4L316.55 447L315.71 445.56L315.3 444.83L314.89 444.11L314.49 443.38L314.1 442.64L313.72 441.89L313.35 441.16L277.95 440.1L269.55 391.85L304.73 377.18L304.81 376.81L304.87 376.45L304.95 376.07L305.01 375.71L305.09 375.34L305.25 374.62L305.33 374.25L305.4 373.89L305.5 373.51L305.65 372.79L305.75 372.42L305.82 372.06L305.92 371.7L306.01 371.33L306.11 370.97L306.18 370.61L306.28 370.25L306.39 369.89L306.48 369.52L306.67 368.8L306.78 368.44L306.87 368.08L307.09 367.36L307.18 367L307.73 365.21L307.85 364.86L307.96 364.51L308.09 364.15L308.2 363.79L308.32 363.43L308.43 363.08L308.56 362.73L308.68 362.38L308.81 362.02L308.95 361.68L309.07 361.32L309.21 360.98L309.34 360.63L309.48 360.29L309.6 359.93L310.59 357.53L310.74 357.18L310.88 356.84L311.04 356.5L311.18 356.15L311.49 355.47L311.65 355.14L311.8 354.8L311.94 354.45L312.11 354.13L312.43 353.44L312.58 353.11L312.75 352.77L312.91 352.44L313.08 352.11L313.24 351.77L313.58 351.11L313.75 350.77L314.61 349.13L297.08 314.06L333.53 283.14L361.06 306.41L361.81 306.1L362.58 305.78L363.34 305.49L364.11 305.21L364.89 304.93L365.65 304.65L366.43 304.38L367.2 304.13L368.76 303.63L369.56 303.4L370.34 303.16L371.12 302.94L372.71 302.54L373.49 302.34L375.08 301.96L375.89 301.79L376.69 301.62L377.49 301.46L378.3 301.3L379.09 301.16L379.9 301.04L380.7 300.9L381.51 300.79L382.32 300.66L383.14 300.57L383.95 300.46L385.57 300.31L386.4 300.23L388.02 300.1L388.85 300.06L389.66 300.01L390.47 299.98L391.3 299.95L392.13 299.93L392.94 299.92L411.54 269.84L454.89 286.52L450.22 322.02ZM396.98 308.64L392.1 308.64L391.35 308.66L389.88 308.72L389.13 308.75L388.4 308.8L387.66 308.86L386.91 308.91L386.18 308.98L385.45 309.05L384.71 309.14L383.98 309.22L383.24 309.31L382.51 309.42L381.79 309.53L381.06 309.64L380.33 309.76L379.61 309.89L378.87 310.03L378.16 310.17L377.42 310.33L375.99 310.64L375.27 310.81L373.83 311.19L373.13 311.37L372.41 311.56L371.71 311.78L370.99 311.98L370.29 312.2L368.18 312.9L367.5 313.15L366.79 313.4L366.11 313.67L365.4 313.93L364.72 314.2L364.03 314.48L359.89 316.18L356.49 313.31L333.64 294.08L307.18 316.49L321.73 345.62L323.76 349.55L321.64 353.59L321.46 353.89L321.15 354.48L321 354.8L320.84 355.09L320.68 355.41L320.53 355.7L320.37 356.01L320.23 356.31L320.08 356.62L319.94 356.92L319.78 357.23L319.64 357.54L319.48 357.84L318.92 359.09L318.78 359.39L318.36 360.32L318.23 360.63L317.95 361.26L317.83 361.57L317.7 361.9L317.56 362.21L317.19 363.15L317.06 363.48L316.81 364.1L316.69 364.43L316.58 364.74L316.45 365.07L316.33 365.38L316.22 365.71L316.11 366.02L315.99 366.35L315.88 366.67L315.77 366.99L315.67 367.31L315.46 367.97L315.35 368.28L315.25 368.61L315.14 368.94L315.05 369.27L314.94 369.59L314.19 372.22L314.11 372.54L314.02 372.87L313.94 373.2L313.85 373.54L313.69 374.2L313.6 374.53L313.52 374.85L313.44 375.2L313.29 375.85L313.22 376.2L313.07 376.85L313 377.2L312.93 377.52L312.86 377.87L312.79 378.19L312.72 378.52L312.66 378.87L312.6 379.19L311.74 383.66L307.71 385.36L278.59 397.47L284.64 432.54L313.97 433.4L318.34 433.4L319.94 436.9L320.28 437.59L320.62 438.26L320.98 438.93L321.36 439.6L321.71 440.26L322.09 440.91L323.26 442.88L324.48 444.8L324.9 445.44L325.74 446.69L326.18 447.31L326.62 447.92L327.07 448.54L327.51 449.15L327.97 449.75L328.43 450.35L329.36 451.54L329.85 452.13L330.81 453.29L331.81 454.44L332.31 455.01L333.34 456.13L333.86 456.68L334.92 457.77L336 458.85L336.54 459.36L337.09 459.89L338.21 460.92L341.4 463.79L340.87 468.26L337.04 497.17L368.92 509.5L384.12 484.94L386.46 481.23L390.6 481.23L391.35 481.21L392.08 481.2L392.83 481.17L394.3 481.1L395.05 481.06L395.78 481.01L397.25 480.89L398 480.81L398.73 480.73L399.46 480.64L400.18 480.54L400.91 480.45L401.65 480.34L402.38 480.21L403.1 480.09L403.83 479.96L404.57 479.82L405.28 479.68L407.44 479.22L408.17 479.04L408.87 478.87L409.59 478.68L410.31 478.48L411.01 478.29L411.73 478.09L413.14 477.65L413.85 477.42L414.56 477.2L415.24 476.95L416.65 476.45L417.33 476.2L418.02 475.94L419.4 475.38L423.55 473.67L427.37 476.55L450.22 495.78L476.68 473.36L462.02 444.45L459.99 440.52L462.12 436.48L462.29 436.18L462.44 435.88L462.6 435.57L462.91 434.98L463.07 434.67L463.22 434.37L463.38 434.06L463.52 433.76L463.83 433.14L463.97 432.84L464.11 432.53L464.27 432.22L464.41 431.92L465.11 430.36L465.25 430.06L465.54 429.44L465.66 429.13L465.8 428.8L466.05 428.17L466.19 427.86L466.44 427.24L466.57 426.91L466.81 426.29L466.94 425.96L467.06 425.65L467.17 425.33L467.3 425.01L467.42 424.69L467.53 424.37L467.64 424.05L467.77 423.73L467.99 423.07L468.09 422.76L468.19 422.43L468.41 421.77L468.5 421.46L468.61 421.13L468.7 420.81L468.81 420.48L469.56 417.86L469.64 417.53L469.73 417.19L469.81 416.86L469.91 416.53L469.98 416.2L470.08 415.87L470.16 415.55L470.23 415.2L470.39 414.55L470.47 414.2L470.55 413.88L470.61 413.55L470.69 413.21L470.75 412.88L470.83 412.55L470.89 412.21L470.97 411.88L471.03 411.53L471.09 411.21L471.15 410.86L472.01 406.4L476.04 404.7L505.17 393.02L499.11 357.95L469.78 356.98L465.43 356.98L463.4 352.95L463.05 352.27L462.71 351.6L462.35 350.93L461.99 350.27L461.62 349.6L460.87 348.29L460.48 347.63L460.09 346.99L459.7 346.34L458.89 345.06L457.62 343.18L456.75 341.93L456.31 341.33L455.4 340.11L454.95 339.52L454.48 338.91L454.02 338.31L453.55 337.74L453.06 337.14L452.58 336.57L452.08 335.99L450.58 334.3L449.55 333.18L449.02 332.63L448.51 332.09L447.96 331.55L447.43 331.02L446.34 329.96L445.79 329.45L445.23 328.93L442.04 326.06L442.57 321.6L446.4 292.69L414.51 280.36L399.32 304.91L396.98 308.64Z" id="eZs1ngPY6"></path><path d="M396.79 345.87L398.73 346.07L400.66 346.37L402.58 346.74L404.52 347.2L406.44 347.74L408.34 348.38L410.28 349.24L412.14 350.19L413.96 351.19L415.71 352.27L417.41 353.41L419.05 354.61L420.64 355.86L422.16 357.18L423.63 358.56L425.03 359.98L426.36 361.46L427.64 362.99L428.84 364.55L429.98 366.18L431.05 367.83L432.07 369.53L433.01 371.26L433.88 373.03L434.68 374.82L435.39 376.66L436.05 378.52L436.64 380.4L437.14 382.32L437.58 384.23L437.92 386.19L438.2 388.15L438.41 390.12L438.52 392.12L438.56 394.12L438.52 396.11L438.39 398.13L438.19 400.14L437.89 402.15L437.52 404.17L437.05 406.17L436.5 408.18L435.86 410.16L435.13 412.14L435.11 412.19L435.08 412.27L435.08 412.32L435.05 412.39L435 412.53L434.99 412.57L434.97 412.61L434.97 412.66L434.94 412.74L434.93 412.78L434.89 412.86L434.85 413L434.83 413.03L434.83 413.08L434.82 413.13L434.79 413.21L434.77 413.25L434.74 413.33L434.71 413.42L434.69 413.45L434.64 413.6L434.61 413.67L434.6 413.72L434.6 413.75L433.88 415.64L433.08 417.48L432.24 419.26L431.3 420.99L430.32 422.68L429.26 424.3L428.15 425.88L426.98 427.41L425.75 428.86L424.45 430.27L423.13 431.62L421.74 432.9L420.3 434.14L418.82 435.29L417.29 436.4L415.73 437.45L414.12 438.41L412.48 439.32L410.79 440.16L409.08 440.94L407.34 441.64L405.58 442.27L403.79 442.83L401.96 443.33L400.13 443.74L398.28 444.08L396.39 444.34L394.5 444.55L392.61 444.66L390.69 444.69L388.77 444.64L386.85 444.52L384.91 444.31L382.98 444.02L381.06 443.64L379.14 443.19L377.2 442.64L375.3 442L373.38 441.15L371.51 440.21L369.7 439.19L367.93 438.12L366.23 436.98L364.59 435.79L363 434.53L361.49 433.2L360.02 431.83L358.63 430.41L357.29 428.92L356.01 427.41L354.81 425.83L353.67 424.21L352.59 422.55L351.57 420.85L350.64 419.12L349.76 417.36L348.97 415.56L348.25 413.72L347.59 411.86L347.02 409.99L346.5 408.07L346.08 406.15L345.72 404.2L345.44 402.23L345.25 400.27L345.13 398.27L345.08 396.27L345.13 394.27L345.25 392.26L345.47 390.24L345.75 388.23L346.14 386.22L346.6 384.22L347.16 382.22L347.8 380.22L348.51 378.24L348.53 378.19L348.56 378.12L348.58 378.07L348.59 377.99L348.62 377.9L348.64 377.87L348.69 377.73L348.7 377.65L348.72 377.6L348.75 377.52L348.76 377.48L348.8 377.4L348.84 377.26L348.86 377.18L348.87 377.13L348.91 377.05L348.94 376.96L348.95 376.93L348.98 376.84L349 376.81L349.05 376.66L349.06 376.63L349.76 374.74L350.56 372.9L351.42 371.12L352.34 369.39L353.32 367.71L354.38 366.08L355.49 364.51L356.68 362.99L357.9 361.52L359.19 360.12L360.52 358.76L361.91 357.48L363.34 356.25L364.83 355.09L366.36 353.98L367.93 352.95L369.52 351.97L371.18 351.07L372.85 350.22L374.57 349.46L376.3 348.74L378.08 348.12L379.86 347.55L381.68 347.05L383.53 346.65L385.38 346.31L387.26 346.04L389.14 345.84L391.05 345.73L392.95 345.7L394.87 345.74L396.79 345.87ZM388.75 378.49L386.85 379.05L385.04 379.86L383.34 380.89L381.79 382.14L380.39 383.58L379.19 385.2L378.19 387.01L377.42 388.98L376.77 391.07L376.39 393.19L376.3 395.32L376.47 397.41L376.91 399.45L377.59 401.4L378.52 403.28L379.65 405.01L381.03 406.6L382.6 408.01L384.38 409.24L386.35 410.22L386.49 410.27L386.52 410.29L386.76 410.36L386.79 410.38L386.88 410.41L388.94 410.91L390.99 411.11L393.02 411.05L395 410.72L396.9 410.16L398.71 409.35L400.41 408.32L401.96 407.09L403.36 405.63L404.57 404.01L405.57 402.2L406.33 400.23L406.99 398.14L407.36 396.02L407.45 393.9L407.28 391.81L406.85 389.78L406.16 387.81L405.24 385.95L404.1 384.2L402.72 382.63L401.15 381.21L399.37 379.99L397.4 378.99L397.31 378.96L397.28 378.94L397 378.85L396.97 378.83L396.87 378.8L394.81 378.32L392.77 378.1L390.74 378.16L388.75 378.49Z" id="funVUSlUz"></path><path d="M396.79 345.87L398.73 346.07L400.66 346.37L402.58 346.74L404.52 347.2L406.44 347.74L408.34 348.38L410.28 349.24L412.14 350.19L413.96 351.19L415.71 352.27L417.41 353.41L419.05 354.61L420.64 355.86L422.16 357.18L423.63 358.56L425.03 359.98L426.36 361.46L427.64 362.99L428.84 364.55L429.98 366.18L431.05 367.83L432.07 369.53L433.01 371.26L433.88 373.03L434.68 374.82L435.39 376.66L436.05 378.52L436.64 380.4L437.14 382.32L437.58 384.23L437.92 386.19L438.2 388.15L438.41 390.12L438.52 392.12L438.56 394.12L438.52 396.11L438.39 398.13L438.19 400.14L437.89 402.15L437.52 404.17L437.05 406.17L436.5 408.18L435.86 410.16L435.13 412.14L435.11 412.19L435.08 412.27L435.08 412.32L435.05 412.39L435 412.53L434.99 412.57L434.97 412.61L434.97 412.66L434.94 412.74L434.93 412.78L434.89 412.86L434.85 413L434.83 413.03L434.83 413.08L434.82 413.13L434.79 413.21L434.77 413.25L434.74 413.33L434.71 413.42L434.69 413.45L434.64 413.6L434.61 413.67L434.6 413.72L434.6 413.75L433.88 415.64L433.08 417.48L432.24 419.26L431.3 420.99L430.32 422.68L429.26 424.3L428.15 425.88L426.98 427.41L425.75 428.86L424.45 430.27L423.13 431.62L421.74 432.9L420.3 434.14L418.82 435.29L417.29 436.4L415.73 437.45L414.12 438.41L412.48 439.32L410.79 440.16L409.08 440.94L407.34 441.64L405.58 442.27L403.79 442.83L401.96 443.33L400.13 443.74L398.28 444.08L396.39 444.34L394.5 444.55L392.61 444.66L390.69 444.69L388.77 444.64L386.85 444.52L384.91 444.31L382.98 444.02L381.06 443.64L379.14 443.19L377.2 442.64L375.3 442L373.38 441.15L371.51 440.21L369.7 439.19L367.93 438.12L366.23 436.98L364.59 435.79L363 434.53L361.49 433.2L360.02 431.83L358.63 430.41L357.29 428.92L356.01 427.41L354.81 425.83L353.67 424.21L352.59 422.55L351.57 420.85L350.64 419.12L349.76 417.36L348.97 415.56L348.25 413.72L347.59 411.86L347.02 409.99L346.5 408.07L346.08 406.15L345.72 404.2L345.44 402.23L345.25 400.27L345.13 398.27L345.08 396.27L345.13 394.27L345.25 392.26L345.47 390.24L345.75 388.23L346.14 386.22L346.6 384.22L347.16 382.22L347.8 380.22L348.51 378.24L348.53 378.19L348.56 378.12L348.58 378.07L348.59 377.99L348.62 377.9L348.64 377.87L348.69 377.73L348.7 377.65L348.72 377.6L348.75 377.52L348.76 377.48L348.8 377.4L348.84 377.26L348.86 377.18L348.87 377.13L348.91 377.05L348.94 376.96L348.95 376.93L348.98 376.84L349 376.81L349.05 376.66L349.06 376.63L349.76 374.74L350.56 372.9L351.42 371.12L352.34 369.39L353.32 367.71L354.38 366.08L355.49 364.51L356.68 362.99L357.9 361.52L359.19 360.12L360.52 358.76L361.91 357.48L363.34 356.25L364.83 355.09L366.36 353.98L367.93 352.95L369.52 351.97L371.18 351.07L372.85 350.22L374.57 349.46L376.3 348.74L378.08 348.12L379.86 347.55L381.68 347.05L383.53 346.65L385.38 346.31L387.26 346.04L389.14 345.84L391.05 345.73L392.95 345.7L394.87 345.74L396.79 345.87ZM388.75 378.49L386.85 379.05L385.04 379.86L383.34 380.89L381.79 382.14L380.39 383.58L379.19 385.2L378.19 387.01L377.42 388.98L376.77 391.07L376.39 393.19L376.3 395.32L376.47 397.41L376.91 399.45L377.59 401.4L378.52 403.28L379.65 405.01L381.03 406.6L382.6 408.01L384.38 409.24L386.35 410.22L386.49 410.27L386.52 410.29L386.76 410.36L386.79 410.38L386.88 410.41L388.94 410.91L390.99 411.11L393.02 411.05L395 410.72L396.9 410.16L398.71 409.35L400.41 408.32L401.96 407.09L403.36 405.63L404.57 404.01L405.57 402.2L406.33 400.23L406.99 398.14L407.36 396.02L407.45 393.9L407.28 391.81L406.85 389.78L406.16 387.81L405.24 385.95L404.1 384.2L402.72 382.63L401.15 381.21L399.37 379.99L397.4 378.99L397.31 378.96L397.28 378.94L397 378.85L396.97 378.83L396.87 378.8L394.81 378.32L392.77 378.1L390.74 378.16L388.75 378.49Z" id="bgs3NmKeb"></path><path d="M116.63 551.28C115.71 547.33 111.15 527.52 102.92 491.87C138.68 499.54 158.57 503.78 162.53 504.63C164.6 505.5 166.97 504.53 167.83 502.47C168.7 500.43 167.73 498.06 165.67 497.2C165.22 496.99 164.74 496.88 164.24 496.87C157.66 495.48 105.03 484.26 98.46 482.85C96.31 482.51 94.29 483.96 93.95 486.11C93.86 486.72 93.9 487.36 94.11 487.94C95.6 494.51 107.69 546.96 109.18 553.51C109.71 555.64 111.84 556.96 113.98 556.49C113.91 556.42 113.71 556.15 113.65 556.07C115.77 555.54 117.1 553.42 116.63 551.28Z" id="a3RNWoPE4v"></path><path d="M116.63 551.28C115.71 547.33 111.15 527.52 102.92 491.87C138.68 499.54 158.57 503.78 162.53 504.63C164.6 505.5 166.97 504.53 167.83 502.47C168.7 500.43 167.73 498.06 165.67 497.2C165.22 496.99 164.74 496.88 164.24 496.87C157.66 495.48 105.03 484.26 98.46 482.85C96.31 482.51 94.29 483.96 93.95 486.11C93.86 486.72 93.9 487.36 94.11 487.94C95.6 494.51 107.69 546.96 109.18 553.51C109.71 555.64 111.84 556.96 113.98 556.49C113.91 556.42 113.71 556.15 113.65 556.07C115.77 555.54 117.1 553.42 116.63 551.28Z" id="cj1XONTZz"></path><path d="M6.43 320.86C6.43 494.53 147.21 635.32 320.89 635.32C494.55 635.32 635.34 494.53 635.34 320.86C635.34 147.18 494.55 6.39 320.89 6.39C147.21 6.39 6.43 147.18 6.43 320.86Z" id="jCJi8eXrj"></path><path d="M6.43 320.86C6.43 494.53 147.21 635.32 320.89 635.32C494.55 635.32 635.34 494.53 635.34 320.86C635.34 147.18 494.55 6.39 320.89 6.39C147.21 6.39 6.43 147.18 6.43 320.86Z" id="ijPZTWeA5"></path><path d="M220.35 479.53L278.27 479.53C278.27 455.55 278.27 442.23 278.27 439.57C329.28 439.57 357.61 439.57 363.3 439.57C363.3 441.89 363.3 444.24 363.3 446.58C363.3 459.75 363.3 470.21 363.3 472.83C363.3 477.94 363.3 477.94 368.39 478.03C371.52 478.03 387.23 478.03 415.48 478.03C415.72 478.03 416.96 478.03 419.19 478.03L419.19 501.83L220.35 501.94L220.35 479.53Z" id="a6eo4xTZmV"></path><path d="M220.35 479.53L278.27 479.53C278.27 455.55 278.27 442.23 278.27 439.57C329.28 439.57 357.61 439.57 363.3 439.57C363.3 441.89 363.3 444.24 363.3 446.58C363.3 459.75 363.3 470.21 363.3 472.83C363.3 477.94 363.3 477.94 368.39 478.03C371.52 478.03 387.23 478.03 415.48 478.03C415.72 478.03 416.96 478.03 419.19 478.03L419.19 501.83L220.35 501.94L220.35 479.53Z" id="c1KIoPpwV8"></path><path d="M492.04 139.83L492.8 139.89L493.58 139.99L494.35 140.08L495.11 140.19L495.88 140.31L496.64 140.45L497.41 140.61L498.16 140.77L499.66 141.14L500.41 141.36L501.14 141.58L501.87 141.81L502.61 142.06L503.32 142.33L504.06 142.61L504.76 142.91L505.48 143.2L506.18 143.51L506.88 143.86L507.57 144.2L508.94 144.92L510.29 145.7L510.94 146.11L511.6 146.53L512.25 146.96L512.89 147.42L513.52 147.87L514.77 148.84L515.37 149.34L516.44 150.27L517.47 151.27L518.43 152.3L518.9 152.83L519.35 153.38L520.23 154.47L520.65 155.05L521.43 156.2L521.82 156.8L522.18 157.39L522.87 158.61L523.19 159.23L523.51 159.86L523.8 160.5L524.08 161.14L524.35 161.79L524.6 162.43L524.83 163.09L525.07 163.76L525.47 165.1L525.64 165.77L525.82 166.46L525.97 167.15L526.1 167.83L526.22 168.54L526.33 169.24L526.43 169.94L526.55 171.35L526.6 172.06L526.63 172.77L526.63 368.05L526.61 369.27L526.57 370.5L526.5 371.73L526.41 372.97L526.32 374.18L526.19 375.4L526.05 376.62L525.88 377.84L525.71 379.04L525.5 380.24L525.04 382.64L524.51 385.02L524.21 386.2L523.55 388.54L523.19 389.71L522.82 390.87L522.43 392.02L522.02 393.18L521.59 394.32L521.15 395.44L520.68 396.57L520.2 397.69L519.7 398.8L519.17 399.91L518.64 401L518.07 402.08L517.5 403.17L516.9 404.23L516.3 405.29L515.67 406.34L515.03 407.38L513.69 409.44L512.28 411.44L511.55 412.44L510.8 413.42L510.49 413.86L509.51 415.13L509.16 415.53L508.82 415.92L508.46 416.33L508.1 416.7L507.73 417.09L507.35 417.45L506.96 417.83L506.57 418.17L506.18 418.53L505.77 418.86L505.37 419.2L504.95 419.51L504.53 419.84L504.1 420.14L503.67 420.45L503.23 420.73L502.78 421.01L502.34 421.29L501.89 421.56L500.48 422.31L500.02 422.52L499.53 422.76L498.56 423.16L498.06 423.37L497.58 423.55L497.08 423.73L496.57 423.9L496.07 424.05L495.04 424.33L494.01 424.58L493.47 424.68L493.19 424.71L493.04 424.72L492.9 424.74L492.76 424.74L492.48 424.77L492.34 424.77L492.18 424.79L492.04 424.79L491.9 424.8L491.62 424.8L491.46 424.82L490.9 424.82L490.74 424.83L490.46 424.83L490.32 424.82L489.74 424.82L489.6 424.8L489.31 424.8L489.17 424.79L489.03 424.79L488.89 424.77L488.75 424.77L488.59 424.76L488.45 424.74L488.31 424.74L488.03 424.71L487.87 424.69L487.73 424.68L155.64 424.68L154.79 424.63L153.67 424.51L153.4 424.46L153.12 424.43L152.56 424.33L152.3 424.27L152.01 424.23L151.75 424.16L151.47 424.1L151.2 424.04L150.94 423.96L150.66 423.9L149.86 423.66L149.59 423.57L149.33 423.49L148.8 423.3L148.53 423.19L148.27 423.1L148.02 422.99L147.75 422.88L147.5 422.77L147.24 422.66L146.99 422.54L146.74 422.43L146.24 422.18L145.99 422.04L145.74 421.91L145.24 421.63L145.01 421.49L143.71 420.85L142.43 420.17L141.18 419.45L139.96 418.7L138.76 417.92L137.59 417.09L136.45 416.25L135.34 415.37L134.27 414.47L133.21 413.53L132.18 412.57L131.18 411.58L130.21 410.57L129.27 409.52L128.37 408.46L127.49 407.37L126.65 406.24L125.85 405.1L125.07 403.95L124.32 402.76L123.62 401.56L122.93 400.34L122.29 399.09L121.7 397.83L121.12 396.57L120.59 395.27L120.09 393.96L119.64 392.63L119.2 391.29L118.83 389.93L118.49 388.57L118.17 387.19L117.91 385.8L117.67 384.39L117.49 382.99L117.33 381.57L117.24 380.13L117.16 378.69L117.14 377.26L117.16 375.81L117.16 358.84L117.14 356.72L117.14 350.35L117.13 348.23L117.13 343.98L117.1 339.73L117.1 337.61L117 324.87L116.97 322.74L116.96 320.61L116.93 318.49L116.91 316.37L116.88 314.23L116.85 312.11L116.82 309.97L116.79 307.84L116.74 305.72L116.71 303.58L116.66 301.45L116.61 299.32L116.52 295.05L116.47 292.92L116.41 290.78L116.36 288.65L116.3 286.51L116.21 282.23L116.16 280.08L116.11 277.94L116.07 275.78L116.02 273.65L115.97 271.49L115.94 269.35L115.9 267.2L115.86 265.05L115.82 262.89L115.6 247.81L115.58 245.64L115.55 243.49L115.54 241.34L115.52 239.17L115.49 237.01L115.47 234.84L115.44 230.53L115.43 228.36L115.41 226.21L115.4 224.04L115.4 221.89L115.38 219.72L115.38 217.56L115.36 215.39L115.36 211.07L115.35 208.92L115.35 174.94L115.38 173.75L115.46 172.56L115.58 171.38L115.74 170.22L115.93 169.07L116.16 167.93L116.44 166.79L116.75 165.68L117.1 164.59L117.47 163.49L117.89 162.43L118.35 161.39L118.85 160.36L119.36 159.34L119.92 158.34L120.52 157.38L121.12 156.42L121.78 155.5L122.47 154.58L123.17 153.71L123.92 152.85L124.68 152.02L125.48 151.21L126.31 150.43L127.15 149.68L128.04 148.95L128.93 148.26L129.87 147.59L130.82 146.95L131.79 146.36L132.78 145.78L133.8 145.25L134.84 144.73L135.91 144.26L136.98 143.83L138.09 143.44L139.2 143.06L140.34 142.75L141.49 142.45L142.66 142.2L143.02 142.16L143.74 142.03L144.12 141.98L144.48 141.92L145.19 141.83L145.55 141.77L145.93 141.72L146.29 141.69L147 141.59L147.38 141.56L147.74 141.52L148.46 141.45L148.83 141.42L149.55 141.36L149.92 141.33L150.28 141.3L150.66 141.28L151.02 141.25L151.37 141.24L151.75 141.22L152.47 141.19L152.84 141.17L153.2 141.16L153.58 141.16L153.93 141.14L154.29 141.14L154.67 141.13L156.49 141.13L156.85 141.14L320.14 141.14L320.25 140.41L425.15 140.41L426.95 140.39L435.99 140.39L437.8 140.38L441.4 140.38L443.21 140.36L445.02 140.36L446.82 140.35L448.63 140.33L450.44 140.33L452.24 140.31L454.05 140.3L455.84 140.28L459.46 140.25L461.27 140.22L463.07 140.21L464.88 140.19L466.69 140.16L468.49 140.13L470.3 140.11L473.92 140.05L475.71 140.02L477.52 139.97L479.33 139.94L481.14 139.89L482.95 139.86L484.77 139.82L486.56 139.77L487.36 139.74L488.14 139.71L488.92 139.71L490.48 139.74L492.04 139.83ZM477.51 157.08L477.1 157.08L476.68 157.09L412.92 157.09L319.72 158.16L319.72 158.8L306.12 158.8L178.58 159.42L149.69 159.42L149.08 159.44L148.46 159.48L147.85 159.54L147.25 159.62L146.66 159.73L146.07 159.87L145.49 160.01L144.93 160.18L144.37 160.39L143.8 160.61L143.27 160.84L142.74 161.09L142.21 161.37L141.71 161.65L141.21 161.96L140.73 162.29L140.25 162.64L139.79 162.99L139.34 163.38L138.92 163.77L138.5 164.18L138.09 164.62L137.72 165.05L137.34 165.51L136.98 165.98L136.66 166.46L136.33 166.96L136.03 167.46L135.75 167.99L135.48 168.52L135.02 169.61L134.81 170.17L134.64 170.75L134.47 171.35L134.35 171.94L134.22 172.55L134.13 173.16L134.06 173.78L133.91 174.56L133.89 174.72L133.86 174.87L133.85 175.04L133.81 175.2L133.8 175.36L133.77 175.51L133.75 175.67L133.72 175.82L133.71 176L133.69 176.15L133.66 176.31L133.63 176.62L133.61 176.79L133.56 177.26L133.55 177.43L133.52 177.74L133.52 177.9L133.5 178.07L133.49 178.23L133.49 178.38L133.47 178.54L133.47 178.71L133.46 178.87L133.46 179.02L133.44 179.18L133.44 179.51L133.42 179.66L133.42 208.1L133.47 211.73L133.52 215.33L133.56 218.87L133.61 222.39L133.66 225.87L133.71 229.29L133.75 232.66L133.8 236L133.85 239.26L133.89 242.49L133.92 245.66L133.97 248.77L134.02 251.82L134.06 254.82L134.1 257.76L134.14 260.63L134.19 263.42L134.22 266.17L134.27 268.82L134.3 271.43L134.33 273.94L134.38 276.39L134.41 278.77L134.44 281.06L134.47 283.26L134.5 285.4L134.53 287.44L134.56 289.41L134.59 291.27L134.61 293.06L134.64 294.75L134.67 296.34L134.69 297.86L134.7 299.26L134.74 300.56L134.75 301.77L134.77 302.87L134.78 303.88L134.8 304.77L134.8 318.01L134.81 319.79L134.81 325.12L134.83 326.9L134.83 330.46L134.84 332.24L134.84 334.02L134.86 335.82L134.88 337.6L134.88 339.37L134.94 346.49L134.97 348.27L134.99 350.07L135 351.85L135.06 355.41L135.08 357.18L135.14 360.74L135.19 362.52L135.22 364.3L135.27 366.08L135.3 367.86L135.48 374.98L135.55 376.76L135.52 377.26L135.5 377.77L135.5 378.79L135.52 379.29L135.55 379.79L135.58 380.3L135.67 381.3L135.8 382.3L135.87 382.78L135.97 383.28L136.06 383.77L136.17 384.27L136.28 384.75L136.53 385.72L136.67 386.2L136.83 386.67L136.98 387.15L137.33 388.09L137.51 388.56L137.7 389.01L137.9 389.48L138.34 390.38L138.56 390.82L138.79 391.27L139.29 392.15L139.56 392.57L139.82 393.01L140.1 393.43L140.39 393.83L140.68 394.26L140.98 394.66L141.29 395.07L141.6 395.46L142.17 396.27L142.45 396.66L142.76 397.05L143.05 397.42L143.37 397.78L143.69 398.16L144.02 398.5L144.37 398.86L144.71 399.19L145.05 399.53L145.41 399.86L145.77 400.17L146.15 400.47L146.52 400.78L146.91 401.06L147.28 401.34L147.69 401.62L148.08 401.89L148.49 402.15L148.91 402.4L149.31 402.64L149.74 402.87L150.16 403.09L150.59 403.31L151.03 403.51L151.47 403.7L151.92 403.89L152.36 404.06L152.81 404.23L153.28 404.39L153.73 404.53L154.2 404.67L155.14 404.92L155.62 405.01L156.09 405.12L157.06 405.28L157.54 405.34L485.83 405.34L486.11 405.37L486.67 405.4L487.5 405.4L488.06 405.37L488.34 405.34L488.6 405.31L488.89 405.26L489.15 405.21L489.43 405.17L490.23 404.98L490.49 404.9L490.76 404.81L491.02 404.73L491.27 404.62L491.54 404.53L492.04 404.31L492.29 404.18L492.52 404.06L492.77 403.93L493.01 403.79L493.26 403.65L493.47 403.51L493.71 403.36L493.94 403.18L494.16 403.03L494.6 402.68L494.82 402.5L495.22 402.12L495.43 401.92L495.61 401.72L495.82 401.51L496.38 400.87L496.92 400.22L497.47 399.55L498 398.88L498.52 398.19L499.52 396.82L500 396.1L500.47 395.4L500.92 394.68L501.37 393.94L502.22 392.48L502.62 391.73L503.4 390.23L503.76 389.46L504.12 388.68L504.46 387.9L505.12 386.34L505.71 384.75L505.98 383.95L506.24 383.14L506.74 381.52L506.96 380.69L507.16 379.88L507.37 379.05L507.55 378.21L507.71 377.38L507.87 376.54L508.15 374.85L508.26 374.01L508.35 373.15L508.44 372.31L508.57 370.59L508.57 176.75L508.65 176.07L508.69 175.4L508.71 174.73L508.69 174.08L508.66 173.42L508.6 172.77L508.52 172.11L508.41 171.47L508.27 170.85L508.12 170.22L507.93 169.61L507.73 169L507.49 168.41L507.24 167.82L506.98 167.26L506.68 166.69L506.37 166.15L506.02 165.6L505.68 165.09L505.31 164.57L504.9 164.07L504.49 163.6L504.06 163.13L503.61 162.68L503.14 162.26L502.65 161.85L502.15 161.45L501.64 161.07L501.11 160.73L500.56 160.39L500 160.08L499.44 159.78L498.84 159.51L498.24 159.26L497.63 159.03L497 158.83L496.36 158.65L495.71 158.5L495.05 158.37L494.38 158.26L494.29 158.26L494.21 158.25L494.15 158.25L494.11 158.23L494.02 158.23L493.97 158.22L493.88 158.22L493.85 158.2L493.71 158.2L493.68 158.19L493.55 158.19L493.47 158.17L493.29 158.17L493.26 158.16L493.05 158.16L491.84 157.97L491.43 157.92L491.01 157.86L490.6 157.81L490.2 157.75L488.57 157.56L488.17 157.53L487.75 157.48L487.34 157.45L486.93 157.41L486.12 157.34L485.7 157.31L484.89 157.25L484.48 157.23L484.06 157.2L483.25 157.17L482.85 157.14L482.42 157.13L482.02 157.11L481.61 157.11L481.21 157.09L480.78 157.08L480.38 157.08L479.97 157.06L477.91 157.06L477.51 157.08Z" id="bKMHgYkbq"></path><path d="M492.04 139.83L492.8 139.89L493.58 139.99L494.35 140.08L495.11 140.19L495.88 140.31L496.64 140.45L497.41 140.61L498.16 140.77L499.66 141.14L500.41 141.36L501.14 141.58L501.87 141.81L502.61 142.06L503.32 142.33L504.06 142.61L504.76 142.91L505.48 143.2L506.18 143.51L506.88 143.86L507.57 144.2L508.94 144.92L510.29 145.7L510.94 146.11L511.6 146.53L512.25 146.96L512.89 147.42L513.52 147.87L514.77 148.84L515.37 149.34L516.44 150.27L517.47 151.27L518.43 152.3L518.9 152.83L519.35 153.38L520.23 154.47L520.65 155.05L521.43 156.2L521.82 156.8L522.18 157.39L522.87 158.61L523.19 159.23L523.51 159.86L523.8 160.5L524.08 161.14L524.35 161.79L524.6 162.43L524.83 163.09L525.07 163.76L525.47 165.1L525.64 165.77L525.82 166.46L525.97 167.15L526.1 167.83L526.22 168.54L526.33 169.24L526.43 169.94L526.55 171.35L526.6 172.06L526.63 172.77L526.63 368.05L526.61 369.27L526.57 370.5L526.5 371.73L526.41 372.97L526.32 374.18L526.19 375.4L526.05 376.62L525.88 377.84L525.71 379.04L525.5 380.24L525.04 382.64L524.51 385.02L524.21 386.2L523.55 388.54L523.19 389.71L522.82 390.87L522.43 392.02L522.02 393.18L521.59 394.32L521.15 395.44L520.68 396.57L520.2 397.69L519.7 398.8L519.17 399.91L518.64 401L518.07 402.08L517.5 403.17L516.9 404.23L516.3 405.29L515.67 406.34L515.03 407.38L513.69 409.44L512.28 411.44L511.55 412.44L510.8 413.42L510.49 413.86L509.51 415.13L509.16 415.53L508.82 415.92L508.46 416.33L508.1 416.7L507.73 417.09L507.35 417.45L506.96 417.83L506.57 418.17L506.18 418.53L505.77 418.86L505.37 419.2L504.95 419.51L504.53 419.84L504.1 420.14L503.67 420.45L503.23 420.73L502.78 421.01L502.34 421.29L501.89 421.56L500.48 422.31L500.02 422.52L499.53 422.76L498.56 423.16L498.06 423.37L497.58 423.55L497.08 423.73L496.57 423.9L496.07 424.05L495.04 424.33L494.01 424.58L493.47 424.68L493.19 424.71L493.04 424.72L492.9 424.74L492.76 424.74L492.48 424.77L492.34 424.77L492.18 424.79L492.04 424.79L491.9 424.8L491.62 424.8L491.46 424.82L490.9 424.82L490.74 424.83L490.46 424.83L490.32 424.82L489.74 424.82L489.6 424.8L489.31 424.8L489.17 424.79L489.03 424.79L488.89 424.77L488.75 424.77L488.59 424.76L488.45 424.74L488.31 424.74L488.03 424.71L487.87 424.69L487.73 424.68L155.64 424.68L154.79 424.63L153.67 424.51L153.4 424.46L153.12 424.43L152.56 424.33L152.3 424.27L152.01 424.23L151.75 424.16L151.47 424.1L151.2 424.04L150.94 423.96L150.66 423.9L149.86 423.66L149.59 423.57L149.33 423.49L148.8 423.3L148.53 423.19L148.27 423.1L148.02 422.99L147.75 422.88L147.5 422.77L147.24 422.66L146.99 422.54L146.74 422.43L146.24 422.18L145.99 422.04L145.74 421.91L145.24 421.63L145.01 421.49L143.71 420.85L142.43 420.17L141.18 419.45L139.96 418.7L138.76 417.92L137.59 417.09L136.45 416.25L135.34 415.37L134.27 414.47L133.21 413.53L132.18 412.57L131.18 411.58L130.21 410.57L129.27 409.52L128.37 408.46L127.49 407.37L126.65 406.24L125.85 405.1L125.07 403.95L124.32 402.76L123.62 401.56L122.93 400.34L122.29 399.09L121.7 397.83L121.12 396.57L120.59 395.27L120.09 393.96L119.64 392.63L119.2 391.29L118.83 389.93L118.49 388.57L118.17 387.19L117.91 385.8L117.67 384.39L117.49 382.99L117.33 381.57L117.24 380.13L117.16 378.69L117.14 377.26L117.16 375.81L117.16 358.84L117.14 356.72L117.14 350.35L117.13 348.23L117.13 343.98L117.1 339.73L117.1 337.61L117 324.87L116.97 322.74L116.96 320.61L116.93 318.49L116.91 316.37L116.88 314.23L116.85 312.11L116.82 309.97L116.79 307.84L116.74 305.72L116.71 303.58L116.66 301.45L116.61 299.32L116.52 295.05L116.47 292.92L116.41 290.78L116.36 288.65L116.3 286.51L116.21 282.23L116.16 280.08L116.11 277.94L116.07 275.78L116.02 273.65L115.97 271.49L115.94 269.35L115.9 267.2L115.86 265.05L115.82 262.89L115.6 247.81L115.58 245.64L115.55 243.49L115.54 241.34L115.52 239.17L115.49 237.01L115.47 234.84L115.44 230.53L115.43 228.36L115.41 226.21L115.4 224.04L115.4 221.89L115.38 219.72L115.38 217.56L115.36 215.39L115.36 211.07L115.35 208.92L115.35 174.94L115.38 173.75L115.46 172.56L115.58 171.38L115.74 170.22L115.93 169.07L116.16 167.93L116.44 166.79L116.75 165.68L117.1 164.59L117.47 163.49L117.89 162.43L118.35 161.39L118.85 160.36L119.36 159.34L119.92 158.34L120.52 157.38L121.12 156.42L121.78 155.5L122.47 154.58L123.17 153.71L123.92 152.85L124.68 152.02L125.48 151.21L126.31 150.43L127.15 149.68L128.04 148.95L128.93 148.26L129.87 147.59L130.82 146.95L131.79 146.36L132.78 145.78L133.8 145.25L134.84 144.73L135.91 144.26L136.98 143.83L138.09 143.44L139.2 143.06L140.34 142.75L141.49 142.45L142.66 142.2L143.02 142.16L143.74 142.03L144.12 141.98L144.48 141.92L145.19 141.83L145.55 141.77L145.93 141.72L146.29 141.69L147 141.59L147.38 141.56L147.74 141.52L148.46 141.45L148.83 141.42L149.55 141.36L149.92 141.33L150.28 141.3L150.66 141.28L151.02 141.25L151.37 141.24L151.75 141.22L152.47 141.19L152.84 141.17L153.2 141.16L153.58 141.16L153.93 141.14L154.29 141.14L154.67 141.13L156.49 141.13L156.85 141.14L320.14 141.14L320.25 140.41L425.15 140.41L426.95 140.39L435.99 140.39L437.8 140.38L441.4 140.38L443.21 140.36L445.02 140.36L446.82 140.35L448.63 140.33L450.44 140.33L452.24 140.31L454.05 140.3L455.84 140.28L459.46 140.25L461.27 140.22L463.07 140.21L464.88 140.19L466.69 140.16L468.49 140.13L470.3 140.11L473.92 140.05L475.71 140.02L477.52 139.97L479.33 139.94L481.14 139.89L482.95 139.86L484.77 139.82L486.56 139.77L487.36 139.74L488.14 139.71L488.92 139.71L490.48 139.74L492.04 139.83ZM477.51 157.08L477.1 157.08L476.68 157.09L412.92 157.09L319.72 158.16L319.72 158.8L306.12 158.8L178.58 159.42L149.69 159.42L149.08 159.44L148.46 159.48L147.85 159.54L147.25 159.62L146.66 159.73L146.07 159.87L145.49 160.01L144.93 160.18L144.37 160.39L143.8 160.61L143.27 160.84L142.74 161.09L142.21 161.37L141.71 161.65L141.21 161.96L140.73 162.29L140.25 162.64L139.79 162.99L139.34 163.38L138.92 163.77L138.5 164.18L138.09 164.62L137.72 165.05L137.34 165.51L136.98 165.98L136.66 166.46L136.33 166.96L136.03 167.46L135.75 167.99L135.48 168.52L135.02 169.61L134.81 170.17L134.64 170.75L134.47 171.35L134.35 171.94L134.22 172.55L134.13 173.16L134.06 173.78L133.91 174.56L133.89 174.72L133.86 174.87L133.85 175.04L133.81 175.2L133.8 175.36L133.77 175.51L133.75 175.67L133.72 175.82L133.71 176L133.69 176.15L133.66 176.31L133.63 176.62L133.61 176.79L133.56 177.26L133.55 177.43L133.52 177.74L133.52 177.9L133.5 178.07L133.49 178.23L133.49 178.38L133.47 178.54L133.47 178.71L133.46 178.87L133.46 179.02L133.44 179.18L133.44 179.51L133.42 179.66L133.42 208.1L133.47 211.73L133.52 215.33L133.56 218.87L133.61 222.39L133.66 225.87L133.71 229.29L133.75 232.66L133.8 236L133.85 239.26L133.89 242.49L133.92 245.66L133.97 248.77L134.02 251.82L134.06 254.82L134.1 257.76L134.14 260.63L134.19 263.42L134.22 266.17L134.27 268.82L134.3 271.43L134.33 273.94L134.38 276.39L134.41 278.77L134.44 281.06L134.47 283.26L134.5 285.4L134.53 287.44L134.56 289.41L134.59 291.27L134.61 293.06L134.64 294.75L134.67 296.34L134.69 297.86L134.7 299.26L134.74 300.56L134.75 301.77L134.77 302.87L134.78 303.88L134.8 304.77L134.8 318.01L134.81 319.79L134.81 325.12L134.83 326.9L134.83 330.46L134.84 332.24L134.84 334.02L134.86 335.82L134.88 337.6L134.88 339.37L134.94 346.49L134.97 348.27L134.99 350.07L135 351.85L135.06 355.41L135.08 357.18L135.14 360.74L135.19 362.52L135.22 364.3L135.27 366.08L135.3 367.86L135.48 374.98L135.55 376.76L135.52 377.26L135.5 377.77L135.5 378.79L135.52 379.29L135.55 379.79L135.58 380.3L135.67 381.3L135.8 382.3L135.87 382.78L135.97 383.28L136.06 383.77L136.17 384.27L136.28 384.75L136.53 385.72L136.67 386.2L136.83 386.67L136.98 387.15L137.33 388.09L137.51 388.56L137.7 389.01L137.9 389.48L138.34 390.38L138.56 390.82L138.79 391.27L139.29 392.15L139.56 392.57L139.82 393.01L140.1 393.43L140.39 393.83L140.68 394.26L140.98 394.66L141.29 395.07L141.6 395.46L142.17 396.27L142.45 396.66L142.76 397.05L143.05 397.42L143.37 397.78L143.69 398.16L144.02 398.5L144.37 398.86L144.71 399.19L145.05 399.53L145.41 399.86L145.77 400.17L146.15 400.47L146.52 400.78L146.91 401.06L147.28 401.34L147.69 401.62L148.08 401.89L148.49 402.15L148.91 402.4L149.31 402.64L149.74 402.87L150.16 403.09L150.59 403.31L151.03 403.51L151.47 403.7L151.92 403.89L152.36 404.06L152.81 404.23L153.28 404.39L153.73 404.53L154.2 404.67L155.14 404.92L155.62 405.01L156.09 405.12L157.06 405.28L157.54 405.34L485.83 405.34L486.11 405.37L486.67 405.4L487.5 405.4L488.06 405.37L488.34 405.34L488.6 405.31L488.89 405.26L489.15 405.21L489.43 405.17L490.23 404.98L490.49 404.9L490.76 404.81L491.02 404.73L491.27 404.62L491.54 404.53L492.04 404.31L492.29 404.18L492.52 404.06L492.77 403.93L493.01 403.79L493.26 403.65L493.47 403.51L493.71 403.36L493.94 403.18L494.16 403.03L494.6 402.68L494.82 402.5L495.22 402.12L495.43 401.92L495.61 401.72L495.82 401.51L496.38 400.87L496.92 400.22L497.47 399.55L498 398.88L498.52 398.19L499.52 396.82L500 396.1L500.47 395.4L500.92 394.68L501.37 393.94L502.22 392.48L502.62 391.73L503.4 390.23L503.76 389.46L504.12 388.68L504.46 387.9L505.12 386.34L505.71 384.75L505.98 383.95L506.24 383.14L506.74 381.52L506.96 380.69L507.16 379.88L507.37 379.05L507.55 378.21L507.71 377.38L507.87 376.54L508.15 374.85L508.26 374.01L508.35 373.15L508.44 372.31L508.57 370.59L508.57 176.75L508.65 176.07L508.69 175.4L508.71 174.73L508.69 174.08L508.66 173.42L508.6 172.77L508.52 172.11L508.41 171.47L508.27 170.85L508.12 170.22L507.93 169.61L507.73 169L507.49 168.41L507.24 167.82L506.98 167.26L506.68 166.69L506.37 166.15L506.02 165.6L505.68 165.09L505.31 164.57L504.9 164.07L504.49 163.6L504.06 163.13L503.61 162.68L503.14 162.26L502.65 161.85L502.15 161.45L501.64 161.07L501.11 160.73L500.56 160.39L500 160.08L499.44 159.78L498.84 159.51L498.24 159.26L497.63 159.03L497 158.83L496.36 158.65L495.71 158.5L495.05 158.37L494.38 158.26L494.29 158.26L494.21 158.25L494.15 158.25L494.11 158.23L494.02 158.23L493.97 158.22L493.88 158.22L493.85 158.2L493.71 158.2L493.68 158.19L493.55 158.19L493.47 158.17L493.29 158.17L493.26 158.16L493.05 158.16L491.84 157.97L491.43 157.92L491.01 157.86L490.6 157.81L490.2 157.75L488.57 157.56L488.17 157.53L487.75 157.48L487.34 157.45L486.93 157.41L486.12 157.34L485.7 157.31L484.89 157.25L484.48 157.23L484.06 157.2L483.25 157.17L482.85 157.14L482.42 157.13L482.02 157.11L481.61 157.11L481.21 157.09L480.78 157.08L480.38 157.08L479.97 157.06L477.91 157.06L477.51 157.08Z" id="a23F3YAypO"></path><path d="M166.05 351.25C166.05 352.46 166.05 358.48 166.05 369.31C176.92 369.35 263.89 369.61 274.76 369.64C274.76 358.79 274.76 352.77 274.76 351.57C274.83 341.61 266.86 333.46 256.91 333.29C242.39 333.29 191.58 333.29 184.32 333.29C174.34 333.23 166.16 341.25 166.05 351.25Z" id="bYiin0rMe"></path><path d="M166.05 351.25C166.05 352.46 166.05 358.48 166.05 369.31C176.92 369.35 263.89 369.61 274.76 369.64C274.76 358.79 274.76 352.77 274.76 351.57C274.83 341.61 266.86 333.46 256.91 333.29C242.39 333.29 191.58 333.29 184.32 333.29C174.34 333.23 166.16 341.25 166.05 351.25Z" id="a2DUFwQt2J"></path><path d="M224.64 222.53L226.64 222.75L228.62 223.06L230.57 223.45L232.49 223.93L234.37 224.48L236.22 225.1L238.04 225.8L239.81 226.58L241.55 227.43L243.25 228.35L244.89 229.33L246.5 230.39L248.06 231.5L249.57 232.69L251.02 233.92L252.43 235.22L253.78 236.57L255.06 237.98L256.3 239.43L257.48 240.95L258.59 242.51L259.64 244.11L260.62 245.77L261.54 247.47L262.38 249.2L263.15 250.98L263.85 252.79L264.48 254.65L265.02 256.54L265.49 258.46L265.88 260.41L266.18 262.38L266.4 264.39L266.54 266.42L266.58 268.46L266.54 270.52L266.4 272.55L266.16 274.55L265.87 276.53L265.46 278.48L264.99 280.42L264.45 282.31L263.81 284.15L263.1 285.98L262.32 287.76L261.48 289.49L260.56 291.19L259.56 292.84L258.51 294.45L257.39 296.01L256.22 297.53L254.97 298.99L253.68 300.4L252.32 301.76L250.91 303.05L249.45 304.29L247.93 305.46L246.37 306.58L244.75 307.63L243.09 308.61L241.39 309.53L239.66 310.37L237.86 311.15L236.05 311.86L234.2 312.48L232.31 313.03L230.39 313.5L228.44 313.89L226.45 314.18L224.44 314.4L222.41 314.54L220.35 314.59L218.29 314.54L216.26 314.4L214.26 314.17L212.28 313.87L210.33 313.46L208.41 313L206.52 312.45L204.68 311.81L202.85 311.11L201.07 310.33L199.34 309.48L197.64 308.56L195.98 307.56L194.38 306.52L192.83 305.39L191.32 304.21L189.85 302.97L188.45 301.68L187.1 300.32L185.81 298.9L184.57 297.43L183.4 295.92L182.28 294.36L181.23 292.75L180.27 291.1L179.35 289.4L178.5 287.65L177.74 285.87L177.04 284.06L176.41 282.2L175.86 280.31L175.41 278.38L175.02 276.42L174.73 274.46L174.51 272.44L174.38 270.41L174.34 268.35L174.38 266.31L174.52 264.26L174.74 262.27L175.05 260.28L175.44 258.33L175.93 256.41L176.47 254.52L177.11 252.68L177.82 250.86L178.6 249.08L179.44 247.34L180.36 245.64L181.36 243.99L182.4 242.38L183.53 240.84L184.7 239.32L185.95 237.85L187.24 236.45L188.6 235.11L190.02 233.81L191.47 232.58L192.99 231.41L194.56 230.3L196.17 229.24L197.83 228.27L199.53 227.35L201.28 226.51L203.06 225.74L204.87 225.04L206.72 224.42L208.61 223.87L210.53 223.42L212.48 223.03L214.47 222.73L216.48 222.51L218.51 222.39L220.57 222.34L222.61 222.39L224.64 222.53ZM216.23 228.3L214.2 228.57L212.22 228.93L210.27 229.38L208.35 229.93L206.47 230.57L204.65 231.3L202.85 232.11L201.12 233L199.43 233.98L197.8 235.03L196.2 236.17L194.69 237.37L193.22 238.64L191.83 239.98L190.49 241.38L189.23 242.85L188.04 244.38L186.92 245.97L185.87 247.61L184.9 249.31L184.01 251.04L183.2 252.84L182.48 254.68L181.86 256.55L181.31 258.47L180.88 260.43L180.52 262.42L180.27 264.44L180.13 266.5L180.08 268.57L180.13 270.65L180.3 272.69L180.56 274.72L180.92 276.71L181.37 278.66L181.92 280.58L182.56 282.45L183.29 284.28L184.11 286.07L185 287.8L185.98 289.49L187.03 291.13L188.16 292.7L189.37 294.23L190.63 295.7L191.97 297.09L193.38 298.43L194.85 299.7L196.37 300.88L197.97 302.01L199.61 303.05L201.31 304.02L203.04 304.91L204.83 305.71L206.68 306.44L208.55 307.06L210.47 307.6L212.42 308.05L214.42 308.39L216.43 308.64L218.49 308.8L220.57 308.84L222.64 308.78L224.69 308.63L226.7 308.36L228.69 308L230.64 307.55L232.54 307L234.41 306.36L236.26 305.64L238.04 304.83L239.77 303.94L241.45 302.96L243.09 301.91L244.67 300.79L246.2 299.59L247.65 298.32L249.05 296.98L250.38 295.58L251.65 294.11L252.85 292.6L253.97 291L255.02 289.36L255.99 287.68L256.88 285.95L257.67 284.15L258.4 282.32L259.03 280.45L259.58 278.53L260.03 276.58L260.37 274.6L260.64 272.58L260.79 270.54L260.84 268.46L260.78 266.39L260.62 264.33L260.36 262.31L260 260.32L259.54 258.36L259 256.44L258.36 254.57L257.62 252.73L256.81 250.95L255.92 249.2L254.94 247.52L253.89 245.88L252.75 244.29L251.55 242.77L250.29 241.3L248.95 239.9L247.54 238.56L246.07 237.29L244.54 236.09L242.95 234.97L241.31 233.92L239.63 232.95L237.88 232.06L236.08 231.25L234.26 230.53L232.37 229.89L230.45 229.35L228.5 228.9L226.5 228.54L224.49 228.29L222.43 228.13L220.35 228.08L218.27 228.13L216.23 228.3Z" id="b4m1VqtbVs"></path><path d="M224.64 222.53L226.64 222.75L228.62 223.06L230.57 223.45L232.49 223.93L234.37 224.48L236.22 225.1L238.04 225.8L239.81 226.58L241.55 227.43L243.25 228.35L244.89 229.33L246.5 230.39L248.06 231.5L249.57 232.69L251.02 233.92L252.43 235.22L253.78 236.57L255.06 237.98L256.3 239.43L257.48 240.95L258.59 242.51L259.64 244.11L260.62 245.77L261.54 247.47L262.38 249.2L263.15 250.98L263.85 252.79L264.48 254.65L265.02 256.54L265.49 258.46L265.88 260.41L266.18 262.38L266.4 264.39L266.54 266.42L266.58 268.46L266.54 270.52L266.4 272.55L266.16 274.55L265.87 276.53L265.46 278.48L264.99 280.42L264.45 282.31L263.81 284.15L263.1 285.98L262.32 287.76L261.48 289.49L260.56 291.19L259.56 292.84L258.51 294.45L257.39 296.01L256.22 297.53L254.97 298.99L253.68 300.4L252.32 301.76L250.91 303.05L249.45 304.29L247.93 305.46L246.37 306.58L244.75 307.63L243.09 308.61L241.39 309.53L239.66 310.37L237.86 311.15L236.05 311.86L234.2 312.48L232.31 313.03L230.39 313.5L228.44 313.89L226.45 314.18L224.44 314.4L222.41 314.54L220.35 314.59L218.29 314.54L216.26 314.4L214.26 314.17L212.28 313.87L210.33 313.46L208.41 313L206.52 312.45L204.68 311.81L202.85 311.11L201.07 310.33L199.34 309.48L197.64 308.56L195.98 307.56L194.38 306.52L192.83 305.39L191.32 304.21L189.85 302.97L188.45 301.68L187.1 300.32L185.81 298.9L184.57 297.43L183.4 295.92L182.28 294.36L181.23 292.75L180.27 291.1L179.35 289.4L178.5 287.65L177.74 285.87L177.04 284.06L176.41 282.2L175.86 280.31L175.41 278.38L175.02 276.42L174.73 274.46L174.51 272.44L174.38 270.41L174.34 268.35L174.38 266.31L174.52 264.26L174.74 262.27L175.05 260.28L175.44 258.33L175.93 256.41L176.47 254.52L177.11 252.68L177.82 250.86L178.6 249.08L179.44 247.34L180.36 245.64L181.36 243.99L182.4 242.38L183.53 240.84L184.7 239.32L185.95 237.85L187.24 236.45L188.6 235.11L190.02 233.81L191.47 232.58L192.99 231.41L194.56 230.3L196.17 229.24L197.83 228.27L199.53 227.35L201.28 226.51L203.06 225.74L204.87 225.04L206.72 224.42L208.61 223.87L210.53 223.42L212.48 223.03L214.47 222.73L216.48 222.51L218.51 222.39L220.57 222.34L222.61 222.39L224.64 222.53ZM216.23 228.3L214.2 228.57L212.22 228.93L210.27 229.38L208.35 229.93L206.47 230.57L204.65 231.3L202.85 232.11L201.12 233L199.43 233.98L197.8 235.03L196.2 236.17L194.69 237.37L193.22 238.64L191.83 239.98L190.49 241.38L189.23 242.85L188.04 244.38L186.92 245.97L185.87 247.61L184.9 249.31L184.01 251.04L183.2 252.84L182.48 254.68L181.86 256.55L181.31 258.47L180.88 260.43L180.52 262.42L180.27 264.44L180.13 266.5L180.08 268.57L180.13 270.65L180.3 272.69L180.56 274.72L180.92 276.71L181.37 278.66L181.92 280.58L182.56 282.45L183.29 284.28L184.11 286.07L185 287.8L185.98 289.49L187.03 291.13L188.16 292.7L189.37 294.23L190.63 295.7L191.97 297.09L193.38 298.43L194.85 299.7L196.37 300.88L197.97 302.01L199.61 303.05L201.31 304.02L203.04 304.91L204.83 305.71L206.68 306.44L208.55 307.06L210.47 307.6L212.42 308.05L214.42 308.39L216.43 308.64L218.49 308.8L220.57 308.84L222.64 308.78L224.69 308.63L226.7 308.36L228.69 308L230.64 307.55L232.54 307L234.41 306.36L236.26 305.64L238.04 304.83L239.77 303.94L241.45 302.96L243.09 301.91L244.67 300.79L246.2 299.59L247.65 298.32L249.05 296.98L250.38 295.58L251.65 294.11L252.85 292.6L253.97 291L255.02 289.36L255.99 287.68L256.88 285.95L257.67 284.15L258.4 282.32L259.03 280.45L259.58 278.53L260.03 276.58L260.37 274.6L260.64 272.58L260.79 270.54L260.84 268.46L260.78 266.39L260.62 264.33L260.36 262.31L260 260.32L259.54 258.36L259 256.44L258.36 254.57L257.62 252.73L256.81 250.95L255.92 249.2L254.94 247.52L253.89 245.88L252.75 244.29L251.55 242.77L250.29 241.3L248.95 239.9L247.54 238.56L246.07 237.29L244.54 236.09L242.95 234.97L241.31 233.92L239.63 232.95L237.88 232.06L236.08 231.25L234.26 230.53L232.37 229.89L230.45 229.35L228.5 228.9L226.5 228.54L224.49 228.29L222.43 228.13L220.35 228.08L218.27 228.13L216.23 228.3Z" id="f44iOax6s"></path><path d="M352.87 351.25C352.87 352.46 352.87 358.48 352.87 369.31C363.74 369.35 450.71 369.61 461.59 369.64C461.59 358.79 461.59 352.77 461.59 351.57C461.65 341.61 453.69 333.46 443.74 333.29C429.23 333.29 378.41 333.29 371.15 333.29C361.16 333.23 352.99 341.25 352.87 351.25Z" id="c2o8F0FZxj"></path><path d="M352.87 351.25C352.87 352.46 352.87 358.48 352.87 369.31C363.74 369.35 450.71 369.61 461.59 369.64C461.59 358.79 461.59 352.77 461.59 351.57C461.65 341.61 453.69 333.46 443.74 333.29C429.23 333.29 378.41 333.29 371.15 333.29C361.16 333.23 352.99 341.25 352.87 351.25Z" id="bnXjuyQql"></path><path d="M411.47 222.53L413.48 222.75L415.45 223.06L417.4 223.45L419.32 223.93L421.21 224.48L423.05 225.1L424.86 225.8L426.64 226.58L428.37 227.43L430.07 228.35L431.73 229.33L433.33 230.39L434.88 231.5L436.39 232.69L437.84 233.92L439.25 235.22L440.61 236.57L441.9 237.98L443.14 239.43L444.31 240.95L445.42 242.51L446.46 244.11L447.44 245.77L448.37 247.47L449.21 249.2L449.99 250.98L450.68 252.79L451.3 254.65L451.85 256.54L452.31 258.46L452.7 260.41L453.02 262.38L453.24 264.39L453.36 266.42L453.41 268.46L453.36 270.52L453.22 272.55L453 274.55L452.69 276.53L452.3 278.48L451.81 280.42L451.27 282.31L450.64 284.15L449.93 285.98L449.16 287.76L448.3 289.49L447.38 291.19L446.4 292.84L445.34 294.45L444.23 296.01L443.04 297.53L441.81 298.99L440.5 300.4L439.14 301.76L437.74 303.05L436.27 304.29L434.75 305.46L433.19 306.58L431.59 307.63L429.93 308.61L428.23 309.53L426.48 310.37L424.7 311.15L422.88 311.86L421.02 312.48L419.13 313.03L417.21 313.5L415.26 313.89L413.28 314.18L411.26 314.4L409.23 314.54L407.17 314.59L405.13 314.54L403.1 314.4L401.09 314.17L399.1 313.87L397.15 313.46L395.23 313L393.36 312.45L391.5 311.81L389.69 311.11L387.91 310.33L386.16 309.48L384.48 308.56L382.82 307.56L381.22 306.52L379.65 305.39L378.14 304.21L376.69 302.97L375.28 301.68L373.93 300.32L372.63 298.9L371.4 297.43L370.23 295.92L369.12 294.36L368.07 292.75L367.09 291.1L366.17 289.4L365.33 287.65L364.56 285.87L363.86 284.06L363.25 282.2L362.7 280.31L362.24 278.38L361.84 276.42L361.55 274.46L361.33 272.44L361.21 270.41L361.16 268.35L361.22 266.31L361.35 264.26L361.58 262.27L361.89 260.28L362.28 258.33L362.75 256.41L363.31 254.52L363.94 252.68L364.64 250.86L365.42 249.08L366.28 247.34L367.2 245.64L368.18 243.99L369.23 242.38L370.35 240.84L371.54 239.32L372.77 237.85L374.08 236.45L375.44 235.11L376.85 233.81L378.31 232.58L379.83 231.41L381.39 230.3L383 229.24L384.65 228.27L386.35 227.35L388.1 226.51L389.88 225.74L391.7 225.04L393.56 224.42L395.45 223.87L397.37 223.42L399.32 223.03L401.3 222.73L403.3 222.51L405.33 222.39L407.39 222.34L409.44 222.39L411.47 222.53ZM403.05 228.3L401.04 228.57L399.04 228.93L397.09 229.38L395.17 229.93L393.3 230.57L391.47 231.3L389.68 232.11L387.94 233L386.26 233.98L384.62 235.03L383.04 236.17L381.51 237.37L380.06 238.64L378.66 239.98L377.33 241.38L376.05 242.85L374.86 244.38L373.74 245.97L372.69 247.61L371.73 249.31L370.84 251.04L370.04 252.84L369.32 254.68L368.68 256.55L368.15 258.47L367.7 260.43L367.35 262.42L367.11 264.44L366.95 266.5L366.9 268.57L366.96 270.65L367.12 272.69L367.39 274.72L367.75 276.71L368.2 278.66L368.74 280.58L369.38 282.45L370.12 284.28L370.93 286.07L371.83 287.8L372.8 289.49L373.86 291.13L374.99 292.7L376.19 294.23L377.47 295.7L378.81 297.09L380.22 298.43L381.68 299.7L383.21 300.88L384.79 302.01L386.44 303.05L388.13 304.02L389.88 304.91L391.66 305.71L393.5 306.44L395.37 307.06L397.29 307.6L399.26 308.05L401.24 308.39L403.26 308.64L405.32 308.8L407.39 308.84L409.47 308.78L411.51 308.63L413.53 308.36L415.51 308L417.46 307.55L419.38 307L421.25 306.36L423.08 305.64L424.86 304.83L426.61 303.94L428.29 302.96L429.92 301.91L431.49 300.79L433.02 299.59L434.49 298.32L435.88 296.98L437.22 295.58L438.48 294.11L439.67 292.6L440.79 291L441.84 289.36L442.81 287.68L443.7 285.95L444.51 284.15L445.23 282.32L445.87 280.45L446.4 278.53L446.85 276.58L447.21 274.6L447.46 272.58L447.62 270.54L447.66 268.46L447.62 266.39L447.44 264.33L447.19 262.31L446.84 260.32L446.37 258.36L445.82 256.44L445.18 254.57L444.46 252.73L443.65 250.95L442.75 249.2L441.78 247.52L440.72 245.88L439.59 244.29L438.39 242.77L437.11 241.3L435.77 239.9L434.36 238.56L432.9 237.29L431.37 236.09L429.79 234.97L428.15 233.92L426.45 232.95L424.7 232.06L422.92 231.25L421.08 230.53L419.21 229.89L417.29 229.35L415.32 228.9L413.34 228.54L411.31 228.29L409.26 228.13L407.17 228.08L405.1 228.13L403.05 228.3Z" id="dywCwQm6"></path><path d="M411.47 222.53L413.48 222.75L415.45 223.06L417.4 223.45L419.32 223.93L421.21 224.48L423.05 225.1L424.86 225.8L426.64 226.58L428.37 227.43L430.07 228.35L431.73 229.33L433.33 230.39L434.88 231.5L436.39 232.69L437.84 233.92L439.25 235.22L440.61 236.57L441.9 237.98L443.14 239.43L444.31 240.95L445.42 242.51L446.46 244.11L447.44 245.77L448.37 247.47L449.21 249.2L449.99 250.98L450.68 252.79L451.3 254.65L451.85 256.54L452.31 258.46L452.7 260.41L453.02 262.38L453.24 264.39L453.36 266.42L453.41 268.46L453.36 270.52L453.22 272.55L453 274.55L452.69 276.53L452.3 278.48L451.81 280.42L451.27 282.31L450.64 284.15L449.93 285.98L449.16 287.76L448.3 289.49L447.38 291.19L446.4 292.84L445.34 294.45L444.23 296.01L443.04 297.53L441.81 298.99L440.5 300.4L439.14 301.76L437.74 303.05L436.27 304.29L434.75 305.46L433.19 306.58L431.59 307.63L429.93 308.61L428.23 309.53L426.48 310.37L424.7 311.15L422.88 311.86L421.02 312.48L419.13 313.03L417.21 313.5L415.26 313.89L413.28 314.18L411.26 314.4L409.23 314.54L407.17 314.59L405.13 314.54L403.1 314.4L401.09 314.17L399.1 313.87L397.15 313.46L395.23 313L393.36 312.45L391.5 311.81L389.69 311.11L387.91 310.33L386.16 309.48L384.48 308.56L382.82 307.56L381.22 306.52L379.65 305.39L378.14 304.21L376.69 302.97L375.28 301.68L373.93 300.32L372.63 298.9L371.4 297.43L370.23 295.92L369.12 294.36L368.07 292.75L367.09 291.1L366.17 289.4L365.33 287.65L364.56 285.87L363.86 284.06L363.25 282.2L362.7 280.31L362.24 278.38L361.84 276.42L361.55 274.46L361.33 272.44L361.21 270.41L361.16 268.35L361.22 266.31L361.35 264.26L361.58 262.27L361.89 260.28L362.28 258.33L362.75 256.41L363.31 254.52L363.94 252.68L364.64 250.86L365.42 249.08L366.28 247.34L367.2 245.64L368.18 243.99L369.23 242.38L370.35 240.84L371.54 239.32L372.77 237.85L374.08 236.45L375.44 235.11L376.85 233.81L378.31 232.58L379.83 231.41L381.39 230.3L383 229.24L384.65 228.27L386.35 227.35L388.1 226.51L389.88 225.74L391.7 225.04L393.56 224.42L395.45 223.87L397.37 223.42L399.32 223.03L401.3 222.73L403.3 222.51L405.33 222.39L407.39 222.34L409.44 222.39L411.47 222.53ZM403.05 228.3L401.04 228.57L399.04 228.93L397.09 229.38L395.17 229.93L393.3 230.57L391.47 231.3L389.68 232.11L387.94 233L386.26 233.98L384.62 235.03L383.04 236.17L381.51 237.37L380.06 238.64L378.66 239.98L377.33 241.38L376.05 242.85L374.86 244.38L373.74 245.97L372.69 247.61L371.73 249.31L370.84 251.04L370.04 252.84L369.32 254.68L368.68 256.55L368.15 258.47L367.7 260.43L367.35 262.42L367.11 264.44L366.95 266.5L366.9 268.57L366.96 270.65L367.12 272.69L367.39 274.72L367.75 276.71L368.2 278.66L368.74 280.58L369.38 282.45L370.12 284.28L370.93 286.07L371.83 287.8L372.8 289.49L373.86 291.13L374.99 292.7L376.19 294.23L377.47 295.7L378.81 297.09L380.22 298.43L381.68 299.7L383.21 300.88L384.79 302.01L386.44 303.05L388.13 304.02L389.88 304.91L391.66 305.71L393.5 306.44L395.37 307.06L397.29 307.6L399.26 308.05L401.24 308.39L403.26 308.64L405.32 308.8L407.39 308.84L409.47 308.78L411.51 308.63L413.53 308.36L415.51 308L417.46 307.55L419.38 307L421.25 306.36L423.08 305.64L424.86 304.83L426.61 303.94L428.29 302.96L429.92 301.91L431.49 300.79L433.02 299.59L434.49 298.32L435.88 296.98L437.22 295.58L438.48 294.11L439.67 292.6L440.79 291L441.84 289.36L442.81 287.68L443.7 285.95L444.51 284.15L445.23 282.32L445.87 280.45L446.4 278.53L446.85 276.58L447.21 274.6L447.46 272.58L447.62 270.54L447.66 268.46L447.62 266.39L447.44 264.33L447.19 262.31L446.84 260.32L446.37 258.36L445.82 256.44L445.18 254.57L444.46 252.73L443.65 250.95L442.75 249.2L441.78 247.52L440.72 245.88L439.59 244.29L438.39 242.77L437.11 241.3L435.77 239.9L434.36 238.56L432.9 237.29L431.37 236.09L429.79 234.97L428.15 233.92L426.45 232.95L424.7 232.06L422.92 231.25L421.08 230.53L419.21 229.89L417.29 229.35L415.32 228.9L413.34 228.54L411.31 228.29L409.26 228.13L407.17 228.08L405.1 228.13L403.05 228.3Z" id="bStGaLpG"></path></defs><g><g><g><use xlink:href="#fwJ9Uq5nl" opacity="1" fill="#ffffff" fill-opacity="1"></use><g><use xlink:href="#fwJ9Uq5nl" opacity="1" fill-opacity="0" stroke="#000000" stroke-width="1" stroke-opacity="0"></use></g></g><g><use xlink:href="#b4K6MDyZlt" opacity="1" fill="#000000" fill-opacity="0"></use><g><use xlink:href="#b4K6MDyZlt" opacity="1" fill-opacity="0" stroke="#000000" stroke-width="1" stroke-opacity="0"></use></g></g><g><use xlink:href="#a4mrpgo4LJ" opacity="1" fill="#ffffff" fill-opacity="1"></use><g><use xlink:href="#a4mrpgo4LJ" opacity="1" fill-opacity="0" stroke="#000000" stroke-width="1" stroke-opacity="0"></use></g></g><g><use xlink:href="#bwg3l1C6A" opacity="1" fill="#000000" fill-opacity="0"></use><g><use xlink:href="#bwg3l1C6A" opacity="1" fill-opacity="0" stroke="#000000" stroke-width="1" stroke-opacity="0"></use></g></g><g><use xlink:href="#acoDmqv9u" opacity="1" fill="#ffffff" fill-opacity="1"></use><g><use xlink:href="#acoDmqv9u" opacity="1" fill-opacity="0" stroke="#000000" stroke-width="1" stroke-opacity="0"></use></g></g><g><use xlink:href="#eZs1ngPY6" opacity="1" fill="#000000" fill-opacity="0"></use><g><use xlink:href="#eZs1ngPY6" opacity="1" fill-opacity="0" stroke="#000000" stroke-width="1" stroke-opacity="0"></use></g></g><g><use xlink:href="#funVUSlUz" opacity="1" fill="#ffffff" fill-opacity="1"></use><g><use xlink:href="#funVUSlUz" opacity="1" fill-opacity="0" stroke="#000000" stroke-width="1" stroke-opacity="0"></use></g></g><g><use xlink:href="#bgs3NmKeb" opacity="1" fill="#000000" fill-opacity="0"></use><g><use xlink:href="#bgs3NmKeb" opacity="1" fill-opacity="0" stroke="#000000" stroke-width="1" stroke-opacity="0"></use></g></g><g><use xlink:href="#a3RNWoPE4v" opacity="1" fill="#ffffff" fill-opacity="1"></use><g><use xlink:href="#a3RNWoPE4v" opacity="1" fill-opacity="0" stroke="#000000" stroke-width="1" stroke-opacity="0"></use></g></g><g><use xlink:href="#cj1XONTZz" opacity="1" fill="#000000" fill-opacity="0"></use><g><use xlink:href="#cj1XONTZz" opacity="1" fill-opacity="0" stroke="#000000" stroke-width="6" stroke-opacity="0"></use></g></g><g><use xlink:href="#jCJi8eXrj" opacity="1" fill="#e8bd1f" fill-opacity="1"></use><g><use xlink:href="#jCJi8eXrj" opacity="1" fill-opacity="0" stroke="#000000" stroke-width="1" stroke-opacity="0"></use></g></g><g><use xlink:href="#ijPZTWeA5" opacity="1" fill="#000000" fill-opacity="0"></use><g><use xlink:href="#ijPZTWeA5" opacity="1" fill-opacity="0" stroke="#000000" stroke-width="1" stroke-opacity="0"></use></g></g><g><use xlink:href="#a6eo4xTZmV" opacity="1" fill="#ffffff" fill-opacity="1"></use><g><use xlink:href="#a6eo4xTZmV" opacity="1" fill-opacity="0" stroke="#000000" stroke-width="1" stroke-opacity="0"></use></g></g><g><use xlink:href="#c1KIoPpwV8" opacity="1" fill="#000000" fill-opacity="0"></use><g><use xlink:href="#c1KIoPpwV8" opacity="1" fill-opacity="0" stroke="#000000" stroke-width="1" stroke-opacity="0"></use></g></g><g><use xlink:href="#bKMHgYkbq" opacity="1" fill="#ffffff" fill-opacity="1"></use><g><use xlink:href="#bKMHgYkbq" opacity="1" fill-opacity="0" stroke="#000000" stroke-width="1" stroke-opacity="0"></use></g></g><g><use xlink:href="#a23F3YAypO" opacity="1" fill="#000000" fill-opacity="0"></use><g><use xlink:href="#a23F3YAypO" opacity="1" fill-opacity="0" stroke="#000000" stroke-width="1" stroke-opacity="0"></use></g></g><g><use xlink:href="#bYiin0rMe" opacity="1" fill="#ffffff" fill-opacity="1"></use><g><use xlink:href="#bYiin0rMe" opacity="1" fill-opacity="0" stroke="#000000" stroke-width="1" stroke-opacity="0"></use></g></g><g><use xlink:href="#a2DUFwQt2J" opacity="1" fill="#000000" fill-opacity="0"></use><g><use xlink:href="#a2DUFwQt2J" opacity="1" fill-opacity="0" stroke="#000000" stroke-width="1" stroke-opacity="0"></use></g></g><g><use xlink:href="#b4m1VqtbVs" opacity="1" fill="#ffffff" fill-opacity="1"></use><g><use xlink:href="#b4m1VqtbVs" opacity="1" fill-opacity="0" stroke="#000000" stroke-width="1" stroke-opacity="0"></use></g></g><g><use xlink:href="#f44iOax6s" opacity="1" fill="#000000" fill-opacity="0"></use><g><use xlink:href="#f44iOax6s" opacity="1" fill-opacity="0" stroke="#000000" stroke-width="1" stroke-opacity="0"></use></g></g><g><use xlink:href="#c2o8F0FZxj" opacity="1" fill="#ffffff" fill-opacity="1"></use><g><use xlink:href="#c2o8F0FZxj" opacity="1" fill-opacity="0" stroke="#000000" stroke-width="1" stroke-opacity="0"></use></g></g><g><use xlink:href="#bnXjuyQql" opacity="1" fill="#000000" fill-opacity="0"></use><g><use xlink:href="#bnXjuyQql" opacity="1" fill-opacity="0" stroke="#000000" stroke-width="1" stroke-opacity="0"></use></g></g><g><use xlink:href="#dywCwQm6" opacity="1" fill="#ffffff" fill-opacity="1"></use><g><use xlink:href="#dywCwQm6" opacity="1" fill-opacity="0" stroke="#000000" stroke-width="1" stroke-opacity="0"></use></g></g><g><use xlink:href="#bStGaLpG" opacity="1" fill="#000000" fill-opacity="0"></use><g><use xlink:href="#bStGaLpG" opacity="1" fill-opacity="0" stroke="#000000" stroke-width="1" stroke-opacity="0"></use></g></g></g></g></svg>