<?xml version="1.0" encoding="UTF-8" standalone="no"?>
<!DOCTYPE svg PUBLIC "-//W3C//DTD SVG 1.1//EN" "http://www.w3.org/Graphics/SVG/1.1/DTD/svg11.dtd">
<svg version="1.1" xmlns="http://www.w3.org/2000/svg" xmlns:xlink="http://www.w3.org/1999/xlink" preserveAspectRatio="xMidYMid meet" viewBox="0 0 640 640" width="640" height="640"><defs><path d="M7.62 319.86C7.62 492.98 147.96 633.32 321.08 633.32C494.21 633.32 634.53 492.98 634.53 319.86C634.53 146.73 494.21 6.39 321.08 6.39C147.96 6.39 7.62 146.73 7.62 319.86Z" id="aPFbabp8e"></path><path d="M7.62 319.86C7.62 492.98 147.96 633.32 321.08 633.32C494.21 633.32 634.53 492.98 634.53 319.86C634.53 146.73 494.21 6.39 321.08 6.39C147.96 6.39 7.62 146.73 7.62 319.86Z" id="a36ldCYGT6"></path><path d="M252.96 260.01L253.43 260.43L253.88 260.86L254.33 261.28L254.78 261.72L255.21 262.17L255.65 262.6L256.52 263.51L256.94 263.97L257.36 264.43L257.78 264.89L258.19 265.36L258.61 265.83L259.01 266.31L259.4 266.77L259.8 267.26L260.19 267.75L260.58 268.24L260.96 268.73L261.33 269.22L261.7 269.73L262.08 270.23L262.43 270.73L263.51 272.27L263.85 272.78L264.19 273.31L264.52 273.84L264.86 274.37L265.19 274.9L265.5 275.43L265.83 275.97L266.14 276.51L266.43 277.04L266.74 277.6L267.34 278.69L267.9 279.81L294.38 280.65L300.63 316.89L274.26 327.49L274.2 327.75L274.15 328.02L274.09 328.3L274.04 328.56L273.92 329.09L273.87 329.37L273.68 330.16L273.62 330.44L273.43 331.24L273.36 331.5L273.23 332.03L273.15 332.29L273.09 332.56L273.01 332.82L272.94 333.1L272.87 333.37L272.8 333.63L272.72 333.88L272.17 335.73L272.08 336L272 336.25L271.93 336.51L271.83 336.78L271.75 337.04L271.66 337.3L271.57 337.55L271.49 337.82L271.21 338.61L271.1 338.88L271.01 339.14L270.91 339.39L270.81 339.65L270.71 339.92L270.6 340.18L270.51 340.45L270.4 340.71L270.29 340.96L270.18 341.23L270.09 341.49L269.98 341.75L269.87 342L269.65 342.53L269.53 342.78L269.42 343.05L269.31 343.3L269.2 343.56L269.08 343.81L268.97 344.07L268.84 344.32L268.72 344.59L268.61 344.84L268.49 345.08L268.36 345.35L268.24 345.6L268.13 345.85L268 346.1L267.88 346.36L267.74 346.61L267.37 347.36L267.23 347.6L266.98 348.1L266.84 348.35L280.08 374.52L252.76 397.72L232.09 380.23L231.53 380.47L230.96 380.7L229.84 381.14L228.11 381.74L226.38 382.3L225.81 382.47L225.22 382.64L224.64 382.82L223.46 383.13L222.88 383.27L221.11 383.69L220.52 383.81L219.93 383.92L219.32 384.04L218.73 384.15L218.14 384.25L217.53 384.34L216.94 384.43L216.33 384.53L215.74 384.6L215.13 384.68L213.92 384.81L213.33 384.87L212.12 384.96L211.51 384.99L210.9 385.04L210.3 385.06L209.69 385.09L208.47 385.12L194.6 407.68L162.17 395.08L165.67 368.49L165.2 368.07L163.85 366.81L163.4 366.37L162.09 365.06L161.66 364.61L160.4 363.26L159.99 362.79L159.57 362.32L159.17 361.86L158.78 361.39L158.37 360.92L157.6 359.96L157.22 359.48L156.83 358.98L156.46 358.5L156.1 358L155.73 357.5L155.37 357L155.01 356.49L154.67 355.99L154.31 355.48L153.97 354.96L153.64 354.44L153.3 353.92L152.65 352.86L152.03 351.81L151.71 351.26L151.4 350.73L150.52 349.1L124.03 348.24L117.8 312.02L144.17 301.43L144.21 301.16L144.28 300.88L144.32 300.62L144.39 300.35L144.43 300.07L144.62 299.28L144.68 299L144.99 297.68L145.06 297.4L145.13 297.13L145.2 296.87L145.27 296.6L145.34 296.34L145.41 296.07L145.48 295.81L145.63 295.28L145.69 295.01L146 293.96L146.08 293.71L146.18 293.44L146.33 292.91L146.42 292.65L146.5 292.39L146.58 292.14L146.77 291.61L146.84 291.34L146.94 291.09L147.03 290.83L147.12 290.55L147.22 290.28L147.31 290L147.4 289.74L147.51 289.48L147.61 289.2L147.7 288.93L147.81 288.65L147.9 288.39L148.01 288.12L148.12 287.84L148.23 287.58L148.32 287.31L148.43 287.05L148.54 286.77L148.76 286.24L148.88 285.97L149.21 285.18L149.33 284.92L149.44 284.65L149.57 284.39L149.68 284.12L149.93 283.59L150.05 283.35L150.42 282.55L150.55 282.3L150.8 281.77L150.92 281.52L151.06 281.26L151.19 281.01L151.31 280.75L151.45 280.5L151.57 280.23L138.44 253.97L165.78 230.77L186.43 247.61L187 247.37L188.12 246.94L189.27 246.5L189.83 246.3L190.41 246.11L190.99 245.91L191.56 245.72L192.14 245.55L192.73 245.36L193.3 245.19L193.9 245.04L194.47 244.88L195.65 244.57L196.84 244.29L198.61 243.92L199.79 243.7L200.4 243.59L200.99 243.5L201.6 243.4L202.19 243.33L203.4 243.17L203.99 243.09L204.6 243.03L207.03 242.84L208.24 242.78L210.06 242.74L223.94 220.17L256.46 233.42L252.96 260.01ZM213.02 248.88L209.84 248.88L208.21 248.93L207.12 248.99L206.58 249.04L206.03 249.07L205.49 249.11L204.94 249.18L204.41 249.24L203.32 249.36L202.8 249.44L202.25 249.52L201.72 249.6L201.18 249.69L200.65 249.78L200.1 249.88L199.05 250.09L198.52 250.22L197.97 250.33L197.44 250.45L196.93 250.58L195.34 251L194.83 251.15L194.3 251.31L193.79 251.46L193.26 251.64L192.74 251.79L192.23 251.98L191.72 252.15L190.69 252.52L190.18 252.72L189.66 252.91L189.17 253.11L188.65 253.33L185.59 254.59L183.05 252.48L165.98 238.07L146.18 254.92L156.77 276.64L158.25 279.6L156.66 282.57L156.55 282.79L156.43 283.02L156.3 283.24L156.2 283.47L156.07 283.7L155.96 283.92L155.84 284.15L155.73 284.39L155.62 284.61L155.51 284.84L155.39 285.07L155.28 285.29L154.84 286.22L154.75 286.46L154.42 287.16L154.33 287.39L154.22 287.62L154.13 287.86L154.02 288.09L153.83 288.56L153.72 288.79L153.53 289.26L153.44 289.51L153.16 290.21L153.07 290.46L152.88 290.92L152.8 291.17L152.71 291.4L152.62 291.65L152.54 291.89L152.45 292.14L152.37 292.37L152.29 292.62L152.21 292.85L152.12 293.1L152.04 293.33L151.89 293.83L151.81 294.07L151.75 294.31L151.67 294.56L151.59 294.8L151.51 295.05L151.45 295.29L151.37 295.54L151.31 295.78L151.23 296.03L151.17 296.27L151.09 296.52L151.03 296.77L150.97 297.01L150.41 299.25L150.36 299.5L150.3 299.74L150.25 299.99L150.19 300.24L150.14 300.49L150.08 300.74L149.89 301.74L149.26 305.13L146.28 306.4L124.45 315.51L128.59 342.73L150.52 343.37L153.8 343.37L155.4 346.44L155.65 346.95L155.92 347.46L156.18 347.96L157.02 349.46L157.3 349.94L157.6 350.44L158.48 351.88L158.79 352.37L159.42 353.3L159.74 353.78L160.07 354.25L160.4 354.7L160.72 355.17L162.09 356.97L162.45 357.42L163.17 358.29L163.91 359.17L164.29 359.59L164.66 360.02L165.03 360.44L165.42 360.85L165.81 361.27L166.2 361.67L166.6 362.09L167.01 362.5L167.41 362.88L167.82 363.29L168.22 363.68L169.06 364.46L171.4 366.57L171.4 369.85L168.53 391.05L192.37 400.26L204.02 381.73L205.72 378.86L208.89 378.86L210.53 378.82L211.62 378.75L213.8 378.57L214.33 378.51L215.41 378.38L215.94 378.3L216.49 378.23L217.03 378.13L217.56 378.05L218.09 377.96L218.63 377.85L219.16 377.76L219.69 377.65L220.22 377.53L220.77 377.42L221.3 377.29L221.82 377.15L222.34 377.03L222.87 376.89L223.4 376.73L223.91 376.59L224.44 376.44L224.95 376.28L225.48 376.11L227.02 375.6L228.05 375.22L229.08 374.82L229.57 374.62L230.09 374.41L233.15 373.14L235.69 375.25L252.76 389.66L272.56 373.03L262.08 350.27L260.58 347.29L262.19 344.32L262.29 344.1L262.42 343.87L262.54 343.65L262.65 343.42L262.78 343.2L262.99 342.73L263.12 342.52L263.34 342.05L263.45 341.83L263.57 341.6L263.9 340.9L263.99 340.67L264.1 340.45L264.32 339.98L264.41 339.75L264.63 339.28L264.72 339.05L264.83 338.81L264.92 338.57L265.02 338.33L265.13 338.1L265.41 337.4L265.5 337.15L265.69 336.68L265.78 336.43L265.97 335.97L266.04 335.72L266.23 335.25L266.31 335L266.39 334.77L266.48 334.52L266.56 334.29L266.71 333.79L266.81 333.55L266.88 333.31L266.96 333.07L267.02 332.82L267.1 332.57L267.18 332.34L267.34 331.84L267.4 331.59L267.48 331.36L267.54 331.11L267.62 330.86L267.68 330.61L267.76 330.38L268.38 327.89L268.42 327.66L268.55 327.16L268.6 326.9L268.66 326.65L268.75 326.15L268.81 325.9L268.95 325.15L269.59 321.76L272.56 320.49L294.38 311.38L289.83 285.1L267.9 284.47L264.61 284.47L263.03 281.4L262.76 280.89L261.97 279.39L261.13 277.9L260.54 276.93L260.24 276.44L259.93 275.97L259.63 275.49L259.32 275.01L259 274.54L258.68 274.07L258.03 273.14L257.69 272.69L257.36 272.22L256.68 271.32L256.32 270.87L255.96 270.43L255.62 270L255.25 269.54L254.89 269.11L254.51 268.69L254.14 268.25L253.77 267.83L253.38 267.41L253.01 266.99L252.62 266.57L252.21 266.17L251.82 265.76L251.01 264.95L250.61 264.57L250.19 264.16L249.78 263.77L249.36 263.4L247.03 261.27L247.03 257.98L249.89 236.81L226.06 227.58L214.71 246.02L213.02 248.88Z" id="c2l1go9UgA"></path><path d="M252.96 260.01L253.43 260.43L253.88 260.86L254.33 261.28L254.78 261.72L255.21 262.17L255.65 262.6L256.52 263.51L256.94 263.97L257.36 264.43L257.78 264.89L258.19 265.36L258.61 265.83L259.01 266.31L259.4 266.77L259.8 267.26L260.19 267.75L260.58 268.24L260.96 268.73L261.33 269.22L261.7 269.73L262.08 270.23L262.43 270.73L263.51 272.27L263.85 272.78L264.19 273.31L264.52 273.84L264.86 274.37L265.19 274.9L265.5 275.43L265.83 275.97L266.14 276.51L266.43 277.04L266.74 277.6L267.34 278.69L267.9 279.81L294.38 280.65L300.63 316.89L274.26 327.49L274.2 327.75L274.15 328.02L274.09 328.3L274.04 328.56L273.92 329.09L273.87 329.37L273.68 330.16L273.62 330.44L273.43 331.24L273.36 331.5L273.23 332.03L273.15 332.29L273.09 332.56L273.01 332.82L272.94 333.1L272.87 333.37L272.8 333.63L272.72 333.88L272.17 335.73L272.08 336L272 336.25L271.93 336.51L271.83 336.78L271.75 337.04L271.66 337.3L271.57 337.55L271.49 337.82L271.21 338.61L271.1 338.88L271.01 339.14L270.91 339.39L270.81 339.65L270.71 339.92L270.6 340.18L270.51 340.45L270.4 340.71L270.29 340.96L270.18 341.23L270.09 341.49L269.98 341.75L269.87 342L269.65 342.53L269.53 342.78L269.42 343.05L269.31 343.3L269.2 343.56L269.08 343.81L268.97 344.07L268.84 344.32L268.72 344.59L268.61 344.84L268.49 345.08L268.36 345.35L268.24 345.6L268.13 345.85L268 346.1L267.88 346.36L267.74 346.61L267.37 347.36L267.23 347.6L266.98 348.1L266.84 348.35L280.08 374.52L252.76 397.72L232.09 380.23L231.53 380.47L230.96 380.7L229.84 381.14L228.11 381.74L226.38 382.3L225.81 382.47L225.22 382.64L224.64 382.82L223.46 383.13L222.88 383.27L221.11 383.69L220.52 383.81L219.93 383.92L219.32 384.04L218.73 384.15L218.14 384.25L217.53 384.34L216.94 384.43L216.33 384.53L215.74 384.6L215.13 384.68L213.92 384.81L213.33 384.87L212.12 384.96L211.51 384.99L210.9 385.04L210.3 385.06L209.69 385.09L208.47 385.12L194.6 407.68L162.17 395.08L165.67 368.49L165.2 368.07L163.85 366.81L163.4 366.37L162.09 365.06L161.66 364.61L160.4 363.26L159.99 362.79L159.57 362.32L159.17 361.86L158.78 361.39L158.37 360.92L157.6 359.96L157.22 359.48L156.83 358.98L156.46 358.5L156.1 358L155.73 357.5L155.37 357L155.01 356.49L154.67 355.99L154.31 355.48L153.97 354.96L153.64 354.44L153.3 353.92L152.65 352.86L152.03 351.81L151.71 351.26L151.4 350.73L150.52 349.1L124.03 348.24L117.8 312.02L144.17 301.43L144.21 301.16L144.28 300.88L144.32 300.62L144.39 300.35L144.43 300.07L144.62 299.28L144.68 299L144.99 297.68L145.06 297.4L145.13 297.13L145.2 296.87L145.27 296.6L145.34 296.34L145.41 296.07L145.48 295.81L145.63 295.28L145.69 295.01L146 293.96L146.08 293.71L146.18 293.44L146.33 292.91L146.42 292.65L146.5 292.39L146.58 292.14L146.77 291.61L146.84 291.34L146.94 291.09L147.03 290.83L147.12 290.55L147.22 290.28L147.31 290L147.4 289.74L147.51 289.48L147.61 289.2L147.7 288.93L147.81 288.65L147.9 288.39L148.01 288.12L148.12 287.84L148.23 287.58L148.32 287.31L148.43 287.05L148.54 286.77L148.76 286.24L148.88 285.97L149.21 285.18L149.33 284.92L149.44 284.65L149.57 284.39L149.68 284.12L149.93 283.59L150.05 283.35L150.42 282.55L150.55 282.3L150.8 281.77L150.92 281.52L151.06 281.26L151.19 281.01L151.31 280.75L151.45 280.5L151.57 280.23L138.44 253.97L165.78 230.77L186.43 247.61L187 247.37L188.12 246.94L189.27 246.5L189.83 246.3L190.41 246.11L190.99 245.91L191.56 245.72L192.14 245.55L192.73 245.36L193.3 245.19L193.9 245.04L194.47 244.88L195.65 244.57L196.84 244.29L198.61 243.92L199.79 243.7L200.4 243.59L200.99 243.5L201.6 243.4L202.19 243.33L203.4 243.17L203.99 243.09L204.6 243.03L207.03 242.84L208.24 242.78L210.06 242.74L223.94 220.17L256.46 233.42L252.96 260.01ZM213.02 248.88L209.84 248.88L208.21 248.93L207.12 248.99L206.58 249.04L206.03 249.07L205.49 249.11L204.94 249.18L204.41 249.24L203.32 249.36L202.8 249.44L202.25 249.52L201.72 249.6L201.18 249.69L200.65 249.78L200.1 249.88L199.05 250.09L198.52 250.22L197.97 250.33L197.44 250.45L196.93 250.58L195.34 251L194.83 251.15L194.3 251.31L193.79 251.46L193.26 251.64L192.74 251.79L192.23 251.98L191.72 252.15L190.69 252.52L190.18 252.72L189.66 252.91L189.17 253.11L188.65 253.33L185.59 254.59L183.05 252.48L165.98 238.07L146.18 254.92L156.77 276.64L158.25 279.6L156.66 282.57L156.55 282.79L156.43 283.02L156.3 283.24L156.2 283.47L156.07 283.7L155.96 283.92L155.84 284.15L155.73 284.39L155.62 284.61L155.51 284.84L155.39 285.07L155.28 285.29L154.84 286.22L154.75 286.46L154.42 287.16L154.33 287.39L154.22 287.62L154.13 287.86L154.02 288.09L153.83 288.56L153.72 288.79L153.53 289.26L153.44 289.51L153.16 290.21L153.07 290.46L152.88 290.92L152.8 291.17L152.71 291.4L152.62 291.65L152.54 291.89L152.45 292.14L152.37 292.37L152.29 292.62L152.21 292.85L152.12 293.1L152.04 293.33L151.89 293.83L151.81 294.07L151.75 294.31L151.67 294.56L151.59 294.8L151.51 295.05L151.45 295.29L151.37 295.54L151.31 295.78L151.23 296.03L151.17 296.27L151.09 296.52L151.03 296.77L150.97 297.01L150.41 299.25L150.36 299.5L150.3 299.74L150.25 299.99L150.19 300.24L150.14 300.49L150.08 300.74L149.89 301.74L149.26 305.13L146.28 306.4L124.45 315.51L128.59 342.73L150.52 343.37L153.8 343.37L155.4 346.44L155.65 346.95L155.92 347.46L156.18 347.96L157.02 349.46L157.3 349.94L157.6 350.44L158.48 351.88L158.79 352.37L159.42 353.3L159.74 353.78L160.07 354.25L160.4 354.7L160.72 355.17L162.09 356.97L162.45 357.42L163.17 358.29L163.91 359.17L164.29 359.59L164.66 360.02L165.03 360.44L165.42 360.85L165.81 361.27L166.2 361.67L166.6 362.09L167.01 362.5L167.41 362.88L167.82 363.29L168.22 363.68L169.06 364.46L171.4 366.57L171.4 369.85L168.53 391.05L192.37 400.26L204.02 381.73L205.72 378.86L208.89 378.86L210.53 378.82L211.62 378.75L213.8 378.57L214.33 378.51L215.41 378.38L215.94 378.3L216.49 378.23L217.03 378.13L217.56 378.05L218.09 377.96L218.63 377.85L219.16 377.76L219.69 377.65L220.22 377.53L220.77 377.42L221.3 377.29L221.82 377.15L222.34 377.03L222.87 376.89L223.4 376.73L223.91 376.59L224.44 376.44L224.95 376.28L225.48 376.11L227.02 375.6L228.05 375.22L229.08 374.82L229.57 374.62L230.09 374.41L233.15 373.14L235.69 375.25L252.76 389.66L272.56 373.03L262.08 350.27L260.58 347.29L262.19 344.32L262.29 344.1L262.42 343.87L262.54 343.65L262.65 343.42L262.78 343.2L262.99 342.73L263.12 342.52L263.34 342.05L263.45 341.83L263.57 341.6L263.9 340.9L263.99 340.67L264.1 340.45L264.32 339.98L264.41 339.75L264.63 339.28L264.72 339.05L264.83 338.81L264.92 338.57L265.02 338.33L265.13 338.1L265.41 337.4L265.5 337.15L265.69 336.68L265.78 336.43L265.97 335.97L266.04 335.72L266.23 335.25L266.31 335L266.39 334.77L266.48 334.52L266.56 334.29L266.71 333.79L266.81 333.55L266.88 333.31L266.96 333.07L267.02 332.82L267.1 332.57L267.18 332.34L267.34 331.84L267.4 331.59L267.48 331.36L267.54 331.11L267.62 330.86L267.68 330.61L267.76 330.38L268.38 327.89L268.42 327.66L268.55 327.16L268.6 326.9L268.66 326.65L268.75 326.15L268.81 325.9L268.95 325.15L269.59 321.76L272.56 320.49L294.38 311.38L289.83 285.1L267.9 284.47L264.61 284.47L263.03 281.4L262.76 280.89L261.97 279.39L261.13 277.9L260.54 276.93L260.24 276.44L259.93 275.97L259.63 275.49L259.32 275.01L259 274.54L258.68 274.07L258.03 273.14L257.69 272.69L257.36 272.22L256.68 271.32L256.32 270.87L255.96 270.43L255.62 270L255.25 269.54L254.89 269.11L254.51 268.69L254.14 268.25L253.77 267.83L253.38 267.41L253.01 266.99L252.62 266.57L252.21 266.17L251.82 265.76L251.01 264.95L250.61 264.57L250.19 264.16L249.78 263.77L249.36 263.4L247.03 261.27L247.03 257.98L249.89 236.81L226.06 227.58L214.71 246.02L213.02 248.88Z" id="c2XxLoDNWx"></path><path d="M214.33 277.28L216.29 277.54L218.23 277.93L220.19 278.44L222.14 279.07L224.02 279.98L225.82 280.98L227.57 282.08L229.22 283.25L230.8 284.51L232.3 285.83L233.71 287.23L235.05 288.71L236.29 290.24L237.46 291.84L238.54 293.47L239.53 295.19L240.42 296.93L241.23 298.72L241.93 300.55L242.53 302.42L243.05 304.3L243.47 306.23L243.78 308.18L243.98 310.15L244.09 312.13L244.07 314.12L243.97 316.13L243.75 318.14L243.42 320.14L242.97 322.13L242.41 324.13L241.74 326.1L241.71 326.2L241.69 326.23L241.68 326.27L241.68 326.32L241.66 326.35L241.63 326.43L241.6 326.52L241.6 326.55L241.57 326.65L241.55 326.68L241.52 326.77L241.52 326.8L241.49 326.9L241.48 326.93L241.46 326.97L241.44 327L241.43 327.05L241.43 327.1L241.4 327.18L241.38 327.22L241.37 327.25L240.67 329.17L239.86 331.02L238.96 332.81L237.96 334.52L236.87 336.15L235.7 337.71L234.46 339.2L233.14 340.62L231.75 341.94L230.29 343.19L228.78 344.34L227.19 345.41L225.56 346.41L223.88 347.29L222.15 348.09L220.38 348.8L218.57 349.41L216.72 349.91L214.85 350.33L212.96 350.62L211.04 350.83L209.1 350.92L207.15 350.9L205.19 350.76L203.23 350.53L201.26 350.17L199.29 349.69L197.35 349.1L195.42 348.2L193.57 347.2L191.78 346.11L190.08 344.94L188.47 343.68L186.93 342.35L185.48 340.95L184.11 339.47L182.82 337.91L181.63 336.31L180.53 334.64L179.52 332.92L178.6 331.14L177.78 329.34L177.06 327.47L176.42 325.59L175.91 323.66L175.49 321.71L175.16 319.72L174.96 317.73L174.85 315.72L174.87 313.69L174.99 311.66L175.22 309.62L175.57 307.59L176.03 305.56L176.62 303.54L177.33 301.53L177.34 301.49L177.36 301.43L177.57 300.77L177.59 300.71L177.76 300.2L178.51 298.3L179.35 296.45L180.28 294.69L181.29 292.99L182.41 291.37L183.6 289.83L184.87 288.36L186.21 286.97L187.63 285.66L189.1 284.45L190.63 283.31L192.23 282.27L193.88 281.31L195.58 280.45L197.32 279.67L199.11 278.99L200.91 278.41L202.76 277.93L204.65 277.56L206.55 277.29L208.47 277.12L210.42 277.06L212.36 277.11L214.33 277.28ZM205.01 302.95L203.26 303.88L201.71 305.1L200.37 306.58L199.29 308.29L198.52 310.22L197.89 312.32L197.66 314.43L197.8 316.52L198.27 318.54L199.08 320.45L200.18 322.2L201.58 323.75L203.26 325.08L205.19 326.1L205.24 326.13L205.43 326.18L205.49 326.21L205.53 326.23L205.66 326.26L205.72 326.29L207.76 326.71L209.78 326.76L211.76 326.46L213.62 325.84L215.37 324.92L216.92 323.71L218.26 322.23L219.34 320.52L220.13 318.59L220.74 316.49L220.97 314.37L220.83 312.29L220.36 310.26L219.55 308.35L218.45 306.59L217.05 305.03L215.38 303.73L213.45 302.7L213.39 302.67L213.27 302.64L213.2 302.61L213.16 302.59L213.03 302.56L212.97 302.53L212.91 302.51L210.87 302.09L208.85 302.03L206.87 302.33L205.01 302.95Z" id="aYhNytmwc"></path><path d="M214.33 277.28L216.29 277.54L218.23 277.93L220.19 278.44L222.14 279.07L224.02 279.98L225.82 280.98L227.57 282.08L229.22 283.25L230.8 284.51L232.3 285.83L233.71 287.23L235.05 288.71L236.29 290.24L237.46 291.84L238.54 293.47L239.53 295.19L240.42 296.93L241.23 298.72L241.93 300.55L242.53 302.42L243.05 304.3L243.47 306.23L243.78 308.18L243.98 310.15L244.09 312.13L244.07 314.12L243.97 316.13L243.75 318.14L243.42 320.14L242.97 322.13L242.41 324.13L241.74 326.1L241.71 326.2L241.69 326.23L241.68 326.27L241.68 326.32L241.66 326.35L241.63 326.43L241.6 326.52L241.6 326.55L241.57 326.65L241.55 326.68L241.52 326.77L241.52 326.8L241.49 326.9L241.48 326.93L241.46 326.97L241.44 327L241.43 327.05L241.43 327.1L241.4 327.18L241.38 327.22L241.37 327.25L240.67 329.17L239.86 331.02L238.96 332.81L237.96 334.52L236.87 336.15L235.7 337.71L234.46 339.2L233.14 340.62L231.75 341.94L230.29 343.19L228.78 344.34L227.19 345.41L225.56 346.41L223.88 347.29L222.15 348.09L220.38 348.8L218.57 349.41L216.72 349.91L214.85 350.33L212.96 350.62L211.04 350.83L209.1 350.92L207.15 350.9L205.19 350.76L203.23 350.53L201.26 350.17L199.29 349.69L197.35 349.1L195.42 348.2L193.57 347.2L191.78 346.11L190.08 344.94L188.47 343.68L186.93 342.35L185.48 340.95L184.11 339.47L182.82 337.91L181.63 336.31L180.53 334.64L179.52 332.92L178.6 331.14L177.78 329.34L177.06 327.47L176.42 325.59L175.91 323.66L175.49 321.71L175.16 319.72L174.96 317.73L174.85 315.72L174.87 313.69L174.99 311.66L175.22 309.62L175.57 307.59L176.03 305.56L176.62 303.54L177.33 301.53L177.34 301.49L177.36 301.43L177.57 300.77L177.59 300.71L177.76 300.2L178.51 298.3L179.35 296.45L180.28 294.69L181.29 292.99L182.41 291.37L183.6 289.83L184.87 288.36L186.21 286.97L187.63 285.66L189.1 284.45L190.63 283.31L192.23 282.27L193.88 281.31L195.58 280.45L197.32 279.67L199.11 278.99L200.91 278.41L202.76 277.93L204.65 277.56L206.55 277.29L208.47 277.12L210.42 277.06L212.36 277.11L214.33 277.28ZM205.01 302.95L203.26 303.88L201.71 305.1L200.37 306.58L199.29 308.29L198.52 310.22L197.89 312.32L197.66 314.43L197.8 316.52L198.27 318.54L199.08 320.45L200.18 322.2L201.58 323.75L203.26 325.08L205.19 326.1L205.24 326.13L205.43 326.18L205.49 326.21L205.53 326.23L205.66 326.26L205.72 326.29L207.76 326.71L209.78 326.76L211.76 326.46L213.62 325.84L215.37 324.92L216.92 323.71L218.26 322.23L219.34 320.52L220.13 318.59L220.74 316.49L220.97 314.37L220.83 312.29L220.36 310.26L219.55 308.35L218.45 306.59L217.05 305.03L215.38 303.73L213.45 302.7L213.39 302.67L213.27 302.64L213.2 302.61L213.16 302.59L213.03 302.56L212.97 302.53L212.91 302.51L210.87 302.09L208.85 302.03L206.87 302.33L205.01 302.95Z" id="a1rkZ9Gcgr"></path><path d="M407 154.17L407.37 154.53L407.74 154.87L408.49 155.59L408.85 155.96L409.2 156.32L409.92 157.07L410.61 157.81L410.96 158.2L411.29 158.59L411.63 158.98L412.61 160.15L412.94 160.55L413.25 160.96L413.58 161.36L413.87 161.76L414.18 162.19L414.5 162.59L415.38 163.85L415.66 164.27L415.94 164.71L416.22 165.13L416.78 166L417.05 166.43L417.31 166.88L417.58 167.32L417.82 167.77L418.07 168.21L418.57 169.11L418.81 169.58L419.05 170.03L419.29 170.49L441.1 171.12L446.3 200.99L424.58 210.11L424.53 210.33L424.5 210.56L424.45 210.79L424.41 211.01L424.36 211.24L424.31 211.46L424.27 211.69L424.17 212.13L424.11 212.36L424.06 212.58L424.02 212.81L423.97 213.03L423.91 213.27L423.86 213.48L423.8 213.7L423.75 213.94L423.63 214.37L423.58 214.6L423.4 215.26L423.33 215.49L423.15 216.14L423.08 216.38L423.02 216.6L422.94 216.81L422.82 217.25L422.74 217.47L422.68 217.7L422.6 217.92L422.54 218.14L422.46 218.35L422.4 218.57L422.24 219.01L422.18 219.24L422.12 219.46L422.04 219.69L421.98 219.91L421.92 220.14L421.84 220.38L421.78 220.59L421.7 220.83L421.62 221.05L421.56 221.28L421.48 221.5L421.4 221.73L421.33 221.95L421.25 222.18L421.09 222.62L421.01 222.85L420.94 223.07L420.86 223.3L420.78 223.52L420.69 223.74L420.61 223.96L420.53 224.19L420.44 224.41L420.36 224.62L420.17 225.06L420.1 225.29L419.16 227.47L419.05 227.69L418.96 227.91L429.56 249.08L407 268.27L389.94 253.86L388.54 254.42L388.08 254.59L387.59 254.76L386.66 255.11L386.18 255.26L385.71 255.42L385.23 255.57L383.78 255.99L381.85 256.49L381.37 256.6L380.87 256.71L380.39 256.82L379.89 256.91L379.41 257L378.91 257.1L378.41 257.17L377.93 257.25L376.94 257.41L375.94 257.53L375.44 257.58L374.94 257.64L374.45 257.69L373.95 257.72L373.45 257.77L372.45 257.83L371.96 257.84L371.44 257.86L370.45 257.89L359.01 276.84L332.2 266.25L335.07 244.32L334.69 243.98L333.57 242.91L333.21 242.53L332.86 242.18L331.78 241.06L331.44 240.68L330.76 239.9L330.43 239.53L330.09 239.13L329.43 238.35L329.12 237.94L328.79 237.54L328.17 236.73L327.86 236.31L327.57 235.9L326.38 234.22L326.1 233.79L325.82 233.37L325.56 232.93L325.28 232.5L325.01 232.06L324.75 231.61L324.48 231.17L324.24 230.72L323.97 230.29L323.72 229.84L323.49 229.39L323.24 228.92L322.77 228.02L300.94 227.38L295.76 197.5L317.48 188.39L317.51 188.15L317.55 187.94L317.67 187L317.72 186.77L317.75 186.55L317.79 186.32L317.83 186.08L317.87 185.85L317.9 185.63L318 185.17L318.03 184.95L318.17 184.25L318.21 184.03L318.26 183.8L318.31 183.58L318.35 183.35L318.42 183.11L318.46 182.89L318.56 182.43L318.62 182.21L318.67 181.98L318.73 181.76L318.77 181.53L318.84 181.31L318.9 181.07L318.96 180.86L319.01 180.62L319.07 180.4L319.13 180.17L319.19 179.95L319.26 179.72L319.38 179.28L319.69 178.41L319.79 178.21L320.02 177.56L320.11 177.36L320.19 177.14L320.28 176.92L320.36 176.72L320.55 176.28L320.63 176.08L320.72 175.86L320.81 175.66L320.91 175.44L320.98 175.24L321.08 175.02L321.17 174.82L321.26 174.6L321.37 174.4L321.47 174.2L321.56 173.98L321.75 173.57L321.86 173.36L322.04 172.95L322.15 172.75L322.24 172.53L322.46 172.13L322.56 171.93L322.99 171.12L323.08 170.91L312.5 149.19L335.07 129.92L352.12 144.32L353.99 143.58L354.92 143.23L355.4 143.08L355.87 142.92L356.83 142.61L357.31 142.47L357.78 142.33L358.26 142.19L358.75 142.07L359.23 141.93L359.73 141.82L360.21 141.69L361.17 141.48L361.67 141.37L362.15 141.27L363.15 141.09L363.63 141.01L364.13 140.92L364.63 140.85L365.13 140.78L365.61 140.71L366.6 140.59L368.1 140.45L368.61 140.42L369.61 140.36L370.1 140.34L370.6 140.31L371.1 140.31L371.61 140.29L383.05 121.65L409.86 132.25L407 154.17ZM374.04 146.02L370.15 146.02L368.8 146.07L368.36 146.08L367.01 146.17L366.56 146.22L366.12 146.27L365.22 146.36L364.78 146.42L363.88 146.55L363.45 146.61L363.01 146.69L362.56 146.77L362.12 146.84L361.67 146.94L360.36 147.22L358.62 147.65L357.75 147.9L357.33 148.03L356.89 148.15L356.46 148.29L355.62 148.57L355.18 148.73L353.92 149.19L351.37 150.25L349.26 148.45L335.38 136.59L319.07 150.47L328.06 168.36L328.59 170.8L327.33 173.25L327.22 173.42L326.01 175.85L325.93 176.05L325.75 176.42L325.67 176.61L325.57 176.8L325.5 177L325.4 177.18L325.32 177.37L325.25 177.57L325.15 177.76L325.08 177.95L325 178.15L324.84 178.52L324.76 178.72L324.69 178.91L324.61 179.11L324.53 179.3L324.45 179.5L324.38 179.69L324.3 179.89L324.22 180.08L324.16 180.28L324.08 180.48L324 180.67L323.88 181.07L323.8 181.26L323.12 183.49L323.07 183.69L322.94 184.09L322.9 184.29L322.84 184.5L322.79 184.7L322.73 184.9L322.68 185.12L322.63 185.32L322.57 185.52L322.43 186.13L322.38 186.35L322.2 187.16L322.15 187.38L322.06 187.78L322.03 187.98L321.98 188.2L321.93 188.4L321.9 188.6L321.86 188.82L321.82 189.02L321.3 191.78L318.85 192.84L300.85 200.37L304.66 222.07L322.77 222.6L325.22 222.6L326.48 225.15L326.91 225.99L327.13 226.4L327.35 226.82L327.58 227.24L328.51 228.86L328.76 229.26L329.01 229.65L329.26 230.05L329.79 230.83L330.04 231.22L330.32 231.61L330.58 232L330.85 232.37L331.13 232.76L331.69 233.51L331.98 233.88L332.28 234.24L332.56 234.61L332.87 234.97L333.46 235.69L334.08 236.4L334.4 236.75L334.72 237.1L335.03 237.45L335.36 237.79L335.69 238.11L336.01 238.46L336.34 238.78L337.71 240.09L339.62 241.88L339.62 244.63L337.29 262.54L357.1 270.28L366.42 255.14L367.9 252.8L370.45 252.8L370.9 252.79L371.36 252.79L372.27 252.76L372.73 252.72L373.64 252.66L374.1 252.63L375.91 252.44L376.37 252.38L377.28 252.26L378.18 252.1L378.62 252.02L379.07 251.95L379.97 251.76L380.4 251.67L380.86 251.57L381.29 251.46L381.74 251.36L382.18 251.23L382.63 251.12L383.5 250.87L383.94 250.73L384.37 250.61L384.81 250.47L385.24 250.31L385.68 250.17L386.1 250.02L386.97 249.71L387.81 249.36L388.25 249.19L390.78 248.13L392.9 249.94L407 261.8L423.41 247.93L414.93 229.81L413.67 227.38L414.93 224.94L415.04 224.75L415.23 224.38L415.32 224.2L415.43 224.02L415.99 222.9L416.07 222.7L416.35 222.13L416.42 221.95L416.52 221.76L416.6 221.57L416.69 221.37L416.77 221.19L416.86 221L416.94 220.8L417.03 220.61L417.11 220.42L417.19 220.22L417.34 219.85L417.44 219.65L417.51 219.46L417.59 219.26L417.67 219.07L417.75 218.87L417.81 218.68L417.89 218.48L417.96 218.29L418.04 218.09L418.1 217.9L418.18 217.7L418.26 217.51L418.32 217.31L418.4 217.11L418.59 216.5L418.67 216.32L418.98 215.3L419.02 215.1L419.21 214.5L419.26 214.29L419.38 213.89L419.43 213.67L419.49 213.47L419.58 213.06L419.65 212.86L419.79 212.25L419.85 212.04L420.03 211.23L420.08 211.01L420.11 210.81L420.16 210.61L420.21 210.39L420.25 210.19L420.28 209.98L420.33 209.78L420.36 209.56L420.41 209.36L420.44 209.16L420.98 206.4L423.41 205.35L441.32 198.14L437.51 176.42L419.38 175.89L416.63 175.89L415.37 173.34L414.93 172.5L414.71 172.1L414.5 171.68L414.26 171.27L414.03 170.85L413.33 169.64L413.08 169.23L412.83 168.84L412.58 168.44L412.32 168.05L412.07 167.66L411.54 166.88L411.26 166.49L410.99 166.12L410.71 165.73L410.15 164.99L409.86 164.61L409.56 164.25L409.28 163.88L408.99 163.52L408.68 163.17L408.38 162.81L407.76 162.09L407.45 161.75L407.12 161.41L406.81 161.05L406.48 160.71L406.16 160.38L405.83 160.04L405.5 159.71L404.13 158.4L402.22 156.61L402.22 153.53L404.55 136.17L384.85 128.53L375.53 143.69L374.04 146.02Z" id="b1dTbd2Y0E"></path><path d="M407 154.17L407.37 154.53L407.74 154.87L408.49 155.59L408.85 155.96L409.2 156.32L409.92 157.07L410.61 157.81L410.96 158.2L411.29 158.59L411.63 158.98L412.61 160.15L412.94 160.55L413.25 160.96L413.58 161.36L413.87 161.76L414.18 162.19L414.5 162.59L415.38 163.85L415.66 164.27L415.94 164.71L416.22 165.13L416.78 166L417.05 166.43L417.31 166.88L417.58 167.32L417.82 167.77L418.07 168.21L418.57 169.11L418.81 169.58L419.05 170.03L419.29 170.49L441.1 171.12L446.3 200.99L424.58 210.11L424.53 210.33L424.5 210.56L424.45 210.79L424.41 211.01L424.36 211.24L424.31 211.46L424.27 211.69L424.17 212.13L424.11 212.36L424.06 212.58L424.02 212.81L423.97 213.03L423.91 213.27L423.86 213.48L423.8 213.7L423.75 213.94L423.63 214.37L423.58 214.6L423.4 215.26L423.33 215.49L423.15 216.14L423.08 216.38L423.02 216.6L422.94 216.81L422.82 217.25L422.74 217.47L422.68 217.7L422.6 217.92L422.54 218.14L422.46 218.35L422.4 218.57L422.24 219.01L422.18 219.24L422.12 219.46L422.04 219.69L421.98 219.91L421.92 220.14L421.84 220.38L421.78 220.59L421.7 220.83L421.62 221.05L421.56 221.28L421.48 221.5L421.4 221.73L421.33 221.95L421.25 222.18L421.09 222.62L421.01 222.85L420.94 223.07L420.86 223.3L420.78 223.52L420.69 223.74L420.61 223.96L420.53 224.19L420.44 224.41L420.36 224.62L420.17 225.06L420.1 225.29L419.16 227.47L419.05 227.69L418.96 227.91L429.56 249.08L407 268.27L389.94 253.86L388.54 254.42L388.08 254.59L387.59 254.76L386.66 255.11L386.18 255.26L385.71 255.42L385.23 255.57L383.78 255.99L381.85 256.49L381.37 256.6L380.87 256.71L380.39 256.82L379.89 256.91L379.41 257L378.91 257.1L378.41 257.17L377.93 257.25L376.94 257.41L375.94 257.53L375.44 257.58L374.94 257.64L374.45 257.69L373.95 257.72L373.45 257.77L372.45 257.83L371.96 257.84L371.44 257.86L370.45 257.89L359.01 276.84L332.2 266.25L335.07 244.32L334.69 243.98L333.57 242.91L333.21 242.53L332.86 242.18L331.78 241.06L331.44 240.68L330.76 239.9L330.43 239.53L330.09 239.13L329.43 238.35L329.12 237.94L328.79 237.54L328.17 236.73L327.86 236.31L327.57 235.9L326.38 234.22L326.1 233.79L325.82 233.37L325.56 232.93L325.28 232.5L325.01 232.06L324.75 231.61L324.48 231.17L324.24 230.72L323.97 230.29L323.72 229.84L323.49 229.39L323.24 228.92L322.77 228.02L300.94 227.38L295.76 197.5L317.48 188.39L317.51 188.15L317.55 187.94L317.67 187L317.72 186.77L317.75 186.55L317.79 186.32L317.83 186.08L317.87 185.85L317.9 185.63L318 185.17L318.03 184.95L318.17 184.25L318.21 184.03L318.26 183.8L318.31 183.58L318.35 183.35L318.42 183.11L318.46 182.89L318.56 182.43L318.62 182.21L318.67 181.98L318.73 181.76L318.77 181.53L318.84 181.31L318.9 181.07L318.96 180.86L319.01 180.62L319.07 180.4L319.13 180.17L319.19 179.95L319.26 179.72L319.38 179.28L319.69 178.41L319.79 178.21L320.02 177.56L320.11 177.36L320.19 177.14L320.28 176.92L320.36 176.72L320.55 176.28L320.63 176.08L320.72 175.86L320.81 175.66L320.91 175.44L320.98 175.24L321.08 175.02L321.17 174.82L321.26 174.6L321.37 174.4L321.47 174.2L321.56 173.98L321.75 173.57L321.86 173.36L322.04 172.95L322.15 172.75L322.24 172.53L322.46 172.13L322.56 171.93L322.99 171.12L323.08 170.91L312.5 149.19L335.07 129.92L352.12 144.32L353.99 143.58L354.92 143.23L355.4 143.08L355.87 142.92L356.83 142.61L357.31 142.47L357.78 142.33L358.26 142.19L358.75 142.07L359.23 141.93L359.73 141.82L360.21 141.69L361.17 141.48L361.67 141.37L362.15 141.27L363.15 141.09L363.63 141.01L364.13 140.92L364.63 140.85L365.13 140.78L365.61 140.71L366.6 140.59L368.1 140.45L368.61 140.42L369.61 140.36L370.1 140.34L370.6 140.31L371.1 140.31L371.61 140.29L383.05 121.65L409.86 132.25L407 154.17ZM374.04 146.02L370.15 146.02L368.8 146.07L368.36 146.08L367.01 146.17L366.56 146.22L366.12 146.27L365.22 146.36L364.78 146.42L363.88 146.55L363.45 146.61L363.01 146.69L362.56 146.77L362.12 146.84L361.67 146.94L360.36 147.22L358.62 147.65L357.75 147.9L357.33 148.03L356.89 148.15L356.46 148.29L355.62 148.57L355.18 148.73L353.92 149.19L351.37 150.25L349.26 148.45L335.38 136.59L319.07 150.47L328.06 168.36L328.59 170.8L327.33 173.25L327.22 173.42L326.01 175.85L325.93 176.05L325.75 176.42L325.67 176.61L325.57 176.8L325.5 177L325.4 177.18L325.32 177.37L325.25 177.57L325.15 177.76L325.08 177.95L325 178.15L324.84 178.52L324.76 178.72L324.69 178.91L324.61 179.11L324.53 179.3L324.45 179.5L324.38 179.69L324.3 179.89L324.22 180.08L324.16 180.28L324.08 180.48L324 180.67L323.88 181.07L323.8 181.26L323.12 183.49L323.07 183.69L322.94 184.09L322.9 184.29L322.84 184.5L322.79 184.7L322.73 184.9L322.68 185.12L322.63 185.32L322.57 185.52L322.43 186.13L322.38 186.35L322.2 187.16L322.15 187.38L322.06 187.78L322.03 187.98L321.98 188.2L321.93 188.4L321.9 188.6L321.86 188.82L321.82 189.02L321.3 191.78L318.85 192.84L300.85 200.37L304.66 222.07L322.77 222.6L325.22 222.6L326.48 225.15L326.91 225.99L327.13 226.4L327.35 226.82L327.58 227.24L328.51 228.86L328.76 229.26L329.01 229.65L329.26 230.05L329.79 230.83L330.04 231.22L330.32 231.61L330.58 232L330.85 232.37L331.13 232.76L331.69 233.51L331.98 233.88L332.28 234.24L332.56 234.61L332.87 234.97L333.46 235.69L334.08 236.4L334.4 236.75L334.72 237.1L335.03 237.45L335.36 237.79L335.69 238.11L336.01 238.46L336.34 238.78L337.71 240.09L339.62 241.88L339.62 244.63L337.29 262.54L357.1 270.28L366.42 255.14L367.9 252.8L370.45 252.8L370.9 252.79L371.36 252.79L372.27 252.76L372.73 252.72L373.64 252.66L374.1 252.63L375.91 252.44L376.37 252.38L377.28 252.26L378.18 252.1L378.62 252.02L379.07 251.95L379.97 251.76L380.4 251.67L380.86 251.57L381.29 251.46L381.74 251.36L382.18 251.23L382.63 251.12L383.5 250.87L383.94 250.73L384.37 250.61L384.81 250.47L385.24 250.31L385.68 250.17L386.1 250.02L386.97 249.71L387.81 249.36L388.25 249.19L390.78 248.13L392.9 249.94L407 261.8L423.41 247.93L414.93 229.81L413.67 227.38L414.93 224.94L415.04 224.75L415.23 224.38L415.32 224.2L415.43 224.02L415.99 222.9L416.07 222.7L416.35 222.13L416.42 221.95L416.52 221.76L416.6 221.57L416.69 221.37L416.77 221.19L416.86 221L416.94 220.8L417.03 220.61L417.11 220.42L417.19 220.22L417.34 219.85L417.44 219.65L417.51 219.46L417.59 219.26L417.67 219.07L417.75 218.87L417.81 218.68L417.89 218.48L417.96 218.29L418.04 218.09L418.1 217.9L418.18 217.7L418.26 217.51L418.32 217.31L418.4 217.11L418.59 216.5L418.67 216.32L418.98 215.3L419.02 215.1L419.21 214.5L419.26 214.29L419.38 213.89L419.43 213.67L419.49 213.47L419.58 213.06L419.65 212.86L419.79 212.25L419.85 212.04L420.03 211.23L420.08 211.01L420.11 210.81L420.16 210.61L420.21 210.39L420.25 210.19L420.28 209.98L420.33 209.78L420.36 209.56L420.41 209.36L420.44 209.16L420.98 206.4L423.41 205.35L441.32 198.14L437.51 176.42L419.38 175.89L416.63 175.89L415.37 173.34L414.93 172.5L414.71 172.1L414.5 171.68L414.26 171.27L414.03 170.85L413.33 169.64L413.08 169.23L412.83 168.84L412.58 168.44L412.32 168.05L412.07 167.66L411.54 166.88L411.26 166.49L410.99 166.12L410.71 165.73L410.15 164.99L409.86 164.61L409.56 164.25L409.28 163.88L408.99 163.52L408.68 163.17L408.38 162.81L407.76 162.09L407.45 161.75L407.12 161.41L406.81 161.05L406.48 160.71L406.16 160.38L405.83 160.04L405.5 159.71L404.13 158.4L402.22 156.61L402.22 153.53L404.55 136.17L384.85 128.53L375.53 143.69L374.04 146.02Z" id="a16t65kkIW"></path><path d="M375.15 168.86L377.12 169.19L379.08 169.65L381.04 170.28L382.97 171.18L384.82 172.22L386.57 173.36L388.22 174.59L389.77 175.94L391.22 177.36L392.57 178.88L393.8 180.47L394.94 182.13L395.95 183.87L396.85 185.66L397.63 187.52L398.3 189.4L398.83 191.34L399.23 193.3L399.53 195.31L399.67 197.33L399.68 199.37L399.57 201.41L399.31 203.46L398.9 205.52L398.36 207.56L397.68 209.58L397.66 209.61L397.64 209.67L397.61 209.75L397.6 209.81L397.57 209.87L397.55 209.95L397.52 210.01L397.5 210.08L397.47 210.14L397.46 210.22L397.43 210.28L397.41 210.34L396.65 212.25L395.76 214.08L394.78 215.8L393.68 217.45L392.48 219.01L391.19 220.45L389.8 221.82L388.34 223.07L386.78 224.22L385.18 225.26L383.5 226.2L381.77 227.02L379.98 227.72L378.16 228.3L376.3 228.76L374.38 229.09L372.47 229.31L370.52 229.39L368.56 229.32L366.59 229.12L364.61 228.79L362.65 228.31L360.69 227.69L358.76 226.77L356.93 225.74L355.18 224.61L353.53 223.36L351.99 222.01L350.55 220.58L349.21 219.07L347.98 217.47L346.86 215.8L345.85 214.08L344.95 212.27L344.17 210.43L343.51 208.54L342.98 206.61L342.58 204.63L342.3 202.64L342.16 200.62L342.14 198.58L342.27 196.54L342.52 194.49L342.92 192.45L343.48 190.41L344.17 188.39L344.18 188.36L344.2 188.31L344.21 188.28L344.21 188.25L344.24 188.2L344.24 188.17L344.26 188.11L344.28 188.08L344.29 188.06L344.31 188L344.31 187.97L344.34 187.92L344.35 187.86L344.37 187.81L344.39 187.75L345.15 185.84L346.02 184.01L347 182.27L348.09 180.62L349.29 179.07L350.58 177.62L351.96 176.25L353.42 174.99L354.97 173.84L356.57 172.78L358.23 171.85L359.96 171.02L361.75 170.32L363.57 169.73L365.44 169.26L367.33 168.92L369.26 168.7L371.21 168.63L373.17 168.67L375.15 168.86ZM367.49 189.66L365.64 190.63L364.04 191.98L362.76 193.69L361.86 195.7L361.33 197.92L361.3 200.15L361.72 202.3L362.57 204.32L363.83 206.12L365.48 207.65L367.47 208.83L367.54 208.86L367.57 208.86L367.63 208.89L367.66 208.89L367.69 208.91L369.86 209.33L371.99 209.25L374.01 208.71L375.86 207.74L377.48 206.39L378.76 204.69L379.66 202.69L380.19 200.46L380.23 198.24L379.81 196.09L378.97 194.07L377.73 192.26L376.11 190.74L374.15 189.55L374.01 189.51L373.95 189.49L373.81 189.44L371.64 189.02L369.51 189.12L367.49 189.66Z" id="d1oroZbQHP"></path><path d="M375.15 168.86L377.12 169.19L379.08 169.65L381.04 170.28L382.97 171.18L384.82 172.22L386.57 173.36L388.22 174.59L389.77 175.94L391.22 177.36L392.57 178.88L393.8 180.47L394.94 182.13L395.95 183.87L396.85 185.66L397.63 187.52L398.3 189.4L398.83 191.34L399.23 193.3L399.53 195.31L399.67 197.33L399.68 199.37L399.57 201.41L399.31 203.46L398.9 205.52L398.36 207.56L397.68 209.58L397.66 209.61L397.64 209.67L397.61 209.75L397.6 209.81L397.57 209.87L397.55 209.95L397.52 210.01L397.5 210.08L397.47 210.14L397.46 210.22L397.43 210.28L397.41 210.34L396.65 212.25L395.76 214.08L394.78 215.8L393.68 217.45L392.48 219.01L391.19 220.45L389.8 221.82L388.34 223.07L386.78 224.22L385.18 225.26L383.5 226.2L381.77 227.02L379.98 227.72L378.16 228.3L376.3 228.76L374.38 229.09L372.47 229.31L370.52 229.39L368.56 229.32L366.59 229.12L364.61 228.79L362.65 228.31L360.69 227.69L358.76 226.77L356.93 225.74L355.18 224.61L353.53 223.36L351.99 222.01L350.55 220.58L349.21 219.07L347.98 217.47L346.86 215.8L345.85 214.08L344.95 212.27L344.17 210.43L343.51 208.54L342.98 206.61L342.58 204.63L342.3 202.64L342.16 200.62L342.14 198.58L342.27 196.54L342.52 194.49L342.92 192.45L343.48 190.41L344.17 188.39L344.18 188.36L344.2 188.31L344.21 188.28L344.21 188.25L344.24 188.2L344.24 188.17L344.26 188.11L344.28 188.08L344.29 188.06L344.31 188L344.31 187.97L344.34 187.92L344.35 187.86L344.37 187.81L344.39 187.75L345.15 185.84L346.02 184.01L347 182.27L348.09 180.62L349.29 179.07L350.58 177.62L351.96 176.25L353.42 174.99L354.97 173.84L356.57 172.78L358.23 171.85L359.96 171.02L361.75 170.32L363.57 169.73L365.44 169.26L367.33 168.92L369.26 168.7L371.21 168.63L373.17 168.67L375.15 168.86ZM367.49 189.66L365.64 190.63L364.04 191.98L362.76 193.69L361.86 195.7L361.33 197.92L361.3 200.15L361.72 202.3L362.57 204.32L363.83 206.12L365.48 207.65L367.47 208.83L367.54 208.86L367.57 208.86L367.63 208.89L367.66 208.89L367.69 208.91L369.86 209.33L371.99 209.25L374.01 208.71L375.86 207.74L377.48 206.39L378.76 204.69L379.66 202.69L380.19 200.46L380.23 198.24L379.81 196.09L378.97 194.07L377.73 192.26L376.11 190.74L374.15 189.55L374.01 189.51L373.95 189.49L373.81 189.44L371.64 189.02L369.51 189.12L367.49 189.66Z" id="d1dauvpmx"></path><path d="M460.6 321.01L461.2 321.59L461.81 322.15L462.42 322.73L463.01 323.3L463.6 323.89L465.33 325.67L465.9 326.27L466.46 326.88L467.01 327.5L467.57 328.12L468.11 328.75L468.64 329.37L469.19 330.01L469.7 330.65L470.23 331.28L471.26 332.59L471.75 333.24L472.75 334.58L473.71 335.92L474.65 337.29L475.1 337.97L475.57 338.66L476 339.36L476.45 340.06L476.89 340.77L477.31 341.47L478.57 343.62L478.96 344.35L479.36 345.08L480.14 346.55L480.51 347.29L515.79 348.13L524.16 396.23L489.09 410.85L489.02 411.23L488.87 411.97L488.81 412.35L488.73 412.7L488.57 413.45L488.48 413.83L488.4 414.2L488.32 414.56L488.23 414.93L488.15 415.3L488.06 415.66L487.87 416.41L487.79 416.77L487.7 417.14L487.59 417.5L487.41 418.24L487.31 418.6L487.2 418.98L487.11 419.33L487 419.69L486.89 420.06L486.8 420.42L486.69 420.8L486.36 421.87L486.24 422.24L486.02 422.96L485.9 423.32L485.79 423.67L485.66 424.03L485.54 424.41L484.54 427.27L484.4 427.63L484.28 427.98L483.86 429.06L483.73 429.42L483.59 429.76L483.44 430.12L483.16 430.83L483.02 431.17L482.86 431.53L482.72 431.87L482.57 432.23L482.43 432.57L482.27 432.93L482.12 433.27L481.96 433.63L481.65 434.32L481.49 434.67L481.34 435.02L481.17 435.36L481.01 435.7L480.84 436.04L480.68 436.39L479.32 439.12L479.13 439.45L496.73 474.41L460.38 504.82L432.95 481.62L432.19 481.93L429.9 482.82L429.14 483.1L428.36 483.36L427.6 483.62L426.82 483.89L425.26 484.39L424.48 484.62L423.71 484.84L422.91 485.06L422.13 485.27L420.55 485.68L418.96 486.05L418.17 486.22L417.37 486.38L416.56 486.55L415.77 486.69L414.96 486.83L414.17 486.97L412.55 487.22L410.93 487.44L409.31 487.62L407.7 487.78L406.89 487.84L406.06 487.9L405.25 487.95L404.43 488L403.62 488.03L402.79 488.06L401.99 488.07L401.16 488.07L382.63 518.06L339.41 501.42L344.07 466.04L343.45 465.48L342.84 464.92L341.66 463.77L340.48 462.59L339.9 462L339.33 461.39L338.77 460.8L338.21 460.18L337.65 459.57L336.01 457.7L334.96 456.43L334.43 455.77L333.91 455.14L333.42 454.48L332.9 453.83L332.4 453.16L330.96 451.15L329.56 449.1L329.11 448.4L328.65 447.71L328.22 447L327.35 445.6L326.51 444.17L326.1 443.43L325.7 442.72L325.29 441.99L324.9 441.26L324.53 440.51L324.16 439.78L288.87 438.72L280.5 390.63L315.57 376L315.65 375.63L315.71 375.27L315.79 374.9L315.85 374.54L315.93 374.16L316.08 373.45L316.16 373.08L316.24 372.72L316.33 372.34L316.49 371.63L316.58 371.26L316.66 370.9L316.75 370.54L316.85 370.17L316.94 369.81L317.02 369.45L317.11 369.09L317.22 368.73L317.31 368.36L317.5 367.65L317.61 367.29L317.7 366.93L317.92 366.21L318.01 365.86L318.56 364.07L318.68 363.72L318.79 363.37L318.91 363.01L319.02 362.65L319.15 362.29L319.26 361.95L319.38 361.59L319.51 361.25L319.63 360.89L319.77 360.55L319.89 360.19L320.03 359.85L320.16 359.51L320.3 359.17L320.42 358.81L321.4 356.41L321.56 356.07L321.7 355.73L321.86 355.38L322 355.04L322.31 354.36L322.46 354.03L322.62 353.69L322.76 353.35L322.93 353.02L323.24 352.33L323.4 352.01L323.57 351.67L323.72 351.34L323.89 351.01L324.05 350.67L324.39 350.02L324.56 349.67L325.42 348.04L307.95 313.08L344.28 282.26L371.72 305.45L372.47 305.14L373.23 304.83L373.99 304.54L374.76 304.26L375.53 303.98L376.3 303.7L377.08 303.43L377.84 303.18L379.39 302.69L380.19 302.45L380.96 302.22L381.74 302L383.33 301.6L384.11 301.39L385.69 301.02L386.5 300.85L387.3 300.68L388.09 300.52L388.9 300.37L389.69 300.23L390.5 300.1L391.3 299.96L392.11 299.85L392.91 299.73L393.72 299.64L394.53 299.53L396.15 299.37L396.98 299.29L398.59 299.17L399.42 299.12L400.23 299.08L401.04 299.04L401.86 299.01L402.69 299L403.49 298.98L422.04 269L465.25 285.63L460.6 321.01ZM407.52 307.68L402.65 307.68L401.91 307.7L400.45 307.76L399.7 307.79L398.97 307.84L398.24 307.9L397.49 307.94L396.76 308.02L396.03 308.08L395.29 308.18L394.56 308.26L393.83 308.35L393.1 308.46L392.39 308.57L391.65 308.68L390.92 308.8L390.21 308.92L389.48 309.06L388.76 309.2L388.03 309.36L386.6 309.67L385.88 309.84L384.45 310.22L383.75 310.4L383.03 310.59L382.33 310.81L381.62 311.01L380.92 311.23L378.82 311.93L378.13 312.18L377.43 312.43L376.75 312.69L376.05 312.95L375.36 313.22L374.68 313.5L370.56 315.19L367.16 312.33L344.39 293.16L318.01 315.51L332.51 344.54L334.54 348.46L332.42 352.49L332.25 352.79L331.94 353.38L331.78 353.69L331.63 353.98L331.47 354.3L331.32 354.59L331.16 354.9L331.02 355.2L330.86 355.51L330.72 355.8L330.57 356.12L330.43 356.43L330.27 356.72L329.71 357.97L329.57 358.26L329.15 359.2L329.03 359.51L328.75 360.13L328.62 360.44L328.5 360.77L328.36 361.08L327.99 362.01L327.86 362.34L327.61 362.96L327.49 363.29L327.38 363.6L327.25 363.93L327.13 364.24L327.02 364.56L326.91 364.88L326.79 365.2L326.68 365.53L326.57 365.84L326.48 366.17L326.26 366.82L326.15 367.13L326.06 367.46L325.95 367.79L325.85 368.11L325.75 368.44L325 371.05L324.92 371.38L324.83 371.71L324.75 372.03L324.66 372.38L324.5 373.03L324.41 373.36L324.33 373.68L324.25 374.02L324.1 374.68L324.03 375.02L323.88 375.67L323.82 376.02L323.74 376.34L323.68 376.69L323.6 377.01L323.54 377.34L323.47 377.68L323.41 378.01L322.56 382.46L318.54 384.15L289.51 396.23L295.54 431.19L324.78 432.05L329.14 432.05L330.72 435.53L331.07 436.22L331.41 436.88L331.77 437.55L332.14 438.22L332.5 438.88L332.87 439.53L334.04 441.49L335.25 443.4L335.67 444.04L336.51 445.29L336.95 445.91L337.38 446.52L337.83 447.14L338.27 447.74L338.74 448.34L339.19 448.94L340.12 450.13L340.6 450.72L341.57 451.87L342.56 453.02L343.06 453.58L344.09 454.7L344.6 455.24L345.66 456.33L346.73 457.41L347.28 457.92L347.82 458.45L348.94 459.48L352.12 462.34L351.59 466.79L347.78 495.6L379.55 507.9L394.7 483.42L397.04 479.72L401.16 479.72L401.91 479.7L402.64 479.69L403.39 479.66L404.85 479.59L405.6 479.55L406.33 479.5L407.79 479.38L408.54 479.3L409.27 479.22L410 479.13L410.71 479.03L411.45 478.94L412.18 478.83L412.91 478.71L413.62 478.58L414.36 478.46L415.09 478.32L415.8 478.18L417.95 477.71L418.68 477.54L419.38 477.37L420.1 477.18L420.81 476.98L421.51 476.79L422.23 476.59L423.63 476.16L424.34 475.92L425.04 475.7L425.73 475.46L427.13 474.96L427.81 474.71L428.5 474.44L429.87 473.88L434.01 472.19L437.82 475.05L460.6 494.22L486.97 471.88L472.36 443.06L470.34 439.14L472.45 435.11L472.62 434.81L472.78 434.52L472.94 434.21L473.25 433.62L473.4 433.31L473.56 433.01L473.71 432.7L473.85 432.4L474.16 431.78L474.3 431.49L474.45 431.17L474.6 430.86L474.74 430.57L475.44 429.01L475.58 428.72L475.86 428.09L475.99 427.78L476.13 427.46L476.37 426.83L476.51 426.52L476.76 425.9L476.89 425.57L477.14 424.95L477.26 424.62L477.39 424.31L477.49 424L477.62 423.67L477.74 423.36L477.85 423.04L477.96 422.73L478.09 422.4L478.3 421.74L478.41 421.43L478.51 421.11L478.72 420.45L478.82 420.14L478.93 419.82L479.02 419.49L479.13 419.16L479.88 416.55L479.95 416.22L480.05 415.88L480.12 415.55L480.22 415.23L480.3 414.9L480.39 414.57L480.47 414.25L480.54 413.9L480.7 413.25L480.78 412.91L480.86 412.58L480.92 412.25L481 411.91L481.06 411.58L481.14 411.26L481.2 410.92L481.28 410.59L481.34 410.25L481.4 409.92L481.46 409.58L482.32 405.13L486.33 403.43L515.37 391.79L509.33 356.83L480.09 355.87L475.75 355.87L473.73 351.85L473.39 351.17L473.04 350.5L472.69 349.83L472.33 349.18L471.96 348.51L471.21 347.2L470.82 346.55L470.43 345.91L470.04 345.26L469.23 343.98L467.97 342.11L467.1 340.87L466.67 340.26L465.76 339.05L465.31 338.46L464.84 337.85L464.38 337.26L463.91 336.68L463.43 336.09L462.95 335.52L462.45 334.94L460.96 333.26L459.93 332.14L459.4 331.59L458.89 331.05L458.34 330.52L457.81 329.99L456.72 328.93L456.18 328.42L455.62 327.91L452.44 325.04L452.97 320.59L456.79 291.78L425 279.49L409.86 303.96L407.52 307.68Z" id="c170HXf6Kg"></path><path d="M460.6 321.01L461.2 321.59L461.81 322.15L462.42 322.73L463.01 323.3L463.6 323.89L465.33 325.67L465.9 326.27L466.46 326.88L467.01 327.5L467.57 328.12L468.11 328.75L468.64 329.37L469.19 330.01L469.7 330.65L470.23 331.28L471.26 332.59L471.75 333.24L472.75 334.58L473.71 335.92L474.65 337.29L475.1 337.97L475.57 338.66L476 339.36L476.45 340.06L476.89 340.77L477.31 341.47L478.57 343.62L478.96 344.35L479.36 345.08L480.14 346.55L480.51 347.29L515.79 348.13L524.16 396.23L489.09 410.85L489.02 411.23L488.87 411.97L488.81 412.35L488.73 412.7L488.57 413.45L488.48 413.83L488.4 414.2L488.32 414.56L488.23 414.93L488.15 415.3L488.06 415.66L487.87 416.41L487.79 416.77L487.7 417.14L487.59 417.5L487.41 418.24L487.31 418.6L487.2 418.98L487.11 419.33L487 419.69L486.89 420.06L486.8 420.42L486.69 420.8L486.36 421.87L486.24 422.24L486.02 422.96L485.9 423.32L485.79 423.67L485.66 424.03L485.54 424.41L484.54 427.27L484.4 427.63L484.28 427.98L483.86 429.06L483.73 429.42L483.59 429.76L483.44 430.12L483.16 430.83L483.02 431.17L482.86 431.53L482.72 431.87L482.57 432.23L482.43 432.57L482.27 432.93L482.12 433.27L481.96 433.63L481.65 434.32L481.49 434.67L481.34 435.02L481.17 435.36L481.01 435.7L480.84 436.04L480.68 436.39L479.32 439.12L479.13 439.45L496.73 474.41L460.38 504.82L432.95 481.62L432.19 481.93L429.9 482.82L429.14 483.1L428.36 483.36L427.6 483.62L426.82 483.89L425.26 484.39L424.48 484.62L423.71 484.84L422.91 485.06L422.13 485.27L420.55 485.68L418.96 486.05L418.17 486.22L417.37 486.38L416.56 486.55L415.77 486.69L414.96 486.83L414.17 486.97L412.55 487.22L410.93 487.44L409.31 487.62L407.7 487.78L406.89 487.84L406.06 487.9L405.25 487.95L404.43 488L403.62 488.03L402.79 488.06L401.99 488.07L401.16 488.07L382.63 518.06L339.41 501.42L344.07 466.04L343.45 465.48L342.84 464.92L341.66 463.77L340.48 462.59L339.9 462L339.33 461.39L338.77 460.8L338.21 460.18L337.65 459.57L336.01 457.7L334.96 456.43L334.43 455.77L333.91 455.14L333.42 454.48L332.9 453.83L332.4 453.16L330.96 451.15L329.56 449.1L329.11 448.4L328.65 447.71L328.22 447L327.35 445.6L326.51 444.17L326.1 443.43L325.7 442.72L325.29 441.99L324.9 441.26L324.53 440.51L324.16 439.78L288.87 438.72L280.5 390.63L315.57 376L315.65 375.63L315.71 375.27L315.79 374.9L315.85 374.54L315.93 374.16L316.08 373.45L316.16 373.08L316.24 372.72L316.33 372.34L316.49 371.63L316.58 371.26L316.66 370.9L316.75 370.54L316.85 370.17L316.94 369.81L317.02 369.45L317.11 369.09L317.22 368.73L317.31 368.36L317.5 367.65L317.61 367.29L317.7 366.93L317.92 366.21L318.01 365.86L318.56 364.07L318.68 363.72L318.79 363.37L318.91 363.01L319.02 362.65L319.15 362.29L319.26 361.95L319.38 361.59L319.51 361.25L319.63 360.89L319.77 360.55L319.89 360.19L320.03 359.85L320.16 359.51L320.3 359.17L320.42 358.81L321.4 356.41L321.56 356.07L321.7 355.73L321.86 355.38L322 355.04L322.31 354.36L322.46 354.03L322.62 353.69L322.76 353.35L322.93 353.02L323.24 352.33L323.4 352.01L323.57 351.67L323.72 351.34L323.89 351.01L324.05 350.67L324.39 350.02L324.56 349.67L325.42 348.04L307.95 313.08L344.28 282.26L371.72 305.45L372.47 305.14L373.23 304.83L373.99 304.54L374.76 304.26L375.53 303.98L376.3 303.7L377.08 303.43L377.84 303.18L379.39 302.69L380.19 302.45L380.96 302.22L381.74 302L383.33 301.6L384.11 301.39L385.69 301.02L386.5 300.85L387.3 300.68L388.09 300.52L388.9 300.37L389.69 300.23L390.5 300.1L391.3 299.96L392.11 299.85L392.91 299.73L393.72 299.64L394.53 299.53L396.15 299.37L396.98 299.29L398.59 299.17L399.42 299.12L400.23 299.08L401.04 299.04L401.86 299.01L402.69 299L403.49 298.98L422.04 269L465.25 285.63L460.6 321.01ZM407.52 307.68L402.65 307.68L401.91 307.7L400.45 307.76L399.7 307.79L398.97 307.84L398.24 307.9L397.49 307.94L396.76 308.02L396.03 308.08L395.29 308.18L394.56 308.26L393.83 308.35L393.1 308.46L392.39 308.57L391.65 308.68L390.92 308.8L390.21 308.92L389.48 309.06L388.76 309.2L388.03 309.36L386.6 309.67L385.88 309.84L384.45 310.22L383.75 310.4L383.03 310.59L382.33 310.81L381.62 311.01L380.92 311.23L378.82 311.93L378.13 312.18L377.43 312.43L376.75 312.69L376.05 312.95L375.36 313.22L374.68 313.5L370.56 315.19L367.16 312.33L344.39 293.16L318.01 315.51L332.51 344.54L334.54 348.46L332.42 352.49L332.25 352.79L331.94 353.38L331.78 353.69L331.63 353.98L331.47 354.3L331.32 354.59L331.16 354.9L331.02 355.2L330.86 355.51L330.72 355.8L330.57 356.12L330.43 356.43L330.27 356.72L329.71 357.97L329.57 358.26L329.15 359.2L329.03 359.51L328.75 360.13L328.62 360.44L328.5 360.77L328.36 361.08L327.99 362.01L327.86 362.34L327.61 362.96L327.49 363.29L327.38 363.6L327.25 363.93L327.13 364.24L327.02 364.56L326.91 364.88L326.79 365.2L326.68 365.53L326.57 365.84L326.48 366.17L326.26 366.82L326.15 367.13L326.06 367.46L325.95 367.79L325.85 368.11L325.75 368.44L325 371.05L324.92 371.38L324.83 371.71L324.75 372.03L324.66 372.38L324.5 373.03L324.41 373.36L324.33 373.68L324.25 374.02L324.1 374.68L324.03 375.02L323.88 375.67L323.82 376.02L323.74 376.34L323.68 376.69L323.6 377.01L323.54 377.34L323.47 377.68L323.41 378.01L322.56 382.46L318.54 384.15L289.51 396.23L295.54 431.19L324.78 432.05L329.14 432.05L330.72 435.53L331.07 436.22L331.41 436.88L331.77 437.55L332.14 438.22L332.5 438.88L332.87 439.53L334.04 441.49L335.25 443.4L335.67 444.04L336.51 445.29L336.95 445.91L337.38 446.52L337.83 447.14L338.27 447.74L338.74 448.34L339.19 448.94L340.12 450.13L340.6 450.72L341.57 451.87L342.56 453.02L343.06 453.58L344.09 454.7L344.6 455.24L345.66 456.33L346.73 457.41L347.28 457.92L347.82 458.45L348.94 459.48L352.12 462.34L351.59 466.79L347.78 495.6L379.55 507.9L394.7 483.42L397.04 479.72L401.16 479.72L401.91 479.7L402.64 479.69L403.39 479.66L404.85 479.59L405.6 479.55L406.33 479.5L407.79 479.38L408.54 479.3L409.27 479.22L410 479.13L410.71 479.03L411.45 478.94L412.18 478.83L412.91 478.71L413.62 478.58L414.36 478.46L415.09 478.32L415.8 478.18L417.95 477.71L418.68 477.54L419.38 477.37L420.1 477.18L420.81 476.98L421.51 476.79L422.23 476.59L423.63 476.16L424.34 475.92L425.04 475.7L425.73 475.46L427.13 474.96L427.81 474.71L428.5 474.44L429.87 473.88L434.01 472.19L437.82 475.05L460.6 494.22L486.97 471.88L472.36 443.06L470.34 439.14L472.45 435.11L472.62 434.81L472.78 434.52L472.94 434.21L473.25 433.62L473.4 433.31L473.56 433.01L473.71 432.7L473.85 432.4L474.16 431.78L474.3 431.49L474.45 431.17L474.6 430.86L474.74 430.57L475.44 429.01L475.58 428.72L475.86 428.09L475.99 427.78L476.13 427.46L476.37 426.83L476.51 426.52L476.76 425.9L476.89 425.57L477.14 424.95L477.26 424.62L477.39 424.31L477.49 424L477.62 423.67L477.74 423.36L477.85 423.04L477.96 422.73L478.09 422.4L478.3 421.74L478.41 421.43L478.51 421.11L478.72 420.45L478.82 420.14L478.93 419.82L479.02 419.49L479.13 419.16L479.88 416.55L479.95 416.22L480.05 415.88L480.12 415.55L480.22 415.23L480.3 414.9L480.39 414.57L480.47 414.25L480.54 413.9L480.7 413.25L480.78 412.91L480.86 412.58L480.92 412.25L481 411.91L481.06 411.58L481.14 411.26L481.2 410.92L481.28 410.59L481.34 410.25L481.4 409.92L481.46 409.58L482.32 405.13L486.33 403.43L515.37 391.79L509.33 356.83L480.09 355.87L475.75 355.87L473.73 351.85L473.39 351.17L473.04 350.5L472.69 349.83L472.33 349.18L471.96 348.51L471.21 347.2L470.82 346.55L470.43 345.91L470.04 345.26L469.23 343.98L467.97 342.11L467.1 340.87L466.67 340.26L465.76 339.05L465.31 338.46L464.84 337.85L464.38 337.26L463.91 336.68L463.43 336.09L462.95 335.52L462.45 334.94L460.96 333.26L459.93 332.14L459.4 331.59L458.89 331.05L458.34 330.52L457.81 329.99L456.72 328.93L456.18 328.42L455.62 327.91L452.44 325.04L452.97 320.59L456.79 291.78L425 279.49L409.86 303.96L407.52 307.68Z" id="aiSD2gfix"></path><path d="M407.34 344.79L409.27 344.99L411.2 345.29L413.11 345.66L415.04 346.11L416.95 346.66L418.85 347.29L420.78 348.15L422.63 349.1L424.45 350.09L426.2 351.17L427.89 352.3L429.53 353.5L431.11 354.75L432.62 356.07L434.08 357.44L435.48 358.85L436.81 360.33L438.08 361.86L439.28 363.41L440.42 365.03L441.49 366.68L442.5 368.38L443.44 370.1L444.31 371.86L445.1 373.65L445.82 375.49L446.47 377.34L447.06 379.21L447.56 381.12L447.99 383.03L448.34 384.98L448.62 386.94L448.82 388.9L448.93 390.89L448.97 392.88L448.93 394.87L448.8 396.88L448.6 398.89L448.31 400.9L447.93 402.9L447.47 404.89L446.92 406.9L446.28 408.88L445.55 410.85L445.54 410.9L445.5 410.98L445.5 411.02L445.47 411.1L445.43 411.24L445.41 411.27L445.4 411.32L445.4 411.37L445.36 411.44L445.35 411.49L445.32 411.57L445.27 411.71L445.26 411.74L445.26 411.79L445.24 411.83L445.21 411.91L445.19 411.96L445.16 412.04L445.13 412.13L445.12 412.16L445.07 412.3L445.04 412.38L445.02 412.42L445.02 412.46L444.31 414.34L443.51 416.17L442.67 417.95L441.74 419.68L440.76 421.36L439.7 422.97L438.6 424.55L437.43 426.07L436.2 427.52L434.91 428.92L433.59 430.27L432.2 431.55L430.77 432.78L429.29 433.93L427.77 435.03L426.21 436.08L424.61 437.04L422.97 437.94L421.29 438.78L419.58 439.56L417.86 440.26L416.1 440.88L414.31 441.44L412.49 441.94L410.67 442.35L408.82 442.69L406.93 442.95L405.05 443.15L403.17 443.26L401.25 443.29L399.34 443.25L397.43 443.12L395.5 442.92L393.57 442.63L391.65 442.25L389.74 441.8L387.81 441.26L385.91 440.62L384 439.76L382.13 438.83L380.33 437.82L378.57 436.74L376.87 435.61L375.24 434.43L373.65 433.17L372.14 431.84L370.68 430.47L369.3 429.06L367.96 427.58L366.68 426.07L365.48 424.5L364.35 422.88L363.27 421.23L362.26 419.54L361.33 417.81L360.46 416.05L359.66 414.26L358.95 412.42L358.3 410.57L357.72 408.71L357.21 406.79L356.79 404.88L356.43 402.93L356.15 400.97L355.96 399.01L355.84 397.02L355.79 395.03L355.84 393.04L355.96 391.03L356.18 389.02L356.46 387.02L356.85 385.01L357.3 383.02L357.86 381.03L358.5 379.03L359.21 377.06L359.23 377.01L359.26 376.93L359.28 376.89L359.29 376.81L359.32 376.72L359.34 376.69L359.38 376.55L359.4 376.47L359.42 376.42L359.45 376.34L359.46 376.3L359.49 376.22L359.54 376.08L359.56 376L359.57 375.95L359.6 375.88L359.63 375.78L359.65 375.75L359.68 375.66L359.7 375.63L359.74 375.49L359.76 375.46L360.46 373.57L361.25 371.74L362.11 369.96L363.03 368.24L364.01 366.56L365.06 364.94L366.17 363.37L367.35 361.86L368.56 360.39L369.86 358.99L371.18 357.64L372.56 356.36L373.99 355.14L375.47 353.98L377 352.88L378.57 351.85L380.16 350.87L381.81 349.97L383.47 349.13L385.18 348.37L386.91 347.65L388.68 347.03L390.46 346.47L392.28 345.97L394.11 345.57L395.96 345.22L397.83 344.96L399.71 344.76L401.61 344.65L403.51 344.62L405.42 344.66L407.34 344.79ZM399.32 377.31L397.43 377.87L395.62 378.68L393.93 379.7L392.39 380.95L390.99 382.38L389.79 384L388.79 385.8L388.03 387.76L387.38 389.85L387 391.96L386.91 394.08L387.08 396.17L387.52 398.2L388.2 400.15L389.12 402.02L390.25 403.74L391.62 405.33L393.19 406.73L394.97 407.96L396.93 408.94L397.07 408.99L397.1 409L397.33 409.08L397.36 409.1L397.46 409.13L399.51 409.62L401.55 409.83L403.57 409.76L405.55 409.44L407.45 408.88L409.25 408.07L410.95 407.04L412.49 405.81L413.89 404.37L415.09 402.75L416.08 400.94L416.84 398.98L417.5 396.9L417.87 394.78L417.96 392.66L417.79 390.58L417.36 388.56L416.67 386.6L415.76 384.74L414.62 383L413.25 381.43L411.68 380.01L409.91 378.8L407.94 377.81L407.85 377.77L407.82 377.76L407.54 377.67L407.51 377.65L407.42 377.62L405.36 377.14L403.32 376.92L401.3 376.98L399.32 377.31Z" id="c96ufmAsr"></path><path d="M407.34 344.79L409.27 344.99L411.2 345.29L413.11 345.66L415.04 346.11L416.95 346.66L418.85 347.29L420.78 348.15L422.63 349.1L424.45 350.09L426.2 351.17L427.89 352.3L429.53 353.5L431.11 354.75L432.62 356.07L434.08 357.44L435.48 358.85L436.81 360.33L438.08 361.86L439.28 363.41L440.42 365.03L441.49 366.68L442.5 368.38L443.44 370.1L444.31 371.86L445.1 373.65L445.82 375.49L446.47 377.34L447.06 379.21L447.56 381.12L447.99 383.03L448.34 384.98L448.62 386.94L448.82 388.9L448.93 390.89L448.97 392.88L448.93 394.87L448.8 396.88L448.6 398.89L448.31 400.9L447.93 402.9L447.47 404.89L446.92 406.9L446.28 408.88L445.55 410.85L445.54 410.9L445.5 410.98L445.5 411.02L445.47 411.1L445.43 411.24L445.41 411.27L445.4 411.32L445.4 411.37L445.36 411.44L445.35 411.49L445.32 411.57L445.27 411.71L445.26 411.74L445.26 411.79L445.24 411.83L445.21 411.91L445.19 411.96L445.16 412.04L445.13 412.13L445.12 412.16L445.07 412.3L445.04 412.38L445.02 412.42L445.02 412.46L444.31 414.34L443.51 416.17L442.67 417.95L441.74 419.68L440.76 421.36L439.7 422.97L438.6 424.55L437.43 426.07L436.2 427.52L434.91 428.92L433.59 430.27L432.2 431.55L430.77 432.78L429.29 433.93L427.77 435.03L426.21 436.08L424.61 437.04L422.97 437.94L421.29 438.78L419.58 439.56L417.86 440.26L416.1 440.88L414.31 441.44L412.49 441.94L410.67 442.35L408.82 442.69L406.93 442.95L405.05 443.15L403.17 443.26L401.25 443.29L399.34 443.25L397.43 443.12L395.5 442.92L393.57 442.63L391.65 442.25L389.74 441.8L387.81 441.26L385.91 440.62L384 439.76L382.13 438.83L380.33 437.82L378.57 436.74L376.87 435.61L375.24 434.43L373.65 433.17L372.14 431.84L370.68 430.47L369.3 429.06L367.96 427.58L366.68 426.07L365.48 424.5L364.35 422.88L363.27 421.23L362.26 419.54L361.33 417.81L360.46 416.05L359.66 414.26L358.95 412.42L358.3 410.57L357.72 408.71L357.21 406.79L356.79 404.88L356.43 402.93L356.15 400.97L355.96 399.01L355.84 397.02L355.79 395.03L355.84 393.04L355.96 391.03L356.18 389.02L356.46 387.02L356.85 385.01L357.3 383.02L357.86 381.03L358.5 379.03L359.21 377.06L359.23 377.01L359.26 376.93L359.28 376.89L359.29 376.81L359.32 376.72L359.34 376.69L359.38 376.55L359.4 376.47L359.42 376.42L359.45 376.34L359.46 376.3L359.49 376.22L359.54 376.08L359.56 376L359.57 375.95L359.6 375.88L359.63 375.78L359.65 375.75L359.68 375.66L359.7 375.63L359.74 375.49L359.76 375.46L360.46 373.57L361.25 371.74L362.11 369.96L363.03 368.24L364.01 366.56L365.06 364.94L366.17 363.37L367.35 361.86L368.56 360.39L369.86 358.99L371.18 357.64L372.56 356.36L373.99 355.14L375.47 353.98L377 352.88L378.57 351.85L380.16 350.87L381.81 349.97L383.47 349.13L385.18 348.37L386.91 347.65L388.68 347.03L390.46 346.47L392.28 345.97L394.11 345.57L395.96 345.22L397.83 344.96L399.71 344.76L401.61 344.65L403.51 344.62L405.42 344.66L407.34 344.79ZM399.32 377.31L397.43 377.87L395.62 378.68L393.93 379.7L392.39 380.95L390.99 382.38L389.79 384L388.79 385.8L388.03 387.76L387.38 389.85L387 391.96L386.91 394.08L387.08 396.17L387.52 398.2L388.2 400.15L389.12 402.02L390.25 403.74L391.62 405.33L393.19 406.73L394.97 407.96L396.93 408.94L397.07 408.99L397.1 409L397.33 409.08L397.36 409.1L397.46 409.13L399.51 409.62L401.55 409.83L403.57 409.76L405.55 409.44L407.45 408.88L409.25 408.07L410.95 407.04L412.49 405.81L413.89 404.37L415.09 402.75L416.08 400.94L416.84 398.98L417.5 396.9L417.87 394.78L417.96 392.66L417.79 390.58L417.36 388.56L416.67 386.6L415.76 384.74L414.62 383L413.25 381.43L411.68 380.01L409.91 378.8L407.94 377.81L407.85 377.77L407.82 377.76L407.54 377.67L407.51 377.65L407.42 377.62L405.36 377.14L403.32 376.92L401.3 376.98L399.32 377.31Z" id="g3gnfiguwQ"></path><path d="M113.02 487.87C143.05 520.02 179.02 546.03 218.96 564.45C356.35 622.6 514.87 558.34 573 420.94C574.49 417.44 575.89 413.89 577.23 410.32C612.08 315.48 592.56 209.16 526.27 132.89C459.29 58.12 356.75 26.04 259.1 49.3C165.62 73.64 91.47 144.74 63.23 237.12C59.28 248.85 56.37 260.89 54.55 273.14" id="a36orzpJrj"></path><path d="M113.02 487.87C143.05 520.02 179.02 546.03 218.96 564.45C356.35 622.6 514.87 558.34 573 420.94C574.49 417.44 575.89 413.89 577.23 410.32C612.08 315.48 592.56 209.16 526.27 132.89C459.29 58.12 356.75 26.04 259.1 49.3C165.62 73.64 91.47 144.74 63.23 237.12C59.28 248.85 56.37 260.89 54.55 273.14" id="b8Ym0sET8"></path><path d="M128.06 549.55C127.15 545.61 122.6 525.87 114.4 490.33C150.05 497.97 169.87 502.2 173.82 503.04C175.88 503.91 178.24 502.95 179.1 500.89C179.97 498.86 179.01 496.49 176.95 495.64C176.5 495.43 176.02 495.32 175.52 495.31C168.97 493.92 116.5 482.74 109.95 481.34C107.81 480.99 105.8 482.44 105.46 484.59C105.36 485.2 105.41 485.83 105.61 486.41C107.11 492.96 119.15 545.24 120.64 551.77C121.17 553.89 123.29 555.21 125.42 554.75C125.36 554.67 125.15 554.4 125.09 554.33C127.21 553.8 128.53 551.68 128.06 549.55Z" id="f1L29g4wy"></path><path d="M128.06 549.55C127.15 545.61 122.6 525.87 114.4 490.33C150.05 497.97 169.87 502.2 173.82 503.04C175.88 503.91 178.24 502.95 179.1 500.89C179.97 498.86 179.01 496.49 176.95 495.64C176.5 495.43 176.02 495.32 175.52 495.31C168.97 493.92 116.5 482.74 109.95 481.34C107.81 480.99 105.8 482.44 105.46 484.59C105.36 485.2 105.41 485.83 105.61 486.41C107.11 492.96 119.15 545.24 120.64 551.77C121.17 553.89 123.29 555.21 125.42 554.75C125.36 554.67 125.15 554.4 125.09 554.33C127.21 553.8 128.53 551.68 128.06 549.55Z" id="a3aR27RMlw"></path></defs><g><g><g><use xlink:href="#aPFbabp8e" opacity="1" fill="#ecc01b" fill-opacity="1"></use><g><use xlink:href="#aPFbabp8e" opacity="1" fill-opacity="0" stroke="#000000" stroke-width="1" stroke-opacity="0"></use></g></g><g><use xlink:href="#a36ldCYGT6" opacity="1" fill="#000000" fill-opacity="0"></use><g><use xlink:href="#a36ldCYGT6" opacity="1" fill-opacity="0" stroke="#000000" stroke-width="1" stroke-opacity="0"></use></g></g><g><use xlink:href="#c2l1go9UgA" opacity="1" fill="#ffffff" fill-opacity="1"></use><g><use xlink:href="#c2l1go9UgA" opacity="1" fill-opacity="0" stroke="#000000" stroke-width="1" stroke-opacity="0"></use></g></g><g><use xlink:href="#c2XxLoDNWx" opacity="1" fill="#000000" fill-opacity="0"></use><g><use xlink:href="#c2XxLoDNWx" opacity="1" fill-opacity="0" stroke="#000000" stroke-width="1" stroke-opacity="0"></use></g></g><g><use xlink:href="#aYhNytmwc" opacity="1" fill="#ffffff" fill-opacity="1"></use><g><use xlink:href="#aYhNytmwc" opacity="1" fill-opacity="0" stroke="#000000" stroke-width="1" stroke-opacity="0"></use></g></g><g><use xlink:href="#a1rkZ9Gcgr" opacity="1" fill="#000000" fill-opacity="0"></use><g><use xlink:href="#a1rkZ9Gcgr" opacity="1" fill-opacity="0" stroke="#000000" stroke-width="1" stroke-opacity="0"></use></g></g><g><use xlink:href="#b1dTbd2Y0E" opacity="1" fill="#ffffff" fill-opacity="1"></use><g><use xlink:href="#b1dTbd2Y0E" opacity="1" fill-opacity="0" stroke="#000000" stroke-width="1" stroke-opacity="0"></use></g></g><g><use xlink:href="#a16t65kkIW" opacity="1" fill="#000000" fill-opacity="0"></use><g><use xlink:href="#a16t65kkIW" opacity="1" fill-opacity="0" stroke="#000000" stroke-width="1" stroke-opacity="0"></use></g></g><g><use xlink:href="#d1oroZbQHP" opacity="1" fill="#ffffff" fill-opacity="1"></use><g><use xlink:href="#d1oroZbQHP" opacity="1" fill-opacity="0" stroke="#000000" stroke-width="1" stroke-opacity="0"></use></g></g><g><use xlink:href="#d1dauvpmx" opacity="1" fill="#000000" fill-opacity="0"></use><g><use xlink:href="#d1dauvpmx" opacity="1" fill-opacity="0" stroke="#000000" stroke-width="1" stroke-opacity="0"></use></g></g><g><use xlink:href="#c170HXf6Kg" opacity="1" fill="#ffffff" fill-opacity="1"></use><g><use xlink:href="#c170HXf6Kg" opacity="1" fill-opacity="0" stroke="#000000" stroke-width="1" stroke-opacity="0"></use></g></g><g><use xlink:href="#aiSD2gfix" opacity="1" fill="#000000" fill-opacity="0"></use><g><use xlink:href="#aiSD2gfix" opacity="1" fill-opacity="0" stroke="#000000" stroke-width="1" stroke-opacity="0"></use></g></g><g><use xlink:href="#c96ufmAsr" opacity="1" fill="#ffffff" fill-opacity="1"></use><g><use xlink:href="#c96ufmAsr" opacity="1" fill-opacity="0" stroke="#000000" stroke-width="1" stroke-opacity="0"></use></g></g><g><use xlink:href="#g3gnfiguwQ" opacity="1" fill="#000000" fill-opacity="0"></use><g><use xlink:href="#g3gnfiguwQ" opacity="1" fill-opacity="0" stroke="#000000" stroke-width="1" stroke-opacity="0"></use></g></g><g><use xlink:href="#a36orzpJrj" opacity="1" fill="#000000" fill-opacity="0"></use><g><use xlink:href="#a36orzpJrj" opacity="1" fill-opacity="0" stroke="#000000" stroke-width="1" stroke-opacity="0"></use></g></g><g><use xlink:href="#b8Ym0sET8" opacity="1" fill="#000000" fill-opacity="0"></use><g><use xlink:href="#b8Ym0sET8" opacity="1" fill-opacity="0" stroke="#ffffff" stroke-width="5" stroke-opacity="1"></use></g></g><g><use xlink:href="#f1L29g4wy" opacity="1" fill="#ffffff" fill-opacity="1"></use><g><use xlink:href="#f1L29g4wy" opacity="1" fill-opacity="0" stroke="#000000" stroke-width="1" stroke-opacity="0"></use></g></g><g><use xlink:href="#a3aR27RMlw" opacity="1" fill="#000000" fill-opacity="0"></use><g><use xlink:href="#a3aR27RMlw" opacity="1" fill-opacity="0" stroke="#000000" stroke-width="6" stroke-opacity="0"></use></g></g></g></g></svg>