<?xml version="1.0" encoding="UTF-8" standalone="no"?>
<!DOCTYPE svg PUBLIC "-//W3C//DTD SVG 1.1//EN" "http://www.w3.org/Graphics/SVG/1.1/DTD/svg11.dtd">
<svg version="1.1" xmlns="http://www.w3.org/2000/svg" xmlns:xlink="http://www.w3.org/1999/xlink" preserveAspectRatio="xMidYMid meet" viewBox="0 0 640 640" width="640" height="640"><defs><path d="M389.75 325.62L391.63 325.81L393.5 326.1L395.36 326.46L397.24 326.9L399.1 327.43L400.94 328.05L402.81 328.88L404.61 329.81L406.38 330.77L408.08 331.82L409.72 332.92L411.31 334.08L412.85 335.29L414.32 336.58L415.74 337.91L417.1 339.29L418.39 340.72L419.63 342.2L420.79 343.72L421.9 345.29L422.94 346.89L423.92 348.54L424.83 350.22L425.67 351.92L426.45 353.66L427.14 355.45L427.78 357.25L428.35 359.06L428.83 360.92L429.26 362.78L429.59 364.67L429.86 366.58L430.06 368.48L430.17 370.42L430.21 372.35L430.17 374.29L430.04 376.24L429.85 378.19L429.56 380.14L429.2 382.09L428.74 384.02L428.21 385.97L427.59 387.89L426.88 389.81L426.87 389.86L426.84 389.93L426.84 389.98L426.81 390.05L426.76 390.19L426.75 390.22L426.73 390.27L426.73 390.31L426.7 390.39L426.69 390.43L426.66 390.51L426.61 390.64L426.6 390.67L426.6 390.72L426.58 390.77L426.55 390.84L426.54 390.89L426.51 390.96L426.48 391.05L426.46 391.08L426.42 391.22L426.39 391.29L426.37 391.34L426.37 391.37L425.67 393.2L424.9 394.98L424.09 396.71L423.18 398.39L422.23 400.02L421.2 401.59L420.13 403.12L418.99 404.6L417.8 406.01L416.54 407.37L415.26 408.68L413.91 409.92L412.52 411.12L411.09 412.23L409.6 413.31L408.09 414.32L406.53 415.26L404.95 416.13L403.31 416.95L401.65 417.71L399.97 418.39L398.26 418.99L396.53 419.54L394.76 420.02L392.99 420.41L391.19 420.75L389.36 421L387.53 421.2L385.7 421.31L383.84 421.34L381.98 421.29L380.12 421.17L378.25 420.97L376.37 420.69L374.51 420.32L372.65 419.88L370.78 419.36L368.93 418.74L367.07 417.9L365.26 417L363.51 416.01L361.8 414.97L360.15 413.87L358.56 412.72L357.02 411.49L355.55 410.21L354.13 408.88L352.79 407.5L351.49 406.07L350.25 404.6L349.08 403.07L347.98 401.5L346.94 399.9L345.95 398.25L345.05 396.57L344.2 394.86L343.43 393.12L342.73 391.34L342.1 389.54L341.54 387.73L341.04 385.87L340.63 384.01L340.28 382.12L340.01 380.21L339.83 378.31L339.71 376.37L339.66 374.44L339.71 372.5L339.83 370.55L340.04 368.6L340.31 366.65L340.69 364.7L341.13 362.77L341.67 360.83L342.29 358.89L342.99 356.97L343 356.93L343.03 356.85L343.05 356.81L343.06 356.73L343.1 356.64L343.11 356.61L343.16 356.48L343.17 356.4L343.19 356.35L343.22 356.28L343.23 356.23L343.26 356.16L343.31 356.02L343.32 355.95L343.34 355.9L343.37 355.83L343.4 355.73L343.41 355.7L343.44 355.61L343.46 355.58L343.5 355.45L343.52 355.42L344.2 353.59L344.97 351.8L345.8 350.08L346.69 348.4L347.65 346.77L348.67 345.2L349.75 343.67L350.9 342.2L352.08 340.78L353.33 339.42L354.62 338.11L355.96 336.87L357.35 335.67L358.79 334.55L360.27 333.48L361.8 332.48L363.34 331.53L364.94 330.65L366.56 329.84L368.22 329.1L369.9 328.4L371.62 327.79L373.35 327.25L375.12 326.77L376.9 326.37L378.7 326.04L380.51 325.78L382.34 325.59L384.19 325.48L386.03 325.45L387.89 325.5L389.75 325.62ZM381.97 357.22L380.12 357.76L378.37 358.55L376.72 359.54L375.22 360.75L373.86 362.15L372.7 363.72L371.73 365.47L370.99 367.38L370.35 369.4L369.99 371.46L369.9 373.51L370.07 375.54L370.49 377.52L371.16 379.41L372.05 381.23L373.15 382.9L374.48 384.45L376.01 385.81L377.73 387L379.64 387.95L379.77 388L379.8 388.01L380.03 388.09L380.06 388.1L380.15 388.13L382.15 388.62L384.13 388.81L386.09 388.75L388.01 388.44L389.86 387.89L391.61 387.11L393.26 386.11L394.76 384.91L396.12 383.51L397.28 381.94L398.25 380.18L398.99 378.28L399.62 376.25L399.99 374.19L400.08 372.14L399.91 370.11L399.49 368.15L398.82 366.24L397.93 364.44L396.83 362.75L395.5 361.22L393.97 359.85L392.25 358.67L390.34 357.7L390.25 357.67L390.22 357.65L389.95 357.56L389.92 357.55L389.83 357.52L387.83 357.05L385.85 356.84L383.89 356.9L381.97 357.22Z" id="h1mZHrhiQO"></path><path d="M389.75 325.62L391.63 325.81L393.5 326.1L395.36 326.46L397.24 326.9L399.1 327.43L400.94 328.05L402.81 328.88L404.61 329.81L406.38 330.77L408.08 331.82L409.72 332.92L411.31 334.08L412.85 335.29L414.32 336.58L415.74 337.91L417.1 339.29L418.39 340.72L419.63 342.2L420.79 343.72L421.9 345.29L422.94 346.89L423.92 348.54L424.83 350.22L425.67 351.92L426.45 353.66L427.14 355.45L427.78 357.25L428.35 359.06L428.83 360.92L429.26 362.78L429.59 364.67L429.86 366.58L430.06 368.48L430.17 370.42L430.21 372.35L430.17 374.29L430.04 376.24L429.85 378.19L429.56 380.14L429.2 382.09L428.74 384.02L428.21 385.97L427.59 387.89L426.88 389.81L426.87 389.86L426.84 389.93L426.84 389.98L426.81 390.05L426.76 390.19L426.75 390.22L426.73 390.27L426.73 390.31L426.7 390.39L426.69 390.43L426.66 390.51L426.61 390.64L426.6 390.67L426.6 390.72L426.58 390.77L426.55 390.84L426.54 390.89L426.51 390.96L426.48 391.05L426.46 391.08L426.42 391.22L426.39 391.29L426.37 391.34L426.37 391.37L425.67 393.2L424.9 394.98L424.09 396.71L423.18 398.39L422.23 400.02L421.2 401.59L420.13 403.12L418.99 404.6L417.8 406.01L416.54 407.37L415.26 408.68L413.91 409.92L412.52 411.12L411.09 412.23L409.6 413.31L408.09 414.32L406.53 415.26L404.95 416.13L403.31 416.95L401.65 417.71L399.97 418.39L398.26 418.99L396.53 419.54L394.76 420.02L392.99 420.41L391.19 420.75L389.36 421L387.53 421.2L385.7 421.31L383.84 421.34L381.98 421.29L380.12 421.17L378.25 420.97L376.37 420.69L374.51 420.32L372.65 419.88L370.78 419.36L368.93 418.74L367.07 417.9L365.26 417L363.51 416.01L361.8 414.97L360.15 413.87L358.56 412.72L357.02 411.49L355.55 410.21L354.13 408.88L352.79 407.5L351.49 406.07L350.25 404.6L349.08 403.07L347.98 401.5L346.94 399.9L345.95 398.25L345.05 396.57L344.2 394.86L343.43 393.12L342.73 391.34L342.1 389.54L341.54 387.73L341.04 385.87L340.63 384.01L340.28 382.12L340.01 380.21L339.83 378.31L339.71 376.37L339.66 374.44L339.71 372.5L339.83 370.55L340.04 368.6L340.31 366.65L340.69 364.7L341.13 362.77L341.67 360.83L342.29 358.89L342.99 356.97L343 356.93L343.03 356.85L343.05 356.81L343.06 356.73L343.1 356.64L343.11 356.61L343.16 356.48L343.17 356.4L343.19 356.35L343.22 356.28L343.23 356.23L343.26 356.16L343.31 356.02L343.32 355.95L343.34 355.9L343.37 355.83L343.4 355.73L343.41 355.7L343.44 355.61L343.46 355.58L343.5 355.45L343.52 355.42L344.2 353.59L344.97 351.8L345.8 350.08L346.69 348.4L347.65 346.77L348.67 345.2L349.75 343.67L350.9 342.2L352.08 340.78L353.33 339.42L354.62 338.11L355.96 336.87L357.35 335.67L358.79 334.55L360.27 333.48L361.8 332.48L363.34 331.53L364.94 330.65L366.56 329.84L368.22 329.1L369.9 328.4L371.62 327.79L373.35 327.25L375.12 326.77L376.9 326.37L378.7 326.04L380.51 325.78L382.34 325.59L384.19 325.48L386.03 325.45L387.89 325.5L389.75 325.62ZM381.97 357.22L380.12 357.76L378.37 358.55L376.72 359.54L375.22 360.75L373.86 362.15L372.7 363.72L371.73 365.47L370.99 367.38L370.35 369.4L369.99 371.46L369.9 373.51L370.07 375.54L370.49 377.52L371.16 379.41L372.05 381.23L373.15 382.9L374.48 384.45L376.01 385.81L377.73 387L379.64 387.95L379.77 388L379.8 388.01L380.03 388.09L380.06 388.1L380.15 388.13L382.15 388.62L384.13 388.81L386.09 388.75L388.01 388.44L389.86 387.89L391.61 387.11L393.26 386.11L394.76 384.91L396.12 383.51L397.28 381.94L398.25 380.18L398.99 378.28L399.62 376.25L399.99 374.19L400.08 372.14L399.91 370.11L399.49 368.15L398.82 366.24L397.93 364.44L396.83 362.75L395.5 361.22L393.97 359.85L392.25 358.67L390.34 357.7L390.25 357.67L390.22 357.65L389.95 357.56L389.92 357.55L389.83 357.52L387.83 357.05L385.85 356.84L383.89 356.9L381.97 357.22Z" id="b6Mbtih3L"></path><path d="M118.38 524.58C117.49 520.76 113.08 501.57 105.11 467.04C139.75 474.46 159.01 478.58 162.85 479.39C164.84 480.24 167.14 479.3 167.97 477.31C168.82 475.33 167.88 473.03 165.89 472.2C165.45 472 164.98 471.89 164.5 471.88C158.13 470.53 107.15 459.66 100.78 458.3C98.7 457.97 96.75 459.37 96.41 461.46C96.32 462.05 96.37 462.67 96.57 463.23C98.02 469.6 109.72 520.39 111.17 526.74C111.69 528.8 113.74 530.09 115.81 529.63C115.75 529.56 115.56 529.3 115.5 529.22C117.55 528.71 118.84 526.65 118.38 524.58Z" id="d7JDVmeV"></path><path d="M118.38 524.58C117.49 520.76 113.08 501.57 105.11 467.04C139.75 474.46 159.01 478.58 162.85 479.39C164.84 480.24 167.14 479.3 167.97 477.31C168.82 475.33 167.88 473.03 165.89 472.2C165.45 472 164.98 471.89 164.5 471.88C158.13 470.53 107.15 459.66 100.78 458.3C98.7 457.97 96.75 459.37 96.41 461.46C96.32 462.05 96.37 462.67 96.57 463.23C98.02 469.6 109.72 520.39 111.17 526.74C111.69 528.8 113.74 530.09 115.81 529.63C115.75 529.56 115.56 529.3 115.5 529.22C117.55 528.71 118.84 526.65 118.38 524.58Z" id="a2LmnAAm14"></path><path d="M218.85 455.08L274.95 455.08C274.95 431.86 274.95 418.96 274.95 416.38C324.36 416.38 351.8 416.38 357.31 416.38C357.31 418.63 357.31 420.9 357.31 423.17C357.31 435.93 357.31 446.06 357.31 448.6C357.31 453.54 357.31 453.54 362.24 453.63C365.27 453.63 380.48 453.63 407.85 453.63C408.09 453.63 409.29 453.63 411.45 453.63L411.45 476.69L218.85 476.79L218.85 455.08Z" id="h1UboANQSw"></path><path d="M218.85 455.08L274.95 455.08C274.95 431.86 274.95 418.96 274.95 416.38C324.36 416.38 351.8 416.38 357.31 416.38C357.31 418.63 357.31 420.9 357.31 423.17C357.31 435.93 357.31 446.06 357.31 448.6C357.31 453.54 357.31 453.54 362.24 453.63C365.27 453.63 380.48 453.63 407.85 453.63C408.09 453.63 409.29 453.63 411.45 453.63L411.45 476.69L218.85 476.79L218.85 455.08Z" id="bgO0ihAr9"></path><path d="M166.25 330.83C166.25 332 166.25 337.83 166.25 348.33C176.78 348.36 261.02 348.61 271.55 348.64C271.55 338.14 271.55 332.3 271.55 331.14C271.61 321.49 263.9 313.6 254.26 313.43C240.2 313.43 190.98 313.43 183.95 313.43C174.28 313.37 166.36 321.14 166.25 330.83Z" id="jU1xxyAPe"></path><path d="M166.25 330.83C166.25 332 166.25 337.83 166.25 348.33C176.78 348.36 261.02 348.61 271.55 348.64C271.55 338.14 271.55 332.3 271.55 331.14C271.61 321.49 263.9 313.6 254.26 313.43C240.2 313.43 190.98 313.43 183.95 313.43C174.28 313.37 166.36 321.14 166.25 330.83Z" id="bmPiGF0E1"></path><path d="M347.21 330.83C347.21 332 347.21 337.83 347.21 348.33C357.74 348.36 441.98 348.61 452.51 348.64C452.51 338.14 452.51 332.3 452.51 331.14C452.57 321.49 444.86 313.6 435.23 313.43C421.17 313.43 371.94 313.43 364.91 313.43C355.24 313.37 347.33 321.14 347.21 330.83Z" id="c7INDvq3l"></path><path d="M347.21 330.83C347.21 332 347.21 337.83 347.21 348.33C357.74 348.36 441.98 348.61 452.51 348.64C452.51 338.14 452.51 332.3 452.51 331.14C452.57 321.49 444.86 313.6 435.23 313.43C421.17 313.43 371.94 313.43 364.91 313.43C355.24 313.37 347.33 321.14 347.21 330.83Z" id="db9ikU76n"></path><path d="M403.96 206.15L405.91 206.36L407.82 206.66L409.71 207.04L411.57 207.51L413.4 208.04L415.18 208.64L416.94 209.32L418.66 210.08L420.34 210.9L421.99 211.79L423.59 212.74L425.15 213.77L426.64 214.84L428.11 215.99L429.51 217.18L430.88 218.44L432.19 219.76L433.45 221.12L434.64 222.52L435.77 223.99L436.85 225.5L437.86 227.06L438.81 228.66L439.71 230.31L440.52 231.99L441.28 233.71L441.94 235.46L442.55 237.26L443.08 239.09L443.53 240.95L443.91 242.84L444.21 244.75L444.42 246.7L444.54 248.66L444.59 250.64L444.54 252.64L444.41 254.6L444.2 256.54L443.89 258.46L443.52 260.35L443.05 262.22L442.52 264.05L441.91 265.84L441.22 267.61L440.48 269.33L439.64 271.01L438.75 272.66L437.8 274.26L436.77 275.82L435.7 277.33L434.55 278.79L433.36 280.22L432.09 281.58L430.77 282.89L429.41 284.15L427.99 285.34L426.52 286.47L425.01 287.56L423.45 288.58L421.85 289.53L420.2 290.42L418.51 291.24L416.78 291.99L415.02 292.67L413.22 293.28L411.39 293.81L409.53 294.26L407.64 294.64L405.72 294.93L403.77 295.14L401.8 295.27L399.81 295.32L397.83 295.27L395.86 295.14L393.91 294.91L391.99 294.62L390.1 294.23L388.24 293.78L386.43 293.25L384.63 292.63L382.87 291.95L381.15 291.19L379.46 290.38L377.82 289.48L376.22 288.52L374.66 287.5L373.15 286.41L371.69 285.27L370.28 284.07L368.92 282.82L367.6 281.5L366.35 280.13L365.15 278.7L364.02 277.24L362.95 275.73L361.93 274.17L360.98 272.57L360.09 270.92L359.27 269.22L358.53 267.5L357.85 265.75L357.26 263.95L356.73 262.12L356.28 260.24L355.9 258.35L355.61 256.45L355.4 254.5L355.28 252.53L355.24 250.54L355.3 248.56L355.42 246.58L355.64 244.64L355.95 242.72L356.32 240.83L356.78 238.97L357.32 237.14L357.93 235.36L358.61 233.59L359.36 231.87L360.19 230.19L361.09 228.54L362.04 226.94L363.05 225.38L364.14 223.88L365.29 222.42L366.48 220.99L367.75 219.63L369.07 218.33L370.43 217.08L371.85 215.88L373.32 214.75L374.83 213.68L376.39 212.65L377.99 211.71L379.64 210.82L381.33 210L383.05 209.26L384.82 208.58L386.62 207.98L388.45 207.45L390.31 207.01L392.2 206.63L394.12 206.34L396.06 206.13L398.02 206.01L400.02 205.97L402 206.01L403.96 206.15ZM395.81 211.74L393.86 212L391.93 212.35L390.04 212.79L388.18 213.31L386.37 213.93L384.6 214.65L382.86 215.43L381.18 216.29L379.55 217.25L377.96 218.26L376.43 219.36L374.95 220.53L373.54 221.75L372.18 223.05L370.9 224.41L369.66 225.83L368.51 227.31L367.42 228.86L366.41 230.44L365.47 232.09L364.61 233.77L363.84 235.51L363.14 237.29L362.52 239.11L362.01 240.97L361.57 242.86L361.24 244.79L361 246.74L360.84 248.74L360.8 250.75L360.86 252.76L361.01 254.74L361.27 256.71L361.62 258.63L362.05 260.52L362.58 262.38L363.2 264.19L363.91 265.96L364.7 267.7L365.58 269.38L366.51 271.01L367.54 272.6L368.63 274.12L369.8 275.6L371.03 277.03L372.34 278.37L373.7 279.67L375.12 280.9L376.6 282.05L378.13 283.13L379.73 284.15L381.36 285.08L383.05 285.95L384.78 286.72L386.56 287.43L388.38 288.03L390.24 288.55L392.14 288.98L394.06 289.32L396.01 289.56L398.01 289.71L400.02 289.76L402.03 289.7L404.01 289.54L405.96 289.29L407.88 288.94L409.77 288.5L411.63 287.97L413.44 287.35L415.21 286.66L416.94 285.87L418.63 285.01L420.26 284.06L421.83 283.04L423.36 281.95L424.84 280.79L426.26 279.57L427.61 278.27L428.91 276.9L430.13 275.48L431.28 274.02L432.37 272.47L433.39 270.89L434.32 269.25L435.18 267.58L435.97 265.84L436.67 264.07L437.29 262.25L437.8 260.39L438.24 258.5L438.59 256.58L438.83 254.63L438.98 252.65L439.02 250.64L438.98 248.63L438.81 246.64L438.57 244.69L438.22 242.75L437.77 240.86L437.24 239L436.62 237.19L435.93 235.4L435.14 233.68L434.26 231.99L433.32 230.35L432.3 228.77L431.21 227.22L430.04 225.76L428.8 224.34L427.5 222.98L426.14 221.68L424.72 220.45L423.24 219.29L421.71 218.2L420.13 217.18L418.48 216.25L416.78 215.39L415.06 214.6L413.28 213.9L411.46 213.28L409.6 212.76L407.7 212.32L405.78 211.97L403.81 211.73L401.83 211.58L399.81 211.53L397.8 211.58L395.81 211.74Z" id="d37r0SROQQ"></path><path d="M403.96 206.15L405.91 206.36L407.82 206.66L409.71 207.04L411.57 207.51L413.4 208.04L415.18 208.64L416.94 209.32L418.66 210.08L420.34 210.9L421.99 211.79L423.59 212.74L425.15 213.77L426.64 214.84L428.11 215.99L429.51 217.18L430.88 218.44L432.19 219.76L433.45 221.12L434.64 222.52L435.77 223.99L436.85 225.5L437.86 227.06L438.81 228.66L439.71 230.31L440.52 231.99L441.28 233.71L441.94 235.46L442.55 237.26L443.08 239.09L443.53 240.95L443.91 242.84L444.21 244.75L444.42 246.7L444.54 248.66L444.59 250.64L444.54 252.64L444.41 254.6L444.2 256.54L443.89 258.46L443.52 260.35L443.05 262.22L442.52 264.05L441.91 265.84L441.22 267.61L440.48 269.33L439.64 271.01L438.75 272.66L437.8 274.26L436.77 275.82L435.7 277.33L434.55 278.79L433.36 280.22L432.09 281.58L430.77 282.89L429.41 284.15L427.99 285.34L426.52 286.47L425.01 287.56L423.45 288.58L421.85 289.53L420.2 290.42L418.51 291.24L416.78 291.99L415.02 292.67L413.22 293.28L411.39 293.81L409.53 294.26L407.64 294.64L405.72 294.93L403.77 295.14L401.8 295.27L399.81 295.32L397.83 295.27L395.86 295.14L393.91 294.91L391.99 294.62L390.1 294.23L388.24 293.78L386.43 293.25L384.63 292.63L382.87 291.95L381.15 291.19L379.46 290.38L377.82 289.48L376.22 288.52L374.66 287.5L373.15 286.41L371.69 285.27L370.28 284.07L368.92 282.82L367.6 281.5L366.35 280.13L365.15 278.7L364.02 277.24L362.95 275.73L361.93 274.17L360.98 272.57L360.09 270.92L359.27 269.22L358.53 267.5L357.85 265.75L357.26 263.95L356.73 262.12L356.28 260.24L355.9 258.35L355.61 256.45L355.4 254.5L355.28 252.53L355.24 250.54L355.3 248.56L355.42 246.58L355.64 244.64L355.95 242.72L356.32 240.83L356.78 238.97L357.32 237.14L357.93 235.36L358.61 233.59L359.36 231.87L360.19 230.19L361.09 228.54L362.04 226.94L363.05 225.38L364.14 223.88L365.29 222.42L366.48 220.99L367.75 219.63L369.07 218.33L370.43 217.08L371.85 215.88L373.32 214.75L374.83 213.68L376.39 212.65L377.99 211.71L379.64 210.82L381.33 210L383.05 209.26L384.82 208.58L386.62 207.98L388.45 207.45L390.31 207.01L392.2 206.63L394.12 206.34L396.06 206.13L398.02 206.01L400.02 205.97L402 206.01L403.96 206.15ZM395.81 211.74L393.86 212L391.93 212.35L390.04 212.79L388.18 213.31L386.37 213.93L384.6 214.65L382.86 215.43L381.18 216.29L379.55 217.25L377.96 218.26L376.43 219.36L374.95 220.53L373.54 221.75L372.18 223.05L370.9 224.41L369.66 225.83L368.51 227.31L367.42 228.86L366.41 230.44L365.47 232.09L364.61 233.77L363.84 235.51L363.14 237.29L362.52 239.11L362.01 240.97L361.57 242.86L361.24 244.79L361 246.74L360.84 248.74L360.8 250.75L360.86 252.76L361.01 254.74L361.27 256.71L361.62 258.63L362.05 260.52L362.58 262.38L363.2 264.19L363.91 265.96L364.7 267.7L365.58 269.38L366.51 271.01L367.54 272.6L368.63 274.12L369.8 275.6L371.03 277.03L372.34 278.37L373.7 279.67L375.12 280.9L376.6 282.05L378.13 283.13L379.73 284.15L381.36 285.08L383.05 285.95L384.78 286.72L386.56 287.43L388.38 288.03L390.24 288.55L392.14 288.98L394.06 289.32L396.01 289.56L398.01 289.71L400.02 289.76L402.03 289.7L404.01 289.54L405.96 289.29L407.88 288.94L409.77 288.5L411.63 287.97L413.44 287.35L415.21 286.66L416.94 285.87L418.63 285.01L420.26 284.06L421.83 283.04L423.36 281.95L424.84 280.79L426.26 279.57L427.61 278.27L428.91 276.9L430.13 275.48L431.28 274.02L432.37 272.47L433.39 270.89L434.32 269.25L435.18 267.58L435.97 265.84L436.67 264.07L437.29 262.25L437.8 260.39L438.24 258.5L438.59 256.58L438.83 254.63L438.98 252.65L439.02 250.64L438.98 248.63L438.81 246.64L438.57 244.69L438.22 242.75L437.77 240.86L437.24 239L436.62 237.19L435.93 235.4L435.14 233.68L434.26 231.99L433.32 230.35L432.3 228.77L431.21 227.22L430.04 225.76L428.8 224.34L427.5 222.98L426.14 221.68L424.72 220.45L423.24 219.29L421.71 218.2L420.13 217.18L418.48 216.25L416.78 215.39L415.06 214.6L413.28 213.9L411.46 213.28L409.6 212.76L407.7 212.32L405.78 211.97L403.81 211.73L401.83 211.58L399.81 211.53L397.8 211.58L395.81 211.74Z" id="gOkNPFz67"></path><path d="M8.06 320.48C8.06 493.38 148.23 633.54 321.14 633.54C494.04 633.54 634.21 493.38 634.21 320.48C634.21 147.58 494.04 7.41 321.14 7.41C148.23 7.41 8.06 147.58 8.06 320.48Z" id="cLegL1gBz"></path><path d="M8.06 320.48C8.06 493.38 148.23 633.54 321.14 633.54C494.04 633.54 634.21 493.38 634.21 320.48C634.21 147.58 494.04 7.41 321.14 7.41C148.23 7.41 8.06 147.58 8.06 320.48Z" id="a2gOKuFhkA"></path><path d="M205.98 245.73L206.62 245.99L207.24 246.23L207.87 246.5L208.49 246.76L209.73 247.3L210.35 247.59L210.96 247.88L211.58 248.18L212.18 248.47L212.79 248.78L213.39 249.09L213.98 249.4L214.58 249.72L216.35 250.72L216.94 251.07L218.09 251.76L219.82 252.85L221.49 253.98L222.05 254.38L223.14 255.16L224.77 256.39L225.83 257.24L226.36 257.67L226.88 258.1L227.39 258.54L227.92 258.99L256.21 249.93L276.39 283.01L252.67 303.83L252.73 304.12L252.77 304.41L252.82 304.71L252.91 305.28L252.96 305.59L252.99 305.87L253.03 306.16L253.08 306.46L253.11 306.75L253.15 307.04L253.18 307.34L253.21 307.63L253.24 307.93L253.29 308.22L253.32 308.5L253.35 308.81L253.38 309.09L253.39 309.4L253.42 309.68L253.46 309.98L253.47 310.27L253.5 310.57L253.52 310.86L253.55 311.15L253.56 311.45L253.58 311.74L253.59 312.04L253.62 312.33L253.64 312.63L253.64 312.93L253.65 313.22L253.67 313.52L253.68 313.81L253.68 314.11L253.7 314.4L253.7 314.7L253.71 314.99L253.71 315.58L253.7 315.88L253.68 316.17L253.65 316.77L253.64 317.06L253.62 317.36L253.59 317.65L253.58 317.95L253.55 318.24L253.53 318.54L253.5 318.84L253.47 319.13L253.44 319.43L253.42 319.72L253.39 320.02L253.35 320.31L253.32 320.61L253.29 320.9L253.26 321.2L253.21 321.49L253.18 321.78L253.14 322.08L253.11 322.37L253.06 322.67L253.02 322.96L252.99 323.26L252.9 323.83L252.85 324.14L252.81 324.42L252.74 324.71L252.7 325.01L252.65 325.3L252.59 325.59L252.55 325.89L252.43 326.46L252.38 326.75L252.32 327.05L252.26 327.34L275.98 348.15L256.52 381.24L228.22 371.97L227.71 372.43L227.19 372.86L226.66 373.29L226.15 373.73L225.61 374.15L225.08 374.56L224.55 374.98L223.46 375.8L222.91 376.19L222.36 376.58L221.81 376.98L220.69 377.73L220.12 378.11L219.56 378.47L218.41 379.2L217.83 379.55L217.25 379.89L216.67 380.24L214.9 381.24L213.69 381.88L213.1 382.18L212.5 382.48L211.88 382.78L211.27 383.08L210.65 383.37L210.05 383.64L209.43 383.93L208.81 384.2L208.17 384.46L207.55 384.72L206.92 384.97L206.3 385.23L205.03 385.72L198.79 413.17L159.76 413.17L153.52 385.72L152.25 385.23L151.61 384.97L150.99 384.72L150.36 384.46L149.74 384.2L149.12 383.93L148.5 383.64L147.88 383.37L147.27 383.08L146.66 382.78L144.84 381.88L144.25 381.56L143.65 381.24L141.88 380.24L141.29 379.89L140.14 379.2L138.42 378.11L136.74 376.98L136.18 376.58L135.09 375.8L134 374.98L133.46 374.56L132.93 374.15L132.4 373.73L131.87 373.29L131.35 372.86L130.84 372.43L130.31 371.97L102.02 381.13L81.84 347.95L105.56 327.13L105.46 326.56L105.37 325.97L105.27 325.39L105.2 324.8L105.12 324.23L104.97 323.05L104.91 322.47L104.85 321.88L104.76 320.7L104.72 320.13L104.67 319.54L104.61 318.36L104.59 317.77L104.58 317.2L104.55 316.02L104.55 314.84L104.58 313.66L104.59 313.08L104.61 312.49L104.67 311.32L104.72 310.73L104.76 310.15L104.85 308.97L104.91 308.38L104.97 307.81L105.12 306.63L105.2 306.05L105.27 305.46L105.37 304.89L105.46 304.3L105.56 303.73L81.84 282.91L102.02 249.72L130.31 258.99L131.34 258.11L131.84 257.67L132.37 257.25L132.88 256.83L133.41 256.42L133.92 256L134.47 255.59L135 255.19L135.53 254.79L136.07 254.39L136.62 254.01L137.18 253.64L137.72 253.26L138.28 252.88L139.96 251.79L140.52 251.44L141.67 250.75L142.24 250.42L142.83 250.08L143.4 249.75L145.17 248.8L145.76 248.5L146.37 248.19L146.96 247.91L148.77 247.04L149.39 246.77L150 246.52L150.62 246.24L151.86 245.73L152.48 245.49L153.11 245.25L159.34 217.77L198.47 217.77L204.71 245.25L205.98 245.73ZM159.14 247.01L158.31 250.45L154.97 251.7L154.41 251.91L153.84 252.14L153.28 252.37L152.7 252.61L152.14 252.84L151.58 253.09L151.02 253.33L150.47 253.59L149.38 254.11L148.82 254.38L147.73 254.92L147.2 255.21L146.66 255.5L146.13 255.78L144.54 256.69L144.01 257.01L143.5 257.33L142.97 257.64L142.45 257.96L141.94 258.29L141.44 258.63L140.93 258.97L140.43 259.31L139.93 259.67L138.93 260.36L138.45 260.73L137.96 261.11L137.46 261.47L136.99 261.85L136.51 262.22L136.04 262.6L135.56 263L135.09 263.39L134.64 263.78L134.17 264.19L131.35 266.58L127.82 265.43L104.41 257.73L89.75 281.77L109.51 298.93L112.21 300.91L111.7 304.45L111.52 305.51L111.44 306.05L111.29 307.11L111.22 307.66L111.1 308.71L111.05 309.26L111 309.79L110.96 310.33L110.91 310.86L110.88 311.41L110.85 311.94L110.82 312.48L110.81 313.02L110.79 313.55L110.78 314.1L110.78 314.63L110.76 315.17L110.78 315.7L110.78 316.24L110.79 316.77L110.82 317.86L110.85 318.39L110.88 318.94L110.91 319.46L110.96 320.01L111 320.54L111.05 321.08L111.1 321.61L111.16 322.16L111.22 322.68L111.29 323.21L111.37 323.76L111.52 324.82L111.61 325.35L111.7 325.89L112.21 329.43L109.51 331.82L89.75 349.4L104.41 373.44L128.13 365.43L131.67 364.28L134.48 366.67L134.94 367.07L136.34 368.25L136.83 368.63L137.3 369.01L137.78 369.39L138.26 369.75L138.75 370.13L139.25 370.49L139.75 370.84L140.23 371.19L140.74 371.53L141.74 372.23L142.77 372.89L143.8 373.53L144.33 373.85L144.84 374.16L146.43 375.07L146.97 375.36L147.5 375.65L148.05 375.93L149.68 376.75L150.24 377.01L150.78 377.26L151.34 377.52L153.58 378.49L154.15 378.72L154.71 378.94L155.29 379.15L158.61 380.41L159.45 383.84L164.56 406.63L192.75 406.63L198.68 384.14L199.51 380.71L202.84 379.47L203.41 379.24L203.97 379.02L204.55 378.79L205.1 378.56L206.78 377.84L207.9 377.32L208.45 377.05L208.99 376.8L209.53 376.52L210.62 375.95L211.15 375.66L211.7 375.37L212.23 375.09L212.76 374.78L213.28 374.47L213.8 374.16L214.33 373.85L214.84 373.53L216.38 372.53L216.88 372.2L217.4 371.85L218.39 371.16L218.88 370.79L219.38 370.43L220.34 369.7L221.31 368.95L221.78 368.56L222.25 368.18L222.72 367.78L223.19 367.38L223.64 366.98L226.45 364.59L229.99 365.73L253.41 373.44L268.08 349.4L247.57 332.22L244.87 329.84L245.4 326.3L245.49 325.77L245.56 325.24L245.65 324.7L245.73 324.17L245.79 323.64L245.87 323.09L245.99 322.03L246.03 321.49L246.09 320.96L246.14 320.42L246.17 319.89L246.2 319.34L246.23 318.81L246.26 318.27L246.27 317.74L246.3 317.2L246.3 316.65L246.32 316.12L246.32 315.05L246.3 314.51L246.3 313.98L246.27 313.43L246.26 312.89L246.23 312.36L246.2 311.81L246.17 311.29L246.14 310.74L246.09 310.21L246.03 309.67L245.99 309.14L245.93 308.61L245.87 308.06L245.79 307.54L245.73 306.99L245.65 306.46L245.56 305.93L245.49 305.4L245.4 304.86L244.87 301.34L247.57 298.93L267.24 281.77L252.56 257.73L229.16 265.43L225.62 266.58L222.81 264.19L222.36 263.78L220.95 262.6L220.47 262.22L220 261.85L219.51 261.47L219.03 261.11L218.55 260.73L218.05 260.36L217.55 260.02L217.06 259.67L216.55 259.31L216.05 258.97L215.55 258.63L214.52 257.96L213.5 257.33L212.97 257.01L212.45 256.69L210.87 255.78L210.32 255.5L209.79 255.21L209.25 254.92L207.61 254.11L207.07 253.85L205.95 253.33L205.39 253.09L204.83 252.84L204.27 252.61L203.71 252.37L203.14 252.14L202.58 251.91L202.01 251.7L198.68 250.45L197.85 247.01L192.75 224.65L164.24 224.65L159.14 247.01Z" id="h3onyYLrz"></path><path d="M205.98 245.73L206.62 245.99L207.24 246.23L207.87 246.5L208.49 246.76L209.73 247.3L210.35 247.59L210.96 247.88L211.58 248.18L212.18 248.47L212.79 248.78L213.39 249.09L213.98 249.4L214.58 249.72L216.35 250.72L216.94 251.07L218.09 251.76L219.82 252.85L221.49 253.98L222.05 254.38L223.14 255.16L224.77 256.39L225.83 257.24L226.36 257.67L226.88 258.1L227.39 258.54L227.92 258.99L256.21 249.93L276.39 283.01L252.67 303.83L252.73 304.12L252.77 304.41L252.82 304.71L252.91 305.28L252.96 305.59L252.99 305.87L253.03 306.16L253.08 306.46L253.11 306.75L253.15 307.04L253.18 307.34L253.21 307.63L253.24 307.93L253.29 308.22L253.32 308.5L253.35 308.81L253.38 309.09L253.39 309.4L253.42 309.68L253.46 309.98L253.47 310.27L253.5 310.57L253.52 310.86L253.55 311.15L253.56 311.45L253.58 311.74L253.59 312.04L253.62 312.33L253.64 312.63L253.64 312.93L253.65 313.22L253.67 313.52L253.68 313.81L253.68 314.11L253.7 314.4L253.7 314.7L253.71 314.99L253.71 315.58L253.7 315.88L253.68 316.17L253.65 316.77L253.64 317.06L253.62 317.36L253.59 317.65L253.58 317.95L253.55 318.24L253.53 318.54L253.5 318.84L253.47 319.13L253.44 319.43L253.42 319.72L253.39 320.02L253.35 320.31L253.32 320.61L253.29 320.9L253.26 321.2L253.21 321.49L253.18 321.78L253.14 322.08L253.11 322.37L253.06 322.67L253.02 322.96L252.99 323.26L252.9 323.83L252.85 324.14L252.81 324.42L252.74 324.71L252.7 325.01L252.65 325.3L252.59 325.59L252.55 325.89L252.43 326.46L252.38 326.75L252.32 327.05L252.26 327.34L275.98 348.15L256.52 381.24L228.22 371.97L227.71 372.43L227.19 372.86L226.66 373.29L226.15 373.73L225.61 374.15L225.08 374.56L224.55 374.98L223.46 375.8L222.91 376.19L222.36 376.58L221.81 376.98L220.69 377.73L220.12 378.11L219.56 378.47L218.41 379.2L217.83 379.55L217.25 379.89L216.67 380.24L214.9 381.24L213.69 381.88L213.1 382.18L212.5 382.48L211.88 382.78L211.27 383.08L210.65 383.37L210.05 383.64L209.43 383.93L208.81 384.2L208.17 384.46L207.55 384.72L206.92 384.97L206.3 385.23L205.03 385.72L198.79 413.17L159.76 413.17L153.52 385.72L152.25 385.23L151.61 384.97L150.99 384.72L150.36 384.46L149.74 384.2L149.12 383.93L148.5 383.64L147.88 383.37L147.27 383.08L146.66 382.78L144.84 381.88L144.25 381.56L143.65 381.24L141.88 380.24L141.29 379.89L140.14 379.2L138.42 378.11L136.74 376.98L136.18 376.58L135.09 375.8L134 374.98L133.46 374.56L132.93 374.15L132.4 373.73L131.87 373.29L131.35 372.86L130.84 372.43L130.31 371.97L102.02 381.13L81.84 347.95L105.56 327.13L105.46 326.56L105.37 325.97L105.27 325.39L105.2 324.8L105.12 324.23L104.97 323.05L104.91 322.47L104.85 321.88L104.76 320.7L104.72 320.13L104.67 319.54L104.61 318.36L104.59 317.77L104.58 317.2L104.55 316.02L104.55 314.84L104.58 313.66L104.59 313.08L104.61 312.49L104.67 311.32L104.72 310.73L104.76 310.15L104.85 308.97L104.91 308.38L104.97 307.81L105.12 306.63L105.2 306.05L105.27 305.46L105.37 304.89L105.46 304.3L105.56 303.73L81.84 282.91L102.02 249.72L130.31 258.99L131.34 258.11L131.84 257.67L132.37 257.25L132.88 256.83L133.41 256.42L133.92 256L134.47 255.59L135 255.19L135.53 254.79L136.07 254.39L136.62 254.01L137.18 253.64L137.72 253.26L138.28 252.88L139.96 251.79L140.52 251.44L141.67 250.75L142.24 250.42L142.83 250.08L143.4 249.75L145.17 248.8L145.76 248.5L146.37 248.19L146.96 247.91L148.77 247.04L149.39 246.77L150 246.52L150.62 246.24L151.86 245.73L152.48 245.49L153.11 245.25L159.34 217.77L198.47 217.77L204.71 245.25L205.98 245.73ZM159.14 247.01L158.31 250.45L154.97 251.7L154.41 251.91L153.84 252.14L153.28 252.37L152.7 252.61L152.14 252.84L151.58 253.09L151.02 253.33L150.47 253.59L149.38 254.11L148.82 254.38L147.73 254.92L147.2 255.21L146.66 255.5L146.13 255.78L144.54 256.69L144.01 257.01L143.5 257.33L142.97 257.64L142.45 257.96L141.94 258.29L141.44 258.63L140.93 258.97L140.43 259.31L139.93 259.67L138.93 260.36L138.45 260.73L137.96 261.11L137.46 261.47L136.99 261.85L136.51 262.22L136.04 262.6L135.56 263L135.09 263.39L134.64 263.78L134.17 264.19L131.35 266.58L127.82 265.43L104.41 257.73L89.75 281.77L109.51 298.93L112.21 300.91L111.7 304.45L111.52 305.51L111.44 306.05L111.29 307.11L111.22 307.66L111.1 308.71L111.05 309.26L111 309.79L110.96 310.33L110.91 310.86L110.88 311.41L110.85 311.94L110.82 312.48L110.81 313.02L110.79 313.55L110.78 314.1L110.78 314.63L110.76 315.17L110.78 315.7L110.78 316.24L110.79 316.77L110.82 317.86L110.85 318.39L110.88 318.94L110.91 319.46L110.96 320.01L111 320.54L111.05 321.08L111.1 321.61L111.16 322.16L111.22 322.68L111.29 323.21L111.37 323.76L111.52 324.82L111.61 325.35L111.7 325.89L112.21 329.43L109.51 331.82L89.75 349.4L104.41 373.44L128.13 365.43L131.67 364.28L134.48 366.67L134.94 367.07L136.34 368.25L136.83 368.63L137.3 369.01L137.78 369.39L138.26 369.75L138.75 370.13L139.25 370.49L139.75 370.84L140.23 371.19L140.74 371.53L141.74 372.23L142.77 372.89L143.8 373.53L144.33 373.85L144.84 374.16L146.43 375.07L146.97 375.36L147.5 375.65L148.05 375.93L149.68 376.75L150.24 377.01L150.78 377.26L151.34 377.52L153.58 378.49L154.15 378.72L154.71 378.94L155.29 379.15L158.61 380.41L159.45 383.84L164.56 406.63L192.75 406.63L198.68 384.14L199.51 380.71L202.84 379.47L203.41 379.24L203.97 379.02L204.55 378.79L205.1 378.56L206.78 377.84L207.9 377.32L208.45 377.05L208.99 376.8L209.53 376.52L210.62 375.95L211.15 375.66L211.7 375.37L212.23 375.09L212.76 374.78L213.28 374.47L213.8 374.16L214.33 373.85L214.84 373.53L216.38 372.53L216.88 372.2L217.4 371.85L218.39 371.16L218.88 370.79L219.38 370.43L220.34 369.7L221.31 368.95L221.78 368.56L222.25 368.18L222.72 367.78L223.19 367.38L223.64 366.98L226.45 364.59L229.99 365.73L253.41 373.44L268.08 349.4L247.57 332.22L244.87 329.84L245.4 326.3L245.49 325.77L245.56 325.24L245.65 324.7L245.73 324.17L245.79 323.64L245.87 323.09L245.99 322.03L246.03 321.49L246.09 320.96L246.14 320.42L246.17 319.89L246.2 319.34L246.23 318.81L246.26 318.27L246.27 317.74L246.3 317.2L246.3 316.65L246.32 316.12L246.32 315.05L246.3 314.51L246.3 313.98L246.27 313.43L246.26 312.89L246.23 312.36L246.2 311.81L246.17 311.29L246.14 310.74L246.09 310.21L246.03 309.67L245.99 309.14L245.93 308.61L245.87 308.06L245.79 307.54L245.73 306.99L245.65 306.46L245.56 305.93L245.49 305.4L245.4 304.86L244.87 301.34L247.57 298.93L267.24 281.77L252.56 257.73L229.16 265.43L225.62 266.58L222.81 264.19L222.36 263.78L220.95 262.6L220.47 262.22L220 261.85L219.51 261.47L219.03 261.11L218.55 260.73L218.05 260.36L217.55 260.02L217.06 259.67L216.55 259.31L216.05 258.97L215.55 258.63L214.52 257.96L213.5 257.33L212.97 257.01L212.45 256.69L210.87 255.78L210.32 255.5L209.79 255.21L209.25 254.92L207.61 254.11L207.07 253.85L205.95 253.33L205.39 253.09L204.83 252.84L204.27 252.61L203.71 252.37L203.14 252.14L202.58 251.91L202.01 251.7L198.68 250.45L197.85 247.01L192.75 224.65L164.24 224.65L159.14 247.01Z" id="g1sGim1s5W"></path><path d="M182.9 276.77L184.85 277.01L186.77 277.36L188.66 277.8L190.52 278.33L192.33 278.93L194.1 279.63L195.82 280.41L197.5 281.27L199.13 282.21L200.72 283.22L202.25 284.31L203.73 285.48L205.14 286.7L206.5 288L207.78 289.35L209.02 290.77L210.17 292.24L211.26 293.76L212.27 295.35L213.21 296.98L214.07 298.66L214.86 300.4L215.55 302.17L216.17 303.98L216.7 305.83L217.12 307.72L217.47 309.64L217.73 311.59L217.88 313.58L217.93 315.58L217.88 317.59L217.73 319.57L217.47 321.52L217.12 323.44L216.7 325.33L216.17 327.19L215.55 329L214.86 330.77L214.07 332.5L213.21 334.18L212.27 335.81L211.26 337.4L210.17 338.92L209.02 340.4L207.78 341.81L206.5 343.17L205.14 344.47L203.73 345.7L202.25 346.84L200.72 347.93L199.13 348.95L197.5 349.88L195.82 350.75L194.1 351.53L192.33 352.23L190.52 352.85L188.66 353.38L186.77 353.81L184.85 354.15L182.9 354.4L180.91 354.56L178.9 354.6L176.89 354.56L174.91 354.4L172.96 354.15L171.04 353.81L169.15 353.38L167.31 352.85L165.49 352.23L163.72 351.53L161.99 350.75L160.31 349.88L158.67 348.95L157.09 347.93L155.56 346.84L154.09 345.7L152.67 344.47L151.31 343.17L150.03 341.81L148.8 340.4L147.64 338.92L146.55 337.4L145.54 335.81L144.6 334.18L143.74 332.5L142.95 330.77L142.26 329L141.65 327.19L141.12 325.33L140.68 323.44L140.34 321.52L140.09 319.57L139.94 317.59L139.9 315.58L139.94 313.58L140.09 311.59L140.34 309.64L140.68 307.72L141.12 305.83L141.65 303.98L142.26 302.17L142.95 300.4L143.74 298.66L144.6 296.98L145.54 295.35L146.55 293.76L147.64 292.24L148.8 290.77L150.03 289.35L151.31 288L152.67 286.7L154.09 285.48L155.56 284.31L157.09 283.22L158.67 282.21L160.31 281.27L161.99 280.41L163.72 279.63L165.49 278.93L167.31 278.33L169.15 277.8L171.04 277.36L172.96 277.01L174.91 276.77L176.89 276.62L178.9 276.57L180.91 276.62L182.9 276.77ZM174.79 303.24L172.93 304.03L171.22 305.09L169.71 306.39L168.41 307.9L167.35 309.61L166.57 311.47L166.07 313.48L165.9 315.58L166.07 317.7L166.57 319.69L167.35 321.57L168.41 323.26L169.71 324.79L171.22 326.09L172.93 327.14L174.79 327.93L176.8 328.41L178.9 328.6L181.02 328.41L183.02 327.93L184.89 327.14L186.58 326.09L188.11 324.79L189.4 323.26L190.45 321.57L191.26 319.69L191.74 317.7L191.91 315.58L191.74 313.48L191.26 311.47L190.45 309.61L189.4 307.9L188.11 306.39L186.58 305.09L184.89 304.03L183.02 303.24L181.02 302.74L178.9 302.58L176.8 302.74L174.79 303.24Z" id="iJ6fgYVYb"></path><path d="M182.9 276.77L184.85 277.01L186.77 277.36L188.66 277.8L190.52 278.33L192.33 278.93L194.1 279.63L195.82 280.41L197.5 281.27L199.13 282.21L200.72 283.22L202.25 284.31L203.73 285.48L205.14 286.7L206.5 288L207.78 289.35L209.02 290.77L210.17 292.24L211.26 293.76L212.27 295.35L213.21 296.98L214.07 298.66L214.86 300.4L215.55 302.17L216.17 303.98L216.7 305.83L217.12 307.72L217.47 309.64L217.73 311.59L217.88 313.58L217.93 315.58L217.88 317.59L217.73 319.57L217.47 321.52L217.12 323.44L216.7 325.33L216.17 327.19L215.55 329L214.86 330.77L214.07 332.5L213.21 334.18L212.27 335.81L211.26 337.4L210.17 338.92L209.02 340.4L207.78 341.81L206.5 343.17L205.14 344.47L203.73 345.7L202.25 346.84L200.72 347.93L199.13 348.95L197.5 349.88L195.82 350.75L194.1 351.53L192.33 352.23L190.52 352.85L188.66 353.38L186.77 353.81L184.85 354.15L182.9 354.4L180.91 354.56L178.9 354.6L176.89 354.56L174.91 354.4L172.96 354.15L171.04 353.81L169.15 353.38L167.31 352.85L165.49 352.23L163.72 351.53L161.99 350.75L160.31 349.88L158.67 348.95L157.09 347.93L155.56 346.84L154.09 345.7L152.67 344.47L151.31 343.17L150.03 341.81L148.8 340.4L147.64 338.92L146.55 337.4L145.54 335.81L144.6 334.18L143.74 332.5L142.95 330.77L142.26 329L141.65 327.19L141.12 325.33L140.68 323.44L140.34 321.52L140.09 319.57L139.94 317.59L139.9 315.58L139.94 313.58L140.09 311.59L140.34 309.64L140.68 307.72L141.12 305.83L141.65 303.98L142.26 302.17L142.95 300.4L143.74 298.66L144.6 296.98L145.54 295.35L146.55 293.76L147.64 292.24L148.8 290.77L150.03 289.35L151.31 288L152.67 286.7L154.09 285.48L155.56 284.31L157.09 283.22L158.67 282.21L160.31 281.27L161.99 280.41L163.72 279.63L165.49 278.93L167.31 278.33L169.15 277.8L171.04 277.36L172.96 277.01L174.91 276.77L176.89 276.62L178.9 276.57L180.91 276.62L182.9 276.77ZM174.79 303.24L172.93 304.03L171.22 305.09L169.71 306.39L168.41 307.9L167.35 309.61L166.57 311.47L166.07 313.48L165.9 315.58L166.07 317.7L166.57 319.69L167.35 321.57L168.41 323.26L169.71 324.79L171.22 326.09L172.93 327.14L174.79 327.93L176.8 328.41L178.9 328.6L181.02 328.41L183.02 327.93L184.89 327.14L186.58 326.09L188.11 324.79L189.4 323.26L190.45 321.57L191.26 319.69L191.74 317.7L191.91 315.58L191.74 313.48L191.26 311.47L190.45 309.61L189.4 307.9L188.11 306.39L186.58 305.09L184.89 304.03L183.02 303.24L181.02 302.74L178.9 302.58L176.8 302.74L174.79 303.24Z" id="bpCJH8l2U"></path><path d="M419.17 225.58L420.04 225.46L420.9 225.35L421.77 225.26L422.64 225.17L424.36 225.02L425.24 224.96L426.1 224.9L426.97 224.85L427.84 224.8L428.7 224.77L429.58 224.74L430.44 224.73L431.31 224.73L432.18 224.71L433.04 224.73L433.91 224.74L434.78 224.76L435.65 224.79L438.24 224.93L439.12 224.99L440.84 225.14L443.42 225.41L444.29 225.53L445.15 225.64L446.01 225.77L446.87 225.89L447.73 226.04L448.6 226.18L449.44 226.35L450.3 226.5L451.15 226.68L452.01 226.86L452.86 227.04L479.07 201.04L520.7 228.09L508.42 262L508.93 262.71L509.46 263.42L509.96 264.13L510.48 264.84L510.98 265.57L511.46 266.29L511.94 267.03L512.43 267.76L512.9 268.5L513.35 269.24L514.26 270.75L515.57 273.02L515.98 273.79L516.4 274.56L516.81 275.33L517.2 276.12L517.6 276.89L517.99 277.68L518.37 278.46L519.09 280.06L519.46 280.85L519.81 281.65L520.15 282.47L520.49 283.27L520.8 284.09L521.14 284.9L521.74 286.54L522.04 287.37L522.33 288.2L522.62 289.01L522.89 289.86L523.16 290.69L523.42 291.52L523.68 292.37L523.92 293.22L560.85 302.89L559.6 352.62L519.65 359.08L519.35 359.77L519.2 360.1L519.03 360.45L518.73 361.15L518.57 361.48L518.4 361.83L518.25 362.16L518.08 362.51L517.92 362.84L517.75 363.19L517.42 363.85L517.25 364.2L517.07 364.53L516.74 365.2L516.55 365.53L516.37 365.88L516.21 366.21L516.03 366.54L515.84 366.86L515.48 367.53L515.28 367.86L515.1 368.19L514.92 368.51L514.73 368.84L514.54 369.18L514.35 369.49L514.17 369.83L513.77 370.46L513.58 370.79L512.99 371.75L512.77 372.08L512.58 372.4L511.73 373.61L511.52 373.89L511.31 374.19L511.08 374.5L510.87 374.8L510.64 375.09L510.43 375.39L510.2 375.68L509.98 375.98L509.77 376.27L509.54 376.55L509.31 376.86L508.41 378L508.16 378.29L507.94 378.58L507.69 378.87L507.47 379.15L507.23 379.43L507 379.71L506.76 380L506.52 380.27L506.27 380.56L505.79 381.1L505.55 381.39L504.82 382.21L504.57 382.48L504.32 382.75L504.07 383.02L503.82 383.3L503.31 383.84L514.66 423.27L469.91 445.01L445.78 415.36L444.92 415.48L444.06 415.59L443.18 415.7L440.6 415.97L439.72 416.03L438.86 416.1L438 416.15L437.12 416.21L436.26 416.24L435.4 416.29L434.52 416.3L433.66 416.32L432.78 416.33L431.06 416.33L430.18 416.32L429.32 416.29L428.44 416.26L427.58 416.23L426.72 416.18L425.84 416.12L424.12 416L423.26 415.91L422.39 415.83L421.53 415.74L420.66 415.64L419.79 415.53L418.95 415.41L418.09 415.29L416.36 415.02L415.5 414.86L414.65 414.71L413.79 414.55L412.94 414.38L412.08 414.2L411.24 414L384.7 439.09L343.1 412.04L355.37 378.11L354.84 377.42L354.33 376.7L353.81 375.98L353.32 375.27L352.32 373.82L351.83 373.09L350.43 370.87L349.97 370.13L349.52 369.37L348.64 367.86L347.8 366.32L346.57 364L346.18 363.22L345.42 361.65L345.05 360.84L344.68 360.06L344.32 359.26L343.97 358.46L343.64 357.65L342.97 356.02L342.34 354.39L341.73 352.76L341.16 351.09L340.62 349.43L340.1 347.74L339.86 346.91L302.92 337.23L304.18 287.49L344.23 281.56L345.14 279.47L345.77 278.11L346.77 276.07L347.12 275.41L347.46 274.73L347.81 274.06L348.18 273.41L348.55 272.75L348.92 272.1L349.29 271.43L349.67 270.78L350.07 270.15L350.46 269.5L350.85 268.86L351.67 267.59L352.09 266.96L353.36 265.1L353.8 264.48L354.24 263.87L355.6 262.06L356.07 261.47L356.54 260.86L357 260.29L357.49 259.7L357.97 259.12L358.46 258.54L358.95 257.98L359.45 257.4L359.95 256.84L360.47 256.28L349.32 217.37L394.18 196.56L418.31 225.68L419.17 225.58ZM368.37 254.62L369.61 258.99L366.82 262.31L365.88 263.34L364.97 264.37L364.52 264.9L363.64 265.96L363.2 266.5L361.51 268.68L360.69 269.8L359.91 270.92L359.12 272.07L358.37 273.22L358 273.81L357.64 274.38L356.91 275.56L356.57 276.15L356.22 276.75L355.89 277.36L355.54 277.95L355.22 278.55L354.89 279.17L354.57 279.78L354.25 280.4L353.35 282.26L353.06 282.88L352.48 284.15L351.94 285.42L350.07 289.57L345.48 290.19L312.39 295.29L311.47 331.39L342.05 339.41L346.63 340.66L347.98 345.24L348.43 346.75L348.92 348.27L349.43 349.78L349.97 351.26L350.25 352.02L350.53 352.74L351.14 354.22L351.44 354.95L352.39 357.13L352.73 357.84L353.07 358.56L353.77 359.98L354.13 360.69L354.86 362.08L355.24 362.78L355.63 363.48L356.01 364.17L356.41 364.85L356.81 365.53L357.22 366.21L357.64 366.89L358.49 368.22L359.36 369.55L359.8 370.2L360.26 370.87L360.72 371.5L361.18 372.15L361.65 372.79L362.13 373.44L365.24 376.77L363.69 381.03L353.29 408.7L384.51 428.58L405.31 407.77L408.53 404.64L413.43 405.9L414.18 406.07L414.96 406.22L415.73 406.38L416.51 406.52L417.28 406.67L418.05 406.81L418.83 406.93L419.61 407.05L421.15 407.26L421.94 407.37L422.71 407.46L424.28 407.61L425.05 407.68L426.63 407.8L427.41 407.85L428.18 407.9L429.76 407.96L432.12 408L432.89 408L435.25 407.96L436.82 407.9L437.6 407.85L438.37 407.79L439.16 407.74L439.95 407.67L440.73 407.61L441.52 407.53L442.29 407.44L443.08 407.35L443.86 407.24L444.63 407.14L449.32 406.41L452.33 410.06L472.32 434.61L504.88 418.8L494.57 386.34L493.33 381.86L496.34 378.43L497.28 377.4L497.73 376.89L498.19 376.36L498.64 375.84L499.08 375.31L499.52 374.77L499.95 374.24L500.38 373.7L500.82 373.15L501.22 372.61L501.65 372.05L502.06 371.5L502.46 370.94L502.86 370.38L503.25 369.81L503.64 369.25L504.04 368.68L504.79 367.53L505.15 366.94L505.53 366.36L505.88 365.77L506.24 365.18L506.59 364.58L506.94 363.99L507.27 363.38L507.62 362.78L507.94 362.18L508.27 361.57L508.59 360.97L508.9 360.35L509.81 358.49L510.1 357.85L510.4 357.23L511.22 355.33L513.09 351.17L517.67 350.55L550.77 345.65L551.69 309.55L521.11 301.53L516.52 300.29L515.18 295.71L514.95 294.94L514.73 294.19L514.24 292.67L513.98 291.92L513.73 291.18L513.46 290.42L512.91 288.94L512.62 288.2L512.32 287.46L512.02 286.73L511.72 285.99L511.08 284.54L510.76 283.83L510.43 283.1L509.39 280.97L508.66 279.55L508.3 278.86L507.92 278.16L507.53 277.46L507.15 276.78L506.74 276.09L506.35 275.41L505.94 274.73L505.52 274.06L505.09 273.38L504.67 272.72L504.23 272.05L503.79 271.4L503.36 270.74L502.9 270.09L502.43 269.44L501.98 268.79L501.51 268.15L501.03 267.52L498.32 263.87L499.88 259.61L510.3 231.93L479.07 212.06L458.27 232.86L455.04 235.99L450.67 235.06L449.12 234.72L447.58 234.42L446.04 234.15L445.27 234.03L444.48 233.91L443.71 233.79L442.94 233.68L441.37 233.5L440.6 233.41L439.81 233.33L439.04 233.26L438.25 233.2L437.47 233.15L436.68 233.09L435.91 233.06L435.12 233.01L434.34 232.98L432.77 232.95L430.42 232.95L429.64 232.97L428.85 233L428.06 233.01L425.7 233.15L424.93 233.21L424.15 233.27L422.58 233.42L421.8 233.51L420.23 233.69L419.46 233.8L414.77 234.53L411.77 230.9L391.78 206.33L359.21 222.16L368.37 254.62Z" id="b36Lm72pV"></path><path d="M419.17 225.58L420.04 225.46L420.9 225.35L421.77 225.26L422.64 225.17L424.36 225.02L425.24 224.96L426.1 224.9L426.97 224.85L427.84 224.8L428.7 224.77L429.58 224.74L430.44 224.73L431.31 224.73L432.18 224.71L433.04 224.73L433.91 224.74L434.78 224.76L435.65 224.79L438.24 224.93L439.12 224.99L440.84 225.14L443.42 225.41L444.29 225.53L445.15 225.64L446.01 225.77L446.87 225.89L447.73 226.04L448.6 226.18L449.44 226.35L450.3 226.5L451.15 226.68L452.01 226.86L452.86 227.04L479.07 201.04L520.7 228.09L508.42 262L508.93 262.71L509.46 263.42L509.96 264.13L510.48 264.84L510.98 265.57L511.46 266.29L511.94 267.03L512.43 267.76L512.9 268.5L513.35 269.24L514.26 270.75L515.57 273.02L515.98 273.79L516.4 274.56L516.81 275.33L517.2 276.12L517.6 276.89L517.99 277.68L518.37 278.46L519.09 280.06L519.46 280.85L519.81 281.65L520.15 282.47L520.49 283.27L520.8 284.09L521.14 284.9L521.74 286.54L522.04 287.37L522.33 288.2L522.62 289.01L522.89 289.86L523.16 290.69L523.42 291.52L523.68 292.37L523.92 293.22L560.85 302.89L559.6 352.62L519.65 359.08L519.35 359.77L519.2 360.1L519.03 360.45L518.73 361.15L518.57 361.48L518.4 361.83L518.25 362.16L518.08 362.51L517.92 362.84L517.75 363.19L517.42 363.85L517.25 364.2L517.07 364.53L516.74 365.2L516.55 365.53L516.37 365.88L516.21 366.21L516.03 366.54L515.84 366.86L515.48 367.53L515.28 367.86L515.1 368.19L514.92 368.51L514.73 368.84L514.54 369.18L514.35 369.49L514.17 369.83L513.77 370.46L513.58 370.79L512.99 371.75L512.77 372.08L512.58 372.4L511.73 373.61L511.52 373.89L511.31 374.19L511.08 374.5L510.87 374.8L510.64 375.09L510.43 375.39L510.2 375.68L509.98 375.98L509.77 376.27L509.54 376.55L509.31 376.86L508.41 378L508.16 378.29L507.94 378.58L507.69 378.87L507.47 379.15L507.23 379.43L507 379.71L506.76 380L506.52 380.27L506.27 380.56L505.79 381.1L505.55 381.39L504.82 382.21L504.57 382.48L504.32 382.75L504.07 383.02L503.82 383.3L503.31 383.84L514.66 423.27L469.91 445.01L445.78 415.36L444.92 415.48L444.06 415.59L443.18 415.7L440.6 415.97L439.72 416.03L438.86 416.1L438 416.15L437.12 416.21L436.26 416.24L435.4 416.29L434.52 416.3L433.66 416.32L432.78 416.33L431.06 416.33L430.18 416.32L429.32 416.29L428.44 416.26L427.58 416.23L426.72 416.18L425.84 416.12L424.12 416L423.26 415.91L422.39 415.83L421.53 415.74L420.66 415.64L419.79 415.53L418.95 415.41L418.09 415.29L416.36 415.02L415.5 414.86L414.65 414.71L413.79 414.55L412.94 414.38L412.08 414.2L411.24 414L384.7 439.09L343.1 412.04L355.37 378.11L354.84 377.42L354.33 376.7L353.81 375.98L353.32 375.27L352.32 373.82L351.83 373.09L350.43 370.87L349.97 370.13L349.52 369.37L348.64 367.86L347.8 366.32L346.57 364L346.18 363.22L345.42 361.65L345.05 360.84L344.68 360.06L344.32 359.26L343.97 358.46L343.64 357.65L342.97 356.02L342.34 354.39L341.73 352.76L341.16 351.09L340.62 349.43L340.1 347.74L339.86 346.91L302.92 337.23L304.18 287.49L344.23 281.56L345.14 279.47L345.77 278.11L346.77 276.07L347.12 275.41L347.46 274.73L347.81 274.06L348.18 273.41L348.55 272.75L348.92 272.1L349.29 271.43L349.67 270.78L350.07 270.15L350.46 269.5L350.85 268.86L351.67 267.59L352.09 266.96L353.36 265.1L353.8 264.48L354.24 263.87L355.6 262.06L356.07 261.47L356.54 260.86L357 260.29L357.49 259.7L357.97 259.12L358.46 258.54L358.95 257.98L359.45 257.4L359.95 256.84L360.47 256.28L349.32 217.37L394.18 196.56L418.31 225.68L419.17 225.58ZM368.37 254.62L369.61 258.99L366.82 262.31L365.88 263.34L364.97 264.37L364.52 264.9L363.64 265.96L363.2 266.5L361.51 268.68L360.69 269.8L359.91 270.92L359.12 272.07L358.37 273.22L358 273.81L357.64 274.38L356.91 275.56L356.57 276.15L356.22 276.75L355.89 277.36L355.54 277.95L355.22 278.55L354.89 279.17L354.57 279.78L354.25 280.4L353.35 282.26L353.06 282.88L352.48 284.15L351.94 285.42L350.07 289.57L345.48 290.19L312.39 295.29L311.47 331.39L342.05 339.41L346.63 340.66L347.98 345.24L348.43 346.75L348.92 348.27L349.43 349.78L349.97 351.26L350.25 352.02L350.53 352.74L351.14 354.22L351.44 354.95L352.39 357.13L352.73 357.84L353.07 358.56L353.77 359.98L354.13 360.69L354.86 362.08L355.24 362.78L355.63 363.48L356.01 364.17L356.41 364.85L356.81 365.53L357.22 366.21L357.64 366.89L358.49 368.22L359.36 369.55L359.8 370.2L360.26 370.87L360.72 371.5L361.18 372.15L361.65 372.79L362.13 373.44L365.24 376.77L363.69 381.03L353.29 408.7L384.51 428.58L405.31 407.77L408.53 404.64L413.43 405.9L414.18 406.07L414.96 406.22L415.73 406.38L416.51 406.52L417.28 406.67L418.05 406.81L418.83 406.93L419.61 407.05L421.15 407.26L421.94 407.37L422.71 407.46L424.28 407.61L425.05 407.68L426.63 407.8L427.41 407.85L428.18 407.9L429.76 407.96L432.12 408L432.89 408L435.25 407.96L436.82 407.9L437.6 407.85L438.37 407.79L439.16 407.74L439.95 407.67L440.73 407.61L441.52 407.53L442.29 407.44L443.08 407.35L443.86 407.24L444.63 407.14L449.32 406.41L452.33 410.06L472.32 434.61L504.88 418.8L494.57 386.34L493.33 381.86L496.34 378.43L497.28 377.4L497.73 376.89L498.19 376.36L498.64 375.84L499.08 375.31L499.52 374.77L499.95 374.24L500.38 373.7L500.82 373.15L501.22 372.61L501.65 372.05L502.06 371.5L502.46 370.94L502.86 370.38L503.25 369.81L503.64 369.25L504.04 368.68L504.79 367.53L505.15 366.94L505.53 366.36L505.88 365.77L506.24 365.18L506.59 364.58L506.94 363.99L507.27 363.38L507.62 362.78L507.94 362.18L508.27 361.57L508.59 360.97L508.9 360.35L509.81 358.49L510.1 357.85L510.4 357.23L511.22 355.33L513.09 351.17L517.67 350.55L550.77 345.65L551.69 309.55L521.11 301.53L516.52 300.29L515.18 295.71L514.95 294.94L514.73 294.19L514.24 292.67L513.98 291.92L513.73 291.18L513.46 290.42L512.91 288.94L512.62 288.2L512.32 287.46L512.02 286.73L511.72 285.99L511.08 284.54L510.76 283.83L510.43 283.1L509.39 280.97L508.66 279.55L508.3 278.86L507.92 278.16L507.53 277.46L507.15 276.78L506.74 276.09L506.35 275.41L505.94 274.73L505.52 274.06L505.09 273.38L504.67 272.72L504.23 272.05L503.79 271.4L503.36 270.74L502.9 270.09L502.43 269.44L501.98 268.79L501.51 268.15L501.03 267.52L498.32 263.87L499.88 259.61L510.3 231.93L479.07 212.06L458.27 232.86L455.04 235.99L450.67 235.06L449.12 234.72L447.58 234.42L446.04 234.15L445.27 234.03L444.48 233.91L443.71 233.79L442.94 233.68L441.37 233.5L440.6 233.41L439.81 233.33L439.04 233.26L438.25 233.2L437.47 233.15L436.68 233.09L435.91 233.06L435.12 233.01L434.34 232.98L432.77 232.95L430.42 232.95L429.64 232.97L428.85 233L428.06 233.01L425.7 233.15L424.93 233.21L424.15 233.27L422.58 233.42L421.8 233.51L420.23 233.69L419.46 233.8L414.77 234.53L411.77 230.9L391.78 206.33L359.21 222.16L368.37 254.62Z" id="cMN4rtvAm"></path><path d="M434.75 270.39L436.68 270.54L438.62 270.78L440.54 271.08L442.44 271.48L444.35 271.93L446.25 272.47L448.13 273.08L449.99 273.78L451.85 274.55L453.66 275.41L455.46 276.33L457.24 277.34L459 278.45L460.69 279.6L462.34 280.82L463.91 282.09L465.42 283.41L466.86 284.78L468.25 286.2L469.56 287.67L470.82 289.18L472 290.74L473.13 292.34L474.18 293.96L475.17 295.64L476.08 297.33L476.94 299.05L477.73 300.82L478.44 302.61L479.07 304.41L479.65 306.24L480.16 308.08L480.6 309.95L480.96 311.83L481.25 313.73L481.46 315.64L481.61 317.54L481.69 319.46L481.68 321.4L481.6 323.32L481.46 325.24L481.24 327.18L480.93 329.08L480.56 331L480.1 332.91L479.57 334.8L478.97 336.67L478.27 338.53L477.52 340.37L476.67 342.2L475.75 344L474.75 345.77L473.66 347.53L473.65 347.56L473.59 347.63L473.56 347.71L472.39 349.4L471.17 351.05L469.9 352.62L468.57 354.15L467.19 355.6L465.76 356.97L464.29 358.3L462.76 359.56L461.2 360.74L459.62 361.86L457.97 362.92L456.31 363.91L454.6 364.82L452.86 365.68L451.1 366.45L449.31 367.18L447.49 367.81L445.66 368.39L443.8 368.89L441.93 369.33L440.05 369.69L438.15 369.98L436.24 370.19L434.32 370.32L432.39 370.4L430.47 370.38L428.53 370.31L426.6 370.14L424.68 369.92L422.76 369.61L420.84 369.22L418.93 368.77L417.04 368.22L415.15 367.62L413.29 366.92L411.45 366.15L409.62 365.29L407.82 364.37L406.04 363.35L404.28 362.25L402.59 361.1L400.94 359.88L399.37 358.59L397.84 357.28L396.4 355.89L395.01 354.46L393.7 353L392.44 351.47L391.25 349.91L390.13 348.31L389.07 346.68L388.09 345.02L387.17 343.31L386.31 341.57L385.53 339.8L384.81 338.02L384.17 336.2L383.6 334.37L383.1 332.51L382.66 330.64L382.31 328.75L382.03 326.86L381.8 324.94L381.66 323.02L381.6 321.1L381.6 319.16L381.68 317.24L381.85 315.31L382.07 313.39L382.37 311.45L382.77 309.55L383.22 307.64L383.77 305.74L384.37 303.86L385.07 302L385.85 300.16L386.7 298.33L387.64 296.53L388.63 294.75L389.74 292.99L390.9 291.3L392.11 289.65L393.4 288.08L394.71 286.55L396.1 285.1L397.52 283.72L398.99 282.39L400.52 281.14L402.07 279.96L403.68 278.82L405.31 277.78L406.99 276.78L408.68 275.88L410.42 275.01L412.19 274.23L413.97 273.52L415.79 272.88L417.62 272.31L419.48 271.81L421.35 271.37L423.24 271.01L425.13 270.72L427.05 270.51L428.97 270.37L430.89 270.3L432.83 270.31L434.75 270.39ZM427.4 304.48L425.54 305.13L423.75 305.98L422.08 307.07L420.52 308.34L419.11 309.83L417.89 311.51L416.86 313.34L416.09 315.25L415.58 317.18L415.29 319.16L415.26 321.13L415.44 323.09L415.86 325.01L416.5 326.87L417.36 328.64L418.43 330.32L419.72 331.88L421.2 333.28L422.89 334.52L424.72 335.54L426.61 336.31L428.55 336.82L430.53 337.11L432.49 337.15L434.46 336.96L436.38 336.55L438.24 335.9L440.01 335.05L441.69 333.98L443.24 332.69L444.65 331.21L445.89 329.52L445.89 329.5L446.92 327.69L447.69 325.78L448.2 323.85L448.49 321.87L448.52 319.9L448.34 317.94L447.91 316.02L447.28 314.16L446.42 312.37L445.34 310.7L444.06 309.15L442.58 307.75L440.88 306.51L439.06 305.49L437.17 304.72L435.21 304.19L433.25 303.92L431.27 303.88L429.32 304.07L427.4 304.48Z" id="j167Iuv0RG"></path><path d="M434.75 270.39L436.68 270.54L438.62 270.78L440.54 271.08L442.44 271.48L444.35 271.93L446.25 272.47L448.13 273.08L449.99 273.78L451.85 274.55L453.66 275.41L455.46 276.33L457.24 277.34L459 278.45L460.69 279.6L462.34 280.82L463.91 282.09L465.42 283.41L466.86 284.78L468.25 286.2L469.56 287.67L470.82 289.18L472 290.74L473.13 292.34L474.18 293.96L475.17 295.64L476.08 297.33L476.94 299.05L477.73 300.82L478.44 302.61L479.07 304.41L479.65 306.24L480.16 308.08L480.6 309.95L480.96 311.83L481.25 313.73L481.46 315.64L481.61 317.54L481.69 319.46L481.68 321.4L481.6 323.32L481.46 325.24L481.24 327.18L480.93 329.08L480.56 331L480.1 332.91L479.57 334.8L478.97 336.67L478.27 338.53L477.52 340.37L476.67 342.2L475.75 344L474.75 345.77L473.66 347.53L473.65 347.56L473.59 347.63L473.56 347.71L472.39 349.4L471.17 351.05L469.9 352.62L468.57 354.15L467.19 355.6L465.76 356.97L464.29 358.3L462.76 359.56L461.2 360.74L459.62 361.86L457.97 362.92L456.31 363.91L454.6 364.82L452.86 365.68L451.1 366.45L449.31 367.18L447.49 367.81L445.66 368.39L443.8 368.89L441.93 369.33L440.05 369.69L438.15 369.98L436.24 370.19L434.32 370.32L432.39 370.4L430.47 370.38L428.53 370.31L426.6 370.14L424.68 369.92L422.76 369.61L420.84 369.22L418.93 368.77L417.04 368.22L415.15 367.62L413.29 366.92L411.45 366.15L409.62 365.29L407.82 364.37L406.04 363.35L404.28 362.25L402.59 361.1L400.94 359.88L399.37 358.59L397.84 357.28L396.4 355.89L395.01 354.46L393.7 353L392.44 351.47L391.25 349.91L390.13 348.31L389.07 346.68L388.09 345.02L387.17 343.31L386.31 341.57L385.53 339.8L384.81 338.02L384.17 336.2L383.6 334.37L383.1 332.51L382.66 330.64L382.31 328.75L382.03 326.86L381.8 324.94L381.66 323.02L381.6 321.1L381.6 319.16L381.68 317.24L381.85 315.31L382.07 313.39L382.37 311.45L382.77 309.55L383.22 307.64L383.77 305.74L384.37 303.86L385.07 302L385.85 300.16L386.7 298.33L387.64 296.53L388.63 294.75L389.74 292.99L390.9 291.3L392.11 289.65L393.4 288.08L394.71 286.55L396.1 285.1L397.52 283.72L398.99 282.39L400.52 281.14L402.07 279.96L403.68 278.82L405.31 277.78L406.99 276.78L408.68 275.88L410.42 275.01L412.19 274.23L413.97 273.52L415.79 272.88L417.62 272.31L419.48 271.81L421.35 271.37L423.24 271.01L425.13 270.72L427.05 270.51L428.97 270.37L430.89 270.3L432.83 270.31L434.75 270.39ZM427.4 304.48L425.54 305.13L423.75 305.98L422.08 307.07L420.52 308.34L419.11 309.83L417.89 311.51L416.86 313.34L416.09 315.25L415.58 317.18L415.29 319.16L415.26 321.13L415.44 323.09L415.86 325.01L416.5 326.87L417.36 328.64L418.43 330.32L419.72 331.88L421.2 333.28L422.89 334.52L424.72 335.54L426.61 336.31L428.55 336.82L430.53 337.11L432.49 337.15L434.46 336.96L436.38 336.55L438.24 335.9L440.01 335.05L441.69 333.98L443.24 332.69L444.65 331.21L445.89 329.52L445.89 329.5L446.92 327.69L447.69 325.78L448.2 323.85L448.49 321.87L448.52 319.9L448.34 317.94L447.91 316.02L447.28 314.16L446.42 312.37L445.34 310.7L444.06 309.15L442.58 307.75L440.88 306.51L439.06 305.49L437.17 304.72L435.21 304.19L433.25 303.92L431.27 303.88L429.32 304.07L427.4 304.48Z" id="b5DGw9l49"></path></defs><g><g><g><use xlink:href="#h1mZHrhiQO" opacity="1" fill="#ffffff" fill-opacity="1"></use><g><use xlink:href="#h1mZHrhiQO" opacity="1" fill-opacity="0" stroke="#000000" stroke-width="1" stroke-opacity="0"></use></g></g><g><use xlink:href="#b6Mbtih3L" opacity="1" fill="#000000" fill-opacity="0"></use><g><use xlink:href="#b6Mbtih3L" opacity="1" fill-opacity="0" stroke="#000000" stroke-width="1" stroke-opacity="0"></use></g></g><g><use xlink:href="#d7JDVmeV" opacity="1" fill="#ffffff" fill-opacity="1"></use><g><use xlink:href="#d7JDVmeV" opacity="1" fill-opacity="0" stroke="#000000" stroke-width="1" stroke-opacity="0"></use></g></g><g><use xlink:href="#a2LmnAAm14" opacity="1" fill="#000000" fill-opacity="0"></use><g><use xlink:href="#a2LmnAAm14" opacity="1" fill-opacity="0" stroke="#000000" stroke-width="6" stroke-opacity="0"></use></g></g><g><use xlink:href="#h1UboANQSw" opacity="1" fill="#ffffff" fill-opacity="1"></use><g><use xlink:href="#h1UboANQSw" opacity="1" fill-opacity="0" stroke="#000000" stroke-width="1" stroke-opacity="0"></use></g></g><g><use xlink:href="#bgO0ihAr9" opacity="1" fill="#000000" fill-opacity="0"></use><g><use xlink:href="#bgO0ihAr9" opacity="1" fill-opacity="0" stroke="#000000" stroke-width="1" stroke-opacity="0"></use></g></g><g><use xlink:href="#jU1xxyAPe" opacity="1" fill="#ffffff" fill-opacity="1"></use><g><use xlink:href="#jU1xxyAPe" opacity="1" fill-opacity="0" stroke="#000000" stroke-width="1" stroke-opacity="0"></use></g></g><g><use xlink:href="#bmPiGF0E1" opacity="1" fill="#000000" fill-opacity="0"></use><g><use xlink:href="#bmPiGF0E1" opacity="1" fill-opacity="0" stroke="#000000" stroke-width="1" stroke-opacity="0"></use></g></g><g><use xlink:href="#c7INDvq3l" opacity="1" fill="#ffffff" fill-opacity="1"></use><g><use xlink:href="#c7INDvq3l" opacity="1" fill-opacity="0" stroke="#000000" stroke-width="1" stroke-opacity="0"></use></g></g><g><use xlink:href="#db9ikU76n" opacity="1" fill="#000000" fill-opacity="0"></use><g><use xlink:href="#db9ikU76n" opacity="1" fill-opacity="0" stroke="#000000" stroke-width="1" stroke-opacity="0"></use></g></g><g><use xlink:href="#d37r0SROQQ" opacity="1" fill="#ffffff" fill-opacity="1"></use><g><use xlink:href="#d37r0SROQQ" opacity="1" fill-opacity="0" stroke="#000000" stroke-width="1" stroke-opacity="0"></use></g></g><g><use xlink:href="#gOkNPFz67" opacity="1" fill="#000000" fill-opacity="0"></use><g><use xlink:href="#gOkNPFz67" opacity="1" fill-opacity="0" stroke="#000000" stroke-width="1" stroke-opacity="0"></use></g></g><g><use xlink:href="#cLegL1gBz" opacity="1" fill="#ecc01b" fill-opacity="1"></use><g><use xlink:href="#cLegL1gBz" opacity="1" fill-opacity="0" stroke="#000000" stroke-width="1" stroke-opacity="0"></use></g></g><g><use xlink:href="#a2gOKuFhkA" opacity="1" fill="#000000" fill-opacity="0"></use><g><use xlink:href="#a2gOKuFhkA" opacity="1" fill-opacity="0" stroke="#000000" stroke-width="1" stroke-opacity="0"></use></g></g><g><use xlink:href="#h3onyYLrz" opacity="1" fill="#ffffff" fill-opacity="1"></use><g><use xlink:href="#h3onyYLrz" opacity="1" fill-opacity="0" stroke="#000000" stroke-width="1" stroke-opacity="0"></use></g></g><g><use xlink:href="#g1sGim1s5W" opacity="1" fill="#000000" fill-opacity="0"></use><g><use xlink:href="#g1sGim1s5W" opacity="1" fill-opacity="0" stroke="#000000" stroke-width="1" stroke-opacity="0"></use></g></g><g><use xlink:href="#iJ6fgYVYb" opacity="1" fill="#ffffff" fill-opacity="1"></use><g><use xlink:href="#iJ6fgYVYb" opacity="1" fill-opacity="0" stroke="#000000" stroke-width="1" stroke-opacity="0"></use></g></g><g><use xlink:href="#bpCJH8l2U" opacity="1" fill="#000000" fill-opacity="0"></use><g><use xlink:href="#bpCJH8l2U" opacity="1" fill-opacity="0" stroke="#000000" stroke-width="1" stroke-opacity="0"></use></g></g><g><use xlink:href="#b36Lm72pV" opacity="1" fill="#ffffff" fill-opacity="1"></use><g><use xlink:href="#b36Lm72pV" opacity="1" fill-opacity="0" stroke="#000000" stroke-width="1" stroke-opacity="0"></use></g></g><g><use xlink:href="#cMN4rtvAm" opacity="1" fill="#000000" fill-opacity="0"></use><g><use xlink:href="#cMN4rtvAm" opacity="1" fill-opacity="0" stroke="#000000" stroke-width="1" stroke-opacity="0"></use></g></g><g><use xlink:href="#j167Iuv0RG" opacity="1" fill="#ffffff" fill-opacity="1"></use><g><use xlink:href="#j167Iuv0RG" opacity="1" fill-opacity="0" stroke="#000000" stroke-width="1" stroke-opacity="0"></use></g></g><g><use xlink:href="#b5DGw9l49" opacity="1" fill="#000000" fill-opacity="0"></use><g><use xlink:href="#b5DGw9l49" opacity="1" fill-opacity="0" stroke="#000000" stroke-width="1" stroke-opacity="0"></use></g></g></g></g></svg>