<?xml version="1.0" encoding="UTF-8" standalone="no"?>
<!DOCTYPE svg PUBLIC "-//W3C//DTD SVG 1.1//EN" "http://www.w3.org/Graphics/SVG/1.1/DTD/svg11.dtd">
<svg version="1.1" xmlns="http://www.w3.org/2000/svg" xmlns:xlink="http://www.w3.org/1999/xlink" preserveAspectRatio="xMidYMid meet" viewBox="0 0 640 640" width="640" height="640"><defs><path d="M271.46 266.41L337.82 266.41L337.82 383.37L370.46 383.37L306.39 496.93L244.52 382.28L275.95 382.28L275.95 266.41" id="a3BgVSPcgs"></path><path d="M320.09 634.65C146.45 635.23 5.22 495.15 4.66 321.78C4.08 148.41 144.38 7.4 318.02 6.82C491.66 6.24 632.89 146.32 633.45 319.69C634.03 493.06 493.73 634.07 320.09 634.65Z" id="b4pMwMrO5I"></path><path d="M320.09 634.65C146.45 635.23 5.22 495.15 4.66 321.78C4.08 148.41 144.38 7.4 318.02 6.82C491.66 6.24 632.89 146.32 633.45 319.69C634.03 493.06 493.73 634.07 320.09 634.65Z" id="dIn3QCMpc"></path><path d="M231.39 90.83L239.48 90.86L247.49 90.89L255.39 90.92L263.2 90.93L270.88 90.96L278.47 90.97L285.92 90.99L293.27 90.99L300.48 91L334.54 91L340.92 90.99L347.14 90.99L353.22 90.97L359.11 90.96L364.86 90.96L370.43 90.94L375.82 90.93L381.03 90.92L386.06 90.9L390.9 90.89L395.55 90.87L400.01 90.86L404.26 90.84L408.32 90.83L412.17 90.81L415.8 90.81L419.22 90.8L422.41 90.78L425.39 90.77L428.13 90.77L430.64 90.75L436.73 90.75L437.96 90.77L439.19 90.83L440.39 90.94L441.59 91.11L442.76 91.32L443.93 91.57L445.07 91.86L446.2 92.2L447.29 92.59L448.39 93.02L449.46 93.49L450.49 94L451.52 94.54L452.51 95.12L453.49 95.74L454.43 96.4L455.35 97.09L456.24 97.82L457.1 98.57L457.93 99.37L458.73 100.19L459.5 101.05L460.24 101.92L460.94 102.83L461.6 103.77L462.24 104.74L462.83 105.71L463.4 106.74L463.91 107.77L464.4 108.82L464.83 109.91L465.23 111L465.59 112.13L465.9 113.27L466.18 114.42L466.4 115.59L466.58 116.79L466.71 117.99L466.79 119.21L466.82 120.45L466.82 548.81L466.73 554.42L184.83 554.42L184.83 120.73L184.85 119.5L184.92 118.29L185.04 117.08L185.2 115.89L185.41 114.71L185.68 113.55L185.97 112.41L186.32 111.28L186.72 110.17L187.14 109.09L187.6 108.02L188.12 106.99L188.67 105.97L189.25 104.97L189.89 104.01L190.54 103.06L191.23 102.14L191.96 101.25L192.71 100.4L193.51 99.57L194.34 98.78L195.19 98.01L196.08 97.27L196.98 96.57L197.93 95.91L198.89 95.29L199.88 94.68L200.89 94.13L201.93 93.61L202.99 93.14L204.08 92.69L205.17 92.31L206.3 91.95L207.44 91.64L208.59 91.37L209.78 91.15L210.96 90.97L212.16 90.86L213.39 90.78L214.62 90.75L214.92 90.75L223.2 90.8L231.39 90.83ZM212.68 106.72L212.21 106.75L211.73 106.8L210.82 106.94L210.36 107.05L209.91 107.17L209.47 107.31L209.04 107.46L208.61 107.62L208.19 107.82L207.39 108.23L206.62 108.71L206.25 108.97L205.9 109.24L205.22 109.83L204.89 110.14L204.58 110.47L204.28 110.79L203.72 111.51L203.22 112.25L202.99 112.63L202.77 113.03L202.57 113.45L202.39 113.86L202.21 114.29L202.06 114.72L201.93 115.15L201.81 115.61L201.71 116.05L201.62 116.51L201.5 117.46L201.47 117.93L201.47 537.79L450.09 537.79L450.09 537.31L450.11 537.16L450.11 536.87L450.12 536.72L450.12 536.3L450.14 536.17L450.14 535.65L450.15 535.52L450.15 535.05L450.17 534.94L450.17 534.22L450.18 534.11L450.18 117.15L450.15 116.57L450.09 115.48L450.03 114.96L449.96 114.45L449.89 113.98L449.8 113.51L449.69 113.06L449.58 112.63L449.44 112.22L449.29 111.82L449.13 111.43L448.95 111.08L448.76 110.72L448.55 110.39L448.33 110.07L448.09 109.77L447.59 109.21L447.31 108.96L447 108.72L446.69 108.5L446.36 108.28L446.01 108.08L445.65 107.91L445.27 107.73L444.87 107.58L444.45 107.43L444.02 107.3L443.58 107.19L443.1 107.09L442.61 107L442.11 106.91L441.58 106.85L441.04 106.81L440.48 106.77L439.89 106.74L439.3 106.72L438.67 106.71L213.17 106.71L212.68 106.72Z" id="b3plLVFBE"></path><path d="M231.39 90.83L239.48 90.86L247.49 90.89L255.39 90.92L263.2 90.93L270.88 90.96L278.47 90.97L285.92 90.99L293.27 90.99L300.48 91L334.54 91L340.92 90.99L347.14 90.99L353.22 90.97L359.11 90.96L364.86 90.96L370.43 90.94L375.82 90.93L381.03 90.92L386.06 90.9L390.9 90.89L395.55 90.87L400.01 90.86L404.26 90.84L408.32 90.83L412.17 90.81L415.8 90.81L419.22 90.8L422.41 90.78L425.39 90.77L428.13 90.77L430.64 90.75L436.73 90.75L437.96 90.77L439.19 90.83L440.39 90.94L441.59 91.11L442.76 91.32L443.93 91.57L445.07 91.86L446.2 92.2L447.29 92.59L448.39 93.02L449.46 93.49L450.49 94L451.52 94.54L452.51 95.12L453.49 95.74L454.43 96.4L455.35 97.09L456.24 97.82L457.1 98.57L457.93 99.37L458.73 100.19L459.5 101.05L460.24 101.92L460.94 102.83L461.6 103.77L462.24 104.74L462.83 105.71L463.4 106.74L463.91 107.77L464.4 108.82L464.83 109.91L465.23 111L465.59 112.13L465.9 113.27L466.18 114.42L466.4 115.59L466.58 116.79L466.71 117.99L466.79 119.21L466.82 120.45L466.82 548.81L466.73 554.42L184.83 554.42L184.83 120.73L184.85 119.5L184.92 118.29L185.04 117.08L185.2 115.89L185.41 114.71L185.68 113.55L185.97 112.41L186.32 111.28L186.72 110.17L187.14 109.09L187.6 108.02L188.12 106.99L188.67 105.97L189.25 104.97L189.89 104.01L190.54 103.06L191.23 102.14L191.96 101.25L192.71 100.4L193.51 99.57L194.34 98.78L195.19 98.01L196.08 97.27L196.98 96.57L197.93 95.91L198.89 95.29L199.88 94.68L200.89 94.13L201.93 93.61L202.99 93.14L204.08 92.69L205.17 92.31L206.3 91.95L207.44 91.64L208.59 91.37L209.78 91.15L210.96 90.97L212.16 90.86L213.39 90.78L214.62 90.75L214.92 90.75L223.2 90.8L231.39 90.83ZM212.68 106.72L212.21 106.75L211.73 106.8L210.82 106.94L210.36 107.05L209.91 107.17L209.47 107.31L209.04 107.46L208.61 107.62L208.19 107.82L207.39 108.23L206.62 108.71L206.25 108.97L205.9 109.24L205.22 109.83L204.89 110.14L204.58 110.47L204.28 110.79L203.72 111.51L203.22 112.25L202.99 112.63L202.77 113.03L202.57 113.45L202.39 113.86L202.21 114.29L202.06 114.72L201.93 115.15L201.81 115.61L201.71 116.05L201.62 116.51L201.5 117.46L201.47 117.93L201.47 537.79L450.09 537.79L450.09 537.31L450.11 537.16L450.11 536.87L450.12 536.72L450.12 536.3L450.14 536.17L450.14 535.65L450.15 535.52L450.15 535.05L450.17 534.94L450.17 534.22L450.18 534.11L450.18 117.15L450.15 116.57L450.09 115.48L450.03 114.96L449.96 114.45L449.89 113.98L449.8 113.51L449.69 113.06L449.58 112.63L449.44 112.22L449.29 111.82L449.13 111.43L448.95 111.08L448.76 110.72L448.55 110.39L448.33 110.07L448.09 109.77L447.59 109.21L447.31 108.96L447 108.72L446.69 108.5L446.36 108.28L446.01 108.08L445.65 107.91L445.27 107.73L444.87 107.58L444.45 107.43L444.02 107.3L443.58 107.19L443.1 107.09L442.61 107L442.11 106.91L441.58 106.85L441.04 106.81L440.48 106.77L439.89 106.74L439.3 106.72L438.67 106.71L213.17 106.71L212.68 106.72Z" id="c1ISDS0lRo"></path><path d="M218.02 272.53L218.02 222.8L433.55 222.8L433.55 272.53L218.02 272.53ZM234.55 255.98L417 255.98L417 239.43L234.55 239.43L234.55 255.98Z" id="a3OKYtLpvJ"></path><path d="M218.02 272.53L218.02 222.8L433.55 222.8L433.55 272.53L218.02 272.53ZM234.55 255.98L417 255.98L417 239.43L234.55 239.43L234.55 255.98Z" id="b4oWDidaNu"></path><path d="M218.02 338.89L218.02 289.16L433.55 289.16L433.55 338.89L218.02 338.89ZM242.87 322.25L417 322.25L417 305.71L242.87 305.71L242.87 322.25Z" id="b1884PYMLI"></path><path d="M218.02 338.89L218.02 289.16L433.55 289.16L433.55 338.89L218.02 338.89ZM242.87 322.25L417 322.25L417 305.71L242.87 305.71L242.87 322.25Z" id="a15PJ1hamZ"></path><path d="M218.02 413.47L218.02 363.75L433.55 363.75L433.55 413.47L218.02 413.47ZM242.87 396.93L417 396.93L417 380.29L242.87 380.29L242.87 396.93Z" id="a10iqaRybr"></path><path d="M218.02 413.47L218.02 363.75L433.55 363.75L433.55 413.47L218.02 413.47ZM242.87 396.93L417 396.93L417 380.29L242.87 380.29L242.87 396.93Z" id="cR4WMim5g"></path><path d="M218.02 197.84L218.02 148.11L433.55 148.11L433.55 197.84L218.02 197.84ZM242.87 181.39L417 181.39L417 164.76L242.87 164.76L242.87 181.39Z" id="h34qC4Q7Or"></path><path d="M218.02 197.84L218.02 148.11L433.55 148.11L433.55 197.84L218.02 197.84ZM242.87 181.39L417 181.39L417 164.76L242.87 164.76L242.87 181.39Z" id="a28zFczdTB"></path></defs><g><g><g><use xlink:href="#a3BgVSPcgs" opacity="1" fill="#000000" fill-opacity="0"></use><g><use xlink:href="#a3BgVSPcgs" opacity="1" fill-opacity="0" stroke="#000000" stroke-width="1" stroke-opacity="0"></use></g></g><g><use xlink:href="#b4pMwMrO5I" opacity="1" fill="#eabe1b" fill-opacity="1"></use><g><use xlink:href="#b4pMwMrO5I" opacity="1" fill-opacity="0" stroke="#000000" stroke-width="1" stroke-opacity="0"></use></g></g><g><use xlink:href="#dIn3QCMpc" opacity="1" fill="#000000" fill-opacity="0"></use><g><use xlink:href="#dIn3QCMpc" opacity="1" fill-opacity="0" stroke="#000000" stroke-width="1" stroke-opacity="0"></use></g></g><g><use xlink:href="#b3plLVFBE" opacity="1" fill="#ffffff" fill-opacity="1"></use><g><use xlink:href="#b3plLVFBE" opacity="1" fill-opacity="0" stroke="#000000" stroke-width="1" stroke-opacity="0"></use></g></g><g><use xlink:href="#c1ISDS0lRo" opacity="1" fill="#000000" fill-opacity="0"></use><g><use xlink:href="#c1ISDS0lRo" opacity="1" fill-opacity="0" stroke="#000000" stroke-width="1" stroke-opacity="0"></use></g></g><g><use xlink:href="#a3OKYtLpvJ" opacity="1" fill="#ffffff" fill-opacity="1"></use><g><use xlink:href="#a3OKYtLpvJ" opacity="1" fill-opacity="0" stroke="#000000" stroke-width="1" stroke-opacity="0"></use></g></g><g><use xlink:href="#b4oWDidaNu" opacity="1" fill="#000000" fill-opacity="0"></use><g><use xlink:href="#b4oWDidaNu" opacity="1" fill-opacity="0" stroke="#000000" stroke-width="1" stroke-opacity="0"></use></g></g><g><use xlink:href="#b1884PYMLI" opacity="1" fill="#ffffff" fill-opacity="1"></use><g><use xlink:href="#b1884PYMLI" opacity="1" fill-opacity="0" stroke="#000000" stroke-width="1" stroke-opacity="0"></use></g></g><g><use xlink:href="#a15PJ1hamZ" opacity="1" fill="#000000" fill-opacity="0"></use><g><use xlink:href="#a15PJ1hamZ" opacity="1" fill-opacity="0" stroke="#000000" stroke-width="1" stroke-opacity="0"></use></g></g><g><use xlink:href="#a10iqaRybr" opacity="1" fill="#ffffff" fill-opacity="1"></use><g><use xlink:href="#a10iqaRybr" opacity="1" fill-opacity="0" stroke="#000000" stroke-width="1" stroke-opacity="0"></use></g></g><g><use xlink:href="#cR4WMim5g" opacity="1" fill="#000000" fill-opacity="0"></use><g><use xlink:href="#cR4WMim5g" opacity="1" fill-opacity="0" stroke="#000000" stroke-width="1" stroke-opacity="0"></use></g></g><g><use xlink:href="#h34qC4Q7Or" opacity="1" fill="#ffffff" fill-opacity="1"></use><g><use xlink:href="#h34qC4Q7Or" opacity="1" fill-opacity="0" stroke="#000000" stroke-width="1" stroke-opacity="0"></use></g></g><g><use xlink:href="#a28zFczdTB" opacity="1" fill="#000000" fill-opacity="0"></use><g><use xlink:href="#a28zFczdTB" opacity="1" fill-opacity="0" stroke="#000000" stroke-width="1" stroke-opacity="0"></use></g></g></g></g></svg>