<?xml version="1.0" encoding="UTF-8" standalone="no"?>
<!DOCTYPE svg PUBLIC "-//W3C//DTD SVG 1.1//EN" "http://www.w3.org/Graphics/SVG/1.1/DTD/svg11.dtd">
<svg version="1.1" xmlns="http://www.w3.org/2000/svg" xmlns:xlink="http://www.w3.org/1999/xlink" preserveAspectRatio="xMidYMid meet" viewBox="0 0 640 640" width="640" height="640"><defs><path d="M469.68 288.07C478.98 282.12 490.5 280.76 500.93 284.41C504.93 285.8 508.46 288.26 511.14 291.54C503.13 296.8 438.94 338.92 430.91 344.19C428.4 335.2 423.05 327.26 415.68 321.53C418.03 320.07 426.27 314.93 427.44 314.19C441.52 305.52 455.51 296.65 469.68 288.07Z" id="a7KHgoHbR"></path><path d="M469.68 288.07C478.98 282.12 490.5 280.76 500.93 284.41C504.93 285.8 508.46 288.26 511.14 291.54C503.13 296.8 438.94 338.92 430.91 344.19C428.4 335.2 423.05 327.26 415.68 321.53C418.03 320.07 426.27 314.93 427.44 314.19C441.52 305.52 455.51 296.65 469.68 288.07Z" id="cMolkJGtC"></path><path d="M320.44 634.08C147.36 634.66 6.58 495.01 6 322.19C5.43 149.39 145.27 8.82 318.36 8.24C491.45 7.66 632.22 147.31 632.8 320.13C633.38 492.95 493.53 633.5 320.44 634.08Z" id="bhYPeNvSj"></path><path d="M320.44 634.08C147.36 634.66 6.58 495.01 6 322.19C5.43 149.39 145.27 8.82 318.36 8.24C491.45 7.66 632.22 147.31 632.8 320.13C633.38 492.95 493.53 633.5 320.44 634.08Z" id="b1wb6TFDu6"></path><path d="M273.59 145.8L273.74 146.02L274.06 146.46L274.22 146.67L274.55 147.11L274.73 147.32L274.89 147.54L275.24 147.99L275.41 148.19L275.58 148.41L275.75 148.63L275.92 148.86L276.09 149.06L276.41 149.51L276.56 149.73L276.72 149.95L276.87 150.17L277.02 150.38L277.41 151.04L277.77 151.71L277.86 151.93L277.96 152.15L278.03 152.37L278.12 152.59L278.24 153.04L278.29 153.26L278.34 153.7L278.36 153.94L278.37 155.01L278.43 156.03L278.52 157.02L278.64 157.97L278.8 158.87L278.98 159.74L279.2 160.57L279.45 161.35L279.75 162.09L280.06 162.8L280.4 163.47L280.77 164.12L281.16 164.73L281.59 165.31L282.05 165.84L282.52 166.35L283.04 166.84L283.57 167.3L284.12 167.73L284.69 168.13L285.3 168.51L285.92 168.86L286.57 169.19L287.23 169.5L287.91 169.79L288.62 170.06L289.35 170.31L290.08 170.55L291.62 170.96L292.42 171.15L293.21 171.32L294.04 171.48L295.72 171.77L296.6 171.91L297.47 172.02L298.35 172.14L299.24 172.25L300.15 172.35L301.66 172.59L302.4 172.72L303.15 172.84L303.9 172.97L304.66 173.12L305.4 173.25L306.15 173.38L306.89 173.53L307.64 173.68L308.38 173.83L309.13 173.99L309.87 174.15L310.62 174.3L311.36 174.46L312.1 174.64L312.84 174.8L313.58 174.98L314.33 175.15L315.81 175.51L316.53 175.7L319.48 176.47L320.21 176.68L320.94 176.88L321.67 177.09L322.41 177.3L323.13 177.52L323.87 177.74L324.59 177.95L325.31 178.18L326.76 178.62L328.93 179.33L329.66 179.58L330.26 179.75L330.85 179.91L331.43 180.06L332 180.19L332.58 180.31L333.14 180.43L333.7 180.51L334.25 180.6L334.79 180.68L335.34 180.74L335.87 180.77L336.39 180.8L336.91 180.81L337.42 180.8L337.92 180.77L338.43 180.72L338.93 180.66L339.42 180.59L339.89 180.5L340.36 180.38L340.83 180.23L341.29 180.09L341.75 179.91L342.19 179.7L342.64 179.48L343.06 179.24L343.49 178.98L343.92 178.68L344.33 178.37L344.73 178.03L345.15 177.68L345.53 177.28L345.93 176.87L346.31 176.44L346.68 175.97L347.05 175.48L347.42 174.95L347.77 174.4L348.11 173.83L348.47 173.22L348.81 172.6L349.16 172.02L349.53 171.46L349.9 170.93L350.28 170.43L350.67 169.96L351.07 169.5L351.47 169.09L351.88 168.69L352.31 168.3L352.74 167.96L353.16 167.65L353.62 167.36L354.06 167.09L354.52 166.86L354.99 166.65L355.47 166.46L355.94 166.31L356.43 166.18L356.91 166.07L357.92 165.96L358.42 165.94L358.94 165.96L359.45 165.98L359.97 166.06L360.5 166.15L361.03 166.27L361.58 166.43L362.13 166.61L362.67 166.81L363.22 167.03L363.77 167.3L364.33 167.59L364.89 167.9L365.46 168.26L366.02 168.64L366.6 169.04L367.18 169.47L368.33 170.41L368.9 170.87L369.46 171.33L370.04 171.79L370.6 172.22L371.16 172.66L371.71 173.09L372.27 173.5L372.82 173.93L373.36 174.33L373.92 174.74L374.47 175.14L375 175.52L375.55 175.92L376.09 176.31L376.63 176.69L377.17 177.06L377.72 177.44L378.25 177.81L378.8 178.18L379.33 178.55L379.87 178.92L380.41 179.27L380.95 179.64L381.48 180.01L382.03 180.37L382.58 180.74L383.12 181.09L383.67 181.46L384.22 181.81L385.31 182.55L385.87 182.91L386.43 183.28L386.99 183.66L387.55 184.03L388.11 184.41L388.69 184.78L389.25 185.17L389.83 185.56L390.26 185.74L390.65 185.93L391.05 186.16L391.44 186.38L391.82 186.61L392.17 186.86L392.53 187.13L392.87 187.41L393.18 187.71L393.5 188L393.8 188.31L394.08 188.64L394.35 188.96L394.61 189.32L394.85 189.65L395.08 190.02L395.31 190.39L395.5 190.76L395.69 191.15L395.87 191.53L396.16 192.33L396.4 193.15L396.58 193.98L396.63 194.41L396.68 194.84L396.71 195.27L396.72 195.69L396.72 196.14L396.66 196.99L396.6 197.44L396.53 197.86L396.44 198.31L396.34 198.74L396.21 199.16L396.06 199.59L395.9 200.02L395.85 200.14L395.79 200.27L395.73 200.39L395.69 200.51L395.45 200.98L395.38 201.1L395.26 201.33L395.19 201.45L395.13 201.56L395.05 201.67L394.98 201.78L394.91 201.9L394.83 202L394.76 202.12L394.61 202.32L394.54 202.44L394.45 202.55L394.38 202.65L394.29 202.75L394.21 202.86L394.12 202.96L394.04 203.05L393.95 203.15L393.87 203.25L393.77 203.34L393.68 203.45L393.59 203.53L393.5 203.64L393.42 203.73L393.31 203.82L393.22 203.92L393.02 204.1L392.93 204.18L392.82 204.27L392.34 204.82L391.89 205.37L391.47 205.91L391.08 206.46L390.71 206.99L390.39 207.52L390.09 208.05L389.81 208.58L389.58 209.1L389.35 209.62L389.16 210.14L389 210.65L388.87 211.17L388.76 211.67L388.68 212.19L388.62 212.69L388.59 213.19L388.57 213.69L388.59 214.2L388.62 214.71L388.68 215.21L388.75 215.72L388.85 216.22L388.97 216.72L389.1 217.22L389.27 217.72L389.44 218.23L389.65 218.73L389.86 219.25L390.09 219.75L390.34 220.26L390.61 220.78L391.2 221.81L391.51 222.33L392.19 223.39L392.54 223.93L392.91 224.46L393.3 225L393.83 225.74L394.86 227.22L395.38 227.97L395.9 228.71L396.41 229.46L396.93 230.2L398.44 232.46L398.95 233.21L399.44 233.97L399.94 234.74L400.44 235.49L400.93 236.24L401.42 237.01L401.92 237.78L402.41 238.53L402.89 239.3L403.37 240.07L403.85 240.83L404.33 241.6L404.81 242.37L405.29 243.14L405.76 243.92L406.23 244.69L406.69 245.47L407.16 246.24L407.62 247.02L408.09 247.8L409.47 250.15L409.91 250.93L410.37 251.72L410.81 252.5L411.27 253.3L411.71 254.08L412.15 254.88L412.6 255.66L412.88 256.18L413.17 256.68L413.47 257.16L414.06 258.11L414.35 258.57L414.66 259.01L414.97 259.44L415.28 259.85L415.61 260.27L415.92 260.66L416.26 261.03L416.58 261.4L416.92 261.76L417.28 262.1L417.62 262.42L417.99 262.73L418.72 263.29L419.11 263.54L419.51 263.79L419.91 264.02L420.32 264.22L421.18 264.58L421.62 264.72L422.08 264.86L422.53 264.96L423.02 265.06L423.51 265.12L424.01 265.18L424.53 265.21L425.06 265.21L425.6 265.2L426.15 265.17L426.73 265.11L427.32 265.02L427.92 264.92L428.54 264.78L429.18 264.64L430.03 264.41L430.86 264.24L431.67 264.09L432.46 263.97L433.21 263.88L433.95 263.82L434.66 263.81L435.35 263.81L436.03 263.85L436.66 263.93L437.3 264.02L437.89 264.15L438.48 264.31L439.04 264.49L439.57 264.71L440.09 264.95L440.59 265.23L441.06 265.52L441.52 265.85L441.97 266.2L442.38 266.59L442.78 266.98L443.16 267.41L443.53 267.87L443.87 268.34L444.2 268.86L444.51 269.38L444.8 269.94L445.07 270.51L445.33 271.12L445.57 271.74L445.79 272.39L446 273.05L446.19 273.75L446.37 274.46L446.53 275.19L446.68 275.95L446.79 276.71L446.91 277.51L447.02 278.32L447.07 278.91L447.15 279.49L447.21 280.08L447.28 280.66L447.34 281.25L447.41 281.82L447.49 282.41L447.64 283.57L447.72 284.16L447.8 284.73L447.89 285.31L447.96 285.9L448.14 287.05L448.23 287.64L448.4 288.79L448.51 289.37L448.6 289.96L448.8 291.11L448.89 291.69L449.1 292.84L449.22 293.43L449.42 294.58L449.54 295.16L449.64 295.73L450 297.46L450.12 298.02L450.23 298.6L450.37 299.17L450.49 299.75L450.62 300.33L450.74 300.9L450.87 301.46L451.02 302.14L451.15 302.79L451.27 303.41L451.36 304.02L451.45 304.61L451.49 305.17L451.53 305.71L451.55 306.25L451.55 306.75L451.53 307.24L451.49 307.71L451.34 308.59L451.24 309.01L451.12 309.41L450.97 309.79L450.62 310.5L450.41 310.82L450.18 311.15L449.92 311.44L449.64 311.74L449.35 312.01L449.02 312.27L448.68 312.51L448.31 312.74L447.93 312.95L447.52 313.16L447.07 313.35L446.62 313.53L446.13 313.69L445.63 313.84L445.08 313.98L444.53 314.12L443.94 314.23L443.34 314.34L442.7 314.44L442.04 314.53L441.36 314.6L440.65 314.68L437.06 315.05L433.5 315.5L430.01 316.07L426.55 316.73L423.14 317.48L419.77 318.32L416.46 319.26L413.22 320.29L410.01 321.4L406.87 322.61L403.78 323.91L400.75 325.28L397.79 326.76L394.89 328.31L392.04 329.95L389.27 331.66L386.56 333.46L383.92 335.34L381.34 337.3L378.84 339.34L376.4 341.46L374.06 343.65L371.77 345.92L369.57 348.27L367.44 350.69L365.4 353.19L363.43 355.74L361.55 358.37L359.75 361.07L358.04 363.85L356.41 366.68L354.88 369.59L353.43 372.56L352.07 375.6L350.82 378.7L349.65 381.86L348.57 385.08L347.61 388.36L346.73 391.7L345.96 395.11L345.63 397.35L345.5 398.47L345.35 399.61L345.22 400.73L345.1 401.86L344.98 402.99L344.88 404.11L344.78 405.25L344.69 406.37L344.6 407.51L344.53 408.63L344.45 409.77L344.39 410.91L344.33 412.03L344.24 414.3L344.22 415.44L344.19 416.56L344.17 417.7L344.17 421.1L344.19 422.23L344.22 423.37L344.24 424.49L344.27 425.63L344.32 426.77L344.38 427.9L344.44 429.03L344.58 431.3L344.67 432.42L344.76 433.56L344.86 434.68L344.97 435.82L345.09 436.94L345.2 438.08L345.34 439.2L345.47 440.34L345.47 440.76L345.49 441.19L345.49 443.98L345.46 444.72L345.44 445.08L345.43 445.42L345.4 445.75L345.35 446.08L345.31 446.42L345.19 447.04L345.12 447.35L345.04 447.64L344.95 447.94L344.85 448.22L344.73 448.5L344.6 448.77L344.3 449.3L343.95 449.8L343.74 450.04L343.52 450.27L343.28 450.49L343.03 450.72L342.75 450.94L342.46 451.14L342.15 451.35L341.82 451.54L341.47 451.74L341.08 451.93L340.69 452.1L340.27 452.28L339.8 452.44L339.34 452.61L338.9 452.8L338.46 453L338.04 453.23L337.63 453.46L337.22 453.71L336.83 453.98L336.46 454.26L336.09 454.56L335.74 454.87L335.41 455.18L335.09 455.52L334.78 455.85L334.48 456.21L334.2 456.58L333.94 456.95L333.67 457.33L333.44 457.73L333.21 458.13L333.01 458.53L332.82 458.96L332.49 459.81L332.34 460.24L332.23 460.68L332.11 461.14L332.02 461.6L331.94 462.06L331.89 462.51L331.86 462.97L331.83 463.44L331.83 463.92L331.89 464.86L331.94 465.33L332.02 465.81L332.11 466.29L332.23 466.77L332.36 467.24L332.37 467.27L332.39 467.31L332.4 467.34L332.4 467.37L332.42 467.4L332.42 467.42L332.45 467.48L332.45 467.51L332.46 467.53L332.46 467.56L332.48 467.58L332.49 467.61L332.49 467.64L332.52 467.7L332.52 467.71L332.54 467.74L332.54 467.77L332.55 467.8L332.56 467.82L332.56 467.84L332.59 467.9L332.59 467.93L332.61 467.95L332.62 467.98L332.64 468.04L332.65 468.07L332.67 468.08L332.67 468.11L332.7 468.17L332.7 468.18L332.73 468.24L332.73 468.27L332.74 468.29L332.93 469.1L333.11 469.9L333.24 470.66L333.35 471.42L333.42 472.14L333.47 472.85L333.5 473.53L333.48 474.19L333.45 474.83L333.38 475.45L333.29 476.05L333.17 476.63L333.02 477.19L332.85 477.74L332.65 478.25L332.43 478.76L332.18 479.24L331.9 479.7L331.59 480.14L331.27 480.57L330.91 480.99L330.53 481.37L330.13 481.75L329.7 482.11L329.24 482.45L328.77 482.76L328.27 483.07L327.75 483.35L327.2 483.61L326.63 483.88L326.04 484.12L325.42 484.34L324.78 484.54L324.13 484.72L323.44 484.9L322.75 485.06L322.02 485.21L321.28 485.34L320.52 485.46L319.73 485.55L319.14 485.62L318.57 485.68L317.99 485.76L317.4 485.83L316.25 485.98L315.66 486.05L315.08 486.12L314.51 486.21L313.93 486.29L313.34 486.38L312.76 486.46L312.19 486.54L311.04 486.72L310.46 486.82L309.87 486.91L309.29 487L308.14 487.2L307.57 487.29L305.26 487.7L304.69 487.82L304.13 487.93L303.55 488.04L302.97 488.15L301.25 488.5L300.69 488.62L300.11 488.74L299.53 488.87L298.96 488.99L298.4 489.12L297.82 489.24L297.24 489.37L296.68 489.51L295.93 489.68L295.19 489.83L294.47 489.95L293.76 490.05L293.07 490.14L292.37 490.2L291.71 490.23L291.06 490.24L290.42 490.24L289.8 490.22L289.2 490.16L288.62 490.08L288.05 489.98L287.48 489.86L286.95 489.71L286.42 489.55L285.92 489.34L285.43 489.14L284.96 488.89L284.5 488.64L284.07 488.34L283.65 488.03L283.25 487.69L282.88 487.32L282.51 486.94L282.17 486.54L281.84 486.1L281.53 485.64L281.24 485.15L280.97 484.63L280.74 484.1L280.5 483.54L280.29 482.95L280.1 482.34L279.94 481.71L279.79 481.05L279.67 480.35L279.57 479.64L279.48 478.9L279.36 477.37L279.29 476.63L279.2 475.92L279.1 475.24L278.96 474.58L278.83 473.96L278.68 473.35L278.51 472.78L278.33 472.23L278.12 471.7L277.92 471.2L277.68 470.72L277.44 470.27L277.18 469.82L276.91 469.41L276.62 469.01L276.32 468.64L276 468.29L275.67 467.95L274.96 467.33L274.58 467.05L274.2 466.78L273.78 466.53L273.37 466.29L272.94 466.07L272.5 465.87L271.55 465.48L271.06 465.32L270.56 465.16L270.05 465.01L269.51 464.88L268.97 464.74L268.42 464.63L267.27 464.42L266.66 464.32L266.06 464.23L265.44 464.15L264.54 464.01L263.65 463.86L262.77 463.7L261.87 463.55L260.98 463.39L260.08 463.22L257.42 462.74L256.54 462.56L255.63 462.4L253.86 462.04L252.98 461.85L252.09 461.67L251.2 461.48L250.32 461.3L249.43 461.11L248.56 460.92L247.68 460.71L246.79 460.52L245.9 460.31L245.03 460.11L243.26 459.69L242.39 459.49L241.5 459.27L240.63 459.04L239.75 458.84L238.88 458.62L238 458.38L237.12 458.16L231.89 456.74L230.15 456.24L229.51 456.06L228.88 455.9L228.27 455.74L227.65 455.59L227.06 455.46L226.46 455.34L225.87 455.23L225.29 455.13L224.71 455.06L224.15 454.98L223.59 454.92L222.5 454.87L221.97 454.87L221.44 454.88L220.91 454.91L220.39 454.95L219.89 455.03L219.38 455.12L218.88 455.23L218.39 455.35L217.92 455.52L217.44 455.68L216.98 455.88L216.5 456.11L216.06 456.34L215.6 456.61L215.16 456.9L214.73 457.23L214.3 457.57L213.88 457.94L213.46 458.34L213.06 458.76L212.65 459.22L212.27 459.71L211.87 460.23L211.48 460.77L211.12 461.35L210.75 461.97L210.38 462.6L210.01 463.25L209.64 463.86L209.27 464.43L208.89 464.98L208.5 465.5L208.12 465.98L207.72 466.44L207.32 466.87L206.92 467.27L206.51 467.64L206.09 467.98L205.67 468.29L205.24 468.55L204.81 468.8L204.38 469.04L203.94 469.23L203.5 469.4L203.04 469.53L202.58 469.65L202.12 469.73L201.65 469.78L201.18 469.81L200.71 469.82L200.22 469.79L199.73 469.75L199.23 469.68L198.74 469.57L198.24 469.45L197.72 469.31L197.21 469.13L196.69 468.92L196.16 468.7L195.63 468.46L195.09 468.18L194.55 467.89L194 467.58L193.46 467.24L192.89 466.87L192.33 466.49L191.76 466.07L191.2 465.66L190.04 464.83L189.48 464.42L188.33 463.59L187.18 462.79L186.6 462.38L185.45 461.58L184.89 461.19L180.28 458L179.69 457.6L176.24 455.21L175.66 454.79L175.09 454.39L174.5 453.98L171.62 451.91L171.03 451.48L170.45 451.07L168.72 449.79L168.15 449.34L167.6 448.91L167.08 448.49L166.6 448.06L166.12 447.63L165.67 447.2L165.25 446.77L164.85 446.35L164.47 445.93L164.13 445.5L163.81 445.08L163.5 444.65L163.23 444.23L162.98 443.81L162.74 443.38L162.55 442.95L162.37 442.52L162.23 442.09L162.11 441.66L162 441.24L161.93 440.79L161.89 440.37L161.87 439.92L161.87 439.49L161.9 439.05L161.96 438.61L162.05 438.17L162.17 437.71L162.3 437.25L162.46 436.81L162.65 436.35L162.87 435.88L163.13 435.42L163.41 434.95L163.7 434.47L164.03 433.99L164.4 433.51L164.78 433.03L165.19 432.54L165.64 432.04L166.18 431.42L166.7 430.81L167.17 430.21L167.61 429.6L168.01 429.01L168.38 428.42L168.72 427.83L169.02 427.25L169.28 426.68L169.52 426.12L169.73 425.54L169.89 424.98L170.04 424.42L170.14 423.87L170.21 423.31L170.27 422.76L170.29 422.22L170.29 421.66L170.26 421.11L170.2 420.58L170.11 420.03L170.01 419.49L169.87 418.94L169.73 418.39L169.55 417.86L169.34 417.32L169.12 416.77L168.62 415.68L168.32 415.13L168.03 414.57L167.7 414.02L167.36 413.46L167.01 412.9L166.64 412.34L166.26 411.78L165.86 411.2L165.44 410.63L165.02 410.05L164.57 409.47L164.06 408.77L163.54 408.04L163.04 407.33L162.52 406.61L162.02 405.9L161.01 404.45L160.53 403.73L160.03 403.01L159.54 402.28L159.05 401.55L158.56 400.82L158.08 400.08L157.59 399.36L156.17 397.15L155.7 396.39L155.23 395.65L154.77 394.92L154.31 394.16L153.85 393.42L152.48 391.17L151.59 389.66L151.15 388.89L150.71 388.14L150.28 387.37L149.84 386.62L148.12 383.55L147.71 382.78L147.3 382L146.88 381.23L146.47 380.45L146.06 379.68L145.76 379.15L145.47 378.63L145.17 378.13L144.88 377.64L144.57 377.17L144.27 376.69L143.95 376.25L143.63 375.82L143.31 375.4L142.99 375L142.66 374.61L142.32 374.23L141.63 373.53L141.26 373.21L140.9 372.9L140.53 372.6L140.15 372.32L139.77 372.07L139.37 371.82L138.97 371.6L138.56 371.39L138.13 371.2L137.7 371.04L137.26 370.89L136.8 370.76L136.34 370.64L135.87 370.54L135.4 370.46L134.39 370.37L133.87 370.36L133.34 370.36L132.8 370.39L132.25 370.43L131.67 370.51L131.1 370.6L130.51 370.71L129.9 370.85L129.28 370.99L128.47 371.2L127.67 371.36L126.91 371.51L126.15 371.63L125.43 371.72L124.72 371.78L124.04 371.81L123.38 371.81L122.73 371.78L122.11 371.73L121.5 371.64L120.91 371.54L120.35 371.41L119.8 371.25L119.29 371.05L118.78 370.85L118.3 370.61L117.82 370.35L117.38 370.05L116.95 369.73L116.54 369.39L116.14 369.02L115.76 368.62L115.4 368.2L115.06 367.76L114.74 367.29L114.43 366.8L114.15 366.28L113.87 365.74L113.62 365.18L113.38 364.59L113.16 363.98L112.94 363.35L112.74 362.68L112.57 362L112.42 361.31L112.27 360.57L112.14 359.83L112.02 359.06L111.92 358.27L111.86 357.69L111.78 357.1L111.71 356.52L111.65 355.95L111.58 355.36L111.5 354.78L111.42 354.21L111.34 353.62L111.27 353.04L111.18 352.46L111.11 351.89L111.02 351.31L110.93 350.72L110.66 348.99L110.56 348.42L110.47 347.84L110.37 347.27L110.28 346.69L109.66 343.24L109.54 342.66L109.44 342.08L109.2 340.93L109.08 340.37L108.61 338.07L108.48 337.51L108.36 336.93L108.23 336.35L108.09 335.79L107.96 335.22L107.8 334.51L107.65 333.8L107.52 333.09L107.41 332.41L107.33 331.73L107.25 331.07L107.22 330.4L107.19 329.77L107.19 329.13L107.22 328.51L107.27 327.92L107.33 327.33L107.43 326.76L107.53 326.2L107.68 325.65L107.83 325.12L108.02 324.6L108.23 324.1L108.46 323.61L108.71 323.14L108.99 322.7L109.3 322.25L109.63 321.84L109.98 321.44L110.35 321.07L110.77 320.7L111.19 320.36L111.65 320.04L112.12 319.74L112.63 319.46L113.16 319.2L113.72 318.96L114.31 318.75L114.92 318.55L115.55 318.38L116.21 318.22L116.91 318.1L117.63 318L118.37 317.91L119.15 317.87L119.92 317.81L120.66 317.73L121.37 317.63L122.05 317.51L122.7 317.38L123.32 317.22L123.91 317.06L124.47 316.85L125.02 316.64L125.53 316.41L126.02 316.15L126.48 315.89L126.92 315.59L127.33 315.3L127.73 314.97L128.12 314.65L128.47 314.29L128.81 313.92L129.13 313.54L129.73 312.74L129.99 312.32L130.49 311.43L130.94 310.48L131.14 310L131.53 308.99L131.69 308.46L131.87 307.93L132.03 307.38L132.18 306.84L132.32 306.28L132.47 305.7L132.6 305.12L132.87 303.94L133 303.34L133.14 302.72L133.28 301.86L133.58 300.12L133.74 299.26L133.9 298.39L134.05 297.53L134.21 296.66L134.39 295.81L134.55 294.94L134.73 294.08L134.89 293.22L135.07 292.35L135.25 291.5L135.44 290.64L135.62 289.78L135.81 288.91L135.99 288.05L136.37 286.34L136.58 285.49L136.77 284.63L137.39 282.06L137.6 281.22L137.8 280.36L138.02 279.51L138.23 278.66L138.67 276.95L138.91 276.11L139.13 275.25L139.37 274.41L139.59 273.55L140.06 271.87L140.31 271.01L140.55 270.17L140.8 269.33L141.04 268.49L141.39 267.25L141.55 266.63L141.7 266.02L141.97 264.84L142.08 264.25L142.19 263.68L142.28 263.1L142.42 261.98L142.47 261.43L142.5 260.89L142.51 260.34L142.51 259.81L142.5 259.29L142.45 258.77L142.39 258.26L142.32 257.76L142.22 257.25L142.1 256.77L141.97 256.28L141.8 255.79L141.61 255.32L141.41 254.86L141.17 254.4L140.9 253.95L140.61 253.5L140.3 253.06L139.96 252.62L139.59 252.19L139.19 251.77L138.76 251.36L138.3 250.95L137.8 250.55L137.29 250.15L136.74 249.75L136.15 249.37L135.53 249L134.86 248.63L134.45 248.45L134.04 248.26L133.64 248.05L133.25 247.83L132.87 247.6L132.52 247.35L132.16 247.08L131.82 246.81L131.17 246.22L130.88 245.91L130.32 245.26L130.05 244.92L129.8 244.58L129.58 244.21L129.36 243.86L129.15 243.48L128.96 243.11L128.78 242.71L128.62 242.32L128.47 241.93L128.34 241.51L128.22 241.1L128.04 240.27L127.97 239.84L127.92 239.42L127.86 238.56L127.86 238.13L127.88 237.69L127.92 237.26L127.97 236.82L128.04 236.39L128.13 235.95L128.23 235.52L128.35 235.09L128.65 234.23L128.71 234.11L128.8 233.88L128.84 233.78L128.9 233.66L128.94 233.55L129 233.44L129.06 233.33L129.11 233.21L129.28 232.9L129.34 232.79L129.42 232.68L129.53 232.48L129.61 232.37L129.67 232.27L129.74 232.17L129.8 232.06L129.87 231.96L129.95 231.87L130.09 231.66L130.17 231.58L130.32 231.37L130.46 231.19L130.55 231.09L130.63 231L130.71 230.91L130.79 230.82L130.97 230.64L131.04 230.56L131.39 230.2L131.81 229.64L132.63 228.49L133.05 227.93L134.29 226.2L134.69 225.64L135.51 224.49L135.93 223.93L136.75 222.77L137.15 222.2L137.57 221.64L137.98 221.06L138.38 220.49L139.21 219.33L139.6 218.77L140.02 218.2L140.42 217.62L140.83 217.05L141.63 215.89L142.04 215.32L142.44 214.76L143.24 213.61L143.65 213.03L144.85 211.3L145.23 210.73L146.03 209.57L146.43 208.98L146.81 208.41L147.21 207.83L147.59 207.26L148.04 206.46L148.27 206.07L148.52 205.71L148.79 205.35L149.05 205.01L149.35 204.67L149.64 204.36L149.95 204.05L150.28 203.76L150.6 203.49L150.94 203.22L151.3 202.97L151.65 202.74L152.02 202.52L152.41 202.31L152.78 202.12L153.17 201.94L153.56 201.79L153.96 201.64L154.37 201.51L154.78 201.39L155.2 201.29L155.61 201.22L156.04 201.14L156.45 201.1L156.88 201.05L157.31 201.04L157.74 201.04L158.18 201.05L158.61 201.08L159.46 201.2L159.89 201.29L160.32 201.39L160.75 201.51L161.18 201.64L161.61 201.81L162.02 201.98L162.43 202.18L162.64 202.26L162.73 202.32L162.83 202.37L162.92 202.43L163.02 202.49L163.11 202.53L163.21 202.59L163.3 202.65L163.41 202.71L163.58 202.83L163.69 202.88L163.86 203L163.95 203.08L164.13 203.2L164.22 203.27L164.31 203.33L164.48 203.48L164.57 203.53L164.66 203.61L164.74 203.68L164.91 203.83L164.99 203.9L165.08 203.98L165.15 204.05L165.24 204.13L165.55 204.44L165.62 204.52L165.7 204.6L165.77 204.69L165.84 204.76L165.92 204.85L166.48 205.34L167.04 205.81L167.59 206.24L168.13 206.64L168.68 206.99L169.21 207.33L169.76 207.62L170.29 207.89L170.8 208.14L171.34 208.35L171.85 208.53L172.37 208.69L172.89 208.81L173.39 208.91L173.91 208.98L174.41 209.03L174.92 209.06L175.43 209.06L175.93 209.03L176.43 208.98L176.93 208.91L177.43 208.82L177.94 208.7L178.44 208.57L178.94 208.41L179.44 208.23L179.94 208.04L180.45 207.83L180.95 207.6L181.47 207.36L181.97 207.09L182.48 206.81L182.99 206.52L183.5 206.21L184.02 205.88L184.54 205.54L185.07 205.19L185.58 204.83L186.12 204.46L186.65 204.08L188.07 203.05L188.79 202.53L189.5 202.03L190.21 201.51L191.65 200.51L192.36 200.02L193.81 199.02L194.53 198.53L195.27 198.04L196.72 197.07L197.46 196.59L198.2 196.11L198.92 195.63L201.13 194.22L201.89 193.74L203.36 192.83L204.12 192.37L204.85 191.91L206.36 191L209.37 189.23L210.14 188.78L210.89 188.36L211.66 187.91L212.41 187.48L214.72 186.2L216.25 185.37L216.84 185.05L217.42 184.72L217.98 184.4L218.53 184.07L219.06 183.73L219.58 183.41L220.06 183.07L220.55 182.71L221.02 182.38L221.48 182.02L221.92 181.65L222.34 181.28L222.74 180.91L223.12 180.53L223.49 180.15L223.84 179.75L224.18 179.33L224.49 178.92L224.79 178.51L225.05 178.08L225.31 177.64L225.54 177.18L225.76 176.72L225.95 176.25L226.12 175.77L226.27 175.27L226.4 174.77L226.5 174.25L226.59 173.72L226.65 173.18L226.68 172.61L226.69 172.05L226.68 171.46L226.65 170.86L226.59 170.25L226.5 169.62L226.38 168.98L226.25 168.32L226.09 167.64L225.9 166.94L225.72 166.25L225.56 165.57L225.41 164.91L225.31 164.26L225.23 163.62L225.17 163L225.14 162.4L225.14 161.81L225.16 161.22L225.22 160.65L225.29 160.11L225.39 159.58L225.51 159.04L225.66 158.54L225.84 158.06L226.03 157.57L226.25 157.11L226.5 156.67L226.77 156.22L227.06 155.81L227.37 155.41L227.71 155.01L228.07 154.64L228.45 154.28L228.86 153.94L229.29 153.6L229.74 153.29L230.21 152.98L230.71 152.68L231.21 152.42L231.76 152.15L232.3 151.9L232.88 151.68L233.49 151.46L234.09 151.25L234.73 151.07L235.39 150.89L236.07 150.73L236.76 150.58L237.47 150.47L238.2 150.33L238.9 150.21L239.61 150.08L240.32 149.96L241.02 149.83L241.7 149.71L242.39 149.58L243.07 149.45L243.75 149.33L244.41 149.2L245.09 149.06L245.76 148.93L246.41 148.81L247.07 148.68L249.67 148.15L250.3 148.01L250.95 147.88L252.86 147.48L253.49 147.34L256.03 146.8L256.67 146.66L258.57 146.26L259.21 146.11L261.11 145.71L261.76 145.56L262.41 145.43L263.05 145.3L263.7 145.15L273.15 145.15L273.44 145.59L273.59 145.8ZM272.23 240.94L269.12 241.29L266.06 241.76L263.02 242.35L260.03 243.05L257.1 243.88L254.22 244.81L251.37 245.84L248.59 246.99L245.86 248.23L243.19 249.59L240.59 251.04L238.03 252.59L235.55 254.23L233.15 255.97L230.81 257.78L228.54 259.69L226.35 261.68L224.23 263.76L222.2 265.92L220.26 268.15L218.39 270.45L216.61 272.83L214.92 275.28L213.33 277.79L211.84 280.36L210.44 283L209.14 285.69L207.96 288.45L206.86 291.26L205.87 294.11L205 297.02L204.25 299.97L203.6 302.97L203.07 306.01L202.67 309.1L202.37 312.21L202.23 315.36L202.18 318.53L202.29 321.69L202.51 324.82L202.85 327.91L203.3 330.95L203.88 333.96L204.59 336.93L205.39 339.85L206.32 342.72L207.34 345.54L208.47 348.31L209.7 351.03L211.04 353.69L212.47 356.29L214.01 358.83L215.62 361.29L217.33 363.7L219.13 366.03L221.02 368.29L223 370.48L225.05 372.59L227.18 374.61L229.38 376.56L231.67 378.44L234.02 380.21L236.44 381.89L238.92 383.5L241.47 384.99L244.09 386.41L246.76 387.71L249.48 388.92L252.27 390.03L255.1 391.03L257.98 391.92L260.91 392.7L263.87 393.37L266.9 393.91L269.94 394.34L273.04 394.66L276.16 394.84L279.32 394.92L282.46 394.87L285.59 394.72L288.67 394.44L291.72 394.04L294.73 393.51L297.7 392.88L300.63 392.13L303.51 391.27L306.33 390.29L309.12 389.22L311.83 388.03L314.51 386.75L317.12 385.36L319.67 383.89L322.15 382.31L324.58 380.64L326.92 378.88L329.21 377.03L331.43 375.11L333.55 373.09L335.61 371.01L337.59 368.84L339.48 366.59L341.28 364.28L342.99 361.9L344.63 359.43L346.15 356.92L347.6 354.34L348.93 351.7L350.17 348.99L351.3 346.23L352.34 343.43L353.25 340.56L354.06 337.65L354.77 334.7L355.35 331.7L355.82 328.66L356.16 325.59L356.38 322.47L356.49 319.33L356.49 317.75L356.47 317.69L356.47 317L356.37 313.82L356.15 310.68L355.81 307.56L355.33 304.49L354.74 301.46L354.03 298.48L353.22 295.54L352.29 292.65L351.26 289.81L350.11 287.02L348.85 284.3L347.51 281.63L346.05 279.02L344.51 276.48L342.86 274L341.13 271.59L339.3 269.24L337.39 266.98L335.4 264.78L333.33 262.67L331.18 260.63L328.95 258.69L326.64 256.82L324.27 255.05L321.82 253.37L319.31 251.77L316.74 250.28L314.09 248.88L311.39 247.58L308.64 246.39L305.84 245.29L302.97 244.32L300.07 243.45L297.11 242.68L294.11 242.04L291.07 241.51L288 241.1L284.89 240.82L281.74 240.66L278.55 240.63L275.38 240.72L272.23 240.94Z" id="gHIhfuApK"></path><path d="M273.59 145.8L273.74 146.02L274.06 146.46L274.22 146.67L274.55 147.11L274.73 147.32L274.89 147.54L275.24 147.99L275.41 148.19L275.58 148.41L275.75 148.63L275.92 148.86L276.09 149.06L276.41 149.51L276.56 149.73L276.72 149.95L276.87 150.17L277.02 150.38L277.41 151.04L277.77 151.71L277.86 151.93L277.96 152.15L278.03 152.37L278.12 152.59L278.24 153.04L278.29 153.26L278.34 153.7L278.36 153.94L278.37 155.01L278.43 156.03L278.52 157.02L278.64 157.97L278.8 158.87L278.98 159.74L279.2 160.57L279.45 161.35L279.75 162.09L280.06 162.8L280.4 163.47L280.77 164.12L281.16 164.73L281.59 165.31L282.05 165.84L282.52 166.35L283.04 166.84L283.57 167.3L284.12 167.73L284.69 168.13L285.3 168.51L285.92 168.86L286.57 169.19L287.23 169.5L287.91 169.79L288.62 170.06L289.35 170.31L290.08 170.55L291.62 170.96L292.42 171.15L293.21 171.32L294.04 171.48L295.72 171.77L296.6 171.91L297.47 172.02L298.35 172.14L299.24 172.25L300.15 172.35L301.66 172.59L302.4 172.72L303.15 172.84L303.9 172.97L304.66 173.12L305.4 173.25L306.15 173.38L306.89 173.53L307.64 173.68L308.38 173.83L309.13 173.99L309.87 174.15L310.62 174.3L311.36 174.46L312.1 174.64L312.84 174.8L313.58 174.98L314.33 175.15L315.81 175.51L316.53 175.7L319.48 176.47L320.21 176.68L320.94 176.88L321.67 177.09L322.41 177.3L323.13 177.52L323.87 177.74L324.59 177.95L325.31 178.18L326.76 178.62L328.93 179.33L329.66 179.58L330.26 179.75L330.85 179.91L331.43 180.06L332 180.19L332.58 180.31L333.14 180.43L333.7 180.51L334.25 180.6L334.79 180.68L335.34 180.74L335.87 180.77L336.39 180.8L336.91 180.81L337.42 180.8L337.92 180.77L338.43 180.72L338.93 180.66L339.42 180.59L339.89 180.5L340.36 180.38L340.83 180.23L341.29 180.09L341.75 179.91L342.19 179.7L342.64 179.48L343.06 179.24L343.49 178.98L343.92 178.68L344.33 178.37L344.73 178.03L345.15 177.68L345.53 177.28L345.93 176.87L346.31 176.44L346.68 175.97L347.05 175.48L347.42 174.95L347.77 174.4L348.11 173.83L348.47 173.22L348.81 172.6L349.16 172.02L349.53 171.46L349.9 170.93L350.28 170.43L350.67 169.96L351.07 169.5L351.47 169.09L351.88 168.69L352.31 168.3L352.74 167.96L353.16 167.65L353.62 167.36L354.06 167.09L354.52 166.86L354.99 166.65L355.47 166.46L355.94 166.31L356.43 166.18L356.91 166.07L357.92 165.96L358.42 165.94L358.94 165.96L359.45 165.98L359.97 166.06L360.5 166.15L361.03 166.27L361.58 166.43L362.13 166.61L362.67 166.81L363.22 167.03L363.77 167.3L364.33 167.59L364.89 167.9L365.46 168.26L366.02 168.64L366.6 169.04L367.18 169.47L368.33 170.41L368.9 170.87L369.46 171.33L370.04 171.79L370.6 172.22L371.16 172.66L371.71 173.09L372.27 173.5L372.82 173.93L373.36 174.33L373.92 174.74L374.47 175.14L375 175.52L375.55 175.92L376.09 176.31L376.63 176.69L377.17 177.06L377.72 177.44L378.25 177.81L378.8 178.18L379.33 178.55L379.87 178.92L380.41 179.27L380.95 179.64L381.48 180.01L382.03 180.37L382.58 180.74L383.12 181.09L383.67 181.46L384.22 181.81L385.31 182.55L385.87 182.91L386.43 183.28L386.99 183.66L387.55 184.03L388.11 184.41L388.69 184.78L389.25 185.17L389.83 185.56L390.26 185.74L390.65 185.93L391.05 186.16L391.44 186.38L391.82 186.61L392.17 186.86L392.53 187.13L392.87 187.41L393.18 187.71L393.5 188L393.8 188.31L394.08 188.64L394.35 188.96L394.61 189.32L394.85 189.65L395.08 190.02L395.31 190.39L395.5 190.76L395.69 191.15L395.87 191.53L396.16 192.33L396.4 193.15L396.58 193.98L396.63 194.41L396.68 194.84L396.71 195.27L396.72 195.69L396.72 196.14L396.66 196.99L396.6 197.44L396.53 197.86L396.44 198.31L396.34 198.74L396.21 199.16L396.06 199.59L395.9 200.02L395.85 200.14L395.79 200.27L395.73 200.39L395.69 200.51L395.45 200.98L395.38 201.1L395.26 201.33L395.19 201.45L395.13 201.56L395.05 201.67L394.98 201.78L394.91 201.9L394.83 202L394.76 202.12L394.61 202.32L394.54 202.44L394.45 202.55L394.38 202.65L394.29 202.75L394.21 202.86L394.12 202.96L394.04 203.05L393.95 203.15L393.87 203.25L393.77 203.34L393.68 203.45L393.59 203.53L393.5 203.64L393.42 203.73L393.31 203.82L393.22 203.92L393.02 204.1L392.93 204.18L392.82 204.27L392.34 204.82L391.89 205.37L391.47 205.91L391.08 206.46L390.71 206.99L390.39 207.52L390.09 208.05L389.81 208.58L389.58 209.1L389.35 209.62L389.16 210.14L389 210.65L388.87 211.17L388.76 211.67L388.68 212.19L388.62 212.69L388.59 213.19L388.57 213.69L388.59 214.2L388.62 214.71L388.68 215.21L388.75 215.72L388.85 216.22L388.97 216.72L389.1 217.22L389.27 217.72L389.44 218.23L389.65 218.73L389.86 219.25L390.09 219.75L390.34 220.26L390.61 220.78L391.2 221.81L391.51 222.33L392.19 223.39L392.54 223.93L392.91 224.46L393.3 225L393.83 225.74L394.86 227.22L395.38 227.97L395.9 228.71L396.41 229.46L396.93 230.2L398.44 232.46L398.95 233.21L399.44 233.97L399.94 234.74L400.44 235.49L400.93 236.24L401.42 237.01L401.92 237.78L402.41 238.53L402.89 239.3L403.37 240.07L403.85 240.83L404.33 241.6L404.81 242.37L405.29 243.14L405.76 243.92L406.23 244.69L406.69 245.47L407.16 246.24L407.62 247.02L408.09 247.8L409.47 250.15L409.91 250.93L410.37 251.72L410.81 252.5L411.27 253.3L411.71 254.08L412.15 254.88L412.6 255.66L412.88 256.18L413.17 256.68L413.47 257.16L414.06 258.11L414.35 258.57L414.66 259.01L414.97 259.44L415.28 259.85L415.61 260.27L415.92 260.66L416.26 261.03L416.58 261.4L416.92 261.76L417.28 262.1L417.62 262.42L417.99 262.73L418.72 263.29L419.11 263.54L419.51 263.79L419.91 264.02L420.32 264.22L421.18 264.58L421.62 264.72L422.08 264.86L422.53 264.96L423.02 265.06L423.51 265.12L424.01 265.18L424.53 265.21L425.06 265.21L425.6 265.2L426.15 265.17L426.73 265.11L427.32 265.02L427.92 264.92L428.54 264.78L429.18 264.64L430.03 264.41L430.86 264.24L431.67 264.09L432.46 263.97L433.21 263.88L433.95 263.82L434.66 263.81L435.35 263.81L436.03 263.85L436.66 263.93L437.3 264.02L437.89 264.15L438.48 264.31L439.04 264.49L439.57 264.71L440.09 264.95L440.59 265.23L441.06 265.52L441.52 265.85L441.97 266.2L442.38 266.59L442.78 266.98L443.16 267.41L443.53 267.87L443.87 268.34L444.2 268.86L444.51 269.38L444.8 269.94L445.07 270.51L445.33 271.12L445.57 271.74L445.79 272.39L446 273.05L446.19 273.75L446.37 274.46L446.53 275.19L446.68 275.95L446.79 276.71L446.91 277.51L447.02 278.32L447.07 278.91L447.15 279.49L447.21 280.08L447.28 280.66L447.34 281.25L447.41 281.82L447.49 282.41L447.64 283.57L447.72 284.16L447.8 284.73L447.89 285.31L447.96 285.9L448.14 287.05L448.23 287.64L448.4 288.79L448.51 289.37L448.6 289.96L448.8 291.11L448.89 291.69L449.1 292.84L449.22 293.43L449.42 294.58L449.54 295.16L449.64 295.73L450 297.46L450.12 298.02L450.23 298.6L450.37 299.17L450.49 299.75L450.62 300.33L450.74 300.9L450.87 301.46L451.02 302.14L451.15 302.79L451.27 303.41L451.36 304.02L451.45 304.61L451.49 305.17L451.53 305.71L451.55 306.25L451.55 306.75L451.53 307.24L451.49 307.71L451.34 308.59L451.24 309.01L451.12 309.41L450.97 309.79L450.62 310.5L450.41 310.82L450.18 311.15L449.92 311.44L449.64 311.74L449.35 312.01L449.02 312.27L448.68 312.51L448.31 312.74L447.93 312.95L447.52 313.16L447.07 313.35L446.62 313.53L446.13 313.69L445.63 313.84L445.08 313.98L444.53 314.12L443.94 314.23L443.34 314.34L442.7 314.44L442.04 314.53L441.36 314.6L440.65 314.68L437.06 315.05L433.5 315.5L430.01 316.07L426.55 316.73L423.14 317.48L419.77 318.32L416.46 319.26L413.22 320.29L410.01 321.4L406.87 322.61L403.78 323.91L400.75 325.28L397.79 326.76L394.89 328.31L392.04 329.95L389.27 331.66L386.56 333.46L383.92 335.34L381.34 337.3L378.84 339.34L376.4 341.46L374.06 343.65L371.77 345.92L369.57 348.27L367.44 350.69L365.4 353.19L363.43 355.74L361.55 358.37L359.75 361.07L358.04 363.85L356.41 366.68L354.88 369.59L353.43 372.56L352.07 375.6L350.82 378.7L349.65 381.86L348.57 385.08L347.61 388.36L346.73 391.7L345.96 395.11L345.63 397.35L345.5 398.47L345.35 399.61L345.22 400.73L345.1 401.86L344.98 402.99L344.88 404.11L344.78 405.25L344.69 406.37L344.6 407.51L344.53 408.63L344.45 409.77L344.39 410.91L344.33 412.03L344.24 414.3L344.22 415.44L344.19 416.56L344.17 417.7L344.17 421.1L344.19 422.23L344.22 423.37L344.24 424.49L344.27 425.63L344.32 426.77L344.38 427.9L344.44 429.03L344.58 431.3L344.67 432.42L344.76 433.56L344.86 434.68L344.97 435.82L345.09 436.94L345.2 438.08L345.34 439.2L345.47 440.34L345.47 440.76L345.49 441.19L345.49 443.98L345.46 444.72L345.44 445.08L345.43 445.42L345.4 445.75L345.35 446.08L345.31 446.42L345.19 447.04L345.12 447.35L345.04 447.64L344.95 447.94L344.85 448.22L344.73 448.5L344.6 448.77L344.3 449.3L343.95 449.8L343.74 450.04L343.52 450.27L343.28 450.49L343.03 450.72L342.75 450.94L342.46 451.14L342.15 451.35L341.82 451.54L341.47 451.74L341.08 451.93L340.69 452.1L340.27 452.28L339.8 452.44L339.34 452.61L338.9 452.8L338.46 453L338.04 453.23L337.63 453.46L337.22 453.71L336.83 453.98L336.46 454.26L336.09 454.56L335.74 454.87L335.41 455.18L335.09 455.52L334.78 455.85L334.48 456.21L334.2 456.58L333.94 456.95L333.67 457.33L333.44 457.73L333.21 458.13L333.01 458.53L332.82 458.96L332.49 459.81L332.34 460.24L332.23 460.68L332.11 461.14L332.02 461.6L331.94 462.06L331.89 462.51L331.86 462.97L331.83 463.44L331.83 463.92L331.89 464.86L331.94 465.33L332.02 465.81L332.11 466.29L332.23 466.77L332.36 467.24L332.37 467.27L332.39 467.31L332.4 467.34L332.4 467.37L332.42 467.4L332.42 467.42L332.45 467.48L332.45 467.51L332.46 467.53L332.46 467.56L332.48 467.58L332.49 467.61L332.49 467.64L332.52 467.7L332.52 467.71L332.54 467.74L332.54 467.77L332.55 467.8L332.56 467.82L332.56 467.84L332.59 467.9L332.59 467.93L332.61 467.95L332.62 467.98L332.64 468.04L332.65 468.07L332.67 468.08L332.67 468.11L332.7 468.17L332.7 468.18L332.73 468.24L332.73 468.27L332.74 468.29L332.93 469.1L333.11 469.9L333.24 470.66L333.35 471.42L333.42 472.14L333.47 472.85L333.5 473.53L333.48 474.19L333.45 474.83L333.38 475.45L333.29 476.05L333.17 476.63L333.02 477.19L332.85 477.74L332.65 478.25L332.43 478.76L332.18 479.24L331.9 479.7L331.59 480.14L331.27 480.57L330.91 480.99L330.53 481.37L330.13 481.75L329.7 482.11L329.24 482.45L328.77 482.76L328.27 483.07L327.75 483.35L327.2 483.61L326.63 483.88L326.04 484.12L325.42 484.34L324.78 484.54L324.13 484.72L323.44 484.9L322.75 485.06L322.02 485.21L321.28 485.34L320.52 485.46L319.73 485.55L319.14 485.62L318.57 485.68L317.99 485.76L317.4 485.83L316.25 485.98L315.66 486.05L315.08 486.12L314.51 486.21L313.93 486.29L313.34 486.38L312.76 486.46L312.19 486.54L311.04 486.72L310.46 486.82L309.87 486.91L309.29 487L308.14 487.2L307.57 487.29L305.26 487.7L304.69 487.82L304.13 487.93L303.55 488.04L302.97 488.15L301.25 488.5L300.69 488.62L300.11 488.74L299.53 488.87L298.96 488.99L298.4 489.12L297.82 489.24L297.24 489.37L296.68 489.51L295.93 489.68L295.19 489.83L294.47 489.95L293.76 490.05L293.07 490.14L292.37 490.2L291.71 490.23L291.06 490.24L290.42 490.24L289.8 490.22L289.2 490.16L288.62 490.08L288.05 489.98L287.48 489.86L286.95 489.71L286.42 489.55L285.92 489.34L285.43 489.14L284.96 488.89L284.5 488.64L284.07 488.34L283.65 488.03L283.25 487.69L282.88 487.32L282.51 486.94L282.17 486.54L281.84 486.1L281.53 485.64L281.24 485.15L280.97 484.63L280.74 484.1L280.5 483.54L280.29 482.95L280.1 482.34L279.94 481.71L279.79 481.05L279.67 480.35L279.57 479.64L279.48 478.9L279.36 477.37L279.29 476.63L279.2 475.92L279.1 475.24L278.96 474.58L278.83 473.96L278.68 473.35L278.51 472.78L278.33 472.23L278.12 471.7L277.92 471.2L277.68 470.72L277.44 470.27L277.18 469.82L276.91 469.41L276.62 469.01L276.32 468.64L276 468.29L275.67 467.95L274.96 467.33L274.58 467.05L274.2 466.78L273.78 466.53L273.37 466.29L272.94 466.07L272.5 465.87L271.55 465.48L271.06 465.32L270.56 465.16L270.05 465.01L269.51 464.88L268.97 464.74L268.42 464.63L267.27 464.42L266.66 464.32L266.06 464.23L265.44 464.15L264.54 464.01L263.65 463.86L262.77 463.7L261.87 463.55L260.98 463.39L260.08 463.22L257.42 462.74L256.54 462.56L255.63 462.4L253.86 462.04L252.98 461.85L252.09 461.67L251.2 461.48L250.32 461.3L249.43 461.11L248.56 460.92L247.68 460.71L246.79 460.52L245.9 460.31L245.03 460.11L243.26 459.69L242.39 459.49L241.5 459.27L240.63 459.04L239.75 458.84L238.88 458.62L238 458.38L237.12 458.16L231.89 456.74L230.15 456.24L229.51 456.06L228.88 455.9L228.27 455.74L227.65 455.59L227.06 455.46L226.46 455.34L225.87 455.23L225.29 455.13L224.71 455.06L224.15 454.98L223.59 454.92L222.5 454.87L221.97 454.87L221.44 454.88L220.91 454.91L220.39 454.95L219.89 455.03L219.38 455.12L218.88 455.23L218.39 455.35L217.92 455.52L217.44 455.68L216.98 455.88L216.5 456.11L216.06 456.34L215.6 456.61L215.16 456.9L214.73 457.23L214.3 457.57L213.88 457.94L213.46 458.34L213.06 458.76L212.65 459.22L212.27 459.71L211.87 460.23L211.48 460.77L211.12 461.35L210.75 461.97L210.38 462.6L210.01 463.25L209.64 463.86L209.27 464.43L208.89 464.98L208.5 465.5L208.12 465.98L207.72 466.44L207.32 466.87L206.92 467.27L206.51 467.64L206.09 467.98L205.67 468.29L205.24 468.55L204.81 468.8L204.38 469.04L203.94 469.23L203.5 469.4L203.04 469.53L202.58 469.65L202.12 469.73L201.65 469.78L201.18 469.81L200.71 469.82L200.22 469.79L199.73 469.75L199.23 469.68L198.74 469.57L198.24 469.45L197.72 469.31L197.21 469.13L196.69 468.92L196.16 468.7L195.63 468.46L195.09 468.18L194.55 467.89L194 467.58L193.46 467.24L192.89 466.87L192.33 466.49L191.76 466.07L191.2 465.66L190.04 464.83L189.48 464.42L188.33 463.59L187.18 462.79L186.6 462.38L185.45 461.58L184.89 461.19L180.28 458L179.69 457.6L176.24 455.21L175.66 454.79L175.09 454.39L174.5 453.98L171.62 451.91L171.03 451.48L170.45 451.07L168.72 449.79L168.15 449.34L167.6 448.91L167.08 448.49L166.6 448.06L166.12 447.63L165.67 447.2L165.25 446.77L164.85 446.35L164.47 445.93L164.13 445.5L163.81 445.08L163.5 444.65L163.23 444.23L162.98 443.81L162.74 443.38L162.55 442.95L162.37 442.52L162.23 442.09L162.11 441.66L162 441.24L161.93 440.79L161.89 440.37L161.87 439.92L161.87 439.49L161.9 439.05L161.96 438.61L162.05 438.17L162.17 437.71L162.3 437.25L162.46 436.81L162.65 436.35L162.87 435.88L163.13 435.42L163.41 434.95L163.7 434.47L164.03 433.99L164.4 433.51L164.78 433.03L165.19 432.54L165.64 432.04L166.18 431.42L166.7 430.81L167.17 430.21L167.61 429.6L168.01 429.01L168.38 428.42L168.72 427.83L169.02 427.25L169.28 426.68L169.52 426.12L169.73 425.54L169.89 424.98L170.04 424.42L170.14 423.87L170.21 423.31L170.27 422.76L170.29 422.22L170.29 421.66L170.26 421.11L170.2 420.58L170.11 420.03L170.01 419.49L169.87 418.94L169.73 418.39L169.55 417.86L169.34 417.32L169.12 416.77L168.62 415.68L168.32 415.13L168.03 414.57L167.7 414.02L167.36 413.46L167.01 412.9L166.64 412.34L166.26 411.78L165.86 411.2L165.44 410.63L165.02 410.05L164.57 409.47L164.06 408.77L163.54 408.04L163.04 407.33L162.52 406.61L162.02 405.9L161.01 404.45L160.53 403.73L160.03 403.01L159.54 402.28L159.05 401.55L158.56 400.82L158.08 400.08L157.59 399.36L156.17 397.15L155.7 396.39L155.23 395.65L154.77 394.92L154.31 394.16L153.85 393.42L152.48 391.17L151.59 389.66L151.15 388.89L150.71 388.14L150.28 387.37L149.84 386.62L148.12 383.55L147.71 382.78L147.3 382L146.88 381.23L146.47 380.45L146.06 379.68L145.76 379.15L145.47 378.63L145.17 378.13L144.88 377.64L144.57 377.17L144.27 376.69L143.95 376.25L143.63 375.82L143.31 375.4L142.99 375L142.66 374.61L142.32 374.23L141.63 373.53L141.26 373.21L140.9 372.9L140.53 372.6L140.15 372.32L139.77 372.07L139.37 371.82L138.97 371.6L138.56 371.39L138.13 371.2L137.7 371.04L137.26 370.89L136.8 370.76L136.34 370.64L135.87 370.54L135.4 370.46L134.39 370.37L133.87 370.36L133.34 370.36L132.8 370.39L132.25 370.43L131.67 370.51L131.1 370.6L130.51 370.71L129.9 370.85L129.28 370.99L128.47 371.2L127.67 371.36L126.91 371.51L126.15 371.63L125.43 371.72L124.72 371.78L124.04 371.81L123.38 371.81L122.73 371.78L122.11 371.73L121.5 371.64L120.91 371.54L120.35 371.41L119.8 371.25L119.29 371.05L118.78 370.85L118.3 370.61L117.82 370.35L117.38 370.05L116.95 369.73L116.54 369.39L116.14 369.02L115.76 368.62L115.4 368.2L115.06 367.76L114.74 367.29L114.43 366.8L114.15 366.28L113.87 365.74L113.62 365.18L113.38 364.59L113.16 363.98L112.94 363.35L112.74 362.68L112.57 362L112.42 361.31L112.27 360.57L112.14 359.83L112.02 359.06L111.92 358.27L111.86 357.69L111.78 357.1L111.71 356.52L111.65 355.95L111.58 355.36L111.5 354.78L111.42 354.21L111.34 353.62L111.27 353.04L111.18 352.46L111.11 351.89L111.02 351.31L110.93 350.72L110.66 348.99L110.56 348.42L110.47 347.84L110.37 347.27L110.28 346.69L109.66 343.24L109.54 342.66L109.44 342.08L109.2 340.93L109.08 340.37L108.61 338.07L108.48 337.51L108.36 336.93L108.23 336.35L108.09 335.79L107.96 335.22L107.8 334.51L107.65 333.8L107.52 333.09L107.41 332.41L107.33 331.73L107.25 331.07L107.22 330.4L107.19 329.77L107.19 329.13L107.22 328.51L107.27 327.92L107.33 327.33L107.43 326.76L107.53 326.2L107.68 325.65L107.83 325.12L108.02 324.6L108.23 324.1L108.46 323.61L108.71 323.14L108.99 322.7L109.3 322.25L109.63 321.84L109.98 321.44L110.35 321.07L110.77 320.7L111.19 320.36L111.65 320.04L112.12 319.74L112.63 319.46L113.16 319.2L113.72 318.96L114.31 318.75L114.92 318.55L115.55 318.38L116.21 318.22L116.91 318.1L117.63 318L118.37 317.91L119.15 317.87L119.92 317.81L120.66 317.73L121.37 317.63L122.05 317.51L122.7 317.38L123.32 317.22L123.91 317.06L124.47 316.85L125.02 316.64L125.53 316.41L126.02 316.15L126.48 315.89L126.92 315.59L127.33 315.3L127.73 314.97L128.12 314.65L128.47 314.29L128.81 313.92L129.13 313.54L129.73 312.74L129.99 312.32L130.49 311.43L130.94 310.48L131.14 310L131.53 308.99L131.69 308.46L131.87 307.93L132.03 307.38L132.18 306.84L132.32 306.28L132.47 305.7L132.6 305.12L132.87 303.94L133 303.34L133.14 302.72L133.28 301.86L133.58 300.12L133.74 299.26L133.9 298.39L134.05 297.53L134.21 296.66L134.39 295.81L134.55 294.94L134.73 294.08L134.89 293.22L135.07 292.35L135.25 291.5L135.44 290.64L135.62 289.78L135.81 288.91L135.99 288.05L136.37 286.34L136.58 285.49L136.77 284.63L137.39 282.06L137.6 281.22L137.8 280.36L138.02 279.51L138.23 278.66L138.67 276.95L138.91 276.11L139.13 275.25L139.37 274.41L139.59 273.55L140.06 271.87L140.31 271.01L140.55 270.17L140.8 269.33L141.04 268.49L141.39 267.25L141.55 266.63L141.7 266.02L141.97 264.84L142.08 264.25L142.19 263.68L142.28 263.1L142.42 261.98L142.47 261.43L142.5 260.89L142.51 260.34L142.51 259.81L142.5 259.29L142.45 258.77L142.39 258.26L142.32 257.76L142.22 257.25L142.1 256.77L141.97 256.28L141.8 255.79L141.61 255.32L141.41 254.86L141.17 254.4L140.9 253.95L140.61 253.5L140.3 253.06L139.96 252.62L139.59 252.19L139.19 251.77L138.76 251.36L138.3 250.95L137.8 250.55L137.29 250.15L136.74 249.75L136.15 249.37L135.53 249L134.86 248.63L134.45 248.45L134.04 248.26L133.64 248.05L133.25 247.83L132.87 247.6L132.52 247.35L132.16 247.08L131.82 246.81L131.17 246.22L130.88 245.91L130.32 245.26L130.05 244.92L129.8 244.58L129.58 244.21L129.36 243.86L129.15 243.48L128.96 243.11L128.78 242.71L128.62 242.32L128.47 241.93L128.34 241.51L128.22 241.1L128.04 240.27L127.97 239.84L127.92 239.42L127.86 238.56L127.86 238.13L127.88 237.69L127.92 237.26L127.97 236.82L128.04 236.39L128.13 235.95L128.23 235.52L128.35 235.09L128.65 234.23L128.71 234.11L128.8 233.88L128.84 233.78L128.9 233.66L128.94 233.55L129 233.44L129.06 233.33L129.11 233.21L129.28 232.9L129.34 232.79L129.42 232.68L129.53 232.48L129.61 232.37L129.67 232.27L129.74 232.17L129.8 232.06L129.87 231.96L129.95 231.87L130.09 231.66L130.17 231.58L130.32 231.37L130.46 231.19L130.55 231.09L130.63 231L130.71 230.91L130.79 230.82L130.97 230.64L131.04 230.56L131.39 230.2L131.81 229.64L132.63 228.49L133.05 227.93L134.29 226.2L134.69 225.64L135.51 224.49L135.93 223.93L136.75 222.77L137.15 222.2L137.57 221.64L137.98 221.06L138.38 220.49L139.21 219.33L139.6 218.77L140.02 218.2L140.42 217.62L140.83 217.05L141.63 215.89L142.04 215.32L142.44 214.76L143.24 213.61L143.65 213.03L144.85 211.3L145.23 210.73L146.03 209.57L146.43 208.98L146.81 208.41L147.21 207.83L147.59 207.26L148.04 206.46L148.27 206.07L148.52 205.71L148.79 205.35L149.05 205.01L149.35 204.67L149.64 204.36L149.95 204.05L150.28 203.76L150.6 203.49L150.94 203.22L151.3 202.97L151.65 202.74L152.02 202.52L152.41 202.31L152.78 202.12L153.17 201.94L153.56 201.79L153.96 201.64L154.37 201.51L154.78 201.39L155.2 201.29L155.61 201.22L156.04 201.14L156.45 201.1L156.88 201.05L157.31 201.04L157.74 201.04L158.18 201.05L158.61 201.08L159.46 201.2L159.89 201.29L160.32 201.39L160.75 201.51L161.18 201.64L161.61 201.81L162.02 201.98L162.43 202.18L162.64 202.26L162.73 202.32L162.83 202.37L162.92 202.43L163.02 202.49L163.11 202.53L163.21 202.59L163.3 202.65L163.41 202.71L163.58 202.83L163.69 202.88L163.86 203L163.95 203.08L164.13 203.2L164.22 203.27L164.31 203.33L164.48 203.48L164.57 203.53L164.66 203.61L164.74 203.68L164.91 203.83L164.99 203.9L165.08 203.98L165.15 204.05L165.24 204.13L165.55 204.44L165.62 204.52L165.7 204.6L165.77 204.69L165.84 204.76L165.92 204.85L166.48 205.34L167.04 205.81L167.59 206.24L168.13 206.64L168.68 206.99L169.21 207.33L169.76 207.62L170.29 207.89L170.8 208.14L171.34 208.35L171.85 208.53L172.37 208.69L172.89 208.81L173.39 208.91L173.91 208.98L174.41 209.03L174.92 209.06L175.43 209.06L175.93 209.03L176.43 208.98L176.93 208.91L177.43 208.82L177.94 208.7L178.44 208.57L178.94 208.41L179.44 208.23L179.94 208.04L180.45 207.83L180.95 207.6L181.47 207.36L181.97 207.09L182.48 206.81L182.99 206.52L183.5 206.21L184.02 205.88L184.54 205.54L185.07 205.19L185.58 204.83L186.12 204.46L186.65 204.08L188.07 203.05L188.79 202.53L189.5 202.03L190.21 201.51L191.65 200.51L192.36 200.02L193.81 199.02L194.53 198.53L195.27 198.04L196.72 197.07L197.46 196.59L198.2 196.11L198.92 195.63L201.13 194.22L201.89 193.74L203.36 192.83L204.12 192.37L204.85 191.91L206.36 191L209.37 189.23L210.14 188.78L210.89 188.36L211.66 187.91L212.41 187.48L214.72 186.2L216.25 185.37L216.84 185.05L217.42 184.72L217.98 184.4L218.53 184.07L219.06 183.73L219.58 183.41L220.06 183.07L220.55 182.71L221.02 182.38L221.48 182.02L221.92 181.65L222.34 181.28L222.74 180.91L223.12 180.53L223.49 180.15L223.84 179.75L224.18 179.33L224.49 178.92L224.79 178.51L225.05 178.08L225.31 177.64L225.54 177.18L225.76 176.72L225.95 176.25L226.12 175.77L226.27 175.27L226.4 174.77L226.5 174.25L226.59 173.72L226.65 173.18L226.68 172.61L226.69 172.05L226.68 171.46L226.65 170.86L226.59 170.25L226.5 169.62L226.38 168.98L226.25 168.32L226.09 167.64L225.9 166.94L225.72 166.25L225.56 165.57L225.41 164.91L225.31 164.26L225.23 163.62L225.17 163L225.14 162.4L225.14 161.81L225.16 161.22L225.22 160.65L225.29 160.11L225.39 159.58L225.51 159.04L225.66 158.54L225.84 158.06L226.03 157.57L226.25 157.11L226.5 156.67L226.77 156.22L227.06 155.81L227.37 155.41L227.71 155.01L228.07 154.64L228.45 154.28L228.86 153.94L229.29 153.6L229.74 153.29L230.21 152.98L230.71 152.68L231.21 152.42L231.76 152.15L232.3 151.9L232.88 151.68L233.49 151.46L234.09 151.25L234.73 151.07L235.39 150.89L236.07 150.73L236.76 150.58L237.47 150.47L238.2 150.33L238.9 150.21L239.61 150.08L240.32 149.96L241.02 149.83L241.7 149.71L242.39 149.58L243.07 149.45L243.75 149.33L244.41 149.2L245.09 149.06L245.76 148.93L246.41 148.81L247.07 148.68L249.67 148.15L250.3 148.01L250.95 147.88L252.86 147.48L253.49 147.34L256.03 146.8L256.67 146.66L258.57 146.26L259.21 146.11L261.11 145.71L261.76 145.56L262.41 145.43L263.05 145.3L263.7 145.15L273.15 145.15L273.44 145.59L273.59 145.8ZM272.23 240.94L269.12 241.29L266.06 241.76L263.02 242.35L260.03 243.05L257.1 243.88L254.22 244.81L251.37 245.84L248.59 246.99L245.86 248.23L243.19 249.59L240.59 251.04L238.03 252.59L235.55 254.23L233.15 255.97L230.81 257.78L228.54 259.69L226.35 261.68L224.23 263.76L222.2 265.92L220.26 268.15L218.39 270.45L216.61 272.83L214.92 275.28L213.33 277.79L211.84 280.36L210.44 283L209.14 285.69L207.96 288.45L206.86 291.26L205.87 294.11L205 297.02L204.25 299.97L203.6 302.97L203.07 306.01L202.67 309.1L202.37 312.21L202.23 315.36L202.18 318.53L202.29 321.69L202.51 324.82L202.85 327.91L203.3 330.95L203.88 333.96L204.59 336.93L205.39 339.85L206.32 342.72L207.34 345.54L208.47 348.31L209.7 351.03L211.04 353.69L212.47 356.29L214.01 358.83L215.62 361.29L217.33 363.7L219.13 366.03L221.02 368.29L223 370.48L225.05 372.59L227.18 374.61L229.38 376.56L231.67 378.44L234.02 380.21L236.44 381.89L238.92 383.5L241.47 384.99L244.09 386.41L246.76 387.71L249.48 388.92L252.27 390.03L255.1 391.03L257.98 391.92L260.91 392.7L263.87 393.37L266.9 393.91L269.94 394.34L273.04 394.66L276.16 394.84L279.32 394.92L282.46 394.87L285.59 394.72L288.67 394.44L291.72 394.04L294.73 393.51L297.7 392.88L300.63 392.13L303.51 391.27L306.33 390.29L309.12 389.22L311.83 388.03L314.51 386.75L317.12 385.36L319.67 383.89L322.15 382.31L324.58 380.64L326.92 378.88L329.21 377.03L331.43 375.11L333.55 373.09L335.61 371.01L337.59 368.84L339.48 366.59L341.28 364.28L342.99 361.9L344.63 359.43L346.15 356.92L347.6 354.34L348.93 351.7L350.17 348.99L351.3 346.23L352.34 343.43L353.25 340.56L354.06 337.65L354.77 334.7L355.35 331.7L355.82 328.66L356.16 325.59L356.38 322.47L356.49 319.33L356.49 317.75L356.47 317.69L356.47 317L356.37 313.82L356.15 310.68L355.81 307.56L355.33 304.49L354.74 301.46L354.03 298.48L353.22 295.54L352.29 292.65L351.26 289.81L350.11 287.02L348.85 284.3L347.51 281.63L346.05 279.02L344.51 276.48L342.86 274L341.13 271.59L339.3 269.24L337.39 266.98L335.4 264.78L333.33 262.67L331.18 260.63L328.95 258.69L326.64 256.82L324.27 255.05L321.82 253.37L319.31 251.77L316.74 250.28L314.09 248.88L311.39 247.58L308.64 246.39L305.84 245.29L302.97 244.32L300.07 243.45L297.11 242.68L294.11 242.04L291.07 241.51L288 241.1L284.89 240.82L281.74 240.66L278.55 240.63L275.38 240.72L272.23 240.94Z" id="a1esFq0NIq"></path><path d="M453.42 334.88L456.73 335.22L460.04 335.69L463.36 336.31L466.67 337.06L469.98 337.95L471.96 338.57L473.92 339.22L475.87 339.91L477.77 340.67L479.68 341.46L481.54 342.29L483.38 343.18L485.2 344.09L487 345.07L488.76 346.07L490.5 347.12L492.2 348.21L493.88 349.35L495.54 350.51L497.16 351.73L498.74 352.97L500.31 354.25L501.83 355.58L503.32 356.94L504.78 358.33L506.2 359.76L507.6 361.22L508.94 362.73L510.27 364.25L511.54 365.81L512.78 367.41L513.99 369.03L515.16 370.68L516.28 372.37L517.38 374.08L518.42 375.82L519.43 377.6L520.39 379.4L521.3 381.23L522.19 383.07L523.02 384.95L523.81 386.85L524.55 388.77L525.25 390.72L525.9 392.69L529.85 404.84L529.85 430.68L529.44 432.7L528.98 434.71L528.46 436.7L527.92 438.68L527.33 440.63L526.69 442.58L526 444.5L525.27 446.39L524.51 448.27L523.7 450.13L522.84 451.97L521.95 453.77L521.02 455.57L520.05 457.33L519.03 459.07L517.97 460.8L516.87 462.48L515.75 464.15L514.58 465.79L513.37 467.42L512.13 469L510.85 470.55L509.53 472.08L508.19 473.57L506.8 475.04L505.39 476.47L503.94 477.87L502.45 479.24L500.93 480.57L499.38 481.87L497.8 483.14L496.19 484.38L494.55 485.58L492.86 486.73L491.17 487.85L489.42 488.95L487.67 489.98L485.88 491L484.06 491.96L482.22 492.89L481.67 493.14L481.12 493.37L480.58 493.63L480.03 493.86L479.47 494.1L478.92 494.33L478.36 494.56L477.82 494.78L476.13 495.44L475.57 495.65L475.01 495.87L474.45 496.08L473.87 496.28L473.31 496.49L472.74 496.7L472.18 496.89L471.6 497.1L471.04 497.29L470.46 497.49L469.9 497.69L469.33 497.89L468.75 498.09L468.19 498.28L467.61 498.47L467.04 498.68L466.48 498.87L465.33 499.25L464.76 499.46L463.61 499.84L463.05 500.05L462.48 500.24L461.91 500.45L461.34 500.65L459.66 501.27L433.99 501.36L433.46 501.19L433.19 501.08L432.93 500.99L432.4 500.79L432.13 500.7L431.85 500.6L431.59 500.49L431.32 500.4L430.79 500.2L430.52 500.11L429.99 499.9L429.44 499.71L428.65 499.4L428.38 499.31L427.85 499.1L427.57 499.02L427.04 498.81L426.77 498.72L426.51 498.62L426.24 498.53L425.97 498.42L425.71 498.34L425.43 498.23L424.9 498.06L424.63 497.95L423.57 497.6L423.29 497.51L420.02 496.49L416.83 495.34L413.7 494.07L410.66 492.68L407.69 491.19L404.8 489.58L401.99 487.88L399.26 486.07L396.63 484.16L394.08 482.15L391.61 480.06L389.24 477.89L386.95 475.61L384.76 473.26L382.68 470.84L380.69 468.33L378.78 465.76L377 463.12L375.3 460.42L373.72 457.64L372.24 454.81L370.87 451.93L369.61 448.99L368.46 446.01L367.43 442.98L366.51 439.91L365.71 436.81L365.04 433.66L364.47 430.49L364.05 427.28L363.74 424.05L363.54 420.8L363.48 417.52L363.56 414.24L363.77 410.95L364.12 407.64L364.59 404.32L365.21 401.01L365.97 397.71L366.85 394.4L367.88 391.12L369.04 387.93L370.31 384.8L371.68 381.76L373.19 378.79L374.78 375.9L376.49 373.09L378.29 370.36L380.21 367.73L382.21 365.18L384.3 362.71L386.49 360.33L388.75 358.06L391.1 355.86L393.53 353.78L396.03 351.78L398.61 349.88L401.26 348.09L403.96 346.39L406.72 344.82L409.55 343.34L412.43 341.97L415.37 340.71L418.35 339.56L421.38 338.52L424.45 337.61L427.57 336.81L430.7 336.13L433.89 335.57L437.09 335.14L440.31 334.83L443.58 334.64L446.84 334.58L450.13 334.67L453.42 334.88ZM495.23 417.76L419.62 374.46L419.92 461.54L495.23 417.76Z" id="h15pTeTUXL"></path><path d="M453.42 334.88L456.73 335.22L460.04 335.69L463.36 336.31L466.67 337.06L469.98 337.95L471.96 338.57L473.92 339.22L475.87 339.91L477.77 340.67L479.68 341.46L481.54 342.29L483.38 343.18L485.2 344.09L487 345.07L488.76 346.07L490.5 347.12L492.2 348.21L493.88 349.35L495.54 350.51L497.16 351.73L498.74 352.97L500.31 354.25L501.83 355.58L503.32 356.94L504.78 358.33L506.2 359.76L507.6 361.22L508.94 362.73L510.27 364.25L511.54 365.81L512.78 367.41L513.99 369.03L515.16 370.68L516.28 372.37L517.38 374.08L518.42 375.82L519.43 377.6L520.39 379.4L521.3 381.23L522.19 383.07L523.02 384.95L523.81 386.85L524.55 388.77L525.25 390.72L525.9 392.69L529.85 404.84L529.85 430.68L529.44 432.7L528.98 434.71L528.46 436.7L527.92 438.68L527.33 440.63L526.69 442.58L526 444.5L525.27 446.39L524.51 448.27L523.7 450.13L522.84 451.97L521.95 453.77L521.02 455.57L520.05 457.33L519.03 459.07L517.97 460.8L516.87 462.48L515.75 464.15L514.58 465.79L513.37 467.42L512.13 469L510.85 470.55L509.53 472.08L508.19 473.57L506.8 475.04L505.39 476.47L503.94 477.87L502.45 479.24L500.93 480.57L499.38 481.87L497.8 483.14L496.19 484.38L494.55 485.58L492.86 486.73L491.17 487.85L489.42 488.95L487.67 489.98L485.88 491L484.06 491.96L482.22 492.89L481.67 493.14L481.12 493.37L480.58 493.63L480.03 493.86L479.47 494.1L478.92 494.33L478.36 494.56L477.82 494.78L476.13 495.44L475.57 495.65L475.01 495.87L474.45 496.08L473.87 496.28L473.31 496.49L472.74 496.7L472.18 496.89L471.6 497.1L471.04 497.29L470.46 497.49L469.9 497.69L469.33 497.89L468.75 498.09L468.19 498.28L467.61 498.47L467.04 498.68L466.48 498.87L465.33 499.25L464.76 499.46L463.61 499.84L463.05 500.05L462.48 500.24L461.91 500.45L461.34 500.65L459.66 501.27L433.99 501.36L433.46 501.19L433.19 501.08L432.93 500.99L432.4 500.79L432.13 500.7L431.85 500.6L431.59 500.49L431.32 500.4L430.79 500.2L430.52 500.11L429.99 499.9L429.44 499.71L428.65 499.4L428.38 499.31L427.85 499.1L427.57 499.02L427.04 498.81L426.77 498.72L426.51 498.62L426.24 498.53L425.97 498.42L425.71 498.34L425.43 498.23L424.9 498.06L424.63 497.95L423.57 497.6L423.29 497.51L420.02 496.49L416.83 495.34L413.7 494.07L410.66 492.68L407.69 491.19L404.8 489.58L401.99 487.88L399.26 486.07L396.63 484.16L394.08 482.15L391.61 480.06L389.24 477.89L386.95 475.61L384.76 473.26L382.68 470.84L380.69 468.33L378.78 465.76L377 463.12L375.3 460.42L373.72 457.64L372.24 454.81L370.87 451.93L369.61 448.99L368.46 446.01L367.43 442.98L366.51 439.91L365.71 436.81L365.04 433.66L364.47 430.49L364.05 427.28L363.74 424.05L363.54 420.8L363.48 417.52L363.56 414.24L363.77 410.95L364.12 407.64L364.59 404.32L365.21 401.01L365.97 397.71L366.85 394.4L367.88 391.12L369.04 387.93L370.31 384.8L371.68 381.76L373.19 378.79L374.78 375.9L376.49 373.09L378.29 370.36L380.21 367.73L382.21 365.18L384.3 362.71L386.49 360.33L388.75 358.06L391.1 355.86L393.53 353.78L396.03 351.78L398.61 349.88L401.26 348.09L403.96 346.39L406.72 344.82L409.55 343.34L412.43 341.97L415.37 340.71L418.35 339.56L421.38 338.52L424.45 337.61L427.57 336.81L430.7 336.13L433.89 335.57L437.09 335.14L440.31 334.83L443.58 334.64L446.84 334.58L450.13 334.67L453.42 334.88ZM495.23 417.76L419.62 374.46L419.92 461.54L495.23 417.76Z" id="agLG1WIFl"></path></defs><g><g><g><use xlink:href="#a7KHgoHbR" opacity="1" fill="#ffffff" fill-opacity="1"></use><g><use xlink:href="#a7KHgoHbR" opacity="1" fill-opacity="0" stroke="#000000" stroke-width="1" stroke-opacity="0"></use></g></g><g><use xlink:href="#cMolkJGtC" opacity="1" fill="#000000" fill-opacity="0"></use><g><use xlink:href="#cMolkJGtC" opacity="1" fill-opacity="0" stroke="#000000" stroke-width="1" stroke-opacity="0"></use></g></g><g><use xlink:href="#bhYPeNvSj" opacity="1" fill="#eabe1b" fill-opacity="1"></use><g><use xlink:href="#bhYPeNvSj" opacity="1" fill-opacity="0" stroke="#000000" stroke-width="1" stroke-opacity="0"></use></g></g><g><use xlink:href="#b1wb6TFDu6" opacity="1" fill="#000000" fill-opacity="0"></use><g><use xlink:href="#b1wb6TFDu6" opacity="1" fill-opacity="0" stroke="#000000" stroke-width="1" stroke-opacity="0"></use></g></g><g><use xlink:href="#gHIhfuApK" opacity="1" fill="#ffffff" fill-opacity="1"></use><g><use xlink:href="#gHIhfuApK" opacity="1" fill-opacity="0" stroke="#000000" stroke-width="1" stroke-opacity="0"></use></g></g><g><use xlink:href="#a1esFq0NIq" opacity="1" fill="#000000" fill-opacity="0"></use><g><use xlink:href="#a1esFq0NIq" opacity="1" fill-opacity="0" stroke="#000000" stroke-width="1" stroke-opacity="0"></use></g></g><g><use xlink:href="#h15pTeTUXL" opacity="1" fill="#ffffff" fill-opacity="1"></use><g><use xlink:href="#h15pTeTUXL" opacity="1" fill-opacity="0" stroke="#000000" stroke-width="1" stroke-opacity="0"></use></g></g><g><use xlink:href="#agLG1WIFl" opacity="1" fill="#000000" fill-opacity="0"></use><g><use xlink:href="#agLG1WIFl" opacity="1" fill-opacity="0" stroke="#000000" stroke-width="1" stroke-opacity="0"></use></g></g></g></g></svg>