<?xml version="1.0" encoding="UTF-8" standalone="no"?>
<!DOCTYPE svg PUBLIC "-//W3C//DTD SVG 1.1//EN" "http://www.w3.org/Graphics/SVG/1.1/DTD/svg11.dtd">
<svg version="1.1" xmlns="http://www.w3.org/2000/svg" xmlns:xlink="http://www.w3.org/1999/xlink" preserveAspectRatio="xMidYMid meet" viewBox="0 0 640 640" width="640" height="640"><defs><path d="M7 320.93C7 494.2 147.47 634.67 320.73 634.67C494 634.67 634.47 494.2 634.47 320.93C634.47 147.67 494 7.2 320.73 7.2C147.47 7.2 7 147.67 7 320.93Z" id="d1yeKQb2xY"></path><path d="M7 320.93C7 494.2 147.47 634.67 320.73 634.67C494 634.67 634.47 494.2 634.47 320.93C634.47 147.67 494 7.2 320.73 7.2C147.47 7.2 7 147.67 7 320.93Z" id="b2Gj36R8tf"></path><path d="M171.94 160.5L172.92 159.98L173.91 159.46L174.91 158.97L175.9 158.5L176.91 158.06L177.94 157.63L178.96 157.22L179.99 156.84L181.03 156.48L182.09 156.13L183.13 155.82L184.19 155.52L185.25 155.25L186.32 154.99L187.39 154.76L188.47 154.55L189.54 154.36L190.63 154.2L191.72 154.06L192.81 153.94L193.9 153.84L194.99 153.76L196.08 153.7L197.18 153.67L198.27 153.65L199.38 153.67L200.46 153.7L201.57 153.76L202.66 153.84L203.76 153.94L204.85 154.06L205.94 154.22L207.05 154.38L208.14 154.57L209.23 154.79L210.3 155.03L211.39 155.29L212.46 155.58L213.54 155.88L215.65 156.56L217.72 157.3L219.74 158.14L221.71 159.04L223.64 160.01L225.5 161.06L227.32 162.16L229.09 163.35L230.79 164.59L232.45 165.89L234.04 167.26L235.57 168.68L237.04 170.15L238.46 171.68L239.8 173.26L241.1 174.89L242.32 176.56L243.48 178.28L244.57 180.03L245.58 181.83L246.55 183.66L247.43 185.54L248.24 187.44L248.98 189.38L249.64 191.35L250.22 193.34L250.73 195.36L251.17 197.4L251.52 199.45L251.8 201.53L251.99 203.63L252.1 205.73L252.13 207.85L252.07 209.98L251.94 212.13L251.71 214.26L251.39 216.4L250.98 218.55L250.49 220.7L249.91 222.84L335.05 264.1L335.6 262.77L336.15 261.41L336.69 260.07L337.7 257.35L338.68 254.64L339.13 253.27L339.58 251.89L340.02 250.5L340.43 249.13L340.84 247.74L341.23 246.35L341.61 244.96L341.98 243.56L342.32 242.15L342.99 239.34L343.29 237.94L343.57 236.52L343.85 235.11L344.12 233.69L344.38 232.27L344.61 230.85L344.83 229.41L345.04 227.99L345.23 226.55L345.58 223.68L345.86 220.81L345.97 219.37L346.08 217.92L346.18 216.48L346.25 215.03L346.32 213.59L346.36 212.14L346.4 210.69L346.41 209.25L346.41 207.8L373.36 207.8L373.33 211.27L373.23 214.75L373.15 216.48L373.06 218.22L372.95 219.96L372.82 221.69L372.67 223.41L372.51 225.15L372.13 228.59L371.91 230.31L371.67 232.03L371.42 233.75L371.15 235.46L370.87 237.18L370.57 238.88L370.25 240.59L369.9 242.28L369.56 243.98L369.18 245.67L368.39 249.05L367.96 250.72L367.52 252.4L367.06 254.07L366.59 255.74L366.1 257.4L365.06 260.72L364.52 262.36L363.95 264.02L363.38 265.64L362.78 267.28L362.18 268.91L361.55 270.54L360.9 272.15L360.24 273.76L359.56 275.37L491.65 339.14L485.76 351.24L353.67 287.36L352.4 289.76L351.08 292.16L349.74 294.53L348.37 296.87L346.95 299.19L345.5 301.48L344.01 303.75L342.5 306.01L340.95 308.22L339.37 310.41L337.76 312.59L336.1 314.74L334.43 316.85L332.72 318.94L330.99 321.01L329.2 323.04L327.4 325.05L325.57 327.04L323.71 328.98L321.82 330.9L319.91 332.8L317.95 334.66L315.98 336.51L313.97 338.31L311.93 340.08L309.87 341.83L307.78 343.53L305.67 345.22L303.52 346.86L301.36 348.49L299.16 350.07L296.95 351.62L294.7 353.15L292.44 354.63L290.13 356.08L287.83 357.5L285.48 358.88L283.12 360.24L280.72 361.55L278.32 362.82L282.93 372.33L293.01 393.14L294.44 396.1L342.31 494.9L330.2 500.8L213.38 259.26L212.32 259.55L211.25 259.83L210.19 260.07L209.12 260.31L208.03 260.51L205.88 260.86L204.79 260.99L203.72 261.11L202.63 261.21L201.54 261.29L200.46 261.33L199.38 261.36L198.29 261.36L197.21 261.35L196.12 261.32L195.03 261.25L193.96 261.17L192.89 261.08L191.81 260.95L190.74 260.81L189.67 260.64L188.59 260.45L187.54 260.24L186.48 260.02L185.42 259.77L183.34 259.2L182.29 258.89L181.25 258.54L180.23 258.19L179.22 257.81L178.19 257.4L177.2 256.99L176.18 256.55L175.19 256.09L174.21 255.6L173.23 255.1L172.27 254.58L171.31 254.02L169.41 252.87L167.58 251.64L165.81 250.36L164.11 249L162.48 247.6L160.92 246.15L159.42 244.63L157.98 243.07L156.63 241.46L155.33 239.8L154.1 238.09L152.95 236.34L151.87 234.56L150.86 232.74L149.92 230.9L149.06 229L148.27 227.09L147.55 225.15L146.92 223.18L146.35 221.19L145.86 219.18L145.45 217.15L145.12 215.11L144.86 213.06L144.69 210.99L144.6 208.91L144.58 206.84L144.64 204.75L144.79 202.65L145.01 200.57L145.32 198.5L145.72 196.42L146.19 194.35L146.74 192.3L147.39 190.26L148.13 188.22L148.94 186.22L149.85 184.23L150.85 182.27L151.92 180.33L131.71 160.12L150.77 140.87L170.98 161.07L171.94 160.5ZM243.81 235.98L243.06 237.21L242.66 237.81L242.25 238.41L241.43 239.58L241 240.16L240.58 240.73L240.14 241.3L239.69 241.85L239.24 242.4L238.76 242.96L238.31 243.49L237.82 244.03L237.34 244.55L236.84 245.07L236.35 245.58L235.84 246.08L235.32 246.59L234.28 247.57L233.74 248.04L233.21 248.5L232.65 248.97L232.1 249.41L231.53 249.87L230.98 250.3L230.4 250.74L229.81 251.15L229.23 251.58L228.64 251.99L227.44 252.78L226.83 253.16L226.21 253.52L225.6 253.9L266.53 338.83L266.74 338.83L268.85 337.69L270.94 336.52L273 335.32L275.06 334.09L277.08 332.83L279.08 331.54L281.06 330.21L283.01 328.85L284.94 327.46L286.85 326.06L288.74 324.61L290.61 323.14L292.44 321.64L294.25 320.11L296.04 318.54L297.8 316.96L299.53 315.35L301.25 313.71L302.92 312.04L304.58 310.35L306.22 308.63L307.81 306.88L309.39 305.11L310.94 303.31L312.45 301.49L313.94 299.65L315.41 297.77L316.83 295.87L318.23 293.95L319.61 292.01L320.95 290.05L322.26 288.06L323.54 286.05L324.78 284.02L326 281.97L327.2 279.9L328.35 277.8L329.47 275.68L244.54 234.73L244.18 235.36L243.81 235.98ZM193.99 195.11L192.03 195.9L190.22 197L188.55 198.42L187.14 200.1L186.05 201.93L185.26 203.87L184.8 205.89L184.65 207.96L184.8 210.01L185.26 212.03L186.05 213.97L187.14 215.8L188.55 217.48L190.22 218.9L192.05 220L193.99 220.79L196.01 221.27L198.08 221.42L200.13 221.27L202.15 220.79L204.1 220L205.93 218.9L207.6 217.48L209.02 215.8L210.13 213.99L210.92 212.03L211.39 210.01L211.55 207.96L211.39 205.89L210.92 203.87L210.13 201.93L209.02 200.1L207.6 198.42L205.93 197L204.1 195.9L202.15 195.11L200.13 194.63L198.07 194.48L196.01 194.63L193.99 195.11Z" id="k3z7Zw5n7"></path><path d="M171.94 160.5L172.92 159.98L173.91 159.46L174.91 158.97L175.9 158.5L176.91 158.06L177.94 157.63L178.96 157.22L179.99 156.84L181.03 156.48L182.09 156.13L183.13 155.82L184.19 155.52L185.25 155.25L186.32 154.99L187.39 154.76L188.47 154.55L189.54 154.36L190.63 154.2L191.72 154.06L192.81 153.94L193.9 153.84L194.99 153.76L196.08 153.7L197.18 153.67L198.27 153.65L199.38 153.67L200.46 153.7L201.57 153.76L202.66 153.84L203.76 153.94L204.85 154.06L205.94 154.22L207.05 154.38L208.14 154.57L209.23 154.79L210.3 155.03L211.39 155.29L212.46 155.58L213.54 155.88L215.65 156.56L217.72 157.3L219.74 158.14L221.71 159.04L223.64 160.01L225.5 161.06L227.32 162.16L229.09 163.35L230.79 164.59L232.45 165.89L234.04 167.26L235.57 168.68L237.04 170.15L238.46 171.68L239.8 173.26L241.1 174.89L242.32 176.56L243.48 178.28L244.57 180.03L245.58 181.83L246.55 183.66L247.43 185.54L248.24 187.44L248.98 189.38L249.64 191.35L250.22 193.34L250.73 195.36L251.17 197.4L251.52 199.45L251.8 201.53L251.99 203.63L252.1 205.73L252.13 207.85L252.07 209.98L251.94 212.13L251.71 214.26L251.39 216.4L250.98 218.55L250.49 220.7L249.91 222.84L335.05 264.1L335.6 262.77L336.15 261.41L336.69 260.07L337.7 257.35L338.68 254.64L339.13 253.27L339.58 251.89L340.02 250.5L340.43 249.13L340.84 247.74L341.23 246.35L341.61 244.96L341.98 243.56L342.32 242.15L342.99 239.34L343.29 237.94L343.57 236.52L343.85 235.11L344.12 233.69L344.38 232.27L344.61 230.85L344.83 229.41L345.04 227.99L345.23 226.55L345.58 223.68L345.86 220.81L345.97 219.37L346.08 217.92L346.18 216.48L346.25 215.03L346.32 213.59L346.36 212.14L346.4 210.69L346.41 209.25L346.41 207.8L373.36 207.8L373.33 211.27L373.23 214.75L373.15 216.48L373.06 218.22L372.95 219.96L372.82 221.69L372.67 223.41L372.51 225.15L372.13 228.59L371.91 230.31L371.67 232.03L371.42 233.75L371.15 235.46L370.87 237.18L370.57 238.88L370.25 240.59L369.9 242.28L369.56 243.98L369.18 245.67L368.39 249.05L367.96 250.72L367.52 252.4L367.06 254.07L366.59 255.74L366.1 257.4L365.06 260.72L364.52 262.36L363.95 264.02L363.38 265.64L362.78 267.28L362.18 268.91L361.55 270.54L360.9 272.15L360.24 273.76L359.56 275.37L491.65 339.14L485.76 351.24L353.67 287.36L352.4 289.76L351.08 292.16L349.74 294.53L348.37 296.87L346.95 299.19L345.5 301.48L344.01 303.75L342.5 306.01L340.95 308.22L339.37 310.41L337.76 312.59L336.1 314.74L334.43 316.85L332.72 318.94L330.99 321.01L329.2 323.04L327.4 325.05L325.57 327.04L323.71 328.98L321.82 330.9L319.91 332.8L317.95 334.66L315.98 336.51L313.97 338.31L311.93 340.08L309.87 341.83L307.78 343.53L305.67 345.22L303.52 346.86L301.36 348.49L299.16 350.07L296.95 351.62L294.7 353.15L292.44 354.63L290.13 356.08L287.83 357.5L285.48 358.88L283.12 360.24L280.72 361.55L278.32 362.82L282.93 372.33L293.01 393.14L294.44 396.1L342.31 494.9L330.2 500.8L213.38 259.26L212.32 259.55L211.25 259.83L210.19 260.07L209.12 260.31L208.03 260.51L205.88 260.86L204.79 260.99L203.72 261.11L202.63 261.21L201.54 261.29L200.46 261.33L199.38 261.36L198.29 261.36L197.21 261.35L196.12 261.32L195.03 261.25L193.96 261.17L192.89 261.08L191.81 260.95L190.74 260.81L189.67 260.64L188.59 260.45L187.54 260.24L186.48 260.02L185.42 259.77L183.34 259.2L182.29 258.89L181.25 258.54L180.23 258.19L179.22 257.81L178.19 257.4L177.2 256.99L176.18 256.55L175.19 256.09L174.21 255.6L173.23 255.1L172.27 254.58L171.31 254.02L169.41 252.87L167.58 251.64L165.81 250.36L164.11 249L162.48 247.6L160.92 246.15L159.42 244.63L157.98 243.07L156.63 241.46L155.33 239.8L154.1 238.09L152.95 236.34L151.87 234.56L150.86 232.74L149.92 230.9L149.06 229L148.27 227.09L147.55 225.15L146.92 223.18L146.35 221.19L145.86 219.18L145.45 217.15L145.12 215.11L144.86 213.06L144.69 210.99L144.6 208.91L144.58 206.84L144.64 204.75L144.79 202.65L145.01 200.57L145.32 198.5L145.72 196.42L146.19 194.35L146.74 192.3L147.39 190.26L148.13 188.22L148.94 186.22L149.85 184.23L150.85 182.27L151.92 180.33L131.71 160.12L150.77 140.87L170.98 161.07L171.94 160.5ZM243.81 235.98L243.06 237.21L242.66 237.81L242.25 238.41L241.43 239.58L241 240.16L240.58 240.73L240.14 241.3L239.69 241.85L239.24 242.4L238.76 242.96L238.31 243.49L237.82 244.03L237.34 244.55L236.84 245.07L236.35 245.58L235.84 246.08L235.32 246.59L234.28 247.57L233.74 248.04L233.21 248.5L232.65 248.97L232.1 249.41L231.53 249.87L230.98 250.3L230.4 250.74L229.81 251.15L229.23 251.58L228.64 251.99L227.44 252.78L226.83 253.16L226.21 253.52L225.6 253.9L266.53 338.83L266.74 338.83L268.85 337.69L270.94 336.52L273 335.32L275.06 334.09L277.08 332.83L279.08 331.54L281.06 330.21L283.01 328.85L284.94 327.46L286.85 326.06L288.74 324.61L290.61 323.14L292.44 321.64L294.25 320.11L296.04 318.54L297.8 316.96L299.53 315.35L301.25 313.71L302.92 312.04L304.58 310.35L306.22 308.63L307.81 306.88L309.39 305.11L310.94 303.31L312.45 301.49L313.94 299.65L315.41 297.77L316.83 295.87L318.23 293.95L319.61 292.01L320.95 290.05L322.26 288.06L323.54 286.05L324.78 284.02L326 281.97L327.2 279.9L328.35 277.8L329.47 275.68L244.54 234.73L244.18 235.36L243.81 235.98ZM193.99 195.11L192.03 195.9L190.22 197L188.55 198.42L187.14 200.1L186.05 201.93L185.26 203.87L184.8 205.89L184.65 207.96L184.8 210.01L185.26 212.03L186.05 213.97L187.14 215.8L188.55 217.48L190.22 218.9L192.05 220L193.99 220.79L196.01 221.27L198.08 221.42L200.13 221.27L202.15 220.79L204.1 220L205.93 218.9L207.6 217.48L209.02 215.8L210.13 213.99L210.92 212.03L211.39 210.01L211.55 207.96L211.39 205.89L210.92 203.87L210.13 201.93L209.02 200.1L207.6 198.42L205.93 197L204.1 195.9L202.15 195.11L200.13 194.63L198.07 194.48L196.01 194.63L193.99 195.11Z" id="adpu9Am9F"></path></defs><g><g><g><use xlink:href="#d1yeKQb2xY" opacity="1" fill="#eabe1d" fill-opacity="1"></use><g><use xlink:href="#d1yeKQb2xY" opacity="1" fill-opacity="0" stroke="#000000" stroke-width="1" stroke-opacity="0"></use></g></g><g><use xlink:href="#b2Gj36R8tf" opacity="1" fill="#000000" fill-opacity="0"></use><g><use xlink:href="#b2Gj36R8tf" opacity="1" fill-opacity="0" stroke="#000000" stroke-width="1" stroke-opacity="0"></use></g></g><g><use xlink:href="#k3z7Zw5n7" opacity="1" fill="#ffffff" fill-opacity="1"></use><g><use xlink:href="#k3z7Zw5n7" opacity="1" fill-opacity="0" stroke="#000000" stroke-width="1" stroke-opacity="0"></use></g></g><g><use xlink:href="#adpu9Am9F" opacity="1" fill="#000000" fill-opacity="0"></use><g><use xlink:href="#adpu9Am9F" opacity="1" fill-opacity="0" stroke="#000000" stroke-width="1" stroke-opacity="0"></use></g></g></g></g></svg>