<?xml version="1.0" encoding="UTF-8" standalone="no"?>
<!DOCTYPE svg PUBLIC "-//W3C//DTD SVG 1.1//EN" "http://www.w3.org/Graphics/SVG/1.1/DTD/svg11.dtd">
<svg version="1.1" xmlns="http://www.w3.org/2000/svg" xmlns:xlink="http://www.w3.org/1999/xlink" preserveAspectRatio="xMidYMid meet" viewBox="0 0 640 640" width="640" height="640"><defs><path d="M319.68 633.82C145.52 633.82 4.34 492.87 4.34 319.01C4.34 145.15 145.52 4.2 319.68 4.2C493.83 4.2 635.01 145.15 635.01 319.01C635.01 492.87 493.83 633.82 319.68 633.82Z" id="f2C2n9LahL"></path><path d="M319.68 633.82C145.52 633.82 4.34 492.87 4.34 319.01C4.34 145.15 145.52 4.2 319.68 4.2C493.83 4.2 635.01 145.15 635.01 319.01C635.01 492.87 493.83 633.82 319.68 633.82Z" id="f1BD216wj"></path><path d="M430.64 208.26L430.64 178.36L327.02 178.36L327.02 311.57L430.64 311.57L430.64 281.99L512.03 281.99L512.03 363.38L430.64 363.38L430.64 333.8L327.02 333.8L327.02 459.66L430.64 459.66L430.64 430.08L512.03 430.08L512.03 511.47L430.64 511.47L430.64 481.89L304.36 481.89L304.36 333.8L208.62 333.8L208.62 363.38L126.69 363.38L126.69 281.99L209.15 281.99L209.15 311.68L304.89 311.68L304.89 156.13L430.64 156.13L430.64 126.55L512.14 126.55L512.14 208.26L430.64 208.26ZM149.46 341.24L186.48 341.24L186.48 304.02L149.46 304.02L149.46 341.24Z" id="e3sQdvooD"></path><path d="M430.64 208.26L430.64 178.36L327.02 178.36L327.02 311.57L430.64 311.57L430.64 281.99L512.03 281.99L512.03 363.38L430.64 363.38L430.64 333.8L327.02 333.8L327.02 459.66L430.64 459.66L430.64 430.08L512.03 430.08L512.03 511.47L430.64 511.47L430.64 481.89L304.36 481.89L304.36 333.8L208.62 333.8L208.62 363.38L126.69 363.38L126.69 281.99L209.15 281.99L209.15 311.68L304.89 311.68L304.89 156.13L430.64 156.13L430.64 126.55L512.14 126.55L512.14 208.26L430.64 208.26ZM149.46 341.24L186.48 341.24L186.48 304.02L149.46 304.02L149.46 341.24Z" id="clhVrpx0Z"></path></defs><g><g><g><use xlink:href="#f2C2n9LahL" opacity="1" fill="#ecc01b" fill-opacity="1"></use><g><use xlink:href="#f2C2n9LahL" opacity="1" fill-opacity="0" stroke="#000000" stroke-width="1" stroke-opacity="0"></use></g></g><g><use xlink:href="#f1BD216wj" opacity="1" fill="#000000" fill-opacity="0"></use><g><use xlink:href="#f1BD216wj" opacity="1" fill-opacity="0" stroke="#000000" stroke-width="1" stroke-opacity="0"></use></g></g><g><use xlink:href="#e3sQdvooD" opacity="1" fill="#ffffff" fill-opacity="1"></use><g><use xlink:href="#e3sQdvooD" opacity="1" fill-opacity="0" stroke="#000000" stroke-width="1" stroke-opacity="0"></use></g></g><g><use xlink:href="#clhVrpx0Z" opacity="1" fill="#000000" fill-opacity="0"></use><g><use xlink:href="#clhVrpx0Z" opacity="1" fill-opacity="0" stroke="#000000" stroke-width="1" stroke-opacity="0"></use></g></g></g></g></svg>