<?xml version="1.0" encoding="UTF-8" standalone="no"?>
<!DOCTYPE svg PUBLIC "-//W3C//DTD SVG 1.1//EN" "http://www.w3.org/Graphics/SVG/1.1/DTD/svg11.dtd">
<svg version="1.1" xmlns="http://www.w3.org/2000/svg" xmlns:xlink="http://www.w3.org/1999/xlink" preserveAspectRatio="xMidYMid meet" viewBox="0 0 640 640" width="640" height="640"><defs><path d="M4.43 320.87C4.43 494.53 145.21 635.33 318.89 635.33C492.56 635.33 633.35 494.53 633.35 320.87C633.35 147.18 492.56 6.39 318.89 6.39C145.21 6.39 4.43 147.18 4.43 320.87Z" id="b54uQB0yo"></path><path d="M4.43 320.87C4.43 494.53 145.21 635.33 318.89 635.33C492.56 635.33 633.35 494.53 633.35 320.87C633.35 147.18 492.56 6.39 318.89 6.39C145.21 6.39 4.43 147.18 4.43 320.87Z" id="a2vbyc3jq4"></path><path d="M379.16 155.1L379.78 155.19L380.09 155.25L380.39 155.33L380.7 155.41L380.98 155.5L381.28 155.61L381.84 155.86L382.37 156.14L382.64 156.3L382.89 156.47L383.14 156.66L383.37 156.83L383.61 157.03L383.82 157.24L384.04 157.45L384.45 157.89L384.64 158.13L385.15 158.87L385.29 159.14L385.43 159.42L385.57 159.69L385.7 159.97L385.81 160.26L385.9 160.55L385.99 160.84L386.07 161.15L386.13 161.45L386.23 162.07L386.24 162.4L386.26 162.71L386.27 163.04L386.27 222.56L414.85 222.56L414.85 255.39L471.19 255.39L471.5 255.4L471.83 255.43L472.14 255.46L472.45 255.51L472.76 255.57L473.06 255.65L473.37 255.73L473.67 255.82L473.95 255.93L474.51 256.18L475.04 256.46L475.31 256.63L475.56 256.79L475.81 256.98L476.28 257.35L476.49 257.56L476.71 257.77L476.92 257.99L477.12 258.23L477.31 258.46L477.48 258.69L477.65 258.94L477.82 259.21L478.24 260.01L478.37 260.29L478.48 260.58L478.66 261.18L478.74 261.47L478.8 261.77L478.9 262.39L478.91 262.72L478.93 263.03L478.95 263.36L478.95 274.24L478.93 274.29L478.93 274.32L478.91 274.63L478.9 274.96L478.8 275.58L478.73 275.9L478.57 276.49L478.35 277.08L478.24 277.36L478.1 277.63L477.96 277.91L477.81 278.16L477.65 278.42L477.48 278.67L477.29 278.91L477.1 279.16L476.7 279.6L476.48 279.81L476.26 280.02L475.79 280.39L475.54 280.58L475.29 280.73L474.76 281.05L474.5 281.19L474.22 281.31L473.65 281.53L473.06 281.72L472.76 281.78L472.45 281.84L471.83 281.94L471.5 281.95L471.19 281.97L414.85 281.97L414.85 309.17L471.41 309.17L472.03 309.24L472.34 309.28L472.65 309.35L472.97 309.42L473.26 309.5L473.56 309.6L473.84 309.71L474.4 309.95L474.68 310.1L474.95 310.25L475.45 310.56L475.7 310.75L476.17 311.13L476.39 311.33L476.6 311.55L476.81 311.77L477.01 312L477.38 312.47L477.56 312.72L477.87 313.25L478.01 313.51L478.26 314.08L478.37 314.36L478.56 314.95L478.63 315.25L478.7 315.56L478.74 315.86L478.79 316.18L478.82 316.5L478.84 316.81L478.84 327.98L478.82 328.31L478.8 328.62L478.71 329.25L478.65 329.56L478.57 329.87L478.49 330.17L478.4 330.47L478.29 330.75L478.04 331.31L477.9 331.59L477.76 331.85L477.6 332.1L477.43 332.35L477.24 332.6L477.07 332.84L476.87 333.07L476.67 333.29L476.45 333.51L476.01 333.91L475.78 334.1L475.53 334.29L475.28 334.46L475.03 334.62L474.76 334.77L474.48 334.91L474.22 335.04L473.93 335.16L473.64 335.27L473.36 335.37L473.06 335.46L472.75 335.54L472.45 335.6L471.83 335.69L471.5 335.73L471.19 335.74L414.85 335.74L414.85 360.92L472.06 360.92L472.78 360.86L473.5 360.86L473.86 360.87L474.2 360.9L474.54 360.97L474.89 361.01L475.23 361.09L475.89 361.28L476.21 361.39L476.53 361.51L476.84 361.65L477.15 361.81L477.45 361.96L477.74 362.14L478.02 362.31L478.31 362.51L478.84 362.92L479.1 363.15L479.34 363.37L479.59 363.62L479.8 363.87L480.24 364.4L480.62 364.96L480.8 365.26L480.96 365.55L481.27 366.18L481.52 366.83L481.61 367.18L481.71 367.51L481.8 367.86L481.86 368.21L481.91 368.58L481.91 379.42L481.9 379.74L481.88 380.06L481.85 380.38L481.79 380.7L481.74 381.01L481.66 381.3L481.47 381.9L481.36 382.19L481.26 382.47L481.13 382.74L480.99 383.02L480.83 383.29L480.68 383.54L480.51 383.8L480.33 384.04L480.15 384.29L479.94 384.5L479.74 384.74L479.32 385.16L478.85 385.53L478.6 385.72L478.35 385.89L478.1 386.05L477.84 386.21L477.57 386.35L477.01 386.6L476.73 386.7L476.43 386.81L475.84 386.97L475.21 387.09L474.59 387.16L474.26 387.17L416.77 387.17L416.77 420.33L387.01 420.33L387.01 478.78L386.99 479.11L386.98 479.42L386.95 479.75L386.88 480.06L386.84 480.36L386.76 480.67L386.57 481.26L386.46 481.55L386.35 481.84L386.23 482.11L386.09 482.39L385.93 482.65L385.77 482.9L385.6 483.17L385.43 483.4L385.24 483.65L385.04 483.87L384.84 484.11L384.42 484.53L383.95 484.9L383.7 485.09L383.45 485.26L383.2 485.42L382.93 485.57L382.67 485.71L382.11 485.96L381.83 486.07L381.23 486.26L380.94 486.34L380.31 486.46L379.69 486.52L379.36 486.54L368.34 486.54L368.31 486.56L368.11 486.56L368.06 486.57L367.31 486.57L366.98 486.54L366.67 486.51L366.04 486.42L365.45 486.26L365.16 486.17L364.86 486.06L364.58 485.95L364.3 485.82L364.02 485.68L363.75 485.54L363.5 485.39L363.24 485.21L363 485.04L362.75 484.85L362.52 484.67L362.3 484.46L362.08 484.25L361.67 483.81L361.49 483.57L361.3 483.32L361.13 483.07L360.97 482.83L360.66 482.29L360.41 481.73L360.19 481.17L360.1 480.87L360.02 480.56L359.96 480.27L359.89 479.95L359.86 479.64L359.83 479.31L359.82 479L359.8 478.67L359.8 420.33L331.22 420.33L331.22 478.89L331.21 479.22L331.14 479.84L331.1 480.17L331.03 480.47L330.96 480.78L330.88 481.08L330.78 481.37L330.67 481.65L330.43 482.22L330.28 482.5L330.14 482.76L329.99 483.01L329.82 483.26L329.63 483.51L329.46 483.75L329.25 483.98L329.05 484.2L328.83 484.42L328.4 484.82L328.15 485.01L327.91 485.2L327.66 485.37L327.4 485.53L327.15 485.68L326.87 485.82L326.6 485.95L326.32 486.07L326.02 486.18L325.74 486.27L325.45 486.37L325.13 486.45L324.84 486.51L324.21 486.6L323.88 486.63L323.57 486.65L312.41 486.65L311.76 486.62L311.13 486.52L310.82 486.46L310.52 486.4L310.21 486.31L309.93 486.21L309.63 486.1L309.35 485.99L309.07 485.85L308.54 485.57L308.28 485.42L307.78 485.07L307.54 484.89L307.31 484.68L307.09 484.48L306.87 484.26L306.47 483.82L306.28 483.59L305.76 482.84L305.62 482.58L305.48 482.29L305.34 482.03L305.23 481.75L305.11 481.45L305.01 481.17L304.92 480.87L304.86 480.56L304.78 480.27L304.69 479.64L304.67 479.33L304.65 479L304.65 420.33L277.87 420.33L277.87 479.42L277.85 479.75L277.84 480.06L277.79 480.39L277.74 480.7L277.68 481L277.62 481.31L277.43 481.9L277.21 482.47L276.93 483.03L276.79 483.29L276.64 483.54L276.29 484.04L276.11 484.28L275.9 484.51L275.7 484.73L275.48 484.95L275.04 485.35L274.81 485.54L274.56 485.73L274.31 485.9L274.06 486.06L273.8 486.21L273.51 486.35L273.25 486.48L272.97 486.6L272.67 486.71L272.39 486.81L272.09 486.9L271.78 486.98L271.49 487.04L270.86 487.13L270.55 487.16L270.22 487.18L258.42 487.18L251.51 480.27L251.51 420.76L220.47 420.76L220.47 389.83L163.94 389.83L163.61 389.8L163.3 389.76L162.99 389.72L162.67 389.65L162.38 389.58L162.07 389.5L161.78 389.39L161.49 389.3L160.93 389.05L160.66 388.91L160.13 388.59L159.63 388.25L159.16 387.88L158.94 387.66L158.73 387.45L158.52 387.24L158.32 387L158.13 386.77L157.62 386.02L157.34 385.49L157.2 385.21L157.07 384.93L156.96 384.64L156.77 384.05L156.71 383.75L156.63 383.44L156.54 382.82L156.52 382.51L156.51 382.18L156.51 371.2L156.49 371.16L156.51 371.06L156.51 370.69L156.54 370.38L156.57 370.05L156.62 369.74L156.68 369.44L156.76 369.13L156.84 368.83L156.93 368.54L157.04 368.25L157.16 367.96L157.29 367.69L157.43 367.41L157.57 367.15L157.74 366.9L157.9 366.65L158.09 366.4L158.46 365.93L158.66 365.71L158.88 365.49L159.1 365.29L159.33 365.09L159.8 364.71L160.05 364.54L160.58 364.23L160.85 364.09L161.41 363.84L161.69 363.73L162.28 363.54L162.58 363.46L162.89 363.4L163.19 363.35L163.5 363.31L163.83 363.28L164.14 363.26L220.47 363.26L220.47 335.85L164.25 335.85L163.94 335.83L163.61 335.8L163.3 335.77L162.99 335.73L162.67 335.66L162.38 335.58L162.07 335.51L161.78 335.41L161.49 335.3L160.93 335.05L160.4 334.77L160.13 334.6L159.88 334.45L159.63 334.26L159.16 333.88L158.94 333.68L158.73 333.46L158.52 333.24L158.32 333.01L158.13 332.78L157.96 332.54L157.79 332.29L157.62 332.03L157.2 331.23L157.07 330.95L156.96 330.65L156.77 330.06L156.71 329.76L156.63 329.47L156.54 328.84L156.52 328.51L156.51 328.2L156.51 318.71L156.49 318.66L156.51 318.56L156.51 318.2L156.54 317.87L156.57 317.56L156.62 317.24L156.68 316.93L156.84 316.34L156.93 316.04L157.04 315.75L157.29 315.18L157.57 314.65L157.74 314.39L157.9 314.14L158.09 313.89L158.46 313.42L158.66 313.2L158.88 312.98L159.1 312.78L159.33 312.59L159.57 312.39L159.8 312.22L160.05 312.05L160.58 311.73L160.85 311.59L161.13 311.45L161.69 311.23L161.99 311.13L162.58 310.97L162.89 310.91L163.19 310.84L163.5 310.81L163.83 310.78L164.14 310.77L220.47 310.77L220.47 281L165.11 281L164.78 280.97L164.47 280.94L164.16 280.89L163.85 280.83L163.53 280.75L163.24 280.67L162.94 280.56L162.66 280.47L162.1 280.22L161.83 280.08L161.3 279.77L160.8 279.42L160.33 279.05L160.11 278.85L159.9 278.63L159.69 278.41L159.49 278.17L159.3 277.94L159.13 277.71L158.96 277.46L158.79 277.19L158.51 276.66L158.37 276.38L158.24 276.1L158.13 275.82L157.95 275.22L157.87 274.93L157.8 274.62L157.76 274.32L157.71 273.99L157.7 273.68L157.68 273.35L157.66 273.04L157.66 262.19L157.68 261.86L157.74 261.24L157.79 260.93L157.85 260.61L157.93 260.3L158.01 260.01L158.1 259.71L158.21 259.43L158.46 258.87L158.6 258.59L158.74 258.32L158.91 258.07L159.07 257.82L159.26 257.57L159.63 257.1L159.83 256.88L160.05 256.67L160.27 256.46L160.5 256.26L160.97 255.89L161.22 255.71L161.75 255.4L162.02 255.26L162.28 255.14L162.57 255.01L162.86 254.9L163.14 254.81L163.44 254.71L163.75 254.64L164.05 254.57L164.67 254.48L165 254.45L165.31 254.43L220.47 254.43L220.47 222.56L251.08 222.56L251.08 163.99L251.1 163.67L251.12 163.35L251.16 163.03L251.21 162.71L251.27 162.42L251.33 162.11L251.52 161.51L251.74 160.95L251.88 160.67L252.01 160.39L252.16 160.12L252.32 159.87L252.66 159.37L252.85 159.14L253.05 158.91L253.25 158.69L253.47 158.47L253.91 158.06L254.14 157.88L254.39 157.69L254.64 157.52L254.89 157.36L255.16 157.2L255.42 157.06L255.99 156.81L256.27 156.71L256.86 156.52L257.16 156.44L257.47 156.38L258.09 156.28L258.4 156.25L258.73 156.24L269.89 156.24L270.55 156.27L271.17 156.36L271.49 156.42L271.78 156.49L272.38 156.67L272.67 156.78L272.95 156.89L273.23 157.03L273.76 157.31L274.03 157.47L274.53 157.81L274.76 158L275 158.2L275.22 158.41L275.43 158.63L275.64 158.84L275.82 159.06L276.03 159.3L276.37 159.8L276.53 160.05L276.68 160.31L276.82 160.59L276.96 160.86L277.07 161.14L277.18 161.43L277.29 161.72L277.37 162.01L277.45 162.32L277.51 162.62L277.57 162.93L277.64 163.56L277.65 163.89L277.65 222.56L304.86 222.56L304.86 163.99L304.87 163.67L304.89 163.35L304.94 163.03L304.98 162.71L305.04 162.42L305.12 162.11L305.2 161.81L305.29 161.51L305.51 160.95L305.79 160.39L305.93 160.12L306.09 159.87L306.43 159.37L306.62 159.14L306.82 158.91L307.03 158.69L307.25 158.47L307.68 158.06L307.92 157.88L308.17 157.69L308.42 157.52L308.67 157.36L308.93 157.2L309.21 157.06L309.48 156.94L309.76 156.81L310.06 156.71L310.34 156.61L310.63 156.52L310.94 156.44L311.24 156.38L311.87 156.28L312.19 156.25L312.51 156.24L323.67 156.24L324.32 156.27L324.95 156.36L325.26 156.42L325.56 156.49L326.15 156.67L326.44 156.78L326.73 156.89L327.01 157.03L327.54 157.31L327.8 157.47L328.3 157.81L328.54 158L328.77 158.2L328.99 158.41L329.21 158.63L329.61 159.06L329.8 159.3L330.14 159.8L330.3 160.05L330.46 160.31L330.6 160.59L330.74 160.86L330.85 161.14L330.96 161.43L331.07 161.72L331.14 162.01L331.22 162.32L331.28 162.62L331.35 162.93L331.41 163.56L331.42 163.89L331.42 222.56L360.44 222.56L360.44 162.82L360.46 162.5L360.47 162.18L360.57 161.56L360.69 160.94L360.88 160.34L361.1 159.78L361.24 159.5L361.36 159.22L361.52 158.95L361.67 158.7L362.02 158.2L362.21 157.97L362.41 157.74L362.81 157.3L363.05 157.1L363.27 156.89L363.5 156.71L363.75 156.52L364 156.35L364.25 156.19L364.52 156.03L364.78 155.89L365.34 155.64L365.62 155.53L366.22 155.35L366.51 155.27L366.83 155.21L367.45 155.11L367.76 155.08L368.09 155.07L378.52 155.07L378.83 155.08L379.16 155.1ZM313.5 284.51L311.51 284.78L309.52 285.14L307.59 285.6L305.7 286.17L303.84 286.81L302.03 287.56L300.25 288.38L298.54 289.29L296.88 290.29L295.27 291.35L293.71 292.5L292.23 293.72L290.79 295.02L289.44 296.38L288.14 297.81L286.92 299.29L285.77 300.85L284.71 302.46L283.71 304.13L282.8 305.83L281.97 307.61L281.23 309.42L280.59 311.28L280.02 313.17L279.56 315.11L279.2 317.09L278.93 319.09L278.77 321.13L278.71 323.19L278.77 325.27L278.93 327.3L279.2 329.31L279.56 331.28L280.02 333.21L280.59 335.12L281.23 336.97L281.97 338.78L282.8 340.55L283.71 342.27L284.71 343.92L285.78 345.53L286.92 347.09L288.16 348.57L289.45 349.99L290.81 351.37L292.25 352.65L293.74 353.86L295.29 355.02L296.91 356.08L298.58 357.08L300.3 357.98L302.06 358.8L303.89 359.53L305.75 360.17L307.65 360.73L309.6 361.18L311.58 361.54L313.6 361.79L315.64 361.95L317.72 361.98L318.14 361.98L320.2 361.92L322.21 361.75L324.2 361.48L326.16 361.11L328.08 360.64L329.96 360.08L331.8 359.42L333.59 358.67L335.34 357.84L337.03 356.94L338.68 355.94L340.27 354.86L341.8 353.72L343.27 352.51L344.68 351.21L346.02 349.85L347.3 348.43L348.5 346.93L349.64 345.4L350.69 343.8L351.67 342.14L352.56 340.42L353.37 338.68L354.09 336.88L354.73 335.02L355.27 333.15L355.73 331.21L356.07 329.26L356.32 327.27L356.46 325.25L356.51 323.19L356.46 321.13L356.29 319.09L356.04 317.09L355.66 315.11L355.21 313.17L354.65 311.28L353.99 309.42L353.26 307.61L352.43 305.83L351.53 304.13L350.53 302.46L349.45 300.85L348.31 299.29L347.08 297.81L345.78 296.38L344.43 295.02L343.01 293.72L341.51 292.5L339.96 291.35L338.35 290.29L336.68 289.29L334.97 288.38L333.2 287.56L331.39 286.81L329.54 286.17L327.63 285.6L325.7 285.14L323.73 284.78L321.72 284.51L319.69 284.36L317.61 284.29L315.55 284.36L313.5 284.51Z" id="crRCgPvCU"></path><path d="M379.16 155.1L379.78 155.19L380.09 155.25L380.39 155.33L380.7 155.41L380.98 155.5L381.28 155.61L381.84 155.86L382.37 156.14L382.64 156.3L382.89 156.47L383.14 156.66L383.37 156.83L383.61 157.03L383.82 157.24L384.04 157.45L384.45 157.89L384.64 158.13L385.15 158.87L385.29 159.14L385.43 159.42L385.57 159.69L385.7 159.97L385.81 160.26L385.9 160.55L385.99 160.84L386.07 161.15L386.13 161.45L386.23 162.07L386.24 162.4L386.26 162.71L386.27 163.04L386.27 222.56L414.85 222.56L414.85 255.39L471.19 255.39L471.5 255.4L471.83 255.43L472.14 255.46L472.45 255.51L472.76 255.57L473.06 255.65L473.37 255.73L473.67 255.82L473.95 255.93L474.51 256.18L475.04 256.46L475.31 256.63L475.56 256.79L475.81 256.98L476.28 257.35L476.49 257.56L476.71 257.77L476.92 257.99L477.12 258.23L477.31 258.46L477.48 258.69L477.65 258.94L477.82 259.21L478.24 260.01L478.37 260.29L478.48 260.58L478.66 261.18L478.74 261.47L478.8 261.77L478.9 262.39L478.91 262.72L478.93 263.03L478.95 263.36L478.95 274.24L478.93 274.29L478.93 274.32L478.91 274.63L478.9 274.96L478.8 275.58L478.73 275.9L478.57 276.49L478.35 277.08L478.24 277.36L478.1 277.63L477.96 277.91L477.81 278.16L477.65 278.42L477.48 278.67L477.29 278.91L477.1 279.16L476.7 279.6L476.48 279.81L476.26 280.02L475.79 280.39L475.54 280.58L475.29 280.73L474.76 281.05L474.5 281.19L474.22 281.31L473.65 281.53L473.06 281.72L472.76 281.78L472.45 281.84L471.83 281.94L471.5 281.95L471.19 281.97L414.85 281.97L414.85 309.17L471.41 309.17L472.03 309.24L472.34 309.28L472.65 309.35L472.97 309.42L473.26 309.5L473.56 309.6L473.84 309.71L474.4 309.95L474.68 310.1L474.95 310.25L475.45 310.56L475.7 310.75L476.17 311.13L476.39 311.33L476.6 311.55L476.81 311.77L477.01 312L477.38 312.47L477.56 312.72L477.87 313.25L478.01 313.51L478.26 314.08L478.37 314.36L478.56 314.95L478.63 315.25L478.7 315.56L478.74 315.86L478.79 316.18L478.82 316.5L478.84 316.81L478.84 327.98L478.82 328.31L478.8 328.62L478.71 329.25L478.65 329.56L478.57 329.87L478.49 330.17L478.4 330.47L478.29 330.75L478.04 331.31L477.9 331.59L477.76 331.85L477.6 332.1L477.43 332.35L477.24 332.6L477.07 332.84L476.87 333.07L476.67 333.29L476.45 333.51L476.01 333.91L475.78 334.1L475.53 334.29L475.28 334.46L475.03 334.62L474.76 334.77L474.48 334.91L474.22 335.04L473.93 335.16L473.64 335.27L473.36 335.37L473.06 335.46L472.75 335.54L472.45 335.6L471.83 335.69L471.5 335.73L471.19 335.74L414.85 335.74L414.85 360.92L472.06 360.92L472.78 360.86L473.5 360.86L473.86 360.87L474.2 360.9L474.54 360.97L474.89 361.01L475.23 361.09L475.89 361.28L476.21 361.39L476.53 361.51L476.84 361.65L477.15 361.81L477.45 361.96L477.74 362.14L478.02 362.31L478.31 362.51L478.84 362.92L479.1 363.15L479.34 363.37L479.59 363.62L479.8 363.87L480.24 364.4L480.62 364.96L480.8 365.26L480.96 365.55L481.27 366.18L481.52 366.83L481.61 367.18L481.71 367.51L481.8 367.86L481.86 368.21L481.91 368.58L481.91 379.42L481.9 379.74L481.88 380.06L481.85 380.38L481.79 380.7L481.74 381.01L481.66 381.3L481.47 381.9L481.36 382.19L481.26 382.47L481.13 382.74L480.99 383.02L480.83 383.29L480.68 383.54L480.51 383.8L480.33 384.04L480.15 384.29L479.94 384.5L479.74 384.74L479.32 385.16L478.85 385.53L478.6 385.72L478.35 385.89L478.1 386.05L477.84 386.21L477.57 386.35L477.01 386.6L476.73 386.7L476.43 386.81L475.84 386.97L475.21 387.09L474.59 387.16L474.26 387.17L416.77 387.17L416.77 420.33L387.01 420.33L387.01 478.78L386.99 479.11L386.98 479.42L386.95 479.75L386.88 480.06L386.84 480.36L386.76 480.67L386.57 481.26L386.46 481.55L386.35 481.84L386.23 482.11L386.09 482.39L385.93 482.65L385.77 482.9L385.6 483.17L385.43 483.4L385.24 483.65L385.04 483.87L384.84 484.11L384.42 484.53L383.95 484.9L383.7 485.09L383.45 485.26L383.2 485.42L382.93 485.57L382.67 485.71L382.11 485.96L381.83 486.07L381.23 486.26L380.94 486.34L380.31 486.46L379.69 486.52L379.36 486.54L368.34 486.54L368.31 486.56L368.11 486.56L368.06 486.57L367.31 486.57L366.98 486.54L366.67 486.51L366.04 486.42L365.45 486.26L365.16 486.17L364.86 486.06L364.58 485.95L364.3 485.82L364.02 485.68L363.75 485.54L363.5 485.39L363.24 485.21L363 485.04L362.75 484.85L362.52 484.67L362.3 484.46L362.08 484.25L361.67 483.81L361.49 483.57L361.3 483.32L361.13 483.07L360.97 482.83L360.66 482.29L360.41 481.73L360.19 481.17L360.1 480.87L360.02 480.56L359.96 480.27L359.89 479.95L359.86 479.64L359.83 479.31L359.82 479L359.8 478.67L359.8 420.33L331.22 420.33L331.22 478.89L331.21 479.22L331.14 479.84L331.1 480.17L331.03 480.47L330.96 480.78L330.88 481.08L330.78 481.37L330.67 481.65L330.43 482.22L330.28 482.5L330.14 482.76L329.99 483.01L329.82 483.26L329.63 483.51L329.46 483.75L329.25 483.98L329.05 484.2L328.83 484.42L328.4 484.82L328.15 485.01L327.91 485.2L327.66 485.37L327.4 485.53L327.15 485.68L326.87 485.82L326.6 485.95L326.32 486.07L326.02 486.18L325.74 486.27L325.45 486.37L325.13 486.45L324.84 486.51L324.21 486.6L323.88 486.63L323.57 486.65L312.41 486.65L311.76 486.62L311.13 486.52L310.82 486.46L310.52 486.4L310.21 486.31L309.93 486.21L309.63 486.1L309.35 485.99L309.07 485.85L308.54 485.57L308.28 485.42L307.78 485.07L307.54 484.89L307.31 484.68L307.09 484.48L306.87 484.26L306.47 483.82L306.28 483.59L305.76 482.84L305.62 482.58L305.48 482.29L305.34 482.03L305.23 481.75L305.11 481.45L305.01 481.17L304.92 480.87L304.86 480.56L304.78 480.27L304.69 479.64L304.67 479.33L304.65 479L304.65 420.33L277.87 420.33L277.87 479.42L277.85 479.75L277.84 480.06L277.79 480.39L277.74 480.7L277.68 481L277.62 481.31L277.43 481.9L277.21 482.47L276.93 483.03L276.79 483.29L276.64 483.54L276.29 484.04L276.11 484.28L275.9 484.51L275.7 484.73L275.48 484.95L275.04 485.35L274.81 485.54L274.56 485.73L274.31 485.9L274.06 486.06L273.8 486.21L273.51 486.35L273.25 486.48L272.97 486.6L272.67 486.71L272.39 486.81L272.09 486.9L271.78 486.98L271.49 487.04L270.86 487.13L270.55 487.16L270.22 487.18L258.42 487.18L251.51 480.27L251.51 420.76L220.47 420.76L220.47 389.83L163.94 389.83L163.61 389.8L163.3 389.76L162.99 389.72L162.67 389.65L162.38 389.58L162.07 389.5L161.78 389.39L161.49 389.3L160.93 389.05L160.66 388.91L160.13 388.59L159.63 388.25L159.16 387.88L158.94 387.66L158.73 387.45L158.52 387.24L158.32 387L158.13 386.77L157.62 386.02L157.34 385.49L157.2 385.21L157.07 384.93L156.96 384.64L156.77 384.05L156.71 383.75L156.63 383.44L156.54 382.82L156.52 382.51L156.51 382.18L156.51 371.2L156.49 371.16L156.51 371.06L156.51 370.69L156.54 370.38L156.57 370.05L156.62 369.74L156.68 369.44L156.76 369.13L156.84 368.83L156.93 368.54L157.04 368.25L157.16 367.96L157.29 367.69L157.43 367.41L157.57 367.15L157.74 366.9L157.9 366.65L158.09 366.4L158.46 365.93L158.66 365.71L158.88 365.49L159.1 365.29L159.33 365.09L159.8 364.71L160.05 364.54L160.58 364.23L160.85 364.09L161.41 363.84L161.69 363.73L162.28 363.54L162.58 363.46L162.89 363.4L163.19 363.35L163.5 363.31L163.83 363.28L164.14 363.26L220.47 363.26L220.47 335.85L164.25 335.85L163.94 335.83L163.61 335.8L163.3 335.77L162.99 335.73L162.67 335.66L162.38 335.58L162.07 335.51L161.78 335.41L161.49 335.3L160.93 335.05L160.4 334.77L160.13 334.6L159.88 334.45L159.63 334.26L159.16 333.88L158.94 333.68L158.73 333.46L158.52 333.24L158.32 333.01L158.13 332.78L157.96 332.54L157.79 332.29L157.62 332.03L157.2 331.23L157.07 330.95L156.96 330.65L156.77 330.06L156.71 329.76L156.63 329.47L156.54 328.84L156.52 328.51L156.51 328.2L156.51 318.71L156.49 318.66L156.51 318.56L156.51 318.2L156.54 317.87L156.57 317.56L156.62 317.24L156.68 316.93L156.84 316.34L156.93 316.04L157.04 315.75L157.29 315.18L157.57 314.65L157.74 314.39L157.9 314.14L158.09 313.89L158.46 313.42L158.66 313.2L158.88 312.98L159.1 312.78L159.33 312.59L159.57 312.39L159.8 312.22L160.05 312.05L160.58 311.73L160.85 311.59L161.13 311.45L161.69 311.23L161.99 311.13L162.58 310.97L162.89 310.91L163.19 310.84L163.5 310.81L163.83 310.78L164.14 310.77L220.47 310.77L220.47 281L165.11 281L164.78 280.97L164.47 280.94L164.16 280.89L163.85 280.83L163.53 280.75L163.24 280.67L162.94 280.56L162.66 280.47L162.1 280.22L161.83 280.08L161.3 279.77L160.8 279.42L160.33 279.05L160.11 278.85L159.9 278.63L159.69 278.41L159.49 278.17L159.3 277.94L159.13 277.71L158.96 277.46L158.79 277.19L158.51 276.66L158.37 276.38L158.24 276.1L158.13 275.82L157.95 275.22L157.87 274.93L157.8 274.62L157.76 274.32L157.71 273.99L157.7 273.68L157.68 273.35L157.66 273.04L157.66 262.19L157.68 261.86L157.74 261.24L157.79 260.93L157.85 260.61L157.93 260.3L158.01 260.01L158.1 259.71L158.21 259.43L158.46 258.87L158.6 258.59L158.74 258.32L158.91 258.07L159.07 257.82L159.26 257.57L159.63 257.1L159.83 256.88L160.05 256.67L160.27 256.46L160.5 256.26L160.97 255.89L161.22 255.71L161.75 255.4L162.02 255.26L162.28 255.14L162.57 255.01L162.86 254.9L163.14 254.81L163.44 254.71L163.75 254.64L164.05 254.57L164.67 254.48L165 254.45L165.31 254.43L220.47 254.43L220.47 222.56L251.08 222.56L251.08 163.99L251.1 163.67L251.12 163.35L251.16 163.03L251.21 162.71L251.27 162.42L251.33 162.11L251.52 161.51L251.74 160.95L251.88 160.67L252.01 160.39L252.16 160.12L252.32 159.87L252.66 159.37L252.85 159.14L253.05 158.91L253.25 158.69L253.47 158.47L253.91 158.06L254.14 157.88L254.39 157.69L254.64 157.52L254.89 157.36L255.16 157.2L255.42 157.06L255.99 156.81L256.27 156.71L256.86 156.52L257.16 156.44L257.47 156.38L258.09 156.28L258.4 156.25L258.73 156.24L269.89 156.24L270.55 156.27L271.17 156.36L271.49 156.42L271.78 156.49L272.38 156.67L272.67 156.78L272.95 156.89L273.23 157.03L273.76 157.31L274.03 157.47L274.53 157.81L274.76 158L275 158.2L275.22 158.41L275.43 158.63L275.64 158.84L275.82 159.06L276.03 159.3L276.37 159.8L276.53 160.05L276.68 160.31L276.82 160.59L276.96 160.86L277.07 161.14L277.18 161.43L277.29 161.72L277.37 162.01L277.45 162.32L277.51 162.62L277.57 162.93L277.64 163.56L277.65 163.89L277.65 222.56L304.86 222.56L304.86 163.99L304.87 163.67L304.89 163.35L304.94 163.03L304.98 162.71L305.04 162.42L305.12 162.11L305.2 161.81L305.29 161.51L305.51 160.95L305.79 160.39L305.93 160.12L306.09 159.87L306.43 159.37L306.62 159.14L306.82 158.91L307.03 158.69L307.25 158.47L307.68 158.06L307.92 157.88L308.17 157.69L308.42 157.52L308.67 157.36L308.93 157.2L309.21 157.06L309.48 156.94L309.76 156.81L310.06 156.71L310.34 156.61L310.63 156.52L310.94 156.44L311.24 156.38L311.87 156.28L312.19 156.25L312.51 156.24L323.67 156.24L324.32 156.27L324.95 156.36L325.26 156.42L325.56 156.49L326.15 156.67L326.44 156.78L326.73 156.89L327.01 157.03L327.54 157.31L327.8 157.47L328.3 157.81L328.54 158L328.77 158.2L328.99 158.41L329.21 158.63L329.61 159.06L329.8 159.3L330.14 159.8L330.3 160.05L330.46 160.31L330.6 160.59L330.74 160.86L330.85 161.14L330.96 161.43L331.07 161.72L331.14 162.01L331.22 162.32L331.28 162.62L331.35 162.93L331.41 163.56L331.42 163.89L331.42 222.56L360.44 222.56L360.44 162.82L360.46 162.5L360.47 162.18L360.57 161.56L360.69 160.94L360.88 160.34L361.1 159.78L361.24 159.5L361.36 159.22L361.52 158.95L361.67 158.7L362.02 158.2L362.21 157.97L362.41 157.74L362.81 157.3L363.05 157.1L363.27 156.89L363.5 156.71L363.75 156.52L364 156.35L364.25 156.19L364.52 156.03L364.78 155.89L365.34 155.64L365.62 155.53L366.22 155.35L366.51 155.27L366.83 155.21L367.45 155.11L367.76 155.08L368.09 155.07L378.52 155.07L378.83 155.08L379.16 155.1ZM313.5 284.51L311.51 284.78L309.52 285.14L307.59 285.6L305.7 286.17L303.84 286.81L302.03 287.56L300.25 288.38L298.54 289.29L296.88 290.29L295.27 291.35L293.71 292.5L292.23 293.72L290.79 295.02L289.44 296.38L288.14 297.81L286.92 299.29L285.77 300.85L284.71 302.46L283.71 304.13L282.8 305.83L281.97 307.61L281.23 309.42L280.59 311.28L280.02 313.17L279.56 315.11L279.2 317.09L278.93 319.09L278.77 321.13L278.71 323.19L278.77 325.27L278.93 327.3L279.2 329.31L279.56 331.28L280.02 333.21L280.59 335.12L281.23 336.97L281.97 338.78L282.8 340.55L283.71 342.27L284.71 343.92L285.78 345.53L286.92 347.09L288.16 348.57L289.45 349.99L290.81 351.37L292.25 352.65L293.74 353.86L295.29 355.02L296.91 356.08L298.58 357.08L300.3 357.98L302.06 358.8L303.89 359.53L305.75 360.17L307.65 360.73L309.6 361.18L311.58 361.54L313.6 361.79L315.64 361.95L317.72 361.98L318.14 361.98L320.2 361.92L322.21 361.75L324.2 361.48L326.16 361.11L328.08 360.64L329.96 360.08L331.8 359.42L333.59 358.67L335.34 357.84L337.03 356.94L338.68 355.94L340.27 354.86L341.8 353.72L343.27 352.51L344.68 351.21L346.02 349.85L347.3 348.43L348.5 346.93L349.64 345.4L350.69 343.8L351.67 342.14L352.56 340.42L353.37 338.68L354.09 336.88L354.73 335.02L355.27 333.15L355.73 331.21L356.07 329.26L356.32 327.27L356.46 325.25L356.51 323.19L356.46 321.13L356.29 319.09L356.04 317.09L355.66 315.11L355.21 313.17L354.65 311.28L353.99 309.42L353.26 307.61L352.43 305.83L351.53 304.13L350.53 302.46L349.45 300.85L348.31 299.29L347.08 297.81L345.78 296.38L344.43 295.02L343.01 293.72L341.51 292.5L339.96 291.35L338.35 290.29L336.68 289.29L334.97 288.38L333.2 287.56L331.39 286.81L329.54 286.17L327.63 285.6L325.7 285.14L323.73 284.78L321.72 284.51L319.69 284.36L317.61 284.29L315.55 284.36L313.5 284.51Z" id="b8umJFSJYn"></path></defs><g><g><g><use xlink:href="#b54uQB0yo" opacity="1" fill="#e8bd1f" fill-opacity="1"></use><g><use xlink:href="#b54uQB0yo" opacity="1" fill-opacity="0" stroke="#000000" stroke-width="1" stroke-opacity="0"></use></g></g><g><use xlink:href="#a2vbyc3jq4" opacity="1" fill="#000000" fill-opacity="0"></use><g><use xlink:href="#a2vbyc3jq4" opacity="1" fill-opacity="0" stroke="#000000" stroke-width="1" stroke-opacity="0"></use></g></g><g><use xlink:href="#crRCgPvCU" opacity="1" fill="#ffffff" fill-opacity="1"></use><g><use xlink:href="#crRCgPvCU" opacity="1" fill-opacity="0" stroke="#000000" stroke-width="1" stroke-opacity="0"></use></g></g><g><use xlink:href="#b8umJFSJYn" opacity="1" fill="#000000" fill-opacity="0"></use><g><use xlink:href="#b8umJFSJYn" opacity="1" fill-opacity="0" stroke="#000000" stroke-width="1" stroke-opacity="0"></use></g></g></g></g></svg>