<?xml version="1.0" encoding="UTF-8" standalone="no"?>
<!DOCTYPE svg PUBLIC "-//W3C//DTD SVG 1.1//EN" "http://www.w3.org/Graphics/SVG/1.1/DTD/svg11.dtd">
<svg version="1.1" xmlns="http://www.w3.org/2000/svg" xmlns:xlink="http://www.w3.org/1999/xlink" preserveAspectRatio="xMidYMid meet" viewBox="0 0 640 640" width="640" height="640"><defs><path d="M101.94 307.97C101.94 434.11 204.19 536.37 330.34 536.37C456.48 536.37 558.74 434.11 558.74 307.97C558.74 181.82 456.48 79.57 330.34 79.57C204.19 79.57 101.94 181.82 101.94 307.97Z" id="e2jhfTqNDm"></path><path d="M101.94 307.97C101.94 434.11 204.19 536.37 330.34 536.37C456.48 536.37 558.74 434.11 558.74 307.97C558.74 181.82 456.48 79.57 330.34 79.57C204.19 79.57 101.94 181.82 101.94 307.97Z" id="b1GbNvOASJ"></path><path d="M178.1 307.97C178.1 434.11 280.36 536.37 406.5 536.37C532.65 536.37 634.9 434.11 634.9 307.97C634.9 181.82 532.65 79.57 406.5 79.57C280.36 79.57 178.1 181.82 178.1 307.97Z" id="dSHu7gL4"></path><path d="M178.1 307.97C178.1 434.11 280.36 536.37 406.5 536.37C532.65 536.37 634.9 434.11 634.9 307.97C634.9 181.82 532.65 79.57 406.5 79.57C280.36 79.57 178.1 181.82 178.1 307.97Z" id="cDLHDYcUu"></path><path d="M325.95 215.68L326.67 215.27L327.4 214.89L328.13 214.53L328.88 214.17L329.63 213.84L330.38 213.51L331.14 213.21L331.91 212.93L332.67 212.65L333.45 212.4L334.22 212.17L335.01 211.94L335.8 211.74L336.58 211.54L337.38 211.37L338.18 211.22L338.98 211.08L339.78 210.96L340.59 210.85L341.4 210.76L342.2 210.69L343.01 210.64L343.82 210.6L344.64 210.58L345.45 210.57L346.26 210.58L347.07 210.61L347.89 210.66L348.71 210.72L349.51 210.8L350.33 210.9L351.13 211L351.94 211.14L352.76 211.29L353.55 211.45L354.36 211.64L355.16 211.83L355.96 212.05L356.75 212.28L358.28 212.79L359.79 213.35L361.25 213.96L362.68 214.63L364.07 215.36L365.42 216.13L366.73 216.96L368.01 217.82L369.24 218.73L370.43 219.7L371.58 220.7L372.69 221.73L373.74 222.82L374.77 223.93L375.74 225.09L376.66 226.28L377.54 227.51L378.37 228.77L379.14 230.04L379.88 231.36L380.56 232.7L381.19 234.07L381.77 235.46L382.29 236.87L382.76 238.31L383.17 239.76L383.53 241.22L383.83 242.71L384.07 244.22L384.27 245.72L384.39 247.24L384.45 248.79L384.46 250.32L384.4 251.87L384.29 253.43L384.12 254.98L383.86 256.53L383.55 258.1L383.18 259.65L382.75 261.21L444.76 291.28L445.18 290.3L445.96 288.34L446.33 287.36L446.7 286.37L447.05 285.38L447.4 284.38L447.73 283.39L448.07 282.39L448.38 281.39L448.69 280.38L448.98 279.37L449.26 278.36L449.54 277.35L449.8 276.32L450.06 275.31L450.54 273.26L450.98 271.21L451.37 269.14L451.55 268.12L451.72 267.08L451.88 266.03L452.04 265L452.18 263.96L452.3 262.91L452.53 260.82L452.72 258.72L452.8 257.67L452.91 255.58L452.96 254.52L452.99 253.47L453.02 252.41L453.03 251.35L453.04 250.31L472.66 250.31L472.66 251.57L472.61 254.1L472.56 255.37L472.51 256.64L472.44 257.9L472.36 259.17L472.26 260.44L472.03 262.95L471.9 264.21L471.76 265.47L471.6 266.72L471.42 267.97L471.24 269.22L471.04 270.48L470.84 271.72L470.62 272.96L470.38 274.21L470.14 275.44L469.87 276.68L469.61 277.91L469.32 279.14L469.02 280.36L468.71 281.6L468.39 282.82L468.05 284.04L467.71 285.25L467.35 286.47L466.98 287.67L466.59 288.87L466.2 290.08L465.78 291.28L465.37 292.46L464.93 293.66L464.03 296.03L463.56 297.21L463.08 298.38L462.58 299.54L558.74 346.09L554.45 354.88L458.3 308.34L457.37 310.1L456.41 311.83L455.43 313.55L454.43 315.25L453.4 316.94L452.35 318.61L451.27 320.25L450.16 321.88L449.03 323.5L447.88 325.09L446.71 326.67L445.51 328.22L444.29 329.76L443.05 331.28L441.78 332.78L440.49 334.25L439.18 335.71L437.84 337.15L436.5 338.57L435.12 339.97L433.72 341.34L432.31 342.7L430.87 344.04L429.41 345.35L427.93 346.63L426.42 347.89L424.92 349.15L423.37 350.37L421.82 351.57L420.24 352.74L418.64 353.89L417.03 355.02L415.39 356.13L413.75 357.2L412.08 358.25L410.4 359.28L408.69 360.29L406.98 361.27L405.24 362.23L403.49 363.15L450.02 459.31L441.23 463.59L356.5 287.44L355.7 287.67L354.91 287.89L354.1 288.09L353.31 288.27L352.5 288.45L351.7 288.58L350.88 288.72L350.08 288.84L349.27 288.93L348.45 289.01L347.63 289.07L346.83 289.11L346.01 289.15L345.19 289.16L344.39 289.15L343.57 289.14L342.77 289.09L341.95 289.03L341.14 288.96L340.34 288.87L339.53 288.77L338.72 288.65L337.14 288.35L336.34 288.18L335.55 288L334.76 287.79L333.2 287.33L332.43 287.08L331.66 286.8L330.88 286.51L330.12 286.21L329.38 285.89L328.63 285.56L327.88 285.2L327.14 284.83L326.42 284.45L325.69 284.05L324.98 283.63L323.61 282.78L322.29 281.87L321.01 280.93L319.79 279.94L318.6 278.9L317.47 277.83L316.39 276.73L315.37 275.57L314.39 274.39L313.46 273.18L312.58 271.94L311.75 270.66L310.98 269.36L310.27 268.02L309.6 266.68L308.98 265.29L308.41 263.89L307.91 262.47L307.46 261.05L307.07 259.6L306.72 258.13L306.43 256.65L306.21 255.16L306.04 253.67L305.93 252.16L305.87 250.65L305.87 249.14L305.93 247.62L306.05 246.12L306.23 244.6L306.47 243.09L306.77 241.58L307.14 240.08L307.55 238.6L308.03 237.11L308.59 235.65L309.18 234.19L309.86 232.75L310.6 231.33L311.39 229.93L296.36 214.89L310.19 201.06L325.23 216.09L325.95 215.68ZM378.37 271.12L378.11 271.56L377.82 271.98L377.53 272.42L377.24 272.85L376.65 273.68L376.02 274.5L375.7 274.91L375.38 275.3L375.05 275.7L374.71 276.08L374.38 276.47L374.03 276.85L373.68 277.22L373.32 277.6L372.59 278.33L372.22 278.68L371.08 279.72L370.69 280.05L370.3 280.38L369.9 280.71L369.5 281.02L369.09 281.34L368.68 281.64L368.26 281.95L367.84 282.24L367.41 282.54L366.99 282.83L366.11 283.38L365.67 283.64L365.23 283.91L395.24 345.58L395 345.71L395.29 345.71L395.24 345.58L396.53 344.89L398.05 344.06L399.54 343.2L401.03 342.31L402.5 341.4L403.95 340.48L405.39 339.52L406.81 338.56L408.21 337.56L409.6 336.54L410.97 335.51L412.32 334.45L413.66 333.37L414.98 332.27L416.28 331.16L417.56 330.02L418.83 328.85L420.07 327.67L421.3 326.47L422.51 325.25L423.7 324.02L424.86 322.76L426.01 321.49L427.14 320.2L428.24 318.88L429.34 317.55L430.4 316.2L431.44 314.84L432.47 313.46L433.48 312.07L434.46 310.65L435.41 309.21L436.36 307.77L437.27 306.31L438.17 304.83L439.03 303.33L439.88 301.82L440.71 300.3L378.9 270.22L378.65 270.67L378.37 271.12ZM342.49 241.06L341.07 241.64L339.75 242.43L338.54 243.46L337.52 244.68L336.72 246L336.15 247.42L335.81 248.88L335.7 250.37L335.81 251.87L336.15 253.35L336.72 254.75L337.52 256.07L338.54 257.29L339.75 258.32L341.07 259.12L342.48 259.7L343.95 260.03L345.44 260.15L346.93 260.03L348.41 259.7L349.81 259.12L351.13 258.32L352.34 257.29L353.38 256.08L354.17 254.76L354.75 253.35L355.09 251.88L355.21 250.39L355.09 248.89L354.76 247.43L354.19 246.01L353.39 244.69L352.35 243.47L351.15 242.44L349.82 241.64L348.41 241.06L346.94 240.72L345.45 240.6L343.95 240.72L342.49 241.06Z" id="cjrHIQqPb"></path><path d="M325.95 215.68L326.67 215.27L327.4 214.89L328.13 214.53L328.88 214.17L329.63 213.84L330.38 213.51L331.14 213.21L331.91 212.93L332.67 212.65L333.45 212.4L334.22 212.17L335.01 211.94L335.8 211.74L336.58 211.54L337.38 211.37L338.18 211.22L338.98 211.08L339.78 210.96L340.59 210.85L341.4 210.76L342.2 210.69L343.01 210.64L343.82 210.6L344.64 210.58L345.45 210.57L346.26 210.58L347.07 210.61L347.89 210.66L348.71 210.72L349.51 210.8L350.33 210.9L351.13 211L351.94 211.14L352.76 211.29L353.55 211.45L354.36 211.64L355.16 211.83L355.96 212.05L356.75 212.28L358.28 212.79L359.79 213.35L361.25 213.96L362.68 214.63L364.07 215.36L365.42 216.13L366.73 216.96L368.01 217.82L369.24 218.73L370.43 219.7L371.58 220.7L372.69 221.73L373.74 222.82L374.77 223.93L375.74 225.09L376.66 226.28L377.54 227.51L378.37 228.77L379.14 230.04L379.88 231.36L380.56 232.7L381.19 234.07L381.77 235.46L382.29 236.87L382.76 238.31L383.17 239.76L383.53 241.22L383.83 242.71L384.07 244.22L384.27 245.72L384.39 247.24L384.45 248.79L384.46 250.32L384.4 251.87L384.29 253.43L384.12 254.98L383.86 256.53L383.55 258.1L383.18 259.65L382.75 261.21L444.76 291.28L445.18 290.3L445.96 288.34L446.33 287.36L446.7 286.37L447.05 285.38L447.4 284.38L447.73 283.39L448.07 282.39L448.38 281.39L448.69 280.38L448.98 279.37L449.26 278.36L449.54 277.35L449.8 276.32L450.06 275.31L450.54 273.26L450.98 271.21L451.37 269.14L451.55 268.12L451.72 267.08L451.88 266.03L452.04 265L452.18 263.96L452.3 262.91L452.53 260.82L452.72 258.72L452.8 257.67L452.91 255.58L452.96 254.52L452.99 253.47L453.02 252.41L453.03 251.35L453.04 250.31L472.66 250.31L472.66 251.57L472.61 254.1L472.56 255.37L472.51 256.64L472.44 257.9L472.36 259.17L472.26 260.44L472.03 262.95L471.9 264.21L471.76 265.47L471.6 266.72L471.42 267.97L471.24 269.22L471.04 270.48L470.84 271.72L470.62 272.96L470.38 274.21L470.14 275.44L469.87 276.68L469.61 277.91L469.32 279.14L469.02 280.36L468.71 281.6L468.39 282.82L468.05 284.04L467.71 285.25L467.35 286.47L466.98 287.67L466.59 288.87L466.2 290.08L465.78 291.28L465.37 292.46L464.93 293.66L464.03 296.03L463.56 297.21L463.08 298.38L462.58 299.54L558.74 346.09L554.45 354.88L458.3 308.34L457.37 310.1L456.41 311.83L455.43 313.55L454.43 315.25L453.4 316.94L452.35 318.61L451.27 320.25L450.16 321.88L449.03 323.5L447.88 325.09L446.71 326.67L445.51 328.22L444.29 329.76L443.05 331.28L441.78 332.78L440.49 334.25L439.18 335.71L437.84 337.15L436.5 338.57L435.12 339.97L433.72 341.34L432.31 342.7L430.87 344.04L429.41 345.35L427.93 346.63L426.42 347.89L424.92 349.15L423.37 350.37L421.82 351.57L420.24 352.74L418.64 353.89L417.03 355.02L415.39 356.13L413.75 357.2L412.08 358.25L410.4 359.28L408.69 360.29L406.98 361.27L405.24 362.23L403.49 363.15L450.02 459.31L441.23 463.59L356.5 287.44L355.7 287.67L354.91 287.89L354.1 288.09L353.31 288.27L352.5 288.45L351.7 288.58L350.88 288.72L350.08 288.84L349.27 288.93L348.45 289.01L347.63 289.07L346.83 289.11L346.01 289.15L345.19 289.16L344.39 289.15L343.57 289.14L342.77 289.09L341.95 289.03L341.14 288.96L340.34 288.87L339.53 288.77L338.72 288.65L337.14 288.35L336.34 288.18L335.55 288L334.76 287.79L333.2 287.33L332.43 287.08L331.66 286.8L330.88 286.51L330.12 286.21L329.38 285.89L328.63 285.56L327.88 285.2L327.14 284.83L326.42 284.45L325.69 284.05L324.98 283.63L323.61 282.78L322.29 281.87L321.01 280.93L319.79 279.94L318.6 278.9L317.47 277.83L316.39 276.73L315.37 275.57L314.39 274.39L313.46 273.18L312.58 271.94L311.75 270.66L310.98 269.36L310.27 268.02L309.6 266.68L308.98 265.29L308.41 263.89L307.91 262.47L307.46 261.05L307.07 259.6L306.72 258.13L306.43 256.65L306.21 255.16L306.04 253.67L305.93 252.16L305.87 250.65L305.87 249.14L305.93 247.62L306.05 246.12L306.23 244.6L306.47 243.09L306.77 241.58L307.14 240.08L307.55 238.6L308.03 237.11L308.59 235.65L309.18 234.19L309.86 232.75L310.6 231.33L311.39 229.93L296.36 214.89L310.19 201.06L325.23 216.09L325.95 215.68ZM378.37 271.12L378.11 271.56L377.82 271.98L377.53 272.42L377.24 272.85L376.65 273.68L376.02 274.5L375.7 274.91L375.38 275.3L375.05 275.7L374.71 276.08L374.38 276.47L374.03 276.85L373.68 277.22L373.32 277.6L372.59 278.33L372.22 278.68L371.08 279.72L370.69 280.05L370.3 280.38L369.9 280.71L369.5 281.02L369.09 281.34L368.68 281.64L368.26 281.95L367.84 282.24L367.41 282.54L366.99 282.83L366.11 283.38L365.67 283.64L365.23 283.91L395.24 345.58L395 345.71L395.29 345.71L395.24 345.58L396.53 344.89L398.05 344.06L399.54 343.2L401.03 342.31L402.5 341.4L403.95 340.48L405.39 339.52L406.81 338.56L408.21 337.56L409.6 336.54L410.97 335.51L412.32 334.45L413.66 333.37L414.98 332.27L416.28 331.16L417.56 330.02L418.83 328.85L420.07 327.67L421.3 326.47L422.51 325.25L423.7 324.02L424.86 322.76L426.01 321.49L427.14 320.2L428.24 318.88L429.34 317.55L430.4 316.2L431.44 314.84L432.47 313.46L433.48 312.07L434.46 310.65L435.41 309.21L436.36 307.77L437.27 306.31L438.17 304.83L439.03 303.33L439.88 301.82L440.71 300.3L378.9 270.22L378.65 270.67L378.37 271.12ZM342.49 241.06L341.07 241.64L339.75 242.43L338.54 243.46L337.52 244.68L336.72 246L336.15 247.42L335.81 248.88L335.7 250.37L335.81 251.87L336.15 253.35L336.72 254.75L337.52 256.07L338.54 257.29L339.75 258.32L341.07 259.12L342.48 259.7L343.95 260.03L345.44 260.15L346.93 260.03L348.41 259.7L349.81 259.12L351.13 258.32L352.34 257.29L353.38 256.08L354.17 254.76L354.75 253.35L355.09 251.88L355.21 250.39L355.09 248.89L354.76 247.43L354.19 246.01L353.39 244.69L352.35 243.47L351.15 242.44L349.82 241.64L348.41 241.06L346.94 240.72L345.45 240.6L343.95 240.72L342.49 241.06Z" id="c6runyBDq3"></path><path d="M5.1 307.97C5.1 434.11 107.37 536.37 233.5 536.37C359.65 536.37 461.9 434.11 461.9 307.97C461.9 181.82 359.65 79.57 233.5 79.57C107.37 79.57 5.1 181.82 5.1 307.97Z" id="dHEWQLEXw"></path><path d="M5.1 307.97C5.1 434.11 107.37 536.37 233.5 536.37C359.65 536.37 461.9 434.11 461.9 307.97C461.9 181.82 359.65 79.57 233.5 79.57C107.37 79.57 5.1 181.82 5.1 307.97Z" id="hRFeqq06Q"></path><path d="M153.02 215.68L153.75 215.27L154.48 214.89L155.22 214.53L155.96 214.17L156.71 213.84L157.47 213.51L158.23 213.21L158.99 212.93L159.76 212.65L160.53 212.4L162.09 211.94L162.88 211.74L163.67 211.54L164.47 211.37L165.26 211.22L166.07 211.08L166.86 210.96L167.67 210.85L168.47 210.76L169.29 210.69L170.1 210.64L170.91 210.6L171.72 210.58L172.54 210.57L173.34 210.58L174.16 210.61L174.98 210.66L175.78 210.72L176.6 210.8L177.41 210.9L178.22 211L179.03 211.14L179.83 211.29L180.64 211.45L181.45 211.64L182.24 211.83L183.05 212.05L183.84 212.28L185.37 212.79L186.87 213.35L188.33 213.96L189.76 214.63L191.15 215.36L192.51 216.13L193.82 216.96L195.09 217.82L196.32 218.73L197.52 219.7L198.67 220.7L199.77 221.73L200.83 222.82L201.85 223.93L202.82 225.09L203.75 226.28L204.62 227.51L205.45 228.77L206.23 230.04L206.96 231.36L207.65 232.7L208.27 234.07L208.84 235.46L209.37 236.87L209.83 238.31L210.25 239.76L210.61 241.22L210.92 242.71L211.16 244.22L211.34 245.72L211.47 247.24L211.54 248.79L211.55 250.32L211.49 251.87L211.38 253.43L211.19 254.98L210.95 256.53L210.64 258.1L210.26 259.65L209.82 261.21L271.85 291.28L272.66 289.32L273.42 287.36L273.78 286.37L274.14 285.38L274.49 284.38L274.82 283.39L275.47 281.39L275.76 280.38L276.06 279.37L276.35 278.36L276.63 277.35L276.89 276.32L277.15 275.31L277.39 274.29L277.85 272.24L278.06 271.21L278.26 270.18L278.45 269.14L278.63 268.12L278.8 267.08L278.97 266.03L279.11 265L279.25 263.96L279.39 262.91L279.51 261.86L279.71 259.77L279.81 258.72L279.94 256.63L280 255.58L280.05 254.52L280.08 253.47L280.1 252.41L280.12 251.35L280.12 250.31L299.66 250.31L299.66 251.57L299.62 254.1L299.57 255.37L299.51 256.64L299.45 257.9L299.36 259.17L299.27 260.44L299.04 262.95L298.9 264.21L298.77 265.47L298.6 266.72L298.43 267.97L298.25 269.22L298.05 270.48L297.84 271.72L297.63 272.96L297.38 274.21L297.14 275.44L296.88 276.68L296.61 277.91L296.33 279.14L296.03 280.36L295.72 281.6L295.39 282.82L295.06 284.04L294.71 285.25L294.36 286.47L293.99 287.67L293.6 288.87L293.21 290.08L292.79 291.28L292.38 292.46L291.94 293.66L291.5 294.85L291.04 296.03L290.57 297.21L290.09 298.38L289.59 299.54L385.75 346.09L381.47 354.88L285.31 308.34L284.38 310.1L283.42 311.83L282.44 313.55L281.44 315.25L280.42 316.94L279.36 318.61L278.27 320.25L277.17 321.88L276.04 323.5L274.89 325.09L273.72 326.67L272.52 328.22L271.3 329.76L270.05 331.28L268.79 332.78L267.5 334.25L266.19 335.71L264.86 337.15L263.5 338.57L262.12 339.97L260.73 341.34L259.31 342.7L257.87 344.04L256.41 345.35L254.94 346.63L253.43 347.89L251.92 349.15L250.38 350.37L248.83 351.57L247.25 352.74L245.65 353.89L244.04 355.02L242.4 356.13L240.76 357.2L239.09 358.25L237.41 359.28L235.7 360.29L233.99 361.27L232.25 362.23L230.5 363.15L277.03 459.31L268.24 463.59L183.59 287.44L182.79 287.67L182 287.89L181.19 288.09L180.39 288.27L179.58 288.45L177.97 288.72L177.16 288.84L176.35 288.93L175.54 289.01L174.72 289.07L173.91 289.11L173.1 289.15L172.28 289.16L171.47 289.15L170.66 289.14L169.84 289.09L169.04 289.03L168.23 288.96L167.42 288.87L166.62 288.77L165.81 288.65L165.02 288.5L164.21 288.35L163.42 288.18L162.64 288L161.84 287.79L161.06 287.56L160.29 287.33L159.5 287.08L158.73 286.8L157.97 286.51L157.21 286.21L156.45 285.89L155.71 285.56L154.97 285.2L154.23 284.83L153.49 284.45L152.78 284.05L152.06 283.63L150.69 282.78L149.37 281.87L148.1 280.93L146.86 279.94L145.69 278.9L144.56 277.83L143.48 276.73L142.45 275.57L141.48 274.39L140.54 273.18L139.67 271.94L138.84 270.66L138.07 269.36L137.34 268.02L136.68 266.68L136.07 265.29L135.5 263.89L134.99 262.47L134.55 261.05L134.14 259.6L133.81 258.13L133.52 256.65L133.29 255.16L133.12 253.67L133 252.16L132.96 250.65L132.96 249.14L133.01 247.62L133.13 246.12L133.31 244.6L133.56 243.09L133.86 241.58L134.21 240.08L134.64 238.6L135.12 237.11L135.66 235.65L136.27 234.19L136.94 232.75L137.68 231.33L138.48 229.93L123.44 214.89L137.27 201.06L152.31 216.09L153.02 215.68ZM205.18 271.56L204.91 271.98L204.62 272.42L204.33 272.85L203.73 273.68L203.42 274.09L203.1 274.5L202.79 274.91L202.47 275.3L202.13 275.7L201.8 276.08L201.45 276.47L201.11 276.85L200.76 277.22L200.41 277.6L199.68 278.33L199.31 278.68L198.17 279.72L197.78 280.05L197.38 280.38L196.99 280.71L196.58 281.02L196.17 281.34L195.76 281.64L195.34 281.95L194.93 282.24L194.5 282.54L194.06 282.83L193.64 283.1L193.2 283.38L192.3 283.91L222.3 345.55L222 345.71L222.38 345.71L222.3 345.55L223.53 344.89L225.05 344.06L226.56 343.2L228.05 342.31L229.52 341.41L230.97 340.48L232.41 339.54L233.84 338.56L235.24 337.57L236.64 336.55L238.01 335.52L239.36 334.46L240.7 333.38L242.02 332.28L243.32 331.16L244.6 330.02L245.87 328.86L247.12 327.68L248.34 326.48L249.55 325.26L250.75 324.03L251.91 322.77L253.06 321.5L254.19 320.2L255.31 318.89L256.4 317.56L257.46 316.21L258.51 314.85L259.54 313.47L260.55 312.07L261.52 310.65L262.49 309.22L263.44 307.77L264.34 306.31L265.24 304.83L266.12 303.33L266.97 301.82L267.79 300.3L205.99 270.22L205.46 271.12L205.18 271.56ZM169.57 241.06L168.16 241.64L166.83 242.43L165.62 243.46L164.59 244.68L163.8 246L163.23 247.42L162.9 248.88L162.79 250.37L162.9 251.87L163.23 253.35L163.8 254.75L164.59 256.07L165.62 257.29L166.83 258.32L168.15 259.12L169.57 259.7L171.03 260.03L172.52 260.15L174.02 260.03L175.48 259.7L176.9 259.12L178.22 258.32L179.43 257.29L180.46 256.08L181.26 254.76L181.84 253.35L182.18 251.88L182.3 250.39L182.18 248.89L181.84 247.43L181.27 246.01L180.47 244.69L179.44 243.47L178.23 242.44L176.91 241.64L175.49 241.06L174.03 240.72L172.54 240.6L171.04 240.72L169.57 241.06Z" id="atAGipkgg"></path><path d="M153.02 215.68L153.75 215.27L154.48 214.89L155.22 214.53L155.96 214.17L156.71 213.84L157.47 213.51L158.23 213.21L158.99 212.93L159.76 212.65L160.53 212.4L162.09 211.94L162.88 211.74L163.67 211.54L164.47 211.37L165.26 211.22L166.07 211.08L166.86 210.96L167.67 210.85L168.47 210.76L169.29 210.69L170.1 210.64L170.91 210.6L171.72 210.58L172.54 210.57L173.34 210.58L174.16 210.61L174.98 210.66L175.78 210.72L176.6 210.8L177.41 210.9L178.22 211L179.03 211.14L179.83 211.29L180.64 211.45L181.45 211.64L182.24 211.83L183.05 212.05L183.84 212.28L185.37 212.79L186.87 213.35L188.33 213.96L189.76 214.63L191.15 215.36L192.51 216.13L193.82 216.96L195.09 217.82L196.32 218.73L197.52 219.7L198.67 220.7L199.77 221.73L200.83 222.82L201.85 223.93L202.82 225.09L203.75 226.28L204.62 227.51L205.45 228.77L206.23 230.04L206.96 231.36L207.65 232.7L208.27 234.07L208.84 235.46L209.37 236.87L209.83 238.31L210.25 239.76L210.61 241.22L210.92 242.71L211.16 244.22L211.34 245.72L211.47 247.24L211.54 248.79L211.55 250.32L211.49 251.87L211.38 253.43L211.19 254.98L210.95 256.53L210.64 258.1L210.26 259.65L209.82 261.21L271.85 291.28L272.66 289.32L273.42 287.36L273.78 286.37L274.14 285.38L274.49 284.38L274.82 283.39L275.47 281.39L275.76 280.38L276.06 279.37L276.35 278.36L276.63 277.35L276.89 276.32L277.15 275.31L277.39 274.29L277.85 272.24L278.06 271.21L278.26 270.18L278.45 269.14L278.63 268.12L278.8 267.08L278.97 266.03L279.11 265L279.25 263.96L279.39 262.91L279.51 261.86L279.71 259.77L279.81 258.72L279.94 256.63L280 255.58L280.05 254.52L280.08 253.47L280.1 252.41L280.12 251.35L280.12 250.31L299.66 250.31L299.66 251.57L299.62 254.1L299.57 255.37L299.51 256.64L299.45 257.9L299.36 259.17L299.27 260.44L299.04 262.95L298.9 264.21L298.77 265.47L298.6 266.72L298.43 267.97L298.25 269.22L298.05 270.48L297.84 271.72L297.63 272.96L297.38 274.21L297.14 275.44L296.88 276.68L296.61 277.91L296.33 279.14L296.03 280.36L295.72 281.6L295.39 282.82L295.06 284.04L294.71 285.25L294.36 286.47L293.99 287.67L293.6 288.87L293.21 290.08L292.79 291.28L292.38 292.46L291.94 293.66L291.5 294.85L291.04 296.03L290.57 297.21L290.09 298.38L289.59 299.54L385.75 346.09L381.47 354.88L285.31 308.34L284.38 310.1L283.42 311.83L282.44 313.55L281.44 315.25L280.42 316.94L279.36 318.61L278.27 320.25L277.17 321.88L276.04 323.5L274.89 325.09L273.72 326.67L272.52 328.22L271.3 329.76L270.05 331.28L268.79 332.78L267.5 334.25L266.19 335.71L264.86 337.15L263.5 338.57L262.12 339.97L260.73 341.34L259.31 342.7L257.87 344.04L256.41 345.35L254.94 346.63L253.43 347.89L251.92 349.15L250.38 350.37L248.83 351.57L247.25 352.74L245.65 353.89L244.04 355.02L242.4 356.13L240.76 357.2L239.09 358.25L237.41 359.28L235.7 360.29L233.99 361.27L232.25 362.23L230.5 363.15L277.03 459.31L268.24 463.59L183.59 287.44L182.79 287.67L182 287.89L181.19 288.09L180.39 288.27L179.58 288.45L177.97 288.72L177.16 288.84L176.35 288.93L175.54 289.01L174.72 289.07L173.91 289.11L173.1 289.15L172.28 289.16L171.47 289.15L170.66 289.14L169.84 289.09L169.04 289.03L168.23 288.96L167.42 288.87L166.62 288.77L165.81 288.65L165.02 288.5L164.21 288.35L163.42 288.18L162.64 288L161.84 287.79L161.06 287.56L160.29 287.33L159.5 287.08L158.73 286.8L157.97 286.51L157.21 286.21L156.45 285.89L155.71 285.56L154.97 285.2L154.23 284.83L153.49 284.45L152.78 284.05L152.06 283.63L150.69 282.78L149.37 281.87L148.1 280.93L146.86 279.94L145.69 278.9L144.56 277.83L143.48 276.73L142.45 275.57L141.48 274.39L140.54 273.18L139.67 271.94L138.84 270.66L138.07 269.36L137.34 268.02L136.68 266.68L136.07 265.29L135.5 263.89L134.99 262.47L134.55 261.05L134.14 259.6L133.81 258.13L133.52 256.65L133.29 255.16L133.12 253.67L133 252.16L132.96 250.65L132.96 249.14L133.01 247.62L133.13 246.12L133.31 244.6L133.56 243.09L133.86 241.58L134.21 240.08L134.64 238.6L135.12 237.11L135.66 235.65L136.27 234.19L136.94 232.75L137.68 231.33L138.48 229.93L123.44 214.89L137.27 201.06L152.31 216.09L153.02 215.68ZM205.18 271.56L204.91 271.98L204.62 272.42L204.33 272.85L203.73 273.68L203.42 274.09L203.1 274.5L202.79 274.91L202.47 275.3L202.13 275.7L201.8 276.08L201.45 276.47L201.11 276.85L200.76 277.22L200.41 277.6L199.68 278.33L199.31 278.68L198.17 279.72L197.78 280.05L197.38 280.38L196.99 280.71L196.58 281.02L196.17 281.34L195.76 281.64L195.34 281.95L194.93 282.24L194.5 282.54L194.06 282.83L193.64 283.1L193.2 283.38L192.3 283.91L222.3 345.55L222 345.71L222.38 345.71L222.3 345.55L223.53 344.89L225.05 344.06L226.56 343.2L228.05 342.31L229.52 341.41L230.97 340.48L232.41 339.54L233.84 338.56L235.24 337.57L236.64 336.55L238.01 335.52L239.36 334.46L240.7 333.38L242.02 332.28L243.32 331.16L244.6 330.02L245.87 328.86L247.12 327.68L248.34 326.48L249.55 325.26L250.75 324.03L251.91 322.77L253.06 321.5L254.19 320.2L255.31 318.89L256.4 317.56L257.46 316.21L258.51 314.85L259.54 313.47L260.55 312.07L261.52 310.65L262.49 309.22L263.44 307.77L264.34 306.31L265.24 304.83L266.12 303.33L266.97 301.82L267.79 300.3L205.99 270.22L205.46 271.12L205.18 271.56ZM169.57 241.06L168.16 241.64L166.83 242.43L165.62 243.46L164.59 244.68L163.8 246L163.23 247.42L162.9 248.88L162.79 250.37L162.9 251.87L163.23 253.35L163.8 254.75L164.59 256.07L165.62 257.29L166.83 258.32L168.15 259.12L169.57 259.7L171.03 260.03L172.52 260.15L174.02 260.03L175.48 259.7L176.9 259.12L178.22 258.32L179.43 257.29L180.46 256.08L181.26 254.76L181.84 253.35L182.18 251.88L182.3 250.39L182.18 248.89L181.84 247.43L181.27 246.01L180.47 244.69L179.44 243.47L178.23 242.44L176.91 241.64L175.49 241.06L174.03 240.72L172.54 240.6L171.04 240.72L169.57 241.06Z" id="h20JtqycvW"></path></defs><g><g><g><use xlink:href="#e2jhfTqNDm" opacity="1" fill="#efcc2e" fill-opacity="0.39"></use><g><use xlink:href="#e2jhfTqNDm" opacity="1" fill-opacity="0" stroke="#000000" stroke-width="1" stroke-opacity="0"></use></g></g><g><use xlink:href="#b1GbNvOASJ" opacity="1" fill="#000000" fill-opacity="0"></use><g><use xlink:href="#b1GbNvOASJ" opacity="1" fill-opacity="0" stroke="#000000" stroke-width="1" stroke-opacity="0"></use></g></g><g><use xlink:href="#dSHu7gL4" opacity="1" fill="#efcc2e" fill-opacity="0.11"></use><g><use xlink:href="#dSHu7gL4" opacity="1" fill-opacity="0" stroke="#000000" stroke-width="1" stroke-opacity="0"></use></g></g><g><use xlink:href="#cDLHDYcUu" opacity="1" fill="#000000" fill-opacity="0"></use><g><use xlink:href="#cDLHDYcUu" opacity="1" fill-opacity="0" stroke="#000000" stroke-width="1" stroke-opacity="0"></use></g></g><g><use xlink:href="#cjrHIQqPb" opacity="1" fill="#ffffff" fill-opacity="1"></use><g><use xlink:href="#cjrHIQqPb" opacity="1" fill-opacity="0" stroke="#000000" stroke-width="1" stroke-opacity="0"></use></g></g><g><use xlink:href="#c6runyBDq3" opacity="1" fill="#000000" fill-opacity="0"></use><g><use xlink:href="#c6runyBDq3" opacity="1" fill-opacity="0" stroke="#000000" stroke-width="1" stroke-opacity="0"></use></g></g><g><use xlink:href="#dHEWQLEXw" opacity="1" fill="#efcc2e" fill-opacity="1"></use><g><use xlink:href="#dHEWQLEXw" opacity="1" fill-opacity="0" stroke="#000000" stroke-width="1" stroke-opacity="0"></use></g></g><g><use xlink:href="#hRFeqq06Q" opacity="1" fill="#000000" fill-opacity="0"></use><g><use xlink:href="#hRFeqq06Q" opacity="1" fill-opacity="0" stroke="#000000" stroke-width="1" stroke-opacity="0"></use></g></g><g><use xlink:href="#atAGipkgg" opacity="1" fill="#ffffff" fill-opacity="1"></use><g><use xlink:href="#atAGipkgg" opacity="1" fill-opacity="0" stroke="#000000" stroke-width="1" stroke-opacity="0"></use></g></g><g><use xlink:href="#h20JtqycvW" opacity="1" fill="#000000" fill-opacity="0"></use><g><use xlink:href="#h20JtqycvW" opacity="1" fill-opacity="0" stroke="#000000" stroke-width="1" stroke-opacity="0"></use></g></g></g></g></svg>