<?xml version="1.0" encoding="UTF-8" standalone="no"?>
<!DOCTYPE svg PUBLIC "-//W3C//DTD SVG 1.1//EN" "http://www.w3.org/Graphics/SVG/1.1/DTD/svg11.dtd">
<svg version="1.1" xmlns="http://www.w3.org/2000/svg" xmlns:xlink="http://www.w3.org/1999/xlink" preserveAspectRatio="xMidYMid meet" viewBox="0 0 640 640" width="640" height="640"><defs><path d="M6.29 320.56C6.29 493.72 146.67 634.1 319.83 634.1C492.99 634.1 633.37 493.72 633.37 320.56C633.37 147.4 492.99 7.02 319.83 7.02C146.67 7.02 6.29 147.4 6.29 320.56Z" id="g2kVVbNF6n"></path><path d="M6.29 320.56C6.29 493.72 146.67 634.1 319.83 634.1C492.99 634.1 633.37 493.72 633.37 320.56C633.37 147.4 492.99 7.02 319.83 7.02C146.67 7.02 6.29 147.4 6.29 320.56Z" id="a1juoleOl"></path><path d="M209.26 194.39L210.22 193.86L211.21 193.35L212.2 192.85L213.19 192.38L214.21 191.93L215.21 191.52L216.24 191.1L218.3 190.35L219.34 190.02L220.38 189.7L221.44 189.4L222.5 189.12L223.55 188.87L224.62 188.64L225.69 188.43L226.76 188.24L227.83 188.07L228.91 187.92L230 187.8L231.08 187.69L232.17 187.61L233.26 187.56L234.34 187.52L235.44 187.51L236.53 187.52L237.61 187.55L238.71 187.6L239.81 187.68L240.89 187.77L241.99 187.89L243.07 188.03L244.17 188.2L245.25 188.39L246.33 188.59L247.41 188.83L248.48 189.08L249.55 189.35L250.62 189.66L252.75 190.31L254.82 191.06L256.84 191.88L258.82 192.77L260.74 193.73L262.61 194.78L264.43 195.87L266.2 197.05L267.91 198.28L269.57 199.58L271.17 200.93L272.71 202.34L274.19 203.8L275.61 205.33L276.96 206.89L278.25 208.52L279.48 210.18L280.65 211.89L281.74 213.64L282.77 215.43L283.74 217.26L284.62 219.13L285.45 221.03L286.18 222.96L286.86 224.92L287.45 226.92L287.97 228.92L288.41 230.95L288.79 233.01L289.07 235.08L289.27 237.18L289.39 239.28L289.43 241.41L289.39 243.53L289.26 245.67L289.04 247.81L288.74 249.96L288.33 252.1L287.85 254.25L287.28 256.39L372.42 297.61L373.52 294.93L374.05 293.58L374.57 292.23L375.07 290.88L375.56 289.52L376.04 288.16L376.5 286.78L376.95 285.41L377.38 284.04L377.79 282.65L378.21 281.27L378.6 279.88L378.97 278.49L379.35 277.09L379.69 275.7L380.03 274.29L380.35 272.89L380.66 271.47L380.95 270.07L381.23 268.65L381.74 265.82L381.98 264.39L382.19 262.97L382.41 261.54L382.78 258.68L382.94 257.25L383.09 255.8L383.22 254.37L383.34 252.93L383.45 251.49L383.54 250.04L383.62 248.6L383.73 245.71L383.77 244.27L383.78 242.82L383.78 241.37L410.6 241.37L410.6 243.12L410.57 244.86L410.53 246.59L410.48 248.33L410.4 250.07L410.31 251.81L410.2 253.54L410.07 255.27L409.92 257.01L409.76 258.73L409.58 260.46L409.38 262.18L409.17 263.91L408.93 265.63L408.68 267.34L408.41 269.05L408.13 270.76L407.82 272.47L407.5 274.17L407.17 275.88L406.82 277.58L406.44 279.27L406.06 280.96L405.23 284.33L404.79 286L403.85 289.35L403.36 291.02L402.85 292.67L402.33 294.33L401.78 295.98L401.22 297.62L400.64 299.26L400.05 300.9L399.44 302.53L398.81 304.14L398.17 305.76L397.51 307.38L396.83 308.98L528.82 373.26L522.87 384.94L390.88 321.08L389.61 323.49L388.3 325.87L386.95 328.23L385.58 330.56L384.16 332.87L382.71 335.16L381.23 337.43L379.72 339.66L378.17 341.88L376.59 344.07L374.97 346.23L373.33 348.37L371.66 350.48L369.95 352.56L368.21 354.62L366.45 356.65L364.64 358.66L362.81 360.62L360.95 362.58L359.07 364.49L357.14 366.37L355.2 368.24L353.22 370.06L351.22 371.87L349.2 373.63L347.14 375.37L345.06 377.08L342.94 378.77L340.8 380.41L338.64 382.01L336.45 383.59L334.24 385.14L332 386.67L329.74 388.14L327.45 389.59L325.14 391L322.8 392.39L320.44 393.72L318.07 395.03L315.66 396.3L379.31 528.3L367.41 534.15L250.76 293.22L249.69 293.53L248.62 293.8L247.53 294.05L246.45 294.29L245.37 294.49L244.29 294.68L243.2 294.85L242.12 294.99L241.02 295.11L239.93 295.2L238.84 295.28L237.75 295.33L236.65 295.36L235.57 295.37L234.47 295.36L233.39 295.32L232.29 295.27L231.21 295.19L230.13 295.08L229.05 294.96L227.96 294.81L226.89 294.64L225.81 294.45L224.74 294.24L223.69 294.01L222.62 293.76L221.56 293.48L220.52 293.18L219.46 292.86L218.43 292.53L217.39 292.15L216.36 291.78L214.33 290.95L213.32 290.49L212.32 290.03L211.33 289.53L210.36 289.02L209.38 288.49L208.42 287.94L206.53 286.78L204.7 285.55L202.95 284.25L201.25 282.9L199.62 281.5L198.06 280.03L196.57 278.52L195.14 276.95L193.79 275.34L192.5 273.68L191.28 271.97L190.14 270.21L189.06 268.44L188.06 266.61L187.14 264.76L186.28 262.86L185.49 260.95L184.78 259.01L184.16 257.05L183.59 255.06L183.11 253.04L182.71 251.02L182.39 248.97L182.14 246.91L181.98 244.86L181.88 242.77L181.87 240.7L181.94 238.61L182.1 236.53L182.32 234.45L182.64 232.37L183.05 230.3L183.53 228.24L184.09 226.19L184.74 224.15L185.48 222.13L186.31 220.12L187.22 218.13L188.22 216.18L189.3 214.24L169.06 194L188.05 175.01L208.3 194.94L209.26 194.39ZM281.06 269.87L280.7 270.44L280.34 271L279.59 272.13L278.82 273.22L278.01 274.29L277.6 274.83L277.19 275.35L276.76 275.87L276.32 276.38L275.89 276.89L275.43 277.39L274.99 277.89L274.52 278.37L274.07 278.85L273.12 279.8L272.64 280.27L271.65 281.18L271.16 281.62L270.65 282.06L270.13 282.5L269.61 282.91L269.08 283.34L268.56 283.74L268.03 284.16L267.48 284.56L266.38 285.33L265.26 286.08L264.7 286.44L263.55 287.14L262.96 287.49L263.34 288.25L263.82 289.25L264.42 290.48L265.11 291.93L265.9 293.57L266.8 295.4L267.76 297.41L268.82 299.57L269.93 301.87L271.12 304.32L272.36 306.88L273.64 309.54L274.98 312.31L276.36 315.15L277.77 318.06L279.2 321.01L280.65 324.01L282.12 327.02L283.59 330.05L285.05 333.09L286.5 336.09L287.96 339.08L289.38 342.02L290.78 344.89L292.14 347.71L293.47 350.44L294.74 353.07L295.95 355.6L297.12 357.99L298.21 360.25L299.24 362.36L300.18 364.3L301.05 366.07L301.81 367.64L302.46 369.02L303.03 370.17L303.48 371.08L303.8 371.76L304 372.17L304.07 372.31L306.06 371.24L308.04 370.14L309.99 369.02L311.93 367.86L313.84 366.68L315.74 365.46L317.62 364.23L319.47 362.96L321.31 361.67L323.13 360.36L324.92 359.01L326.69 357.63L328.44 356.24L330.18 354.81L331.87 353.37L333.56 351.9L335.23 350.4L336.86 348.87L338.48 347.32L340.07 345.76L341.65 344.16L343.18 342.54L344.71 340.89L346.21 339.24L347.68 337.55L349.12 335.84L350.54 334.1L351.93 332.35L353.3 330.57L354.64 328.78L355.96 326.96L357.25 325.13L358.52 323.27L359.75 321.39L360.95 319.49L362.14 317.58L363.29 315.64L364.41 313.68L365.51 311.71L366.58 309.7L281.74 268.7L281.41 269.29L281.06 269.87ZM232.16 228.47L230.52 229.01L228.95 229.78L227.48 230.77L226.13 231.98L224.94 233.36L223.97 234.84L223.2 236.41L222.66 238.05L222.32 239.74L222.2 241.45L222.31 243.16L222.62 244.86L223.15 246.5L223.89 248.09L224.85 249.57L226.02 250.96L226.08 251.02L227.46 252.21L228.95 253.2L230.53 253.96L232.19 254.51L233.89 254.83L235.6 254.94L237.32 254.81L239.02 254.48L240.66 253.93L242.24 253.17L243.74 252.18L245.11 250.96L246.3 249.59L247.29 248.09L248.06 246.51L248.6 244.86L248.92 243.16L249.03 241.45L248.91 239.72L248.58 238.02L248.03 236.38L247.27 234.8L246.28 233.31L245.06 231.93L243.68 230.74L242.19 229.75L240.61 228.99L238.95 228.44L237.27 228.12L235.56 228.01L233.85 228.13L232.16 228.47Z" id="aHMGyngDj"></path><path d="M209.26 194.39L210.22 193.86L211.21 193.35L212.2 192.85L213.19 192.38L214.21 191.93L215.21 191.52L216.24 191.1L218.3 190.35L219.34 190.02L220.38 189.7L221.44 189.4L222.5 189.12L223.55 188.87L224.62 188.64L225.69 188.43L226.76 188.24L227.83 188.07L228.91 187.92L230 187.8L231.08 187.69L232.17 187.61L233.26 187.56L234.34 187.52L235.44 187.51L236.53 187.52L237.61 187.55L238.71 187.6L239.81 187.68L240.89 187.77L241.99 187.89L243.07 188.03L244.17 188.2L245.25 188.39L246.33 188.59L247.41 188.83L248.48 189.08L249.55 189.35L250.62 189.66L252.75 190.31L254.82 191.06L256.84 191.88L258.82 192.77L260.74 193.73L262.61 194.78L264.43 195.87L266.2 197.05L267.91 198.28L269.57 199.58L271.17 200.93L272.71 202.34L274.19 203.8L275.61 205.33L276.96 206.89L278.25 208.52L279.48 210.18L280.65 211.89L281.74 213.64L282.77 215.43L283.74 217.26L284.62 219.13L285.45 221.03L286.18 222.96L286.86 224.92L287.45 226.92L287.97 228.92L288.41 230.95L288.79 233.01L289.07 235.08L289.27 237.18L289.39 239.28L289.43 241.41L289.39 243.53L289.26 245.67L289.04 247.81L288.74 249.96L288.33 252.1L287.85 254.25L287.28 256.39L372.42 297.61L373.52 294.93L374.05 293.58L374.57 292.23L375.07 290.88L375.56 289.52L376.04 288.16L376.5 286.78L376.95 285.41L377.38 284.04L377.79 282.65L378.21 281.27L378.6 279.88L378.97 278.49L379.35 277.09L379.69 275.7L380.03 274.29L380.35 272.89L380.66 271.47L380.95 270.07L381.23 268.65L381.74 265.82L381.98 264.39L382.19 262.97L382.41 261.54L382.78 258.68L382.94 257.25L383.09 255.8L383.22 254.37L383.34 252.93L383.45 251.49L383.54 250.04L383.62 248.6L383.73 245.71L383.77 244.27L383.78 242.82L383.78 241.37L410.6 241.37L410.6 243.12L410.57 244.86L410.53 246.59L410.48 248.33L410.4 250.07L410.31 251.81L410.2 253.54L410.07 255.27L409.92 257.01L409.76 258.73L409.58 260.46L409.38 262.18L409.17 263.91L408.93 265.63L408.68 267.34L408.41 269.05L408.13 270.76L407.82 272.47L407.5 274.17L407.17 275.88L406.82 277.58L406.44 279.27L406.06 280.96L405.23 284.33L404.79 286L403.85 289.35L403.36 291.02L402.85 292.67L402.33 294.33L401.78 295.98L401.22 297.62L400.64 299.26L400.05 300.9L399.44 302.53L398.81 304.14L398.17 305.76L397.51 307.38L396.83 308.98L528.82 373.26L522.87 384.94L390.88 321.08L389.61 323.49L388.3 325.87L386.95 328.23L385.58 330.56L384.16 332.87L382.71 335.16L381.23 337.43L379.72 339.66L378.17 341.88L376.59 344.07L374.97 346.23L373.33 348.37L371.66 350.48L369.95 352.56L368.21 354.62L366.45 356.65L364.64 358.66L362.81 360.62L360.95 362.58L359.07 364.49L357.14 366.37L355.2 368.24L353.22 370.06L351.22 371.87L349.2 373.63L347.14 375.37L345.06 377.08L342.94 378.77L340.8 380.41L338.64 382.01L336.45 383.59L334.24 385.14L332 386.67L329.74 388.14L327.45 389.59L325.14 391L322.8 392.39L320.44 393.72L318.07 395.03L315.66 396.3L379.31 528.3L367.41 534.15L250.76 293.22L249.69 293.53L248.62 293.8L247.53 294.05L246.45 294.29L245.37 294.49L244.29 294.68L243.2 294.85L242.12 294.99L241.02 295.11L239.93 295.2L238.84 295.28L237.75 295.33L236.65 295.36L235.57 295.37L234.47 295.36L233.39 295.32L232.29 295.27L231.21 295.19L230.13 295.08L229.05 294.96L227.96 294.81L226.89 294.64L225.81 294.45L224.74 294.24L223.69 294.01L222.62 293.76L221.56 293.48L220.52 293.18L219.46 292.86L218.43 292.53L217.39 292.15L216.36 291.78L214.33 290.95L213.32 290.49L212.32 290.03L211.33 289.53L210.36 289.02L209.38 288.49L208.42 287.94L206.53 286.78L204.7 285.55L202.95 284.25L201.25 282.9L199.62 281.5L198.06 280.03L196.57 278.52L195.14 276.95L193.79 275.34L192.5 273.68L191.28 271.97L190.14 270.21L189.06 268.44L188.06 266.61L187.14 264.76L186.28 262.86L185.49 260.95L184.78 259.01L184.16 257.05L183.59 255.06L183.11 253.04L182.71 251.02L182.39 248.97L182.14 246.91L181.98 244.86L181.88 242.77L181.87 240.7L181.94 238.61L182.1 236.53L182.32 234.45L182.64 232.37L183.05 230.3L183.53 228.24L184.09 226.19L184.74 224.15L185.48 222.13L186.31 220.12L187.22 218.13L188.22 216.18L189.3 214.24L169.06 194L188.05 175.01L208.3 194.94L209.26 194.39ZM281.06 269.87L280.7 270.44L280.34 271L279.59 272.13L278.82 273.22L278.01 274.29L277.6 274.83L277.19 275.35L276.76 275.87L276.32 276.38L275.89 276.89L275.43 277.39L274.99 277.89L274.52 278.37L274.07 278.85L273.12 279.8L272.64 280.27L271.65 281.18L271.16 281.62L270.65 282.06L270.13 282.5L269.61 282.91L269.08 283.34L268.56 283.74L268.03 284.16L267.48 284.56L266.38 285.33L265.26 286.08L264.7 286.44L263.55 287.14L262.96 287.49L263.34 288.25L263.82 289.25L264.42 290.48L265.11 291.93L265.9 293.57L266.8 295.4L267.76 297.41L268.82 299.57L269.93 301.87L271.12 304.32L272.36 306.88L273.64 309.54L274.98 312.31L276.36 315.15L277.77 318.06L279.2 321.01L280.65 324.01L282.12 327.02L283.59 330.05L285.05 333.09L286.5 336.09L287.96 339.08L289.38 342.02L290.78 344.89L292.14 347.71L293.47 350.44L294.74 353.07L295.95 355.6L297.12 357.99L298.21 360.25L299.24 362.36L300.18 364.3L301.05 366.07L301.81 367.64L302.46 369.02L303.03 370.17L303.48 371.08L303.8 371.76L304 372.17L304.07 372.31L306.06 371.24L308.04 370.14L309.99 369.02L311.93 367.86L313.84 366.68L315.74 365.46L317.62 364.23L319.47 362.96L321.31 361.67L323.13 360.36L324.92 359.01L326.69 357.63L328.44 356.24L330.18 354.81L331.87 353.37L333.56 351.9L335.23 350.4L336.86 348.87L338.48 347.32L340.07 345.76L341.65 344.16L343.18 342.54L344.71 340.89L346.21 339.24L347.68 337.55L349.12 335.84L350.54 334.1L351.93 332.35L353.3 330.57L354.64 328.78L355.96 326.96L357.25 325.13L358.52 323.27L359.75 321.39L360.95 319.49L362.14 317.58L363.29 315.64L364.41 313.68L365.51 311.71L366.58 309.7L281.74 268.7L281.41 269.29L281.06 269.87ZM232.16 228.47L230.52 229.01L228.95 229.78L227.48 230.77L226.13 231.98L224.94 233.36L223.97 234.84L223.2 236.41L222.66 238.05L222.32 239.74L222.2 241.45L222.31 243.16L222.62 244.86L223.15 246.5L223.89 248.09L224.85 249.57L226.02 250.96L226.08 251.02L227.46 252.21L228.95 253.2L230.53 253.96L232.19 254.51L233.89 254.83L235.6 254.94L237.32 254.81L239.02 254.48L240.66 253.93L242.24 253.17L243.74 252.18L245.11 250.96L246.3 249.59L247.29 248.09L248.06 246.51L248.6 244.86L248.92 243.16L249.03 241.45L248.91 239.72L248.58 238.02L248.03 236.38L247.27 234.8L246.28 233.31L245.06 231.93L243.68 230.74L242.19 229.75L240.61 228.99L238.95 228.44L237.27 228.12L235.56 228.01L233.85 228.13L232.16 228.47Z" id="eAQ41MLpa"></path></defs><g><g><g><use xlink:href="#g2kVVbNF6n" opacity="1" fill="#e8bd1f" fill-opacity="1"></use><g><use xlink:href="#g2kVVbNF6n" opacity="1" fill-opacity="0" stroke="#000000" stroke-width="1" stroke-opacity="0"></use></g></g><g><use xlink:href="#a1juoleOl" opacity="1" fill="#000000" fill-opacity="0"></use><g><use xlink:href="#a1juoleOl" opacity="1" fill-opacity="0" stroke="#000000" stroke-width="1" stroke-opacity="0"></use></g></g><g><use xlink:href="#aHMGyngDj" opacity="1" fill="#ffffff" fill-opacity="1"></use><g><use xlink:href="#aHMGyngDj" opacity="1" fill-opacity="0" stroke="#000000" stroke-width="1" stroke-opacity="0"></use></g></g><g><use xlink:href="#eAQ41MLpa" opacity="1" fill="#000000" fill-opacity="0"></use><g><use xlink:href="#eAQ41MLpa" opacity="1" fill-opacity="0" stroke="#000000" stroke-width="1" stroke-opacity="0"></use></g></g></g></g></svg>