<?xml version="1.0" encoding="UTF-8" standalone="no"?>
<!DOCTYPE svg PUBLIC "-//W3C//DTD SVG 1.1//EN" "http://www.w3.org/Graphics/SVG/1.1/DTD/svg11.dtd">
<svg version="1.1" xmlns="http://www.w3.org/2000/svg" xmlns:xlink="http://www.w3.org/1999/xlink" preserveAspectRatio="xMidYMid meet" viewBox="0 0 640 640" width="640" height="640"><defs><path d="M321.35 635.73C147.86 635.73 7.21 495.31 7.21 322.1C7.21 148.89 147.86 8.48 321.35 8.48C494.85 8.48 635.5 148.89 635.5 322.1C635.5 495.31 494.85 635.73 321.35 635.73Z" id="h10xVXrlOS"></path><path d="M321.35 635.73C147.86 635.73 7.21 495.31 7.21 322.1C7.21 148.89 147.86 8.48 321.35 8.48C494.85 8.48 635.5 148.89 635.5 322.1C635.5 495.31 494.85 635.73 321.35 635.73Z" id="i2fzjsh9xH"></path><path d="M344.3 121.42L351.64 122.39L358.89 123.6L366.05 125.07L373.12 126.78L380.09 128.75L386.95 130.95L393.7 133.39L400.34 136.05L406.85 138.94L413.25 142.06L419.52 145.38L425.65 148.91L431.64 152.66L437.48 156.61L443.18 160.73L448.74 165.07L454.13 169.59L459.36 174.3L464.42 179.16L469.3 184.21L474.01 189.44L478.55 194.82L482.89 200.35L487.04 206.05L491 211.89L494.76 217.87L498.31 223.99L501.65 230.25L504.77 236.64L507.68 243.15L510.35 249.78L512.81 256.53L515.02 263.38L517 270.34L518.74 277.41L520.22 284.56L521.45 291.82L522.42 299.15L523.14 306.56L554.4 306.56L554.4 337.63L523.14 337.63L522.42 345.04L521.46 352.38L520.22 359.62L518.74 366.77L517.02 373.83L515.04 380.79L512.82 387.64L510.38 394.38L507.7 401.01L504.8 407.52L501.67 413.9L498.35 420.16L494.8 426.28L491.04 432.26L487.1 438.1L482.94 443.79L478.62 449.32L474.09 454.7L469.38 459.91L464.5 464.97L459.44 469.85L454.22 474.54L448.83 479.07L443.29 483.39L437.6 487.54L431.76 491.48L425.77 495.23L419.65 498.76L413.38 502.1L407 505.21L400.48 508.1L393.86 510.77L387.12 513.21L380.26 515.42L373.3 517.39L366.24 519.1L359.09 520.58L351.83 521.81L344.5 522.77L337.09 523.47L337.09 554.73L305.82 554.73L305.82 523.47L298.42 522.76L291.1 521.79L283.86 520.57L276.72 519.09L269.66 517.36L262.73 515.4L255.88 513.19L249.14 510.75L242.52 508.08L236.03 505.19L229.64 502.07L223.4 498.75L217.28 495.21L211.31 491.47L205.48 487.52L199.79 483.39L194.25 479.07L188.87 474.56L183.66 469.86L178.6 464.98L173.74 459.94L169.03 454.73L164.52 449.36L160.18 443.83L156.03 438.15L152.09 432.32L148.34 426.34L144.8 420.23L141.47 413.99L138.35 407.62L135.44 401.12L132.77 394.5L130.32 387.77L128.11 380.92L126.13 373.99L124.4 366.94L122.91 359.79L121.67 352.56L120.7 345.24L119.98 337.84L88.72 337.84L88.72 306.56L119.98 306.56L120.7 299.16L121.66 291.84L122.88 284.61L124.36 277.46L126.09 270.42L128.06 263.47L130.26 256.62L132.7 249.89L135.38 243.27L138.27 236.77L141.38 230.4L144.7 224.15L148.24 218.02L151.98 212.05L155.93 206.22L160.06 200.53L164.38 194.99L168.91 189.62L173.59 184.41L178.47 179.36L183.51 174.48L188.72 169.78L194.09 165.26L199.62 160.93L205.3 156.79L211.13 152.83L217.11 149.09L223.22 145.55L229.46 142.21L235.83 139.09L242.33 136.2L248.95 133.52L255.68 131.07L262.53 128.85L269.47 126.87L276.51 125.14L283.66 123.65L290.89 122.43L298.21 121.45L305.61 120.74L305.61 89.46L336.89 89.46L336.89 120.74L344.3 121.42ZM443.95 341.82L443.21 345.98L442.34 350.08L441.34 354.13L440.2 358.13L438.94 362.07L437.55 365.95L436.05 369.78L434.41 373.52L432.66 377.22L430.8 380.83L428.82 384.39L426.72 387.86L424.52 391.27L422.22 394.59L419.81 397.84L417.29 400.99L414.68 404.06L411.97 407.06L409.18 409.96L406.27 412.75L403.29 415.47L400.22 418.08L397.07 420.6L393.82 423.02L390.5 425.33L387.09 427.53L383.62 429.63L380.08 431.61L376.46 433.48L372.77 435.22L369.01 436.86L365.2 438.37L361.32 439.77L357.37 441.04L353.39 442.17L349.34 443.19L345.24 444.06L341.08 444.8L336.89 445.4L336.89 492.3L343.01 491.64L349.08 490.76L355.08 489.67L360.99 488.38L366.83 486.89L372.58 485.2L378.26 483.33L383.84 481.26L389.32 478.99L394.71 476.56L400 473.94L405.17 471.15L410.24 468.18L415.2 465.06L420.03 461.76L424.76 458.32L429.35 454.7L433.82 450.96L438.16 447.05L442.35 443L446.4 438.81L450.32 434.48L454.09 430.02L457.71 425.43L461.16 420.72L464.46 415.89L467.6 410.95L470.57 405.88L473.38 400.7L476 395.42L478.46 390.04L480.73 384.56L482.81 378.98L484.7 373.33L486.4 367.56L487.9 361.73L489.21 355.82L490.3 349.82L491.19 343.76L491.87 337.63L444.56 337.63L443.95 341.82ZM151.83 343.75L152.72 349.81L153.82 355.78L155.12 361.69L156.62 367.51L158.32 373.26L160.2 378.92L162.29 384.49L164.56 389.95L167 395.33L169.62 400.59L172.42 405.76L175.39 410.82L178.51 415.76L181.81 420.59L185.27 425.3L188.87 429.88L192.63 434.34L196.53 438.65L200.58 442.84L204.76 446.88L209.09 450.79L213.55 454.54L218.13 458.15L222.84 461.6L227.66 464.89L232.61 468.01L237.68 470.98L242.85 473.76L248.11 476.39L253.49 478.83L258.97 481.09L264.53 483.17L270.19 485.06L275.93 486.74L281.76 488.25L287.67 489.54L293.65 490.64L299.7 491.52L305.82 492.21L305.82 445.3L301.63 444.69L297.47 443.95L293.38 443.08L289.33 442.08L285.34 440.93L281.41 439.67L277.53 438.28L273.7 436.76L269.95 435.14L266.27 433.39L262.65 431.51L259.1 429.53L255.63 427.45L252.23 425.25L248.91 422.94L245.67 420.52L242.52 418.02L239.44 415.41L236.46 412.69L233.56 409.89L230.76 406.99L228.05 404.01L225.43 400.94L222.93 397.78L220.51 394.54L218.21 391.23L216 387.82L213.92 384.35L211.94 380.81L210.07 377.19L208.31 373.5L206.69 369.75L205.17 365.93L203.79 362.05L202.52 358.12L201.39 354.12L200.37 350.07L199.5 345.98L198.76 341.82L198.15 337.63L151.15 337.63L151.83 343.75ZM298.75 215.49L295.28 216.28L291.85 217.19L288.46 218.21L285.14 219.33L281.84 220.56L278.61 221.88L275.43 223.3L272.3 224.82L269.24 226.44L266.24 228.16L263.28 229.95L260.4 231.84L257.58 233.81L254.82 235.89L252.15 238.04L249.53 240.26L246.99 242.57L244.54 244.96L242.13 247.43L239.83 249.97L237.6 252.59L235.45 255.26L233.39 258.02L231.41 260.83L229.51 263.72L227.72 266.66L226 269.68L224.39 272.74L222.86 275.87L221.45 279.05L220.12 282.28L218.89 285.56L217.78 288.9L216.77 292.28L215.86 295.71L215.05 299.19L214.37 302.7L213.79 306.26L274.86 306.26L274.86 337.52L214 337.52L214.58 341.09L215.26 344.6L216.07 348.06L216.97 351.49L217.98 354.88L219.1 358.22L220.33 361.51L221.65 364.74L223.07 367.92L224.6 371.04L226.21 374.1L227.93 377.11L229.72 380.07L231.62 382.94L233.6 385.77L235.66 388.52L237.81 391.2L240.04 393.81L242.35 396.36L244.73 398.82L247.2 401.21L249.75 403.52L252.36 405.75L255.04 407.9L257.79 409.96L260.62 411.94L263.49 413.84L266.45 415.63L269.45 417.35L272.51 418.95L275.64 420.48L278.82 421.91L282.05 423.23L285.34 424.46L288.67 425.58L292.06 426.58L295.49 427.49L298.96 428.29L302.47 428.98L306.03 429.56L306.03 368.7L337.3 368.7L337.3 429.88L340.86 429.3L344.37 428.61L347.84 427.81L351.27 426.9L354.66 425.88L357.99 424.76L361.28 423.55L364.51 422.21L367.69 420.79L370.82 419.27L373.88 417.66L376.88 415.95L379.84 414.14L382.71 412.25L385.54 410.27L388.29 408.22L390.97 406.07L393.58 403.84L396.13 401.52L398.6 399.13L400.98 396.66L403.29 394.13L405.52 391.52L407.67 388.83L409.73 386.08L411.71 383.26L413.61 380.37L415.4 377.43L417.12 374.42L418.73 371.35L420.26 368.23L421.68 365.05L423 361.81L424.23 358.53L425.35 355.19L426.36 351.81L427.26 348.38L428.07 344.91L428.75 341.39L429.33 337.84L367.94 337.84L367.94 306.56L429.33 306.56L428.75 303.02L428.07 299.49L427.26 296.01L426.35 292.58L425.34 289.19L424.21 285.85L422.99 282.57L421.66 279.32L420.23 276.15L418.7 273.02L417.08 269.95L415.36 266.94L413.56 263.98L411.67 261.09L409.68 258.28L407.61 255.53L405.46 252.84L403.23 250.22L400.91 247.69L398.5 245.22L396.04 242.84L393.49 240.52L390.88 238.29L388.19 236.14L385.43 234.08L382.6 232.1L379.71 230.21L376.75 228.42L373.74 226.7L370.67 225.09L367.54 223.58L364.35 222.15L361.11 220.83L357.82 219.62L354.47 218.5L351.09 217.48L347.65 216.59L344.17 215.79L340.65 215.11L337.09 214.54L337.09 275.09L305.82 275.09L305.82 214.23L302.26 214.81L298.75 215.49ZM341.1 199.49L345.25 200.22L349.37 201.09L353.43 202.08L357.43 203.21L361.38 204.46L365.28 205.85L369.1 207.35L372.86 208.98L376.57 210.73L380.19 212.59L383.76 214.57L387.24 216.65L390.66 218.84L393.98 221.15L397.24 223.56L400.4 226.07L403.49 228.68L406.49 231.39L409.4 234.2L412.21 237.09L414.93 240.08L417.55 243.15L420.07 246.31L422.5 249.55L424.82 252.88L427.02 256.28L429.12 259.76L431.11 263.31L432.99 266.94L434.75 270.63L436.39 274.39L437.92 278.2L439.31 282.09L440.58 286.04L441.72 290.04L442.74 294.1L443.62 298.2L444.36 302.37L444.96 306.56L491.87 306.56L491.19 300.44L490.3 294.38L489.21 288.39L487.9 282.46L486.4 276.63L484.7 270.88L482.81 265.21L480.73 259.64L478.46 254.16L476 248.77L473.38 243.5L470.57 238.33L467.6 233.26L464.46 228.31L461.16 223.47L457.71 218.76L454.09 214.17L450.32 209.71L446.4 205.39L442.35 201.21L438.16 197.16L433.82 193.25L429.35 189.49L424.76 185.89L420.03 182.43L415.2 179.15L410.24 176.01L405.17 173.06L400 170.26L394.71 167.65L389.32 165.21L383.84 162.95L378.26 160.88L372.58 158.99L366.83 157.3L360.99 155.81L355.08 154.52L349.08 153.44L343.01 152.56L336.89 151.9L336.89 198.9L341.1 199.49ZM293.65 153.45L287.66 154.56L281.75 155.85L275.92 157.36L270.18 159.05L264.52 160.93L258.94 163.02L253.47 165.27L248.1 167.73L242.82 170.34L237.65 173.13L232.58 176.1L227.64 179.23L222.81 182.53L218.1 185.98L213.52 189.58L209.06 193.34L204.74 197.25L200.56 201.3L196.51 205.48L192.6 209.81L188.84 214.26L185.23 218.86L181.78 223.56L178.49 228.39L175.36 233.34L172.39 238.39L169.6 243.56L166.97 248.84L164.53 254.22L162.26 259.7L160.19 265.26L158.3 270.92L156.6 276.67L155.11 282.5L153.81 288.41L152.71 294.39L151.83 300.44L151.15 306.56L198.05 306.56L198.66 302.37L199.39 298.21L200.28 294.11L201.28 290.06L202.42 286.08L203.68 282.13L205.08 278.26L206.6 274.44L208.23 270.68L209.97 266.99L211.85 263.38L213.84 259.83L215.92 256.36L218.13 252.95L220.43 249.63L222.85 246.39L225.37 243.23L227.98 240.16L230.7 237.18L233.49 234.28L236.4 231.48L239.39 228.78L242.46 226.16L245.62 223.64L248.86 221.23L252.19 218.93L255.59 216.73L259.06 214.63L262.62 212.66L266.24 210.8L269.93 209.04L273.67 207.42L277.5 205.9L281.38 204.52L285.32 203.25L289.32 202.12L293.37 201.11L297.47 200.24L301.63 199.5L305.82 198.9L305.82 151.9L299.7 152.57L293.65 153.45Z" id="c1sbD6PCeT"></path><path d="M344.3 121.42L351.64 122.39L358.89 123.6L366.05 125.07L373.12 126.78L380.09 128.75L386.95 130.95L393.7 133.39L400.34 136.05L406.85 138.94L413.25 142.06L419.52 145.38L425.65 148.91L431.64 152.66L437.48 156.61L443.18 160.73L448.74 165.07L454.13 169.59L459.36 174.3L464.42 179.16L469.3 184.21L474.01 189.44L478.55 194.82L482.89 200.35L487.04 206.05L491 211.89L494.76 217.87L498.31 223.99L501.65 230.25L504.77 236.64L507.68 243.15L510.35 249.78L512.81 256.53L515.02 263.38L517 270.34L518.74 277.41L520.22 284.56L521.45 291.82L522.42 299.15L523.14 306.56L554.4 306.56L554.4 337.63L523.14 337.63L522.42 345.04L521.46 352.38L520.22 359.62L518.74 366.77L517.02 373.83L515.04 380.79L512.82 387.64L510.38 394.38L507.7 401.01L504.8 407.52L501.67 413.9L498.35 420.16L494.8 426.28L491.04 432.26L487.1 438.1L482.94 443.79L478.62 449.32L474.09 454.7L469.38 459.91L464.5 464.97L459.44 469.85L454.22 474.54L448.83 479.07L443.29 483.39L437.6 487.54L431.76 491.48L425.77 495.23L419.65 498.76L413.38 502.1L407 505.21L400.48 508.1L393.86 510.77L387.12 513.21L380.26 515.42L373.3 517.39L366.24 519.1L359.09 520.58L351.83 521.81L344.5 522.77L337.09 523.47L337.09 554.73L305.82 554.73L305.82 523.47L298.42 522.76L291.1 521.79L283.86 520.57L276.72 519.09L269.66 517.36L262.73 515.4L255.88 513.19L249.14 510.75L242.52 508.08L236.03 505.19L229.64 502.07L223.4 498.75L217.28 495.21L211.31 491.47L205.48 487.52L199.79 483.39L194.25 479.07L188.87 474.56L183.66 469.86L178.6 464.98L173.74 459.94L169.03 454.73L164.52 449.36L160.18 443.83L156.03 438.15L152.09 432.32L148.34 426.34L144.8 420.23L141.47 413.99L138.35 407.62L135.44 401.12L132.77 394.5L130.32 387.77L128.11 380.92L126.13 373.99L124.4 366.94L122.91 359.79L121.67 352.56L120.7 345.24L119.98 337.84L88.72 337.84L88.72 306.56L119.98 306.56L120.7 299.16L121.66 291.84L122.88 284.61L124.36 277.46L126.09 270.42L128.06 263.47L130.26 256.62L132.7 249.89L135.38 243.27L138.27 236.77L141.38 230.4L144.7 224.15L148.24 218.02L151.98 212.05L155.93 206.22L160.06 200.53L164.38 194.99L168.91 189.62L173.59 184.41L178.47 179.36L183.51 174.48L188.72 169.78L194.09 165.26L199.62 160.93L205.3 156.79L211.13 152.83L217.11 149.09L223.22 145.55L229.46 142.21L235.83 139.09L242.33 136.2L248.95 133.52L255.68 131.07L262.53 128.85L269.47 126.87L276.51 125.14L283.66 123.65L290.89 122.43L298.21 121.45L305.61 120.74L305.61 89.46L336.89 89.46L336.89 120.74L344.3 121.42ZM443.95 341.82L443.21 345.98L442.34 350.08L441.34 354.13L440.2 358.13L438.94 362.07L437.55 365.95L436.05 369.78L434.41 373.52L432.66 377.22L430.8 380.83L428.82 384.39L426.72 387.86L424.52 391.27L422.22 394.59L419.81 397.84L417.29 400.99L414.68 404.06L411.97 407.06L409.18 409.96L406.27 412.75L403.29 415.47L400.22 418.08L397.07 420.6L393.82 423.02L390.5 425.33L387.09 427.53L383.62 429.63L380.08 431.61L376.46 433.48L372.77 435.22L369.01 436.86L365.2 438.37L361.32 439.77L357.37 441.04L353.39 442.17L349.34 443.19L345.24 444.06L341.08 444.8L336.89 445.4L336.89 492.3L343.01 491.64L349.08 490.76L355.08 489.67L360.99 488.38L366.83 486.89L372.58 485.2L378.26 483.33L383.84 481.26L389.32 478.99L394.71 476.56L400 473.94L405.17 471.15L410.24 468.18L415.2 465.06L420.03 461.76L424.76 458.32L429.35 454.7L433.82 450.96L438.16 447.05L442.35 443L446.4 438.81L450.32 434.48L454.09 430.02L457.71 425.43L461.16 420.72L464.46 415.89L467.6 410.95L470.57 405.88L473.38 400.7L476 395.42L478.46 390.04L480.73 384.56L482.81 378.98L484.7 373.33L486.4 367.56L487.9 361.73L489.21 355.82L490.3 349.82L491.19 343.76L491.87 337.63L444.56 337.63L443.95 341.82ZM151.83 343.75L152.72 349.81L153.82 355.78L155.12 361.69L156.62 367.51L158.32 373.26L160.2 378.92L162.29 384.49L164.56 389.95L167 395.33L169.62 400.59L172.42 405.76L175.39 410.82L178.51 415.76L181.81 420.59L185.27 425.3L188.87 429.88L192.63 434.34L196.53 438.65L200.58 442.84L204.76 446.88L209.09 450.79L213.55 454.54L218.13 458.15L222.84 461.6L227.66 464.89L232.61 468.01L237.68 470.98L242.85 473.76L248.11 476.39L253.49 478.83L258.97 481.09L264.53 483.17L270.19 485.06L275.93 486.74L281.76 488.25L287.67 489.54L293.65 490.64L299.7 491.52L305.82 492.21L305.82 445.3L301.63 444.69L297.47 443.95L293.38 443.08L289.33 442.08L285.34 440.93L281.41 439.67L277.53 438.28L273.7 436.76L269.95 435.14L266.27 433.39L262.65 431.51L259.1 429.53L255.63 427.45L252.23 425.25L248.91 422.94L245.67 420.52L242.52 418.02L239.44 415.41L236.46 412.69L233.56 409.89L230.76 406.99L228.05 404.01L225.43 400.94L222.93 397.78L220.51 394.54L218.21 391.23L216 387.82L213.92 384.35L211.94 380.81L210.07 377.19L208.31 373.5L206.69 369.75L205.17 365.93L203.79 362.05L202.52 358.12L201.39 354.12L200.37 350.07L199.5 345.98L198.76 341.82L198.15 337.63L151.15 337.63L151.83 343.75ZM298.75 215.49L295.28 216.28L291.85 217.19L288.46 218.21L285.14 219.33L281.84 220.56L278.61 221.88L275.43 223.3L272.3 224.82L269.24 226.44L266.24 228.16L263.28 229.95L260.4 231.84L257.58 233.81L254.82 235.89L252.15 238.04L249.53 240.26L246.99 242.57L244.54 244.96L242.13 247.43L239.83 249.97L237.6 252.59L235.45 255.26L233.39 258.02L231.41 260.83L229.51 263.72L227.72 266.66L226 269.68L224.39 272.74L222.86 275.87L221.45 279.05L220.12 282.28L218.89 285.56L217.78 288.9L216.77 292.28L215.86 295.71L215.05 299.19L214.37 302.7L213.79 306.26L274.86 306.26L274.86 337.52L214 337.52L214.58 341.09L215.26 344.6L216.07 348.06L216.97 351.49L217.98 354.88L219.1 358.22L220.33 361.51L221.65 364.74L223.07 367.92L224.6 371.04L226.21 374.1L227.93 377.11L229.72 380.07L231.62 382.94L233.6 385.77L235.66 388.52L237.81 391.2L240.04 393.81L242.35 396.36L244.73 398.82L247.2 401.21L249.75 403.52L252.36 405.75L255.04 407.9L257.79 409.96L260.62 411.94L263.49 413.84L266.45 415.63L269.45 417.35L272.51 418.95L275.64 420.48L278.82 421.91L282.05 423.23L285.34 424.46L288.67 425.58L292.06 426.58L295.49 427.49L298.96 428.29L302.47 428.98L306.03 429.56L306.03 368.7L337.3 368.7L337.3 429.88L340.86 429.3L344.37 428.61L347.84 427.81L351.27 426.9L354.66 425.88L357.99 424.76L361.28 423.55L364.51 422.21L367.69 420.79L370.82 419.27L373.88 417.66L376.88 415.95L379.84 414.14L382.71 412.25L385.54 410.27L388.29 408.22L390.97 406.07L393.58 403.84L396.13 401.52L398.6 399.13L400.98 396.66L403.29 394.13L405.52 391.52L407.67 388.83L409.73 386.08L411.71 383.26L413.61 380.37L415.4 377.43L417.12 374.42L418.73 371.35L420.26 368.23L421.68 365.05L423 361.81L424.23 358.53L425.35 355.19L426.36 351.81L427.26 348.38L428.07 344.91L428.75 341.39L429.33 337.84L367.94 337.84L367.94 306.56L429.33 306.56L428.75 303.02L428.07 299.49L427.26 296.01L426.35 292.58L425.34 289.19L424.21 285.85L422.99 282.57L421.66 279.32L420.23 276.15L418.7 273.02L417.08 269.95L415.36 266.94L413.56 263.98L411.67 261.09L409.68 258.28L407.61 255.53L405.46 252.84L403.23 250.22L400.91 247.69L398.5 245.22L396.04 242.84L393.49 240.52L390.88 238.29L388.19 236.14L385.43 234.08L382.6 232.1L379.71 230.21L376.75 228.42L373.74 226.7L370.67 225.09L367.54 223.58L364.35 222.15L361.11 220.83L357.82 219.62L354.47 218.5L351.09 217.48L347.65 216.59L344.17 215.79L340.65 215.11L337.09 214.54L337.09 275.09L305.82 275.09L305.82 214.23L302.26 214.81L298.75 215.49ZM341.1 199.49L345.25 200.22L349.37 201.09L353.43 202.08L357.43 203.21L361.38 204.46L365.28 205.85L369.1 207.35L372.86 208.98L376.57 210.73L380.19 212.59L383.76 214.57L387.24 216.65L390.66 218.84L393.98 221.15L397.24 223.56L400.4 226.07L403.49 228.68L406.49 231.39L409.4 234.2L412.21 237.09L414.93 240.08L417.55 243.15L420.07 246.31L422.5 249.55L424.82 252.88L427.02 256.28L429.12 259.76L431.11 263.31L432.99 266.94L434.75 270.63L436.39 274.39L437.92 278.2L439.31 282.09L440.58 286.04L441.72 290.04L442.74 294.1L443.62 298.2L444.36 302.37L444.96 306.56L491.87 306.56L491.19 300.44L490.3 294.38L489.21 288.39L487.9 282.46L486.4 276.63L484.7 270.88L482.81 265.21L480.73 259.64L478.46 254.16L476 248.77L473.38 243.5L470.57 238.33L467.6 233.26L464.46 228.31L461.16 223.47L457.71 218.76L454.09 214.17L450.32 209.71L446.4 205.39L442.35 201.21L438.16 197.16L433.82 193.25L429.35 189.49L424.76 185.89L420.03 182.43L415.2 179.15L410.24 176.01L405.17 173.06L400 170.26L394.71 167.65L389.32 165.21L383.84 162.95L378.26 160.88L372.58 158.99L366.83 157.3L360.99 155.81L355.08 154.52L349.08 153.44L343.01 152.56L336.89 151.9L336.89 198.9L341.1 199.49ZM293.65 153.45L287.66 154.56L281.75 155.85L275.92 157.36L270.18 159.05L264.52 160.93L258.94 163.02L253.47 165.27L248.1 167.73L242.82 170.34L237.65 173.13L232.58 176.1L227.64 179.23L222.81 182.53L218.1 185.98L213.52 189.58L209.06 193.34L204.74 197.25L200.56 201.3L196.51 205.48L192.6 209.81L188.84 214.26L185.23 218.86L181.78 223.56L178.49 228.39L175.36 233.34L172.39 238.39L169.6 243.56L166.97 248.84L164.53 254.22L162.26 259.7L160.19 265.26L158.3 270.92L156.6 276.67L155.11 282.5L153.81 288.41L152.71 294.39L151.83 300.44L151.15 306.56L198.05 306.56L198.66 302.37L199.39 298.21L200.28 294.11L201.28 290.06L202.42 286.08L203.68 282.13L205.08 278.26L206.6 274.44L208.23 270.68L209.97 266.99L211.85 263.38L213.84 259.83L215.92 256.36L218.13 252.95L220.43 249.63L222.85 246.39L225.37 243.23L227.98 240.16L230.7 237.18L233.49 234.28L236.4 231.48L239.39 228.78L242.46 226.16L245.62 223.64L248.86 221.23L252.19 218.93L255.59 216.73L259.06 214.63L262.62 212.66L266.24 210.8L269.93 209.04L273.67 207.42L277.5 205.9L281.38 204.52L285.32 203.25L289.32 202.12L293.37 201.11L297.47 200.24L301.63 199.5L305.82 198.9L305.82 151.9L299.7 152.57L293.65 153.45Z" id="cefzHaGKp"></path><path d="M430.8 193.58C430.8 252.49 430.8 285.22 430.8 291.76C430.8 291.76 430.8 291.76 430.8 291.76C374.44 291.76 343.14 291.76 336.89 291.76C336.89 291.76 336.89 291.76 336.89 291.76C336.89 232.86 336.89 200.14 336.89 193.58C336.89 193.58 336.89 193.58 336.89 193.58C393.23 193.58 424.53 193.58 430.8 193.58C430.8 193.58 430.8 193.58 430.8 193.58Z" id="a4JBzwciG"></path><path d="M430.8 193.58C430.8 252.49 430.8 285.22 430.8 291.76C430.8 291.76 430.8 291.76 430.8 291.76C374.44 291.76 343.14 291.76 336.89 291.76C336.89 291.76 336.89 291.76 336.89 291.76C336.89 232.86 336.89 200.14 336.89 193.58C336.89 193.58 336.89 193.58 336.89 193.58C393.23 193.58 424.53 193.58 430.8 193.58C430.8 193.58 430.8 193.58 430.8 193.58Z" id="j2pXmdZly3"></path><path d="M445.07 337.63C445.07 396.54 445.07 429.27 445.07 435.81C445.07 435.81 445.07 435.81 445.07 435.81C388.73 435.81 357.43 435.81 351.16 435.81C351.16 435.81 351.16 435.81 351.16 435.81C351.16 376.9 351.16 344.17 351.16 337.63C351.16 337.63 351.16 337.63 351.16 337.63C407.5 337.63 438.8 337.63 445.07 337.63C445.07 337.63 445.07 337.63 445.07 337.63Z" id="c33w4xCVsc"></path><path d="M445.07 337.63C445.07 396.54 445.07 429.27 445.07 435.81C445.07 435.81 445.07 435.81 445.07 435.81C388.73 435.81 357.43 435.81 351.16 435.81C351.16 435.81 351.16 435.81 351.16 435.81C351.16 376.9 351.16 344.17 351.16 337.63C351.16 337.63 351.16 337.63 351.16 337.63C407.5 337.63 438.8 337.63 445.07 337.63C445.07 337.63 445.07 337.63 445.07 337.63Z" id="b2MTSiqWQj"></path><path d="M446.84 249.25C446.84 283.64 446.84 302.75 446.84 306.56C446.84 306.56 446.84 306.56 446.84 306.56C427.27 306.56 416.39 306.56 414.22 306.56C414.22 306.56 414.22 306.56 414.22 306.56C414.22 272.17 414.22 253.06 414.22 249.25C414.22 249.25 414.22 249.25 414.22 249.25C433.79 249.25 444.67 249.25 446.84 249.25C446.84 249.25 446.84 249.25 446.84 249.25Z" id="fBPDCiWTL"></path><path d="M446.84 249.25C446.84 283.64 446.84 302.75 446.84 306.56C446.84 306.56 446.84 306.56 446.84 306.56C427.27 306.56 416.39 306.56 414.22 306.56C414.22 306.56 414.22 306.56 414.22 306.56C414.22 272.17 414.22 253.06 414.22 249.25C414.22 249.25 414.22 249.25 414.22 249.25C433.79 249.25 444.67 249.25 446.84 249.25C446.84 249.25 446.84 249.25 446.84 249.25Z" id="a1MZe8OMnO"></path><path d="M369.51 407.15C369.51 441.55 369.51 460.65 369.51 464.48C369.51 464.48 369.51 464.48 369.51 464.48C349.93 464.48 339.05 464.48 336.89 464.48C336.89 464.48 336.89 464.48 336.89 464.48C336.89 430.08 336.89 410.97 336.89 407.15C336.89 407.15 336.89 407.15 336.89 407.15C356.45 407.15 367.33 407.15 369.51 407.15C369.51 407.15 369.51 407.15 369.51 407.15Z" id="e1syS5yfW"></path><path d="M369.51 407.15C369.51 441.55 369.51 460.65 369.51 464.48C369.51 464.48 369.51 464.48 369.51 464.48C349.93 464.48 339.05 464.48 336.89 464.48C336.89 464.48 336.89 464.48 336.89 464.48C336.89 430.08 336.89 410.97 336.89 407.15C336.89 407.15 336.89 407.15 336.89 407.15C356.45 407.15 367.33 407.15 369.51 407.15C369.51 407.15 369.51 407.15 369.51 407.15Z" id="bkMmSpoVP"></path><path d="M305.82 190.36C305.82 235.95 305.82 261.28 305.82 266.34C305.82 266.34 305.82 266.34 305.82 266.34C252.29 266.34 222.55 266.34 216.61 266.34C216.61 266.34 216.61 266.34 216.61 266.34C216.61 220.75 216.61 195.43 216.61 190.36C216.61 190.36 216.61 190.36 216.61 190.36C270.14 190.36 299.87 190.36 305.82 190.36C305.82 190.36 305.82 190.36 305.82 190.36Z" id="b2Q58rhzf"></path><path d="M305.82 190.36C305.82 235.95 305.82 261.28 305.82 266.34C305.82 266.34 305.82 266.34 305.82 266.34C252.29 266.34 222.55 266.34 216.61 266.34C216.61 266.34 216.61 266.34 216.61 266.34C216.61 220.75 216.61 195.43 216.61 190.36C216.61 190.36 216.61 190.36 216.61 190.36C270.14 190.36 299.87 190.36 305.82 190.36C305.82 190.36 305.82 190.36 305.82 190.36Z" id="e4HTURBQv"></path><path d="M281.75 337.63C281.75 383.22 281.75 408.55 281.75 413.61C281.75 413.61 281.75 413.61 281.75 413.61C228.22 413.61 198.47 413.61 192.52 413.61C192.52 413.61 192.52 413.61 192.52 413.61C192.52 368.02 192.52 342.7 192.52 337.63C192.52 337.63 192.52 337.63 192.52 337.63C246.05 337.63 275.8 337.63 281.75 337.63C281.75 337.63 281.75 337.63 281.75 337.63Z" id="aXhgl66iv"></path><path d="M281.75 337.63C281.75 383.22 281.75 408.55 281.75 413.61C281.75 413.61 281.75 413.61 281.75 413.61C228.22 413.61 198.47 413.61 192.52 413.61C192.52 413.61 192.52 413.61 192.52 413.61C192.52 368.02 192.52 342.7 192.52 337.63C192.52 337.63 192.52 337.63 192.52 337.63C246.05 337.63 275.8 337.63 281.75 337.63C281.75 337.63 281.75 337.63 281.75 337.63Z" id="e2m7fFCrwL"></path><path d="M244.96 241.53C244.96 280.55 244.96 302.24 244.96 306.56C244.96 306.56 244.96 306.56 244.96 306.56C213.5 306.56 196.02 306.56 192.52 306.56C192.52 306.56 192.52 306.56 192.52 306.56C192.52 267.54 192.52 245.87 192.52 241.53C192.52 241.53 192.52 241.53 192.52 241.53C223.98 241.53 241.46 241.53 244.96 241.53C244.96 241.53 244.96 241.53 244.96 241.53Z" id="aSkEIVmbO"></path><path d="M244.96 241.53C244.96 280.55 244.96 302.24 244.96 306.56C244.96 306.56 244.96 306.56 244.96 306.56C213.5 306.56 196.02 306.56 192.52 306.56C192.52 306.56 192.52 306.56 192.52 306.56C192.52 267.54 192.52 245.87 192.52 241.53C192.52 241.53 192.52 241.53 192.52 241.53C223.98 241.53 241.46 241.53 244.96 241.53C244.96 241.53 244.96 241.53 244.96 241.53Z" id="f2Tg7axOR"></path><path d="M305.82 405.06C305.82 444.08 305.82 465.77 305.82 470.1C305.82 470.1 305.82 470.1 305.82 470.1C264.61 470.1 241.71 470.1 237.13 470.1C237.13 470.1 237.13 470.1 237.13 470.1C237.13 431.08 237.13 409.4 237.13 405.06C237.13 405.06 237.13 405.06 237.13 405.06C278.34 405.06 301.24 405.06 305.82 405.06C305.82 405.06 305.82 405.06 305.82 405.06Z" id="ccKChQ2M"></path><path d="M305.82 405.06C305.82 444.08 305.82 465.77 305.82 470.1C305.82 470.1 305.82 470.1 305.82 470.1C264.61 470.1 241.71 470.1 237.13 470.1C237.13 470.1 237.13 470.1 237.13 470.1C237.13 431.08 237.13 409.4 237.13 405.06C237.13 405.06 237.13 405.06 237.13 405.06C278.34 405.06 301.24 405.06 305.82 405.06C305.82 405.06 305.82 405.06 305.82 405.06Z" id="a33HywLsrj"></path></defs><g><g><g><use xlink:href="#h10xVXrlOS" opacity="1" fill="#ecc01b" fill-opacity="1"></use><g><use xlink:href="#h10xVXrlOS" opacity="1" fill-opacity="0" stroke="#000000" stroke-width="1" stroke-opacity="0"></use></g></g><g><use xlink:href="#i2fzjsh9xH" opacity="1" fill="#000000" fill-opacity="0"></use><g><use xlink:href="#i2fzjsh9xH" opacity="1" fill-opacity="0" stroke="#000000" stroke-width="1" stroke-opacity="0"></use></g></g><g><use xlink:href="#c1sbD6PCeT" opacity="1" fill="#ffffff" fill-opacity="1"></use><g><use xlink:href="#c1sbD6PCeT" opacity="1" fill-opacity="0" stroke="#000000" stroke-width="1" stroke-opacity="0"></use></g></g><g><use xlink:href="#cefzHaGKp" opacity="1" fill="#000000" fill-opacity="0"></use><g><use xlink:href="#cefzHaGKp" opacity="1" fill-opacity="0" stroke="#000000" stroke-width="1" stroke-opacity="0"></use></g></g><g><use xlink:href="#a4JBzwciG" opacity="1" fill="#ecc01b" fill-opacity="1"></use><g><use xlink:href="#a4JBzwciG" opacity="1" fill-opacity="0" stroke="#000000" stroke-width="1" stroke-opacity="0"></use></g></g><g><use xlink:href="#j2pXmdZly3" opacity="1" fill="#000000" fill-opacity="0"></use><g><use xlink:href="#j2pXmdZly3" opacity="1" fill-opacity="0" stroke="#000000" stroke-width="1" stroke-opacity="0"></use></g></g><g><use xlink:href="#c33w4xCVsc" opacity="1" fill="#ecc01b" fill-opacity="1"></use><g><use xlink:href="#c33w4xCVsc" opacity="1" fill-opacity="0" stroke="#000000" stroke-width="1" stroke-opacity="0"></use></g></g><g><use xlink:href="#b2MTSiqWQj" opacity="1" fill="#000000" fill-opacity="0"></use><g><use xlink:href="#b2MTSiqWQj" opacity="1" fill-opacity="0" stroke="#000000" stroke-width="1" stroke-opacity="0"></use></g></g><g><use xlink:href="#fBPDCiWTL" opacity="1" fill="#ecc01b" fill-opacity="1"></use><g><use xlink:href="#fBPDCiWTL" opacity="1" fill-opacity="0" stroke="#000000" stroke-width="1" stroke-opacity="0"></use></g></g><g><use xlink:href="#a1MZe8OMnO" opacity="1" fill="#000000" fill-opacity="0"></use><g><use xlink:href="#a1MZe8OMnO" opacity="1" fill-opacity="0" stroke="#000000" stroke-width="1" stroke-opacity="0"></use></g></g><g><use xlink:href="#e1syS5yfW" opacity="1" fill="#ecc01b" fill-opacity="1"></use><g><use xlink:href="#e1syS5yfW" opacity="1" fill-opacity="0" stroke="#000000" stroke-width="1" stroke-opacity="0"></use></g></g><g><use xlink:href="#bkMmSpoVP" opacity="1" fill="#000000" fill-opacity="0"></use><g><use xlink:href="#bkMmSpoVP" opacity="1" fill-opacity="0" stroke="#000000" stroke-width="1" stroke-opacity="0"></use></g></g><g><use xlink:href="#b2Q58rhzf" opacity="1" fill="#ecc01b" fill-opacity="1"></use><g><use xlink:href="#b2Q58rhzf" opacity="1" fill-opacity="0" stroke="#000000" stroke-width="1" stroke-opacity="0"></use></g></g><g><use xlink:href="#e4HTURBQv" opacity="1" fill="#000000" fill-opacity="0"></use><g><use xlink:href="#e4HTURBQv" opacity="1" fill-opacity="0" stroke="#000000" stroke-width="1" stroke-opacity="0"></use></g></g><g><use xlink:href="#aXhgl66iv" opacity="1" fill="#ecc01b" fill-opacity="1"></use><g><use xlink:href="#aXhgl66iv" opacity="1" fill-opacity="0" stroke="#000000" stroke-width="1" stroke-opacity="0"></use></g></g><g><use xlink:href="#e2m7fFCrwL" opacity="1" fill="#000000" fill-opacity="0"></use><g><use xlink:href="#e2m7fFCrwL" opacity="1" fill-opacity="0" stroke="#000000" stroke-width="1" stroke-opacity="0"></use></g></g><g><use xlink:href="#aSkEIVmbO" opacity="1" fill="#ecc01b" fill-opacity="1"></use><g><use xlink:href="#aSkEIVmbO" opacity="1" fill-opacity="0" stroke="#000000" stroke-width="1" stroke-opacity="0"></use></g></g><g><use xlink:href="#f2Tg7axOR" opacity="1" fill="#000000" fill-opacity="0"></use><g><use xlink:href="#f2Tg7axOR" opacity="1" fill-opacity="0" stroke="#000000" stroke-width="1" stroke-opacity="0"></use></g></g><g><use xlink:href="#ccKChQ2M" opacity="1" fill="#ecc01b" fill-opacity="1"></use><g><use xlink:href="#ccKChQ2M" opacity="1" fill-opacity="0" stroke="#000000" stroke-width="1" stroke-opacity="0"></use></g></g><g><use xlink:href="#a33HywLsrj" opacity="1" fill="#000000" fill-opacity="0"></use><g><use xlink:href="#a33HywLsrj" opacity="1" fill-opacity="0" stroke="#000000" stroke-width="1" stroke-opacity="0"></use></g></g></g></g></svg>