<?xml version="1.0" encoding="UTF-8" standalone="no"?>
<!DOCTYPE svg PUBLIC "-//W3C//DTD SVG 1.1//EN" "http://www.w3.org/Graphics/SVG/1.1/DTD/svg11.dtd">
<svg version="1.1" xmlns="http://www.w3.org/2000/svg" xmlns:xlink="http://www.w3.org/1999/xlink" preserveAspectRatio="xMidYMid meet" viewBox="0 0 640 640" width="640" height="640"><defs><path d="M469.4 288.07C478.7 282.12 490.22 280.77 500.64 284.41C504.64 285.8 508.17 288.27 510.86 291.54C502.84 296.8 438.65 338.93 430.62 344.2C428.11 335.21 422.77 327.26 415.4 321.53C417.74 320.07 425.98 314.93 427.15 314.2C441.24 305.53 455.22 296.65 469.4 288.07Z" id="a3b4gflshQ"></path><path d="M453.14 334.88L456.45 335.22L459.75 335.69L463.08 336.31L466.38 337.07L469.69 337.95L471.67 338.57L473.63 339.22L475.58 339.92L477.49 340.67L479.39 341.47L481.25 342.29L483.1 343.18L484.92 344.1L486.72 345.07L488.47 346.07L490.22 347.12L491.91 348.22L493.6 349.35L495.25 350.52L496.88 351.73L498.46 352.97L500.02 354.26L501.54 355.58L503.03 356.94L504.49 358.33L505.91 359.76L507.32 361.22L508.66 362.73L509.99 364.25L511.26 365.82L512.5 367.41L513.71 369.04L514.88 370.69L516 372.37L517.09 374.09L518.14 375.83L519.14 377.6L520.1 379.4L521.02 381.23L521.9 383.08L522.73 384.95L523.53 386.86L524.27 388.78L524.96 390.73L525.61 392.69L529.57 404.84L529.57 430.68L529.15 432.71L528.7 434.71L528.18 436.71L527.63 438.69L527.04 440.64L526.41 442.59L525.71 444.5L524.99 446.39L524.22 448.27L523.41 450.13L522.55 451.98L521.67 453.78L520.74 455.58L519.76 457.34L518.74 459.08L517.68 460.81L516.59 462.49L515.47 464.16L514.3 465.8L513.09 467.42L511.85 469L510.56 470.55L509.25 472.09L507.91 473.58L506.52 475.04L505.1 476.47L503.65 477.88L502.16 479.25L500.64 480.58L499.09 481.88L497.51 483.15L495.9 484.39L494.26 485.58L492.58 486.74L490.88 487.86L489.14 488.95L487.38 489.98L485.59 491L483.78 491.96L481.93 492.89L481.39 493.14L480.84 493.38L480.29 493.63L479.75 493.87L479.19 494.1L478.64 494.34L478.08 494.56L477.53 494.78L475.85 495.45L475.29 495.65L474.73 495.88L474.17 496.08L473.59 496.29L473.03 496.5L472.45 496.7L471.89 496.89L471.32 497.1L470.75 497.29L470.18 497.5L469.62 497.69L469.04 497.9L468.47 498.09L467.9 498.28L467.33 498.47L466.75 498.68L466.19 498.87L465.04 499.26L464.48 499.46L463.33 499.85L462.77 500.05L462.19 500.25L461.63 500.45L461.05 500.66L459.37 501.28L433.71 501.37L433.18 501.19L432.91 501.09L432.64 501L432.11 500.79L431.85 500.7L431.57 500.6L431.3 500.5L431.03 500.41L430.5 500.2L430.24 500.11L429.71 499.91L429.16 499.71L428.36 499.4L428.1 499.32L427.56 499.11L427.28 499.02L426.75 498.81L426.49 498.73L426.22 498.62L425.95 498.53L425.69 498.43L425.42 498.34L425.14 498.24L424.61 498.06L424.35 497.96L423.28 497.6L423 497.51L419.74 496.5L416.55 495.34L413.42 494.07L410.38 492.69L407.41 491.19L404.51 489.59L401.71 487.89L398.98 486.07L396.35 484.17L393.79 482.16L391.33 480.06L388.95 477.89L386.66 475.62L384.48 473.27L382.4 470.85L380.4 468.34L378.5 465.77L376.71 463.12L375.01 460.42L373.43 457.65L371.96 454.81L370.58 451.93L369.33 448.99L368.18 446.01L367.14 442.98L366.23 439.91L365.43 436.81L364.75 433.67L364.19 430.49L363.76 427.29L363.45 424.05L363.26 420.81L363.2 417.53L363.27 414.25L363.48 410.96L363.83 407.65L364.31 404.33L364.93 401.02L365.68 397.71L366.57 394.4L367.6 391.13L368.75 387.94L370.02 384.81L371.39 381.76L372.9 378.8L374.5 375.9L376.21 373.1L378.01 370.36L379.93 367.74L381.92 365.18L384.02 362.72L386.2 360.34L388.46 358.06L390.81 355.86L393.25 353.78L395.74 351.79L398.33 349.88L400.97 348.1L403.67 346.4L406.43 344.82L409.27 343.34L412.15 341.97L415.09 340.71L418.07 339.56L421.1 338.53L424.17 337.61L427.28 336.82L430.41 336.14L433.6 335.58L436.81 335.15L440.03 334.84L443.29 334.65L446.55 334.59L449.85 334.68L453.14 334.88ZM494.94 417.76L419.34 374.47L419.63 461.54L494.94 417.76Z" id="a66z8sdBV"></path><path d="M453.14 334.88L456.45 335.22L459.75 335.69L463.08 336.31L466.38 337.07L469.69 337.95L471.67 338.57L473.63 339.22L475.58 339.92L477.49 340.67L479.39 341.47L481.25 342.29L483.1 343.18L484.92 344.1L486.72 345.07L488.47 346.07L490.22 347.12L491.91 348.22L493.6 349.35L495.25 350.52L496.88 351.73L498.46 352.97L500.02 354.26L501.54 355.58L503.03 356.94L504.49 358.33L505.91 359.76L507.32 361.22L508.66 362.73L509.99 364.25L511.26 365.82L512.5 367.41L513.71 369.04L514.88 370.69L516 372.37L517.09 374.09L518.14 375.83L519.14 377.6L520.1 379.4L521.02 381.23L521.9 383.08L522.73 384.95L523.53 386.86L524.27 388.78L524.96 390.73L525.61 392.69L529.57 404.84L529.57 430.68L529.15 432.71L528.7 434.71L528.18 436.71L527.63 438.69L527.04 440.64L526.41 442.59L525.71 444.5L524.99 446.39L524.22 448.27L523.41 450.13L522.55 451.98L521.67 453.78L520.74 455.58L519.76 457.34L518.74 459.08L517.68 460.81L516.59 462.49L515.47 464.16L514.3 465.8L513.09 467.42L511.85 469L510.56 470.55L509.25 472.09L507.91 473.58L506.52 475.04L505.1 476.47L503.65 477.88L502.16 479.25L500.64 480.58L499.09 481.88L497.51 483.15L495.9 484.39L494.26 485.58L492.58 486.74L490.88 487.86L489.14 488.95L487.38 489.98L485.59 491L483.78 491.96L481.93 492.89L481.39 493.14L480.84 493.38L480.29 493.63L479.75 493.87L479.19 494.1L478.64 494.34L478.08 494.56L477.53 494.78L475.85 495.45L475.29 495.65L474.73 495.88L474.17 496.08L473.59 496.29L473.03 496.5L472.45 496.7L471.89 496.89L471.32 497.1L470.75 497.29L470.18 497.5L469.62 497.69L469.04 497.9L468.47 498.09L467.9 498.28L467.33 498.47L466.75 498.68L466.19 498.87L465.04 499.26L464.48 499.46L463.33 499.85L462.77 500.05L462.19 500.25L461.63 500.45L461.05 500.66L459.37 501.28L433.71 501.37L433.18 501.19L432.91 501.09L432.64 501L432.11 500.79L431.85 500.7L431.57 500.6L431.3 500.5L431.03 500.41L430.5 500.2L430.24 500.11L429.71 499.91L429.16 499.71L428.36 499.4L428.1 499.32L427.56 499.11L427.28 499.02L426.75 498.81L426.49 498.73L426.22 498.62L425.95 498.53L425.69 498.43L425.42 498.34L425.14 498.24L424.61 498.06L424.35 497.96L423.28 497.6L423 497.51L419.74 496.5L416.55 495.34L413.42 494.07L410.38 492.69L407.41 491.19L404.51 489.59L401.71 487.89L398.98 486.07L396.35 484.17L393.79 482.16L391.33 480.06L388.95 477.89L386.66 475.62L384.48 473.27L382.4 470.85L380.4 468.34L378.5 465.77L376.71 463.12L375.01 460.42L373.43 457.65L371.96 454.81L370.58 451.93L369.33 448.99L368.18 446.01L367.14 442.98L366.23 439.91L365.43 436.81L364.75 433.67L364.19 430.49L363.76 427.29L363.45 424.05L363.26 420.81L363.2 417.53L363.27 414.25L363.48 410.96L363.83 407.65L364.31 404.33L364.93 401.02L365.68 397.71L366.57 394.4L367.6 391.13L368.75 387.94L370.02 384.81L371.39 381.76L372.9 378.8L374.5 375.9L376.21 373.1L378.01 370.36L379.93 367.74L381.92 365.18L384.02 362.72L386.2 360.34L388.46 358.06L390.81 355.86L393.25 353.78L395.74 351.79L398.33 349.88L400.97 348.1L403.67 346.4L406.43 344.82L409.27 343.34L412.15 341.97L415.09 340.71L418.07 339.56L421.1 338.53L424.17 337.61L427.28 336.82L430.41 336.14L433.6 335.58L436.81 335.15L440.03 334.84L443.29 334.65L446.55 334.59L449.85 334.68L453.14 334.88ZM494.94 417.76L419.34 374.47L419.63 461.54L494.94 417.76Z" id="b8gqs8pThj"></path><path d="M319.15 634.07C146.07 634.07 5.76 493.97 5.76 321.15C5.76 148.33 146.07 8.23 319.15 8.23C492.24 8.23 632.55 148.33 632.55 321.15C632.55 493.97 492.24 634.07 319.15 634.07Z" id="c44KS6tCBc"></path><path d="M319.15 634.07C146.07 634.07 5.76 493.97 5.76 321.15C5.76 148.33 146.07 8.23 319.15 8.23C492.24 8.23 632.55 148.33 632.55 321.15C632.55 493.97 492.24 634.07 319.15 634.07Z" id="bOgR3jsf"></path><path d="M361.19 99.45C451.26 117.68 514.71 168.97 544.42 255.96C574.12 342.94 555.41 424.32 493.69 494.15C467.36 523.71 433.29 545.36 395.33 556.62C389.69 541.71 344.56 422.28 338.92 407.35C387.13 381.51 404.78 352.97 396.78 316.51C389.54 282.88 360.91 258.1 326.58 255.77C292.6 253.42 261.48 274.74 251.36 307.26C247.4 323.08 247.4 339.65 251.36 355.48C258.3 383.05 280.29 397.81 307 406.97C301.4 421.94 256.66 541.75 251.07 556.73C145 524.99 73.26 412.08 89.56 303.59C104.78 202.24 169.69 127.7 264.86 103.6C277.69 100.33 290.8 98.01 303.83 95.3C308.59 95.3 320.51 95.3 339.59 95.3C352.55 97.79 359.76 99.17 361.19 99.45Z" id="bjvv3vz4l"></path><path d="M361.19 99.45C451.26 117.68 514.71 168.97 544.42 255.96C574.12 342.94 555.41 424.32 493.69 494.15C467.36 523.71 433.29 545.36 395.33 556.62C389.69 541.71 344.56 422.28 338.92 407.35C387.13 381.51 404.78 352.97 396.78 316.51C389.54 282.88 360.91 258.1 326.58 255.77C292.6 253.42 261.48 274.74 251.36 307.26C247.4 323.08 247.4 339.65 251.36 355.48C258.3 383.05 280.29 397.81 307 406.97C301.4 421.94 256.66 541.75 251.07 556.73C145 524.99 73.26 412.08 89.56 303.59C104.78 202.24 169.69 127.7 264.86 103.6C277.69 100.33 290.8 98.01 303.83 95.3C308.59 95.3 320.51 95.3 339.59 95.3C352.55 97.79 359.76 99.17 361.19 99.45Z" id="a2BjNYsy8x"></path></defs><g><g><g><use xlink:href="#a3b4gflshQ" opacity="1" fill="#000000" fill-opacity="0"></use><g><use xlink:href="#a3b4gflshQ" opacity="1" fill-opacity="0" stroke="#000000" stroke-width="1" stroke-opacity="0"></use></g></g><g><use xlink:href="#a66z8sdBV" opacity="1" fill="#ffffff" fill-opacity="1"></use><g><use xlink:href="#a66z8sdBV" opacity="1" fill-opacity="0" stroke="#000000" stroke-width="1" stroke-opacity="0"></use></g></g><g><use xlink:href="#b8gqs8pThj" opacity="1" fill="#000000" fill-opacity="0"></use><g><use xlink:href="#b8gqs8pThj" opacity="1" fill-opacity="0" stroke="#000000" stroke-width="1" stroke-opacity="0"></use></g></g><g><use xlink:href="#c44KS6tCBc" opacity="1" fill="#eabe1b" fill-opacity="1"></use><g><use xlink:href="#c44KS6tCBc" opacity="1" fill-opacity="0" stroke="#000000" stroke-width="1" stroke-opacity="0"></use></g></g><g><use xlink:href="#bOgR3jsf" opacity="1" fill="#000000" fill-opacity="0"></use><g><use xlink:href="#bOgR3jsf" opacity="1" fill-opacity="0" stroke="#000000" stroke-width="1" stroke-opacity="0"></use></g></g><g><use xlink:href="#bjvv3vz4l" opacity="1" fill="#ffffff" fill-opacity="1"></use><g><use xlink:href="#bjvv3vz4l" opacity="1" fill-opacity="0" stroke="#000000" stroke-width="1" stroke-opacity="0"></use></g></g><g><use xlink:href="#a2BjNYsy8x" opacity="1" fill="#000000" fill-opacity="0"></use><g><use xlink:href="#a2BjNYsy8x" opacity="1" fill-opacity="0" stroke="#000000" stroke-width="1" stroke-opacity="0"></use></g></g></g></g></svg>