<?xml version="1.0" encoding="UTF-8" standalone="no"?>
<!DOCTYPE svg PUBLIC "-//W3C//DTD SVG 1.1//EN" "http://www.w3.org/Graphics/SVG/1.1/DTD/svg11.dtd">
<svg version="1.1" xmlns="http://www.w3.org/2000/svg" xmlns:xlink="http://www.w3.org/1999/xlink" preserveAspectRatio="xMidYMid meet" viewBox="0 0 640 640" width="640" height="640"><defs><path d="M97.31 542.66C220.31 665.68 419.75 665.68 542.75 542.66C665.75 419.66 665.75 220.24 542.75 97.22C419.75 -25.78 220.31 -25.78 97.31 97.22C-25.69 220.24 -25.69 419.66 97.31 542.66Z" id="aZ8KnS3Yg"></path><path d="M97.31 542.66C220.31 665.68 419.75 665.68 542.75 542.66C665.75 419.66 665.75 220.24 542.75 97.22C419.75 -25.78 220.31 -25.78 97.31 97.22C-25.69 220.24 -25.69 419.66 97.31 542.66Z" id="a3Jyz2Dj4l"></path><path d="M197.78 238.71L198.44 238.95L199.1 239.2L199.76 239.48L200.4 239.73L201.04 240.01L202.97 240.88L203.6 241.17L204.24 241.47L204.87 241.78L206.12 242.42L206.73 242.74L207.36 243.08L208.58 243.75L209.19 244.11L209.79 244.46L210.4 244.81L212.18 245.92L212.78 246.31L213.93 247.08L215.09 247.88L215.65 248.28L216.23 248.7L217.36 249.54L217.9 249.97L218.46 250.39L219.01 250.84L219.56 251.27L220.09 251.72L220.63 252.17L221.16 252.64L250.51 243L271.41 277.33L246.83 298.98L246.93 299.59L246.98 299.88L247.07 300.49L247.11 300.79L247.15 301.08L247.2 301.39L247.23 301.69L247.28 302L247.31 302.3L247.35 302.59L247.39 302.9L247.56 304.43L247.57 304.71L247.64 305.33L247.65 305.63L247.68 305.94L247.7 306.24L247.73 306.55L247.76 307.16L247.78 307.45L247.86 308.97L247.86 309.28L247.89 309.89L247.89 310.5L247.91 310.81L247.91 311.42L247.89 311.71L247.89 312.32L247.86 312.93L247.86 313.22L247.81 314.13L247.8 314.42L247.75 315.34L247.72 315.63L247.68 316.24L247.65 316.54L247.64 316.83L247.57 317.44L247.54 317.73L247.52 318.04L247.46 318.65L247.43 318.94L247.38 319.24L247.35 319.53L247.31 319.84L247.27 320.14L247.23 320.43L247.19 320.74L247.15 321.04L247.11 321.33L247.06 321.64L247.02 321.93L246.93 322.54L246.88 322.83L246.83 323.13L271.41 344.78L250.51 379.55L221.16 369.9L220.63 370.35L220.09 370.82L219.56 371.27L218.46 372.14L217.9 372.57L217.36 373L216.23 373.84L215.65 374.26L215.09 374.66L213.93 375.46L212.78 376.24L212.18 376.62L210.4 377.73L209.79 378.08L209.19 378.44L208.58 378.79L207.36 379.47L206.73 379.8L206.12 380.12L205.49 380.45L204.87 380.75L204.24 381.07L203.6 381.38L202.97 381.67L201.69 382.25L201.04 382.52L200.4 382.81L199.76 383.07L199.1 383.34L198.44 383.6L197.12 384.08L190.63 412.46L150.24 412.46L143.75 384.08L142.43 383.6L141.78 383.34L141.13 383.07L140.48 382.81L139.82 382.52L139.18 382.25L138.55 381.96L137.27 381.38L136.64 381.07L136.01 380.75L135.39 380.45L134.13 379.8L132.3 378.79L131.08 378.08L130.49 377.73L129.89 377.36L129.28 376.99L128.7 376.62L128.11 376.24L127.53 375.85L126.93 375.46L126.36 375.06L125.79 374.66L125.21 374.26L123.53 373L122.96 372.57L121.32 371.27L120.78 370.82L120.25 370.35L119.72 369.9L90.37 379.55L69.48 345.22L94.05 323.57L93.95 322.96L93.86 322.36L93.76 321.75L93.68 321.14L93.6 320.55L93.52 319.93L93.46 319.34L93.38 318.73L93.33 318.12L93.26 317.51L93.21 316.91L93.18 316.3L93.13 315.69L93.07 314.47L93.05 313.86L93.04 313.26L93.01 312.04L93.01 310.82L93.04 309.6L93.05 309.01L93.07 308.39L93.13 307.17L93.18 306.56L93.21 305.97L93.26 305.36L93.33 304.75L93.38 304.14L93.46 303.54L93.52 302.93L93.6 302.32L93.68 301.72L93.76 301.11L93.86 300.52L93.95 299.91L94.05 299.31L69.48 277.65L90.37 243L119.72 252.64L120.25 252.17L120.78 251.72L121.32 251.27L121.87 250.84L122.42 250.39L122.96 249.97L123.53 249.54L125.21 248.28L125.79 247.88L126.36 247.48L126.93 247.08L127.53 246.69L128.11 246.31L128.7 245.92L129.28 245.55L129.89 245.18L130.49 244.81L131.08 244.46L132.3 243.75L134.13 242.74L136.01 241.78L137.27 241.17L138.55 240.59L139.18 240.3L139.82 240.01L140.48 239.73L141.13 239.48L141.78 239.2L142.43 238.95L143.09 238.71L143.75 238.45L150.24 210.08L190.63 210.08L197.12 238.45L197.78 238.71ZM150.14 239.86L149.27 243.43L145.8 244.73L145.21 244.96L144.61 245.2L144.03 245.42L143.44 245.68L142.86 245.92L142.27 246.18L141.11 246.69L140.55 246.97L139.39 247.51L137.7 248.38L137.14 248.69L136.59 248.99L136.03 249.3L135.48 249.6L134.39 250.25L133.84 250.58L133.31 250.92L132.77 251.26L132.24 251.6L131.18 252.3L130.66 252.66L130.13 253.01L129.1 253.75L128.59 254.14L128.09 254.52L127.58 254.91L126.58 255.68L126.1 256.08L125.6 256.48L124.15 257.74L121.23 260.23L117.55 259.02L93.29 251.13L78.14 276.03L98.6 294.33L101.41 296.82L100.86 300.5L100.78 301.03L100.7 301.58L100.62 302.11L100.54 302.66L100.48 303.19L100.35 304.28L100.29 304.81L100.19 305.9L100.14 306.43L100.04 308.07L100.01 308.6L99.96 310.24L99.96 312.41L100 313.51L100.01 314.04L100.11 315.68L100.14 316.21L100.24 317.3L100.29 317.83L100.41 318.92L100.48 319.45L100.54 320L100.62 320.55L100.7 321.08L100.78 321.62L100.86 322.15L101.41 325.83L98.6 328.32L78.24 346.08L93.41 370.98L117.66 363.09L121.34 361.88L124.27 364.37L124.73 364.79L125.21 365.21L125.71 365.63L126.19 366.03L126.69 366.43L127.69 367.2L128.2 367.59L128.7 367.97L129.22 368.36L130.24 369.1L130.76 369.45L132.35 370.51L133.41 371.19L134.5 371.86L135.05 372.19L135.6 372.49L136.14 372.81L136.69 373.12L137.81 373.73L139.5 374.6L140.08 374.87L140.64 375.14L141.22 375.42L142.96 376.19L143.55 376.43L144.13 376.67L145.32 377.15L145.91 377.38L149.37 378.68L150.24 382.25L155.54 405.42L185.44 405.42L190.74 382.25L191.61 378.68L195.06 377.38L195.66 377.15L197.44 376.43L198.02 376.19L199.76 375.42L200.91 374.87L201.48 374.6L202.04 374.31L202.62 374.02L203.18 373.73L203.73 373.42L204.29 373.12L204.84 372.81L205.4 372.49L205.94 372.19L206.49 371.86L207.02 371.53L207.57 371.19L208.63 370.51L210.22 369.45L210.73 369.1L211.76 368.36L212.79 367.59L214.29 366.43L215.28 365.63L216.73 364.37L219.65 361.88L223.33 363.09L247.59 370.98L262.74 346.08L242.38 327.89L239.57 325.4L240.11 321.72L240.21 321.19L240.29 320.64L240.37 320.11L240.45 319.57L240.52 319.02L240.58 318.49L240.64 317.94L240.71 317.41L240.8 316.32L240.84 315.77L240.89 315.24L240.95 314.15L240.97 313.6L241 313.07L241.01 312.53L241.01 311.98L241.03 311.43L241.03 310.36L241.01 309.81L241.01 309.26L241 308.72L240.97 308.17L240.95 307.64L240.89 306.55L240.84 306L240.8 305.47L240.71 304.38L240.64 303.85L240.52 302.75L240.45 302.22L240.37 301.68L240.29 301.15L240.21 300.6L240.11 300.07L239.57 296.39L242.38 293.9L262.2 276.46L247.04 251.56L222.79 259.46L219.11 260.64L216.18 258.17L214.74 256.92L214.24 256.51L213.76 256.11L213.26 255.73L212.74 255.32L212.24 254.94L211.75 254.57L211.23 254.18L210.2 253.44L209.67 253.09L209.16 252.74L208.1 252.03L207.57 251.69L207.02 251.35L206.49 251.02L205.94 250.68L204.85 250.04L204.31 249.73L203.74 249.43L203.2 249.12L202.63 248.82L201.51 248.24L200.93 247.95L200.37 247.67L199.79 247.4L199.23 247.13L198.07 246.61L197.47 246.36L196.9 246.12L196.3 245.86L195.72 245.63L195.13 245.39L194.53 245.17L191.29 243.43L190.42 239.86L185.11 216.69L155.45 216.69L150.14 239.86Z" id="ggNFNhz6U"></path><path d="M197.78 238.71L198.44 238.95L199.1 239.2L199.76 239.48L200.4 239.73L201.04 240.01L202.97 240.88L203.6 241.17L204.24 241.47L204.87 241.78L206.12 242.42L206.73 242.74L207.36 243.08L208.58 243.75L209.19 244.11L209.79 244.46L210.4 244.81L212.18 245.92L212.78 246.31L213.93 247.08L215.09 247.88L215.65 248.28L216.23 248.7L217.36 249.54L217.9 249.97L218.46 250.39L219.01 250.84L219.56 251.27L220.09 251.72L220.63 252.17L221.16 252.64L250.51 243L271.41 277.33L246.83 298.98L246.93 299.59L246.98 299.88L247.07 300.49L247.11 300.79L247.15 301.08L247.2 301.39L247.23 301.69L247.28 302L247.31 302.3L247.35 302.59L247.39 302.9L247.56 304.43L247.57 304.71L247.64 305.33L247.65 305.63L247.68 305.94L247.7 306.24L247.73 306.55L247.76 307.16L247.78 307.45L247.86 308.97L247.86 309.28L247.89 309.89L247.89 310.5L247.91 310.81L247.91 311.42L247.89 311.71L247.89 312.32L247.86 312.93L247.86 313.22L247.81 314.13L247.8 314.42L247.75 315.34L247.72 315.63L247.68 316.24L247.65 316.54L247.64 316.83L247.57 317.44L247.54 317.73L247.52 318.04L247.46 318.65L247.43 318.94L247.38 319.24L247.35 319.53L247.31 319.84L247.27 320.14L247.23 320.43L247.19 320.74L247.15 321.04L247.11 321.33L247.06 321.64L247.02 321.93L246.93 322.54L246.88 322.83L246.83 323.13L271.41 344.78L250.51 379.55L221.16 369.9L220.63 370.35L220.09 370.82L219.56 371.27L218.46 372.14L217.9 372.57L217.36 373L216.23 373.84L215.65 374.26L215.09 374.66L213.93 375.46L212.78 376.24L212.18 376.62L210.4 377.73L209.79 378.08L209.19 378.44L208.58 378.79L207.36 379.47L206.73 379.8L206.12 380.12L205.49 380.45L204.87 380.75L204.24 381.07L203.6 381.38L202.97 381.67L201.69 382.25L201.04 382.52L200.4 382.81L199.76 383.07L199.1 383.34L198.44 383.6L197.12 384.08L190.63 412.46L150.24 412.46L143.75 384.08L142.43 383.6L141.78 383.34L141.13 383.07L140.48 382.81L139.82 382.52L139.18 382.25L138.55 381.96L137.27 381.38L136.64 381.07L136.01 380.75L135.39 380.45L134.13 379.8L132.3 378.79L131.08 378.08L130.49 377.73L129.89 377.36L129.28 376.99L128.7 376.62L128.11 376.24L127.53 375.85L126.93 375.46L126.36 375.06L125.79 374.66L125.21 374.26L123.53 373L122.96 372.57L121.32 371.27L120.78 370.82L120.25 370.35L119.72 369.9L90.37 379.55L69.48 345.22L94.05 323.57L93.95 322.96L93.86 322.36L93.76 321.75L93.68 321.14L93.6 320.55L93.52 319.93L93.46 319.34L93.38 318.73L93.33 318.12L93.26 317.51L93.21 316.91L93.18 316.3L93.13 315.69L93.07 314.47L93.05 313.86L93.04 313.26L93.01 312.04L93.01 310.82L93.04 309.6L93.05 309.01L93.07 308.39L93.13 307.17L93.18 306.56L93.21 305.97L93.26 305.36L93.33 304.75L93.38 304.14L93.46 303.54L93.52 302.93L93.6 302.32L93.68 301.72L93.76 301.11L93.86 300.52L93.95 299.91L94.05 299.31L69.48 277.65L90.37 243L119.72 252.64L120.25 252.17L120.78 251.72L121.32 251.27L121.87 250.84L122.42 250.39L122.96 249.97L123.53 249.54L125.21 248.28L125.79 247.88L126.36 247.48L126.93 247.08L127.53 246.69L128.11 246.31L128.7 245.92L129.28 245.55L129.89 245.18L130.49 244.81L131.08 244.46L132.3 243.75L134.13 242.74L136.01 241.78L137.27 241.17L138.55 240.59L139.18 240.3L139.82 240.01L140.48 239.73L141.13 239.48L141.78 239.2L142.43 238.95L143.09 238.71L143.75 238.45L150.24 210.08L190.63 210.08L197.12 238.45L197.78 238.71ZM150.14 239.86L149.27 243.43L145.8 244.73L145.21 244.96L144.61 245.2L144.03 245.42L143.44 245.68L142.86 245.92L142.27 246.18L141.11 246.69L140.55 246.97L139.39 247.51L137.7 248.38L137.14 248.69L136.59 248.99L136.03 249.3L135.48 249.6L134.39 250.25L133.84 250.58L133.31 250.92L132.77 251.26L132.24 251.6L131.18 252.3L130.66 252.66L130.13 253.01L129.1 253.75L128.59 254.14L128.09 254.52L127.58 254.91L126.58 255.68L126.1 256.08L125.6 256.48L124.15 257.74L121.23 260.23L117.55 259.02L93.29 251.13L78.14 276.03L98.6 294.33L101.41 296.82L100.86 300.5L100.78 301.03L100.7 301.58L100.62 302.11L100.54 302.66L100.48 303.19L100.35 304.28L100.29 304.81L100.19 305.9L100.14 306.43L100.04 308.07L100.01 308.6L99.96 310.24L99.96 312.41L100 313.51L100.01 314.04L100.11 315.68L100.14 316.21L100.24 317.3L100.29 317.83L100.41 318.92L100.48 319.45L100.54 320L100.62 320.55L100.7 321.08L100.78 321.62L100.86 322.15L101.41 325.83L98.6 328.32L78.24 346.08L93.41 370.98L117.66 363.09L121.34 361.88L124.27 364.37L124.73 364.79L125.21 365.21L125.71 365.63L126.19 366.03L126.69 366.43L127.69 367.2L128.2 367.59L128.7 367.97L129.22 368.36L130.24 369.1L130.76 369.45L132.35 370.51L133.41 371.19L134.5 371.86L135.05 372.19L135.6 372.49L136.14 372.81L136.69 373.12L137.81 373.73L139.5 374.6L140.08 374.87L140.64 375.14L141.22 375.42L142.96 376.19L143.55 376.43L144.13 376.67L145.32 377.15L145.91 377.38L149.37 378.68L150.24 382.25L155.54 405.42L185.44 405.42L190.74 382.25L191.61 378.68L195.06 377.38L195.66 377.15L197.44 376.43L198.02 376.19L199.76 375.42L200.91 374.87L201.48 374.6L202.04 374.31L202.62 374.02L203.18 373.73L203.73 373.42L204.29 373.12L204.84 372.81L205.4 372.49L205.94 372.19L206.49 371.86L207.02 371.53L207.57 371.19L208.63 370.51L210.22 369.45L210.73 369.1L211.76 368.36L212.79 367.59L214.29 366.43L215.28 365.63L216.73 364.37L219.65 361.88L223.33 363.09L247.59 370.98L262.74 346.08L242.38 327.89L239.57 325.4L240.11 321.72L240.21 321.19L240.29 320.64L240.37 320.11L240.45 319.57L240.52 319.02L240.58 318.49L240.64 317.94L240.71 317.41L240.8 316.32L240.84 315.77L240.89 315.24L240.95 314.15L240.97 313.6L241 313.07L241.01 312.53L241.01 311.98L241.03 311.43L241.03 310.36L241.01 309.81L241.01 309.26L241 308.72L240.97 308.17L240.95 307.64L240.89 306.55L240.84 306L240.8 305.47L240.71 304.38L240.64 303.85L240.52 302.75L240.45 302.22L240.37 301.68L240.29 301.15L240.21 300.6L240.11 300.07L239.57 296.39L242.38 293.9L262.2 276.46L247.04 251.56L222.79 259.46L219.11 260.64L216.18 258.17L214.74 256.92L214.24 256.51L213.76 256.11L213.26 255.73L212.74 255.32L212.24 254.94L211.75 254.57L211.23 254.18L210.2 253.44L209.67 253.09L209.16 252.74L208.1 252.03L207.57 251.69L207.02 251.35L206.49 251.02L205.94 250.68L204.85 250.04L204.31 249.73L203.74 249.43L203.2 249.12L202.63 248.82L201.51 248.24L200.93 247.95L200.37 247.67L199.79 247.4L199.23 247.13L198.07 246.61L197.47 246.36L196.9 246.12L196.3 245.86L195.72 245.63L195.13 245.39L194.53 245.17L191.29 243.43L190.42 239.86L185.11 216.69L155.45 216.69L150.14 239.86Z" id="e70DWINlJ9"></path><path d="M174.65 270.95L176.73 271.22L178.78 271.59L180.79 272.07L182.75 272.65L184.68 273.33L186.58 274.1L188.41 274.95L190.18 275.9L191.91 276.93L193.58 278.05L195.19 279.24L196.74 280.51L198.23 281.86L199.64 283.27L200.98 284.75L202.25 286.3L203.45 287.9L204.56 289.57L205.59 291.31L206.54 293.09L207.39 294.93L208.16 296.81L208.84 298.74L209.42 300.7L209.9 302.72L210.27 304.76L210.54 306.85L210.72 308.96L210.77 311.11L210.72 313.25L210.54 315.37L210.27 317.46L209.9 319.5L209.42 321.51L208.84 323.49L208.16 325.42L207.39 327.3L206.54 329.13L205.59 330.91L204.56 332.63L203.45 334.3L202.25 335.93L200.98 337.47L199.64 338.95L198.23 340.36L196.74 341.71L195.19 342.98L193.58 344.17L191.91 345.28L190.18 346.31L188.41 347.26L186.58 348.13L184.68 348.9L182.75 349.57L180.79 350.15L178.78 350.62L176.73 351L174.65 351.28L172.53 351.44L170.38 351.5L168.24 351.44L166.12 351.28L164.04 351L161.99 350.62L159.98 350.15L158 349.57L156.07 348.9L154.19 348.13L152.36 347.26L150.58 346.31L148.86 345.28L147.18 344.17L145.58 342.98L144.02 341.71L142.54 340.36L141.13 338.95L139.79 337.47L138.52 335.93L137.32 334.3L136.21 332.63L135.18 330.91L134.23 329.13L133.38 327.3L132.61 325.42L131.93 323.49L131.35 321.51L130.87 319.5L130.49 317.46L130.21 315.37L130.05 313.25L130 311.11L130.05 308.96L130.21 306.85L130.49 304.76L130.87 302.72L131.35 300.7L131.93 298.74L132.61 296.81L133.38 294.93L134.23 293.09L135.18 291.31L136.21 289.57L137.32 287.9L138.52 286.3L139.79 284.75L141.13 283.27L142.54 281.86L144.02 280.51L145.58 279.24L147.18 278.05L148.86 276.93L150.58 275.9L152.36 274.95L154.19 274.1L156.07 273.33L158 272.65L159.98 272.07L161.99 271.59L164.04 271.22L166.12 270.95L168.24 270.77L170.38 270.72L172.53 270.77L174.65 270.95ZM165.94 298.72L164.01 299.56L162.26 300.66L160.72 302.01L159.38 303.59L158.31 305.36L157.5 307.29L157 309.36L156.86 311.55L157.05 313.71L157.57 315.77L158.4 317.7L159.51 319.45L160.86 321L162.44 322.33L164.21 323.41L166.13 324.21L168.21 324.71L170.38 324.85L170.38 324.53L172.55 324.34L174.6 323.82L176.52 323L178.25 321.91L179.81 320.56L181.13 319L182.22 317.25L183.03 315.34L183.52 313.28L183.7 311.11L183.48 308.96L182.93 306.93L182.09 305.04L180.97 303.32L179.62 301.79L178.04 300.49L176.29 299.43L174.38 298.64L172.34 298.16L170.17 298.01L168 298.21L165.94 298.72Z" id="c3pvc2jAJW"></path><path d="M174.65 270.95L176.73 271.22L178.78 271.59L180.79 272.07L182.75 272.65L184.68 273.33L186.58 274.1L188.41 274.95L190.18 275.9L191.91 276.93L193.58 278.05L195.19 279.24L196.74 280.51L198.23 281.86L199.64 283.27L200.98 284.75L202.25 286.3L203.45 287.9L204.56 289.57L205.59 291.31L206.54 293.09L207.39 294.93L208.16 296.81L208.84 298.74L209.42 300.7L209.9 302.72L210.27 304.76L210.54 306.85L210.72 308.96L210.77 311.11L210.72 313.25L210.54 315.37L210.27 317.46L209.9 319.5L209.42 321.51L208.84 323.49L208.16 325.42L207.39 327.3L206.54 329.13L205.59 330.91L204.56 332.63L203.45 334.3L202.25 335.93L200.98 337.47L199.64 338.95L198.23 340.36L196.74 341.71L195.19 342.98L193.58 344.17L191.91 345.28L190.18 346.31L188.41 347.26L186.58 348.13L184.68 348.9L182.75 349.57L180.79 350.15L178.78 350.62L176.73 351L174.65 351.28L172.53 351.44L170.38 351.5L168.24 351.44L166.12 351.28L164.04 351L161.99 350.62L159.98 350.15L158 349.57L156.07 348.9L154.19 348.13L152.36 347.26L150.58 346.31L148.86 345.28L147.18 344.17L145.58 342.98L144.02 341.71L142.54 340.36L141.13 338.95L139.79 337.47L138.52 335.93L137.32 334.3L136.21 332.63L135.18 330.91L134.23 329.13L133.38 327.3L132.61 325.42L131.93 323.49L131.35 321.51L130.87 319.5L130.49 317.46L130.21 315.37L130.05 313.25L130 311.11L130.05 308.96L130.21 306.85L130.49 304.76L130.87 302.72L131.35 300.7L131.93 298.74L132.61 296.81L133.38 294.93L134.23 293.09L135.18 291.31L136.21 289.57L137.32 287.9L138.52 286.3L139.79 284.75L141.13 283.27L142.54 281.86L144.02 280.51L145.58 279.24L147.18 278.05L148.86 276.93L150.58 275.9L152.36 274.95L154.19 274.1L156.07 273.33L158 272.65L159.98 272.07L161.99 271.59L164.04 271.22L166.12 270.95L168.24 270.77L170.38 270.72L172.53 270.77L174.65 270.95ZM165.94 298.72L164.01 299.56L162.26 300.66L160.72 302.01L159.38 303.59L158.31 305.36L157.5 307.29L157 309.36L156.86 311.55L157.05 313.71L157.57 315.77L158.4 317.7L159.51 319.45L160.86 321L162.44 322.33L164.21 323.41L166.13 324.21L168.21 324.71L170.38 324.85L170.38 324.53L172.55 324.34L174.6 323.82L176.52 323L178.25 321.91L179.81 320.56L181.13 319L182.22 317.25L183.03 315.34L183.52 313.28L183.7 311.11L183.48 308.96L182.93 306.93L182.09 305.04L180.97 303.32L179.62 301.79L178.04 300.49L176.29 299.43L174.38 298.64L172.34 298.16L170.17 298.01L168 298.21L165.94 298.72Z" id="e2YfcQ9fiE"></path><path d="M388.67 122.41L390.65 123.18L391.93 123.73L392.57 124.02L393.22 124.29L393.86 124.58L394.49 124.88L395.13 125.19L395.76 125.49L397.01 126.14L397.62 126.46L398.25 126.78L398.86 127.12L399.47 127.47L400.08 127.81L400.67 128.16L401.29 128.53L401.88 128.88L402.47 129.25L403.07 129.64L403.66 130.01L404.24 130.4L404.82 130.8L405.4 131.18L405.98 131.58L406.54 132L407.12 132.4L407.68 132.82L408.24 133.26L408.79 133.67L409.35 134.11L409.9 134.54L410.45 134.99L410.98 135.44L411.52 135.89L412.05 136.36L441.4 126.72L462.3 160.93L437.72 182.58L437.82 183.19L437.87 183.48L437.96 184.09L437.99 184.4L438.04 184.69L438.09 184.99L438.12 185.3L438.17 185.6L438.2 185.91L438.24 186.2L438.28 186.5L438.41 187.73L438.44 188.01L438.48 188.32L438.49 188.63L438.52 188.93L438.54 189.24L438.57 189.54L438.59 189.85L438.62 190.15L438.64 190.46L438.65 190.75L438.77 192.88L438.77 193.19L438.78 193.49L438.78 193.8L438.8 194.11L438.8 195.01L438.78 195.3L438.78 195.58L438.77 195.87L438.77 196.16L438.75 196.45L438.73 196.76L438.61 199.07L438.57 199.36L438.56 199.65L438.52 199.94L438.51 200.23L438.41 201.1L438.4 201.39L438.36 201.69L438.3 202.27L438.25 202.54L438.16 203.41L438.11 203.7L438.07 203.99L438.03 204.28L437.99 204.57L437.9 205.15L437.87 205.44L437.72 206.3L462.3 227.95L441.4 262.28L412.05 252.64L411.52 253.09L410.98 253.56L410.45 254.01L409.35 254.87L408.79 255.31L408.24 255.74L407.12 256.58L406.54 257L405.98 257.4L404.82 258.2L403.66 258.97L403.07 259.36L401.29 260.47L400.67 260.82L400.08 261.17L399.47 261.53L398.25 262.2L397.62 262.54L397.01 262.86L396.38 263.18L395.76 263.49L395.13 263.81L394.49 264.12L393.86 264.41L392.57 264.98L391.93 265.26L391.29 265.55L390.65 265.8L389.99 266.08L389.33 266.33L388.01 266.82L381.52 295.2L341.13 295.2L334.63 266.82L333.98 266.59L333.32 266.35L332.67 266.11L331.36 265.59L330.71 265.32L330.07 265.06L329.43 264.79L328.78 264.5L328.16 264.21L327.51 263.92L326.89 263.63L326.26 263.33L325.63 263.01L325.01 262.7L324.4 262.38L323.77 262.06L321.94 261.05L321.34 260.69L320.73 260.34L320.14 259.99L318.95 259.25L318.37 258.88L317.77 258.49L316.62 257.72L316.04 257.32L315.48 256.92L314.9 256.51L313.77 255.68L313.23 255.26L312.66 254.83L312.12 254.41L311.57 253.96L311.02 253.52L310.49 253.07L281.15 262.7L260.25 228.6L284.83 206.95L284.73 206.35L284.54 205.13L284.46 204.54L284.38 203.93L284.3 203.33L284.17 202.11L284.1 201.51L283.91 199.07L283.88 198.48L283.86 197.87L283.83 197.26L283.8 196.03L283.8 195.42L283.78 194.81L283.8 194.22L283.8 193.61L283.83 192.39L283.86 191.78L283.88 191.16L283.91 190.57L284.1 188.13L284.17 187.53L284.3 186.31L284.38 185.72L284.54 184.49L284.63 183.9L284.73 183.29L284.83 182.69L260.25 161.05L281.15 126.72L310.61 136.13L311.14 135.68L311.67 135.22L312.21 134.77L313.85 133.47L314.42 133.03L316.1 131.78L317.84 130.57L319 129.8L319.59 129.42L321.37 128.31L321.97 127.95L323.19 127.25L325.02 126.23L326.28 125.59L326.9 125.28L327.53 124.96L328.16 124.66L329.44 124.08L330.07 123.79L330.71 123.52L331.37 123.24L332.01 122.97L332.67 122.7L333.32 122.44L334.63 121.96L341.13 93.59L381.52 93.59L388.01 122.17L388.67 122.41ZM341.03 123.47L340.16 127.04L336.69 128.34L336.1 128.56L335.5 128.8L334.92 129.03L334.33 129.27L333.75 129.53L333.16 129.78L332 130.3L331.44 130.57L330.86 130.85L330.29 131.12L329.72 131.41L328.59 131.99L328.03 132.29L327.48 132.6L326.92 132.9L326.37 133.21L325.28 133.85L324.73 134.19L324.2 134.53L323.66 134.86L323.13 135.2L322.07 135.91L321.55 136.26L321.02 136.62L319.99 137.35L319.48 137.74L318.98 138.11L318.47 138.5L317.97 138.9L317.47 139.28L316.99 139.69L316.49 140.09L316.01 140.51L315.52 140.91L315.04 141.32L312.12 143.82L308.44 142.63L284.18 134.74L269.03 159.63L289.17 177.71L291.98 180.2L291.98 184.11L291.88 184.64L291.8 185.17L291.72 185.72L291.66 186.26L291.58 186.79L291.51 187.34L291.45 187.87L291.4 188.42L291.34 188.96L291.29 189.49L291.26 190.04L291.21 190.59L291.18 191.13L291.14 191.66L291.08 193.85L291.08 194.38L291.06 194.93L291.08 195.47L291.08 196.02L291.09 196.56L291.11 197.1L291.14 198.19L291.18 198.73L291.21 199.26L291.26 199.81L291.29 200.36L291.34 200.9L291.4 201.43L291.45 201.98L291.51 202.53L291.58 203.06L291.66 203.6L291.72 204.13L291.8 204.68L291.88 205.21L291.98 205.76L291.98 209.44L289.38 211.61L269.03 229.37L284.18 254.26L308.44 246.36L312.12 245.17L314.82 247.45L315.3 247.87L315.78 248.27L316.28 248.69L316.76 249.09L317.26 249.49L317.76 249.88L318.26 250.28L318.75 250.66L319.27 251.03L319.78 251.42L320.81 252.16L321.33 252.51L321.86 252.88L322.39 253.22L322.92 253.57L323.45 253.91L323.98 254.26L324.52 254.59L325.06 254.92L325.6 255.24L326.16 255.57L327.26 256.18L328.38 256.79L330.07 257.66L330.65 257.93L331.21 258.2L331.79 258.47L333.53 259.25L334.12 259.5L334.7 259.74L335.29 259.97L335.89 260.21L336.48 260.44L339.94 261.74L340.81 265.31L346.11 288.48L376.21 288.48L382.18 265.53L383.04 261.95L386.5 260.64L387.69 260.19L388.28 259.95L388.86 259.71L389.46 259.47L390.61 258.96L391.19 258.68L391.77 258.43L392.33 258.15L392.91 257.86L393.47 257.59L394.04 257.3L394.6 257L395.16 256.71L395.72 256.4L396.27 256.1L398.46 254.81L399 254.47L400.06 253.8L401.66 252.74L403.71 251.26L404.23 250.87L405.22 250.1L406.22 249.3L406.7 248.9L407.2 248.49L408.16 247.66L411.07 245.17L414.22 246.68L438.48 254.59L453.63 229.69L432.74 211.5L429.93 209L430.46 205.32L430.55 204.78L430.63 204.25L430.71 203.7L430.79 203.17L430.86 202.62L430.92 202.09L431.05 201L431.1 200.47L431.2 199.38L431.23 198.85L431.32 197.21L431.34 196.66L431.36 196.13L431.37 195.58L431.37 193.41L431.32 191.78L431.29 191.23L431.26 190.7L431.2 189.61L431.15 189.08L431.05 187.98L430.99 187.44L430.92 186.91L430.86 186.36L430.79 185.83L430.71 185.28L430.63 184.75L430.55 184.21L430.46 183.67L429.93 179.99L432.74 177.5L453.09 159.74L437.93 134.83L413.68 142.74L410 143.93L407.07 141.44L406.11 140.6L405.63 140.2L405.13 139.8L404.64 139.4L404.15 138.99L403.65 138.61L403.13 138.22L402.64 137.84L401.09 136.73L400.56 136.37L400.05 136L399.52 135.65L398.99 135.31L398.46 134.96L397.91 134.62L397.38 134.3L396.83 133.96L395.74 133.32L395.19 133.02L394.63 132.69L394.09 132.39L392.4 131.52L391.82 131.23L391.26 130.96L390.68 130.68L390.12 130.41L389.54 130.14L388.96 129.88L388.36 129.64L387.78 129.38L387.19 129.14L386.61 128.9L385.42 128.45L381.95 127.15L381.08 123.58L375.78 100.4L346.11 100.4L341.03 123.47Z" id="bsoDipcai"></path><path d="M388.67 122.41L390.65 123.18L391.93 123.73L392.57 124.02L393.22 124.29L393.86 124.58L394.49 124.88L395.13 125.19L395.76 125.49L397.01 126.14L397.62 126.46L398.25 126.78L398.86 127.12L399.47 127.47L400.08 127.81L400.67 128.16L401.29 128.53L401.88 128.88L402.47 129.25L403.07 129.64L403.66 130.01L404.24 130.4L404.82 130.8L405.4 131.18L405.98 131.58L406.54 132L407.12 132.4L407.68 132.82L408.24 133.26L408.79 133.67L409.35 134.11L409.9 134.54L410.45 134.99L410.98 135.44L411.52 135.89L412.05 136.36L441.4 126.72L462.3 160.93L437.72 182.58L437.82 183.19L437.87 183.48L437.96 184.09L437.99 184.4L438.04 184.69L438.09 184.99L438.12 185.3L438.17 185.6L438.2 185.91L438.24 186.2L438.28 186.5L438.41 187.73L438.44 188.01L438.48 188.32L438.49 188.63L438.52 188.93L438.54 189.24L438.57 189.54L438.59 189.85L438.62 190.15L438.64 190.46L438.65 190.75L438.77 192.88L438.77 193.19L438.78 193.49L438.78 193.8L438.8 194.11L438.8 195.01L438.78 195.3L438.78 195.58L438.77 195.87L438.77 196.16L438.75 196.45L438.73 196.76L438.61 199.07L438.57 199.36L438.56 199.65L438.52 199.94L438.51 200.23L438.41 201.1L438.4 201.39L438.36 201.69L438.3 202.27L438.25 202.54L438.16 203.41L438.11 203.7L438.07 203.99L438.03 204.28L437.99 204.57L437.9 205.15L437.87 205.44L437.72 206.3L462.3 227.95L441.4 262.28L412.05 252.64L411.52 253.09L410.98 253.56L410.45 254.01L409.35 254.87L408.79 255.31L408.24 255.74L407.12 256.58L406.54 257L405.98 257.4L404.82 258.2L403.66 258.97L403.07 259.36L401.29 260.47L400.67 260.82L400.08 261.17L399.47 261.53L398.25 262.2L397.62 262.54L397.01 262.86L396.38 263.18L395.76 263.49L395.13 263.81L394.49 264.12L393.86 264.41L392.57 264.98L391.93 265.26L391.29 265.55L390.65 265.8L389.99 266.08L389.33 266.33L388.01 266.82L381.52 295.2L341.13 295.2L334.63 266.82L333.98 266.59L333.32 266.35L332.67 266.11L331.36 265.59L330.71 265.32L330.07 265.06L329.43 264.79L328.78 264.5L328.16 264.21L327.51 263.92L326.89 263.63L326.26 263.33L325.63 263.01L325.01 262.7L324.4 262.38L323.77 262.06L321.94 261.05L321.34 260.69L320.73 260.34L320.14 259.99L318.95 259.25L318.37 258.88L317.77 258.49L316.62 257.72L316.04 257.32L315.48 256.92L314.9 256.51L313.77 255.68L313.23 255.26L312.66 254.83L312.12 254.41L311.57 253.96L311.02 253.52L310.49 253.07L281.15 262.7L260.25 228.6L284.83 206.95L284.73 206.35L284.54 205.13L284.46 204.54L284.38 203.93L284.3 203.33L284.17 202.11L284.1 201.51L283.91 199.07L283.88 198.48L283.86 197.87L283.83 197.26L283.8 196.03L283.8 195.42L283.78 194.81L283.8 194.22L283.8 193.61L283.83 192.39L283.86 191.78L283.88 191.16L283.91 190.57L284.1 188.13L284.17 187.53L284.3 186.31L284.38 185.72L284.54 184.49L284.63 183.9L284.73 183.29L284.83 182.69L260.25 161.05L281.15 126.72L310.61 136.13L311.14 135.68L311.67 135.22L312.21 134.77L313.85 133.47L314.42 133.03L316.1 131.78L317.84 130.57L319 129.8L319.59 129.42L321.37 128.31L321.97 127.95L323.19 127.25L325.02 126.23L326.28 125.59L326.9 125.28L327.53 124.96L328.16 124.66L329.44 124.08L330.07 123.79L330.71 123.52L331.37 123.24L332.01 122.97L332.67 122.7L333.32 122.44L334.63 121.96L341.13 93.59L381.52 93.59L388.01 122.17L388.67 122.41ZM341.03 123.47L340.16 127.04L336.69 128.34L336.1 128.56L335.5 128.8L334.92 129.03L334.33 129.27L333.75 129.53L333.16 129.78L332 130.3L331.44 130.57L330.86 130.85L330.29 131.12L329.72 131.41L328.59 131.99L328.03 132.29L327.48 132.6L326.92 132.9L326.37 133.21L325.28 133.85L324.73 134.19L324.2 134.53L323.66 134.86L323.13 135.2L322.07 135.91L321.55 136.26L321.02 136.62L319.99 137.35L319.48 137.74L318.98 138.11L318.47 138.5L317.97 138.9L317.47 139.28L316.99 139.69L316.49 140.09L316.01 140.51L315.52 140.91L315.04 141.32L312.12 143.82L308.44 142.63L284.18 134.74L269.03 159.63L289.17 177.71L291.98 180.2L291.98 184.11L291.88 184.64L291.8 185.17L291.72 185.72L291.66 186.26L291.58 186.79L291.51 187.34L291.45 187.87L291.4 188.42L291.34 188.96L291.29 189.49L291.26 190.04L291.21 190.59L291.18 191.13L291.14 191.66L291.08 193.85L291.08 194.38L291.06 194.93L291.08 195.47L291.08 196.02L291.09 196.56L291.11 197.1L291.14 198.19L291.18 198.73L291.21 199.26L291.26 199.81L291.29 200.36L291.34 200.9L291.4 201.43L291.45 201.98L291.51 202.53L291.58 203.06L291.66 203.6L291.72 204.13L291.8 204.68L291.88 205.21L291.98 205.76L291.98 209.44L289.38 211.61L269.03 229.37L284.18 254.26L308.44 246.36L312.12 245.17L314.82 247.45L315.3 247.87L315.78 248.27L316.28 248.69L316.76 249.09L317.26 249.49L317.76 249.88L318.26 250.28L318.75 250.66L319.27 251.03L319.78 251.42L320.81 252.16L321.33 252.51L321.86 252.88L322.39 253.22L322.92 253.57L323.45 253.91L323.98 254.26L324.52 254.59L325.06 254.92L325.6 255.24L326.16 255.57L327.26 256.18L328.38 256.79L330.07 257.66L330.65 257.93L331.21 258.2L331.79 258.47L333.53 259.25L334.12 259.5L334.7 259.74L335.29 259.97L335.89 260.21L336.48 260.44L339.94 261.74L340.81 265.31L346.11 288.48L376.21 288.48L382.18 265.53L383.04 261.95L386.5 260.64L387.69 260.19L388.28 259.95L388.86 259.71L389.46 259.47L390.61 258.96L391.19 258.68L391.77 258.43L392.33 258.15L392.91 257.86L393.47 257.59L394.04 257.3L394.6 257L395.16 256.71L395.72 256.4L396.27 256.1L398.46 254.81L399 254.47L400.06 253.8L401.66 252.74L403.71 251.26L404.23 250.87L405.22 250.1L406.22 249.3L406.7 248.9L407.2 248.49L408.16 247.66L411.07 245.17L414.22 246.68L438.48 254.59L453.63 229.69L432.74 211.5L429.93 209L430.46 205.32L430.55 204.78L430.63 204.25L430.71 203.7L430.79 203.17L430.86 202.62L430.92 202.09L431.05 201L431.1 200.47L431.2 199.38L431.23 198.85L431.32 197.21L431.34 196.66L431.36 196.13L431.37 195.58L431.37 193.41L431.32 191.78L431.29 191.23L431.26 190.7L431.2 189.61L431.15 189.08L431.05 187.98L430.99 187.44L430.92 186.91L430.86 186.36L430.79 185.83L430.71 185.28L430.63 184.75L430.55 184.21L430.46 183.67L429.93 179.99L432.74 177.5L453.09 159.74L437.93 134.83L413.68 142.74L410 143.93L407.07 141.44L406.11 140.6L405.63 140.2L405.13 139.8L404.64 139.4L404.15 138.99L403.65 138.61L403.13 138.22L402.64 137.84L401.09 136.73L400.56 136.37L400.05 136L399.52 135.65L398.99 135.31L398.46 134.96L397.91 134.62L397.38 134.3L396.83 133.96L395.74 133.32L395.19 133.02L394.63 132.69L394.09 132.39L392.4 131.52L391.82 131.23L391.26 130.96L390.68 130.68L390.12 130.41L389.54 130.14L388.96 129.88L388.36 129.64L387.78 129.38L387.19 129.14L386.61 128.9L385.42 128.45L381.95 127.15L381.08 123.58L375.78 100.4L346.11 100.4L341.03 123.47Z" id="bq3bSo0Po"></path><path d="M365.64 154.55L367.73 154.83L369.77 155.2L371.79 155.68L373.75 156.26L375.68 156.93L377.56 157.7L379.4 158.55L381.18 159.5L382.92 160.53L384.59 161.66L386.19 162.85L387.74 164.12L389.23 165.45L390.65 166.86L391.98 168.36L393.25 169.9L394.44 171.51L395.56 173.18L396.59 174.92L397.54 176.7L398.39 178.53L399.16 180.41L399.84 182.34L400.42 184.3L400.9 186.31L401.27 188.37L401.54 190.46L401.72 192.56L401.77 194.72L401.72 196.85L401.54 198.98L401.27 201.05L400.9 203.11L400.42 205.12L399.84 207.09L399.16 209.02L398.39 210.9L397.54 212.73L396.59 214.52L395.56 216.24L394.44 217.91L393.25 219.52L391.98 221.07L390.65 222.55L389.23 223.97L387.74 225.32L386.19 226.59L384.59 227.78L382.92 228.89L381.18 229.91L379.4 230.86L377.56 231.73L375.68 232.49L373.75 233.16L371.79 233.74L369.77 234.22L367.73 234.61L365.64 234.88L363.53 235.04L361.38 235.11L359.24 235.04L357.12 234.88L355.03 234.61L352.99 234.22L350.98 233.74L349 233.16L347.07 232.49L345.19 231.73L343.36 230.86L341.58 229.91L339.86 228.89L338.19 227.78L336.56 226.59L335.02 225.32L333.54 223.97L332.13 222.55L330.78 221.07L329.51 219.52L328.32 217.91L327.21 216.24L326.18 214.52L325.23 212.73L324.36 210.9L323.61 209.02L322.93 207.09L322.36 205.12L321.87 203.11L321.49 201.05L321.21 198.98L321.05 196.85L320.99 194.72L321.05 192.56L321.21 190.46L321.49 188.37L321.87 186.31L322.36 184.3L322.93 182.34L323.61 180.41L324.36 178.53L325.23 176.7L326.18 174.92L327.21 173.18L328.32 171.51L329.51 169.9L330.78 168.36L332.13 166.86L333.54 165.45L335.02 164.12L336.56 162.85L338.19 161.66L339.86 160.53L341.58 159.5L343.36 158.55L345.19 157.7L347.07 156.93L349 156.26L350.98 155.68L352.99 155.2L355.03 154.83L357.12 154.55L359.24 154.38L361.38 154.33L363.53 154.38L365.64 154.55ZM357.14 182.29L355.21 183.11L353.45 184.21L351.9 185.54L350.55 187.11L349.45 188.87L348.63 190.79L348.13 192.85L347.96 195.04L348.13 197.21L348.63 199.28L349.45 201.21L350.55 202.96L351.9 204.54L353.45 205.87L355.21 206.96L357.14 207.78L359.21 208.28L361.38 208.46L361.38 208.14L363.53 207.98L365.56 207.48L367.47 206.69L369.21 205.63L370.76 204.33L372.1 202.8L373.21 201.08L374.04 199.2L374.59 197.18L374.81 195.04L374.64 192.85L374.12 190.79L373.3 188.87L372.21 187.11L370.88 185.54L369.32 184.21L367.55 183.11L365.62 182.29L363.56 181.79L361.38 181.62L359.21 181.79L357.14 182.29Z" id="c1JQPK56t8"></path><path d="M365.64 154.55L367.73 154.83L369.77 155.2L371.79 155.68L373.75 156.26L375.68 156.93L377.56 157.7L379.4 158.55L381.18 159.5L382.92 160.53L384.59 161.66L386.19 162.85L387.74 164.12L389.23 165.45L390.65 166.86L391.98 168.36L393.25 169.9L394.44 171.51L395.56 173.18L396.59 174.92L397.54 176.7L398.39 178.53L399.16 180.41L399.84 182.34L400.42 184.3L400.9 186.31L401.27 188.37L401.54 190.46L401.72 192.56L401.77 194.72L401.72 196.85L401.54 198.98L401.27 201.05L400.9 203.11L400.42 205.12L399.84 207.09L399.16 209.02L398.39 210.9L397.54 212.73L396.59 214.52L395.56 216.24L394.44 217.91L393.25 219.52L391.98 221.07L390.65 222.55L389.23 223.97L387.74 225.32L386.19 226.59L384.59 227.78L382.92 228.89L381.18 229.91L379.4 230.86L377.56 231.73L375.68 232.49L373.75 233.16L371.79 233.74L369.77 234.22L367.73 234.61L365.64 234.88L363.53 235.04L361.38 235.11L359.24 235.04L357.12 234.88L355.03 234.61L352.99 234.22L350.98 233.74L349 233.16L347.07 232.49L345.19 231.73L343.36 230.86L341.58 229.91L339.86 228.89L338.19 227.78L336.56 226.59L335.02 225.32L333.54 223.97L332.13 222.55L330.78 221.07L329.51 219.52L328.32 217.91L327.21 216.24L326.18 214.52L325.23 212.73L324.36 210.9L323.61 209.02L322.93 207.09L322.36 205.12L321.87 203.11L321.49 201.05L321.21 198.98L321.05 196.85L320.99 194.72L321.05 192.56L321.21 190.46L321.49 188.37L321.87 186.31L322.36 184.3L322.93 182.34L323.61 180.41L324.36 178.53L325.23 176.7L326.18 174.92L327.21 173.18L328.32 171.51L329.51 169.9L330.78 168.36L332.13 166.86L333.54 165.45L335.02 164.12L336.56 162.85L338.19 161.66L339.86 160.53L341.58 159.5L343.36 158.55L345.19 157.7L347.07 156.93L349 156.26L350.98 155.68L352.99 155.2L355.03 154.83L357.12 154.55L359.24 154.38L361.38 154.33L363.53 154.38L365.64 154.55ZM357.14 182.29L355.21 183.11L353.45 184.21L351.9 185.54L350.55 187.11L349.45 188.87L348.63 190.79L348.13 192.85L347.96 195.04L348.13 197.21L348.63 199.28L349.45 201.21L350.55 202.96L351.9 204.54L353.45 205.87L355.21 206.96L357.14 207.78L359.21 208.28L361.38 208.46L361.38 208.14L363.53 207.98L365.56 207.48L367.47 206.69L369.21 205.63L370.76 204.33L372.1 202.8L373.21 201.08L374.04 199.2L374.59 197.18L374.81 195.04L374.64 192.85L374.12 190.79L373.3 188.87L372.21 187.11L370.88 185.54L369.32 184.21L367.55 183.11L365.62 182.29L363.56 181.79L361.38 181.62L359.21 181.79L357.14 182.29Z" id="d1icOOfdJa"></path><path d="M450.39 354.96L452.22 356.93L452.83 357.61L453.41 358.28L454 358.97L454.58 359.65L455.16 360.34L455.72 361.03L456.85 362.45L457.39 363.15L457.94 363.88L459 365.32L459.52 366.05L460.54 367.52L461.04 368.26L461.54 369.02L462.04 369.76L462.5 370.51L462.99 371.29L463.45 372.04L463.92 372.81L464.37 373.58L464.82 374.37L465.25 375.16L465.69 375.93L466.12 376.73L466.54 377.52L466.94 378.32L467.36 379.13L467.74 379.93L468.15 380.74L468.52 381.56L468.9 382.38L469.27 383.19L469.62 384.01L469.98 384.85L509.18 390.36L513.84 441.68L473.34 452.51L473.22 452.88L473.11 453.27L472.89 454.01L472.76 454.38L472.65 454.75L472.39 455.49L472.28 455.86L471.89 456.97L471.76 457.32L471.63 457.69L471.49 458.06L471.23 458.8L471.09 459.15L470.94 459.52L470.81 459.88L470.52 460.61L470.24 461.32L470.09 461.69L469.95 462.04L469.79 462.41L469.64 462.77L469.48 463.12L469.34 463.49L468.05 466.32L467.87 466.67L467.71 467.03L467.54 467.38L467.37 467.72L467.02 468.43L466.84 468.76L466.67 469.12L466.49 469.45L466.31 469.81L466.14 470.15L465.96 470.5L465.78 470.84L465.59 471.17L465.41 471.53L465.03 472.2L464.85 472.54L464.08 473.89L463.87 474.23L463.48 474.9L463.28 475.22L463.08 475.56L462.87 475.9L462.68 476.22L462.47 476.56L462.26 476.88L462.05 477.22L461.64 477.86L461.43 478.2L461.22 478.52L460.99 478.84L460.58 479.48L460.13 480.13L459.92 480.45L476.05 519.1L432.74 546.83L403.5 519.1L402.64 519.33L401.75 519.55L400.88 519.76L400 519.97L399.13 520.16L398.25 520.35L396.48 520.71L394.71 521.03L393.83 521.17L392.94 521.3L392.06 521.45L391.18 521.56L390.28 521.67L389.39 521.78L388.49 521.88L387.61 521.98L386.71 522.06L385.82 522.14L384.92 522.2L384.02 522.25L383.14 522.32L380.44 522.41L378.64 522.44L377.76 522.44L375.06 522.4L373.26 522.33L372.36 522.28L371.47 522.22L369.67 522.09L368.77 522.01L367.87 521.91L344.39 550.94L297.93 528.09L306.49 491.71L305.87 491.06L304.64 489.74L303.45 488.39L302.88 487.71L302.28 487.02L301.72 486.33L301.14 485.64L300.58 484.93L299.48 483.52L298.94 482.79L298.41 482.09L297.88 481.36L297.35 480.62L296.32 479.15L295.32 477.67L294.36 476.16L293.88 475.38L293.41 474.63L292.96 473.86L292.49 473.09L292.06 472.3L291.61 471.53L291.18 470.74L290.76 469.95L289.92 468.35L289.12 466.74L288.73 465.93L288.35 465.11L287.24 462.66L286.88 461.84L247.7 456.31L243.04 404.99L283.52 394.16L283.75 393.4L283.99 392.66L284.22 391.91L284.47 391.17L284.71 390.43L285.23 388.95L285.77 387.47L286.93 384.58L287.24 383.85L287.56 383.13L288.52 381.01L289.2 379.59L289.55 378.9L289.91 378.2L290.28 377.51L290.63 376.81L291 376.12L291.77 374.77L292.16 374.08L292.56 373.41L292.96 372.75L293.36 372.07L294.61 370.1L295.05 369.44L295.48 368.79L295.92 368.14L296.82 366.85L297.28 366.22L281.15 327.57L324.46 299.84L353.26 327.57L354.13 327.34L355.01 327.12L355.88 326.91L356.77 326.7L358.53 326.32L360.3 325.96L362.07 325.64L362.95 325.5L363.85 325.35L364.74 325.22L365.64 325.09L366.52 324.98L367.42 324.88L368.31 324.77L371.01 324.53L371.89 324.47L372.79 324.4L374.59 324.31L375.49 324.27L378.19 324.23L379.99 324.23L380.89 324.24L383.59 324.34L384.49 324.39L387.19 324.58L388.09 324.66L388.99 324.76L412.49 295.73L458.94 318.58L450.39 354.96ZM392.46 332.76L387.8 332.76L386.16 332.6L385.34 332.54L384.54 332.47L382.9 332.37L381.26 332.31L378.8 332.26L377.98 332.26L375.52 332.31L374.72 332.34L373.9 332.37L372.26 332.47L371.44 332.54L370.64 332.6L369.82 332.66L369 332.74L368.19 332.84L367.37 332.94L366.57 333.03L365.75 333.15L364.95 333.26L364.14 333.39L363.32 333.53L362.52 333.66L361.72 333.8L360.11 334.13L358.5 334.48L357.71 334.66L356.11 335.04L355.32 335.25L350.56 336.55L347.09 333.08L323.59 310.24L292.09 330.38L305.4 362.86L307.25 367.3L304.53 371.2L303.7 372.36L302.09 374.74L301.7 375.34L301.32 375.95L299.84 378.39L299.13 379.64L298.79 380.25L298.46 380.9L298.12 381.52L297.8 382.15L297.46 382.79L297.15 383.44L296.83 384.08L296.22 385.36L295.93 386.02L295.64 386.67L295.35 387.33L294.53 389.3L294.28 389.98L294.02 390.64L293.76 391.31L293.28 392.66L292.83 394.01L292.61 394.7L292.4 395.38L291.98 396.76L290.56 401.31L286.02 402.5L252.57 411.48L255.93 448.72L288.41 453.27L293.28 453.93L295.23 458.48L295.55 459.25L295.87 460L296.21 460.78L296.88 462.29L297.59 463.8L297.96 464.54L298.33 465.29L298.71 466.03L299.1 466.75L299.48 467.49L299.89 468.22L300.3 468.94L300.71 469.66L301.12 470.39L302.43 472.51L302.88 473.21L303.78 474.6L304.24 475.29L304.72 475.98L305.19 476.65L305.67 477.33L306.17 478L307.17 479.32L308.2 480.64L308.71 481.28L309.77 482.57L310.3 483.2L310.85 483.82L311.41 484.45L311.96 485.08L312.52 485.69L313.1 486.3L316.34 489.66L315.25 494.21L308.32 523.44L342.54 540.77L361.7 517.04L364.62 513.36L369.29 513.36L370.93 513.52L371.74 513.59L372.55 513.65L374.19 513.75L376.65 513.85L377.47 513.86L379.93 513.86L381.57 513.83L382.37 513.8L383.19 513.76L384.83 513.67L385.65 513.6L386.45 513.54L388.09 513.38L388.89 513.3L389.71 513.2L390.52 513.09L391.34 512.98L392.14 512.86L392.94 512.74L393.76 512.61L396.17 512.17L396.98 512L397.78 511.84L398.59 511.66L399.37 511.47L400.18 511.29L400.98 511.08L401.77 510.87L406.53 509.57L410 513.04L433.7 535.99L465.22 515.85L451.69 483.69L449.84 479.26L452.56 475.37L452.97 474.77L453.39 474.2L453.79 473.62L455 471.83L455.38 471.22L455.77 470.63L456.88 468.8L457.25 468.17L457.6 467.56L457.96 466.93L458.97 465.05L459.31 464.41L459.63 463.78L459.95 463.14L460.56 461.85L460.87 461.19L461.15 460.55L461.73 459.23L462.55 457.26L462.81 456.6L463.32 455.25L463.81 453.9L464.48 451.87L464.69 451.18L464.9 450.5L465.11 449.81L466.52 445.27L471.17 444.08L504.63 435.09L501.27 397.84L468.79 393.29L463.92 392.65L461.97 388.1L461.33 386.52L460.99 385.75L460.66 384.96L459.95 383.42L459.6 382.66L459.23 381.89L458.84 381.14L458.47 380.38L458.07 379.64L457.68 378.89L457.28 378.15L456.45 376.67L456.03 375.95L455.59 375.21L455.16 374.48L454.71 373.78L454.26 373.05L453.81 372.35L453.34 371.64L452.88 370.95L452.4 370.24L451.91 369.55L451.41 368.86L450.92 368.18L450.42 367.49L449.9 366.82L449.39 366.16L448.88 365.48L448.34 364.82L447.81 364.18L447.27 363.52L446.72 362.88L446.16 362.24L445.61 361.59L445.03 360.97L444.47 360.34L443.89 359.73L440.65 356.37L441.72 351.82L448.65 322.15L414.55 305.37L395.39 329.08L392.46 332.76Z" id="dvdYvR7dw"></path><path d="M450.39 354.96L452.22 356.93L452.83 357.61L453.41 358.28L454 358.97L454.58 359.65L455.16 360.34L455.72 361.03L456.85 362.45L457.39 363.15L457.94 363.88L459 365.32L459.52 366.05L460.54 367.52L461.04 368.26L461.54 369.02L462.04 369.76L462.5 370.51L462.99 371.29L463.45 372.04L463.92 372.81L464.37 373.58L464.82 374.37L465.25 375.16L465.69 375.93L466.12 376.73L466.54 377.52L466.94 378.32L467.36 379.13L467.74 379.93L468.15 380.74L468.52 381.56L468.9 382.38L469.27 383.19L469.62 384.01L469.98 384.85L509.18 390.36L513.84 441.68L473.34 452.51L473.22 452.88L473.11 453.27L472.89 454.01L472.76 454.38L472.65 454.75L472.39 455.49L472.28 455.86L471.89 456.97L471.76 457.32L471.63 457.69L471.49 458.06L471.23 458.8L471.09 459.15L470.94 459.52L470.81 459.88L470.52 460.61L470.24 461.32L470.09 461.69L469.95 462.04L469.79 462.41L469.64 462.77L469.48 463.12L469.34 463.49L468.05 466.32L467.87 466.67L467.71 467.03L467.54 467.38L467.37 467.72L467.02 468.43L466.84 468.76L466.67 469.12L466.49 469.45L466.31 469.81L466.14 470.15L465.96 470.5L465.78 470.84L465.59 471.17L465.41 471.53L465.03 472.2L464.85 472.54L464.08 473.89L463.87 474.23L463.48 474.9L463.28 475.22L463.08 475.56L462.87 475.9L462.68 476.22L462.47 476.56L462.26 476.88L462.05 477.22L461.64 477.86L461.43 478.2L461.22 478.52L460.99 478.84L460.58 479.48L460.13 480.13L459.92 480.45L476.05 519.1L432.74 546.83L403.5 519.1L402.64 519.33L401.75 519.55L400.88 519.76L400 519.97L399.13 520.16L398.25 520.35L396.48 520.71L394.71 521.03L393.83 521.17L392.94 521.3L392.06 521.45L391.18 521.56L390.28 521.67L389.39 521.78L388.49 521.88L387.61 521.98L386.71 522.06L385.82 522.14L384.92 522.2L384.02 522.25L383.14 522.32L380.44 522.41L378.64 522.44L377.76 522.44L375.06 522.4L373.26 522.33L372.36 522.28L371.47 522.22L369.67 522.09L368.77 522.01L367.87 521.91L344.39 550.94L297.93 528.09L306.49 491.71L305.87 491.06L304.64 489.74L303.45 488.39L302.88 487.71L302.28 487.02L301.72 486.33L301.14 485.64L300.58 484.93L299.48 483.52L298.94 482.79L298.41 482.09L297.88 481.36L297.35 480.62L296.32 479.15L295.32 477.67L294.36 476.16L293.88 475.38L293.41 474.63L292.96 473.86L292.49 473.09L292.06 472.3L291.61 471.53L291.18 470.74L290.76 469.95L289.92 468.35L289.12 466.74L288.73 465.93L288.35 465.11L287.24 462.66L286.88 461.84L247.7 456.31L243.04 404.99L283.52 394.16L283.75 393.4L283.99 392.66L284.22 391.91L284.47 391.17L284.71 390.43L285.23 388.95L285.77 387.47L286.93 384.58L287.24 383.85L287.56 383.13L288.52 381.01L289.2 379.59L289.55 378.9L289.91 378.2L290.28 377.51L290.63 376.81L291 376.12L291.77 374.77L292.16 374.08L292.56 373.41L292.96 372.75L293.36 372.07L294.61 370.1L295.05 369.44L295.48 368.79L295.92 368.14L296.82 366.85L297.28 366.22L281.15 327.57L324.46 299.84L353.26 327.57L354.13 327.34L355.01 327.12L355.88 326.91L356.77 326.7L358.53 326.32L360.3 325.96L362.07 325.64L362.95 325.5L363.85 325.35L364.74 325.22L365.64 325.09L366.52 324.98L367.42 324.88L368.31 324.77L371.01 324.53L371.89 324.47L372.79 324.4L374.59 324.31L375.49 324.27L378.19 324.23L379.99 324.23L380.89 324.24L383.59 324.34L384.49 324.39L387.19 324.58L388.09 324.66L388.99 324.76L412.49 295.73L458.94 318.58L450.39 354.96ZM392.46 332.76L387.8 332.76L386.16 332.6L385.34 332.54L384.54 332.47L382.9 332.37L381.26 332.31L378.8 332.26L377.98 332.26L375.52 332.31L374.72 332.34L373.9 332.37L372.26 332.47L371.44 332.54L370.64 332.6L369.82 332.66L369 332.74L368.19 332.84L367.37 332.94L366.57 333.03L365.75 333.15L364.95 333.26L364.14 333.39L363.32 333.53L362.52 333.66L361.72 333.8L360.11 334.13L358.5 334.48L357.71 334.66L356.11 335.04L355.32 335.25L350.56 336.55L347.09 333.08L323.59 310.24L292.09 330.38L305.4 362.86L307.25 367.3L304.53 371.2L303.7 372.36L302.09 374.74L301.7 375.34L301.32 375.95L299.84 378.39L299.13 379.64L298.79 380.25L298.46 380.9L298.12 381.52L297.8 382.15L297.46 382.79L297.15 383.44L296.83 384.08L296.22 385.36L295.93 386.02L295.64 386.67L295.35 387.33L294.53 389.3L294.28 389.98L294.02 390.64L293.76 391.31L293.28 392.66L292.83 394.01L292.61 394.7L292.4 395.38L291.98 396.76L290.56 401.31L286.02 402.5L252.57 411.48L255.93 448.72L288.41 453.27L293.28 453.93L295.23 458.48L295.55 459.25L295.87 460L296.21 460.78L296.88 462.29L297.59 463.8L297.96 464.54L298.33 465.29L298.71 466.03L299.1 466.75L299.48 467.49L299.89 468.22L300.3 468.94L300.71 469.66L301.12 470.39L302.43 472.51L302.88 473.21L303.78 474.6L304.24 475.29L304.72 475.98L305.19 476.65L305.67 477.33L306.17 478L307.17 479.32L308.2 480.64L308.71 481.28L309.77 482.57L310.3 483.2L310.85 483.82L311.41 484.45L311.96 485.08L312.52 485.69L313.1 486.3L316.34 489.66L315.25 494.21L308.32 523.44L342.54 540.77L361.7 517.04L364.62 513.36L369.29 513.36L370.93 513.52L371.74 513.59L372.55 513.65L374.19 513.75L376.65 513.85L377.47 513.86L379.93 513.86L381.57 513.83L382.37 513.8L383.19 513.76L384.83 513.67L385.65 513.6L386.45 513.54L388.09 513.38L388.89 513.3L389.71 513.2L390.52 513.09L391.34 512.98L392.14 512.86L392.94 512.74L393.76 512.61L396.17 512.17L396.98 512L397.78 511.84L398.59 511.66L399.37 511.47L400.18 511.29L400.98 511.08L401.77 510.87L406.53 509.57L410 513.04L433.7 535.99L465.22 515.85L451.69 483.69L449.84 479.26L452.56 475.37L452.97 474.77L453.39 474.2L453.79 473.62L455 471.83L455.38 471.22L455.77 470.63L456.88 468.8L457.25 468.17L457.6 467.56L457.96 466.93L458.97 465.05L459.31 464.41L459.63 463.78L459.95 463.14L460.56 461.85L460.87 461.19L461.15 460.55L461.73 459.23L462.55 457.26L462.81 456.6L463.32 455.25L463.81 453.9L464.48 451.87L464.69 451.18L464.9 450.5L465.11 449.81L466.52 445.27L471.17 444.08L504.63 435.09L501.27 397.84L468.79 393.29L463.92 392.65L461.97 388.1L461.33 386.52L460.99 385.75L460.66 384.96L459.95 383.42L459.6 382.66L459.23 381.89L458.84 381.14L458.47 380.38L458.07 379.64L457.68 378.89L457.28 378.15L456.45 376.67L456.03 375.95L455.59 375.21L455.16 374.48L454.71 373.78L454.26 373.05L453.81 372.35L453.34 371.64L452.88 370.95L452.4 370.24L451.91 369.55L451.41 368.86L450.92 368.18L450.42 367.49L449.9 366.82L449.39 366.16L448.88 365.48L448.34 364.82L447.81 364.18L447.27 363.52L446.72 362.88L446.16 362.24L445.61 361.59L445.03 360.97L444.47 360.34L443.89 359.73L440.65 356.37L441.72 351.82L448.65 322.15L414.55 305.37L395.39 329.08L392.46 332.76Z" id="b2owCfeyXV"></path><path d="M383.57 371.78L385.58 372.01L387.61 372.33L389.62 372.72L391.61 373.2L393.6 373.74L395.58 374.39L397.56 375.13L399.5 375.93L401.45 376.83L401.51 376.86L403.41 377.84L405.24 378.89L407.02 380L408.74 381.17L410.4 382.41L412.01 383.69L413.55 385.04L415.03 386.44L416.44 387.89L417.79 389.38L419.08 390.94L420.31 392.53L421.47 394.16L422.57 395.84L423.58 397.55L424.54 399.3L425.43 401.08L426.25 402.88L427 404.73L427.68 406.6L428.29 408.49L428.82 410.4L429.28 412.33L429.67 414.29L429.97 416.26L430.22 418.23L430.38 420.22L430.46 422.23L430.46 424.24L430.38 426.25L430.23 428.26L429.99 430.29L429.69 432.3L429.28 434.3L428.8 436.3L428.25 438.29L427.6 440.27L426.87 442.24L426.05 444.19L425.15 446.13L424.17 448.03L423.13 449.86L422.02 451.65L420.85 453.37L419.62 455.02L418.34 456.63L416.99 458.16L415.59 459.63L414.14 461.05L412.65 462.41L411.09 463.7L409.5 464.92L407.88 466.08L406.2 467.17L404.5 468.2L402.75 469.15L400.96 470.05L399.16 470.87L397.32 471.61L395.45 472.28L393.55 472.89L391.64 473.42L389.71 473.89L387.77 474.28L385.81 474.6L383.82 474.82L381.84 474.98L379.83 475.08L377.82 475.08L375.81 475.02L373.8 474.85L371.79 474.63L369.78 474.32L367.78 473.92L365.77 473.44L363.77 472.89L361.8 472.25L359.84 471.53L357.89 470.71L355.95 469.81L354.05 468.83L352.22 467.78L350.43 466.69L348.71 465.52L347.04 464.28L345.43 462.99L343.89 461.64L342.41 460.24L341 458.8L339.65 457.3L338.35 455.76L337.13 454.17L335.97 452.53L334.88 450.86L333.85 449.15L332.88 447.4L332 445.62L331.16 443.82L330.42 441.97L329.73 440.11L329.14 438.21L328.59 436.3L328.13 434.37L327.74 432.42L327.43 430.45L327.19 428.47L327.03 426.48L326.94 424.48L326.94 422.48L327 420.45L327.16 418.44L327.39 416.43L327.71 414.42L328.09 412.41L328.58 410.4L329.12 408.41L329.76 406.44L330.5 404.46L331.31 402.51L332.21 400.57L333.19 398.67L334.23 396.84L335.34 395.06L336.5 393.34L337.74 391.66L339.02 390.06L340.37 388.51L341.77 387.04L343.22 385.62L344.71 384.27L346.25 382.97L347.85 381.75L349.48 380.59L351.16 379.5L352.86 378.47L354.61 377.51L356.4 376.62L358.2 375.8L360.04 375.05L361.91 374.37L363.81 373.76L365.72 373.21L367.65 372.76L369.59 372.36L371.57 372.06L373.54 371.82L375.54 371.65L377.55 371.57L379.56 371.56L381.57 371.64L383.57 371.78ZM374.03 406.72L372.1 407.38L370.27 408.25L368.53 409.34L366.94 410.65L365.49 412.16L364.22 413.84L363.16 415.72L362.33 417.72L361.76 419.76L361.46 421.82L361.39 423.87L361.59 425.91L362.02 427.91L362.66 429.82L363.55 431.67L364.64 433.39L365.94 434.98L367.44 436.43L369.14 437.7L371.02 438.77L371.05 438.79L373.06 439.61L375.1 440.17L377.16 440.48L379.22 440.52L381.26 440.33L383.24 439.9L385.17 439.24L387 438.35L388.72 437.25L390.31 435.94L391.75 434.43L393.01 432.75L394.09 430.86L394.9 428.87L395.47 426.83L395.77 424.77L395.82 422.72L395.63 420.69L395.19 418.7L394.54 416.79L393.65 414.95L392.56 413.23L391.26 411.64L389.76 410.2L388.07 408.93L386.19 407.87L384.2 407.03L382.16 406.47L380.1 406.16L378.05 406.1L376 406.29L374.03 406.72Z" id="a5917CzvE"></path><path d="M383.57 371.78L385.58 372.01L387.61 372.33L389.62 372.72L391.61 373.2L393.6 373.74L395.58 374.39L397.56 375.13L399.5 375.93L401.45 376.83L401.51 376.86L403.41 377.84L405.24 378.89L407.02 380L408.74 381.17L410.4 382.41L412.01 383.69L413.55 385.04L415.03 386.44L416.44 387.89L417.79 389.38L419.08 390.94L420.31 392.53L421.47 394.16L422.57 395.84L423.58 397.55L424.54 399.3L425.43 401.08L426.25 402.88L427 404.73L427.68 406.6L428.29 408.49L428.82 410.4L429.28 412.33L429.67 414.29L429.97 416.26L430.22 418.23L430.38 420.22L430.46 422.23L430.46 424.24L430.38 426.25L430.23 428.26L429.99 430.29L429.69 432.3L429.28 434.3L428.8 436.3L428.25 438.29L427.6 440.27L426.87 442.24L426.05 444.19L425.15 446.13L424.17 448.03L423.13 449.86L422.02 451.65L420.85 453.37L419.62 455.02L418.34 456.63L416.99 458.16L415.59 459.63L414.14 461.05L412.65 462.41L411.09 463.7L409.5 464.92L407.88 466.08L406.2 467.17L404.5 468.2L402.75 469.15L400.96 470.05L399.16 470.87L397.32 471.61L395.45 472.28L393.55 472.89L391.64 473.42L389.71 473.89L387.77 474.28L385.81 474.6L383.82 474.82L381.84 474.98L379.83 475.08L377.82 475.08L375.81 475.02L373.8 474.85L371.79 474.63L369.78 474.32L367.78 473.92L365.77 473.44L363.77 472.89L361.8 472.25L359.84 471.53L357.89 470.71L355.95 469.81L354.05 468.83L352.22 467.78L350.43 466.69L348.71 465.52L347.04 464.28L345.43 462.99L343.89 461.64L342.41 460.24L341 458.8L339.65 457.3L338.35 455.76L337.13 454.17L335.97 452.53L334.88 450.86L333.85 449.15L332.88 447.4L332 445.62L331.16 443.82L330.42 441.97L329.73 440.11L329.14 438.21L328.59 436.3L328.13 434.37L327.74 432.42L327.43 430.45L327.19 428.47L327.03 426.48L326.94 424.48L326.94 422.48L327 420.45L327.16 418.44L327.39 416.43L327.71 414.42L328.09 412.41L328.58 410.4L329.12 408.41L329.76 406.44L330.5 404.46L331.31 402.51L332.21 400.57L333.19 398.67L334.23 396.84L335.34 395.06L336.5 393.34L337.74 391.66L339.02 390.06L340.37 388.51L341.77 387.04L343.22 385.62L344.71 384.27L346.25 382.97L347.85 381.75L349.48 380.59L351.16 379.5L352.86 378.47L354.61 377.51L356.4 376.62L358.2 375.8L360.04 375.05L361.91 374.37L363.81 373.76L365.72 373.21L367.65 372.76L369.59 372.36L371.57 372.06L373.54 371.82L375.54 371.65L377.55 371.57L379.56 371.56L381.57 371.64L383.57 371.78ZM374.03 406.72L372.1 407.38L370.27 408.25L368.53 409.34L366.94 410.65L365.49 412.16L364.22 413.84L363.16 415.72L362.33 417.72L361.76 419.76L361.46 421.82L361.39 423.87L361.59 425.91L362.02 427.91L362.66 429.82L363.55 431.67L364.64 433.39L365.94 434.98L367.44 436.43L369.14 437.7L371.02 438.77L371.05 438.79L373.06 439.61L375.1 440.17L377.16 440.48L379.22 440.52L381.26 440.33L383.24 439.9L385.17 439.24L387 438.35L388.72 437.25L390.31 435.94L391.75 434.43L393.01 432.75L394.09 430.86L394.9 428.87L395.47 426.83L395.77 424.77L395.82 422.72L395.63 420.69L395.19 418.7L394.54 416.79L393.65 414.95L392.56 413.23L391.26 411.64L389.76 410.2L388.07 408.93L386.19 407.87L384.2 407.03L382.16 406.47L380.1 406.16L378.05 406.1L376 406.29L374.03 406.72Z" id="aNBwflWWU"></path></defs><g><g><g><use xlink:href="#aZ8KnS3Yg" opacity="1" fill="#eabe1d" fill-opacity="1"></use><g><use xlink:href="#aZ8KnS3Yg" opacity="1" fill-opacity="0" stroke="#000000" stroke-width="1" stroke-opacity="0"></use></g></g><g><use xlink:href="#a3Jyz2Dj4l" opacity="1" fill="#000000" fill-opacity="0"></use><g><use xlink:href="#a3Jyz2Dj4l" opacity="1" fill-opacity="0" stroke="#000000" stroke-width="1" stroke-opacity="0"></use></g></g><g><use xlink:href="#ggNFNhz6U" opacity="1" fill="#ffffff" fill-opacity="1"></use><g><use xlink:href="#ggNFNhz6U" opacity="1" fill-opacity="0" stroke="#000000" stroke-width="1" stroke-opacity="0"></use></g></g><g><use xlink:href="#e70DWINlJ9" opacity="1" fill="#000000" fill-opacity="0"></use><g><use xlink:href="#e70DWINlJ9" opacity="1" fill-opacity="0" stroke="#000000" stroke-width="1" stroke-opacity="0"></use></g></g><g><use xlink:href="#c3pvc2jAJW" opacity="1" fill="#ffffff" fill-opacity="1"></use><g><use xlink:href="#c3pvc2jAJW" opacity="1" fill-opacity="0" stroke="#000000" stroke-width="1" stroke-opacity="0"></use></g></g><g><use xlink:href="#e2YfcQ9fiE" opacity="1" fill="#000000" fill-opacity="0"></use><g><use xlink:href="#e2YfcQ9fiE" opacity="1" fill-opacity="0" stroke="#000000" stroke-width="1" stroke-opacity="0"></use></g></g><g><use xlink:href="#bsoDipcai" opacity="1" fill="#ffffff" fill-opacity="1"></use><g><use xlink:href="#bsoDipcai" opacity="1" fill-opacity="0" stroke="#000000" stroke-width="1" stroke-opacity="0"></use></g></g><g><use xlink:href="#bq3bSo0Po" opacity="1" fill="#000000" fill-opacity="0"></use><g><use xlink:href="#bq3bSo0Po" opacity="1" fill-opacity="0" stroke="#000000" stroke-width="1" stroke-opacity="0"></use></g></g><g><use xlink:href="#c1JQPK56t8" opacity="1" fill="#ffffff" fill-opacity="1"></use><g><use xlink:href="#c1JQPK56t8" opacity="1" fill-opacity="0" stroke="#000000" stroke-width="1" stroke-opacity="0"></use></g></g><g><use xlink:href="#d1icOOfdJa" opacity="1" fill="#000000" fill-opacity="0"></use><g><use xlink:href="#d1icOOfdJa" opacity="1" fill-opacity="0" stroke="#000000" stroke-width="1" stroke-opacity="0"></use></g></g><g><use xlink:href="#dvdYvR7dw" opacity="1" fill="#ffffff" fill-opacity="1"></use><g><use xlink:href="#dvdYvR7dw" opacity="1" fill-opacity="0" stroke="#000000" stroke-width="1" stroke-opacity="0"></use></g></g><g><use xlink:href="#b2owCfeyXV" opacity="1" fill="#000000" fill-opacity="0"></use><g><use xlink:href="#b2owCfeyXV" opacity="1" fill-opacity="0" stroke="#000000" stroke-width="1" stroke-opacity="0"></use></g></g><g><use xlink:href="#a5917CzvE" opacity="1" fill="#ffffff" fill-opacity="1"></use><g><use xlink:href="#a5917CzvE" opacity="1" fill-opacity="0" stroke="#000000" stroke-width="1" stroke-opacity="0"></use></g></g><g><use xlink:href="#aNBwflWWU" opacity="1" fill="#000000" fill-opacity="0"></use><g><use xlink:href="#aNBwflWWU" opacity="1" fill-opacity="0" stroke="#000000" stroke-width="1" stroke-opacity="0"></use></g></g></g></g></svg>