<?xml version="1.0" encoding="UTF-8" standalone="no"?>
<!DOCTYPE svg PUBLIC "-//W3C//DTD SVG 1.1//EN" "http://www.w3.org/Graphics/SVG/1.1/DTD/svg11.dtd">
<svg version="1.1" xmlns="http://www.w3.org/2000/svg" xmlns:xlink="http://www.w3.org/1999/xlink" preserveAspectRatio="xMidYMid meet" viewBox="0 0 640 640" width="640" height="640"><defs><path d="M318.92 630.42C145.57 630.42 5.05 490.41 5.05 317.71C5.05 145 145.57 5 318.92 5C492.25 5 632.77 145 632.77 317.71C632.77 490.41 492.25 630.42 318.92 630.42Z" id="adGZq7QnF"></path><path d="M318.92 630.42C145.57 630.42 5.05 490.41 5.05 317.71C5.05 145 145.57 5 318.92 5C492.25 5 632.77 145 632.77 317.71C632.77 490.41 492.25 630.42 318.92 630.42Z" id="anA0bUTia"></path><path d="M234.73 220.54C230.12 219.58 225.4 219.2 220.7 219.4C168.29 219.4 125.81 261.88 125.81 314.29C125.81 366.69 168.29 409.16 220.7 409.16C225.31 409.16 248.34 409.16 289.81 409.16C289.81 406.57 289.81 385.87 289.81 383.29C248.28 383.29 225.22 383.29 220.59 383.29C182.42 383.29 151.48 352.34 151.48 314.18C151.48 276.01 182.42 245.07 220.59 245.07C224.09 244.94 227.59 245.33 230.99 246.21C232.64 246.44 240.84 247.63 255.62 249.74C258.04 234.96 259.4 226.76 259.68 225.1C266.84 180.34 308.95 149.85 353.72 157.03C390.46 162.92 418.65 192.77 422.41 229.79C422.49 230.81 422.88 235.9 423.57 245.07C431.98 248.55 436.65 250.5 437.59 250.88C472.95 265.86 489.47 306.66 474.49 342.02C463.63 367.66 438.52 384.35 410.67 384.43C407.6 384.43 392.25 384.43 364.64 384.43C364.64 387.01 364.64 407.63 364.64 410.21C392.07 410.21 407.31 410.21 410.37 410.21C462.54 410.44 505.02 368.32 505.25 316.15C505.25 315.87 505.25 315.6 505.25 315.32C504.59 276.85 481.81 242.2 446.74 226.35C440.72 167.61 388.21 124.85 329.45 130.86C281.2 135.82 242.31 172.62 234.73 220.54Z" id="c2eZD7LArh"></path><path d="M234.73 220.54C230.12 219.58 225.4 219.2 220.7 219.4C168.29 219.4 125.81 261.88 125.81 314.29C125.81 366.69 168.29 409.16 220.7 409.16C225.31 409.16 248.34 409.16 289.81 409.16C289.81 406.57 289.81 385.87 289.81 383.29C248.28 383.29 225.22 383.29 220.59 383.29C182.42 383.29 151.48 352.34 151.48 314.18C151.48 276.01 182.42 245.07 220.59 245.07C224.09 244.94 227.59 245.33 230.99 246.21C232.64 246.44 240.84 247.63 255.62 249.74C258.04 234.96 259.4 226.76 259.68 225.1C266.84 180.34 308.95 149.85 353.72 157.03C390.46 162.92 418.65 192.77 422.41 229.79C422.49 230.81 422.88 235.9 423.57 245.07C431.98 248.55 436.65 250.5 437.59 250.88C472.95 265.86 489.47 306.66 474.49 342.02C463.63 367.66 438.52 384.35 410.67 384.43C407.6 384.43 392.25 384.43 364.64 384.43C364.64 387.01 364.64 407.63 364.64 410.21C392.07 410.21 407.31 410.21 410.37 410.21C462.54 410.44 505.02 368.32 505.25 316.15C505.25 315.87 505.25 315.6 505.25 315.32C504.59 276.85 481.81 242.2 446.74 226.35C440.72 167.61 388.21 124.85 329.45 130.86C281.2 135.82 242.31 172.62 234.73 220.54Z" id="cA5aB0hKe"></path><path d="M288.47 330.59L357.58 330.59L357.58 452.4L391.56 452.4L324.84 570.66L260.4 451.26L293.14 451.26L293.14 330.59" id="d21hfNYZiQ"></path><path d="M288.47 330.59L357.58 330.59L357.58 452.4L391.56 452.4L324.84 570.66L260.4 451.26L293.14 451.26L293.14 330.59" id="e1l7Bk6EpZ"></path></defs><g><g><g><use xlink:href="#adGZq7QnF" opacity="1" fill="#ecc01b" fill-opacity="1"></use><g><use xlink:href="#adGZq7QnF" opacity="1" fill-opacity="0" stroke="#000000" stroke-width="1" stroke-opacity="0"></use></g></g><g><use xlink:href="#anA0bUTia" opacity="1" fill="#000000" fill-opacity="0"></use><g><use xlink:href="#anA0bUTia" opacity="1" fill-opacity="0" stroke="#000000" stroke-width="1" stroke-opacity="0"></use></g></g><g><use xlink:href="#c2eZD7LArh" opacity="1" fill="#ffffff" fill-opacity="1"></use><g><use xlink:href="#c2eZD7LArh" opacity="1" fill-opacity="0" stroke="#000000" stroke-width="1" stroke-opacity="0"></use></g></g><g><use xlink:href="#cA5aB0hKe" opacity="1" fill="#000000" fill-opacity="0"></use><g><use xlink:href="#cA5aB0hKe" opacity="1" fill-opacity="0" stroke="#000000" stroke-width="1" stroke-opacity="0"></use></g></g><g><use xlink:href="#d21hfNYZiQ" opacity="1" fill="#ffffff" fill-opacity="1"></use><g><use xlink:href="#d21hfNYZiQ" opacity="1" fill-opacity="0" stroke="#000000" stroke-width="1" stroke-opacity="0"></use></g></g><g><use xlink:href="#e1l7Bk6EpZ" opacity="1" fill="#000000" fill-opacity="0"></use><g><use xlink:href="#e1l7Bk6EpZ" opacity="1" fill-opacity="0" stroke="#000000" stroke-width="1" stroke-opacity="0"></use></g></g></g></g></svg>