<?xml version="1.0" encoding="UTF-8" standalone="no"?>
<!DOCTYPE svg PUBLIC "-//W3C//DTD SVG 1.1//EN" "http://www.w3.org/Graphics/SVG/1.1/DTD/svg11.dtd">
<svg version="1.1" xmlns="http://www.w3.org/2000/svg" xmlns:xlink="http://www.w3.org/1999/xlink" preserveAspectRatio="xMidYMid meet" viewBox="0 0 640 640" width="640" height="640"><defs><path d="M321.89 630.95C148.43 630.95 7.83 490.94 7.83 318.25C7.83 145.56 148.43 5.55 321.89 5.55C495.34 5.55 635.94 145.56 635.94 318.25C635.94 490.94 495.34 630.95 321.89 630.95Z" id="a2tEFi6DFB"></path><path d="M321.89 630.95C148.43 630.95 7.83 490.94 7.83 318.25C7.83 145.56 148.43 5.55 321.89 5.55C495.34 5.55 635.94 145.56 635.94 318.25C635.94 490.94 495.34 630.95 321.89 630.95Z" id="b4ujKr5tGb"></path><path d="M322.19 479.03C312.79 477.33 303.69 474.24 295.21 469.87C286.9 465.68 220.44 432.1 212.14 427.9C208.14 425.96 204.16 424.11 200.06 422.45C194.91 420.28 189.02 420.74 184.28 423.72C177.47 427.81 170.76 432.09 164.03 436.38C162.96 437.05 154.38 442.51 153.32 443.2C149.16 446.6 143.02 446 139.61 441.84C138.93 441.02 138.4 440.09 138.02 439.1C131.6 425.57 125.36 412.03 119.13 398.49C103.07 363.92 90.56 336.17 87.38 329.25C84.67 324.18 86.58 317.86 91.66 315.15C92.01 314.95 92.38 314.79 92.75 314.64C93.9 314.1 103.09 309.82 104.23 309.29C122.05 301.4 139.78 293.42 157.69 285.82C166.85 281.9 176.21 278.48 185.74 275.59C197.79 272.35 210.32 271.26 222.75 272.38C229.3 272.8 235.8 273.63 242.23 274.92C251.77 277.23 260.53 282.07 267.55 288.93C274.5 295.41 281.01 302.32 287.02 309.68C287.6 310.33 292.29 315.55 292.87 316.21C297.22 321.11 303.02 324.51 309.42 325.94C323.48 329.48 337.77 332.06 352.17 333.64C359.38 334.31 366.59 334.52 373.79 334.71C381.44 334.68 388.99 336.38 395.89 339.68C407.64 345.76 412.22 360.23 406.14 371.96C404.6 374.91 402.49 377.51 399.89 379.6C394.67 383.25 388.6 385.5 382.26 386.13C378.52 386.56 374.75 386.8 370.98 386.8C354.8 386.8 338.54 386.8 322.27 386.8C309.2 386.83 296.15 385.56 283.33 383.01C273.59 381.16 263.85 378.91 254.69 376.97C249.1 375.76 243.59 379.31 242.38 384.91C241.17 390.5 244.72 396.01 250.31 397.22C260.05 399.56 270.56 401.71 280.79 403.65C296.84 406.68 313.16 408.02 329.48 407.65C343.79 407.65 358.11 407.65 372.42 407.65C382.86 407.9 393.22 405.9 402.81 401.8C414.43 396.85 423.33 387.13 427.25 375.12C427.54 374.33 428.04 373.66 428.71 373.17C476.24 341.91 514.43 317 523.96 310.75C530.52 306.23 538.29 303.79 546.26 303.74C556.24 304.17 564.26 312.08 564.86 322.05C564.99 330.54 562.01 338.78 556.48 345.23C550.2 352.64 542.73 358.94 534.38 363.92C469.62 406.1 417.72 439.74 404.77 448.16C392.39 456.14 379.64 463.74 366.88 471.14C358.38 476.23 348.8 479.27 338.93 480C338.87 480 338.54 480 337.96 480C337.42 480.01 334.73 480.08 329.88 480.19C325.09 479.47 322.52 479.08 322.19 479.03Z" id="eDGALjeLG"></path><path d="M322.19 479.03C312.79 477.33 303.69 474.24 295.21 469.87C286.9 465.68 220.44 432.1 212.14 427.9C208.14 425.96 204.16 424.11 200.06 422.45C194.91 420.28 189.02 420.74 184.28 423.72C177.47 427.81 170.76 432.09 164.03 436.38C162.96 437.05 154.38 442.51 153.32 443.2C149.16 446.6 143.02 446 139.61 441.84C138.93 441.02 138.4 440.09 138.02 439.1C131.6 425.57 125.36 412.03 119.13 398.49C103.07 363.92 90.56 336.17 87.38 329.25C84.67 324.18 86.58 317.86 91.66 315.15C92.01 314.95 92.38 314.79 92.75 314.64C93.9 314.1 103.09 309.82 104.23 309.29C122.05 301.4 139.78 293.42 157.69 285.82C166.85 281.9 176.21 278.48 185.74 275.59C197.79 272.35 210.32 271.26 222.75 272.38C229.3 272.8 235.8 273.63 242.23 274.92C251.77 277.23 260.53 282.07 267.55 288.93C274.5 295.41 281.01 302.32 287.02 309.68C287.6 310.33 292.29 315.55 292.87 316.21C297.22 321.11 303.02 324.51 309.42 325.94C323.48 329.48 337.77 332.06 352.17 333.64C359.38 334.31 366.59 334.52 373.79 334.71C381.44 334.68 388.99 336.38 395.89 339.68C407.64 345.76 412.22 360.23 406.14 371.96C404.6 374.91 402.49 377.51 399.89 379.6C394.67 383.25 388.6 385.5 382.26 386.13C378.52 386.56 374.75 386.8 370.98 386.8C354.8 386.8 338.54 386.8 322.27 386.8C309.2 386.83 296.15 385.56 283.33 383.01C273.59 381.16 263.85 378.91 254.69 376.97C249.1 375.76 243.59 379.31 242.38 384.91C241.17 390.5 244.72 396.01 250.31 397.22C260.05 399.56 270.56 401.71 280.79 403.65C296.84 406.68 313.16 408.02 329.48 407.65C343.79 407.65 358.11 407.65 372.42 407.65C382.86 407.9 393.22 405.9 402.81 401.8C414.43 396.85 423.33 387.13 427.25 375.12C427.54 374.33 428.04 373.66 428.71 373.17C476.24 341.91 514.43 317 523.96 310.75C530.52 306.23 538.29 303.79 546.26 303.74C556.24 304.17 564.26 312.08 564.86 322.05C564.99 330.54 562.01 338.78 556.48 345.23C550.2 352.64 542.73 358.94 534.38 363.92C469.62 406.1 417.72 439.74 404.77 448.16C392.39 456.14 379.64 463.74 366.88 471.14C358.38 476.23 348.8 479.27 338.93 480C338.87 480 338.54 480 337.96 480C337.42 480.01 334.73 480.08 329.88 480.19C325.09 479.47 322.52 479.08 322.19 479.03Z" id="e3evycCQrv"></path><path d="M324.32 134.3L324.79 134.27L325.03 134.27L325.26 134.28L325.48 134.31L325.72 134.34L325.94 134.37L326.15 134.43L326.38 134.48L326.58 134.55L326.81 134.63L327 134.7L327.42 134.88L327.61 134.98L327.79 135.1L327.99 135.22L328.16 135.34L328.52 135.61L328.69 135.76L329 136.07L329.15 136.24L329.28 136.4L329.43 136.58L329.67 136.94L329.79 137.13L329.89 137.33L330 137.53L330.1 137.73L330.18 137.94L330.25 138.16L330.33 138.37L330.45 138.82L330.49 139.06L330.52 139.28L330.55 139.52L330.55 139.65L330.64 140.23L330.91 141.93L330.98 142.48L331.07 143.04L331.16 143.57L331.24 144.1L331.42 145.14L331.49 145.65L331.56 146.14L331.65 146.62L331.8 147.57L331.95 148.46L332.03 148.9L332.1 149.31L332.16 149.73L332.24 150.13L332.3 150.52L332.36 150.9L332.43 151.25L332.49 151.61L332.53 151.94L332.59 152.27L332.65 152.58L332.7 152.88L332.74 153.16L332.8 153.42L332.83 153.67L332.88 153.91L332.92 154.13L332.95 154.34L332.98 154.53L333.01 154.71L333.07 155.01L333.09 155.13L333.1 155.16L333.1 155.19L333.12 155.2L333.13 155.23L333.13 155.26L333.15 155.28L333.16 155.31L333.16 155.32L333.19 155.38L333.21 155.4L333.22 155.43L333.23 155.44L333.25 155.47L333.26 155.49L333.28 155.52L333.31 155.55L333.32 155.58L333.34 155.59L333.37 155.61L333.38 155.64L333.41 155.67L333.44 155.68L333.46 155.71L333.47 155.73L333.5 155.74L333.53 155.77L333.56 155.79L333.58 155.8L333.61 155.82L333.62 155.83L333.65 155.85L333.67 155.86L333.73 155.89L333.74 155.91L333.77 155.91L340.78 158.93L340.84 158.96L340.85 158.98L340.97 159.04L341 159.04L341.06 159.07L341.09 159.07L341.12 159.08L341.18 159.08L341.21 159.1L341.51 159.1L341.54 159.08L341.6 159.08L341.63 159.07L341.66 159.07L341.72 159.04L341.75 159.04L341.93 158.95L341.94 158.93L354.6 149.67L354.8 149.52L354.98 149.39L355.17 149.25L355.36 149.14L355.57 149.02L355.77 148.91L356.18 148.73L356.6 148.58L356.83 148.52L357.03 148.46L357.26 148.42L357.47 148.39L357.69 148.36L358.14 148.33L358.57 148.33L358.79 148.35L359.02 148.38L359.23 148.4L359.45 148.45L359.87 148.54L360.09 148.61L360.51 148.76L360.7 148.85L360.91 148.94L361.1 149.05L361.49 149.28L361.85 149.55L362.21 149.85L362.54 150.18L362.69 150.36L374.29 162.05L374.6 162.36L374.73 162.53L374.88 162.69L375 162.85L375.14 163.03L375.26 163.21L375.36 163.39L375.46 163.59L375.55 163.76L375.64 163.96L375.72 164.15L375.79 164.36L375.87 164.55L375.91 164.75L375.97 164.96L376.02 165.17L376.05 165.36L376.08 165.57L376.11 165.99L376.11 166.4L376.08 166.82L376.05 167.03L376.02 167.22L375.93 167.64L375.87 167.83L375.81 168.04L375.73 168.24L375.64 168.45L375.55 168.64L375.46 168.82L375.36 169.01L375.24 169.21L375 169.56L374.87 169.74L365.13 182.79L365.1 182.82L364.97 183.09L364.97 183.12L364.95 183.16L364.94 183.19L364.94 183.25L364.92 183.28L364.92 183.55L364.94 183.58L364.94 183.66L364.97 183.72L364.97 183.75L364.98 183.78L365 183.82L365.1 184.03L365.13 184.06L365.21 184.22L365.27 184.39L365.34 184.57L365.49 184.89L365.56 185.07L365.62 185.24L365.7 185.42L365.85 185.74L365.91 185.92L365.98 186.09L366.06 186.27L366.12 186.43L366.19 186.61L366.26 186.77L366.32 186.95L366.4 187.12L366.47 187.29L366.61 187.64L366.68 187.8L366.74 187.98L366.82 188.14L366.89 188.32L366.95 188.49L367.02 188.67L367.1 188.83L367.16 189.01L367.23 189.17L367.31 189.35L367.38 189.52L367.44 189.68L367.52 189.86L367.59 190.02L367.67 190.2L367.73 190.37L367.8 190.53L367.87 190.71L367.95 190.87L367.96 190.9L367.96 190.93L367.98 190.98L368.05 191.13L368.07 191.17L368.1 191.23L368.13 191.25L368.16 191.31L368.19 191.34L368.2 191.37L368.23 191.38L368.25 191.41L368.28 191.44L368.31 191.46L368.32 191.48L368.35 191.5L368.38 191.53L368.44 191.56L368.47 191.59L368.68 191.69L368.72 191.69L368.78 191.72L368.81 191.72L368.86 191.74L368.89 191.74L368.92 191.75L384.8 194.47L385.01 194.51L385.22 194.54L385.41 194.6L385.62 194.65L385.81 194.71L386.2 194.86L386.38 194.94L386.57 195.03L386.75 195.12L386.92 195.23L387.1 195.33L387.26 195.44L387.42 195.56L387.59 195.69L387.74 195.81L387.89 195.94L388.02 196.09L388.17 196.23L388.3 196.38L388.42 196.54L388.54 196.69L388.78 197.02L388.89 197.2L388.98 197.36L389.15 197.72L389.24 197.91L389.32 198.09L389.5 198.67L389.54 198.88L389.59 199.08L389.62 199.28L389.63 199.49L389.66 199.7L389.66 217.54L389.63 217.77L389.62 218L389.48 218.67L389.41 218.88L389.35 219.1L389.27 219.31L389.18 219.5L389.09 219.71L388.89 220.1L388.77 220.29L388.65 220.47L388.38 220.83L388.24 221L387.95 221.32L387.62 221.62L387.45 221.76L387.1 222.02L386.9 222.14L386.32 222.46L385.9 222.64L385.69 222.71L385.49 222.77L385.04 222.89L384.81 222.93L384.58 222.96L384.35 222.99L384.11 223.01L368.83 225.74L368.78 225.74L368.75 225.75L368.68 225.75L368.65 225.77L368.61 225.78L368.58 225.78L368.53 225.8L368.44 225.84L368.4 225.86L368.34 225.89L368.31 225.92L368.25 225.95L368.22 225.98L368.19 225.99L368.16 226.02L368.13 226.04L368.11 226.07L368.08 226.08L368.02 226.14L368.01 226.17L367.93 226.24L367.92 226.27L367.89 226.3L367.87 226.33L367.86 226.38L367.82 226.47L367.8 226.51L367.77 226.57L367.76 226.62L367.7 226.78L367.62 226.95L367.56 227.11L367.49 227.27L367.43 227.45L367.35 227.62L367.29 227.78L367.14 228.11L367.08 228.27L367.01 228.44L366.95 228.6L366.8 228.93L366.74 229.09L366.67 229.26L366.61 229.42L366.46 229.75L366.4 229.91L366.25 230.24L366.19 230.39L366.04 230.72L365.98 230.88L365.83 231.21L365.77 231.36L365.7 231.52L365.64 231.69L365.56 231.85L365.5 232.02L365.43 232.16L365.35 232.33L365.3 232.49L365.22 232.66L365.16 232.82L365.1 232.97L365.03 233.13L365.01 233.16L364.98 233.21L364.95 233.27L364.92 233.31L364.89 233.37L364.88 233.42L364.86 233.45L364.85 233.49L364.85 233.52L364.83 233.57L364.82 233.6L364.82 233.67L364.8 233.72L364.8 234.01L364.82 234.06L364.82 234.13L364.83 234.18L364.85 234.21L364.85 234.25L364.88 234.31L364.89 234.36L364.91 234.39L364.92 234.43L364.95 234.46L364.97 234.49L364.98 234.54L365.01 234.57L365.03 234.59L374.29 247.06L374.44 247.24L374.57 247.43L374.7 247.61L374.84 247.82L374.96 248.02L375.06 248.21L375.15 248.42L375.26 248.63L375.41 249.04L375.46 249.25L375.52 249.48L375.57 249.69L375.61 249.91L375.67 250.36L375.69 250.57L375.69 251.01L375.67 251.24L375.66 251.45L375.63 251.67L375.58 251.89L375.54 252.1L375.49 252.33L375.44 252.53L375.29 252.95L375.2 253.16L375.11 253.35L375 253.56L374.76 253.95L374.64 254.13L374.51 254.32L374.21 254.68L373.88 255.01L373.71 255.17L373.68 255.19L373.6 255.26L373.57 255.28L373.54 255.31L373.53 255.31L373.53 255.32L373.51 255.34L373.5 255.34L362.01 267.03L361.7 267.34L361.54 267.49L361.36 267.64L361.19 267.77L360.66 268.13L360.27 268.34L360.08 268.43L359.49 268.65L359.29 268.71L358.66 268.85L358.45 268.88L357.82 268.92L357.62 268.92L357.2 268.89L356.57 268.8L356.36 268.74L356.15 268.7L355.95 268.62L355.75 268.56L355.54 268.47L355.35 268.4L354.77 268.09L354.59 267.97L354.39 267.85L354.22 267.71L341.17 257.96L341.14 257.95L341.09 257.92L341.06 257.89L341.03 257.87L340.99 257.86L340.96 257.83L340.87 257.8L340.84 257.78L340.8 257.77L340.77 257.75L340.72 257.74L340.68 257.74L340.63 257.72L340.6 257.72L340.56 257.71L340.44 257.71L340.39 257.69L340.35 257.71L340.23 257.71L340.18 257.72L340.14 257.72L340.11 257.74L340.06 257.74L340.02 257.75L339.99 257.77L339.9 257.8L339.87 257.81L339.83 257.83L339.8 257.86L339.75 257.87L339.72 257.89L339.68 257.92L339.65 257.95L339.62 257.96L333.09 260.6L333.04 260.62L333.01 260.63L332.88 260.68L332.85 260.69L332.8 260.72L332.77 260.74L332.73 260.77L332.7 260.78L332.64 260.84L332.59 260.85L332.41 261.03L332.4 261.08L332.34 261.14L332.33 261.18L332.3 261.21L332.28 261.24L332.27 261.29L332.24 261.32L332.21 261.41L332.19 261.44L332.16 261.53L332.16 261.57L332.15 261.6L332.13 261.64L332.13 261.69L332.12 261.73L332.12 261.87L332.01 262.45L331.83 263.61L331.65 264.75L331.55 265.3L331.46 265.85L331.39 266.39L331.3 266.92L331.12 267.97L331.04 268.47L330.95 268.97L330.88 269.46L330.79 269.94L330.64 270.86L330.57 271.31L330.49 271.74L330.42 272.16L330.36 272.58L330.28 272.98L330.22 273.37L330.16 273.74L330.1 274.1L329.98 274.78L329.92 275.1L329.88 275.41L329.83 275.69L329.73 276.23L329.7 276.48L329.66 276.71L329.63 276.93L329.58 277.12L329.55 277.3L329.54 277.47L329.51 277.62L329.48 277.73L329.45 277.94L329.4 278.15L329.36 278.35L329.24 278.73L329.09 279.12L328.91 279.48L328.81 279.66L328.72 279.82L328.6 280L328.49 280.17L328.37 280.31L328.24 280.48L328.12 280.63L327.99 280.78L327.84 280.91L327.7 281.05L327.55 281.18L327.39 281.3L327.24 281.42L327.08 281.54L326.75 281.75L326.57 281.84L326.39 281.94L326.03 282.09L325.64 282.24L325.47 282.3L325.26 282.34L324.87 282.43L324.66 282.46L324.47 282.48L324.05 282.51L306.54 282.51L306.32 282.49L306.11 282.48L305.9 282.45L305.68 282.42L305.47 282.37L305.26 282.31L305.07 282.25L304.86 282.18L304.47 282.03L304.28 281.94L304.1 281.85L303.92 281.75L303.74 281.63L303.56 281.52L303.4 281.39L303.22 281.27L303.07 281.13L302.9 281L302.76 280.85L302.62 280.7L302.47 280.54L302.34 280.39L302.22 280.21L302.1 280.05L301.98 279.87L301.77 279.51L301.67 279.32L301.59 279.12L301.5 278.93L301.43 278.72L301.37 278.53L301.31 278.32L301.25 278.09L301.2 277.88L301.17 277.66L301.14 277.45L298.52 261.76L298.51 261.73L298.51 261.66L298.49 261.62L298.48 261.59L298.48 261.54L298.45 261.48L298.43 261.44L298.43 261.41L298.4 261.35L298.37 261.32L298.36 261.27L298.33 261.21L298.3 261.18L298.27 261.12L298.24 261.09L298.21 261.08L298.19 261.05L298.06 260.91L298 260.88L297.97 260.85L297.94 260.84L297.91 260.81L297.82 260.77L297.77 260.75L297.71 260.72L297.67 260.71L297.64 260.69L290.92 258.07L290.89 258.04L290.86 258.02L290.81 257.99L290.78 257.98L290.74 257.96L290.71 257.95L290.66 257.93L290.62 257.9L290.59 257.9L290.54 257.89L290.51 257.87L290.47 257.86L290.42 257.86L290.38 257.84L290.35 257.84L290.3 257.83L289.98 257.83L289.93 257.84L289.9 257.84L289.86 257.86L289.81 257.86L289.78 257.87L289.69 257.9L289.66 257.9L289.62 257.93L289.59 257.95L289.54 257.96L289.51 257.98L289.47 257.99L289.44 258.02L289.39 258.04L289.36 258.07L276.7 266.83L276.51 266.98L276.33 267.13L276.14 267.27L275.93 267.39L275.74 267.51L275.53 267.62L274.9 267.89L274.68 267.97L274.47 268.03L274.24 268.09L273.8 268.18L273.57 268.21L272.9 268.25L272.68 268.24L272.45 268.24L271.78 268.15L271.57 268.09L271.35 268.04L271.13 267.98L270.92 267.91L270.29 267.64L270.1 267.54L269.89 267.42L269.7 267.3L269.5 267.16L269.32 267.03L268.97 266.73L268.79 266.57L268.46 266.21L268.44 266.19L268.43 266.16L268.4 266.15L268.38 266.12L268.35 266.09L268.32 266.04L257.13 254.76L256.95 254.61L256.62 254.28L256.45 254.1L256.3 253.92L256.04 253.56L255.8 253.17L255.69 252.98L255.59 252.77L255.5 252.58L255.28 251.95L255.22 251.74L255.17 251.52L255.13 251.31L255.07 250.86L255.05 250.64L255.05 249.98L255.08 249.76L255.1 249.55L255.19 249.1L255.23 248.9L255.29 248.67L255.44 248.25L255.62 247.84L255.72 247.63L255.83 247.43L255.96 247.24L256.08 247.05L256.23 246.85L256.36 246.66L256.45 246.57L265.4 234.1L265.43 234.07L265.49 233.98L265.51 233.95L265.54 233.91L265.55 233.86L265.58 233.82L265.67 233.55L265.67 233.51L265.68 233.46L265.68 233.37L265.7 233.33L265.7 233.13L265.68 233.09L265.68 233L265.67 232.95L265.67 232.91L265.58 232.64L265.55 232.6L265.54 232.57L265.51 232.52L265.49 232.48L265.46 232.43L265.43 232.4L265.4 232.36L265.33 232.19L265.27 232.03L265.19 231.87L265.12 231.72L264.97 231.39L264.91 231.22L264.69 230.73L264.63 230.57L264.48 230.24L264.42 230.08L264.34 229.91L264.28 229.75L264.21 229.58L264.15 229.42L264.07 229.24L264 229.08L263.94 228.91L263.87 228.75L263.81 228.59L263.73 228.42L263.67 228.24L263.6 228.08L263.48 227.75L263.4 227.59L263.34 227.41L263.27 227.24L263.21 227.08L263.13 226.92L263.07 226.74L263.02 226.57L262.94 226.41L262.88 226.24L262.81 226.07L262.75 225.9L262.67 225.74L262.67 225.69L262.64 225.63L262.64 225.6L262.63 225.57L262.61 225.53L262.57 225.44L262.54 225.41L262.49 225.32L262.46 225.3L262.45 225.28L262.42 225.25L262.4 225.22L262.37 225.2L262.36 225.17L262.33 225.14L262.3 225.13L262.25 225.08L262.22 225.07L262.2 225.04L262.02 224.95L261.97 224.93L261.91 224.9L261.88 224.9L261.84 224.89L261.81 224.87L261.78 224.87L261.75 224.86L261.7 224.86L246.22 222.04L245.99 222.01L245.31 221.88L245.11 221.82L244.88 221.74L244.67 221.67L244.48 221.58L244.27 221.49L243.88 221.28L243.7 221.16L243.51 221.04L243.33 220.91L243 220.64L242.84 220.49L242.69 220.34L242.39 220.01L242.26 219.85L242.12 219.67L241.89 219.31L241.78 219.12L241.68 218.94L241.57 218.73L241.48 218.53L241.33 218.12L241.21 217.7L241.17 217.48L241.12 217.27L241.07 216.82L241.05 216.6L241.05 216.13L241.07 215.9L241.07 199.45L241.05 199.21L241.05 198.75L241.07 198.52L241.09 198.3L241.12 198.09L241.17 197.87L241.21 197.66L241.27 197.43L241.33 197.23L241.41 197.03L241.5 196.82L241.68 196.44L241.78 196.24L241.89 196.06L242 195.87L242.14 195.71L242.26 195.53L242.41 195.36L242.54 195.2L242.69 195.05L242.85 194.9L243 194.75L243.17 194.62L243.35 194.48L243.7 194.24L243.9 194.12L244.08 194.02L244.27 193.93L244.69 193.75L244.9 193.68L245.31 193.56L245.54 193.5L245.76 193.45L245.99 193.42L246.22 193.41L261.81 190.87L261.84 190.86L261.85 190.86L261.88 190.84L261.91 190.84L261.97 190.81L262 190.81L262.02 190.8L262.08 190.77L262.09 190.75L262.12 190.75L262.18 190.72L262.2 190.71L262.22 190.69L262.24 190.68L262.27 190.66L262.28 190.63L262.31 190.62L262.33 190.61L262.36 190.59L262.42 190.53L262.45 190.52L262.46 190.49L262.54 190.41L262.55 190.38L262.57 190.37L262.6 190.31L262.63 190.29L262.64 190.26L262.66 190.25L262.67 190.22L262.67 190.19L265.7 183.18L265.74 183.09L265.76 183.07L265.8 182.99L265.8 182.96L265.83 182.9L265.83 182.87L265.85 182.84L265.85 182.78L265.86 182.75L265.86 182.66L265.88 182.63L265.88 182.57L265.86 182.54L265.86 182.45L265.85 182.42L265.85 182.36L265.83 182.33L265.83 182.3L265.8 182.24L265.8 182.21L265.71 182.03L265.7 182.02L256.93 169.16L256.8 168.98L256.66 168.79L256.54 168.61L256.42 168.42L256.32 168.22L256.14 167.83L256.05 167.63L255.98 167.43L255.86 167.01L255.77 166.6L255.71 166.18L255.69 165.97L255.69 165.33L255.72 164.91L255.75 164.7L255.84 164.29L255.9 164.08L255.96 163.88L256.02 163.67L256.11 163.48L256.19 163.29L256.28 163.09L256.38 162.9L256.48 162.72L256.6 162.53L256.72 162.35L256.86 162.17L256.99 162L257.29 161.68L257.45 161.51L257.62 161.36L269.5 149.67L269.82 149.36L269.96 149.22L270.14 149.08L270.31 148.94L270.67 148.7L270.84 148.6L271.04 148.49L271.22 148.4L271.41 148.32L271.8 148.17L272.01 148.09L272.2 148.05L272.41 147.99L272.6 147.94L273.02 147.88L273.44 147.85L273.86 147.85L274.27 147.88L274.47 147.91L274.68 147.94L275.09 148.03L275.29 148.09L275.5 148.15L275.69 148.23L276.27 148.49L276.47 148.6L276.64 148.72L276.84 148.84L277.02 148.96L277.2 149.09L289.95 158.25L289.98 158.28L290.02 158.29L290.05 158.31L290.08 158.34L290.11 158.35L290.15 158.37L290.18 158.38L290.23 158.4L290.26 158.41L290.3 158.43L290.33 158.44L290.38 158.44L290.41 158.46L290.45 158.46L290.48 158.47L290.6 158.47L290.63 158.49L290.72 158.49L290.75 158.47L290.87 158.47L290.9 158.46L290.95 158.46L290.97 158.44L291.02 158.44L291.05 158.43L291.09 158.41L291.12 158.4L291.17 158.38L291.2 158.37L291.24 158.35L291.27 158.34L291.3 158.31L291.35 158.29L291.38 158.28L291.41 158.25L298.33 155.43L298.39 155.4L298.42 155.4L298.51 155.35L298.52 155.34L298.64 155.28L298.65 155.26L298.71 155.23L298.73 155.2L298.76 155.19L298.86 155.09L298.89 155.03L298.92 155.01L298.97 154.92L298.98 154.91L299.04 154.79L299.04 154.76L299.07 154.7L299.07 154.67L299.09 154.64L299.09 154.61L299.1 154.58L299.1 154.55L299.16 154.18L299.24 153.8L299.3 153.43L299.37 153.06L299.44 152.7L299.5 152.33L299.58 151.95L299.64 151.58L299.71 151.22L299.86 150.48L299.92 150.1L300 149.75L300.07 149.37L300.22 148.64L300.28 148.27L300.5 147.15L300.58 146.79L300.64 146.42L300.79 145.68L300.85 145.3L300.92 144.92L301 144.54L301.06 144.17L301.13 143.8L301.19 143.41L301.26 143.04L301.32 142.65L301.4 142.28L301.52 141.5L301.59 141.11L301.77 139.95L301.83 139.55L301.85 139.35L301.88 139.14L301.91 138.95L302.04 138.37L302.1 138.18L302.16 138L302.23 137.8L302.38 137.44L302.47 137.27L302.56 137.1L302.65 136.92L302.96 136.43L303.08 136.28L303.2 136.12L303.44 135.82L303.71 135.55L303.86 135.42L303.99 135.28L304.14 135.15L304.31 135.03L304.46 134.91L304.95 134.6L305.13 134.49L305.29 134.4L305.47 134.31L305.65 134.24L305.84 134.15L306.02 134.09L306.21 134.01L306.6 133.9L321.01 134.3L324.32 134.3ZM311.54 186.12L309.66 186.52L307.83 187.07L306.08 187.76L304.4 188.59L302.78 189.55L301.28 190.63L299.85 191.83L298.54 193.14L297.33 194.54L296.22 196.05L295.25 197.64L294.42 199.33L293.7 201.07L293.15 202.89L292.73 204.77L292.48 206.71L292.38 208.69L292.45 210.68L292.7 212.61L293.09 214.49L293.64 216.33L294.33 218.07L295.17 219.76L296.12 221.37L297.21 222.87L298.4 224.31L299.71 225.62L301.11 226.83L302.62 227.93L304.22 228.9L305.9 229.73L307.65 230.45L309.47 231.02L311.34 231.42L313.28 231.67L315.27 231.78L315.37 231.78L317.34 231.7L319.26 231.46L321.14 231.06L322.96 230.51L324.71 229.82L326.39 229L327.99 228.05L329.49 226.98L330.91 225.78L332.22 224.47L333.43 223.07L334.52 221.58L335.49 219.98L336.32 218.31L337.02 216.57L337.59 214.76L337.99 212.88L338.26 210.96L338.35 208.99L338.35 208.89L338.28 206.9L338.04 204.97L337.63 203.09L337.08 201.25L336.4 199.51L335.56 197.82L334.61 196.21L333.52 194.71L332.33 193.27L331.01 191.96L329.61 190.75L328.11 189.65L326.51 188.68L324.82 187.85L323.08 187.13L321.26 186.56L319.38 186.16L317.44 185.89L315.46 185.8L313.48 185.88L311.54 186.12Z" id="eCJrlQrMX"></path><path d="M324.32 134.3L324.79 134.27L325.03 134.27L325.26 134.28L325.48 134.31L325.72 134.34L325.94 134.37L326.15 134.43L326.38 134.48L326.58 134.55L326.81 134.63L327 134.7L327.42 134.88L327.61 134.98L327.79 135.1L327.99 135.22L328.16 135.34L328.52 135.61L328.69 135.76L329 136.07L329.15 136.24L329.28 136.4L329.43 136.58L329.67 136.94L329.79 137.13L329.89 137.33L330 137.53L330.1 137.73L330.18 137.94L330.25 138.16L330.33 138.37L330.45 138.82L330.49 139.06L330.52 139.28L330.55 139.52L330.55 139.65L330.64 140.23L330.91 141.93L330.98 142.48L331.07 143.04L331.16 143.57L331.24 144.1L331.42 145.14L331.49 145.65L331.56 146.14L331.65 146.62L331.8 147.57L331.95 148.46L332.03 148.9L332.1 149.31L332.16 149.73L332.24 150.13L332.3 150.52L332.36 150.9L332.43 151.25L332.49 151.61L332.53 151.94L332.59 152.27L332.65 152.58L332.7 152.88L332.74 153.16L332.8 153.42L332.83 153.67L332.88 153.91L332.92 154.13L332.95 154.34L332.98 154.53L333.01 154.71L333.07 155.01L333.09 155.13L333.1 155.16L333.1 155.19L333.12 155.2L333.13 155.23L333.13 155.26L333.15 155.28L333.16 155.31L333.16 155.32L333.19 155.38L333.21 155.4L333.22 155.43L333.23 155.44L333.25 155.47L333.26 155.49L333.28 155.52L333.31 155.55L333.32 155.58L333.34 155.59L333.37 155.61L333.38 155.64L333.41 155.67L333.44 155.68L333.46 155.71L333.47 155.73L333.5 155.74L333.53 155.77L333.56 155.79L333.58 155.8L333.61 155.82L333.62 155.83L333.65 155.85L333.67 155.86L333.73 155.89L333.74 155.91L333.77 155.91L340.78 158.93L340.84 158.96L340.85 158.98L340.97 159.04L341 159.04L341.06 159.07L341.09 159.07L341.12 159.08L341.18 159.08L341.21 159.1L341.51 159.1L341.54 159.08L341.6 159.08L341.63 159.07L341.66 159.07L341.72 159.04L341.75 159.04L341.93 158.95L341.94 158.93L354.6 149.67L354.8 149.52L354.98 149.39L355.17 149.25L355.36 149.14L355.57 149.02L355.77 148.91L356.18 148.73L356.6 148.58L356.83 148.52L357.03 148.46L357.26 148.42L357.47 148.39L357.69 148.36L358.14 148.33L358.57 148.33L358.79 148.35L359.02 148.38L359.23 148.4L359.45 148.45L359.87 148.54L360.09 148.61L360.51 148.76L360.7 148.85L360.91 148.94L361.1 149.05L361.49 149.28L361.85 149.55L362.21 149.85L362.54 150.18L362.69 150.36L374.29 162.05L374.6 162.36L374.73 162.53L374.88 162.69L375 162.85L375.14 163.03L375.26 163.21L375.36 163.39L375.46 163.59L375.55 163.76L375.64 163.96L375.72 164.15L375.79 164.36L375.87 164.55L375.91 164.75L375.97 164.96L376.02 165.17L376.05 165.36L376.08 165.57L376.11 165.99L376.11 166.4L376.08 166.82L376.05 167.03L376.02 167.22L375.93 167.64L375.87 167.83L375.81 168.04L375.73 168.24L375.64 168.45L375.55 168.64L375.46 168.82L375.36 169.01L375.24 169.21L375 169.56L374.87 169.74L365.13 182.79L365.1 182.82L364.97 183.09L364.97 183.12L364.95 183.16L364.94 183.19L364.94 183.25L364.92 183.28L364.92 183.55L364.94 183.58L364.94 183.66L364.97 183.72L364.97 183.75L364.98 183.78L365 183.82L365.1 184.03L365.13 184.06L365.21 184.22L365.27 184.39L365.34 184.57L365.49 184.89L365.56 185.07L365.62 185.24L365.7 185.42L365.85 185.74L365.91 185.92L365.98 186.09L366.06 186.27L366.12 186.43L366.19 186.61L366.26 186.77L366.32 186.95L366.4 187.12L366.47 187.29L366.61 187.64L366.68 187.8L366.74 187.98L366.82 188.14L366.89 188.32L366.95 188.49L367.02 188.67L367.1 188.83L367.16 189.01L367.23 189.17L367.31 189.35L367.38 189.52L367.44 189.68L367.52 189.86L367.59 190.02L367.67 190.2L367.73 190.37L367.8 190.53L367.87 190.71L367.95 190.87L367.96 190.9L367.96 190.93L367.98 190.98L368.05 191.13L368.07 191.17L368.1 191.23L368.13 191.25L368.16 191.31L368.19 191.34L368.2 191.37L368.23 191.38L368.25 191.41L368.28 191.44L368.31 191.46L368.32 191.48L368.35 191.5L368.38 191.53L368.44 191.56L368.47 191.59L368.68 191.69L368.72 191.69L368.78 191.72L368.81 191.72L368.86 191.74L368.89 191.74L368.92 191.75L384.8 194.47L385.01 194.51L385.22 194.54L385.41 194.6L385.62 194.65L385.81 194.71L386.2 194.86L386.38 194.94L386.57 195.03L386.75 195.12L386.92 195.23L387.1 195.33L387.26 195.44L387.42 195.56L387.59 195.69L387.74 195.81L387.89 195.94L388.02 196.09L388.17 196.23L388.3 196.38L388.42 196.54L388.54 196.69L388.78 197.02L388.89 197.2L388.98 197.36L389.15 197.72L389.24 197.91L389.32 198.09L389.5 198.67L389.54 198.88L389.59 199.08L389.62 199.28L389.63 199.49L389.66 199.7L389.66 217.54L389.63 217.77L389.62 218L389.48 218.67L389.41 218.88L389.35 219.1L389.27 219.31L389.18 219.5L389.09 219.71L388.89 220.1L388.77 220.29L388.65 220.47L388.38 220.83L388.24 221L387.95 221.32L387.62 221.62L387.45 221.76L387.1 222.02L386.9 222.14L386.32 222.46L385.9 222.64L385.69 222.71L385.49 222.77L385.04 222.89L384.81 222.93L384.58 222.96L384.35 222.99L384.11 223.01L368.83 225.74L368.78 225.74L368.75 225.75L368.68 225.75L368.65 225.77L368.61 225.78L368.58 225.78L368.53 225.8L368.44 225.84L368.4 225.86L368.34 225.89L368.31 225.92L368.25 225.95L368.22 225.98L368.19 225.99L368.16 226.02L368.13 226.04L368.11 226.07L368.08 226.08L368.02 226.14L368.01 226.17L367.93 226.24L367.92 226.27L367.89 226.3L367.87 226.33L367.86 226.38L367.82 226.47L367.8 226.51L367.77 226.57L367.76 226.62L367.7 226.78L367.62 226.95L367.56 227.11L367.49 227.27L367.43 227.45L367.35 227.62L367.29 227.78L367.14 228.11L367.08 228.27L367.01 228.44L366.95 228.6L366.8 228.93L366.74 229.09L366.67 229.26L366.61 229.42L366.46 229.75L366.4 229.91L366.25 230.24L366.19 230.39L366.04 230.72L365.98 230.88L365.83 231.21L365.77 231.36L365.7 231.52L365.64 231.69L365.56 231.85L365.5 232.02L365.43 232.16L365.35 232.33L365.3 232.49L365.22 232.66L365.16 232.82L365.1 232.97L365.03 233.13L365.01 233.16L364.98 233.21L364.95 233.27L364.92 233.31L364.89 233.37L364.88 233.42L364.86 233.45L364.85 233.49L364.85 233.52L364.83 233.57L364.82 233.6L364.82 233.67L364.8 233.72L364.8 234.01L364.82 234.06L364.82 234.13L364.83 234.18L364.85 234.21L364.85 234.25L364.88 234.31L364.89 234.36L364.91 234.39L364.92 234.43L364.95 234.46L364.97 234.49L364.98 234.54L365.01 234.57L365.03 234.59L374.29 247.06L374.44 247.24L374.57 247.43L374.7 247.61L374.84 247.82L374.96 248.02L375.06 248.21L375.15 248.42L375.26 248.63L375.41 249.04L375.46 249.25L375.52 249.48L375.57 249.69L375.61 249.91L375.67 250.36L375.69 250.57L375.69 251.01L375.67 251.24L375.66 251.45L375.63 251.67L375.58 251.89L375.54 252.1L375.49 252.33L375.44 252.53L375.29 252.95L375.2 253.16L375.11 253.35L375 253.56L374.76 253.95L374.64 254.13L374.51 254.32L374.21 254.68L373.88 255.01L373.71 255.17L373.68 255.19L373.6 255.26L373.57 255.28L373.54 255.31L373.53 255.31L373.53 255.32L373.51 255.34L373.5 255.34L362.01 267.03L361.7 267.34L361.54 267.49L361.36 267.64L361.19 267.77L360.66 268.13L360.27 268.34L360.08 268.43L359.49 268.65L359.29 268.71L358.66 268.85L358.45 268.88L357.82 268.92L357.62 268.92L357.2 268.89L356.57 268.8L356.36 268.74L356.15 268.7L355.95 268.62L355.75 268.56L355.54 268.47L355.35 268.4L354.77 268.09L354.59 267.97L354.39 267.85L354.22 267.71L341.17 257.96L341.14 257.95L341.09 257.92L341.06 257.89L341.03 257.87L340.99 257.86L340.96 257.83L340.87 257.8L340.84 257.78L340.8 257.77L340.77 257.75L340.72 257.74L340.68 257.74L340.63 257.72L340.6 257.72L340.56 257.71L340.44 257.71L340.39 257.69L340.35 257.71L340.23 257.71L340.18 257.72L340.14 257.72L340.11 257.74L340.06 257.74L340.02 257.75L339.99 257.77L339.9 257.8L339.87 257.81L339.83 257.83L339.8 257.86L339.75 257.87L339.72 257.89L339.68 257.92L339.65 257.95L339.62 257.96L333.09 260.6L333.04 260.62L333.01 260.63L332.88 260.68L332.85 260.69L332.8 260.72L332.77 260.74L332.73 260.77L332.7 260.78L332.64 260.84L332.59 260.85L332.41 261.03L332.4 261.08L332.34 261.14L332.33 261.18L332.3 261.21L332.28 261.24L332.27 261.29L332.24 261.32L332.21 261.41L332.19 261.44L332.16 261.53L332.16 261.57L332.15 261.6L332.13 261.64L332.13 261.69L332.12 261.73L332.12 261.87L332.01 262.45L331.83 263.61L331.65 264.75L331.55 265.3L331.46 265.85L331.39 266.39L331.3 266.92L331.12 267.97L331.04 268.47L330.95 268.97L330.88 269.46L330.79 269.94L330.64 270.86L330.57 271.31L330.49 271.74L330.42 272.16L330.36 272.58L330.28 272.98L330.22 273.37L330.16 273.74L330.1 274.1L329.98 274.78L329.92 275.1L329.88 275.41L329.83 275.69L329.73 276.23L329.7 276.48L329.66 276.71L329.63 276.93L329.58 277.12L329.55 277.3L329.54 277.47L329.51 277.62L329.48 277.73L329.45 277.94L329.4 278.15L329.36 278.35L329.24 278.73L329.09 279.12L328.91 279.48L328.81 279.66L328.72 279.82L328.6 280L328.49 280.17L328.37 280.31L328.24 280.48L328.12 280.63L327.99 280.78L327.84 280.91L327.7 281.05L327.55 281.18L327.39 281.3L327.24 281.42L327.08 281.54L326.75 281.75L326.57 281.84L326.39 281.94L326.03 282.09L325.64 282.24L325.47 282.3L325.26 282.34L324.87 282.43L324.66 282.46L324.47 282.48L324.05 282.51L306.54 282.51L306.32 282.49L306.11 282.48L305.9 282.45L305.68 282.42L305.47 282.37L305.26 282.31L305.07 282.25L304.86 282.18L304.47 282.03L304.28 281.94L304.1 281.85L303.92 281.75L303.74 281.63L303.56 281.52L303.4 281.39L303.22 281.27L303.07 281.13L302.9 281L302.76 280.85L302.62 280.7L302.47 280.54L302.34 280.39L302.22 280.21L302.1 280.05L301.98 279.87L301.77 279.51L301.67 279.32L301.59 279.12L301.5 278.93L301.43 278.72L301.37 278.53L301.31 278.32L301.25 278.09L301.2 277.88L301.17 277.66L301.14 277.45L298.52 261.76L298.51 261.73L298.51 261.66L298.49 261.62L298.48 261.59L298.48 261.54L298.45 261.48L298.43 261.44L298.43 261.41L298.4 261.35L298.37 261.32L298.36 261.27L298.33 261.21L298.3 261.18L298.27 261.12L298.24 261.09L298.21 261.08L298.19 261.05L298.06 260.91L298 260.88L297.97 260.85L297.94 260.84L297.91 260.81L297.82 260.77L297.77 260.75L297.71 260.72L297.67 260.71L297.64 260.69L290.92 258.07L290.89 258.04L290.86 258.02L290.81 257.99L290.78 257.98L290.74 257.96L290.71 257.95L290.66 257.93L290.62 257.9L290.59 257.9L290.54 257.89L290.51 257.87L290.47 257.86L290.42 257.86L290.38 257.84L290.35 257.84L290.3 257.83L289.98 257.83L289.93 257.84L289.9 257.84L289.86 257.86L289.81 257.86L289.78 257.87L289.69 257.9L289.66 257.9L289.62 257.93L289.59 257.95L289.54 257.96L289.51 257.98L289.47 257.99L289.44 258.02L289.39 258.04L289.36 258.07L276.7 266.83L276.51 266.98L276.33 267.13L276.14 267.27L275.93 267.39L275.74 267.51L275.53 267.62L274.9 267.89L274.68 267.97L274.47 268.03L274.24 268.09L273.8 268.18L273.57 268.21L272.9 268.25L272.68 268.24L272.45 268.24L271.78 268.15L271.57 268.09L271.35 268.04L271.13 267.98L270.92 267.91L270.29 267.64L270.1 267.54L269.89 267.42L269.7 267.3L269.5 267.16L269.32 267.03L268.97 266.73L268.79 266.57L268.46 266.21L268.44 266.19L268.43 266.16L268.4 266.15L268.38 266.12L268.35 266.09L268.32 266.04L257.13 254.76L256.95 254.61L256.62 254.28L256.45 254.1L256.3 253.92L256.04 253.56L255.8 253.17L255.69 252.98L255.59 252.77L255.5 252.58L255.28 251.95L255.22 251.74L255.17 251.52L255.13 251.31L255.07 250.86L255.05 250.64L255.05 249.98L255.08 249.76L255.1 249.55L255.19 249.1L255.23 248.9L255.29 248.67L255.44 248.25L255.62 247.84L255.72 247.63L255.83 247.43L255.96 247.24L256.08 247.05L256.23 246.85L256.36 246.66L256.45 246.57L265.4 234.1L265.43 234.07L265.49 233.98L265.51 233.95L265.54 233.91L265.55 233.86L265.58 233.82L265.67 233.55L265.67 233.51L265.68 233.46L265.68 233.37L265.7 233.33L265.7 233.13L265.68 233.09L265.68 233L265.67 232.95L265.67 232.91L265.58 232.64L265.55 232.6L265.54 232.57L265.51 232.52L265.49 232.48L265.46 232.43L265.43 232.4L265.4 232.36L265.33 232.19L265.27 232.03L265.19 231.87L265.12 231.72L264.97 231.39L264.91 231.22L264.69 230.73L264.63 230.57L264.48 230.24L264.42 230.08L264.34 229.91L264.28 229.75L264.21 229.58L264.15 229.42L264.07 229.24L264 229.08L263.94 228.91L263.87 228.75L263.81 228.59L263.73 228.42L263.67 228.24L263.6 228.08L263.48 227.75L263.4 227.59L263.34 227.41L263.27 227.24L263.21 227.08L263.13 226.92L263.07 226.74L263.02 226.57L262.94 226.41L262.88 226.24L262.81 226.07L262.75 225.9L262.67 225.74L262.67 225.69L262.64 225.63L262.64 225.6L262.63 225.57L262.61 225.53L262.57 225.44L262.54 225.41L262.49 225.32L262.46 225.3L262.45 225.28L262.42 225.25L262.4 225.22L262.37 225.2L262.36 225.17L262.33 225.14L262.3 225.13L262.25 225.08L262.22 225.07L262.2 225.04L262.02 224.95L261.97 224.93L261.91 224.9L261.88 224.9L261.84 224.89L261.81 224.87L261.78 224.87L261.75 224.86L261.7 224.86L246.22 222.04L245.99 222.01L245.31 221.88L245.11 221.82L244.88 221.74L244.67 221.67L244.48 221.58L244.27 221.49L243.88 221.28L243.7 221.16L243.51 221.04L243.33 220.91L243 220.64L242.84 220.49L242.69 220.34L242.39 220.01L242.26 219.85L242.12 219.67L241.89 219.31L241.78 219.12L241.68 218.94L241.57 218.73L241.48 218.53L241.33 218.12L241.21 217.7L241.17 217.48L241.12 217.27L241.07 216.82L241.05 216.6L241.05 216.13L241.07 215.9L241.07 199.45L241.05 199.21L241.05 198.75L241.07 198.52L241.09 198.3L241.12 198.09L241.17 197.87L241.21 197.66L241.27 197.43L241.33 197.23L241.41 197.03L241.5 196.82L241.68 196.44L241.78 196.24L241.89 196.06L242 195.87L242.14 195.71L242.26 195.53L242.41 195.36L242.54 195.2L242.69 195.05L242.85 194.9L243 194.75L243.17 194.62L243.35 194.48L243.7 194.24L243.9 194.12L244.08 194.02L244.27 193.93L244.69 193.75L244.9 193.68L245.31 193.56L245.54 193.5L245.76 193.45L245.99 193.42L246.22 193.41L261.81 190.87L261.84 190.86L261.85 190.86L261.88 190.84L261.91 190.84L261.97 190.81L262 190.81L262.02 190.8L262.08 190.77L262.09 190.75L262.12 190.75L262.18 190.72L262.2 190.71L262.22 190.69L262.24 190.68L262.27 190.66L262.28 190.63L262.31 190.62L262.33 190.61L262.36 190.59L262.42 190.53L262.45 190.52L262.46 190.49L262.54 190.41L262.55 190.38L262.57 190.37L262.6 190.31L262.63 190.29L262.64 190.26L262.66 190.25L262.67 190.22L262.67 190.19L265.7 183.18L265.74 183.09L265.76 183.07L265.8 182.99L265.8 182.96L265.83 182.9L265.83 182.87L265.85 182.84L265.85 182.78L265.86 182.75L265.86 182.66L265.88 182.63L265.88 182.57L265.86 182.54L265.86 182.45L265.85 182.42L265.85 182.36L265.83 182.33L265.83 182.3L265.8 182.24L265.8 182.21L265.71 182.03L265.7 182.02L256.93 169.16L256.8 168.98L256.66 168.79L256.54 168.61L256.42 168.42L256.32 168.22L256.14 167.83L256.05 167.63L255.98 167.43L255.86 167.01L255.77 166.6L255.71 166.18L255.69 165.97L255.69 165.33L255.72 164.91L255.75 164.7L255.84 164.29L255.9 164.08L255.96 163.88L256.02 163.67L256.11 163.48L256.19 163.29L256.28 163.09L256.38 162.9L256.48 162.72L256.6 162.53L256.72 162.35L256.86 162.17L256.99 162L257.29 161.68L257.45 161.51L257.62 161.36L269.5 149.67L269.82 149.36L269.96 149.22L270.14 149.08L270.31 148.94L270.67 148.7L270.84 148.6L271.04 148.49L271.22 148.4L271.41 148.32L271.8 148.17L272.01 148.09L272.2 148.05L272.41 147.99L272.6 147.94L273.02 147.88L273.44 147.85L273.86 147.85L274.27 147.88L274.47 147.91L274.68 147.94L275.09 148.03L275.29 148.09L275.5 148.15L275.69 148.23L276.27 148.49L276.47 148.6L276.64 148.72L276.84 148.84L277.02 148.96L277.2 149.09L289.95 158.25L289.98 158.28L290.02 158.29L290.05 158.31L290.08 158.34L290.11 158.35L290.15 158.37L290.18 158.38L290.23 158.4L290.26 158.41L290.3 158.43L290.33 158.44L290.38 158.44L290.41 158.46L290.45 158.46L290.48 158.47L290.6 158.47L290.63 158.49L290.72 158.49L290.75 158.47L290.87 158.47L290.9 158.46L290.95 158.46L290.97 158.44L291.02 158.44L291.05 158.43L291.09 158.41L291.12 158.4L291.17 158.38L291.2 158.37L291.24 158.35L291.27 158.34L291.3 158.31L291.35 158.29L291.38 158.28L291.41 158.25L298.33 155.43L298.39 155.4L298.42 155.4L298.51 155.35L298.52 155.34L298.64 155.28L298.65 155.26L298.71 155.23L298.73 155.2L298.76 155.19L298.86 155.09L298.89 155.03L298.92 155.01L298.97 154.92L298.98 154.91L299.04 154.79L299.04 154.76L299.07 154.7L299.07 154.67L299.09 154.64L299.09 154.61L299.1 154.58L299.1 154.55L299.16 154.18L299.24 153.8L299.3 153.43L299.37 153.06L299.44 152.7L299.5 152.33L299.58 151.95L299.64 151.58L299.71 151.22L299.86 150.48L299.92 150.1L300 149.75L300.07 149.37L300.22 148.64L300.28 148.27L300.5 147.15L300.58 146.79L300.64 146.42L300.79 145.68L300.85 145.3L300.92 144.92L301 144.54L301.06 144.17L301.13 143.8L301.19 143.41L301.26 143.04L301.32 142.65L301.4 142.28L301.52 141.5L301.59 141.11L301.77 139.95L301.83 139.55L301.85 139.35L301.88 139.14L301.91 138.95L302.04 138.37L302.1 138.18L302.16 138L302.23 137.8L302.38 137.44L302.47 137.27L302.56 137.1L302.65 136.92L302.96 136.43L303.08 136.28L303.2 136.12L303.44 135.82L303.71 135.55L303.86 135.42L303.99 135.28L304.14 135.15L304.31 135.03L304.46 134.91L304.95 134.6L305.13 134.49L305.29 134.4L305.47 134.31L305.65 134.24L305.84 134.15L306.02 134.09L306.21 134.01L306.6 133.9L321.01 134.3L324.32 134.3ZM311.54 186.12L309.66 186.52L307.83 187.07L306.08 187.76L304.4 188.59L302.78 189.55L301.28 190.63L299.85 191.83L298.54 193.14L297.33 194.54L296.22 196.05L295.25 197.64L294.42 199.33L293.7 201.07L293.15 202.89L292.73 204.77L292.48 206.71L292.38 208.69L292.45 210.68L292.7 212.61L293.09 214.49L293.64 216.33L294.33 218.07L295.17 219.76L296.12 221.37L297.21 222.87L298.4 224.31L299.71 225.62L301.11 226.83L302.62 227.93L304.22 228.9L305.9 229.73L307.65 230.45L309.47 231.02L311.34 231.42L313.28 231.67L315.27 231.78L315.37 231.78L317.34 231.7L319.26 231.46L321.14 231.06L322.96 230.51L324.71 229.82L326.39 229L327.99 228.05L329.49 226.98L330.91 225.78L332.22 224.47L333.43 223.07L334.52 221.58L335.49 219.98L336.32 218.31L337.02 216.57L337.59 214.76L337.99 212.88L338.26 210.96L338.35 208.99L338.35 208.89L338.28 206.9L338.04 204.97L337.63 203.09L337.08 201.25L336.4 199.51L335.56 197.82L334.61 196.21L333.52 194.71L332.33 193.27L331.01 191.96L329.61 190.75L328.11 189.65L326.51 188.68L324.82 187.85L323.08 187.13L321.26 186.56L319.38 186.16L317.44 185.89L315.46 185.8L313.48 185.88L311.54 186.12Z" id="anx30cxGB"></path><path d="M466.99 292.15C476.39 286.14 488.02 284.77 498.55 288.46C502.59 289.86 506.15 292.35 508.87 295.66C500.77 300.97 435.95 343.51 427.84 348.83C425.3 339.75 419.9 331.73 412.46 325.94C414.83 324.47 423.15 319.28 424.33 318.53C438.56 309.78 452.68 300.82 466.99 292.15Z" id="ajEuxH13P"></path><path d="M466.99 292.15C476.39 286.14 488.02 284.77 498.55 288.46C502.59 289.86 506.15 292.35 508.87 295.66C500.77 300.97 435.95 343.51 427.84 348.83C425.3 339.75 419.9 331.73 412.46 325.94C414.83 324.47 423.15 319.28 424.33 318.53C438.56 309.78 452.68 300.82 466.99 292.15Z" id="e1hq4bpW7Y"></path><path d="M354.41 304.62C366 297.4 377.49 290.11 389.18 283C400.8 275.65 414.38 271.98 428.13 272.49C434.96 272.87 441.63 274.81 447.61 278.12C447.67 278.17 447.92 278.36 448.38 278.7C443.13 281.96 401.14 307.99 395.89 311.24C392.17 313.52 390.08 314.78 389.66 315.03C389.23 315.19 388.77 315.27 388.3 315.22C381.88 314.1 375.36 313.52 368.83 313.48C360.75 313.48 352.66 312.4 344.48 311.82C344.28 311.81 343.79 311.78 343.02 311.72C349.86 307.45 353.65 305.08 354.41 304.62Z" id="d9mwwmzoJ"></path><path d="M354.41 304.62C366 297.4 377.49 290.11 389.18 283C400.8 275.65 414.38 271.98 428.13 272.49C434.96 272.87 441.63 274.81 447.61 278.12C447.67 278.17 447.92 278.36 448.38 278.7C443.13 281.96 401.14 307.99 395.89 311.24C392.17 313.52 390.08 314.78 389.66 315.03C389.23 315.19 388.77 315.27 388.3 315.22C381.88 314.1 375.36 313.52 368.83 313.48C360.75 313.48 352.66 312.4 344.48 311.82C344.28 311.81 343.79 311.78 343.02 311.72C349.86 307.45 353.65 305.08 354.41 304.62Z" id="azGIBof8s"></path></defs><g><g><g><use xlink:href="#a2tEFi6DFB" opacity="1" fill="#e9bc1d" fill-opacity="1"></use><g><use xlink:href="#a2tEFi6DFB" opacity="1" fill-opacity="0" stroke="#000000" stroke-width="1" stroke-opacity="0"></use></g></g><g><use xlink:href="#b4ujKr5tGb" opacity="1" fill="#000000" fill-opacity="0"></use><g><use xlink:href="#b4ujKr5tGb" opacity="1" fill-opacity="0" stroke="#000000" stroke-width="1" stroke-opacity="0"></use></g></g><g><use xlink:href="#eDGALjeLG" opacity="1" fill="#ffffff" fill-opacity="1"></use><g><use xlink:href="#eDGALjeLG" opacity="1" fill-opacity="0" stroke="#000000" stroke-width="1" stroke-opacity="0"></use></g></g><g><use xlink:href="#e3evycCQrv" opacity="1" fill="#000000" fill-opacity="0"></use><g><use xlink:href="#e3evycCQrv" opacity="1" fill-opacity="0" stroke="#000000" stroke-width="1" stroke-opacity="0"></use></g></g><g><use xlink:href="#eCJrlQrMX" opacity="1" fill="#ffffff" fill-opacity="1"></use><g><use xlink:href="#eCJrlQrMX" opacity="1" fill-opacity="0" stroke="#000000" stroke-width="1" stroke-opacity="0"></use></g></g><g><use xlink:href="#anx30cxGB" opacity="1" fill="#000000" fill-opacity="0"></use><g><use xlink:href="#anx30cxGB" opacity="1" fill-opacity="0" stroke="#000000" stroke-width="1" stroke-opacity="0"></use></g></g><g><use xlink:href="#ajEuxH13P" opacity="1" fill="#ffffff" fill-opacity="1"></use><g><use xlink:href="#ajEuxH13P" opacity="1" fill-opacity="0" stroke="#000000" stroke-width="1" stroke-opacity="0"></use></g></g><g><use xlink:href="#e1hq4bpW7Y" opacity="1" fill="#000000" fill-opacity="0"></use><g><use xlink:href="#e1hq4bpW7Y" opacity="1" fill-opacity="0" stroke="#000000" stroke-width="1" stroke-opacity="0"></use></g></g><g><use xlink:href="#d9mwwmzoJ" opacity="1" fill="#ffffff" fill-opacity="1"></use><g><use xlink:href="#d9mwwmzoJ" opacity="1" fill-opacity="0" stroke="#000000" stroke-width="1" stroke-opacity="0"></use></g></g><g><use xlink:href="#azGIBof8s" opacity="1" fill="#000000" fill-opacity="0"></use><g><use xlink:href="#azGIBof8s" opacity="1" fill-opacity="0" stroke="#000000" stroke-width="1" stroke-opacity="0"></use></g></g></g></g></svg>