<?xml version="1.0" encoding="UTF-8" standalone="no"?>
<!DOCTYPE svg PUBLIC "-//W3C//DTD SVG 1.1//EN" "http://www.w3.org/Graphics/SVG/1.1/DTD/svg11.dtd">
<svg version="1.1" xmlns="http://www.w3.org/2000/svg" xmlns:xlink="http://www.w3.org/1999/xlink" preserveAspectRatio="xMidYMid meet" viewBox="0 0 640 640" width="640" height="640"><defs><path d="M319.28 628.95C146.84 628.95 7.05 489.39 7.05 317.24C7.05 145.08 146.84 5.52 319.28 5.52C491.72 5.52 631.51 145.08 631.51 317.24C631.51 489.39 491.72 628.95 319.28 628.95Z" id="e1pVeojDP"></path><path d="M319.28 628.95C146.84 628.95 7.05 489.39 7.05 317.24C7.05 145.08 146.84 5.52 319.28 5.52C491.72 5.52 631.51 145.08 631.51 317.24C631.51 489.39 491.72 628.95 319.28 628.95Z" id="dEZyCbFLA"></path><path d="M194.03 532.92C194.03 529.25 194.03 510.92 194.03 477.9C192.11 477.9 191.04 477.9 190.82 477.9C131.03 477.56 82.86 428.82 83.2 369.03C83.54 309.25 132.28 261.06 192.07 261.41C251.73 261.75 299.87 310.31 299.71 369.97C299.43 393.74 291.43 416.79 276.92 435.65C265.11 450.98 225.74 504.95 194.03 532.92Z" id="aK4JpWn1Q"></path><path d="M194.03 532.92C194.03 529.25 194.03 510.92 194.03 477.9C192.11 477.9 191.04 477.9 190.82 477.9C131.03 477.56 82.86 428.82 83.2 369.03C83.54 309.25 132.28 261.06 192.07 261.41C251.73 261.75 299.87 310.31 299.71 369.97C299.43 393.74 291.43 416.79 276.92 435.65C265.11 450.98 225.74 504.95 194.03 532.92Z" id="f6OJTsF5Dl"></path><path d="M229.26 366.86C229.26 373.78 234.88 379.4 241.8 379.4C248.72 379.4 254.33 373.78 254.33 366.86C254.33 359.93 248.72 354.32 241.8 354.32C234.88 354.32 229.26 359.93 229.26 366.86Z" id="b7wLMi3HW"></path><path d="M229.26 366.86C229.26 373.78 234.88 379.4 241.8 379.4C248.72 379.4 254.33 373.78 254.33 366.86C254.33 359.93 248.72 354.32 241.8 354.32C234.88 354.32 229.26 359.93 229.26 366.86Z" id="e3lhoCHyaQ"></path><path d="M179.33 366.86C179.33 373.78 184.95 379.4 191.87 379.4C198.79 379.4 204.4 373.78 204.4 366.86C204.4 359.93 198.79 354.32 191.87 354.32C184.95 354.32 179.33 359.93 179.33 366.86Z" id="a1ulXqj59D"></path><path d="M179.33 366.86C179.33 373.78 184.95 379.4 191.87 379.4C198.79 379.4 204.4 373.78 204.4 366.86C204.4 359.93 198.79 354.32 191.87 354.32C184.95 354.32 179.33 359.93 179.33 366.86Z" id="e1E54BAqSi"></path><path d="M129.71 366.86C129.71 373.78 135.32 379.4 142.24 379.4C149.16 379.4 154.78 373.78 154.78 366.86C154.78 359.93 149.16 354.32 142.24 354.32C135.32 354.32 129.71 359.93 129.71 366.86Z" id="c8dV9aeYYH"></path><path d="M129.71 366.86C129.71 373.78 135.32 379.4 142.24 379.4C149.16 379.4 154.78 373.78 154.78 366.86C154.78 359.93 149.16 354.32 142.24 354.32C135.32 354.32 129.71 359.93 129.71 366.86Z" id="d1CvVCiKC"></path><path d="M199.74 149.53L225.74 117.62L194.66 91.2L206.89 75.87L254.13 114.82L214.24 161.75L199.74 149.53Z" id="bJNfdnN9u"></path><path d="M199.74 149.53L225.74 117.62L194.66 91.2L206.89 75.87L254.13 114.82L214.24 161.75L199.74 149.53Z" id="a3gLkjMGhA"></path><path d="M174.98 117.4C189.73 110.28 205.54 105.62 221.81 103.63C222.08 106.01 224.31 125.08 224.6 127.46C157.53 135.13 109.37 195.73 117.06 262.81C117.06 262.85 117.06 262.9 117.07 262.95C115.52 263.15 107.78 264.07 93.87 265.75C93.3 242.45 94.38 225.15 97.08 213.85C107.37 171.7 135.92 136.33 174.98 117.4Z" id="b1u0l766OV"></path><path d="M174.98 117.4C189.73 110.28 205.54 105.62 221.81 103.63C222.08 106.01 224.31 125.08 224.6 127.46C157.53 135.13 109.37 195.73 117.06 262.81C117.06 262.85 117.06 262.9 117.07 262.95C115.52 263.15 107.78 264.07 93.87 265.75C93.3 242.45 94.38 225.15 97.08 213.85C107.37 171.7 135.92 136.33 174.98 117.4Z" id="aMbkJYFUc"></path><path d="M276.39 399.49L276.39 77.01L471.77 77.01L539.83 144.76L539.94 399.49L276.39 399.49Z" id="cS9vZ61mL"></path><path d="M276.39 399.49L276.39 77.01L471.77 77.01L539.83 144.76L539.94 399.49L276.39 399.49Z" id="eQcSEbk0p"></path><path d="M319.08 167.24L504.82 167.24L504.82 198.32L319.08 198.32L319.08 167.24Z" id="aWSjlPnLk"></path><path d="M319.08 167.24L504.82 167.24L504.82 198.32L319.08 198.32L319.08 167.24Z" id="a2MGckwjSE"></path><path d="M471.47 145.59L471.47 77.01L539.94 145.59L471.47 145.59Z" id="baYIm1QzNA"></path><path d="M471.47 145.59L471.47 77.01L539.94 145.59L471.47 145.59Z" id="cDBcl0XA4"></path><path d="M319.08 234.67L438.91 234.67L438.91 265.75L319.08 265.75L319.08 234.67Z" id="nmP3JCWNi"></path><path d="M319.08 234.67L438.91 234.67L438.91 265.75L319.08 265.75L319.08 234.67Z" id="a3Pb004dW"></path><path d="M319.08 301.7L504.82 301.7L504.82 332.77L319.08 332.77L319.08 301.7Z" id="a3PRk0vk7"></path><path d="M319.08 301.7L504.82 301.7L504.82 332.77L319.08 332.77L319.08 301.7Z" id="ggpn9NriW"></path></defs><g><g><g><use xlink:href="#e1pVeojDP" opacity="1" fill="#ecc01b" fill-opacity="1"></use><g><use xlink:href="#e1pVeojDP" opacity="1" fill-opacity="0" stroke="#000000" stroke-width="1" stroke-opacity="0"></use></g></g><g><use xlink:href="#dEZyCbFLA" opacity="1" fill="#000000" fill-opacity="0"></use><g><use xlink:href="#dEZyCbFLA" opacity="1" fill-opacity="0" stroke="#000000" stroke-width="1" stroke-opacity="0"></use></g></g><g><use xlink:href="#aK4JpWn1Q" opacity="1" fill="#ecc01b" fill-opacity="1"></use><g><use xlink:href="#aK4JpWn1Q" opacity="1" fill-opacity="0" stroke="#000000" stroke-width="1" stroke-opacity="0"></use></g></g><g><use xlink:href="#f6OJTsF5Dl" opacity="1" fill="#000000" fill-opacity="0"></use><g><use xlink:href="#f6OJTsF5Dl" opacity="1" fill-opacity="0" stroke="#ffffff" stroke-width="8" stroke-opacity="1"></use></g></g><g><use xlink:href="#b7wLMi3HW" opacity="1" fill="#ffffff" fill-opacity="1"></use><g><use xlink:href="#b7wLMi3HW" opacity="1" fill-opacity="0" stroke="#000000" stroke-width="1" stroke-opacity="0"></use></g></g><g><use xlink:href="#e3lhoCHyaQ" opacity="1" fill="#000000" fill-opacity="0"></use><g><use xlink:href="#e3lhoCHyaQ" opacity="1" fill-opacity="0" stroke="#000000" stroke-width="1" stroke-opacity="0"></use></g></g><g><use xlink:href="#a1ulXqj59D" opacity="1" fill="#ffffff" fill-opacity="1"></use><g><use xlink:href="#a1ulXqj59D" opacity="1" fill-opacity="0" stroke="#000000" stroke-width="1" stroke-opacity="0"></use></g></g><g><use xlink:href="#e1E54BAqSi" opacity="1" fill="#000000" fill-opacity="0"></use><g><use xlink:href="#e1E54BAqSi" opacity="1" fill-opacity="0" stroke="#000000" stroke-width="1" stroke-opacity="0"></use></g></g><g><use xlink:href="#c8dV9aeYYH" opacity="1" fill="#ffffff" fill-opacity="1"></use><g><use xlink:href="#c8dV9aeYYH" opacity="1" fill-opacity="0" stroke="#000000" stroke-width="1" stroke-opacity="0"></use></g></g><g><use xlink:href="#d1CvVCiKC" opacity="1" fill="#000000" fill-opacity="0"></use><g><use xlink:href="#d1CvVCiKC" opacity="1" fill-opacity="0" stroke="#000000" stroke-width="1" stroke-opacity="0"></use></g></g><g><use xlink:href="#bJNfdnN9u" opacity="1" fill="#ffffff" fill-opacity="1"></use><g><use xlink:href="#bJNfdnN9u" opacity="1" fill-opacity="0" stroke="#000000" stroke-width="1" stroke-opacity="0"></use></g></g><g><use xlink:href="#a3gLkjMGhA" opacity="1" fill="#000000" fill-opacity="0"></use><g><use xlink:href="#a3gLkjMGhA" opacity="1" fill-opacity="0" stroke="#000000" stroke-width="1" stroke-opacity="0"></use></g></g><g><use xlink:href="#b1u0l766OV" opacity="1" fill="#ffffff" fill-opacity="1"></use><g><use xlink:href="#b1u0l766OV" opacity="1" fill-opacity="0" stroke="#000000" stroke-width="1" stroke-opacity="0"></use></g></g><g><use xlink:href="#aMbkJYFUc" opacity="1" fill="#000000" fill-opacity="0"></use><g><use xlink:href="#aMbkJYFUc" opacity="1" fill-opacity="0" stroke="#000000" stroke-width="1" stroke-opacity="0"></use></g></g><g><use xlink:href="#cS9vZ61mL" opacity="1" fill="#ffffff" fill-opacity="1"></use><g><use xlink:href="#cS9vZ61mL" opacity="1" fill-opacity="0" stroke="#000000" stroke-width="1" stroke-opacity="0"></use></g></g><g><use xlink:href="#eQcSEbk0p" opacity="1" fill="#000000" fill-opacity="0"></use><g><use xlink:href="#eQcSEbk0p" opacity="1" fill-opacity="0" stroke="#000000" stroke-width="1" stroke-opacity="0"></use></g></g><g><use xlink:href="#aWSjlPnLk" opacity="1" fill="#ecc01b" fill-opacity="1"></use><g><use xlink:href="#aWSjlPnLk" opacity="1" fill-opacity="0" stroke="#000000" stroke-width="1" stroke-opacity="0"></use></g></g><g><use xlink:href="#a2MGckwjSE" opacity="1" fill="#000000" fill-opacity="0"></use><g><use xlink:href="#a2MGckwjSE" opacity="1" fill-opacity="0" stroke="#000000" stroke-width="1" stroke-opacity="0"></use></g></g><g><use xlink:href="#baYIm1QzNA" opacity="1" fill="#ecc01b" fill-opacity="1"></use><g><use xlink:href="#baYIm1QzNA" opacity="1" fill-opacity="0" stroke="#000000" stroke-width="1" stroke-opacity="0"></use></g></g><g><use xlink:href="#cDBcl0XA4" opacity="1" fill="#000000" fill-opacity="0"></use><g><use xlink:href="#cDBcl0XA4" opacity="1" fill-opacity="0" stroke="#000000" stroke-width="1" stroke-opacity="0"></use></g></g><g><use xlink:href="#nmP3JCWNi" opacity="1" fill="#ecc01b" fill-opacity="1"></use><g><use xlink:href="#nmP3JCWNi" opacity="1" fill-opacity="0" stroke="#000000" stroke-width="1" stroke-opacity="0"></use></g></g><g><use xlink:href="#a3Pb004dW" opacity="1" fill="#000000" fill-opacity="0"></use><g><use xlink:href="#a3Pb004dW" opacity="1" fill-opacity="0" stroke="#000000" stroke-width="1" stroke-opacity="0"></use></g></g><g><use xlink:href="#a3PRk0vk7" opacity="1" fill="#ecc01b" fill-opacity="1"></use><g><use xlink:href="#a3PRk0vk7" opacity="1" fill-opacity="0" stroke="#000000" stroke-width="1" stroke-opacity="0"></use></g></g><g><use xlink:href="#ggpn9NriW" opacity="1" fill="#000000" fill-opacity="0"></use><g><use xlink:href="#ggpn9NriW" opacity="1" fill-opacity="0" stroke="#000000" stroke-width="1" stroke-opacity="0"></use></g></g></g></g></svg>