<?xml version="1.0" encoding="UTF-8" standalone="no"?>
<!DOCTYPE svg PUBLIC "-//W3C//DTD SVG 1.1//EN" "http://www.w3.org/Graphics/SVG/1.1/DTD/svg11.dtd">
<svg version="1.1" xmlns="http://www.w3.org/2000/svg" xmlns:xlink="http://www.w3.org/1999/xlink" preserveAspectRatio="xMidYMid meet" viewBox="0 0 640 640" width="640" height="640"><defs><path d="M395.25 351.68L397.16 351.88L399.08 352.17L400.97 352.54L402.89 352.99L404.78 353.53L406.67 354.16L408.58 355.01L410.42 355.95L412.22 356.94L413.95 358L415.63 359.13L417.25 360.32L418.83 361.55L420.32 362.86L421.77 364.22L423.16 365.62L424.47 367.09L425.74 368.6L426.93 370.15L428.05 371.75L429.12 373.39L430.12 375.07L431.05 376.78L431.91 378.52L432.7 380.3L433.41 382.12L434.06 383.96L434.64 385.81L435.14 387.71L435.57 389.6L435.91 391.53L436.18 393.48L436.39 395.42L436.49 397.4L436.54 399.37L436.49 401.35L436.37 403.34L436.17 405.33L435.88 407.32L435.51 409.31L435.04 411.28L434.5 413.27L433.87 415.23L433.14 417.19L433.13 417.24L433.1 417.32L433.1 417.36L433.07 417.44L433.02 417.58L433.01 417.61L432.99 417.65L432.99 417.7L432.96 417.78L432.94 417.82L432.91 417.9L432.87 418.04L432.85 418.07L432.85 418.12L432.84 418.16L432.81 418.24L432.79 418.29L432.76 418.36L432.73 418.46L432.71 418.49L432.67 418.63L432.64 418.7L432.62 418.75L432.62 418.78L431.91 420.65L431.12 422.47L430.29 424.23L429.36 425.94L428.39 427.61L427.34 429.21L426.25 430.77L425.09 432.28L423.87 433.72L422.59 435.11L421.28 436.45L419.91 437.71L418.49 438.93L417.02 440.07L415.51 441.17L413.97 442.2L412.38 443.16L410.76 444.06L409.09 444.89L407.39 445.66L405.68 446.35L403.94 446.97L402.16 447.53L400.36 448.02L398.55 448.42L396.71 448.76L394.85 449.02L392.98 449.22L391.11 449.33L389.22 449.36L387.32 449.32L385.42 449.19L383.51 448.99L381.59 448.7L379.7 448.33L377.8 447.88L375.88 447.34L374 446.71L372.1 445.86L370.25 444.94L368.46 443.93L366.72 442.87L365.04 441.74L363.42 440.57L361.84 439.32L360.35 438.01L358.9 436.65L357.52 435.25L356.2 433.78L354.93 432.28L353.74 430.72L352.62 429.12L351.55 427.48L350.55 425.8L349.62 424.09L348.76 422.35L347.97 420.57L347.26 418.75L346.61 416.91L346.04 415.06L345.53 413.16L345.12 411.27L344.76 409.34L344.48 407.39L344.3 405.45L344.18 403.47L344.13 401.5L344.18 399.52L344.3 397.53L344.51 395.54L344.79 393.55L345.18 391.56L345.63 389.59L346.18 387.61L346.81 385.64L347.52 383.68L347.54 383.63L347.57 383.55L347.59 383.51L347.6 383.43L347.63 383.34L347.65 383.31L347.69 383.17L347.71 383.09L347.72 383.05L347.75 382.97L347.77 382.92L347.8 382.84L347.85 382.71L347.86 382.63L347.88 382.58L347.91 382.51L347.94 382.41L347.96 382.38L347.99 382.29L348 382.26L348.05 382.12L348.06 382.09L348.76 380.22L349.54 378.4L350.39 376.64L351.3 374.93L352.28 373.26L353.33 371.66L354.42 370.1L355.59 368.6L356.8 367.15L358.08 365.76L359.39 364.42L360.76 363.16L362.18 361.94L363.65 360.8L365.16 359.7L366.72 358.68L368.29 357.71L369.93 356.81L371.58 355.98L373.28 355.22L374.99 354.52L376.75 353.9L378.51 353.34L380.31 352.85L382.13 352.45L383.97 352.11L385.82 351.85L387.69 351.65L389.57 351.54L391.45 351.51L393.35 351.55L395.25 351.68ZM387.3 383.92L385.42 384.48L383.63 385.28L381.95 386.3L380.42 387.54L379.03 388.95L377.84 390.56L376.86 392.35L376.1 394.29L375.45 396.36L375.08 398.46L374.99 400.56L375.16 402.63L375.59 404.65L376.27 406.58L377.18 408.43L378.31 410.14L379.66 411.71L381.22 413.1L382.98 414.32L384.93 415.29L385.06 415.34L385.1 415.36L385.33 415.43L385.36 415.45L385.45 415.48L387.49 415.97L389.51 416.17L391.51 416.11L393.47 415.79L395.36 415.23L397.15 414.43L398.83 413.41L400.36 412.19L401.74 410.76L402.93 409.15L403.92 407.36L404.68 405.42L405.32 403.35L405.69 401.25L405.79 399.15L405.62 397.09L405.19 395.08L404.51 393.14L403.6 391.3L402.47 389.57L401.11 388.01L399.55 386.61L397.79 385.41L395.85 384.42L395.76 384.39L395.73 384.37L395.45 384.28L395.42 384.26L395.33 384.23L393.29 383.76L391.27 383.54L389.26 383.6L387.3 383.92Z" id="b1z2jVcqmH"></path><path d="M395.25 351.68L397.16 351.88L399.08 352.17L400.97 352.54L402.89 352.99L404.78 353.53L406.67 354.16L408.58 355.01L410.42 355.95L412.22 356.94L413.95 358L415.63 359.13L417.25 360.32L418.83 361.55L420.32 362.86L421.77 364.22L423.16 365.62L424.47 367.09L425.74 368.6L426.93 370.15L428.05 371.75L429.12 373.39L430.12 375.07L431.05 376.78L431.91 378.52L432.7 380.3L433.41 382.12L434.06 383.96L434.64 385.81L435.14 387.71L435.57 389.6L435.91 391.53L436.18 393.48L436.39 395.42L436.49 397.4L436.54 399.37L436.49 401.35L436.37 403.34L436.17 405.33L435.88 407.32L435.51 409.31L435.04 411.28L434.5 413.27L433.87 415.23L433.14 417.19L433.13 417.24L433.1 417.32L433.1 417.36L433.07 417.44L433.02 417.58L433.01 417.61L432.99 417.65L432.99 417.7L432.96 417.78L432.94 417.82L432.91 417.9L432.87 418.04L432.85 418.07L432.85 418.12L432.84 418.16L432.81 418.24L432.79 418.29L432.76 418.36L432.73 418.46L432.71 418.49L432.67 418.63L432.64 418.7L432.62 418.75L432.62 418.78L431.91 420.65L431.12 422.47L430.29 424.23L429.36 425.94L428.39 427.61L427.34 429.21L426.25 430.77L425.09 432.28L423.87 433.72L422.59 435.11L421.28 436.45L419.91 437.71L418.49 438.93L417.02 440.07L415.51 441.17L413.97 442.2L412.38 443.16L410.76 444.06L409.09 444.89L407.39 445.66L405.68 446.35L403.94 446.97L402.16 447.53L400.36 448.02L398.55 448.42L396.71 448.76L394.85 449.02L392.98 449.22L391.11 449.33L389.22 449.36L387.32 449.32L385.42 449.19L383.51 448.99L381.59 448.7L379.7 448.33L377.8 447.88L375.88 447.34L374 446.71L372.1 445.86L370.25 444.94L368.46 443.93L366.72 442.87L365.04 441.74L363.42 440.57L361.84 439.32L360.35 438.01L358.9 436.65L357.52 435.25L356.2 433.78L354.93 432.28L353.74 430.72L352.62 429.12L351.55 427.48L350.55 425.8L349.62 424.09L348.76 422.35L347.97 420.57L347.26 418.75L346.61 416.91L346.04 415.06L345.53 413.16L345.12 411.27L344.76 409.34L344.48 407.39L344.3 405.45L344.18 403.47L344.13 401.5L344.18 399.52L344.3 397.53L344.51 395.54L344.79 393.55L345.18 391.56L345.63 389.59L346.18 387.61L346.81 385.64L347.52 383.68L347.54 383.63L347.57 383.55L347.59 383.51L347.6 383.43L347.63 383.34L347.65 383.31L347.69 383.17L347.71 383.09L347.72 383.05L347.75 382.97L347.77 382.92L347.8 382.84L347.85 382.71L347.86 382.63L347.88 382.58L347.91 382.51L347.94 382.41L347.96 382.38L347.99 382.29L348 382.26L348.05 382.12L348.06 382.09L348.76 380.22L349.54 378.4L350.39 376.64L351.3 374.93L352.28 373.26L353.33 371.66L354.42 370.1L355.59 368.6L356.8 367.15L358.08 365.76L359.39 364.42L360.76 363.16L362.18 361.94L363.65 360.8L365.16 359.7L366.72 358.68L368.29 357.71L369.93 356.81L371.58 355.98L373.28 355.22L374.99 354.52L376.75 353.9L378.51 353.34L380.31 352.85L382.13 352.45L383.97 352.11L385.82 351.85L387.69 351.65L389.57 351.54L391.45 351.51L393.35 351.55L395.25 351.68ZM387.3 383.92L385.42 384.48L383.63 385.28L381.95 386.3L380.42 387.54L379.03 388.95L377.84 390.56L376.86 392.35L376.1 394.29L375.45 396.36L375.08 398.46L374.99 400.56L375.16 402.63L375.59 404.65L376.27 406.58L377.18 408.43L378.31 410.14L379.66 411.71L381.22 413.1L382.98 414.32L384.93 415.29L385.06 415.34L385.1 415.36L385.33 415.43L385.36 415.45L385.45 415.48L387.49 415.97L389.51 416.17L391.51 416.11L393.47 415.79L395.36 415.23L397.15 414.43L398.83 413.41L400.36 412.19L401.74 410.76L402.93 409.15L403.92 407.36L404.68 405.42L405.32 403.35L405.69 401.25L405.79 399.15L405.62 397.09L405.19 395.08L404.51 393.14L403.6 391.3L402.47 389.57L401.11 388.01L399.55 386.61L397.79 385.41L395.85 384.42L395.76 384.39L395.73 384.37L395.45 384.28L395.42 384.26L395.33 384.23L393.29 383.76L391.27 383.54L389.26 383.6L387.3 383.92Z" id="b1udxd2mB"></path><path d="M118.29 554.74C117.38 550.83 112.88 531.25 104.75 496.01C140.1 503.58 159.76 507.78 163.67 508.61C165.71 509.48 168.06 508.52 168.91 506.49C169.77 504.46 168.81 502.12 166.78 501.27C166.33 501.07 165.85 500.96 165.36 500.95C158.86 499.57 106.83 488.48 100.33 487.09C98.2 486.75 96.21 488.19 95.87 490.31C95.78 490.92 95.83 491.55 96.03 492.12C97.51 498.62 109.45 550.46 110.93 556.94C111.46 559.04 113.56 560.35 115.67 559.89C115.61 559.81 115.41 559.55 115.35 559.47C117.45 558.95 118.76 556.85 118.29 554.74Z" id="ccJDUAI5s"></path><path d="M118.29 554.74C117.38 550.83 112.88 531.25 104.75 496.01C140.1 503.58 159.76 507.78 163.67 508.61C165.71 509.48 168.06 508.52 168.91 506.49C169.77 504.46 168.81 502.12 166.78 501.27C166.33 501.07 165.85 500.96 165.36 500.95C158.86 499.57 106.83 488.48 100.33 487.09C98.2 486.75 96.21 488.19 95.87 490.31C95.78 490.92 95.83 491.55 96.03 492.12C97.51 498.62 109.45 550.46 110.93 556.94C111.46 559.04 113.56 560.35 115.67 559.89C115.61 559.81 115.41 559.55 115.35 559.47C117.45 558.95 118.76 556.85 118.29 554.74Z" id="aRP9D2Gz"></path><path d="M220.83 483.8L278.09 483.8C278.09 460.1 278.09 446.94 278.09 444.3C328.51 444.3 356.52 444.3 362.14 444.3C362.14 446.6 362.14 448.92 362.14 451.23C362.14 464.25 362.14 474.59 362.14 477.18C362.14 482.23 362.14 482.23 367.17 482.32C370.27 482.32 385.79 482.32 413.72 482.32C413.96 482.32 415.19 482.32 417.39 482.32L417.39 505.85L220.83 505.96L220.83 483.8Z" id="b19Vkmjn6j"></path><path d="M220.83 483.8L278.09 483.8C278.09 460.1 278.09 446.94 278.09 444.3C328.51 444.3 356.52 444.3 362.14 444.3C362.14 446.6 362.14 448.92 362.14 451.23C362.14 464.25 362.14 474.59 362.14 477.18C362.14 482.23 362.14 482.23 367.17 482.32C370.27 482.32 385.79 482.32 413.72 482.32C413.96 482.32 415.19 482.32 417.39 482.32L417.39 505.85L220.83 505.96L220.83 483.8Z" id="b1dR4pUiSI"></path><path d="M351.83 357C351.83 358.19 351.83 364.14 351.83 374.85C362.58 374.88 448.55 375.14 459.3 375.18C459.3 364.45 459.3 358.5 459.3 357.31C459.36 347.46 451.49 339.41 441.66 339.24C427.31 339.24 377.07 339.24 369.9 339.24C360.02 339.18 351.95 347.11 351.83 357Z" id="f1EmbJBDjH"></path><path d="M351.83 357C351.83 358.19 351.83 364.14 351.83 374.85C362.58 374.88 448.55 375.14 459.3 375.18C459.3 364.45 459.3 358.5 459.3 357.31C459.36 347.46 451.49 339.41 441.66 339.24C427.31 339.24 377.07 339.24 369.9 339.24C360.02 339.18 351.95 347.11 351.83 357Z" id="dxWFwV2p6"></path><path d="M409.75 229.75L411.74 229.96L413.69 230.27L415.62 230.66L417.51 231.14L419.38 231.68L421.2 232.29L422.99 232.99L424.75 233.76L426.46 234.59L428.15 235.5L429.78 236.48L431.37 237.52L432.9 238.62L434.39 239.79L435.83 241.01L437.22 242.29L438.56 243.63L439.84 245.02L441.06 246.46L442.22 247.96L443.31 249.5L444.35 251.09L445.32 252.72L446.23 254.4L447.06 256.12L447.83 257.88L448.51 259.67L449.13 261.5L449.67 263.37L450.13 265.27L450.52 267.2L450.83 269.14L451.04 271.13L451.17 273.14L451.21 275.16L451.17 277.2L451.03 279.2L450.81 281.18L450.5 283.14L450.12 285.06L449.64 286.98L449.1 288.84L448.48 290.67L447.77 292.47L447.02 294.23L446.17 295.94L445.26 297.62L444.29 299.26L443.24 300.85L442.14 302.39L440.97 303.89L439.75 305.34L438.45 306.73L437.11 308.07L435.72 309.35L434.27 310.57L432.77 311.73L431.23 312.84L429.64 313.87L428.01 314.84L426.32 315.75L424.6 316.59L422.84 317.36L421.03 318.05L419.2 318.67L417.33 319.21L415.43 319.67L413.5 320.06L411.54 320.35L409.55 320.57L407.55 320.71L405.51 320.75L403.49 320.71L401.48 320.57L399.49 320.34L397.53 320.04L395.6 319.64L393.71 319.18L391.85 318.64L390.02 318.01L388.23 317.31L386.47 316.54L384.74 315.71L383.07 314.8L381.44 313.81L379.85 312.78L378.31 311.67L376.81 310.49L375.37 309.27L373.99 307.99L372.64 306.65L371.36 305.25L370.14 303.8L368.99 302.3L367.89 300.76L366.86 299.17L365.89 297.53L364.97 295.85L364.14 294.12L363.39 292.36L362.69 290.57L362.09 288.74L361.55 286.87L361.09 284.96L360.7 283.03L360.41 281.08L360.19 279.09L360.07 277.09L360.02 275.05L360.08 273.03L360.21 271.01L360.44 269.03L360.75 267.07L361.13 265.14L361.6 263.25L362.15 261.38L362.77 259.56L363.46 257.75L364.23 255.99L365.08 254.28L365.99 252.6L366.97 250.96L368 249.37L369.11 247.85L370.28 246.35L371.5 244.9L372.8 243.51L374.14 242.18L375.53 240.9L376.98 239.68L378.48 238.53L380.02 237.43L381.61 236.38L383.24 235.43L384.93 234.52L386.65 233.68L388.41 232.93L390.22 232.23L392.05 231.61L393.92 231.07L395.82 230.63L397.75 230.24L399.71 229.95L401.68 229.73L403.69 229.61L405.73 229.56L407.75 229.61L409.75 229.75ZM401.44 235.46L399.45 235.72L397.47 236.07L395.54 236.52L393.64 237.06L391.79 237.69L389.99 238.42L388.21 239.22L386.5 240.1L384.83 241.07L383.21 242.11L381.65 243.23L380.14 244.42L378.71 245.67L377.32 247L376.01 248.39L374.74 249.84L373.57 251.35L372.46 252.92L371.42 254.54L370.47 256.23L369.59 257.94L368.8 259.71L368.09 261.53L367.46 263.39L366.93 265.28L366.49 267.21L366.15 269.19L365.9 271.18L365.75 273.21L365.7 275.27L365.76 277.32L365.92 279.34L366.18 281.35L366.53 283.31L366.98 285.23L367.52 287.13L368.15 288.98L368.88 290.79L369.68 292.56L370.58 294.28L371.53 295.94L372.58 297.56L373.69 299.12L374.88 300.63L376.15 302.08L377.47 303.46L378.86 304.78L380.31 306.03L381.82 307.21L383.38 308.32L385.02 309.35L386.68 310.31L388.41 311.19L390.17 311.97L391.99 312.7L393.84 313.32L395.74 313.84L397.69 314.29L399.65 314.63L401.64 314.88L403.67 315.03L405.73 315.08L407.78 315.01L409.8 314.86L411.79 314.6L413.75 314.24L415.68 313.8L417.58 313.26L419.43 312.62L421.23 311.91L422.99 311.11L424.72 310.23L426.39 309.26L427.99 308.22L429.55 307.11L431.06 305.93L432.51 304.68L433.89 303.35L435.21 301.96L436.46 300.51L437.63 299.01L438.75 297.44L439.78 295.82L440.74 294.15L441.62 292.44L442.42 290.67L443.13 288.86L443.76 287.01L444.29 285.11L444.73 283.18L445.09 281.22L445.33 279.23L445.49 277.21L445.54 275.16L445.49 273.11L445.32 271.07L445.07 269.08L444.72 267.1L444.25 265.18L443.71 263.28L443.08 261.43L442.37 259.6L441.57 257.85L440.67 256.12L439.72 254.45L438.67 252.83L437.56 251.26L436.37 249.76L435.1 248.31L433.78 246.92L432.39 245.59L430.94 244.34L429.43 243.16L427.87 242.05L426.25 241.01L424.57 240.05L422.84 239.18L421.08 238.37L419.26 237.66L417.41 237.03L415.51 236.49L413.56 236.04L411.6 235.69L409.6 235.44L407.58 235.29L405.51 235.24L403.46 235.29L401.44 235.46Z" id="b5pbd0byK"></path><path d="M409.75 229.75L411.74 229.96L413.69 230.27L415.62 230.66L417.51 231.14L419.38 231.68L421.2 232.29L422.99 232.99L424.75 233.76L426.46 234.59L428.15 235.5L429.78 236.48L431.37 237.52L432.9 238.62L434.39 239.79L435.83 241.01L437.22 242.29L438.56 243.63L439.84 245.02L441.06 246.46L442.22 247.96L443.31 249.5L444.35 251.09L445.32 252.72L446.23 254.4L447.06 256.12L447.83 257.88L448.51 259.67L449.13 261.5L449.67 263.37L450.13 265.27L450.52 267.2L450.83 269.14L451.04 271.13L451.17 273.14L451.21 275.16L451.17 277.2L451.03 279.2L450.81 281.18L450.5 283.14L450.12 285.06L449.64 286.98L449.1 288.84L448.48 290.67L447.77 292.47L447.02 294.23L446.17 295.94L445.26 297.62L444.29 299.26L443.24 300.85L442.14 302.39L440.97 303.89L439.75 305.34L438.45 306.73L437.11 308.07L435.72 309.35L434.27 310.57L432.77 311.73L431.23 312.84L429.64 313.87L428.01 314.84L426.32 315.75L424.6 316.59L422.84 317.36L421.03 318.05L419.2 318.67L417.33 319.21L415.43 319.67L413.5 320.06L411.54 320.35L409.55 320.57L407.55 320.71L405.51 320.75L403.49 320.71L401.48 320.57L399.49 320.34L397.53 320.04L395.6 319.64L393.71 319.18L391.85 318.64L390.02 318.01L388.23 317.31L386.47 316.54L384.74 315.71L383.07 314.8L381.44 313.81L379.85 312.78L378.31 311.67L376.81 310.49L375.37 309.27L373.99 307.99L372.64 306.65L371.36 305.25L370.14 303.8L368.99 302.3L367.89 300.76L366.86 299.17L365.89 297.53L364.97 295.85L364.14 294.12L363.39 292.36L362.69 290.57L362.09 288.74L361.55 286.87L361.09 284.96L360.7 283.03L360.41 281.08L360.19 279.09L360.07 277.09L360.02 275.05L360.08 273.03L360.21 271.01L360.44 269.03L360.75 267.07L361.13 265.14L361.6 263.25L362.15 261.38L362.77 259.56L363.46 257.75L364.23 255.99L365.08 254.28L365.99 252.6L366.97 250.96L368 249.37L369.11 247.85L370.28 246.35L371.5 244.9L372.8 243.51L374.14 242.18L375.53 240.9L376.98 239.68L378.48 238.53L380.02 237.43L381.61 236.38L383.24 235.43L384.93 234.52L386.65 233.68L388.41 232.93L390.22 232.23L392.05 231.61L393.92 231.07L395.82 230.63L397.75 230.24L399.71 229.95L401.68 229.73L403.69 229.61L405.73 229.56L407.75 229.61L409.75 229.75ZM401.44 235.46L399.45 235.72L397.47 236.07L395.54 236.52L393.64 237.06L391.79 237.69L389.99 238.42L388.21 239.22L386.5 240.1L384.83 241.07L383.21 242.11L381.65 243.23L380.14 244.42L378.71 245.67L377.32 247L376.01 248.39L374.74 249.84L373.57 251.35L372.46 252.92L371.42 254.54L370.47 256.23L369.59 257.94L368.8 259.71L368.09 261.53L367.46 263.39L366.93 265.28L366.49 267.21L366.15 269.19L365.9 271.18L365.75 273.21L365.7 275.27L365.76 277.32L365.92 279.34L366.18 281.35L366.53 283.31L366.98 285.23L367.52 287.13L368.15 288.98L368.88 290.79L369.68 292.56L370.58 294.28L371.53 295.94L372.58 297.56L373.69 299.12L374.88 300.63L376.15 302.08L377.47 303.46L378.86 304.78L380.31 306.03L381.82 307.21L383.38 308.32L385.02 309.35L386.68 310.31L388.41 311.19L390.17 311.97L391.99 312.7L393.84 313.32L395.74 313.84L397.69 314.29L399.65 314.63L401.64 314.88L403.67 315.03L405.73 315.08L407.78 315.01L409.8 314.86L411.79 314.6L413.75 314.24L415.68 313.8L417.58 313.26L419.43 312.62L421.23 311.91L422.99 311.11L424.72 310.23L426.39 309.26L427.99 308.22L429.55 307.11L431.06 305.93L432.51 304.68L433.89 303.35L435.21 301.96L436.46 300.51L437.63 299.01L438.75 297.44L439.78 295.82L440.74 294.15L441.62 292.44L442.42 290.67L443.13 288.86L443.76 287.01L444.29 285.11L444.73 283.18L445.09 281.22L445.33 279.23L445.49 277.21L445.54 275.16L445.49 273.11L445.32 271.07L445.07 269.08L444.72 267.1L444.25 265.18L443.71 263.28L443.08 261.43L442.37 259.6L441.57 257.85L440.67 256.12L439.72 254.45L438.67 252.83L437.56 251.26L436.37 249.76L435.1 248.31L433.78 246.92L432.39 245.59L430.94 244.34L429.43 243.16L427.87 242.05L426.25 241.01L424.57 240.05L422.84 239.18L421.08 238.37L419.26 237.66L417.41 237.03L415.51 236.49L413.56 236.04L411.6 235.69L409.6 235.44L407.58 235.29L405.51 235.24L403.46 235.29L401.44 235.46Z" id="nx7ee7fg1"></path><path d="M441.17 295.31L443.14 295.46L445.12 295.71L447.08 296.02L449.02 296.42L450.97 296.88L452.91 297.44L454.82 298.06L456.72 298.77L458.62 299.55L460.47 300.43L462.31 301.37L464.13 302.41L465.92 303.53L467.65 304.71L469.33 305.96L470.93 307.25L472.48 308.6L473.94 310L475.36 311.45L476.7 312.95L477.98 314.49L479.19 316.08L480.35 317.71L481.41 319.37L482.43 321.08L483.35 322.81L484.23 324.57L485.04 326.37L485.76 328.19L486.41 330.03L487 331.89L487.52 333.78L487.97 335.69L488.34 337.6L488.63 339.55L488.85 341.49L489 343.44L489.08 345.4L489.06 347.37L488.99 349.33L488.85 351.29L488.62 353.27L488.31 355.21L487.92 357.17L487.46 359.11L486.92 361.04L486.3 362.96L485.59 364.85L484.82 366.74L483.96 368.6L483.01 370.44L482 372.24L480.89 374.03L480.87 374.06L480.81 374.14L480.78 374.22L479.59 375.95L478.34 377.63L477.04 379.23L475.69 380.79L474.28 382.27L472.82 383.68L471.32 385.04L469.76 386.32L468.17 387.52L466.55 388.66L464.87 389.74L463.17 390.76L461.43 391.69L459.65 392.57L457.86 393.35L456.03 394.09L454.18 394.74L452.31 395.33L450.41 395.84L448.5 396.28L446.58 396.65L444.64 396.95L442.7 397.16L440.74 397.3L438.76 397.38L436.8 397.36L434.83 397.29L432.85 397.12L430.89 396.89L428.93 396.58L426.97 396.18L425.03 395.71L423.1 395.16L421.17 394.54L419.27 393.83L417.39 393.04L415.52 392.16L413.69 391.22L411.87 390.19L410.08 389.06L408.35 387.89L406.67 386.64L405.06 385.33L403.5 383.99L402.04 382.57L400.62 381.12L399.28 379.62L398 378.06L396.78 376.47L395.63 374.84L394.55 373.17L393.55 371.47L392.61 369.73L391.73 367.95L390.94 366.15L390.2 364.33L389.55 362.48L388.97 360.61L388.46 358.71L388.01 356.8L387.66 354.87L387.36 352.94L387.13 350.98L386.99 349.02L386.93 347.06L386.93 345.09L387.01 343.13L387.18 341.15L387.41 339.19L387.72 337.22L388.12 335.27L388.58 333.33L389.14 331.39L389.76 329.47L390.47 327.57L391.27 325.69L392.13 323.82L393.09 321.99L394.11 320.17L395.23 318.38L396.42 316.65L397.66 314.97L398.97 313.36L400.31 311.8L401.73 310.32L403.18 308.92L404.68 307.56L406.23 306.28L407.82 305.08L409.46 303.92L411.13 302.86L412.84 301.84L414.57 300.91L416.34 300.03L418.15 299.23L419.97 298.5L421.82 297.86L423.69 297.27L425.58 296.76L427.5 296.31L429.43 295.94L431.35 295.65L433.31 295.43L435.27 295.29L437.23 295.22L439.21 295.23L441.17 295.31ZM433.67 330.1L431.77 330.77L429.95 331.63L428.24 332.74L426.65 334.04L425.21 335.57L423.96 337.28L422.91 339.15L422.13 341.09L421.6 343.07L421.31 345.09L421.28 347.09L421.46 349.1L421.9 351.06L422.54 352.96L423.42 354.76L424.52 356.47L425.83 358.06L427.34 359.5L429.07 360.76L430.94 361.8L432.87 362.59L434.84 363.11L436.86 363.4L438.87 363.45L440.88 363.25L442.83 362.83L444.73 362.17L446.54 361.3L448.25 360.21L449.84 358.9L451.28 357.39L452.54 355.66L452.54 355.64L453.59 353.79L454.38 351.85L454.9 349.87L455.19 347.85L455.23 345.84L455.04 343.84L454.61 341.88L453.96 339.98L453.08 338.16L451.98 336.45L450.67 334.87L449.16 333.44L447.43 332.17L445.57 331.14L443.64 330.35L441.65 329.81L439.64 329.53L437.62 329.49L435.63 329.69L433.67 330.1Z" id="a1c98INfdY"></path><path d="M441.17 295.31L443.14 295.46L445.12 295.71L447.08 296.02L449.02 296.42L450.97 296.88L452.91 297.44L454.82 298.06L456.72 298.77L458.62 299.55L460.47 300.43L462.31 301.37L464.13 302.41L465.92 303.53L467.65 304.71L469.33 305.96L470.93 307.25L472.48 308.6L473.94 310L475.36 311.45L476.7 312.95L477.98 314.49L479.19 316.08L480.35 317.71L481.41 319.37L482.43 321.08L483.35 322.81L484.23 324.57L485.04 326.37L485.76 328.19L486.41 330.03L487 331.89L487.52 333.78L487.97 335.69L488.34 337.6L488.63 339.55L488.85 341.49L489 343.44L489.08 345.4L489.06 347.37L488.99 349.33L488.85 351.29L488.62 353.27L488.31 355.21L487.92 357.17L487.46 359.11L486.92 361.04L486.3 362.96L485.59 364.85L484.82 366.74L483.96 368.6L483.01 370.44L482 372.24L480.89 374.03L480.87 374.06L480.81 374.14L480.78 374.22L479.59 375.95L478.34 377.63L477.04 379.23L475.69 380.79L474.28 382.27L472.82 383.68L471.32 385.04L469.76 386.32L468.17 387.52L466.55 388.66L464.87 389.74L463.17 390.76L461.43 391.69L459.65 392.57L457.86 393.35L456.03 394.09L454.18 394.74L452.31 395.33L450.41 395.84L448.5 396.28L446.58 396.65L444.64 396.95L442.7 397.16L440.74 397.3L438.76 397.38L436.8 397.36L434.83 397.29L432.85 397.12L430.89 396.89L428.93 396.58L426.97 396.18L425.03 395.71L423.1 395.16L421.17 394.54L419.27 393.83L417.39 393.04L415.52 392.16L413.69 391.22L411.87 390.19L410.08 389.06L408.35 387.89L406.67 386.64L405.06 385.33L403.5 383.99L402.04 382.57L400.62 381.12L399.28 379.62L398 378.06L396.78 376.47L395.63 374.84L394.55 373.17L393.55 371.47L392.61 369.73L391.73 367.95L390.94 366.15L390.2 364.33L389.55 362.48L388.97 360.61L388.46 358.71L388.01 356.8L387.66 354.87L387.36 352.94L387.13 350.98L386.99 349.02L386.93 347.06L386.93 345.09L387.01 343.13L387.18 341.15L387.41 339.19L387.72 337.22L388.12 335.27L388.58 333.33L389.14 331.39L389.76 329.47L390.47 327.57L391.27 325.69L392.13 323.82L393.09 321.99L394.11 320.17L395.23 318.38L396.42 316.65L397.66 314.97L398.97 313.36L400.31 311.8L401.73 310.32L403.18 308.92L404.68 307.56L406.23 306.28L407.82 305.08L409.46 303.92L411.13 302.86L412.84 301.84L414.57 300.91L416.34 300.03L418.15 299.23L419.97 298.5L421.82 297.86L423.69 297.27L425.58 296.76L427.5 296.31L429.43 295.94L431.35 295.65L433.31 295.43L435.27 295.29L437.23 295.22L439.21 295.23L441.17 295.31ZM433.67 330.1L431.77 330.77L429.95 331.63L428.24 332.74L426.65 334.04L425.21 335.57L423.96 337.28L422.91 339.15L422.13 341.09L421.6 343.07L421.31 345.09L421.28 347.09L421.46 349.1L421.9 351.06L422.54 352.96L423.42 354.76L424.52 356.47L425.83 358.06L427.34 359.5L429.07 360.76L430.94 361.8L432.87 362.59L434.84 363.11L436.86 363.4L438.87 363.45L440.88 363.25L442.83 362.83L444.73 362.17L446.54 361.3L448.25 360.21L449.84 358.9L451.28 357.39L452.54 355.66L452.54 355.64L453.59 353.79L454.38 351.85L454.9 349.87L455.19 347.85L455.23 345.84L455.04 343.84L454.61 341.88L453.96 339.98L453.08 338.16L451.98 336.45L450.67 334.87L449.16 333.44L447.43 332.17L445.57 331.14L443.64 330.35L441.65 329.81L439.64 329.53L437.62 329.49L435.63 329.69L433.67 330.1Z" id="ayf4IdCv"></path><path d="M323.36 637.81C148.49 637.81 6.72 496.29 6.72 321.7C6.72 147.12 148.49 5.58 323.36 5.58C498.24 5.58 640 147.12 640 321.7C640 496.29 498.24 637.81 323.36 637.81Z" id="b2JGtFCb7"></path><path d="M323.36 637.81C148.49 637.81 6.72 496.29 6.72 321.7C6.72 147.12 148.49 5.58 323.36 5.58C498.24 5.58 640 147.12 640 321.7C640 496.29 498.24 637.81 323.36 637.81Z" id="azidVyqQe"></path><path d="M458.7 211.66L463.16 212.11L467.57 212.74L471.91 213.55L476.19 214.52L480.42 215.66L484.57 216.96L488.65 218.41L492.64 220.01L496.58 221.77L500.42 223.67L504.17 225.72L507.84 227.9L511.42 230.21L514.89 232.66L518.27 235.26L521.54 237.96L524.71 240.78L527.76 243.73L530.69 246.78L533.52 249.96L536.22 253.23L538.79 256.61L541.23 260.1L543.55 263.68L545.72 267.35L547.76 271.1L549.66 274.96L551.42 278.88L553.01 282.89L554.46 286.96L555.74 291.13L556.86 295.34L557.83 299.63L558.62 303.98L559.25 308.38L559.7 312.84L559.96 317.34L560.06 321.91L559.96 326.46L559.67 330.97L559.22 335.43L558.59 339.83L557.79 344.18L556.82 348.47L555.67 352.68L554.38 356.83L552.93 360.92L551.32 364.91L549.56 368.85L547.67 372.69L545.63 376.44L543.44 380.11L541.12 383.68L538.67 387.17L536.09 390.53L533.38 393.8L530.55 396.96L527.61 400.02L524.55 402.97L521.37 405.79L518.1 408.49L514.72 411.07L511.24 413.5L507.66 415.82L503.98 417.99L500.23 420.03L496.39 421.93L492.46 423.67L488.45 425.28L484.37 426.71L480.21 428.01L475.99 429.13L471.7 430.09L467.35 430.89L462.96 431.51L458.5 431.96L453.99 432.24L449.42 432.31L444.87 432.22L440.37 431.94L435.91 431.5L431.51 430.86L427.16 430.06L422.87 429.09L418.66 427.95L414.51 426.65L410.42 425.2L406.42 423.6L402.5 421.84L398.66 419.94L394.89 417.89L391.22 415.71L387.66 413.38L384.19 410.93L380.81 408.35L377.53 405.65L374.37 402.83L371.32 399.88L368.37 396.82L365.55 393.65L362.85 390.37L360.28 387L357.83 383.51L355.52 379.93L353.34 376.26L351.3 372.49L349.41 368.65L347.66 364.73L346.06 360.72L344.62 356.63L343.33 352.48L342.2 348.27L341.24 343.98L340.44 339.63L339.82 335.23L339.38 330.77L339.1 326.25L339.02 321.7L307.5 321.7L307.48 323.86L307.42 326.02L307.31 328.18L307.16 330.32L306.97 332.47L306.74 334.59L306.48 336.72L306.17 338.84L305.82 340.95L305.41 343.05L304.98 345.13L304.52 347.22L304.01 349.28L303.46 351.34L302.87 353.39L302.24 355.41L301.56 357.43L300.86 359.44L300.11 361.43L299.34 363.4L298.5 365.36L297.65 367.31L296.76 369.24L295.82 371.15L294.85 373.05L293.84 374.91L292.79 376.78L291.71 378.62L290.6 380.42L289.44 382.23L288.26 384L287.04 385.75L285.79 387.49L284.49 389.19L283.16 390.88L281.79 392.53L280.4 394.19L278.97 395.79L277.5 397.38L276.01 398.94L272.76 402.13L269.42 405.16L265.98 408.03L262.46 410.73L258.85 413.27L255.16 415.66L251.41 417.89L247.58 419.95L243.69 421.85L239.74 423.6L235.76 425.17L231.72 426.59L227.63 427.85L223.51 428.95L219.36 429.88L215.18 430.65L210.98 431.26L206.76 431.71L202.53 432L198.3 432.13L194.06 432.1L189.81 431.9L185.6 431.54L181.37 431.02L177.19 430.34L173.01 429.49L168.87 428.49L164.75 427.33L160.68 425.99L156.65 424.51L152.67 422.84L148.75 421.03L144.88 419.04L141.08 416.91L137.35 414.6L133.68 412.13L130.1 409.51L126.6 406.71L123.19 403.77L119.87 400.65L116.67 397.4L113.65 394.05L110.78 390.61L108.08 387.09L105.53 383.48L103.14 379.79L100.92 376.04L98.87 372.21L96.95 368.32L95.21 364.39L93.64 360.39L92.22 356.35L90.97 352.26L89.87 348.14L88.93 343.99L88.16 339.81L87.54 335.61L87.1 331.4L86.8 327.17L86.68 322.93L86.71 318.69L86.91 314.46L87.26 310.23L87.79 306.02L88.47 301.82L89.32 297.66L90.32 293.5L91.49 289.4L92.82 285.33L94.32 281.3L95.97 277.32L97.77 273.38L99.76 269.53L101.91 265.72L104.21 261.98L106.68 258.32L109.3 254.73L112.09 251.24L115.04 247.83L118.16 244.51L121.41 241.32L124.76 238.3L128.2 235.43L131.72 232.71L135.33 230.16L139.02 227.79L142.77 225.57L146.59 223.5L150.48 221.6L154.42 219.86L158.41 218.27L162.46 216.86L166.54 215.6L170.66 214.5L174.81 213.56L179 212.79L183.19 212.19L187.41 211.73L191.65 211.45L195.88 211.31L200.12 211.36L204.35 211.54L208.58 211.91L212.79 212.42L216.99 213.11L221.17 213.95L225.3 214.95L229.41 216.12L233.48 217.45L237.51 218.95L241.49 220.6L245.42 222.42L249.28 224.39L253.09 226.54L256.83 228.84L260.48 231.31L264.08 233.94L267.58 236.72L270.99 239.68L274.31 242.8L296.16 242.8L296.36 242.45L297.01 241.43L297.47 240.75L297.7 240.43L297.93 240.09L298.18 239.76L298.41 239.44L298.67 239.13L298.92 238.81L299.18 238.5L299.43 238.19L299.71 237.89L299.97 237.59L300.25 237.29L300.51 237L300.8 236.71L301.08 236.41L301.36 236.14L301.94 235.58L302.25 235.3L302.54 235.04L303.47 234.25L303.78 234.01L304.75 233.27L305.08 233.03L305.41 232.8L305.74 232.57L306.08 232.36L306.42 232.12L306.76 231.91L307.11 231.71L307.45 231.49L308.59 230.86L309.74 230.29L310.91 229.75L312.08 229.27L313.27 228.84L314.46 228.47L315.66 228.13L316.86 227.85L318.08 227.62L319.3 227.45L320.52 227.31L321.74 227.22L322.96 227.19L324.18 227.2L325.38 227.25L326.6 227.36L327.8 227.49L328.99 227.7L330.18 227.93L331.35 228.22L332.53 228.54L333.67 228.91L334.81 229.33L335.94 229.79L337.03 230.3L338.11 230.84L339.18 231.45L340.23 232.08L341.24 232.74L342.25 233.47L343.22 234.21L344.16 235.01L345.07 235.84L345.97 236.72L346.81 237.63L347.63 238.59L348.42 239.59L349.17 240.63L349.9 241.69L350.58 242.8L372.43 242.8L373.99 241.3L375.56 239.84L377.18 238.4L378.82 237L380.47 235.64L382.16 234.3L383.86 233L385.59 231.75L387.35 230.52L389.12 229.33L390.91 228.17L392.73 227.06L394.57 225.98L396.42 224.93L398.29 223.93L400.19 222.96L402.1 222.02L404.03 221.12L405.97 220.26L407.93 219.44L409.91 218.65L411.9 217.91L413.9 217.2L415.92 216.54L417.95 215.91L420 215.32L422.05 214.77L424.12 214.26L426.2 213.78L428.28 213.35L430.38 212.96L432.5 212.6L434.61 212.3L436.74 212.02L438.87 211.8L441.01 211.62L443.16 211.46L445.32 211.36L447.48 211.31L449.64 211.28L454.19 211.39L458.7 211.66ZM443.17 242.85L439.98 243.17L436.85 243.62L433.75 244.19L430.68 244.88L427.67 245.69L424.7 246.61L421.79 247.65L418.93 248.79L416.13 250.04L413.38 251.4L410.69 252.85L408.09 254.4L405.53 256.07L403.04 257.81L400.63 259.65L398.29 261.58L396.04 263.6L393.84 265.7L391.75 267.88L389.74 270.14L387.81 272.47L385.96 274.9L384.22 277.38L382.57 279.93L381.01 282.55L379.56 285.23L378.2 287.98L376.95 290.77L375.81 293.64L374.77 296.54L373.85 299.51L373.03 302.53L372.35 305.59L371.78 308.69L371.33 311.84L371.01 315.01L370.81 318.24L370.75 321.48L370.81 324.74L371.01 327.96L371.33 331.14L371.78 334.29L372.35 337.39L373.03 340.44L373.85 343.47L374.77 346.43L375.81 349.33L376.95 352.2L378.2 354.99L379.56 357.74L381.01 360.42L382.57 363.05L384.22 365.59L385.96 368.08L387.81 370.5L389.74 372.83L391.75 375.1L393.84 377.27L396.04 379.37L398.29 381.39L400.63 383.32L403.04 385.16L405.53 386.9L408.09 388.57L410.69 390.13L413.38 391.58L416.13 392.94L418.93 394.19L421.79 395.33L424.7 396.36L427.67 397.29L430.68 398.09L433.75 398.78L436.85 399.35L439.98 399.8L443.17 400.13L446.38 400.31L449.64 400.39L449.64 400.59L452.9 400.53L456.12 400.33L459.3 400L462.45 399.54L465.56 398.97L468.62 398.27L471.64 397.46L474.61 396.53L477.52 395.5L480.38 394.34L483.18 393.09L485.93 391.73L488.62 390.27L491.24 388.71L493.8 387.04L496.28 385.28L498.69 383.45L501.02 381.5L503.29 379.48L505.47 377.38L507.58 375.19L509.59 372.92L511.51 370.58L513.35 368.17L515.11 365.67L516.76 363.13L518.32 360.49L519.77 357.8L521.13 355.06L522.38 352.25L523.5 349.38L524.54 346.46L525.46 343.5L526.27 340.47L526.96 337.4L527.51 334.3L527.96 331.15L528.29 327.96L528.47 324.75L528.53 321.48L528.47 318.24L528.27 315.01L527.95 311.84L527.5 308.69L526.93 305.59L526.25 302.53L525.43 299.51L524.52 296.54L523.49 293.64L522.33 290.77L521.08 287.98L519.72 285.23L518.27 282.55L516.71 279.93L515.06 277.38L513.32 274.9L511.47 272.47L509.54 270.14L507.53 267.88L505.43 265.7L503.24 263.6L500.99 261.58L498.65 259.65L496.24 257.81L493.75 256.07L491.19 254.4L488.58 252.85L485.9 251.4L483.15 250.04L480.35 248.79L477.49 247.65L474.57 246.61L471.61 245.69L468.6 244.88L465.55 244.19L462.43 243.62L459.3 243.17L456.1 242.85L452.9 242.66L449.64 242.59L446.38 242.66L443.17 242.85ZM191.03 242.85L187.85 243.17L184.71 243.62L181.6 244.19L178.55 244.88L175.54 245.69L172.56 246.61L169.66 247.65L166.79 248.79L164 250.04L161.25 251.4L158.57 252.85L155.94 254.4L153.4 256.07L150.91 257.81L148.49 259.65L146.16 261.58L143.89 263.6L141.72 265.7L139.62 267.88L137.6 270.14L135.67 272.47L133.83 274.9L132.09 277.38L130.42 279.93L128.88 282.55L127.41 285.23L126.06 287.98L124.81 290.77L123.66 293.64L122.63 296.54L121.7 299.51L120.9 302.53L120.21 305.59L119.64 308.69L119.19 311.84L118.87 315.01L118.68 318.24L118.6 321.48L118.68 324.74L118.87 327.96L119.19 331.14L119.64 334.29L120.21 337.39L120.9 340.44L121.7 343.47L122.63 346.43L123.66 349.33L124.81 352.2L126.06 354.99L127.41 357.74L128.88 360.42L130.42 363.05L132.09 365.59L133.83 368.08L135.67 370.5L137.6 372.83L139.62 375.1L141.72 377.27L143.89 379.37L146.16 381.39L148.49 383.32L150.91 385.16L153.4 386.9L155.94 388.57L158.57 390.13L161.25 391.58L164 392.94L166.79 394.19L169.66 395.33L172.56 396.36L175.54 397.29L178.55 398.09L181.6 398.78L184.71 399.35L187.85 399.8L191.03 400.13L194.26 400.31L197.51 400.39L197.08 400.59L197.51 400.59L200.77 400.53L203.99 400.33L207.17 400L210.32 399.54L213.42 398.97L216.49 398.27L219.5 397.46L222.48 396.53L225.39 395.5L228.25 394.34L231.06 393.09L233.8 391.73L236.49 390.27L239.11 388.71L241.66 387.04L244.14 385.28L246.55 383.45L248.89 381.5L251.16 379.48L253.34 377.38L255.44 375.19L257.46 372.92L259.39 370.58L261.22 368.17L262.97 365.67L264.62 363.13L266.18 360.49L267.63 357.8L268.98 355.06L270.23 352.25L271.38 349.38L272.41 346.46L273.34 343.5L274.14 340.47L274.82 337.4L275.39 334.3L275.84 331.15L276.14 327.96L276.34 324.75L276.41 321.48L276.34 318.24L276.14 315.01L275.82 311.84L275.37 308.69L274.8 305.59L274.11 302.53L273.3 299.51L272.38 296.54L271.35 293.64L270.2 290.77L268.95 287.98L267.6 285.23L266.15 282.55L264.59 279.93L262.94 277.38L261.18 274.9L259.34 272.47L257.41 270.14L255.39 267.88L253.29 265.7L251.12 263.6L248.85 261.58L246.52 259.65L244.1 257.81L241.61 256.07L239.07 254.4L236.44 252.85L233.76 251.4L231.03 250.04L228.22 248.79L225.36 247.65L222.45 246.61L219.48 245.69L216.46 244.88L213.41 244.19L210.3 243.62L207.16 243.17L203.98 242.85L200.75 242.66L197.51 242.59L194.26 242.66L191.03 242.85Z" id="fL1Axta3S"></path><path d="M458.7 211.66L463.16 212.11L467.57 212.74L471.91 213.55L476.19 214.52L480.42 215.66L484.57 216.96L488.65 218.41L492.64 220.01L496.58 221.77L500.42 223.67L504.17 225.72L507.84 227.9L511.42 230.21L514.89 232.66L518.27 235.26L521.54 237.96L524.71 240.78L527.76 243.73L530.69 246.78L533.52 249.96L536.22 253.23L538.79 256.61L541.23 260.1L543.55 263.68L545.72 267.35L547.76 271.1L549.66 274.96L551.42 278.88L553.01 282.89L554.46 286.96L555.74 291.13L556.86 295.34L557.83 299.63L558.62 303.98L559.25 308.38L559.7 312.84L559.96 317.34L560.06 321.91L559.96 326.46L559.67 330.97L559.22 335.43L558.59 339.83L557.79 344.18L556.82 348.47L555.67 352.68L554.38 356.83L552.93 360.92L551.32 364.91L549.56 368.85L547.67 372.69L545.63 376.44L543.44 380.11L541.12 383.68L538.67 387.17L536.09 390.53L533.38 393.8L530.55 396.96L527.61 400.02L524.55 402.97L521.37 405.79L518.1 408.49L514.72 411.07L511.24 413.5L507.66 415.82L503.98 417.99L500.23 420.03L496.39 421.93L492.46 423.67L488.45 425.28L484.37 426.71L480.21 428.01L475.99 429.13L471.7 430.09L467.35 430.89L462.96 431.51L458.5 431.96L453.99 432.24L449.42 432.31L444.87 432.22L440.37 431.94L435.91 431.5L431.51 430.86L427.16 430.06L422.87 429.09L418.66 427.95L414.51 426.65L410.42 425.2L406.42 423.6L402.5 421.84L398.66 419.94L394.89 417.89L391.22 415.71L387.66 413.38L384.19 410.93L380.81 408.35L377.53 405.65L374.37 402.83L371.32 399.88L368.37 396.82L365.55 393.65L362.85 390.37L360.28 387L357.83 383.51L355.52 379.93L353.34 376.26L351.3 372.49L349.41 368.65L347.66 364.73L346.06 360.72L344.62 356.63L343.33 352.48L342.2 348.27L341.24 343.98L340.44 339.63L339.82 335.23L339.38 330.77L339.1 326.25L339.02 321.7L307.5 321.7L307.48 323.86L307.42 326.02L307.31 328.18L307.16 330.32L306.97 332.47L306.74 334.59L306.48 336.72L306.17 338.84L305.82 340.95L305.41 343.05L304.98 345.13L304.52 347.22L304.01 349.28L303.46 351.34L302.87 353.39L302.24 355.41L301.56 357.43L300.86 359.44L300.11 361.43L299.34 363.4L298.5 365.36L297.65 367.31L296.76 369.24L295.82 371.15L294.85 373.05L293.84 374.91L292.79 376.78L291.71 378.62L290.6 380.42L289.44 382.23L288.26 384L287.04 385.75L285.79 387.49L284.49 389.19L283.16 390.88L281.79 392.53L280.4 394.19L278.97 395.79L277.5 397.38L276.01 398.94L272.76 402.13L269.42 405.16L265.98 408.03L262.46 410.73L258.85 413.27L255.16 415.66L251.41 417.89L247.58 419.95L243.69 421.85L239.74 423.6L235.76 425.17L231.72 426.59L227.63 427.85L223.51 428.95L219.36 429.88L215.18 430.65L210.98 431.26L206.76 431.71L202.53 432L198.3 432.13L194.06 432.1L189.81 431.9L185.6 431.54L181.37 431.02L177.19 430.34L173.01 429.49L168.87 428.49L164.75 427.33L160.68 425.99L156.65 424.51L152.67 422.84L148.75 421.03L144.88 419.04L141.08 416.91L137.35 414.6L133.68 412.13L130.1 409.51L126.6 406.71L123.19 403.77L119.87 400.65L116.67 397.4L113.65 394.05L110.78 390.61L108.08 387.09L105.53 383.48L103.14 379.79L100.92 376.04L98.87 372.21L96.95 368.32L95.21 364.39L93.64 360.39L92.22 356.35L90.97 352.26L89.87 348.14L88.93 343.99L88.16 339.81L87.54 335.61L87.1 331.4L86.8 327.17L86.68 322.93L86.71 318.69L86.91 314.46L87.26 310.23L87.79 306.02L88.47 301.82L89.32 297.66L90.32 293.5L91.49 289.4L92.82 285.33L94.32 281.3L95.97 277.32L97.77 273.38L99.76 269.53L101.91 265.72L104.21 261.98L106.68 258.32L109.3 254.73L112.09 251.24L115.04 247.83L118.16 244.51L121.41 241.32L124.76 238.3L128.2 235.43L131.72 232.71L135.33 230.16L139.02 227.79L142.77 225.57L146.59 223.5L150.48 221.6L154.42 219.86L158.41 218.27L162.46 216.86L166.54 215.6L170.66 214.5L174.81 213.56L179 212.79L183.19 212.19L187.41 211.73L191.65 211.45L195.88 211.31L200.12 211.36L204.35 211.54L208.58 211.91L212.79 212.42L216.99 213.11L221.17 213.95L225.3 214.95L229.41 216.12L233.48 217.45L237.51 218.95L241.49 220.6L245.42 222.42L249.28 224.39L253.09 226.54L256.83 228.84L260.48 231.31L264.08 233.94L267.58 236.72L270.99 239.68L274.31 242.8L296.16 242.8L296.36 242.45L297.01 241.43L297.47 240.75L297.7 240.43L297.93 240.09L298.18 239.76L298.41 239.44L298.67 239.13L298.92 238.81L299.18 238.5L299.43 238.19L299.71 237.89L299.97 237.59L300.25 237.29L300.51 237L300.8 236.71L301.08 236.41L301.36 236.14L301.94 235.58L302.25 235.3L302.54 235.04L303.47 234.25L303.78 234.01L304.75 233.27L305.08 233.03L305.41 232.8L305.74 232.57L306.08 232.36L306.42 232.12L306.76 231.91L307.11 231.71L307.45 231.49L308.59 230.86L309.74 230.29L310.91 229.75L312.08 229.27L313.27 228.84L314.46 228.47L315.66 228.13L316.86 227.85L318.08 227.62L319.3 227.45L320.52 227.31L321.74 227.22L322.96 227.19L324.18 227.2L325.38 227.25L326.6 227.36L327.8 227.49L328.99 227.7L330.18 227.93L331.35 228.22L332.53 228.54L333.67 228.91L334.81 229.33L335.94 229.79L337.03 230.3L338.11 230.84L339.18 231.45L340.23 232.08L341.24 232.74L342.25 233.47L343.22 234.21L344.16 235.01L345.07 235.84L345.97 236.72L346.81 237.63L347.63 238.59L348.42 239.59L349.17 240.63L349.9 241.69L350.58 242.8L372.43 242.8L373.99 241.3L375.56 239.84L377.18 238.4L378.82 237L380.47 235.64L382.16 234.3L383.86 233L385.59 231.75L387.35 230.52L389.12 229.33L390.91 228.17L392.73 227.06L394.57 225.98L396.42 224.93L398.29 223.93L400.19 222.96L402.1 222.02L404.03 221.12L405.97 220.26L407.93 219.44L409.91 218.65L411.9 217.91L413.9 217.2L415.92 216.54L417.95 215.91L420 215.32L422.05 214.77L424.12 214.26L426.2 213.78L428.28 213.35L430.38 212.96L432.5 212.6L434.61 212.3L436.74 212.02L438.87 211.8L441.01 211.62L443.16 211.46L445.32 211.36L447.48 211.31L449.64 211.28L454.19 211.39L458.7 211.66ZM443.17 242.85L439.98 243.17L436.85 243.62L433.75 244.19L430.68 244.88L427.67 245.69L424.7 246.61L421.79 247.65L418.93 248.79L416.13 250.04L413.38 251.4L410.69 252.85L408.09 254.4L405.53 256.07L403.04 257.81L400.63 259.65L398.29 261.58L396.04 263.6L393.84 265.7L391.75 267.88L389.74 270.14L387.81 272.47L385.96 274.9L384.22 277.38L382.57 279.93L381.01 282.55L379.56 285.23L378.2 287.98L376.95 290.77L375.81 293.64L374.77 296.54L373.85 299.51L373.03 302.53L372.35 305.59L371.78 308.69L371.33 311.84L371.01 315.01L370.81 318.24L370.75 321.48L370.81 324.74L371.01 327.96L371.33 331.14L371.78 334.29L372.35 337.39L373.03 340.44L373.85 343.47L374.77 346.43L375.81 349.33L376.95 352.2L378.2 354.99L379.56 357.74L381.01 360.42L382.57 363.05L384.22 365.59L385.96 368.08L387.81 370.5L389.74 372.83L391.75 375.1L393.84 377.27L396.04 379.37L398.29 381.39L400.63 383.32L403.04 385.16L405.53 386.9L408.09 388.57L410.69 390.13L413.38 391.58L416.13 392.94L418.93 394.19L421.79 395.33L424.7 396.36L427.67 397.29L430.68 398.09L433.75 398.78L436.85 399.35L439.98 399.8L443.17 400.13L446.38 400.31L449.64 400.39L449.64 400.59L452.9 400.53L456.12 400.33L459.3 400L462.45 399.54L465.56 398.97L468.62 398.27L471.64 397.46L474.61 396.53L477.52 395.5L480.38 394.34L483.18 393.09L485.93 391.73L488.62 390.27L491.24 388.71L493.8 387.04L496.28 385.28L498.69 383.45L501.02 381.5L503.29 379.48L505.47 377.38L507.58 375.19L509.59 372.92L511.51 370.58L513.35 368.17L515.11 365.67L516.76 363.13L518.32 360.49L519.77 357.8L521.13 355.06L522.38 352.25L523.5 349.38L524.54 346.46L525.46 343.5L526.27 340.47L526.96 337.4L527.51 334.3L527.96 331.15L528.29 327.96L528.47 324.75L528.53 321.48L528.47 318.24L528.27 315.01L527.95 311.84L527.5 308.69L526.93 305.59L526.25 302.53L525.43 299.51L524.52 296.54L523.49 293.64L522.33 290.77L521.08 287.98L519.72 285.23L518.27 282.55L516.71 279.93L515.06 277.38L513.32 274.9L511.47 272.47L509.54 270.14L507.53 267.88L505.43 265.7L503.24 263.6L500.99 261.58L498.65 259.65L496.24 257.81L493.75 256.07L491.19 254.4L488.58 252.85L485.9 251.4L483.15 250.04L480.35 248.79L477.49 247.65L474.57 246.61L471.61 245.69L468.6 244.88L465.55 244.19L462.43 243.62L459.3 243.17L456.1 242.85L452.9 242.66L449.64 242.59L446.38 242.66L443.17 242.85ZM191.03 242.85L187.85 243.17L184.71 243.62L181.6 244.19L178.55 244.88L175.54 245.69L172.56 246.61L169.66 247.65L166.79 248.79L164 250.04L161.25 251.4L158.57 252.85L155.94 254.4L153.4 256.07L150.91 257.81L148.49 259.65L146.16 261.58L143.89 263.6L141.72 265.7L139.62 267.88L137.6 270.14L135.67 272.47L133.83 274.9L132.09 277.38L130.42 279.93L128.88 282.55L127.41 285.23L126.06 287.98L124.81 290.77L123.66 293.64L122.63 296.54L121.7 299.51L120.9 302.53L120.21 305.59L119.64 308.69L119.19 311.84L118.87 315.01L118.68 318.24L118.6 321.48L118.68 324.74L118.87 327.96L119.19 331.14L119.64 334.29L120.21 337.39L120.9 340.44L121.7 343.47L122.63 346.43L123.66 349.33L124.81 352.2L126.06 354.99L127.41 357.74L128.88 360.42L130.42 363.05L132.09 365.59L133.83 368.08L135.67 370.5L137.6 372.83L139.62 375.1L141.72 377.27L143.89 379.37L146.16 381.39L148.49 383.32L150.91 385.16L153.4 386.9L155.94 388.57L158.57 390.13L161.25 391.58L164 392.94L166.79 394.19L169.66 395.33L172.56 396.36L175.54 397.29L178.55 398.09L181.6 398.78L184.71 399.35L187.85 399.8L191.03 400.13L194.26 400.31L197.51 400.39L197.08 400.59L197.51 400.59L200.77 400.53L203.99 400.33L207.17 400L210.32 399.54L213.42 398.97L216.49 398.27L219.5 397.46L222.48 396.53L225.39 395.5L228.25 394.34L231.06 393.09L233.8 391.73L236.49 390.27L239.11 388.71L241.66 387.04L244.14 385.28L246.55 383.45L248.89 381.5L251.16 379.48L253.34 377.38L255.44 375.19L257.46 372.92L259.39 370.58L261.22 368.17L262.97 365.67L264.62 363.13L266.18 360.49L267.63 357.8L268.98 355.06L270.23 352.25L271.38 349.38L272.41 346.46L273.34 343.5L274.14 340.47L274.82 337.4L275.39 334.3L275.84 331.15L276.14 327.96L276.34 324.75L276.41 321.48L276.34 318.24L276.14 315.01L275.82 311.84L275.37 308.69L274.8 305.59L274.11 302.53L273.3 299.51L272.38 296.54L271.35 293.64L270.2 290.77L268.95 287.98L267.6 285.23L266.15 282.55L264.59 279.93L262.94 277.38L261.18 274.9L259.34 272.47L257.41 270.14L255.39 267.88L253.29 265.7L251.12 263.6L248.85 261.58L246.52 259.65L244.1 257.81L241.61 256.07L239.07 254.4L236.44 252.85L233.76 251.4L231.03 250.04L228.22 248.79L225.36 247.65L222.45 246.61L219.48 245.69L216.46 244.88L213.41 244.19L210.3 243.62L207.16 243.17L203.98 242.85L200.75 242.66L197.51 242.59L194.26 242.66L191.03 242.85Z" id="a188rYeiVd"></path></defs><g><g><g><use xlink:href="#b1z2jVcqmH" opacity="1" fill="#ffffff" fill-opacity="1"></use><g><use xlink:href="#b1z2jVcqmH" opacity="1" fill-opacity="0" stroke="#000000" stroke-width="1" stroke-opacity="0"></use></g></g><g><use xlink:href="#b1udxd2mB" opacity="1" fill="#000000" fill-opacity="0"></use><g><use xlink:href="#b1udxd2mB" opacity="1" fill-opacity="0" stroke="#000000" stroke-width="1" stroke-opacity="0"></use></g></g><g><use xlink:href="#ccJDUAI5s" opacity="1" fill="#ffffff" fill-opacity="1"></use><g><use xlink:href="#ccJDUAI5s" opacity="1" fill-opacity="0" stroke="#000000" stroke-width="1" stroke-opacity="0"></use></g></g><g><use xlink:href="#aRP9D2Gz" opacity="1" fill="#000000" fill-opacity="0"></use><g><use xlink:href="#aRP9D2Gz" opacity="1" fill-opacity="0" stroke="#000000" stroke-width="6" stroke-opacity="0"></use></g></g><g><use xlink:href="#b19Vkmjn6j" opacity="1" fill="#ffffff" fill-opacity="1"></use><g><use xlink:href="#b19Vkmjn6j" opacity="1" fill-opacity="0" stroke="#000000" stroke-width="1" stroke-opacity="0"></use></g></g><g><use xlink:href="#b1dR4pUiSI" opacity="1" fill="#000000" fill-opacity="0"></use><g><use xlink:href="#b1dR4pUiSI" opacity="1" fill-opacity="0" stroke="#000000" stroke-width="1" stroke-opacity="0"></use></g></g><g><use xlink:href="#f1EmbJBDjH" opacity="1" fill="#ffffff" fill-opacity="1"></use><g><use xlink:href="#f1EmbJBDjH" opacity="1" fill-opacity="0" stroke="#000000" stroke-width="1" stroke-opacity="0"></use></g></g><g><use xlink:href="#dxWFwV2p6" opacity="1" fill="#000000" fill-opacity="0"></use><g><use xlink:href="#dxWFwV2p6" opacity="1" fill-opacity="0" stroke="#000000" stroke-width="1" stroke-opacity="0"></use></g></g><g><use xlink:href="#b5pbd0byK" opacity="1" fill="#ffffff" fill-opacity="1"></use><g><use xlink:href="#b5pbd0byK" opacity="1" fill-opacity="0" stroke="#000000" stroke-width="1" stroke-opacity="0"></use></g></g><g><use xlink:href="#nx7ee7fg1" opacity="1" fill="#000000" fill-opacity="0"></use><g><use xlink:href="#nx7ee7fg1" opacity="1" fill-opacity="0" stroke="#000000" stroke-width="1" stroke-opacity="0"></use></g></g><g><use xlink:href="#a1c98INfdY" opacity="1" fill="#ffffff" fill-opacity="1"></use><g><use xlink:href="#a1c98INfdY" opacity="1" fill-opacity="0" stroke="#000000" stroke-width="1" stroke-opacity="0"></use></g></g><g><use xlink:href="#ayf4IdCv" opacity="1" fill="#000000" fill-opacity="0"></use><g><use xlink:href="#ayf4IdCv" opacity="1" fill-opacity="0" stroke="#000000" stroke-width="1" stroke-opacity="0"></use></g></g><g><use xlink:href="#b2JGtFCb7" opacity="1" fill="#ecc01b" fill-opacity="1"></use><g><use xlink:href="#b2JGtFCb7" opacity="1" fill-opacity="0" stroke="#000000" stroke-width="1" stroke-opacity="0"></use></g></g><g><use xlink:href="#azidVyqQe" opacity="1" fill="#000000" fill-opacity="0"></use><g><use xlink:href="#azidVyqQe" opacity="1" fill-opacity="0" stroke="#000000" stroke-width="1" stroke-opacity="0"></use></g></g><g><use xlink:href="#fL1Axta3S" opacity="1" fill="#ffffff" fill-opacity="1"></use><g><use xlink:href="#fL1Axta3S" opacity="1" fill-opacity="0" stroke="#000000" stroke-width="1" stroke-opacity="0"></use></g></g><g><use xlink:href="#a188rYeiVd" opacity="1" fill="#000000" fill-opacity="0"></use><g><use xlink:href="#a188rYeiVd" opacity="1" fill-opacity="0" stroke="#000000" stroke-width="1" stroke-opacity="0"></use></g></g></g></g></svg>