<?xml version="1.0" encoding="UTF-8" standalone="no"?>
<!DOCTYPE svg PUBLIC "-//W3C//DTD SVG 1.1//EN" "http://www.w3.org/Graphics/SVG/1.1/DTD/svg11.dtd">
<svg version="1.1" xmlns="http://www.w3.org/2000/svg" xmlns:xlink="http://www.w3.org/1999/xlink" preserveAspectRatio="xMidYMid meet" viewBox="0 0 640 640" width="640" height="640"><defs><path d="M6 320.91C6 494.28 146.54 634.84 319.93 634.84C493.31 634.84 633.85 494.28 633.85 320.91C633.85 147.53 493.31 6.99 319.93 6.99C146.54 6.99 6 147.53 6 320.91Z" id="b2zAv8LkZ4"></path><path d="M6 320.91C6 494.28 146.54 634.84 319.93 634.84C493.31 634.84 633.85 494.28 633.85 320.91C633.85 147.53 493.31 6.99 319.93 6.99C146.54 6.99 6 147.53 6 320.91Z" id="dWSITIcaT"></path><path d="M326.06 246.17L329.07 246.49L332.06 246.93L334.99 247.48L337.89 248.13L340.75 248.92L343.55 249.8L346.32 250.78L349.02 251.88L351.67 253.08L354.28 254.37L356.82 255.76L359.3 257.25L361.71 258.82L364.06 260.49L366.35 262.24L368.56 264.06L370.7 265.98L372.77 267.99L374.75 270.05L376.67 272.21L378.49 274.42L380.23 276.71L381.88 279.07L383.44 281.49L384.93 283.98L386.3 286.52L387.57 289.13L388.77 291.79L389.85 294.5L390.83 297.26L391.7 300.08L392.45 302.94L393.11 305.84L393.64 308.78L394.08 311.75L394.37 314.78L394.56 317.82L394.63 320.91L394.63 321.22L394.56 324.31L394.35 327.37L394.04 330.4L393.59 333.39L393.04 336.33L392.37 339.25L391.58 342.11L390.7 344.92L389.71 347.68L388.61 350.39L387.41 353.05L386.1 355.66L384.71 358.2L383.21 360.69L381.64 363.11L379.96 365.46L378.21 367.75L376.36 369.96L374.44 372.11L372.43 374.17L370.35 376.16L368.19 378.06L365.96 379.89L363.66 381.64L361.29 383.28L358.86 384.85L356.37 386.32L353.8 387.7L351.19 388.97L348.52 390.15L345.8 391.23L343.02 392.2L340.2 393.06L337.33 393.82L334.43 394.47L331.47 394.99L328.48 395.41L325.46 395.7L322.39 395.87L319.3 395.92L316.2 395.84L313.15 395.64L310.12 395.32L307.13 394.89L304.19 394.34L301.29 393.67L298.43 392.88L295.61 392L292.85 391L290.13 389.91L287.46 388.7L284.86 387.4L282.32 386.01L279.84 384.51L277.41 382.93L275.06 381.26L272.77 379.51L270.56 377.66L268.41 375.74L266.35 373.73L264.36 371.64L262.45 369.48L260.63 367.26L258.89 364.96L257.24 362.59L255.67 360.16L254.21 357.67L252.84 355.1L251.55 352.49L250.37 349.82L249.3 347.1L248.32 344.32L247.47 341.5L246.71 338.63L246.06 335.73L245.53 332.77L245.13 329.78L244.82 326.75L244.65 323.68L244.61 320.6L244.68 317.5L244.87 314.45L245.2 311.42L245.63 308.43L246.19 305.49L246.85 302.58L247.63 299.71L248.52 296.91L249.51 294.13L250.62 291.43L251.81 288.76L253.12 286.15L254.52 283.62L256 281.14L257.59 278.71L259.26 276.35L261.02 274.07L262.86 271.85L264.78 269.71L266.8 267.65L268.87 265.66L271.03 263.75L273.26 261.93L275.56 260.19L277.93 258.54L280.37 256.97L282.87 255.51L285.42 254.12L288.04 252.84L290.7 251.67L293.42 250.59L296.2 249.62L299.03 248.77L301.89 248.01L304.81 247.36L307.75 246.83L310.75 246.41L313.78 246.12L316.83 245.95L319.93 245.89L323 245.98L326.06 246.17ZM316.23 296.14L314.44 296.47L312.7 296.94L311 297.51L309.38 298.2L307.79 299L306.29 299.91L304.86 300.92L303.5 302.01L302.23 303.2L301.03 304.48L299.93 305.84L298.92 307.28L298.02 308.78L297.22 310.35L296.52 311.99L295.95 313.67L295.5 315.43L295.16 317.21L294.95 319.04L294.89 320.91L294.95 322.77L295.16 324.61L295.5 326.4L295.95 328.14L296.52 329.84L297.22 331.46L298.02 333.03L298.92 334.55L299.93 335.98L301.03 337.34L302.23 338.61L303.5 339.81L304.86 340.91L306.29 341.91L307.79 342.82L309.38 343.62L311 344.31L312.7 344.89L314.44 345.34L316.23 345.68L318.05 345.88L319.93 345.95L321.8 345.88L323.62 345.68L325.41 345.34L327.15 344.89L328.85 344.31L330.49 343.62L332.06 342.82L333.56 341.91L334.99 340.91L336.35 339.81L337.62 338.61L338.83 337.34L339.92 335.98L340.93 334.55L341.83 333.03L342.64 331.46L343.33 329.84L343.9 328.14L344.37 326.4L344.69 324.61L344.9 322.77L344.97 320.91L344.9 319.04L344.69 317.21L344.37 315.43L343.9 313.67L343.33 311.99L342.64 310.35L341.83 308.78L340.93 307.28L339.92 305.84L338.83 304.48L337.62 303.2L336.35 302.01L334.99 300.92L333.56 299.91L332.06 299L330.49 298.2L328.85 297.51L327.15 296.94L325.41 296.47L323.62 296.14L321.8 295.94L319.93 295.87L318.05 295.94L316.23 296.14Z" id="a1tfGH6PGo"></path><path d="M326.06 246.17L329.07 246.49L332.06 246.93L334.99 247.48L337.89 248.13L340.75 248.92L343.55 249.8L346.32 250.78L349.02 251.88L351.67 253.08L354.28 254.37L356.82 255.76L359.3 257.25L361.71 258.82L364.06 260.49L366.35 262.24L368.56 264.06L370.7 265.98L372.77 267.99L374.75 270.05L376.67 272.21L378.49 274.42L380.23 276.71L381.88 279.07L383.44 281.49L384.93 283.98L386.3 286.52L387.57 289.13L388.77 291.79L389.85 294.5L390.83 297.26L391.7 300.08L392.45 302.94L393.11 305.84L393.64 308.78L394.08 311.75L394.37 314.78L394.56 317.82L394.63 320.91L394.63 321.22L394.56 324.31L394.35 327.37L394.04 330.4L393.59 333.39L393.04 336.33L392.37 339.25L391.58 342.11L390.7 344.92L389.71 347.68L388.61 350.39L387.41 353.05L386.1 355.66L384.71 358.2L383.21 360.69L381.64 363.11L379.96 365.46L378.21 367.75L376.36 369.96L374.44 372.11L372.43 374.17L370.35 376.16L368.19 378.06L365.96 379.89L363.66 381.64L361.29 383.28L358.86 384.85L356.37 386.32L353.8 387.7L351.19 388.97L348.52 390.15L345.8 391.23L343.02 392.2L340.2 393.06L337.33 393.82L334.43 394.47L331.47 394.99L328.48 395.41L325.46 395.7L322.39 395.87L319.3 395.92L316.2 395.84L313.15 395.64L310.12 395.32L307.13 394.89L304.19 394.34L301.29 393.67L298.43 392.88L295.61 392L292.85 391L290.13 389.91L287.46 388.7L284.86 387.4L282.32 386.01L279.84 384.51L277.41 382.93L275.06 381.26L272.77 379.51L270.56 377.66L268.41 375.74L266.35 373.73L264.36 371.64L262.45 369.48L260.63 367.26L258.89 364.96L257.24 362.59L255.67 360.16L254.21 357.67L252.84 355.1L251.55 352.49L250.37 349.82L249.3 347.1L248.32 344.32L247.47 341.5L246.71 338.63L246.06 335.73L245.53 332.77L245.13 329.78L244.82 326.75L244.65 323.68L244.61 320.6L244.68 317.5L244.87 314.45L245.2 311.42L245.63 308.43L246.19 305.49L246.85 302.58L247.63 299.71L248.52 296.91L249.51 294.13L250.62 291.43L251.81 288.76L253.12 286.15L254.52 283.62L256 281.14L257.59 278.71L259.26 276.35L261.02 274.07L262.86 271.85L264.78 269.71L266.8 267.65L268.87 265.66L271.03 263.75L273.26 261.93L275.56 260.19L277.93 258.54L280.37 256.97L282.87 255.51L285.42 254.12L288.04 252.84L290.7 251.67L293.42 250.59L296.2 249.62L299.03 248.77L301.89 248.01L304.81 247.36L307.75 246.83L310.75 246.41L313.78 246.12L316.83 245.95L319.93 245.89L323 245.98L326.06 246.17ZM316.23 296.14L314.44 296.47L312.7 296.94L311 297.51L309.38 298.2L307.79 299L306.29 299.91L304.86 300.92L303.5 302.01L302.23 303.2L301.03 304.48L299.93 305.84L298.92 307.28L298.02 308.78L297.22 310.35L296.52 311.99L295.95 313.67L295.5 315.43L295.16 317.21L294.95 319.04L294.89 320.91L294.95 322.77L295.16 324.61L295.5 326.4L295.95 328.14L296.52 329.84L297.22 331.46L298.02 333.03L298.92 334.55L299.93 335.98L301.03 337.34L302.23 338.61L303.5 339.81L304.86 340.91L306.29 341.91L307.79 342.82L309.38 343.62L311 344.31L312.7 344.89L314.44 345.34L316.23 345.68L318.05 345.88L319.93 345.95L321.8 345.88L323.62 345.68L325.41 345.34L327.15 344.89L328.85 344.31L330.49 343.62L332.06 342.82L333.56 341.91L334.99 340.91L336.35 339.81L337.62 338.61L338.83 337.34L339.92 335.98L340.93 334.55L341.83 333.03L342.64 331.46L343.33 329.84L343.9 328.14L344.37 326.4L344.69 324.61L344.9 322.77L344.97 320.91L344.9 319.04L344.69 317.21L344.37 315.43L343.9 313.67L343.33 311.99L342.64 310.35L341.83 308.78L340.93 307.28L339.92 305.84L338.83 304.48L337.62 303.2L336.35 302.01L334.99 300.92L333.56 299.91L332.06 299L330.49 298.2L328.85 297.51L327.15 296.94L325.41 296.47L323.62 296.14L321.8 295.94L319.93 295.87L318.05 295.94L316.23 296.14Z" id="d2KC9WbB00"></path><path d="M332.38 208.78L338.49 209.2L344.54 209.78L350.49 210.52L356.38 211.42L362.17 212.48L367.91 213.69L373.54 215.05L379.11 216.56L384.59 218.23L390 220.04L395.33 221.99L400.57 224.08L405.73 226.31L410.82 228.68L415.82 231.19L420.74 233.82L425.58 236.58L430.33 239.48L435 242.5L439.6 245.65L444.1 248.91L448.53 252.3L452.86 255.8L457.12 259.42L461.29 263.15L465.38 266.99L469.38 270.94L473.3 275L477.13 279.16L480.87 283.41L484.53 287.78L488.11 292.24L491.6 296.78L494.99 301.44L498.31 306.17L501.54 311L504.66 315.92L507.72 320.91L504.71 325.91L501.59 330.82L498.4 335.64L495.1 340.38L491.72 345.04L488.26 349.59L484.71 354.05L481.07 358.41L477.34 362.67L473.51 366.83L469.62 370.89L465.62 374.84L461.54 378.67L457.38 382.41L453.13 386.03L448.8 389.52L444.38 392.91L439.87 396.18L435.28 399.32L430.6 402.35L425.85 405.23L421.01 408L416.08 410.63L411.07 413.14L405.98 415.51L400.81 417.74L395.55 419.83L390.22 421.78L384.8 423.58L379.3 425.25L373.72 426.77L368.06 428.13L362.33 429.35L356.49 430.4L350.61 431.3L344.62 432.04L338.56 432.63L332.44 433.03L326.21 433.29L319.93 433.37L313.64 433.29L307.41 433.03L301.29 432.63L295.22 432.04L289.24 431.3L283.33 430.4L277.51 429.35L271.76 428.13L266.1 426.77L260.5 425.25L255 423.58L249.57 421.78L244.23 419.83L238.97 417.74L233.78 415.51L228.7 413.14L223.68 410.63L218.74 408L213.89 405.23L209.12 402.35L204.44 399.32L199.86 396.18L195.34 392.91L190.91 389.52L186.58 386.03L182.33 382.41L178.17 378.67L174.09 374.84L170.09 370.89L166.2 366.83L162.38 362.67L158.67 358.41L155.04 354.05L151.49 349.59L148.03 345.04L144.66 340.38L141.4 335.64L138.22 330.82L135.13 325.91L132.13 320.91L135.16 315.92L138.26 311L141.47 306.17L144.75 301.44L148.13 296.78L151.6 292.24L155.16 287.78L158.81 283.41L162.54 279.16L166.37 275L170.28 270.94L174.27 266.99L178.35 263.15L182.52 259.42L186.78 255.8L191.11 252.3L195.54 248.91L200.05 245.65L204.65 242.5L209.32 239.48L214.09 236.58L218.94 233.82L223.86 231.19L228.86 228.68L233.97 226.31L239.14 224.08L244.4 221.99L249.72 220.04L255.15 218.23L260.64 216.56L266.21 215.05L271.87 213.69L277.61 212.48L283.41 211.42L289.31 210.52L295.27 209.78L301.33 209.2L307.45 208.78L313.65 208.53L319.93 208.45L326.2 208.53L332.38 208.78ZM309.29 221.12L304.02 221.46L298.81 221.92L293.63 222.51L288.5 223.24L283.41 224.08L278.37 225.06L273.37 226.18L268.43 227.41L263.53 228.77L258.68 230.26L253.89 231.89L249.14 233.62L244.44 235.49L239.8 237.48L235.21 239.6L230.69 241.83L226.21 244.18L221.8 246.66L217.44 249.27L213.13 251.99L208.9 254.84L204.72 257.79L200.6 260.88L196.55 264.07L192.57 267.38L188.64 270.82L184.79 274.36L181 278.04L177.29 281.81L173.64 285.71L170.05 289.72L166.55 293.84L163.11 298.07L159.75 302.42L156.47 306.87L153.24 311.45L150.12 316.13L147.05 320.91L150.1 325.7L153.23 330.38L156.44 334.94L159.72 339.4L163.07 343.75L166.51 347.98L170.01 352.1L173.59 356.11L177.23 360.01L180.95 363.79L184.73 367.45L188.59 371L192.5 374.43L196.48 377.76L200.53 380.95L204.64 384.02L208.82 386.99L213.06 389.83L217.35 392.55L221.71 395.15L226.13 397.64L230.6 399.99L235.13 402.23L239.73 404.34L244.37 406.33L249.06 408.21L253.82 409.94L258.61 411.56L263.46 413.04L268.37 414.42L273.32 415.65L278.32 416.76L283.37 417.74L288.46 418.59L293.59 419.31L298.78 419.9L304.01 420.36L309.26 420.7L314.58 420.89L319.93 420.96L325.26 420.89L330.57 420.7L335.83 420.36L341.04 419.9L346.22 419.31L351.35 418.59L356.44 417.74L361.48 416.76L366.48 415.65L371.42 414.42L376.32 413.04L381.17 411.56L385.98 409.94L390.71 408.21L395.41 406.33L400.05 404.34L404.64 402.23L409.16 399.99L413.65 397.64L418.07 395.15L422.41 392.55L426.72 389.83L430.95 386.99L435.13 384.02L439.25 380.95L443.3 377.76L447.28 374.43L451.21 371L455.06 367.45L458.85 363.79L462.56 360.01L466.22 356.11L469.8 352.1L473.3 347.98L476.74 343.75L480.1 339.4L483.4 334.94L486.61 330.38L489.75 325.7L492.8 320.91L489.75 316.13L486.62 311.45L483.41 306.87L480.13 302.42L476.76 298.07L473.34 293.84L469.84 289.72L466.25 285.71L462.61 281.81L458.89 278.04L455.11 274.36L451.25 270.82L447.32 267.38L443.34 264.07L439.29 260.88L435.18 257.79L431.01 254.84L426.76 251.99L422.45 249.27L418.09 246.66L413.68 244.18L409.21 241.83L404.66 239.6L400.08 237.48L395.44 235.49L390.74 233.62L385.99 231.89L381.2 230.26L376.35 228.77L371.44 227.41L366.49 226.18L361.48 225.06L356.45 224.08L351.36 223.24L346.22 222.51L341.04 221.92L335.83 221.46L330.57 221.12L325.27 220.92L319.93 220.85L314.59 220.92L309.29 221.12Z" id="aRb10tRzo"></path><path d="M332.38 208.78L338.49 209.2L344.54 209.78L350.49 210.52L356.38 211.42L362.17 212.48L367.91 213.69L373.54 215.05L379.11 216.56L384.59 218.23L390 220.04L395.33 221.99L400.57 224.08L405.73 226.31L410.82 228.68L415.82 231.19L420.74 233.82L425.58 236.58L430.33 239.48L435 242.5L439.6 245.65L444.1 248.91L448.53 252.3L452.86 255.8L457.12 259.42L461.29 263.15L465.38 266.99L469.38 270.94L473.3 275L477.13 279.16L480.87 283.41L484.53 287.78L488.11 292.24L491.6 296.78L494.99 301.44L498.31 306.17L501.54 311L504.66 315.92L507.72 320.91L504.71 325.91L501.59 330.82L498.4 335.64L495.1 340.38L491.72 345.04L488.26 349.59L484.71 354.05L481.07 358.41L477.34 362.67L473.51 366.83L469.62 370.89L465.62 374.84L461.54 378.67L457.38 382.41L453.13 386.03L448.8 389.52L444.38 392.91L439.87 396.18L435.28 399.32L430.6 402.35L425.85 405.23L421.01 408L416.08 410.63L411.07 413.14L405.98 415.51L400.81 417.74L395.55 419.83L390.22 421.78L384.8 423.58L379.3 425.25L373.72 426.77L368.06 428.13L362.33 429.35L356.49 430.4L350.61 431.3L344.62 432.04L338.56 432.63L332.44 433.03L326.21 433.29L319.93 433.37L313.64 433.29L307.41 433.03L301.29 432.63L295.22 432.04L289.24 431.3L283.33 430.4L277.51 429.35L271.76 428.13L266.1 426.77L260.5 425.25L255 423.58L249.57 421.78L244.23 419.83L238.97 417.74L233.78 415.51L228.7 413.14L223.68 410.63L218.74 408L213.89 405.23L209.12 402.35L204.44 399.32L199.86 396.18L195.34 392.91L190.91 389.52L186.58 386.03L182.33 382.41L178.17 378.67L174.09 374.84L170.09 370.89L166.2 366.83L162.38 362.67L158.67 358.41L155.04 354.05L151.49 349.59L148.03 345.04L144.66 340.38L141.4 335.64L138.22 330.82L135.13 325.91L132.13 320.91L135.16 315.92L138.26 311L141.47 306.17L144.75 301.44L148.13 296.78L151.6 292.24L155.16 287.78L158.81 283.41L162.54 279.16L166.37 275L170.28 270.94L174.27 266.99L178.35 263.15L182.52 259.42L186.78 255.8L191.11 252.3L195.54 248.91L200.05 245.65L204.65 242.5L209.32 239.48L214.09 236.58L218.94 233.82L223.86 231.19L228.86 228.68L233.97 226.31L239.14 224.08L244.4 221.99L249.72 220.04L255.15 218.23L260.64 216.56L266.21 215.05L271.87 213.69L277.61 212.48L283.41 211.42L289.31 210.52L295.27 209.78L301.33 209.2L307.45 208.78L313.65 208.53L319.93 208.45L326.2 208.53L332.38 208.78ZM309.29 221.12L304.02 221.46L298.81 221.92L293.63 222.51L288.5 223.24L283.41 224.08L278.37 225.06L273.37 226.18L268.43 227.41L263.53 228.77L258.68 230.26L253.89 231.89L249.14 233.62L244.44 235.49L239.8 237.48L235.21 239.6L230.69 241.83L226.21 244.18L221.8 246.66L217.44 249.27L213.13 251.99L208.9 254.84L204.72 257.79L200.6 260.88L196.55 264.07L192.57 267.38L188.64 270.82L184.79 274.36L181 278.04L177.29 281.81L173.64 285.71L170.05 289.72L166.55 293.84L163.11 298.07L159.75 302.42L156.47 306.87L153.24 311.45L150.12 316.13L147.05 320.91L150.1 325.7L153.23 330.38L156.44 334.94L159.72 339.4L163.07 343.75L166.51 347.98L170.01 352.1L173.59 356.11L177.23 360.01L180.95 363.79L184.73 367.45L188.59 371L192.5 374.43L196.48 377.76L200.53 380.95L204.64 384.02L208.82 386.99L213.06 389.83L217.35 392.55L221.71 395.15L226.13 397.64L230.6 399.99L235.13 402.23L239.73 404.34L244.37 406.33L249.06 408.21L253.82 409.94L258.61 411.56L263.46 413.04L268.37 414.42L273.32 415.65L278.32 416.76L283.37 417.74L288.46 418.59L293.59 419.31L298.78 419.9L304.01 420.36L309.26 420.7L314.58 420.89L319.93 420.96L325.26 420.89L330.57 420.7L335.83 420.36L341.04 419.9L346.22 419.31L351.35 418.59L356.44 417.74L361.48 416.76L366.48 415.65L371.42 414.42L376.32 413.04L381.17 411.56L385.98 409.94L390.71 408.21L395.41 406.33L400.05 404.34L404.64 402.23L409.16 399.99L413.65 397.64L418.07 395.15L422.41 392.55L426.72 389.83L430.95 386.99L435.13 384.02L439.25 380.95L443.3 377.76L447.28 374.43L451.21 371L455.06 367.45L458.85 363.79L462.56 360.01L466.22 356.11L469.8 352.1L473.3 347.98L476.74 343.75L480.1 339.4L483.4 334.94L486.61 330.38L489.75 325.7L492.8 320.91L489.75 316.13L486.62 311.45L483.41 306.87L480.13 302.42L476.76 298.07L473.34 293.84L469.84 289.72L466.25 285.71L462.61 281.81L458.89 278.04L455.11 274.36L451.25 270.82L447.32 267.38L443.34 264.07L439.29 260.88L435.18 257.79L431.01 254.84L426.76 251.99L422.45 249.27L418.09 246.66L413.68 244.18L409.21 241.83L404.66 239.6L400.08 237.48L395.44 235.49L390.74 233.62L385.99 231.89L381.2 230.26L376.35 228.77L371.44 227.41L366.49 226.18L361.48 225.06L356.45 224.08L351.36 223.24L346.22 222.51L341.04 221.92L335.83 221.46L330.57 221.12L325.27 220.92L319.93 220.85L314.59 220.92L309.29 221.12Z" id="a4JCMoLK3b"></path></defs><g><g><g><use xlink:href="#b2zAv8LkZ4" opacity="1" fill="#ecc01b" fill-opacity="1"></use><g><use xlink:href="#b2zAv8LkZ4" opacity="1" fill-opacity="0" stroke="#000000" stroke-width="1" stroke-opacity="0"></use></g></g><g><use xlink:href="#dWSITIcaT" opacity="1" fill="#000000" fill-opacity="0"></use><g><use xlink:href="#dWSITIcaT" opacity="1" fill-opacity="0" stroke="#000000" stroke-width="1" stroke-opacity="0"></use></g></g><g><use xlink:href="#a1tfGH6PGo" opacity="1" fill="#ffffff" fill-opacity="1"></use><g><use xlink:href="#a1tfGH6PGo" opacity="1" fill-opacity="0" stroke="#000000" stroke-width="1" stroke-opacity="0"></use></g></g><g><use xlink:href="#d2KC9WbB00" opacity="1" fill="#000000" fill-opacity="0"></use><g><use xlink:href="#d2KC9WbB00" opacity="1" fill-opacity="0" stroke="#000000" stroke-width="1" stroke-opacity="0"></use></g></g><g><use xlink:href="#aRb10tRzo" opacity="1" fill="#ffffff" fill-opacity="1"></use><g><use xlink:href="#aRb10tRzo" opacity="1" fill-opacity="0" stroke="#000000" stroke-width="1" stroke-opacity="0"></use></g></g><g><use xlink:href="#a4JCMoLK3b" opacity="1" fill="#000000" fill-opacity="0"></use><g><use xlink:href="#a4JCMoLK3b" opacity="1" fill-opacity="0" stroke="#000000" stroke-width="1" stroke-opacity="0"></use></g></g></g></g></svg>