<?xml version="1.0" encoding="UTF-8" standalone="no"?>
<!DOCTYPE svg PUBLIC "-//W3C//DTD SVG 1.1//EN" "http://www.w3.org/Graphics/SVG/1.1/DTD/svg11.dtd">
<svg version="1.1" xmlns="http://www.w3.org/2000/svg" xmlns:xlink="http://www.w3.org/1999/xlink" preserveAspectRatio="xMidYMid meet" viewBox="0 0 640 640" width="640" height="640"><defs><path d="M456.67 283.51C456.56 295.37 466.01 305.12 477.86 305.4C489.24 306.26 499.17 297.75 500.03 286.37C500.09 285.55 500.11 284.72 500.08 283.9C500.19 271.92 490.57 262.11 478.57 262C466.59 261.89 456.78 271.53 456.67 283.51Z" id="a1bsMYmQl"></path><path d="M456.67 283.51C456.56 295.37 466.01 305.12 477.86 305.4C489.24 306.26 499.17 297.75 500.03 286.37C500.09 285.55 500.11 284.72 500.08 283.9C500.19 271.92 490.57 262.11 478.57 262C466.59 261.89 456.78 271.53 456.67 283.51Z" id="beSjdeOWt"></path><path d="M320.53 633.74C146.46 633.74 5.33 493.18 5.33 319.8C5.33 146.41 146.46 5.87 320.53 5.87C494.62 5.87 635.73 146.41 635.73 319.8C635.73 493.18 494.62 633.74 320.53 633.74Z" id="aDf4mgBRm"></path><path d="M320.53 633.74C146.46 633.74 5.33 493.18 5.33 319.8C5.33 146.41 146.46 5.87 320.53 5.87C494.62 5.87 635.73 146.41 635.73 319.8C635.73 493.18 494.62 633.74 320.53 633.74Z" id="c8ITbYEN8"></path><path d="M392.59 432.47C383.41 432.47 378.3 432.47 377.29 432.47C344.44 432.64 312.27 423.05 284.88 404.93C284.88 403.87 284.88 402.81 284.88 401.66C284.91 377.16 275.24 353.63 257.98 336.26C246.35 324.54 231.78 316.2 215.78 312.1C211.02 296.15 208.61 279.58 208.61 262.94C208.41 218 226.14 174.83 257.87 142.99C322.73 77.34 428.52 76.68 494.17 141.52C494.67 142.01 495.16 142.5 495.65 142.99C527.55 174.72 545.47 217.85 545.44 262.84C545.9 310.36 528.16 356.25 495.85 391.1C482.09 405.88 447.67 442.8 392.59 501.87C392.59 487.99 392.59 439.41 392.59 432.47Z" id="f1FzFmrRoy"></path><path d="M392.59 432.47C383.41 432.47 378.3 432.47 377.29 432.47C344.44 432.64 312.27 423.05 284.88 404.93C284.88 403.87 284.88 402.81 284.88 401.66C284.91 377.16 275.24 353.63 257.98 336.26C246.35 324.54 231.78 316.2 215.78 312.1C211.02 296.15 208.61 279.58 208.61 262.94C208.41 218 226.14 174.83 257.87 142.99C322.73 77.34 428.52 76.68 494.17 141.52C494.67 142.01 495.16 142.5 495.65 142.99C527.55 174.72 545.47 217.85 545.44 262.84C545.9 310.36 528.16 356.25 495.85 391.1C482.09 405.88 447.67 442.8 392.59 501.87C392.59 487.99 392.59 439.41 392.59 432.47Z" id="bVv1fVSiS"></path><path d="M294.06 215.15C283.8 215.15 275.5 206.79 275.5 196.48C275.5 186.18 283.8 177.81 294.06 177.81C304.31 177.81 312.62 186.18 312.62 196.48C312.62 206.79 304.31 215.15 294.06 215.15Z" id="fKG7JPMlb"></path><path d="M294.06 215.15C283.8 215.15 275.5 206.79 275.5 196.48C275.5 186.18 283.8 177.81 294.06 177.81C304.31 177.81 312.62 186.18 312.62 196.48C312.62 206.79 304.31 215.15 294.06 215.15Z" id="b3kdxwH9GW"></path><path d="M338.57 215.15C328.32 215.15 320.01 206.79 320.01 196.48C320.01 186.18 328.32 177.81 338.57 177.81C348.82 177.81 357.15 186.18 357.15 196.48C357.15 206.79 348.82 215.15 338.57 215.15Z" id="amJR3tNv"></path><path d="M338.57 215.15C328.32 215.15 320.01 206.79 320.01 196.48C320.01 186.18 328.32 177.81 338.57 177.81C348.82 177.81 357.15 186.18 357.15 196.48C357.15 206.79 348.82 215.15 338.57 215.15Z" id="g5ZWTxY0N"></path><path d="M386.35 215.15C376.1 215.15 367.79 206.79 367.79 196.48C367.79 186.18 376.1 177.81 386.35 177.81C396.61 177.81 404.93 186.18 404.93 196.48C404.93 206.79 396.61 215.15 386.35 215.15Z" id="d14MV5CGjJ"></path><path d="M386.35 215.15C376.1 215.15 367.79 206.79 367.79 196.48C367.79 186.18 376.1 177.81 386.35 177.81C396.61 177.81 404.93 186.18 404.93 196.48C404.93 206.79 396.61 215.15 386.35 215.15Z" id="cJI7WR0mp"></path><path d="M434.46 215.15C424.2 215.15 415.9 206.79 415.9 196.48C415.9 186.18 424.2 177.81 434.46 177.81C444.71 177.81 453.03 186.18 453.03 196.48C453.03 206.79 444.71 215.15 434.46 215.15Z" id="bwhXyv2Mx"></path><path d="M434.46 215.15C424.2 215.15 415.9 206.79 415.9 196.48C415.9 186.18 424.2 177.81 434.46 177.81C444.71 177.81 453.03 186.18 453.03 196.48C453.03 206.79 444.71 215.15 434.46 215.15Z" id="euK3ofN6U"></path><path d="M175.7 500.71C180.51 500.71 183.18 500.71 183.72 500.71C203.6 494.26 222.69 485.62 240.69 474.97C242.77 473.32 244.78 471.57 246.7 469.7C252 464.35 256.49 458.23 259.99 451.55C263.3 445.73 266.1 439.62 268.31 433.3C269.4 430.28 270.26 427.18 270.84 424.02C271.6 419.63 271.92 415.19 271.79 410.72C271.89 386.89 262.6 363.97 245.95 346.91C212.81 312.51 158.04 311.5 123.64 344.63C122.88 345.37 122.12 346.13 121.38 346.91C104.72 363.97 95.43 386.89 95.52 410.72C95.43 435.77 104.73 459.94 121.58 478.45C121.58 478.45 139.62 498.12 175.7 537.42C175.7 530.08 175.7 504.38 175.7 500.71Z" id="aMMmhBL6V"></path><path d="M175.7 500.71C180.51 500.71 183.18 500.71 183.72 500.71C203.6 494.26 222.69 485.62 240.69 474.97C242.77 473.32 244.78 471.57 246.7 469.7C252 464.35 256.49 458.23 259.99 451.55C263.3 445.73 266.1 439.62 268.31 433.3C269.4 430.28 270.26 427.18 270.84 424.02C271.6 419.63 271.92 415.19 271.79 410.72C271.89 386.89 262.6 363.97 245.95 346.91C212.81 312.51 158.04 311.5 123.64 344.63C122.88 345.37 122.12 346.13 121.38 346.91C104.72 363.97 95.43 386.89 95.52 410.72C95.43 435.77 104.73 459.94 121.58 478.45C121.58 478.45 139.62 498.12 175.7 537.42C175.7 530.08 175.7 504.38 175.7 500.71Z" id="a4D3slEnNj"></path><path d="M227.28 385C221.92 385 217.58 380.55 217.58 375.07C217.58 369.6 221.92 365.15 227.28 365.15C232.65 365.15 236.98 369.6 236.98 375.07C236.98 380.55 232.65 385 227.28 385Z" id="aVKVGKW6a"></path><path d="M227.28 385C221.92 385 217.58 380.55 217.58 375.07C217.58 369.6 221.92 365.15 227.28 365.15C232.65 365.15 236.98 369.6 236.98 375.07C236.98 380.55 232.65 385 227.28 385Z" id="a5Urfq6sSP"></path><path d="M203.98 385C198.61 385 194.26 380.55 194.26 375.07C194.26 369.6 198.61 365.15 203.98 365.15C209.32 365.15 213.68 369.6 213.68 375.07C213.68 380.55 209.32 385 203.98 385Z" id="d1aaeuhPw2"></path><path d="M203.98 385C198.61 385 194.26 380.55 194.26 375.07C194.26 369.6 198.61 365.15 203.98 365.15C209.32 365.15 213.68 369.6 213.68 375.07C213.68 380.55 209.32 385 203.98 385Z" id="b2FzeT9SO9"></path><path d="M178.86 385C173.5 385 169.16 380.55 169.16 375.07C169.16 369.6 173.5 365.15 178.86 365.15C184.23 365.15 188.56 369.6 188.56 375.07C188.56 380.55 184.23 385 178.86 385Z" id="a8vkrMWCFx"></path><path d="M178.86 385C173.5 385 169.16 380.55 169.16 375.07C169.16 369.6 173.5 365.15 178.86 365.15C184.23 365.15 188.56 369.6 188.56 375.07C188.56 380.55 184.23 385 178.86 385Z" id="a3mFMAu059"></path><path d="M153.75 385C148.4 385 144.05 380.55 144.05 375.07C144.05 369.6 148.4 365.15 153.75 365.15C159.12 365.15 163.47 369.6 163.47 375.07C163.47 380.55 159.12 385 153.75 385Z" id="a6Idr5Wklh"></path><path d="M153.75 385C148.4 385 144.05 380.55 144.05 375.07C144.05 369.6 148.4 365.15 153.75 365.15C159.12 365.15 163.47 369.6 163.47 375.07C163.47 380.55 159.12 385 153.75 385Z" id="d1Jw7E4nkz"></path></defs><g><g><g><use xlink:href="#a1bsMYmQl" opacity="1" fill="#000000" fill-opacity="0"></use><g><use xlink:href="#a1bsMYmQl" opacity="1" fill-opacity="0" stroke="#000000" stroke-width="1" stroke-opacity="0"></use></g></g><g><use xlink:href="#beSjdeOWt" opacity="1" fill="#000000" fill-opacity="0"></use><g><use xlink:href="#beSjdeOWt" opacity="1" fill-opacity="0" stroke="#ffffff" stroke-width="5" stroke-opacity="1"></use></g></g><g><use xlink:href="#aDf4mgBRm" opacity="1" fill="#8dc541" fill-opacity="1"></use><g><use xlink:href="#aDf4mgBRm" opacity="1" fill-opacity="0" stroke="#000000" stroke-width="1" stroke-opacity="0"></use></g></g><g><use xlink:href="#c8ITbYEN8" opacity="1" fill="#000000" fill-opacity="0"></use><g><use xlink:href="#c8ITbYEN8" opacity="1" fill-opacity="0" stroke="#000000" stroke-width="1" stroke-opacity="0"></use></g></g><g><use xlink:href="#f1FzFmrRoy" opacity="1" fill="#000000" fill-opacity="0"></use><g><use xlink:href="#f1FzFmrRoy" opacity="1" fill-opacity="0" stroke="#000000" stroke-width="1" stroke-opacity="0"></use></g></g><g><use xlink:href="#bVv1fVSiS" opacity="1" fill="#000000" fill-opacity="0"></use><g><use xlink:href="#bVv1fVSiS" opacity="1" fill-opacity="0" stroke="#ffffff" stroke-width="8" stroke-opacity="1"></use></g></g><g><use xlink:href="#fKG7JPMlb" opacity="1" fill="#ffffff" fill-opacity="1"></use><g><use xlink:href="#fKG7JPMlb" opacity="1" fill-opacity="0" stroke="#000000" stroke-width="1" stroke-opacity="0"></use></g></g><g><use xlink:href="#b3kdxwH9GW" opacity="1" fill="#000000" fill-opacity="0"></use><g><use xlink:href="#b3kdxwH9GW" opacity="1" fill-opacity="0" stroke="#000000" stroke-width="1" stroke-opacity="0"></use></g></g><g><use xlink:href="#amJR3tNv" opacity="1" fill="#ffffff" fill-opacity="1"></use><g><use xlink:href="#amJR3tNv" opacity="1" fill-opacity="0" stroke="#000000" stroke-width="1" stroke-opacity="0"></use></g></g><g><use xlink:href="#g5ZWTxY0N" opacity="1" fill="#000000" fill-opacity="0"></use><g><use xlink:href="#g5ZWTxY0N" opacity="1" fill-opacity="0" stroke="#000000" stroke-width="1" stroke-opacity="0"></use></g></g><g><use xlink:href="#d14MV5CGjJ" opacity="1" fill="#ffffff" fill-opacity="1"></use><g><use xlink:href="#d14MV5CGjJ" opacity="1" fill-opacity="0" stroke="#000000" stroke-width="1" stroke-opacity="0"></use></g></g><g><use xlink:href="#cJI7WR0mp" opacity="1" fill="#000000" fill-opacity="0"></use><g><use xlink:href="#cJI7WR0mp" opacity="1" fill-opacity="0" stroke="#000000" stroke-width="1" stroke-opacity="0"></use></g></g><g><use xlink:href="#bwhXyv2Mx" opacity="1" fill="#ffffff" fill-opacity="1"></use><g><use xlink:href="#bwhXyv2Mx" opacity="1" fill-opacity="0" stroke="#000000" stroke-width="1" stroke-opacity="0"></use></g></g><g><use xlink:href="#euK3ofN6U" opacity="1" fill="#000000" fill-opacity="0"></use><g><use xlink:href="#euK3ofN6U" opacity="1" fill-opacity="0" stroke="#000000" stroke-width="1" stroke-opacity="0"></use></g></g><g><use xlink:href="#aMMmhBL6V" opacity="1" fill="#000000" fill-opacity="0"></use><g><use xlink:href="#aMMmhBL6V" opacity="1" fill-opacity="0" stroke="#000000" stroke-width="1" stroke-opacity="0"></use></g></g><g><use xlink:href="#a4D3slEnNj" opacity="1" fill="#000000" fill-opacity="0"></use><g><use xlink:href="#a4D3slEnNj" opacity="1" fill-opacity="0" stroke="#ffffff" stroke-width="8" stroke-opacity="1"></use></g></g><g><use xlink:href="#aVKVGKW6a" opacity="1" fill="#ffffff" fill-opacity="1"></use><g><use xlink:href="#aVKVGKW6a" opacity="1" fill-opacity="0" stroke="#000000" stroke-width="1" stroke-opacity="0"></use></g></g><g><use xlink:href="#a5Urfq6sSP" opacity="1" fill="#000000" fill-opacity="0"></use><g><use xlink:href="#a5Urfq6sSP" opacity="1" fill-opacity="0" stroke="#000000" stroke-width="1" stroke-opacity="0"></use></g></g><g><use xlink:href="#d1aaeuhPw2" opacity="1" fill="#ffffff" fill-opacity="1"></use><g><use xlink:href="#d1aaeuhPw2" opacity="1" fill-opacity="0" stroke="#000000" stroke-width="1" stroke-opacity="0"></use></g></g><g><use xlink:href="#b2FzeT9SO9" opacity="1" fill="#000000" fill-opacity="0"></use><g><use xlink:href="#b2FzeT9SO9" opacity="1" fill-opacity="0" stroke="#000000" stroke-width="1" stroke-opacity="0"></use></g></g><g><use xlink:href="#a8vkrMWCFx" opacity="1" fill="#ffffff" fill-opacity="1"></use><g><use xlink:href="#a8vkrMWCFx" opacity="1" fill-opacity="0" stroke="#000000" stroke-width="1" stroke-opacity="0"></use></g></g><g><use xlink:href="#a3mFMAu059" opacity="1" fill="#000000" fill-opacity="0"></use><g><use xlink:href="#a3mFMAu059" opacity="1" fill-opacity="0" stroke="#000000" stroke-width="1" stroke-opacity="0"></use></g></g><g><use xlink:href="#a6Idr5Wklh" opacity="1" fill="#ffffff" fill-opacity="1"></use><g><use xlink:href="#a6Idr5Wklh" opacity="1" fill-opacity="0" stroke="#000000" stroke-width="1" stroke-opacity="0"></use></g></g><g><use xlink:href="#d1Jw7E4nkz" opacity="1" fill="#000000" fill-opacity="0"></use><g><use xlink:href="#d1Jw7E4nkz" opacity="1" fill-opacity="0" stroke="#000000" stroke-width="1" stroke-opacity="0"></use></g></g></g></g></svg>