<?xml version="1.0" encoding="UTF-8" standalone="no"?>
<!DOCTYPE svg PUBLIC "-//W3C//DTD SVG 1.1//EN" "http://www.w3.org/Graphics/SVG/1.1/DTD/svg11.dtd">
<svg version="1.1" xmlns="http://www.w3.org/2000/svg" xmlns:xlink="http://www.w3.org/1999/xlink" preserveAspectRatio="xMidYMid meet" viewBox="0 0 640 640" width="640" height="640"><defs><path d="M4.55 323.41C4.55 498.26 146.29 640 321.13 640C495.98 640 637.72 498.26 637.72 323.41C637.72 148.57 495.98 6.83 321.13 6.83C146.29 6.83 4.55 148.57 4.55 323.41Z" id="cziKyi7JR"></path><path d="M4.55 323.41C4.55 498.26 146.29 640 321.13 640C495.98 640 637.72 498.26 637.72 323.41C637.72 148.57 495.98 6.83 321.13 6.83C146.29 6.83 4.55 148.57 4.55 323.41Z" id="acUc1LE49"></path><path d="M256.54 168.28L258.42 168.4L260.3 168.56L262.17 168.75L264.05 168.96L265.91 169.22L267.75 169.51L269.61 169.84L271.44 170.19L273.29 170.58L275.1 171L276.91 171.46L278.72 171.94L280.52 172.46L282.3 173.01L284.08 173.57L285.84 174.19L287.59 174.84L289.33 175.52L291.05 176.23L292.76 176.96L294.48 177.73L296.16 178.52L297.83 179.35L299.49 180.21L301.13 181.1L302.76 182.02L304.38 182.97L305.96 183.94L307.55 184.96L309.12 186L310.65 187.07L312.17 188.15L313.69 189.28L315.18 190.43L316.65 191.61L318.09 192.82L319.53 194.05L320.94 195.32L322.35 194.05L323.79 192.82L325.23 191.61L326.7 190.43L328.19 189.28L329.71 188.15L331.23 187.07L332.78 186L334.33 184.96L335.92 183.94L337.51 182.97L339.12 182.02L340.76 181.1L342.39 180.21L344.06 179.35L345.72 178.52L347.42 177.73L349.12 176.96L350.83 176.23L352.55 175.52L354.3 174.84L356.04 174.19L357.81 173.57L359.59 173.01L361.37 172.46L363.16 171.94L364.97 171.46L366.78 171L368.61 170.58L370.44 170.19L372.27 169.84L374.13 169.51L375.97 169.22L377.83 168.96L379.71 168.75L381.59 168.56L383.46 168.4L385.34 168.28L387.23 168.2L389.12 168.14L498.04 168.14L498.04 494.77L389.41 494.77L387.52 494.82L385.65 494.9L383.75 495.03L381.88 495.17L380 495.37L378.12 495.58L376.26 495.84L374.42 496.13L372.58 496.45L370.73 496.81L368.9 497.2L367.08 497.62L365.26 498.07L363.45 498.56L361.66 499.07L359.88 499.62L358.1 500.21L356.33 500.82L354.59 501.45L352.86 502.13L351.13 502.84L349.41 503.57L347.71 504.35L346.01 505.14L344.35 505.96L342.68 506.82L341.05 507.71L339.41 508.63L337.81 509.59L336.21 510.56L334.63 511.58L333.07 512.61L331.52 513.68L330 514.76L328.48 515.9L326.99 517.04L325.52 518.23L324.08 519.44L322.64 520.67L321.23 521.95L319.82 520.67L318.39 519.44L316.95 518.23L315.47 517.04L313.99 515.9L312.48 514.76L310.94 513.68L309.41 512.61L307.84 511.58L306.25 510.56L304.67 509.59L303.05 508.63L301.42 507.71L299.78 506.82L298.12 505.96L296.45 505.14L294.77 504.35L293.05 503.57L291.35 502.84L289.62 502.13L287.88 501.45L286.13 500.82L284.37 500.21L282.59 499.62L280.81 499.07L279.01 498.56L277.22 498.07L275.39 497.62L273.58 497.2L271.73 496.81L269.9 496.45L268.06 496.13L266.2 495.84L264.34 495.58L262.46 495.37L260.59 495.17L258.71 495.03L256.83 494.9L254.94 494.82L253.05 494.77L144.23 494.77L144.23 168.14L252.76 168.14L254.65 168.2L256.54 168.28ZM157.79 481.12L252.76 481.12L254.59 481.18L256.43 481.26L258.26 481.36L260.09 481.51L261.91 481.67L263.74 481.86L265.55 482.09L267.37 482.33L269.18 482.61L270.97 482.91L272.77 483.24L274.55 483.59L276.34 483.96L278.11 484.38L279.89 484.82L281.65 485.27L283.4 485.78L285.14 486.29L286.87 486.83L288.6 487.39L290.34 487.99L292.03 488.61L293.75 489.25L295.43 489.93L297.11 490.63L298.8 491.36L300.45 492.1L302.1 492.88L303.75 493.67L305.36 494.49L306.98 495.35L308.58 496.23L310.18 497.13L311.75 498.05L313.32 498.99L314.87 499.98L316.41 500.97L319.45 503.04L320.94 504.12L321.23 214.71L311.49 204.97L310.28 203.89L309.05 202.84L307.81 201.82L306.53 200.82L305.25 199.83L303.96 198.87L302.65 197.94L301.32 197.03L299.98 196.16L298.62 195.3L297.26 194.46L294.48 192.87L293.07 192.11L291.65 191.38L288.77 189.99L287.31 189.35L285.84 188.72L284.35 188.12L282.86 187.53L281.36 186.98L279.85 186.47L278.33 185.97L276.81 185.5L275.28 185.06L273.72 184.64L272.17 184.25L270.62 183.9L269.05 183.57L267.48 183.26L265.89 182.99L264.31 182.73L262.71 182.5L259.5 182.15L257.9 182.02L256.28 181.91L254.67 181.82L253.05 181.78L157.79 181.78L157.79 481.12ZM361.95 399.39L457.32 399.39L457.23 385.56L361.95 385.56L361.95 399.39ZM361.95 358.58L457.32 358.58L457.23 344.95L361.95 344.95L361.95 358.58ZM361.95 317.77L457.32 317.77L457.23 304.13L361.95 304.13L361.95 317.77ZM361.95 276.96L457.32 276.96L457.23 263.32L361.95 263.32L361.95 276.96Z" id="c11U8CSL0H"></path><path d="M256.54 168.28L258.42 168.4L260.3 168.56L262.17 168.75L264.05 168.96L265.91 169.22L267.75 169.51L269.61 169.84L271.44 170.19L273.29 170.58L275.1 171L276.91 171.46L278.72 171.94L280.52 172.46L282.3 173.01L284.08 173.57L285.84 174.19L287.59 174.84L289.33 175.52L291.05 176.23L292.76 176.96L294.48 177.73L296.16 178.52L297.83 179.35L299.49 180.21L301.13 181.1L302.76 182.02L304.38 182.97L305.96 183.94L307.55 184.96L309.12 186L310.65 187.07L312.17 188.15L313.69 189.28L315.18 190.43L316.65 191.61L318.09 192.82L319.53 194.05L320.94 195.32L322.35 194.05L323.79 192.82L325.23 191.61L326.7 190.43L328.19 189.28L329.71 188.15L331.23 187.07L332.78 186L334.33 184.96L335.92 183.94L337.51 182.97L339.12 182.02L340.76 181.1L342.39 180.21L344.06 179.35L345.72 178.52L347.42 177.73L349.12 176.96L350.83 176.23L352.55 175.52L354.3 174.84L356.04 174.19L357.81 173.57L359.59 173.01L361.37 172.46L363.16 171.94L364.97 171.46L366.78 171L368.61 170.58L370.44 170.19L372.27 169.84L374.13 169.51L375.97 169.22L377.83 168.96L379.71 168.75L381.59 168.56L383.46 168.4L385.34 168.28L387.23 168.2L389.12 168.14L498.04 168.14L498.04 494.77L389.41 494.77L387.52 494.82L385.65 494.9L383.75 495.03L381.88 495.17L380 495.37L378.12 495.58L376.26 495.84L374.42 496.13L372.58 496.45L370.73 496.81L368.9 497.2L367.08 497.62L365.26 498.07L363.45 498.56L361.66 499.07L359.88 499.62L358.1 500.21L356.33 500.82L354.59 501.45L352.86 502.13L351.13 502.84L349.41 503.57L347.71 504.35L346.01 505.14L344.35 505.96L342.68 506.82L341.05 507.71L339.41 508.63L337.81 509.59L336.21 510.56L334.63 511.58L333.07 512.61L331.52 513.68L330 514.76L328.48 515.9L326.99 517.04L325.52 518.23L324.08 519.44L322.64 520.67L321.23 521.95L319.82 520.67L318.39 519.44L316.95 518.23L315.47 517.04L313.99 515.9L312.48 514.76L310.94 513.68L309.41 512.61L307.84 511.58L306.25 510.56L304.67 509.59L303.05 508.63L301.42 507.71L299.78 506.82L298.12 505.96L296.45 505.14L294.77 504.35L293.05 503.57L291.35 502.84L289.62 502.13L287.88 501.45L286.13 500.82L284.37 500.21L282.59 499.62L280.81 499.07L279.01 498.56L277.22 498.07L275.39 497.62L273.58 497.2L271.73 496.81L269.9 496.45L268.06 496.13L266.2 495.84L264.34 495.58L262.46 495.37L260.59 495.17L258.71 495.03L256.83 494.9L254.94 494.82L253.05 494.77L144.23 494.77L144.23 168.14L252.76 168.14L254.65 168.2L256.54 168.28ZM157.79 481.12L252.76 481.12L254.59 481.18L256.43 481.26L258.26 481.36L260.09 481.51L261.91 481.67L263.74 481.86L265.55 482.09L267.37 482.33L269.18 482.61L270.97 482.91L272.77 483.24L274.55 483.59L276.34 483.96L278.11 484.38L279.89 484.82L281.65 485.27L283.4 485.78L285.14 486.29L286.87 486.83L288.6 487.39L290.34 487.99L292.03 488.61L293.75 489.25L295.43 489.93L297.11 490.63L298.8 491.36L300.45 492.1L302.1 492.88L303.75 493.67L305.36 494.49L306.98 495.35L308.58 496.23L310.18 497.13L311.75 498.05L313.32 498.99L314.87 499.98L316.41 500.97L319.45 503.04L320.94 504.12L321.23 214.71L311.49 204.97L310.28 203.89L309.05 202.84L307.81 201.82L306.53 200.82L305.25 199.83L303.96 198.87L302.65 197.94L301.32 197.03L299.98 196.16L298.62 195.3L297.26 194.46L294.48 192.87L293.07 192.11L291.65 191.38L288.77 189.99L287.31 189.35L285.84 188.72L284.35 188.12L282.86 187.53L281.36 186.98L279.85 186.47L278.33 185.97L276.81 185.5L275.28 185.06L273.72 184.64L272.17 184.25L270.62 183.9L269.05 183.57L267.48 183.26L265.89 182.99L264.31 182.73L262.71 182.5L259.5 182.15L257.9 182.02L256.28 181.91L254.67 181.82L253.05 181.78L157.79 181.78L157.79 481.12ZM361.95 399.39L457.32 399.39L457.23 385.56L361.95 385.56L361.95 399.39ZM361.95 358.58L457.32 358.58L457.23 344.95L361.95 344.95L361.95 358.58ZM361.95 317.77L457.32 317.77L457.23 304.13L361.95 304.13L361.95 317.77ZM361.95 276.96L457.32 276.96L457.23 263.32L361.95 263.32L361.95 276.96Z" id="d1iEXWlXqm"></path></defs><g><g><g><use xlink:href="#cziKyi7JR" opacity="1" fill="#9bca52" fill-opacity="1"></use><g><use xlink:href="#cziKyi7JR" opacity="1" fill-opacity="0" stroke="#000000" stroke-width="1" stroke-opacity="0"></use></g></g><g><use xlink:href="#acUc1LE49" opacity="1" fill="#000000" fill-opacity="0"></use><g><use xlink:href="#acUc1LE49" opacity="1" fill-opacity="0" stroke="#000000" stroke-width="1" stroke-opacity="0"></use></g></g><g><use xlink:href="#c11U8CSL0H" opacity="1" fill="#ffffff" fill-opacity="1"></use><g><use xlink:href="#c11U8CSL0H" opacity="1" fill-opacity="0" stroke="#000000" stroke-width="1" stroke-opacity="0"></use></g></g><g><use xlink:href="#d1iEXWlXqm" opacity="1" fill="#000000" fill-opacity="0"></use><g><use xlink:href="#d1iEXWlXqm" opacity="1" fill-opacity="0" stroke="#000000" stroke-width="1" stroke-opacity="0"></use></g></g></g></g></svg>