<?xml version="1.0" encoding="UTF-8" standalone="no"?>
<!DOCTYPE svg PUBLIC "-//W3C//DTD SVG 1.1//EN" "http://www.w3.org/Graphics/SVG/1.1/DTD/svg11.dtd">
<svg version="1.1" xmlns="http://www.w3.org/2000/svg" xmlns:xlink="http://www.w3.org/1999/xlink" preserveAspectRatio="xMidYMid meet" viewBox="0 0 640 640" width="640" height="640"><defs><path d="M438.45 247.19C438.36 257.3 446.4 265.59 456.49 265.84C466.18 266.56 474.64 259.32 475.36 249.63C475.42 248.93 475.43 248.23 475.4 247.53C475.5 237.33 467.31 228.98 457.1 228.88C446.9 228.79 438.54 236.99 438.45 247.19Z" id="c16Z2nGuLN"></path><path d="M438.45 247.19C438.36 257.3 446.4 265.59 456.49 265.84C466.18 266.56 474.64 259.32 475.36 249.63C475.42 248.93 475.43 248.23 475.4 247.53C475.5 237.33 467.31 228.98 457.1 228.88C446.9 228.79 438.54 236.99 438.45 247.19Z" id="bMLoFQrCm"></path><path d="M378.58 188.99C369.85 188.99 362.78 181.88 362.78 173.1C362.78 164.33 369.85 157.2 378.58 157.2C387.31 157.2 394.4 164.33 394.4 173.1C394.4 181.88 387.31 188.99 378.58 188.99Z" id="bF3y36vCr"></path><path d="M378.58 188.99C369.85 188.99 362.78 181.88 362.78 173.1C362.78 164.33 369.85 157.2 378.58 157.2C387.31 157.2 394.4 164.33 394.4 173.1C394.4 181.88 387.31 188.99 378.58 188.99Z" id="bh4bhQwTV"></path><path d="M419.54 188.99C410.81 188.99 403.73 181.88 403.73 173.1C403.73 164.33 410.81 157.2 419.54 157.2C428.27 157.2 435.35 164.33 435.35 173.1C435.35 181.88 428.27 188.99 419.54 188.99Z" id="bHRsWgdLJ"></path><path d="M419.54 188.99C410.81 188.99 403.73 181.88 403.73 173.1C403.73 164.33 410.81 157.2 419.54 157.2C428.27 157.2 435.35 164.33 435.35 173.1C435.35 181.88 428.27 188.99 419.54 188.99Z" id="a2zPPyxeG"></path><path d="M380.56 258C380.56 265.97 387.01 272.43 394.99 272.43C402.95 272.43 409.42 265.97 409.42 258C409.42 250.03 402.95 243.58 394.99 243.58C387.01 243.58 380.56 250.03 380.56 258Z" id="c1sxALK6aJ"></path><path d="M380.56 258C380.56 265.97 387.01 272.43 394.99 272.43C402.95 272.43 409.42 265.97 409.42 258C409.42 250.03 402.95 243.58 394.99 243.58C387.01 243.58 380.56 250.03 380.56 258Z" id="alsiXqIBV"></path><path d="M456.34 276.52C456.34 282.84 456.34 286.34 456.34 287.04C456.34 287.04 456.34 287.04 456.34 287.04C412.29 287.04 387.81 287.04 382.92 287.04C382.92 287.04 382.92 287.04 382.92 287.04C382.92 280.72 382.92 277.22 382.92 276.52C382.92 276.52 382.92 276.52 382.92 276.52C426.97 276.52 451.45 276.52 456.34 276.52C456.34 276.52 456.34 276.52 456.34 276.52Z" id="deI9xNabC"></path><path d="M456.34 276.52C456.34 282.84 456.34 286.34 456.34 287.04C456.34 287.04 456.34 287.04 456.34 287.04C412.29 287.04 387.81 287.04 382.92 287.04C382.92 287.04 382.92 287.04 382.92 287.04C382.92 280.72 382.92 277.22 382.92 276.52C382.92 276.52 382.92 276.52 382.92 276.52C426.97 276.52 451.45 276.52 456.34 276.52C456.34 276.52 456.34 276.52 456.34 276.52Z" id="i21q1rNf1O"></path><path d="M456.34 297.48C456.34 303.8 456.34 307.3 456.34 308.02C456.34 308.02 456.34 308.02 456.34 308.02C412.29 308.02 387.81 308.02 382.92 308.02C382.92 308.02 382.92 308.02 382.92 308.02C382.92 301.7 382.92 298.18 382.92 297.48C382.92 297.48 382.92 297.48 382.92 297.48C426.97 297.48 451.45 297.48 456.34 297.48C456.34 297.48 456.34 297.48 456.34 297.48Z" id="aDwKi1oJa"></path><path d="M456.34 297.48C456.34 303.8 456.34 307.3 456.34 308.02C456.34 308.02 456.34 308.02 456.34 308.02C412.29 308.02 387.81 308.02 382.92 308.02C382.92 308.02 382.92 308.02 382.92 308.02C382.92 301.7 382.92 298.18 382.92 297.48C382.92 297.48 382.92 297.48 382.92 297.48C426.97 297.48 451.45 297.48 456.34 297.48C456.34 297.48 456.34 297.48 456.34 297.48Z" id="a3o4zaNT2K"></path><path d="M456.34 318.45C456.34 324.76 456.34 328.28 456.34 328.98C456.34 328.98 456.34 328.98 456.34 328.98C412.29 328.98 387.81 328.98 382.92 328.98C382.92 328.98 382.92 328.98 382.92 328.98C382.92 322.66 382.92 319.15 382.92 318.45C382.92 318.45 382.92 318.45 382.92 318.45C426.97 318.45 451.45 318.45 456.34 318.45C456.34 318.45 456.34 318.45 456.34 318.45Z" id="b22ld8QHnH"></path><path d="M456.34 318.45C456.34 324.76 456.34 328.28 456.34 328.98C456.34 328.98 456.34 328.98 456.34 328.98C412.29 328.98 387.81 328.98 382.92 328.98C382.92 328.98 382.92 328.98 382.92 328.98C382.92 322.66 382.92 319.15 382.92 318.45C382.92 318.45 382.92 318.45 382.92 318.45C426.97 318.45 451.45 318.45 456.34 318.45C456.34 318.45 456.34 318.45 456.34 318.45Z" id="f4V7QcoSR"></path><path d="M456.34 339.42C456.34 345.73 456.34 349.24 456.34 349.94C456.34 349.94 456.34 349.94 456.34 349.94C412.29 349.94 387.81 349.94 382.92 349.94C382.92 349.94 382.92 349.94 382.92 349.94C382.92 343.63 382.92 340.12 382.92 339.42C382.92 339.42 382.92 339.42 382.92 339.42C426.97 339.42 451.45 339.42 456.34 339.42C456.34 339.42 456.34 339.42 456.34 339.42Z" id="a16csEBGon"></path><path d="M456.34 339.42C456.34 345.73 456.34 349.24 456.34 349.94C456.34 349.94 456.34 349.94 456.34 349.94C412.29 349.94 387.81 349.94 382.92 349.94C382.92 349.94 382.92 349.94 382.92 349.94C382.92 343.63 382.92 340.12 382.92 339.42C382.92 339.42 382.92 339.42 382.92 339.42C426.97 339.42 451.45 339.42 456.34 339.42C456.34 339.42 456.34 339.42 456.34 339.42Z" id="b3EqH0XwKW"></path><path d="M456.34 360.38C456.34 366.7 456.34 370.21 456.34 370.91C456.34 370.91 456.34 370.91 456.34 370.91C412.29 370.91 387.81 370.91 382.92 370.91C382.92 370.91 382.92 370.91 382.92 370.91C382.92 364.59 382.92 361.08 382.92 360.38C382.92 360.38 382.92 360.38 382.92 360.38C426.97 360.38 451.45 360.38 456.34 360.38C456.34 360.38 456.34 360.38 456.34 360.38Z" id="c3hTGyxkX0"></path><path d="M456.34 360.38C456.34 366.7 456.34 370.21 456.34 370.91C456.34 370.91 456.34 370.91 456.34 370.91C412.29 370.91 387.81 370.91 382.92 370.91C382.92 370.91 382.92 370.91 382.92 370.91C382.92 364.59 382.92 361.08 382.92 360.38C382.92 360.38 382.92 360.38 382.92 360.38C426.97 360.38 451.45 360.38 456.34 360.38C456.34 360.38 456.34 360.38 456.34 360.38Z" id="a23Hcy9a6U"></path><path d="M456.34 381.44C456.34 387.76 456.34 391.26 456.34 391.96C456.34 391.96 456.34 391.96 456.34 391.96C412.29 391.96 387.81 391.96 382.92 391.96C382.92 391.96 382.92 391.96 382.92 391.96C382.92 385.64 382.92 382.14 382.92 381.44C382.92 381.44 382.92 381.44 382.92 381.44C426.97 381.44 451.45 381.44 456.34 381.44C456.34 381.44 456.34 381.44 456.34 381.44Z" id="b4x1R8QeSt"></path><path d="M456.34 381.44C456.34 387.76 456.34 391.26 456.34 391.96C456.34 391.96 456.34 391.96 456.34 391.96C412.29 391.96 387.81 391.96 382.92 391.96C382.92 391.96 382.92 391.96 382.92 391.96C382.92 385.64 382.92 382.14 382.92 381.44C382.92 381.44 382.92 381.44 382.92 381.44C426.97 381.44 451.45 381.44 456.34 381.44C456.34 381.44 456.34 381.44 456.34 381.44Z" id="g5DGlqvxUO"></path><path d="M420.8 374.91L420.8 388.04L443.38 388.04L443.38 393.46L368.99 393.46L368.99 388.28L391.23 388.28L391.23 375.15L332.52 375.15L332.52 257.97L479.84 257.97L479.84 375.15L420.8 374.91ZM343.94 359.89L468.43 359.89L468.43 269.56L343.94 269.56L343.94 359.89Z" id="a15mKwUEiY"></path><path d="M420.8 374.91L420.8 388.04L443.38 388.04L443.38 393.46L368.99 393.46L368.99 388.28L391.23 388.28L391.23 375.15L332.52 375.15L332.52 257.97L479.84 257.97L479.84 375.15L420.8 374.91ZM343.94 359.89L468.43 359.89L468.43 269.56L343.94 269.56L343.94 359.89Z" id="bNqReP0fq"></path><path d="M318.63 633.01C145.06 633.01 4.34 492.91 4.34 320.08C4.34 147.26 145.06 7.16 318.63 7.16C492.2 7.16 632.92 147.26 632.92 320.08C632.92 492.91 492.2 633.01 318.63 633.01Z" id="b1JlVS2mFZ"></path><path d="M318.63 633.01C145.06 633.01 4.34 492.91 4.34 320.08C4.34 147.26 145.06 7.16 318.63 7.16C492.2 7.16 632.92 147.26 632.92 320.08C632.92 492.91 492.2 633.01 318.63 633.01Z" id="d3YTNsGKZ"></path><path d="M172.58 289.7L247.23 289.7L267.64 273.18L281.72 315.24L314.53 215.25L333.45 376.65L365 275.29L380.67 292.01L464.79 292.01" id="av60t7au5"></path><path d="M172.58 289.7L247.23 289.7L267.64 273.18L281.72 315.24L314.53 215.25L333.45 376.65L365 275.29L380.67 292.01L464.79 292.01" id="bja2ZedrO"></path><path d="M160.28 478.64L160.28 162.05L476.87 162.05L476.87 478.64L160.28 478.64ZM184.68 405.57L452.58 405.57L452.58 186.43L184.68 186.43L184.68 405.57Z" id="a3agxyv9Om"></path><path d="M160.28 478.64L160.28 162.05L476.87 162.05L476.87 478.64L160.28 478.64ZM184.68 405.57L452.58 405.57L452.58 186.43L184.68 186.43L184.68 405.57Z" id="agr8DZ5j5"></path></defs><g><g><g><use xlink:href="#c16Z2nGuLN" opacity="1" fill="#000000" fill-opacity="0"></use><g><use xlink:href="#c16Z2nGuLN" opacity="1" fill-opacity="0" stroke="#000000" stroke-width="1" stroke-opacity="0"></use></g></g><g><use xlink:href="#bMLoFQrCm" opacity="1" fill="#000000" fill-opacity="0"></use><g><use xlink:href="#bMLoFQrCm" opacity="1" fill-opacity="0" stroke="#ffffff" stroke-width="5" stroke-opacity="1"></use></g></g><g><use xlink:href="#bF3y36vCr" opacity="1" fill="#ffffff" fill-opacity="1"></use><g><use xlink:href="#bF3y36vCr" opacity="1" fill-opacity="0" stroke="#000000" stroke-width="1" stroke-opacity="0"></use></g></g><g><use xlink:href="#bh4bhQwTV" opacity="1" fill="#000000" fill-opacity="0"></use><g><use xlink:href="#bh4bhQwTV" opacity="1" fill-opacity="0" stroke="#000000" stroke-width="1" stroke-opacity="0"></use></g></g><g><use xlink:href="#bHRsWgdLJ" opacity="1" fill="#ffffff" fill-opacity="1"></use><g><use xlink:href="#bHRsWgdLJ" opacity="1" fill-opacity="0" stroke="#000000" stroke-width="1" stroke-opacity="0"></use></g></g><g><use xlink:href="#a2zPPyxeG" opacity="1" fill="#000000" fill-opacity="0"></use><g><use xlink:href="#a2zPPyxeG" opacity="1" fill-opacity="0" stroke="#000000" stroke-width="1" stroke-opacity="0"></use></g></g><g><use xlink:href="#c1sxALK6aJ" opacity="1" fill="#ffffff" fill-opacity="1"></use><g><use xlink:href="#c1sxALK6aJ" opacity="1" fill-opacity="0" stroke="#000000" stroke-width="1" stroke-opacity="0"></use></g></g><g><use xlink:href="#alsiXqIBV" opacity="1" fill="#000000" fill-opacity="0"></use><g><use xlink:href="#alsiXqIBV" opacity="1" fill-opacity="0" stroke="#000000" stroke-width="1" stroke-opacity="0"></use></g></g><g><use xlink:href="#deI9xNabC" opacity="1" fill="#ffffff" fill-opacity="1"></use><g><use xlink:href="#deI9xNabC" opacity="1" fill-opacity="0" stroke="#000000" stroke-width="1" stroke-opacity="0"></use></g></g><g><use xlink:href="#i21q1rNf1O" opacity="1" fill="#000000" fill-opacity="0"></use><g><use xlink:href="#i21q1rNf1O" opacity="1" fill-opacity="0" stroke="#000000" stroke-width="1" stroke-opacity="0"></use></g></g><g><use xlink:href="#aDwKi1oJa" opacity="1" fill="#ffffff" fill-opacity="1"></use><g><use xlink:href="#aDwKi1oJa" opacity="1" fill-opacity="0" stroke="#000000" stroke-width="1" stroke-opacity="0"></use></g></g><g><use xlink:href="#a3o4zaNT2K" opacity="1" fill="#000000" fill-opacity="0"></use><g><use xlink:href="#a3o4zaNT2K" opacity="1" fill-opacity="0" stroke="#000000" stroke-width="1" stroke-opacity="0"></use></g></g><g><use xlink:href="#b22ld8QHnH" opacity="1" fill="#ffffff" fill-opacity="1"></use><g><use xlink:href="#b22ld8QHnH" opacity="1" fill-opacity="0" stroke="#000000" stroke-width="1" stroke-opacity="0"></use></g></g><g><use xlink:href="#f4V7QcoSR" opacity="1" fill="#000000" fill-opacity="0"></use><g><use xlink:href="#f4V7QcoSR" opacity="1" fill-opacity="0" stroke="#000000" stroke-width="1" stroke-opacity="0"></use></g></g><g><use xlink:href="#a16csEBGon" opacity="1" fill="#ffffff" fill-opacity="1"></use><g><use xlink:href="#a16csEBGon" opacity="1" fill-opacity="0" stroke="#000000" stroke-width="1" stroke-opacity="0"></use></g></g><g><use xlink:href="#b3EqH0XwKW" opacity="1" fill="#000000" fill-opacity="0"></use><g><use xlink:href="#b3EqH0XwKW" opacity="1" fill-opacity="0" stroke="#000000" stroke-width="1" stroke-opacity="0"></use></g></g><g><use xlink:href="#c3hTGyxkX0" opacity="1" fill="#ffffff" fill-opacity="1"></use><g><use xlink:href="#c3hTGyxkX0" opacity="1" fill-opacity="0" stroke="#000000" stroke-width="1" stroke-opacity="0"></use></g></g><g><use xlink:href="#a23Hcy9a6U" opacity="1" fill="#000000" fill-opacity="0"></use><g><use xlink:href="#a23Hcy9a6U" opacity="1" fill-opacity="0" stroke="#000000" stroke-width="1" stroke-opacity="0"></use></g></g><g><use xlink:href="#b4x1R8QeSt" opacity="1" fill="#ffffff" fill-opacity="1"></use><g><use xlink:href="#b4x1R8QeSt" opacity="1" fill-opacity="0" stroke="#000000" stroke-width="1" stroke-opacity="0"></use></g></g><g><use xlink:href="#g5DGlqvxUO" opacity="1" fill="#000000" fill-opacity="0"></use><g><use xlink:href="#g5DGlqvxUO" opacity="1" fill-opacity="0" stroke="#000000" stroke-width="1" stroke-opacity="0"></use></g></g><g><use xlink:href="#a15mKwUEiY" opacity="1" fill="#ffffff" fill-opacity="1"></use><g><use xlink:href="#a15mKwUEiY" opacity="1" fill-opacity="0" stroke="#000000" stroke-width="1" stroke-opacity="0"></use></g></g><g><use xlink:href="#bNqReP0fq" opacity="1" fill="#000000" fill-opacity="0"></use><g><use xlink:href="#bNqReP0fq" opacity="1" fill-opacity="0" stroke="#000000" stroke-width="1" stroke-opacity="0"></use></g></g><g><use xlink:href="#b1JlVS2mFZ" opacity="1" fill="#89c540" fill-opacity="1"></use><g><use xlink:href="#b1JlVS2mFZ" opacity="1" fill-opacity="0" stroke="#000000" stroke-width="1" stroke-opacity="0"></use></g></g><g><use xlink:href="#d3YTNsGKZ" opacity="1" fill="#000000" fill-opacity="0"></use><g><use xlink:href="#d3YTNsGKZ" opacity="1" fill-opacity="0" stroke="#000000" stroke-width="1" stroke-opacity="0"></use></g></g><g><use xlink:href="#av60t7au5" opacity="1" fill="#000000" fill-opacity="0"></use><g><use xlink:href="#av60t7au5" opacity="1" fill-opacity="0" stroke="#000000" stroke-width="1" stroke-opacity="0"></use></g></g><g><use xlink:href="#bja2ZedrO" opacity="1" fill="#000000" fill-opacity="0"></use><g><use xlink:href="#bja2ZedrO" opacity="1" fill-opacity="0" stroke="#ffffff" stroke-width="2" stroke-opacity="1"></use></g></g><g><use xlink:href="#a3agxyv9Om" opacity="1" fill="#ffffff" fill-opacity="1"></use><g><use xlink:href="#a3agxyv9Om" opacity="1" fill-opacity="0" stroke="#000000" stroke-width="1" stroke-opacity="0"></use></g></g><g><use xlink:href="#agr8DZ5j5" opacity="1" fill="#000000" fill-opacity="0"></use><g><use xlink:href="#agr8DZ5j5" opacity="1" fill-opacity="0" stroke="#000000" stroke-width="1" stroke-opacity="0"></use></g></g></g></g></svg>