<?xml version="1.0" encoding="UTF-8" standalone="no"?>
<!DOCTYPE svg PUBLIC "-//W3C//DTD SVG 1.1//EN" "http://www.w3.org/Graphics/SVG/1.1/DTD/svg11.dtd">
<svg version="1.1" xmlns="http://www.w3.org/2000/svg" xmlns:xlink="http://www.w3.org/1999/xlink" preserveAspectRatio="xMidYMid meet" viewBox="0 0 640 640" width="640" height="640"><defs><path d="M499.78 374.83C499.78 382.9 499.78 387.39 499.78 388.28C499.78 388.28 499.78 388.28 499.78 388.28C290.81 388.28 174.72 388.28 151.51 388.28C151.51 388.28 151.51 388.28 151.51 388.28C151.51 380.22 151.51 375.73 151.51 374.83C151.51 374.83 151.51 374.83 151.51 374.83C360.46 374.83 476.57 374.83 499.78 374.83C499.78 374.83 499.78 374.83 499.78 374.83Z" id="beLXUSEgt"></path><path d="M499.78 374.83C499.78 382.9 499.78 387.39 499.78 388.28C499.78 388.28 499.78 388.28 499.78 388.28C290.81 388.28 174.72 388.28 151.51 388.28C151.51 388.28 151.51 388.28 151.51 388.28C151.51 380.22 151.51 375.73 151.51 374.83C151.51 374.83 151.51 374.83 151.51 374.83C360.46 374.83 476.57 374.83 499.78 374.83C499.78 374.83 499.78 374.83 499.78 374.83Z" id="a5MjBJV40"></path><path d="M446.71 234.79C446.71 243.14 453.47 249.91 461.82 249.91C470.17 249.91 476.94 243.14 476.94 234.79C476.94 226.44 470.17 219.68 461.82 219.68C453.47 219.68 446.71 226.44 446.71 234.79Z" id="g1Ch7WWLXD"></path><path d="M446.71 234.79C446.71 243.14 453.47 249.91 461.82 249.91C470.17 249.91 476.94 243.14 476.94 234.79C476.94 226.44 470.17 219.68 461.82 219.68C453.47 219.68 446.71 226.44 446.71 234.79Z" id="d2lfv3PEm6"></path><path d="M407.7 234.79C407.7 243.14 414.47 249.91 422.83 249.91C431.17 249.91 437.95 243.14 437.95 234.79C437.95 226.44 431.17 219.68 422.83 219.68C414.47 219.68 407.7 226.44 407.7 234.79Z" id="bgVQUDifR"></path><path d="M407.7 234.79C407.7 243.14 414.47 249.91 422.83 249.91C431.17 249.91 437.95 243.14 437.95 234.79C437.95 226.44 431.17 219.68 422.83 219.68C414.47 219.68 407.7 226.44 407.7 234.79Z" id="atgjxeO9q"></path><path d="M447.95 331.87C447.95 340.22 454.73 346.99 463.07 346.99C471.43 346.99 478.19 340.22 478.19 331.87C478.19 323.52 471.43 316.76 463.07 316.76C454.73 316.76 447.95 323.52 447.95 331.87Z" id="akhR620Mo"></path><path d="M447.95 331.87C447.95 340.22 454.73 346.99 463.07 346.99C471.43 346.99 478.19 340.22 478.19 331.87C478.19 323.52 471.43 316.76 463.07 316.76C454.73 316.76 447.95 323.52 447.95 331.87Z" id="bLfT0xSEi"></path><path d="M408.74 331.87C408.74 340.22 415.52 346.99 423.86 346.99C432.22 346.99 438.98 340.22 438.98 331.87C438.98 323.52 432.22 316.76 423.86 316.76C415.52 316.76 408.74 323.52 408.74 331.87Z" id="bVTnpIYSE"></path><path d="M408.74 331.87C408.74 340.22 415.52 346.99 423.86 346.99C432.22 346.99 438.98 340.22 438.98 331.87C438.98 323.52 432.22 316.76 423.86 316.76C415.52 316.76 408.74 323.52 408.74 331.87Z" id="anO3LeUFd"></path><path d="M448.89 427.91C448.89 436.27 455.65 443.03 464.01 443.03C472.36 443.03 479.14 436.27 479.14 427.91C479.14 419.57 472.36 412.79 464.01 412.79C455.65 412.79 448.89 419.57 448.89 427.91Z" id="f33WwfpUAh"></path><path d="M448.89 427.91C448.89 436.27 455.65 443.03 464.01 443.03C472.36 443.03 479.14 436.27 479.14 427.91C479.14 419.57 472.36 412.79 464.01 412.79C455.65 412.79 448.89 419.57 448.89 427.91Z" id="dlCRVubku"></path><path d="M409.68 427.91C409.68 436.27 416.45 443.03 424.81 443.03C433.15 443.03 439.93 436.27 439.93 427.91C439.93 419.57 433.15 412.79 424.81 412.79C416.45 412.79 409.68 419.57 409.68 427.91Z" id="a4skNyGiM"></path><path d="M409.68 427.91C409.68 436.27 416.45 443.03 424.81 443.03C433.15 443.03 439.93 436.27 439.93 427.91C439.93 419.57 433.15 412.79 424.81 412.79C416.45 412.79 409.68 419.57 409.68 427.91Z" id="a7PRBEbDe"></path><path d="M368.7 427.91C368.7 436.27 375.48 443.03 383.82 443.03C392.18 443.03 398.94 436.27 398.94 427.91C398.94 419.57 392.18 412.79 383.82 412.79C375.48 412.79 368.7 419.57 368.7 427.91Z" id="eq815BIKZ"></path><path d="M368.7 427.91C368.7 436.27 375.48 443.03 383.82 443.03C392.18 443.03 398.94 436.27 398.94 427.91C398.94 419.57 392.18 412.79 383.82 412.79C375.48 412.79 368.7 419.57 368.7 427.91Z" id="b3biYQ3e7N"></path><path d="M202.38 417.48C202.38 430 202.38 436.95 202.38 438.34C202.38 438.34 202.38 438.34 202.38 438.34C189.88 438.34 182.93 438.34 181.54 438.34C181.54 438.34 181.54 438.34 181.54 438.34C181.54 425.82 181.54 418.87 181.54 417.48C181.54 417.48 181.54 417.48 181.54 417.48C194.04 417.48 200.99 417.48 202.38 417.48C202.38 417.48 202.38 417.48 202.38 417.48Z" id="aG4JW2f1z"></path><path d="M202.38 417.48C202.38 430 202.38 436.95 202.38 438.34C202.38 438.34 202.38 438.34 202.38 438.34C189.88 438.34 182.93 438.34 181.54 438.34C181.54 438.34 181.54 438.34 181.54 438.34C181.54 425.82 181.54 418.87 181.54 417.48C181.54 417.48 181.54 417.48 181.54 417.48C194.04 417.48 200.99 417.48 202.38 417.48C202.38 417.48 202.38 417.48 202.38 417.48Z" id="a78FBdeRp"></path><path d="M411.7 193C412.58 192.14 419.53 185.43 420.4 184.58C421.05 185.43 502.45 270.65 421.05 368.97C419.17 367.42 412.64 361.99 411.7 361.21C486.47 271.59 415.07 196.54 411.7 193Z" id="a11UuB5rLB"></path><path d="M411.7 193C412.58 192.14 419.53 185.43 420.4 184.58C421.05 185.43 502.45 270.65 421.05 368.97C419.17 367.42 412.64 361.99 411.7 361.21C486.47 271.59 415.07 196.54 411.7 193Z" id="cs05IGnJw"></path><path d="M6.43 319.7C6.43 492.9 146.83 633.32 320.05 633.32C493.25 633.32 633.67 492.9 633.67 319.7C633.67 146.48 493.25 6.08 320.05 6.08C146.83 6.08 6.43 146.48 6.43 319.7Z" id="beOMYyG3O"></path><path d="M6.43 319.7C6.43 492.9 146.83 633.32 320.05 633.32C493.25 633.32 633.67 492.9 633.67 319.7C633.67 146.48 493.25 6.08 320.05 6.08C146.83 6.08 6.43 146.48 6.43 319.7Z" id="azNQMQf99"></path><path d="M334.94 137.26L342.31 138.02L349.6 139.05L356.78 140.37L363.87 141.98L370.87 143.85L377.72 145.99L384.49 148.39L391.11 151.03L397.6 153.94L403.96 157.09L410.18 160.46L416.25 164.07L422.16 167.9L427.92 171.94L433.52 176.22L438.94 180.69L444.17 185.35L449.23 190.22L454.11 195.29L458.78 200.52L463.25 205.93L467.51 211.52L471.57 217.28L475.41 223.19L479.03 229.26L482.4 235.47L485.54 241.83L488.45 248.33L491.1 254.95L493.51 261.7L495.65 268.58L497.52 275.56L499.13 282.65L500.46 289.83L501.5 297.12L502.26 304.48L502.72 311.95L502.88 319.48L502.74 327.02L502.28 334.48L501.53 341.85L500.5 349.14L499.18 356.32L497.57 363.41L495.71 370.39L493.58 377.26L491.18 384.01L488.53 390.64L485.64 397.12L482.49 403.48L479.12 409.71L475.51 415.77L471.67 421.69L467.63 427.43L463.38 433.02L458.91 438.43L454.23 443.68L449.37 448.74L444.31 453.6L439.08 458.28L433.66 462.75L428.07 467.01L422.33 471.06L416.42 474.9L410.35 478.51L404.13 481.88L397.78 485.02L391.28 487.93L384.66 490.58L377.92 492.98L371.05 495.11L364.07 496.99L356.98 498.6L349.8 499.91L342.51 500.97L335.14 501.71L327.68 502.17L320.14 502.33L312.62 502.17L305.16 501.72L297.78 500.98L290.49 499.94L283.3 498.63L276.22 497.03L269.22 495.18L262.35 493.04L255.6 490.64L248.97 487.99L242.47 485.1L236.11 481.97L229.89 478.6L223.82 474.99L217.91 471.15L212.15 467.11L206.55 462.84L201.13 458.38L195.88 453.71L190.84 448.85L185.96 443.79L181.29 438.56L176.81 433.14L172.54 427.55L168.49 421.79L164.65 415.88L161.04 409.81L157.67 403.61L154.51 397.25L151.62 390.76L148.95 384.12L146.55 377.37L144.42 370.52L142.55 363.53L140.94 356.45L139.62 349.25L138.57 341.96L137.82 334.59L137.36 327.13L137.21 319.59L137.34 312.05L137.81 304.59L138.55 297.23L139.57 289.94L140.9 282.74L142.5 275.65L144.36 268.67L146.49 261.8L148.89 255.05L151.54 248.41L154.43 241.92L157.56 235.56L160.93 229.34L164.54 223.26L168.38 217.34L172.42 211.58L176.68 206L181.15 200.58L185.82 195.33L190.68 190.27L195.74 185.4L200.98 180.72L206.39 176.25L211.98 171.99L217.72 167.94L223.64 164.1L229.7 160.48L235.93 157.1L242.29 153.96L248.77 151.05L255.4 148.4L262.15 146L269.02 143.85L276 141.98L283.09 140.38L290.29 139.05L297.58 138.02L304.94 137.26L312.4 136.81L319.94 136.64L327.48 136.81L334.94 137.26ZM321.13 415.76L318.84 416.76L316.55 417.79L314.28 418.82L312.02 419.88L309.77 420.96L307.53 422.06L305.28 423.17L303.07 424.3L300.84 425.45L298.64 426.62L296.45 427.82L294.26 429.02L292.1 430.25L289.93 431.48L287.78 432.74L285.63 434.02L281.39 436.62L279.26 437.95L277.18 439.3L275.09 440.68L273.01 442.06L268.89 444.87L266.85 446.31L264.82 447.77L262.81 449.24L260.8 450.72L258.8 452.22L256.82 453.74L254.86 455.27L252.91 456.82L250.96 458.4L249.02 459.98L247.1 461.59L245.2 463.21L243.31 464.84L241.44 466.5L241.11 466.5L242.94 467.47L244.76 468.41L246.62 469.34L248.46 470.26L250.34 471.14L252.21 471.99L254.08 472.83L255.99 473.63L257.89 474.42L259.79 475.18L261.71 475.92L263.63 476.63L265.58 477.31L267.52 477.98L269.47 478.63L273.4 479.84L275.36 480.4L277.35 480.95L279.33 481.46L281.32 481.96L283.32 482.42L285.32 482.87L287.33 483.29L289.34 483.69L291.37 484.06L293.38 484.4L295.42 484.73L297.45 485.02L299.49 485.3L301.52 485.55L303.58 485.77L305.62 485.97L307.68 486.14L309.73 486.28L311.78 486.4L313.84 486.49L315.92 486.57L317.98 486.6L320.05 486.62L321.23 486.62L322.4 486.6L325.93 486.51L327.09 486.46L329.45 486.34L330.62 486.26L331.78 486.18L334.14 486L335.3 485.89L336.47 485.78L337.63 485.66L338.81 485.52L341.13 485.24L342.29 485.08L343.47 484.93L344.63 484.76L345.79 484.57L346.94 484.39L350.42 483.78L351.56 483.57L352.72 483.34L353.87 483.1L356.16 482.61L358.45 482.08L360.74 481.52L361.87 481.23L363.02 480.94L364.15 480.63L365.28 480.3L366.41 479.99L366.22 478.41L366.02 476.84L365.8 475.26L365.31 472.13L365.05 470.57L364.75 469L364.46 467.46L364.13 465.89L363.81 464.34L363.45 462.81L363.09 461.26L362.32 458.2L361.9 456.67L361.49 455.15L360.59 452.12L360.11 450.6L359.63 449.1L359.12 447.6L358.61 446.11L357.52 443.14L356.95 441.65L356.38 440.18L355.79 438.71L354.55 435.8L353.92 434.35L353.25 432.91L352.59 431.48L351.9 430.04L351.21 428.62L350.5 427.21L349.77 425.8L349.03 424.39L348.27 423L347.49 421.61L346.7 420.23L346.39 420.39L346.24 420.45L346.08 420.53L345.93 420.59L345.76 420.65L345.45 420.77L345.28 420.83L345.12 420.9L344.95 420.94L344.8 421.01L344.63 421.05L344.47 421.1L344.13 421.19L343.98 421.24L343.64 421.33L343.47 421.36L343.31 421.39L343.14 421.44L342.8 421.5L342.63 421.52L342.29 421.58L341.95 421.61L341.78 421.64L341.44 421.67L341.27 421.67L340.93 421.7L340.59 421.7L340.42 421.72L340.23 421.72L340.06 421.7L339.63 421.7L338.76 421.67L338.33 421.62L337.91 421.58L337.48 421.53L336.64 421.38L335.81 421.19L335.39 421.07L334.99 420.96L334.18 420.68L333.78 420.53L333.39 420.37L333.01 420.2L332.62 420.01L332.25 419.83L331.88 419.63L331.5 419.41L331.15 419.19L330.78 418.98L330.44 418.73L330.08 418.48L329.75 418.23L329.41 417.97L328.76 417.41L328.45 417.14L328.15 416.84L327.56 416.22L327 415.57L326.72 415.23L326.47 414.89L326.21 414.54L325.98 414.18L325.73 413.81L323.42 414.77L321.13 415.76ZM373.33 400.79L372.61 400.88L371.92 400.98L370.49 401.16L369.8 401.25L369.09 401.36L368.39 401.47L367.68 401.58L366.98 401.69L366.28 401.81L365.57 401.92L364.87 402.04L364.18 402.18L363.47 402.31L359.98 403L357.2 403.62L356.5 403.79L356.5 405.59L356.49 405.9L356.47 406.22L356.45 406.53L356.42 406.86L356.39 407.17L356.35 407.48L356.3 407.8L356.25 408.11L356.07 409.04L355.99 409.35L355.91 409.64L355.82 409.95L355.73 410.25L355.63 410.56L355.31 411.44L354.94 412.32L354.8 412.6L354.66 412.89L354.5 413.17L355.8 415.42L357.07 417.69L358.3 419.97L359.49 422.27L360.65 424.6L361.78 426.93L362.86 429.29L363.92 431.65L364.92 434.02L365.9 436.42L366.84 438.84L367.74 441.27L368.61 443.7L369.44 446.14L370.23 448.6L370.99 451.08L371.7 453.57L372.38 456.06L373.02 458.57L373.62 461.09L374.18 463.63L374.7 466.17L375.2 468.71L375.65 471.26L376.05 473.83L376.42 476.4L377.71 475.94L378.98 475.47L380.23 474.99L381.5 474.5L382.75 474L384.01 473.49L385.26 472.97L386.5 472.44L387.74 471.9L388.97 471.34L390.2 470.78L391.42 470.21L392.64 469.62L393.87 469.02L396.28 467.81L397.47 467.19L398.68 466.56L399.86 465.91L401.05 465.26L402.22 464.59L404.58 463.23L405.74 462.53L406.88 461.84L408.04 461.12L407.07 459.11L405.18 455.09L404.25 453.06L403.34 451.03L401.57 446.95L400.71 444.89L399.86 442.84L399 440.77L398.18 438.71L397.38 436.64L396.59 434.56L395.8 432.47L394.28 428.3L392.83 424.09L392.13 421.96L391.44 419.86L390.75 417.74L390.09 415.6L389.45 413.48L388.82 411.35L388.2 409.21L387.6 407.06L387.02 407.04L386.44 407L385.86 406.94L385.31 406.86L384.73 406.75L384.18 406.64L383.62 406.5L383.08 406.35L381.99 405.98L381.47 405.77L380.96 405.54L380.45 405.29L379.94 405.03L379.44 404.75L378.96 404.46L378.5 404.15L378.03 403.82L377.57 403.47L377.13 403.11L376.7 402.74L376.28 402.34L375.88 401.94L375.48 401.52L375.11 401.08L374.73 400.64L374.04 400.71L373.33 400.79ZM207.01 324.68L206.49 325.21L205.96 325.71L205.68 325.95L205.12 326.42L204.83 326.65L204.54 326.87L203.95 327.27L203.64 327.47L203.02 327.84L202.69 328.03L202.38 328.2L202.06 328.35L201.72 328.51L201.39 328.66L201.05 328.8L200.73 328.93L200.39 329.05L200.03 329.17L199.35 329.39L198.64 329.58L197.93 329.73L197.21 329.85L196.84 329.9L196.49 329.93L196.12 329.98L195.37 330.01L195.02 330.02L194.49 330.02L194.34 330.01L194.18 330.01L194.03 329.99L193.89 329.98L193.73 329.98L193.42 329.95L193.28 329.93L193.13 329.9L192.82 329.87L192.68 329.85L192.37 329.79L192.23 329.78L191.92 329.71L191.78 329.68L191.63 329.65L191.49 329.62L191.33 329.59L191.19 329.56L191.04 329.51L190.9 329.48L190.74 329.44L190.61 329.4L190.45 329.36L190.31 329.31L190.17 329.28L190.02 329.23L189.88 329.19L189.74 329.13L189.58 329.08L189.31 328.99L189.17 328.93L189.03 328.88L188.87 328.82L188.73 328.75L188.01 329.51L185.82 331.74L184.34 333.23L183.59 333.96L182.84 334.68L182.09 335.41L180.58 336.83L179.8 337.55L179.04 338.26L178.27 338.97L175.95 341.06L175.16 341.74L174.37 342.44L172.79 343.8L172 344.47L171.2 345.15L169.59 346.48L168.78 347.13L167.96 347.79L167.16 348.44L166.34 349.08L165.52 349.73L164.68 350.36L163.86 351.01L163.02 351.63L162.19 352.27L160.52 353.5L159.66 354.12L158.83 354.74L157.13 355.95L157.9 359.2L158.75 362.42L159.66 365.62L160.62 368.81L161.66 371.97L162.74 375.1L163.91 378.19L165.11 381.27L166.37 384.32L167.7 387.36L169.08 390.34L170.51 393.3L172.02 396.24L173.56 399.13L175.17 402L176.83 404.85L178.55 407.65L180.31 410.4L182.12 413.14L184 415.84L185.93 418.5L187.9 421.11L189.92 423.7L192.01 426.25L194.13 428.74L196.32 431.22L198.53 433.64L200.81 436.02L203.13 438.36L205.5 440.65L207.91 442.89L210.37 445.1L212.88 447.26L215.42 449.38L218.02 451.44L220.65 453.45L223.33 455.41L226.05 457.33L228.82 459.21L231.62 461.02L233.22 459.58L234.81 458.15L236.41 456.74L238.02 455.34L239.64 453.94L241.27 452.57L242.91 451.19L244.56 449.83L246.22 448.48L247.87 447.15L249.55 445.83L251.23 444.52L252.94 443.22L254.62 441.93L256.34 440.65L258.06 439.38L259.79 438.12L261.53 436.89L263.26 435.66L265.01 434.44L266.77 433.23L268.54 432.04L270.32 430.85L272.11 429.69L273.89 428.53L275.7 427.38L279.33 425.12L282.98 422.92L284.82 421.84L286.66 420.77L288.52 419.7L290.38 418.67L292.25 417.63L294.12 416.61L297.9 414.6L301.71 412.65L302.22 412.38L302.73 412.11L303.26 411.84L304.28 411.32L304.8 411.05L305.31 410.79L305.84 410.54L306.35 410.28L306.88 410.03L307.39 409.77L308.97 409.02L309.48 408.78L311.58 407.79L312.11 407.55L312.64 407.31L313.69 406.84L314.23 406.61L315.28 406.15L315.82 405.91L316.88 405.45L317.42 405.23L317.94 405L318.49 404.78L319.01 404.57L319.55 404.33L320.1 404.12L320.62 403.9L321.16 403.68L321.71 403.48L322.79 403.05L322.81 402.79L322.82 402.54L322.88 402.01L322.91 401.77L322.96 401.5L322.99 401.25L323.04 400.99L323.1 400.74L323.15 400.48L323.27 399.99L323.58 398.99L323.66 398.76L323.84 398.27L323.94 398.04L324.04 397.8L324.15 397.56L324.37 397.09L324.48 396.87L324.72 396.41L324.85 396.19L324.99 395.96L325.41 395.31L325.56 395.09L325.7 394.89L325.85 394.68L326.01 394.48L326.35 394.07L326.5 393.87L326.69 393.67L324.17 390.87L321.58 388.11L318.95 385.44L316.29 382.82L313.56 380.27L310.79 377.77L307.99 375.34L305.16 372.96L302.28 370.65L299.36 368.41L296.41 366.21L293.44 364.08L290.44 361.99L287.42 359.97L284.37 357.99L281.29 356.09L278.21 354.22L275.12 352.41L271.99 350.66L268.86 348.94L265.74 347.28L262.59 345.67L259.44 344.11L256.3 342.59L253.14 341.12L250 339.71L246.85 338.34L243.73 336.99L240.6 335.7L237.49 334.45L234.39 333.24L231.3 332.08L228.23 330.95L225.2 329.87L222.18 328.82L219.18 327.81L216.21 326.84L213.27 325.89L210.37 324.99L207.49 324.13L207.26 324.41L207.01 324.68ZM401.95 399.85L401.79 400.08L401.62 400.3L401.47 400.53L401.3 400.74L401.11 400.96L400.94 401.18L400.75 401.39L400.57 401.6L400.38 401.81L400.18 402.01L399.98 402.2L399.78 402.4L399.58 402.59L399.14 402.96L398.49 403.47L398.26 403.64L398.03 403.79L398.71 406.19L399.39 408.58L400.1 410.96L400.85 413.34L401.59 415.71L402.36 418.06L403.15 420.43L403.97 422.77L404.79 425.12L405.64 427.46L406.51 429.78L408.31 434.42L409.24 436.73L410.18 439.02L411.14 441.33L413.12 445.88L414.14 448.15L415.18 450.41L416.23 452.66L417.24 454.73L417.01 454.9L417.32 454.9L417.24 454.73L419.19 453.35L421.34 451.76L423.46 450.14L425.57 448.48L427.64 446.79L429.68 445.06L431.69 443.29L433.68 441.5L435.63 439.69L437.53 437.83L439.42 435.93L441.28 434.01L443.1 432.06L444.9 430.08L446.65 428.06L448.38 426.02L450.07 423.95L451.72 421.86L453.35 419.72L454.93 417.57L456.48 415.39L457.99 413.17L455.59 412.07L453.18 411.02L450.76 410.02L448.32 409.04L445.86 408.13L443.38 407.24L440.89 406.41L438.38 405.62L435.86 404.88L433.34 404.18L430.8 403.53L428.24 402.93L425.69 402.35L423.1 401.84L420.53 401.38L417.93 400.95L415.33 400.57L412.73 400.23L410.12 399.95L407.5 399.71L404.87 399.52L402.24 399.37L402.1 399.6L401.95 399.85ZM392.24 276.14L392.13 276.18L392.04 276.21L391.93 276.25L391.84 276.28L391.62 276.35L391.53 276.38L391.42 276.41L391.31 276.42L391.22 276.45L391.11 276.48L391 276.5L390.89 276.53L390.79 276.55L390.69 276.58L390.48 276.61L390.37 276.64L390.15 276.67L390.06 276.69L389.73 276.73L389.62 276.73L389.41 276.76L389.3 276.76L389.19 276.78L389.08 276.78L388.99 276.79L388.77 276.79L388.67 276.81L388.23 276.81L387.95 279.22L387.69 281.64L387.44 284.05L387.23 286.47L387.01 288.9L386.82 291.31L386.65 293.74L386.5 296.16L386.36 298.59L386.23 301L386.13 303.43L385.97 308.29L385.93 310.71L385.89 313.14L385.88 315.57L385.88 317.98L385.89 320.41L385.93 322.84L385.97 325.26L386.13 330.12L386.23 332.53L386.36 334.96L386.5 337.38L386.65 339.81L386.82 342.22L387.23 347.05L387.46 349.48L387.69 351.89L387.95 354.31L388.23 356.71L388.53 359.12L388.84 361.54L389.16 363.94L389.52 366.35L389.87 368.75L390.65 373.55L391.2 373.66L391.76 373.8L392.3 373.95L392.83 374.12L393.35 374.31L393.88 374.51L394.39 374.73L394.89 374.96L395.37 375.2L395.85 375.47L396.33 375.75L396.79 376.04L397.24 376.35L397.67 376.68L398.09 377L398.51 377.36L398.91 377.71L399.31 378.08L399.69 378.47L400.06 378.87L400.4 379.28L400.74 379.71L401.39 380.58L401.68 381.02L401.96 381.49L402.24 381.97L402.49 382.45L402.95 383.44L403.15 383.95L403.34 384.46L403.52 384.99L403.68 385.51L403.82 386.06L403.94 386.6L404.03 387.14L404.13 387.7L404.19 388.27L404.25 388.83L405.78 388.92L407.33 389.04L408.86 389.17L410.4 389.31L411.93 389.46L413.46 389.63L414.99 389.82L416.53 390.03L418.04 390.25L419.56 390.48L421.09 390.71L422.61 390.98L424.11 391.26L425.63 391.55L427.13 391.86L430.13 392.51L433.13 393.22L436.11 394L437.59 394.41L439.06 394.83L440.53 395.26L442 395.71L443.47 396.19L444.93 396.67L446.38 397.17L449.29 398.19L450.73 398.73L452.17 399.29L453.6 399.85L456.44 401.02L457.87 401.64L459.28 402.26L460.69 402.9L462.08 403.55L463.47 404.21L463.87 403.53L464.26 402.83L464.65 402.15L465.03 401.46L465.41 400.76L465.79 400.08L466.16 399.38L466.54 398.67L466.91 397.97L467.26 397.28L467.63 396.58L468.35 395.16L468.7 394.46L469.04 393.75L469.4 393.04L470.42 390.9L470.75 390.17L471.09 389.46L471.41 388.75L472.06 387.29L472.37 386.58L472.68 385.85L473.01 385.13L473.3 384.4L473.61 383.67L473.92 382.93L474.51 381.47L474.8 380.73L475.08 380L475.37 379.26L476.49 376.29L476.75 375.55L475.19 372.65L473.59 369.76L471.97 366.89L470.31 364.06L468.63 361.23L466.92 358.43L465.17 355.62L463.41 352.87L461.6 350.11L459.77 347.39L457.91 344.68L456.03 341.99L454.12 339.33L452.17 336.68L450.21 334.06L448.21 331.46L446.18 328.88L444.12 326.32L442.05 323.79L439.94 321.28L437.81 318.79L435.66 316.33L433.46 313.88L431.25 311.45L429.02 309.05L426.76 306.68L424.47 304.33L422.14 302.01L419.81 299.7L417.44 297.43L415.06 295.18L412.64 292.95L410.2 290.76L407.73 288.57L405.24 286.42L402.73 284.3L400.2 282.2L395.06 278.08L392.44 276.07L392.35 276.1L392.24 276.14ZM265.32 222.85L265.09 223.1L264.59 223.6L264.1 224.06L263.83 224.29L263.04 224.94L262.49 225.34L262.21 225.53L261.91 225.72L261.64 225.9L261.05 226.24L260.74 226.41L260.44 226.57L260.13 226.71L259.82 226.86L259.51 227L259.21 227.12L258.88 227.25L258.57 227.37L257.92 227.59L257.6 227.68L257.25 227.77L256.93 227.87L256.59 227.95L256.26 228.02L255.58 228.15L254.9 228.24L254.56 228.27L254.21 228.3L253.87 228.33L253 230.38L252.13 232.4L251.25 234.43L250.35 236.44L249.44 238.45L248.51 240.47L247.57 242.48L246.62 244.46L245.66 246.46L244.69 248.44L243.7 250.42L241.68 254.35L240.66 256.3L239.63 258.25L238.57 260.2L237.5 262.14L236.44 264.06L235.34 265.99L234.24 267.89L233.12 269.81L232.01 271.7L230.86 273.61L229.72 275.49L228.56 277.37L227.38 279.24L226.21 281.1L223.79 284.81L222.57 286.65L221.35 288.48L220.09 290.31L218.84 292.12L217.57 293.93L216.28 295.74L215 297.54L212.37 301.1L211.05 302.86L209.71 304.62L209.8 304.79L209.91 304.96L210 305.13L210.09 305.32L210.17 305.49L210.36 305.83L210.43 306.02L210.51 306.19L210.6 306.37L210.68 306.54L210.76 306.73L210.82 306.91L210.9 307.09L210.97 307.27L211.04 307.46L211.11 307.64L211.18 307.83L211.24 308L211.42 308.56L211.47 308.76L211.53 308.94L211.62 309.31L211.69 309.5L211.73 309.69L211.76 309.89L211.86 310.26L211.89 310.46L211.93 310.65L211.97 310.85L212 311.03L212.03 311.23L212.06 311.42L212.09 311.62L212.1 311.81L212.14 312.01L212.14 312.73L214.36 313.42L215.48 313.77L216.59 314.11L217.69 314.47L219.92 315.18L221.02 315.55L222.13 315.92L224.33 316.67L225.45 317.04L229.84 318.59L230.93 318.99L233.12 319.79L234.21 320.2L235.31 320.61L236.39 321.02L237.47 321.43L238.57 321.87L239.66 322.28L242.91 323.59L243.97 324.02L245.06 324.47L246.14 324.9L247.21 325.35L248.28 325.81L249.36 326.26L253.63 328.12L254.7 328.6L255.75 329.08L258.08 330.09L260.38 331.12L262.66 332.19L264.93 333.27L267.21 334.39L269.45 335.52L271.68 336.68L273.91 337.87L276.12 339.08L278.32 340.3L280.5 341.56L282.67 342.82L284.82 344.12L286.96 345.44L289.08 346.79L291.18 348.15L293.29 349.54L295.36 350.95L297.42 352.39L299.48 353.84L301.51 355.32L303.52 356.82L305.53 358.33L307.51 359.88L309.48 361.44L311.43 363.02L313.36 364.63L315.28 366.26L317.19 367.9L319.06 369.57L320.93 371.26L322.77 372.96L324.62 374.69L326.43 376.44L328.22 378.21L329.99 380L331.75 381.81L333.49 383.64L335.2 385.48L336.91 387.36L339.86 387.36L340.57 387.39L341.29 387.45L341.64 387.49L342 387.56L342.35 387.6L342.71 387.68L343.05 387.74L343.41 387.82L344.09 388.01L345.11 388.33L345.76 388.58L346.1 388.72L346.42 388.86L346.73 389L347.06 389.15L347.37 389.32L347.69 389.48L348 389.66L348.3 389.83L348.61 390.02L348.9 390.22L349.2 390.4L349.49 390.62L349.77 390.82L350.06 391.04L350.34 391.27L350.6 391.49L350.88 391.72L351.41 392.22L351.66 392.46L352.4 393.25L355.65 392.49L356.11 392.4L356.58 392.29L357.06 392.2L357.52 392.09L359.38 391.72L359.86 391.63L360.79 391.44L361.27 391.35L361.73 391.26L362.2 391.18L362.66 391.09L363.14 391.01L363.61 390.93L364.09 390.84L365.01 390.68L365.49 390.61L365.96 390.53L366.44 390.45L366.9 390.39L367.38 390.31L367.85 390.23L368.33 390.17L368.79 390.1L369.27 390.03L369.74 389.97L370.21 389.91L370.68 389.83L371.16 389.77L371.16 389.31L371.22 388.35L371.27 387.88L371.33 387.4L371.41 386.94L371.48 386.49L371.59 386.02L371.7 385.58L371.82 385.13L371.96 384.68L372.1 384.24L372.26 383.8L372.44 383.38L372.61 382.94L373.02 382.11L373.23 381.71L373.7 380.9L373.95 380.51L374.21 380.14L374.49 379.76L374.77 379.4L375.35 378.69L375.66 378.35L375.99 378.01L376.31 377.68L376.65 377.36L377.01 377.05L377.72 376.46L378.11 376.18L378.48 375.9L378.88 375.64L379.29 375.39L379.69 375.16L380.11 374.93L380.54 374.71L380.12 372.19L379.72 369.68L379.33 367.16L378.96 364.63L378.62 362.11L378.29 359.59L377.99 357.06L377.69 354.54L377.43 352L377.18 349.48L376.95 346.94L376.73 344.4L376.53 341.88L376.19 336.8L376.05 334.27L375.83 329.19L375.76 326.63L375.68 324.1L375.63 321.56L375.6 316.48L375.62 313.93L375.65 311.39L375.69 308.85L375.76 306.31L375.83 303.76L375.94 301.22L376.07 298.68L376.21 296.14L376.55 291.07L376.75 288.53L376.96 285.99L377.2 283.45L377.44 280.93L377.72 278.39L378.02 275.85L378.33 273.33L378 273.11L377.69 272.89L377.4 272.66L377.09 272.43L376.81 272.2L376.51 271.95L376.24 271.7L375.97 271.44L375.69 271.18L375.45 270.91L375.18 270.63L374.94 270.36L374.47 269.77L374.04 269.18L373.82 268.87L373.62 268.56L373.42 268.23L373.23 267.91L373.05 267.6L372.88 267.26L372.72 266.93L372.55 266.59L372.27 265.91L372.13 265.56L372.01 265.22L371.89 264.86L371.78 264.5L371.69 264.13L371.59 263.78L371.5 263.41L371.42 263.05L371.36 262.68L371.3 262.29L371.21 261.55L371.17 261.16L371.16 260.79L369.27 259.63L367.37 258.47L365.46 257.34L363.54 256.22L361.62 255.12L357.75 252.96L355.8 251.91L353.84 250.87L351.87 249.85L349.91 248.86L347.93 247.87L345.93 246.89L343.93 245.93L341.94 244.99L337.91 243.16L335.88 242.28L333.84 241.4L331.81 240.54L329.75 239.71L327.71 238.87L325.65 238.07L323.58 237.28L321.5 236.5L319.43 235.75L315.25 234.29L313.15 233.58L311.04 232.9L308.94 232.23L306.82 231.57L304.7 230.93L302.58 230.31L300.44 229.71L298.3 229.12L294 228.01L289.7 226.95L289.09 226.82L288.47 226.68L287.27 226.4L286.65 226.27L285.44 225.99L284.82 225.87L284.22 225.75L283.61 225.61L281.2 225.11L280.58 224.99L279.98 224.86L279.37 224.76L278.79 224.63L278.18 224.52L277.58 224.4L276.37 224.18L275.78 224.06L274.57 223.84L273.4 223.63L272.79 223.52L272.21 223.43L270.44 223.1L269.85 223.01L269.27 222.9L268.09 222.71L267.52 222.61L266.93 222.51L266.36 222.42L265.77 222.33L265.55 222.59L265.32 222.85ZM412.38 184.5L411.76 186.05L411.15 187.58L410.55 189.13L409.37 192.22L408.23 195.32L407.12 198.44L406.03 201.57L404.98 204.7L404.45 206.28L403.94 207.85L403.45 209.42L402.95 211.01L401.51 215.75L401.05 217.34L399.7 222.13L399.27 223.72L398.85 225.31L398.43 226.92L398.01 228.52L397.61 230.13L396.45 234.96L396.08 236.57L395.72 238.19L395.37 239.8L395.01 241.43L394.67 243.04L394.35 244.66L394.83 244.86L395.29 245.08L395.75 245.31L396.2 245.54L397.07 246.07L397.5 246.35L397.91 246.64L398.32 246.94L399.1 247.59L399.47 247.91L399.82 248.25L400.18 248.61L400.52 248.98L400.85 249.35L401.17 249.74L401.47 250.13L401.76 250.53L402.05 250.95L402.58 251.78L402.83 252.21L403.06 252.66L403.28 253.11L403.48 253.56L403.85 254.49L404.02 254.97L404.17 255.43L404.3 255.93L404.42 256.41L404.64 257.4L404.72 257.91L404.78 258.41L404.82 258.92L404.86 259.44L404.89 260.46L404.87 260.73L404.81 261.72L404.65 262.96L404.56 263.45L404.51 263.68L404.45 263.93L404.41 264.18L404.34 264.41L404.28 264.66L404.22 264.89L404.14 265.14L403.91 265.84L403.83 266.08L403.74 266.32L403.66 266.55L403.57 266.76L403.46 267L403.37 267.23L403.26 267.46L403.17 267.68L403.06 267.91L402.94 268.13L402.83 268.34L402.7 268.56L402.58 268.79L402.46 269.01L402.33 269.21L402.19 269.43L402.07 269.64L401.93 269.84L404.33 271.75L406.71 273.68L409.08 275.63L411.43 277.6L413.76 279.6L416.06 281.61L418.34 283.64L420.61 285.69L425.07 289.87L427.27 291.99L429.45 294.15L431.62 296.3L433.75 298.48L435.87 300.69L437.96 302.91L440.04 305.15L442.08 307.41L444.11 309.7L446.12 311.99L448.1 314.31L450.07 316.65L452 319.02L453.92 321.39L455.83 323.79L457.68 326.2L459.54 328.63L461.37 331.09L463.16 333.55L464.94 336.05L466.69 338.54L468.42 341.06L470.13 343.6L471.81 346.17L473.47 348.74L475.1 351.32L476.71 353.94L478.3 356.55L481.4 361.85L481.66 360.81L481.92 359.79L482.42 357.71L482.65 356.68L482.88 355.62L483.11 354.59L483.33 353.55L483.55 352.5L483.76 351.46L483.95 350.41L484.15 349.36L484.34 348.32L484.52 347.27L484.86 345.16L485.33 342L485.47 340.95L485.59 339.88L485.73 338.83L485.84 337.78L485.96 336.71L486.07 335.66L486.16 334.59L486.26 333.54L486.35 332.47L486.43 331.42L486.5 330.35L486.56 329.28L486.63 328.23L486.67 327.16L486.74 326.09L486.8 323.96L486.83 322.9L486.87 319.7L486.81 315.55L486.67 311.42L486.43 307.3L486.07 303.2L485.62 299.13L485.06 295.07L484.41 291.03L483.67 287.03L482.83 283.05L481.89 279.1L480.87 275.17L479.74 271.28L478.52 267.41L477.22 263.59L475.81 259.8L474.32 256.05L472.73 252.34L471.07 248.65L469.31 245.03L467.46 241.44L465.53 237.9L463.52 234.41L461.41 230.96L459.23 227.57L456.97 224.23L454.62 220.95L452.19 217.71L449.68 214.53L447.1 211.41L444.42 208.35L441.68 205.36L438.86 202.42L435.95 199.56L432.98 196.76L429.95 194.02L426.82 191.35L423.63 188.77L420.36 186.25L417.04 183.8L413.63 181.43L413 182.97L412.38 184.5ZM153.19 321.73L153.21 323.77L153.24 325.8L153.3 327.84L153.38 329.87L153.49 331.9L153.63 333.92L153.78 335.95L154.19 340.01L154.43 342.02L154.7 344.05L156.96 342.31L159.2 340.56L161.4 338.78L163.58 336.97L165.75 335.13L167.88 333.24L169.99 331.34L172.06 329.4L174.11 327.45L176.13 325.46L178.13 323.43L180.1 321.39L179.86 321L179.66 320.6L179.45 320.21L179.26 319.81L179.07 319.39L178.9 318.99L178.73 318.57L178.59 318.15L178.44 317.72L178.32 317.3L178.1 316.43L175.42 315.89L172.84 315.38L170.36 314.9L167.96 314.47L165.69 314.05L163.52 313.66L161.48 313.31L159.56 312.98L157.76 312.69L156.1 312.44L154.59 312.21L153.23 312.01L153.23 319.7L153.19 321.73ZM216.5 218.87L213.56 218.94L212.1 218.97L209.16 219.06L207.71 219.12L206.24 219.2L204.77 219.26L203.31 219.35L201.84 219.45L200.39 219.54L198.92 219.65L197.46 219.76L195.99 219.88L194.54 220.02L193.08 220.14L191.61 220.3L188.7 220.61L185.79 220.95L184.35 222.91L182.94 224.9L181.57 226.89L180.22 228.9L178.9 230.95L177.6 232.99L176.35 235.07L175.14 237.15L173.95 239.26L172.79 241.38L171.66 243.52L170.56 245.67L169.51 247.83L168.47 250.02L167.47 252.21L166.51 254.43L165.58 256.66L164.68 258.89L163.81 261.15L162.98 263.41L162.17 265.68L161.41 267.97L160.67 270.26L159.97 272.58L159.31 274.91L158.67 277.23L158.09 279.58L157.53 281.93L156.99 284.29L156.51 286.65L156.04 289.04L155.62 291.42L155.22 293.82L154.88 296.22L154.56 298.63L154.28 301.05L154.73 301.11L155.19 301.17L155.67 301.23L156.17 301.31L157.22 301.47L158.33 301.62L158.92 301.7L159.51 301.79L160.75 301.98L161.4 302.09L162.06 302.18L162.73 302.29L164.12 302.5L164.83 302.63L166.32 302.88L167.08 303L167.85 303.14L168.64 303.26L169.43 303.4L171.07 303.71L171.91 303.87L172.76 304.02L173.63 304.18L174.49 304.35L175.39 304.53L176.29 304.7L178.11 305.07L179.04 305.27L179.99 305.48L180.22 304.98L180.75 304.05L181.01 303.6L181.3 303.15L181.61 302.74L181.92 302.3L182.25 301.9L182.59 301.5L182.94 301.13L183.3 300.74L183.69 300.38L184.06 300.04L184.46 299.7L184.86 299.38L185.28 299.07L185.7 298.77L186.13 298.48L186.57 298.22L187.01 297.95L187.48 297.71L188.41 297.27L188.89 297.07L189.38 296.89L189.86 296.71L190.37 296.56L190.87 296.42L191.38 296.3L191.89 296.19L192.42 296.1L192.93 296.02L193.45 295.96L194 295.91L194.52 295.89L195.06 295.88L195.25 295.88L195.42 295.89L195.6 295.89L195.98 295.93L196.16 295.93L196.35 295.94L196.52 295.96L196.7 295.99L197.08 296.02L197.25 296.05L197.43 296.06L197.62 296.1L197.79 296.13L197.97 296.16L198.14 296.19L198.33 296.22L198.51 296.27L198.69 296.3L198.87 296.34L199.04 296.37L199.23 296.42L199.4 296.47L199.58 296.51L199.75 296.56L199.92 296.62L200.11 296.67L200.28 296.71L200.62 296.84L200.81 296.89L201.15 297.01L201.32 297.09L201.49 297.15L202.9 295.31L204.29 293.45L207.04 289.7L208.39 287.83L209.74 285.94L211.07 284.04L212.38 282.13L213.68 280.22L216.25 276.35L217.51 274.41L218.76 272.46L221.21 268.53L223.62 264.57L224.8 262.57L225.96 260.57L227.12 258.56L228.25 256.55L229.38 254.52L230.49 252.48L231.58 250.45L232.66 248.39L234.8 244.27L235.83 242.2L236.85 240.13L237.88 238.04L238.87 235.95L239.86 233.84L241.78 229.63L242.72 227.51L243.65 225.38L243.46 225.25L243.29 225.11L243.11 224.99L242.43 224.43L242.26 224.28L242.1 224.14L241.93 223.98L241.78 223.84L241.16 223.22L241 223.05L240.86 222.9L240.71 222.73L240.57 222.56L240.43 222.4L240.29 222.23L240.15 222.05L240.01 221.88L239.76 221.54L239.63 221.35L239.5 221.17L239.38 221L239.25 220.81L239.15 220.62L239.02 220.44L238.91 220.25L238.8 220.05L238.7 219.87L238.59 219.66L238.48 219.48L237.01 219.39L235.55 219.29L234.08 219.22L232.61 219.15L231.16 219.09L229.69 219.03L228.22 218.98L226.76 218.94L225.29 218.91L222.35 218.87L220.9 218.86L217.96 218.86L216.5 218.87ZM315.55 152.74L312.25 152.86L308.94 153.05L305.62 153.31L302.33 153.63L299.03 154.04L295.73 154.49L292.44 155.03L289.16 155.62L285.87 156.28L282.61 157.01L279.34 157.8L276.11 158.66L275.84 159.76L275.32 161.93L275.04 163.01L274.78 164.1L274.51 165.17L274.23 166.25L273.97 167.32L273.41 169.45L273.14 170.51L272.86 171.57L272.02 174.73L271.73 175.77L271.45 176.82L271.15 177.86L270.88 178.89L270.58 179.92L270.29 180.95L269.7 183L269.41 184L269.11 185.02L268.82 186.03L268.51 187.04L267.92 189.02L266.99 191.99L266.7 192.96L266.39 193.92L266.08 194.9L265.46 196.82L265.13 197.78L264.51 199.67L264.99 200.15L265.23 200.39L265.44 200.66L265.67 200.9L265.89 201.17L266.09 201.43L266.31 201.71L266.51 201.97L266.88 202.53L267.07 202.82L267.24 203.1L267.58 203.69L267.73 203.98L267.89 204.29L268.04 204.59L268.18 204.9L268.31 205.21L268.45 205.52L268.57 205.83L268.68 206.14L268.89 206.79L268.99 207.1L269.17 207.75L269.25 208.09L269.31 208.41L269.39 208.74L269.44 209.08L269.5 209.4L269.54 209.74L269.64 210.76L269.67 211.45L269.67 212.31L272.44 212.76L275.18 213.26L277.93 213.75L280.67 214.29L283.41 214.85L286.14 215.44L288.86 216.04L291.59 216.68L294.29 217.34L297 218.02L299.7 218.74L302.39 219.48L305.07 220.24L307.74 221.03L310.41 221.83L313.07 222.67L315.72 223.53L318.36 224.42L320.99 225.33L323.61 226.26L326.23 227.22L328.84 228.21L331.43 229.21L334.03 230.25L336.6 231.3L339.17 232.39L341.72 233.49L344.27 234.62L346.81 235.78L349.33 236.95L351.86 238.16L354.37 239.38L356.86 240.64L359.33 241.91L361.81 243.21L364.27 244.52L366.72 245.87L369.16 247.23L371.59 248.62L374.01 250.03L374.52 249.34L374.7 249.12L374.89 248.89L375.26 248.45L375.46 248.25L375.66 248.04L376.27 247.43L376.48 247.23L377.35 246.49L377.58 246.3L378.05 245.96L378.28 245.81L378.51 245.64L378.74 245.48L379.24 245.17L379.49 245.03L379.73 244.88L379.98 244.74L380.23 244.62L380.49 244.48L381.02 244.23L381.27 244.1L381.55 244L382.07 243.78L382.35 243.67L382.61 243.58L383.17 243.39L383.91 239.93L384.69 236.46L385.49 232.99L385.91 231.26L386.33 229.54L386.76 227.81L388.11 222.65L388.57 220.93L389.05 219.23L389.53 217.51L390.52 214.11L391.54 210.7L392.07 209.02L392.6 207.31L393.14 205.63L393.7 203.94L394.24 202.25L395.38 198.88L395.96 197.21L396.54 195.52L397.75 192.17L398.37 190.52L398.99 188.85L399.61 187.19L400.26 185.53L400.89 183.88L401.56 182.22L402.21 180.57L402.89 178.93L403.56 177.28L404.25 175.64L401.34 173.96L398.4 172.33L395.43 170.78L392.44 169.28L389.42 167.86L386.37 166.5L383.33 165.2L380.23 163.96L377.13 162.78L374.01 161.67L370.87 160.61L367.71 159.64L364.52 158.71L361.33 157.86L358.13 157.07L354.91 156.34L351.67 155.69L348.42 155.09L345.17 154.56L341.91 154.1L338.62 153.7L335.34 153.36L332.06 153.09L328.76 152.89L325.47 152.75L322.16 152.67L318.86 152.67L315.55 152.74ZM257.41 165.1L254.02 166.53L250.68 168.03L247.35 169.61L244.07 171.25L240.83 172.97L237.63 174.75L234.47 176.6L231.36 178.52L228.28 180.52L225.25 182.56L222.27 184.68L219.33 186.88L216.44 189.13L213.59 191.45L210.8 193.82L208.06 196.26L205.37 198.75L202.74 201.32L200.16 203.94L197.63 206.62L195.17 209.36L196.95 209.25L198.75 209.14L200.54 209.06L202.32 208.97L205.91 208.84L207.71 208.8L209.49 208.75L211.28 208.72L214.88 208.69L216.67 208.69L218.45 208.71L220.25 208.72L222.04 208.75L225.63 208.84L227.41 208.91L229.21 208.97L231 209.06L232.78 209.14L236.37 209.36L236.56 208.3L236.81 207.27L237.13 206.26L237.5 205.28L237.94 204.34L238.42 203.43L238.96 202.56L239.55 201.72L240.18 200.92L240.88 200.16L241.61 199.47L242.36 198.78L243.17 198.18L244.02 197.61L244.9 197.08L245.82 196.62L246.76 196.21L247.72 195.86L248.73 195.56L249.75 195.33L250.78 195.16L251.84 195.07L252.92 195.02L254.92 195.02L255.37 193.68L255.82 192.31L256.68 189.59L257.55 186.83L257.97 185.46L258.38 184.06L258.79 182.66L259.21 181.26L259.61 179.85L260.41 177.01L260.8 175.58L261.2 174.14L261.98 171.26L262.75 168.35L263.14 166.88L263.52 165.43L264.3 162.46L260.85 163.74L257.41 165.1Z" id="a5VMHIlqC5"></path><path d="M334.94 137.26L342.31 138.02L349.6 139.05L356.78 140.37L363.87 141.98L370.87 143.85L377.72 145.99L384.49 148.39L391.11 151.03L397.6 153.94L403.96 157.09L410.18 160.46L416.25 164.07L422.16 167.9L427.92 171.94L433.52 176.22L438.94 180.69L444.17 185.35L449.23 190.22L454.11 195.29L458.78 200.52L463.25 205.93L467.51 211.52L471.57 217.28L475.41 223.19L479.03 229.26L482.4 235.47L485.54 241.83L488.45 248.33L491.1 254.95L493.51 261.7L495.65 268.58L497.52 275.56L499.13 282.65L500.46 289.83L501.5 297.12L502.26 304.48L502.72 311.95L502.88 319.48L502.74 327.02L502.28 334.48L501.53 341.85L500.5 349.14L499.18 356.32L497.57 363.41L495.71 370.39L493.58 377.26L491.18 384.01L488.53 390.64L485.64 397.12L482.49 403.48L479.12 409.71L475.51 415.77L471.67 421.69L467.63 427.43L463.38 433.02L458.91 438.43L454.23 443.68L449.37 448.74L444.31 453.6L439.08 458.28L433.66 462.75L428.07 467.01L422.33 471.06L416.42 474.9L410.35 478.51L404.13 481.88L397.78 485.02L391.28 487.93L384.66 490.58L377.92 492.98L371.05 495.11L364.07 496.99L356.98 498.6L349.8 499.91L342.51 500.97L335.14 501.71L327.68 502.17L320.14 502.33L312.62 502.17L305.16 501.72L297.78 500.98L290.49 499.94L283.3 498.63L276.22 497.03L269.22 495.18L262.35 493.04L255.6 490.64L248.97 487.99L242.47 485.1L236.11 481.97L229.89 478.6L223.82 474.99L217.91 471.15L212.15 467.11L206.55 462.84L201.13 458.38L195.88 453.71L190.84 448.85L185.96 443.79L181.29 438.56L176.81 433.14L172.54 427.55L168.49 421.79L164.65 415.88L161.04 409.81L157.67 403.61L154.51 397.25L151.62 390.76L148.95 384.12L146.55 377.37L144.42 370.52L142.55 363.53L140.94 356.45L139.62 349.25L138.57 341.96L137.82 334.59L137.36 327.13L137.21 319.59L137.34 312.05L137.81 304.59L138.55 297.23L139.57 289.94L140.9 282.74L142.5 275.65L144.36 268.67L146.49 261.8L148.89 255.05L151.54 248.41L154.43 241.92L157.56 235.56L160.93 229.34L164.54 223.26L168.38 217.34L172.42 211.58L176.68 206L181.15 200.58L185.82 195.33L190.68 190.27L195.74 185.4L200.98 180.72L206.39 176.25L211.98 171.99L217.72 167.94L223.64 164.1L229.7 160.48L235.93 157.1L242.29 153.96L248.77 151.05L255.4 148.4L262.15 146L269.02 143.85L276 141.98L283.09 140.38L290.29 139.05L297.58 138.02L304.94 137.26L312.4 136.81L319.94 136.64L327.48 136.81L334.94 137.26ZM321.13 415.76L318.84 416.76L316.55 417.79L314.28 418.82L312.02 419.88L309.77 420.96L307.53 422.06L305.28 423.17L303.07 424.3L300.84 425.45L298.64 426.62L296.45 427.82L294.26 429.02L292.1 430.25L289.93 431.48L287.78 432.74L285.63 434.02L281.39 436.62L279.26 437.95L277.18 439.3L275.09 440.68L273.01 442.06L268.89 444.87L266.85 446.31L264.82 447.77L262.81 449.24L260.8 450.72L258.8 452.22L256.82 453.74L254.86 455.27L252.91 456.82L250.96 458.4L249.02 459.98L247.1 461.59L245.2 463.21L243.31 464.84L241.44 466.5L241.11 466.5L242.94 467.47L244.76 468.41L246.62 469.34L248.46 470.26L250.34 471.14L252.21 471.99L254.08 472.83L255.99 473.63L257.89 474.42L259.79 475.18L261.71 475.92L263.63 476.63L265.58 477.31L267.52 477.98L269.47 478.63L273.4 479.84L275.36 480.4L277.35 480.95L279.33 481.46L281.32 481.96L283.32 482.42L285.32 482.87L287.33 483.29L289.34 483.69L291.37 484.06L293.38 484.4L295.42 484.73L297.45 485.02L299.49 485.3L301.52 485.55L303.58 485.77L305.62 485.97L307.68 486.14L309.73 486.28L311.78 486.4L313.84 486.49L315.92 486.57L317.98 486.6L320.05 486.62L321.23 486.62L322.4 486.6L325.93 486.51L327.09 486.46L329.45 486.34L330.62 486.26L331.78 486.18L334.14 486L335.3 485.89L336.47 485.78L337.63 485.66L338.81 485.52L341.13 485.24L342.29 485.08L343.47 484.93L344.63 484.76L345.79 484.57L346.94 484.39L350.42 483.78L351.56 483.57L352.72 483.34L353.87 483.1L356.16 482.61L358.45 482.08L360.74 481.52L361.87 481.23L363.02 480.94L364.15 480.63L365.28 480.3L366.41 479.99L366.22 478.41L366.02 476.84L365.8 475.26L365.31 472.13L365.05 470.57L364.75 469L364.46 467.46L364.13 465.89L363.81 464.34L363.45 462.81L363.09 461.26L362.32 458.2L361.9 456.67L361.49 455.15L360.59 452.12L360.11 450.6L359.63 449.1L359.12 447.6L358.61 446.11L357.52 443.14L356.95 441.65L356.38 440.18L355.79 438.71L354.55 435.8L353.92 434.35L353.25 432.91L352.59 431.48L351.9 430.04L351.21 428.62L350.5 427.21L349.77 425.8L349.03 424.39L348.27 423L347.49 421.61L346.7 420.23L346.39 420.39L346.24 420.45L346.08 420.53L345.93 420.59L345.76 420.65L345.45 420.77L345.28 420.83L345.12 420.9L344.95 420.94L344.8 421.01L344.63 421.05L344.47 421.1L344.13 421.19L343.98 421.24L343.64 421.33L343.47 421.36L343.31 421.39L343.14 421.44L342.8 421.5L342.63 421.52L342.29 421.58L341.95 421.61L341.78 421.64L341.44 421.67L341.27 421.67L340.93 421.7L340.59 421.7L340.42 421.72L340.23 421.72L340.06 421.7L339.63 421.7L338.76 421.67L338.33 421.62L337.91 421.58L337.48 421.53L336.64 421.38L335.81 421.19L335.39 421.07L334.99 420.96L334.18 420.68L333.78 420.53L333.39 420.37L333.01 420.2L332.62 420.01L332.25 419.83L331.88 419.63L331.5 419.41L331.15 419.19L330.78 418.98L330.44 418.73L330.08 418.48L329.75 418.23L329.41 417.97L328.76 417.41L328.45 417.14L328.15 416.84L327.56 416.22L327 415.57L326.72 415.23L326.47 414.89L326.21 414.54L325.98 414.18L325.73 413.81L323.42 414.77L321.13 415.76ZM373.33 400.79L372.61 400.88L371.92 400.98L370.49 401.16L369.8 401.25L369.09 401.36L368.39 401.47L367.68 401.58L366.98 401.69L366.28 401.81L365.57 401.92L364.87 402.04L364.18 402.18L363.47 402.31L359.98 403L357.2 403.62L356.5 403.79L356.5 405.59L356.49 405.9L356.47 406.22L356.45 406.53L356.42 406.86L356.39 407.17L356.35 407.48L356.3 407.8L356.25 408.11L356.07 409.04L355.99 409.35L355.91 409.64L355.82 409.95L355.73 410.25L355.63 410.56L355.31 411.44L354.94 412.32L354.8 412.6L354.66 412.89L354.5 413.17L355.8 415.42L357.07 417.69L358.3 419.97L359.49 422.27L360.65 424.6L361.78 426.93L362.86 429.29L363.92 431.65L364.92 434.02L365.9 436.42L366.84 438.84L367.74 441.27L368.61 443.7L369.44 446.14L370.23 448.6L370.99 451.08L371.7 453.57L372.38 456.06L373.02 458.57L373.62 461.09L374.18 463.63L374.7 466.17L375.2 468.71L375.65 471.26L376.05 473.83L376.42 476.4L377.71 475.94L378.98 475.47L380.23 474.99L381.5 474.5L382.75 474L384.01 473.49L385.26 472.97L386.5 472.44L387.74 471.9L388.97 471.34L390.2 470.78L391.42 470.21L392.64 469.62L393.87 469.02L396.28 467.81L397.47 467.19L398.68 466.56L399.86 465.91L401.05 465.26L402.22 464.59L404.58 463.23L405.74 462.53L406.88 461.84L408.04 461.12L407.07 459.11L405.18 455.09L404.25 453.06L403.34 451.03L401.57 446.95L400.71 444.89L399.86 442.84L399 440.77L398.18 438.71L397.38 436.64L396.59 434.56L395.8 432.47L394.28 428.3L392.83 424.09L392.13 421.96L391.44 419.86L390.75 417.74L390.09 415.6L389.45 413.48L388.82 411.35L388.2 409.21L387.6 407.06L387.02 407.04L386.44 407L385.86 406.94L385.31 406.86L384.73 406.75L384.18 406.64L383.62 406.5L383.08 406.35L381.99 405.98L381.47 405.77L380.96 405.54L380.45 405.29L379.94 405.03L379.44 404.75L378.96 404.46L378.5 404.15L378.03 403.82L377.57 403.47L377.13 403.11L376.7 402.74L376.28 402.34L375.88 401.94L375.48 401.52L375.11 401.08L374.73 400.64L374.04 400.71L373.33 400.79ZM207.01 324.68L206.49 325.21L205.96 325.71L205.68 325.95L205.12 326.42L204.83 326.65L204.54 326.87L203.95 327.27L203.64 327.47L203.02 327.84L202.69 328.03L202.38 328.2L202.06 328.35L201.72 328.51L201.39 328.66L201.05 328.8L200.73 328.93L200.39 329.05L200.03 329.17L199.35 329.39L198.64 329.58L197.93 329.73L197.21 329.85L196.84 329.9L196.49 329.93L196.12 329.98L195.37 330.01L195.02 330.02L194.49 330.02L194.34 330.01L194.18 330.01L194.03 329.99L193.89 329.98L193.73 329.98L193.42 329.95L193.28 329.93L193.13 329.9L192.82 329.87L192.68 329.85L192.37 329.79L192.23 329.78L191.92 329.71L191.78 329.68L191.63 329.65L191.49 329.62L191.33 329.59L191.19 329.56L191.04 329.51L190.9 329.48L190.74 329.44L190.61 329.4L190.45 329.36L190.31 329.31L190.17 329.28L190.02 329.23L189.88 329.19L189.74 329.13L189.58 329.08L189.31 328.99L189.17 328.93L189.03 328.88L188.87 328.82L188.73 328.75L188.01 329.51L185.82 331.74L184.34 333.23L183.59 333.96L182.84 334.68L182.09 335.41L180.58 336.83L179.8 337.55L179.04 338.26L178.27 338.97L175.95 341.06L175.16 341.74L174.37 342.44L172.79 343.8L172 344.47L171.2 345.15L169.59 346.48L168.78 347.13L167.96 347.79L167.16 348.44L166.34 349.08L165.52 349.73L164.68 350.36L163.86 351.01L163.02 351.63L162.19 352.27L160.52 353.5L159.66 354.12L158.83 354.74L157.13 355.95L157.9 359.2L158.75 362.42L159.66 365.62L160.62 368.81L161.66 371.97L162.74 375.1L163.91 378.19L165.11 381.27L166.37 384.32L167.7 387.36L169.08 390.34L170.51 393.3L172.02 396.24L173.56 399.13L175.17 402L176.83 404.85L178.55 407.65L180.31 410.4L182.12 413.14L184 415.84L185.93 418.5L187.9 421.11L189.92 423.7L192.01 426.25L194.13 428.74L196.32 431.22L198.53 433.64L200.81 436.02L203.13 438.36L205.5 440.65L207.91 442.89L210.37 445.1L212.88 447.26L215.42 449.38L218.02 451.44L220.65 453.45L223.33 455.41L226.05 457.33L228.82 459.21L231.62 461.02L233.22 459.58L234.81 458.15L236.41 456.74L238.02 455.34L239.64 453.94L241.27 452.57L242.91 451.19L244.56 449.83L246.22 448.48L247.87 447.15L249.55 445.83L251.23 444.52L252.94 443.22L254.62 441.93L256.34 440.65L258.06 439.38L259.79 438.12L261.53 436.89L263.26 435.66L265.01 434.44L266.77 433.23L268.54 432.04L270.32 430.85L272.11 429.69L273.89 428.53L275.7 427.38L279.33 425.12L282.98 422.92L284.82 421.84L286.66 420.77L288.52 419.7L290.38 418.67L292.25 417.63L294.12 416.61L297.9 414.6L301.71 412.65L302.22 412.38L302.73 412.11L303.26 411.84L304.28 411.32L304.8 411.05L305.31 410.79L305.84 410.54L306.35 410.28L306.88 410.03L307.39 409.77L308.97 409.02L309.48 408.78L311.58 407.79L312.11 407.55L312.64 407.31L313.69 406.84L314.23 406.61L315.28 406.15L315.82 405.91L316.88 405.45L317.42 405.23L317.94 405L318.49 404.78L319.01 404.57L319.55 404.33L320.1 404.12L320.62 403.9L321.16 403.68L321.71 403.48L322.79 403.05L322.81 402.79L322.82 402.54L322.88 402.01L322.91 401.77L322.96 401.5L322.99 401.25L323.04 400.99L323.1 400.74L323.15 400.48L323.27 399.99L323.58 398.99L323.66 398.76L323.84 398.27L323.94 398.04L324.04 397.8L324.15 397.56L324.37 397.09L324.48 396.87L324.72 396.41L324.85 396.19L324.99 395.96L325.41 395.31L325.56 395.09L325.7 394.89L325.85 394.68L326.01 394.48L326.35 394.07L326.5 393.87L326.69 393.67L324.17 390.87L321.58 388.11L318.95 385.44L316.29 382.82L313.56 380.27L310.79 377.77L307.99 375.34L305.16 372.96L302.28 370.65L299.36 368.41L296.41 366.21L293.44 364.08L290.44 361.99L287.42 359.97L284.37 357.99L281.29 356.09L278.21 354.22L275.12 352.41L271.99 350.66L268.86 348.94L265.74 347.28L262.59 345.67L259.44 344.11L256.3 342.59L253.14 341.12L250 339.71L246.85 338.34L243.73 336.99L240.6 335.7L237.49 334.45L234.39 333.24L231.3 332.08L228.23 330.95L225.2 329.87L222.18 328.82L219.18 327.81L216.21 326.84L213.27 325.89L210.37 324.99L207.49 324.13L207.26 324.41L207.01 324.68ZM401.95 399.85L401.79 400.08L401.62 400.3L401.47 400.53L401.3 400.74L401.11 400.96L400.94 401.18L400.75 401.39L400.57 401.6L400.38 401.81L400.18 402.01L399.98 402.2L399.78 402.4L399.58 402.59L399.14 402.96L398.49 403.47L398.26 403.64L398.03 403.79L398.71 406.19L399.39 408.58L400.1 410.96L400.85 413.34L401.59 415.71L402.36 418.06L403.15 420.43L403.97 422.77L404.79 425.12L405.64 427.46L406.51 429.78L408.31 434.42L409.24 436.73L410.18 439.02L411.14 441.33L413.12 445.88L414.14 448.15L415.18 450.41L416.23 452.66L417.24 454.73L417.01 454.9L417.32 454.9L417.24 454.73L419.19 453.35L421.34 451.76L423.46 450.14L425.57 448.48L427.64 446.79L429.68 445.06L431.69 443.29L433.68 441.5L435.63 439.69L437.53 437.83L439.42 435.93L441.28 434.01L443.1 432.06L444.9 430.08L446.65 428.06L448.38 426.02L450.07 423.95L451.72 421.86L453.35 419.72L454.93 417.57L456.48 415.39L457.99 413.17L455.59 412.07L453.18 411.02L450.76 410.02L448.32 409.04L445.86 408.13L443.38 407.24L440.89 406.41L438.38 405.62L435.86 404.88L433.34 404.18L430.8 403.53L428.24 402.93L425.69 402.35L423.1 401.84L420.53 401.38L417.93 400.95L415.33 400.57L412.73 400.23L410.12 399.95L407.5 399.71L404.87 399.52L402.24 399.37L402.1 399.6L401.95 399.85ZM392.24 276.14L392.13 276.18L392.04 276.21L391.93 276.25L391.84 276.28L391.62 276.35L391.53 276.38L391.42 276.41L391.31 276.42L391.22 276.45L391.11 276.48L391 276.5L390.89 276.53L390.79 276.55L390.69 276.58L390.48 276.61L390.37 276.64L390.15 276.67L390.06 276.69L389.73 276.73L389.62 276.73L389.41 276.76L389.3 276.76L389.19 276.78L389.08 276.78L388.99 276.79L388.77 276.79L388.67 276.81L388.23 276.81L387.95 279.22L387.69 281.64L387.44 284.05L387.23 286.47L387.01 288.9L386.82 291.31L386.65 293.74L386.5 296.16L386.36 298.59L386.23 301L386.13 303.43L385.97 308.29L385.93 310.71L385.89 313.14L385.88 315.57L385.88 317.98L385.89 320.41L385.93 322.84L385.97 325.26L386.13 330.12L386.23 332.53L386.36 334.96L386.5 337.38L386.65 339.81L386.82 342.22L387.23 347.05L387.46 349.48L387.69 351.89L387.95 354.31L388.23 356.71L388.53 359.12L388.84 361.54L389.16 363.94L389.52 366.35L389.87 368.75L390.65 373.55L391.2 373.66L391.76 373.8L392.3 373.95L392.83 374.12L393.35 374.31L393.88 374.51L394.39 374.73L394.89 374.96L395.37 375.2L395.85 375.47L396.33 375.75L396.79 376.04L397.24 376.35L397.67 376.68L398.09 377L398.51 377.36L398.91 377.71L399.31 378.08L399.69 378.47L400.06 378.87L400.4 379.28L400.74 379.71L401.39 380.58L401.68 381.02L401.96 381.49L402.24 381.97L402.49 382.45L402.95 383.44L403.15 383.95L403.34 384.46L403.52 384.99L403.68 385.51L403.82 386.06L403.94 386.6L404.03 387.14L404.13 387.7L404.19 388.27L404.25 388.83L405.78 388.92L407.33 389.04L408.86 389.17L410.4 389.31L411.93 389.46L413.46 389.63L414.99 389.82L416.53 390.03L418.04 390.25L419.56 390.48L421.09 390.71L422.61 390.98L424.11 391.26L425.63 391.55L427.13 391.86L430.13 392.51L433.13 393.22L436.11 394L437.59 394.41L439.06 394.83L440.53 395.26L442 395.71L443.47 396.19L444.93 396.67L446.38 397.17L449.29 398.19L450.73 398.73L452.17 399.29L453.6 399.85L456.44 401.02L457.87 401.64L459.28 402.26L460.69 402.9L462.08 403.55L463.47 404.21L463.87 403.53L464.26 402.83L464.65 402.15L465.03 401.46L465.41 400.76L465.79 400.08L466.16 399.38L466.54 398.67L466.91 397.97L467.26 397.28L467.63 396.58L468.35 395.16L468.7 394.46L469.04 393.75L469.4 393.04L470.42 390.9L470.75 390.17L471.09 389.46L471.41 388.75L472.06 387.29L472.37 386.58L472.68 385.85L473.01 385.13L473.3 384.4L473.61 383.67L473.92 382.93L474.51 381.47L474.8 380.73L475.08 380L475.37 379.26L476.49 376.29L476.75 375.55L475.19 372.65L473.59 369.76L471.97 366.89L470.31 364.06L468.63 361.23L466.92 358.43L465.17 355.62L463.41 352.87L461.6 350.11L459.77 347.39L457.91 344.68L456.03 341.99L454.12 339.33L452.17 336.68L450.21 334.06L448.21 331.46L446.18 328.88L444.12 326.32L442.05 323.79L439.94 321.28L437.81 318.79L435.66 316.33L433.46 313.88L431.25 311.45L429.02 309.05L426.76 306.68L424.47 304.33L422.14 302.01L419.81 299.7L417.44 297.43L415.06 295.18L412.64 292.95L410.2 290.76L407.73 288.57L405.24 286.42L402.73 284.3L400.2 282.2L395.06 278.08L392.44 276.07L392.35 276.1L392.24 276.14ZM265.32 222.85L265.09 223.1L264.59 223.6L264.1 224.06L263.83 224.29L263.04 224.94L262.49 225.34L262.21 225.53L261.91 225.72L261.64 225.9L261.05 226.24L260.74 226.41L260.44 226.57L260.13 226.71L259.82 226.86L259.51 227L259.21 227.12L258.88 227.25L258.57 227.37L257.92 227.59L257.6 227.68L257.25 227.77L256.93 227.87L256.59 227.95L256.26 228.02L255.58 228.15L254.9 228.24L254.56 228.27L254.21 228.3L253.87 228.33L253 230.38L252.13 232.4L251.25 234.43L250.35 236.44L249.44 238.45L248.51 240.47L247.57 242.48L246.62 244.46L245.66 246.46L244.69 248.44L243.7 250.42L241.68 254.35L240.66 256.3L239.63 258.25L238.57 260.2L237.5 262.14L236.44 264.06L235.34 265.99L234.24 267.89L233.12 269.81L232.01 271.7L230.86 273.61L229.72 275.49L228.56 277.37L227.38 279.24L226.21 281.1L223.79 284.81L222.57 286.65L221.35 288.48L220.09 290.31L218.84 292.12L217.57 293.93L216.28 295.74L215 297.54L212.37 301.1L211.05 302.86L209.71 304.62L209.8 304.79L209.91 304.96L210 305.13L210.09 305.32L210.17 305.49L210.36 305.83L210.43 306.02L210.51 306.19L210.6 306.37L210.68 306.54L210.76 306.73L210.82 306.91L210.9 307.09L210.97 307.27L211.04 307.46L211.11 307.64L211.18 307.83L211.24 308L211.42 308.56L211.47 308.76L211.53 308.94L211.62 309.31L211.69 309.5L211.73 309.69L211.76 309.89L211.86 310.26L211.89 310.46L211.93 310.65L211.97 310.85L212 311.03L212.03 311.23L212.06 311.42L212.09 311.62L212.1 311.81L212.14 312.01L212.14 312.73L214.36 313.42L215.48 313.77L216.59 314.11L217.69 314.47L219.92 315.18L221.02 315.55L222.13 315.92L224.33 316.67L225.45 317.04L229.84 318.59L230.93 318.99L233.12 319.79L234.21 320.2L235.31 320.61L236.39 321.02L237.47 321.43L238.57 321.87L239.66 322.28L242.91 323.59L243.97 324.02L245.06 324.47L246.14 324.9L247.21 325.35L248.28 325.81L249.36 326.26L253.63 328.12L254.7 328.6L255.75 329.08L258.08 330.09L260.38 331.12L262.66 332.19L264.93 333.27L267.21 334.39L269.45 335.52L271.68 336.68L273.91 337.87L276.12 339.08L278.32 340.3L280.5 341.56L282.67 342.82L284.82 344.12L286.96 345.44L289.08 346.79L291.18 348.15L293.29 349.54L295.36 350.95L297.42 352.39L299.48 353.84L301.51 355.32L303.52 356.82L305.53 358.33L307.51 359.88L309.48 361.44L311.43 363.02L313.36 364.63L315.28 366.26L317.19 367.9L319.06 369.57L320.93 371.26L322.77 372.96L324.62 374.69L326.43 376.44L328.22 378.21L329.99 380L331.75 381.81L333.49 383.64L335.2 385.48L336.91 387.36L339.86 387.36L340.57 387.39L341.29 387.45L341.64 387.49L342 387.56L342.35 387.6L342.71 387.68L343.05 387.74L343.41 387.82L344.09 388.01L345.11 388.33L345.76 388.58L346.1 388.72L346.42 388.86L346.73 389L347.06 389.15L347.37 389.32L347.69 389.48L348 389.66L348.3 389.83L348.61 390.02L348.9 390.22L349.2 390.4L349.49 390.62L349.77 390.82L350.06 391.04L350.34 391.27L350.6 391.49L350.88 391.72L351.41 392.22L351.66 392.46L352.4 393.25L355.65 392.49L356.11 392.4L356.58 392.29L357.06 392.2L357.52 392.09L359.38 391.72L359.86 391.63L360.79 391.44L361.27 391.35L361.73 391.26L362.2 391.18L362.66 391.09L363.14 391.01L363.61 390.93L364.09 390.84L365.01 390.68L365.49 390.61L365.96 390.53L366.44 390.45L366.9 390.39L367.38 390.31L367.85 390.23L368.33 390.17L368.79 390.1L369.27 390.03L369.74 389.97L370.21 389.91L370.68 389.83L371.16 389.77L371.16 389.31L371.22 388.35L371.27 387.88L371.33 387.4L371.41 386.94L371.48 386.49L371.59 386.02L371.7 385.58L371.82 385.13L371.96 384.68L372.1 384.24L372.26 383.8L372.44 383.38L372.61 382.94L373.02 382.11L373.23 381.71L373.7 380.9L373.95 380.51L374.21 380.14L374.49 379.76L374.77 379.4L375.35 378.69L375.66 378.35L375.99 378.01L376.31 377.68L376.65 377.36L377.01 377.05L377.72 376.46L378.11 376.18L378.48 375.9L378.88 375.64L379.29 375.39L379.69 375.16L380.11 374.93L380.54 374.71L380.12 372.19L379.72 369.68L379.33 367.16L378.96 364.63L378.62 362.11L378.29 359.59L377.99 357.06L377.69 354.54L377.43 352L377.18 349.48L376.95 346.94L376.73 344.4L376.53 341.88L376.19 336.8L376.05 334.27L375.83 329.19L375.76 326.63L375.68 324.1L375.63 321.56L375.6 316.48L375.62 313.93L375.65 311.39L375.69 308.85L375.76 306.31L375.83 303.76L375.94 301.22L376.07 298.68L376.21 296.14L376.55 291.07L376.75 288.53L376.96 285.99L377.2 283.45L377.44 280.93L377.72 278.39L378.02 275.85L378.33 273.33L378 273.11L377.69 272.89L377.4 272.66L377.09 272.43L376.81 272.2L376.51 271.95L376.24 271.7L375.97 271.44L375.69 271.18L375.45 270.91L375.18 270.63L374.94 270.36L374.47 269.77L374.04 269.18L373.82 268.87L373.62 268.56L373.42 268.23L373.23 267.91L373.05 267.6L372.88 267.26L372.72 266.93L372.55 266.59L372.27 265.91L372.13 265.56L372.01 265.22L371.89 264.86L371.78 264.5L371.69 264.13L371.59 263.78L371.5 263.41L371.42 263.05L371.36 262.68L371.3 262.29L371.21 261.55L371.17 261.16L371.16 260.79L369.27 259.63L367.37 258.47L365.46 257.34L363.54 256.22L361.62 255.12L357.75 252.96L355.8 251.91L353.84 250.87L351.87 249.85L349.91 248.86L347.93 247.87L345.93 246.89L343.93 245.93L341.94 244.99L337.91 243.16L335.88 242.28L333.84 241.4L331.81 240.54L329.75 239.71L327.71 238.87L325.65 238.07L323.58 237.28L321.5 236.5L319.43 235.75L315.25 234.29L313.15 233.58L311.04 232.9L308.94 232.23L306.82 231.57L304.7 230.93L302.58 230.31L300.44 229.71L298.3 229.12L294 228.01L289.7 226.95L289.09 226.82L288.47 226.68L287.27 226.4L286.65 226.27L285.44 225.99L284.82 225.87L284.22 225.75L283.61 225.61L281.2 225.11L280.58 224.99L279.98 224.86L279.37 224.76L278.79 224.63L278.18 224.52L277.58 224.4L276.37 224.18L275.78 224.06L274.57 223.84L273.4 223.63L272.79 223.52L272.21 223.43L270.44 223.1L269.85 223.01L269.27 222.9L268.09 222.71L267.52 222.61L266.93 222.51L266.36 222.42L265.77 222.33L265.55 222.59L265.32 222.85ZM412.38 184.5L411.76 186.05L411.15 187.58L410.55 189.13L409.37 192.22L408.23 195.32L407.12 198.44L406.03 201.57L404.98 204.7L404.45 206.28L403.94 207.85L403.45 209.42L402.95 211.01L401.51 215.75L401.05 217.34L399.7 222.13L399.27 223.72L398.85 225.31L398.43 226.92L398.01 228.52L397.61 230.13L396.45 234.96L396.08 236.57L395.72 238.19L395.37 239.8L395.01 241.43L394.67 243.04L394.35 244.66L394.83 244.86L395.29 245.08L395.75 245.31L396.2 245.54L397.07 246.07L397.5 246.35L397.91 246.64L398.32 246.94L399.1 247.59L399.47 247.91L399.82 248.25L400.18 248.61L400.52 248.98L400.85 249.35L401.17 249.74L401.47 250.13L401.76 250.53L402.05 250.95L402.58 251.78L402.83 252.21L403.06 252.66L403.28 253.11L403.48 253.56L403.85 254.49L404.02 254.97L404.17 255.43L404.3 255.93L404.42 256.41L404.64 257.4L404.72 257.91L404.78 258.41L404.82 258.92L404.86 259.44L404.89 260.46L404.87 260.73L404.81 261.72L404.65 262.96L404.56 263.45L404.51 263.68L404.45 263.93L404.41 264.18L404.34 264.41L404.28 264.66L404.22 264.89L404.14 265.14L403.91 265.84L403.83 266.08L403.74 266.32L403.66 266.55L403.57 266.76L403.46 267L403.37 267.23L403.26 267.46L403.17 267.68L403.06 267.91L402.94 268.13L402.83 268.34L402.7 268.56L402.58 268.79L402.46 269.01L402.33 269.21L402.19 269.43L402.07 269.64L401.93 269.84L404.33 271.75L406.71 273.68L409.08 275.63L411.43 277.6L413.76 279.6L416.06 281.61L418.34 283.64L420.61 285.69L425.07 289.87L427.27 291.99L429.45 294.15L431.62 296.3L433.75 298.48L435.87 300.69L437.96 302.91L440.04 305.15L442.08 307.41L444.11 309.7L446.12 311.99L448.1 314.31L450.07 316.65L452 319.02L453.92 321.39L455.83 323.79L457.68 326.2L459.54 328.63L461.37 331.09L463.16 333.55L464.94 336.05L466.69 338.54L468.42 341.06L470.13 343.6L471.81 346.17L473.47 348.74L475.1 351.32L476.71 353.94L478.3 356.55L481.4 361.85L481.66 360.81L481.92 359.79L482.42 357.71L482.65 356.68L482.88 355.62L483.11 354.59L483.33 353.55L483.55 352.5L483.76 351.46L483.95 350.41L484.15 349.36L484.34 348.32L484.52 347.27L484.86 345.16L485.33 342L485.47 340.95L485.59 339.88L485.73 338.83L485.84 337.78L485.96 336.71L486.07 335.66L486.16 334.59L486.26 333.54L486.35 332.47L486.43 331.42L486.5 330.35L486.56 329.28L486.63 328.23L486.67 327.16L486.74 326.09L486.8 323.96L486.83 322.9L486.87 319.7L486.81 315.55L486.67 311.42L486.43 307.3L486.07 303.2L485.62 299.13L485.06 295.07L484.41 291.03L483.67 287.03L482.83 283.05L481.89 279.1L480.87 275.17L479.74 271.28L478.52 267.41L477.22 263.59L475.81 259.8L474.32 256.05L472.73 252.34L471.07 248.65L469.31 245.03L467.46 241.44L465.53 237.9L463.52 234.41L461.41 230.96L459.23 227.57L456.97 224.23L454.62 220.95L452.19 217.71L449.68 214.53L447.1 211.41L444.42 208.35L441.68 205.36L438.86 202.42L435.95 199.56L432.98 196.76L429.95 194.02L426.82 191.35L423.63 188.77L420.36 186.25L417.04 183.8L413.63 181.43L413 182.97L412.38 184.5ZM153.19 321.73L153.21 323.77L153.24 325.8L153.3 327.84L153.38 329.87L153.49 331.9L153.63 333.92L153.78 335.95L154.19 340.01L154.43 342.02L154.7 344.05L156.96 342.31L159.2 340.56L161.4 338.78L163.58 336.97L165.75 335.13L167.88 333.24L169.99 331.34L172.06 329.4L174.11 327.45L176.13 325.46L178.13 323.43L180.1 321.39L179.86 321L179.66 320.6L179.45 320.21L179.26 319.81L179.07 319.39L178.9 318.99L178.73 318.57L178.59 318.15L178.44 317.72L178.32 317.3L178.1 316.43L175.42 315.89L172.84 315.38L170.36 314.9L167.96 314.47L165.69 314.05L163.52 313.66L161.48 313.31L159.56 312.98L157.76 312.69L156.1 312.44L154.59 312.21L153.23 312.01L153.23 319.7L153.19 321.73ZM216.5 218.87L213.56 218.94L212.1 218.97L209.16 219.06L207.71 219.12L206.24 219.2L204.77 219.26L203.31 219.35L201.84 219.45L200.39 219.54L198.92 219.65L197.46 219.76L195.99 219.88L194.54 220.02L193.08 220.14L191.61 220.3L188.7 220.61L185.79 220.95L184.35 222.91L182.94 224.9L181.57 226.89L180.22 228.9L178.9 230.95L177.6 232.99L176.35 235.07L175.14 237.15L173.95 239.26L172.79 241.38L171.66 243.52L170.56 245.67L169.51 247.83L168.47 250.02L167.47 252.21L166.51 254.43L165.58 256.66L164.68 258.89L163.81 261.15L162.98 263.41L162.17 265.68L161.41 267.97L160.67 270.26L159.97 272.58L159.31 274.91L158.67 277.23L158.09 279.58L157.53 281.93L156.99 284.29L156.51 286.65L156.04 289.04L155.62 291.42L155.22 293.82L154.88 296.22L154.56 298.63L154.28 301.05L154.73 301.11L155.19 301.17L155.67 301.23L156.17 301.31L157.22 301.47L158.33 301.62L158.92 301.7L159.51 301.79L160.75 301.98L161.4 302.09L162.06 302.18L162.73 302.29L164.12 302.5L164.83 302.63L166.32 302.88L167.08 303L167.85 303.14L168.64 303.26L169.43 303.4L171.07 303.71L171.91 303.87L172.76 304.02L173.63 304.18L174.49 304.35L175.39 304.53L176.29 304.7L178.11 305.07L179.04 305.27L179.99 305.48L180.22 304.98L180.75 304.05L181.01 303.6L181.3 303.15L181.61 302.74L181.92 302.3L182.25 301.9L182.59 301.5L182.94 301.13L183.3 300.74L183.69 300.38L184.06 300.04L184.46 299.7L184.86 299.38L185.28 299.07L185.7 298.77L186.13 298.48L186.57 298.22L187.01 297.95L187.48 297.71L188.41 297.27L188.89 297.07L189.38 296.89L189.86 296.71L190.37 296.56L190.87 296.42L191.38 296.3L191.89 296.19L192.42 296.1L192.93 296.02L193.45 295.96L194 295.91L194.52 295.89L195.06 295.88L195.25 295.88L195.42 295.89L195.6 295.89L195.98 295.93L196.16 295.93L196.35 295.94L196.52 295.96L196.7 295.99L197.08 296.02L197.25 296.05L197.43 296.06L197.62 296.1L197.79 296.13L197.97 296.16L198.14 296.19L198.33 296.22L198.51 296.27L198.69 296.3L198.87 296.34L199.04 296.37L199.23 296.42L199.4 296.47L199.58 296.51L199.75 296.56L199.92 296.62L200.11 296.67L200.28 296.71L200.62 296.84L200.81 296.89L201.15 297.01L201.32 297.09L201.49 297.15L202.9 295.31L204.29 293.45L207.04 289.7L208.39 287.83L209.74 285.94L211.07 284.04L212.38 282.13L213.68 280.22L216.25 276.35L217.51 274.41L218.76 272.46L221.21 268.53L223.62 264.57L224.8 262.57L225.96 260.57L227.12 258.56L228.25 256.55L229.38 254.52L230.49 252.48L231.58 250.45L232.66 248.39L234.8 244.27L235.83 242.2L236.85 240.13L237.88 238.04L238.87 235.95L239.86 233.84L241.78 229.63L242.72 227.51L243.65 225.38L243.46 225.25L243.29 225.11L243.11 224.99L242.43 224.43L242.26 224.28L242.1 224.14L241.93 223.98L241.78 223.84L241.16 223.22L241 223.05L240.86 222.9L240.71 222.73L240.57 222.56L240.43 222.4L240.29 222.23L240.15 222.05L240.01 221.88L239.76 221.54L239.63 221.35L239.5 221.17L239.38 221L239.25 220.81L239.15 220.62L239.02 220.44L238.91 220.25L238.8 220.05L238.7 219.87L238.59 219.66L238.48 219.48L237.01 219.39L235.55 219.29L234.08 219.22L232.61 219.15L231.16 219.09L229.69 219.03L228.22 218.98L226.76 218.94L225.29 218.91L222.35 218.87L220.9 218.86L217.96 218.86L216.5 218.87ZM315.55 152.74L312.25 152.86L308.94 153.05L305.62 153.31L302.33 153.63L299.03 154.04L295.73 154.49L292.44 155.03L289.16 155.62L285.87 156.28L282.61 157.01L279.34 157.8L276.11 158.66L275.84 159.76L275.32 161.93L275.04 163.01L274.78 164.1L274.51 165.17L274.23 166.25L273.97 167.32L273.41 169.45L273.14 170.51L272.86 171.57L272.02 174.73L271.73 175.77L271.45 176.82L271.15 177.86L270.88 178.89L270.58 179.92L270.29 180.95L269.7 183L269.41 184L269.11 185.02L268.82 186.03L268.51 187.04L267.92 189.02L266.99 191.99L266.7 192.96L266.39 193.92L266.08 194.9L265.46 196.82L265.13 197.78L264.51 199.67L264.99 200.15L265.23 200.39L265.44 200.66L265.67 200.9L265.89 201.17L266.09 201.43L266.31 201.71L266.51 201.97L266.88 202.53L267.07 202.82L267.24 203.1L267.58 203.69L267.73 203.98L267.89 204.29L268.04 204.59L268.18 204.9L268.31 205.21L268.45 205.52L268.57 205.83L268.68 206.14L268.89 206.79L268.99 207.1L269.17 207.75L269.25 208.09L269.31 208.41L269.39 208.74L269.44 209.08L269.5 209.4L269.54 209.74L269.64 210.76L269.67 211.45L269.67 212.31L272.44 212.76L275.18 213.26L277.93 213.75L280.67 214.29L283.41 214.85L286.14 215.44L288.86 216.04L291.59 216.68L294.29 217.34L297 218.02L299.7 218.74L302.39 219.48L305.07 220.24L307.74 221.03L310.41 221.83L313.07 222.67L315.72 223.53L318.36 224.42L320.99 225.33L323.61 226.26L326.23 227.22L328.84 228.21L331.43 229.21L334.03 230.25L336.6 231.3L339.17 232.39L341.72 233.49L344.27 234.62L346.81 235.78L349.33 236.95L351.86 238.16L354.37 239.38L356.86 240.64L359.33 241.91L361.81 243.21L364.27 244.52L366.72 245.87L369.16 247.23L371.59 248.62L374.01 250.03L374.52 249.34L374.7 249.12L374.89 248.89L375.26 248.45L375.46 248.25L375.66 248.04L376.27 247.43L376.48 247.23L377.35 246.49L377.58 246.3L378.05 245.96L378.28 245.81L378.51 245.64L378.74 245.48L379.24 245.17L379.49 245.03L379.73 244.88L379.98 244.74L380.23 244.62L380.49 244.48L381.02 244.23L381.27 244.1L381.55 244L382.07 243.78L382.35 243.67L382.61 243.58L383.17 243.39L383.91 239.93L384.69 236.46L385.49 232.99L385.91 231.26L386.33 229.54L386.76 227.81L388.11 222.65L388.57 220.93L389.05 219.23L389.53 217.51L390.52 214.11L391.54 210.7L392.07 209.02L392.6 207.31L393.14 205.63L393.7 203.94L394.24 202.25L395.38 198.88L395.96 197.21L396.54 195.52L397.75 192.17L398.37 190.52L398.99 188.85L399.61 187.19L400.26 185.53L400.89 183.88L401.56 182.22L402.21 180.57L402.89 178.93L403.56 177.28L404.25 175.64L401.34 173.96L398.4 172.33L395.43 170.78L392.44 169.28L389.42 167.86L386.37 166.5L383.33 165.2L380.23 163.96L377.13 162.78L374.01 161.67L370.87 160.61L367.71 159.64L364.52 158.71L361.33 157.86L358.13 157.07L354.91 156.34L351.67 155.69L348.42 155.09L345.17 154.56L341.91 154.1L338.62 153.7L335.34 153.36L332.06 153.09L328.76 152.89L325.47 152.75L322.16 152.67L318.86 152.67L315.55 152.74ZM257.41 165.1L254.02 166.53L250.68 168.03L247.35 169.61L244.07 171.25L240.83 172.97L237.63 174.75L234.47 176.6L231.36 178.52L228.28 180.52L225.25 182.56L222.27 184.68L219.33 186.88L216.44 189.13L213.59 191.45L210.8 193.82L208.06 196.26L205.37 198.75L202.74 201.32L200.16 203.94L197.63 206.62L195.17 209.36L196.95 209.25L198.75 209.14L200.54 209.06L202.32 208.97L205.91 208.84L207.71 208.8L209.49 208.75L211.28 208.72L214.88 208.69L216.67 208.69L218.45 208.71L220.25 208.72L222.04 208.75L225.63 208.84L227.41 208.91L229.21 208.97L231 209.06L232.78 209.14L236.37 209.36L236.56 208.3L236.81 207.27L237.13 206.26L237.5 205.28L237.94 204.34L238.42 203.43L238.96 202.56L239.55 201.72L240.18 200.92L240.88 200.16L241.61 199.47L242.36 198.78L243.17 198.18L244.02 197.61L244.9 197.08L245.82 196.62L246.76 196.21L247.72 195.86L248.73 195.56L249.75 195.33L250.78 195.16L251.84 195.07L252.92 195.02L254.92 195.02L255.37 193.68L255.82 192.31L256.68 189.59L257.55 186.83L257.97 185.46L258.38 184.06L258.79 182.66L259.21 181.26L259.61 179.85L260.41 177.01L260.8 175.58L261.2 174.14L261.98 171.26L262.75 168.35L263.14 166.88L263.52 165.43L264.3 162.46L260.85 163.74L257.41 165.1Z" id="bG16xZS4u"></path></defs><g><g><g><use xlink:href="#beLXUSEgt" opacity="1" fill="#ffffff" fill-opacity="1"></use><g><use xlink:href="#beLXUSEgt" opacity="1" fill-opacity="0" stroke="#000000" stroke-width="1" stroke-opacity="0"></use></g></g><g><use xlink:href="#a5MjBJV40" opacity="1" fill="#000000" fill-opacity="0"></use><g><use xlink:href="#a5MjBJV40" opacity="1" fill-opacity="0" stroke="#000000" stroke-width="1" stroke-opacity="0"></use></g></g><g><use xlink:href="#g1Ch7WWLXD" opacity="1" fill="#ffffff" fill-opacity="1"></use><g><use xlink:href="#g1Ch7WWLXD" opacity="1" fill-opacity="0" stroke="#000000" stroke-width="1" stroke-opacity="0"></use></g></g><g><use xlink:href="#d2lfv3PEm6" opacity="1" fill="#000000" fill-opacity="0"></use><g><use xlink:href="#d2lfv3PEm6" opacity="1" fill-opacity="0" stroke="#000000" stroke-width="1" stroke-opacity="0"></use></g></g><g><use xlink:href="#bgVQUDifR" opacity="1" fill="#ffffff" fill-opacity="1"></use><g><use xlink:href="#bgVQUDifR" opacity="1" fill-opacity="0" stroke="#000000" stroke-width="1" stroke-opacity="0"></use></g></g><g><use xlink:href="#atgjxeO9q" opacity="1" fill="#000000" fill-opacity="0"></use><g><use xlink:href="#atgjxeO9q" opacity="1" fill-opacity="0" stroke="#000000" stroke-width="1" stroke-opacity="0"></use></g></g><g><use xlink:href="#akhR620Mo" opacity="1" fill="#ffffff" fill-opacity="1"></use><g><use xlink:href="#akhR620Mo" opacity="1" fill-opacity="0" stroke="#000000" stroke-width="1" stroke-opacity="0"></use></g></g><g><use xlink:href="#bLfT0xSEi" opacity="1" fill="#000000" fill-opacity="0"></use><g><use xlink:href="#bLfT0xSEi" opacity="1" fill-opacity="0" stroke="#000000" stroke-width="1" stroke-opacity="0"></use></g></g><g><use xlink:href="#bVTnpIYSE" opacity="1" fill="#ffffff" fill-opacity="1"></use><g><use xlink:href="#bVTnpIYSE" opacity="1" fill-opacity="0" stroke="#000000" stroke-width="1" stroke-opacity="0"></use></g></g><g><use xlink:href="#anO3LeUFd" opacity="1" fill="#000000" fill-opacity="0"></use><g><use xlink:href="#anO3LeUFd" opacity="1" fill-opacity="0" stroke="#000000" stroke-width="1" stroke-opacity="0"></use></g></g><g><use xlink:href="#f33WwfpUAh" opacity="1" fill="#ffffff" fill-opacity="1"></use><g><use xlink:href="#f33WwfpUAh" opacity="1" fill-opacity="0" stroke="#000000" stroke-width="1" stroke-opacity="0"></use></g></g><g><use xlink:href="#dlCRVubku" opacity="1" fill="#000000" fill-opacity="0"></use><g><use xlink:href="#dlCRVubku" opacity="1" fill-opacity="0" stroke="#000000" stroke-width="1" stroke-opacity="0"></use></g></g><g><use xlink:href="#a4skNyGiM" opacity="1" fill="#ffffff" fill-opacity="1"></use><g><use xlink:href="#a4skNyGiM" opacity="1" fill-opacity="0" stroke="#000000" stroke-width="1" stroke-opacity="0"></use></g></g><g><use xlink:href="#a7PRBEbDe" opacity="1" fill="#000000" fill-opacity="0"></use><g><use xlink:href="#a7PRBEbDe" opacity="1" fill-opacity="0" stroke="#000000" stroke-width="1" stroke-opacity="0"></use></g></g><g><use xlink:href="#eq815BIKZ" opacity="1" fill="#ffffff" fill-opacity="1"></use><g><use xlink:href="#eq815BIKZ" opacity="1" fill-opacity="0" stroke="#000000" stroke-width="1" stroke-opacity="0"></use></g></g><g><use xlink:href="#b3biYQ3e7N" opacity="1" fill="#000000" fill-opacity="0"></use><g><use xlink:href="#b3biYQ3e7N" opacity="1" fill-opacity="0" stroke="#000000" stroke-width="1" stroke-opacity="0"></use></g></g><g><use xlink:href="#aG4JW2f1z" opacity="1" fill="#ffffff" fill-opacity="1"></use><g><use xlink:href="#aG4JW2f1z" opacity="1" fill-opacity="0" stroke="#000000" stroke-width="1" stroke-opacity="0"></use></g></g><g><use xlink:href="#a78FBdeRp" opacity="1" fill="#000000" fill-opacity="0"></use><g><use xlink:href="#a78FBdeRp" opacity="1" fill-opacity="0" stroke="#000000" stroke-width="1" stroke-opacity="0"></use></g></g><g><use xlink:href="#a11UuB5rLB" opacity="1" fill="#ffffff" fill-opacity="1"></use><g><use xlink:href="#a11UuB5rLB" opacity="1" fill-opacity="0" stroke="#000000" stroke-width="1" stroke-opacity="0"></use></g></g><g><use xlink:href="#cs05IGnJw" opacity="1" fill="#000000" fill-opacity="0"></use><g><use xlink:href="#cs05IGnJw" opacity="1" fill-opacity="0" stroke="#000000" stroke-width="1" stroke-opacity="0"></use></g></g><g><use xlink:href="#beOMYyG3O" opacity="1" fill="#8cc441" fill-opacity="1"></use><g><use xlink:href="#beOMYyG3O" opacity="1" fill-opacity="0" stroke="#000000" stroke-width="1" stroke-opacity="0"></use></g></g><g><use xlink:href="#azNQMQf99" opacity="1" fill="#000000" fill-opacity="0"></use><g><use xlink:href="#azNQMQf99" opacity="1" fill-opacity="0" stroke="#000000" stroke-width="1" stroke-opacity="0"></use></g></g><g><use xlink:href="#a5VMHIlqC5" opacity="1" fill="#ffffff" fill-opacity="1"></use><g><use xlink:href="#a5VMHIlqC5" opacity="1" fill-opacity="0" stroke="#000000" stroke-width="1" stroke-opacity="0"></use></g></g><g><use xlink:href="#bG16xZS4u" opacity="1" fill="#000000" fill-opacity="0"></use><g><use xlink:href="#bG16xZS4u" opacity="1" fill-opacity="0" stroke="#000000" stroke-width="1" stroke-opacity="0"></use></g></g></g></g></svg>