<?xml version="1.0" encoding="UTF-8" standalone="no"?>
<!DOCTYPE svg PUBLIC "-//W3C//DTD SVG 1.1//EN" "http://www.w3.org/Graphics/SVG/1.1/DTD/svg11.dtd">
<svg version="1.1" xmlns="http://www.w3.org/2000/svg" xmlns:xlink="http://www.w3.org/1999/xlink" preserveAspectRatio="xMidYMid meet" viewBox="0 0 640 640" width="640" height="640"><defs><path d="M110.62 532.62L547.58 532.62" id="a3lhFDVwm"></path><path d="M110.62 532.62L547.58 532.62" id="dHij4sGEI"></path><path d="M322.62 636.43C147.33 636.43 5.22 494.89 5.22 320.31C5.22 145.72 147.33 4.2 322.62 4.2C497.91 4.2 640 145.72 640 320.31C640 494.89 497.91 636.43 322.62 636.43Z" id="a9M1ZIiCHq"></path><path d="M322.62 636.43C147.33 636.43 5.22 494.89 5.22 320.31C5.22 145.72 147.33 4.2 322.62 4.2C497.91 4.2 640 145.72 640 320.31C640 494.89 497.91 636.43 322.62 636.43Z" id="a21ILHrA0B"></path><path d="M447.42 532.85C430.75 517.35 414.39 500.99 397.71 485.7C394.95 483.47 391.66 482.01 388.15 481.45C349.83 474.82 314.58 456.22 287.45 428.33C266.52 407.28 254.08 379.27 252.52 349.62C249.73 309.06 267.24 269.76 299.25 244.68C328.85 220.05 365.22 204.98 403.55 201.45C455.21 194.66 507.47 208.44 549.08 239.78C577.92 259.95 597.14 291.12 602.18 325.94C602.93 330.72 603.47 335.5 604.1 340.27C604.1 340.71 604.1 344.19 604.1 344.63C603.47 349.09 602.93 353.45 602.3 357.92C598.31 385.93 585.12 411.82 564.81 431.52C543.09 453.07 516.27 468.75 486.83 477.09C482.91 478.26 481.74 479.74 482.26 483.89C484.81 503.54 487.04 523.3 489.38 543.05C490.44 548.77 487.27 554.45 481.84 556.55C480.67 556.55 479.72 557.72 478.65 558.35C478.21 558.27 476.88 558.01 476.42 557.93C466.76 549.64 456.77 541.57 447.42 532.85Z" id="exHbCG89u"></path><path d="M447.42 532.85C430.75 517.35 414.39 500.99 397.71 485.7C394.95 483.47 391.66 482.01 388.15 481.45C349.83 474.82 314.58 456.22 287.45 428.33C266.52 407.28 254.08 379.27 252.52 349.62C249.73 309.06 267.24 269.76 299.25 244.68C328.85 220.05 365.22 204.98 403.55 201.45C455.21 194.66 507.47 208.44 549.08 239.78C577.92 259.95 597.14 291.12 602.18 325.94C602.93 330.72 603.47 335.5 604.1 340.27C604.1 340.71 604.1 344.19 604.1 344.63C603.47 349.09 602.93 353.45 602.3 357.92C598.31 385.93 585.12 411.82 564.81 431.52C543.09 453.07 516.27 468.75 486.83 477.09C482.91 478.26 481.74 479.74 482.26 483.89C484.81 503.54 487.04 523.3 489.38 543.05C490.44 548.77 487.27 554.45 481.84 556.55C480.67 556.55 479.72 557.72 478.65 558.35C478.21 558.27 476.88 558.01 476.42 557.93C466.76 549.64 456.77 541.57 447.42 532.85Z" id="h3NZlS7CWY"></path><path d="M364.05 289.72C351.81 289.83 341.96 299.79 341.94 312.02C341.34 323.75 350.35 333.73 362.06 334.33C362.86 334.38 363.67 334.38 364.47 334.33C376.78 334.22 386.67 324.14 386.56 311.81C386.44 299.49 376.36 289.6 364.05 289.72Z" id="f1lpy0x5uX"></path><path d="M364.05 289.72C351.81 289.83 341.96 299.79 341.94 312.02C341.34 323.75 350.35 333.73 362.06 334.33C362.86 334.38 363.67 334.38 364.47 334.33C376.78 334.22 386.67 324.14 386.56 311.81C386.44 299.49 376.36 289.6 364.05 289.72Z" id="ba1gnxXuF"></path><path d="M429.79 289.72C417.56 289.6 407.51 299.36 407.28 311.6C406.45 323.31 415.26 333.46 426.96 334.3C427.76 334.35 428.57 334.37 429.37 334.33C441.7 334.45 451.76 324.56 451.88 312.23C451.99 299.92 442.1 289.83 429.79 289.72Z" id="b8nAPikQAQ"></path><path d="M429.79 289.72C417.56 289.6 407.51 299.36 407.28 311.6C406.45 323.31 415.26 333.46 426.96 334.3C427.76 334.35 428.57 334.37 429.37 334.33C441.7 334.45 451.76 324.56 451.88 312.23C451.99 299.92 442.1 289.83 429.79 289.72Z" id="b9VNpowuxx"></path><path d="M472.6 311.82C472.49 324.02 482.2 334.04 494.38 334.33C506.07 335.21 516.29 326.46 517.17 314.77C517.23 313.92 517.25 313.08 517.21 312.23C517.33 299.92 507.44 289.83 495.11 289.72C482.8 289.6 472.71 299.51 472.6 311.82Z" id="b2pYDfcHUM"></path><path d="M472.6 311.82C472.49 324.02 482.2 334.04 494.38 334.33C506.07 335.21 516.29 326.46 517.17 314.77C517.23 313.92 517.25 313.08 517.21 312.23C517.33 299.92 507.44 289.83 495.11 289.72C482.8 289.6 472.71 299.51 472.6 311.82Z" id="cbU2FpSC7"></path><path d="M164.98 224.4C164.98 224.4 164.98 224.4 164.98 224.4C152.66 224.4 142.68 234.38 142.68 246.7C142.68 259.01 152.66 269 164.98 269C177.31 269 187.29 259.01 187.29 246.7C187.29 234.38 177.31 224.4 164.98 224.4Z" id="b1O6uAE1HA"></path><path d="M164.98 224.4C164.98 224.4 164.98 224.4 164.98 224.4C152.66 224.4 142.68 234.38 142.68 246.7C142.68 259.01 152.66 269 164.98 269C177.31 269 187.29 259.01 187.29 246.7C187.29 234.38 177.31 224.4 164.98 224.4Z" id="d3O24Tf3QU"></path><path d="M208.11 246.6C208 258.8 217.69 268.82 229.89 269.11C241.59 270.01 251.78 261.24 252.68 249.54C252.74 248.7 252.76 247.85 252.73 247.02C252.84 234.69 242.94 224.63 230.62 224.51C218.31 224.4 208.23 234.29 208.11 246.6Z" id="cmnfbNEQN"></path><path d="M208.11 246.6C208 258.8 217.69 268.82 229.89 269.11C241.59 270.01 251.78 261.24 252.68 249.54C252.74 248.7 252.76 247.85 252.73 247.02C252.84 234.69 242.94 224.63 230.62 224.51C218.31 224.4 208.23 234.29 208.11 246.6Z" id="a3p6rzPQC"></path><path d="M265.25 114.14C306.34 121.47 343.52 143.01 370.31 175C372.02 177.11 373.61 179.25 375.63 182.01C366.91 184.66 358.84 187.22 350.55 189.56C349.91 189.56 348.64 188.7 348.01 188.06C320.31 157.47 281.71 138.96 240.51 136.55C198.66 131.64 156.47 142.18 121.86 166.18C97.95 181.36 80.89 205.25 74.27 232.77C66.88 265.35 77.03 299.43 101.04 322.64C122.54 345.05 150.37 360.36 180.82 366.52C191.44 369.06 195.05 372.88 193.88 384.46C192.71 396.04 191.23 406.34 189.85 417.4C189.85 418.25 189.85 419.09 189.85 421.32C194.22 417.19 229.22 384.14 233.6 380.01C236.9 388.4 240.09 395.93 242.95 403.69C243.05 405.2 242.46 406.68 241.36 407.72C211.61 436.41 187.54 459.17 181.55 464.88C177.73 468.78 171.74 469.61 167.01 466.89C162.18 464.39 159.46 459.1 160.21 453.72C163.61 425.47 166.6 402.76 167.32 397.1C168.28 389.57 168.49 389.57 161.27 387.34C122.62 376.62 89.08 352.44 66.73 319.14C56.19 303.23 49.66 285.02 47.72 266.04C47.48 264.62 47.12 263.24 46.65 261.89C46.65 253.17 46.65 246.21 46.65 244.47C47.12 243.3 47.48 242.09 47.72 240.86C49.77 219.49 57.59 199.07 70.35 181.8C97.02 145.97 136.46 121.76 180.49 114.23C190.48 112.12 200.78 111.16 210.97 109.66C215.74 109.65 230.02 109.58 234.77 109.57C245.39 111.05 255.28 112.12 265.25 114.14Z" id="coE2vtA0s"></path><path d="M265.25 114.14C306.34 121.47 343.52 143.01 370.31 175C372.02 177.11 373.61 179.25 375.63 182.01C366.91 184.66 358.84 187.22 350.55 189.56C349.91 189.56 348.64 188.7 348.01 188.06C320.31 157.47 281.71 138.96 240.51 136.55C198.66 131.64 156.47 142.18 121.86 166.18C97.95 181.36 80.89 205.25 74.27 232.77C66.88 265.35 77.03 299.43 101.04 322.64C122.54 345.05 150.37 360.36 180.82 366.52C191.44 369.06 195.05 372.88 193.88 384.46C192.71 396.04 191.23 406.34 189.85 417.4C189.85 418.25 189.85 419.09 189.85 421.32C194.22 417.19 229.22 384.14 233.6 380.01C236.9 388.4 240.09 395.93 242.95 403.69C243.05 405.2 242.46 406.68 241.36 407.72C211.61 436.41 187.54 459.17 181.55 464.88C177.73 468.78 171.74 469.61 167.01 466.89C162.18 464.39 159.46 459.1 160.21 453.72C163.61 425.47 166.6 402.76 167.32 397.1C168.28 389.57 168.49 389.57 161.27 387.34C122.62 376.62 89.08 352.44 66.73 319.14C56.19 303.23 49.66 285.02 47.72 266.04C47.48 264.62 47.12 263.24 46.65 261.89C46.65 253.17 46.65 246.21 46.65 244.47C47.12 243.3 47.48 242.09 47.72 240.86C49.77 219.49 57.59 199.07 70.35 181.8C97.02 145.97 136.46 121.76 180.49 114.23C190.48 112.12 200.78 111.16 210.97 109.66C215.74 109.65 230.02 109.58 234.77 109.57C245.39 111.05 255.28 112.12 265.25 114.14Z" id="c1g9TAdkkH"></path></defs><g><g><g><use xlink:href="#a3lhFDVwm" opacity="1" fill="#000000" fill-opacity="0"></use><g><use xlink:href="#a3lhFDVwm" opacity="1" fill-opacity="0" stroke="#000000" stroke-width="1" stroke-opacity="0"></use></g></g><g><use xlink:href="#dHij4sGEI" opacity="1" fill="#000000" fill-opacity="0"></use><g><use xlink:href="#dHij4sGEI" opacity="1" fill-opacity="0" stroke="#ffffff" stroke-width="4" stroke-opacity="1"></use></g></g><g><use xlink:href="#a9M1ZIiCHq" opacity="1" fill="#8dc541" fill-opacity="1"></use><g><use xlink:href="#a9M1ZIiCHq" opacity="1" fill-opacity="0" stroke="#000000" stroke-width="1" stroke-opacity="0"></use></g></g><g><use xlink:href="#a21ILHrA0B" opacity="1" fill="#000000" fill-opacity="0"></use><g><use xlink:href="#a21ILHrA0B" opacity="1" fill-opacity="0" stroke="#000000" stroke-width="1" stroke-opacity="0"></use></g></g><g><use xlink:href="#exHbCG89u" opacity="1" fill="#000000" fill-opacity="0"></use><g><use xlink:href="#exHbCG89u" opacity="1" fill-opacity="0" stroke="#000000" stroke-width="1" stroke-opacity="0"></use></g></g><g><use xlink:href="#h3NZlS7CWY" opacity="1" fill="#000000" fill-opacity="0"></use><g><use xlink:href="#h3NZlS7CWY" opacity="1" fill-opacity="0" stroke="#ffffff" stroke-width="5" stroke-opacity="1"></use></g></g><g><use xlink:href="#f1lpy0x5uX" opacity="1" fill="#000000" fill-opacity="0"></use><g><use xlink:href="#f1lpy0x5uX" opacity="1" fill-opacity="0" stroke="#000000" stroke-width="1" stroke-opacity="0"></use></g></g><g><use xlink:href="#ba1gnxXuF" opacity="1" fill="#000000" fill-opacity="0"></use><g><use xlink:href="#ba1gnxXuF" opacity="1" fill-opacity="0" stroke="#ffffff" stroke-width="5" stroke-opacity="1"></use></g></g><g><use xlink:href="#b8nAPikQAQ" opacity="1" fill="#000000" fill-opacity="0"></use><g><use xlink:href="#b8nAPikQAQ" opacity="1" fill-opacity="0" stroke="#000000" stroke-width="1" stroke-opacity="0"></use></g></g><g><use xlink:href="#b9VNpowuxx" opacity="1" fill="#000000" fill-opacity="0"></use><g><use xlink:href="#b9VNpowuxx" opacity="1" fill-opacity="0" stroke="#ffffff" stroke-width="5" stroke-opacity="1"></use></g></g><g><use xlink:href="#b2pYDfcHUM" opacity="1" fill="#000000" fill-opacity="0"></use><g><use xlink:href="#b2pYDfcHUM" opacity="1" fill-opacity="0" stroke="#000000" stroke-width="1" stroke-opacity="0"></use></g></g><g><use xlink:href="#cbU2FpSC7" opacity="1" fill="#000000" fill-opacity="0"></use><g><use xlink:href="#cbU2FpSC7" opacity="1" fill-opacity="0" stroke="#ffffff" stroke-width="5" stroke-opacity="1"></use></g></g><g><use xlink:href="#b1O6uAE1HA" opacity="1" fill="#ffffff" fill-opacity="1"></use><g><use xlink:href="#b1O6uAE1HA" opacity="1" fill-opacity="0" stroke="#000000" stroke-width="1" stroke-opacity="0"></use></g></g><g><use xlink:href="#d3O24Tf3QU" opacity="1" fill="#000000" fill-opacity="0"></use><g><use xlink:href="#d3O24Tf3QU" opacity="1" fill-opacity="0" stroke="#ffffff" stroke-width="0.75" stroke-opacity="1"></use></g></g><g><use xlink:href="#cmnfbNEQN" opacity="1" fill="#ffffff" fill-opacity="1"></use><g><use xlink:href="#cmnfbNEQN" opacity="1" fill-opacity="0" stroke="#000000" stroke-width="1" stroke-opacity="0"></use></g></g><g><use xlink:href="#a3p6rzPQC" opacity="1" fill="#000000" fill-opacity="0"></use><g><use xlink:href="#a3p6rzPQC" opacity="1" fill-opacity="0" stroke="#ffffff" stroke-width="0.75" stroke-opacity="1"></use></g></g><g><use xlink:href="#coE2vtA0s" opacity="1" fill="#ffffff" fill-opacity="1"></use><g><use xlink:href="#coE2vtA0s" opacity="1" fill-opacity="0" stroke="#000000" stroke-width="1" stroke-opacity="0"></use></g></g><g><use xlink:href="#c1g9TAdkkH" opacity="1" fill="#000000" fill-opacity="0"></use><g><use xlink:href="#c1g9TAdkkH" opacity="1" fill-opacity="0" stroke="#ffffff" stroke-width="0.75" stroke-opacity="1"></use></g></g></g></g></svg>