<?xml version="1.0" encoding="UTF-8" standalone="no"?>
<!DOCTYPE svg PUBLIC "-//W3C//DTD SVG 1.1//EN" "http://www.w3.org/Graphics/SVG/1.1/DTD/svg11.dtd">
<svg version="1.1" xmlns="http://www.w3.org/2000/svg" xmlns:xlink="http://www.w3.org/1999/xlink" preserveAspectRatio="xMidYMid meet" viewBox="0 0 640 640" width="640" height="640"><defs><path d="M323.01 638.5C147.92 638.5 6 497.19 6 322.89C6 148.57 147.92 7.26 323.01 7.26C498.08 7.26 640 148.57 640 322.89C640 497.19 498.08 638.5 323.01 638.5Z" id="b37neVlZ0I"></path><path d="M323.01 638.5C147.92 638.5 6 497.19 6 322.89C6 148.57 147.92 7.26 323.01 7.26C498.08 7.26 640 148.57 640 322.89C640 497.19 498.08 638.5 323.01 638.5Z" id="baSTYv1N2"></path><path d="M104.64 497.56L104.64 148.21L541.26 148.21L541.26 497.56L104.64 497.56ZM133.28 468.81L512.2 468.81L512.2 235.49L133.28 235.49L133.28 468.81Z" id="eB4GeN85O"></path><path d="M104.64 497.56L104.64 148.21L541.26 148.21L541.26 497.56L104.64 497.56ZM133.28 468.81L512.2 468.81L512.2 235.49L133.28 235.49L133.28 468.81Z" id="a4qUDRVqnm"></path><path d="M512.2 235.6C512.2 375.34 512.2 452.97 512.2 468.5C512.2 468.5 512.2 468.5 512.2 468.5C285.16 468.5 159.02 468.5 133.8 468.5C133.8 468.5 133.8 468.5 133.8 468.5C133.8 328.76 133.8 251.12 133.8 235.6C133.8 235.6 133.8 235.6 133.8 235.6C360.84 235.6 486.98 235.6 512.2 235.6C512.2 235.6 512.2 235.6 512.2 235.6Z" id="a1h8c1NPlD"></path><path d="M512.2 235.6C512.2 375.34 512.2 452.97 512.2 468.5C512.2 468.5 512.2 468.5 512.2 468.5C285.16 468.5 159.02 468.5 133.8 468.5C133.8 468.5 133.8 468.5 133.8 468.5C133.8 328.76 133.8 251.12 133.8 235.6C133.8 235.6 133.8 235.6 133.8 235.6C360.84 235.6 486.98 235.6 512.2 235.6C512.2 235.6 512.2 235.6 512.2 235.6Z" id="b59f8MfC6a"></path><path d="M133.8 429.57L512.2 429.57" id="c1sc9u5g45"></path><path d="M133.8 429.57L512.2 429.57" id="dwXPq6BDB"></path><path d="M133.8 390.75L512.2 390.75" id="bPgluaAa5"></path><path d="M133.8 390.75L512.2 390.75" id="cEk0BSxsL"></path><path d="M133.8 351.94L512.2 351.94" id="faCoeRe8F"></path><path d="M133.8 351.94L512.2 351.94" id="eaUjEKK8o"></path><path d="M133.8 313.13L512.2 313.13" id="fzYIwOgAr"></path><path d="M133.8 313.13L512.2 313.13" id="k3kKLwIDHI"></path><path d="M133.8 274.42L512.2 274.42" id="a78iEkQeWT"></path><path d="M133.8 274.42L512.2 274.42" id="c210v6Rp4i"></path><path d="M449.1 235.6L449.1 468.39" id="k2aLSNozQd"></path><path d="M449.1 235.6L449.1 468.39" id="d32GN5tQBf"></path><path d="M386.11 235.6L386.11 468.39" id="dmlea77xw"></path><path d="M386.11 235.6L386.11 468.39" id="aQoAiC0Ks"></path><path d="M323.01 235.6L323.01 468.39" id="bnH2JhWC5"></path><path d="M323.01 235.6L323.01 468.39" id="b2XDxyEFgw"></path><path d="M259.9 235.6L259.9 468.39" id="b25rCvt3JZ"></path><path d="M259.9 235.6L259.9 468.39" id="aAL3wQBpJ"></path><path d="M196.9 235.6L196.9 468.39" id="bXZwQieNX"></path><path d="M196.9 235.6L196.9 468.39" id="bSLb8ptZR"></path></defs><g><g><g><use xlink:href="#b37neVlZ0I" opacity="1" fill="#89c540" fill-opacity="1"></use><g><use xlink:href="#b37neVlZ0I" opacity="1" fill-opacity="0" stroke="#000000" stroke-width="1" stroke-opacity="0"></use></g></g><g><use xlink:href="#baSTYv1N2" opacity="1" fill="#000000" fill-opacity="0"></use><g><use xlink:href="#baSTYv1N2" opacity="1" fill-opacity="0" stroke="#000000" stroke-width="1" stroke-opacity="0"></use></g></g><g><use xlink:href="#eB4GeN85O" opacity="1" fill="#ffffff" fill-opacity="1"></use><g><use xlink:href="#eB4GeN85O" opacity="1" fill-opacity="0" stroke="#000000" stroke-width="1" stroke-opacity="0"></use></g></g><g><use xlink:href="#a4qUDRVqnm" opacity="1" fill="#000000" fill-opacity="0"></use><g><use xlink:href="#a4qUDRVqnm" opacity="1" fill-opacity="0" stroke="#000000" stroke-width="1" stroke-opacity="0"></use></g></g><g><use xlink:href="#a1h8c1NPlD" opacity="1" fill="#000000" fill-opacity="0"></use><g><use xlink:href="#a1h8c1NPlD" opacity="1" fill-opacity="0" stroke="#000000" stroke-width="1" stroke-opacity="0"></use></g></g><g><use xlink:href="#b59f8MfC6a" opacity="1" fill="#000000" fill-opacity="0"></use><g><use xlink:href="#b59f8MfC6a" opacity="1" fill-opacity="0" stroke="#ffffff" stroke-width="0.26" stroke-opacity="1"></use></g></g><g><use xlink:href="#c1sc9u5g45" opacity="1" fill="#000000" fill-opacity="0"></use><g><use xlink:href="#c1sc9u5g45" opacity="1" fill-opacity="0" stroke="#000000" stroke-width="1" stroke-opacity="0"></use></g></g><g><use xlink:href="#dwXPq6BDB" opacity="1" fill="#000000" fill-opacity="0"></use><g><use xlink:href="#dwXPq6BDB" opacity="1" fill-opacity="0" stroke="#ffffff" stroke-width="4" stroke-opacity="1"></use></g></g><g><use xlink:href="#bPgluaAa5" opacity="1" fill="#000000" fill-opacity="0"></use><g><use xlink:href="#bPgluaAa5" opacity="1" fill-opacity="0" stroke="#000000" stroke-width="1" stroke-opacity="0"></use></g></g><g><use xlink:href="#cEk0BSxsL" opacity="1" fill="#000000" fill-opacity="0"></use><g><use xlink:href="#cEk0BSxsL" opacity="1" fill-opacity="0" stroke="#ffffff" stroke-width="4" stroke-opacity="1"></use></g></g><g><use xlink:href="#faCoeRe8F" opacity="1" fill="#000000" fill-opacity="0"></use><g><use xlink:href="#faCoeRe8F" opacity="1" fill-opacity="0" stroke="#000000" stroke-width="1" stroke-opacity="0"></use></g></g><g><use xlink:href="#eaUjEKK8o" opacity="1" fill="#000000" fill-opacity="0"></use><g><use xlink:href="#eaUjEKK8o" opacity="1" fill-opacity="0" stroke="#ffffff" stroke-width="4" stroke-opacity="1"></use></g></g><g><use xlink:href="#fzYIwOgAr" opacity="1" fill="#000000" fill-opacity="0"></use><g><use xlink:href="#fzYIwOgAr" opacity="1" fill-opacity="0" stroke="#000000" stroke-width="1" stroke-opacity="0"></use></g></g><g><use xlink:href="#k3kKLwIDHI" opacity="1" fill="#000000" fill-opacity="0"></use><g><use xlink:href="#k3kKLwIDHI" opacity="1" fill-opacity="0" stroke="#ffffff" stroke-width="4" stroke-opacity="1"></use></g></g><g><use xlink:href="#a78iEkQeWT" opacity="1" fill="#000000" fill-opacity="0"></use><g><use xlink:href="#a78iEkQeWT" opacity="1" fill-opacity="0" stroke="#000000" stroke-width="1" stroke-opacity="0"></use></g></g><g><use xlink:href="#c210v6Rp4i" opacity="1" fill="#000000" fill-opacity="0"></use><g><use xlink:href="#c210v6Rp4i" opacity="1" fill-opacity="0" stroke="#ffffff" stroke-width="4" stroke-opacity="1"></use></g></g><g><use xlink:href="#k2aLSNozQd" opacity="1" fill="#000000" fill-opacity="0"></use><g><use xlink:href="#k2aLSNozQd" opacity="1" fill-opacity="0" stroke="#000000" stroke-width="1" stroke-opacity="0"></use></g></g><g><use xlink:href="#d32GN5tQBf" opacity="1" fill="#000000" fill-opacity="0"></use><g><use xlink:href="#d32GN5tQBf" opacity="1" fill-opacity="0" stroke="#ffffff" stroke-width="4" stroke-opacity="1"></use></g></g><g><use xlink:href="#dmlea77xw" opacity="1" fill="#000000" fill-opacity="0"></use><g><use xlink:href="#dmlea77xw" opacity="1" fill-opacity="0" stroke="#000000" stroke-width="1" stroke-opacity="0"></use></g></g><g><use xlink:href="#aQoAiC0Ks" opacity="1" fill="#000000" fill-opacity="0"></use><g><use xlink:href="#aQoAiC0Ks" opacity="1" fill-opacity="0" stroke="#ffffff" stroke-width="4" stroke-opacity="1"></use></g></g><g><use xlink:href="#bnH2JhWC5" opacity="1" fill="#000000" fill-opacity="0"></use><g><use xlink:href="#bnH2JhWC5" opacity="1" fill-opacity="0" stroke="#000000" stroke-width="1" stroke-opacity="0"></use></g></g><g><use xlink:href="#b2XDxyEFgw" opacity="1" fill="#000000" fill-opacity="0"></use><g><use xlink:href="#b2XDxyEFgw" opacity="1" fill-opacity="0" stroke="#ffffff" stroke-width="4" stroke-opacity="1"></use></g></g><g><use xlink:href="#b25rCvt3JZ" opacity="1" fill="#000000" fill-opacity="0"></use><g><use xlink:href="#b25rCvt3JZ" opacity="1" fill-opacity="0" stroke="#000000" stroke-width="1" stroke-opacity="0"></use></g></g><g><use xlink:href="#aAL3wQBpJ" opacity="1" fill="#000000" fill-opacity="0"></use><g><use xlink:href="#aAL3wQBpJ" opacity="1" fill-opacity="0" stroke="#ffffff" stroke-width="4" stroke-opacity="1"></use></g></g><g><use xlink:href="#bXZwQieNX" opacity="1" fill="#000000" fill-opacity="0"></use><g><use xlink:href="#bXZwQieNX" opacity="1" fill-opacity="0" stroke="#000000" stroke-width="1" stroke-opacity="0"></use></g></g><g><use xlink:href="#bSLb8ptZR" opacity="1" fill="#000000" fill-opacity="0"></use><g><use xlink:href="#bSLb8ptZR" opacity="1" fill-opacity="0" stroke="#ffffff" stroke-width="4" stroke-opacity="1"></use></g></g></g></g></svg>