<?xml version="1.0" encoding="UTF-8" standalone="no"?>
<!DOCTYPE svg PUBLIC "-//W3C//DTD SVG 1.1//EN" "http://www.w3.org/Graphics/SVG/1.1/DTD/svg11.dtd">
<svg version="1.1" xmlns="http://www.w3.org/2000/svg" xmlns:xlink="http://www.w3.org/1999/xlink" preserveAspectRatio="xMidYMid meet" viewBox="0 0 640 640" width="640" height="640"><defs><path d="M97.92 541.75C220.09 663.93 418.18 663.93 540.36 541.75C662.55 419.57 662.55 221.49 540.36 99.31C418.18 -22.87 220.09 -22.87 97.92 99.31C-24.26 221.49 -24.26 419.57 97.92 541.75Z" id="a35oheHHK8"></path><path d="M97.92 541.75C220.09 663.93 418.18 663.93 540.36 541.75C662.55 419.57 662.55 221.49 540.36 99.31C418.18 -22.87 220.09 -22.87 97.92 99.31C-24.26 221.49 -24.26 419.57 97.92 541.75Z" id="bdyFWYnY2"></path><path d="M323.36 80.38L323.68 80.54L323.84 80.6L324.16 80.76L324.32 80.83L324.63 80.99L324.79 81.05L324.95 81.13L325.13 81.19L325.45 81.35L325.61 81.42L325.93 81.58L326.09 81.64L326.41 81.8L326.57 81.87L326.73 81.95L326.87 82.03L327.51 82.35L327.66 82.43L327.98 82.59L328.12 82.67L328.28 82.75L328.44 82.84L328.58 82.92L345.43 92.54L409.44 129.52L409.87 129.73L410.27 129.95L410.67 130.19L411.07 130.45L411.45 130.7L411.82 130.96L412.19 131.25L412.54 131.53L412.89 131.84L413.23 132.14L413.87 132.78L414.48 133.45L414.76 133.8L415.04 134.17L415.31 134.52L415.56 134.91L415.8 135.28L416.03 135.67L416.25 136.06L416.46 136.46L416.67 136.87L416.84 137.27L417.02 137.69L417.34 138.55L417.59 139.42L417.7 139.85L417.9 140.74L417.98 141.21L418.02 141.65L418.07 142.12L418.12 142.56L418.14 143.03L418.14 143.97L418.1 144.43L418.1 162.5L418.12 162.59L418.14 162.71L418.15 162.8L418.17 162.91L418.18 163.01L418.22 163.11L418.25 163.22L418.34 163.51L418.44 163.7L418.47 163.79L418.54 163.87L418.58 163.97L418.63 164.05L418.7 164.15L418.74 164.23L418.87 164.39L418.95 164.47L419.02 164.55L419.16 164.69L419.24 164.75L419.32 164.83L419.48 164.96L419.58 165.02L419.66 165.07L419.75 165.14L420.13 165.33L422.15 166.48L424.18 167.63L426.19 168.8L428.22 169.95L430.24 171.1L432.27 172.25L434.28 173.42L436.31 174.57L440.34 176.87L442.37 178.04L444.39 179.19L446.42 180.34L448.43 181.49L450.46 182.64L452.47 183.81L454.5 184.96L456.52 186.11L458.55 187.26L460.56 188.41L462.59 189.56L464.61 190.73L466.62 191.88L468.65 193.03L470.67 194.18L472.7 195.33L474.71 196.49L476.74 197.64L478.76 198.79L480.79 199.94L482.8 201.09L484.83 202.24L488.86 204.54L490.89 205.69L492.9 206.84L494.93 207.99L496.95 209.15L498.98 210.28L500.99 211.43L501.46 211.66L501.9 211.88L502.33 212.12L502.77 212.38L503.18 212.65L503.58 212.92L503.98 213.21L504.38 213.51L504.75 213.83L505.13 214.15L505.48 214.47L505.84 214.82L506.17 215.17L506.49 215.52L506.81 215.89L507.11 216.28L507.69 217.04L507.96 217.46L508.22 217.86L508.46 218.27L508.7 218.71L508.92 219.14L509.13 219.57L509.51 220.46L509.67 220.91L509.83 221.38L509.98 221.84L510.1 222.32L510.22 222.78L510.33 223.26L510.41 223.76L510.49 224.24L510.55 224.73L510.61 225.72L510.63 226.22L510.63 226.71L510.61 227.23L510.61 322.04L510.6 322.13L510.6 322.41L510.61 322.49L510.61 322.58L510.63 322.66L510.65 322.76L510.66 322.84L510.68 322.93L510.69 323.01L510.73 323.09L510.74 323.19L510.84 323.43L510.89 323.51L510.92 323.59L510.97 323.67L511.01 323.73L511.06 323.81L511.11 323.88L511.16 323.96L511.21 324.02L511.27 324.08L511.32 324.16L511.45 324.29L511.51 324.34L511.64 324.47L511.72 324.52L511.78 324.56L512.02 324.71L512.09 324.76L512.18 324.8L512.26 324.84L512.6 325.01L512.92 325.2L513.25 325.38L513.59 325.57L513.91 325.75L514.58 326.13L514.9 326.31L515.57 326.69L515.89 326.88L516.23 327.06L516.55 327.25L517.22 327.63L517.54 327.83L517.87 328.02L518.19 328.21L518.53 328.4L519.18 328.78L519.5 328.98L519.84 329.17L520.16 329.36L520.83 329.74L521.15 329.92L521.49 330.11L521.81 330.3L522.48 330.69L522.8 330.88L523.13 331.05L523.45 331.25L523.79 331.44L524.12 331.61L524.46 331.81L524.78 331.98L525.11 332.16L525.45 332.35L525.88 332.56L526.3 332.8L526.71 333.02L527.11 333.28L528.26 334.09L528.62 334.4L528.98 334.7L529.32 335L529.65 335.32L530.29 335.99L530.6 336.35L530.89 336.7L531.17 337.07L531.44 337.43L531.96 338.2L532.2 338.6L532.42 339L532.84 339.83L533.03 340.25L533.2 340.66L533.36 341.09L533.52 341.54L533.67 341.97L533.79 342.42L533.91 342.87L534 343.33L534.1 343.78L534.23 344.71L534.27 345.19L534.31 345.65L534.32 346.13L534.34 346.59L534.31 347.55L534.31 441.31L534.32 441.79L534.32 442.25L534.31 442.73L534.24 443.66L534.19 444.11L534.13 444.57L534.05 445.02L533.95 445.47L533.73 446.36L533.6 446.79L533.46 447.24L533.31 447.66L533.14 448.09L532.96 448.5L532.77 448.92L532.58 449.32L532.37 449.72L532.15 450.12L531.91 450.52L531.67 450.88L531.41 451.27L531.14 451.64L530.87 451.99L530.58 452.34L530.28 452.69L529.97 453.03L529.65 453.36L529.33 453.67L528.98 453.99L528.65 454.29L528.28 454.58L527.93 454.87L527.54 455.14L526.78 455.65L526.38 455.89L525.55 456.34L442.85 503.61L442.5 503.81L442.13 504.02L441.76 504.21L441.03 504.57L440.66 504.73L439.89 505.01L439.51 505.14L439.13 505.25L438.73 505.36L438.34 505.46L437.94 505.54L437.14 505.67L436.34 505.76L435.15 505.81L433.95 505.76L433.15 505.67L432.75 505.6L432.36 505.54L431.96 505.46L431.56 505.36L430.8 505.14L430.41 505.01L429.65 504.73L429.26 504.57L428.53 504.21L428.16 504.02L427.46 503.61L427.06 503.38L426.67 503.16L426.27 502.93L425.51 502.49L425.11 502.26L424.72 502.04L424.32 501.82L423.56 501.37L423.16 501.16L422.39 500.71L421.99 500.49L421.22 500.04L420.82 499.82L420.44 499.61L419.67 499.16L419.27 498.94L418.12 498.27L417.72 498.04L416.19 497.15L415.79 496.92L414.25 496.03L413.87 495.79L413.1 495.34L412.72 495.1L411.95 494.65L411.87 494.59L411.55 494.4L411.47 494.37L411.37 494.33L411.29 494.29L411.2 494.25L411.12 494.24L411.02 494.21L410.94 494.17L410.85 494.16L410.77 494.14L410.58 494.11L410.5 494.11L410.4 494.09L410.03 494.09L409.95 494.11L409.86 494.11L409.76 494.13L409.68 494.14L409.49 494.17L409.41 494.21L409.31 494.24L409.23 494.25L409.14 494.29L409.06 494.33L408.9 494.4L408.8 494.45L408.56 494.59L408.48 494.65L357.37 523.52L325.4 541.91L313.86 541.91L310.1 540.18L229.82 494.16L229.66 494.06L229.6 494.01L229.52 493.97L229.36 493.9L229.28 493.85L229.12 493.79L229.04 493.78L228.94 493.74L228.86 493.73L228.78 493.7L228.7 493.68L228.61 493.66L228.53 493.66L228.45 493.65L228.35 493.65L228.27 493.63L228.1 493.63L228.02 493.65L227.92 493.65L227.84 493.66L227.76 493.66L227.66 493.68L227.58 493.7L227.5 493.73L227.41 493.74L227.33 493.78L227.25 493.79L227.09 493.85L227.01 493.9L226.85 493.97L226.69 494.06L226.63 494.11L226.55 494.16L211.25 503.01L210.88 503.24L210.51 503.45L210.16 503.64L209.78 503.81L209.41 503.99L208.64 504.31L207.49 504.69L206.69 504.89L206.31 504.97L205.91 505.05L205.51 505.11L205.11 505.16L204.69 505.19L204.29 505.22L203.89 505.24L203.09 505.24L202.68 505.22L201.88 505.16L201.48 505.11L201.08 505.05L200.28 504.89L199.88 504.79L199.5 504.69L199.11 504.57L198.71 504.44L198.33 504.31L197.95 504.15L197.58 503.99L197.2 503.81L196.83 503.64L196.46 503.45L196.09 503.24L195.74 503.01L112.09 454.9L111.72 454.69L111.02 454.27L110.68 454.03L110.34 453.81L110.01 453.55L109.69 453.31L109.38 453.04L109.08 452.79L108.22 451.92L107.96 451.64L107.69 451.32L107.45 451.01L107.19 450.69L106.97 450.37L106.52 449.7L106.33 449.35L106.12 449.01L105.95 448.65L105.77 448.3L105.6 447.93L105.44 447.56L105.29 447.19L105.04 446.42L104.81 445.66L104.72 445.26L104.64 444.86L104.57 444.47L104.51 444.06L104.46 443.66L104.43 443.26L104.4 442.84L104.38 442.43L104.38 344.1L104.41 343.68L104.44 343.28L104.49 342.88L104.56 342.47L104.62 342.07L104.7 341.67L104.8 341.29L104.89 340.89L105 340.5L105.26 339.73L105.4 339.37L105.72 338.63L105.9 338.26L106.08 337.91L106.27 337.56L106.48 337.21L106.68 336.87L106.91 336.54L107.63 335.58L107.88 335.27L108.43 334.67L108.71 334.38L109 334.11L109.61 333.56L109.93 333.31L110.25 333.07L110.92 332.59L111.27 332.38L111.62 332.16L111.99 331.97L112.69 331.55L113.03 331.36L113.73 330.94L114.1 330.75L114.45 330.54L114.8 330.35L115.51 329.94L115.87 329.74L116.58 329.33L116.95 329.14L117.3 328.93L117.67 328.74L118.02 328.53L118.37 328.34L118.74 328.13L119.09 327.92L119.44 327.73L119.81 327.52L120.16 327.33L120.51 327.12L120.88 326.93L121.23 326.74L121.58 326.53L121.93 326.34L122.29 326.13L122.64 325.94L122.97 325.73L123.68 325.35L124.01 325.14L124.36 324.95L125.03 324.56L125.37 324.36L126.04 323.97L126.15 323.92L126.35 323.83L126.44 323.76L126.54 323.72L126.62 323.65L126.71 323.59L126.95 323.4L127.11 323.24L127.19 323.17L127.26 323.09L127.32 323L127.51 322.76L127.58 322.66L127.62 322.57L127.67 322.49L127.74 322.39L127.77 322.29L127.86 322.1L127.9 321.99L127.96 321.8L127.99 321.69L128.01 321.59L128.02 321.48L128.06 321.38L128.06 321.27L128.09 321.05L128.09 320.73L128.07 320.62L128.07 225.79L128.06 225.69L128.06 225.5L128.04 225.42L128.04 225.23L128.02 225.15L128.02 224.86L128.01 224.78L128.01 223.13L128.02 223.04L128.02 222.77L128.04 222.67L128.04 222.49L128.06 222.4L128.06 222.21L128.07 222.13L128.15 221.77L128.23 221.41L128.34 221.07L128.44 220.72L128.55 220.38L128.68 220.03L128.81 219.7L128.95 219.38L129.1 219.04L129.24 218.72L129.41 218.4L129.57 218.08L129.93 217.47L130.31 216.87L130.93 216L131.16 215.73L131.4 215.46L131.62 215.19L131.86 214.93L132.37 214.42L132.63 214.18L132.9 213.94L133.16 213.7L133.44 213.48L133.72 213.25L134 213.05L134.31 212.84L134.59 212.65L134.9 212.45L135.22 212.26L135.52 212.09L135.84 211.91L136.16 211.75L136.83 211.43L218.26 164.94L218.38 164.9L218.49 164.83L218.6 164.78L218.79 164.66L218.9 164.59L219 164.51L219.1 164.45L219.18 164.37L219.27 164.29L219.35 164.21L219.45 164.13L219.53 164.03L219.59 163.95L219.75 163.76L219.82 163.68L219.88 163.57L220.01 163.38L220.06 163.28L220.12 163.17L220.17 163.06L220.21 162.96L220.26 162.85L220.42 162.29L220.44 162.16L220.47 162.05L220.49 161.94L220.49 161.81L220.5 161.7L220.5 161.33L220.49 161.22L220.49 144.53L220.45 144.02L220.45 143.03L220.49 142.52L220.52 142.02L220.58 141.53L220.65 141.05L220.73 140.55L220.82 140.07L220.93 139.59L221.06 139.13L221.21 138.66L221.53 137.74L221.91 136.84L222.12 136.41L222.56 135.55L223.08 134.72L223.62 133.92L223.92 133.53L224.23 133.16L224.55 132.8L224.88 132.43L225.22 132.08L225.57 131.74L225.94 131.41L226.31 131.09L226.69 130.78L227.07 130.5L227.49 130.21L228.32 129.66L228.75 129.42L229.2 129.18L229.65 128.96L230.11 128.75L232.99 127.12L234.44 126.32L237.32 124.69L238.77 123.88L241.65 122.25L243.11 121.43L245.98 119.8L247.44 118.99L248.88 118.15L250.32 117.34L251.77 116.52L253.21 115.69L254.65 114.88L256.1 114.06L257.54 113.23L258.98 112.42L260.44 111.6L261.87 110.77L263.31 109.95L266.21 108.31L267.65 107.49L269.1 106.66L271.98 105.03L273.43 104.2L276.31 102.57L277.76 101.74L280.64 100.11L282.1 99.29L283.54 98.46L284.97 97.64L286.43 96.83L287.87 96.01L288.51 95.65L289.15 95.26L289.8 94.88L290.44 94.49L291.11 94.11L291.77 93.71L292.44 93.33L293.78 92.53L297.22 90.53L297.92 90.11L298.63 89.72L299.33 89.3L300.03 88.9L300.75 88.48L301.46 88.07L302.17 87.67L303.61 86.84L304.35 86.42L305.79 85.59L306.52 85.18L307.24 84.78L310.92 82.7L311.65 82.3L313.13 81.47L313.86 81.07L314.6 80.65L315.33 80.25L316.07 79.84L322.24 79.84L323.2 80.32L323.36 80.38ZM418.14 238.56L418.14 239.02L418.1 239.92L418.06 240.38L418.01 240.83L417.96 241.26L417.88 241.71L417.78 242.14L417.69 242.59L417.58 243.02L417.45 243.44L417.32 243.87L417.18 244.28L417.02 244.7L416.67 245.5L416.47 245.9L416.27 246.3L416.04 246.68L415.82 247.05L415.58 247.43L415.34 247.78L415.08 248.15L414.81 248.5L413.95 249.51L413.63 249.83L412.99 250.44L412.65 250.74L412.3 251.01L411.95 251.3L411.21 251.81L410.83 252.07L410.45 252.29L409.65 252.74L327.62 299.71L327.22 299.96L326.84 300.19L326.43 300.41L326.03 300.62L325.61 300.81L324.78 301.16L324.36 301.3L323.93 301.45L323.07 301.7L322.21 301.9L321.76 301.98L321.33 302.06L320.43 302.15L320 302.18L319.55 302.2L318.66 302.2L318.21 302.18L317.78 302.15L316.88 302.06L316.45 301.98L316 301.9L315.14 301.7L314.28 301.45L313.84 301.3L313.43 301.16L312.6 300.81L312.18 300.62L311.78 300.41L311.37 300.19L310.98 299.96L310.58 299.71L228.56 252.74L228.16 252.53L227.78 252.31L227.38 252.07L227.01 251.83L226.27 251.32L225.92 251.04L225.59 250.77L225.25 250.49L224.91 250.18L224.6 249.88L224.29 249.56L224 249.24L223.43 248.57L222.66 247.51L222.42 247.14L222.2 246.76L221.99 246.39L221.78 245.99L221.59 245.61L221.4 245.21L221.22 244.81L221.06 244.39L220.92 244L220.79 243.58L220.66 243.15L220.55 242.73L220.44 242.3L220.36 241.87L220.28 241.42L220.21 240.99L220.12 240.09L220.09 239.2L220.09 238.75L220.1 238.29L220.1 197.86L218.74 198.53L159.07 232.61L158.99 232.65L158.86 232.74L158.78 232.77L158.65 232.87L158.61 232.92L158.54 232.96L158.43 233.08L158.37 233.12L158.27 233.25L158.22 233.3L158.13 233.43L158.09 233.49L158.05 233.56L158.01 233.64L157.97 233.7L157.9 233.83L157.87 233.91L157.84 233.97L157.82 234.05L157.79 234.13L157.77 234.2L157.74 234.36L157.73 234.42L157.71 234.5L157.71 234.58L157.69 234.66L157.69 235.06L157.71 235.14L157.71 306.45L159.84 305.3L195.26 285.08L195.63 284.86L196.01 284.63L196.4 284.42L196.8 284.23L197.18 284.04L197.98 283.72L198.38 283.58L198.79 283.43L199.19 283.3L199.61 283.19L200.02 283.1L200.86 282.94L201.29 282.87L201.7 282.81L202.12 282.78L202.55 282.75L202.97 282.73L203.81 282.73L204.25 282.75L204.66 282.78L205.09 282.81L205.92 282.94L206.75 283.1L207.17 283.19L207.59 283.3L208 283.43L208.4 283.58L208.82 283.72L209.22 283.88L209.6 284.04L210 284.23L210.38 284.42L210.77 284.63L211.53 285.08L294.21 332.35L294.61 332.56L295 332.78L295.38 333.02L295.75 333.26L296.12 333.52L296.47 333.77L296.8 334.04L297.47 334.62L297.79 334.91L298.1 335.21L298.4 335.53L298.69 335.85L298.98 336.19L299.25 336.52L299.51 336.86L299.76 337.21L300 337.58L300.45 338.31L300.66 338.68L300.86 339.06L301.06 339.46L301.23 339.85L301.55 340.65L301.7 341.06L301.95 341.89L302.06 342.31L302.25 343.17L302.38 344.04L302.43 344.47L302.48 344.91L302.49 345.35L302.51 345.79L302.51 346.24L302.49 346.69L302.49 441.21L302.51 441.68L302.51 442.57L302.45 443.47L302.4 443.9L302.33 444.35L302.25 444.78L302.06 445.64L301.95 446.06L301.84 446.49L301.7 446.9L301.55 447.3L301.39 447.72L301.23 448.12L301.04 448.52L300.66 449.29L300.21 450.05L299.98 450.42L299.22 451.48L298.95 451.81L298.66 452.15L298.05 452.79L297.75 453.09L297.43 453.39L296.76 453.97L296.4 454.24L295.67 454.75L295.3 454.99L294.92 455.23L294.52 455.44L294.12 455.66L260.24 474.91L258.41 476.06L259.56 476.85L317.81 510.24L317.87 510.29L317.94 510.32L318 510.37L318.19 510.46L318.27 510.5L318.4 510.56L318.48 510.58L318.54 510.59L318.62 510.62L318.69 510.64L318.77 510.64L318.83 510.66L318.91 510.67L318.98 510.67L319.06 510.69L319.34 510.69L319.42 510.67L319.49 510.67L319.57 510.66L319.63 510.64L319.71 510.64L319.78 510.62L319.86 510.59L319.92 510.58L320 510.56L320.13 510.5L320.21 510.46L320.4 510.37L320.46 510.32L320.53 510.29L320.59 510.24L378.35 477.23L379.99 476.16L378.06 475.01L376.4 474.05L375.55 473.58L373.89 472.63L373.04 472.15L370.55 470.71L369.7 470.23L366.37 468.31L365.53 467.83L363.86 466.87L363.03 466.38L361.37 465.42L360.52 464.94L358.86 463.98L358.03 463.48L356.37 462.52L355.52 462.04L354.69 461.56L353.86 461.07L352.19 460.11L351.35 459.63L350.52 459.15L349.68 458.65L348.84 458.17L348.01 457.69L347.18 457.2L346.34 456.72L345.5 456.24L344.67 455.76L344.23 455.54L343.83 455.31L343.42 455.07L343.03 454.82L342.64 454.55L341.9 454L341.53 453.7L341.18 453.39L340.84 453.09L340.52 452.77L339.89 452.1L339.58 451.75L339.29 451.4L338.75 450.66L338.49 450.29L338.25 449.91L338.02 449.51L337.79 449.11L337.58 448.71L337.38 448.3L337.02 447.46L336.85 447.03L336.56 446.17L336.43 445.72L336.32 445.27L336.13 444.38L336.05 443.91L335.98 443.45L335.94 442.99L335.9 442.52L335.87 441.6L335.9 440.64L335.9 346.88L335.89 346.4L335.87 345.94L335.9 345.01L335.94 344.55L335.98 344.08L336.05 343.62L336.13 343.17L336.21 342.71L336.43 341.81L336.69 340.95L337.01 340.09L337.36 339.26L337.57 338.84L337.78 338.44L338 338.04L338.22 337.66L338.46 337.26L338.72 336.89L339.26 336.15L339.84 335.45L340.14 335.11L340.46 334.78L341.13 334.14L341.47 333.84L341.82 333.55L342.19 333.26L342.95 332.72L343.34 332.46L343.74 332.22L344.15 331.98L344.57 331.77L347.59 330.06L350.6 328.37L353.55 326.69L356.49 325.03L359.37 323.4L362.23 321.77L365.05 320.17L367.81 318.6L370.55 317.05L373.23 315.52L375.87 314.01L378.46 312.54L381 311.09L383.5 309.67L385.92 308.27L388.31 306.9L390.64 305.57L392.91 304.26L395.13 303L397.29 301.77L399.39 300.55L401.42 299.39L403.38 298.25L405.28 297.16L407.12 296.11L408.9 295.09L410.59 294.11L412.22 293.18L413.77 292.29L415.24 291.43L416.65 290.63L417.98 289.86L419.22 289.14L420.39 288.47L421.48 287.84L422.48 287.27L423.4 286.74L424.23 286.26L424.96 285.83L425.62 285.46L426.03 285.21L426.86 284.73L427.3 284.5L428.16 284.12L428.61 283.93L429.05 283.77L429.95 283.48L430.4 283.35L430.86 283.24L431.32 283.14L431.77 283.05L432.7 282.92L433.18 282.87L433.64 282.84L434.11 282.82L435.03 282.82L435.51 282.84L435.98 282.87L436.44 282.92L437.37 283.05L437.83 283.14L438.28 283.24L438.74 283.35L439.19 283.48L439.65 283.62L440.1 283.77L440.53 283.93L440.98 284.12L441.84 284.5L442.28 284.73L443.11 285.21L443.52 285.46L444.39 285.97L445.25 286.47L446.11 286.98L446.96 287.48L447.82 287.97L448.69 288.48L460.77 295.42L461.63 295.9L465.09 297.88L465.97 298.36L470.28 300.84L471.16 301.34L472.03 301.82L475.48 303.8L476.36 304.29L477.22 304.79L478.08 305.3L480.31 306.45L480.31 235.15L480.29 235.06L480.27 234.95L480.26 234.85L480.24 234.74L480.23 234.64L480.19 234.55L480.16 234.44L480.07 234.15L479.97 233.96L479.94 233.86L479.87 233.78L479.83 233.68L479.78 233.6L479.71 233.51L479.65 233.43L479.6 233.35L479.54 233.27L479.46 233.19L479.39 233.11L479.17 232.88L478.93 232.69L478.83 232.63L478.76 232.58L478.66 232.52L478.28 232.33L420.04 198.82L418.1 197.86L418.1 238.1L418.14 238.56ZM451.13 401.07L451.04 401.12L450.92 401.18L450.83 401.23L450.75 401.3L450.56 401.42L450.4 401.58L450.32 401.65L450.25 401.73L450.17 401.82L450.04 401.98L449.98 402.08L449.74 402.56L449.71 402.67L449.68 402.77L449.64 402.88L449.63 402.99L449.6 403.09L449.58 403.2L449.58 403.31L449.56 403.42L449.56 403.65L449.6 403.87L449.6 464.9L451.61 463.85L502.54 434.96L502.64 434.91L502.86 434.79L503.05 434.66L503.15 434.58L503.25 434.52L503.33 434.44L503.42 434.36L503.5 434.26L503.58 434.18L503.65 434.08L503.73 433.99L503.85 433.8L503.9 433.7L503.96 433.59L504.01 433.49L504.06 433.38L504.09 433.27L504.14 433.16L504.2 432.93L504.22 432.82L504.25 432.69L504.27 432.58L504.27 432.47L504.28 432.34L504.28 432.1L504.27 431.97L504.27 371.43L502.64 372.2L451.13 401.07ZM365.24 431.85L365.24 432.12L365.26 432.25L365.27 432.36L365.29 432.49L365.35 432.74L365.38 432.85L365.41 432.98L365.56 433.32L365.69 433.54L365.75 433.64L365.81 433.75L366.05 434.04L366.23 434.21L366.42 434.37L366.53 434.45L366.63 434.53L366.97 434.72L367.09 434.77L417.91 463.66L419.85 464.71L419.85 403.47L419.83 403.37L419.82 403.26L419.77 402.98L419.67 402.69L419.62 402.59L419.59 402.51L419.54 402.42L419.5 402.34L419.43 402.26L419.38 402.18L419.19 401.94L419.13 401.87L419.06 401.79L418.82 401.6L418.74 401.55L418.66 401.49L418.58 401.44L418.39 401.34L418.3 401.31L418.2 401.26L375.57 376.92L365.26 370.94L365.26 431.72L365.24 431.85ZM134.21 371.15L134.21 371.61L134.23 371.64L134.23 432.26L134.29 432.58L134.32 432.66L134.34 432.74L134.4 432.9L134.43 432.96L134.47 433.04L134.5 433.11L134.53 433.19L134.58 433.25L134.61 433.33L134.95 433.78L135.01 433.83L135.06 433.89L135.12 433.94L135.19 434L135.57 434.29L187.17 463.85L188.8 464.62L188.8 404.64L188.82 404.51L188.82 404.11L188.8 403.98L188.8 403.85L188.77 403.73L188.75 403.6L188.72 403.49L188.69 403.36L188.64 403.23L188.55 403.01L188.5 402.88L188.37 402.66L188.31 402.56L188.24 402.45L188.16 402.34L187.92 402.05L187.83 401.97L187.73 401.87L187.54 401.71L187.43 401.63L187.33 401.55L187.22 401.49L187.09 401.42L186.98 401.36L136.35 372.49L134.23 370.96L134.23 371.12L134.21 371.15ZM220.1 401.07L219.99 401.14L219.88 401.18L219.77 401.25L219.58 401.38L219.38 401.54L219.22 401.7L219.13 401.78L219.06 401.87L218.98 401.95L218.92 402.05L218.84 402.14L218.78 402.24L218.73 402.35L218.66 402.45L218.62 402.56L218.57 402.66L218.54 402.77L218.49 402.88L218.42 403.1L218.41 403.23L218.38 403.45L218.36 403.58L218.34 403.69L218.34 403.82L218.36 403.93L218.36 464.62L219.9 463.85L271.59 434.58L271.69 434.53L271.98 434.34L272.14 434.21L272.22 434.13L272.3 434.07L272.38 433.99L272.44 433.91L272.5 433.81L272.63 433.65L272.7 433.56L272.84 433.27L272.87 433.17L272.92 433.08L272.95 432.96L272.98 432.87L273 432.76L273.03 432.66L273.05 432.55L273.05 432.44L273.06 432.34L273.06 432.01L273.05 431.89L273.05 373.26L272.95 371.24L271.02 372.2L220.1 401.07ZM434.47 314.78L434.39 314.78L434.2 314.81L434.11 314.84L434.01 314.86L433.93 314.89L433.83 314.92L433.74 314.97L433.66 315L433.58 315.05L433.48 315.1L433.4 315.15L433.32 315.21L381.91 344.67L380.67 345.54L381.43 346.11L433.71 376.05L434.03 376.25L434.35 376.37L434.44 376.39L434.52 376.42L434.62 376.44L434.7 376.45L434.78 376.45L434.87 376.47L435.15 376.47L435.23 376.45L435.32 376.45L435.48 376.42L435.58 376.39L435.66 376.37L435.74 376.34L435.83 376.31L435.99 376.25L436.31 376.05L473.08 355.07L489.07 345.73L487.99 344.96L436.12 315.21L436.02 315.15L435.86 315.05L435.77 315L435.69 314.97L435.59 314.92L435.51 314.89L435.42 314.86L435.32 314.84L435.24 314.81L435.05 314.78L434.95 314.78L434.86 314.76L434.57 314.76L434.47 314.78ZM203.35 314.88L203.25 314.88L203.06 314.91L202.98 314.94L202.89 314.96L202.79 314.99L202.71 315.02L202.61 315.07L202.53 315.1L202.44 315.15L202.28 315.24L202.18 315.31L156.08 341.3L149.24 345.54L150.02 346.11L202.49 376.05L202.55 376.09L202.63 376.12L202.71 376.13L202.77 376.17L202.85 376.2L203.25 376.28L203.32 376.29L203.4 376.29L203.48 376.31L203.88 376.31L203.96 376.29L204.04 376.29L204.44 376.21L204.5 376.2L204.66 376.13L204.74 376.12L204.8 376.09L204.88 376.05L256.39 346.69L257.83 345.73L257.06 345.15L204.98 315.31L204.9 315.24L204.82 315.2L204.72 315.15L204.64 315.1L204.56 315.07L204.47 315.02L204.37 314.99L204.29 314.96L204.2 314.94L204.1 314.91L203.91 314.88L203.83 314.88L203.73 314.86L203.45 314.86L203.35 314.88ZM335.52 198.34L335.43 198.39L335.33 198.45L335.23 198.5L335.14 198.56L335.06 198.63L334.96 198.69L334.88 198.76L334.66 198.98L334.53 199.14L334.47 199.23L334.4 199.31L334.34 199.41L334.29 199.49L334.19 199.68L334.16 199.78L334.11 199.87L334.08 199.99L334.05 200.08L334.03 200.18L334.02 200.29L333.99 200.39L333.99 200.5L333.97 200.61L333.97 259.76L333.87 261.98L335.71 261.02L386.82 232.13L386.93 232.09L387.04 232.02L387.14 231.96L387.25 231.89L387.35 231.83L387.44 231.75L387.54 231.69L387.7 231.53L387.78 231.43L387.86 231.35L387.94 231.25L388.19 230.87L388.24 230.76L388.31 230.66L388.35 230.55L388.39 230.44L388.43 230.33L388.5 230.1L388.51 229.99L388.53 229.86L388.56 229.64L388.56 168.61L386.82 169.47L335.52 198.34ZM249.72 228.79L249.72 229.19L249.74 229.32L249.76 229.43L249.77 229.56L249.8 229.69L249.82 229.82L249.87 229.93L249.9 230.06L250.04 230.39L250.17 230.61L250.24 230.71L250.3 230.82L250.54 231.11L250.72 231.29L250.91 231.45L251.02 231.53L251.12 231.61L251.45 231.8L251.58 231.85L302.49 260.72L304.33 261.6L304.33 200.43L304.32 200.31L304.3 200.19L304.3 200.08L304.27 199.97L304.25 199.86L304.22 199.76L304.2 199.65L304.16 199.57L304.09 199.38L303.95 199.14L303.89 199.07L303.82 198.99L303.77 198.93L303.71 198.85L303.63 198.79L303.57 198.74L303.41 198.61L303.33 198.56L303.25 198.5L303.17 198.45L303.07 198.4L302.99 198.34L302.7 198.2L302.59 198.15L260.34 173.99L249.74 168.01L249.74 228.66L249.72 228.79ZM318.83 111.81L318.74 111.81L318.62 111.82L318.51 111.86L318.42 111.87L318.3 111.9L318.21 111.94L318.1 111.97L317.9 112.06L317.79 112.11L317.7 112.16L317.6 112.22L317.52 112.29L282.48 132.4L264.77 142.61L265.63 143.28L317.9 173.23L317.98 173.27L318.05 173.32L318.13 173.35L318.21 173.4L318.3 173.43L318.54 173.53L318.64 173.55L318.72 173.58L318.8 173.59L318.9 173.59L318.98 173.61L319.07 173.61L319.15 173.63L319.25 173.63L319.33 173.61L319.42 173.61L319.5 173.59L319.6 173.59L319.68 173.58L319.76 173.55L319.86 173.53L320.09 173.43L320.19 173.4L320.27 173.35L320.35 173.32L320.43 173.27L320.49 173.23L371.62 144.34L373.25 143.28L372.1 142.52L320.69 112.29L320.61 112.22L320.51 112.16L320.4 112.11L320.11 111.97L320 111.94L319.9 111.9L319.79 111.87L319.7 111.86L319.58 111.82L319.47 111.81L319.38 111.81L319.26 111.79L318.94 111.79L318.83 111.81Z" id="arzgguNfK"></path><path d="M323.36 80.38L323.68 80.54L323.84 80.6L324.16 80.76L324.32 80.83L324.63 80.99L324.79 81.05L324.95 81.13L325.13 81.19L325.45 81.35L325.61 81.42L325.93 81.58L326.09 81.64L326.41 81.8L326.57 81.87L326.73 81.95L326.87 82.03L327.51 82.35L327.66 82.43L327.98 82.59L328.12 82.67L328.28 82.75L328.44 82.84L328.58 82.92L345.43 92.54L409.44 129.52L409.87 129.73L410.27 129.95L410.67 130.19L411.07 130.45L411.45 130.7L411.82 130.96L412.19 131.25L412.54 131.53L412.89 131.84L413.23 132.14L413.87 132.78L414.48 133.45L414.76 133.8L415.04 134.17L415.31 134.52L415.56 134.91L415.8 135.28L416.03 135.67L416.25 136.06L416.46 136.46L416.67 136.87L416.84 137.27L417.02 137.69L417.34 138.55L417.59 139.42L417.7 139.85L417.9 140.74L417.98 141.21L418.02 141.65L418.07 142.12L418.12 142.56L418.14 143.03L418.14 143.97L418.1 144.43L418.1 162.5L418.12 162.59L418.14 162.71L418.15 162.8L418.17 162.91L418.18 163.01L418.22 163.11L418.25 163.22L418.34 163.51L418.44 163.7L418.47 163.79L418.54 163.87L418.58 163.97L418.63 164.05L418.7 164.15L418.74 164.23L418.87 164.39L418.95 164.47L419.02 164.55L419.16 164.69L419.24 164.75L419.32 164.83L419.48 164.96L419.58 165.02L419.66 165.07L419.75 165.14L420.13 165.33L422.15 166.48L424.18 167.63L426.19 168.8L428.22 169.95L430.24 171.1L432.27 172.25L434.28 173.42L436.31 174.57L440.34 176.87L442.37 178.04L444.39 179.19L446.42 180.34L448.43 181.49L450.46 182.64L452.47 183.81L454.5 184.96L456.52 186.11L458.55 187.26L460.56 188.41L462.59 189.56L464.61 190.73L466.62 191.88L468.65 193.03L470.67 194.18L472.7 195.33L474.71 196.49L476.74 197.64L478.76 198.79L480.79 199.94L482.8 201.09L484.83 202.24L488.86 204.54L490.89 205.69L492.9 206.84L494.93 207.99L496.95 209.15L498.98 210.28L500.99 211.43L501.46 211.66L501.9 211.88L502.33 212.12L502.77 212.38L503.18 212.65L503.58 212.92L503.98 213.21L504.38 213.51L504.75 213.83L505.13 214.15L505.48 214.47L505.84 214.82L506.17 215.17L506.49 215.52L506.81 215.89L507.11 216.28L507.69 217.04L507.96 217.46L508.22 217.86L508.46 218.27L508.7 218.71L508.92 219.14L509.13 219.57L509.51 220.46L509.67 220.91L509.83 221.38L509.98 221.84L510.1 222.32L510.22 222.78L510.33 223.26L510.41 223.76L510.49 224.24L510.55 224.73L510.61 225.72L510.63 226.22L510.63 226.71L510.61 227.23L510.61 322.04L510.6 322.13L510.6 322.41L510.61 322.49L510.61 322.58L510.63 322.66L510.65 322.76L510.66 322.84L510.68 322.93L510.69 323.01L510.73 323.09L510.74 323.19L510.84 323.43L510.89 323.51L510.92 323.59L510.97 323.67L511.01 323.73L511.06 323.81L511.11 323.88L511.16 323.96L511.21 324.02L511.27 324.08L511.32 324.16L511.45 324.29L511.51 324.34L511.64 324.47L511.72 324.52L511.78 324.56L512.02 324.71L512.09 324.76L512.18 324.8L512.26 324.84L512.6 325.01L512.92 325.2L513.25 325.38L513.59 325.57L513.91 325.75L514.58 326.13L514.9 326.31L515.57 326.69L515.89 326.88L516.23 327.06L516.55 327.25L517.22 327.63L517.54 327.83L517.87 328.02L518.19 328.21L518.53 328.4L519.18 328.78L519.5 328.98L519.84 329.17L520.16 329.36L520.83 329.74L521.15 329.92L521.49 330.11L521.81 330.3L522.48 330.69L522.8 330.88L523.13 331.05L523.45 331.25L523.79 331.44L524.12 331.61L524.46 331.81L524.78 331.98L525.11 332.16L525.45 332.35L525.88 332.56L526.3 332.8L526.71 333.02L527.11 333.28L528.26 334.09L528.62 334.4L528.98 334.7L529.32 335L529.65 335.32L530.29 335.99L530.6 336.35L530.89 336.7L531.17 337.07L531.44 337.43L531.96 338.2L532.2 338.6L532.42 339L532.84 339.83L533.03 340.25L533.2 340.66L533.36 341.09L533.52 341.54L533.67 341.97L533.79 342.42L533.91 342.87L534 343.33L534.1 343.78L534.23 344.71L534.27 345.19L534.31 345.65L534.32 346.13L534.34 346.59L534.31 347.55L534.31 441.31L534.32 441.79L534.32 442.25L534.31 442.73L534.24 443.66L534.19 444.11L534.13 444.57L534.05 445.02L533.95 445.47L533.73 446.36L533.6 446.79L533.46 447.24L533.31 447.66L533.14 448.09L532.96 448.5L532.77 448.92L532.58 449.32L532.37 449.72L532.15 450.12L531.91 450.52L531.67 450.88L531.41 451.27L531.14 451.64L530.87 451.99L530.58 452.34L530.28 452.69L529.97 453.03L529.65 453.36L529.33 453.67L528.98 453.99L528.65 454.29L528.28 454.58L527.93 454.87L527.54 455.14L526.78 455.65L526.38 455.89L525.55 456.34L442.85 503.61L442.5 503.81L442.13 504.02L441.76 504.21L441.03 504.57L440.66 504.73L439.89 505.01L439.51 505.14L439.13 505.25L438.73 505.36L438.34 505.46L437.94 505.54L437.14 505.67L436.34 505.76L435.15 505.81L433.95 505.76L433.15 505.67L432.75 505.6L432.36 505.54L431.96 505.46L431.56 505.36L430.8 505.14L430.41 505.01L429.65 504.73L429.26 504.57L428.53 504.21L428.16 504.02L427.46 503.61L427.06 503.38L426.67 503.16L426.27 502.93L425.51 502.49L425.11 502.26L424.72 502.04L424.32 501.82L423.56 501.37L423.16 501.16L422.39 500.71L421.99 500.49L421.22 500.04L420.82 499.82L420.44 499.61L419.67 499.16L419.27 498.94L418.12 498.27L417.72 498.04L416.19 497.15L415.79 496.92L414.25 496.03L413.87 495.79L413.1 495.34L412.72 495.1L411.95 494.65L411.87 494.59L411.55 494.4L411.47 494.37L411.37 494.33L411.29 494.29L411.2 494.25L411.12 494.24L411.02 494.21L410.94 494.17L410.85 494.16L410.77 494.14L410.58 494.11L410.5 494.11L410.4 494.09L410.03 494.09L409.95 494.11L409.86 494.11L409.76 494.13L409.68 494.14L409.49 494.17L409.41 494.21L409.31 494.24L409.23 494.25L409.14 494.29L409.06 494.33L408.9 494.4L408.8 494.45L408.56 494.59L408.48 494.65L357.37 523.52L325.4 541.91L313.86 541.91L310.1 540.18L229.82 494.16L229.66 494.06L229.6 494.01L229.52 493.97L229.36 493.9L229.28 493.85L229.12 493.79L229.04 493.78L228.94 493.74L228.86 493.73L228.78 493.7L228.7 493.68L228.61 493.66L228.53 493.66L228.45 493.65L228.35 493.65L228.27 493.63L228.1 493.63L228.02 493.65L227.92 493.65L227.84 493.66L227.76 493.66L227.66 493.68L227.58 493.7L227.5 493.73L227.41 493.74L227.33 493.78L227.25 493.79L227.09 493.85L227.01 493.9L226.85 493.97L226.69 494.06L226.63 494.11L226.55 494.16L211.25 503.01L210.88 503.24L210.51 503.45L210.16 503.64L209.78 503.81L209.41 503.99L208.64 504.31L207.49 504.69L206.69 504.89L206.31 504.97L205.91 505.05L205.51 505.11L205.11 505.16L204.69 505.19L204.29 505.22L203.89 505.24L203.09 505.24L202.68 505.22L201.88 505.16L201.48 505.11L201.08 505.05L200.28 504.89L199.88 504.79L199.5 504.69L199.11 504.57L198.71 504.44L198.33 504.31L197.95 504.15L197.58 503.99L197.2 503.81L196.83 503.64L196.46 503.45L196.09 503.24L195.74 503.01L112.09 454.9L111.72 454.69L111.02 454.27L110.68 454.03L110.34 453.81L110.01 453.55L109.69 453.31L109.38 453.04L109.08 452.79L108.22 451.92L107.96 451.64L107.69 451.32L107.45 451.01L107.19 450.69L106.97 450.37L106.52 449.7L106.33 449.35L106.12 449.01L105.95 448.65L105.77 448.3L105.6 447.93L105.44 447.56L105.29 447.19L105.04 446.42L104.81 445.66L104.72 445.26L104.64 444.86L104.57 444.47L104.51 444.06L104.46 443.66L104.43 443.26L104.4 442.84L104.38 442.43L104.38 344.1L104.41 343.68L104.44 343.28L104.49 342.88L104.56 342.47L104.62 342.07L104.7 341.67L104.8 341.29L104.89 340.89L105 340.5L105.26 339.73L105.4 339.37L105.72 338.63L105.9 338.26L106.08 337.91L106.27 337.56L106.48 337.21L106.68 336.87L106.91 336.54L107.63 335.58L107.88 335.27L108.43 334.67L108.71 334.38L109 334.11L109.61 333.56L109.93 333.31L110.25 333.07L110.92 332.59L111.27 332.38L111.62 332.16L111.99 331.97L112.69 331.55L113.03 331.36L113.73 330.94L114.1 330.75L114.45 330.54L114.8 330.35L115.51 329.94L115.87 329.74L116.58 329.33L116.95 329.14L117.3 328.93L117.67 328.74L118.02 328.53L118.37 328.34L118.74 328.13L119.09 327.92L119.44 327.73L119.81 327.52L120.16 327.33L120.51 327.12L120.88 326.93L121.23 326.74L121.58 326.53L121.93 326.34L122.29 326.13L122.64 325.94L122.97 325.73L123.68 325.35L124.01 325.14L124.36 324.95L125.03 324.56L125.37 324.36L126.04 323.97L126.15 323.92L126.35 323.83L126.44 323.76L126.54 323.72L126.62 323.65L126.71 323.59L126.95 323.4L127.11 323.24L127.19 323.17L127.26 323.09L127.32 323L127.51 322.76L127.58 322.66L127.62 322.57L127.67 322.49L127.74 322.39L127.77 322.29L127.86 322.1L127.9 321.99L127.96 321.8L127.99 321.69L128.01 321.59L128.02 321.48L128.06 321.38L128.06 321.27L128.09 321.05L128.09 320.73L128.07 320.62L128.07 225.79L128.06 225.69L128.06 225.5L128.04 225.42L128.04 225.23L128.02 225.15L128.02 224.86L128.01 224.78L128.01 223.13L128.02 223.04L128.02 222.77L128.04 222.67L128.04 222.49L128.06 222.4L128.06 222.21L128.07 222.13L128.15 221.77L128.23 221.41L128.34 221.07L128.44 220.72L128.55 220.38L128.68 220.03L128.81 219.7L128.95 219.38L129.1 219.04L129.24 218.72L129.41 218.4L129.57 218.08L129.93 217.47L130.31 216.87L130.93 216L131.16 215.73L131.4 215.46L131.62 215.19L131.86 214.93L132.37 214.42L132.63 214.18L132.9 213.94L133.16 213.7L133.44 213.48L133.72 213.25L134 213.05L134.31 212.84L134.59 212.65L134.9 212.45L135.22 212.26L135.52 212.09L135.84 211.91L136.16 211.75L136.83 211.43L218.26 164.94L218.38 164.9L218.49 164.83L218.6 164.78L218.79 164.66L218.9 164.59L219 164.51L219.1 164.45L219.18 164.37L219.27 164.29L219.35 164.21L219.45 164.13L219.53 164.03L219.59 163.95L219.75 163.76L219.82 163.68L219.88 163.57L220.01 163.38L220.06 163.28L220.12 163.17L220.17 163.06L220.21 162.96L220.26 162.85L220.42 162.29L220.44 162.16L220.47 162.05L220.49 161.94L220.49 161.81L220.5 161.7L220.5 161.33L220.49 161.22L220.49 144.53L220.45 144.02L220.45 143.03L220.49 142.52L220.52 142.02L220.58 141.53L220.65 141.05L220.73 140.55L220.82 140.07L220.93 139.59L221.06 139.13L221.21 138.66L221.53 137.74L221.91 136.84L222.12 136.41L222.56 135.55L223.08 134.72L223.62 133.92L223.92 133.53L224.23 133.16L224.55 132.8L224.88 132.43L225.22 132.08L225.57 131.74L225.94 131.41L226.31 131.09L226.69 130.78L227.07 130.5L227.49 130.21L228.32 129.66L228.75 129.42L229.2 129.18L229.65 128.96L230.11 128.75L232.99 127.12L234.44 126.32L237.32 124.69L238.77 123.88L241.65 122.25L243.11 121.43L245.98 119.8L247.44 118.99L248.88 118.15L250.32 117.34L251.77 116.52L253.21 115.69L254.65 114.88L256.1 114.06L257.54 113.23L258.98 112.42L260.44 111.6L261.87 110.77L263.31 109.95L266.21 108.31L267.65 107.49L269.1 106.66L271.98 105.03L273.43 104.2L276.31 102.57L277.76 101.74L280.64 100.11L282.1 99.29L283.54 98.46L284.97 97.64L286.43 96.83L287.87 96.01L288.51 95.65L289.15 95.26L289.8 94.88L290.44 94.49L291.11 94.11L291.77 93.71L292.44 93.33L293.78 92.53L297.22 90.53L297.92 90.11L298.63 89.72L299.33 89.3L300.03 88.9L300.75 88.48L301.46 88.07L302.17 87.67L303.61 86.84L304.35 86.42L305.79 85.59L306.52 85.18L307.24 84.78L310.92 82.7L311.65 82.3L313.13 81.47L313.86 81.07L314.6 80.65L315.33 80.25L316.07 79.84L322.24 79.84L323.2 80.32L323.36 80.38ZM418.14 238.56L418.14 239.02L418.1 239.92L418.06 240.38L418.01 240.83L417.96 241.26L417.88 241.71L417.78 242.14L417.69 242.59L417.58 243.02L417.45 243.44L417.32 243.87L417.18 244.28L417.02 244.7L416.67 245.5L416.47 245.9L416.27 246.3L416.04 246.68L415.82 247.05L415.58 247.43L415.34 247.78L415.08 248.15L414.81 248.5L413.95 249.51L413.63 249.83L412.99 250.44L412.65 250.74L412.3 251.01L411.95 251.3L411.21 251.81L410.83 252.07L410.45 252.29L409.65 252.74L327.62 299.71L327.22 299.96L326.84 300.19L326.43 300.41L326.03 300.62L325.61 300.81L324.78 301.16L324.36 301.3L323.93 301.45L323.07 301.7L322.21 301.9L321.76 301.98L321.33 302.06L320.43 302.15L320 302.18L319.55 302.2L318.66 302.2L318.21 302.18L317.78 302.15L316.88 302.06L316.45 301.98L316 301.9L315.14 301.7L314.28 301.45L313.84 301.3L313.43 301.16L312.6 300.81L312.18 300.62L311.78 300.41L311.37 300.19L310.98 299.96L310.58 299.71L228.56 252.74L228.16 252.53L227.78 252.31L227.38 252.07L227.01 251.83L226.27 251.32L225.92 251.04L225.59 250.77L225.25 250.49L224.91 250.18L224.6 249.88L224.29 249.56L224 249.24L223.43 248.57L222.66 247.51L222.42 247.14L222.2 246.76L221.99 246.39L221.78 245.99L221.59 245.61L221.4 245.21L221.22 244.81L221.06 244.39L220.92 244L220.79 243.58L220.66 243.15L220.55 242.73L220.44 242.3L220.36 241.87L220.28 241.42L220.21 240.99L220.12 240.09L220.09 239.2L220.09 238.75L220.1 238.29L220.1 197.86L218.74 198.53L159.07 232.61L158.99 232.65L158.86 232.74L158.78 232.77L158.65 232.87L158.61 232.92L158.54 232.96L158.43 233.08L158.37 233.12L158.27 233.25L158.22 233.3L158.13 233.43L158.09 233.49L158.05 233.56L158.01 233.64L157.97 233.7L157.9 233.83L157.87 233.91L157.84 233.97L157.82 234.05L157.79 234.13L157.77 234.2L157.74 234.36L157.73 234.42L157.71 234.5L157.71 234.58L157.69 234.66L157.69 235.06L157.71 235.14L157.71 306.45L159.84 305.3L195.26 285.08L195.63 284.86L196.01 284.63L196.4 284.42L196.8 284.23L197.18 284.04L197.98 283.72L198.38 283.58L198.79 283.43L199.19 283.3L199.61 283.19L200.02 283.1L200.86 282.94L201.29 282.87L201.7 282.81L202.12 282.78L202.55 282.75L202.97 282.73L203.81 282.73L204.25 282.75L204.66 282.78L205.09 282.81L205.92 282.94L206.75 283.1L207.17 283.19L207.59 283.3L208 283.43L208.4 283.58L208.82 283.72L209.22 283.88L209.6 284.04L210 284.23L210.38 284.42L210.77 284.63L211.53 285.08L294.21 332.35L294.61 332.56L295 332.78L295.38 333.02L295.75 333.26L296.12 333.52L296.47 333.77L296.8 334.04L297.47 334.62L297.79 334.91L298.1 335.21L298.4 335.53L298.69 335.85L298.98 336.19L299.25 336.52L299.51 336.86L299.76 337.21L300 337.58L300.45 338.31L300.66 338.68L300.86 339.06L301.06 339.46L301.23 339.85L301.55 340.65L301.7 341.06L301.95 341.89L302.06 342.31L302.25 343.17L302.38 344.04L302.43 344.47L302.48 344.91L302.49 345.35L302.51 345.79L302.51 346.24L302.49 346.69L302.49 441.21L302.51 441.68L302.51 442.57L302.45 443.47L302.4 443.9L302.33 444.35L302.25 444.78L302.06 445.64L301.95 446.06L301.84 446.49L301.7 446.9L301.55 447.3L301.39 447.72L301.23 448.12L301.04 448.52L300.66 449.29L300.21 450.05L299.98 450.42L299.22 451.48L298.95 451.81L298.66 452.15L298.05 452.79L297.75 453.09L297.43 453.39L296.76 453.97L296.4 454.24L295.67 454.75L295.3 454.99L294.92 455.23L294.52 455.44L294.12 455.66L260.24 474.91L258.41 476.06L259.56 476.85L317.81 510.24L317.87 510.29L317.94 510.32L318 510.37L318.19 510.46L318.27 510.5L318.4 510.56L318.48 510.58L318.54 510.59L318.62 510.62L318.69 510.64L318.77 510.64L318.83 510.66L318.91 510.67L318.98 510.67L319.06 510.69L319.34 510.69L319.42 510.67L319.49 510.67L319.57 510.66L319.63 510.64L319.71 510.64L319.78 510.62L319.86 510.59L319.92 510.58L320 510.56L320.13 510.5L320.21 510.46L320.4 510.37L320.46 510.32L320.53 510.29L320.59 510.24L378.35 477.23L379.99 476.16L378.06 475.01L376.4 474.05L375.55 473.58L373.89 472.63L373.04 472.15L370.55 470.71L369.7 470.23L366.37 468.31L365.53 467.83L363.86 466.87L363.03 466.38L361.37 465.42L360.52 464.94L358.86 463.98L358.03 463.48L356.37 462.52L355.52 462.04L354.69 461.56L353.86 461.07L352.19 460.11L351.35 459.63L350.52 459.15L349.68 458.65L348.84 458.17L348.01 457.69L347.18 457.2L346.34 456.72L345.5 456.24L344.67 455.76L344.23 455.54L343.83 455.31L343.42 455.07L343.03 454.82L342.64 454.55L341.9 454L341.53 453.7L341.18 453.39L340.84 453.09L340.52 452.77L339.89 452.1L339.58 451.75L339.29 451.4L338.75 450.66L338.49 450.29L338.25 449.91L338.02 449.51L337.79 449.11L337.58 448.71L337.38 448.3L337.02 447.46L336.85 447.03L336.56 446.17L336.43 445.72L336.32 445.27L336.13 444.38L336.05 443.91L335.98 443.45L335.94 442.99L335.9 442.52L335.87 441.6L335.9 440.64L335.9 346.88L335.89 346.4L335.87 345.94L335.9 345.01L335.94 344.55L335.98 344.08L336.05 343.62L336.13 343.17L336.21 342.71L336.43 341.81L336.69 340.95L337.01 340.09L337.36 339.26L337.57 338.84L337.78 338.44L338 338.04L338.22 337.66L338.46 337.26L338.72 336.89L339.26 336.15L339.84 335.45L340.14 335.11L340.46 334.78L341.13 334.14L341.47 333.84L341.82 333.55L342.19 333.26L342.95 332.72L343.34 332.46L343.74 332.22L344.15 331.98L344.57 331.77L347.59 330.06L350.6 328.37L353.55 326.69L356.49 325.03L359.37 323.4L362.23 321.77L365.05 320.17L367.81 318.6L370.55 317.05L373.23 315.52L375.87 314.01L378.46 312.54L381 311.09L383.5 309.67L385.92 308.27L388.31 306.9L390.64 305.57L392.91 304.26L395.13 303L397.29 301.77L399.39 300.55L401.42 299.39L403.38 298.25L405.28 297.16L407.12 296.11L408.9 295.09L410.59 294.11L412.22 293.18L413.77 292.29L415.24 291.43L416.65 290.63L417.98 289.86L419.22 289.14L420.39 288.47L421.48 287.84L422.48 287.27L423.4 286.74L424.23 286.26L424.96 285.83L425.62 285.46L426.03 285.21L426.86 284.73L427.3 284.5L428.16 284.12L428.61 283.93L429.05 283.77L429.95 283.48L430.4 283.35L430.86 283.24L431.32 283.14L431.77 283.05L432.7 282.92L433.18 282.87L433.64 282.84L434.11 282.82L435.03 282.82L435.51 282.84L435.98 282.87L436.44 282.92L437.37 283.05L437.83 283.14L438.28 283.24L438.74 283.35L439.19 283.48L439.65 283.62L440.1 283.77L440.53 283.93L440.98 284.12L441.84 284.5L442.28 284.73L443.11 285.21L443.52 285.46L444.39 285.97L445.25 286.47L446.11 286.98L446.96 287.48L447.82 287.97L448.69 288.48L460.77 295.42L461.63 295.9L465.09 297.88L465.97 298.36L470.28 300.84L471.16 301.34L472.03 301.82L475.48 303.8L476.36 304.29L477.22 304.79L478.08 305.3L480.31 306.45L480.31 235.15L480.29 235.06L480.27 234.95L480.26 234.85L480.24 234.74L480.23 234.64L480.19 234.55L480.16 234.44L480.07 234.15L479.97 233.96L479.94 233.86L479.87 233.78L479.83 233.68L479.78 233.6L479.71 233.51L479.65 233.43L479.6 233.35L479.54 233.27L479.46 233.19L479.39 233.11L479.17 232.88L478.93 232.69L478.83 232.63L478.76 232.58L478.66 232.52L478.28 232.33L420.04 198.82L418.1 197.86L418.1 238.1L418.14 238.56ZM451.13 401.07L451.04 401.12L450.92 401.18L450.83 401.23L450.75 401.3L450.56 401.42L450.4 401.58L450.32 401.65L450.25 401.73L450.17 401.82L450.04 401.98L449.98 402.08L449.74 402.56L449.71 402.67L449.68 402.77L449.64 402.88L449.63 402.99L449.6 403.09L449.58 403.2L449.58 403.31L449.56 403.42L449.56 403.65L449.6 403.87L449.6 464.9L451.61 463.85L502.54 434.96L502.64 434.91L502.86 434.79L503.05 434.66L503.15 434.58L503.25 434.52L503.33 434.44L503.42 434.36L503.5 434.26L503.58 434.18L503.65 434.08L503.73 433.99L503.85 433.8L503.9 433.7L503.96 433.59L504.01 433.49L504.06 433.38L504.09 433.27L504.14 433.16L504.2 432.93L504.22 432.82L504.25 432.69L504.27 432.58L504.27 432.47L504.28 432.34L504.28 432.1L504.27 431.97L504.27 371.43L502.64 372.2L451.13 401.07ZM365.24 431.85L365.24 432.12L365.26 432.25L365.27 432.36L365.29 432.49L365.35 432.74L365.38 432.85L365.41 432.98L365.56 433.32L365.69 433.54L365.75 433.64L365.81 433.75L366.05 434.04L366.23 434.21L366.42 434.37L366.53 434.45L366.63 434.53L366.97 434.72L367.09 434.77L417.91 463.66L419.85 464.71L419.85 403.47L419.83 403.37L419.82 403.26L419.77 402.98L419.67 402.69L419.62 402.59L419.59 402.51L419.54 402.42L419.5 402.34L419.43 402.26L419.38 402.18L419.19 401.94L419.13 401.87L419.06 401.79L418.82 401.6L418.74 401.55L418.66 401.49L418.58 401.44L418.39 401.34L418.3 401.31L418.2 401.26L375.57 376.92L365.26 370.94L365.26 431.72L365.24 431.85ZM134.21 371.15L134.21 371.61L134.23 371.64L134.23 432.26L134.29 432.58L134.32 432.66L134.34 432.74L134.4 432.9L134.43 432.96L134.47 433.04L134.5 433.11L134.53 433.19L134.58 433.25L134.61 433.33L134.95 433.78L135.01 433.83L135.06 433.89L135.12 433.94L135.19 434L135.57 434.29L187.17 463.85L188.8 464.62L188.8 404.64L188.82 404.51L188.82 404.11L188.8 403.98L188.8 403.85L188.77 403.73L188.75 403.6L188.72 403.49L188.69 403.36L188.64 403.23L188.55 403.01L188.5 402.88L188.37 402.66L188.31 402.56L188.24 402.45L188.16 402.34L187.92 402.05L187.83 401.97L187.73 401.87L187.54 401.71L187.43 401.63L187.33 401.55L187.22 401.49L187.09 401.42L186.98 401.36L136.35 372.49L134.23 370.96L134.23 371.12L134.21 371.15ZM220.1 401.07L219.99 401.14L219.88 401.18L219.77 401.25L219.58 401.38L219.38 401.54L219.22 401.7L219.13 401.78L219.06 401.87L218.98 401.95L218.92 402.05L218.84 402.14L218.78 402.24L218.73 402.35L218.66 402.45L218.62 402.56L218.57 402.66L218.54 402.77L218.49 402.88L218.42 403.1L218.41 403.23L218.38 403.45L218.36 403.58L218.34 403.69L218.34 403.82L218.36 403.93L218.36 464.62L219.9 463.85L271.59 434.58L271.69 434.53L271.98 434.34L272.14 434.21L272.22 434.13L272.3 434.07L272.38 433.99L272.44 433.91L272.5 433.81L272.63 433.65L272.7 433.56L272.84 433.27L272.87 433.17L272.92 433.08L272.95 432.96L272.98 432.87L273 432.76L273.03 432.66L273.05 432.55L273.05 432.44L273.06 432.34L273.06 432.01L273.05 431.89L273.05 373.26L272.95 371.24L271.02 372.2L220.1 401.07ZM434.47 314.78L434.39 314.78L434.2 314.81L434.11 314.84L434.01 314.86L433.93 314.89L433.83 314.92L433.74 314.97L433.66 315L433.58 315.05L433.48 315.1L433.4 315.15L433.32 315.21L381.91 344.67L380.67 345.54L381.43 346.11L433.71 376.05L434.03 376.25L434.35 376.37L434.44 376.39L434.52 376.42L434.62 376.44L434.7 376.45L434.78 376.45L434.87 376.47L435.15 376.47L435.23 376.45L435.32 376.45L435.48 376.42L435.58 376.39L435.66 376.37L435.74 376.34L435.83 376.31L435.99 376.25L436.31 376.05L473.08 355.07L489.07 345.73L487.99 344.96L436.12 315.21L436.02 315.15L435.86 315.05L435.77 315L435.69 314.97L435.59 314.92L435.51 314.89L435.42 314.86L435.32 314.84L435.24 314.81L435.05 314.78L434.95 314.78L434.86 314.76L434.57 314.76L434.47 314.78ZM203.35 314.88L203.25 314.88L203.06 314.91L202.98 314.94L202.89 314.96L202.79 314.99L202.71 315.02L202.61 315.07L202.53 315.1L202.44 315.15L202.28 315.24L202.18 315.31L156.08 341.3L149.24 345.54L150.02 346.11L202.49 376.05L202.55 376.09L202.63 376.12L202.71 376.13L202.77 376.17L202.85 376.2L203.25 376.28L203.32 376.29L203.4 376.29L203.48 376.31L203.88 376.31L203.96 376.29L204.04 376.29L204.44 376.21L204.5 376.2L204.66 376.13L204.74 376.12L204.8 376.09L204.88 376.05L256.39 346.69L257.83 345.73L257.06 345.15L204.98 315.31L204.9 315.24L204.82 315.2L204.72 315.15L204.64 315.1L204.56 315.07L204.47 315.02L204.37 314.99L204.29 314.96L204.2 314.94L204.1 314.91L203.91 314.88L203.83 314.88L203.73 314.86L203.45 314.86L203.35 314.88ZM335.52 198.34L335.43 198.39L335.33 198.45L335.23 198.5L335.14 198.56L335.06 198.63L334.96 198.69L334.88 198.76L334.66 198.98L334.53 199.14L334.47 199.23L334.4 199.31L334.34 199.41L334.29 199.49L334.19 199.68L334.16 199.78L334.11 199.87L334.08 199.99L334.05 200.08L334.03 200.18L334.02 200.29L333.99 200.39L333.99 200.5L333.97 200.61L333.97 259.76L333.87 261.98L335.71 261.02L386.82 232.13L386.93 232.09L387.04 232.02L387.14 231.96L387.25 231.89L387.35 231.83L387.44 231.75L387.54 231.69L387.7 231.53L387.78 231.43L387.86 231.35L387.94 231.25L388.19 230.87L388.24 230.76L388.31 230.66L388.35 230.55L388.39 230.44L388.43 230.33L388.5 230.1L388.51 229.99L388.53 229.86L388.56 229.64L388.56 168.61L386.82 169.47L335.52 198.34ZM249.72 228.79L249.72 229.19L249.74 229.32L249.76 229.43L249.77 229.56L249.8 229.69L249.82 229.82L249.87 229.93L249.9 230.06L250.04 230.39L250.17 230.61L250.24 230.71L250.3 230.82L250.54 231.11L250.72 231.29L250.91 231.45L251.02 231.53L251.12 231.61L251.45 231.8L251.58 231.85L302.49 260.72L304.33 261.6L304.33 200.43L304.32 200.31L304.3 200.19L304.3 200.08L304.27 199.97L304.25 199.86L304.22 199.76L304.2 199.65L304.16 199.57L304.09 199.38L303.95 199.14L303.89 199.07L303.82 198.99L303.77 198.93L303.71 198.85L303.63 198.79L303.57 198.74L303.41 198.61L303.33 198.56L303.25 198.5L303.17 198.45L303.07 198.4L302.99 198.34L302.7 198.2L302.59 198.15L260.34 173.99L249.74 168.01L249.74 228.66L249.72 228.79ZM318.83 111.81L318.74 111.81L318.62 111.82L318.51 111.86L318.42 111.87L318.3 111.9L318.21 111.94L318.1 111.97L317.9 112.06L317.79 112.11L317.7 112.16L317.6 112.22L317.52 112.29L282.48 132.4L264.77 142.61L265.63 143.28L317.9 173.23L317.98 173.27L318.05 173.32L318.13 173.35L318.21 173.4L318.3 173.43L318.54 173.53L318.64 173.55L318.72 173.58L318.8 173.59L318.9 173.59L318.98 173.61L319.07 173.61L319.15 173.63L319.25 173.63L319.33 173.61L319.42 173.61L319.5 173.59L319.6 173.59L319.68 173.58L319.76 173.55L319.86 173.53L320.09 173.43L320.19 173.4L320.27 173.35L320.35 173.32L320.43 173.27L320.49 173.23L371.62 144.34L373.25 143.28L372.1 142.52L320.69 112.29L320.61 112.22L320.51 112.16L320.4 112.11L320.11 111.97L320 111.94L319.9 111.9L319.79 111.87L319.7 111.86L319.58 111.82L319.47 111.81L319.38 111.81L319.26 111.79L318.94 111.79L318.83 111.81Z" id="a16kYtvnp2"></path></defs><g><g><g><use xlink:href="#a35oheHHK8" opacity="1" fill="#8cc340" fill-opacity="1"></use><g><use xlink:href="#a35oheHHK8" opacity="1" fill-opacity="0" stroke="#000000" stroke-width="1" stroke-opacity="0"></use></g></g><g><use xlink:href="#bdyFWYnY2" opacity="1" fill="#000000" fill-opacity="0"></use><g><use xlink:href="#bdyFWYnY2" opacity="1" fill-opacity="0" stroke="#000000" stroke-width="1" stroke-opacity="0"></use></g></g><g><use xlink:href="#arzgguNfK" opacity="1" fill="#ffffff" fill-opacity="1"></use><g><use xlink:href="#arzgguNfK" opacity="1" fill-opacity="0" stroke="#000000" stroke-width="1" stroke-opacity="0"></use></g></g><g><use xlink:href="#a16kYtvnp2" opacity="1" fill="#000000" fill-opacity="0"></use><g><use xlink:href="#a16kYtvnp2" opacity="1" fill-opacity="0" stroke="#000000" stroke-width="1" stroke-opacity="0"></use></g></g></g></g></svg>