<?xml version="1.0" encoding="UTF-8" standalone="no"?>
<!DOCTYPE svg PUBLIC "-//W3C//DTD SVG 1.1//EN" "http://www.w3.org/Graphics/SVG/1.1/DTD/svg11.dtd">
<svg version="1.1" xmlns="http://www.w3.org/2000/svg" xmlns:xlink="http://www.w3.org/1999/xlink" preserveAspectRatio="xMidYMid meet" viewBox="0 0 640 640" width="640" height="640"><defs><path d="M272.57 161.33C272.5 168.83 278.47 174.99 285.96 175.17C293.15 175.71 299.43 170.33 299.97 163.14C300.01 162.62 300.02 162.1 300 161.58C300.07 154.01 293.99 147.81 286.41 147.74C278.84 147.67 272.64 153.76 272.57 161.33Z" id="c2v3xtWSYZ"></path><path d="M272.57 161.33C272.5 168.83 278.47 174.99 285.96 175.17C293.15 175.71 299.43 170.33 299.97 163.14C300.01 162.62 300.02 162.1 300 161.58C300.07 154.01 293.99 147.81 286.41 147.74C278.84 147.67 272.64 153.76 272.57 161.33Z" id="a1haHi6Enu"></path><path d="M391.07 201.35C379.84 201.35 370.74 192.2 370.74 180.9C370.74 169.61 379.84 160.45 391.07 160.45C402.3 160.45 411.42 169.61 411.42 180.9C411.42 192.2 402.3 201.35 391.07 201.35Z" id="i2xmf69N3I"></path><path d="M391.07 201.35C379.84 201.35 370.74 192.2 370.74 180.9C370.74 169.61 379.84 160.45 391.07 160.45C402.3 160.45 411.42 169.61 411.42 180.9C411.42 192.2 402.3 201.35 391.07 201.35Z" id="bzayyChFU"></path><path d="M443.76 201.35C432.53 201.35 423.43 192.2 423.43 180.9C423.43 169.61 432.53 160.45 443.76 160.45C454.99 160.45 464.11 169.61 464.11 180.9C464.11 192.2 454.99 201.35 443.76 201.35Z" id="bu7K1y96F"></path><path d="M443.76 201.35C432.53 201.35 423.43 192.2 423.43 180.9C423.43 169.61 432.53 160.45 443.76 160.45C454.99 160.45 464.11 169.61 464.11 180.9C464.11 192.2 454.99 201.35 443.76 201.35Z" id="gXyZIygc1"></path><path d="M393.62 290.12C393.62 300.38 401.92 308.69 412.18 308.69C422.42 308.69 430.74 300.38 430.74 290.12C430.74 279.88 422.42 271.58 412.18 271.58C401.92 271.58 393.62 279.88 393.62 290.12Z" id="a3BEGGT8"></path><path d="M393.62 290.12C393.62 300.38 401.92 308.69 412.18 308.69C422.42 308.69 430.74 300.38 430.74 290.12C430.74 279.88 422.42 271.58 412.18 271.58C401.92 271.58 393.62 279.88 393.62 290.12Z" id="epVHUWCM"></path><path d="M491.11 313.96C491.11 322.08 491.11 326.59 491.11 327.49C491.11 327.49 491.11 327.49 491.11 327.49C434.44 327.49 402.94 327.49 396.65 327.49C396.65 327.49 396.65 327.49 396.65 327.49C396.65 319.36 396.65 314.86 396.65 313.96C396.65 313.96 396.65 313.96 396.65 313.96C453.33 313.96 484.82 313.96 491.11 313.96C491.11 313.96 491.11 313.96 491.11 313.96Z" id="c1OqqDBmgR"></path><path d="M491.11 313.96C491.11 322.08 491.11 326.59 491.11 327.49C491.11 327.49 491.11 327.49 491.11 327.49C434.44 327.49 402.94 327.49 396.65 327.49C396.65 327.49 396.65 327.49 396.65 327.49C396.65 319.36 396.65 314.86 396.65 313.96C396.65 313.96 396.65 313.96 396.65 313.96C453.33 313.96 484.82 313.96 491.11 313.96C491.11 313.96 491.11 313.96 491.11 313.96Z" id="cNi5Vzsu"></path><path d="M491.11 340.92C491.11 349.05 491.11 353.56 491.11 354.48C491.11 354.48 491.11 354.48 491.11 354.48C434.44 354.48 402.94 354.48 396.65 354.48C396.65 354.48 396.65 354.48 396.65 354.48C396.65 346.35 396.65 341.83 396.65 340.92C396.65 340.92 396.65 340.92 396.65 340.92C453.33 340.92 484.82 340.92 491.11 340.92C491.11 340.92 491.11 340.92 491.11 340.92Z" id="a8gRYCqM"></path><path d="M491.11 340.92C491.11 349.05 491.11 353.56 491.11 354.48C491.11 354.48 491.11 354.48 491.11 354.48C434.44 354.48 402.94 354.48 396.65 354.48C396.65 354.48 396.65 354.48 396.65 354.48C396.65 346.35 396.65 341.83 396.65 340.92C396.65 340.92 396.65 340.92 396.65 340.92C453.33 340.92 484.82 340.92 491.11 340.92C491.11 340.92 491.11 340.92 491.11 340.92Z" id="b2HIGXRKeH"></path><path d="M491.11 367.89C491.11 376.02 491.11 380.55 491.11 381.45C491.11 381.45 491.11 381.45 491.11 381.45C434.44 381.45 402.94 381.45 396.65 381.45C396.65 381.45 396.65 381.45 396.65 381.45C396.65 373.32 396.65 368.79 396.65 367.89C396.65 367.89 396.65 367.89 396.65 367.89C453.33 367.89 484.82 367.89 491.11 367.89C491.11 367.89 491.11 367.89 491.11 367.89Z" id="a1ExlleWjr"></path><path d="M491.11 367.89C491.11 376.02 491.11 380.55 491.11 381.45C491.11 381.45 491.11 381.45 491.11 381.45C434.44 381.45 402.94 381.45 396.65 381.45C396.65 381.45 396.65 381.45 396.65 381.45C396.65 373.32 396.65 368.79 396.65 367.89C396.65 367.89 396.65 367.89 396.65 367.89C453.33 367.89 484.82 367.89 491.11 367.89C491.11 367.89 491.11 367.89 491.11 367.89Z" id="cMC3mc4KO"></path><path d="M491.11 394.88C491.11 402.99 491.11 407.51 491.11 408.42C491.11 408.42 491.11 408.42 491.11 408.42C434.44 408.42 402.94 408.42 396.65 408.42C396.65 408.42 396.65 408.42 396.65 408.42C396.65 400.29 396.65 395.78 396.65 394.88C396.65 394.88 396.65 394.88 396.65 394.88C453.33 394.88 484.82 394.88 491.11 394.88C491.11 394.88 491.11 394.88 491.11 394.88Z" id="a3xsY4m1ez"></path><path d="M491.11 394.88C491.11 402.99 491.11 407.51 491.11 408.42C491.11 408.42 491.11 408.42 491.11 408.42C434.44 408.42 402.94 408.42 396.65 408.42C396.65 408.42 396.65 408.42 396.65 408.42C396.65 400.29 396.65 395.78 396.65 394.88C396.65 394.88 396.65 394.88 396.65 394.88C453.33 394.88 484.82 394.88 491.11 394.88C491.11 394.88 491.11 394.88 491.11 394.88Z" id="abWqHeGQ3"></path><path d="M491.11 421.85C491.11 429.98 491.11 434.48 491.11 435.38C491.11 435.38 491.11 435.38 491.11 435.38C434.44 435.38 402.94 435.38 396.65 435.38C396.65 435.38 396.65 435.38 396.65 435.38C396.65 427.26 396.65 422.75 396.65 421.85C396.65 421.85 396.65 421.85 396.65 421.85C453.33 421.85 484.82 421.85 491.11 421.85C491.11 421.85 491.11 421.85 491.11 421.85Z" id="h1CKCCVzSj"></path><path d="M491.11 421.85C491.11 429.98 491.11 434.48 491.11 435.38C491.11 435.38 491.11 435.38 491.11 435.38C434.44 435.38 402.94 435.38 396.65 435.38C396.65 435.38 396.65 435.38 396.65 435.38C396.65 427.26 396.65 422.75 396.65 421.85C396.65 421.85 396.65 421.85 396.65 421.85C453.33 421.85 484.82 421.85 491.11 421.85C491.11 421.85 491.11 421.85 491.11 421.85Z" id="df7D557bZ"></path><path d="M491.11 448.94C491.11 457.07 491.11 461.57 491.11 462.47C491.11 462.47 491.11 462.47 491.11 462.47C434.44 462.47 402.94 462.47 396.65 462.47C396.65 462.47 396.65 462.47 396.65 462.47C396.65 454.35 396.65 449.84 396.65 448.94C396.65 448.94 396.65 448.94 396.65 448.94C453.33 448.94 484.82 448.94 491.11 448.94C491.11 448.94 491.11 448.94 491.11 448.94Z" id="a1kTyZttql"></path><path d="M491.11 448.94C491.11 457.07 491.11 461.57 491.11 462.47C491.11 462.47 491.11 462.47 491.11 462.47C434.44 462.47 402.94 462.47 396.65 462.47C396.65 462.47 396.65 462.47 396.65 462.47C396.65 454.35 396.65 449.84 396.65 448.94C396.65 448.94 396.65 448.94 396.65 448.94C453.33 448.94 484.82 448.94 491.11 448.94C491.11 448.94 491.11 448.94 491.11 448.94Z" id="b2UES9Sfgi"></path><path d="M97.99 541.33C220.77 664.12 419.82 664.12 542.6 541.33C665.39 418.55 665.39 219.5 542.6 96.72C419.82 -26.07 220.77 -26.07 97.99 96.72C-24.8 219.5 -24.8 418.55 97.99 541.33Z" id="atYZ1IOJ8"></path><path d="M97.99 541.33C220.77 664.12 419.82 664.12 542.6 541.33C665.39 418.55 665.39 219.5 542.6 96.72C419.82 -26.07 220.77 -26.07 97.99 96.72C-24.8 219.5 -24.8 418.55 97.99 541.33Z" id="aTuaNqGpk"></path><path d="M227.75 440.53L227.75 457.43L256.82 457.43L256.82 464.4L161.09 464.4L161.09 457.74L190.16 457.74L190.16 440.84L114.19 440.84L114.19 290.09L303.72 290.09L303.72 440.84L227.75 440.53ZM128.97 421.21L289.14 421.21L289.14 304.99L128.97 304.99L128.97 421.21Z" id="fkuem2g6c"></path><path d="M227.75 440.53L227.75 457.43L256.82 457.43L256.82 464.4L161.09 464.4L161.09 457.74L190.16 457.74L190.16 440.84L114.19 440.84L114.19 290.09L303.72 290.09L303.72 440.84L227.75 440.53ZM128.97 421.21L289.14 421.21L289.14 304.99L128.97 304.99L128.97 421.21Z" id="gdWF792eZ"></path><path d="M445.39 440.53L445.39 457.43L474.44 457.43L474.44 464.4L378.73 464.4L378.73 457.74L407.35 457.74L407.35 440.84L331.81 440.84L331.81 290.09L521.34 290.09L521.34 440.84L445.39 440.53ZM346.51 421.21L506.66 421.21L506.66 304.99L346.51 304.99L346.51 421.21Z" id="cpMrme4f9"></path><path d="M445.39 440.53L445.39 457.43L474.44 457.43L474.44 464.4L378.73 464.4L378.73 457.74L407.35 457.74L407.35 440.84L331.81 440.84L331.81 290.09L521.34 290.09L521.34 440.84L445.39 440.53ZM346.51 421.21L506.66 421.21L506.66 304.99L346.51 304.99L346.51 421.21Z" id="a1Fj2zbFk"></path><path d="M339.11 252.06L339.11 268.96L368.16 268.96L368.16 275.95L272.45 275.95L272.45 268.96L301.71 268.96L301.71 252.06L225.53 252.06L225.53 101.31L415.06 101.31L415.06 252.06L339.11 252.06ZM240.23 231.99L400.48 231.99L400.48 115.78L240.23 115.78L240.23 231.99Z" id="areNE03sq"></path><path d="M339.11 252.06L339.11 268.96L368.16 268.96L368.16 275.95L272.45 275.95L272.45 268.96L301.71 268.96L301.71 252.06L225.53 252.06L225.53 101.31L415.06 101.31L415.06 252.06L339.11 252.06ZM240.23 231.99L400.48 231.99L400.48 115.78L240.23 115.78L240.23 231.99Z" id="a2eAkEXQPz"></path><path d="M320.3 581.04C177.59 581.04 61.9 463.74 61.9 319.03C61.9 174.35 177.59 57.04 320.3 57.04C463.02 57.04 578.71 174.35 578.71 319.03C578.71 463.74 463.02 581.04 320.3 581.04Z" id="f1qRSrKxxC"></path><path d="M320.3 581.04C177.59 581.04 61.9 463.74 61.9 319.03C61.9 174.35 177.59 57.04 320.3 57.04C463.02 57.04 578.71 174.35 578.71 319.03C578.71 463.74 463.02 581.04 320.3 581.04Z" id="a6mb0Mp21a"></path></defs><g><g><g><use xlink:href="#c2v3xtWSYZ" opacity="1" fill="#000000" fill-opacity="0"></use><g><use xlink:href="#c2v3xtWSYZ" opacity="1" fill-opacity="0" stroke="#000000" stroke-width="1" stroke-opacity="0"></use></g></g><g><use xlink:href="#a1haHi6Enu" opacity="1" fill="#000000" fill-opacity="0"></use><g><use xlink:href="#a1haHi6Enu" opacity="1" fill-opacity="0" stroke="#ffffff" stroke-width="5" stroke-opacity="1"></use></g></g><g><use xlink:href="#i2xmf69N3I" opacity="1" fill="#ffffff" fill-opacity="1"></use><g><use xlink:href="#i2xmf69N3I" opacity="1" fill-opacity="0" stroke="#000000" stroke-width="1" stroke-opacity="0"></use></g></g><g><use xlink:href="#bzayyChFU" opacity="1" fill="#000000" fill-opacity="0"></use><g><use xlink:href="#bzayyChFU" opacity="1" fill-opacity="0" stroke="#000000" stroke-width="1" stroke-opacity="0"></use></g></g><g><use xlink:href="#bu7K1y96F" opacity="1" fill="#ffffff" fill-opacity="1"></use><g><use xlink:href="#bu7K1y96F" opacity="1" fill-opacity="0" stroke="#000000" stroke-width="1" stroke-opacity="0"></use></g></g><g><use xlink:href="#gXyZIygc1" opacity="1" fill="#000000" fill-opacity="0"></use><g><use xlink:href="#gXyZIygc1" opacity="1" fill-opacity="0" stroke="#000000" stroke-width="1" stroke-opacity="0"></use></g></g><g><use xlink:href="#a3BEGGT8" opacity="1" fill="#ffffff" fill-opacity="1"></use><g><use xlink:href="#a3BEGGT8" opacity="1" fill-opacity="0" stroke="#000000" stroke-width="1" stroke-opacity="0"></use></g></g><g><use xlink:href="#epVHUWCM" opacity="1" fill="#000000" fill-opacity="0"></use><g><use xlink:href="#epVHUWCM" opacity="1" fill-opacity="0" stroke="#000000" stroke-width="1" stroke-opacity="0"></use></g></g><g><use xlink:href="#c1OqqDBmgR" opacity="1" fill="#ffffff" fill-opacity="1"></use><g><use xlink:href="#c1OqqDBmgR" opacity="1" fill-opacity="0" stroke="#000000" stroke-width="1" stroke-opacity="0"></use></g></g><g><use xlink:href="#cNi5Vzsu" opacity="1" fill="#000000" fill-opacity="0"></use><g><use xlink:href="#cNi5Vzsu" opacity="1" fill-opacity="0" stroke="#000000" stroke-width="1" stroke-opacity="0"></use></g></g><g><use xlink:href="#a8gRYCqM" opacity="1" fill="#ffffff" fill-opacity="1"></use><g><use xlink:href="#a8gRYCqM" opacity="1" fill-opacity="0" stroke="#000000" stroke-width="1" stroke-opacity="0"></use></g></g><g><use xlink:href="#b2HIGXRKeH" opacity="1" fill="#000000" fill-opacity="0"></use><g><use xlink:href="#b2HIGXRKeH" opacity="1" fill-opacity="0" stroke="#000000" stroke-width="1" stroke-opacity="0"></use></g></g><g><use xlink:href="#a1ExlleWjr" opacity="1" fill="#ffffff" fill-opacity="1"></use><g><use xlink:href="#a1ExlleWjr" opacity="1" fill-opacity="0" stroke="#000000" stroke-width="1" stroke-opacity="0"></use></g></g><g><use xlink:href="#cMC3mc4KO" opacity="1" fill="#000000" fill-opacity="0"></use><g><use xlink:href="#cMC3mc4KO" opacity="1" fill-opacity="0" stroke="#000000" stroke-width="1" stroke-opacity="0"></use></g></g><g><use xlink:href="#a3xsY4m1ez" opacity="1" fill="#ffffff" fill-opacity="1"></use><g><use xlink:href="#a3xsY4m1ez" opacity="1" fill-opacity="0" stroke="#000000" stroke-width="1" stroke-opacity="0"></use></g></g><g><use xlink:href="#abWqHeGQ3" opacity="1" fill="#000000" fill-opacity="0"></use><g><use xlink:href="#abWqHeGQ3" opacity="1" fill-opacity="0" stroke="#000000" stroke-width="1" stroke-opacity="0"></use></g></g><g><use xlink:href="#h1CKCCVzSj" opacity="1" fill="#ffffff" fill-opacity="1"></use><g><use xlink:href="#h1CKCCVzSj" opacity="1" fill-opacity="0" stroke="#000000" stroke-width="1" stroke-opacity="0"></use></g></g><g><use xlink:href="#df7D557bZ" opacity="1" fill="#000000" fill-opacity="0"></use><g><use xlink:href="#df7D557bZ" opacity="1" fill-opacity="0" stroke="#000000" stroke-width="1" stroke-opacity="0"></use></g></g><g><use xlink:href="#a1kTyZttql" opacity="1" fill="#ffffff" fill-opacity="1"></use><g><use xlink:href="#a1kTyZttql" opacity="1" fill-opacity="0" stroke="#000000" stroke-width="1" stroke-opacity="0"></use></g></g><g><use xlink:href="#b2UES9Sfgi" opacity="1" fill="#000000" fill-opacity="0"></use><g><use xlink:href="#b2UES9Sfgi" opacity="1" fill-opacity="0" stroke="#000000" stroke-width="1" stroke-opacity="0"></use></g></g><g><use xlink:href="#atYZ1IOJ8" opacity="1" fill="#8dc440" fill-opacity="1"></use><g><use xlink:href="#atYZ1IOJ8" opacity="1" fill-opacity="0" stroke="#000000" stroke-width="1" stroke-opacity="0"></use></g></g><g><use xlink:href="#aTuaNqGpk" opacity="1" fill="#000000" fill-opacity="0"></use><g><use xlink:href="#aTuaNqGpk" opacity="1" fill-opacity="0" stroke="#000000" stroke-width="1" stroke-opacity="0"></use></g></g><g><use xlink:href="#fkuem2g6c" opacity="1" fill="#ffffff" fill-opacity="1"></use><g><use xlink:href="#fkuem2g6c" opacity="1" fill-opacity="0" stroke="#000000" stroke-width="1" stroke-opacity="0"></use></g></g><g><use xlink:href="#gdWF792eZ" opacity="1" fill="#000000" fill-opacity="0"></use><g><use xlink:href="#gdWF792eZ" opacity="1" fill-opacity="0" stroke="#000000" stroke-width="1" stroke-opacity="0"></use></g></g><g><use xlink:href="#cpMrme4f9" opacity="1" fill="#ffffff" fill-opacity="1"></use><g><use xlink:href="#cpMrme4f9" opacity="1" fill-opacity="0" stroke="#000000" stroke-width="1" stroke-opacity="0"></use></g></g><g><use xlink:href="#a1Fj2zbFk" opacity="1" fill="#000000" fill-opacity="0"></use><g><use xlink:href="#a1Fj2zbFk" opacity="1" fill-opacity="0" stroke="#000000" stroke-width="1" stroke-opacity="0"></use></g></g><g><use xlink:href="#areNE03sq" opacity="1" fill="#ffffff" fill-opacity="1"></use><g><use xlink:href="#areNE03sq" opacity="1" fill-opacity="0" stroke="#000000" stroke-width="1" stroke-opacity="0"></use></g></g><g><use xlink:href="#a2eAkEXQPz" opacity="1" fill="#000000" fill-opacity="0"></use><g><use xlink:href="#a2eAkEXQPz" opacity="1" fill-opacity="0" stroke="#000000" stroke-width="1" stroke-opacity="0"></use></g></g><g><use xlink:href="#f1qRSrKxxC" opacity="1" fill="#000000" fill-opacity="0"></use><g><use xlink:href="#f1qRSrKxxC" opacity="1" fill-opacity="0" stroke="#000000" stroke-width="1" stroke-opacity="0"></use></g></g><g><use xlink:href="#a6mb0Mp21a" opacity="1" fill="#000000" fill-opacity="0"></use><g><use xlink:href="#a6mb0Mp21a" opacity="1" fill-opacity="0" stroke="#ffffff" stroke-width="9" stroke-opacity="1"></use></g></g></g></g></svg>