<?xml version="1.0" encoding="UTF-8" standalone="no"?>
<!DOCTYPE svg PUBLIC "-//W3C//DTD SVG 1.1//EN" "http://www.w3.org/Graphics/SVG/1.1/DTD/svg11.dtd">
<svg version="1.1" xmlns="http://www.w3.org/2000/svg" xmlns:xlink="http://www.w3.org/1999/xlink" preserveAspectRatio="xMidYMid meet" viewBox="0 0 640 640" width="640" height="640"><defs><path d="M379.37 171.87C388.93 180.32 403.5 179.52 412.08 170.1C420.79 161.46 420.87 147.4 412.24 138.69C411.62 138.06 410.96 137.47 410.27 136.91C400.62 128.38 385.88 129.28 377.34 138.94C368.81 148.59 369.72 163.34 379.37 171.87Z" id="b1Y6Iz0WFl"></path><path d="M379.37 171.87C388.93 180.32 403.5 179.52 412.08 170.1C420.79 161.46 420.87 147.4 412.24 138.69C411.62 138.06 410.96 137.47 410.27 136.91C400.62 128.38 385.88 129.28 377.34 138.94C368.81 148.59 369.72 163.34 379.37 171.87Z" id="b26ZQwxkIo"></path><path d="M209.3 255.75C202.07 264.07 189.44 264.93 181.06 257.66C172.7 250.4 171.75 237.76 178.98 229.44C186.2 221.11 198.85 220.26 207.21 227.52C215.59 234.79 216.52 247.42 209.3 255.75Z" id="cNYE57j8q"></path><path d="M209.3 255.75C202.07 264.07 189.44 264.93 181.06 257.66C172.7 250.4 171.75 237.76 178.98 229.44C186.2 221.11 198.85 220.26 207.21 227.52C215.59 234.79 216.52 247.42 209.3 255.75Z" id="m1iUdjkhZv"></path><path d="M240.66 219.61C233.43 227.93 220.8 228.79 212.42 221.52C204.06 214.26 203.11 201.62 210.34 193.3C217.56 184.97 230.22 184.11 238.59 191.37C246.96 198.64 247.88 211.28 240.66 219.61Z" id="hJZh5AapR"></path><path d="M240.66 219.61C233.43 227.93 220.8 228.79 212.42 221.52C204.06 214.26 203.11 201.62 210.34 193.3C217.56 184.97 230.22 184.11 238.59 191.37C246.96 198.64 247.88 211.28 240.66 219.61Z" id="bqxQASEvd"></path><path d="M274.32 180.81C267.1 189.13 254.46 189.99 246.09 182.72C237.72 175.47 236.78 162.82 244 154.5C251.23 146.17 263.89 145.31 272.25 152.57C280.63 159.84 281.55 172.48 274.32 180.81Z" id="ajkJWE4QP"></path><path d="M274.32 180.81C267.1 189.13 254.46 189.99 246.09 182.72C237.72 175.47 236.78 162.82 244 154.5C251.23 146.17 263.89 145.31 272.25 152.57C280.63 159.84 281.55 172.48 274.32 180.81Z" id="ajUlNAqIj"></path><path d="M308.22 141.75C300.99 150.08 288.35 150.93 279.98 143.67C271.61 136.41 270.67 123.77 277.9 115.44C285.12 107.12 297.78 106.26 306.14 113.51C314.52 120.78 315.44 133.43 308.22 141.75Z" id="a1ENvIhtPU"></path><path d="M308.22 141.75C300.99 150.08 288.35 150.93 279.98 143.67C271.61 136.41 270.67 123.77 277.9 115.44C285.12 107.12 297.78 106.26 306.14 113.51C314.52 120.78 315.44 133.43 308.22 141.75Z" id="ehvEe99Vh"></path><path d="M357.77 553.04C361.16 549.13 363.04 546.96 363.42 546.52C372.18 525.84 378.62 504.24 382.65 482.13C382.79 479.28 382.78 476.41 382.61 473.54C382 465.47 380.19 457.5 377.24 449.96C374.84 443.17 371.85 436.6 368.29 430.35C366.6 427.33 364.69 424.45 362.53 421.75C359.51 418.05 356.12 414.66 352.41 411.61C333.13 394.75 307.97 386.14 282.39 387.63C231.1 390.31 191.7 434.06 194.36 485.34C194.43 486.48 194.51 487.63 194.62 488.78C196.73 514.33 208.8 538.02 228.22 554.74C248.49 572.46 274.66 581.93 301.56 581.29C301.56 581.29 330.24 580.5 387.57 578.9C381.61 573.73 360.75 555.62 357.77 553.04Z" id="a3haYHsXo"></path><path d="M357.77 553.04C361.16 549.13 363.04 546.96 363.42 546.52C372.18 525.84 378.62 504.24 382.65 482.13C382.79 479.28 382.78 476.41 382.61 473.54C382 465.47 380.19 457.5 377.24 449.96C374.84 443.17 371.85 436.6 368.29 430.35C366.6 427.33 364.69 424.45 362.53 421.75C359.51 418.05 356.12 414.66 352.41 411.61C333.13 394.75 307.97 386.14 282.39 387.63C231.1 390.31 191.7 434.06 194.36 485.34C194.43 486.48 194.51 487.63 194.62 488.78C196.73 514.33 208.8 538.02 228.22 554.74C248.49 572.46 274.66 581.93 301.56 581.29C301.56 581.29 330.24 580.5 387.57 578.9C381.61 573.73 360.75 555.62 357.77 553.04Z" id="belPZJCaR"></path><path d="M300.16 429.63C296.38 433.98 289.71 434.37 285.27 430.51C280.82 426.66 280.27 420 284.05 415.65C287.83 411.29 294.49 410.9 298.94 414.76C303.38 418.62 303.94 425.27 300.16 429.63Z" id="bECRvQTQk"></path><path d="M300.16 429.63C296.38 433.98 289.71 434.37 285.27 430.51C280.82 426.66 280.27 420 284.05 415.65C287.83 411.29 294.49 410.9 298.94 414.76C303.38 418.62 303.94 425.27 300.16 429.63Z" id="gadCbhI7y"></path><path d="M283.74 448.55C279.96 452.91 273.28 453.31 268.84 449.45C264.39 445.59 263.85 438.93 267.62 434.57C271.39 430.23 278.07 429.83 282.51 433.69C286.96 437.54 287.5 444.21 283.74 448.55Z" id="b19mliXxP6"></path><path d="M283.74 448.55C279.96 452.91 273.28 453.31 268.84 449.45C264.39 445.59 263.85 438.93 267.62 434.57C271.39 430.23 278.07 429.83 282.51 433.69C286.96 437.54 287.5 444.21 283.74 448.55Z" id="b1xR24D3J7"></path><path d="M266.04 468.94C262.26 473.3 255.6 473.68 251.15 469.83C246.71 465.97 246.15 459.32 249.93 454.96C253.71 450.61 260.38 450.22 264.82 454.08C269.27 457.93 269.82 464.59 266.04 468.94Z" id="dATWA8fDF"></path><path d="M266.04 468.94C262.26 473.3 255.6 473.68 251.15 469.83C246.71 465.97 246.15 459.32 249.93 454.96C253.71 450.61 260.38 450.22 264.82 454.08C269.27 457.93 269.82 464.59 266.04 468.94Z" id="daaRP6cC1"></path><path d="M248.35 489.33C244.58 493.67 237.91 494.07 233.46 490.22C229.02 486.36 228.47 479.69 232.24 475.35C236.02 470.99 242.7 470.59 247.14 474.45C251.59 478.31 252.13 484.97 248.35 489.33Z" id="a3f3cPVV3n"></path><path d="M248.35 489.33C244.58 493.67 237.91 494.07 233.46 490.22C229.02 486.36 228.47 479.69 232.24 475.35C236.02 470.99 242.7 470.59 247.14 474.45C251.59 478.31 252.13 484.97 248.35 489.33Z" id="a1MytkP2jX"></path><path d="M558.09 526.67C443.89 658.28 244.67 672.43 113.11 558.27C-18.45 444.11 -32.52 244.89 81.68 113.28C195.87 -18.32 395.09 -32.47 526.65 81.69C658.21 195.85 672.28 395.08 558.09 526.67Z" id="e5VVM7oQnb"></path><path d="M558.09 526.67C443.89 658.28 244.67 672.43 113.11 558.27C-18.45 444.11 -32.52 244.89 81.68 113.28C195.87 -18.32 395.09 -32.47 526.65 81.69C658.21 195.85 672.28 395.08 558.09 526.67Z" id="aaPGH9Uwr"></path><path d="M320.92 122.33L323.79 122.48L326.66 122.67L329.53 122.93L332.38 123.24L335.22 123.61L338.05 124.04L340.87 124.52L343.68 125.05L346.47 125.65L349.26 126.29L352.03 127L354.78 127.75L357.53 128.55L360.24 129.42L362.95 130.33L365.63 131.28L368.29 132.31L370.94 133.39L373.57 134.51L376.18 135.68L378.76 136.91L381.32 138.19L383.85 139.53L386.36 140.9L388.85 142.33L391.31 143.81L393.73 145.35L396.15 146.93L398.52 148.56L400.87 150.24L403.18 151.98L405.47 153.76L407.73 155.59L409.94 157.46L412.23 159.47L414.47 161.53L416.66 163.6L418.82 165.73L420.93 167.89L422.99 170.09L425.02 172.32L426.98 174.59L428.92 176.9L430.8 179.23L432.63 181.61L434.44 184.01L436.18 186.44L437.87 188.9L439.52 191.42L441.12 193.93L442.68 196.5L444.18 199.08L445.63 201.69L447.03 204.33L448.39 206.99L449.7 209.69L450.96 212.39L452.16 215.13L453.31 217.88L454.4 220.68L455.46 223.48L456.45 226.31L457.39 229.15L458.28 232.01L459.11 234.9L459.89 237.81L460.63 240.72L461.3 243.66L461.92 246.61L462.48 249.57L462.98 252.55L463.43 255.56L463.81 258.57L464.15 261.59L479.26 411.26L424.23 363.52L422.92 365L421.61 366.46L420.27 367.9L418.91 369.33L417.54 370.73L416.16 372.12L414.75 373.49L413.31 374.83L411.86 376.16L410.4 377.46L408.92 378.75L407.43 380.02L404.4 382.48L402.84 383.67L401.28 384.86L399.71 386.02L398.12 387.14L396.51 388.27L394.89 389.36L393.27 390.43L391.6 391.49L389.95 392.51L388.26 393.52L386.58 394.5L384.87 395.46L383.15 396.4L381.43 397.32L379.69 398.22L377.93 399.08L376.16 399.91L374.39 400.74L372.59 401.54L370.78 402.31L368.97 403.06L367.14 403.79L365.3 404.49L363.45 405.16L359.73 406.44L361.19 408.52L362.6 410.64L363.92 412.78L365.15 414.97L366.31 417.19L367.38 419.43L368.37 421.69L369.28 423.98L370.11 426.3L370.85 428.64L371.53 430.98L372.12 433.36L372.62 435.73L373.05 438.13L373.4 440.53L373.66 442.94L373.85 445.35L373.96 447.77L373.97 450.19L373.93 452.61L373.79 455.03L373.58 457.44L373.28 459.84L372.91 462.24L372.46 464.62L371.92 466.99L371.31 469.35L370.62 471.68L369.85 474L369 476.28L368.07 478.56L367.06 480.79L365.97 483L364.82 485.19L363.56 487.34L362.24 489.46L360.84 491.54L359.36 493.59L357.81 495.58L356.18 497.54L384.02 521.7L308.89 524.73L307.37 524.77L305.86 524.8L304.34 524.78L301.32 524.68L299.81 524.57L298.32 524.45L296.83 524.3L295.33 524.13L293.84 523.91L292.37 523.68L290.89 523.41L289.43 523.13L287.96 522.8L286.51 522.44L285.07 522.07L283.62 521.67L282.19 521.24L280.77 520.8L279.35 520.31L277.95 519.79L276.56 519.26L275.19 518.7L273.81 518.11L272.44 517.5L271.09 516.85L269.75 516.19L268.42 515.51L267.11 514.79L265.8 514.04L264.5 513.28L263.23 512.49L261.98 511.67L260.73 510.83L259.5 509.97L258.27 509.07L257.08 508.16L255.89 507.22L254.72 506.25L253.56 505.26L251.34 503.25L249.21 501.16L247.2 499.01L245.27 496.79L243.46 494.52L241.75 492.18L240.14 489.79L238.63 487.35L237.22 484.87L235.93 482.34L234.74 479.77L233.64 477.17L232.65 474.54L231.78 471.86L230.99 469.16L230.32 466.43L229.75 463.69L229.29 460.94L228.94 458.16L228.68 455.37L228.53 452.58L228.5 449.79L228.57 446.98L228.74 444.19L229.02 441.41L229.42 438.63L229.91 435.86L230.53 433.1L231.24 430.36L232.06 427.65L232.99 424.97L234.03 422.31L235.18 419.69L236.44 417.1L237.8 414.55L239.28 412.03L240.86 409.57L242.57 407.15L244.37 404.8L246.29 402.48L249.32 398.98L245.86 397.21L242.46 395.37L239.11 393.44L235.84 391.42L232.62 389.34L229.47 387.16L226.39 384.92L223.37 382.59L220.41 380.21L217.54 377.73L214.72 375.2L211.98 372.59L209.29 369.92L206.7 367.18L204.17 364.38L201.73 361.51L199.35 358.59L197.05 355.61L194.83 352.56L192.7 349.47L190.63 346.32L188.66 343.12L186.77 339.87L184.96 336.56L183.23 333.21L181.6 329.81L180.04 326.37L178.58 322.89L177.21 319.36L175.92 315.81L174.72 312.2L173.63 308.55L172.62 304.89L171.7 301.18L170.89 297.44L170.17 293.68L169.55 289.88L169.01 286.06L168.59 282.2L168.27 278.34L167.98 272.32L167.92 266.37L168.1 260.45L168.53 254.61L169.17 248.81L170.06 243.07L171.15 237.42L172.47 231.83L173.99 226.33L175.75 220.91L177.69 215.58L179.83 210.34L182.17 205.2L184.71 200.18L187.42 195.26L190.32 190.46L193.41 185.77L196.66 181.21L200.09 176.77L203.68 172.47L207.44 168.33L211.35 164.31L215.4 160.47L219.61 156.76L223.97 153.22L228.46 149.84L233.09 146.63L237.84 143.59L242.73 140.73L247.75 138.06L252.87 135.59L258.09 133.3L263.46 131.22L268.9 129.34L274.46 127.68L280.09 126.22L285.84 125L291.67 123.99L297.57 123.21L303.56 122.67L306.46 122.46L309.36 122.32L312.26 122.24L315.15 122.21L318.03 122.23L320.92 122.33ZM304.83 135.21L299.73 135.67L294.64 136.32L289.57 137.17L284.55 138.22L279.55 139.46L274.6 140.89L269.7 142.51L264.86 144.33L260.08 146.33L255.35 148.53L250.72 150.91L246.16 153.49L241.68 156.27L237.31 159.23L233.03 162.36L228.87 165.71L224.79 169.24L220.85 172.96L217.02 176.85L213.33 180.94L209.8 185.17L206.49 189.51L203.36 193.94L200.45 198.46L197.72 203.07L195.21 207.74L192.9 212.49L190.78 217.31L188.87 222.19L187.17 227.11L185.65 232.1L184.34 237.11L183.23 242.16L182.31 247.24L181.6 252.34L181.08 257.46L180.75 262.59L180.63 267.71L180.69 272.86L180.96 277.97L181.41 283.08L182.08 288.18L182.92 293.23L183.97 298.27L185.21 303.26L186.63 308.21L188.26 313.11L190.07 317.95L192.07 322.73L194.28 327.46L196.65 332.09L199.24 336.66L202.01 341.13L204.97 345.5L208.12 349.79L211.45 353.96L214.98 358.02L218.7 361.96L222.59 365.79L226.68 369.48L228.17 370.77L228.92 371.39L229.67 372.03L230.44 372.65L231.2 373.26L232.75 374.47L233.52 375.07L234.31 375.66L235.1 376.24L235.89 376.83L236.67 377.4L237.47 377.96L238.29 378.53L239.09 379.09L240.71 380.18L241.54 380.72L243.18 381.79L244.02 382.31L244.85 382.8L245.68 383.32L246.52 383.83L247.38 384.33L248.22 384.81L249.08 385.3L250.78 386.24L251.66 386.71L253.39 387.63L254.26 388.07L255.15 388.5L256.03 388.95L256.9 389.37L258.7 390.2L259.58 390.61L261.65 389.21L263.75 387.9L265.9 386.68L268.06 385.51L270.26 384.43L272.48 383.43L274.73 382.52L277 381.67L279.28 380.91L281.57 380.22L283.89 379.62L286.23 379.08L288.58 378.63L290.94 378.25L293.29 377.95L295.66 377.73L298.03 377.58L300.4 377.52L302.77 377.53L305.16 377.62L307.51 377.79L309.87 378.02L312.22 378.35L314.57 378.74L316.9 379.21L319.22 379.76L321.52 380.38L323.8 381.07L326.06 381.84L328.31 382.71L330.53 383.62L332.72 384.62L334.87 385.7L337.02 386.86L339.12 388.08L341.19 389.38L343.23 390.77L345.21 392.22L347.17 393.74L349.08 395.35L351.04 397.05L352.9 396.51L354.76 395.93L356.61 395.33L358.43 394.7L360.24 394.05L362.06 393.37L363.87 392.67L365.65 391.94L367.43 391.19L369.18 390.41L370.94 389.59L372.67 388.78L374.4 387.91L376.11 387.03L377.81 386.13L379.5 385.19L381.17 384.26L382.81 383.27L384.47 382.27L386.09 381.25L387.71 380.2L389.31 379.13L390.88 378.05L392.44 376.92L394 375.77L395.52 374.62L397.04 373.44L398.55 372.22L400.04 370.99L401.51 369.74L402.95 368.47L404.36 367.18L405.78 365.86L407.18 364.53L408.55 363.16L409.92 361.79L411.25 360.38L412.57 358.96L413.87 357.52L423.12 346.86L463.84 382.19L451.8 262.99L451.47 260.23L451.12 257.47L450.69 254.73L450.23 251.98L449.7 249.27L449.12 246.56L448.51 243.87L447.83 241.19L447.1 238.53L446.33 235.9L445.5 233.27L444.64 230.65L443.72 228.08L442.76 225.5L441.73 222.95L440.68 220.42L439.57 217.92L438.41 215.43L437.2 212.96L435.96 210.53L434.66 208.1L433.34 205.71L431.94 203.35L430.51 201L429.04 198.69L427.52 196.4L425.97 194.14L424.36 191.91L422.71 189.71L421.03 187.53L419.3 185.4L417.53 183.28L415.71 181.2L413.85 179.16L411.96 177.14L410.02 175.16L408.04 173.22L406.02 171.31L403.97 169.42L401.87 167.59L397.64 164.06L393.3 160.75L388.87 157.62L384.36 154.7L379.76 151.99L375.07 149.47L370.32 147.16L365.51 145.05L360.62 143.13L355.7 141.43L350.71 139.91L345.7 138.6L340.65 137.49L335.57 136.57L330.48 135.85L325.35 135.34L320.22 135L315.1 134.89L309.95 134.95L304.83 135.21Z" id="b2ORdKSMVX"></path><path d="M320.92 122.33L323.79 122.48L326.66 122.67L329.53 122.93L332.38 123.24L335.22 123.61L338.05 124.04L340.87 124.52L343.68 125.05L346.47 125.65L349.26 126.29L352.03 127L354.78 127.75L357.53 128.55L360.24 129.42L362.95 130.33L365.63 131.28L368.29 132.31L370.94 133.39L373.57 134.51L376.18 135.68L378.76 136.91L381.32 138.19L383.85 139.53L386.36 140.9L388.85 142.33L391.31 143.81L393.73 145.35L396.15 146.93L398.52 148.56L400.87 150.24L403.18 151.98L405.47 153.76L407.73 155.59L409.94 157.46L412.23 159.47L414.47 161.53L416.66 163.6L418.82 165.73L420.93 167.89L422.99 170.09L425.02 172.32L426.98 174.59L428.92 176.9L430.8 179.23L432.63 181.61L434.44 184.01L436.18 186.44L437.87 188.9L439.52 191.42L441.12 193.93L442.68 196.5L444.18 199.08L445.63 201.69L447.03 204.33L448.39 206.99L449.7 209.69L450.96 212.39L452.16 215.13L453.31 217.88L454.4 220.68L455.46 223.48L456.45 226.31L457.39 229.15L458.28 232.01L459.11 234.9L459.89 237.81L460.63 240.72L461.3 243.66L461.92 246.61L462.48 249.57L462.98 252.55L463.43 255.56L463.81 258.57L464.15 261.59L479.26 411.26L424.23 363.52L422.92 365L421.61 366.46L420.27 367.9L418.91 369.33L417.54 370.73L416.16 372.12L414.75 373.49L413.31 374.83L411.86 376.16L410.4 377.46L408.92 378.75L407.43 380.02L404.4 382.48L402.84 383.67L401.28 384.86L399.71 386.02L398.12 387.14L396.51 388.27L394.89 389.36L393.27 390.43L391.6 391.49L389.95 392.51L388.26 393.52L386.58 394.5L384.87 395.46L383.15 396.4L381.43 397.32L379.69 398.22L377.93 399.08L376.16 399.91L374.39 400.74L372.59 401.54L370.78 402.31L368.97 403.06L367.14 403.79L365.3 404.49L363.45 405.16L359.73 406.44L361.19 408.52L362.6 410.64L363.92 412.78L365.15 414.97L366.31 417.19L367.38 419.43L368.37 421.69L369.28 423.98L370.11 426.3L370.85 428.64L371.53 430.98L372.12 433.36L372.62 435.73L373.05 438.13L373.4 440.53L373.66 442.94L373.85 445.35L373.96 447.77L373.97 450.19L373.93 452.61L373.79 455.03L373.58 457.44L373.28 459.84L372.91 462.24L372.46 464.62L371.92 466.99L371.31 469.35L370.62 471.68L369.85 474L369 476.28L368.07 478.56L367.06 480.79L365.97 483L364.82 485.19L363.56 487.34L362.24 489.46L360.84 491.54L359.36 493.59L357.81 495.58L356.18 497.54L384.02 521.7L308.89 524.73L307.37 524.77L305.86 524.8L304.34 524.78L301.32 524.68L299.81 524.57L298.32 524.45L296.83 524.3L295.33 524.13L293.84 523.91L292.37 523.68L290.89 523.41L289.43 523.13L287.96 522.8L286.51 522.44L285.07 522.07L283.62 521.67L282.19 521.24L280.77 520.8L279.35 520.31L277.95 519.79L276.56 519.26L275.19 518.7L273.81 518.11L272.44 517.5L271.09 516.85L269.75 516.19L268.42 515.51L267.11 514.79L265.8 514.04L264.5 513.28L263.23 512.49L261.98 511.67L260.73 510.83L259.5 509.97L258.27 509.07L257.08 508.16L255.89 507.22L254.72 506.25L253.56 505.26L251.34 503.25L249.21 501.16L247.2 499.01L245.27 496.79L243.46 494.52L241.75 492.18L240.14 489.79L238.63 487.35L237.22 484.87L235.93 482.34L234.74 479.77L233.64 477.17L232.65 474.54L231.78 471.86L230.99 469.16L230.32 466.43L229.75 463.69L229.29 460.94L228.94 458.16L228.68 455.37L228.53 452.58L228.5 449.79L228.57 446.98L228.74 444.19L229.02 441.41L229.42 438.63L229.91 435.86L230.53 433.1L231.24 430.36L232.06 427.65L232.99 424.97L234.03 422.31L235.18 419.69L236.44 417.1L237.8 414.55L239.28 412.03L240.86 409.57L242.57 407.15L244.37 404.8L246.29 402.48L249.32 398.98L245.86 397.21L242.46 395.37L239.11 393.44L235.84 391.42L232.62 389.34L229.47 387.16L226.39 384.92L223.37 382.59L220.41 380.21L217.54 377.73L214.72 375.2L211.98 372.59L209.29 369.92L206.7 367.18L204.17 364.38L201.73 361.51L199.35 358.59L197.05 355.61L194.83 352.56L192.7 349.47L190.63 346.32L188.66 343.12L186.77 339.87L184.96 336.56L183.23 333.21L181.6 329.81L180.04 326.37L178.58 322.89L177.21 319.36L175.92 315.81L174.72 312.2L173.63 308.55L172.62 304.89L171.7 301.18L170.89 297.44L170.17 293.68L169.55 289.88L169.01 286.06L168.59 282.2L168.27 278.34L167.98 272.32L167.92 266.37L168.1 260.45L168.53 254.61L169.17 248.81L170.06 243.07L171.15 237.42L172.47 231.83L173.99 226.33L175.75 220.91L177.69 215.58L179.83 210.34L182.17 205.2L184.71 200.18L187.42 195.26L190.32 190.46L193.41 185.77L196.66 181.21L200.09 176.77L203.68 172.47L207.44 168.33L211.35 164.31L215.4 160.47L219.61 156.76L223.97 153.22L228.46 149.84L233.09 146.63L237.84 143.59L242.73 140.73L247.75 138.06L252.87 135.59L258.09 133.3L263.46 131.22L268.9 129.34L274.46 127.68L280.09 126.22L285.84 125L291.67 123.99L297.57 123.21L303.56 122.67L306.46 122.46L309.36 122.32L312.26 122.24L315.15 122.21L318.03 122.23L320.92 122.33ZM304.83 135.21L299.73 135.67L294.64 136.32L289.57 137.17L284.55 138.22L279.55 139.46L274.6 140.89L269.7 142.51L264.86 144.33L260.08 146.33L255.35 148.53L250.72 150.91L246.16 153.49L241.68 156.27L237.31 159.23L233.03 162.36L228.87 165.71L224.79 169.24L220.85 172.96L217.02 176.85L213.33 180.94L209.8 185.17L206.49 189.51L203.36 193.94L200.45 198.46L197.72 203.07L195.21 207.74L192.9 212.49L190.78 217.31L188.87 222.19L187.17 227.11L185.65 232.1L184.34 237.11L183.23 242.16L182.31 247.24L181.6 252.34L181.08 257.46L180.75 262.59L180.63 267.71L180.69 272.86L180.96 277.97L181.41 283.08L182.08 288.18L182.92 293.23L183.97 298.27L185.21 303.26L186.63 308.21L188.26 313.11L190.07 317.95L192.07 322.73L194.28 327.46L196.65 332.09L199.24 336.66L202.01 341.13L204.97 345.5L208.12 349.79L211.45 353.96L214.98 358.02L218.7 361.96L222.59 365.79L226.68 369.48L228.17 370.77L228.92 371.39L229.67 372.03L230.44 372.65L231.2 373.26L232.75 374.47L233.52 375.07L234.31 375.66L235.1 376.24L235.89 376.83L236.67 377.4L237.47 377.96L238.29 378.53L239.09 379.09L240.71 380.18L241.54 380.72L243.18 381.79L244.02 382.31L244.85 382.8L245.68 383.32L246.52 383.83L247.38 384.33L248.22 384.81L249.08 385.3L250.78 386.24L251.66 386.71L253.39 387.63L254.26 388.07L255.15 388.5L256.03 388.95L256.9 389.37L258.7 390.2L259.58 390.61L261.65 389.21L263.75 387.9L265.9 386.68L268.06 385.51L270.26 384.43L272.48 383.43L274.73 382.52L277 381.67L279.28 380.91L281.57 380.22L283.89 379.62L286.23 379.08L288.58 378.63L290.94 378.25L293.29 377.95L295.66 377.73L298.03 377.58L300.4 377.52L302.77 377.53L305.16 377.62L307.51 377.79L309.87 378.02L312.22 378.35L314.57 378.74L316.9 379.21L319.22 379.76L321.52 380.38L323.8 381.07L326.06 381.84L328.31 382.71L330.53 383.62L332.72 384.62L334.87 385.7L337.02 386.86L339.12 388.08L341.19 389.38L343.23 390.77L345.21 392.22L347.17 393.74L349.08 395.35L351.04 397.05L352.9 396.51L354.76 395.93L356.61 395.33L358.43 394.7L360.24 394.05L362.06 393.37L363.87 392.67L365.65 391.94L367.43 391.19L369.18 390.41L370.94 389.59L372.67 388.78L374.4 387.91L376.11 387.03L377.81 386.13L379.5 385.19L381.17 384.26L382.81 383.27L384.47 382.27L386.09 381.25L387.71 380.2L389.31 379.13L390.88 378.05L392.44 376.92L394 375.77L395.52 374.62L397.04 373.44L398.55 372.22L400.04 370.99L401.51 369.74L402.95 368.47L404.36 367.18L405.78 365.86L407.18 364.53L408.55 363.16L409.92 361.79L411.25 360.38L412.57 358.96L413.87 357.52L423.12 346.86L463.84 382.19L451.8 262.99L451.47 260.23L451.12 257.47L450.69 254.73L450.23 251.98L449.7 249.27L449.12 246.56L448.51 243.87L447.83 241.19L447.1 238.53L446.33 235.9L445.5 233.27L444.64 230.65L443.72 228.08L442.76 225.5L441.73 222.95L440.68 220.42L439.57 217.92L438.41 215.43L437.2 212.96L435.96 210.53L434.66 208.1L433.34 205.71L431.94 203.35L430.51 201L429.04 198.69L427.52 196.4L425.97 194.14L424.36 191.91L422.71 189.71L421.03 187.53L419.3 185.4L417.53 183.28L415.71 181.2L413.85 179.16L411.96 177.14L410.02 175.16L408.04 173.22L406.02 171.31L403.97 169.42L401.87 167.59L397.64 164.06L393.3 160.75L388.87 157.62L384.36 154.7L379.76 151.99L375.07 149.47L370.32 147.16L365.51 145.05L360.62 143.13L355.7 141.43L350.71 139.91L345.7 138.6L340.65 137.49L335.57 136.57L330.48 135.85L325.35 135.34L320.22 135L315.1 134.89L309.95 134.95L304.83 135.21Z" id="f6WznbBRaJ"></path><path d="M301.92 281.94C309.53 288.54 321.04 287.71 327.62 280.12C334.21 272.52 333.41 261.02 325.8 254.42C318.21 247.83 306.71 248.66 300.12 256.25C293.53 263.84 294.33 275.35 301.92 281.94Z" id="b1rcArdzeb"></path><path d="M301.92 281.94C309.53 288.54 321.04 287.71 327.62 280.12C334.21 272.52 333.41 261.02 325.8 254.42C318.21 247.83 306.71 248.66 300.12 256.25C293.53 263.84 294.33 275.35 301.92 281.94Z" id="fq6S8I7Ua"></path><path d="M341.77 236.02C349.37 242.62 360.87 241.81 367.47 234.2C374.06 226.61 373.25 215.1 365.65 208.5C358.05 201.91 346.55 202.74 339.96 210.33C333.36 217.94 334.18 229.43 341.77 236.02Z" id="hzluTUx53"></path><path d="M341.77 236.02C349.37 242.62 360.87 241.81 367.47 234.2C374.06 226.61 373.25 215.1 365.65 208.5C358.05 201.91 346.55 202.74 339.96 210.33C333.36 217.94 334.18 229.43 341.77 236.02Z" id="b1CdHe76j"></path><path d="M262.16 327.76C269.76 334.36 281.26 333.55 287.86 325.94C294.45 318.35 293.63 306.86 286.03 300.26C278.43 293.67 266.94 294.48 260.35 302.08C253.75 309.68 254.57 321.17 262.16 327.76Z" id="c2W78xuxYI"></path><path d="M262.16 327.76C269.76 334.36 281.26 333.55 287.86 325.94C294.45 318.35 293.63 306.86 286.03 300.26C278.43 293.67 266.94 294.48 260.35 302.08C253.75 309.68 254.57 321.17 262.16 327.76Z" id="bm9RJRSDX"></path></defs><g><g><g><use xlink:href="#b1Y6Iz0WFl" opacity="1" fill="#000000" fill-opacity="0"></use><g><use xlink:href="#b1Y6Iz0WFl" opacity="1" fill-opacity="0" stroke="#000000" stroke-width="1" stroke-opacity="0"></use></g></g><g><use xlink:href="#b26ZQwxkIo" opacity="1" fill="#000000" fill-opacity="0"></use><g><use xlink:href="#b26ZQwxkIo" opacity="1" fill-opacity="0" stroke="#ffffff" stroke-width="5" stroke-opacity="1"></use></g></g><g><use xlink:href="#cNYE57j8q" opacity="1" fill="#ffffff" fill-opacity="1"></use><g><use xlink:href="#cNYE57j8q" opacity="1" fill-opacity="0" stroke="#000000" stroke-width="1" stroke-opacity="0"></use></g></g><g><use xlink:href="#m1iUdjkhZv" opacity="1" fill="#000000" fill-opacity="0"></use><g><use xlink:href="#m1iUdjkhZv" opacity="1" fill-opacity="0" stroke="#000000" stroke-width="1" stroke-opacity="0"></use></g></g><g><use xlink:href="#hJZh5AapR" opacity="1" fill="#ffffff" fill-opacity="1"></use><g><use xlink:href="#hJZh5AapR" opacity="1" fill-opacity="0" stroke="#000000" stroke-width="1" stroke-opacity="0"></use></g></g><g><use xlink:href="#bqxQASEvd" opacity="1" fill="#000000" fill-opacity="0"></use><g><use xlink:href="#bqxQASEvd" opacity="1" fill-opacity="0" stroke="#000000" stroke-width="1" stroke-opacity="0"></use></g></g><g><use xlink:href="#ajkJWE4QP" opacity="1" fill="#ffffff" fill-opacity="1"></use><g><use xlink:href="#ajkJWE4QP" opacity="1" fill-opacity="0" stroke="#000000" stroke-width="1" stroke-opacity="0"></use></g></g><g><use xlink:href="#ajUlNAqIj" opacity="1" fill="#000000" fill-opacity="0"></use><g><use xlink:href="#ajUlNAqIj" opacity="1" fill-opacity="0" stroke="#000000" stroke-width="1" stroke-opacity="0"></use></g></g><g><use xlink:href="#a1ENvIhtPU" opacity="1" fill="#ffffff" fill-opacity="1"></use><g><use xlink:href="#a1ENvIhtPU" opacity="1" fill-opacity="0" stroke="#000000" stroke-width="1" stroke-opacity="0"></use></g></g><g><use xlink:href="#ehvEe99Vh" opacity="1" fill="#000000" fill-opacity="0"></use><g><use xlink:href="#ehvEe99Vh" opacity="1" fill-opacity="0" stroke="#000000" stroke-width="1" stroke-opacity="0"></use></g></g><g><use xlink:href="#a3haYHsXo" opacity="1" fill="#000000" fill-opacity="0"></use><g><use xlink:href="#a3haYHsXo" opacity="1" fill-opacity="0" stroke="#000000" stroke-width="1" stroke-opacity="0"></use></g></g><g><use xlink:href="#belPZJCaR" opacity="1" fill="#000000" fill-opacity="0"></use><g><use xlink:href="#belPZJCaR" opacity="1" fill-opacity="0" stroke="#ffffff" stroke-width="8" stroke-opacity="1"></use></g></g><g><use xlink:href="#bECRvQTQk" opacity="1" fill="#ffffff" fill-opacity="1"></use><g><use xlink:href="#bECRvQTQk" opacity="1" fill-opacity="0" stroke="#000000" stroke-width="1" stroke-opacity="0"></use></g></g><g><use xlink:href="#gadCbhI7y" opacity="1" fill="#000000" fill-opacity="0"></use><g><use xlink:href="#gadCbhI7y" opacity="1" fill-opacity="0" stroke="#000000" stroke-width="1" stroke-opacity="0"></use></g></g><g><use xlink:href="#b19mliXxP6" opacity="1" fill="#ffffff" fill-opacity="1"></use><g><use xlink:href="#b19mliXxP6" opacity="1" fill-opacity="0" stroke="#000000" stroke-width="1" stroke-opacity="0"></use></g></g><g><use xlink:href="#b1xR24D3J7" opacity="1" fill="#000000" fill-opacity="0"></use><g><use xlink:href="#b1xR24D3J7" opacity="1" fill-opacity="0" stroke="#000000" stroke-width="1" stroke-opacity="0"></use></g></g><g><use xlink:href="#dATWA8fDF" opacity="1" fill="#ffffff" fill-opacity="1"></use><g><use xlink:href="#dATWA8fDF" opacity="1" fill-opacity="0" stroke="#000000" stroke-width="1" stroke-opacity="0"></use></g></g><g><use xlink:href="#daaRP6cC1" opacity="1" fill="#000000" fill-opacity="0"></use><g><use xlink:href="#daaRP6cC1" opacity="1" fill-opacity="0" stroke="#000000" stroke-width="1" stroke-opacity="0"></use></g></g><g><use xlink:href="#a3f3cPVV3n" opacity="1" fill="#ffffff" fill-opacity="1"></use><g><use xlink:href="#a3f3cPVV3n" opacity="1" fill-opacity="0" stroke="#000000" stroke-width="1" stroke-opacity="0"></use></g></g><g><use xlink:href="#a1MytkP2jX" opacity="1" fill="#000000" fill-opacity="0"></use><g><use xlink:href="#a1MytkP2jX" opacity="1" fill-opacity="0" stroke="#000000" stroke-width="1" stroke-opacity="0"></use></g></g><g><use xlink:href="#e5VVM7oQnb" opacity="1" fill="#8dc63f" fill-opacity="1"></use><g><use xlink:href="#e5VVM7oQnb" opacity="1" fill-opacity="0" stroke="#000000" stroke-width="1" stroke-opacity="0"></use></g></g><g><use xlink:href="#aaPGH9Uwr" opacity="1" fill="#000000" fill-opacity="0"></use><g><use xlink:href="#aaPGH9Uwr" opacity="1" fill-opacity="0" stroke="#000000" stroke-width="1" stroke-opacity="0"></use></g></g><g><use xlink:href="#b2ORdKSMVX" opacity="1" fill="#ffffff" fill-opacity="1"></use><g><use xlink:href="#b2ORdKSMVX" opacity="1" fill-opacity="0" stroke="#000000" stroke-width="1" stroke-opacity="0"></use></g></g><g><use xlink:href="#f6WznbBRaJ" opacity="1" fill="#000000" fill-opacity="0"></use><g><use xlink:href="#f6WznbBRaJ" opacity="1" fill-opacity="0" stroke="#000000" stroke-width="1" stroke-opacity="0"></use></g></g><g><use xlink:href="#b1rcArdzeb" opacity="1" fill="#ffffff" fill-opacity="1"></use><g><use xlink:href="#b1rcArdzeb" opacity="1" fill-opacity="0" stroke="#000000" stroke-width="1" stroke-opacity="0"></use></g></g><g><use xlink:href="#fq6S8I7Ua" opacity="1" fill="#000000" fill-opacity="0"></use><g><use xlink:href="#fq6S8I7Ua" opacity="1" fill-opacity="0" stroke="#000000" stroke-width="1" stroke-opacity="0"></use></g></g><g><use xlink:href="#hzluTUx53" opacity="1" fill="#ffffff" fill-opacity="1"></use><g><use xlink:href="#hzluTUx53" opacity="1" fill-opacity="0" stroke="#000000" stroke-width="1" stroke-opacity="0"></use></g></g><g><use xlink:href="#b1CdHe76j" opacity="1" fill="#000000" fill-opacity="0"></use><g><use xlink:href="#b1CdHe76j" opacity="1" fill-opacity="0" stroke="#000000" stroke-width="1" stroke-opacity="0"></use></g></g><g><use xlink:href="#c2W78xuxYI" opacity="1" fill="#ffffff" fill-opacity="1"></use><g><use xlink:href="#c2W78xuxYI" opacity="1" fill-opacity="0" stroke="#000000" stroke-width="1" stroke-opacity="0"></use></g></g><g><use xlink:href="#bm9RJRSDX" opacity="1" fill="#000000" fill-opacity="0"></use><g><use xlink:href="#bm9RJRSDX" opacity="1" fill-opacity="0" stroke="#000000" stroke-width="1" stroke-opacity="0"></use></g></g></g></g></svg>