<?xml version="1.0" encoding="UTF-8" standalone="no"?>
<!DOCTYPE svg PUBLIC "-//W3C//DTD SVG 1.1//EN" "http://www.w3.org/Graphics/SVG/1.1/DTD/svg11.dtd">
<svg version="1.1" xmlns="http://www.w3.org/2000/svg" xmlns:xlink="http://www.w3.org/1999/xlink" preserveAspectRatio="xMidYMid meet" viewBox="0 0 640 640" width="640" height="640"><defs><path d="M7.37 320.66C7.37 493.33 147.35 633.31 320.02 633.31C492.69 633.31 632.68 493.33 632.68 320.66C632.68 147.99 492.69 8 320.02 8C147.35 8 7.37 147.99 7.37 320.66Z" id="b6vSLWBW2W"></path><path d="M7.37 320.66C7.37 493.33 147.35 633.31 320.02 633.31C492.69 633.31 632.68 493.33 632.68 320.66C632.68 147.99 492.69 8 320.02 8C147.35 8 7.37 147.99 7.37 320.66Z" id="a3bSbaI4NJ"></path><path d="M154.39 228.89C158.32 225.89 161.78 222.34 164.71 218.36C167.79 213.33 172.2 206.51 170.8 202.04C169.41 197.58 161.97 194.2 156.43 192.8C145.46 189.79 136.76 184.77 135.39 173C133.73 161.86 139.54 150.92 149.72 146.07C160.05 139.46 173.77 142.47 180.39 152.81C181.58 154.67 182.5 156.73 183.09 158.88C183.85 161.06 184.18 163.24 184.73 165.42C188.83 181.02 198.04 183.65 209.91 172.26C218.06 164.47 225.69 156.06 233.74 148.17C240.98 138.34 254.8 136.23 264.63 143.46C266.31 144.71 267.8 146.16 269.07 147.82C276.65 154.93 283.4 163 291.48 169.37C296.32 173.18 303.97 177.8 308.75 176.39C313.53 174.99 316.68 166.84 318.39 160.97C321.71 149.38 327.68 140.78 340.07 139.93C351.86 139.13 362.68 146.45 366.31 157.69C371.31 169.14 366.1 182.47 354.65 187.47C352.81 188.28 350.87 188.84 348.9 189.13C327.49 195.07 325.49 203.12 341.68 219.21C348.75 226.24 356 232.94 362.75 239.86C371.99 246.71 373.93 259.76 367.07 269.02C365.93 270.56 364.58 271.93 363.08 273.1C355.03 281.72 346.03 289.42 338.72 298.56C334.88 303.32 333.17 309.43 334 315.49C334.97 319.24 342.39 322.6 347.52 323.9C362.35 327.62 370.15 335.77 369.24 348.7C368.09 362.34 356.9 372.96 343.21 373.35C331.23 373.47 323.75 366.25 319.98 352.73C318.35 347.23 314.84 339.13 310.88 338.23C304.49 337.97 298.24 340.25 293.54 344.55C284.54 352.04 277.13 361.28 268.65 369.4C260.97 378.42 247.41 379.51 238.4 371.82C237.64 371.16 236.91 370.47 236.25 369.71C229.83 364.05 223.01 358.81 215.76 352.82C241.34 336.95 250.15 321.22 246.51 301.76C242.19 282.29 226.73 267.22 207.16 263.38C186.91 260.14 171.58 269.26 158.67 292.21C158.01 292 157.38 291.73 156.78 291.4C128.92 266.44 120.61 259.03 154.39 228.89Z" id="bjXhTYjn"></path><path d="M154.39 228.89C158.32 225.89 161.78 222.34 164.71 218.36C167.79 213.33 172.2 206.51 170.8 202.04C169.41 197.58 161.97 194.2 156.43 192.8C145.46 189.79 136.76 184.77 135.39 173C133.73 161.86 139.54 150.92 149.72 146.07C160.05 139.46 173.77 142.47 180.39 152.81C181.58 154.67 182.5 156.73 183.09 158.88C183.85 161.06 184.18 163.24 184.73 165.42C188.83 181.02 198.04 183.65 209.91 172.26C218.06 164.47 225.69 156.06 233.74 148.17C240.98 138.34 254.8 136.23 264.63 143.46C266.31 144.71 267.8 146.16 269.07 147.82C276.65 154.93 283.4 163 291.48 169.37C296.32 173.18 303.97 177.8 308.75 176.39C313.53 174.99 316.68 166.84 318.39 160.97C321.71 149.38 327.68 140.78 340.07 139.93C351.86 139.13 362.68 146.45 366.31 157.69C371.31 169.14 366.1 182.47 354.65 187.47C352.81 188.28 350.87 188.84 348.9 189.13C327.49 195.07 325.49 203.12 341.68 219.21C348.75 226.24 356 232.94 362.75 239.86C371.99 246.71 373.93 259.76 367.07 269.02C365.93 270.56 364.58 271.93 363.08 273.1C355.03 281.72 346.03 289.42 338.72 298.56C334.88 303.32 333.17 309.43 334 315.49C334.97 319.24 342.39 322.6 347.52 323.9C362.35 327.62 370.15 335.77 369.24 348.7C368.09 362.34 356.9 372.96 343.21 373.35C331.23 373.47 323.75 366.25 319.98 352.73C318.35 347.23 314.84 339.13 310.88 338.23C304.49 337.97 298.24 340.25 293.54 344.55C284.54 352.04 277.13 361.28 268.65 369.4C260.97 378.42 247.41 379.51 238.4 371.82C237.64 371.16 236.91 370.47 236.25 369.71C229.83 364.05 223.01 358.81 215.76 352.82C241.34 336.95 250.15 321.22 246.51 301.76C242.19 282.29 226.73 267.22 207.16 263.38C186.91 260.14 171.58 269.26 158.67 292.21C158.01 292 157.38 291.73 156.78 291.4C128.92 266.44 120.61 259.03 154.39 228.89Z" id="eC85vluh2"></path><path d="M388.97 351.35C393.86 323.62 363.54 308.77 360.72 304.03C327.58 284.44 360.72 302.99 360.72 302.79C384.69 276.22 393.45 267.26 422.63 299.96C425.95 304.24 429.84 308.03 434.21 311.23C439.21 314.35 446.08 318.52 450.46 317.06C454.84 315.61 458.28 308.2 459.73 302.68C462.66 292.26 467.87 282.36 478.6 282.57C488.17 283.07 497.22 287.07 504.02 293.82C512.28 302.73 511.72 316.65 502.81 324.9C499.56 327.9 495.49 329.85 491.11 330.51C468.91 336.34 466.6 343.96 482.56 360.11C489.85 367.51 497.46 374.59 504.54 382.21C513.51 389.44 514.89 402.56 507.64 411.52C506.72 412.65 505.68 413.69 504.54 414.6C496.22 423.47 487.04 431.7 478.81 440.67C468.39 452.33 471.61 462.34 487.25 465.68C502.88 469.02 510.6 476.61 510.6 488.61C509.56 501.67 499.52 512.25 486.52 513.93C473.49 515.19 464.42 507.26 460.88 491.53C457.35 475.78 447.86 472.05 435.35 483.81C427.42 491.22 420.03 499.13 412.31 506.75C399.07 519.88 388.97 519.88 376.04 507.37C368.23 499.86 360.83 491.84 353.02 484.44C340.09 472.25 330.92 475.16 326.96 492.68C325.92 504.44 316.26 513.62 304.44 514.03C292.31 513.91 281.72 505.74 278.5 494.03C275.02 481.74 282.15 468.95 294.45 465.45C295.37 465.19 296.31 464.98 297.26 464.85C303.19 463.08 312.16 459.43 312.99 455.36C313.01 448.34 310.32 441.59 305.5 436.5C298.82 428.05 290.28 421.08 282.77 413.25C273.53 405.38 272.44 391.5 280.31 382.26C281.08 381.38 281.89 380.56 282.77 379.8C287.98 373.97 293.09 367.93 299.54 360.31C313.92 385.11 329.99 394.49 348.33 391.59C368.99 388.06 385.23 371.98 388.97 351.35Z" id="hhewCO5d9"></path><path d="M388.97 351.35C393.86 323.62 363.54 308.77 360.72 304.03C327.58 284.44 360.72 302.99 360.72 302.79C384.69 276.22 393.45 267.26 422.63 299.96C425.95 304.24 429.84 308.03 434.21 311.23C439.21 314.35 446.08 318.52 450.46 317.06C454.84 315.61 458.28 308.2 459.73 302.68C462.66 292.26 467.87 282.36 478.6 282.57C488.17 283.07 497.22 287.07 504.02 293.82C512.28 302.73 511.72 316.65 502.81 324.9C499.56 327.9 495.49 329.85 491.11 330.51C468.91 336.34 466.6 343.96 482.56 360.11C489.85 367.51 497.46 374.59 504.54 382.21C513.51 389.44 514.89 402.56 507.64 411.52C506.72 412.65 505.68 413.69 504.54 414.6C496.22 423.47 487.04 431.7 478.81 440.67C468.39 452.33 471.61 462.34 487.25 465.68C502.88 469.02 510.6 476.61 510.6 488.61C509.56 501.67 499.52 512.25 486.52 513.93C473.49 515.19 464.42 507.26 460.88 491.53C457.35 475.78 447.86 472.05 435.35 483.81C427.42 491.22 420.03 499.13 412.31 506.75C399.07 519.88 388.97 519.88 376.04 507.37C368.23 499.86 360.83 491.84 353.02 484.44C340.09 472.25 330.92 475.16 326.96 492.68C325.92 504.44 316.26 513.62 304.44 514.03C292.31 513.91 281.72 505.74 278.5 494.03C275.02 481.74 282.15 468.95 294.45 465.45C295.37 465.19 296.31 464.98 297.26 464.85C303.19 463.08 312.16 459.43 312.99 455.36C313.01 448.34 310.32 441.59 305.5 436.5C298.82 428.05 290.28 421.08 282.77 413.25C273.53 405.38 272.44 391.5 280.31 382.26C281.08 381.38 281.89 380.56 282.77 379.8C287.98 373.97 293.09 367.93 299.54 360.31C313.92 385.11 329.99 394.49 348.33 391.59C368.99 388.06 385.23 371.98 388.97 351.35Z" id="cavLuasUs"></path></defs><g><g><g><use xlink:href="#b6vSLWBW2W" opacity="1" fill="#9aca52" fill-opacity="1"></use><g><use xlink:href="#b6vSLWBW2W" opacity="1" fill-opacity="0" stroke="#000000" stroke-width="1" stroke-opacity="0"></use></g></g><g><use xlink:href="#a3bSbaI4NJ" opacity="1" fill="#000000" fill-opacity="0"></use><g><use xlink:href="#a3bSbaI4NJ" opacity="1" fill-opacity="0" stroke="#000000" stroke-width="1" stroke-opacity="0"></use></g></g><g><use xlink:href="#bjXhTYjn" opacity="1" fill="#000000" fill-opacity="0"></use><g><use xlink:href="#bjXhTYjn" opacity="1" fill-opacity="0" stroke="#000000" stroke-width="1" stroke-opacity="0"></use></g></g><g><use xlink:href="#eC85vluh2" opacity="1" fill="#000000" fill-opacity="0"></use><g><use xlink:href="#eC85vluh2" opacity="1" fill-opacity="0" stroke="#ffffff" stroke-width="10" stroke-opacity="1"></use></g></g><g><use xlink:href="#hhewCO5d9" opacity="1" fill="#000000" fill-opacity="0"></use><g><use xlink:href="#hhewCO5d9" opacity="1" fill-opacity="0" stroke="#000000" stroke-width="1" stroke-opacity="0"></use></g></g><g><use xlink:href="#cavLuasUs" opacity="1" fill="#000000" fill-opacity="0"></use><g><use xlink:href="#cavLuasUs" opacity="1" fill-opacity="0" stroke="#ffffff" stroke-width="10" stroke-opacity="1"></use></g></g></g></g></svg>