<?xml version="1.0" encoding="UTF-8" standalone="no"?>
<!DOCTYPE svg PUBLIC "-//W3C//DTD SVG 1.1//EN" "http://www.w3.org/Graphics/SVG/1.1/DTD/svg11.dtd">
<svg version="1.1" xmlns="http://www.w3.org/2000/svg" xmlns:xlink="http://www.w3.org/1999/xlink" preserveAspectRatio="xMidYMid meet" viewBox="0 0 640 640" width="640" height="640"><defs><path d="M5.28 319.86C5.28 493.67 146.18 634.57 319.98 634.57C493.79 634.57 634.69 493.67 634.69 319.86C634.69 146.06 493.79 5.16 319.98 5.16C146.18 5.16 5.28 146.06 5.28 319.86Z" id="ceIEHW71r"></path><path d="M5.28 319.86C5.28 493.67 146.18 634.57 319.98 634.57C493.79 634.57 634.69 493.67 634.69 319.86C634.69 146.06 493.79 5.16 319.98 5.16C146.18 5.16 5.28 146.06 5.28 319.86Z" id="e70LrmAFR"></path><path d="M368.14 172.4L328.83 128.71L326.44 273.06L327.18 273.3L327.9 273.54L329.35 274.06L330.05 274.35L330.78 274.64L331.47 274.93L332.17 275.26L332.84 275.59L333.53 275.93L334.88 276.66L335.53 277.04L336.84 277.83L337.48 278.26L338.1 278.67L339.34 279.57L339.94 280.02L341.7 281.46L342.27 281.98L342.83 282.48L343.38 283.01L344.45 284.08L344.97 284.65L345.49 285.2L346.49 286.37L346.97 286.96L347.43 287.56L347.9 288.18L348.79 289.42L349.22 290.06L349.64 290.71L350.03 291.37L450.4 209.41L391.75 205.47L392.68 191.22L478.69 196.94L466.11 282.12L451.33 280.24L458.41 222.31L355.34 304.78L355.56 306.02L355.75 307.28L355.89 308.52L355.99 309.76L356.06 311.02L356.1 312.26L356.08 313.5L356.05 314.72L355.96 315.96L355.84 317.19L355.7 318.39L355.51 319.6L355.29 320.8L355.03 321.99L354.74 323.18L354.41 324.35L354.05 325.52L353.65 326.68L353.22 327.81L352.77 328.93L352.27 330.04L351.76 331.14L351.19 332.22L350.6 333.29L349.98 334.34L349.33 335.36L348.66 336.37L347.95 337.37L346.43 339.3L345.62 340.23L344.8 341.15L343.94 342.02L343.06 342.89L342.13 343.73L341.2 344.54L340.22 345.33L339.22 346.09L338.2 346.81L337.15 347.52L337.15 465.87L337.53 466.13L337.91 466.37L338.29 466.63L338.65 466.89L339.03 467.15L339.39 467.4L339.75 467.68L340.11 467.94L340.47 468.21L340.82 468.51L341.18 468.78L342.21 469.66L342.54 469.95L342.89 470.26L343.87 471.19L344.5 471.83L345.43 472.81L345.73 473.14L346.04 473.48L346.62 474.17L346.9 474.52L347.19 474.86L347.74 475.59L348.02 475.93L348.29 476.31L348.81 477.03L349.33 477.79L349.81 478.55L350.69 479.98L351.48 481.44L352.22 482.92L352.89 484.42L353.51 485.94L354.05 487.45L354.53 489L354.94 490.55L355.3 492.1L355.58 493.67L355.82 495.24L355.98 496.81L356.08 498.39L356.13 499.96L356.11 501.53L356.03 503.09L355.89 504.66L355.7 506.21L355.44 507.76L355.13 509.29L354.75 510.81L354.32 512.33L353.84 513.81L353.29 515.27L352.69 516.72L352.03 518.15L351.33 519.56L350.55 520.94L349.72 522.28L348.85 523.61L347.91 524.9L346.93 526.14L345.88 527.36L344.8 528.55L343.64 529.71L342.45 530.81L341.2 531.88L339.91 532.89L338.54 533.86L337.15 534.79L335.7 535.67L334.24 536.46L332.77 537.2L331.28 537.87L329.76 538.49L328.23 539.02L326.69 539.51L325.14 539.92L323.58 540.28L322.03 540.56L320.46 540.8L318.87 540.95L317.31 541.06L315.72 541.11L314.15 541.09L312.59 541.01L311.04 540.87L309.47 540.68L307.94 540.42L306.4 540.11L304.87 539.73L303.37 539.3L301.89 538.82L300.41 538.27L298.96 537.66L297.53 537.01L296.14 536.3L294.76 535.53L293.42 534.7L292.09 533.82L290.8 532.89L289.54 531.91L288.32 530.86L287.13 529.77L285.99 528.62L284.89 527.43L283.82 526.17L282.81 524.88L281.82 523.52L280.89 522.13L280.03 520.68L279.22 519.22L278.48 517.75L277.81 516.25L277.21 514.74L276.67 513.2L276.19 511.67L275.78 510.12L275.42 508.57L275.12 507L274.9 505.44L274.73 503.85L274.62 502.28L274.59 500.7L274.61 499.13L274.68 497.56L274.81 496.01L275.02 494.45L275.28 492.91L275.59 491.38L275.97 489.85L276.4 488.35L276.88 486.87L277.43 485.39L278.02 483.94L278.69 482.51L279.39 481.11L280.17 479.74L281 478.39L281.88 477.07L282.81 475.77L283.79 474.52L284.82 473.29L285.92 472.12L287.06 470.97L288.27 469.87L289.52 468.8L290.81 467.78L292.18 466.8L293.57 465.87L293.57 348.47L292.31 347.74L291.09 346.99L289.9 346.18L288.75 345.35L287.63 344.47L286.54 343.56L285.49 342.63L284.49 341.65L283.53 340.65L282.58 339.61L281.69 338.56L280.84 337.46L280.01 336.36L279.24 335.22L278.52 334.05L277.81 332.86L277.16 331.66L276.55 330.42L275.98 329.17L275.45 327.9L274.97 326.63L274.52 325.32L274.12 324.01L273.78 322.68L273.47 321.34L273.19 319.99L272.99 318.62L272.81 317.26L272.69 315.88L272.61 314.48L272.59 313.1L272.61 311.71L272.68 310.3L272.78 308.9L272.95 307.51L273.16 306.09L273.44 304.7L273.75 303.3L274.12 301.91L274.54 300.51L178.34 217.32L184.68 275.76L170.43 277.33L161.28 192.05L247.08 189.03L247.08 203.28L188.53 206.5L282.13 287.53L282.67 286.87L283.77 285.63L284.34 285.03L285.51 283.86L286.11 283.29L286.73 282.74L287.35 282.2L287.99 281.67L288.63 281.15L289.28 280.65L289.94 280.17L290.61 279.69L291.28 279.22L291.97 278.78L292.68 278.34L294.09 277.52L294.81 277.12L295.53 276.74L296.28 276.38L297.02 276.04L297.76 275.71L298.51 275.38L299.29 275.07L300.05 274.8L300.82 274.52L301.61 274.26L302.39 274.02L303.18 273.78L303.97 273.57L304.78 273.37L306.4 273.02L307.21 272.88L308.04 272.75L308.87 272.63L309.69 272.52L310.52 272.44L312.81 129.44L272.04 171.88L261.64 161.47L321.13 99.07L378.54 162.82L368.14 172.4ZM310.61 477.22L308.47 477.74L306.4 478.44L304.44 479.34L302.56 480.39L300.81 481.61L299.17 482.97L297.67 484.49L296.29 486.13L295.09 487.88L294.02 489.74L293.14 491.73L292.43 493.77L291.92 495.91L291.59 498.13L291.49 500.41L291.59 502.68L291.92 504.88L292.43 507.04L293.14 509.09L294.02 511.07L295.09 512.93L296.29 514.69L297.67 516.32L299.17 517.84L300.81 519.2L302.56 520.42L304.44 521.47L306.4 522.37L308.47 523.07L310.61 523.59L312.83 523.9L315.1 524L315.41 523.69L317.63 523.57L319.8 523.23L321.91 522.71L323.94 521.99L325.87 521.11L327.69 520.06L329.43 518.85L331.03 517.51L332.52 516.03L333.86 514.43L335.07 512.69L336.12 510.86L336.99 508.93L337.7 506.9L338.23 504.8L338.58 502.63L338.7 500.41L338.6 498.13L338.29 495.91L337.77 493.77L337.05 491.73L336.17 489.74L335.12 487.88L333.89 486.13L332.53 484.49L331.02 482.97L329.38 481.61L327.62 480.39L325.75 479.34L323.78 478.44L321.72 477.74L319.58 477.22L317.38 476.91L315.1 476.79L312.83 476.91L310.61 477.22Z" id="b3MKTSYjZq"></path><path d="M368.14 172.4L328.83 128.71L326.44 273.06L327.18 273.3L327.9 273.54L329.35 274.06L330.05 274.35L330.78 274.64L331.47 274.93L332.17 275.26L332.84 275.59L333.53 275.93L334.88 276.66L335.53 277.04L336.84 277.83L337.48 278.26L338.1 278.67L339.34 279.57L339.94 280.02L341.7 281.46L342.27 281.98L342.83 282.48L343.38 283.01L344.45 284.08L344.97 284.65L345.49 285.2L346.49 286.37L346.97 286.96L347.43 287.56L347.9 288.18L348.79 289.42L349.22 290.06L349.64 290.71L350.03 291.37L450.4 209.41L391.75 205.47L392.68 191.22L478.69 196.94L466.11 282.12L451.33 280.24L458.41 222.31L355.34 304.78L355.56 306.02L355.75 307.28L355.89 308.52L355.99 309.76L356.06 311.02L356.1 312.26L356.08 313.5L356.05 314.72L355.96 315.96L355.84 317.19L355.7 318.39L355.51 319.6L355.29 320.8L355.03 321.99L354.74 323.18L354.41 324.35L354.05 325.52L353.65 326.68L353.22 327.81L352.77 328.93L352.27 330.04L351.76 331.14L351.19 332.22L350.6 333.29L349.98 334.34L349.33 335.36L348.66 336.37L347.95 337.37L346.43 339.3L345.62 340.23L344.8 341.15L343.94 342.02L343.06 342.89L342.13 343.73L341.2 344.54L340.22 345.33L339.22 346.09L338.2 346.81L337.15 347.52L337.15 465.87L337.53 466.13L337.91 466.37L338.29 466.63L338.65 466.89L339.03 467.15L339.39 467.4L339.75 467.68L340.11 467.94L340.47 468.21L340.82 468.51L341.18 468.78L342.21 469.66L342.54 469.95L342.89 470.26L343.87 471.19L344.5 471.83L345.43 472.81L345.73 473.14L346.04 473.48L346.62 474.17L346.9 474.52L347.19 474.86L347.74 475.59L348.02 475.93L348.29 476.31L348.81 477.03L349.33 477.79L349.81 478.55L350.69 479.98L351.48 481.44L352.22 482.92L352.89 484.42L353.51 485.94L354.05 487.45L354.53 489L354.94 490.55L355.3 492.1L355.58 493.67L355.82 495.24L355.98 496.81L356.08 498.39L356.13 499.96L356.11 501.53L356.03 503.09L355.89 504.66L355.7 506.21L355.44 507.76L355.13 509.29L354.75 510.81L354.32 512.33L353.84 513.81L353.29 515.27L352.69 516.72L352.03 518.15L351.33 519.56L350.55 520.94L349.72 522.28L348.85 523.61L347.91 524.9L346.93 526.14L345.88 527.36L344.8 528.55L343.64 529.71L342.45 530.81L341.2 531.88L339.91 532.89L338.54 533.86L337.15 534.79L335.7 535.67L334.24 536.46L332.77 537.2L331.28 537.87L329.76 538.49L328.23 539.02L326.69 539.51L325.14 539.92L323.58 540.28L322.03 540.56L320.46 540.8L318.87 540.95L317.31 541.06L315.72 541.11L314.15 541.09L312.59 541.01L311.04 540.87L309.47 540.68L307.94 540.42L306.4 540.11L304.87 539.73L303.37 539.3L301.89 538.82L300.41 538.27L298.96 537.66L297.53 537.01L296.14 536.3L294.76 535.53L293.42 534.7L292.09 533.82L290.8 532.89L289.54 531.91L288.32 530.86L287.13 529.77L285.99 528.62L284.89 527.43L283.82 526.17L282.81 524.88L281.82 523.52L280.89 522.13L280.03 520.68L279.22 519.22L278.48 517.75L277.81 516.25L277.21 514.74L276.67 513.2L276.19 511.67L275.78 510.12L275.42 508.57L275.12 507L274.9 505.44L274.73 503.85L274.62 502.28L274.59 500.7L274.61 499.13L274.68 497.56L274.81 496.01L275.02 494.45L275.28 492.91L275.59 491.38L275.97 489.85L276.4 488.35L276.88 486.87L277.43 485.39L278.02 483.94L278.69 482.51L279.39 481.11L280.17 479.74L281 478.39L281.88 477.07L282.81 475.77L283.79 474.52L284.82 473.29L285.92 472.12L287.06 470.97L288.27 469.87L289.52 468.8L290.81 467.78L292.18 466.8L293.57 465.87L293.57 348.47L292.31 347.74L291.09 346.99L289.9 346.18L288.75 345.35L287.63 344.47L286.54 343.56L285.49 342.63L284.49 341.65L283.53 340.65L282.58 339.61L281.69 338.56L280.84 337.46L280.01 336.36L279.24 335.22L278.52 334.05L277.81 332.86L277.16 331.66L276.55 330.42L275.98 329.17L275.45 327.9L274.97 326.63L274.52 325.32L274.12 324.01L273.78 322.68L273.47 321.34L273.19 319.99L272.99 318.62L272.81 317.26L272.69 315.88L272.61 314.48L272.59 313.1L272.61 311.71L272.68 310.3L272.78 308.9L272.95 307.51L273.16 306.09L273.44 304.7L273.75 303.3L274.12 301.91L274.54 300.51L178.34 217.32L184.68 275.76L170.43 277.33L161.28 192.05L247.08 189.03L247.08 203.28L188.53 206.5L282.13 287.53L282.67 286.87L283.77 285.63L284.34 285.03L285.51 283.86L286.11 283.29L286.73 282.74L287.35 282.2L287.99 281.67L288.63 281.15L289.28 280.65L289.94 280.17L290.61 279.69L291.28 279.22L291.97 278.78L292.68 278.34L294.09 277.52L294.81 277.12L295.53 276.74L296.28 276.38L297.02 276.04L297.76 275.71L298.51 275.38L299.29 275.07L300.05 274.8L300.82 274.52L301.61 274.26L302.39 274.02L303.18 273.78L303.97 273.57L304.78 273.37L306.4 273.02L307.21 272.88L308.04 272.75L308.87 272.63L309.69 272.52L310.52 272.44L312.81 129.44L272.04 171.88L261.64 161.47L321.13 99.07L378.54 162.82L368.14 172.4ZM310.61 477.22L308.47 477.74L306.4 478.44L304.44 479.34L302.56 480.39L300.81 481.61L299.17 482.97L297.67 484.49L296.29 486.13L295.09 487.88L294.02 489.74L293.14 491.73L292.43 493.77L291.92 495.91L291.59 498.13L291.49 500.41L291.59 502.68L291.92 504.88L292.43 507.04L293.14 509.09L294.02 511.07L295.09 512.93L296.29 514.69L297.67 516.32L299.17 517.84L300.81 519.2L302.56 520.42L304.44 521.47L306.4 522.37L308.47 523.07L310.61 523.59L312.83 523.9L315.1 524L315.41 523.69L317.63 523.57L319.8 523.23L321.91 522.71L323.94 521.99L325.87 521.11L327.69 520.06L329.43 518.85L331.03 517.51L332.52 516.03L333.86 514.43L335.07 512.69L336.12 510.86L336.99 508.93L337.7 506.9L338.23 504.8L338.58 502.63L338.7 500.41L338.6 498.13L338.29 495.91L337.77 493.77L337.05 491.73L336.17 489.74L335.12 487.88L333.89 486.13L332.53 484.49L331.02 482.97L329.38 481.61L327.62 480.39L325.75 479.34L323.78 478.44L321.72 477.74L319.58 477.22L317.38 476.91L315.1 476.79L312.83 476.91L310.61 477.22Z" id="b4yOHFdteG"></path></defs><g><g><g><use xlink:href="#ceIEHW71r" opacity="1" fill="#8dc63f" fill-opacity="1"></use><g><use xlink:href="#ceIEHW71r" opacity="1" fill-opacity="0" stroke="#000000" stroke-width="1" stroke-opacity="0"></use></g></g><g><use xlink:href="#e70LrmAFR" opacity="1" fill="#000000" fill-opacity="0"></use><g><use xlink:href="#e70LrmAFR" opacity="1" fill-opacity="0" stroke="#000000" stroke-width="1" stroke-opacity="0"></use></g></g><g><use xlink:href="#b3MKTSYjZq" opacity="1" fill="#ffffff" fill-opacity="1"></use><g><use xlink:href="#b3MKTSYjZq" opacity="1" fill-opacity="0" stroke="#000000" stroke-width="1" stroke-opacity="0"></use></g></g><g><use xlink:href="#b4yOHFdteG" opacity="1" fill="#000000" fill-opacity="0"></use><g><use xlink:href="#b4yOHFdteG" opacity="1" fill-opacity="0" stroke="#000000" stroke-width="1" stroke-opacity="0"></use></g></g></g></g></svg>