<?xml version="1.0" encoding="UTF-8" standalone="no"?>
<!DOCTYPE svg PUBLIC "-//W3C//DTD SVG 1.1//EN" "http://www.w3.org/Graphics/SVG/1.1/DTD/svg11.dtd">
<svg version="1.1" xmlns="http://www.w3.org/2000/svg" xmlns:xlink="http://www.w3.org/1999/xlink" preserveAspectRatio="xMidYMid meet" viewBox="0 0 640 640" width="640" height="640"><defs><path d="M6.74 318.56C6.74 491.9 147.26 632.42 320.59 632.42C493.93 632.42 634.45 491.9 634.45 318.56C634.45 145.23 493.93 4.71 320.59 4.71C147.26 4.71 6.74 145.23 6.74 318.56Z" id="al0r3p32e"></path><path d="M6.74 318.56C6.74 491.9 147.26 632.42 320.59 632.42C493.93 632.42 634.45 491.9 634.45 318.56C634.45 145.23 493.93 4.71 320.59 4.71C147.26 4.71 6.74 145.23 6.74 318.56Z" id="b3GOB2jDc9"></path><path d="M140.84 466.47L140.84 170.34L500.55 170.34L500.55 466.47L140.84 466.47ZM154.13 453.09L486.96 453.09L486.96 183.41L154.13 183.41L154.13 453.09Z" id="c7m1UUSgKD"></path><path d="M140.84 466.47L140.84 170.34L500.55 170.34L500.55 466.47L140.84 466.47ZM154.13 453.09L486.96 453.09L486.96 183.41L154.13 183.41L154.13 453.09Z" id="cbklf2HU3"></path><path d="M493.92 262.56C493.92 270.58 493.92 275.05 493.92 275.94C493.92 275.94 493.92 275.94 493.92 275.94C286.05 275.94 170.58 275.94 147.49 275.94C147.49 275.94 147.49 275.94 147.49 275.94C147.49 267.9 147.49 263.44 147.49 262.56C147.49 262.56 147.49 262.56 147.49 262.56C355.34 262.56 470.82 262.56 493.92 262.56C493.92 262.56 493.92 262.56 493.92 262.56Z" id="ajvx5Gr2A"></path><path d="M493.92 262.56C493.92 270.58 493.92 275.05 493.92 275.94C493.92 275.94 493.92 275.94 493.92 275.94C286.05 275.94 170.58 275.94 147.49 275.94C147.49 275.94 147.49 275.94 147.49 275.94C147.49 267.9 147.49 263.44 147.49 262.56C147.49 262.56 147.49 262.56 147.49 262.56C355.34 262.56 470.82 262.56 493.92 262.56C493.92 262.56 493.92 262.56 493.92 262.56Z" id="dyhIyHMms"></path><path d="M493.92 361.3C493.92 369.32 493.92 373.78 493.92 374.68C493.92 374.68 493.92 374.68 493.92 374.68C286.05 374.68 170.58 374.68 147.49 374.68C147.49 374.68 147.49 374.68 147.49 374.68C147.49 366.65 147.49 362.19 147.49 361.3C147.49 361.3 147.49 361.3 147.49 361.3C355.34 361.3 470.82 361.3 493.92 361.3C493.92 361.3 493.92 361.3 493.92 361.3Z" id="aHPgowGM"></path><path d="M493.92 361.3C493.92 369.32 493.92 373.78 493.92 374.68C493.92 374.68 493.92 374.68 493.92 374.68C286.05 374.68 170.58 374.68 147.49 374.68C147.49 374.68 147.49 374.68 147.49 374.68C147.49 366.65 147.49 362.19 147.49 361.3C147.49 361.3 147.49 361.3 147.49 361.3C355.34 361.3 470.82 361.3 493.92 361.3C493.92 361.3 493.92 361.3 493.92 361.3Z" id="a6WIoU8XIO"></path><path d="M441.12 221.99C441.12 230.31 447.85 237.04 456.15 237.04C464.46 237.04 471.19 230.31 471.19 221.99C471.19 213.7 464.46 206.97 456.15 206.97C447.85 206.97 441.12 213.7 441.12 221.99Z" id="b1H89sl1xc"></path><path d="M441.12 221.99C441.12 230.31 447.85 237.04 456.15 237.04C464.46 237.04 471.19 230.31 471.19 221.99C471.19 213.7 464.46 206.97 456.15 206.97C447.85 206.97 441.12 213.7 441.12 221.99Z" id="d4awddh7od"></path><path d="M402.32 221.99C402.32 230.31 409.05 237.04 417.37 237.04C425.66 237.04 432.41 230.31 432.41 221.99C432.41 213.7 425.66 206.97 417.37 206.97C409.05 206.97 402.32 213.7 402.32 221.99Z" id="a5bGey9vMc"></path><path d="M402.32 221.99C402.32 230.31 409.05 237.04 417.37 237.04C425.66 237.04 432.41 230.31 432.41 221.99C432.41 213.7 425.66 206.97 417.37 206.97C409.05 206.97 402.32 213.7 402.32 221.99Z" id="a2ajrDl1VE"></path><path d="M361.36 221.99C361.36 230.31 368.08 237.04 376.4 237.04C384.7 237.04 391.44 230.31 391.44 221.99C391.44 213.7 384.7 206.97 376.4 206.97C368.08 206.97 361.36 213.7 361.36 221.99Z" id="f1sNmvkYjX"></path><path d="M361.36 221.99C361.36 230.31 368.08 237.04 376.4 237.04C384.7 237.04 391.44 230.31 391.44 221.99C391.44 213.7 384.7 206.97 376.4 206.97C368.08 206.97 361.36 213.7 361.36 221.99Z" id="ayPL0UzGH"></path><path d="M442.35 318.56C442.35 326.87 449.1 333.6 457.4 333.6C465.71 333.6 472.44 326.87 472.44 318.56C472.44 310.26 465.71 303.53 457.4 303.53C449.1 303.53 442.35 310.26 442.35 318.56Z" id="i63xXwEu3T"></path><path d="M442.35 318.56C442.35 326.87 449.1 333.6 457.4 333.6C465.71 333.6 472.44 326.87 472.44 318.56C472.44 310.26 465.71 303.53 457.4 303.53C449.1 303.53 442.35 310.26 442.35 318.56Z" id="b49gXhuZN"></path><path d="M403.36 318.56C403.36 326.87 410.1 333.6 418.4 333.6C426.71 333.6 433.44 326.87 433.44 318.56C433.44 310.26 426.71 303.53 418.4 303.53C410.1 303.53 403.36 310.26 403.36 318.56Z" id="c10iiwAwo4"></path><path d="M403.36 318.56C403.36 326.87 410.1 333.6 418.4 333.6C426.71 333.6 433.44 326.87 433.44 318.56C433.44 310.26 426.71 303.53 418.4 303.53C410.1 303.53 403.36 310.26 403.36 318.56Z" id="a1lMzfMXGY"></path><path d="M362.3 318.56C362.3 326.87 369.02 333.6 377.32 333.6C385.64 333.6 392.36 326.87 392.36 318.56C392.36 310.26 385.64 303.53 377.32 303.53C369.02 303.53 362.3 310.26 362.3 318.56Z" id="mM0VuKW7T"></path><path d="M362.3 318.56C362.3 326.87 369.02 333.6 377.32 333.6C385.64 333.6 392.36 326.87 392.36 318.56C392.36 310.26 385.64 303.53 377.32 303.53C369.02 303.53 362.3 310.26 362.3 318.56Z" id="a2K1cCZcER"></path><path d="M443.29 414.09C443.29 422.4 450.02 429.13 458.34 429.13C466.63 429.13 473.38 422.4 473.38 414.09C473.38 405.79 466.63 399.05 458.34 399.05C450.02 399.05 443.29 405.79 443.29 414.09Z" id="c5KbO4o9I"></path><path d="M443.29 414.09C443.29 422.4 450.02 429.13 458.34 429.13C466.63 429.13 473.38 422.4 473.38 414.09C473.38 405.79 466.63 399.05 458.34 399.05C450.02 399.05 443.29 405.79 443.29 414.09Z" id="c2MfEn9aFt"></path><path d="M404.3 414.09C404.3 422.4 411.02 429.13 419.34 429.13C427.64 429.13 434.38 422.4 434.38 414.09C434.38 405.79 427.64 399.05 419.34 399.05C411.02 399.05 404.3 405.79 404.3 414.09Z" id="h1NNoYzc5D"></path><path d="M404.3 414.09C404.3 422.4 411.02 429.13 419.34 429.13C427.64 429.13 434.38 422.4 434.38 414.09C434.38 405.79 427.64 399.05 419.34 399.05C411.02 399.05 404.3 405.79 404.3 414.09Z" id="bDRgG07eD"></path><path d="M363.53 414.09C363.53 422.4 370.27 429.13 378.57 429.13C386.88 429.13 393.61 422.4 393.61 414.09C393.61 405.79 386.88 399.05 378.57 399.05C370.27 399.05 363.53 405.79 363.53 414.09Z" id="e2wtYOsdFV"></path><path d="M363.53 414.09C363.53 422.4 370.27 429.13 378.57 429.13C386.88 429.13 393.61 422.4 393.61 414.09C393.61 405.79 386.88 399.05 378.57 399.05C370.27 399.05 363.53 405.79 363.53 414.09Z" id="mbDA57bpT"></path><path d="M198.1 211.63C198.1 224.07 198.1 230.98 198.1 232.37C198.1 232.37 198.1 232.37 198.1 232.37C185.66 232.37 178.74 232.37 177.36 232.37C177.36 232.37 177.36 232.37 177.36 232.37C177.36 219.93 177.36 213.02 177.36 211.63C177.36 211.63 177.36 211.63 177.36 211.63C189.8 211.63 196.71 211.63 198.1 211.63C198.1 211.63 198.1 211.63 198.1 211.63Z" id="cygKKIwRa"></path><path d="M198.1 211.63C198.1 224.07 198.1 230.98 198.1 232.37C198.1 232.37 198.1 232.37 198.1 232.37C185.66 232.37 178.74 232.37 177.36 232.37C177.36 232.37 177.36 232.37 177.36 232.37C177.36 219.93 177.36 213.02 177.36 211.63C177.36 211.63 177.36 211.63 177.36 211.63C189.8 211.63 196.71 211.63 198.1 211.63C198.1 211.63 198.1 211.63 198.1 211.63Z" id="kU3XEkOn1"></path><path d="M198.1 308.2C198.1 320.64 198.1 327.55 198.1 328.93C198.1 328.93 198.1 328.93 198.1 328.93C185.66 328.93 178.74 328.93 177.36 328.93C177.36 328.93 177.36 328.93 177.36 328.93C177.36 316.49 177.36 309.58 177.36 308.2C177.36 308.2 177.36 308.2 177.36 308.2C189.8 308.2 196.71 308.2 198.1 308.2C198.1 308.2 198.1 308.2 198.1 308.2Z" id="djaVSO1Rb"></path><path d="M198.1 308.2C198.1 320.64 198.1 327.55 198.1 328.93C198.1 328.93 198.1 328.93 198.1 328.93C185.66 328.93 178.74 328.93 177.36 328.93C177.36 328.93 177.36 328.93 177.36 328.93C177.36 316.49 177.36 309.58 177.36 308.2C177.36 308.2 177.36 308.2 177.36 308.2C189.8 308.2 196.71 308.2 198.1 308.2C198.1 308.2 198.1 308.2 198.1 308.2Z" id="b2yoOC9CIT"></path><path d="M198.1 403.71C198.1 416.17 198.1 423.08 198.1 424.47C198.1 424.47 198.1 424.47 198.1 424.47C185.66 424.47 178.74 424.47 177.36 424.47C177.36 424.47 177.36 424.47 177.36 424.47C177.36 412.01 177.36 405.1 177.36 403.71C177.36 403.71 177.36 403.71 177.36 403.71C189.8 403.71 196.71 403.71 198.1 403.71C198.1 403.71 198.1 403.71 198.1 403.71Z" id="cvia5CbEU"></path><path d="M198.1 403.71C198.1 416.17 198.1 423.08 198.1 424.47C198.1 424.47 198.1 424.47 198.1 424.47C185.66 424.47 178.74 424.47 177.36 424.47C177.36 424.47 177.36 424.47 177.36 424.47C177.36 412.01 177.36 405.1 177.36 403.71C177.36 403.71 177.36 403.71 177.36 403.71C189.8 403.71 196.71 403.71 198.1 403.71C198.1 403.71 198.1 403.71 198.1 403.71Z" id="a4blcedAsr"></path></defs><g><g><g><use xlink:href="#al0r3p32e" opacity="1" fill="#8cc441" fill-opacity="1"></use><g><use xlink:href="#al0r3p32e" opacity="1" fill-opacity="0" stroke="#000000" stroke-width="1" stroke-opacity="0"></use></g></g><g><use xlink:href="#b3GOB2jDc9" opacity="1" fill="#000000" fill-opacity="0"></use><g><use xlink:href="#b3GOB2jDc9" opacity="1" fill-opacity="0" stroke="#000000" stroke-width="1" stroke-opacity="0"></use></g></g><g><use xlink:href="#c7m1UUSgKD" opacity="1" fill="#ffffff" fill-opacity="1"></use><g><use xlink:href="#c7m1UUSgKD" opacity="1" fill-opacity="0" stroke="#000000" stroke-width="1" stroke-opacity="0"></use></g></g><g><use xlink:href="#cbklf2HU3" opacity="1" fill="#000000" fill-opacity="0"></use><g><use xlink:href="#cbklf2HU3" opacity="1" fill-opacity="0" stroke="#000000" stroke-width="1" stroke-opacity="0"></use></g></g><g><use xlink:href="#ajvx5Gr2A" opacity="1" fill="#ffffff" fill-opacity="1"></use><g><use xlink:href="#ajvx5Gr2A" opacity="1" fill-opacity="0" stroke="#000000" stroke-width="1" stroke-opacity="0"></use></g></g><g><use xlink:href="#dyhIyHMms" opacity="1" fill="#000000" fill-opacity="0"></use><g><use xlink:href="#dyhIyHMms" opacity="1" fill-opacity="0" stroke="#000000" stroke-width="1" stroke-opacity="0"></use></g></g><g><use xlink:href="#aHPgowGM" opacity="1" fill="#ffffff" fill-opacity="1"></use><g><use xlink:href="#aHPgowGM" opacity="1" fill-opacity="0" stroke="#000000" stroke-width="1" stroke-opacity="0"></use></g></g><g><use xlink:href="#a6WIoU8XIO" opacity="1" fill="#000000" fill-opacity="0"></use><g><use xlink:href="#a6WIoU8XIO" opacity="1" fill-opacity="0" stroke="#000000" stroke-width="1" stroke-opacity="0"></use></g></g><g><use xlink:href="#b1H89sl1xc" opacity="1" fill="#ffffff" fill-opacity="1"></use><g><use xlink:href="#b1H89sl1xc" opacity="1" fill-opacity="0" stroke="#000000" stroke-width="1" stroke-opacity="0"></use></g></g><g><use xlink:href="#d4awddh7od" opacity="1" fill="#000000" fill-opacity="0"></use><g><use xlink:href="#d4awddh7od" opacity="1" fill-opacity="0" stroke="#000000" stroke-width="1" stroke-opacity="0"></use></g></g><g><use xlink:href="#a5bGey9vMc" opacity="1" fill="#ffffff" fill-opacity="1"></use><g><use xlink:href="#a5bGey9vMc" opacity="1" fill-opacity="0" stroke="#000000" stroke-width="1" stroke-opacity="0"></use></g></g><g><use xlink:href="#a2ajrDl1VE" opacity="1" fill="#000000" fill-opacity="0"></use><g><use xlink:href="#a2ajrDl1VE" opacity="1" fill-opacity="0" stroke="#000000" stroke-width="1" stroke-opacity="0"></use></g></g><g><use xlink:href="#f1sNmvkYjX" opacity="1" fill="#ffffff" fill-opacity="1"></use><g><use xlink:href="#f1sNmvkYjX" opacity="1" fill-opacity="0" stroke="#000000" stroke-width="1" stroke-opacity="0"></use></g></g><g><use xlink:href="#ayPL0UzGH" opacity="1" fill="#000000" fill-opacity="0"></use><g><use xlink:href="#ayPL0UzGH" opacity="1" fill-opacity="0" stroke="#000000" stroke-width="1" stroke-opacity="0"></use></g></g><g><use xlink:href="#i63xXwEu3T" opacity="1" fill="#ffffff" fill-opacity="1"></use><g><use xlink:href="#i63xXwEu3T" opacity="1" fill-opacity="0" stroke="#000000" stroke-width="1" stroke-opacity="0"></use></g></g><g><use xlink:href="#b49gXhuZN" opacity="1" fill="#000000" fill-opacity="0"></use><g><use xlink:href="#b49gXhuZN" opacity="1" fill-opacity="0" stroke="#000000" stroke-width="1" stroke-opacity="0"></use></g></g><g><use xlink:href="#c10iiwAwo4" opacity="1" fill="#ffffff" fill-opacity="1"></use><g><use xlink:href="#c10iiwAwo4" opacity="1" fill-opacity="0" stroke="#000000" stroke-width="1" stroke-opacity="0"></use></g></g><g><use xlink:href="#a1lMzfMXGY" opacity="1" fill="#000000" fill-opacity="0"></use><g><use xlink:href="#a1lMzfMXGY" opacity="1" fill-opacity="0" stroke="#000000" stroke-width="1" stroke-opacity="0"></use></g></g><g><use xlink:href="#mM0VuKW7T" opacity="1" fill="#ffffff" fill-opacity="1"></use><g><use xlink:href="#mM0VuKW7T" opacity="1" fill-opacity="0" stroke="#000000" stroke-width="1" stroke-opacity="0"></use></g></g><g><use xlink:href="#a2K1cCZcER" opacity="1" fill="#000000" fill-opacity="0"></use><g><use xlink:href="#a2K1cCZcER" opacity="1" fill-opacity="0" stroke="#000000" stroke-width="1" stroke-opacity="0"></use></g></g><g><use xlink:href="#c5KbO4o9I" opacity="1" fill="#ffffff" fill-opacity="1"></use><g><use xlink:href="#c5KbO4o9I" opacity="1" fill-opacity="0" stroke="#000000" stroke-width="1" stroke-opacity="0"></use></g></g><g><use xlink:href="#c2MfEn9aFt" opacity="1" fill="#000000" fill-opacity="0"></use><g><use xlink:href="#c2MfEn9aFt" opacity="1" fill-opacity="0" stroke="#000000" stroke-width="1" stroke-opacity="0"></use></g></g><g><use xlink:href="#h1NNoYzc5D" opacity="1" fill="#ffffff" fill-opacity="1"></use><g><use xlink:href="#h1NNoYzc5D" opacity="1" fill-opacity="0" stroke="#000000" stroke-width="1" stroke-opacity="0"></use></g></g><g><use xlink:href="#bDRgG07eD" opacity="1" fill="#000000" fill-opacity="0"></use><g><use xlink:href="#bDRgG07eD" opacity="1" fill-opacity="0" stroke="#000000" stroke-width="1" stroke-opacity="0"></use></g></g><g><use xlink:href="#e2wtYOsdFV" opacity="1" fill="#ffffff" fill-opacity="1"></use><g><use xlink:href="#e2wtYOsdFV" opacity="1" fill-opacity="0" stroke="#000000" stroke-width="1" stroke-opacity="0"></use></g></g><g><use xlink:href="#mbDA57bpT" opacity="1" fill="#000000" fill-opacity="0"></use><g><use xlink:href="#mbDA57bpT" opacity="1" fill-opacity="0" stroke="#000000" stroke-width="1" stroke-opacity="0"></use></g></g><g><use xlink:href="#cygKKIwRa" opacity="1" fill="#ffffff" fill-opacity="1"></use><g><use xlink:href="#cygKKIwRa" opacity="1" fill-opacity="0" stroke="#000000" stroke-width="1" stroke-opacity="0"></use></g></g><g><use xlink:href="#kU3XEkOn1" opacity="1" fill="#000000" fill-opacity="0"></use><g><use xlink:href="#kU3XEkOn1" opacity="1" fill-opacity="0" stroke="#000000" stroke-width="1" stroke-opacity="0"></use></g></g><g><use xlink:href="#djaVSO1Rb" opacity="1" fill="#ffffff" fill-opacity="1"></use><g><use xlink:href="#djaVSO1Rb" opacity="1" fill-opacity="0" stroke="#000000" stroke-width="1" stroke-opacity="0"></use></g></g><g><use xlink:href="#b2yoOC9CIT" opacity="1" fill="#000000" fill-opacity="0"></use><g><use xlink:href="#b2yoOC9CIT" opacity="1" fill-opacity="0" stroke="#000000" stroke-width="1" stroke-opacity="0"></use></g></g><g><use xlink:href="#cvia5CbEU" opacity="1" fill="#ffffff" fill-opacity="1"></use><g><use xlink:href="#cvia5CbEU" opacity="1" fill-opacity="0" stroke="#000000" stroke-width="1" stroke-opacity="0"></use></g></g><g><use xlink:href="#a4blcedAsr" opacity="1" fill="#000000" fill-opacity="0"></use><g><use xlink:href="#a4blcedAsr" opacity="1" fill-opacity="0" stroke="#000000" stroke-width="1" stroke-opacity="0"></use></g></g></g></g></svg>