<?xml version="1.0" encoding="UTF-8" standalone="no"?>
<!DOCTYPE svg PUBLIC "-//W3C//DTD SVG 1.1//EN" "http://www.w3.org/Graphics/SVG/1.1/DTD/svg11.dtd">
<svg version="1.1" xmlns="http://www.w3.org/2000/svg" xmlns:xlink="http://www.w3.org/1999/xlink" preserveAspectRatio="xMidYMid meet" viewBox="0 0 640 640" width="640" height="640"><defs><path d="M511.89 337.49C511.89 346.44 511.89 351.42 511.89 352.41C511.89 352.41 511.89 352.41 511.89 352.41C280.08 352.41 151.3 352.41 125.55 352.41C125.55 352.41 125.55 352.41 125.55 352.41C125.55 343.47 125.55 338.49 125.55 337.49C125.55 337.49 125.55 337.49 125.55 337.49C357.34 337.49 486.13 337.49 511.89 337.49C511.89 337.49 511.89 337.49 511.89 337.49Z" id="gbD6mZ8T"></path><path d="M511.89 337.49C511.89 346.44 511.89 351.42 511.89 352.41C511.89 352.41 511.89 352.41 511.89 352.41C280.08 352.41 151.3 352.41 125.55 352.41C125.55 352.41 125.55 352.41 125.55 352.41C125.55 343.47 125.55 338.49 125.55 337.49C125.55 337.49 125.55 337.49 125.55 337.49C357.34 337.49 486.13 337.49 511.89 337.49C511.89 337.49 511.89 337.49 511.89 337.49Z" id="dVsoLraAB"></path><path d="M453.01 182.14C453.01 191.41 460.52 198.91 469.77 198.91C479.04 198.91 486.55 191.41 486.55 182.14C486.55 172.88 479.04 165.38 469.77 165.38C460.52 165.38 453.01 172.88 453.01 182.14Z" id="fyvDbzoxd"></path><path d="M453.01 182.14C453.01 191.41 460.52 198.91 469.77 198.91C479.04 198.91 486.55 191.41 486.55 182.14C486.55 172.88 479.04 165.38 469.77 165.38C460.52 165.38 453.01 172.88 453.01 182.14Z" id="hQdhaGiZ2"></path><path d="M409.75 182.14C409.75 191.41 417.25 198.91 426.52 198.91C435.78 198.91 443.3 191.41 443.3 182.14C443.3 172.88 435.78 165.38 426.52 165.38C417.25 165.38 409.75 172.88 409.75 182.14Z" id="b1Yver8fGG"></path><path d="M409.75 182.14C409.75 191.41 417.25 198.91 426.52 198.91C435.78 198.91 443.3 191.41 443.3 182.14C443.3 172.88 435.78 165.38 426.52 165.38C417.25 165.38 409.75 172.88 409.75 182.14Z" id="aao6lF3Ya"></path><path d="M454.39 289.83C454.39 299.1 461.91 306.6 471.16 306.6C480.43 306.6 487.94 299.1 487.94 289.83C487.94 280.57 480.43 273.07 471.16 273.07C461.91 273.07 454.39 280.57 454.39 289.83Z" id="geU3bcVPR"></path><path d="M454.39 289.83C454.39 299.1 461.91 306.6 471.16 306.6C480.43 306.6 487.94 299.1 487.94 289.83C487.94 280.57 480.43 273.07 471.16 273.07C461.91 273.07 454.39 280.57 454.39 289.83Z" id="dmHXtTjDg"></path><path d="M410.9 289.83C410.9 299.1 418.42 306.6 427.67 306.6C436.94 306.6 444.45 299.1 444.45 289.83C444.45 280.57 436.94 273.07 427.67 273.07C418.42 273.07 410.9 280.57 410.9 289.83Z" id="awHBdM3V7"></path><path d="M410.9 289.83C410.9 299.1 418.42 306.6 427.67 306.6C436.94 306.6 444.45 299.1 444.45 289.83C444.45 280.57 436.94 273.07 427.67 273.07C418.42 273.07 410.9 280.57 410.9 289.83Z" id="boNoJvZyi"></path><path d="M455.43 396.37C455.43 405.64 462.94 413.14 472.21 413.14C481.46 413.14 488.99 405.64 488.99 396.37C488.99 387.11 481.46 379.59 472.21 379.59C462.94 379.59 455.43 387.11 455.43 396.37Z" id="f4vowvM9s"></path><path d="M455.43 396.37C455.43 405.64 462.94 413.14 472.21 413.14C481.46 413.14 488.99 405.64 488.99 396.37C488.99 387.11 481.46 379.59 472.21 379.59C462.94 379.59 455.43 387.11 455.43 396.37Z" id="akiWC6AUV"></path><path d="M411.94 396.37C411.94 405.64 419.45 413.14 428.72 413.14C437.97 413.14 445.49 405.64 445.49 396.37C445.49 387.11 437.97 379.59 428.72 379.59C419.45 379.59 411.94 387.11 411.94 396.37Z" id="a11Ro9e3C4"></path><path d="M411.94 396.37C411.94 405.64 419.45 413.14 428.72 413.14C437.97 413.14 445.49 405.64 445.49 396.37C445.49 387.11 437.97 379.59 428.72 379.59C419.45 379.59 411.94 387.11 411.94 396.37Z" id="dqQbrWQ08"></path><path d="M366.48 396.37C366.48 405.64 374 413.14 383.25 413.14C392.52 413.14 400.03 405.64 400.03 396.37C400.03 387.11 392.52 379.59 383.25 379.59C374 379.59 366.48 387.11 366.48 396.37Z" id="a1mkYMfHL6"></path><path d="M366.48 396.37C366.48 405.64 374 413.14 383.25 413.14C392.52 413.14 400.03 405.64 400.03 396.37C400.03 387.11 392.52 379.59 383.25 379.59C374 379.59 366.48 387.11 366.48 396.37Z" id="a2pOhfzHA8"></path><path d="M181.99 384.79C181.99 398.68 181.99 406.39 181.99 407.94C181.99 407.94 181.99 407.94 181.99 407.94C168.11 407.94 160.4 407.94 158.86 407.94C158.86 407.94 158.86 407.94 158.86 407.94C158.86 394.05 158.86 386.34 158.86 384.79C158.86 384.79 158.86 384.79 158.86 384.79C172.73 384.79 180.44 384.79 181.99 384.79C181.99 384.79 181.99 384.79 181.99 384.79Z" id="d1dFLrMClu"></path><path d="M181.99 384.79C181.99 398.68 181.99 406.39 181.99 407.94C181.99 407.94 181.99 407.94 181.99 407.94C168.11 407.94 160.4 407.94 158.86 407.94C158.86 407.94 158.86 407.94 158.86 407.94C158.86 394.05 158.86 386.34 158.86 384.79C158.86 384.79 158.86 384.79 158.86 384.79C172.73 384.79 180.44 384.79 181.99 384.79C181.99 384.79 181.99 384.79 181.99 384.79Z" id="b4Zeox6BG"></path><path d="M7.28 317.92C7.28 491.16 147.73 631.61 320.98 631.61C494.24 631.61 634.69 491.16 634.69 317.92C634.69 144.67 494.24 4.22 320.98 4.22C147.73 4.22 7.28 144.67 7.28 317.92Z" id="a4NGtN74S"></path><path d="M7.28 317.92C7.28 491.16 147.73 631.61 320.98 631.61C494.24 631.61 634.69 491.16 634.69 317.92C634.69 144.67 494.24 4.22 320.98 4.22C147.73 4.22 7.28 144.67 7.28 317.92Z" id="gah7s4GUX"></path><path d="M290.5 227.1C290.5 241.13 301.88 252.5 315.91 252.5C329.94 252.5 341.31 241.13 341.31 227.1C341.31 213.08 329.94 201.71 315.91 201.71C301.88 201.71 290.5 213.08 290.5 227.1Z" id="a143fBSydR"></path><path d="M290.5 227.1C290.5 241.13 301.88 252.5 315.91 252.5C329.94 252.5 341.31 241.13 341.31 227.1C341.31 213.08 329.94 201.71 315.91 201.71C301.88 201.71 290.5 213.08 290.5 227.1Z" id="b85rua98f5"></path><path d="M322.64 247.11C322.64 395.95 322.64 478.65 322.64 495.2C322.64 495.2 322.64 495.2 322.64 495.2C314.62 495.2 310.16 495.2 309.27 495.2C309.27 495.2 309.27 495.2 309.27 495.2C309.27 346.35 309.27 263.66 309.27 247.11C309.27 247.11 309.27 247.11 309.27 247.11C317.3 247.11 321.75 247.11 322.64 247.11C322.64 247.11 322.64 247.11 322.64 247.11Z" id="aude3lAi"></path><path d="M322.64 247.11C322.64 395.95 322.64 478.65 322.64 495.2C322.64 495.2 322.64 495.2 322.64 495.2C314.62 495.2 310.16 495.2 309.27 495.2C309.27 495.2 309.27 495.2 309.27 495.2C309.27 346.35 309.27 263.66 309.27 247.11C309.27 247.11 309.27 247.11 309.27 247.11C317.3 247.11 321.75 247.11 322.64 247.11C322.64 247.11 322.64 247.11 322.64 247.11Z" id="f1MVetQwEh"></path><path d="M315.91 411.22L163.1 498.3L315.91 225.64L468.71 498.3L315.91 411.22ZM432.63 462.75L383.08 373.17L328.96 403.54L432.63 462.75ZM301.59 403.54L248.31 373.17L197.94 462.75L301.59 403.54ZM315.17 395.87L375.61 361.36L315.71 253.24L254.73 361.36L315.17 395.87Z" id="b6mQMsrO8"></path><path d="M315.91 411.22L163.1 498.3L315.91 225.64L468.71 498.3L315.91 411.22ZM432.63 462.75L383.08 373.17L328.96 403.54L432.63 462.75ZM301.59 403.54L248.31 373.17L197.94 462.75L301.59 403.54ZM315.17 395.87L375.61 361.36L315.71 253.24L254.73 361.36L315.17 395.87Z" id="b2szdmmwHM"></path><path d="M249.55 160.97C250.53 161.89 258.24 169.36 259.2 170.29C257.22 172.26 211.09 222.12 259.2 284.33C257.28 286.01 251.49 291.05 249.55 292.73C216.5 255.02 216.5 198.67 249.55 160.97Z" id="kdwnfM80S"></path><path d="M249.55 160.97C250.53 161.89 258.24 169.36 259.2 170.29C257.22 172.26 211.09 222.12 259.2 284.33C257.28 286.01 251.49 291.05 249.55 292.73C216.5 255.02 216.5 198.67 249.55 160.97Z" id="h6CQYh139U"></path><path d="M220.31 135.36L219.42 136.38L218.32 137.67L217.01 139.21L215.54 141.05L213.9 143.14L212.15 145.48L210.3 148.09L208.36 150.92L206.35 154.01L204.31 157.33L202.26 160.86L200.2 164.62L198.18 168.61L196.2 172.8L194.3 177.19L192.49 181.78L190.81 186.55L189.25 191.53L187.86 196.66L186.64 201.98L185.64 207.48L184.85 213.13L184.34 218.93L184.08 224.89L184.11 231L184.46 237.23L185.14 243.62L186.19 250.11L187.63 256.74L189.47 263.47L191.72 270.32L194.43 277.27L197.61 284.31L201.28 291.46L205.47 298.69L210.21 306L215.48 313.37L221.36 320.82L211.72 329.01L205.25 320.89L199.45 312.83L194.28 304.83L189.69 296.92L185.71 289.09L182.26 281.34L179.34 273.7L176.92 266.17L174.98 258.73L173.49 251.43L172.42 244.24L171.77 237.2L171.48 230.3L171.53 223.55L171.91 216.96L172.58 210.52L173.52 204.27L174.72 198.19L176.13 192.3L177.74 186.6L179.51 181.11L181.45 175.82L183.5 170.73L185.63 165.89L187.82 161.27L190.07 156.91L192.34 152.78L194.59 148.89L196.82 145.29L198.98 141.94L201.06 138.87L203.02 136.09L204.86 133.6L206.52 131.4L208 129.49L209.27 127.93L210.3 126.66L211.07 125.73L211.55 125.13L211.72 124.89L221.36 134.21L220.96 134.64L220.31 135.36Z" id="c3kGzA31i"></path><path d="M220.31 135.36L219.42 136.38L218.32 137.67L217.01 139.21L215.54 141.05L213.9 143.14L212.15 145.48L210.3 148.09L208.36 150.92L206.35 154.01L204.31 157.33L202.26 160.86L200.2 164.62L198.18 168.61L196.2 172.8L194.3 177.19L192.49 181.78L190.81 186.55L189.25 191.53L187.86 196.66L186.64 201.98L185.64 207.48L184.85 213.13L184.34 218.93L184.08 224.89L184.11 231L184.46 237.23L185.14 243.62L186.19 250.11L187.63 256.74L189.47 263.47L191.72 270.32L194.43 277.27L197.61 284.31L201.28 291.46L205.47 298.69L210.21 306L215.48 313.37L221.36 320.82L211.72 329.01L205.25 320.89L199.45 312.83L194.28 304.83L189.69 296.92L185.71 289.09L182.26 281.34L179.34 273.7L176.92 266.17L174.98 258.73L173.49 251.43L172.42 244.24L171.77 237.2L171.48 230.3L171.53 223.55L171.91 216.96L172.58 210.52L173.52 204.27L174.72 198.19L176.13 192.3L177.74 186.6L179.51 181.11L181.45 175.82L183.5 170.73L185.63 165.89L187.82 161.27L190.07 156.91L192.34 152.78L194.59 148.89L196.82 145.29L198.98 141.94L201.06 138.87L203.02 136.09L204.86 133.6L206.52 131.4L208 129.49L209.27 127.93L210.3 126.66L211.07 125.73L211.55 125.13L211.72 124.89L221.36 134.21L220.96 134.64L220.31 135.36Z" id="a14wciny6x"></path><path d="M376.35 172.26C377.31 171.34 385.02 163.87 385.98 162.94C419.17 200.4 419.48 256.65 386.7 294.5C384.64 292.85 377.38 287.11 376.35 286.31C424.96 224.1 378.84 174.03 376.35 172.26Z" id="e3Et5yJlMy"></path><path d="M376.35 172.26C377.31 171.34 385.02 163.87 385.98 162.94C419.17 200.4 419.48 256.65 386.7 294.5C384.64 292.85 377.38 287.11 376.35 286.31C424.96 224.1 378.84 174.03 376.35 172.26Z" id="b1PG1KSmNc"></path><path d="M414.18 135.78C415.15 134.83 422.86 127.38 423.82 126.44C424.55 127.38 514.84 221.92 424.55 330.98C422.47 329.27 415.22 323.24 414.18 322.38C497.12 222.97 417.92 139.71 414.18 135.78Z" id="j1QFVdUyFL"></path><path d="M414.18 135.78C415.15 134.83 422.86 127.38 423.82 126.44C424.55 127.38 514.84 221.92 424.55 330.98C422.47 329.27 415.22 323.24 414.18 322.38C497.12 222.97 417.92 139.71 414.18 135.78Z" id="a68awG8p1I"></path></defs><g><g><g><use xlink:href="#gbD6mZ8T" opacity="1" fill="#ffffff" fill-opacity="1"></use><g><use xlink:href="#gbD6mZ8T" opacity="1" fill-opacity="0" stroke="#000000" stroke-width="1" stroke-opacity="0"></use></g></g><g><use xlink:href="#dVsoLraAB" opacity="1" fill="#000000" fill-opacity="0"></use><g><use xlink:href="#dVsoLraAB" opacity="1" fill-opacity="0" stroke="#000000" stroke-width="1" stroke-opacity="0"></use></g></g><g><use xlink:href="#fyvDbzoxd" opacity="1" fill="#ffffff" fill-opacity="1"></use><g><use xlink:href="#fyvDbzoxd" opacity="1" fill-opacity="0" stroke="#000000" stroke-width="1" stroke-opacity="0"></use></g></g><g><use xlink:href="#hQdhaGiZ2" opacity="1" fill="#000000" fill-opacity="0"></use><g><use xlink:href="#hQdhaGiZ2" opacity="1" fill-opacity="0" stroke="#000000" stroke-width="1" stroke-opacity="0"></use></g></g><g><use xlink:href="#b1Yver8fGG" opacity="1" fill="#ffffff" fill-opacity="1"></use><g><use xlink:href="#b1Yver8fGG" opacity="1" fill-opacity="0" stroke="#000000" stroke-width="1" stroke-opacity="0"></use></g></g><g><use xlink:href="#aao6lF3Ya" opacity="1" fill="#000000" fill-opacity="0"></use><g><use xlink:href="#aao6lF3Ya" opacity="1" fill-opacity="0" stroke="#000000" stroke-width="1" stroke-opacity="0"></use></g></g><g><use xlink:href="#geU3bcVPR" opacity="1" fill="#ffffff" fill-opacity="1"></use><g><use xlink:href="#geU3bcVPR" opacity="1" fill-opacity="0" stroke="#000000" stroke-width="1" stroke-opacity="0"></use></g></g><g><use xlink:href="#dmHXtTjDg" opacity="1" fill="#000000" fill-opacity="0"></use><g><use xlink:href="#dmHXtTjDg" opacity="1" fill-opacity="0" stroke="#000000" stroke-width="1" stroke-opacity="0"></use></g></g><g><use xlink:href="#awHBdM3V7" opacity="1" fill="#ffffff" fill-opacity="1"></use><g><use xlink:href="#awHBdM3V7" opacity="1" fill-opacity="0" stroke="#000000" stroke-width="1" stroke-opacity="0"></use></g></g><g><use xlink:href="#boNoJvZyi" opacity="1" fill="#000000" fill-opacity="0"></use><g><use xlink:href="#boNoJvZyi" opacity="1" fill-opacity="0" stroke="#000000" stroke-width="1" stroke-opacity="0"></use></g></g><g><use xlink:href="#f4vowvM9s" opacity="1" fill="#ffffff" fill-opacity="1"></use><g><use xlink:href="#f4vowvM9s" opacity="1" fill-opacity="0" stroke="#000000" stroke-width="1" stroke-opacity="0"></use></g></g><g><use xlink:href="#akiWC6AUV" opacity="1" fill="#000000" fill-opacity="0"></use><g><use xlink:href="#akiWC6AUV" opacity="1" fill-opacity="0" stroke="#000000" stroke-width="1" stroke-opacity="0"></use></g></g><g><use xlink:href="#a11Ro9e3C4" opacity="1" fill="#ffffff" fill-opacity="1"></use><g><use xlink:href="#a11Ro9e3C4" opacity="1" fill-opacity="0" stroke="#000000" stroke-width="1" stroke-opacity="0"></use></g></g><g><use xlink:href="#dqQbrWQ08" opacity="1" fill="#000000" fill-opacity="0"></use><g><use xlink:href="#dqQbrWQ08" opacity="1" fill-opacity="0" stroke="#000000" stroke-width="1" stroke-opacity="0"></use></g></g><g><use xlink:href="#a1mkYMfHL6" opacity="1" fill="#ffffff" fill-opacity="1"></use><g><use xlink:href="#a1mkYMfHL6" opacity="1" fill-opacity="0" stroke="#000000" stroke-width="1" stroke-opacity="0"></use></g></g><g><use xlink:href="#a2pOhfzHA8" opacity="1" fill="#000000" fill-opacity="0"></use><g><use xlink:href="#a2pOhfzHA8" opacity="1" fill-opacity="0" stroke="#000000" stroke-width="1" stroke-opacity="0"></use></g></g><g><use xlink:href="#d1dFLrMClu" opacity="1" fill="#ffffff" fill-opacity="1"></use><g><use xlink:href="#d1dFLrMClu" opacity="1" fill-opacity="0" stroke="#000000" stroke-width="1" stroke-opacity="0"></use></g></g><g><use xlink:href="#b4Zeox6BG" opacity="1" fill="#000000" fill-opacity="0"></use><g><use xlink:href="#b4Zeox6BG" opacity="1" fill-opacity="0" stroke="#000000" stroke-width="1" stroke-opacity="0"></use></g></g><g><use xlink:href="#a4NGtN74S" opacity="1" fill="#8cc441" fill-opacity="1"></use><g><use xlink:href="#a4NGtN74S" opacity="1" fill-opacity="0" stroke="#000000" stroke-width="1" stroke-opacity="0"></use></g></g><g><use xlink:href="#gah7s4GUX" opacity="1" fill="#000000" fill-opacity="0"></use><g><use xlink:href="#gah7s4GUX" opacity="1" fill-opacity="0" stroke="#000000" stroke-width="1" stroke-opacity="0"></use></g></g><g><use xlink:href="#a143fBSydR" opacity="1" fill="#ffffff" fill-opacity="1"></use><g><use xlink:href="#a143fBSydR" opacity="1" fill-opacity="0" stroke="#000000" stroke-width="1" stroke-opacity="0"></use></g></g><g><use xlink:href="#b85rua98f5" opacity="1" fill="#000000" fill-opacity="0"></use><g><use xlink:href="#b85rua98f5" opacity="1" fill-opacity="0" stroke="#000000" stroke-width="1" stroke-opacity="0"></use></g></g><g><use xlink:href="#aude3lAi" opacity="1" fill="#ffffff" fill-opacity="1"></use><g><use xlink:href="#aude3lAi" opacity="1" fill-opacity="0" stroke="#000000" stroke-width="1" stroke-opacity="0"></use></g></g><g><use xlink:href="#f1MVetQwEh" opacity="1" fill="#000000" fill-opacity="0"></use><g><use xlink:href="#f1MVetQwEh" opacity="1" fill-opacity="0" stroke="#000000" stroke-width="1" stroke-opacity="0"></use></g></g><g><use xlink:href="#b6mQMsrO8" opacity="1" fill="#ffffff" fill-opacity="1"></use><g><use xlink:href="#b6mQMsrO8" opacity="1" fill-opacity="0" stroke="#000000" stroke-width="1" stroke-opacity="0"></use></g></g><g><use xlink:href="#b2szdmmwHM" opacity="1" fill="#000000" fill-opacity="0"></use><g><use xlink:href="#b2szdmmwHM" opacity="1" fill-opacity="0" stroke="#000000" stroke-width="1" stroke-opacity="0"></use></g></g><g><use xlink:href="#kdwnfM80S" opacity="1" fill="#ffffff" fill-opacity="1"></use><g><use xlink:href="#kdwnfM80S" opacity="1" fill-opacity="0" stroke="#000000" stroke-width="1" stroke-opacity="0"></use></g></g><g><use xlink:href="#h6CQYh139U" opacity="1" fill="#000000" fill-opacity="0"></use><g><use xlink:href="#h6CQYh139U" opacity="1" fill-opacity="0" stroke="#000000" stroke-width="1" stroke-opacity="0"></use></g></g><g><use xlink:href="#c3kGzA31i" opacity="1" fill="#ffffff" fill-opacity="1"></use><g><use xlink:href="#c3kGzA31i" opacity="1" fill-opacity="0" stroke="#000000" stroke-width="1" stroke-opacity="0"></use></g></g><g><use xlink:href="#a14wciny6x" opacity="1" fill="#000000" fill-opacity="0"></use><g><use xlink:href="#a14wciny6x" opacity="1" fill-opacity="0" stroke="#000000" stroke-width="1" stroke-opacity="0"></use></g></g><g><use xlink:href="#e3Et5yJlMy" opacity="1" fill="#ffffff" fill-opacity="1"></use><g><use xlink:href="#e3Et5yJlMy" opacity="1" fill-opacity="0" stroke="#000000" stroke-width="1" stroke-opacity="0"></use></g></g><g><use xlink:href="#b1PG1KSmNc" opacity="1" fill="#000000" fill-opacity="0"></use><g><use xlink:href="#b1PG1KSmNc" opacity="1" fill-opacity="0" stroke="#000000" stroke-width="1" stroke-opacity="0"></use></g></g><g><use xlink:href="#j1QFVdUyFL" opacity="1" fill="#ffffff" fill-opacity="1"></use><g><use xlink:href="#j1QFVdUyFL" opacity="1" fill-opacity="0" stroke="#000000" stroke-width="1" stroke-opacity="0"></use></g></g><g><use xlink:href="#a68awG8p1I" opacity="1" fill="#000000" fill-opacity="0"></use><g><use xlink:href="#a68awG8p1I" opacity="1" fill-opacity="0" stroke="#000000" stroke-width="1" stroke-opacity="0"></use></g></g></g></g></svg>