<?xml version="1.0" encoding="UTF-8" standalone="no"?>
<!DOCTYPE svg PUBLIC "-//W3C//DTD SVG 1.1//EN" "http://www.w3.org/Graphics/SVG/1.1/DTD/svg11.dtd">
<svg version="1.1" xmlns="http://www.w3.org/2000/svg" xmlns:xlink="http://www.w3.org/1999/xlink" preserveAspectRatio="xMidYMid meet" viewBox="0 0 640 640" width="640" height="640"><defs><path d="M462.44 254.47C462.33 266.48 471.89 276.35 483.88 276.63C495.39 277.5 505.45 268.88 506.31 257.37C506.38 256.54 506.39 255.71 506.36 254.87C506.47 242.75 496.74 232.83 484.6 232.71C472.48 232.6 462.55 242.35 462.44 254.47Z" id="i1Ryjd6LnG"></path><path d="M462.44 254.47C462.33 266.48 471.89 276.35 483.88 276.63C495.39 277.5 505.45 268.88 506.31 257.37C506.38 256.54 506.39 255.71 506.36 254.87C506.47 242.75 496.74 232.83 484.6 232.71C472.48 232.6 462.55 242.35 462.44 254.47Z" id="e1lgIUU6Jm"></path><path d="M391.29 185.3C380.91 185.3 372.5 176.85 372.5 166.41C372.5 155.99 380.91 147.52 391.29 147.52C401.66 147.52 410.08 155.99 410.08 166.41C410.08 176.85 401.66 185.3 391.29 185.3Z" id="a1osEJGbW"></path><path d="M391.29 185.3C380.91 185.3 372.5 176.85 372.5 166.41C372.5 155.99 380.91 147.52 391.29 147.52C401.66 147.52 410.08 155.99 410.08 166.41C410.08 176.85 401.66 185.3 391.29 185.3Z" id="a1zOqXtqZP"></path><path d="M439.96 185.3C429.59 185.3 421.18 176.85 421.18 166.41C421.18 155.99 429.59 147.52 439.96 147.52C450.34 147.52 458.76 155.99 458.76 166.41C458.76 176.85 450.34 185.3 439.96 185.3Z" id="a1lWpzLAVt"></path><path d="M439.96 185.3C429.59 185.3 421.18 176.85 421.18 166.41C421.18 155.99 429.59 147.52 439.96 147.52C450.34 147.52 458.76 155.99 458.76 166.41C458.76 176.85 450.34 185.3 439.96 185.3Z" id="b1r847uksr"></path><path d="M336.41 267.31C336.41 276.79 344.1 284.46 353.56 284.46C363.03 284.46 370.71 276.79 370.71 267.31C370.71 257.85 363.03 250.18 353.56 250.18C344.1 250.18 336.41 257.85 336.41 267.31Z" id="b3GN1IzQU1"></path><path d="M336.41 267.31C336.41 276.79 344.1 284.46 353.56 284.46C363.03 284.46 370.71 276.79 370.71 267.31C370.71 257.85 363.03 250.18 353.56 250.18C344.1 250.18 336.41 257.85 336.41 267.31Z" id="b6sOT2PBj"></path><path d="M393.64 267.31C393.64 276.79 401.31 284.46 410.79 284.46C420.25 284.46 427.94 276.79 427.94 267.31C427.94 257.85 420.25 250.18 410.79 250.18C401.31 250.18 393.64 257.85 393.64 267.31Z" id="bpSLrUmjP"></path><path d="M393.64 267.31C393.64 276.79 401.31 284.46 410.79 284.46C420.25 284.46 427.94 276.79 427.94 267.31C427.94 257.85 420.25 250.18 410.79 250.18C401.31 250.18 393.64 257.85 393.64 267.31Z" id="afZKJGs2l"></path><path d="M321.59 640C146.56 640 4.67 498.17 4.67 323.2C4.67 148.24 146.56 6.39 321.59 6.39C496.61 6.39 638.5 148.24 638.5 323.2C638.5 498.17 496.61 640 321.59 640Z" id="c11l8uQ0b4"></path><path d="M321.59 640C146.56 640 4.67 498.17 4.67 323.2C4.67 148.24 146.56 6.39 321.59 6.39C496.61 6.39 638.5 148.24 638.5 323.2C638.5 498.17 496.61 640 321.59 640Z" id="d7iuzcvdf"></path><path d="M134.54 189.55L134.54 451.35L134.54 463.86L147.06 463.86L508.62 463.86L508.62 451.35L147.06 451.35L147.06 451.35L147.06 189.55L134.54 189.55Z" id="d4blFysha"></path><path d="M134.54 189.55L134.54 451.35L134.54 463.86L147.06 463.86L508.62 463.86L508.62 451.35L147.06 451.35L147.06 451.35L147.06 189.55L134.54 189.55Z" id="a1WQJsvVrw"></path><path d="M259.24 326.77C259.24 386.63 259.24 419.89 259.24 426.53C259.24 426.53 259.24 426.53 259.24 426.53C206.88 426.53 177.79 426.53 171.97 426.53C171.97 426.53 171.97 426.53 171.97 426.53C171.97 366.67 171.97 333.41 171.97 326.77C171.97 326.77 171.97 326.77 171.97 326.77C224.33 326.77 253.43 326.77 259.24 326.77C259.24 326.77 259.24 326.77 259.24 326.77Z" id="bbLWV9xDi"></path><path d="M259.24 326.77C259.24 386.63 259.24 419.89 259.24 426.53C259.24 426.53 259.24 426.53 259.24 426.53C206.88 426.53 177.79 426.53 171.97 426.53C171.97 426.53 171.97 426.53 171.97 426.53C171.97 366.67 171.97 333.41 171.97 326.77C171.97 326.77 171.97 326.77 171.97 326.77C224.33 326.77 253.43 326.77 259.24 326.77C259.24 326.77 259.24 326.77 259.24 326.77Z" id="d3pf7vNzE"></path><path d="M284.26 426.42L284.26 226.98L371.53 226.98L371.53 426.42L284.26 426.42ZM296.67 414.03L359.01 414.03L359.01 239.49L296.67 239.49L296.67 414.03Z" id="a2EM7SMS3E"></path><path d="M284.26 426.42L284.26 226.98L371.53 226.98L371.53 426.42L284.26 426.42ZM296.67 414.03L359.01 414.03L359.01 239.49L296.67 239.49L296.67 414.03Z" id="b185DxrdD4"></path><path d="M483.7 289.33C483.7 296.84 483.7 301 483.7 301.84C483.7 301.84 483.7 301.84 483.7 301.84C431.35 301.84 402.25 301.84 396.44 301.84C396.44 301.84 396.44 301.84 396.44 301.84C396.44 294.33 396.44 290.16 396.44 289.33C396.44 289.33 396.44 289.33 396.44 289.33C448.8 289.33 477.89 289.33 483.7 289.33C483.7 289.33 483.7 289.33 483.7 289.33Z" id="c6496uOmWa"></path><path d="M483.7 289.33C483.7 296.84 483.7 301 483.7 301.84C483.7 301.84 483.7 301.84 483.7 301.84C431.35 301.84 402.25 301.84 396.44 301.84C396.44 301.84 396.44 301.84 396.44 301.84C396.44 294.33 396.44 290.16 396.44 289.33C396.44 289.33 396.44 289.33 396.44 289.33C448.8 289.33 477.89 289.33 483.7 289.33C483.7 289.33 483.7 289.33 483.7 289.33Z" id="a1bZblov2i"></path><path d="M483.7 314.24C483.7 321.75 483.7 325.92 483.7 326.77C483.7 326.77 483.7 326.77 483.7 326.77C431.35 326.77 402.25 326.77 396.44 326.77C396.44 326.77 396.44 326.77 396.44 326.77C396.44 319.26 396.44 315.08 396.44 314.24C396.44 314.24 396.44 314.24 396.44 314.24C448.8 314.24 477.89 314.24 483.7 314.24C483.7 314.24 483.7 314.24 483.7 314.24Z" id="b1dkJbsftu"></path><path d="M483.7 314.24C483.7 321.75 483.7 325.92 483.7 326.77C483.7 326.77 483.7 326.77 483.7 326.77C431.35 326.77 402.25 326.77 396.44 326.77C396.44 326.77 396.44 326.77 396.44 326.77C396.44 319.26 396.44 315.08 396.44 314.24C396.44 314.24 396.44 314.24 396.44 314.24C448.8 314.24 477.89 314.24 483.7 314.24C483.7 314.24 483.7 314.24 483.7 314.24Z" id="aZT1e62Mu"></path><path d="M483.7 339.16C483.7 346.67 483.7 350.85 483.7 351.68C483.7 351.68 483.7 351.68 483.7 351.68C431.35 351.68 402.25 351.68 396.44 351.68C396.44 351.68 396.44 351.68 396.44 351.68C396.44 344.17 396.44 339.99 396.44 339.16C396.44 339.16 396.44 339.16 396.44 339.16C448.8 339.16 477.89 339.16 483.7 339.16C483.7 339.16 483.7 339.16 483.7 339.16Z" id="e3q3obYuLh"></path><path d="M483.7 339.16C483.7 346.67 483.7 350.85 483.7 351.68C483.7 351.68 483.7 351.68 483.7 351.68C431.35 351.68 402.25 351.68 396.44 351.68C396.44 351.68 396.44 351.68 396.44 351.68C396.44 344.17 396.44 339.99 396.44 339.16C396.44 339.16 396.44 339.16 396.44 339.16C448.8 339.16 477.89 339.16 483.7 339.16C483.7 339.16 483.7 339.16 483.7 339.16Z" id="c3dv6385u0"></path><path d="M483.7 364.09C483.7 371.58 483.7 375.76 483.7 376.59C483.7 376.59 483.7 376.59 483.7 376.59C431.35 376.59 402.25 376.59 396.44 376.59C396.44 376.59 396.44 376.59 396.44 376.59C396.44 369.08 396.44 364.92 396.44 364.09C396.44 364.09 396.44 364.09 396.44 364.09C448.8 364.09 477.89 364.09 483.7 364.09C483.7 364.09 483.7 364.09 483.7 364.09Z" id="aYZrGCp9q"></path><path d="M483.7 364.09C483.7 371.58 483.7 375.76 483.7 376.59C483.7 376.59 483.7 376.59 483.7 376.59C431.35 376.59 402.25 376.59 396.44 376.59C396.44 376.59 396.44 376.59 396.44 376.59C396.44 369.08 396.44 364.92 396.44 364.09C396.44 364.09 396.44 364.09 396.44 364.09C448.8 364.09 477.89 364.09 483.7 364.09C483.7 364.09 483.7 364.09 483.7 364.09Z" id="a1aJFHiska"></path><path d="M483.7 389C483.7 396.51 483.7 400.68 483.7 401.51C483.7 401.51 483.7 401.51 483.7 401.51C431.35 401.51 402.25 401.51 396.44 401.51C396.44 401.51 396.44 401.51 396.44 401.51C396.44 394 396.44 389.84 396.44 389C396.44 389 396.44 389 396.44 389C448.8 389 477.89 389 483.7 389C483.7 389 483.7 389 483.7 389Z" id="a8b9wqkleO"></path><path d="M483.7 389C483.7 396.51 483.7 400.68 483.7 401.51C483.7 401.51 483.7 401.51 483.7 401.51C431.35 401.51 402.25 401.51 396.44 401.51C396.44 401.51 396.44 401.51 396.44 401.51C396.44 394 396.44 389.84 396.44 389C396.44 389 396.44 389 396.44 389C448.8 389 477.89 389 483.7 389C483.7 389 483.7 389 483.7 389Z" id="oCYQt9qwo"></path><path d="M483.7 414.03C483.7 421.54 483.7 425.7 483.7 426.53C483.7 426.53 483.7 426.53 483.7 426.53C431.35 426.53 402.25 426.53 396.44 426.53C396.44 426.53 396.44 426.53 396.44 426.53C396.44 419.02 396.44 414.86 396.44 414.03C396.44 414.03 396.44 414.03 396.44 414.03C448.8 414.03 477.89 414.03 483.7 414.03C483.7 414.03 483.7 414.03 483.7 414.03Z" id="bgdiF6FG"></path><path d="M483.7 414.03C483.7 421.54 483.7 425.7 483.7 426.53C483.7 426.53 483.7 426.53 483.7 426.53C431.35 426.53 402.25 426.53 396.44 426.53C396.44 426.53 396.44 426.53 396.44 426.53C396.44 419.02 396.44 414.86 396.44 414.03C396.44 414.03 396.44 414.03 396.44 414.03C448.8 414.03 477.89 414.03 483.7 414.03C483.7 414.03 483.7 414.03 483.7 414.03Z" id="f1vLJhNveY"></path></defs><g><g><g><use xlink:href="#i1Ryjd6LnG" opacity="1" fill="#000000" fill-opacity="0"></use><g><use xlink:href="#i1Ryjd6LnG" opacity="1" fill-opacity="0" stroke="#000000" stroke-width="1" stroke-opacity="0"></use></g></g><g><use xlink:href="#e1lgIUU6Jm" opacity="1" fill="#000000" fill-opacity="0"></use><g><use xlink:href="#e1lgIUU6Jm" opacity="1" fill-opacity="0" stroke="#ffffff" stroke-width="5" stroke-opacity="1"></use></g></g><g><use xlink:href="#a1osEJGbW" opacity="1" fill="#ffffff" fill-opacity="1"></use><g><use xlink:href="#a1osEJGbW" opacity="1" fill-opacity="0" stroke="#000000" stroke-width="1" stroke-opacity="0"></use></g></g><g><use xlink:href="#a1zOqXtqZP" opacity="1" fill="#000000" fill-opacity="0"></use><g><use xlink:href="#a1zOqXtqZP" opacity="1" fill-opacity="0" stroke="#000000" stroke-width="1" stroke-opacity="0"></use></g></g><g><use xlink:href="#a1lWpzLAVt" opacity="1" fill="#ffffff" fill-opacity="1"></use><g><use xlink:href="#a1lWpzLAVt" opacity="1" fill-opacity="0" stroke="#000000" stroke-width="1" stroke-opacity="0"></use></g></g><g><use xlink:href="#b1r847uksr" opacity="1" fill="#000000" fill-opacity="0"></use><g><use xlink:href="#b1r847uksr" opacity="1" fill-opacity="0" stroke="#000000" stroke-width="1" stroke-opacity="0"></use></g></g><g><use xlink:href="#b3GN1IzQU1" opacity="1" fill="#ffffff" fill-opacity="1"></use><g><use xlink:href="#b3GN1IzQU1" opacity="1" fill-opacity="0" stroke="#000000" stroke-width="1" stroke-opacity="0"></use></g></g><g><use xlink:href="#b6sOT2PBj" opacity="1" fill="#000000" fill-opacity="0"></use><g><use xlink:href="#b6sOT2PBj" opacity="1" fill-opacity="0" stroke="#000000" stroke-width="1" stroke-opacity="0"></use></g></g><g><use xlink:href="#bpSLrUmjP" opacity="1" fill="#ffffff" fill-opacity="1"></use><g><use xlink:href="#bpSLrUmjP" opacity="1" fill-opacity="0" stroke="#000000" stroke-width="1" stroke-opacity="0"></use></g></g><g><use xlink:href="#afZKJGs2l" opacity="1" fill="#000000" fill-opacity="0"></use><g><use xlink:href="#afZKJGs2l" opacity="1" fill-opacity="0" stroke="#000000" stroke-width="1" stroke-opacity="0"></use></g></g><g><use xlink:href="#c11l8uQ0b4" opacity="1" fill="#8dc63f" fill-opacity="1"></use><g><use xlink:href="#c11l8uQ0b4" opacity="1" fill-opacity="0" stroke="#000000" stroke-width="1" stroke-opacity="0"></use></g></g><g><use xlink:href="#d7iuzcvdf" opacity="1" fill="#000000" fill-opacity="0"></use><g><use xlink:href="#d7iuzcvdf" opacity="1" fill-opacity="0" stroke="#000000" stroke-width="1" stroke-opacity="0"></use></g></g><g><use xlink:href="#d4blFysha" opacity="1" fill="#ffffff" fill-opacity="1"></use><g><use xlink:href="#d4blFysha" opacity="1" fill-opacity="0" stroke="#000000" stroke-width="1" stroke-opacity="0"></use></g></g><g><use xlink:href="#a1WQJsvVrw" opacity="1" fill="#000000" fill-opacity="0"></use><g><use xlink:href="#a1WQJsvVrw" opacity="1" fill-opacity="0" stroke="#000000" stroke-width="1" stroke-opacity="0"></use></g></g><g><use xlink:href="#bbLWV9xDi" opacity="1" fill="#ffffff" fill-opacity="1"></use><g><use xlink:href="#bbLWV9xDi" opacity="1" fill-opacity="0" stroke="#000000" stroke-width="1" stroke-opacity="0"></use></g></g><g><use xlink:href="#d3pf7vNzE" opacity="1" fill="#000000" fill-opacity="0"></use><g><use xlink:href="#d3pf7vNzE" opacity="1" fill-opacity="0" stroke="#000000" stroke-width="1" stroke-opacity="0"></use></g></g><g><use xlink:href="#a2EM7SMS3E" opacity="1" fill="#ffffff" fill-opacity="1"></use><g><use xlink:href="#a2EM7SMS3E" opacity="1" fill-opacity="0" stroke="#000000" stroke-width="1" stroke-opacity="0"></use></g></g><g><use xlink:href="#b185DxrdD4" opacity="1" fill="#000000" fill-opacity="0"></use><g><use xlink:href="#b185DxrdD4" opacity="1" fill-opacity="0" stroke="#000000" stroke-width="1" stroke-opacity="0"></use></g></g><g><use xlink:href="#c6496uOmWa" opacity="1" fill="#ffffff" fill-opacity="1"></use><g><use xlink:href="#c6496uOmWa" opacity="1" fill-opacity="0" stroke="#000000" stroke-width="1" stroke-opacity="0"></use></g></g><g><use xlink:href="#a1bZblov2i" opacity="1" fill="#000000" fill-opacity="0"></use><g><use xlink:href="#a1bZblov2i" opacity="1" fill-opacity="0" stroke="#000000" stroke-width="1" stroke-opacity="0"></use></g></g><g><use xlink:href="#b1dkJbsftu" opacity="1" fill="#ffffff" fill-opacity="1"></use><g><use xlink:href="#b1dkJbsftu" opacity="1" fill-opacity="0" stroke="#000000" stroke-width="1" stroke-opacity="0"></use></g></g><g><use xlink:href="#aZT1e62Mu" opacity="1" fill="#000000" fill-opacity="0"></use><g><use xlink:href="#aZT1e62Mu" opacity="1" fill-opacity="0" stroke="#000000" stroke-width="1" stroke-opacity="0"></use></g></g><g><use xlink:href="#e3q3obYuLh" opacity="1" fill="#ffffff" fill-opacity="1"></use><g><use xlink:href="#e3q3obYuLh" opacity="1" fill-opacity="0" stroke="#000000" stroke-width="1" stroke-opacity="0"></use></g></g><g><use xlink:href="#c3dv6385u0" opacity="1" fill="#000000" fill-opacity="0"></use><g><use xlink:href="#c3dv6385u0" opacity="1" fill-opacity="0" stroke="#000000" stroke-width="1" stroke-opacity="0"></use></g></g><g><use xlink:href="#aYZrGCp9q" opacity="1" fill="#ffffff" fill-opacity="1"></use><g><use xlink:href="#aYZrGCp9q" opacity="1" fill-opacity="0" stroke="#000000" stroke-width="1" stroke-opacity="0"></use></g></g><g><use xlink:href="#a1aJFHiska" opacity="1" fill="#000000" fill-opacity="0"></use><g><use xlink:href="#a1aJFHiska" opacity="1" fill-opacity="0" stroke="#000000" stroke-width="1" stroke-opacity="0"></use></g></g><g><use xlink:href="#a8b9wqkleO" opacity="1" fill="#ffffff" fill-opacity="1"></use><g><use xlink:href="#a8b9wqkleO" opacity="1" fill-opacity="0" stroke="#000000" stroke-width="1" stroke-opacity="0"></use></g></g><g><use xlink:href="#oCYQt9qwo" opacity="1" fill="#000000" fill-opacity="0"></use><g><use xlink:href="#oCYQt9qwo" opacity="1" fill-opacity="0" stroke="#000000" stroke-width="1" stroke-opacity="0"></use></g></g><g><use xlink:href="#bgdiF6FG" opacity="1" fill="#ffffff" fill-opacity="1"></use><g><use xlink:href="#bgdiF6FG" opacity="1" fill-opacity="0" stroke="#000000" stroke-width="1" stroke-opacity="0"></use></g></g><g><use xlink:href="#f1vLJhNveY" opacity="1" fill="#000000" fill-opacity="0"></use><g><use xlink:href="#f1vLJhNveY" opacity="1" fill-opacity="0" stroke="#000000" stroke-width="1" stroke-opacity="0"></use></g></g></g></g></svg>