<?xml version="1.0" encoding="UTF-8" standalone="no"?>
<!DOCTYPE svg PUBLIC "-//W3C//DTD SVG 1.1//EN" "http://www.w3.org/Graphics/SVG/1.1/DTD/svg11.dtd">
<svg version="1.1" xmlns="http://www.w3.org/2000/svg" xmlns:xlink="http://www.w3.org/1999/xlink" preserveAspectRatio="xMidYMid meet" viewBox="0 0 640 640" width="640" height="640"><defs><path d="M401.21 275.89L401.77 276.09L402.31 276.3L402.85 276.53L403.38 276.74L403.92 276.98L404.46 277.21L405 277.45L405.52 277.69L406.06 277.94L406.58 278.2L407.1 278.44L407.62 278.72L408.14 278.98L408.64 279.25L409.17 279.52L409.67 279.81L410.19 280.09L411.7 280.97L412.19 281.27L412.69 281.58L413.66 282.21L415.12 283.2L416.06 283.86L416.54 284.2L417.01 284.55L417.46 284.9L417.93 285.26L418.39 285.63L418.85 285.99L419.31 286.36L419.76 286.74L420.19 287.1L420.64 287.48L445 279.55L462.88 307.66L441.96 325.54L442.02 325.8L442.08 326.32L442.14 326.58L442.35 328.15L442.36 328.41L442.43 328.93L442.45 329.19L442.48 329.45L442.5 329.71L442.54 329.97L442.57 330.49L442.61 330.75L442.64 331.27L442.66 331.55L442.73 332.59L442.73 332.85L442.76 333.37L442.76 333.63L442.78 333.89L442.78 334.43L442.8 334.69L442.8 336.26L442.76 336.78L442.74 337.05L442.68 338.1L442.64 338.36L442.61 338.88L442.57 339.12L442.55 339.38L442.48 339.9L442.47 340.16L442.15 342.51L442.12 342.75L442.07 343.01L442.03 343.27L441.98 343.53L441.95 343.79L441.89 344.05L441.86 344.29L441.65 345.34L441.6 345.58L441.44 346.36L462.36 364.23L445 392.77L420.64 384.83L420.19 385.22L419.76 385.58L419.31 385.96L418.85 386.33L418.39 386.69L417.93 387.06L417.46 387.4L417.01 387.77L416.54 388.12L416.06 388.45L415.59 388.79L415.12 389.12L413.66 390.11L412.69 390.74L412.19 391.05L411.7 391.35L410.19 392.23L409.67 392.51L409.17 392.79L408.64 393.06L408.14 393.34L406.06 394.38L405.52 394.63L405 394.87L404.46 395.11L402.31 396.02L401.77 396.22L401.21 396.43L400.68 396.64L394.81 420.27L361.66 420.27L356.23 396.64L355.69 396.43L355.13 396.22L354.6 396L354.06 395.79L353.52 395.56L352.98 395.32L352.44 395.1L351.9 394.85L351.38 394.61L350.85 394.35L350.32 394.11L349.8 393.85L349.28 393.57L348.76 393.31L348.24 393.03L347.74 392.75L347.22 392.47L345.2 391.29L344.7 390.98L343.24 390.04L341.78 389.05L341.31 388.72L340.83 388.38L339.89 387.68L339.42 387.32L338.97 386.97L338.5 386.61L338.05 386.24L337.6 385.86L337.15 385.49L336.71 385.11L336.26 384.73L311.9 392.67L294.54 364.12L315.46 346.26L315.29 345.25L315.01 343.23L314.8 341.22L314.73 340.21L314.7 339.69L314.66 339.19L314.59 337.18L314.59 335.14L314.66 333.13L314.7 332.61L314.8 331.1L315.01 329.08L315.29 327.07L315.46 326.06L294.54 308.2L311.9 279.65L336.26 287.59L336.71 287.21L337.15 286.84L337.6 286.46L338.05 286.1L338.52 285.73L338.97 285.37L339.44 285L339.89 284.65L340.36 284.31L340.85 283.96L341.78 283.3L343.24 282.31L344.21 281.69L344.72 281.37L345.2 281.08L346.71 280.19L347.23 279.91L347.74 279.62L348.26 279.36L348.76 279.08L349.28 278.82L349.8 278.54L350.32 278.3L350.85 278.04L351.38 277.8L351.9 277.55L352.44 277.31L352.98 277.08L353.52 276.84L354.06 276.63L354.6 276.41L355.13 276.2L355.69 275.99L356.23 275.78L361.66 252.15L394.81 252.15L400.68 275.68L401.21 275.89ZM361.66 277.03L361.04 279.97L358.22 281.01L357.72 281.18L357.24 281.37L356.73 281.56L355.76 281.95L355.26 282.15L354.77 282.35L354.3 282.57L353.33 282.99L352.86 283.21L352.37 283.44L351.9 283.68L351.44 283.91L350.03 284.64L349.58 284.9L349.11 285.16L348.66 285.42L348.19 285.68L347.74 285.94L347.29 286.22L346.85 286.49L346.4 286.77L345.95 287.07L345.52 287.35L344.21 288.23L343.35 288.86L342.93 289.17L342.49 289.48L342.08 289.79L341.24 290.45L340.85 290.78L340.43 291.13L340.03 291.46L337.62 293.56L334.59 292.61L314.42 286.03L301.76 306.93L318.71 322.09L321 324.08L321 327.12L320.93 327.57L320.84 328.03L320.77 328.49L320.7 328.95L320.65 329.4L320.6 329.87L320.55 330.32L320.5 330.79L320.44 331.24L320.41 331.71L320.36 332.16L320.32 332.63L320.31 333.08L320.27 333.55L320.25 334.02L320.24 334.47L320.22 334.94L320.22 335.39L320.2 335.86L320.2 336.78L320.22 337.24L320.22 337.7L320.24 338.17L320.25 338.62L320.27 339.09L320.31 339.55L320.32 340.01L320.36 340.47L320.41 340.93L320.44 341.39L320.5 341.85L320.55 342.31L320.6 342.77L320.65 343.23L320.7 343.69L320.77 344.14L320.84 344.61L320.93 345.06L321 345.51L321 348.55L318.71 350.53L301.76 365.27L314.42 386.19L334.7 379.59L337.72 378.65L340.13 380.75L340.53 381.08L340.95 381.43L341.37 381.76L341.77 382.09L342.18 382.4L342.62 382.73L343.45 383.36L343.88 383.67L344.32 383.97L344.75 384.28L345.62 384.87L346.05 385.15L346.51 385.44L346.96 385.72L347.39 386L347.84 386.28L348.29 386.54L348.76 386.8L349.21 387.06L349.68 387.32L350.13 387.58L351.54 388.31L352.48 388.76L352.96 389L353.43 389.21L353.92 389.44L354.41 389.64L354.87 389.85L355.36 390.06L355.86 390.27L356.84 390.65L357.34 390.84L357.83 391.03L358.33 391.21L361.14 392.25L361.78 395.18L366.16 414.42L390.85 414.42L395.22 395.18L395.87 392.25L398.68 391.21L399.18 391.03L399.67 390.84L400.17 390.65L401.14 390.27L401.65 390.06L402.13 389.85L402.6 389.64L403.09 389.44L403.58 389.21L404.04 389L404.53 388.76L405.47 388.31L406.87 387.58L407.33 387.32L407.79 387.06L408.25 386.8L408.71 386.54L409.17 386.28L409.62 386L410.05 385.72L410.5 385.44L410.95 385.15L411.39 384.87L412.26 384.28L412.69 383.97L413.12 383.67L413.56 383.36L413.98 383.05L414.41 382.73L414.83 382.4L415.24 382.09L415.64 381.76L416.06 381.43L416.48 381.08L416.87 380.75L419.29 378.65L422.31 379.59L442.48 386.19L455.14 365.27L437.78 350.01L435.49 348.03L435.49 344.99L435.56 344.54L435.64 344.09L435.71 343.62L435.76 343.17L435.83 342.7L435.94 341.79L435.99 341.32L436.04 340.87L436.08 340.4L436.13 339.95L436.16 339.48L436.18 339.02L436.22 338.56L436.23 338.1L436.25 337.64L436.27 337.18L436.27 336.72L436.29 336.26L436.29 335.33L436.27 334.87L436.27 334.41L436.23 333.48L436.22 333.03L436.18 332.56L436.16 332.11L436.13 331.64L436.08 331.19L436.04 330.72L435.99 330.27L435.94 329.8L435.89 329.34L435.83 328.88L435.76 328.42L435.71 327.96L435.64 327.5L435.56 327.05L435.49 326.58L435.49 323.56L437.78 321.57L454.72 306.83L442.07 285.92L421.89 292.5L418.85 293.46L416.46 291.36L416.06 291.03L415.64 290.68L415.23 290.35L414.83 290.02L414.41 289.69L413.98 289.38L413.14 288.75L412.27 288.13L410.54 286.95L409.63 286.39L409.2 286.11L408.75 285.84L408.3 285.57L407.83 285.31L407.38 285.05L406.91 284.79L406.46 284.53L405.05 283.8L404.58 283.58L404.11 283.33L403.63 283.11L403.16 282.88L402.19 282.47L401.7 282.24L401.21 282.05L400.73 281.84L399.76 281.46L399.25 281.27L398.77 281.08L398.26 280.9L395.45 279.86L394.81 276.93L390.74 257.79L366.06 257.79L361.66 277.03Z" id="c1FtGL4wmq"></path><path d="M401.21 275.89L401.77 276.09L402.31 276.3L402.85 276.53L403.38 276.74L403.92 276.98L404.46 277.21L405 277.45L405.52 277.69L406.06 277.94L406.58 278.2L407.1 278.44L407.62 278.72L408.14 278.98L408.64 279.25L409.17 279.52L409.67 279.81L410.19 280.09L411.7 280.97L412.19 281.27L412.69 281.58L413.66 282.21L415.12 283.2L416.06 283.86L416.54 284.2L417.01 284.55L417.46 284.9L417.93 285.26L418.39 285.63L418.85 285.99L419.31 286.36L419.76 286.74L420.19 287.1L420.64 287.48L445 279.55L462.88 307.66L441.96 325.54L442.02 325.8L442.08 326.32L442.14 326.58L442.35 328.15L442.36 328.41L442.43 328.93L442.45 329.19L442.48 329.45L442.5 329.71L442.54 329.97L442.57 330.49L442.61 330.75L442.64 331.27L442.66 331.55L442.73 332.59L442.73 332.85L442.76 333.37L442.76 333.63L442.78 333.89L442.78 334.43L442.8 334.69L442.8 336.26L442.76 336.78L442.74 337.05L442.68 338.1L442.64 338.36L442.61 338.88L442.57 339.12L442.55 339.38L442.48 339.9L442.47 340.16L442.15 342.51L442.12 342.75L442.07 343.01L442.03 343.27L441.98 343.53L441.95 343.79L441.89 344.05L441.86 344.29L441.65 345.34L441.6 345.58L441.44 346.36L462.36 364.23L445 392.77L420.64 384.83L420.19 385.22L419.76 385.58L419.31 385.96L418.85 386.33L418.39 386.69L417.93 387.06L417.46 387.4L417.01 387.77L416.54 388.12L416.06 388.45L415.59 388.79L415.12 389.12L413.66 390.11L412.69 390.74L412.19 391.05L411.7 391.35L410.19 392.23L409.67 392.51L409.17 392.79L408.64 393.06L408.14 393.34L406.06 394.38L405.52 394.63L405 394.87L404.46 395.11L402.31 396.02L401.77 396.22L401.21 396.43L400.68 396.64L394.81 420.27L361.66 420.27L356.23 396.64L355.69 396.43L355.13 396.22L354.6 396L354.06 395.79L353.52 395.56L352.98 395.32L352.44 395.1L351.9 394.85L351.38 394.61L350.85 394.35L350.32 394.11L349.8 393.85L349.28 393.57L348.76 393.31L348.24 393.03L347.74 392.75L347.22 392.47L345.2 391.29L344.7 390.98L343.24 390.04L341.78 389.05L341.31 388.72L340.83 388.38L339.89 387.68L339.42 387.32L338.97 386.97L338.5 386.61L338.05 386.24L337.6 385.86L337.15 385.49L336.71 385.11L336.26 384.73L311.9 392.67L294.54 364.12L315.46 346.26L315.29 345.25L315.01 343.23L314.8 341.22L314.73 340.21L314.7 339.69L314.66 339.19L314.59 337.18L314.59 335.14L314.66 333.13L314.7 332.61L314.8 331.1L315.01 329.08L315.29 327.07L315.46 326.06L294.54 308.2L311.9 279.65L336.26 287.59L336.71 287.21L337.15 286.84L337.6 286.46L338.05 286.1L338.52 285.73L338.97 285.37L339.44 285L339.89 284.65L340.36 284.31L340.85 283.96L341.78 283.3L343.24 282.31L344.21 281.69L344.72 281.37L345.2 281.08L346.71 280.19L347.23 279.91L347.74 279.62L348.26 279.36L348.76 279.08L349.28 278.82L349.8 278.54L350.32 278.3L350.85 278.04L351.38 277.8L351.9 277.55L352.44 277.31L352.98 277.08L353.52 276.84L354.06 276.63L354.6 276.41L355.13 276.2L355.69 275.99L356.23 275.78L361.66 252.15L394.81 252.15L400.68 275.68L401.21 275.89ZM361.66 277.03L361.04 279.97L358.22 281.01L357.72 281.18L357.24 281.37L356.73 281.56L355.76 281.95L355.26 282.15L354.77 282.35L354.3 282.57L353.33 282.99L352.86 283.21L352.37 283.44L351.9 283.68L351.44 283.91L350.03 284.64L349.58 284.9L349.11 285.16L348.66 285.42L348.19 285.68L347.74 285.94L347.29 286.22L346.85 286.49L346.4 286.77L345.95 287.07L345.52 287.35L344.21 288.23L343.35 288.86L342.93 289.17L342.49 289.48L342.08 289.79L341.24 290.45L340.85 290.78L340.43 291.13L340.03 291.46L337.62 293.56L334.59 292.61L314.42 286.03L301.76 306.93L318.71 322.09L321 324.08L321 327.12L320.93 327.57L320.84 328.03L320.77 328.49L320.7 328.95L320.65 329.4L320.6 329.87L320.55 330.32L320.5 330.79L320.44 331.24L320.41 331.71L320.36 332.16L320.32 332.63L320.31 333.08L320.27 333.55L320.25 334.02L320.24 334.47L320.22 334.94L320.22 335.39L320.2 335.86L320.2 336.78L320.22 337.24L320.22 337.7L320.24 338.17L320.25 338.62L320.27 339.09L320.31 339.55L320.32 340.01L320.36 340.47L320.41 340.93L320.44 341.39L320.5 341.85L320.55 342.31L320.6 342.77L320.65 343.23L320.7 343.69L320.77 344.14L320.84 344.61L320.93 345.06L321 345.51L321 348.55L318.71 350.53L301.76 365.27L314.42 386.19L334.7 379.59L337.72 378.65L340.13 380.75L340.53 381.08L340.95 381.43L341.37 381.76L341.77 382.09L342.18 382.4L342.62 382.73L343.45 383.36L343.88 383.67L344.32 383.97L344.75 384.28L345.62 384.87L346.05 385.15L346.51 385.44L346.96 385.72L347.39 386L347.84 386.28L348.29 386.54L348.76 386.8L349.21 387.06L349.68 387.32L350.13 387.58L351.54 388.31L352.48 388.76L352.96 389L353.43 389.21L353.92 389.44L354.41 389.64L354.87 389.85L355.36 390.06L355.86 390.27L356.84 390.65L357.34 390.84L357.83 391.03L358.33 391.21L361.14 392.25L361.78 395.18L366.16 414.42L390.85 414.42L395.22 395.18L395.87 392.25L398.68 391.21L399.18 391.03L399.67 390.84L400.17 390.65L401.14 390.27L401.65 390.06L402.13 389.85L402.6 389.64L403.09 389.44L403.58 389.21L404.04 389L404.53 388.76L405.47 388.31L406.87 387.58L407.33 387.32L407.79 387.06L408.25 386.8L408.71 386.54L409.17 386.28L409.62 386L410.05 385.72L410.5 385.44L410.95 385.15L411.39 384.87L412.26 384.28L412.69 383.97L413.12 383.67L413.56 383.36L413.98 383.05L414.41 382.73L414.83 382.4L415.24 382.09L415.64 381.76L416.06 381.43L416.48 381.08L416.87 380.75L419.29 378.65L422.31 379.59L442.48 386.19L455.14 365.27L437.78 350.01L435.49 348.03L435.49 344.99L435.56 344.54L435.64 344.09L435.71 343.62L435.76 343.17L435.83 342.7L435.94 341.79L435.99 341.32L436.04 340.87L436.08 340.4L436.13 339.95L436.16 339.48L436.18 339.02L436.22 338.56L436.23 338.1L436.25 337.64L436.27 337.18L436.27 336.72L436.29 336.26L436.29 335.33L436.27 334.87L436.27 334.41L436.23 333.48L436.22 333.03L436.18 332.56L436.16 332.11L436.13 331.64L436.08 331.19L436.04 330.72L435.99 330.27L435.94 329.8L435.89 329.34L435.83 328.88L435.76 328.42L435.71 327.96L435.64 327.5L435.56 327.05L435.49 326.58L435.49 323.56L437.78 321.57L454.72 306.83L442.07 285.92L421.89 292.5L418.85 293.46L416.46 291.36L416.06 291.03L415.64 290.68L415.23 290.35L414.83 290.02L414.41 289.69L413.98 289.38L413.14 288.75L412.27 288.13L410.54 286.95L409.63 286.39L409.2 286.11L408.75 285.84L408.3 285.57L407.83 285.31L407.38 285.05L406.91 284.79L406.46 284.53L405.05 283.8L404.58 283.58L404.11 283.33L403.63 283.11L403.16 282.88L402.19 282.47L401.7 282.24L401.21 282.05L400.73 281.84L399.76 281.46L399.25 281.27L398.77 281.08L398.26 280.9L395.45 279.86L394.81 276.93L390.74 257.79L366.06 257.79L361.66 277.03Z" id="bDQJQeC5Q"></path><path d="M382.95 302.85L385.17 303.23L387.32 303.74L389.42 304.4L391.46 305.18L393.44 306.1L395.35 307.12L397.17 308.28L398.9 309.53L400.57 310.91L402.13 312.38L403.59 313.94L404.96 315.59L406.23 317.35L407.38 319.17L408.42 321.06L409.32 323.04L410.1 325.07L410.76 327.19L411.28 329.34L411.65 331.55L411.89 333.81L411.96 336.1L411.89 338.41L411.65 340.67L411.28 342.87L410.76 345.02L410.1 347.12L409.32 349.17L408.42 351.13L407.38 353.04L406.23 354.87L404.96 356.62L403.59 358.27L402.13 359.83L400.57 361.31L398.9 362.68L397.17 363.93L395.35 365.09L393.44 366.12L391.46 367.04L389.42 367.82L387.32 368.46L385.17 368.98L382.95 369.37L380.69 369.59L378.4 369.66L376.11 369.59L373.85 369.37L371.63 368.98L369.48 368.46L367.37 367.82L365.34 367.04L363.36 366.12L361.45 365.09L359.63 363.93L357.89 362.68L356.23 361.31L354.67 359.83L353.21 358.27L351.84 356.62L350.57 354.87L349.42 353.04L348.38 351.13L347.48 349.17L346.7 347.12L346.04 345.02L345.52 342.87L345.15 340.67L344.91 338.41L344.84 336.1L344.91 333.81L345.15 331.55L345.52 329.34L346.04 327.19L346.7 325.07L347.48 323.04L348.38 321.06L349.42 319.17L350.57 317.35L351.84 315.59L353.21 313.94L354.67 312.38L356.23 310.91L357.89 309.53L359.63 308.28L361.45 307.12L363.36 306.1L365.34 305.18L367.37 304.4L369.48 303.74L371.63 303.23L373.85 302.85L376.11 302.62L378.4 302.54L380.69 302.62L382.95 302.85ZM374.04 325.8L372.15 326.83L370.48 328.2L369.13 329.85L368.09 331.76L367.44 333.86L367.22 336.1L367.44 338.36L368.09 340.46L369.13 342.35L370.48 344L372.15 345.35L374.04 346.38L376.14 347L378.4 347.19L380.66 346.97L382.76 346.31L384.65 345.28L386.32 343.91L387.67 342.26L388.71 340.35L389.36 338.25L389.58 335.99L389.34 333.76L388.68 331.69L387.64 329.8L386.28 328.16L384.62 326.81L382.72 325.79L380.64 325.14L378.4 324.92L376.14 325.14L374.04 325.8Z" id="d4oajDTf37"></path><path d="M382.95 302.85L385.17 303.23L387.32 303.74L389.42 304.4L391.46 305.18L393.44 306.1L395.35 307.12L397.17 308.28L398.9 309.53L400.57 310.91L402.13 312.38L403.59 313.94L404.96 315.59L406.23 317.35L407.38 319.17L408.42 321.06L409.32 323.04L410.1 325.07L410.76 327.19L411.28 329.34L411.65 331.55L411.89 333.81L411.96 336.1L411.89 338.41L411.65 340.67L411.28 342.87L410.76 345.02L410.1 347.12L409.32 349.17L408.42 351.13L407.38 353.04L406.23 354.87L404.96 356.62L403.59 358.27L402.13 359.83L400.57 361.31L398.9 362.68L397.17 363.93L395.35 365.09L393.44 366.12L391.46 367.04L389.42 367.82L387.32 368.46L385.17 368.98L382.95 369.37L380.69 369.59L378.4 369.66L376.11 369.59L373.85 369.37L371.63 368.98L369.48 368.46L367.37 367.82L365.34 367.04L363.36 366.12L361.45 365.09L359.63 363.93L357.89 362.68L356.23 361.31L354.67 359.83L353.21 358.27L351.84 356.62L350.57 354.87L349.42 353.04L348.38 351.13L347.48 349.17L346.7 347.12L346.04 345.02L345.52 342.87L345.15 340.67L344.91 338.41L344.84 336.1L344.91 333.81L345.15 331.55L345.52 329.34L346.04 327.19L346.7 325.07L347.48 323.04L348.38 321.06L349.42 319.17L350.57 317.35L351.84 315.59L353.21 313.94L354.67 312.38L356.23 310.91L357.89 309.53L359.63 308.28L361.45 307.12L363.36 306.1L365.34 305.18L367.37 304.4L369.48 303.74L371.63 303.23L373.85 302.85L376.11 302.62L378.4 302.54L380.69 302.62L382.95 302.85ZM374.04 325.8L372.15 326.83L370.48 328.2L369.13 329.85L368.09 331.76L367.44 333.86L367.22 336.1L367.44 338.36L368.09 340.46L369.13 342.35L370.48 344L372.15 345.35L374.04 346.38L376.14 347L378.4 347.19L380.66 346.97L382.76 346.31L384.65 345.28L386.32 343.91L387.67 342.26L388.71 340.35L389.36 338.25L389.58 335.99L389.34 333.76L388.68 331.69L387.64 329.8L386.28 328.16L384.62 326.81L382.72 325.79L380.64 325.14L378.4 324.92L376.14 325.14L374.04 325.8Z" id="bpmvQ87a"></path><path d="M396.86 483.19L399.03 483.45L401.18 483.82L403.31 484.3L405.45 484.89L407.57 485.61L409.67 486.44L411.75 487.39L411.82 487.43L411.87 487.46L413.91 488.52L415.83 489.67L417.69 490.92L419.48 492.24L421.16 493.64L422.78 495.12L424.31 496.68L425.73 498.3L427.08 499.98L428.33 501.72L429.5 503.52L430.57 505.36L431.55 507.26L432.43 509.2L433.21 511.18L433.89 513.19L434.48 515.24L434.97 517.33L435.33 519.41L435.61 521.53L435.78 523.66L435.85 525.82L435.8 527.97L435.66 530.12L435.38 532.28L435.02 534.43L434.53 536.58L433.92 538.72L433.2 540.84L432.36 542.94L431.41 545L430.35 547.02L429.2 548.96L427.95 550.82L426.63 552.59L425.24 554.27L423.77 555.89L422.2 557.4L420.59 558.84L418.92 560.18L417.19 561.43L415.4 562.59L413.54 563.67L411.65 564.64L409.72 565.52L407.74 566.31L405.73 567L403.7 567.57L401.63 568.06L399.53 568.44L397.41 568.74L395.29 568.91L393.14 568.98L391 568.93L388.85 568.79L386.68 568.53L384.55 568.16L382.39 567.68L380.27 567.09L378.16 566.38L376.06 565.54L373.99 564.59L371.96 563.55L370.01 562.38L368.16 561.15L366.37 559.83L364.67 558.44L363.07 556.96L361.54 555.42L360.1 553.8L358.75 552.12L357.48 550.38L356.31 548.6L355.24 546.74L354.25 544.85L353.36 542.92L352.58 540.94L351.89 538.93L351.3 536.88L350.81 534.81L350.43 532.71L350.13 530.59L349.96 528.46L349.89 526.32L349.93 524.17L350.06 522L350.32 519.84L350.69 517.69L351.18 515.54L351.78 513.4L352.5 511.28L353.31 509.18L354.27 507.12L355.33 505.09L356.47 503.14L357.7 501.28L359.02 499.5L360.43 497.79L361.91 496.18L363.45 494.65L365.07 493.21L366.73 491.87L368.49 490.61L370.27 489.44L372.11 488.37L374.01 487.38L375.95 486.49L377.93 485.71L379.95 485.02L381.98 484.43L384.06 483.94L386.16 483.54L388.28 483.26L390.4 483.09L392.55 483.02L394.7 483.05L396.86 483.19ZM387.79 512.4L385.78 513.3L383.92 514.5L382.25 515.97L380.81 517.73L379.65 519.76L378.82 521.93L378.37 524.15L378.28 526.39L378.52 528.58L379.09 530.7L380 532.71L381.2 534.57L382.67 536.23L384.42 537.68L386.46 538.84L388.57 539.64L390.73 540.11L392.9 540.21L395.05 540L397.12 539.48L399.1 538.65L400.94 537.54L402.6 536.15L404.06 534.48L405.28 532.55L405.29 532.5L405.33 532.45L405.35 532.4L405.38 532.35L405.4 532.29L405.43 532.24L405.45 532.19L405.48 532.14L405.5 532.08L405.54 532.03L406.35 529.86L406.82 527.64L406.91 525.4L406.67 523.21L406.09 521.09L405.19 519.08L403.99 517.22L402.52 515.56L400.75 514.11L398.73 512.95L396.56 512.14L394.34 511.67L392.1 511.58L389.91 511.82L387.79 512.4Z" id="bqqag5mgW"></path><path d="M396.86 483.19L399.03 483.45L401.18 483.82L403.31 484.3L405.45 484.89L407.57 485.61L409.67 486.44L411.75 487.39L411.82 487.43L411.87 487.46L413.91 488.52L415.83 489.67L417.69 490.92L419.48 492.24L421.16 493.64L422.78 495.12L424.31 496.68L425.73 498.3L427.08 499.98L428.33 501.72L429.5 503.52L430.57 505.36L431.55 507.26L432.43 509.2L433.21 511.18L433.89 513.19L434.48 515.24L434.97 517.33L435.33 519.41L435.61 521.53L435.78 523.66L435.85 525.82L435.8 527.97L435.66 530.12L435.38 532.28L435.02 534.43L434.53 536.58L433.92 538.72L433.2 540.84L432.36 542.94L431.41 545L430.35 547.02L429.2 548.96L427.95 550.82L426.63 552.59L425.24 554.27L423.77 555.89L422.2 557.4L420.59 558.84L418.92 560.18L417.19 561.43L415.4 562.59L413.54 563.67L411.65 564.64L409.72 565.52L407.74 566.31L405.73 567L403.7 567.57L401.63 568.06L399.53 568.44L397.41 568.74L395.29 568.91L393.14 568.98L391 568.93L388.85 568.79L386.68 568.53L384.55 568.16L382.39 567.68L380.27 567.09L378.16 566.38L376.06 565.54L373.99 564.59L371.96 563.55L370.01 562.38L368.16 561.15L366.37 559.83L364.67 558.44L363.07 556.96L361.54 555.42L360.1 553.8L358.75 552.12L357.48 550.38L356.31 548.6L355.24 546.74L354.25 544.85L353.36 542.92L352.58 540.94L351.89 538.93L351.3 536.88L350.81 534.81L350.43 532.71L350.13 530.59L349.96 528.46L349.89 526.32L349.93 524.17L350.06 522L350.32 519.84L350.69 517.69L351.18 515.54L351.78 513.4L352.5 511.28L353.31 509.18L354.27 507.12L355.33 505.09L356.47 503.14L357.7 501.28L359.02 499.5L360.43 497.79L361.91 496.18L363.45 494.65L365.07 493.21L366.73 491.87L368.49 490.61L370.27 489.44L372.11 488.37L374.01 487.38L375.95 486.49L377.93 485.71L379.95 485.02L381.98 484.43L384.06 483.94L386.16 483.54L388.28 483.26L390.4 483.09L392.55 483.02L394.7 483.05L396.86 483.19ZM387.79 512.4L385.78 513.3L383.92 514.5L382.25 515.97L380.81 517.73L379.65 519.76L378.82 521.93L378.37 524.15L378.28 526.39L378.52 528.58L379.09 530.7L380 532.71L381.2 534.57L382.67 536.23L384.42 537.68L386.46 538.84L388.57 539.64L390.73 540.11L392.9 540.21L395.05 540L397.12 539.48L399.1 538.65L400.94 537.54L402.6 536.15L404.06 534.48L405.28 532.55L405.29 532.5L405.33 532.45L405.35 532.4L405.38 532.35L405.4 532.29L405.43 532.24L405.45 532.19L405.48 532.14L405.5 532.08L405.54 532.03L406.35 529.86L406.82 527.64L406.91 525.4L406.67 523.21L406.09 521.09L405.19 519.08L403.99 517.22L402.52 515.56L400.75 514.11L398.73 512.95L396.56 512.14L394.34 511.67L392.1 511.58L389.91 511.82L387.79 512.4Z" id="a5uRCDIPgW"></path><path d="M7.35 319.59C7.35 492.81 147.78 633.24 321 633.24C494.22 633.24 634.65 492.81 634.65 319.59C634.65 146.36 494.22 5.92 321 5.92C147.78 5.92 7.35 146.36 7.35 319.59Z" id="a1ntyxo47Q"></path><path d="M7.35 319.59C7.35 492.81 147.78 633.24 321 633.24C494.22 633.24 634.65 492.81 634.65 319.59C634.65 146.36 494.22 5.92 321 5.92C147.78 5.92 7.35 146.36 7.35 319.59Z" id="c7eeeiGCbt"></path><path d="M471.48 121.92L472.28 122.06L472.66 122.14L473.06 122.25L473.44 122.35L474.2 122.63L474.57 122.79L474.93 122.96L475.3 123.15L475.65 123.36L476.34 123.81L476.67 124.05L477.61 124.89L477.9 125.2L478.18 125.51L478.46 125.86L478.49 125.88L478.51 125.91L478.55 125.93L478.58 125.96L478.61 125.98L478.63 126.02L478.67 126.03L478.79 126.15L478.82 126.17L478.86 126.21L478.88 126.24L478.91 126.26L479.26 126.61L479.27 126.64L479.31 126.67L479.34 126.69L479.36 126.73L479.45 126.81L479.47 126.85L479.5 126.88L479.54 126.9L479.55 126.94L479.59 126.97L479.6 127L479.88 127.33L480.14 127.68L480.39 128.03L480.61 128.38L480.82 128.74L481.01 129.11L481.18 129.49L481.36 129.85L481.5 130.23L481.64 130.63L481.74 131.02L481.84 131.41L481.93 131.81L482 132.21L482.05 132.61L482.09 133.01L482.12 133.81L482.09 134.61L482.05 135.01L482 135.41L481.93 135.81L481.84 136.19L481.74 136.59L481.5 137.35L481.36 137.73L481.18 138.1L481.01 138.48L480.82 138.83L480.63 139.19L480.4 139.54L480.16 139.87L479.92 140.22L479.66 140.53L479.38 140.86L479.08 141.15L478.46 141.75L478.11 142.01L476.03 143.67L475.7 143.97L475.35 144.25L475.02 144.54L474.69 144.82L474.36 145.11L474.01 145.41L473.68 145.7L473.37 146L473.04 146.29L472.71 146.61L472.38 146.9L472.07 147.21L471.74 147.51L470.8 148.45L470.49 148.74L470.18 149.07L469.24 150.01L468.94 150.34L468.63 150.65L467.75 151.64L467.43 151.97L467.14 152.3L466.86 152.63L466.27 153.29L465.99 153.64L465.7 153.97L467.59 154.06L469.48 154.11L471.36 154.16L473.25 154.21L477 154.32L478.86 154.37L480.72 154.44L484.4 154.61L488.01 154.85L489.81 155.03L491.58 155.22L493.34 155.43L495.07 155.69L496.79 155.98L498.49 156.31L500.16 156.69L501.81 157.13L503.44 157.6L505.04 158.14L506.6 158.73L508.15 159.39L509.66 160.1L511.13 160.88L512.58 161.73L513.98 162.67L515.37 163.67L516.71 164.75L518.01 165.91L519.28 167.18L520.49 168.52L521.67 169.96L522.8 171.5L523.9 173.14L524.95 174.87L525.94 176.71L526.9 178.67L527.8 180.74L527.8 459.37L527.33 460.57L526.81 461.75L526.26 462.9L525.68 464.01L525.06 465.12L524.42 466.19L523.72 467.24L523.01 468.26L522.26 469.27L521.48 470.22L520.68 471.18L519.85 472.08L519 472.97L518.11 473.83L517.19 474.65L516.26 475.45L515.3 476.21L514.31 476.96L513.3 477.65L512.28 478.33L511.24 478.96L510.16 479.56L509.09 480.14L507.97 480.67L506.86 481.18L505.72 481.65L504.55 482.06L503.39 482.46L502.21 482.81L501.01 483.14L499.8 483.42L498.58 483.66L497.35 483.87L496.12 484.03L494.87 484.15L493.6 484.23L492.33 484.29L491.06 484.29L489.78 484.23L488.49 484.15L414.69 484.15L414.5 486.23L414.34 488.21L414.18 490.09L414.03 491.87L413.87 493.56L413.73 495.14L413.59 496.65L413.47 498.07L413.33 499.41L413.21 500.68L413.09 501.87L412.97 502.99L412.85 504.03L412.71 505.02L412.59 505.94L412.46 506.81L412.34 507.6L412.2 508.37L412.07 509.06L411.93 509.72L411.79 510.35L411.65 510.92L411.49 511.46L411.32 511.96L411.15 512.45L410.97 512.9L410.59 513.73L410.36 514.11L410.16 514.48L409.67 515.21L409.41 515.56L408.85 516.25L408.54 516.6L408.23 516.96L407.53 517.73L407.15 518.13L239.87 518.13L239.19 517.03L238.98 516.67L238.75 516.3L238.34 515.54L238.13 515.17L237.92 514.79L236.97 512.88L236.79 512.48L236.6 512.1L236.43 511.7L236.25 511.32L236.1 510.92L235.92 510.52L235.3 508.92L234.88 507.73L234.74 507.31L234.61 506.91L234.36 506.08L234.22 505.68L234.12 505.26L234 504.84L233.89 504.43L233.77 504.01L233.67 503.59L233.58 503.18L233.48 502.76L233.39 502.34L233.39 419.96L233.41 419.06L233.44 418.19L233.49 417.35L233.55 416.56L233.63 415.77L233.72 415.05L233.82 414.33L233.95 413.66L234.08 413.01L234.26 412.41L234.43 411.82L234.62 411.26L234.85 410.74L235.09 410.24L235.35 409.75L235.63 409.32L235.94 408.88L236.25 408.48L236.62 408.12L236.98 407.77L237.38 407.44L237.82 407.15L238.27 406.87L238.74 406.61L239.24 406.36L239.78 406.14L240.33 405.95L240.93 405.77L241.55 405.6L242.19 405.46L242.87 405.34L243.58 405.24L244.33 405.15L245.11 405.06L245.91 405.01L246.76 404.96L247.63 404.92L248.55 404.91L399.88 404.91L400.75 404.92L401.56 404.94L402.36 404.98L403.12 405.03L403.85 405.08L404.56 405.15L405.24 405.24L405.88 405.34L406.51 405.44L407.1 405.58L408.21 405.9L408.71 406.09L409.22 406.29L409.67 406.52L410.12 406.76L410.54 407.04L410.92 407.34L411.3 407.65L411.65 408L411.96 408.36L412.27 408.74L412.55 409.18L412.81 409.61L413.05 410.1L413.28 410.6L413.49 411.14L413.66 411.71L413.84 412.32L413.98 412.94L414.11 413.62L414.22 414.32L414.32 415.06L414.39 415.83L414.46 416.64L414.51 417.49L414.55 418.38L414.57 419.3L414.58 420.27L414.58 461.47L462.03 461.47L462.76 461.45L466.37 461.45L467.1 461.44L469.26 461.44L469.97 461.42L471.41 461.42L472.12 461.4L474.27 461.4L475 461.39L477.9 461.39L478.63 461.37L482.31 461.37L483.06 461.39L485.3 461.39L486.06 461.4L486.83 461.4L487.59 461.42L488.36 461.42L489.14 461.44L489.9 461.45L490.68 461.47L491.46 461.47L492.21 461.45L492.94 461.42L493.65 461.37L494.33 461.3L494.99 461.21L495.63 461.11L496.26 460.97L496.85 460.83L497.42 460.66L497.97 460.47L498.51 460.26L499.02 460.03L499.5 459.79L499.99 459.51L500.44 459.23L500.86 458.92L501.27 458.59L501.65 458.24L502.04 457.88L502.38 457.5L502.71 457.1L503.03 456.66L503.32 456.21L503.6 455.74L503.84 455.26L504.09 454.75L504.31 454.23L504.69 453.12L504.85 452.53L504.99 451.92L505.13 451.28L505.23 450.64L505.41 449.28L505.46 448.57L505.51 447.83L505.53 447.08L505.54 446.3L505.54 194.96L505.53 193.97L505.49 193.02L505.46 192.1L505.41 191.21L505.34 190.38L505.27 189.56L505.16 188.78L505.06 188.03L504.92 187.34L504.78 186.66L504.61 186.02L504.43 185.39L504.22 184.82L504 184.27L503.76 183.74L503.5 183.24L503.2 182.77L502.89 182.34L502.56 181.92L502.21 181.54L501.83 181.18L501.41 180.85L500.98 180.53L500.51 180.24L500.02 179.96L499.5 179.72L498.96 179.49L498.39 179.3L497.78 179.11L497.14 178.95L496.46 178.8L495.77 178.67L495.04 178.57L494.26 178.47L493.46 178.4L492.63 178.33L491.76 178.29L490.84 178.26L489.9 178.24L488.91 178.22L468.84 178.22L468.75 178.26L468.65 178.28L468.48 178.31L468.39 178.35L468.28 178.36L468.2 178.38L468.11 178.41L467.94 178.45L467.83 178.48L467.75 178.5L467.66 178.54L467.57 178.55L467.49 178.59L467.38 178.61L467.29 178.64L467.21 178.66L467.03 178.73L466.95 178.74L466.77 178.81L466.67 178.85L466.58 178.87L466.24 179L466.15 179.02L465.45 179.3L465.37 179.35L465.28 179.39L465.59 179.7L465.89 180.03L466.2 180.34L466.48 180.65L466.77 180.95L467.33 181.54L467.59 181.83L467.87 182.13L468.39 182.69L468.65 182.98L468.91 183.26L469.17 183.52L469.41 183.8L471.24 185.74L471.5 186.04L471.77 186.31L472.61 187.2L472.9 187.49L473.49 188.12L474.14 188.76L474.45 189.09L474.8 189.42L475.13 189.77L475.49 190.12L475.84 190.48L476.22 190.85L476.6 191.23L477 191.61L477.76 192.41L478.13 192.79L478.48 193.19L478.81 193.61L479.14 194.01L479.73 194.8L480 195.22L480.25 195.62L480.49 196.04L480.72 196.45L480.91 196.87L481.1 197.27L481.41 198.1L481.53 198.54L481.74 199.37L481.81 199.79L481.84 200.22L481.88 200.64L481.88 201.51L481.83 201.92L481.77 202.36L481.69 202.79L481.58 203.23L481.46 203.64L481.32 204.08L481.15 204.51L480.94 204.94L480.72 205.38L480.47 205.81L480.19 206.26L479.9 206.7L479.59 207.13L479.24 207.57L478.86 208L478.46 208.45L478.41 208.5L478.35 208.57L478.32 208.64L478.27 208.69L478.22 208.76L478.16 208.82L478.11 208.89L478.01 208.99L477.96 209.06L477.9 209.11L477.85 209.18L477.75 209.28L477.69 209.35L477.59 209.46L477.52 209.51L477.47 209.56L477.42 209.63L477.31 209.74L477.24 209.79L477.14 209.89L477.07 209.94L477.02 210L476.95 210.05L476.9 210.1L476.83 210.15L476.72 210.26L476.65 210.31L476.58 210.34L476.53 210.4L476.46 210.45L476.41 210.5L476.34 210.53L476.27 210.59L476.22 210.64L475.85 210.88L475.49 211.11L475.13 211.32L474.76 211.51L474.38 211.7L474 211.85L473.61 211.99L473.22 212.13L472.83 212.24L472.43 212.34L472.03 212.43L471.64 212.5L471.24 212.53L470.82 212.57L470.42 212.6L470.02 212.6L469.22 212.57L468.42 212.46L468.02 212.39L467.64 212.31L467.24 212.2L466.86 212.08L466.48 211.94L466.11 211.8L465.73 211.63L465.37 211.45L465.02 211.26L464.66 211.07L464.33 210.85L463.98 210.6L463.65 210.36L463.34 210.1L463.02 209.82L462.43 209.23L462.16 208.92L461.88 208.59L461.62 208.24L429.64 176.24L429.57 176.19L429.51 176.16L429.46 176.11L429.41 176.07L429.34 176.02L429.29 175.97L429.24 175.93L429.13 175.83L429.08 175.79L429.01 175.74L428.85 175.58L428.8 175.55L428.39 175.13L428.35 175.08L428.09 174.82L428.06 174.77L428 174.72L427.95 174.65L427.9 174.59L427.86 174.54L427.81 174.49L427.78 174.44L427.73 174.37L427.67 174.32L427.64 174.26L427.59 174.21L427.31 173.83L427.05 173.45L426.81 173.07L426.58 172.67L426.39 172.27L426.2 171.85L426.02 171.43L425.87 171.04L425.73 170.6L425.61 170.18L425.5 169.75L425.42 169.33L425.35 168.9L425.3 168.47L425.26 168.03L425.24 167.6L425.24 167.16L425.28 166.3L425.33 165.86L425.4 165.43L425.47 165.01L425.57 164.58L425.68 164.16L425.82 163.74L425.96 163.34L426.11 162.93L426.29 162.53L426.49 162.15L426.68 161.75L426.91 161.38L427.15 161L427.41 160.64L427.67 160.29L428.26 159.59L428.92 158.97L429.27 158.66L429.64 158.36L461.62 126.38L461.72 126.24L461.76 126.17L461.81 126.12L461.86 126.05L461.9 126L462 125.86L462.05 125.81L462.1 125.74L462.14 125.69L462.19 125.62L462.24 125.56L462.29 125.49L462.35 125.44L462.4 125.37L462.5 125.27L462.55 125.2L463.11 124.64L463.18 124.59L463.28 124.49L463.35 124.44L463.41 124.38L463.48 124.33L463.53 124.28L463.6 124.23L463.65 124.17L463.72 124.12L463.77 124.09L464.12 123.83L464.46 123.58L464.83 123.36L465.56 122.94L465.94 122.77L466.7 122.46L467.09 122.33L467.49 122.21L467.89 122.11L468.68 121.97L469.08 121.92L469.88 121.85L470.28 121.85L471.08 121.88L471.48 121.92ZM256.92 495.35L391.27 495.35L391.27 428.01L256.92 428.01L256.92 495.35Z" id="e8F0C2lMQ"></path><path d="M471.48 121.92L472.28 122.06L472.66 122.14L473.06 122.25L473.44 122.35L474.2 122.63L474.57 122.79L474.93 122.96L475.3 123.15L475.65 123.36L476.34 123.81L476.67 124.05L477.61 124.89L477.9 125.2L478.18 125.51L478.46 125.86L478.49 125.88L478.51 125.91L478.55 125.93L478.58 125.96L478.61 125.98L478.63 126.02L478.67 126.03L478.79 126.15L478.82 126.17L478.86 126.21L478.88 126.24L478.91 126.26L479.26 126.61L479.27 126.64L479.31 126.67L479.34 126.69L479.36 126.73L479.45 126.81L479.47 126.85L479.5 126.88L479.54 126.9L479.55 126.94L479.59 126.97L479.6 127L479.88 127.33L480.14 127.68L480.39 128.03L480.61 128.38L480.82 128.74L481.01 129.11L481.18 129.49L481.36 129.85L481.5 130.23L481.64 130.63L481.74 131.02L481.84 131.41L481.93 131.81L482 132.21L482.05 132.61L482.09 133.01L482.12 133.81L482.09 134.61L482.05 135.01L482 135.41L481.93 135.81L481.84 136.19L481.74 136.59L481.5 137.35L481.36 137.73L481.18 138.1L481.01 138.48L480.82 138.83L480.63 139.19L480.4 139.54L480.16 139.87L479.92 140.22L479.66 140.53L479.38 140.86L479.08 141.15L478.46 141.75L478.11 142.01L476.03 143.67L475.7 143.97L475.35 144.25L475.02 144.54L474.69 144.82L474.36 145.11L474.01 145.41L473.68 145.7L473.37 146L473.04 146.29L472.71 146.61L472.38 146.9L472.07 147.21L471.74 147.51L470.8 148.45L470.49 148.74L470.18 149.07L469.24 150.01L468.94 150.34L468.63 150.65L467.75 151.64L467.43 151.97L467.14 152.3L466.86 152.63L466.27 153.29L465.99 153.64L465.7 153.97L467.59 154.06L469.48 154.11L471.36 154.16L473.25 154.21L477 154.32L478.86 154.37L480.72 154.44L484.4 154.61L488.01 154.85L489.81 155.03L491.58 155.22L493.34 155.43L495.07 155.69L496.79 155.98L498.49 156.31L500.16 156.69L501.81 157.13L503.44 157.6L505.04 158.14L506.6 158.73L508.15 159.39L509.66 160.1L511.13 160.88L512.58 161.73L513.98 162.67L515.37 163.67L516.71 164.75L518.01 165.91L519.28 167.18L520.49 168.52L521.67 169.96L522.8 171.5L523.9 173.14L524.95 174.87L525.94 176.71L526.9 178.67L527.8 180.74L527.8 459.37L527.33 460.57L526.81 461.75L526.26 462.9L525.68 464.01L525.06 465.12L524.42 466.19L523.72 467.24L523.01 468.26L522.26 469.27L521.48 470.22L520.68 471.18L519.85 472.08L519 472.97L518.11 473.83L517.19 474.65L516.26 475.45L515.3 476.21L514.31 476.96L513.3 477.65L512.28 478.33L511.24 478.96L510.16 479.56L509.09 480.14L507.97 480.67L506.86 481.18L505.72 481.65L504.55 482.06L503.39 482.46L502.21 482.81L501.01 483.14L499.8 483.42L498.58 483.66L497.35 483.87L496.12 484.03L494.87 484.15L493.6 484.23L492.33 484.29L491.06 484.29L489.78 484.23L488.49 484.15L414.69 484.15L414.5 486.23L414.34 488.21L414.18 490.09L414.03 491.87L413.87 493.56L413.73 495.14L413.59 496.65L413.47 498.07L413.33 499.41L413.21 500.68L413.09 501.87L412.97 502.99L412.85 504.03L412.71 505.02L412.59 505.94L412.46 506.81L412.34 507.6L412.2 508.37L412.07 509.06L411.93 509.72L411.79 510.35L411.65 510.92L411.49 511.46L411.32 511.96L411.15 512.45L410.97 512.9L410.59 513.73L410.36 514.11L410.16 514.48L409.67 515.21L409.41 515.56L408.85 516.25L408.54 516.6L408.23 516.96L407.53 517.73L407.15 518.13L239.87 518.13L239.19 517.03L238.98 516.67L238.75 516.3L238.34 515.54L238.13 515.17L237.92 514.79L236.97 512.88L236.79 512.48L236.6 512.1L236.43 511.7L236.25 511.32L236.1 510.92L235.92 510.52L235.3 508.92L234.88 507.73L234.74 507.31L234.61 506.91L234.36 506.08L234.22 505.68L234.12 505.26L234 504.84L233.89 504.43L233.77 504.01L233.67 503.59L233.58 503.18L233.48 502.76L233.39 502.34L233.39 419.96L233.41 419.06L233.44 418.19L233.49 417.35L233.55 416.56L233.63 415.77L233.72 415.05L233.82 414.33L233.95 413.66L234.08 413.01L234.26 412.41L234.43 411.82L234.62 411.26L234.85 410.74L235.09 410.24L235.35 409.75L235.63 409.32L235.94 408.88L236.25 408.48L236.62 408.12L236.98 407.77L237.38 407.44L237.82 407.15L238.27 406.87L238.74 406.61L239.24 406.36L239.78 406.14L240.33 405.95L240.93 405.77L241.55 405.6L242.19 405.46L242.87 405.34L243.58 405.24L244.33 405.15L245.11 405.06L245.91 405.01L246.76 404.96L247.63 404.92L248.55 404.91L399.88 404.91L400.75 404.92L401.56 404.94L402.36 404.98L403.12 405.03L403.85 405.08L404.56 405.15L405.24 405.24L405.88 405.34L406.51 405.44L407.1 405.58L408.21 405.9L408.71 406.09L409.22 406.29L409.67 406.52L410.12 406.76L410.54 407.04L410.92 407.34L411.3 407.65L411.65 408L411.96 408.36L412.27 408.74L412.55 409.18L412.81 409.61L413.05 410.1L413.28 410.6L413.49 411.14L413.66 411.71L413.84 412.32L413.98 412.94L414.11 413.62L414.22 414.32L414.32 415.06L414.39 415.83L414.46 416.64L414.51 417.49L414.55 418.38L414.57 419.3L414.58 420.27L414.58 461.47L462.03 461.47L462.76 461.45L466.37 461.45L467.1 461.44L469.26 461.44L469.97 461.42L471.41 461.42L472.12 461.4L474.27 461.4L475 461.39L477.9 461.39L478.63 461.37L482.31 461.37L483.06 461.39L485.3 461.39L486.06 461.4L486.83 461.4L487.59 461.42L488.36 461.42L489.14 461.44L489.9 461.45L490.68 461.47L491.46 461.47L492.21 461.45L492.94 461.42L493.65 461.37L494.33 461.3L494.99 461.21L495.63 461.11L496.26 460.97L496.85 460.83L497.42 460.66L497.97 460.47L498.51 460.26L499.02 460.03L499.5 459.79L499.99 459.51L500.44 459.23L500.86 458.92L501.27 458.59L501.65 458.24L502.04 457.88L502.38 457.5L502.71 457.1L503.03 456.66L503.32 456.21L503.6 455.74L503.84 455.26L504.09 454.75L504.31 454.23L504.69 453.12L504.85 452.53L504.99 451.92L505.13 451.28L505.23 450.64L505.41 449.28L505.46 448.57L505.51 447.83L505.53 447.08L505.54 446.3L505.54 194.96L505.53 193.97L505.49 193.02L505.46 192.1L505.41 191.21L505.34 190.38L505.27 189.56L505.16 188.78L505.06 188.03L504.92 187.34L504.78 186.66L504.61 186.02L504.43 185.39L504.22 184.82L504 184.27L503.76 183.74L503.5 183.24L503.2 182.77L502.89 182.34L502.56 181.92L502.21 181.54L501.83 181.18L501.41 180.85L500.98 180.53L500.51 180.24L500.02 179.96L499.5 179.72L498.96 179.49L498.39 179.3L497.78 179.11L497.14 178.95L496.46 178.8L495.77 178.67L495.04 178.57L494.26 178.47L493.46 178.4L492.63 178.33L491.76 178.29L490.84 178.26L489.9 178.24L488.91 178.22L468.84 178.22L468.75 178.26L468.65 178.28L468.48 178.31L468.39 178.35L468.28 178.36L468.2 178.38L468.11 178.41L467.94 178.45L467.83 178.48L467.75 178.5L467.66 178.54L467.57 178.55L467.49 178.59L467.38 178.61L467.29 178.64L467.21 178.66L467.03 178.73L466.95 178.74L466.77 178.81L466.67 178.85L466.58 178.87L466.24 179L466.15 179.02L465.45 179.3L465.37 179.35L465.28 179.39L465.59 179.7L465.89 180.03L466.2 180.34L466.48 180.65L466.77 180.95L467.33 181.54L467.59 181.83L467.87 182.13L468.39 182.69L468.65 182.98L468.91 183.26L469.17 183.52L469.41 183.8L471.24 185.74L471.5 186.04L471.77 186.31L472.61 187.2L472.9 187.49L473.49 188.12L474.14 188.76L474.45 189.09L474.8 189.42L475.13 189.77L475.49 190.12L475.84 190.48L476.22 190.85L476.6 191.23L477 191.61L477.76 192.41L478.13 192.79L478.48 193.19L478.81 193.61L479.14 194.01L479.73 194.8L480 195.22L480.25 195.62L480.49 196.04L480.72 196.45L480.91 196.87L481.1 197.27L481.41 198.1L481.53 198.54L481.74 199.37L481.81 199.79L481.84 200.22L481.88 200.64L481.88 201.51L481.83 201.92L481.77 202.36L481.69 202.79L481.58 203.23L481.46 203.64L481.32 204.08L481.15 204.51L480.94 204.94L480.72 205.38L480.47 205.81L480.19 206.26L479.9 206.7L479.59 207.13L479.24 207.57L478.86 208L478.46 208.45L478.41 208.5L478.35 208.57L478.32 208.64L478.27 208.69L478.22 208.76L478.16 208.82L478.11 208.89L478.01 208.99L477.96 209.06L477.9 209.11L477.85 209.18L477.75 209.28L477.69 209.35L477.59 209.46L477.52 209.51L477.47 209.56L477.42 209.63L477.31 209.74L477.24 209.79L477.14 209.89L477.07 209.94L477.02 210L476.95 210.05L476.9 210.1L476.83 210.15L476.72 210.26L476.65 210.31L476.58 210.34L476.53 210.4L476.46 210.45L476.41 210.5L476.34 210.53L476.27 210.59L476.22 210.64L475.85 210.88L475.49 211.11L475.13 211.32L474.76 211.51L474.38 211.7L474 211.85L473.61 211.99L473.22 212.13L472.83 212.24L472.43 212.34L472.03 212.43L471.64 212.5L471.24 212.53L470.82 212.57L470.42 212.6L470.02 212.6L469.22 212.57L468.42 212.46L468.02 212.39L467.64 212.31L467.24 212.2L466.86 212.08L466.48 211.94L466.11 211.8L465.73 211.63L465.37 211.45L465.02 211.26L464.66 211.07L464.33 210.85L463.98 210.6L463.65 210.36L463.34 210.1L463.02 209.82L462.43 209.23L462.16 208.92L461.88 208.59L461.62 208.24L429.64 176.24L429.57 176.19L429.51 176.16L429.46 176.11L429.41 176.07L429.34 176.02L429.29 175.97L429.24 175.93L429.13 175.83L429.08 175.79L429.01 175.74L428.85 175.58L428.8 175.55L428.39 175.13L428.35 175.08L428.09 174.82L428.06 174.77L428 174.72L427.95 174.65L427.9 174.59L427.86 174.54L427.81 174.49L427.78 174.44L427.73 174.37L427.67 174.32L427.64 174.26L427.59 174.21L427.31 173.83L427.05 173.45L426.81 173.07L426.58 172.67L426.39 172.27L426.2 171.85L426.02 171.43L425.87 171.04L425.73 170.6L425.61 170.18L425.5 169.75L425.42 169.33L425.35 168.9L425.3 168.47L425.26 168.03L425.24 167.6L425.24 167.16L425.28 166.3L425.33 165.86L425.4 165.43L425.47 165.01L425.57 164.58L425.68 164.16L425.82 163.74L425.96 163.34L426.11 162.93L426.29 162.53L426.49 162.15L426.68 161.75L426.91 161.38L427.15 161L427.41 160.64L427.67 160.29L428.26 159.59L428.92 158.97L429.27 158.66L429.64 158.36L461.62 126.38L461.72 126.24L461.76 126.17L461.81 126.12L461.86 126.05L461.9 126L462 125.86L462.05 125.81L462.1 125.74L462.14 125.69L462.19 125.62L462.24 125.56L462.29 125.49L462.35 125.44L462.4 125.37L462.5 125.27L462.55 125.2L463.11 124.64L463.18 124.59L463.28 124.49L463.35 124.44L463.41 124.38L463.48 124.33L463.53 124.28L463.6 124.23L463.65 124.17L463.72 124.12L463.77 124.09L464.12 123.83L464.46 123.58L464.83 123.36L465.56 122.94L465.94 122.77L466.7 122.46L467.09 122.33L467.49 122.21L467.89 122.11L468.68 121.97L469.08 121.92L469.88 121.85L470.28 121.85L471.08 121.88L471.48 121.92ZM256.92 495.35L391.27 495.35L391.27 428.01L256.92 428.01L256.92 495.35Z" id="a1mSHsLyHj"></path><path d="M408.45 111.59L408.68 111.95L408.89 112.32L409.1 112.7L409.3 113.06L409.72 113.83L410.68 115.74L410.85 116.12L411.04 116.52L411.21 116.9L411.39 117.3L411.54 117.7L411.72 118.1L411.87 118.48L412.34 119.68L412.48 120.09L412.76 120.89L412.9 121.31L413.04 121.71L413.16 122.13L413.3 122.53L413.42 122.94L413.52 123.36L413.65 123.76L413.77 124.17L414.08 125.42L414.17 125.84L414.25 126.28L414.36 130.34L414.39 132.39L414.43 134.42L414.46 136.47L414.5 138.5L414.51 140.55L414.55 142.58L414.57 144.63L414.58 146.66L414.6 148.71L414.62 150.74L414.63 152.79L414.65 154.82L414.65 156.87L414.67 158.92L414.67 163L414.69 165.05L414.69 169.13L414.67 171.17L414.67 177.32L414.65 179.37L414.65 181.42L414.62 185.52L414.62 187.56L414.58 191.66L414.58 193.73L414.57 195.78L414.55 197.84L414.53 199.89L414.51 201.96L414.5 204.01L414.48 206.07L414.48 208.14L414.46 209.06L414.44 209.94L414.41 210.8L414.36 211.63L414.31 212.41L414.22 213.17L414.13 213.9L414.03 214.6L413.89 215.27L413.75 215.92L413.58 216.52L413.4 217.1L413.19 217.65L412.97 218.17L412.73 218.68L412.46 219.15L412.19 219.6L411.87 220.01L411.54 220.41L411.2 220.78L410.82 221.13L410.42 221.46L409.98 221.77L409.53 222.05L409.04 222.31L408.54 222.55L408 222.76L407.43 222.97L406.84 223.14L406.21 223.31L405.57 223.45L404.89 223.57L404.18 223.68L403.44 223.78L402.65 223.85L401.84 223.92L401.01 223.97L400.12 224.01L399.22 224.03L249.43 224.03L248.48 224.01L247.56 223.97L246.69 223.92L245.84 223.85L245.04 223.78L244.26 223.7L243.51 223.57L242.82 223.45L242.14 223.31L241.5 223.14L240.89 222.97L240.32 222.76L239.76 222.53L239.24 222.29L238.75 222.03L238.29 221.73L237.85 221.42L237.44 221.07L237.05 220.73L236.71 220.33L236.36 219.91L236.06 219.48L235.77 219.01L235.51 218.52L235.26 218L235.04 217.44L234.85 216.85L234.66 216.25L234.5 215.6L234.36 214.93L234.24 214.22L234.14 213.47L234.03 212.71L233.96 211.89L233.91 211.04L233.86 210.17L233.82 209.25L233.81 208.3L233.81 182.41L233.65 181.63L233.62 181.54L233.55 181.19L233.51 181.11L233.46 180.85L233.42 180.76L233.39 180.58L233.36 180.5L233.34 180.41L233.3 180.32L233.29 180.24L233.25 180.15L233.23 180.06L233.2 179.98L233.18 179.89L233.15 179.8L233.13 179.72L233.09 179.65L233.08 179.56L233.01 179.39L232.99 179.3L232.89 179.04L232.87 178.97L230.89 178.97L228.93 178.95L226.95 178.95L224.97 178.94L223.01 178.94L211.13 178.83L209.13 178.8L205.18 178.76L203.18 178.74L201.2 178.73L199.2 178.71L197.22 178.69L195.23 178.66L193.23 178.66L191.25 178.64L187.26 178.61L185.26 178.61L183.26 178.59L177.27 178.59L175.28 178.61L173.28 178.61L167.29 178.66L161.3 178.76L159.29 178.8L155.29 178.9L153.3 178.97L153.04 178.97L152.78 179L152.26 179.14L152 179.25L151.73 179.37L151.46 179.51L151.2 179.66L150.94 179.84L150.68 180.03L150.15 180.45L149.63 180.93L149.37 181.19L148.85 181.75L148.59 182.04L148.33 182.36L148.09 182.67L147.83 182.98L147.59 183.31L147.32 183.64L147.08 183.97L146.6 184.66L146.37 185.01L146.13 185.36L145.9 185.71L145.66 186.07L145.43 186.42L145.22 186.77L145 187.11L144.79 187.46L144.56 187.79L144.36 188.14L144.16 188.47L143.96 188.8L143.57 189.42L143.51 189.58L143.44 189.75L143.37 189.94L143.31 190.12L143.28 190.31L143.23 190.5L143.19 190.69L143.11 191.73L143.11 192.39L143.14 192.84L143.14 193.09L143.16 193.31L143.18 193.55L143.21 193.78L143.24 194.27L143.28 194.49L143.3 194.74L143.33 194.98L143.35 195.22L143.38 195.46L143.42 195.95L143.45 196.19L143.47 196.42L143.49 196.66L143.52 196.91L143.52 197.15L143.54 197.37L143.56 197.62L143.57 197.84L143.57 431.8L143.59 433.03L143.61 434.21L143.64 435.34L143.7 436.4L143.77 437.43L143.84 438.4L143.92 439.32L144.04 440.19L144.16 441.02L144.32 441.8L144.49 442.53L144.69 443.22L144.89 443.88L145.14 444.49L145.42 445.06L145.71 445.6L146.02 446.09L146.39 446.56L146.77 446.99L147.19 447.37L147.62 447.74L148.11 448.07L148.63 448.38L149.18 448.66L149.79 448.9L150.42 449.13L151.09 449.34L151.8 449.51L152.57 449.67L153.38 449.79L154.24 449.91L155.12 450.01L156.08 450.08L157.07 450.15L158.11 450.2L159.2 450.24L160.35 450.26L161.56 450.27L183.72 450.27L169.81 435.64L169.74 435.57L169.7 435.55L169.69 435.52L169.65 435.5L169.64 435.46L169.6 435.45L169.58 435.41L169.55 435.39L169.11 434.96L169.1 434.93L169.06 434.91L169.05 434.87L169.01 434.86L168.99 434.82L168.87 434.7L168.85 434.66L168.8 434.61L168.51 434.25L168.23 433.88L167.97 433.52L167.73 433.14L167.5 432.75L167.29 432.37L167.08 431.97L166.91 431.56L166.75 431.16L166.61 430.74L166.37 429.91L166.28 429.49L166.15 428.62L166.11 428.21L166.08 427.77L166.06 427.34L166.08 426.92L166.09 426.49L166.13 426.05L166.2 425.64L166.27 425.2L166.35 424.79L166.46 424.37L166.7 423.54L166.86 423.14L167.2 422.34L167.62 421.57L167.86 421.21L168.11 420.83L168.37 420.48L168.65 420.13L168.94 419.79L169.25 419.46L169.58 419.14L169.93 418.83L170.28 418.54L170.64 418.26L171.02 418L171.39 417.75L171.79 417.53L172.17 417.32L172.97 416.94L173.39 416.78L173.8 416.64L174.64 416.4L175.05 416.31L175.49 416.24L175.9 416.17L176.77 416.1L177.62 416.1L178.06 416.12L178.47 416.16L178.91 416.23L179.32 416.3L179.76 416.38L180.17 416.49L180.59 416.61L180.99 416.73L181.39 416.89L181.81 417.06L182.19 417.25L182.59 417.44L182.97 417.67L183.33 417.89L183.7 418.14L184.06 418.4L184.41 418.67L184.76 418.97L185.09 419.28L185.4 419.61L185.71 419.96L186.55 420.76L189.05 423.21L189.88 424L195.71 429.72L196.55 430.55L199.05 433L200.7 434.65L201.53 435.46L206.48 440.41L207.29 441.25L208.11 442.06L208.93 442.89L209.74 443.71L210.56 444.54L211.37 445.36L212.17 446.19L212.97 447.01L213.79 447.84L214.59 448.66L215.39 449.49L216.17 450.31L216.97 451.14L217.75 451.96L218.55 452.79L218.6 452.84L218.67 452.88L218.87 453.03L218.93 453.09L219.14 453.24L219.19 453.29L219.26 453.35L219.31 453.42L219.45 453.52L219.5 453.57L219.57 453.62L219.62 453.69L219.67 453.75L219.74 453.8L219.8 453.87L219.86 453.92L219.92 453.99L219.97 454.04L220.04 454.09L220.09 454.16L220.14 454.21L220.25 454.35L220.32 454.41L220.37 454.48L220.42 454.53L220.58 454.74L220.63 454.79L220.78 455L220.82 455.07L220.87 455.12L221.36 455.85L221.57 456.21L221.76 456.58L222.1 457.34L222.24 457.72L222.38 458.12L222.5 458.5L222.68 459.3L222.75 459.7L222.8 460.1L222.83 460.5L222.85 460.9L222.87 461.32L222.83 462.11L222.73 462.91L222.66 463.3L222.57 463.69L222.47 464.08L222.36 464.48L222.23 464.86L222.09 465.22L221.91 465.6L221.74 465.97L221.55 466.32L221.36 466.68L221.13 467.01L220.91 467.36L220.66 467.69L220.4 468L220.13 468.31L219.83 468.63L219.53 468.9L219.2 469.2L218.55 469.72L215.28 473.05L214.45 473.89L208.74 479.72L207.9 480.55L205.45 483.05L204.62 483.89L202.99 485.55L202.16 486.37L201.34 487.2L198.87 489.67L198.06 490.5L197.22 491.32L195.59 492.95L194.76 493.77L193.94 494.56L193.11 495.38L192.29 496.2L191.48 497L190.64 497.79L189.83 498.59L188.99 499.39L188.18 500.19L187.36 500.97L186.53 501.77L185.71 502.55L185.02 503.18L184.67 503.45L183.94 503.98L183.18 504.43L182.38 504.81L181.98 504.98L181.56 505.12L181.16 505.26L180.75 505.38L180.31 505.49L179.9 505.57L179.48 505.64L179.05 505.69L178.61 505.73L178.18 505.75L177.76 505.76L177.33 505.75L176.89 505.71L176.48 505.68L176.04 505.61L175.63 505.54L175.19 505.43L174.77 505.33L174.36 505.19L173.96 505.05L173.54 504.9L173.14 504.72L172.76 504.53L172.36 504.32L171.98 504.1L171.61 503.85L171.25 503.59L170.89 503.32L170.19 502.72L169.86 502.4L169.55 502.07L169.25 501.72L168.7 500.99L168.45 500.62L168.21 500.24L168 499.86L167.8 499.46L167.62 499.08L167.45 498.66L167.29 498.26L167.15 497.85L167.03 497.43L166.94 497.01L166.86 496.58L166.79 496.16L166.74 495.73L166.68 495.31L166.67 494.88L166.67 494.44L166.68 494.01L166.7 493.59L166.75 493.16L166.82 492.72L166.89 492.31L166.98 491.89L167.22 491.06L167.36 490.64L167.71 489.84L167.9 489.44L168.11 489.06L168.33 488.68L168.58 488.3L169.1 487.57L169.39 487.22L170.02 486.56L170.35 486.28L170.68 486.02L171.67 485.19L171.98 484.91L172.31 484.63L172.62 484.36L172.95 484.08L173.26 483.78L173.58 483.5L173.89 483.21L174.2 482.93L175.14 482.05L175.43 481.75L175.75 481.46L176.04 481.16L176.35 480.87L176.65 480.55L176.94 480.26L177.54 479.63L177.83 479.34L178.42 478.71L178.7 478.4L179.29 477.78L179.57 477.45L180.12 476.82L180.4 476.49L180.68 476.18L181.51 475.19L181.77 474.86L182.05 474.53L178.3 474.42L176.42 474.39L174.57 474.35L172.69 474.3L170.83 474.27L168.99 474.22L167.14 474.16L165.31 474.09L163.49 474.01L161.67 473.89L159.88 473.76L158.09 473.61L156.32 473.42L154.56 473.21L152.85 472.95L151.13 472.67L149.44 472.32L147.76 471.96L146.13 471.52L144.49 471.06L142.91 470.52L141.33 469.93L139.81 469.29L138.3 468.57L136.82 467.77L135.38 466.92L133.97 466L132.58 465L131.25 463.92L129.95 462.76L128.7 461.51L127.46 460.15L126.28 458.73L125.15 457.18L124.06 455.55L123.02 453.83L122.01 451.99L121.06 450.03L120.15 447.98L120.15 180.85L120.74 179.51L121.37 178.22L122.03 176.94L122.74 175.71L123.47 174.49L124.25 173.31L125.07 172.16L125.92 171.05L126.82 169.98L127.72 168.92L128.68 167.91L129.67 166.92L130.67 165.98L131.72 165.06L132.79 164.19L133.89 163.36L135.02 162.55L136.16 161.8L137.32 161.07L138.52 160.38L139.74 159.73L140.99 159.12L142.24 158.57L143.51 158.05L144.81 157.56L146.11 157.13L147.45 156.73L148.78 156.38L150.14 156.07L151.51 155.81L152.88 155.58L154.27 155.41L155.68 155.29L157.08 155.2L158.49 155.18L159.91 155.2L161.34 155.25L162.76 155.37L164.2 155.53L165.64 155.76L166.22 155.79L166.79 155.84L167.97 155.91L168.54 155.93L169.13 155.97L169.72 155.98L170.3 156L170.89 156L171.48 156.02L172.07 156.02L172.66 156.03L174.41 156.03L175 156.02L176.18 156.02L176.77 156L177.38 155.98L177.97 155.98L180.92 155.9L181.53 155.88L182.12 155.88L183.3 155.84L183.91 155.83L185.09 155.79L185.7 155.79L186.29 155.77L186.88 155.77L187.48 155.76L234.01 155.76L233.96 155.04L233.79 151.49L233.77 150.77L233.74 150.06L233.7 148.64L233.67 147.93L233.65 147.21L233.65 146.52L233.62 145.1L233.62 144.38L233.6 143.67L233.6 139.4L233.62 138.69L233.62 137.98L233.65 136.55L233.65 135.84L233.67 135.13L233.7 134.42L233.74 132.99L233.77 132.28L233.79 131.57L233.82 130.86L233.86 130.16L233.96 128.03L234.01 127.32L234.12 126.88L234.24 126.43L234.34 126L234.71 124.7L234.85 124.26L234.97 123.83L235.11 123.39L235.23 122.96L235.51 122.09L235.65 121.67L235.8 121.24L235.94 120.82L236.1 120.39L236.25 119.97L236.41 119.54L236.57 119.12L236.72 118.69L236.9 118.27L237.05 117.85L237.92 115.77L238.11 115.35L238.29 114.94L238.48 114.54L238.86 113.71L239.05 113.31L239.26 112.89L239.45 112.49L239.87 111.69L240.07 111.27L240.49 110.48L407.78 110.48L408.23 111.21L408.45 111.59ZM256.92 200.5L391.37 200.5L391.47 133.9L256.92 133.9L256.92 200.5Z" id="bLoWkXMSM"></path><path d="M408.45 111.59L408.68 111.95L408.89 112.32L409.1 112.7L409.3 113.06L409.72 113.83L410.68 115.74L410.85 116.12L411.04 116.52L411.21 116.9L411.39 117.3L411.54 117.7L411.72 118.1L411.87 118.48L412.34 119.68L412.48 120.09L412.76 120.89L412.9 121.31L413.04 121.71L413.16 122.13L413.3 122.53L413.42 122.94L413.52 123.36L413.65 123.76L413.77 124.17L414.08 125.42L414.17 125.84L414.25 126.28L414.36 130.34L414.39 132.39L414.43 134.42L414.46 136.47L414.5 138.5L414.51 140.55L414.55 142.58L414.57 144.63L414.58 146.66L414.6 148.71L414.62 150.74L414.63 152.79L414.65 154.82L414.65 156.87L414.67 158.92L414.67 163L414.69 165.05L414.69 169.13L414.67 171.17L414.67 177.32L414.65 179.37L414.65 181.42L414.62 185.52L414.62 187.56L414.58 191.66L414.58 193.73L414.57 195.78L414.55 197.84L414.53 199.89L414.51 201.96L414.5 204.01L414.48 206.07L414.48 208.14L414.46 209.06L414.44 209.94L414.41 210.8L414.36 211.63L414.31 212.41L414.22 213.17L414.13 213.9L414.03 214.6L413.89 215.27L413.75 215.92L413.58 216.52L413.4 217.1L413.19 217.65L412.97 218.17L412.73 218.68L412.46 219.15L412.19 219.6L411.87 220.01L411.54 220.41L411.2 220.78L410.82 221.13L410.42 221.46L409.98 221.77L409.53 222.05L409.04 222.31L408.54 222.55L408 222.76L407.43 222.97L406.84 223.14L406.21 223.31L405.57 223.45L404.89 223.57L404.18 223.68L403.44 223.78L402.65 223.85L401.84 223.92L401.01 223.97L400.12 224.01L399.22 224.03L249.43 224.03L248.48 224.01L247.56 223.97L246.69 223.92L245.84 223.85L245.04 223.78L244.26 223.7L243.51 223.57L242.82 223.45L242.14 223.31L241.5 223.14L240.89 222.97L240.32 222.76L239.76 222.53L239.24 222.29L238.75 222.03L238.29 221.73L237.85 221.42L237.44 221.07L237.05 220.73L236.71 220.33L236.36 219.91L236.06 219.48L235.77 219.01L235.51 218.52L235.26 218L235.04 217.44L234.85 216.85L234.66 216.25L234.5 215.6L234.36 214.93L234.24 214.22L234.14 213.47L234.03 212.71L233.96 211.89L233.91 211.04L233.86 210.17L233.82 209.25L233.81 208.3L233.81 182.41L233.65 181.63L233.62 181.54L233.55 181.19L233.51 181.11L233.46 180.85L233.42 180.76L233.39 180.58L233.36 180.5L233.34 180.41L233.3 180.32L233.29 180.24L233.25 180.15L233.23 180.06L233.2 179.98L233.18 179.89L233.15 179.8L233.13 179.72L233.09 179.65L233.08 179.56L233.01 179.39L232.99 179.3L232.89 179.04L232.87 178.97L230.89 178.97L228.93 178.95L226.95 178.95L224.97 178.94L223.01 178.94L211.13 178.83L209.13 178.8L205.18 178.76L203.18 178.74L201.2 178.73L199.2 178.71L197.22 178.69L195.23 178.66L193.23 178.66L191.25 178.64L187.26 178.61L185.26 178.61L183.26 178.59L177.27 178.59L175.28 178.61L173.28 178.61L167.29 178.66L161.3 178.76L159.29 178.8L155.29 178.9L153.3 178.97L153.04 178.97L152.78 179L152.26 179.14L152 179.25L151.73 179.37L151.46 179.51L151.2 179.66L150.94 179.84L150.68 180.03L150.15 180.45L149.63 180.93L149.37 181.19L148.85 181.75L148.59 182.04L148.33 182.36L148.09 182.67L147.83 182.98L147.59 183.31L147.32 183.64L147.08 183.97L146.6 184.66L146.37 185.01L146.13 185.36L145.9 185.71L145.66 186.07L145.43 186.42L145.22 186.77L145 187.11L144.79 187.46L144.56 187.79L144.36 188.14L144.16 188.47L143.96 188.8L143.57 189.42L143.51 189.58L143.44 189.75L143.37 189.94L143.31 190.12L143.28 190.31L143.23 190.5L143.19 190.69L143.11 191.73L143.11 192.39L143.14 192.84L143.14 193.09L143.16 193.31L143.18 193.55L143.21 193.78L143.24 194.27L143.28 194.49L143.3 194.74L143.33 194.98L143.35 195.22L143.38 195.46L143.42 195.95L143.45 196.19L143.47 196.42L143.49 196.66L143.52 196.91L143.52 197.15L143.54 197.37L143.56 197.62L143.57 197.84L143.57 431.8L143.59 433.03L143.61 434.21L143.64 435.34L143.7 436.4L143.77 437.43L143.84 438.4L143.92 439.32L144.04 440.19L144.16 441.02L144.32 441.8L144.49 442.53L144.69 443.22L144.89 443.88L145.14 444.49L145.42 445.06L145.71 445.6L146.02 446.09L146.39 446.56L146.77 446.99L147.19 447.37L147.62 447.74L148.11 448.07L148.63 448.38L149.18 448.66L149.79 448.9L150.42 449.13L151.09 449.34L151.8 449.51L152.57 449.67L153.38 449.79L154.24 449.91L155.12 450.01L156.08 450.08L157.07 450.15L158.11 450.2L159.2 450.24L160.35 450.26L161.56 450.27L183.72 450.27L169.81 435.64L169.74 435.57L169.7 435.55L169.69 435.52L169.65 435.5L169.64 435.46L169.6 435.45L169.58 435.41L169.55 435.39L169.11 434.96L169.1 434.93L169.06 434.91L169.05 434.87L169.01 434.86L168.99 434.82L168.87 434.7L168.85 434.66L168.8 434.61L168.51 434.25L168.23 433.88L167.97 433.52L167.73 433.14L167.5 432.75L167.29 432.37L167.08 431.97L166.91 431.56L166.75 431.16L166.61 430.74L166.37 429.91L166.28 429.49L166.15 428.62L166.11 428.21L166.08 427.77L166.06 427.34L166.08 426.92L166.09 426.49L166.13 426.05L166.2 425.64L166.27 425.2L166.35 424.79L166.46 424.37L166.7 423.54L166.86 423.14L167.2 422.34L167.62 421.57L167.86 421.21L168.11 420.83L168.37 420.48L168.65 420.13L168.94 419.79L169.25 419.46L169.58 419.14L169.93 418.83L170.28 418.54L170.64 418.26L171.02 418L171.39 417.75L171.79 417.53L172.17 417.32L172.97 416.94L173.39 416.78L173.8 416.64L174.64 416.4L175.05 416.31L175.49 416.24L175.9 416.17L176.77 416.1L177.62 416.1L178.06 416.12L178.47 416.16L178.91 416.23L179.32 416.3L179.76 416.38L180.17 416.49L180.59 416.61L180.99 416.73L181.39 416.89L181.81 417.06L182.19 417.25L182.59 417.44L182.97 417.67L183.33 417.89L183.7 418.14L184.06 418.4L184.41 418.67L184.76 418.97L185.09 419.28L185.4 419.61L185.71 419.96L186.55 420.76L189.05 423.21L189.88 424L195.71 429.72L196.55 430.55L199.05 433L200.7 434.65L201.53 435.46L206.48 440.41L207.29 441.25L208.11 442.06L208.93 442.89L209.74 443.71L210.56 444.54L211.37 445.36L212.17 446.19L212.97 447.01L213.79 447.84L214.59 448.66L215.39 449.49L216.17 450.31L216.97 451.14L217.75 451.96L218.55 452.79L218.6 452.84L218.67 452.88L218.87 453.03L218.93 453.09L219.14 453.24L219.19 453.29L219.26 453.35L219.31 453.42L219.45 453.52L219.5 453.57L219.57 453.62L219.62 453.69L219.67 453.75L219.74 453.8L219.8 453.87L219.86 453.92L219.92 453.99L219.97 454.04L220.04 454.09L220.09 454.16L220.14 454.21L220.25 454.35L220.32 454.41L220.37 454.48L220.42 454.53L220.58 454.74L220.63 454.79L220.78 455L220.82 455.07L220.87 455.12L221.36 455.85L221.57 456.21L221.76 456.58L222.1 457.34L222.24 457.72L222.38 458.12L222.5 458.5L222.68 459.3L222.75 459.7L222.8 460.1L222.83 460.5L222.85 460.9L222.87 461.32L222.83 462.11L222.73 462.91L222.66 463.3L222.57 463.69L222.47 464.08L222.36 464.48L222.23 464.86L222.09 465.22L221.91 465.6L221.74 465.97L221.55 466.32L221.36 466.68L221.13 467.01L220.91 467.36L220.66 467.69L220.4 468L220.13 468.31L219.83 468.63L219.53 468.9L219.2 469.2L218.55 469.72L215.28 473.05L214.45 473.89L208.74 479.72L207.9 480.55L205.45 483.05L204.62 483.89L202.99 485.55L202.16 486.37L201.34 487.2L198.87 489.67L198.06 490.5L197.22 491.32L195.59 492.95L194.76 493.77L193.94 494.56L193.11 495.38L192.29 496.2L191.48 497L190.64 497.79L189.83 498.59L188.99 499.39L188.18 500.19L187.36 500.97L186.53 501.77L185.71 502.55L185.02 503.18L184.67 503.45L183.94 503.98L183.18 504.43L182.38 504.81L181.98 504.98L181.56 505.12L181.16 505.26L180.75 505.38L180.31 505.49L179.9 505.57L179.48 505.64L179.05 505.69L178.61 505.73L178.18 505.75L177.76 505.76L177.33 505.75L176.89 505.71L176.48 505.68L176.04 505.61L175.63 505.54L175.19 505.43L174.77 505.33L174.36 505.19L173.96 505.05L173.54 504.9L173.14 504.72L172.76 504.53L172.36 504.32L171.98 504.1L171.61 503.85L171.25 503.59L170.89 503.32L170.19 502.72L169.86 502.4L169.55 502.07L169.25 501.72L168.7 500.99L168.45 500.62L168.21 500.24L168 499.86L167.8 499.46L167.62 499.08L167.45 498.66L167.29 498.26L167.15 497.85L167.03 497.43L166.94 497.01L166.86 496.58L166.79 496.16L166.74 495.73L166.68 495.31L166.67 494.88L166.67 494.44L166.68 494.01L166.7 493.59L166.75 493.16L166.82 492.72L166.89 492.31L166.98 491.89L167.22 491.06L167.36 490.64L167.71 489.84L167.9 489.44L168.11 489.06L168.33 488.68L168.58 488.3L169.1 487.57L169.39 487.22L170.02 486.56L170.35 486.28L170.68 486.02L171.67 485.19L171.98 484.91L172.31 484.63L172.62 484.36L172.95 484.08L173.26 483.78L173.58 483.5L173.89 483.21L174.2 482.93L175.14 482.05L175.43 481.75L175.75 481.46L176.04 481.16L176.35 480.87L176.65 480.55L176.94 480.26L177.54 479.63L177.83 479.34L178.42 478.71L178.7 478.4L179.29 477.78L179.57 477.45L180.12 476.82L180.4 476.49L180.68 476.18L181.51 475.19L181.77 474.86L182.05 474.53L178.3 474.42L176.42 474.39L174.57 474.35L172.69 474.3L170.83 474.27L168.99 474.22L167.14 474.16L165.31 474.09L163.49 474.01L161.67 473.89L159.88 473.76L158.09 473.61L156.32 473.42L154.56 473.21L152.85 472.95L151.13 472.67L149.44 472.32L147.76 471.96L146.13 471.52L144.49 471.06L142.91 470.52L141.33 469.93L139.81 469.29L138.3 468.57L136.82 467.77L135.38 466.92L133.97 466L132.58 465L131.25 463.92L129.95 462.76L128.7 461.51L127.46 460.15L126.28 458.73L125.15 457.18L124.06 455.55L123.02 453.83L122.01 451.99L121.06 450.03L120.15 447.98L120.15 180.85L120.74 179.51L121.37 178.22L122.03 176.94L122.74 175.71L123.47 174.49L124.25 173.31L125.07 172.16L125.92 171.05L126.82 169.98L127.72 168.92L128.68 167.91L129.67 166.92L130.67 165.98L131.72 165.06L132.79 164.19L133.89 163.36L135.02 162.55L136.16 161.8L137.32 161.07L138.52 160.38L139.74 159.73L140.99 159.12L142.24 158.57L143.51 158.05L144.81 157.56L146.11 157.13L147.45 156.73L148.78 156.38L150.14 156.07L151.51 155.81L152.88 155.58L154.27 155.41L155.68 155.29L157.08 155.2L158.49 155.18L159.91 155.2L161.34 155.25L162.76 155.37L164.2 155.53L165.64 155.76L166.22 155.79L166.79 155.84L167.97 155.91L168.54 155.93L169.13 155.97L169.72 155.98L170.3 156L170.89 156L171.48 156.02L172.07 156.02L172.66 156.03L174.41 156.03L175 156.02L176.18 156.02L176.77 156L177.38 155.98L177.97 155.98L180.92 155.9L181.53 155.88L182.12 155.88L183.3 155.84L183.91 155.83L185.09 155.79L185.7 155.79L186.29 155.77L186.88 155.77L187.48 155.76L234.01 155.76L233.96 155.04L233.79 151.49L233.77 150.77L233.74 150.06L233.7 148.64L233.67 147.93L233.65 147.21L233.65 146.52L233.62 145.1L233.62 144.38L233.6 143.67L233.6 139.4L233.62 138.69L233.62 137.98L233.65 136.55L233.65 135.84L233.67 135.13L233.7 134.42L233.74 132.99L233.77 132.28L233.79 131.57L233.82 130.86L233.86 130.16L233.96 128.03L234.01 127.32L234.12 126.88L234.24 126.43L234.34 126L234.71 124.7L234.85 124.26L234.97 123.83L235.11 123.39L235.23 122.96L235.51 122.09L235.65 121.67L235.8 121.24L235.94 120.82L236.1 120.39L236.25 119.97L236.41 119.54L236.57 119.12L236.72 118.69L236.9 118.27L237.05 117.85L237.92 115.77L238.11 115.35L238.29 114.94L238.48 114.54L238.86 113.71L239.05 113.31L239.26 112.89L239.45 112.49L239.87 111.69L240.07 111.27L240.49 110.48L407.78 110.48L408.23 111.21L408.45 111.59ZM256.92 200.5L391.37 200.5L391.47 133.9L256.92 133.9L256.92 200.5Z" id="f1N0iVSIcA"></path><path d="M400.95 257.88L401.51 257.95L402.05 258.04L402.59 258.14L403.12 258.28L403.63 258.42L404.15 258.58L404.63 258.77L405.12 258.98L405.59 259.2L406.06 259.44L406.51 259.7L406.96 259.98L407.38 260.3L407.81 260.61L408.21 260.95L409.01 261.68L409.39 262.08L409.76 262.5L410.12 262.95L410.47 263.4L411.13 264.38L411.44 264.9L411.74 265.43L412.03 265.99L412.33 266.56L412.59 267.15L412.86 267.76L413.35 269.05L413.58 269.72L413.8 270.42L414.01 271.13L414.2 271.86L414.39 272.6L414.58 273.37L414.58 279.48L414.6 281.51L414.6 289.65L414.62 291.69L414.62 307.97L414.63 310L414.63 318.15L414.62 320.18L414.62 336.48L414.6 338.51L414.6 346.67L414.58 348.7L414.58 354.82L414.57 355.75L414.53 356.67L414.5 357.54L414.44 358.37L414.37 359.17L414.29 359.95L414.2 360.7L413.96 362.09L413.82 362.73L413.65 363.36L413.47 363.95L413.26 364.5L413.04 365.04L412.79 365.55L412.53 366.03L412.26 366.48L411.96 366.92L411.63 367.33L411.28 367.72L410.9 368.06L410.52 368.39L410.09 368.71L409.65 369L409.17 369.26L408.68 369.5L408.14 369.73L407.59 369.94L407.01 370.13L406.41 370.29L405.76 370.44L405.09 370.56L404.39 370.68L403.66 370.77L402.9 370.86L402.1 370.91L401.27 370.96L400.4 371L399.51 371.01L398.57 371.03L248.96 371.03L248.04 371.01L247.14 371L246.29 370.96L245.47 370.93L244.68 370.86L243.91 370.77L243.18 370.68L242.49 370.58L241.83 370.44L241.19 370.3L240.58 370.15L240 369.96L239.45 369.75L238.91 369.54L238.42 369.3L237.96 369.02L237.5 368.74L237.09 368.43L236.69 368.1L236.31 367.75L235.96 367.37L235.63 366.97L235.33 366.54L235.06 366.08L234.8 365.6L234.55 365.09L234.33 364.56L234.14 364L233.95 363.39L233.79 362.78L233.65 362.13L233.51 361.45L233.41 360.74L233.32 359.99L233.23 359.21L233.18 358.39L233.13 357.56L233.09 356.67L233.08 355.77L233.08 272.48L233.09 271.63L233.13 270.82L233.18 270.02L233.25 269.25L233.32 268.52L233.41 267.81L233.53 267.14L233.65 266.49L233.79 265.87L233.96 265.28L234.14 264.71L234.34 264.17L234.55 263.65L234.8 263.16L235.06 262.69L235.33 262.26L235.63 261.84L235.94 261.44L236.29 261.08L236.65 260.73L237.04 260.4L237.45 260.1L237.89 259.81L238.34 259.55L238.82 259.31L239.33 259.1L239.87 258.89L240.42 258.7L241.01 258.54L241.62 258.39L242.26 258.26L242.94 258.14L243.63 258.06L244.36 257.97L245.11 257.9L245.89 257.86L246.71 257.83L247.56 257.79L399.2 257.79L400.38 257.83L400.95 257.88ZM256.5 347.61L391.06 347.61L391.06 281.01L256.5 281.01L256.5 347.61Z" id="gLwSKQbva"></path><path d="M400.95 257.88L401.51 257.95L402.05 258.04L402.59 258.14L403.12 258.28L403.63 258.42L404.15 258.58L404.63 258.77L405.12 258.98L405.59 259.2L406.06 259.44L406.51 259.7L406.96 259.98L407.38 260.3L407.81 260.61L408.21 260.95L409.01 261.68L409.39 262.08L409.76 262.5L410.12 262.95L410.47 263.4L411.13 264.38L411.44 264.9L411.74 265.43L412.03 265.99L412.33 266.56L412.59 267.15L412.86 267.76L413.35 269.05L413.58 269.72L413.8 270.42L414.01 271.13L414.2 271.86L414.39 272.6L414.58 273.37L414.58 279.48L414.6 281.51L414.6 289.65L414.62 291.69L414.62 307.97L414.63 310L414.63 318.15L414.62 320.18L414.62 336.48L414.6 338.51L414.6 346.67L414.58 348.7L414.58 354.82L414.57 355.75L414.53 356.67L414.5 357.54L414.44 358.37L414.37 359.17L414.29 359.95L414.2 360.7L413.96 362.09L413.82 362.73L413.65 363.36L413.47 363.95L413.26 364.5L413.04 365.04L412.79 365.55L412.53 366.03L412.26 366.48L411.96 366.92L411.63 367.33L411.28 367.72L410.9 368.06L410.52 368.39L410.09 368.71L409.65 369L409.17 369.26L408.68 369.5L408.14 369.73L407.59 369.94L407.01 370.13L406.41 370.29L405.76 370.44L405.09 370.56L404.39 370.68L403.66 370.77L402.9 370.86L402.1 370.91L401.27 370.96L400.4 371L399.51 371.01L398.57 371.03L248.96 371.03L248.04 371.01L247.14 371L246.29 370.96L245.47 370.93L244.68 370.86L243.91 370.77L243.18 370.68L242.49 370.58L241.83 370.44L241.19 370.3L240.58 370.15L240 369.96L239.45 369.75L238.91 369.54L238.42 369.3L237.96 369.02L237.5 368.74L237.09 368.43L236.69 368.1L236.31 367.75L235.96 367.37L235.63 366.97L235.33 366.54L235.06 366.08L234.8 365.6L234.55 365.09L234.33 364.56L234.14 364L233.95 363.39L233.79 362.78L233.65 362.13L233.51 361.45L233.41 360.74L233.32 359.99L233.23 359.21L233.18 358.39L233.13 357.56L233.09 356.67L233.08 355.77L233.08 272.48L233.09 271.63L233.13 270.82L233.18 270.02L233.25 269.25L233.32 268.52L233.41 267.81L233.53 267.14L233.65 266.49L233.79 265.87L233.96 265.28L234.14 264.71L234.34 264.17L234.55 263.65L234.8 263.16L235.06 262.69L235.33 262.26L235.63 261.84L235.94 261.44L236.29 261.08L236.65 260.73L237.04 260.4L237.45 260.1L237.89 259.81L238.34 259.55L238.82 259.31L239.33 259.1L239.87 258.89L240.42 258.7L241.01 258.54L241.62 258.39L242.26 258.26L242.94 258.14L243.63 258.06L244.36 257.97L245.11 257.9L245.89 257.86L246.71 257.83L247.56 257.79L399.2 257.79L400.38 257.83L400.95 257.88ZM256.5 347.61L391.06 347.61L391.06 281.01L256.5 281.01L256.5 347.61Z" id="ek4mi4i7A"></path></defs><g><g><g><use xlink:href="#c1FtGL4wmq" opacity="1" fill="#ffffff" fill-opacity="1"></use><g><use xlink:href="#c1FtGL4wmq" opacity="1" fill-opacity="0" stroke="#000000" stroke-width="1" stroke-opacity="0"></use></g></g><g><use xlink:href="#bDQJQeC5Q" opacity="1" fill="#000000" fill-opacity="0"></use><g><use xlink:href="#bDQJQeC5Q" opacity="1" fill-opacity="0" stroke="#000000" stroke-width="1" stroke-opacity="0"></use></g></g><g><use xlink:href="#d4oajDTf37" opacity="1" fill="#ffffff" fill-opacity="1"></use><g><use xlink:href="#d4oajDTf37" opacity="1" fill-opacity="0" stroke="#000000" stroke-width="1" stroke-opacity="0"></use></g></g><g><use xlink:href="#bpmvQ87a" opacity="1" fill="#000000" fill-opacity="0"></use><g><use xlink:href="#bpmvQ87a" opacity="1" fill-opacity="0" stroke="#000000" stroke-width="1" stroke-opacity="0"></use></g></g><g><use xlink:href="#bqqag5mgW" opacity="1" fill="#ffffff" fill-opacity="1"></use><g><use xlink:href="#bqqag5mgW" opacity="1" fill-opacity="0" stroke="#000000" stroke-width="1" stroke-opacity="0"></use></g></g><g><use xlink:href="#a5uRCDIPgW" opacity="1" fill="#000000" fill-opacity="0"></use><g><use xlink:href="#a5uRCDIPgW" opacity="1" fill-opacity="0" stroke="#000000" stroke-width="1" stroke-opacity="0"></use></g></g><g><use xlink:href="#a1ntyxo47Q" opacity="1" fill="#9aca52" fill-opacity="1"></use><g><use xlink:href="#a1ntyxo47Q" opacity="1" fill-opacity="0" stroke="#000000" stroke-width="1" stroke-opacity="0"></use></g></g><g><use xlink:href="#c7eeeiGCbt" opacity="1" fill="#000000" fill-opacity="0"></use><g><use xlink:href="#c7eeeiGCbt" opacity="1" fill-opacity="0" stroke="#000000" stroke-width="1" stroke-opacity="0"></use></g></g><g><use xlink:href="#e8F0C2lMQ" opacity="1" fill="#ffffff" fill-opacity="1"></use><g><use xlink:href="#e8F0C2lMQ" opacity="1" fill-opacity="0" stroke="#000000" stroke-width="1" stroke-opacity="0"></use></g></g><g><use xlink:href="#a1mSHsLyHj" opacity="1" fill="#000000" fill-opacity="0"></use><g><use xlink:href="#a1mSHsLyHj" opacity="1" fill-opacity="0" stroke="#000000" stroke-width="1" stroke-opacity="0"></use></g></g><g><use xlink:href="#bLoWkXMSM" opacity="1" fill="#ffffff" fill-opacity="1"></use><g><use xlink:href="#bLoWkXMSM" opacity="1" fill-opacity="0" stroke="#000000" stroke-width="1" stroke-opacity="0"></use></g></g><g><use xlink:href="#f1N0iVSIcA" opacity="1" fill="#000000" fill-opacity="0"></use><g><use xlink:href="#f1N0iVSIcA" opacity="1" fill-opacity="0" stroke="#000000" stroke-width="1" stroke-opacity="0"></use></g></g><g><use xlink:href="#gLwSKQbva" opacity="1" fill="#ffffff" fill-opacity="1"></use><g><use xlink:href="#gLwSKQbva" opacity="1" fill-opacity="0" stroke="#000000" stroke-width="1" stroke-opacity="0"></use></g></g><g><use xlink:href="#ek4mi4i7A" opacity="1" fill="#000000" fill-opacity="0"></use><g><use xlink:href="#ek4mi4i7A" opacity="1" fill-opacity="0" stroke="#000000" stroke-width="1" stroke-opacity="0"></use></g></g></g></g></svg>