<?xml version="1.0" encoding="UTF-8" standalone="no"?>
<!DOCTYPE svg PUBLIC "-//W3C//DTD SVG 1.1//EN" "http://www.w3.org/Graphics/SVG/1.1/DTD/svg11.dtd">
<svg version="1.1" xmlns="http://www.w3.org/2000/svg" xmlns:xlink="http://www.w3.org/1999/xlink" preserveAspectRatio="xMidYMid meet" viewBox="0 0 640 640" width="640" height="640"><defs><path d="M97.45 543.75C220.36 666.65 419.61 666.65 542.52 543.75C665.42 420.85 665.42 221.58 542.52 98.67C419.61 -24.23 220.36 -24.23 97.45 98.67C-25.45 221.58 -25.45 420.85 97.45 543.75Z" id="aLY26uq9N"></path><path d="M97.45 543.75C220.36 666.65 419.61 666.65 542.52 543.75C665.42 420.85 665.42 221.58 542.52 98.67C419.61 -24.23 220.36 -24.23 97.45 98.67C-25.45 221.58 -25.45 420.85 97.45 543.75Z" id="dLeCwuvRx"></path><path d="M226.5 254.64L227.02 254.83L227.51 255.03L229.51 255.86L229.99 256.09L230.49 256.31L230.97 256.54L231.47 256.78L232.92 257.5L233.38 257.76L233.87 258L234.33 258.27L234.81 258.53L235.75 259.08L236.2 259.35L236.66 259.62L237.13 259.91L238.03 260.49L238.93 261.1L239.37 261.41L239.82 261.72L240.25 262.02L241.12 262.66L241.55 263L241.99 263.32L242.4 263.66L242.84 264L243.26 264.34L243.66 264.69L244.08 265.03L244.5 265.38L267.06 258.03L283.62 284.57L264.24 301.11L264.29 301.35L264.39 302.08L264.43 302.32L264.56 303.28L264.58 303.52L264.68 304.25L264.69 304.49L264.72 304.73L264.74 304.97L264.77 305.21L264.8 305.7L264.84 305.95L264.93 307.4L264.93 307.64L264.98 308.36L264.98 308.61L265 308.86L265 309.35L265.01 309.59L265.01 310.81L264.98 311.26L264.97 311.47L264.9 312.37L264.87 312.59L264.84 313.04L264.8 313.27L264.79 313.49L264.72 313.94L264.71 314.17L264.68 314.39L264.64 314.6L264.61 314.83L264.6 315.05L264.47 315.95L264.42 316.16L264.32 316.84L264.27 317.06L264.24 317.27L264.19 317.5L264.16 317.72L264.11 317.95L264.08 318.17L264.03 318.38L263.98 318.61L263.95 318.83L263.9 319.04L263.76 319.72L283.12 336.26L267.06 362.7L244.5 355.35L244.08 355.71L243.66 356.04L243.26 356.4L242.84 356.73L242.4 357.07L241.99 357.41L241.55 357.73L241.12 358.07L240.25 358.71L239.82 359.02L239.37 359.32L238.93 359.63L238.03 360.24L237.13 360.82L236.66 361.11L236.2 361.38L235.75 361.66L234.81 362.2L234.33 362.46L233.87 362.72L233.38 362.97L232.92 363.23L231.47 363.96L230.97 364.2L230.49 364.42L229.99 364.65L229.51 364.87L227.51 365.71L227.02 365.9L226.5 366.09L226 366.29L220.95 388.17L189.87 388.17L184.84 366.29L184.34 366.09L183.82 365.9L183.32 365.71L181.33 364.87L180.83 364.65L180.35 364.42L179.85 364.2L177.92 363.23L177.44 362.97L176.97 362.72L176.49 362.46L176.02 362.2L174.63 361.38L174.18 361.11L173.71 360.82L172.81 360.24L171.46 359.32L171.02 359.02L170.57 358.71L169.7 358.07L169.29 357.73L168.85 357.41L168.42 357.07L167.58 356.4L167.16 356.04L166.76 355.71L166.34 355.35L143.78 362.7L127.7 336.26L147.08 319.72L146.92 318.78L146.66 316.92L146.47 315.05L146.37 313.66L146.34 313.17L146.28 311.31L146.28 309.43L146.34 307.56L146.37 307.08L146.47 305.68L146.66 303.81L146.92 301.95L147.08 301.02L127.7 284.47L143.78 258.03L166.34 265.38L166.76 265.03L167.16 264.69L167.58 264.34L168.42 263.66L168.85 263.32L169.29 263L169.7 262.66L170.57 262.02L171.02 261.72L171.46 261.41L172.81 260.49L173.71 259.91L174.18 259.62L174.63 259.35L176.02 258.53L176.49 258.27L176.97 258L177.44 257.76L177.92 257.5L179.85 256.54L180.35 256.31L180.83 256.09L181.33 255.86L183.32 255.03L183.82 254.83L184.34 254.64L184.84 254.45L189.87 232.56L220.95 232.56L226 254.45L226.5 254.64ZM189.97 256.38L189.39 259.09L186.78 260.06L186.32 260.22L185.85 260.4L184.95 260.75L184.48 260.93L183.58 261.31L183.15 261.51L182.7 261.7L182.25 261.91L181.81 262.1L181.36 262.33L180.49 262.74L179.63 263.19L179.19 263.44L178.76 263.66L177.92 264.14L177.49 264.38L177.07 264.64L176.65 264.88L176.23 265.14L175.83 265.4L175.41 265.67L175.01 265.93L174.21 266.48L173.81 266.76L173.4 267.04L173 267.33L172.62 267.62L172.21 267.91L171.83 268.21L171.44 268.5L171.06 268.81L170.69 269.11L170.3 269.43L169.93 269.74L167.69 271.69L164.9 270.82L146.21 264.71L134.49 284.08L150.17 297.74L152.31 299.57L152.31 302.38L152.23 302.8L152.16 303.22L152.1 303.65L152.03 304.07L151.98 304.51L151.94 304.92L151.87 305.34L151.84 305.78L151.79 306.19L151.74 306.63L151.71 307.05L151.68 307.48L151.66 307.91L151.63 308.33L151.61 308.77L151.6 309.18L151.58 309.62L151.57 310.04L151.57 311.76L151.58 312.18L151.61 313.04L151.63 313.46L151.66 313.9L151.68 314.31L151.71 314.75L151.74 315.17L151.79 315.6L151.84 316.02L151.87 316.45L151.94 316.87L151.98 317.31L152.03 317.72L152.1 318.16L152.23 318.99L152.31 319.43L152.31 322.23L150.17 324.08L134.49 337.73L146.21 357.09L164.9 350.99L167.69 350.11L169.93 352.06L170.3 352.36L170.69 352.68L171.06 352.99L171.44 353.29L171.83 353.58L172.21 353.89L172.62 354.18L173 354.47L173.81 355.05L175.01 355.87L175.41 356.12L175.83 356.4L176.23 356.65L177.07 357.17L177.49 357.41L177.92 357.65L178.76 358.13L179.19 358.38L180.49 359.05L180.93 359.26L181.36 359.48L181.81 359.69L182.25 359.9L183.15 360.29L183.58 360.5L184.03 360.67L184.48 360.87L184.95 361.04L185.85 361.4L186.32 361.58L186.78 361.74L189.39 362.7L189.97 365.42L194.03 383.24L216.88 383.24L220.95 365.42L221.55 362.7L224.15 361.74L224.62 361.58L225.07 361.4L225.54 361.22L226.44 360.87L226.89 360.67L227.34 360.5L227.79 360.29L228.69 359.9L229.12 359.69L229.57 359.48L230.01 359.26L230.44 359.05L231.74 358.38L232.16 358.13L232.6 357.89L233.43 357.41L233.87 357.17L234.28 356.91L234.69 356.65L235.1 356.4L235.52 356.12L235.92 355.87L237.13 355.05L237.93 354.47L238.71 353.89L239.11 353.58L239.49 353.29L239.86 352.99L240.25 352.68L240.64 352.36L241.01 352.06L243.22 350.11L246.04 350.99L264.72 357.09L276.45 337.73L260.95 323.98L258.82 322.13L258.82 319.33L258.89 318.9L258.97 318.48L259.03 318.05L259.08 317.63L259.14 317.21L259.19 316.77L259.24 316.36L259.29 315.92L259.34 315.5L259.37 315.07L259.42 314.65L259.45 314.22L259.47 313.8L259.5 313.37L259.51 312.95L259.55 312.08L259.55 311.66L259.56 311.23L259.56 310.37L259.55 309.94L259.55 309.52L259.53 309.09L259.51 308.67L259.5 308.24L259.47 307.8L259.45 307.38L259.42 306.95L259.37 306.53L259.34 306.1L259.29 305.68L259.24 305.25L259.19 304.83L259.14 304.39L259.08 303.97L259.03 303.56L258.97 303.12L258.89 302.7L258.82 302.29L258.82 299.47L260.95 297.64L276.45 284.18L264.72 264.8L246.04 270.91L243.22 271.78L241.01 269.84L240.64 269.53L240.25 269.21L239.86 268.9L239.49 268.6L239.11 268.31L238.71 268L237.93 267.42L237.53 267.13L237.13 266.86L236.73 266.57L235.92 266.02L235.52 265.77L235.1 265.49L234.69 265.24L234.28 264.98L233.87 264.74L233.43 264.48L232.6 264L232.16 263.76L231.74 263.53L231.31 263.29L230.44 262.84L229.57 262.42L229.12 262.21L228.69 262L228.24 261.8L226.44 261.02L225.54 260.67L225.07 260.49L224.62 260.32L224.15 260.16L221.55 259.19L220.95 256.47L216.88 238.66L194.03 238.66L189.97 256.38Z" id="awuaTI6Pk"></path><path d="M226.5 254.64L227.02 254.83L227.51 255.03L229.51 255.86L229.99 256.09L230.49 256.31L230.97 256.54L231.47 256.78L232.92 257.5L233.38 257.76L233.87 258L234.33 258.27L234.81 258.53L235.75 259.08L236.2 259.35L236.66 259.62L237.13 259.91L238.03 260.49L238.93 261.1L239.37 261.41L239.82 261.72L240.25 262.02L241.12 262.66L241.55 263L241.99 263.32L242.4 263.66L242.84 264L243.26 264.34L243.66 264.69L244.08 265.03L244.5 265.38L267.06 258.03L283.62 284.57L264.24 301.11L264.29 301.35L264.39 302.08L264.43 302.32L264.56 303.28L264.58 303.52L264.68 304.25L264.69 304.49L264.72 304.73L264.74 304.97L264.77 305.21L264.8 305.7L264.84 305.95L264.93 307.4L264.93 307.64L264.98 308.36L264.98 308.61L265 308.86L265 309.35L265.01 309.59L265.01 310.81L264.98 311.26L264.97 311.47L264.9 312.37L264.87 312.59L264.84 313.04L264.8 313.27L264.79 313.49L264.72 313.94L264.71 314.17L264.68 314.39L264.64 314.6L264.61 314.83L264.6 315.05L264.47 315.95L264.42 316.16L264.32 316.84L264.27 317.06L264.24 317.27L264.19 317.5L264.16 317.72L264.11 317.95L264.08 318.17L264.03 318.38L263.98 318.61L263.95 318.83L263.9 319.04L263.76 319.72L283.12 336.26L267.06 362.7L244.5 355.35L244.08 355.71L243.66 356.04L243.26 356.4L242.84 356.73L242.4 357.07L241.99 357.41L241.55 357.73L241.12 358.07L240.25 358.71L239.82 359.02L239.37 359.32L238.93 359.63L238.03 360.24L237.13 360.82L236.66 361.11L236.2 361.38L235.75 361.66L234.81 362.2L234.33 362.46L233.87 362.72L233.38 362.97L232.92 363.23L231.47 363.96L230.97 364.2L230.49 364.42L229.99 364.65L229.51 364.87L227.51 365.71L227.02 365.9L226.5 366.09L226 366.29L220.95 388.17L189.87 388.17L184.84 366.29L184.34 366.09L183.82 365.9L183.32 365.71L181.33 364.87L180.83 364.65L180.35 364.42L179.85 364.2L177.92 363.23L177.44 362.97L176.97 362.72L176.49 362.46L176.02 362.2L174.63 361.38L174.18 361.11L173.71 360.82L172.81 360.24L171.46 359.32L171.02 359.02L170.57 358.71L169.7 358.07L169.29 357.73L168.85 357.41L168.42 357.07L167.58 356.4L167.16 356.04L166.76 355.71L166.34 355.35L143.78 362.7L127.7 336.26L147.08 319.72L146.92 318.78L146.66 316.92L146.47 315.05L146.37 313.66L146.34 313.17L146.28 311.31L146.28 309.43L146.34 307.56L146.37 307.08L146.47 305.68L146.66 303.81L146.92 301.95L147.08 301.02L127.7 284.47L143.78 258.03L166.34 265.38L166.76 265.03L167.16 264.69L167.58 264.34L168.42 263.66L168.85 263.32L169.29 263L169.7 262.66L170.57 262.02L171.02 261.72L171.46 261.41L172.81 260.49L173.71 259.91L174.18 259.62L174.63 259.35L176.02 258.53L176.49 258.27L176.97 258L177.44 257.76L177.92 257.5L179.85 256.54L180.35 256.31L180.83 256.09L181.33 255.86L183.32 255.03L183.82 254.83L184.34 254.64L184.84 254.45L189.87 232.56L220.95 232.56L226 254.45L226.5 254.64ZM189.97 256.38L189.39 259.09L186.78 260.06L186.32 260.22L185.85 260.4L184.95 260.75L184.48 260.93L183.58 261.31L183.15 261.51L182.7 261.7L182.25 261.91L181.81 262.1L181.36 262.33L180.49 262.74L179.63 263.19L179.19 263.44L178.76 263.66L177.92 264.14L177.49 264.38L177.07 264.64L176.65 264.88L176.23 265.14L175.83 265.4L175.41 265.67L175.01 265.93L174.21 266.48L173.81 266.76L173.4 267.04L173 267.33L172.62 267.62L172.21 267.91L171.83 268.21L171.44 268.5L171.06 268.81L170.69 269.11L170.3 269.43L169.93 269.74L167.69 271.69L164.9 270.82L146.21 264.71L134.49 284.08L150.17 297.74L152.31 299.57L152.31 302.38L152.23 302.8L152.16 303.22L152.1 303.65L152.03 304.07L151.98 304.51L151.94 304.92L151.87 305.34L151.84 305.78L151.79 306.19L151.74 306.63L151.71 307.05L151.68 307.48L151.66 307.91L151.63 308.33L151.61 308.77L151.6 309.18L151.58 309.62L151.57 310.04L151.57 311.76L151.58 312.18L151.61 313.04L151.63 313.46L151.66 313.9L151.68 314.31L151.71 314.75L151.74 315.17L151.79 315.6L151.84 316.02L151.87 316.45L151.94 316.87L151.98 317.31L152.03 317.72L152.1 318.16L152.23 318.99L152.31 319.43L152.31 322.23L150.17 324.08L134.49 337.73L146.21 357.09L164.9 350.99L167.69 350.11L169.93 352.06L170.3 352.36L170.69 352.68L171.06 352.99L171.44 353.29L171.83 353.58L172.21 353.89L172.62 354.18L173 354.47L173.81 355.05L175.01 355.87L175.41 356.12L175.83 356.4L176.23 356.65L177.07 357.17L177.49 357.41L177.92 357.65L178.76 358.13L179.19 358.38L180.49 359.05L180.93 359.26L181.36 359.48L181.81 359.69L182.25 359.9L183.15 360.29L183.58 360.5L184.03 360.67L184.48 360.87L184.95 361.04L185.85 361.4L186.32 361.58L186.78 361.74L189.39 362.7L189.97 365.42L194.03 383.24L216.88 383.24L220.95 365.42L221.55 362.7L224.15 361.74L224.62 361.58L225.07 361.4L225.54 361.22L226.44 360.87L226.89 360.67L227.34 360.5L227.79 360.29L228.69 359.9L229.12 359.69L229.57 359.48L230.01 359.26L230.44 359.05L231.74 358.38L232.16 358.13L232.6 357.89L233.43 357.41L233.87 357.17L234.28 356.91L234.69 356.65L235.1 356.4L235.52 356.12L235.92 355.87L237.13 355.05L237.93 354.47L238.71 353.89L239.11 353.58L239.49 353.29L239.86 352.99L240.25 352.68L240.64 352.36L241.01 352.06L243.22 350.11L246.04 350.99L264.72 357.09L276.45 337.73L260.95 323.98L258.82 322.13L258.82 319.33L258.89 318.9L258.97 318.48L259.03 318.05L259.08 317.63L259.14 317.21L259.19 316.77L259.24 316.36L259.29 315.92L259.34 315.5L259.37 315.07L259.42 314.65L259.45 314.22L259.47 313.8L259.5 313.37L259.51 312.95L259.55 312.08L259.55 311.66L259.56 311.23L259.56 310.37L259.55 309.94L259.55 309.52L259.53 309.09L259.51 308.67L259.5 308.24L259.47 307.8L259.45 307.38L259.42 306.95L259.37 306.53L259.34 306.1L259.29 305.68L259.24 305.25L259.19 304.83L259.14 304.39L259.08 303.97L259.03 303.56L258.97 303.12L258.89 302.7L258.82 302.29L258.82 299.47L260.95 297.64L276.45 284.18L264.72 264.8L246.04 270.91L243.22 271.78L241.01 269.84L240.64 269.53L240.25 269.21L239.86 268.9L239.49 268.6L239.11 268.31L238.71 268L237.93 267.42L237.53 267.13L237.13 266.86L236.73 266.57L235.92 266.02L235.52 265.77L235.1 265.49L234.69 265.24L234.28 264.98L233.87 264.74L233.43 264.48L232.6 264L232.16 263.76L231.74 263.53L231.31 263.29L230.44 262.84L229.57 262.42L229.12 262.21L228.69 262L228.24 261.8L226.44 261.02L225.54 260.67L225.07 260.49L224.62 260.32L224.15 260.16L221.55 259.19L220.95 256.47L216.88 238.66L194.03 238.66L189.97 256.38Z" id="cTmJiSzFD"></path><path d="M209.68 280L211.72 280.35L213.73 280.83L215.68 281.43L217.56 282.15L219.39 283.01L221.16 283.95L222.85 285.03L224.46 286.19L226 287.46L227.45 288.83L228.8 290.27L230.07 291.8L231.24 293.43L232.31 295.11L233.25 296.87L234.11 298.7L234.83 300.6L235.44 302.54L235.92 304.54L236.26 306.58L236.47 308.67L236.55 310.81L236.47 312.93L236.26 315.02L235.92 317.06L235.44 319.06L234.83 321L234.11 322.9L233.25 324.73L232.31 326.49L231.24 328.18L230.07 329.8L228.8 331.33L227.45 332.77L226 334.14L224.46 335.41L222.85 336.57L221.16 337.65L219.39 338.6L217.56 339.45L215.68 340.17L213.73 340.78L211.72 341.25L209.68 341.6L207.59 341.81L205.47 341.89L203.35 341.81L201.25 341.6L199.2 341.25L197.2 340.78L195.26 340.17L193.36 339.45L191.54 338.6L189.77 337.65L188.08 336.57L186.48 335.41L184.93 334.14L183.49 332.77L182.12 331.33L180.86 329.8L179.69 328.18L178.63 326.49L177.66 324.73L176.83 322.9L176.1 321L175.49 319.06L175.01 317.06L174.67 315.02L174.45 312.93L174.38 310.81L174.45 308.67L174.67 306.58L175.01 304.54L175.49 302.54L176.1 300.6L176.83 298.7L177.66 296.87L178.63 295.11L179.69 293.43L180.86 291.8L182.12 290.27L183.49 288.83L184.93 287.46L186.48 286.19L188.08 285.03L189.77 283.95L191.54 283.01L193.36 282.15L195.26 281.43L197.2 280.83L199.2 280.35L201.25 280L203.35 279.79L205.47 279.73L207.59 279.79L209.68 280ZM201.43 301.26L199.68 302.21L198.13 303.48L196.88 305L195.92 306.77L195.32 308.72L195.11 310.81L195.32 312.88L195.92 314.83L196.88 316.6L198.13 318.13L199.68 319.4L201.43 320.34L203.38 320.96L205.47 321.16L207.56 320.96L209.5 320.34L211.26 319.4L212.8 318.13L214.05 316.6L215.02 314.83L215.61 312.88L215.82 310.81L215.61 308.72L215.02 306.77L214.05 305L212.8 303.48L211.26 302.21L209.5 301.26L207.56 300.65L205.47 300.44L203.38 300.65L201.43 301.26Z" id="aTxDETWf"></path><path d="M209.68 280L211.72 280.35L213.73 280.83L215.68 281.43L217.56 282.15L219.39 283.01L221.16 283.95L222.85 285.03L224.46 286.19L226 287.46L227.45 288.83L228.8 290.27L230.07 291.8L231.24 293.43L232.31 295.11L233.25 296.87L234.11 298.7L234.83 300.6L235.44 302.54L235.92 304.54L236.26 306.58L236.47 308.67L236.55 310.81L236.47 312.93L236.26 315.02L235.92 317.06L235.44 319.06L234.83 321L234.11 322.9L233.25 324.73L232.31 326.49L231.24 328.18L230.07 329.8L228.8 331.33L227.45 332.77L226 334.14L224.46 335.41L222.85 336.57L221.16 337.65L219.39 338.6L217.56 339.45L215.68 340.17L213.73 340.78L211.72 341.25L209.68 341.6L207.59 341.81L205.47 341.89L203.35 341.81L201.25 341.6L199.2 341.25L197.2 340.78L195.26 340.17L193.36 339.45L191.54 338.6L189.77 337.65L188.08 336.57L186.48 335.41L184.93 334.14L183.49 332.77L182.12 331.33L180.86 329.8L179.69 328.18L178.63 326.49L177.66 324.73L176.83 322.9L176.1 321L175.49 319.06L175.01 317.06L174.67 315.02L174.45 312.93L174.38 310.81L174.45 308.67L174.67 306.58L175.01 304.54L175.49 302.54L176.1 300.6L176.83 298.7L177.66 296.87L178.63 295.11L179.69 293.43L180.86 291.8L182.12 290.27L183.49 288.83L184.93 287.46L186.48 286.19L188.08 285.03L189.77 283.95L191.54 283.01L193.36 282.15L195.26 281.43L197.2 280.83L199.2 280.35L201.25 280L203.35 279.79L205.47 279.73L207.59 279.79L209.68 280ZM201.43 301.26L199.68 302.21L198.13 303.48L196.88 305L195.92 306.77L195.32 308.72L195.11 310.81L195.32 312.88L195.92 314.83L196.88 316.6L198.13 318.13L199.68 319.4L201.43 320.34L203.38 320.96L205.47 321.16L207.56 320.96L209.5 320.34L211.26 319.4L212.8 318.13L214.05 316.6L215.02 314.83L215.61 312.88L215.82 310.81L215.61 308.72L215.02 306.77L214.05 305L212.8 303.48L211.26 302.21L209.5 301.26L207.56 300.65L205.47 300.44L203.38 300.65L201.43 301.26Z" id="a7tHIl4VRZ"></path><path d="M373.4 165.55L373.91 165.75L374.41 165.94L374.91 166.15L375.41 166.34L375.9 166.57L376.4 166.78L376.9 167L377.38 167.23L377.88 167.45L378.37 167.69L378.85 167.92L379.33 168.17L379.81 168.42L380.28 168.67L380.76 168.91L381.23 169.19L381.71 169.45L383.11 170.27L383.56 170.54L384.03 170.83L384.93 171.41L386.28 172.32L387.15 172.93L387.6 173.26L388.03 173.58L388.45 173.9L388.88 174.24L389.3 174.57L389.73 174.91L390.15 175.25L390.57 175.6L390.97 175.94L391.39 176.3L413.95 168.95L430.51 194.98L411.14 211.54L411.19 211.79L411.25 212.27L411.3 212.51L411.49 213.96L411.51 214.2L411.57 214.68L411.59 214.92L411.62 215.16L411.64 215.4L411.67 215.64L411.7 216.13L411.73 216.37L411.76 216.85L411.78 217.11L411.84 218.07L411.84 218.31L411.88 218.8L411.88 219.04L411.89 219.28L411.89 219.78L411.91 220.02L411.91 221.47L411.88 221.95L411.86 222.21L411.8 223.17L411.76 223.41L411.73 223.89L411.7 224.12L411.68 224.36L411.62 224.84L411.6 225.08L411.31 227.25L411.28 227.48L411.23 227.72L411.2 227.96L411.15 228.2L411.12 228.44L411.07 228.69L411.04 228.91L410.85 229.88L410.8 230.1L410.65 230.82L430.03 247.37L413.95 273.81L391.39 266.46L390.97 266.81L390.57 267.15L390.15 267.5L389.73 267.84L389.3 268.18L388.88 268.52L388.45 268.84L388.03 269.18L387.6 269.5L387.15 269.8L386.71 270.13L386.28 270.43L384.93 271.35L384.03 271.93L383.56 272.22L383.11 272.49L381.71 273.31L381.23 273.57L380.76 273.82L380.28 274.08L379.81 274.34L377.88 275.3L377.38 275.53L376.9 275.75L376.4 275.98L374.41 276.81L373.91 277.01L373.4 277.2L372.9 277.39L367.46 299.28L336.77 299.28L331.73 277.39L331.23 277.2L330.72 277.01L330.22 276.8L329.72 276.61L329.22 276.4L328.72 276.17L328.23 275.96L327.73 275.74L327.25 275.51L326.75 275.27L326.26 275.05L325.78 274.8L325.3 274.55L324.82 274.31L324.33 274.05L323.87 273.79L323.39 273.53L321.52 272.44L321.05 272.15L319.7 271.28L318.35 270.37L317.92 270.06L317.47 269.74L316.6 269.1L316.17 268.76L315.75 268.44L315.31 268.1L314.9 267.76L314.48 267.41L314.06 267.07L313.66 266.72L313.24 266.36L290.68 273.71L274.6 247.27L293.97 230.73L293.81 229.8L293.56 227.93L293.36 226.06L293.3 225.13L293.27 224.65L293.24 224.18L293.17 222.32L293.17 220.44L293.24 218.57L293.27 218.09L293.36 216.69L293.56 214.82L293.81 212.96L293.97 212.03L274.6 195.48L290.68 169.04L313.24 176.39L313.66 176.04L314.06 175.7L314.48 175.35L314.9 175.01L315.33 174.67L315.75 174.33L316.18 174L316.6 173.67L317.03 173.35L317.48 173.03L318.35 172.42L319.7 171.5L320.6 170.92L321.07 170.64L321.52 170.36L322.92 169.54L323.4 169.28L323.87 169.01L324.35 168.77L324.82 168.51L325.3 168.27L325.78 168.01L326.26 167.79L326.75 167.55L327.25 167.32L327.73 167.1L328.23 166.87L328.72 166.66L329.22 166.44L329.72 166.25L330.22 166.04L330.72 165.84L331.23 165.65L331.73 165.46L336.77 143.57L367.46 143.57L372.9 165.36L373.4 165.55ZM336.77 166.62L336.19 169.33L333.58 170.3L333.11 170.46L332.66 170.64L332.2 170.81L331.3 171.17L330.83 171.36L330.38 171.54L329.95 171.74L329.05 172.13L328.61 172.34L328.16 172.55L327.73 172.77L327.29 172.98L325.99 173.66L325.57 173.9L325.14 174.14L324.72 174.38L324.29 174.62L323.87 174.86L323.45 175.12L323.05 175.38L322.63 175.64L322.21 175.91L321.81 176.17L320.6 176.99L319.8 177.57L319.41 177.86L319.01 178.14L318.63 178.43L317.85 179.05L317.48 179.35L317.1 179.67L316.73 179.98L314.49 181.92L311.7 181.04L293.01 174.94L281.29 194.31L296.98 208.34L299.1 210.19L299.1 213.01L299.04 213.43L298.96 213.84L298.9 214.28L298.83 214.7L298.78 215.11L298.73 215.55L298.69 215.97L298.64 216.4L298.59 216.82L298.56 217.25L298.51 217.67L298.48 218.1L298.46 218.52L298.43 218.96L298.41 219.39L298.4 219.81L298.38 220.24L298.38 220.66L298.36 221.1L298.36 221.95L298.38 222.38L298.38 222.8L298.4 223.23L298.41 223.65L298.43 224.09L298.46 224.52L298.48 224.94L298.51 225.37L298.56 225.79L298.59 226.23L298.64 226.64L298.69 227.08L298.73 227.5L298.78 227.93L298.83 228.35L298.9 228.77L298.96 229.2L299.04 229.62L299.1 230.04L299.1 232.85L296.98 234.68L281.29 248.34L293.01 267.71L311.79 261.6L314.59 260.73L316.83 262.68L317.2 262.99L317.58 263.31L317.97 263.61L318.34 263.92L318.72 264.21L319.12 264.51L319.9 265.09L320.3 265.38L320.7 265.65L321.1 265.94L321.91 266.49L322.31 266.75L322.73 267.02L323.14 267.28L323.55 267.54L323.96 267.79L324.38 268.03L324.82 268.28L325.24 268.52L325.67 268.76L326.09 269L327.39 269.68L328.26 270.09L328.71 270.32L329.14 270.51L329.59 270.72L330.04 270.91L330.48 271.11L330.93 271.3L331.39 271.49L332.29 271.85L332.76 272.02L333.21 272.2L333.68 272.36L336.28 273.33L336.88 276.04L340.93 293.86L363.8 293.86L367.85 276.04L368.44 273.33L371.05 272.36L371.51 272.2L371.97 272.02L372.43 271.85L373.33 271.49L373.8 271.3L374.25 271.11L374.68 270.91L375.13 270.72L375.58 270.51L376.02 270.32L376.47 270.09L377.34 269.68L378.64 269L379.06 268.76L379.49 268.52L379.91 268.28L380.34 268.03L380.76 267.79L381.18 267.54L381.58 267.28L382 267.02L382.42 266.75L382.82 266.49L383.62 265.94L384.03 265.65L384.43 265.38L384.83 265.09L385.22 264.8L385.62 264.51L386 264.21L386.39 263.92L386.76 263.61L387.15 263.31L387.53 262.99L387.9 262.68L390.14 260.73L392.93 261.6L411.62 267.71L423.34 248.34L407.26 234.2L405.14 232.37L405.14 229.55L405.2 229.14L405.28 228.72L405.35 228.28L405.4 227.87L405.46 227.43L405.56 226.6L405.61 226.16L405.65 225.74L405.69 225.31L405.73 224.89L405.77 224.46L405.78 224.02L405.81 223.6L405.83 223.17L405.85 222.75L405.86 222.32L405.86 221.9L405.88 221.47L405.88 220.61L405.86 220.18L405.86 219.76L405.83 218.89L405.81 218.47L405.78 218.04L405.77 217.62L405.73 217.19L405.69 216.77L405.65 216.34L405.61 215.92L405.56 215.48L405.51 215.07L405.46 214.63L405.4 214.21L405.35 213.78L405.28 213.36L405.2 212.94L405.14 212.51L405.14 209.71L407.26 207.86L422.96 194.21L411.23 174.85L392.55 180.94L389.73 181.83L387.52 179.88L387.15 179.58L386.76 179.25L386.37 178.95L386 178.64L385.62 178.34L385.22 178.05L384.44 177.47L383.64 176.89L382.03 175.8L381.2 175.28L380.79 175.03L380.38 174.77L379.96 174.53L379.52 174.29L379.1 174.04L378.67 173.8L378.25 173.56L376.95 172.89L376.52 172.68L376.08 172.45L375.63 172.24L375.2 172.03L374.3 171.65L373.85 171.44L373.4 171.26L372.95 171.07L372.05 170.72L371.58 170.54L371.13 170.36L370.66 170.2L368.06 169.24L367.46 166.52L363.7 148.8L340.83 148.8L336.77 166.62Z" id="evzTYjoih"></path><path d="M373.4 165.55L373.91 165.75L374.41 165.94L374.91 166.15L375.41 166.34L375.9 166.57L376.4 166.78L376.9 167L377.38 167.23L377.88 167.45L378.37 167.69L378.85 167.92L379.33 168.17L379.81 168.42L380.28 168.67L380.76 168.91L381.23 169.19L381.71 169.45L383.11 170.27L383.56 170.54L384.03 170.83L384.93 171.41L386.28 172.32L387.15 172.93L387.6 173.26L388.03 173.58L388.45 173.9L388.88 174.24L389.3 174.57L389.73 174.91L390.15 175.25L390.57 175.6L390.97 175.94L391.39 176.3L413.95 168.95L430.51 194.98L411.14 211.54L411.19 211.79L411.25 212.27L411.3 212.51L411.49 213.96L411.51 214.2L411.57 214.68L411.59 214.92L411.62 215.16L411.64 215.4L411.67 215.64L411.7 216.13L411.73 216.37L411.76 216.85L411.78 217.11L411.84 218.07L411.84 218.31L411.88 218.8L411.88 219.04L411.89 219.28L411.89 219.78L411.91 220.02L411.91 221.47L411.88 221.95L411.86 222.21L411.8 223.17L411.76 223.41L411.73 223.89L411.7 224.12L411.68 224.36L411.62 224.84L411.6 225.08L411.31 227.25L411.28 227.48L411.23 227.72L411.2 227.96L411.15 228.2L411.12 228.44L411.07 228.69L411.04 228.91L410.85 229.88L410.8 230.1L410.65 230.82L430.03 247.37L413.95 273.81L391.39 266.46L390.97 266.81L390.57 267.15L390.15 267.5L389.73 267.84L389.3 268.18L388.88 268.52L388.45 268.84L388.03 269.18L387.6 269.5L387.15 269.8L386.71 270.13L386.28 270.43L384.93 271.35L384.03 271.93L383.56 272.22L383.11 272.49L381.71 273.31L381.23 273.57L380.76 273.82L380.28 274.08L379.81 274.34L377.88 275.3L377.38 275.53L376.9 275.75L376.4 275.98L374.41 276.81L373.91 277.01L373.4 277.2L372.9 277.39L367.46 299.28L336.77 299.28L331.73 277.39L331.23 277.2L330.72 277.01L330.22 276.8L329.72 276.61L329.22 276.4L328.72 276.17L328.23 275.96L327.73 275.74L327.25 275.51L326.75 275.27L326.26 275.05L325.78 274.8L325.3 274.55L324.82 274.31L324.33 274.05L323.87 273.79L323.39 273.53L321.52 272.44L321.05 272.15L319.7 271.28L318.35 270.37L317.92 270.06L317.47 269.74L316.6 269.1L316.17 268.76L315.75 268.44L315.31 268.1L314.9 267.76L314.48 267.41L314.06 267.07L313.66 266.72L313.24 266.36L290.68 273.71L274.6 247.27L293.97 230.73L293.81 229.8L293.56 227.93L293.36 226.06L293.3 225.13L293.27 224.65L293.24 224.18L293.17 222.32L293.17 220.44L293.24 218.57L293.27 218.09L293.36 216.69L293.56 214.82L293.81 212.96L293.97 212.03L274.6 195.48L290.68 169.04L313.24 176.39L313.66 176.04L314.06 175.7L314.48 175.35L314.9 175.01L315.33 174.67L315.75 174.33L316.18 174L316.6 173.67L317.03 173.35L317.48 173.03L318.35 172.42L319.7 171.5L320.6 170.92L321.07 170.64L321.52 170.36L322.92 169.54L323.4 169.28L323.87 169.01L324.35 168.77L324.82 168.51L325.3 168.27L325.78 168.01L326.26 167.79L326.75 167.55L327.25 167.32L327.73 167.1L328.23 166.87L328.72 166.66L329.22 166.44L329.72 166.25L330.22 166.04L330.72 165.84L331.23 165.65L331.73 165.46L336.77 143.57L367.46 143.57L372.9 165.36L373.4 165.55ZM336.77 166.62L336.19 169.33L333.58 170.3L333.11 170.46L332.66 170.64L332.2 170.81L331.3 171.17L330.83 171.36L330.38 171.54L329.95 171.74L329.05 172.13L328.61 172.34L328.16 172.55L327.73 172.77L327.29 172.98L325.99 173.66L325.57 173.9L325.14 174.14L324.72 174.38L324.29 174.62L323.87 174.86L323.45 175.12L323.05 175.38L322.63 175.64L322.21 175.91L321.81 176.17L320.6 176.99L319.8 177.57L319.41 177.86L319.01 178.14L318.63 178.43L317.85 179.05L317.48 179.35L317.1 179.67L316.73 179.98L314.49 181.92L311.7 181.04L293.01 174.94L281.29 194.31L296.98 208.34L299.1 210.19L299.1 213.01L299.04 213.43L298.96 213.84L298.9 214.28L298.83 214.7L298.78 215.11L298.73 215.55L298.69 215.97L298.64 216.4L298.59 216.82L298.56 217.25L298.51 217.67L298.48 218.1L298.46 218.52L298.43 218.96L298.41 219.39L298.4 219.81L298.38 220.24L298.38 220.66L298.36 221.1L298.36 221.95L298.38 222.38L298.38 222.8L298.4 223.23L298.41 223.65L298.43 224.09L298.46 224.52L298.48 224.94L298.51 225.37L298.56 225.79L298.59 226.23L298.64 226.64L298.69 227.08L298.73 227.5L298.78 227.93L298.83 228.35L298.9 228.77L298.96 229.2L299.04 229.62L299.1 230.04L299.1 232.85L296.98 234.68L281.29 248.34L293.01 267.71L311.79 261.6L314.59 260.73L316.83 262.68L317.2 262.99L317.58 263.31L317.97 263.61L318.34 263.92L318.72 264.21L319.12 264.51L319.9 265.09L320.3 265.38L320.7 265.65L321.1 265.94L321.91 266.49L322.31 266.75L322.73 267.02L323.14 267.28L323.55 267.54L323.96 267.79L324.38 268.03L324.82 268.28L325.24 268.52L325.67 268.76L326.09 269L327.39 269.68L328.26 270.09L328.71 270.32L329.14 270.51L329.59 270.72L330.04 270.91L330.48 271.11L330.93 271.3L331.39 271.49L332.29 271.85L332.76 272.02L333.21 272.2L333.68 272.36L336.28 273.33L336.88 276.04L340.93 293.86L363.8 293.86L367.85 276.04L368.44 273.33L371.05 272.36L371.51 272.2L371.97 272.02L372.43 271.85L373.33 271.49L373.8 271.3L374.25 271.11L374.68 270.91L375.13 270.72L375.58 270.51L376.02 270.32L376.47 270.09L377.34 269.68L378.64 269L379.06 268.76L379.49 268.52L379.91 268.28L380.34 268.03L380.76 267.79L381.18 267.54L381.58 267.28L382 267.02L382.42 266.75L382.82 266.49L383.62 265.94L384.03 265.65L384.43 265.38L384.83 265.09L385.22 264.8L385.62 264.51L386 264.21L386.39 263.92L386.76 263.61L387.15 263.31L387.53 262.99L387.9 262.68L390.14 260.73L392.93 261.6L411.62 267.71L423.34 248.34L407.26 234.2L405.14 232.37L405.14 229.55L405.2 229.14L405.28 228.72L405.35 228.28L405.4 227.87L405.46 227.43L405.56 226.6L405.61 226.16L405.65 225.74L405.69 225.31L405.73 224.89L405.77 224.46L405.78 224.02L405.81 223.6L405.83 223.17L405.85 222.75L405.86 222.32L405.86 221.9L405.88 221.47L405.88 220.61L405.86 220.18L405.86 219.76L405.83 218.89L405.81 218.47L405.78 218.04L405.77 217.62L405.73 217.19L405.69 216.77L405.65 216.34L405.61 215.92L405.56 215.48L405.51 215.07L405.46 214.63L405.4 214.21L405.35 213.78L405.28 213.36L405.2 212.94L405.14 212.51L405.14 209.71L407.26 207.86L422.96 194.21L411.23 174.85L392.55 180.94L389.73 181.83L387.52 179.88L387.15 179.58L386.76 179.25L386.37 178.95L386 178.64L385.62 178.34L385.22 178.05L384.44 177.47L383.64 176.89L382.03 175.8L381.2 175.28L380.79 175.03L380.38 174.77L379.96 174.53L379.52 174.29L379.1 174.04L378.67 173.8L378.25 173.56L376.95 172.89L376.52 172.68L376.08 172.45L375.63 172.24L375.2 172.03L374.3 171.65L373.85 171.44L373.4 171.26L372.95 171.07L372.05 170.72L371.58 170.54L371.13 170.36L370.66 170.2L368.06 169.24L367.46 166.52L363.7 148.8L340.83 148.8L336.77 166.62Z" id="b60NEbQRC"></path><path d="M356.48 190.53L358.54 190.88L360.53 191.35L362.48 191.96L364.36 192.68L366.19 193.53L367.96 194.48L369.65 195.56L371.26 196.72L372.8 197.99L374.25 199.35L375.6 200.8L376.87 202.33L378.04 203.95L379.1 205.64L380.07 207.4L380.91 209.23L381.63 211.11L382.24 213.07L382.72 215.07L383.06 217.11L383.29 219.2L383.35 221.32L383.29 223.46L383.06 225.55L382.72 227.59L382.24 229.59L381.63 231.53L380.91 233.43L380.07 235.25L379.1 237.02L378.04 238.7L376.87 240.33L375.6 241.86L374.25 243.3L372.8 244.67L371.26 245.94L369.65 247.1L367.96 248.18L366.19 249.12L364.36 249.98L362.48 250.7L360.53 251.3L358.54 251.78L356.48 252.13L354.39 252.34L352.27 252.4L350.14 252.34L348.05 252.13L346 251.78L344 251.3L342.06 250.7L340.17 249.98L338.34 249.12L336.57 248.18L334.88 247.1L333.28 245.94L331.73 244.67L330.28 243.3L328.93 241.86L327.66 240.33L326.49 238.7L325.43 237.02L324.46 235.25L323.63 233.43L322.9 231.53L322.29 229.59L321.81 227.59L321.47 225.55L321.25 223.46L321.18 221.32L321.25 219.2L321.47 217.11L321.81 215.07L322.29 213.07L322.9 211.11L323.63 209.23L324.46 207.4L325.43 205.64L326.49 203.95L327.66 202.33L328.93 200.8L330.28 199.35L331.73 197.99L333.28 196.72L334.88 195.56L336.57 194.48L338.34 193.53L340.17 192.68L342.06 191.96L344 191.35L346 190.88L348.05 190.53L350.14 190.32L352.27 190.24L354.39 190.32L356.48 190.53ZM348.23 211.79L346.48 212.73L344.93 214L343.68 215.53L342.71 217.3L342.12 219.25L341.91 221.32L342.12 223.41L342.71 225.36L343.68 227.11L344.93 228.64L346.48 229.89L348.23 230.84L350.18 231.42L352.27 231.6L354.36 231.39L356.3 230.78L358.06 229.83L359.6 228.56L360.85 227.03L361.82 225.26L362.41 223.31L362.62 221.22L362.4 219.15L361.79 217.24L360.82 215.48L359.57 213.97L358.02 212.72L356.27 211.77L354.34 211.17L352.27 210.97L350.18 211.17L348.23 211.79Z" id="fuUTx2Dk"></path><path d="M356.48 190.53L358.54 190.88L360.53 191.35L362.48 191.96L364.36 192.68L366.19 193.53L367.96 194.48L369.65 195.56L371.26 196.72L372.8 197.99L374.25 199.35L375.6 200.8L376.87 202.33L378.04 203.95L379.1 205.64L380.07 207.4L380.91 209.23L381.63 211.11L382.24 213.07L382.72 215.07L383.06 217.11L383.29 219.2L383.35 221.32L383.29 223.46L383.06 225.55L382.72 227.59L382.24 229.59L381.63 231.53L380.91 233.43L380.07 235.25L379.1 237.02L378.04 238.7L376.87 240.33L375.6 241.86L374.25 243.3L372.8 244.67L371.26 245.94L369.65 247.1L367.96 248.18L366.19 249.12L364.36 249.98L362.48 250.7L360.53 251.3L358.54 251.78L356.48 252.13L354.39 252.34L352.27 252.4L350.14 252.34L348.05 252.13L346 251.78L344 251.3L342.06 250.7L340.17 249.98L338.34 249.12L336.57 248.18L334.88 247.1L333.28 245.94L331.73 244.67L330.28 243.3L328.93 241.86L327.66 240.33L326.49 238.7L325.43 237.02L324.46 235.25L323.63 233.43L322.9 231.53L322.29 229.59L321.81 227.59L321.47 225.55L321.25 223.46L321.18 221.32L321.25 219.2L321.47 217.11L321.81 215.07L322.29 213.07L322.9 211.11L323.63 209.23L324.46 207.4L325.43 205.64L326.49 203.95L327.66 202.33L328.93 200.8L330.28 199.35L331.73 197.99L333.28 196.72L334.88 195.56L336.57 194.48L338.34 193.53L340.17 192.68L342.06 191.96L344 191.35L346 190.88L348.05 190.53L350.14 190.32L352.27 190.24L354.39 190.32L356.48 190.53ZM348.23 211.79L346.48 212.73L344.93 214L343.68 215.53L342.71 217.3L342.12 219.25L341.91 221.32L342.12 223.41L342.71 225.36L343.68 227.11L344.93 228.64L346.48 229.89L348.23 230.84L350.18 231.42L352.27 231.6L354.36 231.39L356.3 230.78L358.06 229.83L359.6 228.56L360.85 227.03L361.82 225.26L362.41 223.31L362.62 221.22L362.4 219.15L361.79 217.24L360.82 215.48L359.57 213.97L358.02 212.72L356.27 211.77L354.34 211.17L352.27 210.97L350.18 211.17L348.23 211.79Z" id="c5odvy4wg"></path><path d="M420.91 344.4L421.4 344.92L421.88 345.41L422.35 345.93L422.8 346.44L423.26 346.97L423.71 347.49L424.16 348.02L424.6 348.55L425.05 349.1L425.48 349.63L426.74 351.27L427.57 352.39L427.97 352.96L428.36 353.52L428.76 354.08L429.15 354.66L429.52 355.24L429.9 355.82L430.27 356.4L430.64 356.99L431 357.59L431.35 358.17L431.7 358.78L432.04 359.37L432.4 359.97L432.72 360.58L433.06 361.19L433.7 362.41L434.31 363.67L434.61 364.28L434.9 364.9L435.19 365.55L435.48 366.17L435.76 366.82L436.03 367.44L466.15 371.71L469.72 411.22L438.54 419.55L438.38 420.12L438.18 420.7L438.1 420.99L438.01 421.28L437.91 421.56L437.62 422.42L437.53 422.7L437.33 423.28L437.22 423.55L437.12 423.84L437.01 424.13L436.91 424.4L436.8 424.69L436.71 424.96L436.59 425.25L436.48 425.53L436.37 425.82L436.14 426.36L436.03 426.65L435.8 427.2L435.68 427.49L435.45 428.04L435.19 428.58L435.08 428.87L434.7 429.69L434.58 429.97L434.33 430.51L434.18 430.79L433.92 431.33L433.78 431.61L433.65 431.88L433.36 432.43L433.23 432.7L432.94 433.25L432.8 433.5L432.36 434.32L432.22 434.58L432.06 434.85L431.91 435.13L431.77 435.38L431.61 435.66L431.46 435.92L431.3 436.19L431.14 436.45L431 436.7L430.84 436.98L430.35 437.75L430.19 438.02L430.03 438.28L429.86 438.54L429.37 439.31L429.2 439.57L429.03 439.82L428.86 440.06L428.68 440.32L428.52 440.58L428.34 440.84L428.17 441.08L427.99 441.33L440.39 471.07L406.88 492.26L385.09 471.07L384.43 471.23L383.75 471.4L383.08 471.55L382.42 471.71L381.07 472L379.04 472.39L378.35 472.5L377.67 472.61L376.32 472.8L375.63 472.9L374.96 472.98L374.26 473.06L373.59 473.14L372.9 473.21L372.22 473.25L371.53 473.32L370.84 473.37L370.16 473.4L369.47 473.45L368.78 473.46L368.11 473.5L366.72 473.53L365.36 473.53L362.59 473.46L361.91 473.43L359.84 473.29L359.17 473.22L358.47 473.17L357.78 473.09L339.48 495.46L303.75 477.93L310.34 449.95L309.86 449.46L309.38 448.94L308.91 448.43L308.46 447.91L308 447.4L307.1 446.34L306.66 445.8L306.21 445.26L305.78 444.73L304.52 443.09L303.69 441.96L303.29 441.4L302.9 440.84L302.5 440.27L302.11 439.69L301.74 439.12L301.36 438.54L300.99 437.96L300.62 437.36L300.26 436.78L299.55 435.59L299.22 434.98L298.86 434.39L298.54 433.78L298.2 433.17L297.56 431.94L297.26 431.32L296.95 430.71L296.64 430.08L296.35 429.45L296.07 428.81L295.78 428.18L295.5 427.54L295.23 426.91L265.11 422.65L261.54 382.66L292.72 374.33L292.88 373.75L293.06 373.17L293.25 372.59L293.43 372.03L293.62 371.45L293.81 370.89L294.02 370.32L294.23 369.74L294.65 368.62L294.88 368.07L295.33 366.95L296.29 364.76L297.06 363.12L297.34 362.59L297.61 362.04L298.16 360.98L298.45 360.45L298.73 359.93L299.04 359.4L299.33 358.89L299.64 358.36L299.94 357.84L300.26 357.33L300.57 356.82L300.89 356.32L301.23 355.8L301.55 355.3L302.56 353.81L302.92 353.31L303.27 352.83L290.87 323.09L324.29 301.8L346.08 323L346.73 322.82L348.76 322.34L350.11 322.05L350.79 321.92L351.46 321.78L352.14 321.66L352.83 321.53L353.5 321.42L354.2 321.33L354.87 321.21L355.56 321.13L356.24 321.04L356.93 320.96L357.61 320.88L358.99 320.75L359.68 320.7L360.36 320.63L361.05 320.6L361.74 320.55L362.43 320.52L365.2 320.46L365.89 320.46L366.58 320.47L367.25 320.49L368.64 320.52L370.02 320.59L371.4 320.68L373.48 320.88L391.58 298.6L427.31 316.13L420.91 344.4ZM376.47 327.65L372.9 327.65L372.25 327.58L370.37 327.44L369.73 327.39L368.48 327.32L367.83 327.31L366.58 327.28L364.68 327.28L364.05 327.29L363.41 327.31L362.78 327.32L361.53 327.39L360.89 327.44L360.26 327.47L359.63 327.53L359 327.58L357.75 327.71L355.87 327.95L354.61 328.14L354 328.24L352.75 328.47L352.14 328.59L350.88 328.85L350.27 328.98L349.66 329.12L349.03 329.27L347.81 329.59L344.13 330.56L341.43 327.93L323.4 310.31L299.1 325.81L309.36 350.7L310.54 353.99L308.4 356.99L308.08 357.43L307.76 357.88L307.45 358.33L307.14 358.76L306.84 359.23L306.23 360.13L305.94 360.58L305.36 361.51L305.09 361.98L304.8 362.44L304.52 362.91L304.27 363.38L303.99 363.86L303.74 364.32L303.22 365.29L302.98 365.77L302.72 366.25L302.48 366.75L302.26 367.24L302.02 367.73L301.79 368.22L301.34 369.21L300.71 370.71L300.5 371.22L300.31 371.72L300.12 372.24L299.92 372.73L299.73 373.25L299.2 374.79L299.04 375.32L298.72 376.35L297.66 379.84L294.07 380.81L268.31 387.79L270.93 416.83L295.9 420.32L299.68 420.8L301.34 424.58L301.58 425.16L301.84 425.75L302.1 426.32L302.35 426.89L302.63 427.47L303.17 428.6L304.04 430.29L304.35 430.85L304.64 431.4L304.96 431.94L305.26 432.49L305.91 433.58L306.23 434.11L306.57 434.66L307.24 435.72L307.59 436.24L307.95 436.77L308.3 437.28L309.41 438.83L309.78 439.32L310.17 439.84L310.94 440.84L311.33 441.32L311.73 441.82L312.13 442.3L312.55 442.78L312.95 443.26L313.79 444.2L315.09 445.6L317.6 448.22L316.83 451.69L311.31 474.54L337.55 487.42L352.27 469.22L354.49 466.42L358.07 466.42L358.71 466.48L360.6 466.63L361.24 466.68L362.49 466.74L363.12 466.76L363.76 466.77L365.02 466.81L365.66 466.81L366.92 466.77L367.56 466.76L368.19 466.74L370.07 466.65L370.71 466.6L371.34 466.55L373.22 466.36L375.1 466.11L376.36 465.92L376.97 465.83L378.22 465.6L378.83 465.47L379.46 465.36L380.07 465.21L380.7 465.09L381.31 464.94L381.94 464.8L383.16 464.47L386.84 463.51L389.73 466.13L407.86 483.75L432.15 468.25L421.8 443.17L420.34 439.79L422.47 436.78L422.8 436.35L423.12 435.9L423.42 435.45L423.73 435.01L424.03 434.55L424.64 433.65L424.93 433.2L425.51 432.26L425.79 431.8L426.08 431.33L426.35 430.87L426.61 430.4L426.88 429.92L427.14 429.45L427.65 428.49L427.89 428L428.15 427.52L428.39 427.02L428.62 426.54L428.86 426.04L429.08 425.56L429.53 424.56L430.16 423.07L430.37 422.55L430.56 422.05L430.95 421.02L431.13 420.53L431.32 420.01L431.5 419.5L431.66 418.98L431.83 418.45L432.15 417.42L433.22 413.93L436.8 412.97L462.85 406.76L460.23 377.72L435.26 374.23L431.29 372.98L429.82 369.49L429.58 368.91L428.81 367.17L428.54 366.59L427.99 365.47L426.83 363.22L426.53 362.67L426.2 362.12L425.9 361.58L425.26 360.48L424.93 359.95L424.6 359.4L423.92 358.34L423.57 357.83L423.21 357.3L422.86 356.78L422.49 356.27L422.14 355.75L421.75 355.24L421.38 354.74L420.99 354.23L420.22 353.23L419.84 352.75L419.43 352.25L419.03 351.77L418.61 351.28L418.21 350.8L417.38 349.87L416.07 348.47L413.57 345.85L414.34 342.37L419.66 319.52L393.42 306.64L378.7 324.85L376.47 327.65Z" id="a1jRorUzTd"></path><path d="M420.91 344.4L421.4 344.92L421.88 345.41L422.35 345.93L422.8 346.44L423.26 346.97L423.71 347.49L424.16 348.02L424.6 348.55L425.05 349.1L425.48 349.63L426.74 351.27L427.57 352.39L427.97 352.96L428.36 353.52L428.76 354.08L429.15 354.66L429.52 355.24L429.9 355.82L430.27 356.4L430.64 356.99L431 357.59L431.35 358.17L431.7 358.78L432.04 359.37L432.4 359.97L432.72 360.58L433.06 361.19L433.7 362.41L434.31 363.67L434.61 364.28L434.9 364.9L435.19 365.55L435.48 366.17L435.76 366.82L436.03 367.44L466.15 371.71L469.72 411.22L438.54 419.55L438.38 420.12L438.18 420.7L438.1 420.99L438.01 421.28L437.91 421.56L437.62 422.42L437.53 422.7L437.33 423.28L437.22 423.55L437.12 423.84L437.01 424.13L436.91 424.4L436.8 424.69L436.71 424.96L436.59 425.25L436.48 425.53L436.37 425.82L436.14 426.36L436.03 426.65L435.8 427.2L435.68 427.49L435.45 428.04L435.19 428.58L435.08 428.87L434.7 429.69L434.58 429.97L434.33 430.51L434.18 430.79L433.92 431.33L433.78 431.61L433.65 431.88L433.36 432.43L433.23 432.7L432.94 433.25L432.8 433.5L432.36 434.32L432.22 434.58L432.06 434.85L431.91 435.13L431.77 435.38L431.61 435.66L431.46 435.92L431.3 436.19L431.14 436.45L431 436.7L430.84 436.98L430.35 437.75L430.19 438.02L430.03 438.28L429.86 438.54L429.37 439.31L429.2 439.57L429.03 439.82L428.86 440.06L428.68 440.32L428.52 440.58L428.34 440.84L428.17 441.08L427.99 441.33L440.39 471.07L406.88 492.26L385.09 471.07L384.43 471.23L383.75 471.4L383.08 471.55L382.42 471.71L381.07 472L379.04 472.39L378.35 472.5L377.67 472.61L376.32 472.8L375.63 472.9L374.96 472.98L374.26 473.06L373.59 473.14L372.9 473.21L372.22 473.25L371.53 473.32L370.84 473.37L370.16 473.4L369.47 473.45L368.78 473.46L368.11 473.5L366.72 473.53L365.36 473.53L362.59 473.46L361.91 473.43L359.84 473.29L359.17 473.22L358.47 473.17L357.78 473.09L339.48 495.46L303.75 477.93L310.34 449.95L309.86 449.46L309.38 448.94L308.91 448.43L308.46 447.91L308 447.4L307.1 446.34L306.66 445.8L306.21 445.26L305.78 444.73L304.52 443.09L303.69 441.96L303.29 441.4L302.9 440.84L302.5 440.27L302.11 439.69L301.74 439.12L301.36 438.54L300.99 437.96L300.62 437.36L300.26 436.78L299.55 435.59L299.22 434.98L298.86 434.39L298.54 433.78L298.2 433.17L297.56 431.94L297.26 431.32L296.95 430.71L296.64 430.08L296.35 429.45L296.07 428.81L295.78 428.18L295.5 427.54L295.23 426.91L265.11 422.65L261.54 382.66L292.72 374.33L292.88 373.75L293.06 373.17L293.25 372.59L293.43 372.03L293.62 371.45L293.81 370.89L294.02 370.32L294.23 369.74L294.65 368.62L294.88 368.07L295.33 366.95L296.29 364.76L297.06 363.12L297.34 362.59L297.61 362.04L298.16 360.98L298.45 360.45L298.73 359.93L299.04 359.4L299.33 358.89L299.64 358.36L299.94 357.84L300.26 357.33L300.57 356.82L300.89 356.32L301.23 355.8L301.55 355.3L302.56 353.81L302.92 353.31L303.27 352.83L290.87 323.09L324.29 301.8L346.08 323L346.73 322.82L348.76 322.34L350.11 322.05L350.79 321.92L351.46 321.78L352.14 321.66L352.83 321.53L353.5 321.42L354.2 321.33L354.87 321.21L355.56 321.13L356.24 321.04L356.93 320.96L357.61 320.88L358.99 320.75L359.68 320.7L360.36 320.63L361.05 320.6L361.74 320.55L362.43 320.52L365.2 320.46L365.89 320.46L366.58 320.47L367.25 320.49L368.64 320.52L370.02 320.59L371.4 320.68L373.48 320.88L391.58 298.6L427.31 316.13L420.91 344.4ZM376.47 327.65L372.9 327.65L372.25 327.58L370.37 327.44L369.73 327.39L368.48 327.32L367.83 327.31L366.58 327.28L364.68 327.28L364.05 327.29L363.41 327.31L362.78 327.32L361.53 327.39L360.89 327.44L360.26 327.47L359.63 327.53L359 327.58L357.75 327.71L355.87 327.95L354.61 328.14L354 328.24L352.75 328.47L352.14 328.59L350.88 328.85L350.27 328.98L349.66 329.12L349.03 329.27L347.81 329.59L344.13 330.56L341.43 327.93L323.4 310.31L299.1 325.81L309.36 350.7L310.54 353.99L308.4 356.99L308.08 357.43L307.76 357.88L307.45 358.33L307.14 358.76L306.84 359.23L306.23 360.13L305.94 360.58L305.36 361.51L305.09 361.98L304.8 362.44L304.52 362.91L304.27 363.38L303.99 363.86L303.74 364.32L303.22 365.29L302.98 365.77L302.72 366.25L302.48 366.75L302.26 367.24L302.02 367.73L301.79 368.22L301.34 369.21L300.71 370.71L300.5 371.22L300.31 371.72L300.12 372.24L299.92 372.73L299.73 373.25L299.2 374.79L299.04 375.32L298.72 376.35L297.66 379.84L294.07 380.81L268.31 387.79L270.93 416.83L295.9 420.32L299.68 420.8L301.34 424.58L301.58 425.16L301.84 425.75L302.1 426.32L302.35 426.89L302.63 427.47L303.17 428.6L304.04 430.29L304.35 430.85L304.64 431.4L304.96 431.94L305.26 432.49L305.91 433.58L306.23 434.11L306.57 434.66L307.24 435.72L307.59 436.24L307.95 436.77L308.3 437.28L309.41 438.83L309.78 439.32L310.17 439.84L310.94 440.84L311.33 441.32L311.73 441.82L312.13 442.3L312.55 442.78L312.95 443.26L313.79 444.2L315.09 445.6L317.6 448.22L316.83 451.69L311.31 474.54L337.55 487.42L352.27 469.22L354.49 466.42L358.07 466.42L358.71 466.48L360.6 466.63L361.24 466.68L362.49 466.74L363.12 466.76L363.76 466.77L365.02 466.81L365.66 466.81L366.92 466.77L367.56 466.76L368.19 466.74L370.07 466.65L370.71 466.6L371.34 466.55L373.22 466.36L375.1 466.11L376.36 465.92L376.97 465.83L378.22 465.6L378.83 465.47L379.46 465.36L380.07 465.21L380.7 465.09L381.31 464.94L381.94 464.8L383.16 464.47L386.84 463.51L389.73 466.13L407.86 483.75L432.15 468.25L421.8 443.17L420.34 439.79L422.47 436.78L422.8 436.35L423.12 435.9L423.42 435.45L423.73 435.01L424.03 434.55L424.64 433.65L424.93 433.2L425.51 432.26L425.79 431.8L426.08 431.33L426.35 430.87L426.61 430.4L426.88 429.92L427.14 429.45L427.65 428.49L427.89 428L428.15 427.52L428.39 427.02L428.62 426.54L428.86 426.04L429.08 425.56L429.53 424.56L430.16 423.07L430.37 422.55L430.56 422.05L430.95 421.02L431.13 420.53L431.32 420.01L431.5 419.5L431.66 418.98L431.83 418.45L432.15 417.42L433.22 413.93L436.8 412.97L462.85 406.76L460.23 377.72L435.26 374.23L431.29 372.98L429.82 369.49L429.58 368.91L428.81 367.17L428.54 366.59L427.99 365.47L426.83 363.22L426.53 362.67L426.2 362.12L425.9 361.58L425.26 360.48L424.93 359.95L424.6 359.4L423.92 358.34L423.57 357.83L423.21 357.3L422.86 356.78L422.49 356.27L422.14 355.75L421.75 355.24L421.38 354.74L420.99 354.23L420.22 353.23L419.84 352.75L419.43 352.25L419.03 351.77L418.61 351.28L418.21 350.8L417.38 349.87L416.07 348.47L413.57 345.85L414.34 342.37L419.66 319.52L393.42 306.64L378.7 324.85L376.47 327.65Z" id="h1SSTvxNGF"></path><path d="M369.36 357.55L371.37 357.8L373.36 358.13L375.34 358.58L377.32 359.13L379.28 359.79L381.23 360.56L383.16 361.45L383.22 361.48L383.27 361.51L385.15 362.49L386.94 363.55L388.66 364.71L390.31 365.93L391.87 367.24L393.37 368.6L394.78 370.05L396.1 371.55L397.36 373.1L398.51 374.71L399.59 376.39L400.59 378.09L401.49 379.84L402.31 381.64L403.03 383.48L403.66 385.34L404.21 387.24L404.66 389.17L404.99 391.1L405.25 393.06L405.41 395.04L405.48 397.03L405.43 399.03L405.3 401.02L405.04 403.01L404.71 405.01L404.25 407L403.69 408.98L403.02 410.94L402.24 412.89L401.36 414.8L400.38 416.67L399.32 418.47L398.16 420.19L396.94 421.83L395.65 423.39L394.28 424.88L392.84 426.28L391.34 427.62L389.8 428.86L388.19 430.01L386.53 431.09L384.81 432.09L383.06 432.99L381.28 433.81L379.44 434.53L377.58 435.18L375.7 435.71L373.78 436.16L371.84 436.51L369.87 436.78L367.91 436.94L365.92 437.01L363.94 436.96L361.95 436.83L359.94 436.59L357.96 436.25L355.97 435.8L354 435.26L352.04 434.6L350.1 433.82L348.18 432.94L346.3 431.98L344.5 430.9L342.78 429.76L341.12 428.53L339.55 427.25L338.07 425.88L336.65 424.45L335.32 422.95L334.06 421.39L332.89 419.79L331.81 418.13L330.82 416.41L329.9 414.66L329.08 412.87L328.35 411.04L327.71 409.17L327.16 407.28L326.71 405.36L326.36 403.42L326.09 401.45L325.93 399.48L325.86 397.5L325.89 395.5L326.02 393.49L326.26 391.5L326.6 389.51L327.05 387.51L327.62 385.54L328.27 383.57L329.03 381.63L329.91 379.71L330.9 377.83L331.96 376.03L333.1 374.31L334.32 372.65L335.62 371.08L336.99 369.58L338.42 368.17L339.92 366.83L341.46 365.6L343.08 364.42L344.74 363.34L346.45 362.35L348.2 361.43L350 360.61L351.83 359.89L353.7 359.24L355.58 358.7L357.51 358.25L359.45 357.88L361.42 357.62L363.38 357.46L365.37 357.39L367.37 357.43L369.36 357.55ZM360.97 384.6L359.1 385.44L357.38 386.55L355.84 387.91L354.5 389.54L353.42 391.42L352.65 393.43L352.23 395.49L352.15 397.56L352.38 399.59L352.91 401.55L353.75 403.42L354.86 405.14L356.22 406.68L357.85 408.02L359.73 409.09L361.69 409.83L363.68 410.27L365.69 410.36L367.69 410.17L369.6 409.69L371.43 408.92L373.14 407.89L374.68 406.6L376.03 405.06L377.16 403.27L377.18 403.22L377.21 403.18L377.22 403.13L377.26 403.08L377.27 403.03L377.3 402.98L377.32 402.93L377.35 402.89L377.37 402.84L377.4 402.79L378.16 400.78L378.59 398.72L378.67 396.65L378.45 394.62L377.92 392.66L377.08 390.79L375.97 389.07L374.6 387.53L372.96 386.19L371.1 385.12L369.09 384.36L367.03 383.93L364.95 383.85L362.93 384.07L360.97 384.6Z" id="cW3PB4noH"></path><path d="M369.36 357.55L371.37 357.8L373.36 358.13L375.34 358.58L377.32 359.13L379.28 359.79L381.23 360.56L383.16 361.45L383.22 361.48L383.27 361.51L385.15 362.49L386.94 363.55L388.66 364.71L390.31 365.93L391.87 367.24L393.37 368.6L394.78 370.05L396.1 371.55L397.36 373.1L398.51 374.71L399.59 376.39L400.59 378.09L401.49 379.84L402.31 381.64L403.03 383.48L403.66 385.34L404.21 387.24L404.66 389.17L404.99 391.1L405.25 393.06L405.41 395.04L405.48 397.03L405.43 399.03L405.3 401.02L405.04 403.01L404.71 405.01L404.25 407L403.69 408.98L403.02 410.94L402.24 412.89L401.36 414.8L400.38 416.67L399.32 418.47L398.16 420.19L396.94 421.83L395.65 423.39L394.28 424.88L392.84 426.28L391.34 427.62L389.8 428.86L388.19 430.01L386.53 431.09L384.81 432.09L383.06 432.99L381.28 433.81L379.44 434.53L377.58 435.18L375.7 435.71L373.78 436.16L371.84 436.51L369.87 436.78L367.91 436.94L365.92 437.01L363.94 436.96L361.95 436.83L359.94 436.59L357.96 436.25L355.97 435.8L354 435.26L352.04 434.6L350.1 433.82L348.18 432.94L346.3 431.98L344.5 430.9L342.78 429.76L341.12 428.53L339.55 427.25L338.07 425.88L336.65 424.45L335.32 422.95L334.06 421.39L332.89 419.79L331.81 418.13L330.82 416.41L329.9 414.66L329.08 412.87L328.35 411.04L327.71 409.17L327.16 407.28L326.71 405.36L326.36 403.42L326.09 401.45L325.93 399.48L325.86 397.5L325.89 395.5L326.02 393.49L326.26 391.5L326.6 389.51L327.05 387.51L327.62 385.54L328.27 383.57L329.03 381.63L329.91 379.71L330.9 377.83L331.96 376.03L333.1 374.31L334.32 372.65L335.62 371.08L336.99 369.58L338.42 368.17L339.92 366.83L341.46 365.6L343.08 364.42L344.74 363.34L346.45 362.35L348.2 361.43L350 360.61L351.83 359.89L353.7 359.24L355.58 358.7L357.51 358.25L359.45 357.88L361.42 357.62L363.38 357.46L365.37 357.39L367.37 357.43L369.36 357.55ZM360.97 384.6L359.1 385.44L357.38 386.55L355.84 387.91L354.5 389.54L353.42 391.42L352.65 393.43L352.23 395.49L352.15 397.56L352.38 399.59L352.91 401.55L353.75 403.42L354.86 405.14L356.22 406.68L357.85 408.02L359.73 409.09L361.69 409.83L363.68 410.27L365.69 410.36L367.69 410.17L369.6 409.69L371.43 408.92L373.14 407.89L374.68 406.6L376.03 405.06L377.16 403.27L377.18 403.22L377.21 403.18L377.22 403.13L377.26 403.08L377.27 403.03L377.3 402.98L377.32 402.93L377.35 402.89L377.37 402.84L377.4 402.79L378.16 400.78L378.59 398.72L378.67 396.65L378.45 394.62L377.92 392.66L377.08 390.79L375.97 389.07L374.6 387.53L372.96 386.19L371.1 385.12L369.09 384.36L367.03 383.93L364.95 383.85L362.93 384.07L360.97 384.6Z" id="h7DG32FTu"></path></defs><g><g><g><use xlink:href="#aLY26uq9N" opacity="1" fill="#9bca52" fill-opacity="1"></use><g><use xlink:href="#aLY26uq9N" opacity="1" fill-opacity="0" stroke="#000000" stroke-width="1" stroke-opacity="0"></use></g></g><g><use xlink:href="#dLeCwuvRx" opacity="1" fill="#000000" fill-opacity="0"></use><g><use xlink:href="#dLeCwuvRx" opacity="1" fill-opacity="0" stroke="#000000" stroke-width="1" stroke-opacity="0"></use></g></g><g><use xlink:href="#awuaTI6Pk" opacity="1" fill="#ffffff" fill-opacity="1"></use><g><use xlink:href="#awuaTI6Pk" opacity="1" fill-opacity="0" stroke="#000000" stroke-width="1" stroke-opacity="0"></use></g></g><g><use xlink:href="#cTmJiSzFD" opacity="1" fill="#000000" fill-opacity="0"></use><g><use xlink:href="#cTmJiSzFD" opacity="1" fill-opacity="0" stroke="#000000" stroke-width="1" stroke-opacity="0"></use></g></g><g><use xlink:href="#aTxDETWf" opacity="1" fill="#ffffff" fill-opacity="1"></use><g><use xlink:href="#aTxDETWf" opacity="1" fill-opacity="0" stroke="#000000" stroke-width="1" stroke-opacity="0"></use></g></g><g><use xlink:href="#a7tHIl4VRZ" opacity="1" fill="#000000" fill-opacity="0"></use><g><use xlink:href="#a7tHIl4VRZ" opacity="1" fill-opacity="0" stroke="#000000" stroke-width="1" stroke-opacity="0"></use></g></g><g><use xlink:href="#evzTYjoih" opacity="1" fill="#ffffff" fill-opacity="1"></use><g><use xlink:href="#evzTYjoih" opacity="1" fill-opacity="0" stroke="#000000" stroke-width="1" stroke-opacity="0"></use></g></g><g><use xlink:href="#b60NEbQRC" opacity="1" fill="#000000" fill-opacity="0"></use><g><use xlink:href="#b60NEbQRC" opacity="1" fill-opacity="0" stroke="#000000" stroke-width="1" stroke-opacity="0"></use></g></g><g><use xlink:href="#fuUTx2Dk" opacity="1" fill="#ffffff" fill-opacity="1"></use><g><use xlink:href="#fuUTx2Dk" opacity="1" fill-opacity="0" stroke="#000000" stroke-width="1" stroke-opacity="0"></use></g></g><g><use xlink:href="#c5odvy4wg" opacity="1" fill="#000000" fill-opacity="0"></use><g><use xlink:href="#c5odvy4wg" opacity="1" fill-opacity="0" stroke="#000000" stroke-width="1" stroke-opacity="0"></use></g></g><g><use xlink:href="#a1jRorUzTd" opacity="1" fill="#ffffff" fill-opacity="1"></use><g><use xlink:href="#a1jRorUzTd" opacity="1" fill-opacity="0" stroke="#000000" stroke-width="1" stroke-opacity="0"></use></g></g><g><use xlink:href="#h1SSTvxNGF" opacity="1" fill="#000000" fill-opacity="0"></use><g><use xlink:href="#h1SSTvxNGF" opacity="1" fill-opacity="0" stroke="#000000" stroke-width="1" stroke-opacity="0"></use></g></g><g><use xlink:href="#cW3PB4noH" opacity="1" fill="#ffffff" fill-opacity="1"></use><g><use xlink:href="#cW3PB4noH" opacity="1" fill-opacity="0" stroke="#000000" stroke-width="1" stroke-opacity="0"></use></g></g><g><use xlink:href="#h7DG32FTu" opacity="1" fill="#000000" fill-opacity="0"></use><g><use xlink:href="#h7DG32FTu" opacity="1" fill-opacity="0" stroke="#000000" stroke-width="1" stroke-opacity="0"></use></g></g></g></g></svg>