<?xml version="1.0" encoding="UTF-8" standalone="no"?>
<!DOCTYPE svg PUBLIC "-//W3C//DTD SVG 1.1//EN" "http://www.w3.org/Graphics/SVG/1.1/DTD/svg11.dtd">
<svg version="1.1" xmlns="http://www.w3.org/2000/svg" xmlns:xlink="http://www.w3.org/1999/xlink" preserveAspectRatio="xMidYMid meet" viewBox="0 0 640 640" width="640" height="640"><defs><path d="M5.08 319.51C5.08 493.7 146.3 634.92 320.49 634.92C494.69 634.92 635.91 493.7 635.91 319.51C635.91 145.31 494.69 4.09 320.49 4.09C146.3 4.09 5.08 145.31 5.08 319.51Z" id="bcsAlHzIA"></path><path d="M5.08 319.51C5.08 493.7 146.3 634.92 320.49 634.92C494.69 634.92 635.91 493.7 635.91 319.51C635.91 145.31 494.69 4.09 320.49 4.09C146.3 4.09 5.08 145.31 5.08 319.51Z" id="j2RZFtUD0m"></path><path d="M282.32 135.32L287.77 135.89L293.17 136.65L298.5 137.63L303.74 138.82L308.92 140.19L314 141.77L319 143.55L323.9 145.53L328.71 147.65L333.42 149.98L338.03 152.48L342.53 155.16L346.9 157.99L351.16 160.98L355.31 164.15L359.33 167.45L363.2 170.91L366.95 174.52L370.55 178.26L374.03 182.14L377.33 186.15L380.49 190.29L383.48 194.55L386.34 198.93L388.99 203.42L391.52 208.02L393.84 212.73L395.99 217.53L397.94 222.44L399.72 227.44L401.31 232.52L402.69 237.7L403.88 242.94L404.86 248.27L405.64 253.66L406.21 259.11L406.54 264.64L406.66 270.21L406.66 270.33L406.54 275.92L406.21 281.43L405.66 286.9L404.88 292.29L403.9 297.63L402.73 302.89L401.34 308.04L399.76 313.14L397.98 318.15L396.01 323.05L393.86 327.86L391.53 332.57L389.03 337.18L386.36 341.67L383.52 346.05L380.53 350.33L377.37 354.45L374.05 358.48L370.59 362.37L366.99 366.1L363.24 369.71L359.35 373.17L355.35 376.48L351.2 379.64L346.94 382.65L342.57 385.48L338.07 388.16L333.46 390.66L328.75 392.99L323.94 395.14L319.02 397.09L314.02 398.87L308.94 400.45L303.76 401.84L298.5 403.03L293.19 404.01L287.79 404.77L282.32 405.32L276.79 405.67L271.2 405.77L265.63 405.67L260.1 405.32L254.63 404.77L249.24 404.01L243.93 403.03L238.67 401.84L233.49 400.45L228.41 398.87L223.41 397.09L218.48 395.14L213.68 392.99L208.97 390.66L204.36 388.16L199.86 385.48L195.48 382.65L191.22 379.64L187.08 376.48L183.06 373.17L179.19 369.71L175.44 366.1L171.84 362.37L168.36 358.48L165.06 354.45L161.89 350.33L158.9 346.05L156.05 341.67L153.39 337.18L150.89 332.57L148.57 327.86L146.42 323.05L144.44 318.15L142.67 313.14L141.08 308.04L139.7 302.89L138.52 297.63L137.55 292.29L136.76 286.9L136.22 281.43L135.88 275.92L135.77 270.33L135.88 264.74L136.22 259.21L136.76 253.76L137.55 248.37L138.52 243.03L139.7 237.78L141.08 232.6L142.67 227.52L144.44 222.52L146.42 217.61L148.57 212.8L150.89 208.07L153.39 203.48L156.05 198.99L158.9 194.59L161.89 190.33L165.06 186.19L168.36 182.18L171.84 178.29L175.44 174.56L179.19 170.95L183.06 167.49L187.08 164.17L191.22 161.02L195.48 158.01L199.86 155.18L204.36 152.5L208.97 150L213.68 147.67L218.48 145.53L223.41 143.57L228.41 141.79L233.49 140.21L238.67 138.82L243.93 137.63L249.24 136.65L254.63 135.89L260.1 135.32L265.63 134.99L271.2 134.88L276.79 134.99L282.32 135.32ZM261.34 147.67L256.37 148.18L251.47 148.87L246.62 149.77L241.85 150.84L237.14 152.09L232.53 153.52L227.98 155.14L223.52 156.92L219.15 158.85L214.87 160.96L210.69 163.23L206.6 165.67L202.62 168.23L198.73 170.97L194.98 173.82L191.32 176.83L187.78 179.98L184.38 183.24L181.1 186.64L177.96 190.18L174.95 193.81L172.07 197.58L169.34 201.45L166.76 205.42L164.34 209.5L162.05 213.68L159.94 217.96L157.99 222.34L156.19 226.79L154.59 231.33L153.14 235.96L151.87 240.65L150.79 245.44L149.9 250.26L149.19 255.17L148.68 260.13L148.37 265.15L148.27 270.21L148.37 275.29L148.66 280.32L149.17 285.28L149.86 290.18L150.76 295.03L151.83 299.8L153.08 304.49L154.51 309.12L156.13 313.67L157.91 318.13L159.84 322.5L161.95 326.78L164.22 330.97L166.66 335.05L169.22 339.04L171.96 342.9L174.81 346.68L177.82 350.33L180.97 353.85L184.23 357.27L187.63 360.53L191.17 363.7L194.8 366.71L198.57 369.58L202.44 372.29L206.41 374.89L210.49 377.32L214.67 379.6L218.95 381.71L223.33 383.67L227.78 385.44L232.32 387.07L236.95 388.51L241.64 389.78L246.43 390.86L251.25 391.76L256.16 392.46L261.12 392.97L266.14 393.26L271.2 393.38L276.28 393.26L281.31 392.97L286.27 392.46L291.17 391.76L296.02 390.86L300.79 389.78L305.5 388.51L310.13 387.07L314.66 385.46L319.14 383.67L323.51 381.71L327.79 379.6L331.98 377.32L336.06 374.89L340.05 372.31L343.91 369.58L347.69 366.71L351.32 363.7L354.86 360.55L358.26 357.27L361.54 353.87L364.69 350.33L367.7 346.7L370.57 342.92L373.3 339.06L375.88 335.07L378.31 330.99L380.59 326.8L382.7 322.52L384.66 318.15L386.45 313.67L388.06 309.14L389.5 304.51L390.77 299.8L391.85 295.03L392.75 290.18L393.45 285.28L393.96 280.32L394.25 275.29L394.37 270.21L394.25 265.15L393.96 260.15L393.45 255.19L392.75 250.28L391.85 245.46L390.77 240.69L389.5 236L388.08 231.39L386.45 226.83L384.68 222.38L382.72 218.02L380.61 213.74L378.35 209.56L375.92 205.5L373.34 201.51L370.61 197.64L367.75 193.89L364.74 190.25L361.6 186.72L358.32 183.32L354.94 180.05L351.4 176.91L347.76 173.9L344.01 171.05L340.14 168.31L336.16 165.73L332.07 163.31L327.91 161.04L323.63 158.93L319.25 156.98L314.8 155.2L310.27 153.58L305.65 152.13L300.96 150.88L296.2 149.8L291.35 148.91L286.47 148.2L281.5 147.69L276.5 147.38L271.42 147.28L266.36 147.38L261.34 147.67Z" id="cadBs8mNQ"></path><path d="M282.32 135.32L287.77 135.89L293.17 136.65L298.5 137.63L303.74 138.82L308.92 140.19L314 141.77L319 143.55L323.9 145.53L328.71 147.65L333.42 149.98L338.03 152.48L342.53 155.16L346.9 157.99L351.16 160.98L355.31 164.15L359.33 167.45L363.2 170.91L366.95 174.52L370.55 178.26L374.03 182.14L377.33 186.15L380.49 190.29L383.48 194.55L386.34 198.93L388.99 203.42L391.52 208.02L393.84 212.73L395.99 217.53L397.94 222.44L399.72 227.44L401.31 232.52L402.69 237.7L403.88 242.94L404.86 248.27L405.64 253.66L406.21 259.11L406.54 264.64L406.66 270.21L406.66 270.33L406.54 275.92L406.21 281.43L405.66 286.9L404.88 292.29L403.9 297.63L402.73 302.89L401.34 308.04L399.76 313.14L397.98 318.15L396.01 323.05L393.86 327.86L391.53 332.57L389.03 337.18L386.36 341.67L383.52 346.05L380.53 350.33L377.37 354.45L374.05 358.48L370.59 362.37L366.99 366.1L363.24 369.71L359.35 373.17L355.35 376.48L351.2 379.64L346.94 382.65L342.57 385.48L338.07 388.16L333.46 390.66L328.75 392.99L323.94 395.14L319.02 397.09L314.02 398.87L308.94 400.45L303.76 401.84L298.5 403.03L293.19 404.01L287.79 404.77L282.32 405.32L276.79 405.67L271.2 405.77L265.63 405.67L260.1 405.32L254.63 404.77L249.24 404.01L243.93 403.03L238.67 401.84L233.49 400.45L228.41 398.87L223.41 397.09L218.48 395.14L213.68 392.99L208.97 390.66L204.36 388.16L199.86 385.48L195.48 382.65L191.22 379.64L187.08 376.48L183.06 373.17L179.19 369.71L175.44 366.1L171.84 362.37L168.36 358.48L165.06 354.45L161.89 350.33L158.9 346.05L156.05 341.67L153.39 337.18L150.89 332.57L148.57 327.86L146.42 323.05L144.44 318.15L142.67 313.14L141.08 308.04L139.7 302.89L138.52 297.63L137.55 292.29L136.76 286.9L136.22 281.43L135.88 275.92L135.77 270.33L135.88 264.74L136.22 259.21L136.76 253.76L137.55 248.37L138.52 243.03L139.7 237.78L141.08 232.6L142.67 227.52L144.44 222.52L146.42 217.61L148.57 212.8L150.89 208.07L153.39 203.48L156.05 198.99L158.9 194.59L161.89 190.33L165.06 186.19L168.36 182.18L171.84 178.29L175.44 174.56L179.19 170.95L183.06 167.49L187.08 164.17L191.22 161.02L195.48 158.01L199.86 155.18L204.36 152.5L208.97 150L213.68 147.67L218.48 145.53L223.41 143.57L228.41 141.79L233.49 140.21L238.67 138.82L243.93 137.63L249.24 136.65L254.63 135.89L260.1 135.32L265.63 134.99L271.2 134.88L276.79 134.99L282.32 135.32ZM261.34 147.67L256.37 148.18L251.47 148.87L246.62 149.77L241.85 150.84L237.14 152.09L232.53 153.52L227.98 155.14L223.52 156.92L219.15 158.85L214.87 160.96L210.69 163.23L206.6 165.67L202.62 168.23L198.73 170.97L194.98 173.82L191.32 176.83L187.78 179.98L184.38 183.24L181.1 186.64L177.96 190.18L174.95 193.81L172.07 197.58L169.34 201.45L166.76 205.42L164.34 209.5L162.05 213.68L159.94 217.96L157.99 222.34L156.19 226.79L154.59 231.33L153.14 235.96L151.87 240.65L150.79 245.44L149.9 250.26L149.19 255.17L148.68 260.13L148.37 265.15L148.27 270.21L148.37 275.29L148.66 280.32L149.17 285.28L149.86 290.18L150.76 295.03L151.83 299.8L153.08 304.49L154.51 309.12L156.13 313.67L157.91 318.13L159.84 322.5L161.95 326.78L164.22 330.97L166.66 335.05L169.22 339.04L171.96 342.9L174.81 346.68L177.82 350.33L180.97 353.85L184.23 357.27L187.63 360.53L191.17 363.7L194.8 366.71L198.57 369.58L202.44 372.29L206.41 374.89L210.49 377.32L214.67 379.6L218.95 381.71L223.33 383.67L227.78 385.44L232.32 387.07L236.95 388.51L241.64 389.78L246.43 390.86L251.25 391.76L256.16 392.46L261.12 392.97L266.14 393.26L271.2 393.38L276.28 393.26L281.31 392.97L286.27 392.46L291.17 391.76L296.02 390.86L300.79 389.78L305.5 388.51L310.13 387.07L314.66 385.46L319.14 383.67L323.51 381.71L327.79 379.6L331.98 377.32L336.06 374.89L340.05 372.31L343.91 369.58L347.69 366.71L351.32 363.7L354.86 360.55L358.26 357.27L361.54 353.87L364.69 350.33L367.7 346.7L370.57 342.92L373.3 339.06L375.88 335.07L378.31 330.99L380.59 326.8L382.7 322.52L384.66 318.15L386.45 313.67L388.06 309.14L389.5 304.51L390.77 299.8L391.85 295.03L392.75 290.18L393.45 285.28L393.96 280.32L394.25 275.29L394.37 270.21L394.25 265.15L393.96 260.15L393.45 255.19L392.75 250.28L391.85 245.46L390.77 240.69L389.5 236L388.08 231.39L386.45 226.83L384.68 222.38L382.72 218.02L380.61 213.74L378.35 209.56L375.92 205.5L373.34 201.51L370.61 197.64L367.75 193.89L364.74 190.25L361.6 186.72L358.32 183.32L354.94 180.05L351.4 176.91L347.76 173.9L344.01 171.05L340.14 168.31L336.16 165.73L332.07 163.31L327.91 161.04L323.63 158.93L319.25 156.98L314.8 155.2L310.27 153.58L305.65 152.13L300.96 150.88L296.2 149.8L291.35 148.91L286.47 148.2L281.5 147.69L276.5 147.38L271.42 147.28L266.36 147.38L261.34 147.67Z" id="c1BcjtSKgX"></path><path d="M418.99 381.03C470.69 432.73 499.44 461.46 505.18 467.2C505.18 467.2 505.18 467.2 505.18 467.2C483 489.38 470.69 501.69 468.23 504.15C468.23 504.15 468.23 504.15 468.23 504.15C416.53 452.45 387.8 423.71 382.04 417.96C382.04 417.96 382.04 417.96 382.04 417.96C404.22 395.8 416.53 383.49 418.99 381.03C418.99 381.03 418.99 381.03 418.99 381.03Z" id="b2MlpxHYI"></path><path d="M418.99 381.03C470.69 432.73 499.44 461.46 505.18 467.2C505.18 467.2 505.18 467.2 505.18 467.2C483 489.38 470.69 501.69 468.23 504.15C468.23 504.15 468.23 504.15 468.23 504.15C416.53 452.45 387.8 423.71 382.04 417.96C382.04 417.96 382.04 417.96 382.04 417.96C404.22 395.8 416.53 383.49 418.99 381.03C418.99 381.03 418.99 381.03 418.99 381.03Z" id="e1Fnq8AYyc"></path><path d="M369.67 381.09C369.67 387.87 375.18 393.38 381.96 393.38C388.76 393.38 394.25 387.87 394.25 381.09C394.25 374.29 388.76 368.8 381.96 368.8C375.18 368.8 369.67 374.29 369.67 381.09Z" id="c5OWTvTKHe"></path><path d="M369.67 381.09C369.67 387.87 375.18 393.38 381.96 393.38C388.76 393.38 394.25 387.87 394.25 381.09C394.25 374.29 388.76 368.8 381.96 368.8C375.18 368.8 369.67 374.29 369.67 381.09Z" id="byF1pBXmg"></path></defs><g><g><g><use xlink:href="#bcsAlHzIA" opacity="1" fill="#8cc441" fill-opacity="1"></use><g><use xlink:href="#bcsAlHzIA" opacity="1" fill-opacity="0" stroke="#000000" stroke-width="1" stroke-opacity="0"></use></g></g><g><use xlink:href="#j2RZFtUD0m" opacity="1" fill="#000000" fill-opacity="0"></use><g><use xlink:href="#j2RZFtUD0m" opacity="1" fill-opacity="0" stroke="#000000" stroke-width="1" stroke-opacity="0"></use></g></g><g><use xlink:href="#cadBs8mNQ" opacity="1" fill="#ffffff" fill-opacity="1"></use><g><use xlink:href="#cadBs8mNQ" opacity="1" fill-opacity="0" stroke="#000000" stroke-width="1" stroke-opacity="0"></use></g></g><g><use xlink:href="#c1BcjtSKgX" opacity="1" fill="#000000" fill-opacity="0"></use><g><use xlink:href="#c1BcjtSKgX" opacity="1" fill-opacity="0" stroke="#000000" stroke-width="1" stroke-opacity="0"></use></g></g><g><use xlink:href="#b2MlpxHYI" opacity="1" fill="#ffffff" fill-opacity="1"></use><g><use xlink:href="#b2MlpxHYI" opacity="1" fill-opacity="0" stroke="#000000" stroke-width="1" stroke-opacity="0"></use></g></g><g><use xlink:href="#e1Fnq8AYyc" opacity="1" fill="#000000" fill-opacity="0"></use><g><use xlink:href="#e1Fnq8AYyc" opacity="1" fill-opacity="0" stroke="#000000" stroke-width="1" stroke-opacity="0"></use></g></g><g><use xlink:href="#c5OWTvTKHe" opacity="1" fill="#ffffff" fill-opacity="1"></use><g><use xlink:href="#c5OWTvTKHe" opacity="1" fill-opacity="0" stroke="#000000" stroke-width="1" stroke-opacity="0"></use></g></g><g><use xlink:href="#byF1pBXmg" opacity="1" fill="#000000" fill-opacity="0"></use><g><use xlink:href="#byF1pBXmg" opacity="1" fill-opacity="0" stroke="#000000" stroke-width="1" stroke-opacity="0"></use></g></g></g></g></svg>