<?xml version="1.0" encoding="UTF-8" standalone="no"?>
<!DOCTYPE svg PUBLIC "-//W3C//DTD SVG 1.1//EN" "http://www.w3.org/Graphics/SVG/1.1/DTD/svg11.dtd">
<svg version="1.1" xmlns="http://www.w3.org/2000/svg" xmlns:xlink="http://www.w3.org/1999/xlink" preserveAspectRatio="xMidYMid meet" viewBox="0 0 640 640" width="640" height="640"><defs><path d="M245.62 272.74L246.13 272.94L246.63 273.13L248.62 273.96L249.1 274.19L249.6 274.41L250.08 274.63L250.57 274.87L252.02 275.6L252.48 275.85L252.96 276.09L253.43 276.37L253.91 276.62L254.84 277.17L255.29 277.44L255.75 277.71L256.22 278L257.11 278.58L258.01 279.19L258.45 279.49L258.89 279.8L259.33 280.1L260.19 280.74L260.63 281.08L261.06 281.4L261.47 281.74L261.91 282.07L262.32 282.41L262.73 282.76L263.14 283.1L263.56 283.45L286.05 276.13L302.56 302.57L283.24 319.07L283.29 319.31L283.39 320.03L283.43 320.27L283.56 321.23L283.58 321.47L283.68 322.19L283.69 322.43L283.72 322.67L283.74 322.91L283.77 323.15L283.8 323.64L283.84 323.89L283.93 325.33L283.93 325.58L283.98 326.3L283.98 326.54L284 326.79L284 327.27L284.01 327.51L284.01 328.73L283.98 329.18L283.96 329.39L283.9 330.29L283.87 330.51L283.84 330.96L283.8 331.19L283.79 331.41L283.72 331.86L283.71 332.08L283.68 332.31L283.64 332.52L283.61 332.74L283.6 332.96L283.47 333.86L283.42 334.07L283.32 334.74L283.27 334.97L283.24 335.18L283.19 335.4L283.16 335.63L283.11 335.85L283.08 336.07L283.03 336.28L282.99 336.51L282.95 336.73L282.91 336.94L282.76 337.61L302.06 354.11L286.05 380.46L263.56 373.13L263.14 373.49L262.73 373.82L262.32 374.18L261.91 374.51L261.47 374.85L261.06 375.19L260.63 375.51L260.19 375.84L259.33 376.48L258.89 376.79L258.45 377.09L258.01 377.4L257.11 378.01L256.22 378.58L255.75 378.87L255.29 379.15L254.84 379.42L253.91 379.96L253.43 380.22L252.96 380.48L252.48 380.73L252.02 380.99L250.57 381.71L250.08 381.95L249.6 382.17L249.1 382.4L248.62 382.62L246.63 383.46L246.13 383.65L245.62 383.84L245.12 384.03L240.09 405.85L209.11 405.85L204.09 384.03L203.59 383.84L203.08 383.65L202.58 383.46L200.6 382.62L200.1 382.4L199.62 382.17L199.12 381.95L197.2 380.99L196.72 380.73L196.25 380.48L195.77 380.22L195.31 379.96L193.91 379.15L193.46 378.87L193 378.58L192.1 378.01L190.75 377.09L190.32 376.79L189.87 376.48L189.01 375.84L188.59 375.51L188.16 375.19L187.72 374.85L186.89 374.18L186.47 373.82L186.07 373.49L185.66 373.13L163.17 380.46L147.14 354.11L166.45 337.61L166.29 336.68L166.04 334.82L165.84 332.96L165.75 331.57L165.72 331.09L165.65 329.23L165.65 327.35L165.72 325.5L165.75 325.01L165.84 323.62L166.04 321.76L166.29 319.9L166.45 318.97L147.14 302.48L163.17 276.13L185.66 283.45L186.07 283.1L186.47 282.76L186.89 282.41L187.72 281.74L188.16 281.4L188.59 281.08L189.01 280.74L189.87 280.1L190.32 279.8L190.75 279.49L192.1 278.58L193 278L193.46 277.71L193.91 277.44L195.31 276.62L195.77 276.37L196.25 276.09L196.72 275.85L197.2 275.6L199.12 274.63L199.62 274.41L200.1 274.19L200.6 273.96L202.58 273.13L203.08 272.94L203.59 272.74L204.09 272.55L209.11 250.73L240.09 250.73L245.12 272.55L245.62 272.74ZM209.2 274.47L208.63 277.18L206.03 278.14L205.56 278.31L205.1 278.48L204.2 278.83L203.74 279.01L202.84 279.4L202.41 279.59L201.96 279.78L201.51 279.99L201.08 280.18L200.63 280.4L199.76 280.82L198.9 281.27L198.46 281.51L198.03 281.74L197.2 282.22L196.76 282.46L196.35 282.71L195.93 282.95L195.51 283.21L195.11 283.47L194.7 283.74L194.3 284L193.49 284.54L193.09 284.83L192.69 285.1L192.29 285.39L191.91 285.68L191.51 285.97L191.12 286.27L190.74 286.56L190.35 286.86L189.98 287.17L189.6 287.49L189.23 287.79L187 289.73L184.21 288.87L165.59 282.78L153.9 302.09L169.53 315.7L171.66 317.53L171.66 320.33L171.58 320.75L171.52 321.17L171.45 321.6L171.39 322.02L171.34 322.45L171.29 322.87L171.23 323.28L171.2 323.72L171.15 324.13L171.1 324.57L171.07 324.98L171.04 325.41L171.02 325.85L170.99 326.26L170.97 326.7L170.96 327.11L170.94 327.55L170.93 327.96L170.93 329.68L170.94 330.1L170.97 330.96L170.99 331.38L171.02 331.81L171.04 332.23L171.07 332.66L171.1 333.08L171.15 333.51L171.2 333.93L171.23 334.36L171.29 334.78L171.34 335.21L171.39 335.63L171.45 336.06L171.58 336.89L171.66 337.32L171.66 340.11L169.53 341.96L153.9 355.57L165.59 374.87L184.21 368.79L187 367.91L189.23 369.85L189.6 370.15L189.98 370.47L190.35 370.78L190.74 371.08L191.12 371.37L191.51 371.68L191.91 371.96L192.29 372.25L193.09 372.83L194.3 373.65L194.7 373.9L195.11 374.18L195.51 374.43L196.35 374.95L196.76 375.19L197.2 375.43L198.03 375.91L198.46 376.15L199.76 376.82L200.19 377.03L200.63 377.25L201.08 377.46L201.51 377.67L202.41 378.06L202.84 378.26L203.29 378.44L203.74 378.63L204.2 378.81L205.1 379.16L205.56 379.34L206.03 379.5L208.63 380.46L209.2 383.17L213.26 400.93L236.04 400.93L240.09 383.17L240.68 380.46L243.28 379.5L243.75 379.34L244.2 379.16L244.66 378.98L245.56 378.63L246.01 378.44L246.46 378.26L246.9 378.06L247.8 377.67L248.23 377.46L248.68 377.25L249.12 377.03L249.55 376.82L250.85 376.15L251.26 375.91L251.7 375.67L252.53 375.19L252.96 374.95L253.38 374.69L253.78 374.43L254.2 374.18L254.61 373.9L255.02 373.65L256.22 372.83L257.02 372.25L257.79 371.68L258.19 371.37L258.57 371.08L258.94 370.78L259.33 370.47L259.71 370.15L260.08 369.85L262.29 367.91L265.1 368.79L283.72 374.87L295.41 355.57L279.96 341.86L277.84 340.02L277.84 337.23L277.9 336.8L277.98 336.38L278.05 335.95L278.1 335.53L278.16 335.11L278.21 334.68L278.26 334.26L278.31 333.83L278.35 333.41L278.39 332.98L278.43 332.56L278.47 332.13L278.48 331.71L278.51 331.28L278.53 330.86L278.56 330L278.56 329.58L278.58 329.15L278.58 328.3L278.56 327.87L278.56 327.45L278.55 327.02L278.53 326.6L278.51 326.17L278.48 325.74L278.47 325.32L278.43 324.89L278.39 324.47L278.35 324.04L278.31 323.62L278.26 323.19L278.21 322.77L278.16 322.34L278.1 321.92L278.05 321.5L277.98 321.07L277.9 320.65L277.84 320.24L277.84 317.43L279.96 315.61L295.41 302.19L283.72 282.87L265.1 288.96L262.29 289.83L260.08 287.89L259.71 287.59L259.33 287.27L258.94 286.96L258.57 286.66L258.19 286.37L257.79 286.06L257.02 285.49L256.62 285.2L256.22 284.93L255.82 284.64L255.02 284.09L254.61 283.84L254.2 283.56L253.78 283.31L253.38 283.05L252.96 282.81L252.53 282.55L251.7 282.07L251.26 281.83L250.85 281.61L250.41 281.37L249.55 280.92L248.68 280.5L248.23 280.29L247.8 280.08L247.35 279.88L245.56 279.11L244.66 278.75L244.2 278.58L243.75 278.4L243.28 278.24L240.68 277.28L240.09 274.57L236.04 256.81L213.26 256.81L209.2 274.47Z" id="e3Ok2mxtGy"></path><path d="M245.62 272.74L246.13 272.94L246.63 273.13L248.62 273.96L249.1 274.19L249.6 274.41L250.08 274.63L250.57 274.87L252.02 275.6L252.48 275.85L252.96 276.09L253.43 276.37L253.91 276.62L254.84 277.17L255.29 277.44L255.75 277.71L256.22 278L257.11 278.58L258.01 279.19L258.45 279.49L258.89 279.8L259.33 280.1L260.19 280.74L260.63 281.08L261.06 281.4L261.47 281.74L261.91 282.07L262.32 282.41L262.73 282.76L263.14 283.1L263.56 283.45L286.05 276.13L302.56 302.57L283.24 319.07L283.29 319.31L283.39 320.03L283.43 320.27L283.56 321.23L283.58 321.47L283.68 322.19L283.69 322.43L283.72 322.67L283.74 322.91L283.77 323.15L283.8 323.64L283.84 323.89L283.93 325.33L283.93 325.58L283.98 326.3L283.98 326.54L284 326.79L284 327.27L284.01 327.51L284.01 328.73L283.98 329.18L283.96 329.39L283.9 330.29L283.87 330.51L283.84 330.96L283.8 331.19L283.79 331.41L283.72 331.86L283.71 332.08L283.68 332.31L283.64 332.52L283.61 332.74L283.6 332.96L283.47 333.86L283.42 334.07L283.32 334.74L283.27 334.97L283.24 335.18L283.19 335.4L283.16 335.63L283.11 335.85L283.08 336.07L283.03 336.28L282.99 336.51L282.95 336.73L282.91 336.94L282.76 337.61L302.06 354.11L286.05 380.46L263.56 373.13L263.14 373.49L262.73 373.82L262.32 374.18L261.91 374.51L261.47 374.85L261.06 375.19L260.63 375.51L260.19 375.84L259.33 376.48L258.89 376.79L258.45 377.09L258.01 377.4L257.11 378.01L256.22 378.58L255.75 378.87L255.29 379.15L254.84 379.42L253.91 379.96L253.43 380.22L252.96 380.48L252.48 380.73L252.02 380.99L250.57 381.71L250.08 381.95L249.6 382.17L249.1 382.4L248.62 382.62L246.63 383.46L246.13 383.65L245.62 383.84L245.12 384.03L240.09 405.85L209.11 405.85L204.09 384.03L203.59 383.84L203.08 383.65L202.58 383.46L200.6 382.62L200.1 382.4L199.62 382.17L199.12 381.95L197.2 380.99L196.72 380.73L196.25 380.48L195.77 380.22L195.31 379.96L193.91 379.15L193.46 378.87L193 378.58L192.1 378.01L190.75 377.09L190.32 376.79L189.87 376.48L189.01 375.84L188.59 375.51L188.16 375.19L187.72 374.85L186.89 374.18L186.47 373.82L186.07 373.49L185.66 373.13L163.17 380.46L147.14 354.11L166.45 337.61L166.29 336.68L166.04 334.82L165.84 332.96L165.75 331.57L165.72 331.09L165.65 329.23L165.65 327.35L165.72 325.5L165.75 325.01L165.84 323.62L166.04 321.76L166.29 319.9L166.45 318.97L147.14 302.48L163.17 276.13L185.66 283.45L186.07 283.1L186.47 282.76L186.89 282.41L187.72 281.74L188.16 281.4L188.59 281.08L189.01 280.74L189.87 280.1L190.32 279.8L190.75 279.49L192.1 278.58L193 278L193.46 277.71L193.91 277.44L195.31 276.62L195.77 276.37L196.25 276.09L196.72 275.85L197.2 275.6L199.12 274.63L199.62 274.41L200.1 274.19L200.6 273.96L202.58 273.13L203.08 272.94L203.59 272.74L204.09 272.55L209.11 250.73L240.09 250.73L245.12 272.55L245.62 272.74ZM209.2 274.47L208.63 277.18L206.03 278.14L205.56 278.31L205.1 278.48L204.2 278.83L203.74 279.01L202.84 279.4L202.41 279.59L201.96 279.78L201.51 279.99L201.08 280.18L200.63 280.4L199.76 280.82L198.9 281.27L198.46 281.51L198.03 281.74L197.2 282.22L196.76 282.46L196.35 282.71L195.93 282.95L195.51 283.21L195.11 283.47L194.7 283.74L194.3 284L193.49 284.54L193.09 284.83L192.69 285.1L192.29 285.39L191.91 285.68L191.51 285.97L191.12 286.27L190.74 286.56L190.35 286.86L189.98 287.17L189.6 287.49L189.23 287.79L187 289.73L184.21 288.87L165.59 282.78L153.9 302.09L169.53 315.7L171.66 317.53L171.66 320.33L171.58 320.75L171.52 321.17L171.45 321.6L171.39 322.02L171.34 322.45L171.29 322.87L171.23 323.28L171.2 323.72L171.15 324.13L171.1 324.57L171.07 324.98L171.04 325.41L171.02 325.85L170.99 326.26L170.97 326.7L170.96 327.11L170.94 327.55L170.93 327.96L170.93 329.68L170.94 330.1L170.97 330.96L170.99 331.38L171.02 331.81L171.04 332.23L171.07 332.66L171.1 333.08L171.15 333.51L171.2 333.93L171.23 334.36L171.29 334.78L171.34 335.21L171.39 335.63L171.45 336.06L171.58 336.89L171.66 337.32L171.66 340.11L169.53 341.96L153.9 355.57L165.59 374.87L184.21 368.79L187 367.91L189.23 369.85L189.6 370.15L189.98 370.47L190.35 370.78L190.74 371.08L191.12 371.37L191.51 371.68L191.91 371.96L192.29 372.25L193.09 372.83L194.3 373.65L194.7 373.9L195.11 374.18L195.51 374.43L196.35 374.95L196.76 375.19L197.2 375.43L198.03 375.91L198.46 376.15L199.76 376.82L200.19 377.03L200.63 377.25L201.08 377.46L201.51 377.67L202.41 378.06L202.84 378.26L203.29 378.44L203.74 378.63L204.2 378.81L205.1 379.16L205.56 379.34L206.03 379.5L208.63 380.46L209.2 383.17L213.26 400.93L236.04 400.93L240.09 383.17L240.68 380.46L243.28 379.5L243.75 379.34L244.2 379.16L244.66 378.98L245.56 378.63L246.01 378.44L246.46 378.26L246.9 378.06L247.8 377.67L248.23 377.46L248.68 377.25L249.12 377.03L249.55 376.82L250.85 376.15L251.26 375.91L251.7 375.67L252.53 375.19L252.96 374.95L253.38 374.69L253.78 374.43L254.2 374.18L254.61 373.9L255.02 373.65L256.22 372.83L257.02 372.25L257.79 371.68L258.19 371.37L258.57 371.08L258.94 370.78L259.33 370.47L259.71 370.15L260.08 369.85L262.29 367.91L265.1 368.79L283.72 374.87L295.41 355.57L279.96 341.86L277.84 340.02L277.84 337.23L277.9 336.8L277.98 336.38L278.05 335.95L278.1 335.53L278.16 335.11L278.21 334.68L278.26 334.26L278.31 333.83L278.35 333.41L278.39 332.98L278.43 332.56L278.47 332.13L278.48 331.71L278.51 331.28L278.53 330.86L278.56 330L278.56 329.58L278.58 329.15L278.58 328.3L278.56 327.87L278.56 327.45L278.55 327.02L278.53 326.6L278.51 326.17L278.48 325.74L278.47 325.32L278.43 324.89L278.39 324.47L278.35 324.04L278.31 323.62L278.26 323.19L278.21 322.77L278.16 322.34L278.1 321.92L278.05 321.5L277.98 321.07L277.9 320.65L277.84 320.24L277.84 317.43L279.96 315.61L295.41 302.19L283.72 282.87L265.1 288.96L262.29 289.83L260.08 287.89L259.71 287.59L259.33 287.27L258.94 286.96L258.57 286.66L258.19 286.37L257.79 286.06L257.02 285.49L256.62 285.2L256.22 284.93L255.82 284.64L255.02 284.09L254.61 283.84L254.2 283.56L253.78 283.31L253.38 283.05L252.96 282.81L252.53 282.55L251.7 282.07L251.26 281.83L250.85 281.61L250.41 281.37L249.55 280.92L248.68 280.5L248.23 280.29L247.8 280.08L247.35 279.88L245.56 279.11L244.66 278.75L244.2 278.58L243.75 278.4L243.28 278.24L240.68 277.28L240.09 274.57L236.04 256.81L213.26 256.81L209.2 274.47Z" id="a7LDCQEKRK"></path><path d="M228.86 298.02L230.89 298.37L232.89 298.85L234.83 299.45L236.71 300.17L238.54 301.02L240.3 301.96L241.98 303.04L243.59 304.19L245.12 305.46L246.57 306.82L247.91 308.26L249.18 309.79L250.35 311.41L251.41 313.09L252.35 314.84L253.2 316.66L253.93 318.55L254.53 320.49L255.02 322.48L255.35 324.52L255.56 326.6L255.64 328.73L255.56 330.85L255.35 332.93L255.02 334.97L254.53 336.96L253.93 338.9L253.2 340.79L252.35 342.61L251.41 344.36L250.35 346.04L249.18 347.66L247.91 349.19L246.57 350.63L245.12 351.99L243.59 353.26L241.98 354.41L240.3 355.49L238.54 356.43L236.71 357.28L234.83 358L232.89 358.61L230.89 359.08L228.86 359.43L226.77 359.64L224.66 359.72L222.54 359.64L220.46 359.43L218.4 359.08L216.42 358.61L214.48 358L212.59 357.28L210.77 356.43L209.01 355.49L207.33 354.41L205.73 353.26L204.19 351.99L202.74 350.63L201.38 349.19L200.13 347.66L198.96 346.04L197.9 344.36L196.94 342.61L196.11 340.79L195.39 338.9L194.78 336.96L194.3 334.97L193.96 332.93L193.74 330.85L193.67 328.73L193.74 326.6L193.96 324.52L194.3 322.48L194.78 320.49L195.39 318.55L196.11 316.66L196.94 314.84L197.9 313.09L198.96 311.41L200.13 309.79L201.38 308.26L202.74 306.82L204.19 305.46L205.73 304.19L207.33 303.04L209.01 301.96L210.77 301.02L212.59 300.17L214.48 299.45L216.42 298.85L218.4 298.37L220.46 298.02L222.54 297.81L224.66 297.75L226.77 297.81L228.86 298.02ZM220.63 319.21L218.89 320.16L217.35 321.42L216.1 322.95L215.13 324.71L214.54 326.65L214.33 328.73L214.54 330.8L215.13 332.74L216.1 334.5L217.35 336.03L218.89 337.29L220.63 338.24L222.57 338.85L224.66 339.06L226.74 338.85L228.68 338.24L230.43 337.29L231.96 336.03L233.22 334.5L234.18 332.74L234.77 330.8L234.98 328.73L234.77 326.65L234.18 324.71L233.22 322.95L231.96 321.42L230.43 320.16L228.68 319.21L226.74 318.6L224.66 318.39L222.57 318.6L220.63 319.21Z" id="d3yzSbG0s"></path><path d="M228.86 298.02L230.89 298.37L232.89 298.85L234.83 299.45L236.71 300.17L238.54 301.02L240.3 301.96L241.98 303.04L243.59 304.19L245.12 305.46L246.57 306.82L247.91 308.26L249.18 309.79L250.35 311.41L251.41 313.09L252.35 314.84L253.2 316.66L253.93 318.55L254.53 320.49L255.02 322.48L255.35 324.52L255.56 326.6L255.64 328.73L255.56 330.85L255.35 332.93L255.02 334.97L254.53 336.96L253.93 338.9L253.2 340.79L252.35 342.61L251.41 344.36L250.35 346.04L249.18 347.66L247.91 349.19L246.57 350.63L245.12 351.99L243.59 353.26L241.98 354.41L240.3 355.49L238.54 356.43L236.71 357.28L234.83 358L232.89 358.61L230.89 359.08L228.86 359.43L226.77 359.64L224.66 359.72L222.54 359.64L220.46 359.43L218.4 359.08L216.42 358.61L214.48 358L212.59 357.28L210.77 356.43L209.01 355.49L207.33 354.41L205.73 353.26L204.19 351.99L202.74 350.63L201.38 349.19L200.13 347.66L198.96 346.04L197.9 344.36L196.94 342.61L196.11 340.79L195.39 338.9L194.78 336.96L194.3 334.97L193.96 332.93L193.74 330.85L193.67 328.73L193.74 326.6L193.96 324.52L194.3 322.48L194.78 320.49L195.39 318.55L196.11 316.66L196.94 314.84L197.9 313.09L198.96 311.41L200.13 309.79L201.38 308.26L202.74 306.82L204.19 305.46L205.73 304.19L207.33 303.04L209.01 301.96L210.77 301.02L212.59 300.17L214.48 299.45L216.42 298.85L218.4 298.37L220.46 298.02L222.54 297.81L224.66 297.75L226.77 297.81L228.86 298.02ZM220.63 319.21L218.89 320.16L217.35 321.42L216.1 322.95L215.13 324.71L214.54 326.65L214.33 328.73L214.54 330.8L215.13 332.74L216.1 334.5L217.35 336.03L218.89 337.29L220.63 338.24L222.57 338.85L224.66 339.06L226.74 338.85L228.68 338.24L230.43 337.29L231.96 336.03L233.22 334.5L234.18 332.74L234.77 330.8L234.98 328.73L234.77 326.65L234.18 324.71L233.22 322.95L231.96 321.42L230.43 320.16L228.68 319.21L226.74 318.6L224.66 318.39L222.57 318.6L220.63 319.21Z" id="lm75usi4a"></path><path d="M392.05 183.94L392.56 184.13L393.06 184.33L393.56 184.53L394.05 184.73L394.55 184.95L395.05 185.16L395.54 185.38L396.02 185.61L396.52 185.83L397 186.07L397.48 186.3L397.96 186.55L398.44 186.79L398.91 187.05L399.39 187.29L399.86 187.56L400.34 187.82L401.73 188.64L402.18 188.91L402.64 189.2L403.54 189.78L404.89 190.69L405.75 191.3L406.2 191.62L406.64 191.94L407.05 192.26L407.49 192.6L407.9 192.93L408.33 193.27L408.75 193.61L409.17 193.96L409.57 194.3L409.99 194.65L432.47 187.32L448.99 213.27L429.67 229.78L429.72 230.02L429.78 230.51L429.83 230.75L430.02 232.19L430.04 232.43L430.1 232.91L430.12 233.15L430.15 233.39L430.17 233.63L430.2 233.87L430.23 234.35L430.26 234.59L430.29 235.07L430.31 235.33L430.38 236.29L430.38 236.53L430.41 237.01L430.41 237.25L430.42 237.49L430.42 237.99L430.44 238.23L430.44 239.67L430.41 240.16L430.39 240.41L430.33 241.37L430.29 241.61L430.26 242.09L430.23 242.32L430.21 242.56L430.15 243.04L430.13 243.28L429.85 245.45L429.81 245.67L429.77 245.91L429.73 246.15L429.69 246.39L429.65 246.63L429.61 246.87L429.57 247.1L429.38 248.06L429.33 248.28L429.19 249L448.5 265.5L432.47 291.85L409.99 284.52L409.57 284.88L409.17 285.21L408.75 285.57L408.33 285.9L407.9 286.24L407.49 286.58L407.05 286.9L406.64 287.23L406.2 287.55L405.75 287.86L405.32 288.18L404.89 288.48L403.54 289.4L402.64 289.97L402.18 290.26L401.73 290.54L400.34 291.35L399.86 291.61L399.39 291.87L398.91 292.12L398.44 292.38L396.52 293.34L396.02 293.56L395.54 293.79L395.05 294.01L393.06 294.85L392.56 295.04L392.05 295.23L391.55 295.42L386.13 317.24L355.53 317.24L350.52 295.42L350.02 295.23L349.51 295.04L349.01 294.83L348.51 294.64L348.02 294.43L347.52 294.21L347.02 294L346.53 293.77L346.05 293.55L345.55 293.31L345.07 293.08L344.59 292.84L344.11 292.59L343.62 292.35L343.14 292.09L342.68 291.83L342.2 291.58L340.34 290.49L339.87 290.2L338.53 289.33L337.18 288.42L336.75 288.11L336.3 287.79L335.43 287.15L335 286.82L334.58 286.5L334.15 286.16L333.73 285.82L333.32 285.47L332.9 285.13L332.5 284.78L332.08 284.43L309.59 291.75L293.57 265.4L312.88 248.91L312.72 247.98L312.46 246.12L312.27 244.26L312.21 243.33L312.18 242.85L312.14 242.38L312.08 240.52L312.08 238.65L312.14 236.79L312.18 236.31L312.27 234.91L312.46 233.05L312.72 231.2L312.88 230.27L293.57 213.77L309.59 187.42L332.08 194.74L332.5 194.39L332.9 194.06L333.32 193.7L333.73 193.37L334.17 193.03L334.58 192.69L335.02 192.36L335.43 192.04L335.87 191.72L336.32 191.39L337.18 190.79L338.53 189.87L339.43 189.29L339.89 189.01L340.34 188.73L341.73 187.92L342.21 187.66L342.68 187.39L343.16 187.15L343.62 186.89L344.11 186.65L344.59 186.39L345.07 186.17L345.55 185.93L346.05 185.7L346.53 185.48L347.02 185.26L347.52 185.05L348.02 184.82L348.51 184.63L349.01 184.42L349.51 184.23L350.02 184.04L350.52 183.84L355.53 162.03L386.13 162.03L391.55 183.75L392.05 183.94ZM355.53 185L354.96 187.71L352.36 188.67L351.9 188.83L351.45 189.01L350.98 189.18L350.08 189.54L349.62 189.73L349.17 189.9L348.74 190.11L347.84 190.5L347.41 190.71L346.96 190.91L346.53 191.14L346.09 191.35L344.79 192.02L344.38 192.26L343.95 192.5L343.53 192.74L343.1 192.98L342.68 193.22L342.26 193.48L341.86 193.73L341.44 193.99L341.03 194.26L340.63 194.52L339.43 195.34L338.62 195.91L338.24 196.2L337.84 196.49L337.45 196.78L336.68 197.39L336.32 197.69L335.93 198.01L335.56 198.32L333.33 200.26L330.54 199.38L311.92 193.3L300.23 212.6L315.88 226.59L317.99 228.44L317.99 231.24L317.93 231.66L317.85 232.08L317.79 232.51L317.72 232.93L317.67 233.34L317.63 233.78L317.58 234.19L317.53 234.63L317.48 235.04L317.45 235.47L317.4 235.89L317.37 236.32L317.35 236.74L317.32 237.17L317.3 237.61L317.29 238.02L317.27 238.46L317.27 238.87L317.26 239.31L317.26 240.16L317.27 240.59L317.27 241L317.29 241.44L317.3 241.85L317.32 242.29L317.35 242.72L317.37 243.14L317.4 243.57L317.45 243.99L317.48 244.42L317.53 244.84L317.58 245.27L317.63 245.69L317.67 246.12L317.72 246.54L317.79 246.95L317.85 247.38L317.93 247.8L317.99 248.22L317.99 251.02L315.88 252.85L300.23 266.46L311.92 285.77L330.64 279.68L333.43 278.82L335.66 280.76L336.03 281.06L336.41 281.38L336.8 281.69L337.16 281.99L337.55 282.28L337.95 282.58L338.72 283.16L339.12 283.45L339.52 283.72L339.92 284.01L340.72 284.56L341.12 284.81L341.54 285.09L341.96 285.34L342.36 285.6L342.78 285.85L343.19 286.1L343.62 286.34L344.04 286.58L344.47 286.82L344.89 287.06L346.19 287.73L347.06 288.15L347.5 288.37L347.94 288.56L348.39 288.77L348.83 288.96L349.27 289.16L349.72 289.35L350.18 289.54L351.08 289.89L351.54 290.07L351.99 290.25L352.46 290.41L355.05 291.37L355.65 294.08L359.69 311.84L382.48 311.84L386.52 294.08L387.11 291.37L389.71 290.41L390.17 290.25L390.62 290.07L391.09 289.89L391.98 289.54L392.45 289.35L392.9 289.16L393.33 288.96L393.78 288.77L394.23 288.56L394.66 288.37L395.11 288.15L395.98 287.73L397.27 287.06L397.69 286.82L398.12 286.58L398.54 286.34L398.97 286.1L399.39 285.85L399.81 285.6L400.21 285.34L400.62 285.09L401.04 284.81L401.44 284.56L402.24 284.01L402.64 283.72L403.05 283.45L403.45 283.16L403.83 282.87L404.23 282.58L404.62 282.28L405 281.99L405.37 281.69L405.75 281.38L406.14 281.06L406.51 280.76L408.74 278.82L411.52 279.68L430.15 285.77L441.84 266.46L425.81 252.37L423.69 250.54L423.69 247.74L423.75 247.32L423.84 246.9L423.9 246.47L423.95 246.05L424.01 245.62L424.11 244.79L424.16 244.36L424.2 243.94L424.24 243.51L424.28 243.09L424.32 242.66L424.33 242.22L424.36 241.81L424.38 241.37L424.4 240.96L424.41 240.52L424.41 240.11L424.43 239.67L424.43 238.82L424.41 238.39L424.41 237.98L424.38 237.11L424.36 236.69L424.33 236.26L424.32 235.84L424.28 235.41L424.24 234.99L424.2 234.56L424.16 234.14L424.11 233.71L424.06 233.29L424.01 232.86L423.95 232.45L423.9 232.01L423.84 231.6L423.75 231.18L423.69 230.75L423.69 227.96L425.81 226.11L441.45 212.5L429.77 193.21L411.14 199.28L408.33 200.16L406.12 198.22L405.75 197.92L405.37 197.6L404.98 197.29L404.62 196.99L404.23 196.68L403.83 196.4L403.06 195.82L402.26 195.24L400.66 194.15L399.82 193.64L399.42 193.38L399.01 193.13L398.59 192.89L398.16 192.64L397.74 192.4L397.31 192.16L396.89 191.92L395.59 191.25L395.16 191.04L394.73 190.82L394.28 190.61L393.84 190.4L392.95 190.02L392.5 189.81L392.05 189.63L391.6 189.44L390.7 189.09L390.24 188.91L389.79 188.73L389.32 188.57L386.73 187.61L386.13 184.9L382.38 167.24L359.59 167.24L355.53 185Z" id="cm4zYZfoz"></path><path d="M392.05 183.94L392.56 184.13L393.06 184.33L393.56 184.53L394.05 184.73L394.55 184.95L395.05 185.16L395.54 185.38L396.02 185.61L396.52 185.83L397 186.07L397.48 186.3L397.96 186.55L398.44 186.79L398.91 187.05L399.39 187.29L399.86 187.56L400.34 187.82L401.73 188.64L402.18 188.91L402.64 189.2L403.54 189.78L404.89 190.69L405.75 191.3L406.2 191.62L406.64 191.94L407.05 192.26L407.49 192.6L407.9 192.93L408.33 193.27L408.75 193.61L409.17 193.96L409.57 194.3L409.99 194.65L432.47 187.32L448.99 213.27L429.67 229.78L429.72 230.02L429.78 230.51L429.83 230.75L430.02 232.19L430.04 232.43L430.1 232.91L430.12 233.15L430.15 233.39L430.17 233.63L430.2 233.87L430.23 234.35L430.26 234.59L430.29 235.07L430.31 235.33L430.38 236.29L430.38 236.53L430.41 237.01L430.41 237.25L430.42 237.49L430.42 237.99L430.44 238.23L430.44 239.67L430.41 240.16L430.39 240.41L430.33 241.37L430.29 241.61L430.26 242.09L430.23 242.32L430.21 242.56L430.15 243.04L430.13 243.28L429.85 245.45L429.81 245.67L429.77 245.91L429.73 246.15L429.69 246.39L429.65 246.63L429.61 246.87L429.57 247.1L429.38 248.06L429.33 248.28L429.19 249L448.5 265.5L432.47 291.85L409.99 284.52L409.57 284.88L409.17 285.21L408.75 285.57L408.33 285.9L407.9 286.24L407.49 286.58L407.05 286.9L406.64 287.23L406.2 287.55L405.75 287.86L405.32 288.18L404.89 288.48L403.54 289.4L402.64 289.97L402.18 290.26L401.73 290.54L400.34 291.35L399.86 291.61L399.39 291.87L398.91 292.12L398.44 292.38L396.52 293.34L396.02 293.56L395.54 293.79L395.05 294.01L393.06 294.85L392.56 295.04L392.05 295.23L391.55 295.42L386.13 317.24L355.53 317.24L350.52 295.42L350.02 295.23L349.51 295.04L349.01 294.83L348.51 294.64L348.02 294.43L347.52 294.21L347.02 294L346.53 293.77L346.05 293.55L345.55 293.31L345.07 293.08L344.59 292.84L344.11 292.59L343.62 292.35L343.14 292.09L342.68 291.83L342.2 291.58L340.34 290.49L339.87 290.2L338.53 289.33L337.18 288.42L336.75 288.11L336.3 287.79L335.43 287.15L335 286.82L334.58 286.5L334.15 286.16L333.73 285.82L333.32 285.47L332.9 285.13L332.5 284.78L332.08 284.43L309.59 291.75L293.57 265.4L312.88 248.91L312.72 247.98L312.46 246.12L312.27 244.26L312.21 243.33L312.18 242.85L312.14 242.38L312.08 240.52L312.08 238.65L312.14 236.79L312.18 236.31L312.27 234.91L312.46 233.05L312.72 231.2L312.88 230.27L293.57 213.77L309.59 187.42L332.08 194.74L332.5 194.39L332.9 194.06L333.32 193.7L333.73 193.37L334.17 193.03L334.58 192.69L335.02 192.36L335.43 192.04L335.87 191.72L336.32 191.39L337.18 190.79L338.53 189.87L339.43 189.29L339.89 189.01L340.34 188.73L341.73 187.92L342.21 187.66L342.68 187.39L343.16 187.15L343.62 186.89L344.11 186.65L344.59 186.39L345.07 186.17L345.55 185.93L346.05 185.7L346.53 185.48L347.02 185.26L347.52 185.05L348.02 184.82L348.51 184.63L349.01 184.42L349.51 184.23L350.02 184.04L350.52 183.84L355.53 162.03L386.13 162.03L391.55 183.75L392.05 183.94ZM355.53 185L354.96 187.71L352.36 188.67L351.9 188.83L351.45 189.01L350.98 189.18L350.08 189.54L349.62 189.73L349.17 189.9L348.74 190.11L347.84 190.5L347.41 190.71L346.96 190.91L346.53 191.14L346.09 191.35L344.79 192.02L344.38 192.26L343.95 192.5L343.53 192.74L343.1 192.98L342.68 193.22L342.26 193.48L341.86 193.73L341.44 193.99L341.03 194.26L340.63 194.52L339.43 195.34L338.62 195.91L338.24 196.2L337.84 196.49L337.45 196.78L336.68 197.39L336.32 197.69L335.93 198.01L335.56 198.32L333.33 200.26L330.54 199.38L311.92 193.3L300.23 212.6L315.88 226.59L317.99 228.44L317.99 231.24L317.93 231.66L317.85 232.08L317.79 232.51L317.72 232.93L317.67 233.34L317.63 233.78L317.58 234.19L317.53 234.63L317.48 235.04L317.45 235.47L317.4 235.89L317.37 236.32L317.35 236.74L317.32 237.17L317.3 237.61L317.29 238.02L317.27 238.46L317.27 238.87L317.26 239.31L317.26 240.16L317.27 240.59L317.27 241L317.29 241.44L317.3 241.85L317.32 242.29L317.35 242.72L317.37 243.14L317.4 243.57L317.45 243.99L317.48 244.42L317.53 244.84L317.58 245.27L317.63 245.69L317.67 246.12L317.72 246.54L317.79 246.95L317.85 247.38L317.93 247.8L317.99 248.22L317.99 251.02L315.88 252.85L300.23 266.46L311.92 285.77L330.64 279.68L333.43 278.82L335.66 280.76L336.03 281.06L336.41 281.38L336.8 281.69L337.16 281.99L337.55 282.28L337.95 282.58L338.72 283.16L339.12 283.45L339.52 283.72L339.92 284.01L340.72 284.56L341.12 284.81L341.54 285.09L341.96 285.34L342.36 285.6L342.78 285.85L343.19 286.1L343.62 286.34L344.04 286.58L344.47 286.82L344.89 287.06L346.19 287.73L347.06 288.15L347.5 288.37L347.94 288.56L348.39 288.77L348.83 288.96L349.27 289.16L349.72 289.35L350.18 289.54L351.08 289.89L351.54 290.07L351.99 290.25L352.46 290.41L355.05 291.37L355.65 294.08L359.69 311.84L382.48 311.84L386.52 294.08L387.11 291.37L389.71 290.41L390.17 290.25L390.62 290.07L391.09 289.89L391.98 289.54L392.45 289.35L392.9 289.16L393.33 288.96L393.78 288.77L394.23 288.56L394.66 288.37L395.11 288.15L395.98 287.73L397.27 287.06L397.69 286.82L398.12 286.58L398.54 286.34L398.97 286.1L399.39 285.85L399.81 285.6L400.21 285.34L400.62 285.09L401.04 284.81L401.44 284.56L402.24 284.01L402.64 283.72L403.05 283.45L403.45 283.16L403.83 282.87L404.23 282.58L404.62 282.28L405 281.99L405.37 281.69L405.75 281.38L406.14 281.06L406.51 280.76L408.74 278.82L411.52 279.68L430.15 285.77L441.84 266.46L425.81 252.37L423.69 250.54L423.69 247.74L423.75 247.32L423.84 246.9L423.9 246.47L423.95 246.05L424.01 245.62L424.11 244.79L424.16 244.36L424.2 243.94L424.24 243.51L424.28 243.09L424.32 242.66L424.33 242.22L424.36 241.81L424.38 241.37L424.4 240.96L424.41 240.52L424.41 240.11L424.43 239.67L424.43 238.82L424.41 238.39L424.41 237.98L424.38 237.11L424.36 236.69L424.33 236.26L424.32 235.84L424.28 235.41L424.24 234.99L424.2 234.56L424.16 234.14L424.11 233.71L424.06 233.29L424.01 232.86L423.95 232.45L423.9 232.01L423.84 231.6L423.75 231.18L423.69 230.75L423.69 227.96L425.81 226.11L441.45 212.5L429.77 193.21L411.14 199.28L408.33 200.16L406.12 198.22L405.75 197.92L405.37 197.6L404.98 197.29L404.62 196.99L404.23 196.68L403.83 196.4L403.06 195.82L402.26 195.24L400.66 194.15L399.82 193.64L399.42 193.38L399.01 193.13L398.59 192.89L398.16 192.64L397.74 192.4L397.31 192.16L396.89 191.92L395.59 191.25L395.16 191.04L394.73 190.82L394.28 190.61L393.84 190.4L392.95 190.02L392.5 189.81L392.05 189.63L391.6 189.44L390.7 189.09L390.24 188.91L389.79 188.73L389.32 188.57L386.73 187.61L386.13 184.9L382.38 167.24L359.59 167.24L355.53 185Z" id="h1RxtUU8M5"></path><path d="M375.19 208.83L377.24 209.19L379.23 209.65L381.17 210.26L383.04 210.98L384.87 211.83L386.63 212.78L388.31 213.85L389.92 215.01L391.46 216.27L392.9 217.63L394.25 219.08L395.51 220.6L396.68 222.22L397.74 223.9L398.7 225.65L399.53 227.48L400.26 229.35L400.87 231.31L401.35 233.29L401.68 235.33L401.91 237.41L401.97 239.53L401.91 241.66L401.68 243.75L401.35 245.78L400.87 247.77L400.26 249.71L399.53 251.6L398.7 253.41L397.74 255.17L396.68 256.86L395.51 258.48L394.25 260L392.9 261.44L391.46 262.8L389.92 264.07L388.31 265.23L386.63 266.3L384.87 267.24L383.04 268.09L381.17 268.82L379.23 269.41L377.24 269.89L375.19 270.24L373.1 270.45L370.99 270.51L368.87 270.45L366.79 270.24L364.74 269.89L362.75 269.41L360.81 268.82L358.93 268.09L357.11 267.24L355.34 266.3L353.66 265.23L352.06 264.07L350.52 262.8L349.07 261.44L347.73 260L346.46 258.48L345.29 256.86L344.23 255.17L343.27 253.41L342.44 251.6L341.72 249.71L341.11 247.77L340.63 245.78L340.29 243.75L340.07 241.66L340 239.53L340.07 237.41L340.29 235.33L340.63 233.29L341.11 231.31L341.72 229.35L342.44 227.48L343.27 225.65L344.23 223.9L345.29 222.22L346.46 220.6L347.73 219.08L349.07 217.63L350.52 216.27L352.06 215.01L353.66 213.85L355.34 212.78L357.11 211.83L358.93 210.98L360.81 210.26L362.75 209.65L364.74 209.19L366.79 208.83L368.87 208.63L370.99 208.55L373.1 208.63L375.19 208.83ZM366.96 230.02L365.22 230.97L363.68 232.24L362.43 233.76L361.47 235.52L360.87 237.46L360.66 239.53L360.87 241.61L361.47 243.55L362.43 245.3L363.68 246.82L365.22 248.07L366.96 249.02L368.9 249.6L370.99 249.77L373.07 249.56L375.01 248.96L376.76 248.01L378.3 246.74L379.55 245.22L380.51 243.46L381.1 241.52L381.31 239.43L381.09 237.37L380.48 235.46L379.51 233.71L378.26 232.2L376.73 230.95L374.98 230.01L373.05 229.42L370.99 229.21L368.9 229.42L366.96 230.02Z" id="bSWu39S9E"></path><path d="M375.19 208.83L377.24 209.19L379.23 209.65L381.17 210.26L383.04 210.98L384.87 211.83L386.63 212.78L388.31 213.85L389.92 215.01L391.46 216.27L392.9 217.63L394.25 219.08L395.51 220.6L396.68 222.22L397.74 223.9L398.7 225.65L399.53 227.48L400.26 229.35L400.87 231.31L401.35 233.29L401.68 235.33L401.91 237.41L401.97 239.53L401.91 241.66L401.68 243.75L401.35 245.78L400.87 247.77L400.26 249.71L399.53 251.6L398.7 253.41L397.74 255.17L396.68 256.86L395.51 258.48L394.25 260L392.9 261.44L391.46 262.8L389.92 264.07L388.31 265.23L386.63 266.3L384.87 267.24L383.04 268.09L381.17 268.82L379.23 269.41L377.24 269.89L375.19 270.24L373.1 270.45L370.99 270.51L368.87 270.45L366.79 270.24L364.74 269.89L362.75 269.41L360.81 268.82L358.93 268.09L357.11 267.24L355.34 266.3L353.66 265.23L352.06 264.07L350.52 262.8L349.07 261.44L347.73 260L346.46 258.48L345.29 256.86L344.23 255.17L343.27 253.41L342.44 251.6L341.72 249.71L341.11 247.77L340.63 245.78L340.29 243.75L340.07 241.66L340 239.53L340.07 237.41L340.29 235.33L340.63 233.29L341.11 231.31L341.72 229.35L342.44 227.48L343.27 225.65L344.23 223.9L345.29 222.22L346.46 220.6L347.73 219.08L349.07 217.63L350.52 216.27L352.06 215.01L353.66 213.85L355.34 212.78L357.11 211.83L358.93 210.98L360.81 210.26L362.75 209.65L364.74 209.19L366.79 208.83L368.87 208.63L370.99 208.55L373.1 208.63L375.19 208.83ZM366.96 230.02L365.22 230.97L363.68 232.24L362.43 233.76L361.47 235.52L360.87 237.46L360.66 239.53L360.87 241.61L361.47 243.55L362.43 245.3L363.68 246.82L365.22 248.07L366.96 249.02L368.9 249.6L370.99 249.77L373.07 249.56L375.01 248.96L376.76 248.01L378.3 246.74L379.55 245.22L380.51 243.46L381.1 241.52L381.31 239.43L381.09 237.37L380.48 235.46L379.51 233.71L378.26 232.2L376.73 230.95L374.98 230.01L373.05 229.42L370.99 229.21L368.9 229.42L366.96 230.02Z" id="a2hToc2qDQ"></path><path d="M439.42 362.22L439.9 362.73L440.38 363.23L440.84 363.74L441.29 364.25L441.76 364.78L442.2 365.3L442.65 365.82L443.09 366.35L443.54 366.9L443.97 367.43L445.22 369.06L446.05 370.18L446.45 370.75L446.84 371.31L447.24 371.87L447.62 372.44L447.99 373.02L448.38 373.6L448.74 374.18L449.11 374.77L449.47 375.36L449.82 375.94L450.17 376.55L450.51 377.14L450.86 377.73L451.18 378.34L451.52 378.95L452.16 380.17L452.77 381.42L453.07 382.03L453.36 382.66L453.65 383.3L453.94 383.92L454.21 384.56L454.48 385.19L484.51 389.44L488.06 428.82L456.98 437.12L456.82 437.7L456.63 438.28L456.55 438.57L456.45 438.85L456.36 439.13L456.07 439.99L455.97 440.26L455.78 440.84L455.67 441.11L455.57 441.4L455.46 441.69L455.36 441.96L455.25 442.25L455.16 442.52L455.04 442.81L454.93 443.09L454.82 443.37L454.6 443.92L454.48 444.21L454.26 444.75L454.13 445.04L453.91 445.59L453.65 446.13L453.54 446.42L453.15 447.24L453.04 447.51L452.78 448.05L452.64 448.33L452.38 448.87L452.24 449.14L452.11 449.42L451.82 449.96L451.69 450.23L451.41 450.78L451.26 451.04L450.83 451.85L450.68 452.11L450.52 452.38L450.38 452.66L450.24 452.91L450.08 453.18L449.93 453.44L449.77 453.71L449.61 453.97L449.47 454.23L449.31 454.5L448.82 455.27L448.66 455.54L448.5 455.8L448.33 456.05L447.85 456.82L447.67 457.08L447.51 457.34L447.33 457.58L447.16 457.83L447 458.09L446.82 458.35L446.64 458.59L446.47 458.84L458.83 488.48L425.42 509.61L403.7 488.48L403.05 488.64L402.37 488.82L401.7 488.96L401.04 489.12L399.7 489.41L397.68 489.79L396.99 489.91L396.31 490.02L394.97 490.21L394.28 490.31L393.6 490.39L392.91 490.47L392.24 490.55L391.55 490.61L390.88 490.66L390.19 490.72L389.5 490.77L388.83 490.8L388.14 490.85L387.45 490.87L386.78 490.9L385.4 490.93L384.03 490.93L381.28 490.87L380.6 490.84L378.54 490.69L377.86 490.63L377.17 490.58L376.48 490.5L358.24 512.8L322.63 495.33L329.2 467.43L328.72 466.94L328.24 466.42L327.77 465.91L327.32 465.4L326.86 464.89L325.96 463.83L325.53 463.3L325.08 462.75L324.65 462.22L323.4 460.59L322.56 459.47L322.16 458.91L321.78 458.35L321.38 457.78L320.99 457.21L320.62 456.63L320.24 456.05L319.87 455.48L319.5 454.88L319.15 454.31L318.44 453.12L318.11 452.51L317.75 451.92L317.43 451.31L317.1 450.7L316.46 449.48L316.15 448.86L315.85 448.25L315.54 447.62L315.25 447L314.96 446.36L314.68 445.73L314.4 445.09L314.13 444.46L284.11 440.22L280.55 400.35L311.63 392.05L311.79 391.47L311.97 390.89L312.16 390.32L312.34 389.76L312.53 389.18L312.72 388.62L312.93 388.06L313.14 387.48L313.55 386.36L313.78 385.81L314.23 384.69L315.19 382.51L315.96 380.88L316.23 380.35L316.5 379.8L317.05 378.74L317.34 378.22L317.63 377.7L317.93 377.17L318.22 376.66L318.52 376.13L318.83 375.62L319.15 375.11L319.45 374.59L319.77 374.1L320.11 373.58L320.43 373.09L321.44 371.6L321.79 371.1L322.15 370.62L309.79 340.98L343.1 319.76L364.82 340.88L365.47 340.71L367.49 340.23L368.84 339.94L369.51 339.81L370.19 339.67L370.86 339.55L371.55 339.42L372.22 339.31L372.91 339.22L373.58 339.1L374.27 339.02L374.95 338.93L375.64 338.85L376.31 338.77L377.69 338.64L378.38 338.59L379.05 338.53L379.74 338.49L380.43 338.45L381.12 338.41L383.87 338.35L384.56 338.35L385.25 338.37L385.93 338.38L387.3 338.41L388.68 338.48L390.06 338.58L392.13 338.77L410.18 316.57L445.8 334.04L439.42 362.22ZM395.11 345.52L391.55 345.52L390.91 345.45L389.04 345.31L388.39 345.26L387.14 345.2L386.5 345.18L385.25 345.15L383.36 345.15L382.74 345.16L382.09 345.18L381.47 345.2L380.22 345.26L379.58 345.31L378.95 345.34L378.33 345.4L377.7 345.45L376.45 345.58L374.58 345.82L373.33 346.01L372.72 346.11L371.47 346.33L370.86 346.46L369.61 346.72L369 346.85L368.39 346.99L367.76 347.13L366.55 347.46L362.88 348.42L360.18 345.8L342.21 328.24L317.99 343.69L328.22 368.5L329.39 371.77L327.26 374.77L326.94 375.2L326.62 375.65L326.31 376.1L326.01 376.53L325.7 377L325.09 377.89L324.81 378.34L324.23 379.27L323.96 379.74L323.67 380.2L323.4 380.67L323.14 381.13L322.87 381.61L322.61 382.08L322.1 383.04L321.86 383.52L321.6 384L321.36 384.5L321.14 384.98L320.9 385.48L320.67 385.96L320.22 386.95L319.6 388.44L319.39 388.95L319.2 389.45L319 389.96L318.81 390.46L318.62 390.97L318.09 392.51L317.93 393.04L317.61 394.07L316.55 397.55L312.98 398.51L287.3 405.47L289.91 434.41L314.8 437.89L318.57 438.37L320.22 442.14L320.46 442.72L320.72 443.31L320.98 443.87L321.23 444.45L321.5 445.03L322.05 446.15L322.91 447.83L323.22 448.39L323.51 448.94L323.83 449.48L324.13 450.03L324.77 451.12L325.09 451.65L325.43 452.19L326.1 453.25L326.46 453.76L326.81 454.29L327.16 454.8L328.27 456.34L328.64 456.84L329.02 457.35L329.79 458.35L330.18 458.83L330.58 459.32L330.98 459.8L331.39 460.29L331.8 460.77L332.63 461.7L333.93 463.09L336.43 465.7L335.66 469.17L330.16 491.94L356.32 504.78L370.99 486.64L373.2 483.85L376.77 483.85L377.41 483.91L379.29 484.06L379.93 484.1L381.18 484.17L381.81 484.18L382.45 484.2L383.7 484.23L384.34 484.23L385.59 484.2L386.23 484.18L386.86 484.17L388.73 484.07L389.37 484.02L390 483.98L391.87 483.78L393.75 483.54L395 483.35L395.61 483.26L396.86 483.03L397.47 482.9L398.09 482.79L398.7 482.65L399.33 482.52L399.94 482.37L400.56 482.23L401.78 481.91L405.45 480.95L408.33 483.56L426.4 501.13L450.62 485.68L440.3 460.67L438.84 457.3L440.97 454.31L441.29 453.87L441.61 453.42L441.92 452.98L442.22 452.54L442.53 452.08L443.13 451.18L443.42 450.73L444 449.8L444.27 449.34L444.56 448.87L444.83 448.41L445.09 447.94L445.36 447.46L445.62 447L446.13 446.04L446.37 445.55L446.63 445.07L446.87 444.58L447.09 444.1L447.33 443.6L447.56 443.12L448.01 442.12L448.63 440.63L448.84 440.12L449.03 439.62L449.42 438.6L449.59 438.1L449.79 437.59L449.96 437.07L450.12 436.56L450.3 436.03L450.62 435.01L451.68 431.53L455.25 430.57L481.22 424.38L478.61 395.43L453.71 391.95L449.75 390.7L448.3 387.22L448.06 386.65L447.29 384.92L447.01 384.34L446.47 383.22L445.31 380.97L445.01 380.43L444.69 379.88L444.38 379.34L443.74 378.25L443.42 377.72L443.09 377.17L442.41 376.12L442.06 375.6L441.71 375.07L441.36 374.56L440.99 374.05L440.63 373.53L440.25 373.02L439.88 372.52L439.5 372.01L438.73 371.02L438.34 370.54L437.94 370.04L437.54 369.56L437.12 369.08L436.72 368.6L435.89 367.67L434.59 366.27L432.09 363.66L432.86 360.2L438.17 337.42L412.01 324.58L397.34 342.73L395.11 345.52Z" id="b2LBJChuJ2"></path><path d="M439.42 362.22L439.9 362.73L440.38 363.23L440.84 363.74L441.29 364.25L441.76 364.78L442.2 365.3L442.65 365.82L443.09 366.35L443.54 366.9L443.97 367.43L445.22 369.06L446.05 370.18L446.45 370.75L446.84 371.31L447.24 371.87L447.62 372.44L447.99 373.02L448.38 373.6L448.74 374.18L449.11 374.77L449.47 375.36L449.82 375.94L450.17 376.55L450.51 377.14L450.86 377.73L451.18 378.34L451.52 378.95L452.16 380.17L452.77 381.42L453.07 382.03L453.36 382.66L453.65 383.3L453.94 383.92L454.21 384.56L454.48 385.19L484.51 389.44L488.06 428.82L456.98 437.12L456.82 437.7L456.63 438.28L456.55 438.57L456.45 438.85L456.36 439.13L456.07 439.99L455.97 440.26L455.78 440.84L455.67 441.11L455.57 441.4L455.46 441.69L455.36 441.96L455.25 442.25L455.16 442.52L455.04 442.81L454.93 443.09L454.82 443.37L454.6 443.92L454.48 444.21L454.26 444.75L454.13 445.04L453.91 445.59L453.65 446.13L453.54 446.42L453.15 447.24L453.04 447.51L452.78 448.05L452.64 448.33L452.38 448.87L452.24 449.14L452.11 449.42L451.82 449.96L451.69 450.23L451.41 450.78L451.26 451.04L450.83 451.85L450.68 452.11L450.52 452.38L450.38 452.66L450.24 452.91L450.08 453.18L449.93 453.44L449.77 453.71L449.61 453.97L449.47 454.23L449.31 454.5L448.82 455.27L448.66 455.54L448.5 455.8L448.33 456.05L447.85 456.82L447.67 457.08L447.51 457.34L447.33 457.58L447.16 457.83L447 458.09L446.82 458.35L446.64 458.59L446.47 458.84L458.83 488.48L425.42 509.61L403.7 488.48L403.05 488.64L402.37 488.82L401.7 488.96L401.04 489.12L399.7 489.41L397.68 489.79L396.99 489.91L396.31 490.02L394.97 490.21L394.28 490.31L393.6 490.39L392.91 490.47L392.24 490.55L391.55 490.61L390.88 490.66L390.19 490.72L389.5 490.77L388.83 490.8L388.14 490.85L387.45 490.87L386.78 490.9L385.4 490.93L384.03 490.93L381.28 490.87L380.6 490.84L378.54 490.69L377.86 490.63L377.17 490.58L376.48 490.5L358.24 512.8L322.63 495.33L329.2 467.43L328.72 466.94L328.24 466.42L327.77 465.91L327.32 465.4L326.86 464.89L325.96 463.83L325.53 463.3L325.08 462.75L324.65 462.22L323.4 460.59L322.56 459.47L322.16 458.91L321.78 458.35L321.38 457.78L320.99 457.21L320.62 456.63L320.24 456.05L319.87 455.48L319.5 454.88L319.15 454.31L318.44 453.12L318.11 452.51L317.75 451.92L317.43 451.31L317.1 450.7L316.46 449.48L316.15 448.86L315.85 448.25L315.54 447.62L315.25 447L314.96 446.36L314.68 445.73L314.4 445.09L314.13 444.46L284.11 440.22L280.55 400.35L311.63 392.05L311.79 391.47L311.97 390.89L312.16 390.32L312.34 389.76L312.53 389.18L312.72 388.62L312.93 388.06L313.14 387.48L313.55 386.36L313.78 385.81L314.23 384.69L315.19 382.51L315.96 380.88L316.23 380.35L316.5 379.8L317.05 378.74L317.34 378.22L317.63 377.7L317.93 377.17L318.22 376.66L318.52 376.13L318.83 375.62L319.15 375.11L319.45 374.59L319.77 374.1L320.11 373.58L320.43 373.09L321.44 371.6L321.79 371.1L322.15 370.62L309.79 340.98L343.1 319.76L364.82 340.88L365.47 340.71L367.49 340.23L368.84 339.94L369.51 339.81L370.19 339.67L370.86 339.55L371.55 339.42L372.22 339.31L372.91 339.22L373.58 339.1L374.27 339.02L374.95 338.93L375.64 338.85L376.31 338.77L377.69 338.64L378.38 338.59L379.05 338.53L379.74 338.49L380.43 338.45L381.12 338.41L383.87 338.35L384.56 338.35L385.25 338.37L385.93 338.38L387.3 338.41L388.68 338.48L390.06 338.58L392.13 338.77L410.18 316.57L445.8 334.04L439.42 362.22ZM395.11 345.52L391.55 345.52L390.91 345.45L389.04 345.31L388.39 345.26L387.14 345.2L386.5 345.18L385.25 345.15L383.36 345.15L382.74 345.16L382.09 345.18L381.47 345.2L380.22 345.26L379.58 345.31L378.95 345.34L378.33 345.4L377.7 345.45L376.45 345.58L374.58 345.82L373.33 346.01L372.72 346.11L371.47 346.33L370.86 346.46L369.61 346.72L369 346.85L368.39 346.99L367.76 347.13L366.55 347.46L362.88 348.42L360.18 345.8L342.21 328.24L317.99 343.69L328.22 368.5L329.39 371.77L327.26 374.77L326.94 375.2L326.62 375.65L326.31 376.1L326.01 376.53L325.7 377L325.09 377.89L324.81 378.34L324.23 379.27L323.96 379.74L323.67 380.2L323.4 380.67L323.14 381.13L322.87 381.61L322.61 382.08L322.1 383.04L321.86 383.52L321.6 384L321.36 384.5L321.14 384.98L320.9 385.48L320.67 385.96L320.22 386.95L319.6 388.44L319.39 388.95L319.2 389.45L319 389.96L318.81 390.46L318.62 390.97L318.09 392.51L317.93 393.04L317.61 394.07L316.55 397.55L312.98 398.51L287.3 405.47L289.91 434.41L314.8 437.89L318.57 438.37L320.22 442.14L320.46 442.72L320.72 443.31L320.98 443.87L321.23 444.45L321.5 445.03L322.05 446.15L322.91 447.83L323.22 448.39L323.51 448.94L323.83 449.48L324.13 450.03L324.77 451.12L325.09 451.65L325.43 452.19L326.1 453.25L326.46 453.76L326.81 454.29L327.16 454.8L328.27 456.34L328.64 456.84L329.02 457.35L329.79 458.35L330.18 458.83L330.58 459.32L330.98 459.8L331.39 460.29L331.8 460.77L332.63 461.7L333.93 463.09L336.43 465.7L335.66 469.17L330.16 491.94L356.32 504.78L370.99 486.64L373.2 483.85L376.77 483.85L377.41 483.91L379.29 484.06L379.93 484.1L381.18 484.17L381.81 484.18L382.45 484.2L383.7 484.23L384.34 484.23L385.59 484.2L386.23 484.18L386.86 484.17L388.73 484.07L389.37 484.02L390 483.98L391.87 483.78L393.75 483.54L395 483.35L395.61 483.26L396.86 483.03L397.47 482.9L398.09 482.79L398.7 482.65L399.33 482.52L399.94 482.37L400.56 482.23L401.78 481.91L405.45 480.95L408.33 483.56L426.4 501.13L450.62 485.68L440.3 460.67L438.84 457.3L440.97 454.31L441.29 453.87L441.61 453.42L441.92 452.98L442.22 452.54L442.53 452.08L443.13 451.18L443.42 450.73L444 449.8L444.27 449.34L444.56 448.87L444.83 448.41L445.09 447.94L445.36 447.46L445.62 447L446.13 446.04L446.37 445.55L446.63 445.07L446.87 444.58L447.09 444.1L447.33 443.6L447.56 443.12L448.01 442.12L448.63 440.63L448.84 440.12L449.03 439.62L449.42 438.6L449.59 438.1L449.79 437.59L449.96 437.07L450.12 436.56L450.3 436.03L450.62 435.01L451.68 431.53L455.25 430.57L481.22 424.38L478.61 395.43L453.71 391.95L449.75 390.7L448.3 387.22L448.06 386.65L447.29 384.92L447.01 384.34L446.47 383.22L445.31 380.97L445.01 380.43L444.69 379.88L444.38 379.34L443.74 378.25L443.42 377.72L443.09 377.17L442.41 376.12L442.06 375.6L441.71 375.07L441.36 374.56L440.99 374.05L440.63 373.53L440.25 373.02L439.88 372.52L439.5 372.01L438.73 371.02L438.34 370.54L437.94 370.04L437.54 369.56L437.12 369.08L436.72 368.6L435.89 367.67L434.59 366.27L432.09 363.66L432.86 360.2L438.17 337.42L412.01 324.58L397.34 342.73L395.11 345.52Z" id="gmtfBzxp7"></path><path d="M388.03 375.33L390.03 375.57L392.02 375.91L393.99 376.36L395.96 376.9L397.92 377.56L399.86 378.33L401.78 379.21L401.84 379.24L401.89 379.27L403.77 380.25L405.55 381.31L407.26 382.46L408.91 383.68L410.47 384.98L411.96 386.34L413.37 387.78L414.68 389.28L415.93 390.83L417.09 392.43L418.16 394.1L419.15 395.8L420.05 397.55L420.87 399.34L421.59 401.17L422.22 403.03L422.76 404.92L423.21 406.84L423.55 408.77L423.8 410.72L423.96 412.69L424.03 414.68L423.98 416.67L423.85 418.66L423.59 420.64L423.26 422.63L422.81 424.62L422.25 426.59L421.57 428.55L420.81 430.49L419.92 432.39L418.95 434.25L417.89 436.05L416.73 437.76L415.52 439.4L414.23 440.95L412.87 442.44L411.43 443.84L409.94 445.17L408.4 446.4L406.8 447.56L405.15 448.63L403.43 449.63L401.68 450.52L399.9 451.34L398.08 452.06L396.22 452.7L394.34 453.23L392.43 453.68L390.49 454.03L388.54 454.31L386.58 454.47L384.6 454.53L382.62 454.48L380.64 454.35L378.63 454.11L376.66 453.78L374.67 453.33L372.72 452.78L370.76 452.13L368.82 451.36L366.92 450.48L365.04 449.51L363.24 448.44L361.53 447.3L359.88 446.08L358.31 444.8L356.83 443.44L355.42 442.01L354.09 440.52L352.84 438.97L351.67 437.36L350.6 435.71L349.6 434L348.69 432.25L347.87 430.47L347.15 428.64L346.51 426.78L345.97 424.89L345.52 422.99L345.16 421.05L344.89 419.09L344.73 417.12L344.67 415.15L344.7 413.16L344.83 411.16L345.07 409.17L345.4 407.18L345.85 405.19L346.41 403.22L347.07 401.27L347.82 399.33L348.71 397.42L349.68 395.54L350.74 393.75L351.88 392.03L353.1 390.38L354.4 388.81L355.76 387.32L357.19 385.91L358.68 384.58L360.22 383.34L361.83 382.17L363.48 381.1L365.18 380.11L366.93 379.19L368.73 378.38L370.55 377.65L372.41 377.01L374.29 376.47L376.21 376.02L378.15 375.65L380.11 375.39L382.06 375.23L384.05 375.17L386.04 375.2L388.03 375.33ZM379.66 402.29L377.8 403.12L376.08 404.23L374.55 405.59L373.21 407.21L372.14 409.09L371.37 411.09L370.95 413.14L370.87 415.21L371.1 417.23L371.63 419.19L372.46 421.05L373.57 422.76L374.93 424.3L376.55 425.63L378.42 426.7L380.38 427.44L382.37 427.87L384.37 427.97L386.36 427.78L388.27 427.3L390.09 426.53L391.79 425.5L393.33 424.22L394.68 422.68L395.8 420.9L395.82 420.85L395.85 420.81L395.86 420.76L395.9 420.71L395.91 420.66L395.94 420.61L395.96 420.56L395.99 420.52L396.01 420.47L396.04 420.42L396.79 418.42L397.23 416.36L397.31 414.3L397.08 412.28L396.55 410.32L395.72 408.46L394.61 406.75L393.25 405.21L391.62 403.88L389.76 402.8L387.75 402.05L385.7 401.62L383.63 401.54L381.61 401.76L379.66 402.29Z" id="a1qY6Qocxv"></path><path d="M388.03 375.33L390.03 375.57L392.02 375.91L393.99 376.36L395.96 376.9L397.92 377.56L399.86 378.33L401.78 379.21L401.84 379.24L401.89 379.27L403.77 380.25L405.55 381.31L407.26 382.46L408.91 383.68L410.47 384.98L411.96 386.34L413.37 387.78L414.68 389.28L415.93 390.83L417.09 392.43L418.16 394.1L419.15 395.8L420.05 397.55L420.87 399.34L421.59 401.17L422.22 403.03L422.76 404.92L423.21 406.84L423.55 408.77L423.8 410.72L423.96 412.69L424.03 414.68L423.98 416.67L423.85 418.66L423.59 420.64L423.26 422.63L422.81 424.62L422.25 426.59L421.57 428.55L420.81 430.49L419.92 432.39L418.95 434.25L417.89 436.05L416.73 437.76L415.52 439.4L414.23 440.95L412.87 442.44L411.43 443.84L409.94 445.17L408.4 446.4L406.8 447.56L405.15 448.63L403.43 449.63L401.68 450.52L399.9 451.34L398.08 452.06L396.22 452.7L394.34 453.23L392.43 453.68L390.49 454.03L388.54 454.31L386.58 454.47L384.6 454.53L382.62 454.48L380.64 454.35L378.63 454.11L376.66 453.78L374.67 453.33L372.72 452.78L370.76 452.13L368.82 451.36L366.92 450.48L365.04 449.51L363.24 448.44L361.53 447.3L359.88 446.08L358.31 444.8L356.83 443.44L355.42 442.01L354.09 440.52L352.84 438.97L351.67 437.36L350.6 435.71L349.6 434L348.69 432.25L347.87 430.47L347.15 428.64L346.51 426.78L345.97 424.89L345.52 422.99L345.16 421.05L344.89 419.09L344.73 417.12L344.67 415.15L344.7 413.16L344.83 411.16L345.07 409.17L345.4 407.18L345.85 405.19L346.41 403.22L347.07 401.27L347.82 399.33L348.71 397.42L349.68 395.54L350.74 393.75L351.88 392.03L353.1 390.38L354.4 388.81L355.76 387.32L357.19 385.91L358.68 384.58L360.22 383.34L361.83 382.17L363.48 381.1L365.18 380.11L366.93 379.19L368.73 378.38L370.55 377.65L372.41 377.01L374.29 376.47L376.21 376.02L378.15 375.65L380.11 375.39L382.06 375.23L384.05 375.17L386.04 375.2L388.03 375.33ZM379.66 402.29L377.8 403.12L376.08 404.23L374.55 405.59L373.21 407.21L372.14 409.09L371.37 411.09L370.95 413.14L370.87 415.21L371.1 417.23L371.63 419.19L372.46 421.05L373.57 422.76L374.93 424.3L376.55 425.63L378.42 426.7L380.38 427.44L382.37 427.87L384.37 427.97L386.36 427.78L388.27 427.3L390.09 426.53L391.79 425.5L393.33 424.22L394.68 422.68L395.8 420.9L395.82 420.85L395.85 420.81L395.86 420.76L395.9 420.71L395.91 420.66L395.94 420.61L395.96 420.56L395.99 420.52L396.01 420.47L396.04 420.42L396.79 418.42L397.23 416.36L397.31 414.3L397.08 412.28L396.55 410.32L395.72 408.46L394.61 406.75L393.25 405.21L391.62 403.88L389.76 402.8L387.75 402.05L385.7 401.62L383.63 401.54L381.61 401.76L379.66 402.29Z" id="l5sOTuCfI"></path><path d="M96.18 541.83C218.69 664.34 417.33 664.34 539.84 541.83C662.35 419.31 662.35 220.68 539.84 98.17C417.33 -24.34 218.69 -24.34 96.18 98.17C-26.33 220.68 -26.33 419.31 96.18 541.83Z" id="adE3OKAge"></path><path d="M96.18 541.83C218.69 664.34 417.33 664.34 539.84 541.83C662.35 419.31 662.35 220.68 539.84 98.17C417.33 -24.34 218.69 -24.34 96.18 98.17C-26.33 220.68 -26.33 419.31 96.18 541.83Z" id="b4xjnKY9KD"></path><path d="M252.16 415.6C252.16 410.1 256.51 407.1 261.81 410.48C267.09 414.04 309.24 442.44 314.52 446C319.15 449.19 319.15 452.86 314.52 455.65C309.24 459.2 267.09 487.53 261.81 491.08C256.99 494.36 252.74 492.06 252.16 486.16C251.58 480.27 252.16 474.78 252.16 468.49C251.83 468.49 250.16 468.49 247.14 468.49C205.04 468.49 181.65 468.49 176.97 468.49C166.87 469.81 157.62 462.69 156.31 452.59C156.11 451 156.11 449.42 156.31 447.85C156.31 396.01 156.31 354.54 156.31 344.17C156.31 336.83 159.02 334.52 165.97 334.52C167.56 334.52 180.3 334.52 181.89 334.52C188.85 334.52 191.54 337.52 191.54 344.17C191.54 385.67 191.54 418.8 191.54 427.09C191.54 428.82 191.54 430.57 191.54 432.59C203.67 432.6 240.04 432.67 252.16 432.68C252.16 426.7 252.16 421.09 252.16 415.6Z" id="b1x1eS7aFR"></path><path d="M252.16 415.6C252.16 410.1 256.51 407.1 261.81 410.48C267.09 414.04 309.24 442.44 314.52 446C319.15 449.19 319.15 452.86 314.52 455.65C309.24 459.2 267.09 487.53 261.81 491.08C256.99 494.36 252.74 492.06 252.16 486.16C251.58 480.27 252.16 474.78 252.16 468.49C251.83 468.49 250.16 468.49 247.14 468.49C205.04 468.49 181.65 468.49 176.97 468.49C166.87 469.81 157.62 462.69 156.31 452.59C156.11 451 156.11 449.42 156.31 447.85C156.31 396.01 156.31 354.54 156.31 344.17C156.31 336.83 159.02 334.52 165.97 334.52C167.56 334.52 180.3 334.52 181.89 334.52C188.85 334.52 191.54 337.52 191.54 344.17C191.54 385.67 191.54 418.8 191.54 427.09C191.54 428.82 191.54 430.57 191.54 432.59C203.67 432.6 240.04 432.67 252.16 432.68C252.16 426.7 252.16 421.09 252.16 415.6Z" id="aYvhiOQeV"></path><path d="M485.85 401.02L486.33 401.52L487.73 403.06L488.18 403.57L489.52 405.16L489.96 405.69L490.82 406.78L491.65 407.87L492.07 408.43L493.27 410.11L493.66 410.67L494.43 411.83L495.17 412.98L495.53 413.58L495.9 414.15L496.61 415.34L496.94 415.95L497.28 416.54L497.62 417.15L498.58 418.98L498.88 419.6L499.19 420.21L499.8 421.46L500.07 422.09L500.36 422.73L500.63 423.35L500.9 423.99L530.93 428.24L534.31 467.53L503.23 475.83L503.13 476.12L503.05 476.41L502.96 476.7L502.88 476.99L502.78 477.26L502.59 477.84L502.51 478.13L502.41 478.41L502.31 478.69L502.2 478.98L502.11 479.26L502.01 479.54L501.91 479.82L501.8 480.11L501.71 480.39L501.59 480.67L501.5 480.95L501.38 481.24L501.27 481.51L501.16 481.8L501.06 482.07L500.95 482.36L500.84 482.63L500.71 482.92L500.37 483.74L500.25 484.02L500.13 484.3L500.01 484.57L499.89 484.84L499.77 485.11L499.65 485.39L499.53 485.66L499.4 485.95L499.14 486.49L499.01 486.75L498.88 487.02L498.31 488.11L498.15 488.37L497.86 488.91L497.7 489.17L497.55 489.44L497.39 489.71L497.25 489.97L497.09 490.24L496.77 490.76L496.62 491.03L496.14 491.8L495.97 492.07L495.49 492.84L495.31 493.1L495.15 493.35L494.97 493.61L494.81 493.87L494.64 494.12L494.46 494.36L494.11 494.88L493.95 495.13L493.77 495.37L493.59 495.63L493.4 495.87L493.23 496.13L493.05 496.37L492.87 496.62L492.68 496.86L492.5 497.1L492.31 497.36L505.06 527.08L471.76 548.22L450.04 527.08L448.7 527.43L447.35 527.75L446 528.04L445.31 528.19L443.97 528.44L443.28 528.55L442.61 528.67L441.92 528.78L441.23 528.87L440.55 528.97L438.49 529.21L437.81 529.28L436.43 529.4L435.06 529.5L433.68 529.56L432.99 529.58L432.3 529.61L431.61 529.61L430.92 529.63L430.23 529.63L429.53 529.61L428.84 529.61L428.15 529.58L427.46 529.56L426.08 529.5L424.7 529.4L422.63 529.21L404.58 551.41L368.97 533.94L375.52 506.05L375.04 505.54L374.58 505.04L373.65 504.01L373.2 503.48L372.73 502.97L372.3 502.44L371.85 501.91L371.42 501.37L370.99 500.84L370.55 500.29L370.14 499.75L369.72 499.19L369.3 498.64L368.1 496.96L367.72 496.38L367.33 495.82L366.95 495.24L366.58 494.67L366.19 494.09L365.84 493.5L365.47 492.9L364.77 491.72L364.43 491.13L364.09 490.52L363.76 489.92L363.12 488.7L362.8 488.08L362.49 487.47L361.58 485.6L361.29 484.97L361.02 484.35L360.47 483.06L330.45 478.83L327.07 439.45L358.15 431.14L358.68 429.41L358.87 428.85L359.06 428.27L359.25 427.71L359.45 427.14L359.86 426.01L360.09 425.45L360.3 424.89L360.52 424.35L360.76 423.79L360.98 423.24L361.22 422.7L361.47 422.14L361.72 421.59L361.96 421.05L362.22 420.52L362.49 419.97L362.75 419.44L363.02 418.9L363.29 418.37L364.16 416.78L364.45 416.27L364.75 415.74L365.66 414.2L365.99 413.69L366.31 413.19L366.63 412.68L366.96 412.18L367.28 411.68L367.64 411.19L367.97 410.69L368.33 410.19L368.66 409.71L356.32 380.07L389.61 358.84L411.33 379.98L412.01 379.8L412.68 379.64L413.34 379.48L414.01 379.32L415.36 379.03L416.04 378.89L417.39 378.63L418.06 378.52L418.75 378.41L419.43 378.3L420.12 378.2L420.79 378.1L421.48 378.02L422.15 377.94L422.84 377.86L423.53 377.8L424.2 377.73L424.89 377.67L425.58 377.62L426.27 377.59L426.96 377.54L427.65 377.51L428.32 377.49L429.01 377.46L429.7 377.46L430.39 377.45L431.08 377.45L431.77 377.46L432.46 377.46L433.15 377.49L433.84 377.51L435.22 377.57L436.59 377.67L437.28 377.73L437.96 377.78L438.65 377.86L456.7 355.66L492.31 373.13L485.85 401.02ZM441.36 384.13L437.78 384.13L437.16 384.07L436.53 384.02L435.89 383.95L435.26 383.91L434.64 383.87L434 383.84L433.37 383.81L432.75 383.79L432.12 383.76L431.48 383.76L430.86 383.75L430.23 383.75L429.59 383.76L428.96 383.76L428.34 383.78L427.71 383.81L427.07 383.84L425.82 383.91L424.57 384L423.95 384.07L423.31 384.13L422.68 384.19L420.81 384.43L420.2 384.53L418.95 384.72L418.32 384.84L417.71 384.95L417.09 385.06L416.46 385.19L415.85 385.32L415.23 385.46L414.01 385.75L413.4 385.91L412.77 386.07L409.12 387.03L406.41 384.42L388.46 366.85L364.22 382.3L374.75 407.1L376.2 410.48L374.08 413.48L373.76 413.91L373.44 414.36L373.12 414.79L372.2 416.14L371.92 416.61L371.63 417.05L370.76 418.45L369.94 419.84L369.69 420.32L369.42 420.79L369.16 421.27L368.92 421.75L368.66 422.23L368.18 423.19L367.94 423.69L367.72 424.17L367.04 425.66L366.84 426.16L366.61 426.66L366.4 427.15L366.21 427.65L366.02 428.16L365.81 428.68L365.63 429.17L365.44 429.69L364.91 431.22L364.75 431.74L364.57 432.27L364.41 432.78L363.36 436.26L359.78 437.22L334.12 444.18L336.72 473.12L361.63 476.6L365.39 477.08L366.84 480.56L367.08 481.14L367.32 481.73L368.09 483.46L368.34 484.02L368.61 484.6L368.89 485.16L370.04 487.41L370.65 488.5L370.95 489.06L371.28 489.6L371.6 490.13L371.92 490.68L372.25 491.21L372.57 491.73L372.93 492.26L373.26 492.79L373.62 493.32L373.97 493.83L374.32 494.36L374.69 494.88L375.06 495.37L375.43 495.89L375.81 496.38L376.18 496.9L376.56 497.39L376.97 497.87L377.37 498.37L377.75 498.85L378.17 499.33L378.57 499.81L378.99 500.29L379.4 500.76L379.82 501.24L380.25 501.7L382.77 504.3L381.98 507.78L376.48 530.27L402.84 543.49L417.52 525.35L419.73 522.54L423.31 522.54L424.56 522.67L425.2 522.72L426.45 522.82L427.07 522.85L427.71 522.88L428.96 522.91L429.61 522.93L431.5 522.93L433.37 522.88L434.01 522.85L434.64 522.82L435.26 522.77L435.89 522.74L436.51 522.67L437.14 522.62L437.76 522.56L438.41 522.49L439.03 522.41L439.64 522.33L440.27 522.25L441.52 522.06L442.14 521.95L442.77 521.85L443.37 521.74L444 521.61L444.61 521.48L445.23 521.36L445.84 521.23L446.47 521.08L447.08 520.94L448.3 520.62L451.97 519.66L454.68 522.25L473.01 539.82L496.85 524.39L487.01 499.28L485.56 495.9L487.68 492.92L488 492.47L488.32 492.04L488.64 491.59L489.56 490.24L489.84 489.79L490.15 489.33L490.44 488.88L490.71 488.42L491 487.95L491.54 487.02L491.82 486.54L492.07 486.08L492.34 485.6L492.6 485.11L492.86 484.65L493.1 484.17L493.34 483.67L493.82 482.71L494.04 482.21L494.28 481.73L494.51 481.24L494.72 480.74L494.94 480.24L495.15 479.74L495.36 479.23L495.55 478.73L495.76 478.24L495.95 477.72L496.13 477.21L496.32 476.7L496.85 475.16L497.01 474.65L497.18 474.13L497.35 473.61L498.4 470.14L501.98 469.17L527.16 462.22L524.56 433.26L499.65 429.78L495.98 429.3L494.54 425.84L494.3 425.25L493.79 424.09L493.51 423.53L493.26 422.95L492.99 422.39L492.7 421.81L492.42 421.25L492.14 420.69L491.85 420.15L491.54 419.59L491.24 419.04L490.93 418.48L490.61 417.94L490.31 417.41L489.97 416.86L489.65 416.32L488.64 414.73L488.29 414.2L487.95 413.69L487.58 413.18L487.23 412.65L486.86 412.15L486.12 411.12L484.97 409.63L484.57 409.15L484.17 408.65L483.37 407.69L482.95 407.21L482.53 406.75L482.12 406.27L481.7 405.8L481.27 405.34L480.84 404.89L478.32 402.28L479.09 398.8L484.41 376.02L458.25 363.18L443.57 381.33L441.36 384.13Z" id="fDczaXqBx"></path><path d="M485.85 401.02L486.33 401.52L487.73 403.06L488.18 403.57L489.52 405.16L489.96 405.69L490.82 406.78L491.65 407.87L492.07 408.43L493.27 410.11L493.66 410.67L494.43 411.83L495.17 412.98L495.53 413.58L495.9 414.15L496.61 415.34L496.94 415.95L497.28 416.54L497.62 417.15L498.58 418.98L498.88 419.6L499.19 420.21L499.8 421.46L500.07 422.09L500.36 422.73L500.63 423.35L500.9 423.99L530.93 428.24L534.31 467.53L503.23 475.83L503.13 476.12L503.05 476.41L502.96 476.7L502.88 476.99L502.78 477.26L502.59 477.84L502.51 478.13L502.41 478.41L502.31 478.69L502.2 478.98L502.11 479.26L502.01 479.54L501.91 479.82L501.8 480.11L501.71 480.39L501.59 480.67L501.5 480.95L501.38 481.24L501.27 481.51L501.16 481.8L501.06 482.07L500.95 482.36L500.84 482.63L500.71 482.92L500.37 483.74L500.25 484.02L500.13 484.3L500.01 484.57L499.89 484.84L499.77 485.11L499.65 485.39L499.53 485.66L499.4 485.95L499.14 486.49L499.01 486.75L498.88 487.02L498.31 488.11L498.15 488.37L497.86 488.91L497.7 489.17L497.55 489.44L497.39 489.71L497.25 489.97L497.09 490.24L496.77 490.76L496.62 491.03L496.14 491.8L495.97 492.07L495.49 492.84L495.31 493.1L495.15 493.35L494.97 493.61L494.81 493.87L494.64 494.12L494.46 494.36L494.11 494.88L493.95 495.13L493.77 495.37L493.59 495.63L493.4 495.87L493.23 496.13L493.05 496.37L492.87 496.62L492.68 496.86L492.5 497.1L492.31 497.36L505.06 527.08L471.76 548.22L450.04 527.08L448.7 527.43L447.35 527.75L446 528.04L445.31 528.19L443.97 528.44L443.28 528.55L442.61 528.67L441.92 528.78L441.23 528.87L440.55 528.97L438.49 529.21L437.81 529.28L436.43 529.4L435.06 529.5L433.68 529.56L432.99 529.58L432.3 529.61L431.61 529.61L430.92 529.63L430.23 529.63L429.53 529.61L428.84 529.61L428.15 529.58L427.46 529.56L426.08 529.5L424.7 529.4L422.63 529.21L404.58 551.41L368.97 533.94L375.52 506.05L375.04 505.54L374.58 505.04L373.65 504.01L373.2 503.48L372.73 502.97L372.3 502.44L371.85 501.91L371.42 501.37L370.99 500.84L370.55 500.29L370.14 499.75L369.72 499.19L369.3 498.64L368.1 496.96L367.72 496.38L367.33 495.82L366.95 495.24L366.58 494.67L366.19 494.09L365.84 493.5L365.47 492.9L364.77 491.72L364.43 491.13L364.09 490.52L363.76 489.92L363.12 488.7L362.8 488.08L362.49 487.47L361.58 485.6L361.29 484.97L361.02 484.35L360.47 483.06L330.45 478.83L327.07 439.45L358.15 431.14L358.68 429.41L358.87 428.85L359.06 428.27L359.25 427.71L359.45 427.14L359.86 426.01L360.09 425.45L360.3 424.89L360.52 424.35L360.76 423.79L360.98 423.24L361.22 422.7L361.47 422.14L361.72 421.59L361.96 421.05L362.22 420.52L362.49 419.97L362.75 419.44L363.02 418.9L363.29 418.37L364.16 416.78L364.45 416.27L364.75 415.74L365.66 414.2L365.99 413.69L366.31 413.19L366.63 412.68L366.96 412.18L367.28 411.68L367.64 411.19L367.97 410.69L368.33 410.19L368.66 409.71L356.32 380.07L389.61 358.84L411.33 379.98L412.01 379.8L412.68 379.64L413.34 379.48L414.01 379.32L415.36 379.03L416.04 378.89L417.39 378.63L418.06 378.52L418.75 378.41L419.43 378.3L420.12 378.2L420.79 378.1L421.48 378.02L422.15 377.94L422.84 377.86L423.53 377.8L424.2 377.73L424.89 377.67L425.58 377.62L426.27 377.59L426.96 377.54L427.65 377.51L428.32 377.49L429.01 377.46L429.7 377.46L430.39 377.45L431.08 377.45L431.77 377.46L432.46 377.46L433.15 377.49L433.84 377.51L435.22 377.57L436.59 377.67L437.28 377.73L437.96 377.78L438.65 377.86L456.7 355.66L492.31 373.13L485.85 401.02ZM441.36 384.13L437.78 384.13L437.16 384.07L436.53 384.02L435.89 383.95L435.26 383.91L434.64 383.87L434 383.84L433.37 383.81L432.75 383.79L432.12 383.76L431.48 383.76L430.86 383.75L430.23 383.75L429.59 383.76L428.96 383.76L428.34 383.78L427.71 383.81L427.07 383.84L425.82 383.91L424.57 384L423.95 384.07L423.31 384.13L422.68 384.19L420.81 384.43L420.2 384.53L418.95 384.72L418.32 384.84L417.71 384.95L417.09 385.06L416.46 385.19L415.85 385.32L415.23 385.46L414.01 385.75L413.4 385.91L412.77 386.07L409.12 387.03L406.41 384.42L388.46 366.85L364.22 382.3L374.75 407.1L376.2 410.48L374.08 413.48L373.76 413.91L373.44 414.36L373.12 414.79L372.2 416.14L371.92 416.61L371.63 417.05L370.76 418.45L369.94 419.84L369.69 420.32L369.42 420.79L369.16 421.27L368.92 421.75L368.66 422.23L368.18 423.19L367.94 423.69L367.72 424.17L367.04 425.66L366.84 426.16L366.61 426.66L366.4 427.15L366.21 427.65L366.02 428.16L365.81 428.68L365.63 429.17L365.44 429.69L364.91 431.22L364.75 431.74L364.57 432.27L364.41 432.78L363.36 436.26L359.78 437.22L334.12 444.18L336.72 473.12L361.63 476.6L365.39 477.08L366.84 480.56L367.08 481.14L367.32 481.73L368.09 483.46L368.34 484.02L368.61 484.6L368.89 485.16L370.04 487.41L370.65 488.5L370.95 489.06L371.28 489.6L371.6 490.13L371.92 490.68L372.25 491.21L372.57 491.73L372.93 492.26L373.26 492.79L373.62 493.32L373.97 493.83L374.32 494.36L374.69 494.88L375.06 495.37L375.43 495.89L375.81 496.38L376.18 496.9L376.56 497.39L376.97 497.87L377.37 498.37L377.75 498.85L378.17 499.33L378.57 499.81L378.99 500.29L379.4 500.76L379.82 501.24L380.25 501.7L382.77 504.3L381.98 507.78L376.48 530.27L402.84 543.49L417.52 525.35L419.73 522.54L423.31 522.54L424.56 522.67L425.2 522.72L426.45 522.82L427.07 522.85L427.71 522.88L428.96 522.91L429.61 522.93L431.5 522.93L433.37 522.88L434.01 522.85L434.64 522.82L435.26 522.77L435.89 522.74L436.51 522.67L437.14 522.62L437.76 522.56L438.41 522.49L439.03 522.41L439.64 522.33L440.27 522.25L441.52 522.06L442.14 521.95L442.77 521.85L443.37 521.74L444 521.61L444.61 521.48L445.23 521.36L445.84 521.23L446.47 521.08L447.08 520.94L448.3 520.62L451.97 519.66L454.68 522.25L473.01 539.82L496.85 524.39L487.01 499.28L485.56 495.9L487.68 492.92L488 492.47L488.32 492.04L488.64 491.59L489.56 490.24L489.84 489.79L490.15 489.33L490.44 488.88L490.71 488.42L491 487.95L491.54 487.02L491.82 486.54L492.07 486.08L492.34 485.6L492.6 485.11L492.86 484.65L493.1 484.17L493.34 483.67L493.82 482.71L494.04 482.21L494.28 481.73L494.51 481.24L494.72 480.74L494.94 480.24L495.15 479.74L495.36 479.23L495.55 478.73L495.76 478.24L495.95 477.72L496.13 477.21L496.32 476.7L496.85 475.16L497.01 474.65L497.18 474.13L497.35 473.61L498.4 470.14L501.98 469.17L527.16 462.22L524.56 433.26L499.65 429.78L495.98 429.3L494.54 425.84L494.3 425.25L493.79 424.09L493.51 423.53L493.26 422.95L492.99 422.39L492.7 421.81L492.42 421.25L492.14 420.69L491.85 420.15L491.54 419.59L491.24 419.04L490.93 418.48L490.61 417.94L490.31 417.41L489.97 416.86L489.65 416.32L488.64 414.73L488.29 414.2L487.95 413.69L487.58 413.18L487.23 412.65L486.86 412.15L486.12 411.12L484.97 409.63L484.57 409.15L484.17 408.65L483.37 407.69L482.95 407.21L482.53 406.75L482.12 406.27L481.7 405.8L481.27 405.34L480.84 404.89L478.32 402.28L479.09 398.8L484.41 376.02L458.25 363.18L443.57 381.33L441.36 384.13Z" id="b9pEsjEJ4"></path><path d="M434.27 414.04L436.26 414.28L438.25 414.62L440.23 415.07L442.2 415.61L444.16 416.27L446.1 417.04L448.01 417.92L448.09 417.95L448.14 417.97L449.99 418.96L451.79 420.02L453.51 421.17L455.14 422.39L456.71 423.69L458.19 425.05L459.6 426.48L460.93 427.99L462.16 429.52L463.33 431.14L464.41 432.79L465.38 434.51L466.28 436.26L467.1 438.05L467.82 439.88L468.46 441.74L468.99 443.63L469.44 445.54L469.79 447.48L470.05 449.43L470.21 451.4L470.26 453.39L470.22 455.38L470.08 457.37L469.84 459.36L469.49 461.34L469.04 463.33L468.48 465.3L467.82 467.26L467.05 469.18L466.17 471.1L465.17 472.96L464.12 474.74L462.98 476.46L461.76 478.11L460.46 479.66L459.1 481.14L457.67 482.55L456.18 483.86L454.63 485.11L453.02 486.27L451.37 487.34L449.67 488.34L447.93 489.23L446.13 490.05L444.32 490.77L442.46 491.4L440.57 491.94L438.66 492.39L436.74 492.74L434.78 493L432.81 493.16L430.84 493.23L428.85 493.19L426.86 493.06L424.88 492.82L422.89 492.49L420.92 492.04L418.95 491.49L416.99 490.82L415.07 490.07L413.14 489.19L411.28 488.21L409.49 487.15L407.76 486.01L406.12 484.79L404.55 483.51L403.06 482.15L401.65 480.72L400.32 479.23L399.07 477.68L397.92 476.07L396.83 474.42L395.83 472.71L394.93 470.96L394.12 469.18L393.38 467.35L392.75 465.49L392.21 463.6L391.74 461.7L391.39 459.76L391.14 457.8L390.98 455.83L390.9 453.84L390.94 451.85L391.07 449.87L391.31 447.88L391.65 445.89L392.1 443.9L392.64 441.93L393.3 439.98L394.07 438.04L394.95 436.11L395.91 434.25L396.99 432.46L398.12 430.74L399.34 429.09L400.62 427.52L401.99 426.03L403.41 424.62L404.9 423.29L406.46 422.04L408.06 420.89L409.71 419.8L411.43 418.82L413.18 417.9L414.95 417.09L416.78 416.35L418.64 415.72L420.53 415.18L422.44 414.71L424.38 414.36L426.34 414.1L428.31 413.94L430.28 413.88L432.28 413.91L434.27 414.04ZM426.38 441.02L424.51 441.82L422.78 442.89L421.22 444.24L419.86 445.84L418.75 447.69L417.97 449.69L417.5 451.74L417.39 453.79L417.58 455.83L418.08 457.78L418.88 459.66L419.96 461.39L421.3 462.95L422.91 464.29L424.75 465.4L426.74 466.2L428.77 466.65L430.82 466.78L432.84 466.58L434.8 466.1L436.66 465.32L438.39 464.26L439.94 462.93L441.31 461.34L442.41 459.52L442.46 459.42L443.26 457.42L443.71 455.36L443.84 453.31L443.65 451.28L443.13 449.32L442.35 447.45L441.27 445.71L439.93 444.16L438.33 442.8L436.48 441.69L434.48 440.91L432.43 440.46L430.38 440.33L428.34 440.52L426.38 441.02Z" id="c3gF1ZP5Vo"></path><path d="M434.27 414.04L436.26 414.28L438.25 414.62L440.23 415.07L442.2 415.61L444.16 416.27L446.1 417.04L448.01 417.92L448.09 417.95L448.14 417.97L449.99 418.96L451.79 420.02L453.51 421.17L455.14 422.39L456.71 423.69L458.19 425.05L459.6 426.48L460.93 427.99L462.16 429.52L463.33 431.14L464.41 432.79L465.38 434.51L466.28 436.26L467.1 438.05L467.82 439.88L468.46 441.74L468.99 443.63L469.44 445.54L469.79 447.48L470.05 449.43L470.21 451.4L470.26 453.39L470.22 455.38L470.08 457.37L469.84 459.36L469.49 461.34L469.04 463.33L468.48 465.3L467.82 467.26L467.05 469.18L466.17 471.1L465.17 472.96L464.12 474.74L462.98 476.46L461.76 478.11L460.46 479.66L459.1 481.14L457.67 482.55L456.18 483.86L454.63 485.11L453.02 486.27L451.37 487.34L449.67 488.34L447.93 489.23L446.13 490.05L444.32 490.77L442.46 491.4L440.57 491.94L438.66 492.39L436.74 492.74L434.78 493L432.81 493.16L430.84 493.23L428.85 493.19L426.86 493.06L424.88 492.82L422.89 492.49L420.92 492.04L418.95 491.49L416.99 490.82L415.07 490.07L413.14 489.19L411.28 488.21L409.49 487.15L407.76 486.01L406.12 484.79L404.55 483.51L403.06 482.15L401.65 480.72L400.32 479.23L399.07 477.68L397.92 476.07L396.83 474.42L395.83 472.71L394.93 470.96L394.12 469.18L393.38 467.35L392.75 465.49L392.21 463.6L391.74 461.7L391.39 459.76L391.14 457.8L390.98 455.83L390.9 453.84L390.94 451.85L391.07 449.87L391.31 447.88L391.65 445.89L392.1 443.9L392.64 441.93L393.3 439.98L394.07 438.04L394.95 436.11L395.91 434.25L396.99 432.46L398.12 430.74L399.34 429.09L400.62 427.52L401.99 426.03L403.41 424.62L404.9 423.29L406.46 422.04L408.06 420.89L409.71 419.8L411.43 418.82L413.18 417.9L414.95 417.09L416.78 416.35L418.64 415.72L420.53 415.18L422.44 414.71L424.38 414.36L426.34 414.1L428.31 413.94L430.28 413.88L432.28 413.91L434.27 414.04ZM426.38 441.02L424.51 441.82L422.78 442.89L421.22 444.24L419.86 445.84L418.75 447.69L417.97 449.69L417.5 451.74L417.39 453.79L417.58 455.83L418.08 457.78L418.88 459.66L419.96 461.39L421.3 462.95L422.91 464.29L424.75 465.4L426.74 466.2L428.77 466.65L430.82 466.78L432.84 466.58L434.8 466.1L436.66 465.32L438.39 464.26L439.94 462.93L441.31 461.34L442.41 459.52L442.46 459.42L443.26 457.42L443.71 455.36L443.84 453.31L443.65 451.28L443.13 449.32L442.35 447.45L441.27 445.71L439.93 444.16L438.33 442.8L436.48 441.69L434.48 440.91L432.43 440.46L430.38 440.33L428.34 440.52L426.38 441.02Z" id="d6Zw8m7m0"></path><path d="M197.45 183.64L197.97 183.84L198.46 184.04L198.96 184.25L199.46 184.44L199.95 184.66L200.45 184.87L200.95 185.09L201.43 185.32L201.93 185.54L202.41 185.78L202.89 186.01L203.37 186.25L203.85 186.51L204.31 186.75L204.8 187L205.26 187.27L205.74 187.53L207.14 188.35L207.58 188.62L208.05 188.91L208.95 189.49L209.4 189.79L209.84 190.08L210.29 190.4L211.16 191.01L211.61 191.33L212.04 191.65L212.46 191.97L212.89 192.31L213.31 192.64L213.74 192.98L214.57 193.65L214.97 194.01L215.39 194.36L237.88 187.03L253.91 213.37L234.59 229.88L234.64 230.12L234.74 230.84L234.79 231.08L234.91 232.04L234.93 232.29L235.03 233.01L235.04 233.25L235.07 233.49L235.09 233.73L235.12 233.97L235.15 234.45L235.19 234.69L235.22 235.17L235.23 235.43L235.28 236.15L235.28 236.39L235.33 237.11L235.33 237.35L235.35 237.59L235.35 238.09L235.36 238.33L235.36 239.77L235.28 240.97L235.25 241.21L235.23 241.44L235.2 241.92L235.17 242.16L235.15 242.4L235.12 242.64L235.11 242.86L235.04 243.35L235.03 243.59L234.99 243.83L234.96 244.05L234.87 244.77L234.83 245L234.77 245.48L234.72 245.7L234.69 245.94L234.64 246.18L234.61 246.42L234.56 246.65L234.53 246.89L234.48 247.13L234.45 247.35L234.35 247.83L234.31 248.06L234.26 248.3L234.21 248.52L234.11 249L253.41 265.5L237.4 291.85L214.91 284.52L214.49 284.88L214.08 285.21L213.68 285.57L213.26 285.9L212.83 286.24L212.41 286.58L211.98 286.9L211.54 287.23L211.11 287.55L210.68 287.86L210.25 288.18L209.8 288.48L209.36 288.79L208.47 289.4L207.57 289.97L207.1 290.26L206.64 290.54L206.19 290.81L205.26 291.35L204.78 291.61L204.31 291.87L203.83 292.12L203.37 292.38L201.93 293.1L201.43 293.34L200.95 293.56L200.45 293.79L199.97 294.01L197.98 294.85L197.49 295.04L196.97 295.23L196.48 295.42L191.54 317.24L160.55 317.24L155.54 295.42L155.04 295.23L154.01 294.85L152.52 294.22L151.03 293.55L150.55 293.32L150.06 293.08L149.09 292.6L148.61 292.35L148.13 292.11L147.65 291.85L147.17 291.58L146.71 291.32L145.78 290.78L145.31 290.49L144.85 290.21L144.38 289.93L143.93 289.64L143.48 289.33L143.02 289.04L142.57 288.74L142.14 288.44L141.69 288.11L141.26 287.79L140.81 287.47L139.94 286.83L139.52 286.5L139.09 286.16L138.67 285.82L138.24 285.47L137.83 285.13L137.42 284.78L137.01 284.43L114.52 291.75L98.49 265.4L117.8 248.91L117.64 247.98L117.39 246.12L117.2 244.26L117.13 243.33L117.1 242.85L117.07 242.38L117 240.52L117 238.65L117.07 236.79L117.1 236.31L117.2 234.91L117.39 233.05L117.64 231.2L117.8 230.27L98.49 213.77L114.52 187.03L137.01 194.36L137.42 194.01L137.83 193.65L139.08 192.64L139.94 191.97L140.36 191.65L141.22 191.01L141.67 190.71L142.1 190.4L142.55 190.08L143 189.79L143.45 189.49L144.35 188.91L144.81 188.62L145.26 188.35L146.66 187.53L147.12 187.27L147.6 187L148.07 186.75L148.55 186.51L149.03 186.25L149.51 186.01L149.99 185.78L150.47 185.54L150.97 185.32L151.45 185.09L151.95 184.87L152.44 184.66L152.94 184.44L153.44 184.25L153.93 184.04L154.43 183.84L154.94 183.64L155.44 183.46L160.46 161.64L191.92 161.64L196.96 183.46L197.45 183.64ZM160.46 185.38L159.88 188.09L157.28 189.05L156.82 189.21L156.35 189.39L155.46 189.74L154.99 189.92L153.65 190.5L153.21 190.69L152.76 190.9L152.33 191.09L151.88 191.3L151.45 191.52L151.02 191.73L149.72 192.4L149.29 192.64L148.45 193.13L148.02 193.37L147.6 193.61L146.77 194.12L146.37 194.38L145.95 194.65L145.55 194.9L144.75 195.45L144.35 195.74L143.95 196.01L143.55 196.3L143.16 196.59L142.76 196.88L142.38 197.18L141.99 197.47L141.61 197.77L141.24 198.08L140.85 198.4L140.49 198.7L138.26 200.64L135.47 199.76L116.84 193.69L105.16 212.99L120.79 226.59L122.92 228.44L122.92 231.24L122.84 231.66L122.77 232.08L122.71 232.51L122.65 232.93L122.6 233.34L122.53 233.78L122.49 234.19L122.45 234.63L122.41 235.04L122.36 235.47L122.32 235.89L122.29 236.32L122.28 236.74L122.24 237.17L122.23 237.61L122.21 238.02L122.2 238.46L122.18 238.87L122.18 240.59L122.2 241L122.21 241.44L122.23 241.85L122.24 242.29L122.28 242.72L122.29 243.14L122.32 243.57L122.36 243.99L122.41 244.42L122.45 244.84L122.49 245.27L122.53 245.69L122.6 246.12L122.65 246.54L122.71 246.95L122.77 247.38L122.84 247.8L122.92 248.22L122.92 251.02L120.79 252.85L105.16 266.46L116.84 285.77L135.08 279.68L137.87 278.82L140.1 280.76L140.47 281.06L140.85 281.38L141.22 281.69L141.61 281.99L141.99 282.28L142.38 282.58L142.78 282.87L143.16 283.16L143.56 283.45L143.95 283.72L144.35 284.01L144.77 284.28L145.17 284.56L145.57 284.81L145.98 285.09L146.38 285.34L147.22 285.85L148.05 286.34L148.48 286.58L148.9 286.82L149.33 287.06L150.63 287.73L151.5 288.15L151.93 288.37L152.38 288.56L152.83 288.77L153.26 288.96L154.61 289.54L155.07 289.72L155.97 290.07L156.44 290.25L156.9 290.41L159.5 291.37L160.07 294.08L164.13 311.84L187.39 311.84L191.44 294.08L192.04 291.37L194.63 290.41L195.1 290.25L195.55 290.07L196.01 289.89L196.91 289.54L198.7 288.77L199.15 288.56L199.59 288.37L200.03 288.15L200.9 287.73L202.2 287.06L202.62 286.82L203.05 286.58L203.88 286.1L204.31 285.85L204.73 285.6L205.13 285.34L205.55 285.09L205.97 284.81L206.37 284.56L207.17 284.01L207.57 283.72L207.97 283.45L208.37 283.16L209.14 282.58L209.54 282.28L209.92 281.99L210.29 281.69L210.68 281.38L211.06 281.06L211.43 280.76L213.64 278.82L216.45 279.68L235.07 285.77L246.76 266.46L230.63 252.47L228.52 250.64L228.52 247.83L228.65 247L228.73 246.57L228.78 246.15L228.84 245.72L228.94 244.88L228.98 244.45L229.03 244.03L229.06 243.6L229.1 243.18L229.16 242.32L229.19 241.9L229.21 241.47L229.22 241.05L229.24 240.62L229.24 240.2L229.26 239.77L229.26 238.92L229.24 238.49L229.24 238.07L229.21 237.21L229.19 236.79L229.16 236.36L229.13 235.94L229.1 235.51L229.06 235.09L229.03 234.66L228.98 234.24L228.94 233.81L228.89 233.39L228.84 232.96L228.78 232.54L228.73 232.11L228.65 231.69L228.58 231.28L228.52 230.84L228.52 228.05L230.63 226.21L246.28 212.6L234.59 193.3L215.97 199.38L213.16 200.26L210.95 198.32L210.57 198.01L210.2 197.69L209.04 196.78L208.27 196.2L207.87 195.91L207.49 195.63L207.09 195.34L205.89 194.52L205.47 194.26L205.07 193.99L203.82 193.22L202.57 192.5L202.13 192.26L201.72 192.02L200.42 191.35L199.99 191.14L199.54 190.91L198.67 190.5L197.77 190.11L197.33 189.9L196.88 189.73L196.43 189.54L195.53 189.18L195.07 189.01L194.62 188.83L194.15 188.67L191.54 187.71L190.96 185L186.91 167.24L164.13 167.24L160.46 185.38Z" id="b33BhoFiS9"></path><path d="M197.45 183.64L197.97 183.84L198.46 184.04L198.96 184.25L199.46 184.44L199.95 184.66L200.45 184.87L200.95 185.09L201.43 185.32L201.93 185.54L202.41 185.78L202.89 186.01L203.37 186.25L203.85 186.51L204.31 186.75L204.8 187L205.26 187.27L205.74 187.53L207.14 188.35L207.58 188.62L208.05 188.91L208.95 189.49L209.4 189.79L209.84 190.08L210.29 190.4L211.16 191.01L211.61 191.33L212.04 191.65L212.46 191.97L212.89 192.31L213.31 192.64L213.74 192.98L214.57 193.65L214.97 194.01L215.39 194.36L237.88 187.03L253.91 213.37L234.59 229.88L234.64 230.12L234.74 230.84L234.79 231.08L234.91 232.04L234.93 232.29L235.03 233.01L235.04 233.25L235.07 233.49L235.09 233.73L235.12 233.97L235.15 234.45L235.19 234.69L235.22 235.17L235.23 235.43L235.28 236.15L235.28 236.39L235.33 237.11L235.33 237.35L235.35 237.59L235.35 238.09L235.36 238.33L235.36 239.77L235.28 240.97L235.25 241.21L235.23 241.44L235.2 241.92L235.17 242.16L235.15 242.4L235.12 242.64L235.11 242.86L235.04 243.35L235.03 243.59L234.99 243.83L234.96 244.05L234.87 244.77L234.83 245L234.77 245.48L234.72 245.7L234.69 245.94L234.64 246.18L234.61 246.42L234.56 246.65L234.53 246.89L234.48 247.13L234.45 247.35L234.35 247.83L234.31 248.06L234.26 248.3L234.21 248.52L234.11 249L253.41 265.5L237.4 291.85L214.91 284.52L214.49 284.88L214.08 285.21L213.68 285.57L213.26 285.9L212.83 286.24L212.41 286.58L211.98 286.9L211.54 287.23L211.11 287.55L210.68 287.86L210.25 288.18L209.8 288.48L209.36 288.79L208.47 289.4L207.57 289.97L207.1 290.26L206.64 290.54L206.19 290.81L205.26 291.35L204.78 291.61L204.31 291.87L203.83 292.12L203.37 292.38L201.93 293.1L201.43 293.34L200.95 293.56L200.45 293.79L199.97 294.01L197.98 294.85L197.49 295.04L196.97 295.23L196.48 295.42L191.54 317.24L160.55 317.24L155.54 295.42L155.04 295.23L154.01 294.85L152.52 294.22L151.03 293.55L150.55 293.32L150.06 293.08L149.09 292.6L148.61 292.35L148.13 292.11L147.65 291.85L147.17 291.58L146.71 291.32L145.78 290.78L145.31 290.49L144.85 290.21L144.38 289.93L143.93 289.64L143.48 289.33L143.02 289.04L142.57 288.74L142.14 288.44L141.69 288.11L141.26 287.79L140.81 287.47L139.94 286.83L139.52 286.5L139.09 286.16L138.67 285.82L138.24 285.47L137.83 285.13L137.42 284.78L137.01 284.43L114.52 291.75L98.49 265.4L117.8 248.91L117.64 247.98L117.39 246.12L117.2 244.26L117.13 243.33L117.1 242.85L117.07 242.38L117 240.52L117 238.65L117.07 236.79L117.1 236.31L117.2 234.91L117.39 233.05L117.64 231.2L117.8 230.27L98.49 213.77L114.52 187.03L137.01 194.36L137.42 194.01L137.83 193.65L139.08 192.64L139.94 191.97L140.36 191.65L141.22 191.01L141.67 190.71L142.1 190.4L142.55 190.08L143 189.79L143.45 189.49L144.35 188.91L144.81 188.62L145.26 188.35L146.66 187.53L147.12 187.27L147.6 187L148.07 186.75L148.55 186.51L149.03 186.25L149.51 186.01L149.99 185.78L150.47 185.54L150.97 185.32L151.45 185.09L151.95 184.87L152.44 184.66L152.94 184.44L153.44 184.25L153.93 184.04L154.43 183.84L154.94 183.64L155.44 183.46L160.46 161.64L191.92 161.64L196.96 183.46L197.45 183.64ZM160.46 185.38L159.88 188.09L157.28 189.05L156.82 189.21L156.35 189.39L155.46 189.74L154.99 189.92L153.65 190.5L153.21 190.69L152.76 190.9L152.33 191.09L151.88 191.3L151.45 191.52L151.02 191.73L149.72 192.4L149.29 192.64L148.45 193.13L148.02 193.37L147.6 193.61L146.77 194.12L146.37 194.38L145.95 194.65L145.55 194.9L144.75 195.45L144.35 195.74L143.95 196.01L143.55 196.3L143.16 196.59L142.76 196.88L142.38 197.18L141.99 197.47L141.61 197.77L141.24 198.08L140.85 198.4L140.49 198.7L138.26 200.64L135.47 199.76L116.84 193.69L105.16 212.99L120.79 226.59L122.92 228.44L122.92 231.24L122.84 231.66L122.77 232.08L122.71 232.51L122.65 232.93L122.6 233.34L122.53 233.78L122.49 234.19L122.45 234.63L122.41 235.04L122.36 235.47L122.32 235.89L122.29 236.32L122.28 236.74L122.24 237.17L122.23 237.61L122.21 238.02L122.2 238.46L122.18 238.87L122.18 240.59L122.2 241L122.21 241.44L122.23 241.85L122.24 242.29L122.28 242.72L122.29 243.14L122.32 243.57L122.36 243.99L122.41 244.42L122.45 244.84L122.49 245.27L122.53 245.69L122.6 246.12L122.65 246.54L122.71 246.95L122.77 247.38L122.84 247.8L122.92 248.22L122.92 251.02L120.79 252.85L105.16 266.46L116.84 285.77L135.08 279.68L137.87 278.82L140.1 280.76L140.47 281.06L140.85 281.38L141.22 281.69L141.61 281.99L141.99 282.28L142.38 282.58L142.78 282.87L143.16 283.16L143.56 283.45L143.95 283.72L144.35 284.01L144.77 284.28L145.17 284.56L145.57 284.81L145.98 285.09L146.38 285.34L147.22 285.85L148.05 286.34L148.48 286.58L148.9 286.82L149.33 287.06L150.63 287.73L151.5 288.15L151.93 288.37L152.38 288.56L152.83 288.77L153.26 288.96L154.61 289.54L155.07 289.72L155.97 290.07L156.44 290.25L156.9 290.41L159.5 291.37L160.07 294.08L164.13 311.84L187.39 311.84L191.44 294.08L192.04 291.37L194.63 290.41L195.1 290.25L195.55 290.07L196.01 289.89L196.91 289.54L198.7 288.77L199.15 288.56L199.59 288.37L200.03 288.15L200.9 287.73L202.2 287.06L202.62 286.82L203.05 286.58L203.88 286.1L204.31 285.85L204.73 285.6L205.13 285.34L205.55 285.09L205.97 284.81L206.37 284.56L207.17 284.01L207.57 283.72L207.97 283.45L208.37 283.16L209.14 282.58L209.54 282.28L209.92 281.99L210.29 281.69L210.68 281.38L211.06 281.06L211.43 280.76L213.64 278.82L216.45 279.68L235.07 285.77L246.76 266.46L230.63 252.47L228.52 250.64L228.52 247.83L228.65 247L228.73 246.57L228.78 246.15L228.84 245.72L228.94 244.88L228.98 244.45L229.03 244.03L229.06 243.6L229.1 243.18L229.16 242.32L229.19 241.9L229.21 241.47L229.22 241.05L229.24 240.62L229.24 240.2L229.26 239.77L229.26 238.92L229.24 238.49L229.24 238.07L229.21 237.21L229.19 236.79L229.16 236.36L229.13 235.94L229.1 235.51L229.06 235.09L229.03 234.66L228.98 234.24L228.94 233.81L228.89 233.39L228.84 232.96L228.78 232.54L228.73 232.11L228.65 231.69L228.58 231.28L228.52 230.84L228.52 228.05L230.63 226.21L246.28 212.6L234.59 193.3L215.97 199.38L213.16 200.26L210.95 198.32L210.57 198.01L210.2 197.69L209.04 196.78L208.27 196.2L207.87 195.91L207.49 195.63L207.09 195.34L205.89 194.52L205.47 194.26L205.07 193.99L203.82 193.22L202.57 192.5L202.13 192.26L201.72 192.02L200.42 191.35L199.99 191.14L199.54 190.91L198.67 190.5L197.77 190.11L197.33 189.9L196.88 189.73L196.43 189.54L195.53 189.18L195.07 189.01L194.62 188.83L194.15 188.67L191.54 187.71L190.96 185L186.91 167.24L164.13 167.24L160.46 185.38Z" id="b5bGl3ym4i"></path><path d="M180.21 208.83L182.24 209.19L184.25 209.65L186.19 210.26L188.06 210.98L189.89 211.83L191.65 212.78L193.33 213.85L194.94 215.01L196.48 216.27L197.92 217.63L199.27 219.08L200.53 220.6L201.7 222.22L202.76 223.9L203.71 225.65L204.55 227.48L205.28 229.35L205.89 231.31L206.37 233.29L206.7 235.33L206.91 237.41L206.99 239.53L206.91 241.66L206.7 243.75L206.37 245.78L205.89 247.77L205.28 249.71L204.55 251.6L203.71 253.41L202.76 255.17L201.7 256.86L200.53 258.48L199.27 260L197.92 261.44L196.48 262.8L194.94 264.07L193.33 265.23L191.65 266.3L189.89 267.24L188.06 268.09L186.19 268.82L184.25 269.41L182.24 269.89L180.21 270.24L178.12 270.45L176.01 270.51L173.89 270.45L171.81 270.24L169.76 269.89L167.77 269.41L165.83 268.82L163.94 268.09L162.13 267.24L160.36 266.3L158.68 265.23L157.08 264.07L155.54 262.8L154.09 261.44L152.73 260L151.48 258.48L150.31 256.86L149.25 255.17L148.29 253.41L147.46 251.6L146.74 249.71L146.13 247.77L145.65 245.78L145.31 243.75L145.09 241.66L145.02 239.53L145.09 237.41L145.31 235.33L145.65 233.29L146.13 231.31L146.74 229.35L147.46 227.48L148.29 225.65L149.25 223.9L150.31 222.22L151.48 220.6L152.73 219.08L154.09 217.63L155.54 216.27L157.08 215.01L158.68 213.85L160.36 212.78L162.13 211.83L163.94 210.98L165.83 210.26L167.77 209.65L169.76 209.19L171.81 208.83L173.89 208.63L176.01 208.55L178.12 208.63L180.21 208.83ZM171.98 230.02L170.24 230.97L168.7 232.24L167.45 233.76L166.49 235.52L165.89 237.46L165.68 239.53L165.89 241.61L166.49 243.55L167.45 245.32L168.7 246.84L170.24 248.11L171.98 249.05L173.92 249.66L176.01 249.87L178.09 249.66L180.03 249.05L181.78 248.11L183.32 246.84L184.57 245.32L185.53 243.55L186.12 241.61L186.33 239.53L186.12 237.46L185.53 235.52L184.57 233.76L183.32 232.24L181.78 230.97L180.03 230.02L178.09 229.42L176.01 229.21L173.92 229.42L171.98 230.02Z" id="cjOeWnyhQ"></path><path d="M180.21 208.83L182.24 209.19L184.25 209.65L186.19 210.26L188.06 210.98L189.89 211.83L191.65 212.78L193.33 213.85L194.94 215.01L196.48 216.27L197.92 217.63L199.27 219.08L200.53 220.6L201.7 222.22L202.76 223.9L203.71 225.65L204.55 227.48L205.28 229.35L205.89 231.31L206.37 233.29L206.7 235.33L206.91 237.41L206.99 239.53L206.91 241.66L206.7 243.75L206.37 245.78L205.89 247.77L205.28 249.71L204.55 251.6L203.71 253.41L202.76 255.17L201.7 256.86L200.53 258.48L199.27 260L197.92 261.44L196.48 262.8L194.94 264.07L193.33 265.23L191.65 266.3L189.89 267.24L188.06 268.09L186.19 268.82L184.25 269.41L182.24 269.89L180.21 270.24L178.12 270.45L176.01 270.51L173.89 270.45L171.81 270.24L169.76 269.89L167.77 269.41L165.83 268.82L163.94 268.09L162.13 267.24L160.36 266.3L158.68 265.23L157.08 264.07L155.54 262.8L154.09 261.44L152.73 260L151.48 258.48L150.31 256.86L149.25 255.17L148.29 253.41L147.46 251.6L146.74 249.71L146.13 247.77L145.65 245.78L145.31 243.75L145.09 241.66L145.02 239.53L145.09 237.41L145.31 235.33L145.65 233.29L146.13 231.31L146.74 229.35L147.46 227.48L148.29 225.65L149.25 223.9L150.31 222.22L151.48 220.6L152.73 219.08L154.09 217.63L155.54 216.27L157.08 215.01L158.68 213.85L160.36 212.78L162.13 211.83L163.94 210.98L165.83 210.26L167.77 209.65L169.76 209.19L171.81 208.83L173.89 208.63L176.01 208.55L178.12 208.63L180.21 208.83ZM171.98 230.02L170.24 230.97L168.7 232.24L167.45 233.76L166.49 235.52L165.89 237.46L165.68 239.53L165.89 241.61L166.49 243.55L167.45 245.32L168.7 246.84L170.24 248.11L171.98 249.05L173.92 249.66L176.01 249.87L178.09 249.66L180.03 249.05L181.78 248.11L183.32 246.84L184.57 245.32L185.53 243.55L186.12 241.61L186.33 239.53L186.12 237.46L185.53 235.52L184.57 233.76L183.32 232.24L181.78 230.97L180.03 230.02L178.09 229.42L176.01 229.21L173.92 229.42L171.98 230.02Z" id="c3Ds0BPLCe"></path></defs><g><g><g><use xlink:href="#e3Ok2mxtGy" opacity="1" fill="#ffffff" fill-opacity="1"></use><g><use xlink:href="#e3Ok2mxtGy" opacity="1" fill-opacity="0" stroke="#000000" stroke-width="1" stroke-opacity="0"></use></g></g><g><use xlink:href="#a7LDCQEKRK" opacity="1" fill="#000000" fill-opacity="0"></use><g><use xlink:href="#a7LDCQEKRK" opacity="1" fill-opacity="0" stroke="#000000" stroke-width="1" stroke-opacity="0"></use></g></g><g><use xlink:href="#d3yzSbG0s" opacity="1" fill="#ffffff" fill-opacity="1"></use><g><use xlink:href="#d3yzSbG0s" opacity="1" fill-opacity="0" stroke="#000000" stroke-width="1" stroke-opacity="0"></use></g></g><g><use xlink:href="#lm75usi4a" opacity="1" fill="#000000" fill-opacity="0"></use><g><use xlink:href="#lm75usi4a" opacity="1" fill-opacity="0" stroke="#000000" stroke-width="1" stroke-opacity="0"></use></g></g><g><use xlink:href="#cm4zYZfoz" opacity="1" fill="#ffffff" fill-opacity="1"></use><g><use xlink:href="#cm4zYZfoz" opacity="1" fill-opacity="0" stroke="#000000" stroke-width="1" stroke-opacity="0"></use></g></g><g><use xlink:href="#h1RxtUU8M5" opacity="1" fill="#000000" fill-opacity="0"></use><g><use xlink:href="#h1RxtUU8M5" opacity="1" fill-opacity="0" stroke="#000000" stroke-width="1" stroke-opacity="0"></use></g></g><g><use xlink:href="#bSWu39S9E" opacity="1" fill="#ffffff" fill-opacity="1"></use><g><use xlink:href="#bSWu39S9E" opacity="1" fill-opacity="0" stroke="#000000" stroke-width="1" stroke-opacity="0"></use></g></g><g><use xlink:href="#a2hToc2qDQ" opacity="1" fill="#000000" fill-opacity="0"></use><g><use xlink:href="#a2hToc2qDQ" opacity="1" fill-opacity="0" stroke="#000000" stroke-width="1" stroke-opacity="0"></use></g></g><g><use xlink:href="#b2LBJChuJ2" opacity="1" fill="#ffffff" fill-opacity="1"></use><g><use xlink:href="#b2LBJChuJ2" opacity="1" fill-opacity="0" stroke="#000000" stroke-width="1" stroke-opacity="0"></use></g></g><g><use xlink:href="#gmtfBzxp7" opacity="1" fill="#000000" fill-opacity="0"></use><g><use xlink:href="#gmtfBzxp7" opacity="1" fill-opacity="0" stroke="#000000" stroke-width="1" stroke-opacity="0"></use></g></g><g><use xlink:href="#a1qY6Qocxv" opacity="1" fill="#ffffff" fill-opacity="1"></use><g><use xlink:href="#a1qY6Qocxv" opacity="1" fill-opacity="0" stroke="#000000" stroke-width="1" stroke-opacity="0"></use></g></g><g><use xlink:href="#l5sOTuCfI" opacity="1" fill="#000000" fill-opacity="0"></use><g><use xlink:href="#l5sOTuCfI" opacity="1" fill-opacity="0" stroke="#000000" stroke-width="1" stroke-opacity="0"></use></g></g><g><use xlink:href="#adE3OKAge" opacity="1" fill="#9bca52" fill-opacity="1"></use><g><use xlink:href="#adE3OKAge" opacity="1" fill-opacity="0" stroke="#000000" stroke-width="1" stroke-opacity="0"></use></g></g><g><use xlink:href="#b4xjnKY9KD" opacity="1" fill="#000000" fill-opacity="0"></use><g><use xlink:href="#b4xjnKY9KD" opacity="1" fill-opacity="0" stroke="#000000" stroke-width="1" stroke-opacity="0"></use></g></g><g><use xlink:href="#b1x1eS7aFR" opacity="1" fill="#000000" fill-opacity="0"></use><g><use xlink:href="#b1x1eS7aFR" opacity="1" fill-opacity="0" stroke="#000000" stroke-width="1" stroke-opacity="0"></use></g></g><g><use xlink:href="#aYvhiOQeV" opacity="1" fill="#000000" fill-opacity="0"></use><g><use xlink:href="#aYvhiOQeV" opacity="1" fill-opacity="0" stroke="#ffffff" stroke-width="4" stroke-opacity="1"></use></g></g><g><use xlink:href="#fDczaXqBx" opacity="1" fill="#ffffff" fill-opacity="1"></use><g><use xlink:href="#fDczaXqBx" opacity="1" fill-opacity="0" stroke="#000000" stroke-width="1" stroke-opacity="0"></use></g></g><g><use xlink:href="#b9pEsjEJ4" opacity="1" fill="#000000" fill-opacity="0"></use><g><use xlink:href="#b9pEsjEJ4" opacity="1" fill-opacity="0" stroke="#000000" stroke-width="1" stroke-opacity="0"></use></g></g><g><use xlink:href="#c3gF1ZP5Vo" opacity="1" fill="#ffffff" fill-opacity="1"></use><g><use xlink:href="#c3gF1ZP5Vo" opacity="1" fill-opacity="0" stroke="#000000" stroke-width="1" stroke-opacity="0"></use></g></g><g><use xlink:href="#d6Zw8m7m0" opacity="1" fill="#000000" fill-opacity="0"></use><g><use xlink:href="#d6Zw8m7m0" opacity="1" fill-opacity="0" stroke="#000000" stroke-width="1" stroke-opacity="0"></use></g></g><g><use xlink:href="#b33BhoFiS9" opacity="1" fill="#ffffff" fill-opacity="1"></use><g><use xlink:href="#b33BhoFiS9" opacity="1" fill-opacity="0" stroke="#000000" stroke-width="1" stroke-opacity="0"></use></g></g><g><use xlink:href="#b5bGl3ym4i" opacity="1" fill="#000000" fill-opacity="0"></use><g><use xlink:href="#b5bGl3ym4i" opacity="1" fill-opacity="0" stroke="#000000" stroke-width="1" stroke-opacity="0"></use></g></g><g><use xlink:href="#cjOeWnyhQ" opacity="1" fill="#ffffff" fill-opacity="1"></use><g><use xlink:href="#cjOeWnyhQ" opacity="1" fill-opacity="0" stroke="#000000" stroke-width="1" stroke-opacity="0"></use></g></g><g><use xlink:href="#c3Ds0BPLCe" opacity="1" fill="#000000" fill-opacity="0"></use><g><use xlink:href="#c3Ds0BPLCe" opacity="1" fill-opacity="0" stroke="#000000" stroke-width="1" stroke-opacity="0"></use></g></g></g></g></svg>