<?xml version="1.0" encoding="UTF-8" standalone="no"?>
<!DOCTYPE svg PUBLIC "-//W3C//DTD SVG 1.1//EN" "http://www.w3.org/Graphics/SVG/1.1/DTD/svg11.dtd">
<svg version="1.1" xmlns="http://www.w3.org/2000/svg" xmlns:xlink="http://www.w3.org/1999/xlink" preserveAspectRatio="xMidYMid meet" viewBox="0 0 640 640" width="640" height="640"><defs><path d="M397.87 378.4C443.92 424.44 469.51 450.02 474.63 455.14C474.63 455.14 474.63 455.14 474.63 455.14C454.88 474.89 443.92 485.85 441.72 488.05C441.72 488.05 441.72 488.05 441.72 488.05C395.68 442 370.1 416.4 364.96 411.29C364.96 411.29 364.96 411.29 364.96 411.29C384.71 391.55 395.68 380.59 397.87 378.4C397.87 378.4 397.87 378.4 397.87 378.4Z" id="d1bv5y2iNE"></path><path d="M397.87 378.4C443.92 424.44 469.51 450.02 474.63 455.14C474.63 455.14 474.63 455.14 474.63 455.14C454.88 474.89 443.92 485.85 441.72 488.05C441.72 488.05 441.72 488.05 441.72 488.05C395.68 442 370.1 416.4 364.96 411.29C364.96 411.29 364.96 411.29 364.96 411.29C384.71 391.55 395.68 380.59 397.87 378.4C397.87 378.4 397.87 378.4 397.87 378.4Z" id="b1phpltxcX"></path><path d="M353.95 378.45C353.95 384.49 358.86 389.4 364.89 389.4C370.95 389.4 375.84 384.49 375.84 378.45C375.84 372.39 370.95 367.5 364.89 367.5C358.86 367.5 353.95 372.39 353.95 378.45Z" id="b110irJziy"></path><path d="M353.95 378.45C353.95 384.49 358.86 389.4 364.89 389.4C370.95 389.4 375.84 384.49 375.84 378.45C375.84 372.39 370.95 367.5 364.89 367.5C358.86 367.5 353.95 372.39 353.95 378.45Z" id="g8CgWxqQE"></path><path d="M5.32 321.02C5.32 493.7 145.32 633.7 318 633.7C490.69 633.7 630.69 493.7 630.69 321.02C630.69 148.33 490.69 8.33 318 8.33C145.32 8.33 5.32 148.33 5.32 321.02Z" id="c2oFWGg2k1"></path><path d="M5.32 321.02C5.32 493.7 145.32 633.7 318 633.7C490.69 633.7 630.69 493.7 630.69 321.02C630.69 148.33 490.69 8.33 318 8.33C145.32 8.33 5.32 148.33 5.32 321.02Z" id="a1BB3mjGgY"></path><path d="M208.89 218.68C255.61 218.7 298 246.07 317.27 288.66C316.03 289.2 306.2 293.56 304.98 294.12C280.77 241.38 218.41 218.23 165.66 242.44C112.92 266.64 89.79 329.01 113.98 381.76C131 418.82 167.94 442.71 208.73 442.99C208.87 442.99 209.53 442.99 210.73 442.99C210.73 444.32 210.73 454.91 210.73 456.24C210.28 456.24 210.04 456.24 210 456.24C209.65 456.57 209.2 456.76 208.73 456.76C142.99 456.72 89.72 403.39 89.77 337.64C89.81 271.9 143.14 218.63 208.89 218.68Z" id="d17tVh9CfV"></path><path d="M208.89 218.68C255.61 218.7 298 246.07 317.27 288.66C316.03 289.2 306.2 293.56 304.98 294.12C280.77 241.38 218.41 218.23 165.66 242.44C112.92 266.64 89.79 329.01 113.98 381.76C131 418.82 167.94 442.71 208.73 442.99C208.87 442.99 209.53 442.99 210.73 442.99C210.73 444.32 210.73 454.91 210.73 456.24C210.28 456.24 210.04 456.24 210 456.24C209.65 456.57 209.2 456.76 208.73 456.76C142.99 456.72 89.72 403.39 89.77 337.64C89.81 271.9 143.14 218.63 208.89 218.68Z" id="c7qgSDGT"></path><path d="M308.13 288.76L261.37 272.79L258.22 282.15L315.26 301.59L330.51 243.27L330.51 243.27L320.73 240.85L308.13 288.76Z" id="a8AIbHScK"></path><path d="M308.13 288.76L261.37 272.79L258.22 282.15L315.26 301.59L330.51 243.27L330.51 243.27L320.73 240.85L308.13 288.76Z" id="d1Tkyn6cG"></path><path d="M381.88 443.31C381.88 451.26 381.88 455.66 381.88 456.55C381.88 456.55 381.88 456.55 381.88 456.55C277.99 456.55 220.27 456.55 208.73 456.55C208.73 456.55 208.73 456.55 208.73 456.55C208.73 448.61 208.73 444.19 208.73 443.31C208.73 443.31 208.73 443.31 208.73 443.31C312.62 443.31 370.34 443.31 381.88 443.31C381.88 443.31 381.88 443.31 381.88 443.31Z" id="bfiv8orcD"></path><path d="M381.88 443.31C381.88 451.26 381.88 455.66 381.88 456.55C381.88 456.55 381.88 456.55 381.88 456.55C277.99 456.55 220.27 456.55 208.73 456.55C208.73 456.55 208.73 456.55 208.73 456.55C208.73 448.61 208.73 444.19 208.73 443.31C208.73 443.31 208.73 443.31 208.73 443.31C312.62 443.31 370.34 443.31 381.88 443.31C381.88 443.31 381.88 443.31 381.88 443.31Z" id="hAlAhYT5l"></path><path d="M310.06 128.58C256.15 132.51 212.09 173.14 203.79 226.57C202.47 226.29 191.89 224.2 190.56 223.94C201.82 153.27 268.24 105.14 338.9 116.41C398.1 125.84 443.08 174.67 447.66 234.43C444.99 234.73 436.99 235.62 434.31 235.91C429.65 171.96 374.01 123.9 310.06 128.58Z" id="b1MlDt7qHO"></path><path d="M310.06 128.58C256.15 132.51 212.09 173.14 203.79 226.57C202.47 226.29 191.89 224.2 190.56 223.94C201.82 153.27 268.24 105.14 338.9 116.41C398.1 125.84 443.08 174.67 447.66 234.43C444.99 234.73 436.99 235.62 434.31 235.91C429.65 171.96 374.01 123.9 310.06 128.58Z" id="a3IBNZDMlz"></path><path d="M313.8 370.18C315.12 369.94 325.72 368.01 327.05 367.77C337.63 425.3 392.82 463.35 450.35 452.77C507.89 442.19 545.94 386.98 535.36 329.46C526.3 280.2 483.98 244.02 433.89 242.73C433.89 241.41 433.89 230.83 433.89 229.51C499.76 232.1 551.06 287.59 548.47 353.46C545.98 416.82 494.36 467.18 430.95 468.1C430.99 468.1 431.13 468.1 431.16 468.1C373.49 468.21 324.03 426.95 313.8 370.18Z" id="cGA7wlGUT"></path><path d="M313.8 370.18C315.12 369.94 325.72 368.01 327.05 367.77C337.63 425.3 392.82 463.35 450.35 452.77C507.89 442.19 545.94 386.98 535.36 329.46C526.3 280.2 483.98 244.02 433.89 242.73C433.89 241.41 433.89 230.83 433.89 229.51C499.76 232.1 551.06 287.59 548.47 353.46C545.98 416.82 494.36 467.18 430.95 468.1C430.99 468.1 431.13 468.1 431.16 468.1C373.49 468.21 324.03 426.95 313.8 370.18Z" id="amOo8QDaG"></path><path d="M322.63 372.39L364.23 399.3L369.91 390.89L318.95 358.11L290.15 411.06L290.15 411.06L298.99 416L322.63 372.39Z" id="kaK7BRLnk"></path><path d="M322.63 372.39L364.23 399.3L369.91 390.89L318.95 358.11L290.15 411.06L290.15 411.06L298.99 416L322.63 372.39Z" id="bjb8tDBZA"></path></defs><g><g><g><use xlink:href="#d1bv5y2iNE" opacity="1" fill="#ffffff" fill-opacity="1"></use><g><use xlink:href="#d1bv5y2iNE" opacity="1" fill-opacity="0" stroke="#000000" stroke-width="1" stroke-opacity="0"></use></g></g><g><use xlink:href="#b1phpltxcX" opacity="1" fill="#000000" fill-opacity="0"></use><g><use xlink:href="#b1phpltxcX" opacity="1" fill-opacity="0" stroke="#000000" stroke-width="1" stroke-opacity="0"></use></g></g><g><use xlink:href="#b110irJziy" opacity="1" fill="#ffffff" fill-opacity="1"></use><g><use xlink:href="#b110irJziy" opacity="1" fill-opacity="0" stroke="#000000" stroke-width="1" stroke-opacity="0"></use></g></g><g><use xlink:href="#g8CgWxqQE" opacity="1" fill="#000000" fill-opacity="0"></use><g><use xlink:href="#g8CgWxqQE" opacity="1" fill-opacity="0" stroke="#000000" stroke-width="1" stroke-opacity="0"></use></g></g><g><use xlink:href="#c2oFWGg2k1" opacity="1" fill="#8cc441" fill-opacity="1"></use><g><use xlink:href="#c2oFWGg2k1" opacity="1" fill-opacity="0" stroke="#000000" stroke-width="1" stroke-opacity="0"></use></g></g><g><use xlink:href="#a1BB3mjGgY" opacity="1" fill="#000000" fill-opacity="0"></use><g><use xlink:href="#a1BB3mjGgY" opacity="1" fill-opacity="0" stroke="#000000" stroke-width="1" stroke-opacity="0"></use></g></g><g><use xlink:href="#d17tVh9CfV" opacity="1" fill="#ffffff" fill-opacity="1"></use><g><use xlink:href="#d17tVh9CfV" opacity="1" fill-opacity="0" stroke="#000000" stroke-width="1" stroke-opacity="0"></use></g></g><g><use xlink:href="#c7qgSDGT" opacity="1" fill="#000000" fill-opacity="0"></use><g><use xlink:href="#c7qgSDGT" opacity="1" fill-opacity="0" stroke="#000000" stroke-width="1" stroke-opacity="0"></use></g></g><g><use xlink:href="#a8AIbHScK" opacity="1" fill="#ffffff" fill-opacity="1"></use><g><use xlink:href="#a8AIbHScK" opacity="1" fill-opacity="0" stroke="#000000" stroke-width="1" stroke-opacity="0"></use></g></g><g><use xlink:href="#d1Tkyn6cG" opacity="1" fill="#000000" fill-opacity="0"></use><g><use xlink:href="#d1Tkyn6cG" opacity="1" fill-opacity="0" stroke="#000000" stroke-width="1" stroke-opacity="0"></use></g></g><g><use xlink:href="#bfiv8orcD" opacity="1" fill="#ffffff" fill-opacity="1"></use><g><use xlink:href="#bfiv8orcD" opacity="1" fill-opacity="0" stroke="#000000" stroke-width="1" stroke-opacity="0"></use></g></g><g><use xlink:href="#hAlAhYT5l" opacity="1" fill="#000000" fill-opacity="0"></use><g><use xlink:href="#hAlAhYT5l" opacity="1" fill-opacity="0" stroke="#000000" stroke-width="1" stroke-opacity="0"></use></g></g><g><use xlink:href="#b1MlDt7qHO" opacity="1" fill="#ffffff" fill-opacity="1"></use><g><use xlink:href="#b1MlDt7qHO" opacity="1" fill-opacity="0" stroke="#000000" stroke-width="1" stroke-opacity="0"></use></g></g><g><use xlink:href="#a3IBNZDMlz" opacity="1" fill="#000000" fill-opacity="0"></use><g><use xlink:href="#a3IBNZDMlz" opacity="1" fill-opacity="0" stroke="#000000" stroke-width="1" stroke-opacity="0"></use></g></g><g><use xlink:href="#cGA7wlGUT" opacity="1" fill="#ffffff" fill-opacity="1"></use><g><use xlink:href="#cGA7wlGUT" opacity="1" fill-opacity="0" stroke="#000000" stroke-width="1" stroke-opacity="0"></use></g></g><g><use xlink:href="#amOo8QDaG" opacity="1" fill="#000000" fill-opacity="0"></use><g><use xlink:href="#amOo8QDaG" opacity="1" fill-opacity="0" stroke="#000000" stroke-width="1" stroke-opacity="0"></use></g></g><g><use xlink:href="#kaK7BRLnk" opacity="1" fill="#ffffff" fill-opacity="1"></use><g><use xlink:href="#kaK7BRLnk" opacity="1" fill-opacity="0" stroke="#000000" stroke-width="1" stroke-opacity="0"></use></g></g><g><use xlink:href="#bjb8tDBZA" opacity="1" fill="#000000" fill-opacity="0"></use><g><use xlink:href="#bjb8tDBZA" opacity="1" fill-opacity="0" stroke="#000000" stroke-width="1" stroke-opacity="0"></use></g></g></g></g></svg>