<?xml version="1.0" encoding="UTF-8" standalone="no"?>
<!DOCTYPE svg PUBLIC "-//W3C//DTD SVG 1.1//EN" "http://www.w3.org/Graphics/SVG/1.1/DTD/svg11.dtd">
<svg version="1.1" xmlns="http://www.w3.org/2000/svg" xmlns:xlink="http://www.w3.org/1999/xlink" preserveAspectRatio="xMidYMid meet" viewBox="0 0 640 640" width="640" height="640"><defs><path d="M447.91 464.47C447.91 472.45 447.91 476.88 447.91 477.77C447.91 477.77 447.91 477.77 447.91 477.77C311.12 477.77 235.12 477.77 219.91 477.77C219.91 477.77 219.91 477.77 219.91 477.77C219.91 469.8 219.91 465.35 219.91 464.47C219.91 464.47 219.91 464.47 219.91 464.47C356.72 464.47 432.72 464.47 447.91 464.47C447.91 464.47 447.91 464.47 447.91 464.47Z" id="d19ce0Jteh"></path><path d="M447.91 464.47C447.91 472.45 447.91 476.88 447.91 477.77C447.91 477.77 447.91 477.77 447.91 477.77C311.12 477.77 235.12 477.77 219.91 477.77C219.91 477.77 219.91 477.77 219.91 477.77C219.91 469.8 219.91 465.35 219.91 464.47C219.91 464.47 219.91 464.47 219.91 464.47C356.72 464.47 432.72 464.47 447.91 464.47C447.91 464.47 447.91 464.47 447.91 464.47Z" id="e18pxg44Ke"></path><path d="M320.44 149.69C267 153.95 223.39 194.16 214.82 247.07C213.49 246.85 202.85 245.11 201.52 244.89C212.97 174.12 279.62 126.04 350.38 137.49C409.41 147.03 454.27 195.67 459.03 255.28C456.36 255.51 448.39 256.2 445.74 256.42C440.6 192.35 384.51 144.55 320.44 149.69Z" id="cNRbb56L3"></path><path d="M320.44 149.69C267 153.95 223.39 194.16 214.82 247.07C213.49 246.85 202.85 245.11 201.52 244.89C212.97 174.12 279.62 126.04 350.38 137.49C409.41 147.03 454.27 195.67 459.03 255.28C456.36 255.51 448.39 256.2 445.74 256.42C440.6 192.35 384.51 144.55 320.44 149.69Z" id="l2S7LeF8xy"></path><path d="M442.82 478.08C442.82 470.1 442.82 465.67 442.82 464.78C443.25 464.78 443.5 464.78 443.55 464.78C499.09 463.7 543.24 417.8 542.18 362.25C541.14 309.06 498.88 265.89 445.74 263.7C445.74 262.37 445.74 251.73 445.74 250.4C508.53 256.8 554.25 312.9 547.87 375.7C542.25 430.69 498.12 473.79 443.02 478.08C443.1 478.08 443.27 478.08 443.55 478.08C443.45 478.08 443.21 478.08 442.82 478.08Z" id="b1gEJkRrX7"></path><path d="M442.82 478.08C442.82 470.1 442.82 465.67 442.82 464.78C443.25 464.78 443.5 464.78 443.55 464.78C499.09 463.7 543.24 417.8 542.18 362.25C541.14 309.06 498.88 265.89 445.74 263.7C445.74 262.37 445.74 251.73 445.74 250.4C508.53 256.8 554.25 312.9 547.87 375.7C542.25 430.69 498.12 473.79 443.02 478.08C443.1 478.08 443.27 478.08 443.55 478.08C443.45 478.08 443.21 478.08 442.82 478.08Z" id="g2DDU5mG4v"></path><path d="M379.42 371.57C379.42 409.39 410.09 440.04 447.91 440.04C485.73 440.04 516.4 409.39 516.4 371.57C516.4 333.74 485.73 303.08 447.91 303.08C410.09 303.08 379.42 333.74 379.42 371.57Z" id="aObnXLc2K"></path><path d="M379.42 371.57C379.42 409.39 410.09 440.04 447.91 440.04C485.73 440.04 516.4 409.39 516.4 371.57C516.4 333.74 485.73 303.08 447.91 303.08C410.09 303.08 379.42 333.74 379.42 371.57Z" id="angx0l7RV"></path><path d="M321.55 256.22C321.55 279.63 340.54 298.62 363.95 298.62C387.37 298.62 406.34 279.63 406.34 256.22C406.34 232.8 387.37 213.81 363.95 213.81C340.54 213.81 321.55 232.8 321.55 256.22Z" id="a2iU4eWt8"></path><path d="M321.55 256.22C321.55 279.63 340.54 298.62 363.95 298.62C387.37 298.62 406.34 279.63 406.34 256.22C406.34 232.8 387.37 213.81 363.95 213.81C340.54 213.81 321.55 232.8 321.55 256.22Z" id="ayEFbshau"></path><path d="M278.63 397.76C278.63 421.28 297.7 440.36 321.24 440.36C344.76 440.36 363.84 421.28 363.84 397.76C363.84 374.22 344.76 355.14 321.24 355.14C297.7 355.14 278.63 374.22 278.63 397.76Z" id="aprJl714T"></path><path d="M278.63 397.76C278.63 421.28 297.7 440.36 321.24 440.36C344.76 440.36 363.84 421.28 363.84 397.76C363.84 374.22 344.76 355.14 321.24 355.14C297.7 355.14 278.63 374.22 278.63 397.76Z" id="c35rGNhgDP"></path><path d="M267.09 208.72C267.09 220.95 277 230.86 289.23 230.86C301.45 230.86 311.37 220.95 311.37 208.72C311.37 196.5 301.45 186.59 289.23 186.59C277 186.59 267.09 196.5 267.09 208.72Z" id="cd7MFQXe7"></path><path d="M267.09 208.72C267.09 220.95 277 230.86 289.23 230.86C301.45 230.86 311.37 220.95 311.37 208.72C311.37 196.5 301.45 186.59 289.23 186.59C277 186.59 267.09 196.5 267.09 208.72Z" id="c3VDmKjTsd"></path><path d="M197.77 410.53C197.77 422.76 207.69 432.67 219.91 432.67C232.14 432.67 242.04 422.76 242.04 410.53C242.04 398.32 232.14 388.4 219.91 388.4C207.69 388.4 197.77 398.32 197.77 410.53Z" id="c7Svm7ERv"></path><path d="M197.77 410.53C197.77 422.76 207.69 432.67 219.91 432.67C232.14 432.67 242.04 422.76 242.04 410.53C242.04 398.32 232.14 388.4 219.91 388.4C207.69 388.4 197.77 398.32 197.77 410.53Z" id="bvP7bMTIL"></path><path d="M267.09 315.14C267.09 327.36 277 337.28 289.23 337.28C301.45 337.28 311.37 327.36 311.37 315.14C311.37 302.91 301.45 293.01 289.23 293.01C277 293.01 267.09 302.91 267.09 315.14Z" id="b8qWyQT1C"></path><path d="M267.09 315.14C267.09 327.36 277 337.28 289.23 337.28C301.45 337.28 311.37 327.36 311.37 315.14C311.37 302.91 301.45 293.01 289.23 293.01C277 293.01 267.09 302.91 267.09 315.14Z" id="b1dPyevXnW"></path><path d="M205.16 322.82L223.44 405.55L320.82 393.29L440.01 368.65L360.73 259.44L287.04 212.36L291.73 204.77L367.07 252.79L455.61 374.58L322.27 401.91L216.28 415.42L216.28 415.42L196.54 324.8L205.16 322.82Z" id="b4aguHxpRs"></path><path d="M205.16 322.82L223.44 405.55L320.82 393.29L440.01 368.65L360.73 259.44L287.04 212.36L291.73 204.77L367.07 252.79L455.61 374.58L322.27 401.91L216.28 415.42L216.28 415.42L196.54 324.8L205.16 322.82Z" id="biw2QWTHl"></path><path d="M355 268.79L292.15 318.57L286.53 311.7L372.77 243.64L325.71 389.54L325.71 389.54L317.07 386.84L355 268.79Z" id="b1scM1mIV"></path><path d="M355 268.79L292.15 318.57L286.53 311.7L372.77 243.64L325.71 389.54L325.71 389.54L317.07 386.84L355 268.79Z" id="aT48yb5MO"></path><path d="M199.76 315.33C273.88 362.48 315.05 388.69 323.29 393.93C323.29 393.93 323.29 393.93 323.29 393.93C320.45 398.41 318.86 400.89 318.55 401.38C318.55 401.38 318.55 401.38 318.55 401.38C244.43 354.21 203.25 328.02 195.03 322.78C195.03 322.78 195.03 322.78 195.03 322.78C197.87 318.3 199.44 315.82 199.76 315.33C199.76 315.33 199.76 315.33 199.76 315.33Z" id="bbYDbuUhb"></path><path d="M199.76 315.33C273.88 362.48 315.05 388.69 323.29 393.93C323.29 393.93 323.29 393.93 323.29 393.93C320.45 398.41 318.86 400.89 318.55 401.38C318.55 401.38 318.55 401.38 318.55 401.38C244.43 354.21 203.25 328.02 195.03 322.78C195.03 322.78 195.03 322.78 195.03 322.78C197.87 318.3 199.44 315.82 199.76 315.33C199.76 315.33 199.76 315.33 199.76 315.33Z" id="g2aMp11FYr"></path><path d="M4.77 319.35C4.77 493.12 145.65 634 319.42 634C493.19 634 634.05 493.12 634.05 319.35C634.05 145.58 493.19 4.72 319.42 4.72C145.65 4.72 4.77 145.58 4.77 319.35Z" id="aTYZZCgGS"></path><path d="M4.77 319.35C4.77 493.12 145.65 634 319.42 634C493.19 634 634.05 493.12 634.05 319.35C634.05 145.58 493.19 4.72 319.42 4.72C145.65 4.72 4.77 145.58 4.77 319.35Z" id="a8dPBSqIL1"></path><path d="M121.54 491.01L319.42 147.71L517.5 491.01L121.54 491.01ZM494.14 477.2L319.42 174.03L143.83 477.2L494.14 477.2Z" id="dc3BGs0Zw"></path><path d="M121.54 491.01L319.42 147.71L517.5 491.01L121.54 491.01ZM494.14 477.2L319.42 174.03L143.83 477.2L494.14 477.2Z" id="a3A5Zgekz"></path><path d="M312.62 384.54L326.31 384.54L332.05 319.35L332.05 293.04L305.72 293.04L305.72 293.04L305.72 319.35L312.62 384.54Z" id="cfUvrzm0U"></path><path d="M312.62 384.54L326.31 384.54L332.05 319.35L332.05 293.04L305.72 293.04L305.72 293.04L305.72 319.35L312.62 384.54Z" id="c3WWSQSe2f"></path><path d="M305.72 410.86C305.72 418.43 311.86 424.55 319.42 424.55C326.98 424.55 333.12 418.43 333.12 410.86C333.12 403.3 326.98 397.17 319.42 397.17C311.86 397.17 305.72 403.3 305.72 410.86Z" id="bOkz6CgeQ"></path><path d="M305.72 410.86C305.72 418.43 311.86 424.55 319.42 424.55C326.98 424.55 333.12 418.43 333.12 410.86C333.12 403.3 326.98 397.17 319.42 397.17C311.86 397.17 305.72 403.3 305.72 410.86Z" id="b4kfoNjjFm"></path></defs><g><g><g><use xlink:href="#d19ce0Jteh" opacity="1" fill="#ffffff" fill-opacity="1"></use><g><use xlink:href="#d19ce0Jteh" opacity="1" fill-opacity="0" stroke="#000000" stroke-width="1" stroke-opacity="0"></use></g></g><g><use xlink:href="#e18pxg44Ke" opacity="1" fill="#000000" fill-opacity="0"></use><g><use xlink:href="#e18pxg44Ke" opacity="1" fill-opacity="0" stroke="#000000" stroke-width="1" stroke-opacity="0"></use></g></g><g><use xlink:href="#cNRbb56L3" opacity="1" fill="#ffffff" fill-opacity="1"></use><g><use xlink:href="#cNRbb56L3" opacity="1" fill-opacity="0" stroke="#000000" stroke-width="1" stroke-opacity="0"></use></g></g><g><use xlink:href="#l2S7LeF8xy" opacity="1" fill="#000000" fill-opacity="0"></use><g><use xlink:href="#l2S7LeF8xy" opacity="1" fill-opacity="0" stroke="#000000" stroke-width="1" stroke-opacity="0"></use></g></g><g><use xlink:href="#b1gEJkRrX7" opacity="1" fill="#ffffff" fill-opacity="1"></use><g><use xlink:href="#b1gEJkRrX7" opacity="1" fill-opacity="0" stroke="#000000" stroke-width="1" stroke-opacity="0"></use></g></g><g><use xlink:href="#g2DDU5mG4v" opacity="1" fill="#000000" fill-opacity="0"></use><g><use xlink:href="#g2DDU5mG4v" opacity="1" fill-opacity="0" stroke="#000000" stroke-width="1" stroke-opacity="0"></use></g></g><g><use xlink:href="#aObnXLc2K" opacity="1" fill="#ffffff" fill-opacity="1"></use><g><use xlink:href="#aObnXLc2K" opacity="1" fill-opacity="0" stroke="#000000" stroke-width="1" stroke-opacity="0"></use></g></g><g><use xlink:href="#angx0l7RV" opacity="1" fill="#000000" fill-opacity="0"></use><g><use xlink:href="#angx0l7RV" opacity="1" fill-opacity="0" stroke="#000000" stroke-width="1" stroke-opacity="0"></use></g></g><g><use xlink:href="#a2iU4eWt8" opacity="1" fill="#ffffff" fill-opacity="1"></use><g><use xlink:href="#a2iU4eWt8" opacity="1" fill-opacity="0" stroke="#000000" stroke-width="1" stroke-opacity="0"></use></g></g><g><use xlink:href="#ayEFbshau" opacity="1" fill="#000000" fill-opacity="0"></use><g><use xlink:href="#ayEFbshau" opacity="1" fill-opacity="0" stroke="#000000" stroke-width="1" stroke-opacity="0"></use></g></g><g><use xlink:href="#aprJl714T" opacity="1" fill="#ffffff" fill-opacity="1"></use><g><use xlink:href="#aprJl714T" opacity="1" fill-opacity="0" stroke="#000000" stroke-width="1" stroke-opacity="0"></use></g></g><g><use xlink:href="#c35rGNhgDP" opacity="1" fill="#000000" fill-opacity="0"></use><g><use xlink:href="#c35rGNhgDP" opacity="1" fill-opacity="0" stroke="#000000" stroke-width="1" stroke-opacity="0"></use></g></g><g><use xlink:href="#cd7MFQXe7" opacity="1" fill="#ffffff" fill-opacity="1"></use><g><use xlink:href="#cd7MFQXe7" opacity="1" fill-opacity="0" stroke="#000000" stroke-width="1" stroke-opacity="0"></use></g></g><g><use xlink:href="#c3VDmKjTsd" opacity="1" fill="#000000" fill-opacity="0"></use><g><use xlink:href="#c3VDmKjTsd" opacity="1" fill-opacity="0" stroke="#000000" stroke-width="1" stroke-opacity="0"></use></g></g><g><use xlink:href="#c7Svm7ERv" opacity="1" fill="#ffffff" fill-opacity="1"></use><g><use xlink:href="#c7Svm7ERv" opacity="1" fill-opacity="0" stroke="#000000" stroke-width="1" stroke-opacity="0"></use></g></g><g><use xlink:href="#bvP7bMTIL" opacity="1" fill="#000000" fill-opacity="0"></use><g><use xlink:href="#bvP7bMTIL" opacity="1" fill-opacity="0" stroke="#000000" stroke-width="1" stroke-opacity="0"></use></g></g><g><use xlink:href="#b8qWyQT1C" opacity="1" fill="#ffffff" fill-opacity="1"></use><g><use xlink:href="#b8qWyQT1C" opacity="1" fill-opacity="0" stroke="#000000" stroke-width="1" stroke-opacity="0"></use></g></g><g><use xlink:href="#b1dPyevXnW" opacity="1" fill="#000000" fill-opacity="0"></use><g><use xlink:href="#b1dPyevXnW" opacity="1" fill-opacity="0" stroke="#000000" stroke-width="1" stroke-opacity="0"></use></g></g><g><use xlink:href="#b4aguHxpRs" opacity="1" fill="#ffffff" fill-opacity="1"></use><g><use xlink:href="#b4aguHxpRs" opacity="1" fill-opacity="0" stroke="#000000" stroke-width="1" stroke-opacity="0"></use></g></g><g><use xlink:href="#biw2QWTHl" opacity="1" fill="#000000" fill-opacity="0"></use><g><use xlink:href="#biw2QWTHl" opacity="1" fill-opacity="0" stroke="#000000" stroke-width="1" stroke-opacity="0"></use></g></g><g><use xlink:href="#b1scM1mIV" opacity="1" fill="#ffffff" fill-opacity="1"></use><g><use xlink:href="#b1scM1mIV" opacity="1" fill-opacity="0" stroke="#000000" stroke-width="1" stroke-opacity="0"></use></g></g><g><use xlink:href="#aT48yb5MO" opacity="1" fill="#000000" fill-opacity="0"></use><g><use xlink:href="#aT48yb5MO" opacity="1" fill-opacity="0" stroke="#000000" stroke-width="1" stroke-opacity="0"></use></g></g><g><use xlink:href="#bbYDbuUhb" opacity="1" fill="#ffffff" fill-opacity="1"></use><g><use xlink:href="#bbYDbuUhb" opacity="1" fill-opacity="0" stroke="#000000" stroke-width="1" stroke-opacity="0"></use></g></g><g><use xlink:href="#g2aMp11FYr" opacity="1" fill="#000000" fill-opacity="0"></use><g><use xlink:href="#g2aMp11FYr" opacity="1" fill-opacity="0" stroke="#000000" stroke-width="1" stroke-opacity="0"></use></g></g><g><use xlink:href="#aTYZZCgGS" opacity="1" fill="#01af9c" fill-opacity="1"></use><g><use xlink:href="#aTYZZCgGS" opacity="1" fill-opacity="0" stroke="#000000" stroke-width="1" stroke-opacity="0"></use></g></g><g><use xlink:href="#a8dPBSqIL1" opacity="1" fill="#000000" fill-opacity="0"></use><g><use xlink:href="#a8dPBSqIL1" opacity="1" fill-opacity="0" stroke="#000000" stroke-width="1" stroke-opacity="0"></use></g></g><g><use xlink:href="#dc3BGs0Zw" opacity="1" fill="#ffffff" fill-opacity="1"></use><g><use xlink:href="#dc3BGs0Zw" opacity="1" fill-opacity="0" stroke="#000000" stroke-width="1" stroke-opacity="0"></use></g></g><g><use xlink:href="#a3A5Zgekz" opacity="1" fill="#000000" fill-opacity="0"></use><g><use xlink:href="#a3A5Zgekz" opacity="1" fill-opacity="0" stroke="#000000" stroke-width="1" stroke-opacity="0"></use></g></g><g><use xlink:href="#cfUvrzm0U" opacity="1" fill="#ffffff" fill-opacity="1"></use><g><use xlink:href="#cfUvrzm0U" opacity="1" fill-opacity="0" stroke="#000000" stroke-width="1" stroke-opacity="0"></use></g></g><g><use xlink:href="#c3WWSQSe2f" opacity="1" fill="#000000" fill-opacity="0"></use><g><use xlink:href="#c3WWSQSe2f" opacity="1" fill-opacity="0" stroke="#000000" stroke-width="1" stroke-opacity="0"></use></g></g><g><use xlink:href="#bOkz6CgeQ" opacity="1" fill="#ffffff" fill-opacity="1"></use><g><use xlink:href="#bOkz6CgeQ" opacity="1" fill-opacity="0" stroke="#000000" stroke-width="1" stroke-opacity="0"></use></g></g><g><use xlink:href="#b4kfoNjjFm" opacity="1" fill="#000000" fill-opacity="0"></use><g><use xlink:href="#b4kfoNjjFm" opacity="1" fill-opacity="0" stroke="#000000" stroke-width="1" stroke-opacity="0"></use></g></g></g></g></svg>