<?xml version="1.0" encoding="UTF-8" standalone="no"?>
<!DOCTYPE svg PUBLIC "-//W3C//DTD SVG 1.1//EN" "http://www.w3.org/Graphics/SVG/1.1/DTD/svg11.dtd">
<svg version="1.1" xmlns="http://www.w3.org/2000/svg" xmlns:xlink="http://www.w3.org/1999/xlink" preserveAspectRatio="xMidYMid meet" viewBox="0 0 640 640" width="640" height="640"><defs><path d="M265.95 146.07L267.76 146.18L269.55 146.34L271.35 146.52L273.14 146.74L274.93 146.99L276.71 147.26L278.48 147.57L280.24 147.93L281.99 148.3L283.73 148.7L285.48 149.14L287.21 149.62L288.93 150.11L290.63 150.64L292.33 151.19L294.02 151.78L295.71 152.4L297.38 153.06L299.03 153.73L300.67 154.44L302.29 155.18L303.92 155.96L305.51 156.75L307.1 157.58L308.68 158.43L310.24 159.31L311.78 160.23L313.31 161.17L314.82 162.13L316.32 163.13L317.79 164.15L319.26 165.21L320.7 166.29L322.14 167.39L323.55 168.52L324.94 169.68L326.3 170.87L327.66 172.09L329.01 170.87L330.38 169.68L331.76 168.52L333.18 167.39L334.6 166.29L336.04 165.21L337.51 164.15L338.98 163.13L340.48 162.13L342 161.17L343.53 160.23L345.08 159.31L346.64 158.43L348.2 157.58L349.79 156.75L351.4 155.96L353.01 155.18L354.65 154.44L356.29 153.73L359.6 152.4L361.28 151.78L362.97 151.19L364.67 150.64L366.39 150.11L368.1 149.62L369.82 149.14L371.57 148.7L373.32 148.3L375.06 147.93L376.83 147.57L378.61 147.26L380.39 146.99L382.16 146.74L383.96 146.52L385.75 146.34L387.55 146.18L389.36 146.07L391.17 145.98L392.99 145.93L497.17 145.93L497.17 459.46L392.99 459.46L391.17 459.5L389.36 459.6L387.55 459.72L385.75 459.86L383.96 460.05L382.16 460.26L380.39 460.51L378.61 460.79L376.83 461.11L375.06 461.45L373.32 461.82L371.57 462.23L369.82 462.68L368.1 463.14L366.39 463.63L364.67 464.16L362.97 464.72L361.28 465.32L359.6 465.94L357.94 466.59L356.29 467.27L354.65 467.97L353.01 468.71L351.4 469.48L349.79 470.27L348.2 471.1L346.64 471.96L345.08 472.84L343.53 473.75L342 474.69L340.48 475.65L338.98 476.66L337.51 477.68L336.04 478.73L334.6 479.81L333.18 480.91L331.76 482.04L330.38 483.2L329.01 484.39L327.66 485.61L326.3 484.39L324.94 483.2L323.55 482.04L322.14 480.91L320.7 479.81L319.26 478.73L317.79 477.68L316.32 476.66L314.82 475.65L313.31 474.69L311.78 473.75L310.24 472.84L308.68 471.96L307.1 471.1L305.51 470.27L303.92 469.48L302.29 468.71L300.67 467.97L299.03 467.27L297.38 466.59L295.71 465.94L294.02 465.32L292.33 464.72L290.63 464.16L288.93 463.63L287.21 463.14L285.48 462.68L283.73 462.23L281.99 461.82L280.24 461.45L278.48 461.11L276.71 460.79L274.93 460.51L273.14 460.26L271.35 460.05L269.55 459.86L267.76 459.72L265.95 459.6L264.14 459.5L262.33 459.46L158.13 459.46L158.13 145.93L262.33 145.93L264.14 145.98L265.95 146.07ZM170.94 446.85L262.33 446.85L264.09 446.9L265.84 446.98L267.6 447.09L269.35 447.22L271.1 447.38L272.85 447.56L274.59 447.78L276.33 448.01L278.06 448.28L279.77 448.57L281.49 448.89L283.21 449.23L284.93 449.61L286.63 449.99L288.31 450.41L290 450.86L291.68 451.34L293.35 451.83L295.02 452.34L296.68 452.9L298.32 453.47L299.96 454.06L301.6 454.68L303.22 455.33L304.83 455.99L306.42 456.69L308.02 457.42L309.59 458.16L311.17 458.92L312.73 459.72L314.28 460.53L317.34 462.23L318.86 463.12L320.36 464.04L321.84 464.96L323.31 465.92L324.77 466.9L326.22 467.9L327.66 468.94L327.66 190.63L318.38 181.35L317.22 180.32L316.03 179.31L314.84 178.32L313.63 177.36L312.39 176.42L311.16 175.51L309.9 174.61L308.62 173.74L307.34 172.89L306.04 172.07L304.72 171.27L303.39 170.5L302.06 169.74L300.7 169.01L299.34 168.31L297.96 167.63L296.59 166.98L295.18 166.35L293.77 165.75L292.35 165.16L290.93 164.62L289.49 164.08L288.03 163.58L286.58 163.1L285.11 162.65L283.64 162.22L282.16 161.82L280.67 161.45L279.17 161.11L277.67 160.78L276.16 160.49L274.64 160.23L273.12 159.98L271.59 159.76L270.06 159.58L268.52 159.42L266.98 159.28L265.42 159.19L263.88 159.11L262.33 159.05L170.94 159.05L170.94 446.85ZM366.84 367.97L458.32 367.97L458.21 354.95L366.84 354.95L366.84 367.97ZM366.84 328.8L458.32 328.8L458.21 315.77L366.84 315.77L366.84 328.8ZM366.84 289.62L458.32 289.62L458.21 276.6L366.84 276.6L366.84 289.62ZM366.84 250.44L458.32 250.44L458.21 237.42L366.84 237.42L366.84 250.44Z" id="a8iLi1BEVi"></path><path d="M265.95 146.07L267.76 146.18L269.55 146.34L271.35 146.52L273.14 146.74L274.93 146.99L276.71 147.26L278.48 147.57L280.24 147.93L281.99 148.3L283.73 148.7L285.48 149.14L287.21 149.62L288.93 150.11L290.63 150.64L292.33 151.19L294.02 151.78L295.71 152.4L297.38 153.06L299.03 153.73L300.67 154.44L302.29 155.18L303.92 155.96L305.51 156.75L307.1 157.58L308.68 158.43L310.24 159.31L311.78 160.23L313.31 161.17L314.82 162.13L316.32 163.13L317.79 164.15L319.26 165.21L320.7 166.29L322.14 167.39L323.55 168.52L324.94 169.68L326.3 170.87L327.66 172.09L329.01 170.87L330.38 169.68L331.76 168.52L333.18 167.39L334.6 166.29L336.04 165.21L337.51 164.15L338.98 163.13L340.48 162.13L342 161.17L343.53 160.23L345.08 159.31L346.64 158.43L348.2 157.58L349.79 156.75L351.4 155.96L353.01 155.18L354.65 154.44L356.29 153.73L359.6 152.4L361.28 151.78L362.97 151.19L364.67 150.64L366.39 150.11L368.1 149.62L369.82 149.14L371.57 148.7L373.32 148.3L375.06 147.93L376.83 147.57L378.61 147.26L380.39 146.99L382.16 146.74L383.96 146.52L385.75 146.34L387.55 146.18L389.36 146.07L391.17 145.98L392.99 145.93L497.17 145.93L497.17 459.46L392.99 459.46L391.17 459.5L389.36 459.6L387.55 459.72L385.75 459.86L383.96 460.05L382.16 460.26L380.39 460.51L378.61 460.79L376.83 461.11L375.06 461.45L373.32 461.82L371.57 462.23L369.82 462.68L368.1 463.14L366.39 463.63L364.67 464.16L362.97 464.72L361.28 465.32L359.6 465.94L357.94 466.59L356.29 467.27L354.65 467.97L353.01 468.71L351.4 469.48L349.79 470.27L348.2 471.1L346.64 471.96L345.08 472.84L343.53 473.75L342 474.69L340.48 475.65L338.98 476.66L337.51 477.68L336.04 478.73L334.6 479.81L333.18 480.91L331.76 482.04L330.38 483.2L329.01 484.39L327.66 485.61L326.3 484.39L324.94 483.2L323.55 482.04L322.14 480.91L320.7 479.81L319.26 478.73L317.79 477.68L316.32 476.66L314.82 475.65L313.31 474.69L311.78 473.75L310.24 472.84L308.68 471.96L307.1 471.1L305.51 470.27L303.92 469.48L302.29 468.71L300.67 467.97L299.03 467.27L297.38 466.59L295.71 465.94L294.02 465.32L292.33 464.72L290.63 464.16L288.93 463.63L287.21 463.14L285.48 462.68L283.73 462.23L281.99 461.82L280.24 461.45L278.48 461.11L276.71 460.79L274.93 460.51L273.14 460.26L271.35 460.05L269.55 459.86L267.76 459.72L265.95 459.6L264.14 459.5L262.33 459.46L158.13 459.46L158.13 145.93L262.33 145.93L264.14 145.98L265.95 146.07ZM170.94 446.85L262.33 446.85L264.09 446.9L265.84 446.98L267.6 447.09L269.35 447.22L271.1 447.38L272.85 447.56L274.59 447.78L276.33 448.01L278.06 448.28L279.77 448.57L281.49 448.89L283.21 449.23L284.93 449.61L286.63 449.99L288.31 450.41L290 450.86L291.68 451.34L293.35 451.83L295.02 452.34L296.68 452.9L298.32 453.47L299.96 454.06L301.6 454.68L303.22 455.33L304.83 455.99L306.42 456.69L308.02 457.42L309.59 458.16L311.17 458.92L312.73 459.72L314.28 460.53L317.34 462.23L318.86 463.12L320.36 464.04L321.84 464.96L323.31 465.92L324.77 466.9L326.22 467.9L327.66 468.94L327.66 190.63L318.38 181.35L317.22 180.32L316.03 179.31L314.84 178.32L313.63 177.36L312.39 176.42L311.16 175.51L309.9 174.61L308.62 173.74L307.34 172.89L306.04 172.07L304.72 171.27L303.39 170.5L302.06 169.74L300.7 169.01L299.34 168.31L297.96 167.63L296.59 166.98L295.18 166.35L293.77 165.75L292.35 165.16L290.93 164.62L289.49 164.08L288.03 163.58L286.58 163.1L285.11 162.65L283.64 162.22L282.16 161.82L280.67 161.45L279.17 161.11L277.67 160.78L276.16 160.49L274.64 160.23L273.12 159.98L271.59 159.76L270.06 159.58L268.52 159.42L266.98 159.28L265.42 159.19L263.88 159.11L262.33 159.05L170.94 159.05L170.94 446.85ZM366.84 367.97L458.32 367.97L458.21 354.95L366.84 354.95L366.84 367.97ZM366.84 328.8L458.32 328.8L458.21 315.77L366.84 315.77L366.84 328.8ZM366.84 289.62L458.32 289.62L458.21 276.6L366.84 276.6L366.84 289.62ZM366.84 250.44L458.32 250.44L458.21 237.42L366.84 237.42L366.84 250.44Z" id="f1hY2rNHX"></path><path d="M180.53 305.98C175.05 347.74 187.25 389.89 214.18 422.26C240.1 455.42 278.65 476.3 320.58 479.89C358.35 484.03 396.3 473.97 427.06 451.65C430.28 449.36 432.37 449.05 435.29 451.65C440.92 457.7 446.86 463.42 452.8 469.26C454.98 471.34 454.87 472.7 452.8 474.57C370.02 538.74 250.9 523.68 186.73 440.9C181.35 433.95 176.46 426.65 172.1 419.04C132.44 349.86 140.36 263.26 191.89 202.42C221.3 166.71 263.15 143.46 309.01 137.4C347.75 131.58 387.33 137.98 422.27 155.74C433.16 160.91 443.35 167.45 452.58 175.21C455.92 178.03 458.32 178.34 461.54 175.21C467.48 168.76 473.83 162.82 479.99 156.56C482.5 154.07 483.73 153.96 484.57 157.81C493.85 202.51 501.46 238.27 503.33 247.21C504.37 252.22 501.66 251.39 498.75 250.66C491.37 248.86 432.45 234.53 425.08 232.73C420.49 231.59 415.91 230.44 411.32 229.5C406.74 228.57 406.85 227.32 409.76 224.2C416.42 217.73 422.78 211.06 429.46 204.71C432.48 201.78 432.37 200.11 428.94 197.62C401.84 177.67 369 167.08 335.36 167.4C300.64 167 266.83 178.63 239.72 200.33C206.28 225.88 184.86 264.11 180.53 305.98Z" id="a4eSZFYbho"></path><path d="M180.53 305.98C175.05 347.74 187.25 389.89 214.18 422.26C240.1 455.42 278.65 476.3 320.58 479.89C358.35 484.03 396.3 473.97 427.06 451.65C430.28 449.36 432.37 449.05 435.29 451.65C440.92 457.7 446.86 463.42 452.8 469.26C454.98 471.34 454.87 472.7 452.8 474.57C370.02 538.74 250.9 523.68 186.73 440.9C181.35 433.95 176.46 426.65 172.1 419.04C132.44 349.86 140.36 263.26 191.89 202.42C221.3 166.71 263.15 143.46 309.01 137.4C347.75 131.58 387.33 137.98 422.27 155.74C433.16 160.91 443.35 167.45 452.58 175.21C455.92 178.03 458.32 178.34 461.54 175.21C467.48 168.76 473.83 162.82 479.99 156.56C482.5 154.07 483.73 153.96 484.57 157.81C493.85 202.51 501.46 238.27 503.33 247.21C504.37 252.22 501.66 251.39 498.75 250.66C491.37 248.86 432.45 234.53 425.08 232.73C420.49 231.59 415.91 230.44 411.32 229.5C406.74 228.57 406.85 227.32 409.76 224.2C416.42 217.73 422.78 211.06 429.46 204.71C432.48 201.78 432.37 200.11 428.94 197.62C401.84 177.67 369 167.08 335.36 167.4C300.64 167 266.83 178.63 239.72 200.33C206.28 225.88 184.86 264.11 180.53 305.98Z" id="a1LTPIfJgz"></path><path d="M6 319.64C6 493.08 146.61 633.67 320.05 633.67C493.49 633.67 634.1 493.08 634.1 319.64C634.1 146.2 493.49 5.59 320.05 5.59C146.61 5.59 6 146.2 6 319.64Z" id="b33JRXXPFj"></path><path d="M6 319.64C6 493.08 146.61 633.67 320.05 633.67C493.49 633.67 634.1 493.08 634.1 319.64C634.1 146.2 493.49 5.59 320.05 5.59C146.61 5.59 6 146.2 6 319.64Z" id="b4jdVD2RE4"></path><path d="M439.14 477.6C439.14 485.6 439.14 490.04 439.14 490.93C439.14 490.93 439.14 490.93 439.14 490.93C301.98 490.93 225.78 490.93 210.53 490.93C210.53 490.93 210.53 490.93 210.53 490.93C210.53 482.94 210.53 478.48 210.53 477.6C210.53 477.6 210.53 477.6 210.53 477.6C347.7 477.6 423.91 477.6 439.14 477.6C439.14 477.6 439.14 477.6 439.14 477.6Z" id="a27Q1ViEGJ"></path><path d="M439.14 477.6C439.14 485.6 439.14 490.04 439.14 490.93C439.14 490.93 439.14 490.93 439.14 490.93C301.98 490.93 225.78 490.93 210.53 490.93C210.53 490.93 210.53 490.93 210.53 490.93C210.53 482.94 210.53 478.48 210.53 477.6C210.53 477.6 210.53 477.6 210.53 477.6C347.7 477.6 423.91 477.6 439.14 477.6C439.14 477.6 439.14 477.6 439.14 477.6Z" id="j31MqwfK4z"></path><path d="M311.33 161.97C257.75 166.24 214.03 206.56 205.43 259.61C204.1 259.4 193.42 257.65 192.09 257.43C203.57 186.47 270.4 138.26 341.35 149.74C400.54 159.31 445.52 208.08 450.29 267.84C447.62 268.07 439.62 268.77 436.96 268.99C431.81 204.75 375.58 156.82 311.33 161.97Z" id="btv9M6Ge2"></path><path d="M311.33 161.97C257.75 166.24 214.03 206.56 205.43 259.61C204.1 259.4 193.42 257.65 192.09 257.43C203.57 186.47 270.4 138.26 341.35 149.74C400.54 159.31 445.52 208.08 450.29 267.84C447.62 268.07 439.62 268.77 436.96 268.99C431.81 204.75 375.58 156.82 311.33 161.97Z" id="a1XZYdDAP"></path><path d="M211.09 252C240.13 252.08 268.16 262.71 289.94 281.92C289.05 282.95 281.97 291.29 281.07 292.34C237.4 253.38 170.41 257.22 131.47 300.89C92.5 344.57 96.34 411.56 140.02 450.5C159.43 467.81 184.53 477.38 210.53 477.38C210.67 477.38 211.34 477.38 212.51 477.38C212.51 478.72 212.51 489.38 212.51 490.72C212.08 490.72 211.83 490.72 211.78 490.72C211.46 491.06 211.01 491.24 210.53 491.24C144.47 491.09 91.05 437.42 91.21 371.34C91.34 305.29 145.03 251.85 211.09 252Z" id="aeKO413eC"></path><path d="M211.09 252C240.13 252.08 268.16 262.71 289.94 281.92C289.05 282.95 281.97 291.29 281.07 292.34C237.4 253.38 170.41 257.22 131.47 300.89C92.5 344.57 96.34 411.56 140.02 450.5C159.43 467.81 184.53 477.38 210.53 477.38C210.67 477.38 211.34 477.38 212.51 477.38C212.51 478.72 212.51 489.38 212.51 490.72C212.08 490.72 211.83 490.72 211.78 490.72C211.46 491.06 211.01 491.24 210.53 491.24C144.47 491.09 91.05 437.42 91.21 371.34C91.34 305.29 145.03 251.85 211.09 252Z" id="b2hTN2DNvx"></path><path d="M434.04 491.24C434.04 483.24 434.04 478.8 434.04 477.91C434.47 477.91 434.72 477.91 434.77 477.91C490.46 476.83 534.73 430.8 533.66 375.1C532.62 321.77 490.24 278.48 436.96 276.29C436.96 274.96 436.96 264.28 436.96 262.95C499.93 269.37 545.77 325.63 539.37 388.59C533.74 443.73 489.49 486.94 434.24 491.24C434.32 491.24 434.49 491.24 434.77 491.24C434.67 491.24 434.43 491.24 434.04 491.24Z" id="c37Zlbl3nc"></path><path d="M434.04 491.24C434.04 483.24 434.04 478.8 434.04 477.91C434.47 477.91 434.72 477.91 434.77 477.91C490.46 476.83 534.73 430.8 533.66 375.1C532.62 321.77 490.24 278.48 436.96 276.29C436.96 274.96 436.96 264.28 436.96 262.95C499.93 269.37 545.77 325.63 539.37 388.59C533.74 443.73 489.49 486.94 434.24 491.24C434.32 491.24 434.49 491.24 434.77 491.24C434.67 491.24 434.43 491.24 434.04 491.24Z" id="e68deS4tue"></path><path d="M150.72 336.51C150.72 358.89 168.88 377.05 191.26 377.05C213.64 377.05 231.8 358.89 231.8 336.51C231.8 314.13 213.64 295.98 191.26 295.98C168.88 295.98 150.72 314.13 150.72 336.51Z" id="g342TXnM3P"></path><path d="M150.72 336.51C150.72 358.89 168.88 377.05 191.26 377.05C213.64 377.05 231.8 358.89 231.8 336.51C231.8 314.13 213.64 295.98 191.26 295.98C168.88 295.98 150.72 314.13 150.72 336.51Z" id="biVVCVEyM"></path><path d="M370.47 384.45C370.47 422.37 401.22 453.1 439.14 453.1C477.07 453.1 507.81 422.37 507.81 384.45C507.81 346.52 477.07 315.77 439.14 315.77C401.22 315.77 370.47 346.52 370.47 384.45Z" id="b52e4s8rAk"></path><path d="M370.47 384.45C370.47 422.37 401.22 453.1 439.14 453.1C477.07 453.1 507.81 422.37 507.81 384.45C507.81 346.52 477.07 315.77 439.14 315.77C401.22 315.77 370.47 346.52 370.47 384.45Z" id="a2JHxuNoUb"></path><path d="M312.44 268.79C312.44 292.26 331.48 311.3 354.96 311.3C378.44 311.3 397.46 292.26 397.46 268.79C397.46 245.31 378.44 226.27 354.96 226.27C331.48 226.27 312.44 245.31 312.44 268.79Z" id="a31ASRF4QG"></path><path d="M312.44 268.79C312.44 292.26 331.48 311.3 354.96 311.3C378.44 311.3 397.46 292.26 397.46 268.79C397.46 245.31 378.44 226.27 354.96 226.27C331.48 226.27 312.44 245.31 312.44 268.79Z" id="fZdvqqey2"></path><path d="M269.41 410.71C269.41 434.29 288.53 453.43 312.13 453.43C335.72 453.43 354.85 434.29 354.85 410.71C354.85 387.11 335.72 367.97 312.13 367.97C288.53 367.97 269.41 387.11 269.41 410.71Z" id="csL04FrXw"></path><path d="M269.41 410.71C269.41 434.29 288.53 453.43 312.13 453.43C335.72 453.43 354.85 434.29 354.85 410.71C354.85 387.11 335.72 367.97 312.13 367.97C288.53 367.97 269.41 387.11 269.41 410.71Z" id="a6qsJChzWP"></path><path d="M257.84 221.16C257.84 233.43 267.77 243.36 280.04 243.36C292.29 243.36 302.23 233.43 302.23 221.16C302.23 208.91 292.29 198.97 280.04 198.97C267.77 198.97 257.84 208.91 257.84 221.16Z" id="aaCiAGgM7"></path><path d="M257.84 221.16C257.84 233.43 267.77 243.36 280.04 243.36C292.29 243.36 302.23 233.43 302.23 221.16C302.23 208.91 292.29 198.97 280.04 198.97C267.77 198.97 257.84 208.91 257.84 221.16Z" id="f212yq8UeT"></path><path d="M188.34 423.51C188.34 435.78 198.28 445.71 210.53 445.71C222.8 445.71 232.73 435.78 232.73 423.51C232.73 411.26 222.8 401.32 210.53 401.32C198.28 401.32 188.34 411.26 188.34 423.51Z" id="dipFUszfA"></path><path d="M188.34 423.51C188.34 435.78 198.28 445.71 210.53 445.71C222.8 445.71 232.73 435.78 232.73 423.51C232.73 411.26 222.8 401.32 210.53 401.32C198.28 401.32 188.34 411.26 188.34 423.51Z" id="aMZtRLNNT"></path><path d="M257.84 327.87C257.84 340.12 267.77 350.06 280.04 350.06C292.29 350.06 302.23 340.12 302.23 327.87C302.23 315.6 292.29 305.67 280.04 305.67C267.77 305.67 257.84 315.6 257.84 327.87Z" id="a5wELSptu"></path><path d="M257.84 327.87C257.84 340.12 267.77 350.06 280.04 350.06C292.29 350.06 302.23 340.12 302.23 327.87C302.23 315.6 292.29 305.67 280.04 305.67C267.77 305.67 257.84 315.6 257.84 327.87Z" id="a4PGjTn1Gu"></path><path d="M195.74 335.57L214.07 418.52L311.71 406.22L431.22 381.52L351.73 272.02L277.84 224.81L282.54 217.2L358.08 265.35L446.86 387.46L313.17 414.87L206.9 428.42L206.9 428.42L187.1 337.55L195.74 335.57Z" id="c5uXoyHyv"></path><path d="M195.74 335.57L214.07 418.52L311.71 406.22L431.22 381.52L351.73 272.02L277.84 224.81L282.54 217.2L358.08 265.35L446.86 387.46L313.17 414.87L206.9 428.42L206.9 428.42L187.1 337.55L195.74 335.57Z" id="d2JsHLC5BL"></path><path d="M345.99 281.39L282.96 331.3L277.33 324.42L363.81 256.18L316.62 402.46L316.62 402.46L307.96 399.76L345.99 281.39Z" id="aQIoqwkUd"></path><path d="M345.99 281.39L282.96 331.3L277.33 324.42L363.81 256.18L316.62 402.46L316.62 402.46L307.96 399.76L345.99 281.39Z" id="a6LdVFdjR"></path><path d="M190.33 328.05C264.65 375.34 305.93 401.61 314.19 406.87C314.19 406.87 314.19 406.87 314.19 406.87C311.34 411.36 309.75 413.85 309.44 414.34C309.44 414.34 309.44 414.34 309.44 414.34C235.12 367.05 193.83 340.78 185.58 335.52C185.58 335.52 185.58 335.52 185.58 335.52C188.43 331.04 190.01 328.55 190.33 328.05C190.33 328.05 190.33 328.05 190.33 328.05Z" id="e2Z1hVcdn7"></path><path d="M190.33 328.05C264.65 375.34 305.93 401.61 314.19 406.87C314.19 406.87 314.19 406.87 314.19 406.87C311.34 411.36 309.75 413.85 309.44 414.34C309.44 414.34 309.44 414.34 309.44 414.34C235.12 367.05 193.83 340.78 185.58 335.52C185.58 335.52 185.58 335.52 185.58 335.52C188.43 331.04 190.01 328.55 190.33 328.05C190.33 328.05 190.33 328.05 190.33 328.05Z" id="ei7Rs1x1U"></path></defs><g><g><g><use xlink:href="#a8iLi1BEVi" opacity="1" fill="#ffffff" fill-opacity="1"></use><g><use xlink:href="#a8iLi1BEVi" opacity="1" fill-opacity="0" stroke="#000000" stroke-width="1" stroke-opacity="0"></use></g></g><g><use xlink:href="#f1hY2rNHX" opacity="1" fill="#000000" fill-opacity="0"></use><g><use xlink:href="#f1hY2rNHX" opacity="1" fill-opacity="0" stroke="#000000" stroke-width="1" stroke-opacity="0"></use></g></g><g><use xlink:href="#a4eSZFYbho" opacity="1" fill="#ffffff" fill-opacity="1"></use><g><use xlink:href="#a4eSZFYbho" opacity="1" fill-opacity="0" stroke="#000000" stroke-width="1" stroke-opacity="0"></use></g></g><g><use xlink:href="#a1LTPIfJgz" opacity="1" fill="#000000" fill-opacity="0"></use><g><use xlink:href="#a1LTPIfJgz" opacity="1" fill-opacity="0" stroke="#000000" stroke-width="1" stroke-opacity="0"></use></g></g><g><use xlink:href="#b33JRXXPFj" opacity="1" fill="#00b09c" fill-opacity="1"></use><g><use xlink:href="#b33JRXXPFj" opacity="1" fill-opacity="0" stroke="#000000" stroke-width="1" stroke-opacity="0"></use></g></g><g><use xlink:href="#b4jdVD2RE4" opacity="1" fill="#000000" fill-opacity="0"></use><g><use xlink:href="#b4jdVD2RE4" opacity="1" fill-opacity="0" stroke="#000000" stroke-width="1" stroke-opacity="0"></use></g></g><g><use xlink:href="#a27Q1ViEGJ" opacity="1" fill="#ffffff" fill-opacity="1"></use><g><use xlink:href="#a27Q1ViEGJ" opacity="1" fill-opacity="0" stroke="#000000" stroke-width="1" stroke-opacity="0"></use></g></g><g><use xlink:href="#j31MqwfK4z" opacity="1" fill="#000000" fill-opacity="0"></use><g><use xlink:href="#j31MqwfK4z" opacity="1" fill-opacity="0" stroke="#000000" stroke-width="1" stroke-opacity="0"></use></g></g><g><use xlink:href="#btv9M6Ge2" opacity="1" fill="#ffffff" fill-opacity="1"></use><g><use xlink:href="#btv9M6Ge2" opacity="1" fill-opacity="0" stroke="#000000" stroke-width="1" stroke-opacity="0"></use></g></g><g><use xlink:href="#a1XZYdDAP" opacity="1" fill="#000000" fill-opacity="0"></use><g><use xlink:href="#a1XZYdDAP" opacity="1" fill-opacity="0" stroke="#000000" stroke-width="1" stroke-opacity="0"></use></g></g><g><use xlink:href="#aeKO413eC" opacity="1" fill="#ffffff" fill-opacity="1"></use><g><use xlink:href="#aeKO413eC" opacity="1" fill-opacity="0" stroke="#000000" stroke-width="1" stroke-opacity="0"></use></g></g><g><use xlink:href="#b2hTN2DNvx" opacity="1" fill="#000000" fill-opacity="0"></use><g><use xlink:href="#b2hTN2DNvx" opacity="1" fill-opacity="0" stroke="#000000" stroke-width="1" stroke-opacity="0"></use></g></g><g><use xlink:href="#c37Zlbl3nc" opacity="1" fill="#ffffff" fill-opacity="1"></use><g><use xlink:href="#c37Zlbl3nc" opacity="1" fill-opacity="0" stroke="#000000" stroke-width="1" stroke-opacity="0"></use></g></g><g><use xlink:href="#e68deS4tue" opacity="1" fill="#000000" fill-opacity="0"></use><g><use xlink:href="#e68deS4tue" opacity="1" fill-opacity="0" stroke="#000000" stroke-width="1" stroke-opacity="0"></use></g></g><g><use xlink:href="#g342TXnM3P" opacity="1" fill="#ffffff" fill-opacity="1"></use><g><use xlink:href="#g342TXnM3P" opacity="1" fill-opacity="0" stroke="#000000" stroke-width="1" stroke-opacity="0"></use></g></g><g><use xlink:href="#biVVCVEyM" opacity="1" fill="#000000" fill-opacity="0"></use><g><use xlink:href="#biVVCVEyM" opacity="1" fill-opacity="0" stroke="#000000" stroke-width="1" stroke-opacity="0"></use></g></g><g><use xlink:href="#b52e4s8rAk" opacity="1" fill="#ffffff" fill-opacity="1"></use><g><use xlink:href="#b52e4s8rAk" opacity="1" fill-opacity="0" stroke="#000000" stroke-width="1" stroke-opacity="0"></use></g></g><g><use xlink:href="#a2JHxuNoUb" opacity="1" fill="#000000" fill-opacity="0"></use><g><use xlink:href="#a2JHxuNoUb" opacity="1" fill-opacity="0" stroke="#000000" stroke-width="1" stroke-opacity="0"></use></g></g><g><use xlink:href="#a31ASRF4QG" opacity="1" fill="#ffffff" fill-opacity="1"></use><g><use xlink:href="#a31ASRF4QG" opacity="1" fill-opacity="0" stroke="#000000" stroke-width="1" stroke-opacity="0"></use></g></g><g><use xlink:href="#fZdvqqey2" opacity="1" fill="#000000" fill-opacity="0"></use><g><use xlink:href="#fZdvqqey2" opacity="1" fill-opacity="0" stroke="#000000" stroke-width="1" stroke-opacity="0"></use></g></g><g><use xlink:href="#csL04FrXw" opacity="1" fill="#ffffff" fill-opacity="1"></use><g><use xlink:href="#csL04FrXw" opacity="1" fill-opacity="0" stroke="#000000" stroke-width="1" stroke-opacity="0"></use></g></g><g><use xlink:href="#a6qsJChzWP" opacity="1" fill="#000000" fill-opacity="0"></use><g><use xlink:href="#a6qsJChzWP" opacity="1" fill-opacity="0" stroke="#000000" stroke-width="1" stroke-opacity="0"></use></g></g><g><use xlink:href="#aaCiAGgM7" opacity="1" fill="#ffffff" fill-opacity="1"></use><g><use xlink:href="#aaCiAGgM7" opacity="1" fill-opacity="0" stroke="#000000" stroke-width="1" stroke-opacity="0"></use></g></g><g><use xlink:href="#f212yq8UeT" opacity="1" fill="#000000" fill-opacity="0"></use><g><use xlink:href="#f212yq8UeT" opacity="1" fill-opacity="0" stroke="#000000" stroke-width="1" stroke-opacity="0"></use></g></g><g><use xlink:href="#dipFUszfA" opacity="1" fill="#ffffff" fill-opacity="1"></use><g><use xlink:href="#dipFUszfA" opacity="1" fill-opacity="0" stroke="#000000" stroke-width="1" stroke-opacity="0"></use></g></g><g><use xlink:href="#aMZtRLNNT" opacity="1" fill="#000000" fill-opacity="0"></use><g><use xlink:href="#aMZtRLNNT" opacity="1" fill-opacity="0" stroke="#000000" stroke-width="1" stroke-opacity="0"></use></g></g><g><use xlink:href="#a5wELSptu" opacity="1" fill="#ffffff" fill-opacity="1"></use><g><use xlink:href="#a5wELSptu" opacity="1" fill-opacity="0" stroke="#000000" stroke-width="1" stroke-opacity="0"></use></g></g><g><use xlink:href="#a4PGjTn1Gu" opacity="1" fill="#000000" fill-opacity="0"></use><g><use xlink:href="#a4PGjTn1Gu" opacity="1" fill-opacity="0" stroke="#000000" stroke-width="1" stroke-opacity="0"></use></g></g><g><use xlink:href="#c5uXoyHyv" opacity="1" fill="#ffffff" fill-opacity="1"></use><g><use xlink:href="#c5uXoyHyv" opacity="1" fill-opacity="0" stroke="#000000" stroke-width="1" stroke-opacity="0"></use></g></g><g><use xlink:href="#d2JsHLC5BL" opacity="1" fill="#000000" fill-opacity="0"></use><g><use xlink:href="#d2JsHLC5BL" opacity="1" fill-opacity="0" stroke="#000000" stroke-width="1" stroke-opacity="0"></use></g></g><g><use xlink:href="#aQIoqwkUd" opacity="1" fill="#ffffff" fill-opacity="1"></use><g><use xlink:href="#aQIoqwkUd" opacity="1" fill-opacity="0" stroke="#000000" stroke-width="1" stroke-opacity="0"></use></g></g><g><use xlink:href="#a6LdVFdjR" opacity="1" fill="#000000" fill-opacity="0"></use><g><use xlink:href="#a6LdVFdjR" opacity="1" fill-opacity="0" stroke="#000000" stroke-width="1" stroke-opacity="0"></use></g></g><g><use xlink:href="#e2Z1hVcdn7" opacity="1" fill="#ffffff" fill-opacity="1"></use><g><use xlink:href="#e2Z1hVcdn7" opacity="1" fill-opacity="0" stroke="#000000" stroke-width="1" stroke-opacity="0"></use></g></g><g><use xlink:href="#ei7Rs1x1U" opacity="1" fill="#000000" fill-opacity="0"></use><g><use xlink:href="#ei7Rs1x1U" opacity="1" fill-opacity="0" stroke="#000000" stroke-width="1" stroke-opacity="0"></use></g></g></g></g></svg>