<?xml version="1.0" encoding="UTF-8" standalone="no"?>
<!DOCTYPE svg PUBLIC "-//W3C//DTD SVG 1.1//EN" "http://www.w3.org/Graphics/SVG/1.1/DTD/svg11.dtd">
<svg version="1.1" xmlns="http://www.w3.org/2000/svg" xmlns:xlink="http://www.w3.org/1999/xlink" preserveAspectRatio="xMidYMid meet" viewBox="0 0 640 640" width="640" height="640"><defs><path d="M5.76 319.47C5.76 492.47 146 632.72 319 632.72C492 632.72 632.24 492.47 632.24 319.47C632.24 146.47 492 6.23 319 6.23C146 6.23 5.76 146.47 5.76 319.47Z" id="bnarWlUEY"></path><path d="M5.76 319.47C5.76 492.47 146 632.72 319 632.72C492 632.72 632.24 492.47 632.24 319.47C632.24 146.47 492 6.23 319 6.23C146 6.23 5.76 146.47 5.76 319.47Z" id="a1AetmgZW"></path><path d="M371.04 182.11L372.29 182.6L373.53 183.08L374.77 183.59L376 184.09L378.45 185.15L380.87 186.24L382.08 186.82L383.27 187.39L385.67 188.57L388.03 189.81L389.19 190.43L390.36 191.08L391.51 191.73L392.68 192.4L393.81 193.06L394.96 193.75L396.1 194.43L398.34 195.85L399.46 196.59L400.57 197.31L401.68 198.06L402.77 198.82L403.86 199.58L404.94 200.35L406.02 201.13L407.1 201.93L408.16 202.73L409.21 203.55L410.25 204.37L411.3 205.21L412.33 206.05L414.37 207.76L415.39 208.63L471.09 190.42L510.8 255.58L464.06 296.45L464.15 297.01L464.33 298.16L464.42 298.72L464.6 299.87L464.67 300.45L464.76 301.02L464.83 301.6L464.91 302.16L464.98 302.73L465.04 303.31L465.11 303.88L465.17 304.46L465.24 305.04L465.42 306.76L465.47 307.34L465.53 307.91L465.66 309.64L465.7 310.23L465.79 311.38L465.85 312.53L465.89 313.11L465.91 313.68L465.94 314.27L465.97 314.85L465.98 315.43L466.01 316L466.04 317.15L466.06 317.74L466.07 318.32L466.07 318.89L466.09 319.47L466.07 320.06L466.07 320.64L466.03 322.36L466.01 322.95L465.98 323.53L465.97 324.1L465.91 325.26L465.88 325.85L465.79 327.57L465.53 331.03L465.47 331.6L465.42 332.19L465.24 333.92L465.17 334.48L465.11 335.06L465.04 335.63L464.98 336.21L464.76 337.93L464.67 338.51L464.6 339.08L464.51 339.65L464.24 341.37L464.15 341.93L464.06 342.51L511.1 383.38L471.38 448.54L415.67 430.32L414.67 431.19L413.65 432.05L412.61 432.91L411.58 433.75L410.55 434.57L409.5 435.4L407.38 437.02L406.31 437.82L405.24 438.6L404.14 439.37L403.07 440.14L401.96 440.89L400.87 441.63L399.75 442.37L398.64 443.09L397.52 443.81L395.24 445.2L394.11 445.88L392.96 446.56L391.8 447.22L390.64 447.87L388.31 449.14L387.13 449.76L384.77 450.97L383.57 451.56L382.36 452.14L381.16 452.7L379.95 453.26L378.73 453.8L377.52 454.34L376.29 454.85L375.05 455.37L373.81 455.87L372.57 456.36L371.33 456.83L370.08 457.3L357.74 511.19L280.64 511.19L268.3 457.41L265.79 456.46L264.55 455.97L263.32 455.47L262.09 454.96L260.85 454.44L259.63 453.91L258.42 453.36L255.99 452.24L254.78 451.66L253.59 451.07L252.41 450.48L251.21 449.86L250.03 449.24L248.87 448.62L246.53 447.33L244.23 446L243.08 445.3L240.81 443.92L238.56 442.47L237.46 441.75L236.35 440.99L235.26 440.24L233.07 438.71L232 437.92L230.93 437.13L229.86 436.32L228.81 435.5L226.71 433.85L225.68 433.01L224.65 432.15L222.61 430.41L166.91 448.62L127.2 383.48L173.94 342.51L173.74 341.37L173.39 339.07L173.23 337.93L172.93 335.63L172.8 334.48L172.56 332.18L172.36 329.87L172.28 328.72L172.21 327.56L172.14 326.41L172.05 324.1L172 322.94L171.97 320.64L171.96 319.47L171.99 317.17L172 316L172.14 312.55L172.21 311.38L172.36 309.08L172.56 306.78L172.8 304.48L172.93 303.32L173.23 301.02L173.39 299.87L173.57 298.73L173.74 297.58L173.94 296.45L127.2 255.58L166.62 190.42L222.33 208.63L223.33 207.76L224.37 206.9L225.39 206.05L226.42 205.21L227.47 204.37L228.51 203.54L229.58 202.73L230.64 201.93L231.72 201.13L233.87 199.57L234.96 198.8L236.07 198.05L238.28 196.57L239.41 195.85L240.53 195.14L241.66 194.43L242.8 193.74L243.94 193.06L245.09 192.38L246.24 191.72L247.41 191.07L248.57 190.43L249.75 189.8L250.93 189.18L252.11 188.57L253.31 187.97L254.5 187.39L255.7 186.8L256.91 186.24L258.12 185.7L259.35 185.15L261.8 184.09L264.27 183.08L266.75 182.11L268.01 181.65L280.35 127.77L357.46 127.77L369.8 181.65L371.04 182.11ZM292.98 187.72L289.9 201.21L276.88 206.03L275.85 206.42L274.81 206.82L273.79 207.21L272.76 207.63L271.74 208.04L270.74 208.47L269.72 208.91L267.71 209.83L266.72 210.28L265.74 210.76L264.75 211.24L263.76 211.75L261.81 212.75L260.84 213.27L259.88 213.8L258.92 214.34L257.97 214.89L257.01 215.44L256.07 216L254.21 217.15L253.28 217.74L252.35 218.34L251.43 218.95L250.52 219.57L248.72 220.81L247.82 221.46L246.05 222.76L245.18 223.42L243.44 224.78L242.58 225.46L241.72 226.17L240.87 226.86L240.03 227.58L239.2 228.29L228.31 237.93L214.52 233.41L177.99 221.46L159.96 250.95L190.81 276.01L201.42 285.64L199.19 299.62L199.03 300.58L198.88 301.54L198.72 302.5L198.45 304.42L198.21 306.33L198.11 307.31L198.01 308.27L197.92 309.23L197.83 310.2L197.77 311.16L197.7 312.12L197.64 313.09L197.59 314.05L197.56 315.03L197.54 315.99L197.51 316.96L197.49 317.94L197.49 319.87L197.51 320.83L197.54 321.8L197.56 322.76L197.59 323.74L197.64 324.69L197.7 325.67L197.77 326.63L197.83 327.6L198.01 329.52L198.11 330.49L198.21 331.45L198.45 333.37L198.58 334.35L198.72 335.31L198.88 336.27L199.03 337.21L199.19 338.17L201.42 352.15L190.81 361.78L159.96 388.48L178.19 418.07L214.61 406.12L228.4 401.59L239.39 411.23L240.22 411.95L241.06 412.67L241.91 413.37L242.77 414.07L243.63 414.75L245.37 416.11L246.24 416.77L248.01 418.07L249.81 419.34L250.71 419.96L251.63 420.58L252.54 421.19L253.47 421.79L254.4 422.37L255.33 422.96L256.26 423.53L257.21 424.09L258.16 424.64L259.11 425.19L260.07 425.73L261.04 426.25L262 426.78L263.95 427.78L264.94 428.29L265.93 428.77L266.92 429.25L267.92 429.7L268.91 430.16L269.91 430.62L270.93 431.06L271.95 431.49L273.99 432.32L275 432.71L276.04 433.11L277.07 433.5L290.09 438.32L293.17 451.81L300.98 485.83L337.02 485.83L344.83 451.81L347.91 438.32L360.93 433.5L361.96 433.11L363 432.71L364.01 432.32L365.03 431.9L367.07 431.05L368.07 430.6L369.09 430.16L370.08 429.7L371.08 429.23L372.07 428.76L373.06 428.27L374.04 427.78L375.02 427.28L376 426.77L376.96 426.25L377.93 425.72L378.88 425.19L379.84 424.64L381.72 423.52L382.67 422.94L383.6 422.37L384.53 421.78L385.44 421.19L386.37 420.58L387.27 419.96L388.19 419.34L389.99 418.07L391.76 416.77L392.63 416.11L394.37 414.75L396.94 412.67L397.78 411.95L398.61 411.23L409.5 401.59L423.29 406.12L460.01 417.98L478.04 388.48L447.19 363.04L436.58 353.4L438.81 339.42L439.14 337.51L439.28 336.55L439.68 333.67L439.8 332.71L439.9 331.75L440.01 330.78L440.1 329.82L440.17 328.86L440.24 327.88L440.32 326.92L440.36 325.95L440.42 324.99L440.45 324.02L440.48 323.06L440.51 322.08L440.52 321.12L440.52 319.17L440.51 318.22L440.48 317.24L440.45 316.28L440.42 315.31L440.36 314.35L440.32 313.37L440.24 312.42L440.17 311.44L440.1 310.48L440.01 309.52L439.9 308.55L439.8 307.59L439.68 306.63L439.28 303.75L439.14 302.79L438.81 300.87L436.58 286.9L447.19 277.26L478.04 250.95L459.53 221.46L423.01 233.41L409.22 237.93L398.33 228.29L397.49 227.58L396.65 226.86L395.8 226.17L394.95 225.46L394.08 224.78L393.22 224.1L392.35 223.42L391.47 222.76L388.81 220.81L387.89 220.19L386.99 219.55L384.25 217.74L383.32 217.15L382.39 216.57L381.44 216L380.5 215.44L379.56 214.89L377.64 213.8L376.68 213.27L375.7 212.75L373.76 211.75L372.77 211.24L371.79 210.76L370.79 210.28L369.8 209.81L368.8 209.35L366.79 208.47L365.77 208.04L363.73 207.21L362.7 206.8L360.63 206.03L347.63 201.21L344.55 187.72L336.74 153.7L300.79 153.7L292.98 187.72Z" id="g4eIok6kyz"></path><path d="M371.04 182.11L372.29 182.6L373.53 183.08L374.77 183.59L376 184.09L378.45 185.15L380.87 186.24L382.08 186.82L383.27 187.39L385.67 188.57L388.03 189.81L389.19 190.43L390.36 191.08L391.51 191.73L392.68 192.4L393.81 193.06L394.96 193.75L396.1 194.43L398.34 195.85L399.46 196.59L400.57 197.31L401.68 198.06L402.77 198.82L403.86 199.58L404.94 200.35L406.02 201.13L407.1 201.93L408.16 202.73L409.21 203.55L410.25 204.37L411.3 205.21L412.33 206.05L414.37 207.76L415.39 208.63L471.09 190.42L510.8 255.58L464.06 296.45L464.15 297.01L464.33 298.16L464.42 298.72L464.6 299.87L464.67 300.45L464.76 301.02L464.83 301.6L464.91 302.16L464.98 302.73L465.04 303.31L465.11 303.88L465.17 304.46L465.24 305.04L465.42 306.76L465.47 307.34L465.53 307.91L465.66 309.64L465.7 310.23L465.79 311.38L465.85 312.53L465.89 313.11L465.91 313.68L465.94 314.27L465.97 314.85L465.98 315.43L466.01 316L466.04 317.15L466.06 317.74L466.07 318.32L466.07 318.89L466.09 319.47L466.07 320.06L466.07 320.64L466.03 322.36L466.01 322.95L465.98 323.53L465.97 324.1L465.91 325.26L465.88 325.85L465.79 327.57L465.53 331.03L465.47 331.6L465.42 332.19L465.24 333.92L465.17 334.48L465.11 335.06L465.04 335.63L464.98 336.21L464.76 337.93L464.67 338.51L464.6 339.08L464.51 339.65L464.24 341.37L464.15 341.93L464.06 342.51L511.1 383.38L471.38 448.54L415.67 430.32L414.67 431.19L413.65 432.05L412.61 432.91L411.58 433.75L410.55 434.57L409.5 435.4L407.38 437.02L406.31 437.82L405.24 438.6L404.14 439.37L403.07 440.14L401.96 440.89L400.87 441.63L399.75 442.37L398.64 443.09L397.52 443.81L395.24 445.2L394.11 445.88L392.96 446.56L391.8 447.22L390.64 447.87L388.31 449.14L387.13 449.76L384.77 450.97L383.57 451.56L382.36 452.14L381.16 452.7L379.95 453.26L378.73 453.8L377.52 454.34L376.29 454.85L375.05 455.37L373.81 455.87L372.57 456.36L371.33 456.83L370.08 457.3L357.74 511.19L280.64 511.19L268.3 457.41L265.79 456.46L264.55 455.97L263.32 455.47L262.09 454.96L260.85 454.44L259.63 453.91L258.42 453.36L255.99 452.24L254.78 451.66L253.59 451.07L252.41 450.48L251.21 449.86L250.03 449.24L248.87 448.62L246.53 447.33L244.23 446L243.08 445.3L240.81 443.92L238.56 442.47L237.46 441.75L236.35 440.99L235.26 440.24L233.07 438.71L232 437.92L230.93 437.13L229.86 436.32L228.81 435.5L226.71 433.85L225.68 433.01L224.65 432.15L222.61 430.41L166.91 448.62L127.2 383.48L173.94 342.51L173.74 341.37L173.39 339.07L173.23 337.93L172.93 335.63L172.8 334.48L172.56 332.18L172.36 329.87L172.28 328.72L172.21 327.56L172.14 326.41L172.05 324.1L172 322.94L171.97 320.64L171.96 319.47L171.99 317.17L172 316L172.14 312.55L172.21 311.38L172.36 309.08L172.56 306.78L172.8 304.48L172.93 303.32L173.23 301.02L173.39 299.87L173.57 298.73L173.74 297.58L173.94 296.45L127.2 255.58L166.62 190.42L222.33 208.63L223.33 207.76L224.37 206.9L225.39 206.05L226.42 205.21L227.47 204.37L228.51 203.54L229.58 202.73L230.64 201.93L231.72 201.13L233.87 199.57L234.96 198.8L236.07 198.05L238.28 196.57L239.41 195.85L240.53 195.14L241.66 194.43L242.8 193.74L243.94 193.06L245.09 192.38L246.24 191.72L247.41 191.07L248.57 190.43L249.75 189.8L250.93 189.18L252.11 188.57L253.31 187.97L254.5 187.39L255.7 186.8L256.91 186.24L258.12 185.7L259.35 185.15L261.8 184.09L264.27 183.08L266.75 182.11L268.01 181.65L280.35 127.77L357.46 127.77L369.8 181.65L371.04 182.11ZM292.98 187.72L289.9 201.21L276.88 206.03L275.85 206.42L274.81 206.82L273.79 207.21L272.76 207.63L271.74 208.04L270.74 208.47L269.72 208.91L267.71 209.83L266.72 210.28L265.74 210.76L264.75 211.24L263.76 211.75L261.81 212.75L260.84 213.27L259.88 213.8L258.92 214.34L257.97 214.89L257.01 215.44L256.07 216L254.21 217.15L253.28 217.74L252.35 218.34L251.43 218.95L250.52 219.57L248.72 220.81L247.82 221.46L246.05 222.76L245.18 223.42L243.44 224.78L242.58 225.46L241.72 226.17L240.87 226.86L240.03 227.58L239.2 228.29L228.31 237.93L214.52 233.41L177.99 221.46L159.96 250.95L190.81 276.01L201.42 285.64L199.19 299.62L199.03 300.58L198.88 301.54L198.72 302.5L198.45 304.42L198.21 306.33L198.11 307.31L198.01 308.27L197.92 309.23L197.83 310.2L197.77 311.16L197.7 312.12L197.64 313.09L197.59 314.05L197.56 315.03L197.54 315.99L197.51 316.96L197.49 317.94L197.49 319.87L197.51 320.83L197.54 321.8L197.56 322.76L197.59 323.74L197.64 324.69L197.7 325.67L197.77 326.63L197.83 327.6L198.01 329.52L198.11 330.49L198.21 331.45L198.45 333.37L198.58 334.35L198.72 335.31L198.88 336.27L199.03 337.21L199.19 338.17L201.42 352.15L190.81 361.78L159.96 388.48L178.19 418.07L214.61 406.12L228.4 401.59L239.39 411.23L240.22 411.95L241.06 412.67L241.91 413.37L242.77 414.07L243.63 414.75L245.37 416.11L246.24 416.77L248.01 418.07L249.81 419.34L250.71 419.96L251.63 420.58L252.54 421.19L253.47 421.79L254.4 422.37L255.33 422.96L256.26 423.53L257.21 424.09L258.16 424.64L259.11 425.19L260.07 425.73L261.04 426.25L262 426.78L263.95 427.78L264.94 428.29L265.93 428.77L266.92 429.25L267.92 429.7L268.91 430.16L269.91 430.62L270.93 431.06L271.95 431.49L273.99 432.32L275 432.71L276.04 433.11L277.07 433.5L290.09 438.32L293.17 451.81L300.98 485.83L337.02 485.83L344.83 451.81L347.91 438.32L360.93 433.5L361.96 433.11L363 432.71L364.01 432.32L365.03 431.9L367.07 431.05L368.07 430.6L369.09 430.16L370.08 429.7L371.08 429.23L372.07 428.76L373.06 428.27L374.04 427.78L375.02 427.28L376 426.77L376.96 426.25L377.93 425.72L378.88 425.19L379.84 424.64L381.72 423.52L382.67 422.94L383.6 422.37L384.53 421.78L385.44 421.19L386.37 420.58L387.27 419.96L388.19 419.34L389.99 418.07L391.76 416.77L392.63 416.11L394.37 414.75L396.94 412.67L397.78 411.95L398.61 411.23L409.5 401.59L423.29 406.12L460.01 417.98L478.04 388.48L447.19 363.04L436.58 353.4L438.81 339.42L439.14 337.51L439.28 336.55L439.68 333.67L439.8 332.71L439.9 331.75L440.01 330.78L440.1 329.82L440.17 328.86L440.24 327.88L440.32 326.92L440.36 325.95L440.42 324.99L440.45 324.02L440.48 323.06L440.51 322.08L440.52 321.12L440.52 319.17L440.51 318.22L440.48 317.24L440.45 316.28L440.42 315.31L440.36 314.35L440.32 313.37L440.24 312.42L440.17 311.44L440.1 310.48L440.01 309.52L439.9 308.55L439.8 307.59L439.68 306.63L439.28 303.75L439.14 302.79L438.81 300.87L436.58 286.9L447.19 277.26L478.04 250.95L459.53 221.46L423.01 233.41L409.22 237.93L398.33 228.29L397.49 227.58L396.65 226.86L395.8 226.17L394.95 225.46L394.08 224.78L393.22 224.1L392.35 223.42L391.47 222.76L388.81 220.81L387.89 220.19L386.99 219.55L384.25 217.74L383.32 217.15L382.39 216.57L381.44 216L380.5 215.44L379.56 214.89L377.64 213.8L376.68 213.27L375.7 212.75L373.76 211.75L372.77 211.24L371.79 210.76L370.79 210.28L369.8 209.81L368.8 209.35L366.79 208.47L365.77 208.04L363.73 207.21L362.7 206.8L360.63 206.03L347.63 201.21L344.55 187.72L336.74 153.7L300.79 153.7L292.98 187.72Z" id="d1hfgVkCj"></path><path d="M325.32 243L328.43 243.33L331.5 243.76L334.54 244.32L337.54 245L340.47 245.78L343.37 246.68L346.22 247.7L349.02 248.82L351.75 250.03L354.44 251.36L357.06 252.79L359.62 254.31L362.11 255.92L364.55 257.63L366.89 259.43L369.18 261.32L371.39 263.28L373.52 265.33L375.57 267.47L377.55 269.67L379.44 271.96L381.22 274.32L382.93 276.74L384.56 279.24L386.08 281.81L387.5 284.43L388.82 287.1L390.05 289.85L391.17 292.64L392.17 295.49L393.07 298.38L393.87 301.33L394.54 304.33L395.1 307.35L395.54 310.42L395.85 313.54L396.04 316.68L396.1 319.85L396.04 323.04L395.85 326.19L395.54 329.3L395.1 332.37L394.54 335.39L393.87 338.39L393.07 341.34L392.17 344.24L391.17 347.08L390.05 349.87L388.82 352.62L387.5 355.29L386.08 357.92L384.56 360.48L382.93 362.98L381.22 365.4L379.44 367.76L377.55 370.05L375.57 372.25L373.52 374.39L371.39 376.44L369.18 378.4L366.89 380.29L364.55 382.09L362.11 383.8L359.62 385.41L357.06 386.93L354.44 388.36L351.75 389.69L349.02 390.9L346.22 392.02L343.37 393.04L340.47 393.94L337.54 394.72L334.54 395.4L331.5 395.96L328.43 396.39L325.32 396.72L322.17 396.91L319 396.97L315.83 396.91L312.68 396.72L309.57 396.39L306.5 395.96L303.46 395.4L300.46 394.72L297.53 393.94L294.63 393.04L291.78 392.02L288.98 390.9L286.25 389.69L283.56 388.36L280.94 386.93L278.38 385.41L275.89 383.8L273.45 382.09L271.11 380.29L268.82 378.4L266.61 376.44L264.48 374.39L262.43 372.25L260.45 370.05L258.56 367.76L256.78 365.4L255.07 362.98L253.44 360.48L251.92 357.92L250.5 355.29L249.18 352.62L247.95 349.87L246.83 347.08L245.83 344.24L244.93 341.34L244.13 338.39L243.46 335.39L242.9 332.37L242.46 329.3L242.15 326.19L241.96 323.04L241.9 319.85L241.96 316.68L242.15 313.54L242.46 310.42L242.9 307.35L243.46 304.33L244.13 301.33L244.93 298.38L245.83 295.49L246.83 292.64L247.95 289.85L249.18 287.1L250.5 284.43L251.92 281.81L253.44 279.24L255.07 276.74L256.78 274.32L258.56 271.96L260.45 269.67L262.43 267.47L264.48 265.33L266.61 263.28L268.82 261.32L271.11 259.43L273.45 257.63L275.89 255.92L278.38 254.31L280.94 252.79L283.56 251.36L286.25 250.03L288.98 248.82L291.78 247.7L294.63 246.68L297.53 245.78L300.46 245L303.46 244.32L306.5 243.76L309.57 243.33L312.68 243L315.83 242.81L319 242.75L322.17 242.81L325.32 243ZM315.04 294.23L313.14 294.6L311.3 295.12L309.5 295.75L307.77 296.53L306.12 297.42L304.52 298.42L303.03 299.55L301.61 300.77L300.29 302.08L299.08 303.5L297.95 305.01L296.95 306.59L296.05 308.24L295.28 309.97L294.65 311.77L294.13 313.63L293.76 315.53L293.54 317.48L293.45 319.47L293.54 321.48L293.76 323.43L294.13 325.33L294.65 327.19L295.28 328.97L296.05 330.72L296.95 332.37L297.95 333.95L299.08 335.45L300.29 336.87L301.61 338.2L303.03 339.42L304.52 340.55L306.12 341.56L307.77 342.45L309.5 343.23L311.3 343.88L313.14 344.4L315.04 344.78L317.01 345.02L319 345.11L319.1 345.11L321.1 345.03L323.04 344.8L324.95 344.41L326.81 343.9L328.59 343.25L330.32 342.48L331.97 341.58L333.55 340.56L335.06 339.44L336.46 338.21L337.77 336.89L339 335.47L340.11 333.96L341.11 332.38L341.99 330.72L342.75 328.99L343.38 327.19L343.88 325.33L344.25 323.43L344.47 321.48L344.55 319.47L344.46 317.48L344.24 315.53L343.87 313.63L343.35 311.77L342.72 309.97L341.95 308.24L341.05 306.59L340.05 305.01L338.92 303.5L337.71 302.08L336.39 300.77L334.97 299.55L333.48 298.42L331.88 297.42L330.23 296.53L328.5 295.75L326.7 295.12L324.86 294.6L322.96 294.23L320.99 294.01L319 293.94L317.01 294.01L315.04 294.23Z" id="i4D656guY"></path><path d="M325.32 243L328.43 243.33L331.5 243.76L334.54 244.32L337.54 245L340.47 245.78L343.37 246.68L346.22 247.7L349.02 248.82L351.75 250.03L354.44 251.36L357.06 252.79L359.62 254.31L362.11 255.92L364.55 257.63L366.89 259.43L369.18 261.32L371.39 263.28L373.52 265.33L375.57 267.47L377.55 269.67L379.44 271.96L381.22 274.32L382.93 276.74L384.56 279.24L386.08 281.81L387.5 284.43L388.82 287.1L390.05 289.85L391.17 292.64L392.17 295.49L393.07 298.38L393.87 301.33L394.54 304.33L395.1 307.35L395.54 310.42L395.85 313.54L396.04 316.68L396.1 319.85L396.04 323.04L395.85 326.19L395.54 329.3L395.1 332.37L394.54 335.39L393.87 338.39L393.07 341.34L392.17 344.24L391.17 347.08L390.05 349.87L388.82 352.62L387.5 355.29L386.08 357.92L384.56 360.48L382.93 362.98L381.22 365.4L379.44 367.76L377.55 370.05L375.57 372.25L373.52 374.39L371.39 376.44L369.18 378.4L366.89 380.29L364.55 382.09L362.11 383.8L359.62 385.41L357.06 386.93L354.44 388.36L351.75 389.69L349.02 390.9L346.22 392.02L343.37 393.04L340.47 393.94L337.54 394.72L334.54 395.4L331.5 395.96L328.43 396.39L325.32 396.72L322.17 396.91L319 396.97L315.83 396.91L312.68 396.72L309.57 396.39L306.5 395.96L303.46 395.4L300.46 394.72L297.53 393.94L294.63 393.04L291.78 392.02L288.98 390.9L286.25 389.69L283.56 388.36L280.94 386.93L278.38 385.41L275.89 383.8L273.45 382.09L271.11 380.29L268.82 378.4L266.61 376.44L264.48 374.39L262.43 372.25L260.45 370.05L258.56 367.76L256.78 365.4L255.07 362.98L253.44 360.48L251.92 357.92L250.5 355.29L249.18 352.62L247.95 349.87L246.83 347.08L245.83 344.24L244.93 341.34L244.13 338.39L243.46 335.39L242.9 332.37L242.46 329.3L242.15 326.19L241.96 323.04L241.9 319.85L241.96 316.68L242.15 313.54L242.46 310.42L242.9 307.35L243.46 304.33L244.13 301.33L244.93 298.38L245.83 295.49L246.83 292.64L247.95 289.85L249.18 287.1L250.5 284.43L251.92 281.81L253.44 279.24L255.07 276.74L256.78 274.32L258.56 271.96L260.45 269.67L262.43 267.47L264.48 265.33L266.61 263.28L268.82 261.32L271.11 259.43L273.45 257.63L275.89 255.92L278.38 254.31L280.94 252.79L283.56 251.36L286.25 250.03L288.98 248.82L291.78 247.7L294.63 246.68L297.53 245.78L300.46 245L303.46 244.32L306.5 243.76L309.57 243.33L312.68 243L315.83 242.81L319 242.75L322.17 242.81L325.32 243ZM315.04 294.23L313.14 294.6L311.3 295.12L309.5 295.75L307.77 296.53L306.12 297.42L304.52 298.42L303.03 299.55L301.61 300.77L300.29 302.08L299.08 303.5L297.95 305.01L296.95 306.59L296.05 308.24L295.28 309.97L294.65 311.77L294.13 313.63L293.76 315.53L293.54 317.48L293.45 319.47L293.54 321.48L293.76 323.43L294.13 325.33L294.65 327.19L295.28 328.97L296.05 330.72L296.95 332.37L297.95 333.95L299.08 335.45L300.29 336.87L301.61 338.2L303.03 339.42L304.52 340.55L306.12 341.56L307.77 342.45L309.5 343.23L311.3 343.88L313.14 344.4L315.04 344.78L317.01 345.02L319 345.11L319.1 345.11L321.1 345.03L323.04 344.8L324.95 344.41L326.81 343.9L328.59 343.25L330.32 342.48L331.97 341.58L333.55 340.56L335.06 339.44L336.46 338.21L337.77 336.89L339 335.47L340.11 333.96L341.11 332.38L341.99 330.72L342.75 328.99L343.38 327.19L343.88 325.33L344.25 323.43L344.47 321.48L344.55 319.47L344.46 317.48L344.24 315.53L343.87 313.63L343.35 311.77L342.72 309.97L341.95 308.24L341.05 306.59L340.05 305.01L338.92 303.5L337.71 302.08L336.39 300.77L334.97 299.55L333.48 298.42L331.88 297.42L330.23 296.53L328.5 295.75L326.7 295.12L324.86 294.6L322.96 294.23L320.99 294.01L319 293.94L317.01 294.01L315.04 294.23Z" id="aP6Uo0mz"></path></defs><g><g><g><use xlink:href="#bnarWlUEY" opacity="1" fill="#00ae9a" fill-opacity="1"></use><g><use xlink:href="#bnarWlUEY" opacity="1" fill-opacity="0" stroke="#000000" stroke-width="1" stroke-opacity="0"></use></g></g><g><use xlink:href="#a1AetmgZW" opacity="1" fill="#000000" fill-opacity="0"></use><g><use xlink:href="#a1AetmgZW" opacity="1" fill-opacity="0" stroke="#000000" stroke-width="1" stroke-opacity="0"></use></g></g><g><use xlink:href="#g4eIok6kyz" opacity="1" fill="#ffffff" fill-opacity="1"></use><g><use xlink:href="#g4eIok6kyz" opacity="1" fill-opacity="0" stroke="#000000" stroke-width="1" stroke-opacity="0"></use></g></g><g><use xlink:href="#d1hfgVkCj" opacity="1" fill="#000000" fill-opacity="0"></use><g><use xlink:href="#d1hfgVkCj" opacity="1" fill-opacity="0" stroke="#000000" stroke-width="1" stroke-opacity="0"></use></g></g><g><use xlink:href="#i4D656guY" opacity="1" fill="#ffffff" fill-opacity="1"></use><g><use xlink:href="#i4D656guY" opacity="1" fill-opacity="0" stroke="#000000" stroke-width="1" stroke-opacity="0"></use></g></g><g><use xlink:href="#aP6Uo0mz" opacity="1" fill="#000000" fill-opacity="0"></use><g><use xlink:href="#aP6Uo0mz" opacity="1" fill-opacity="0" stroke="#000000" stroke-width="1" stroke-opacity="0"></use></g></g></g></g></svg>