<?xml version="1.0" encoding="UTF-8" standalone="no"?>
<!DOCTYPE svg PUBLIC "-//W3C//DTD SVG 1.1//EN" "http://www.w3.org/Graphics/SVG/1.1/DTD/svg11.dtd">
<svg version="1.1" xmlns="http://www.w3.org/2000/svg" xmlns:xlink="http://www.w3.org/1999/xlink" preserveAspectRatio="xMidYMid meet" viewBox="0 0 640 640" width="640" height="640"><defs><path d="M99.34 540.66C221.21 662.52 418.79 662.52 540.66 540.66C662.53 418.79 662.53 221.2 540.66 99.35C418.79 -22.52 221.21 -22.52 99.34 99.35C-22.53 221.2 -22.53 418.79 99.34 540.66Z" id="i6QweV5pf3"></path><path d="M99.34 540.66C221.21 662.52 418.79 662.52 540.66 540.66C662.53 418.79 662.53 221.2 540.66 99.35C418.79 -22.52 221.21 -22.52 99.34 99.35C-22.53 221.2 -22.53 418.79 99.34 540.66Z" id="b6OU9UjYEc"></path><path d="M442.73 427.29C442.73 435.69 442.73 440.37 442.73 441.3C442.73 441.3 442.73 441.3 442.73 441.3C301.29 441.3 222.71 441.3 207 441.3C207 441.3 207 441.3 207 441.3C207 432.9 207 428.22 207 427.29C207 427.29 207 427.29 207 427.29C348.43 427.29 427.02 427.29 442.73 427.29C442.73 427.29 442.73 427.29 442.73 427.29Z" id="c1AUkdoRAP"></path><path d="M442.73 427.29C442.73 435.69 442.73 440.37 442.73 441.3C442.73 441.3 442.73 441.3 442.73 441.3C301.29 441.3 222.71 441.3 207 441.3C207 441.3 207 441.3 207 441.3C207 432.9 207 428.22 207 427.29C207 427.29 207 427.29 207 427.29C348.43 427.29 427.02 427.29 442.73 427.29C442.73 427.29 442.73 427.29 442.73 427.29Z" id="f4ElIrCuK4"></path><path d="M312.06 100.68C255.92 104.65 210.03 146.98 201.52 202.61C200.18 202.39 189.39 200.62 188.05 200.4C198.2 135.06 254.56 86.92 320.7 87.13C390.71 87.47 448.89 141.18 454.83 210.94C452.02 211.21 443.55 212.03 440.72 212.31C436.02 145.95 378.42 95.97 312.06 100.68Z" id="a3b83fZADn"></path><path d="M312.06 100.68C255.92 104.65 210.03 146.98 201.52 202.61C200.18 202.39 189.39 200.62 188.05 200.4C198.2 135.06 254.56 86.92 320.7 87.13C390.71 87.47 448.89 141.18 454.83 210.94C452.02 211.21 443.55 212.03 440.72 212.31C436.02 145.95 378.42 95.97 312.06 100.68Z" id="a1lSDNrEBL"></path><path d="M199.78 194.4C202.2 194.34 204.6 194.34 207 194.4C237.11 194.51 266.17 205.5 288.8 225.36C287.89 226.41 280.56 234.83 279.64 235.89C259.7 217.98 233.8 208.14 207 208.3C146.59 208.3 97.61 257.29 97.61 317.69C97.61 378.1 146.59 427.09 207 427.09C207.12 427.09 207.76 427.09 208.89 427.09C208.89 428.48 208.89 439.68 208.89 441.08C208.89 441.08 208.89 441.08 208.89 441.08C208.29 441.31 207.63 441.39 207 441.3C138.82 443.29 81.94 389.63 79.95 321.45C77.96 253.28 131.61 196.39 199.78 194.4Z" id="b2OaVWyT47"></path><path d="M199.78 194.4C202.2 194.34 204.6 194.34 207 194.4C237.11 194.51 266.17 205.5 288.8 225.36C287.89 226.41 280.56 234.83 279.64 235.89C259.7 217.98 233.8 208.14 207 208.3C146.59 208.3 97.61 257.29 97.61 317.69C97.61 378.1 146.59 427.09 207 427.09C207.12 427.09 207.76 427.09 208.89 427.09C208.89 428.48 208.89 439.68 208.89 441.08C208.89 441.08 208.89 441.08 208.89 441.08C208.29 441.31 207.63 441.39 207 441.3C138.82 443.29 81.94 389.63 79.95 321.45C77.96 253.28 131.61 196.39 199.78 194.4Z" id="a419hlIMSG"></path><path d="M438.31 441.3C438.31 432.89 438.31 428.22 438.31 427.29C438.31 427.29 438.31 427.29 438.31 427.29C495.79 426.06 541.4 378.46 540.18 320.96C539 265.94 495.19 221.33 440.2 219.15C440.2 217.74 440.2 206.55 440.2 205.14C505.44 205.96 557.67 259.51 556.84 324.75C556.04 389.99 502.49 442.21 437.25 441.39C437.39 441.38 437.74 441.35 438.31 441.3C438.31 441.3 438.31 441.3 438.31 441.3Z" id="c1TB9fxjyV"></path><path d="M438.31 441.3C438.31 432.89 438.31 428.22 438.31 427.29C438.31 427.29 438.31 427.29 438.31 427.29C495.79 426.06 541.4 378.46 540.18 320.96C539 265.94 495.19 221.33 440.2 219.15C440.2 217.74 440.2 206.55 440.2 205.14C505.44 205.96 557.67 259.51 556.84 324.75C556.04 389.99 502.49 442.21 437.25 441.39C437.39 441.38 437.74 441.35 438.31 441.3C438.31 441.3 438.31 441.3 438.31 441.3Z" id="c3Bti5VAEW"></path><path d="M403.38 323.96L406.74 333.07L409.25 339.88L411.67 346.43L412.22 346.54L413.88 346.92L414.43 347.07L414.98 347.19L415.54 347.35L416.07 347.49L416.62 347.65L417.16 347.81L417.71 347.97L418.25 348.12L419.86 348.65L421.47 349.21L421.99 349.42L422.53 349.61L423.05 349.81L423.59 350.03L424.11 350.24L425.15 350.68L425.67 350.92L426.18 351.14L426.7 351.38L427.21 351.61L427.73 351.87L429.75 352.88L430.25 353.15L430.74 353.41L431.25 353.7L431.74 353.97L432.72 354.54L459.79 340.32L483.36 369.92L465.25 392.23L465.49 392.85L466.15 394.7L466.35 395.31L466.56 395.94L466.77 396.56L467.14 397.82L467.32 398.44L467.67 399.7L467.82 400.33L467.98 400.98L468.12 401.61L468.28 402.24L468.42 402.89L468.55 403.52L468.68 404.17L468.8 404.8L469.13 406.74L469.23 407.38L469.32 408.02L469.48 409.32L469.56 409.98L469.75 411.92L469.8 412.57L469.84 413.24L469.89 413.88L469.92 414.55L469.94 415.19L469.97 415.84L469.99 416.5L469.99 417.82L492.1 432.98L478.94 468.03L451.67 464.24L451.24 464.73L450.8 465.22L450.36 465.7L449.91 466.19L449.46 466.66L449 467.12L448.54 467.59L448.08 468.05L447.14 468.97L446.19 469.85L445.7 470.29L445.21 470.72L444.72 471.16L444.21 471.59L443.72 472L443.22 472.42L442.71 472.84L442.19 473.23L441.69 473.64L440.64 474.43L440.12 474.81L439.59 475.2L439.05 475.58L438.53 475.95L437.98 476.33L437.44 476.69L436.89 477.04L436.35 477.4L435.8 477.75L435.23 478.09L434.68 478.43L433.54 479.09L432.97 479.4L432.4 479.74L431.83 480.04L431.25 480.35L430.19 509.09L392.92 515.84L383.3 489.73L383.16 489.35L382.4 487.3L381.83 487.19L380.18 486.81L379.62 486.67L379.09 486.53L377.98 486.24L377.44 486.09L376.89 485.93L375.82 485.61L375.26 485.44L374.73 485.26L374.19 485.07L373.65 484.9L373.13 484.71L372.6 484.52L372.06 484.32L371.54 484.13L371 483.92L370.48 483.7L369.96 483.5L368.92 483.05L368.4 482.82L367.87 482.59L367.37 482.36L366.85 482.12L364.32 480.86L363.31 480.32L362.82 480.04L362.33 479.77L361.83 479.48L361.34 479.2L334.17 493.41L310.6 463.61L328.39 441.39L328.16 440.78L327.94 440.18L327.71 439.55L327.49 438.93L327.08 437.7L326.88 437.07L326.69 436.43L326.51 435.82L326.32 435.19L325.98 433.92L325.66 432.66L325.52 432.03L325.36 431.38L325.24 430.75L325.09 430.1L324.97 429.47L324.84 428.82L324.73 428.17L324.62 427.54L324.51 426.9L324.32 425.6L324.08 423.66L324.02 423.01L323.96 422.35L323.89 421.7L323.8 420.41L323.77 419.74L323.72 419.09L323.7 418.43L323.67 417.78L323.66 417.12L323.66 415.81L322.3 414.89L322.01 414.7L300.92 400.44L315.02 365.7L334.11 368.35L342.29 369.49L342.72 369L343.16 368.51L343.6 368.04L344.04 367.55L344.5 367.07L344.96 366.62L345.42 366.14L345.88 365.68L346.82 364.77L347.77 363.88L348.26 363.44L348.75 363.02L349.24 362.57L349.74 362.15L350.23 361.74L350.74 361.31L351.24 360.9L351.77 360.51L352.27 360.09L353.31 359.3L353.83 358.93L354.37 358.53L354.91 358.15L355.43 357.79L355.98 357.41L356.52 357.05L357.07 356.7L357.61 356.34L358.16 355.99L358.73 355.64L359.28 355.31L360.42 354.65L360.99 354.33L361.56 354L362.13 353.7L362.71 353.38L363.86 324.64L401.13 317.9L402.95 322.81L403.38 323.96ZM367.97 353.07L367.97 356.65L367.7 356.79L366.94 357.2L366.39 357.49L366.01 357.69L365.62 357.9L365.54 357.95L365.24 358.1L365.05 358.22L364.87 358.29L364.86 358.31L364.81 358.33L364.29 358.61L363.75 358.89L363.23 359.19L362.71 359.48L362.19 359.78L361.67 360.09L361.16 360.39L360.64 360.71L360.14 361.03L359.63 361.36L359.14 361.69L358.64 362.02L358.15 362.35L357.64 362.7L357.17 363.03L356.68 363.4L356.19 363.74L354.77 364.83L354.29 365.21L353.83 365.59L353.36 365.97L352.9 366.35L352.46 366.74L352 367.14L351.12 367.93L350.23 368.75L349.81 369.16L349.37 369.59L348.94 370L348.53 370.42L348.1 370.86L347.69 371.29L346.87 372.18L346.48 372.62L346.08 373.08L345.94 373.22L345.92 373.25L344.6 374.77L344.5 374.86L343.87 375.6L340.49 375.6L318.29 372.54L308.59 398.34L327.45 410.98L329.86 412.56L329.86 416.52L329.88 417.12L329.88 417.72L329.91 418.32L329.93 418.9L329.99 420.11L330.08 421.31L330.13 421.89L330.26 423.09L330.32 423.67L330.38 424.27L330.46 424.86L330.56 425.44L330.64 426.04L330.73 426.63L330.84 427.21L330.95 427.81L331.17 428.98L331.55 430.73L331.69 431.3L331.98 432.47L332.14 433.04L332.29 433.62L332.47 434.19L332.63 434.76L332.8 435.33L332.99 435.91L333.18 436.48L333.37 437.03L333.56 437.6L333.97 438.74L334.17 439.29L335.75 442.77L333.54 445.5L318.6 463.93L335.75 484.98L358.18 473.2L361.24 471.62L364.29 473.29L365.21 473.83L366.12 474.34L366.6 474.57L367.05 474.83L367.53 475.06L367.98 475.3L368.46 475.54L369.41 475.98L369.9 476.2L370.37 476.42L370.84 476.63L371.82 477.04L372.3 477.24L374.25 478L374.76 478.17L375.74 478.52L376.24 478.68L376.75 478.85L377.24 479.01L377.74 479.15L378.25 479.31L379.77 479.74L380.27 479.86L380.79 479.99L381.3 480.12L381.82 480.24L382.32 480.35L382.85 480.46L383.35 480.57L383.87 480.67L387.35 481.41L388.61 484.66L397.34 508.67L424.82 503.84L425.77 480.15L425.77 476.56L426.05 476.42L427.35 475.73L428.14 475.3L428.2 475.27L428.34 475.19L428.93 474.87L429.46 474.6L429.99 474.34L430.52 474.05L431.56 473.48L432.09 473.18L432.59 472.88L433.11 472.58L434.63 471.64L435.12 471.32L435.62 470.99L437.09 469.99L437.58 469.65L438.05 469.3L438.54 468.93L439.02 468.59L439.48 468.22L439.95 467.86L440.42 467.48L440.88 467.1L441.34 466.74L441.8 466.34L442.24 465.97L442.68 465.57L443.14 465.18L443.57 464.78L444.45 463.96L445.3 463.14L445.73 462.71L446.96 461.43L447.37 460.99L447.78 460.56L449.99 458.04L453.36 458.04L475.58 461.09L485.46 435.71L466.73 423.39L463.89 421.49L463.89 417.1L463.88 416.5L463.86 415.92L463.83 414.72L463.8 414.12L463.75 413.52L463.72 412.92L463.67 412.34L463.62 411.74L463.56 411.14L463.5 410.55L463.43 409.95L463.35 409.37L463.28 408.77L463.2 408.18L463.1 407.58L462.91 406.41L462.58 404.66L462.2 402.91L461.92 401.74L461.76 401.17L461.62 400.59L461.46 400.02L461.29 399.43L460.76 397.73L460.2 396.02L459.99 395.45L459.79 394.9L459.56 394.33L458.3 390.97L460.51 388.24L475.26 368.86L458.1 347.81L435.56 359.49L432.51 361.07L429.46 359.38L429.01 359.12L428.09 358.61L427.62 358.36L426.7 357.85L425.75 357.38L425.28 357.16L424.81 356.92L423.38 356.26L422.89 356.05L422.42 355.85L421.44 355.44L420.97 355.25L419.99 354.87L419.48 354.68L418.5 354.33L418 354.16L417.51 354L417 353.83L416.5 353.67L416.01 353.52L415.5 353.37L414.49 353.08L413.99 352.96L413.47 352.81L412.46 352.56L411.93 352.45L411.43 352.32L410.91 352.21L410.39 352.12L409.88 352.01L406.41 351.28L405.14 348.01L395.98 324.44L368.92 329.27L367.97 353.07Z" id="i75IKDr9l"></path><path d="M403.38 323.96L406.74 333.07L409.25 339.88L411.67 346.43L412.22 346.54L413.88 346.92L414.43 347.07L414.98 347.19L415.54 347.35L416.07 347.49L416.62 347.65L417.16 347.81L417.71 347.97L418.25 348.12L419.86 348.65L421.47 349.21L421.99 349.42L422.53 349.61L423.05 349.81L423.59 350.03L424.11 350.24L425.15 350.68L425.67 350.92L426.18 351.14L426.7 351.38L427.21 351.61L427.73 351.87L429.75 352.88L430.25 353.15L430.74 353.41L431.25 353.7L431.74 353.97L432.72 354.54L459.79 340.32L483.36 369.92L465.25 392.23L465.49 392.85L466.15 394.7L466.35 395.31L466.56 395.94L466.77 396.56L467.14 397.82L467.32 398.44L467.67 399.7L467.82 400.33L467.98 400.98L468.12 401.61L468.28 402.24L468.42 402.89L468.55 403.52L468.68 404.17L468.8 404.8L469.13 406.74L469.23 407.38L469.32 408.02L469.48 409.32L469.56 409.98L469.75 411.92L469.8 412.57L469.84 413.24L469.89 413.88L469.92 414.55L469.94 415.19L469.97 415.84L469.99 416.5L469.99 417.82L492.1 432.98L478.94 468.03L451.67 464.24L451.24 464.73L450.8 465.22L450.36 465.7L449.91 466.19L449.46 466.66L449 467.12L448.54 467.59L448.08 468.05L447.14 468.97L446.19 469.85L445.7 470.29L445.21 470.72L444.72 471.16L444.21 471.59L443.72 472L443.22 472.42L442.71 472.84L442.19 473.23L441.69 473.64L440.64 474.43L440.12 474.81L439.59 475.2L439.05 475.58L438.53 475.95L437.98 476.33L437.44 476.69L436.89 477.04L436.35 477.4L435.8 477.75L435.23 478.09L434.68 478.43L433.54 479.09L432.97 479.4L432.4 479.74L431.83 480.04L431.25 480.35L430.19 509.09L392.92 515.84L383.3 489.73L383.16 489.35L382.4 487.3L381.83 487.19L380.18 486.81L379.62 486.67L379.09 486.53L377.98 486.24L377.44 486.09L376.89 485.93L375.82 485.61L375.26 485.44L374.73 485.26L374.19 485.07L373.65 484.9L373.13 484.71L372.6 484.52L372.06 484.32L371.54 484.13L371 483.92L370.48 483.7L369.96 483.5L368.92 483.05L368.4 482.82L367.87 482.59L367.37 482.36L366.85 482.12L364.32 480.86L363.31 480.32L362.82 480.04L362.33 479.77L361.83 479.48L361.34 479.2L334.17 493.41L310.6 463.61L328.39 441.39L328.16 440.78L327.94 440.18L327.71 439.55L327.49 438.93L327.08 437.7L326.88 437.07L326.69 436.43L326.51 435.82L326.32 435.19L325.98 433.92L325.66 432.66L325.52 432.03L325.36 431.38L325.24 430.75L325.09 430.1L324.97 429.47L324.84 428.82L324.73 428.17L324.62 427.54L324.51 426.9L324.32 425.6L324.08 423.66L324.02 423.01L323.96 422.35L323.89 421.7L323.8 420.41L323.77 419.74L323.72 419.09L323.7 418.43L323.67 417.78L323.66 417.12L323.66 415.81L322.3 414.89L322.01 414.7L300.92 400.44L315.02 365.7L334.11 368.35L342.29 369.49L342.72 369L343.16 368.51L343.6 368.04L344.04 367.55L344.5 367.07L344.96 366.62L345.42 366.14L345.88 365.68L346.82 364.77L347.77 363.88L348.26 363.44L348.75 363.02L349.24 362.57L349.74 362.15L350.23 361.74L350.74 361.31L351.24 360.9L351.77 360.51L352.27 360.09L353.31 359.3L353.83 358.93L354.37 358.53L354.91 358.15L355.43 357.79L355.98 357.41L356.52 357.05L357.07 356.7L357.61 356.34L358.16 355.99L358.73 355.64L359.28 355.31L360.42 354.65L360.99 354.33L361.56 354L362.13 353.7L362.71 353.38L363.86 324.64L401.13 317.9L402.95 322.81L403.38 323.96ZM367.97 353.07L367.97 356.65L367.7 356.79L366.94 357.2L366.39 357.49L366.01 357.69L365.62 357.9L365.54 357.95L365.24 358.1L365.05 358.22L364.87 358.29L364.86 358.31L364.81 358.33L364.29 358.61L363.75 358.89L363.23 359.19L362.71 359.48L362.19 359.78L361.67 360.09L361.16 360.39L360.64 360.71L360.14 361.03L359.63 361.36L359.14 361.69L358.64 362.02L358.15 362.35L357.64 362.7L357.17 363.03L356.68 363.4L356.19 363.74L354.77 364.83L354.29 365.21L353.83 365.59L353.36 365.97L352.9 366.35L352.46 366.74L352 367.14L351.12 367.93L350.23 368.75L349.81 369.16L349.37 369.59L348.94 370L348.53 370.42L348.1 370.86L347.69 371.29L346.87 372.18L346.48 372.62L346.08 373.08L345.94 373.22L345.92 373.25L344.6 374.77L344.5 374.86L343.87 375.6L340.49 375.6L318.29 372.54L308.59 398.34L327.45 410.98L329.86 412.56L329.86 416.52L329.88 417.12L329.88 417.72L329.91 418.32L329.93 418.9L329.99 420.11L330.08 421.31L330.13 421.89L330.26 423.09L330.32 423.67L330.38 424.27L330.46 424.86L330.56 425.44L330.64 426.04L330.73 426.63L330.84 427.21L330.95 427.81L331.17 428.98L331.55 430.73L331.69 431.3L331.98 432.47L332.14 433.04L332.29 433.62L332.47 434.19L332.63 434.76L332.8 435.33L332.99 435.91L333.18 436.48L333.37 437.03L333.56 437.6L333.97 438.74L334.17 439.29L335.75 442.77L333.54 445.5L318.6 463.93L335.75 484.98L358.18 473.2L361.24 471.62L364.29 473.29L365.21 473.83L366.12 474.34L366.6 474.57L367.05 474.83L367.53 475.06L367.98 475.3L368.46 475.54L369.41 475.98L369.9 476.2L370.37 476.42L370.84 476.63L371.82 477.04L372.3 477.24L374.25 478L374.76 478.17L375.74 478.52L376.24 478.68L376.75 478.85L377.24 479.01L377.74 479.15L378.25 479.31L379.77 479.74L380.27 479.86L380.79 479.99L381.3 480.12L381.82 480.24L382.32 480.35L382.85 480.46L383.35 480.57L383.87 480.67L387.35 481.41L388.61 484.66L397.34 508.67L424.82 503.84L425.77 480.15L425.77 476.56L426.05 476.42L427.35 475.73L428.14 475.3L428.2 475.27L428.34 475.19L428.93 474.87L429.46 474.6L429.99 474.34L430.52 474.05L431.56 473.48L432.09 473.18L432.59 472.88L433.11 472.58L434.63 471.64L435.12 471.32L435.62 470.99L437.09 469.99L437.58 469.65L438.05 469.3L438.54 468.93L439.02 468.59L439.48 468.22L439.95 467.86L440.42 467.48L440.88 467.1L441.34 466.74L441.8 466.34L442.24 465.97L442.68 465.57L443.14 465.18L443.57 464.78L444.45 463.96L445.3 463.14L445.73 462.71L446.96 461.43L447.37 460.99L447.78 460.56L449.99 458.04L453.36 458.04L475.58 461.09L485.46 435.71L466.73 423.39L463.89 421.49L463.89 417.1L463.88 416.5L463.86 415.92L463.83 414.72L463.8 414.12L463.75 413.52L463.72 412.92L463.67 412.34L463.62 411.74L463.56 411.14L463.5 410.55L463.43 409.95L463.35 409.37L463.28 408.77L463.2 408.18L463.1 407.58L462.91 406.41L462.58 404.66L462.2 402.91L461.92 401.74L461.76 401.17L461.62 400.59L461.46 400.02L461.29 399.43L460.76 397.73L460.2 396.02L459.99 395.45L459.79 394.9L459.56 394.33L458.3 390.97L460.51 388.24L475.26 368.86L458.1 347.81L435.56 359.49L432.51 361.07L429.46 359.38L429.01 359.12L428.09 358.61L427.62 358.36L426.7 357.85L425.75 357.38L425.28 357.16L424.81 356.92L423.38 356.26L422.89 356.05L422.42 355.85L421.44 355.44L420.97 355.25L419.99 354.87L419.48 354.68L418.5 354.33L418 354.16L417.51 354L417 353.83L416.5 353.67L416.01 353.52L415.5 353.37L414.49 353.08L413.99 352.96L413.47 352.81L412.46 352.56L411.93 352.45L411.43 352.32L410.91 352.21L410.39 352.12L409.88 352.01L406.41 351.28L405.14 348.01L395.98 324.44L368.92 329.27L367.97 353.07Z" id="beOkDx0zx"></path><path d="M400.22 379.35L402.19 379.6L404.18 379.96L406.15 380.43L408.13 381L410.09 381.7L410.1 381.71L410.15 381.73L410.21 381.75L410.24 381.76L410.26 381.78L410.32 381.79L410.37 381.81L410.43 381.84L410.48 381.86L410.54 381.89L410.59 381.9L410.66 381.92L410.69 381.94L410.75 381.95L412.68 382.79L414.54 383.7L416.32 384.71L418.05 385.8L419.69 386.97L421.25 388.22L422.75 389.55L424.16 390.94L425.5 392.41L426.75 393.92L427.92 395.5L429.01 397.13L430 398.82L430.92 400.55L431.74 402.32L432.46 404.14L433.11 405.99L433.65 407.88L434.09 409.79L434.44 411.72L434.69 413.68L434.83 415.65L434.88 417.63L434.82 419.63L434.66 421.62L434.39 423.63L434 425.63L433.51 427.62L432.91 429.6L432.18 431.57L431.36 433.5L430.44 435.36L429.43 437.14L428.34 438.87L427.16 440.51L425.91 442.09L424.58 443.57L423.19 444.99L421.74 446.32L420.23 447.58L418.63 448.75L417 449.84L415.31 450.84L413.59 451.75L411.81 452.57L409.99 453.3L408.14 453.93L406.27 454.47L404.35 454.93L402.41 455.27L400.47 455.51L398.5 455.67L396.51 455.72L394.52 455.65L392.51 455.48L390.5 455.21L388.51 454.83L386.52 454.33L384.54 453.73L382.56 453L380.63 452.18L378.77 451.26L376.99 450.25L375.26 449.16L373.62 447.99L372.06 446.75L370.56 445.42L369.15 444.03L367.81 442.56L366.56 441.05L365.39 439.47L364.31 437.82L363.31 436.15L362.39 434.41L361.57 432.64L360.85 430.83L360.2 428.98L359.66 427.09L359.22 425.17L358.87 423.25L358.62 421.29L358.48 419.32L358.43 417.33L358.49 415.34L358.65 413.35L358.92 411.34L359.31 409.33L359.8 407.34L360.4 405.36L361.13 403.4L361.94 401.47L362.82 399.62L363.82 397.84L364.87 396.13L366.03 394.49L367.24 392.93L368.55 391.44L369.91 390.02L371.35 388.69L372.85 387.43L374.4 386.26L376.01 385.17L377.67 384.18L379.37 383.25L381.12 382.42L382.91 381.68L384.74 381.04L386.6 380.48L388.48 380.02L390.39 379.66L392.34 379.39L394.29 379.23L396.25 379.17L398.23 379.2L400.22 379.35ZM393.22 404.98L391.39 405.67L389.7 406.65L388.15 407.87L386.81 409.32L385.7 411.01L384.84 412.9L384.3 414.89L384.09 416.9L384.2 418.89L384.61 420.82L385.31 422.63L386.27 424.34L387.5 425.87L388.96 427.21L390.65 428.33L392.53 429.19L394.53 429.72L396.54 429.94L398.53 429.83L400.44 429.42L402.27 428.71L403.98 427.75L405.51 426.53L406.85 425.06L407.97 423.39L408.82 421.49L409.38 419.52L409.6 417.53L409.5 415.57L409.11 413.66L408.44 411.85L407.5 410.16L406.3 408.62L404.86 407.27L403.22 406.14L401.35 405.29L401.29 405.26L401.24 405.24L401.23 405.24L401.13 405.21L399.13 404.66L397.12 404.45L395.15 404.57L393.22 404.98Z" id="a5auGLrEhr"></path><path d="M400.22 379.35L402.19 379.6L404.18 379.96L406.15 380.43L408.13 381L410.09 381.7L410.1 381.71L410.15 381.73L410.21 381.75L410.24 381.76L410.26 381.78L410.32 381.79L410.37 381.81L410.43 381.84L410.48 381.86L410.54 381.89L410.59 381.9L410.66 381.92L410.69 381.94L410.75 381.95L412.68 382.79L414.54 383.7L416.32 384.71L418.05 385.8L419.69 386.97L421.25 388.22L422.75 389.55L424.16 390.94L425.5 392.41L426.75 393.92L427.92 395.5L429.01 397.13L430 398.82L430.92 400.55L431.74 402.32L432.46 404.14L433.11 405.99L433.65 407.88L434.09 409.79L434.44 411.72L434.69 413.68L434.83 415.65L434.88 417.63L434.82 419.63L434.66 421.62L434.39 423.63L434 425.63L433.51 427.62L432.91 429.6L432.18 431.57L431.36 433.5L430.44 435.36L429.43 437.14L428.34 438.87L427.16 440.51L425.91 442.09L424.58 443.57L423.19 444.99L421.74 446.32L420.23 447.58L418.63 448.75L417 449.84L415.31 450.84L413.59 451.75L411.81 452.57L409.99 453.3L408.14 453.93L406.27 454.47L404.35 454.93L402.41 455.27L400.47 455.51L398.5 455.67L396.51 455.72L394.52 455.65L392.51 455.48L390.5 455.21L388.51 454.83L386.52 454.33L384.54 453.73L382.56 453L380.63 452.18L378.77 451.26L376.99 450.25L375.26 449.16L373.62 447.99L372.06 446.75L370.56 445.42L369.15 444.03L367.81 442.56L366.56 441.05L365.39 439.47L364.31 437.82L363.31 436.15L362.39 434.41L361.57 432.64L360.85 430.83L360.2 428.98L359.66 427.09L359.22 425.17L358.87 423.25L358.62 421.29L358.48 419.32L358.43 417.33L358.49 415.34L358.65 413.35L358.92 411.34L359.31 409.33L359.8 407.34L360.4 405.36L361.13 403.4L361.94 401.47L362.82 399.62L363.82 397.84L364.87 396.13L366.03 394.49L367.24 392.93L368.55 391.44L369.91 390.02L371.35 388.69L372.85 387.43L374.4 386.26L376.01 385.17L377.67 384.18L379.37 383.25L381.12 382.42L382.91 381.68L384.74 381.04L386.6 380.48L388.48 380.02L390.39 379.66L392.34 379.39L394.29 379.23L396.25 379.17L398.23 379.2L400.22 379.35ZM393.22 404.98L391.39 405.67L389.7 406.65L388.15 407.87L386.81 409.32L385.7 411.01L384.84 412.9L384.3 414.89L384.09 416.9L384.2 418.89L384.61 420.82L385.31 422.63L386.27 424.34L387.5 425.87L388.96 427.21L390.65 428.33L392.53 429.19L394.53 429.72L396.54 429.94L398.53 429.83L400.44 429.42L402.27 428.71L403.98 427.75L405.51 426.53L406.85 425.06L407.97 423.39L408.82 421.49L409.38 419.52L409.6 417.53L409.5 415.57L409.11 413.66L408.44 411.85L407.5 410.16L406.3 408.62L404.86 407.27L403.22 406.14L401.35 405.29L401.29 405.26L401.24 405.24L401.23 405.24L401.13 405.21L399.13 404.66L397.12 404.45L395.15 404.57L393.22 404.98Z" id="a3C4goJdC8"></path><path d="M409.11 355.37L409.61 355.48L410.1 355.58L411.08 355.8L411.59 355.93L413.06 356.3L413.53 356.45L414.02 356.57L414.51 356.71L414.98 356.87L415.47 357.02L415.95 357.17L416.44 357.33L416.91 357.49L418.8 358.18L419.75 358.56L420.21 358.75L420.68 358.94L421.14 359.15L421.6 359.34L422.07 359.56L422.99 359.97L423.43 360.19L423.89 360.41L424.35 360.65L424.79 360.87L425.25 361.11L426.13 361.58L427.46 362.34L427.74 362.18L428.12 361.99L428.6 361.74L433.43 359.19L435.8 357.96L437.12 357.27L438.54 356.53L440.06 355.72L443.38 353.98L445.18 353.04L447.07 352.04L449.06 351L451.15 349.91L472.2 375.81L457.54 393.89L457.16 394.35L456.41 395.28L456.61 395.82L456.82 396.37L457.2 397.44L457.37 398L457.54 398.53L457.89 399.64L458.05 400.18L458.36 401.28L458.65 402.39L458.79 402.95L459.04 404.06L459.17 404.63L459.28 405.18L459.39 405.75L459.5 406.3L459.79 408.01L459.86 408.56L460.02 409.7L460.27 411.97L460.32 412.56L460.35 413.12L460.4 413.69L460.43 414.26L460.46 414.85L460.5 415.98L460.51 416.57L460.51 417.7L481.15 430.97L469.58 461.72L445.67 458.35L444.91 459.21L444.51 459.63L443.72 460.45L443.33 460.88L442.52 461.69L441.7 462.48L441.28 462.87L440.87 463.27L440.01 464.02L439.57 464.4L439.14 464.78L437.82 465.87L437.38 466.22L436.92 466.58L436.46 466.93L436 467.26L435.54 467.61L435.09 467.94L434.61 468.27L434.15 468.6L433.68 468.92L433.21 469.25L432.72 469.55L432.24 469.87L430.29 471.07L429.78 471.35L429.29 471.64L428.78 471.92L427.77 472.46L427.49 479.97L426.83 497.52L394.29 503.41L386.43 483.13L384.98 479.39L384.61 478.46L384.11 478.36L383.62 478.25L383.11 478.16L382.62 478.05L382.13 477.92L381.65 477.81L380.18 477.43L379.69 477.29L379.2 477.16L378.72 477.02L378.23 476.86L377.74 476.72L376.8 476.4L376.31 476.25L374.41 475.55L373.94 475.36L373.48 475.17L373.01 474.98L372.55 474.79L372.07 474.59L370.7 473.97L370.24 473.75L369.79 473.55L369.33 473.32L368.87 473.09L368.43 472.87L367.98 472.63L367.53 472.39L367.08 472.16L365.76 471.4L342.61 483.83L321.54 457.93L334.68 441.72L335.25 441.01L336.19 439.85L337.33 438.46L337.14 437.92L336.94 437.37L336.56 436.29L336.37 435.74L336.19 435.2L336.02 434.65L335.86 434.1L335.71 433.56L335.39 432.45L335.11 431.35L334.96 430.78L334.71 429.68L334.58 429.11L334.47 428.55L334.36 427.99L334.25 427.43L333.97 425.73L333.89 425.17L333.65 423.47L333.59 422.9L333.54 422.33L333.48 421.76L333.43 421.18L333.38 420.61L333.32 419.47L333.29 418.89L333.26 417.75L333.24 417.17L333.23 416.6L333.23 416.03L313.12 402.77L323.97 372.02L347.87 375.38L348.62 374.53L349.02 374.1L349.81 373.28L350.2 372.85L350.61 372.46L351.01 372.05L351.42 371.65L351.85 371.26L352.26 370.86L352.68 370.47L354.39 368.95L355.71 367.86L356.17 367.52L356.61 367.15L357.07 366.81L357.53 366.47L357.99 366.13L358.45 365.8L359.39 365.13L359.87 364.82L360.34 364.48L360.82 364.18L361.3 363.87L361.78 363.57L363.25 362.67L364.26 362.1L364.75 361.82L365.76 361.28L365.82 358.77L366.39 336.22L398.92 330.33L408.62 355.28L409.11 355.37ZM371.66 361.48L371.66 364.01L368.92 365.5L368.46 365.73L368 365.99L367.54 366.25L367.08 366.51L366.63 366.77L366.18 367.04L365.73 367.31L365.28 367.6L364.84 367.86L364.4 368.15L363.97 368.45L363.53 368.73L362.25 369.63L361.83 369.95L361.42 370.25L360.99 370.56L360.58 370.9L360.17 371.21L359.35 371.88L358.56 372.54L357.37 373.58L356.99 373.93L356.6 374.29L355.84 375.02L355.48 375.38L355.1 375.74L353.65 377.26L352.6 378.45L350.6 380.66L347.66 380.66L328.17 377.91L319.64 400.44L336.07 410.98L338.6 413.08L338.6 416.76L338.63 417.8L338.64 418.34L338.66 418.86L338.75 420.42L338.85 421.46L338.9 421.97L338.94 422.49L339.13 424.05L339.21 424.56L339.37 425.6L339.46 426.11L339.56 426.63L339.65 427.13L339.76 427.65L339.86 428.16L339.97 428.66L340.1 429.17L340.21 429.68L340.33 430.2L340.47 430.7L340.6 431.19L341.03 432.71L341.19 433.2L341.34 433.7L341.5 434.19L341.67 434.7L342.02 435.68L342.21 436.17L342.39 436.66L343.55 439.61L341.55 442.02L328.49 458.13L343.44 476.99L363.03 466.46L365.76 465.08L368.08 466.25L368.47 466.47L368.88 466.71L369.28 466.93L369.69 467.15L370.1 467.36L370.51 467.58L370.91 467.78L371.33 467.99L372.15 468.4L372.56 468.59L372.99 468.78L373.4 468.97L373.83 469.16L375.96 470.02L376.81 470.34L377.25 470.5L377.68 470.66L378.12 470.8L378.55 470.94L379.43 471.22L381.65 471.86L382.09 471.97L382.55 472.08L382.99 472.19L383.43 472.28L383.89 472.39L384.33 472.49L384.79 472.58L385.25 472.66L388.29 473.29L389.35 476.14L397.34 497.2L421.46 493.82L422.29 472.77L422.29 469.72L425.04 468.24L425.5 468L425.96 467.75L426.42 467.48L426.87 467.23L427.33 466.96L427.77 466.69L428.23 466.42L428.67 466.14L429.12 465.87L429.56 465.59L429.99 465.29L430.43 465L431.71 464.1L432.13 463.79L432.54 463.49L432.97 463.17L433.38 462.84L433.79 462.52L434.61 461.86L435.4 461.2L436.59 460.15L436.97 459.81L437.36 459.44L438.12 458.72L438.48 458.35L438.86 457.99L440.31 456.47L441.36 455.29L443.36 453.08L446.3 453.08L465.47 455.61L474.2 432.55L457.78 422.03L455.25 420.34L455.25 416.87L455.24 416.35L455.24 415.83L455.22 415.3L455.19 414.78L455.17 414.26L455.14 413.74L455.09 413.22L455.06 412.7L454.97 411.66L454.78 410.09L454.72 409.59L454.56 408.55L454.48 408.04L454.38 407.52L454.31 407.01L454.19 406.49L454.1 405.99L453.99 405.47L453.77 404.45L453.39 402.94L452.96 401.42L452.82 400.93L452.5 399.92L452.35 399.43L452.17 398.94L452 398.44L451.65 397.46L451.46 396.97L450.31 394.02L452.3 391.6L465.36 375.49L450.4 356.65L430.82 367.17L428.09 368.54L427.63 368.29L425.45 367.07L425.06 366.84L424.66 366.62L423.84 366.17L423.45 365.95L423.04 365.73L421.8 365.12L421.38 364.93L420.97 364.72L420.56 364.53L419.7 364.15L419.29 363.98L417.59 363.28L417.15 363.13L416.29 362.81L415.85 362.67L415.42 362.51L414.1 362.08L413.67 361.96L412.79 361.71L412.33 361.58L411.89 361.45L411 361.23L410.54 361.12L410.1 361.03L409.66 360.92L409.2 360.82L408.74 360.74L408.3 360.65L405.24 360.02L404.2 357.17L396.19 336.12L372.5 340.43L371.66 361.48Z" id="c1PfKVPjWh"></path><path d="M409.11 355.37L409.61 355.48L410.1 355.58L411.08 355.8L411.59 355.93L413.06 356.3L413.53 356.45L414.02 356.57L414.51 356.71L414.98 356.87L415.47 357.02L415.95 357.17L416.44 357.33L416.91 357.49L418.8 358.18L419.75 358.56L420.21 358.75L420.68 358.94L421.14 359.15L421.6 359.34L422.07 359.56L422.99 359.97L423.43 360.19L423.89 360.41L424.35 360.65L424.79 360.87L425.25 361.11L426.13 361.58L427.46 362.34L427.74 362.18L428.12 361.99L428.6 361.74L433.43 359.19L435.8 357.96L437.12 357.27L438.54 356.53L440.06 355.72L443.38 353.98L445.18 353.04L447.07 352.04L449.06 351L451.15 349.91L472.2 375.81L457.54 393.89L457.16 394.35L456.41 395.28L456.61 395.82L456.82 396.37L457.2 397.44L457.37 398L457.54 398.53L457.89 399.64L458.05 400.18L458.36 401.28L458.65 402.39L458.79 402.95L459.04 404.06L459.17 404.63L459.28 405.18L459.39 405.75L459.5 406.3L459.79 408.01L459.86 408.56L460.02 409.7L460.27 411.97L460.32 412.56L460.35 413.12L460.4 413.69L460.43 414.26L460.46 414.85L460.5 415.98L460.51 416.57L460.51 417.7L481.15 430.97L469.58 461.72L445.67 458.35L444.91 459.21L444.51 459.63L443.72 460.45L443.33 460.88L442.52 461.69L441.7 462.48L441.28 462.87L440.87 463.27L440.01 464.02L439.57 464.4L439.14 464.78L437.82 465.87L437.38 466.22L436.92 466.58L436.46 466.93L436 467.26L435.54 467.61L435.09 467.94L434.61 468.27L434.15 468.6L433.68 468.92L433.21 469.25L432.72 469.55L432.24 469.87L430.29 471.07L429.78 471.35L429.29 471.64L428.78 471.92L427.77 472.46L427.49 479.97L426.83 497.52L394.29 503.41L386.43 483.13L384.98 479.39L384.61 478.46L384.11 478.36L383.62 478.25L383.11 478.16L382.62 478.05L382.13 477.92L381.65 477.81L380.18 477.43L379.69 477.29L379.2 477.16L378.72 477.02L378.23 476.86L377.74 476.72L376.8 476.4L376.31 476.25L374.41 475.55L373.94 475.36L373.48 475.17L373.01 474.98L372.55 474.79L372.07 474.59L370.7 473.97L370.24 473.75L369.79 473.55L369.33 473.32L368.87 473.09L368.43 472.87L367.98 472.63L367.53 472.39L367.08 472.16L365.76 471.4L342.61 483.83L321.54 457.93L334.68 441.72L335.25 441.01L336.19 439.85L337.33 438.46L337.14 437.92L336.94 437.37L336.56 436.29L336.37 435.74L336.19 435.2L336.02 434.65L335.86 434.1L335.71 433.56L335.39 432.45L335.11 431.35L334.96 430.78L334.71 429.68L334.58 429.11L334.47 428.55L334.36 427.99L334.25 427.43L333.97 425.73L333.89 425.17L333.65 423.47L333.59 422.9L333.54 422.33L333.48 421.76L333.43 421.18L333.38 420.61L333.32 419.47L333.29 418.89L333.26 417.75L333.24 417.17L333.23 416.6L333.23 416.03L313.12 402.77L323.97 372.02L347.87 375.38L348.62 374.53L349.02 374.1L349.81 373.28L350.2 372.85L350.61 372.46L351.01 372.05L351.42 371.65L351.85 371.26L352.26 370.86L352.68 370.47L354.39 368.95L355.71 367.86L356.17 367.52L356.61 367.15L357.07 366.81L357.53 366.47L357.99 366.13L358.45 365.8L359.39 365.13L359.87 364.82L360.34 364.48L360.82 364.18L361.3 363.87L361.78 363.57L363.25 362.67L364.26 362.1L364.75 361.82L365.76 361.28L365.82 358.77L366.39 336.22L398.92 330.33L408.62 355.28L409.11 355.37ZM371.66 361.48L371.66 364.01L368.92 365.5L368.46 365.73L368 365.99L367.54 366.25L367.08 366.51L366.63 366.77L366.18 367.04L365.73 367.31L365.28 367.6L364.84 367.86L364.4 368.15L363.97 368.45L363.53 368.73L362.25 369.63L361.83 369.95L361.42 370.25L360.99 370.56L360.58 370.9L360.17 371.21L359.35 371.88L358.56 372.54L357.37 373.58L356.99 373.93L356.6 374.29L355.84 375.02L355.48 375.38L355.1 375.74L353.65 377.26L352.6 378.45L350.6 380.66L347.66 380.66L328.17 377.91L319.64 400.44L336.07 410.98L338.6 413.08L338.6 416.76L338.63 417.8L338.64 418.34L338.66 418.86L338.75 420.42L338.85 421.46L338.9 421.97L338.94 422.49L339.13 424.05L339.21 424.56L339.37 425.6L339.46 426.11L339.56 426.63L339.65 427.13L339.76 427.65L339.86 428.16L339.97 428.66L340.1 429.17L340.21 429.68L340.33 430.2L340.47 430.7L340.6 431.19L341.03 432.71L341.19 433.2L341.34 433.7L341.5 434.19L341.67 434.7L342.02 435.68L342.21 436.17L342.39 436.66L343.55 439.61L341.55 442.02L328.49 458.13L343.44 476.99L363.03 466.46L365.76 465.08L368.08 466.25L368.47 466.47L368.88 466.71L369.28 466.93L369.69 467.15L370.1 467.36L370.51 467.58L370.91 467.78L371.33 467.99L372.15 468.4L372.56 468.59L372.99 468.78L373.4 468.97L373.83 469.16L375.96 470.02L376.81 470.34L377.25 470.5L377.68 470.66L378.12 470.8L378.55 470.94L379.43 471.22L381.65 471.86L382.09 471.97L382.55 472.08L382.99 472.19L383.43 472.28L383.89 472.39L384.33 472.49L384.79 472.58L385.25 472.66L388.29 473.29L389.35 476.14L397.34 497.2L421.46 493.82L422.29 472.77L422.29 469.72L425.04 468.24L425.5 468L425.96 467.75L426.42 467.48L426.87 467.23L427.33 466.96L427.77 466.69L428.23 466.42L428.67 466.14L429.12 465.87L429.56 465.59L429.99 465.29L430.43 465L431.71 464.1L432.13 463.79L432.54 463.49L432.97 463.17L433.38 462.84L433.79 462.52L434.61 461.86L435.4 461.2L436.59 460.15L436.97 459.81L437.36 459.44L438.12 458.72L438.48 458.35L438.86 457.99L440.31 456.47L441.36 455.29L443.36 453.08L446.3 453.08L465.47 455.61L474.2 432.55L457.78 422.03L455.25 420.34L455.25 416.87L455.24 416.35L455.24 415.83L455.22 415.3L455.19 414.78L455.17 414.26L455.14 413.74L455.09 413.22L455.06 412.7L454.97 411.66L454.78 410.09L454.72 409.59L454.56 408.55L454.48 408.04L454.38 407.52L454.31 407.01L454.19 406.49L454.1 405.99L453.99 405.47L453.77 404.45L453.39 402.94L452.96 401.42L452.82 400.93L452.5 399.92L452.35 399.43L452.17 398.94L452 398.44L451.65 397.46L451.46 396.97L450.31 394.02L452.3 391.6L465.36 375.49L450.4 356.65L430.82 367.17L428.09 368.54L427.63 368.29L425.45 367.07L425.06 366.84L424.66 366.62L423.84 366.17L423.45 365.95L423.04 365.73L421.8 365.12L421.38 364.93L420.97 364.72L420.56 364.53L419.7 364.15L419.29 363.98L417.59 363.28L417.15 363.13L416.29 362.81L415.85 362.67L415.42 362.51L414.1 362.08L413.67 361.96L412.79 361.71L412.33 361.58L411.89 361.45L411 361.23L410.54 361.12L410.1 361.03L409.66 360.92L409.2 360.82L408.74 360.74L408.3 360.65L405.24 360.02L404.2 357.17L396.19 336.12L372.5 340.43L371.66 361.48Z" id="a8QYwsW1S"></path><path d="M400.64 384.13L402.65 384.45L404.64 384.87L406.63 385.43L408.62 386.12L408.67 386.15L408.71 386.17L408.74 386.17L408.81 386.2L408.86 386.21L408.89 386.23L408.97 386.26L409.01 386.28L409.04 386.29L409.11 386.31L409.16 386.34L409.19 386.34L409.27 386.37L411.21 387.23L413.07 388.17L414.84 389.23L416.55 390.38L418.14 391.62L419.67 392.96L421.09 394.36L422.42 395.85L423.67 397.41L424.81 399.04L425.85 400.71L426.78 402.47L427.62 404.25L428.34 406.1L428.96 407.98L429.48 409.89L429.87 411.83L430.14 413.8L430.3 415.79L430.35 417.8L430.27 419.82L430.06 421.84L429.73 423.86L429.27 425.87L428.69 427.89L427.96 429.88L427.11 431.82L426.16 433.67L425.11 435.46L423.95 437.16L422.72 438.76L421.39 440.27L419.97 441.71L418.49 443.04L416.92 444.28L415.3 445.42L413.62 446.46L411.87 447.39L410.09 448.23L408.24 448.96L406.36 449.57L404.45 450.08L402.51 450.47L400.53 450.76L398.54 450.92L396.54 450.96L394.52 450.88L392.49 450.68L390.47 450.35L388.47 449.89L386.46 449.29L384.46 448.58L382.51 447.73L380.67 446.78L378.88 445.72L377.19 444.57L375.58 443.34L374.06 441.99L372.63 440.59L371.3 439.1L370.05 437.54L368.92 435.91L367.87 434.24L366.94 432.49L366.11 430.7L365.38 428.85L364.76 426.97L364.26 425.06L363.86 423.12L363.58 421.15L363.42 419.16L363.37 417.15L363.45 415.13L363.66 413.11L363.99 411.09L364.45 409.07L365.05 407.06L365.76 405.07L366.58 403.14L367.51 401.3L368.54 399.53L369.66 397.84L370.87 396.24L372.17 394.73L373.54 393.29L375.01 391.96L376.54 390.72L378.14 389.58L379.8 388.52L381.5 387.59L383.27 386.74L385.09 385.99L386.94 385.36L388.81 384.84L390.74 384.43L392.68 384.15L394.66 383.96L396.65 383.89L398.64 383.96L400.64 384.13ZM392.59 406.93L390.74 408.02L389.15 409.46L387.82 411.23L386.86 413.27L386.3 415.46L386.22 417.66L386.56 419.79L387.28 421.79L388.37 423.63L389.83 425.24L391.58 426.56L393.62 427.53L395.81 428.06L398.01 428.16L400.14 427.83L402.14 427.1L403.99 426L405.59 424.56L406.91 422.81L407.88 420.77L407.94 420.63L407.99 420.5L408.03 420.36L408.08 420.23L408.14 420.09L408.18 419.95L408.22 419.82L408.27 419.68L408.68 417.58L408.67 415.51L408.25 413.52L407.48 411.66L406.36 409.98L404.92 408.53L403.22 407.38L401.24 406.56L401.2 406.54L401.15 406.51L401.12 406.51L398.92 405.96L396.73 405.88L394.59 406.21L392.59 406.93Z" id="eAmgiLCZw"></path><path d="M400.64 384.13L402.65 384.45L404.64 384.87L406.63 385.43L408.62 386.12L408.67 386.15L408.71 386.17L408.74 386.17L408.81 386.2L408.86 386.21L408.89 386.23L408.97 386.26L409.01 386.28L409.04 386.29L409.11 386.31L409.16 386.34L409.19 386.34L409.27 386.37L411.21 387.23L413.07 388.17L414.84 389.23L416.55 390.38L418.14 391.62L419.67 392.96L421.09 394.36L422.42 395.85L423.67 397.41L424.81 399.04L425.85 400.71L426.78 402.47L427.62 404.25L428.34 406.1L428.96 407.98L429.48 409.89L429.87 411.83L430.14 413.8L430.3 415.79L430.35 417.8L430.27 419.82L430.06 421.84L429.73 423.86L429.27 425.87L428.69 427.89L427.96 429.88L427.11 431.82L426.16 433.67L425.11 435.46L423.95 437.16L422.72 438.76L421.39 440.27L419.97 441.71L418.49 443.04L416.92 444.28L415.3 445.42L413.62 446.46L411.87 447.39L410.09 448.23L408.24 448.96L406.36 449.57L404.45 450.08L402.51 450.47L400.53 450.76L398.54 450.92L396.54 450.96L394.52 450.88L392.49 450.68L390.47 450.35L388.47 449.89L386.46 449.29L384.46 448.58L382.51 447.73L380.67 446.78L378.88 445.72L377.19 444.57L375.58 443.34L374.06 441.99L372.63 440.59L371.3 439.1L370.05 437.54L368.92 435.91L367.87 434.24L366.94 432.49L366.11 430.7L365.38 428.85L364.76 426.97L364.26 425.06L363.86 423.12L363.58 421.15L363.42 419.16L363.37 417.15L363.45 415.13L363.66 413.11L363.99 411.09L364.45 409.07L365.05 407.06L365.76 405.07L366.58 403.14L367.51 401.3L368.54 399.53L369.66 397.84L370.87 396.24L372.17 394.73L373.54 393.29L375.01 391.96L376.54 390.72L378.14 389.58L379.8 388.52L381.5 387.59L383.27 386.74L385.09 385.99L386.94 385.36L388.81 384.84L390.74 384.43L392.68 384.15L394.66 383.96L396.65 383.89L398.64 383.96L400.64 384.13ZM392.59 406.93L390.74 408.02L389.15 409.46L387.82 411.23L386.86 413.27L386.3 415.46L386.22 417.66L386.56 419.79L387.28 421.79L388.37 423.63L389.83 425.24L391.58 426.56L393.62 427.53L395.81 428.06L398.01 428.16L400.14 427.83L402.14 427.1L403.99 426L405.59 424.56L406.91 422.81L407.88 420.77L407.94 420.63L407.99 420.5L408.03 420.36L408.08 420.23L408.14 420.09L408.18 419.95L408.22 419.82L408.27 419.68L408.68 417.58L408.67 415.51L408.25 413.52L407.48 411.66L406.36 409.98L404.92 408.53L403.22 407.38L401.24 406.56L401.2 406.54L401.15 406.51L401.12 406.51L398.92 405.96L396.73 405.88L394.59 406.21L392.59 406.93Z" id="d2KkT9vr7I"></path><path d="M285.85 336.44C285.85 348.99 296.04 359.18 308.59 359.18C321.16 359.18 331.33 348.99 331.33 336.44C331.33 323.87 321.16 313.7 308.59 313.7C296.04 313.7 285.85 323.87 285.85 336.44Z" id="a1T4Zu2Gzy"></path><path d="M285.85 336.44C285.85 348.99 296.04 359.18 308.59 359.18C321.16 359.18 331.33 348.99 331.33 336.44C331.33 323.87 321.16 313.7 308.59 313.7C296.04 313.7 285.85 323.87 285.85 336.44Z" id="b1rEY8PIok"></path><path d="M343.87 279.68C343.87 296.55 357.53 310.22 374.4 310.22C391.26 310.22 404.92 296.55 404.92 279.68C404.92 262.83 391.26 249.15 374.4 249.15C357.53 249.15 343.87 262.83 343.87 279.68Z" id="a3evZ1W5vY"></path><path d="M343.87 279.68C343.87 296.55 357.53 310.22 374.4 310.22C391.26 310.22 404.92 296.55 404.92 279.68C404.92 262.83 391.26 249.15 374.4 249.15C357.53 249.15 343.87 262.83 343.87 279.68Z" id="am9OowffQ"></path></defs><g><g><g><use xlink:href="#i6QweV5pf3" opacity="1" fill="#00af9d" fill-opacity="1"></use><g><use xlink:href="#i6QweV5pf3" opacity="1" fill-opacity="0" stroke="#000000" stroke-width="1" stroke-opacity="0"></use></g></g><g><use xlink:href="#b6OU9UjYEc" opacity="1" fill="#000000" fill-opacity="0"></use><g><use xlink:href="#b6OU9UjYEc" opacity="1" fill-opacity="0" stroke="#000000" stroke-width="1" stroke-opacity="0"></use></g></g><g><use xlink:href="#c1AUkdoRAP" opacity="1" fill="#ffffff" fill-opacity="1"></use><g><use xlink:href="#c1AUkdoRAP" opacity="1" fill-opacity="0" stroke="#000000" stroke-width="1" stroke-opacity="0"></use></g></g><g><use xlink:href="#f4ElIrCuK4" opacity="1" fill="#000000" fill-opacity="0"></use><g><use xlink:href="#f4ElIrCuK4" opacity="1" fill-opacity="0" stroke="#000000" stroke-width="1" stroke-opacity="0"></use></g></g><g><use xlink:href="#a3b83fZADn" opacity="1" fill="#ffffff" fill-opacity="1"></use><g><use xlink:href="#a3b83fZADn" opacity="1" fill-opacity="0" stroke="#000000" stroke-width="1" stroke-opacity="0"></use></g></g><g><use xlink:href="#a1lSDNrEBL" opacity="1" fill="#000000" fill-opacity="0"></use><g><use xlink:href="#a1lSDNrEBL" opacity="1" fill-opacity="0" stroke="#000000" stroke-width="1" stroke-opacity="0"></use></g></g><g><use xlink:href="#b2OaVWyT47" opacity="1" fill="#ffffff" fill-opacity="1"></use><g><use xlink:href="#b2OaVWyT47" opacity="1" fill-opacity="0" stroke="#000000" stroke-width="1" stroke-opacity="0"></use></g></g><g><use xlink:href="#a419hlIMSG" opacity="1" fill="#000000" fill-opacity="0"></use><g><use xlink:href="#a419hlIMSG" opacity="1" fill-opacity="0" stroke="#000000" stroke-width="1" stroke-opacity="0"></use></g></g><g><use xlink:href="#c1TB9fxjyV" opacity="1" fill="#ffffff" fill-opacity="1"></use><g><use xlink:href="#c1TB9fxjyV" opacity="1" fill-opacity="0" stroke="#000000" stroke-width="1" stroke-opacity="0"></use></g></g><g><use xlink:href="#c3Bti5VAEW" opacity="1" fill="#000000" fill-opacity="0"></use><g><use xlink:href="#c3Bti5VAEW" opacity="1" fill-opacity="0" stroke="#000000" stroke-width="1" stroke-opacity="0"></use></g></g><g><use xlink:href="#i75IKDr9l" opacity="1" fill="#00b09c" fill-opacity="1"></use><g><use xlink:href="#i75IKDr9l" opacity="1" fill-opacity="0" stroke="#000000" stroke-width="1" stroke-opacity="0"></use></g></g><g><use xlink:href="#beOkDx0zx" opacity="1" fill="#000000" fill-opacity="0"></use><g><use xlink:href="#beOkDx0zx" opacity="1" fill-opacity="0" stroke="#05b09c" stroke-width="6" stroke-opacity="1"></use></g></g><g><use xlink:href="#a5auGLrEhr" opacity="1" fill="#00b09c" fill-opacity="1"></use><g><use xlink:href="#a5auGLrEhr" opacity="1" fill-opacity="0" stroke="#000000" stroke-width="1" stroke-opacity="0"></use></g></g><g><use xlink:href="#a3C4goJdC8" opacity="1" fill="#000000" fill-opacity="0"></use><g><use xlink:href="#a3C4goJdC8" opacity="1" fill-opacity="0" stroke="#05b09c" stroke-width="6" stroke-opacity="1"></use></g></g><g><use xlink:href="#c1PfKVPjWh" opacity="1" fill="#ffffff" fill-opacity="1"></use><g><use xlink:href="#c1PfKVPjWh" opacity="1" fill-opacity="0" stroke="#000000" stroke-width="1" stroke-opacity="0"></use></g></g><g><use xlink:href="#a8QYwsW1S" opacity="1" fill="#000000" fill-opacity="0"></use><g><use xlink:href="#a8QYwsW1S" opacity="1" fill-opacity="0" stroke="#ffffff" stroke-width="1" stroke-opacity="1"></use></g></g><g><use xlink:href="#eAmgiLCZw" opacity="1" fill="#ffffff" fill-opacity="1"></use><g><use xlink:href="#eAmgiLCZw" opacity="1" fill-opacity="0" stroke="#000000" stroke-width="1" stroke-opacity="0"></use></g></g><g><use xlink:href="#d2KkT9vr7I" opacity="1" fill="#000000" fill-opacity="0"></use><g><use xlink:href="#d2KkT9vr7I" opacity="1" fill-opacity="0" stroke="#000000" stroke-width="1" stroke-opacity="0"></use></g></g><g><use xlink:href="#a1T4Zu2Gzy" opacity="1" fill="#ffffff" fill-opacity="1"></use><g><use xlink:href="#a1T4Zu2Gzy" opacity="1" fill-opacity="0" stroke="#000000" stroke-width="1" stroke-opacity="0"></use></g></g><g><use xlink:href="#b1rEY8PIok" opacity="1" fill="#000000" fill-opacity="0"></use><g><use xlink:href="#b1rEY8PIok" opacity="1" fill-opacity="0" stroke="#000000" stroke-width="1" stroke-opacity="0"></use></g></g><g><use xlink:href="#a3evZ1W5vY" opacity="1" fill="#ffffff" fill-opacity="1"></use><g><use xlink:href="#a3evZ1W5vY" opacity="1" fill-opacity="0" stroke="#000000" stroke-width="1" stroke-opacity="0"></use></g></g><g><use xlink:href="#am9OowffQ" opacity="1" fill="#000000" fill-opacity="0"></use><g><use xlink:href="#am9OowffQ" opacity="1" fill-opacity="0" stroke="#000000" stroke-width="1" stroke-opacity="0"></use></g></g></g></g></svg>