<?xml version="1.0" encoding="UTF-8" standalone="no"?>
<!DOCTYPE svg PUBLIC "-//W3C//DTD SVG 1.1//EN" "http://www.w3.org/Graphics/SVG/1.1/DTD/svg11.dtd">
<svg version="1.1" xmlns="http://www.w3.org/2000/svg" xmlns:xlink="http://www.w3.org/1999/xlink" preserveAspectRatio="xMidYMid meet" viewBox="0 0 640 640" width="640" height="640"><defs><path d="M4.83 320.11C4.83 494.19 145.95 635.32 320.02 635.32C494.12 635.32 635.23 494.19 635.23 320.11C635.23 146.03 494.12 4.9 320.02 4.9C145.95 4.9 4.83 146.03 4.83 320.11Z" id="c1eigtCdi"></path><path d="M4.83 320.11C4.83 494.19 145.95 635.32 320.02 635.32C494.12 635.32 635.23 494.19 635.23 320.11C635.23 146.03 494.12 4.9 320.02 4.9C145.95 4.9 4.83 146.03 4.83 320.11Z" id="a1j8SKNNpZ"></path><path d="M495.1 191.37L495.9 192.23L496.3 192.68L496.7 193.11L497.08 193.56L497.48 194L497.85 194.46L498.24 194.91L499.34 196.29L499.69 196.77L500.06 197.24L500.42 197.7L500.75 198.18L501.09 198.67L501.43 199.15L502.11 200.13L502.75 201.11L503.06 201.6L503.38 202.11L503.69 202.62L503.98 203.13L504.29 203.63L504.58 204.14L504.87 204.66L505.15 205.17L505.98 206.74L506.24 207.27L506.5 207.8L506.76 208.33L507.5 209.95L507.73 210.48L507.96 211.04L533.69 214.69L536.73 248.36L510.05 255.38L509.99 255.63L509.91 255.86L509.53 257.09L509.45 257.32L509.36 257.56L509.2 258.05L509.11 258.28L509.03 258.53L508.94 258.78L508.86 259.01L508.77 259.25L508.68 259.48L508.5 259.97L508.4 260.2L508.31 260.45L508.13 260.91L508.04 261.16L507.94 261.39L507.85 261.63L507.74 261.86L507.65 262.09L507.54 262.34L507.45 262.57L507.34 262.8L507.25 263.03L507.14 263.28L506.28 265.12L506.18 265.33L506.05 265.55L505.95 265.78L505.82 266L505.72 266.21L505.47 266.64L505.35 266.87L505.24 267.09L504.38 268.59L504.24 268.81L504.12 269.01L504 269.22L503.86 269.44L503.61 269.87L503.47 270.07L503.34 270.28L503.21 270.48L502.94 270.91L502.81 271.11L502.67 271.33L502.4 271.72L502.26 271.94L502.12 272.14L501.98 272.35L501.85 272.55L501.69 272.75L501.55 272.95L501.42 273.17L501.28 273.37L511.72 298.77L483.18 316.98L464.57 298.88L463.98 299.04L462.85 299.31L462.26 299.43L461.68 299.57L461.11 299.7L459.94 299.91L459.37 300.02L458.79 300.13L457.62 300.31L457.04 300.39L456.46 300.48L455.87 300.54L455.27 300.62L454.11 300.74L453.52 300.79L452.92 300.83L452.34 300.88L451.17 300.94L450.57 300.97L449.99 300.99L449.39 301L448.81 301.02L447.04 301.02L446.44 301L445.86 300.99L445.26 300.97L444.09 300.91L443.49 300.86L442.91 300.82L442.31 300.77L441.72 300.73L441.14 300.66L425.55 320L395.01 305.06L400.67 281.09L400.25 280.66L399.45 279.8L399.07 279.36L398.67 278.91L397.9 278.02L397.53 277.56L397.15 277.1L396.78 276.64L396.43 276.18L396.06 275.7L395.71 275.24L395.35 274.77L395.01 274.29L394.66 273.81L393.98 272.83L393.66 272.35L393.34 271.86L393.02 271.36L392.69 270.86L392.39 270.36L392.08 269.87L391.77 269.36L391.48 268.84L390.9 267.82L390.62 267.3L390.33 266.78L390.05 266.26L389.53 265.21L389.01 264.14L388.02 261.99L387.79 261.43L362.07 257.78L359.04 224.11L385.6 217L385.75 216.5L385.89 216.01L386.04 215.52L386.21 215.03L386.37 214.55L386.54 214.06L386.87 213.11L387.06 212.62L387.23 212.14L387.41 211.67L387.61 211.19L387.79 210.73L388.19 209.78L388.41 209.32L388.61 208.85L388.82 208.38L389.04 207.92L389.27 207.46L389.48 207.01L389.95 206.09L390.19 205.64L390.44 205.18L390.67 204.74L390.93 204.29L391.17 203.85L391.43 203.42L391.96 202.53L392.22 202.1L393.32 200.38L393.62 199.95L394.2 199.12L394.49 198.69L384.03 173.28L412.59 155.08L431.2 173.17L431.77 173.02L432.35 172.88L432.92 172.74L433.51 172.62L434.08 172.48L434.66 172.36L435.24 172.25L435.81 172.14L436.98 171.93L438.15 171.74L438.73 171.67L439.31 171.58L439.9 171.51L440.48 171.44L441.06 171.38L441.66 171.31L443.41 171.18L444.01 171.15L445.18 171.08L445.78 171.07L446.36 171.05L446.96 171.04L448.73 171.04L449.31 171.05L449.91 171.07L450.5 171.08L451.09 171.11L451.68 171.15L452.26 171.19L452.86 171.24L453.44 171.28L454.04 171.33L454.63 171.39L470.2 152.57L500.75 167.52L495.1 191.37ZM456.72 176.74L453.69 176.74L453.15 176.67L452.63 176.63L451.59 176.57L451.05 176.54L450.53 176.51L450 176.49L449.47 176.46L448.94 176.46L448.42 176.44L447.36 176.44L446.84 176.46L446.3 176.46L445.78 176.48L444.74 176.54L444.2 176.55L443.68 176.6L443.15 176.63L442.11 176.72L441.59 176.78L441.05 176.84L440 176.97L439.48 177.04L438.98 177.12L438.45 177.2L436.36 177.57L435.86 177.67L435.33 177.78L434.83 177.9L434.31 178.03L433.8 178.15L433.28 178.27L432.77 178.41L429.64 179.24L427.33 177.04L411.96 161.99L391.04 175.15L399.82 196.08L401.5 199.32L399.71 201.84L399.45 202.2L398.9 202.97L398.64 203.37L398.12 204.14L397.87 204.54L397.61 204.94L396.87 206.14L396.64 206.54L396.41 206.95L396.18 207.35L395.72 208.18L394.86 209.84L394.66 210.25L394.26 211.11L394.06 211.53L393.32 213.25L393.16 213.69L392.97 214.12L392.8 214.55L392.65 215L392.48 215.44L392.33 215.87L392.02 216.77L391.88 217.21L391.73 217.66L391.59 218.12L391.47 218.56L390.51 221.59L387.49 222.43L365.52 228.39L367.72 252.86L388.64 255.9L391.77 255.9L393.03 258.82L393.23 259.34L393.45 259.88L393.68 260.39L393.89 260.91L394.12 261.43L394.37 261.94L394.6 262.45L394.84 262.97L395.09 263.48L395.35 263.97L395.61 264.47L395.87 264.97L396.14 265.47L396.96 266.95L397.26 267.42L397.55 267.92L398.13 268.87L398.44 269.34L398.75 269.8L399.07 270.28L399.38 270.74L399.7 271.2L400.04 271.66L400.36 272.12L400.7 272.57L401.04 273.03L401.39 273.48L401.73 273.91L402.43 274.8L403.54 276.09L403.91 276.5L404.29 276.93L405.06 277.76L407.15 279.96L406.41 282.98L401.82 302.43L424.29 313.41L436.95 297.84L438.84 295.43L441.86 295.43L442.4 295.47L443.45 295.56L443.97 295.59L444.51 295.63L445.03 295.66L445.55 295.67L446.09 295.69L447.13 295.72L448.19 295.72L448.71 295.7L449.25 295.7L449.77 295.67L450.3 295.66L450.82 295.63L451.36 295.59L452.4 295.53L453.44 295.44L453.97 295.38L454.5 295.32L455.55 295.2L456.59 295.04L457.1 294.97L458.67 294.69L459.19 294.58L459.7 294.49L460.22 294.37L460.73 294.26L461.25 294.14L461.75 294.01L462.28 293.89L462.78 293.75L465.92 292.92L468.22 295.12L483.7 310.06L504.61 296.9L496.25 275.98L494.99 273.05L496.78 270.54L497.05 270.16L497.31 269.77L497.59 269.39L498.11 268.62L498.63 267.82L498.88 267.44L499.62 266.24L499.86 265.83L500.09 265.43L500.32 265.01L500.55 264.61L500.99 263.78L501.22 263.37L501.42 262.95L501.63 262.52L501.83 262.11L502.04 261.69L502.23 261.26L502.63 260.4L503 259.54L503.17 259.11L503.35 258.68L503.52 258.25L503.86 257.36L504.01 256.93L504.63 255.15L504.9 254.26L505.04 253.8L505.98 250.77L509 249.94L530.97 243.97L528.36 219.08L507.44 216.06L504.3 216.06L503.04 213.13L502.83 212.62L502.4 211.64L501.71 210.16L501.46 209.68L501.22 209.19L500.72 208.24L499.94 206.81L499.66 206.35L499.39 205.87L498.83 204.95L498.54 204.49L498.25 204.05L497.96 203.59L497.67 203.14L496.75 201.8L496.42 201.36L496.12 200.93L495.78 200.5L495.13 199.64L494.79 199.21L494.46 198.79L494.1 198.38L493.77 197.96L493.06 197.13L492.71 196.74L492.34 196.32L491.97 195.92L491.6 195.54L491.23 195.14L489.14 192.94L489.14 189.9L493.73 169.72L471.26 158.75L458.61 174.32L456.72 176.74Z" id="d190ETAgCS"></path><path d="M495.1 191.37L495.9 192.23L496.3 192.68L496.7 193.11L497.08 193.56L497.48 194L497.85 194.46L498.24 194.91L499.34 196.29L499.69 196.77L500.06 197.24L500.42 197.7L500.75 198.18L501.09 198.67L501.43 199.15L502.11 200.13L502.75 201.11L503.06 201.6L503.38 202.11L503.69 202.62L503.98 203.13L504.29 203.63L504.58 204.14L504.87 204.66L505.15 205.17L505.98 206.74L506.24 207.27L506.5 207.8L506.76 208.33L507.5 209.95L507.73 210.48L507.96 211.04L533.69 214.69L536.73 248.36L510.05 255.38L509.99 255.63L509.91 255.86L509.53 257.09L509.45 257.32L509.36 257.56L509.2 258.05L509.11 258.28L509.03 258.53L508.94 258.78L508.86 259.01L508.77 259.25L508.68 259.48L508.5 259.97L508.4 260.2L508.31 260.45L508.13 260.91L508.04 261.16L507.94 261.39L507.85 261.63L507.74 261.86L507.65 262.09L507.54 262.34L507.45 262.57L507.34 262.8L507.25 263.03L507.14 263.28L506.28 265.12L506.18 265.33L506.05 265.55L505.95 265.78L505.82 266L505.72 266.21L505.47 266.64L505.35 266.87L505.24 267.09L504.38 268.59L504.24 268.81L504.12 269.01L504 269.22L503.86 269.44L503.61 269.87L503.47 270.07L503.34 270.28L503.21 270.48L502.94 270.91L502.81 271.11L502.67 271.33L502.4 271.72L502.26 271.94L502.12 272.14L501.98 272.35L501.85 272.55L501.69 272.75L501.55 272.95L501.42 273.17L501.28 273.37L511.72 298.77L483.18 316.98L464.57 298.88L463.98 299.04L462.85 299.31L462.26 299.43L461.68 299.57L461.11 299.7L459.94 299.91L459.37 300.02L458.79 300.13L457.62 300.31L457.04 300.39L456.46 300.48L455.87 300.54L455.27 300.62L454.11 300.74L453.52 300.79L452.92 300.83L452.34 300.88L451.17 300.94L450.57 300.97L449.99 300.99L449.39 301L448.81 301.02L447.04 301.02L446.44 301L445.86 300.99L445.26 300.97L444.09 300.91L443.49 300.86L442.91 300.82L442.31 300.77L441.72 300.73L441.14 300.66L425.55 320L395.01 305.06L400.67 281.09L400.25 280.66L399.45 279.8L399.07 279.36L398.67 278.91L397.9 278.02L397.53 277.56L397.15 277.1L396.78 276.64L396.43 276.18L396.06 275.7L395.71 275.24L395.35 274.77L395.01 274.29L394.66 273.81L393.98 272.83L393.66 272.35L393.34 271.86L393.02 271.36L392.69 270.86L392.39 270.36L392.08 269.87L391.77 269.36L391.48 268.84L390.9 267.82L390.62 267.3L390.33 266.78L390.05 266.26L389.53 265.21L389.01 264.14L388.02 261.99L387.79 261.43L362.07 257.78L359.04 224.11L385.6 217L385.75 216.5L385.89 216.01L386.04 215.52L386.21 215.03L386.37 214.55L386.54 214.06L386.87 213.11L387.06 212.62L387.23 212.14L387.41 211.67L387.61 211.19L387.79 210.73L388.19 209.78L388.41 209.32L388.61 208.85L388.82 208.38L389.04 207.92L389.27 207.46L389.48 207.01L389.95 206.09L390.19 205.64L390.44 205.18L390.67 204.74L390.93 204.29L391.17 203.85L391.43 203.42L391.96 202.53L392.22 202.1L393.32 200.38L393.62 199.95L394.2 199.12L394.49 198.69L384.03 173.28L412.59 155.08L431.2 173.17L431.77 173.02L432.35 172.88L432.92 172.74L433.51 172.62L434.08 172.48L434.66 172.36L435.24 172.25L435.81 172.14L436.98 171.93L438.15 171.74L438.73 171.67L439.31 171.58L439.9 171.51L440.48 171.44L441.06 171.38L441.66 171.31L443.41 171.18L444.01 171.15L445.18 171.08L445.78 171.07L446.36 171.05L446.96 171.04L448.73 171.04L449.31 171.05L449.91 171.07L450.5 171.08L451.09 171.11L451.68 171.15L452.26 171.19L452.86 171.24L453.44 171.28L454.04 171.33L454.63 171.39L470.2 152.57L500.75 167.52L495.1 191.37ZM456.72 176.74L453.69 176.74L453.15 176.67L452.63 176.63L451.59 176.57L451.05 176.54L450.53 176.51L450 176.49L449.47 176.46L448.94 176.46L448.42 176.44L447.36 176.44L446.84 176.46L446.3 176.46L445.78 176.48L444.74 176.54L444.2 176.55L443.68 176.6L443.15 176.63L442.11 176.72L441.59 176.78L441.05 176.84L440 176.97L439.48 177.04L438.98 177.12L438.45 177.2L436.36 177.57L435.86 177.67L435.33 177.78L434.83 177.9L434.31 178.03L433.8 178.15L433.28 178.27L432.77 178.41L429.64 179.24L427.33 177.04L411.96 161.99L391.04 175.15L399.82 196.08L401.5 199.32L399.71 201.84L399.45 202.2L398.9 202.97L398.64 203.37L398.12 204.14L397.87 204.54L397.61 204.94L396.87 206.14L396.64 206.54L396.41 206.95L396.18 207.35L395.72 208.18L394.86 209.84L394.66 210.25L394.26 211.11L394.06 211.53L393.32 213.25L393.16 213.69L392.97 214.12L392.8 214.55L392.65 215L392.48 215.44L392.33 215.87L392.02 216.77L391.88 217.21L391.73 217.66L391.59 218.12L391.47 218.56L390.51 221.59L387.49 222.43L365.52 228.39L367.72 252.86L388.64 255.9L391.77 255.9L393.03 258.82L393.23 259.34L393.45 259.88L393.68 260.39L393.89 260.91L394.12 261.43L394.37 261.94L394.6 262.45L394.84 262.97L395.09 263.48L395.35 263.97L395.61 264.47L395.87 264.97L396.14 265.47L396.96 266.95L397.26 267.42L397.55 267.92L398.13 268.87L398.44 269.34L398.75 269.8L399.07 270.28L399.38 270.74L399.7 271.2L400.04 271.66L400.36 272.12L400.7 272.57L401.04 273.03L401.39 273.48L401.73 273.91L402.43 274.8L403.54 276.09L403.91 276.5L404.29 276.93L405.06 277.76L407.15 279.96L406.41 282.98L401.82 302.43L424.29 313.41L436.95 297.84L438.84 295.43L441.86 295.43L442.4 295.47L443.45 295.56L443.97 295.59L444.51 295.63L445.03 295.66L445.55 295.67L446.09 295.69L447.13 295.72L448.19 295.72L448.71 295.7L449.25 295.7L449.77 295.67L450.3 295.66L450.82 295.63L451.36 295.59L452.4 295.53L453.44 295.44L453.97 295.38L454.5 295.32L455.55 295.2L456.59 295.04L457.1 294.97L458.67 294.69L459.19 294.58L459.7 294.49L460.22 294.37L460.73 294.26L461.25 294.14L461.75 294.01L462.28 293.89L462.78 293.75L465.92 292.92L468.22 295.12L483.7 310.06L504.61 296.9L496.25 275.98L494.99 273.05L496.78 270.54L497.05 270.16L497.31 269.77L497.59 269.39L498.11 268.62L498.63 267.82L498.88 267.44L499.62 266.24L499.86 265.83L500.09 265.43L500.32 265.01L500.55 264.61L500.99 263.78L501.22 263.37L501.42 262.95L501.63 262.52L501.83 262.11L502.04 261.69L502.23 261.26L502.63 260.4L503 259.54L503.17 259.11L503.35 258.68L503.52 258.25L503.86 257.36L504.01 256.93L504.63 255.15L504.9 254.26L505.04 253.8L505.98 250.77L509 249.94L530.97 243.97L528.36 219.08L507.44 216.06L504.3 216.06L503.04 213.13L502.83 212.62L502.4 211.64L501.71 210.16L501.46 209.68L501.22 209.19L500.72 208.24L499.94 206.81L499.66 206.35L499.39 205.87L498.83 204.95L498.54 204.49L498.25 204.05L497.96 203.59L497.67 203.14L496.75 201.8L496.42 201.36L496.12 200.93L495.78 200.5L495.13 199.64L494.79 199.21L494.46 198.79L494.1 198.38L493.77 197.96L493.06 197.13L492.71 196.74L492.34 196.32L491.97 195.92L491.6 195.54L491.23 195.14L489.14 192.94L489.14 189.9L493.73 169.72L471.26 158.75L458.61 174.32L456.72 176.74Z" id="bagQGM0EW"></path><path d="M453.14 202.73L455.09 203.08L457.04 203.56L458.97 204.14L460.89 204.86L462.78 205.71L462.86 205.74L462.89 205.75L462.94 205.77L464.78 206.74L466.53 207.8L468.19 208.93L469.79 210.16L471.28 211.48L472.68 212.86L474 214.32L475.23 215.84L476.35 217.44L477.38 219.08L478.31 220.77L479.16 222.53L479.88 224.31L480.53 226.14L481.05 227.99L481.48 229.88L481.78 231.8L482 233.74L482.09 235.67L482.08 237.64L481.94 239.59L481.69 241.56L481.34 243.51L480.85 245.46L480.25 247.39L479.53 249.3L478.68 251.19L477.73 253.02L476.67 254.77L475.53 256.43L474.3 258.01L473 259.5L471.62 260.91L470.17 262.22L468.65 263.45L467.07 264.57L465.43 265.6L463.74 266.53L462 267.38L460.22 268.12L458.41 268.74L456.55 269.28L454.67 269.7L452.75 270.02L450.83 270.23L448.9 270.34L446.95 270.33L445 270.2L443.05 269.97L441.1 269.62L439.14 269.14L437.22 268.56L435.3 267.84L433.41 267.01L431.57 266.06L429.82 265.01L428.15 263.88L426.56 262.65L425.06 261.34L423.65 259.96L422.32 258.51L421.1 256.99L419.96 255.41L418.91 253.77L417.96 252.08L417.12 250.34L416.38 248.56L415.74 246.73L415.2 244.87L414.77 242.99L414.44 241.08L414.23 239.15L414.12 237.19L414.12 235.24L414.25 233.29L414.48 231.33L414.83 229.36L415.3 227.41L415.89 225.47L416.61 223.57L417.44 221.67L418.39 219.84L419.44 218.07L420.57 216.4L421.8 214.81L423.11 213.31L424.49 211.9L425.93 210.58L427.46 209.35L429.04 208.21L430.68 207.17L432.37 206.21L434.12 205.37L435.9 204.63L437.73 203.99L439.57 203.45L441.46 203.02L443.38 202.7L445.3 202.48L447.25 202.37L449.21 202.37L451.17 202.5L453.14 202.73ZM443.26 225.9L441.57 226.83L440.04 228.04L438.73 229.51L437.67 231.27L436.93 233.15L436.56 235.11L436.53 237.06L436.84 238.96L437.45 240.79L438.38 242.48L439.59 244L441.06 245.32L442.82 246.38L442.83 246.4L442.89 246.43L444.8 247.13L446.75 247.5L448.7 247.5L450.6 247.19L452.42 246.55L454.11 245.61L455.63 244.4L456.93 242.91L457.98 241.16L458.68 239.25L459.05 237.32L459.07 235.38L458.74 233.48L458.13 231.68L457.21 229.99L455.99 228.47L454.52 227.16L452.78 226.12L450.88 225.38L448.94 225.01L446.99 224.98L445.09 225.29L443.26 225.9Z" id="a1WXq5TcvK"></path><path d="M453.14 202.73L455.09 203.08L457.04 203.56L458.97 204.14L460.89 204.86L462.78 205.71L462.86 205.74L462.89 205.75L462.94 205.77L464.78 206.74L466.53 207.8L468.19 208.93L469.79 210.16L471.28 211.48L472.68 212.86L474 214.32L475.23 215.84L476.35 217.44L477.38 219.08L478.31 220.77L479.16 222.53L479.88 224.31L480.53 226.14L481.05 227.99L481.48 229.88L481.78 231.8L482 233.74L482.09 235.67L482.08 237.64L481.94 239.59L481.69 241.56L481.34 243.51L480.85 245.46L480.25 247.39L479.53 249.3L478.68 251.19L477.73 253.02L476.67 254.77L475.53 256.43L474.3 258.01L473 259.5L471.62 260.91L470.17 262.22L468.65 263.45L467.07 264.57L465.43 265.6L463.74 266.53L462 267.38L460.22 268.12L458.41 268.74L456.55 269.28L454.67 269.7L452.75 270.02L450.83 270.23L448.9 270.34L446.95 270.33L445 270.2L443.05 269.97L441.1 269.62L439.14 269.14L437.22 268.56L435.3 267.84L433.41 267.01L431.57 266.06L429.82 265.01L428.15 263.88L426.56 262.65L425.06 261.34L423.65 259.96L422.32 258.51L421.1 256.99L419.96 255.41L418.91 253.77L417.96 252.08L417.12 250.34L416.38 248.56L415.74 246.73L415.2 244.87L414.77 242.99L414.44 241.08L414.23 239.15L414.12 237.19L414.12 235.24L414.25 233.29L414.48 231.33L414.83 229.36L415.3 227.41L415.89 225.47L416.61 223.57L417.44 221.67L418.39 219.84L419.44 218.07L420.57 216.4L421.8 214.81L423.11 213.31L424.49 211.9L425.93 210.58L427.46 209.35L429.04 208.21L430.68 207.17L432.37 206.21L434.12 205.37L435.9 204.63L437.73 203.99L439.57 203.45L441.46 203.02L443.38 202.7L445.3 202.48L447.25 202.37L449.21 202.37L451.17 202.5L453.14 202.73ZM443.26 225.9L441.57 226.83L440.04 228.04L438.73 229.51L437.67 231.27L436.93 233.15L436.56 235.11L436.53 237.06L436.84 238.96L437.45 240.79L438.38 242.48L439.59 244L441.06 245.32L442.82 246.38L442.83 246.4L442.89 246.43L444.8 247.13L446.75 247.5L448.7 247.5L450.6 247.19L452.42 246.55L454.11 245.61L455.63 244.4L456.93 242.91L457.98 241.16L458.68 239.25L459.05 237.32L459.07 235.38L458.74 233.48L458.13 231.68L457.21 229.99L455.99 228.47L454.52 227.16L452.78 226.12L450.88 225.38L448.94 225.01L446.99 224.98L445.09 225.29L443.26 225.9Z" id="c6ngfWUZ7M"></path><path d="M318.89 519.03C308.6 519.03 300.27 510.46 300.27 499.89C300.27 489.32 308.6 480.75 318.89 480.75C329.16 480.75 337.49 489.32 337.49 499.89C337.49 510.46 329.16 519.03 318.89 519.03Z" id="bf0tiEcnT"></path><path d="M318.89 519.03C308.6 519.03 300.27 510.46 300.27 499.89C300.27 489.32 308.6 480.75 318.89 480.75C329.16 480.75 337.49 489.32 337.49 499.89C337.49 510.46 329.16 519.03 318.89 519.03Z" id="acWSkQfhs"></path><path d="M344.19 120.47C344.19 125.8 344.19 128.77 344.19 129.35C344.19 129.35 344.19 129.35 344.19 129.35C313.82 129.35 296.95 129.35 293.57 129.35C293.57 129.35 293.57 129.35 293.57 129.35C293.57 124.02 293.57 121.06 293.57 120.47C293.57 120.47 293.57 120.47 293.57 120.47C323.94 120.47 340.81 120.47 344.19 120.47C344.19 120.47 344.19 120.47 344.19 120.47Z" id="h26Hq1nV4u"></path><path d="M344.19 120.47C344.19 125.8 344.19 128.77 344.19 129.35C344.19 129.35 344.19 129.35 344.19 129.35C313.82 129.35 296.95 129.35 293.57 129.35C293.57 129.35 293.57 129.35 293.57 129.35C293.57 124.02 293.57 121.06 293.57 120.47C293.57 120.47 293.57 120.47 293.57 120.47C323.94 120.47 340.81 120.47 344.19 120.47C344.19 120.47 344.19 120.47 344.19 120.47Z" id="f2f2RnrhOd"></path><path d="M395.01 281.2C389.58 275.49 385.21 268.82 382.16 261.54C380.44 261.3 371.87 260.08 356.43 257.89C356.1 254.52 353.51 227.58 353.19 224.22C368.99 219.88 377.78 217.47 379.53 217C381.47 210.42 384.51 204.23 388.53 198.69C387.84 197 384.35 188.53 378.07 173.28C379.98 172.07 389.49 166 406.63 155.08L414.57 162.82L414.57 146.2L223.09 146.2L223.09 464.44L414.37 464.44L414.37 318.02L389.05 305.06C392.76 290.22 394.75 282.27 395.01 281.2Z" id="c18f9bnuDV"></path><path d="M395.01 281.2C389.58 275.49 385.21 268.82 382.16 261.54C380.44 261.3 371.87 260.08 356.43 257.89C356.1 254.52 353.51 227.58 353.19 224.22C368.99 219.88 377.78 217.47 379.53 217C381.47 210.42 384.51 204.23 388.53 198.69C387.84 197 384.35 188.53 378.07 173.28C379.98 172.07 389.49 166 406.63 155.08L414.57 162.82L414.57 146.2L223.09 146.2L223.09 464.44L414.37 464.44L414.37 318.02L389.05 305.06C392.76 290.22 394.75 282.27 395.01 281.2Z" id="a5QLPNpxxn"></path><path d="M434.44 493.93C434.44 515.29 417.12 532.62 395.75 532.62C395.75 532.62 395.75 532.62 395.75 532.62C380.39 532.62 257.57 532.62 242.22 532.62C220.86 532.62 203.53 515.29 203.53 493.93C203.53 493.93 203.53 493.93 203.53 493.93C203.53 459.15 203.53 180.96 203.53 146.2C203.53 124.82 220.86 107.49 242.22 107.49C257.57 107.49 380.39 107.49 395.75 107.49C417.12 107.49 434.44 124.82 434.44 146.2C434.44 146.2 434.44 146.2 434.44 146.2C434.44 147.49 434.44 153.97 434.44 165.65C435.78 165.65 446.48 165.65 447.82 165.65C447.82 153.97 447.82 147.49 447.82 146.2C447.82 117.31 424.41 93.9 395.54 93.9C380.19 93.9 257.37 93.9 242.01 93.9C213.13 93.9 189.72 117.31 189.72 146.2C189.72 180.96 189.72 459.15 189.72 493.93C189.72 522.81 213.13 546.21 242.01 546.21C257.31 546.21 379.72 546.21 395.01 546.21C423.89 546.21 447.3 522.81 447.3 493.93C447.3 482.12 447.3 423.06 447.3 316.76C446.44 316.76 442.16 316.76 434.44 316.76C434.44 427 434.44 486.05 434.44 493.93Z" id="a3qY3DJx16"></path><path d="M434.44 493.93C434.44 515.29 417.12 532.62 395.75 532.62C395.75 532.62 395.75 532.62 395.75 532.62C380.39 532.62 257.57 532.62 242.22 532.62C220.86 532.62 203.53 515.29 203.53 493.93C203.53 493.93 203.53 493.93 203.53 493.93C203.53 459.15 203.53 180.96 203.53 146.2C203.53 124.82 220.86 107.49 242.22 107.49C257.57 107.49 380.39 107.49 395.75 107.49C417.12 107.49 434.44 124.82 434.44 146.2C434.44 146.2 434.44 146.2 434.44 146.2C434.44 147.49 434.44 153.97 434.44 165.65C435.78 165.65 446.48 165.65 447.82 165.65C447.82 153.97 447.82 147.49 447.82 146.2C447.82 117.31 424.41 93.9 395.54 93.9C380.19 93.9 257.37 93.9 242.01 93.9C213.13 93.9 189.72 117.31 189.72 146.2C189.72 180.96 189.72 459.15 189.72 493.93C189.72 522.81 213.13 546.21 242.01 546.21C257.31 546.21 379.72 546.21 395.01 546.21C423.89 546.21 447.3 522.81 447.3 493.93C447.3 482.12 447.3 423.06 447.3 316.76C446.44 316.76 442.16 316.76 434.44 316.76C434.44 427 434.44 486.05 434.44 493.93Z" id="euXIe9A5Z"></path></defs><g><g><g><use xlink:href="#c1eigtCdi" opacity="1" fill="#00b19d" fill-opacity="1"></use><g><use xlink:href="#c1eigtCdi" opacity="1" fill-opacity="0" stroke="#000000" stroke-width="1" stroke-opacity="0"></use></g></g><g><use xlink:href="#a1j8SKNNpZ" opacity="1" fill="#000000" fill-opacity="0"></use><g><use xlink:href="#a1j8SKNNpZ" opacity="1" fill-opacity="0" stroke="#000000" stroke-width="1" stroke-opacity="0"></use></g></g><g><use xlink:href="#d190ETAgCS" opacity="1" fill="#ffffff" fill-opacity="1"></use><g><use xlink:href="#d190ETAgCS" opacity="1" fill-opacity="0" stroke="#000000" stroke-width="1" stroke-opacity="0"></use></g></g><g><use xlink:href="#bagQGM0EW" opacity="1" fill="#000000" fill-opacity="0"></use><g><use xlink:href="#bagQGM0EW" opacity="1" fill-opacity="0" stroke="#000000" stroke-width="1" stroke-opacity="0"></use></g></g><g><use xlink:href="#a1WXq5TcvK" opacity="1" fill="#ffffff" fill-opacity="1"></use><g><use xlink:href="#a1WXq5TcvK" opacity="1" fill-opacity="0" stroke="#000000" stroke-width="1" stroke-opacity="0"></use></g></g><g><use xlink:href="#c6ngfWUZ7M" opacity="1" fill="#000000" fill-opacity="0"></use><g><use xlink:href="#c6ngfWUZ7M" opacity="1" fill-opacity="0" stroke="#000000" stroke-width="1" stroke-opacity="0"></use></g></g><g><use xlink:href="#bf0tiEcnT" opacity="1" fill="#ffffff" fill-opacity="1"></use><g><use xlink:href="#bf0tiEcnT" opacity="1" fill-opacity="0" stroke="#000000" stroke-width="1" stroke-opacity="0"></use></g></g><g><use xlink:href="#acWSkQfhs" opacity="1" fill="#000000" fill-opacity="0"></use><g><use xlink:href="#acWSkQfhs" opacity="1" fill-opacity="0" stroke="#000000" stroke-width="1" stroke-opacity="0"></use></g></g><g><use xlink:href="#h26Hq1nV4u" opacity="1" fill="#ffffff" fill-opacity="1"></use><g><use xlink:href="#h26Hq1nV4u" opacity="1" fill-opacity="0" stroke="#000000" stroke-width="1" stroke-opacity="0"></use></g></g><g><use xlink:href="#f2f2RnrhOd" opacity="1" fill="#000000" fill-opacity="0"></use><g><use xlink:href="#f2f2RnrhOd" opacity="1" fill-opacity="0" stroke="#000000" stroke-width="1" stroke-opacity="0"></use></g></g><g><use xlink:href="#c18f9bnuDV" opacity="1" fill="#ffffff" fill-opacity="1"></use><g><use xlink:href="#c18f9bnuDV" opacity="1" fill-opacity="0" stroke="#000000" stroke-width="1" stroke-opacity="0"></use></g></g><g><use xlink:href="#a5QLPNpxxn" opacity="1" fill="#000000" fill-opacity="0"></use><g><use xlink:href="#a5QLPNpxxn" opacity="1" fill-opacity="0" stroke="#000000" stroke-width="1" stroke-opacity="0"></use></g></g><g><use xlink:href="#a3qY3DJx16" opacity="1" fill="#ffffff" fill-opacity="1"></use><g><use xlink:href="#a3qY3DJx16" opacity="1" fill-opacity="0" stroke="#000000" stroke-width="1" stroke-opacity="0"></use></g></g><g><use xlink:href="#euXIe9A5Z" opacity="1" fill="#000000" fill-opacity="0"></use><g><use xlink:href="#euXIe9A5Z" opacity="1" fill-opacity="0" stroke="#000000" stroke-width="1" stroke-opacity="0"></use></g></g></g></g></svg>