<?xml version="1.0" encoding="UTF-8" standalone="no"?>
<!DOCTYPE svg PUBLIC "-//W3C//DTD SVG 1.1//EN" "http://www.w3.org/Graphics/SVG/1.1/DTD/svg11.dtd">
<svg version="1.1" xmlns="http://www.w3.org/2000/svg" xmlns:xlink="http://www.w3.org/1999/xlink" preserveAspectRatio="xMidYMid meet" viewBox="0 0 640 640" width="640" height="640"><defs><path d="M320.27 635.68C146.01 635.68 4.74 494.79 4.74 321C4.74 147.21 146.01 6.32 320.27 6.32C494.52 6.32 635.79 147.21 635.79 321C635.79 494.79 494.52 635.68 320.27 635.68Z" id="a1CGoIBQS6"></path><path d="M320.27 635.68C146.01 635.68 4.74 494.79 4.74 321C4.74 147.21 146.01 6.32 320.27 6.32C494.52 6.32 635.79 147.21 635.79 321C635.79 494.79 494.52 635.68 320.27 635.68Z" id="d65PvFxe1"></path><path d="M513.49 409.98C513.49 424.05 513.49 431.87 513.49 433.44C513.49 433.44 513.49 433.44 513.49 433.44C283.79 433.44 156.17 433.44 130.66 433.44C130.66 433.44 130.66 433.44 130.66 433.44C130.66 419.35 130.66 411.54 130.66 409.98C130.66 409.98 130.66 409.98 130.66 409.98C360.35 409.98 487.96 409.98 513.49 409.98C513.49 409.98 513.49 409.98 513.49 409.98Z" id="a3jApTggoi"></path><path d="M513.49 409.98C513.49 424.05 513.49 431.87 513.49 433.44C513.49 433.44 513.49 433.44 513.49 433.44C283.79 433.44 156.17 433.44 130.66 433.44C130.66 433.44 130.66 433.44 130.66 433.44C130.66 419.35 130.66 411.54 130.66 409.98C130.66 409.98 130.66 409.98 130.66 409.98C360.35 409.98 487.96 409.98 513.49 409.98C513.49 409.98 513.49 409.98 513.49 409.98Z" id="a2rrfXwRCn"></path><path d="M499.8 208.37C499.8 222.44 499.8 230.26 499.8 231.82C499.8 231.82 499.8 231.82 499.8 231.82C286.4 231.82 167.85 231.82 144.13 231.82C144.13 231.82 144.13 231.82 144.13 231.82C144.13 217.75 144.13 209.93 144.13 208.37C144.13 208.37 144.13 208.37 144.13 208.37C357.53 208.37 476.08 208.37 499.8 208.37C499.8 208.37 499.8 208.37 499.8 208.37Z" id="cgl50t4Y"></path><path d="M499.8 208.37C499.8 222.44 499.8 230.26 499.8 231.82C499.8 231.82 499.8 231.82 499.8 231.82C286.4 231.82 167.85 231.82 144.13 231.82C144.13 231.82 144.13 231.82 144.13 231.82C144.13 217.75 144.13 209.93 144.13 208.37C144.13 208.37 144.13 208.37 144.13 208.37C357.53 208.37 476.08 208.37 499.8 208.37C499.8 208.37 499.8 208.37 499.8 208.37Z" id="crGHdxAXc"></path><path d="M538.55 446.82C538.55 460.89 538.55 468.71 538.55 470.27C538.55 470.27 538.55 470.27 538.55 470.27C278.71 470.27 134.36 470.27 105.49 470.27C105.49 470.27 105.49 470.27 105.49 470.27C105.49 456.2 105.49 448.38 105.49 446.82C105.49 446.82 105.49 446.82 105.49 446.82C365.33 446.82 509.68 446.82 538.55 446.82C538.55 446.82 538.55 446.82 538.55 446.82Z" id="c1hkG4aqQM"></path><path d="M538.55 446.82C538.55 460.89 538.55 468.71 538.55 470.27C538.55 470.27 538.55 470.27 538.55 470.27C278.71 470.27 134.36 470.27 105.49 470.27C105.49 470.27 105.49 470.27 105.49 470.27C105.49 456.2 105.49 448.38 105.49 446.82C105.49 446.82 105.49 446.82 105.49 446.82C365.33 446.82 509.68 446.82 538.55 446.82C538.55 446.82 538.55 446.82 538.55 446.82Z" id="cIdjtvOXH"></path><path d="M117.91 198.28L526.12 198.28L526.12 186.18L321.96 118.02L321.96 118.02L117.91 186.18L117.91 198.28Z" id="a7r0sqyisU"></path><path d="M117.91 198.28L526.12 198.28L526.12 186.18L321.96 118.02L321.96 118.02L117.91 186.18L117.91 198.28Z" id="it2tSfQ7j"></path><path d="M188.3 243.18C188.3 337.72 188.3 390.23 188.3 400.74C188.3 400.74 188.3 400.74 188.3 400.74C161.8 400.74 147.08 400.74 144.13 400.74C144.13 400.74 144.13 400.74 144.13 400.74C144.13 306.2 144.13 253.69 144.13 243.18C144.13 243.18 144.13 243.18 144.13 243.18C170.64 243.18 185.36 243.18 188.3 243.18C188.3 243.18 188.3 243.18 188.3 243.18Z" id="b3DPfnaqDr"></path><path d="M188.3 243.18C188.3 337.72 188.3 390.23 188.3 400.74C188.3 400.74 188.3 400.74 188.3 400.74C161.8 400.74 147.08 400.74 144.13 400.74C144.13 400.74 144.13 400.74 144.13 400.74C144.13 306.2 144.13 253.69 144.13 243.18C144.13 243.18 144.13 243.18 144.13 243.18C170.64 243.18 185.36 243.18 188.3 243.18C188.3 243.18 188.3 243.18 188.3 243.18Z" id="cocCuvZ81"></path><path d="M499.8 243.18C499.8 337.72 499.8 390.23 499.8 400.74C499.8 400.74 499.8 400.74 499.8 400.74C473.29 400.74 458.57 400.74 455.63 400.74C455.63 400.74 455.63 400.74 455.63 400.74C455.63 306.2 455.63 253.69 455.63 243.18C455.63 243.18 455.63 243.18 455.63 243.18C482.13 243.18 496.85 243.18 499.8 243.18C499.8 243.18 499.8 243.18 499.8 243.18Z" id="b2xyjDBph6"></path><path d="M499.8 243.18C499.8 337.72 499.8 390.23 499.8 400.74C499.8 400.74 499.8 400.74 499.8 400.74C473.29 400.74 458.57 400.74 455.63 400.74C455.63 400.74 455.63 400.74 455.63 400.74C455.63 306.2 455.63 253.69 455.63 243.18C455.63 243.18 455.63 243.18 455.63 243.18C482.13 243.18 496.85 243.18 499.8 243.18C499.8 243.18 499.8 243.18 499.8 243.18Z" id="a7jt8BNZP9"></path><path d="M344.05 243.18C344.05 337.72 344.05 390.23 344.05 400.74C344.05 400.74 344.05 400.74 344.05 400.74C317.54 400.74 302.83 400.74 299.88 400.74C299.88 400.74 299.88 400.74 299.88 400.74C299.88 306.2 299.88 253.69 299.88 243.18C299.88 243.18 299.88 243.18 299.88 243.18C326.39 243.18 341.1 243.18 344.05 243.18C344.05 243.18 344.05 243.18 344.05 243.18Z" id="i68VX2I5Be"></path><path d="M344.05 243.18C344.05 337.72 344.05 390.23 344.05 400.74C344.05 400.74 344.05 400.74 344.05 400.74C317.54 400.74 302.83 400.74 299.88 400.74C299.88 400.74 299.88 400.74 299.88 400.74C299.88 306.2 299.88 253.69 299.88 243.18C299.88 243.18 299.88 243.18 299.88 243.18C326.39 243.18 341.1 243.18 344.05 243.18C344.05 243.18 344.05 243.18 344.05 243.18Z" id="eU1XEgYRt"></path><path d="M266.86 243.18C266.86 337.72 266.86 390.23 266.86 400.74C266.86 400.74 266.86 400.74 266.86 400.74C240.36 400.74 225.64 400.74 222.69 400.74C222.69 400.74 222.69 400.74 222.69 400.74C222.69 306.2 222.69 253.69 222.69 243.18C222.69 243.18 222.69 243.18 222.69 243.18C249.2 243.18 263.92 243.18 266.86 243.18C266.86 243.18 266.86 243.18 266.86 243.18Z" id="a454lOvEky"></path><path d="M266.86 243.18C266.86 337.72 266.86 390.23 266.86 400.74C266.86 400.74 266.86 400.74 266.86 400.74C240.36 400.74 225.64 400.74 222.69 400.74C222.69 400.74 222.69 400.74 222.69 400.74C222.69 306.2 222.69 253.69 222.69 243.18C222.69 243.18 222.69 243.18 222.69 243.18C249.2 243.18 263.92 243.18 266.86 243.18C266.86 243.18 266.86 243.18 266.86 243.18Z" id="cCpRzhDt8"></path><path d="M423.67 243.18C423.67 337.72 423.67 390.23 423.67 400.74C423.67 400.74 423.67 400.74 423.67 400.74C397.18 400.74 382.46 400.74 379.51 400.74C379.51 400.74 379.51 400.74 379.51 400.74C379.51 306.2 379.51 253.69 379.51 243.18C379.51 243.18 379.51 243.18 379.51 243.18C406 243.18 420.72 243.18 423.67 243.18C423.67 243.18 423.67 243.18 423.67 243.18Z" id="auyt8FMNc"></path><path d="M423.67 243.18C423.67 337.72 423.67 390.23 423.67 400.74C423.67 400.74 423.67 400.74 423.67 400.74C397.18 400.74 382.46 400.74 379.51 400.74C379.51 400.74 379.51 400.74 379.51 400.74C379.51 306.2 379.51 253.69 379.51 243.18C379.51 243.18 379.51 243.18 379.51 243.18C406 243.18 420.72 243.18 423.67 243.18C423.67 243.18 423.67 243.18 423.67 243.18Z" id="a2OhFP8AEs"></path></defs><g><g><g><use xlink:href="#a1CGoIBQS6" opacity="1" fill="#00b19d" fill-opacity="1"></use><g><use xlink:href="#a1CGoIBQS6" opacity="1" fill-opacity="0" stroke="#000000" stroke-width="1" stroke-opacity="0"></use></g></g><g><use xlink:href="#d65PvFxe1" opacity="1" fill="#000000" fill-opacity="0"></use><g><use xlink:href="#d65PvFxe1" opacity="1" fill-opacity="0" stroke="#000000" stroke-width="1" stroke-opacity="0"></use></g></g><g><use xlink:href="#a3jApTggoi" opacity="1" fill="#ffffff" fill-opacity="1"></use><g><use xlink:href="#a3jApTggoi" opacity="1" fill-opacity="0" stroke="#000000" stroke-width="1" stroke-opacity="0"></use></g></g><g><use xlink:href="#a2rrfXwRCn" opacity="1" fill="#000000" fill-opacity="0"></use><g><use xlink:href="#a2rrfXwRCn" opacity="1" fill-opacity="0" stroke="#000000" stroke-width="1" stroke-opacity="0"></use></g></g><g><use xlink:href="#cgl50t4Y" opacity="1" fill="#ffffff" fill-opacity="1"></use><g><use xlink:href="#cgl50t4Y" opacity="1" fill-opacity="0" stroke="#000000" stroke-width="1" stroke-opacity="0"></use></g></g><g><use xlink:href="#crGHdxAXc" opacity="1" fill="#000000" fill-opacity="0"></use><g><use xlink:href="#crGHdxAXc" opacity="1" fill-opacity="0" stroke="#000000" stroke-width="1" stroke-opacity="0"></use></g></g><g><use xlink:href="#c1hkG4aqQM" opacity="1" fill="#ffffff" fill-opacity="1"></use><g><use xlink:href="#c1hkG4aqQM" opacity="1" fill-opacity="0" stroke="#000000" stroke-width="1" stroke-opacity="0"></use></g></g><g><use xlink:href="#cIdjtvOXH" opacity="1" fill="#000000" fill-opacity="0"></use><g><use xlink:href="#cIdjtvOXH" opacity="1" fill-opacity="0" stroke="#000000" stroke-width="1" stroke-opacity="0"></use></g></g><g><use xlink:href="#a7r0sqyisU" opacity="1" fill="#ffffff" fill-opacity="1"></use><g><use xlink:href="#a7r0sqyisU" opacity="1" fill-opacity="0" stroke="#000000" stroke-width="1" stroke-opacity="0"></use></g></g><g><use xlink:href="#it2tSfQ7j" opacity="1" fill="#000000" fill-opacity="0"></use><g><use xlink:href="#it2tSfQ7j" opacity="1" fill-opacity="0" stroke="#000000" stroke-width="1" stroke-opacity="0"></use></g></g><g><use xlink:href="#b3DPfnaqDr" opacity="1" fill="#ffffff" fill-opacity="1"></use><g><use xlink:href="#b3DPfnaqDr" opacity="1" fill-opacity="0" stroke="#000000" stroke-width="1" stroke-opacity="0"></use></g></g><g><use xlink:href="#cocCuvZ81" opacity="1" fill="#000000" fill-opacity="0"></use><g><use xlink:href="#cocCuvZ81" opacity="1" fill-opacity="0" stroke="#000000" stroke-width="1" stroke-opacity="0"></use></g></g><g><use xlink:href="#b2xyjDBph6" opacity="1" fill="#ffffff" fill-opacity="1"></use><g><use xlink:href="#b2xyjDBph6" opacity="1" fill-opacity="0" stroke="#000000" stroke-width="1" stroke-opacity="0"></use></g></g><g><use xlink:href="#a7jt8BNZP9" opacity="1" fill="#000000" fill-opacity="0"></use><g><use xlink:href="#a7jt8BNZP9" opacity="1" fill-opacity="0" stroke="#000000" stroke-width="1" stroke-opacity="0"></use></g></g><g><use xlink:href="#i68VX2I5Be" opacity="1" fill="#ffffff" fill-opacity="1"></use><g><use xlink:href="#i68VX2I5Be" opacity="1" fill-opacity="0" stroke="#000000" stroke-width="1" stroke-opacity="0"></use></g></g><g><use xlink:href="#eU1XEgYRt" opacity="1" fill="#000000" fill-opacity="0"></use><g><use xlink:href="#eU1XEgYRt" opacity="1" fill-opacity="0" stroke="#000000" stroke-width="1" stroke-opacity="0"></use></g></g><g><use xlink:href="#a454lOvEky" opacity="1" fill="#ffffff" fill-opacity="1"></use><g><use xlink:href="#a454lOvEky" opacity="1" fill-opacity="0" stroke="#000000" stroke-width="1" stroke-opacity="0"></use></g></g><g><use xlink:href="#cCpRzhDt8" opacity="1" fill="#000000" fill-opacity="0"></use><g><use xlink:href="#cCpRzhDt8" opacity="1" fill-opacity="0" stroke="#000000" stroke-width="1" stroke-opacity="0"></use></g></g><g><use xlink:href="#auyt8FMNc" opacity="1" fill="#ffffff" fill-opacity="1"></use><g><use xlink:href="#auyt8FMNc" opacity="1" fill-opacity="0" stroke="#000000" stroke-width="1" stroke-opacity="0"></use></g></g><g><use xlink:href="#a2OhFP8AEs" opacity="1" fill="#000000" fill-opacity="0"></use><g><use xlink:href="#a2OhFP8AEs" opacity="1" fill-opacity="0" stroke="#000000" stroke-width="1" stroke-opacity="0"></use></g></g></g></g></svg>