<?xml version="1.0" encoding="UTF-8" standalone="no"?>
<!DOCTYPE svg PUBLIC "-//W3C//DTD SVG 1.1//EN" "http://www.w3.org/Graphics/SVG/1.1/DTD/svg11.dtd">
<svg version="1.1" xmlns="http://www.w3.org/2000/svg" xmlns:xlink="http://www.w3.org/1999/xlink" preserveAspectRatio="xMidYMid meet" viewBox="0 0 640 640" width="640" height="640"><defs><path d="M429.85 470.3C429.85 478.34 429.85 482.8 429.85 483.7C429.85 483.7 429.85 483.7 429.85 483.7C291.95 483.7 215.34 483.7 200 483.7C200 483.7 200 483.7 200 483.7C200 475.66 200 471.19 200 470.3C200 470.3 200 470.3 200 470.3C337.92 470.3 414.53 470.3 429.85 470.3C429.85 470.3 429.85 470.3 429.85 470.3Z" id="a2eTDXEzev"></path><path d="M429.85 470.3C429.85 478.34 429.85 482.8 429.85 483.7C429.85 483.7 429.85 483.7 429.85 483.7C291.95 483.7 215.34 483.7 200 483.7C200 483.7 200 483.7 200 483.7C200 475.66 200 471.19 200 470.3C200 470.3 200 470.3 200 470.3C337.92 470.3 414.53 470.3 429.85 470.3C429.85 470.3 429.85 470.3 429.85 470.3Z" id="e69PYcAKB7"></path><path d="M301.34 152.97C247.48 157.26 203.52 197.8 194.87 251.14C193.54 250.92 182.81 249.16 181.47 248.95C193.01 177.6 260.2 129.13 331.53 140.67C391.04 150.3 436.26 199.33 441.06 259.41C438.37 259.64 430.33 260.34 427.66 260.56C422.48 195.98 365.94 147.79 301.34 152.97Z" id="csNhJj4TC"></path><path d="M301.34 152.97C247.48 157.26 203.52 197.8 194.87 251.14C193.54 250.92 182.81 249.16 181.47 248.95C193.01 177.6 260.2 129.13 331.53 140.67C391.04 150.3 436.26 199.33 441.06 259.41C438.37 259.64 430.33 260.34 427.66 260.56C422.48 195.98 365.94 147.79 301.34 152.97Z" id="b22q4ILg0h"></path><path d="M424.72 484.02C424.72 475.97 424.72 471.5 424.72 470.61C425.15 470.61 425.4 470.61 425.45 470.61C481.44 469.52 525.95 423.25 524.88 367.25C523.83 313.63 481.23 270.11 427.66 267.9C427.66 266.56 427.66 255.83 427.66 254.5C490.96 260.95 537.05 317.51 530.61 380.81C524.95 436.25 480.46 479.69 424.92 484.02C425 484.02 425.17 484.02 425.45 484.02C425.35 484.02 425.11 484.02 424.72 484.02Z" id="b9bD7OZTJ"></path><path d="M424.72 484.02C424.72 475.97 424.72 471.5 424.72 470.61C425.15 470.61 425.4 470.61 425.45 470.61C481.44 469.52 525.95 423.25 524.88 367.25C523.83 313.63 481.23 270.11 427.66 267.9C427.66 266.56 427.66 255.83 427.66 254.5C490.96 260.95 537.05 317.51 530.61 380.81C524.95 436.25 480.46 479.69 424.92 484.02C425 484.02 425.17 484.02 425.45 484.02C425.35 484.02 425.11 484.02 424.72 484.02Z" id="bkiMFUAt"></path><path d="M360.81 376.64C360.81 414.77 391.72 445.67 429.85 445.67C467.98 445.67 498.89 414.77 498.89 376.64C498.89 338.51 467.98 307.6 429.85 307.6C391.72 307.6 360.81 338.51 360.81 376.64Z" id="d3tH3LJBi"></path><path d="M360.81 376.64C360.81 414.77 391.72 445.67 429.85 445.67C467.98 445.67 498.89 414.77 498.89 376.64C498.89 338.51 467.98 307.6 429.85 307.6C391.72 307.6 360.81 338.51 360.81 376.64Z" id="a2y1B0D3hk"></path><path d="M302.46 260.36C302.46 283.96 321.61 303.11 345.21 303.11C368.82 303.11 387.94 283.96 387.94 260.36C387.94 236.75 368.82 217.61 345.21 217.61C321.61 217.61 302.46 236.75 302.46 260.36Z" id="emi2xbjE4"></path><path d="M302.46 260.36C302.46 283.96 321.61 303.11 345.21 303.11C368.82 303.11 387.94 283.96 387.94 260.36C387.94 236.75 368.82 217.61 345.21 217.61C321.61 217.61 302.46 236.75 302.46 260.36Z" id="lpMJrMHNt"></path><path d="M259.2 403.05C259.2 426.76 278.42 446 302.15 446C325.87 446 345.1 426.76 345.1 403.05C345.1 379.32 325.87 360.08 302.15 360.08C278.42 360.08 259.2 379.32 259.2 403.05Z" id="cp9aRCH3"></path><path d="M259.2 403.05C259.2 426.76 278.42 446 302.15 446C325.87 446 345.1 426.76 345.1 403.05C345.1 379.32 325.87 360.08 302.15 360.08C278.42 360.08 259.2 379.32 259.2 403.05Z" id="bIn04AJ0h"></path><path d="M247.57 212.48C247.57 224.81 257.55 234.79 269.89 234.79C282.2 234.79 292.2 224.81 292.2 212.48C292.2 200.16 282.2 190.17 269.89 190.17C257.55 190.17 247.57 200.16 247.57 212.48Z" id="b377XWdI4B"></path><path d="M247.57 212.48C247.57 224.81 257.55 234.79 269.89 234.79C282.2 234.79 292.2 224.81 292.2 212.48C292.2 200.16 282.2 190.17 269.89 190.17C257.55 190.17 247.57 200.16 247.57 212.48Z" id="i1K8ZmdIVf"></path><path d="M177.69 415.92C177.69 428.25 187.69 438.24 200 438.24C212.34 438.24 222.32 428.25 222.32 415.92C222.32 403.61 212.34 393.61 200 393.61C187.69 393.61 177.69 403.61 177.69 415.92Z" id="aDVEazfgp"></path><path d="M177.69 415.92C177.69 428.25 187.69 438.24 200 438.24C212.34 438.24 222.32 428.25 222.32 415.92C222.32 403.61 212.34 393.61 200 393.61C187.69 393.61 177.69 403.61 177.69 415.92Z" id="e10NyGtLVZ"></path><path d="M247.57 319.76C247.57 332.08 257.55 342.07 269.89 342.07C282.2 342.07 292.2 332.08 292.2 319.76C292.2 307.43 282.2 297.45 269.89 297.45C257.55 297.45 247.57 307.43 247.57 319.76Z" id="c4PqGLgIq"></path><path d="M247.57 319.76C247.57 332.08 257.55 342.07 269.89 342.07C282.2 342.07 292.2 332.08 292.2 319.76C292.2 307.43 282.2 297.45 269.89 297.45C257.55 297.45 247.57 307.43 247.57 319.76Z" id="c2StFYr12"></path><path d="M185.14 327.5L203.57 410.9L301.73 398.54L421.89 373.7L341.96 263.61L267.68 216.15L272.41 208.5L348.35 256.91L437.61 379.67L303.19 407.23L196.35 420.85L196.35 420.85L176.45 329.49L185.14 327.5Z" id="a2LrmjZsqw"></path><path d="M185.14 327.5L203.57 410.9L301.73 398.54L421.89 373.7L341.96 263.61L267.68 216.15L272.41 208.5L348.35 256.91L437.61 379.67L303.19 407.23L196.35 420.85L196.35 420.85L176.45 329.49L185.14 327.5Z" id="hQHj3LoOi"></path><path d="M336.19 273.03L272.83 323.21L267.16 316.29L354.11 247.69L306.66 394.76L306.66 394.76L297.95 392.04L336.19 273.03Z" id="a4XvmeQskO"></path><path d="M336.19 273.03L272.83 323.21L267.16 316.29L354.11 247.69L306.66 394.76L306.66 394.76L297.95 392.04L336.19 273.03Z" id="b3xESBmMEU"></path><path d="M179.7 319.95C254.41 367.48 295.92 393.9 304.22 399.19C304.22 399.19 304.22 399.19 304.22 399.19C301.36 403.7 299.76 406.2 299.45 406.7C299.45 406.7 299.45 406.7 299.45 406.7C224.73 359.15 183.21 332.74 174.92 327.46C174.92 327.46 174.92 327.46 174.92 327.46C177.78 322.95 179.37 320.44 179.7 319.95C179.7 319.95 179.7 319.95 179.7 319.95Z" id="b2toZhgPyi"></path><path d="M179.7 319.95C254.41 367.48 295.92 393.9 304.22 399.19C304.22 399.19 304.22 399.19 304.22 399.19C301.36 403.7 299.76 406.2 299.45 406.7C299.45 406.7 299.45 406.7 299.45 406.7C224.73 359.15 183.21 332.74 174.92 327.46C174.92 327.46 174.92 327.46 174.92 327.46C177.78 322.95 179.37 320.44 179.7 319.95C179.7 319.95 179.7 319.95 179.7 319.95Z" id="a32Pa31NQf"></path><path d="M293.46 389.72L307.27 389.72L313.05 324.01L313.05 297.48L286.51 297.48L286.51 297.48L286.51 324.01L293.46 389.72Z" id="bv0PFWpH8"></path><path d="M293.46 389.72L307.27 389.72L313.05 324.01L313.05 297.48L286.51 297.48L286.51 297.48L286.51 324.01L293.46 389.72Z" id="b5F43uOYT6"></path><path d="M286.51 416.25C286.51 423.88 292.7 430.06 300.32 430.06C307.94 430.06 314.13 423.88 314.13 416.25C314.13 408.63 307.94 402.46 300.32 402.46C292.7 402.46 286.51 408.63 286.51 416.25Z" id="f1l4jUXSd1"></path><path d="M286.51 416.25C286.51 423.88 292.7 430.06 300.32 430.06C307.94 430.06 314.13 423.88 314.13 416.25C314.13 408.63 307.94 402.46 300.32 402.46C292.7 402.46 286.51 408.63 286.51 416.25Z" id="b5Bou5L40"></path><path d="M4.54 320.32C4.54 493.64 145.03 634.14 318.34 634.14C491.65 634.14 632.14 493.64 632.14 320.32C632.14 147.01 491.65 6.52 318.34 6.52C145.03 6.52 4.54 147.01 4.54 320.32Z" id="f18HFkVdEs"></path><path d="M4.54 320.32C4.54 493.64 145.03 634.14 318.34 634.14C491.65 634.14 632.14 493.64 632.14 320.32C632.14 147.01 491.65 6.52 318.34 6.52C145.03 6.52 4.54 147.01 4.54 320.32Z" id="a16OxCh79M"></path><path d="M282.93 109.62L289.11 110.24L295.2 111.11L301.22 112.21L307.14 113.55L312.99 115.12L318.73 116.91L324.39 118.92L329.92 121.14L335.37 123.55L340.69 126.18L345.89 129.01L350.96 132.02L355.91 135.24L360.73 138.63L365.41 142.19L369.94 145.94L374.32 149.84L378.57 153.92L382.62 158.15L386.54 162.53L390.27 167.07L393.85 171.74L397.24 176.56L400.44 181.5L403.46 186.59L406.29 191.78L408.92 197.12L411.34 202.54L413.57 208.1L415.57 213.74L417.35 219.49L418.92 225.32L420.26 231.26L421.36 237.28L422.23 243.38L422.85 249.55L423.24 255.79L423.37 262.1L423.24 268.4L422.85 274.62L422.23 280.78L421.36 286.87L420.24 292.87L418.9 298.8L417.35 304.63L415.56 310.37L413.55 316.01L411.33 321.55L408.9 326.98L406.29 332.28L403.46 337.47L400.44 342.54L397.24 347.49L393.85 352.29L390.29 356.97L386.56 361.5L382.66 365.87L378.6 370.1L374.37 374.15L369.98 378.06L365.46 381.8L360.79 385.37L355.99 388.74L351.04 391.94L345.97 394.96L340.78 397.79L335.46 400.42L330.03 402.83L324.5 405.05L318.87 407.06L313.13 408.85L307.3 410.4L301.37 411.75L295.37 412.86L289.28 413.73L283.12 414.35L276.88 414.74L270.59 414.86L264.29 414.74L258.05 414.37L251.88 413.74L245.8 412.89L239.78 411.79L233.86 410.45L228.01 408.89L222.27 407.1L216.61 405.11L211.08 402.89L205.65 400.48L200.33 397.85L195.12 395.04L190.05 392.02L185.09 388.82L180.29 385.43L175.61 381.87L171.08 378.14L166.7 374.23L162.47 370.17L158.39 365.94L154.47 361.56L150.74 357.03L147.17 352.37L143.78 347.55L140.57 342.6L137.54 337.53L134.73 332.34L132.08 327.02L129.66 321.6L127.45 316.06L125.43 310.41L123.64 304.66L122.07 298.83L120.73 292.91L119.63 286.89L118.76 280.81L118.12 274.63L117.74 268.4L117.6 262.1L117.73 255.79L118.1 249.55L118.72 243.39L119.59 237.3L120.68 231.28L122.02 225.36L123.59 219.51L125.36 213.77L127.37 208.13L129.58 202.58L132 197.15L134.62 191.83L137.45 186.62L140.46 181.55L143.65 176.61L147.04 171.79L150.6 167.11L154.33 162.58L158.24 158.2L162.31 153.97L166.54 149.89L170.91 145.97L175.44 142.24L180.12 138.66L184.92 135.27L189.87 132.07L194.93 129.05L200.13 126.22L205.45 123.6L210.87 121.17L216.42 118.95L222.07 116.94L227.81 115.15L233.64 113.58L239.58 112.23L245.58 111.13L251.68 110.25L257.83 109.63L264.09 109.24L270.38 109.1L276.68 109.24L282.93 109.62ZM258.77 119.74L253.06 120.32L247.42 121.12L241.85 122.15L236.36 123.39L230.96 124.84L225.65 126.49L220.41 128.34L215.29 130.39L210.25 132.65L205.32 135.07L200.52 137.68L195.82 140.48L191.23 143.45L186.79 146.58L182.45 149.89L178.27 153.34L174.21 156.97L170.29 160.73L166.52 164.65L162.9 168.71L159.43 172.91L156.14 177.23L153 181.68L150.04 186.26L147.24 190.96L144.63 195.78L142.19 200.69L139.95 205.73L137.9 210.86L136.05 216.09L134.4 221.41L132.94 226.8L131.71 232.29L130.68 237.86L129.87 243.5L129.3 249.21L128.94 254.99L128.83 260.83L128.94 266.66L129.3 272.44L129.87 278.15L130.68 283.79L131.71 289.36L132.94 294.85L134.4 300.24L136.05 305.56L137.9 310.79L139.95 315.92L142.19 320.96L144.63 325.87L147.24 330.69L150.04 335.39L153 339.98L156.14 344.42L159.43 348.76L162.9 352.96L166.52 357.02L170.29 360.94L174.21 364.7L178.27 368.32L182.45 371.79L186.79 375.09L191.23 378.23L195.82 381.2L200.52 384L205.32 386.61L210.25 389.05L215.27 391.29L220.41 393.36L225.65 395.21L230.96 396.87L236.36 398.33L241.85 399.58L247.42 400.6L253.06 401.41L258.77 402L264.55 402.36L270.38 402.49L276.2 402.35L281.97 401.96L287.66 401.37L293.29 400.54L298.86 399.5L304.33 398.24L309.73 396.78L315.03 395.12L320.25 393.25L325.37 391.2L330.39 388.94L335.31 386.5L340.11 383.89L344.79 381.09L349.36 378.12L353.81 374.98L358.13 371.68L362.33 368.21L366.37 364.61L370.29 360.84L374.06 356.92L377.66 352.88L381.13 348.68L384.43 344.36L387.57 339.91L390.54 335.34L393.34 330.66L395.95 325.86L398.39 320.94L400.65 315.92L402.7 310.8L404.57 305.58L406.23 300.28L407.69 294.88L408.95 289.41L409.99 283.84L410.82 278.21L411.41 272.52L411.8 266.75L411.94 260.93L411.94 260.83L411.81 254.99L411.47 249.21L410.88 243.5L410.09 237.86L409.06 232.29L407.81 226.8L406.37 221.41L404.72 216.09L402.85 210.86L400.8 205.73L398.56 200.69L396.14 195.78L393.52 190.96L390.73 186.26L387.76 181.68L384.61 177.23L381.32 172.91L377.87 168.71L374.24 164.65L370.48 160.73L366.56 156.97L362.5 153.34L358.3 149.89L353.98 146.58L349.52 143.45L344.95 140.48L340.25 137.68L335.43 135.07L330.52 132.65L325.48 130.39L320.35 128.34L315.12 126.49L309.8 124.84L304.39 123.39L298.9 122.15L293.34 121.12L287.71 120.32L281.98 119.74L276.21 119.4L270.38 119.27L264.55 119.4L258.77 119.74Z" id="c2evQpuGAj"></path><path d="M282.93 109.62L289.11 110.24L295.2 111.11L301.22 112.21L307.14 113.55L312.99 115.12L318.73 116.91L324.39 118.92L329.92 121.14L335.37 123.55L340.69 126.18L345.89 129.01L350.96 132.02L355.91 135.24L360.73 138.63L365.41 142.19L369.94 145.94L374.32 149.84L378.57 153.92L382.62 158.15L386.54 162.53L390.27 167.07L393.85 171.74L397.24 176.56L400.44 181.5L403.46 186.59L406.29 191.78L408.92 197.12L411.34 202.54L413.57 208.1L415.57 213.74L417.35 219.49L418.92 225.32L420.26 231.26L421.36 237.28L422.23 243.38L422.85 249.55L423.24 255.79L423.37 262.1L423.24 268.4L422.85 274.62L422.23 280.78L421.36 286.87L420.24 292.87L418.9 298.8L417.35 304.63L415.56 310.37L413.55 316.01L411.33 321.55L408.9 326.98L406.29 332.28L403.46 337.47L400.44 342.54L397.24 347.49L393.85 352.29L390.29 356.97L386.56 361.5L382.66 365.87L378.6 370.1L374.37 374.15L369.98 378.06L365.46 381.8L360.79 385.37L355.99 388.74L351.04 391.94L345.97 394.96L340.78 397.79L335.46 400.42L330.03 402.83L324.5 405.05L318.87 407.06L313.13 408.85L307.3 410.4L301.37 411.75L295.37 412.86L289.28 413.73L283.12 414.35L276.88 414.74L270.59 414.86L264.29 414.74L258.05 414.37L251.88 413.74L245.8 412.89L239.78 411.79L233.86 410.45L228.01 408.89L222.27 407.1L216.61 405.11L211.08 402.89L205.65 400.48L200.33 397.85L195.12 395.04L190.05 392.02L185.09 388.82L180.29 385.43L175.61 381.87L171.08 378.14L166.7 374.23L162.47 370.17L158.39 365.94L154.47 361.56L150.74 357.03L147.17 352.37L143.78 347.55L140.57 342.6L137.54 337.53L134.73 332.34L132.08 327.02L129.66 321.6L127.45 316.06L125.43 310.41L123.64 304.66L122.07 298.83L120.73 292.91L119.63 286.89L118.76 280.81L118.12 274.63L117.74 268.4L117.6 262.1L117.73 255.79L118.1 249.55L118.72 243.39L119.59 237.3L120.68 231.28L122.02 225.36L123.59 219.51L125.36 213.77L127.37 208.13L129.58 202.58L132 197.15L134.62 191.83L137.45 186.62L140.46 181.55L143.65 176.61L147.04 171.79L150.6 167.11L154.33 162.58L158.24 158.2L162.31 153.97L166.54 149.89L170.91 145.97L175.44 142.24L180.12 138.66L184.92 135.27L189.87 132.07L194.93 129.05L200.13 126.22L205.45 123.6L210.87 121.17L216.42 118.95L222.07 116.94L227.81 115.15L233.64 113.58L239.58 112.23L245.58 111.13L251.68 110.25L257.83 109.63L264.09 109.24L270.38 109.1L276.68 109.24L282.93 109.62ZM258.77 119.74L253.06 120.32L247.42 121.12L241.85 122.15L236.36 123.39L230.96 124.84L225.65 126.49L220.41 128.34L215.29 130.39L210.25 132.65L205.32 135.07L200.52 137.68L195.82 140.48L191.23 143.45L186.79 146.58L182.45 149.89L178.27 153.34L174.21 156.97L170.29 160.73L166.52 164.65L162.9 168.71L159.43 172.91L156.14 177.23L153 181.68L150.04 186.26L147.24 190.96L144.63 195.78L142.19 200.69L139.95 205.73L137.9 210.86L136.05 216.09L134.4 221.41L132.94 226.8L131.71 232.29L130.68 237.86L129.87 243.5L129.3 249.21L128.94 254.99L128.83 260.83L128.94 266.66L129.3 272.44L129.87 278.15L130.68 283.79L131.71 289.36L132.94 294.85L134.4 300.24L136.05 305.56L137.9 310.79L139.95 315.92L142.19 320.96L144.63 325.87L147.24 330.69L150.04 335.39L153 339.98L156.14 344.42L159.43 348.76L162.9 352.96L166.52 357.02L170.29 360.94L174.21 364.7L178.27 368.32L182.45 371.79L186.79 375.09L191.23 378.23L195.82 381.2L200.52 384L205.32 386.61L210.25 389.05L215.27 391.29L220.41 393.36L225.65 395.21L230.96 396.87L236.36 398.33L241.85 399.58L247.42 400.6L253.06 401.41L258.77 402L264.55 402.36L270.38 402.49L276.2 402.35L281.97 401.96L287.66 401.37L293.29 400.54L298.86 399.5L304.33 398.24L309.73 396.78L315.03 395.12L320.25 393.25L325.37 391.2L330.39 388.94L335.31 386.5L340.11 383.89L344.79 381.09L349.36 378.12L353.81 374.98L358.13 371.68L362.33 368.21L366.37 364.61L370.29 360.84L374.06 356.92L377.66 352.88L381.13 348.68L384.43 344.36L387.57 339.91L390.54 335.34L393.34 330.66L395.95 325.86L398.39 320.94L400.65 315.92L402.7 310.8L404.57 305.58L406.23 300.28L407.69 294.88L408.95 289.41L409.99 283.84L410.82 278.21L411.41 272.52L411.8 266.75L411.94 260.93L411.94 260.83L411.81 254.99L411.47 249.21L410.88 243.5L410.09 237.86L409.06 232.29L407.81 226.8L406.37 221.41L404.72 216.09L402.85 210.86L400.8 205.73L398.56 200.69L396.14 195.78L393.52 190.96L390.73 186.26L387.76 181.68L384.61 177.23L381.32 172.91L377.87 168.71L374.24 164.65L370.48 160.73L366.56 156.97L362.5 153.34L358.3 149.89L353.98 146.58L349.52 143.45L344.95 140.48L340.25 137.68L335.43 135.07L330.52 132.65L325.48 130.39L320.35 128.34L315.12 126.49L309.8 124.84L304.39 123.39L298.9 122.15L293.34 121.12L287.71 120.32L281.98 119.74L276.21 119.4L270.38 119.27L264.55 119.4L258.77 119.74Z" id="d2b1IgYhe"></path><path d="M235.02 209.59L219.04 225.57L258.94 265.49L245.29 279.25L252.17 287.18L266.99 273.53L284.15 290.57L300.02 275.75L281.81 257.54L350.31 189.05L342.27 181.1L342.27 181.1L273.77 249.49L235.02 209.59Z" id="biMcN89YO"></path><path d="M235.02 209.59L219.04 225.57L258.94 265.49L245.29 279.25L252.17 287.18L266.99 273.53L284.15 290.57L300.02 275.75L281.81 257.54L350.31 189.05L342.27 181.1L342.27 181.1L273.77 249.49L235.02 209.59Z" id="c1FKxseuAB"></path><path d="M282.98 420.18C282.96 419.96 282.96 419.75 282.98 419.53C282.98 407.32 282.98 309.67 282.98 297.46C282.79 294.48 285.06 291.93 288.05 291.74C288.27 291.72 288.48 291.72 288.7 291.74C303.99 291.74 426.29 291.74 441.57 291.74C444.56 291.55 447.11 293.82 447.3 296.81C447.31 297.03 447.31 297.24 447.3 297.46C447.3 309.78 447.3 408.36 447.3 420.7C446.29 423.09 444.14 424.8 441.57 425.25C411 425.25 303.99 425.25 288.7 425.25C285.72 425.42 283.17 423.15 282.98 420.18Z" id="a3uclr9s4l"></path><path d="M282.98 420.18C282.96 419.96 282.96 419.75 282.98 419.53C282.98 407.32 282.98 309.67 282.98 297.46C282.79 294.48 285.06 291.93 288.05 291.74C288.27 291.72 288.48 291.72 288.7 291.74C303.99 291.74 426.29 291.74 441.57 291.74C444.56 291.55 447.11 293.82 447.3 296.81C447.31 297.03 447.31 297.24 447.3 297.46C447.3 309.78 447.3 408.36 447.3 420.7C446.29 423.09 444.14 424.8 441.57 425.25C411 425.25 303.99 425.25 288.7 425.25C285.72 425.42 283.17 423.15 282.98 420.18Z" id="cEhF6DVF4"></path><path d="M432.37 338.53L432.66 338.64L432.97 338.75L433.27 338.87L433.57 338.98L433.86 339.1L434.17 339.21L434.76 339.46L435.06 339.57L435.35 339.7L435.65 339.84L435.95 339.96L436.22 340.08L436.52 340.22L436.82 340.35L437.11 340.49L437.39 340.63L437.69 340.77L437.97 340.91L438.26 341.05L438.54 341.19L438.82 341.34L439.12 341.48L439.4 341.64L439.68 341.78L440.8 342.4L441.08 342.57L441.36 342.73L441.62 342.88L442.18 343.23L442.44 343.38L442.72 343.55L442.99 343.72L443.27 343.91L443.8 344.25L474.6 328.27L500.87 361.4L480.32 386.5L480.59 387.17L481.12 388.54L481.37 389.24L481.62 389.92L481.85 390.61L482.08 391.31L482.3 392.01L482.52 392.69L482.74 393.39L482.94 394.09L483.14 394.8L483.51 396.2L483.7 396.92L483.87 397.62L484.04 398.33L484.35 399.77L484.49 400.46L484.63 401.18L484.77 401.91L485.02 403.34L485.13 404.06L485.24 404.79L485.33 405.5L485.44 406.23L485.52 406.95L485.67 408.41L485.74 409.14L485.8 409.86L485.86 410.59L485.95 412.05L485.99 412.78L486 413.51L486.03 414.24L486.05 414.97L512.09 432.12L497.69 470.98L466.87 466.43L466.41 467L465.44 468.12L464.96 468.67L463.97 469.76L463.45 470.3L462.94 470.83L461.38 472.38L460.84 472.88L460.31 473.39L459.77 473.89L459.22 474.37L458.1 475.34L456.98 476.27L456.41 476.74L455.83 477.19L454.65 478.09L454.06 478.53L453.47 478.95L452.86 479.38L452.27 479.79L451.65 480.21L451.04 480.61L450.42 481.01L449.18 481.79L447.27 482.91L446.63 483.27L445.97 483.63L444.67 484.31L444.02 484.64L442.85 516.41L400.49 524.34L387.9 492.58L375.3 489.19L375 489.08L374.69 488.98L374.4 488.87L374.1 488.74L373.79 488.63L373.5 488.51L373.2 488.4L372.02 487.9L371.72 487.76L371.43 487.64L371.15 487.51L370.56 487.23L370.28 487.09L369.98 486.97L369.7 486.83L369.41 486.67L368.85 486.39L368.55 486.24L368.27 486.1L366.59 485.17L366.31 485L366.03 484.84L365.77 484.67L365.49 484.51L365.22 484.34L364.94 484.17L364.68 484L364.4 483.83L364.13 483.66L363.87 483.47L332.96 499.46L306.69 466.32L327.23 441.24L326.44 439.18L326.19 438.5L325.94 437.8L325.71 437.12L325.48 436.42L325.26 435.73L324.82 434.33L324.42 432.93L324.23 432.22L323.86 430.82L323.52 429.39L323.36 428.69L323.21 427.97L322.79 425.83L322.66 425.11L322.54 424.38L322.32 422.95L322.23 422.22L322.12 421.5L321.96 420.04L321.89 419.33L321.7 417.13L321.61 415.67L321.57 414.94L321.56 414.21L321.53 413.48L321.51 412.75L295.15 395.49L309.97 356.74L340.78 361.29L342.71 359.06L343.7 357.97L345.24 356.38L345.75 355.87L346.81 354.84L348.44 353.35L349.56 352.38L350.68 351.45L351.26 350.98L351.83 350.53L352.43 350.08L353 349.65L353.59 349.21L354.2 348.78L354.79 348.36L356 347.52L356.62 347.11L357.25 346.72L357.87 346.32L358.49 345.95L359.13 345.56L359.77 345.18L360.4 344.83L361.04 344.45L361.69 344.11L362.35 343.75L363 343.43L363.65 343.09L364.82 311.33L407.16 303.39L419.77 335.15L432.37 338.53ZM372.66 345.64L372.66 349.01L369.27 351.34L368.66 351.62L368.07 351.9L366.89 352.49L366.31 352.79L365.72 353.1L365.15 353.43L364.59 353.74L364.01 354.08L363.45 354.41L362.89 354.75L362.33 355.11L361.24 355.82L360.15 356.57L359.63 356.94L358.57 357.72L357.54 358.53L356.52 359.37L355.52 360.21L355.04 360.64L354.56 361.09L354.07 361.53L353.59 361.99L353.13 362.45L352.66 362.91L352.21 363.38L351.74 363.86L351.31 364.34L350.86 364.82L350.42 365.31L349.98 365.8L349.56 366.32L349.14 366.81L348.72 367.33L346.39 370.72L343 370.72L317.92 367.33L306.48 395.82L327.02 409.47L330.41 411.8L330.41 415.08L330.39 415.75L330.39 416.42L330.38 417.1L330.39 417.77L330.39 418.44L330.42 419.11L330.44 419.78L330.47 420.45L330.52 421.13L330.55 421.8L330.61 422.47L330.66 423.12L330.73 423.79L330.8 424.46L330.87 425.13L330.97 425.8L331.06 426.45L331.15 427.12L331.26 427.77L331.37 428.44L331.48 429.09L331.6 429.76L332.16 432.37L332.34 433.03L332.49 433.68L332.66 434.32L332.83 434.97L333.02 435.61L333.21 436.26L333.81 438.17L334.03 438.81L334.26 439.45L334.48 440.09L334.71 440.71L334.96 441.33L336.13 444.72L333.8 448.11L316.65 468.65L336.02 492.58L361.12 478.91L364.51 476.6L367.88 478.91L368.44 479.1L368.72 479.21L368.99 479.3L369.27 479.41L369.53 479.52L369.81 479.63L370.08 479.74L370.34 479.86L370.62 479.97L372.21 480.72L372.47 480.86L373.26 481.23L373.53 481.37L373.79 481.5L374.04 481.62L374.83 481.99L375.08 482.12L375.61 482.37L375.88 482.48L376.12 482.6L376.92 482.93L377.17 483.02L377.43 483.13L377.69 483.22L377.96 483.3L378.21 483.39L378.74 483.55L379 483.64L379.53 483.8L379.78 483.88L380.04 483.95L380.31 484.05L381.1 484.28L381.63 484.45L381.89 484.54L382.42 484.7L382.7 484.79L382.97 484.87L383.25 484.96L383.53 485.04L383.79 485.13L384.07 485.21L384.35 485.31L384.65 485.38L384.93 485.48L385.22 485.55L385.5 485.65L385.8 485.73L386.09 485.82L386.39 485.9L386.7 485.99L386.99 486.08L387.3 486.16L387.62 486.25L387.94 486.33L388.25 486.43L388.58 486.52L388.91 486.6L389.23 486.69L389.57 486.78L389.92 486.86L393.29 488.03L394.46 491.42L405.05 517.67L435.85 512.16L437.02 485.91L437.02 482.41L440.41 480.08L441.01 479.82L441.61 479.52L442.2 479.24L442.79 478.95L443.36 478.64L443.95 478.32L444.53 478.01L445.1 477.69L445.66 477.36L447.34 476.33L447.89 475.98L448.45 475.62L448.98 475.25L449.52 474.87L451.11 473.71L451.62 473.3L452.15 472.9L452.65 472.49L453.16 472.07L453.66 471.65L454.15 471.22L454.64 470.78L455.13 470.35L455.6 469.9L456.08 469.44L456.55 468.99L457.48 468.06L458.38 467.1L458.82 466.61L459.69 465.62L460.11 465.12L460.95 464.1L463.28 460.71L466.67 460.71L491.75 464.1L503.84 435.41L483.29 421.75L479.91 419.42L479.91 416.03L479.92 415.36L479.92 414.69L479.94 414.02L479.92 413.34L479.92 412.67L479.89 412L479.87 411.33L479.84 410.67L479.8 410L479.77 409.33L479.7 408.66L479.66 407.99L479.58 407.32L479.52 406.65L479.44 405.99L479.35 405.33L479.27 404.66L479.16 403.99L479.05 403.34L478.94 402.67L478.83 402.02L478.71 401.37L478.57 400.7L478.44 400.05L478.29 399.39L478.15 398.74L477.98 398.09L477.82 397.43L477.65 396.8L477.48 396.14L477.29 395.5L477.11 394.85L476.5 392.94L476.28 392.3L476.05 391.66L475.83 391.04L475.6 390.4L475.35 389.78L474.18 386.39L476.52 383L493.67 362.46L474.29 338.53L449.19 352.2L445.8 354.51L442.43 352.2L441.59 351.92L441.33 351.81L441.05 351.7L440.78 351.59L440.5 351.48L439.97 351.26L439.69 351.14L437.84 350.27L437.58 350.13L437.05 349.88L436.78 349.74L436.52 349.62L436.27 349.49L435.48 349.12L435.23 348.99L434.7 348.75L434.44 348.64L434.19 348.53L433.92 348.4L433.66 348.29L433.41 348.2L433.15 348.09L432.35 347.81L432.1 347.72L431.05 347.41L430.78 347.31L430.53 347.24L430 347.08L429.74 346.99L429.21 346.83L428.68 346.66L428.42 346.58L428.15 346.49L427.89 346.41L427.61 346.32L427.35 346.24L427.07 346.16L426.79 346.07L426.52 345.99L426.24 345.9L425.96 345.82L425.67 345.73L425.39 345.65L425.11 345.56L424.81 345.46L424.52 345.39L424.22 345.29L423.92 345.22L423.61 345.12L423.32 345.04L422.7 344.86L422.37 344.78L422.06 344.69L421.73 344.61L421.08 344.42L420.74 344.34L420.39 344.25L417.02 343.09L415.85 339.7L405.26 313.45L374.46 319.15L372.66 345.64Z" id="e1sDgXQnLX"></path><path d="M432.37 338.53L432.66 338.64L432.97 338.75L433.27 338.87L433.57 338.98L433.86 339.1L434.17 339.21L434.76 339.46L435.06 339.57L435.35 339.7L435.65 339.84L435.95 339.96L436.22 340.08L436.52 340.22L436.82 340.35L437.11 340.49L437.39 340.63L437.69 340.77L437.97 340.91L438.26 341.05L438.54 341.19L438.82 341.34L439.12 341.48L439.4 341.64L439.68 341.78L440.8 342.4L441.08 342.57L441.36 342.73L441.62 342.88L442.18 343.23L442.44 343.38L442.72 343.55L442.99 343.72L443.27 343.91L443.8 344.25L474.6 328.27L500.87 361.4L480.32 386.5L480.59 387.17L481.12 388.54L481.37 389.24L481.62 389.92L481.85 390.61L482.08 391.31L482.3 392.01L482.52 392.69L482.74 393.39L482.94 394.09L483.14 394.8L483.51 396.2L483.7 396.92L483.87 397.62L484.04 398.33L484.35 399.77L484.49 400.46L484.63 401.18L484.77 401.91L485.02 403.34L485.13 404.06L485.24 404.79L485.33 405.5L485.44 406.23L485.52 406.95L485.67 408.41L485.74 409.14L485.8 409.86L485.86 410.59L485.95 412.05L485.99 412.78L486 413.51L486.03 414.24L486.05 414.97L512.09 432.12L497.69 470.98L466.87 466.43L466.41 467L465.44 468.12L464.96 468.67L463.97 469.76L463.45 470.3L462.94 470.83L461.38 472.38L460.84 472.88L460.31 473.39L459.77 473.89L459.22 474.37L458.1 475.34L456.98 476.27L456.41 476.74L455.83 477.19L454.65 478.09L454.06 478.53L453.47 478.95L452.86 479.38L452.27 479.79L451.65 480.21L451.04 480.61L450.42 481.01L449.18 481.79L447.27 482.91L446.63 483.27L445.97 483.63L444.67 484.31L444.02 484.64L442.85 516.41L400.49 524.34L387.9 492.58L375.3 489.19L375 489.08L374.69 488.98L374.4 488.87L374.1 488.74L373.79 488.63L373.5 488.51L373.2 488.4L372.02 487.9L371.72 487.76L371.43 487.64L371.15 487.51L370.56 487.23L370.28 487.09L369.98 486.97L369.7 486.83L369.41 486.67L368.85 486.39L368.55 486.24L368.27 486.1L366.59 485.17L366.31 485L366.03 484.84L365.77 484.67L365.49 484.51L365.22 484.34L364.94 484.17L364.68 484L364.4 483.83L364.13 483.66L363.87 483.47L332.96 499.46L306.69 466.32L327.23 441.24L326.44 439.18L326.19 438.5L325.94 437.8L325.71 437.12L325.48 436.42L325.26 435.73L324.82 434.33L324.42 432.93L324.23 432.22L323.86 430.82L323.52 429.39L323.36 428.69L323.21 427.97L322.79 425.83L322.66 425.11L322.54 424.38L322.32 422.95L322.23 422.22L322.12 421.5L321.96 420.04L321.89 419.33L321.7 417.13L321.61 415.67L321.57 414.94L321.56 414.21L321.53 413.48L321.51 412.75L295.15 395.49L309.97 356.74L340.78 361.29L342.71 359.06L343.7 357.97L345.24 356.38L345.75 355.87L346.81 354.84L348.44 353.35L349.56 352.38L350.68 351.45L351.26 350.98L351.83 350.53L352.43 350.08L353 349.65L353.59 349.21L354.2 348.78L354.79 348.36L356 347.52L356.62 347.11L357.25 346.72L357.87 346.32L358.49 345.95L359.13 345.56L359.77 345.18L360.4 344.83L361.04 344.45L361.69 344.11L362.35 343.75L363 343.43L363.65 343.09L364.82 311.33L407.16 303.39L419.77 335.15L432.37 338.53ZM372.66 345.64L372.66 349.01L369.27 351.34L368.66 351.62L368.07 351.9L366.89 352.49L366.31 352.79L365.72 353.1L365.15 353.43L364.59 353.74L364.01 354.08L363.45 354.41L362.89 354.75L362.33 355.11L361.24 355.82L360.15 356.57L359.63 356.94L358.57 357.72L357.54 358.53L356.52 359.37L355.52 360.21L355.04 360.64L354.56 361.09L354.07 361.53L353.59 361.99L353.13 362.45L352.66 362.91L352.21 363.38L351.74 363.86L351.31 364.34L350.86 364.82L350.42 365.31L349.98 365.8L349.56 366.32L349.14 366.81L348.72 367.33L346.39 370.72L343 370.72L317.92 367.33L306.48 395.82L327.02 409.47L330.41 411.8L330.41 415.08L330.39 415.75L330.39 416.42L330.38 417.1L330.39 417.77L330.39 418.44L330.42 419.11L330.44 419.78L330.47 420.45L330.52 421.13L330.55 421.8L330.61 422.47L330.66 423.12L330.73 423.79L330.8 424.46L330.87 425.13L330.97 425.8L331.06 426.45L331.15 427.12L331.26 427.77L331.37 428.44L331.48 429.09L331.6 429.76L332.16 432.37L332.34 433.03L332.49 433.68L332.66 434.32L332.83 434.97L333.02 435.61L333.21 436.26L333.81 438.17L334.03 438.81L334.26 439.45L334.48 440.09L334.71 440.71L334.96 441.33L336.13 444.72L333.8 448.11L316.65 468.65L336.02 492.58L361.12 478.91L364.51 476.6L367.88 478.91L368.44 479.1L368.72 479.21L368.99 479.3L369.27 479.41L369.53 479.52L369.81 479.63L370.08 479.74L370.34 479.86L370.62 479.97L372.21 480.72L372.47 480.86L373.26 481.23L373.53 481.37L373.79 481.5L374.04 481.62L374.83 481.99L375.08 482.12L375.61 482.37L375.88 482.48L376.12 482.6L376.92 482.93L377.17 483.02L377.43 483.13L377.69 483.22L377.96 483.3L378.21 483.39L378.74 483.55L379 483.64L379.53 483.8L379.78 483.88L380.04 483.95L380.31 484.05L381.1 484.28L381.63 484.45L381.89 484.54L382.42 484.7L382.7 484.79L382.97 484.87L383.25 484.96L383.53 485.04L383.79 485.13L384.07 485.21L384.35 485.31L384.65 485.38L384.93 485.48L385.22 485.55L385.5 485.65L385.8 485.73L386.09 485.82L386.39 485.9L386.7 485.99L386.99 486.08L387.3 486.16L387.62 486.25L387.94 486.33L388.25 486.43L388.58 486.52L388.91 486.6L389.23 486.69L389.57 486.78L389.92 486.86L393.29 488.03L394.46 491.42L405.05 517.67L435.85 512.16L437.02 485.91L437.02 482.41L440.41 480.08L441.01 479.82L441.61 479.52L442.2 479.24L442.79 478.95L443.36 478.64L443.95 478.32L444.53 478.01L445.1 477.69L445.66 477.36L447.34 476.33L447.89 475.98L448.45 475.62L448.98 475.25L449.52 474.87L451.11 473.71L451.62 473.3L452.15 472.9L452.65 472.49L453.16 472.07L453.66 471.65L454.15 471.22L454.64 470.78L455.13 470.35L455.6 469.9L456.08 469.44L456.55 468.99L457.48 468.06L458.38 467.1L458.82 466.61L459.69 465.62L460.11 465.12L460.95 464.1L463.28 460.71L466.67 460.71L491.75 464.1L503.84 435.41L483.29 421.75L479.91 419.42L479.91 416.03L479.92 415.36L479.92 414.69L479.94 414.02L479.92 413.34L479.92 412.67L479.89 412L479.87 411.33L479.84 410.67L479.8 410L479.77 409.33L479.7 408.66L479.66 407.99L479.58 407.32L479.52 406.65L479.44 405.99L479.35 405.33L479.27 404.66L479.16 403.99L479.05 403.34L478.94 402.67L478.83 402.02L478.71 401.37L478.57 400.7L478.44 400.05L478.29 399.39L478.15 398.74L477.98 398.09L477.82 397.43L477.65 396.8L477.48 396.14L477.29 395.5L477.11 394.85L476.5 392.94L476.28 392.3L476.05 391.66L475.83 391.04L475.6 390.4L475.35 389.78L474.18 386.39L476.52 383L493.67 362.46L474.29 338.53L449.19 352.2L445.8 354.51L442.43 352.2L441.59 351.92L441.33 351.81L441.05 351.7L440.78 351.59L440.5 351.48L439.97 351.26L439.69 351.14L437.84 350.27L437.58 350.13L437.05 349.88L436.78 349.74L436.52 349.62L436.27 349.49L435.48 349.12L435.23 348.99L434.7 348.75L434.44 348.64L434.19 348.53L433.92 348.4L433.66 348.29L433.41 348.2L433.15 348.09L432.35 347.81L432.1 347.72L431.05 347.41L430.78 347.31L430.53 347.24L430 347.08L429.74 346.99L429.21 346.83L428.68 346.66L428.42 346.58L428.15 346.49L427.89 346.41L427.61 346.32L427.35 346.24L427.07 346.16L426.79 346.07L426.52 345.99L426.24 345.9L425.96 345.82L425.67 345.73L425.39 345.65L425.11 345.56L424.81 345.46L424.52 345.39L424.22 345.29L423.92 345.22L423.61 345.12L423.32 345.04L422.7 344.86L422.37 344.78L422.06 344.69L421.73 344.61L421.08 344.42L420.74 344.34L420.39 344.25L417.02 343.09L415.85 339.7L405.26 313.45L374.46 319.15L372.66 345.64Z" id="cvS7eFemQ"></path><path d="M407.26 372.55L409.17 372.8L411.1 373.16L413.01 373.59L414.92 374.12L416.82 374.76L418.72 375.49L420.58 376.28L422.42 377.17L424.19 378.12L425.88 379.15L427.55 380.23L429.13 381.4L430.66 382.63L432.12 383.92L433.52 385.26L434.84 386.66L436.12 388.12L437.3 389.63L438.43 391.18L439.49 392.78L440.47 394.43L441.37 396.11L442.21 397.82L442.97 399.58L443.66 401.37L444.26 403.19L444.78 405.04L445.23 406.9L445.59 408.8L445.87 410.7L446.05 412.63L446.16 414.57L446.19 416.51L446.11 418.47L445.96 420.43L445.71 422.39L445.38 424.35L444.95 426.32L444.42 428.27L443.8 430.23L443 432.11L442.13 433.93L441.17 435.7L440.14 437.4L439.06 439.04L437.89 440.63L436.66 442.14L435.37 443.59L434 444.97L432.6 446.29L431.14 447.53L429.62 448.72L428.06 449.82L426.44 450.85L424.8 451.8L423.1 452.68L421.37 453.48L419.6 454.21L417.81 454.84L415.99 455.42L414.14 455.9L412.26 456.29L410.38 456.62L408.47 456.83L406.54 456.99L404.61 457.04L402.67 457L400.72 456.88L398.76 456.66L396.81 456.35L394.86 455.95L392.92 455.43L390.99 454.84L389.06 454.14L387.16 453.35L385.31 452.48L383.53 451.52L381.8 450.49L380.12 449.39L378.52 448.22L376.98 446.99L375.5 445.7L374.09 444.35L372.75 442.93L371.46 441.45L370.26 439.95L369.13 438.38L368.05 436.76L367.07 435.09L366.16 433.4L365.32 431.66L364.55 429.89L363.87 428.08L363.26 426.25L362.74 424.4L362.3 422.5L361.94 420.6L361.66 418.67L361.48 416.73L361.38 414.77L361.37 412.81L361.44 410.84L361.62 408.86L361.86 406.87L362.22 404.9L362.67 402.92L363.22 400.95L363.89 398.94L363.95 398.79L363.96 398.75L363.99 398.68L364.01 398.61L364.03 398.6L364.06 398.52L364.07 398.46L364.09 398.44L364.18 398.21L364.21 398.12L364.23 398.1L365.04 396.25L365.94 394.46L366.9 392.74L367.94 391.06L369.06 389.46L370.23 387.92L371.47 386.44L372.78 385.02L374.15 383.69L375.56 382.41L377.03 381.2L378.55 380.06L380.1 379.01L381.72 378.03L383.37 377.11L385.07 376.27L386.78 375.51L388.53 374.82L390.32 374.22L392.14 373.7L393.98 373.25L395.83 372.89L397.71 372.63L399.59 372.43L401.5 372.33L403.41 372.32L405.33 372.38L407.26 372.55ZM399.79 400.85L397.99 401.63L396.28 402.64L394.74 403.9L393.37 405.38L392.22 407.06L391.29 408.94L390.65 410.95L390.32 412.95L390.27 414.97L390.52 416.95L391.04 418.85L391.81 420.66L392.82 422.36L394.08 423.91L395.56 425.28L397.24 426.43L399.12 427.37L401.11 428L403.13 428.33L405.14 428.38L407.12 428.13L409.03 427.62L410.85 426.84L412.54 425.83L414.1 424.57L415.47 423.09L416.62 421.41L417.55 419.53L418.19 417.52L418.51 415.52L418.56 413.5L418.31 411.52L417.8 409.62L417.02 407.8L416.01 406.11L414.75 404.55L413.27 403.19L411.59 402.04L409.71 401.1L407.71 400.46L405.7 400.14L403.68 400.09L401.7 400.34L399.79 400.85Z" id="g1kstDm4df"></path><path d="M407.26 372.55L409.17 372.8L411.1 373.16L413.01 373.59L414.92 374.12L416.82 374.76L418.72 375.49L420.58 376.28L422.42 377.17L424.19 378.12L425.88 379.15L427.55 380.23L429.13 381.4L430.66 382.63L432.12 383.92L433.52 385.26L434.84 386.66L436.12 388.12L437.3 389.63L438.43 391.18L439.49 392.78L440.47 394.43L441.37 396.11L442.21 397.82L442.97 399.58L443.66 401.37L444.26 403.19L444.78 405.04L445.23 406.9L445.59 408.8L445.87 410.7L446.05 412.63L446.16 414.57L446.19 416.51L446.11 418.47L445.96 420.43L445.71 422.39L445.38 424.35L444.95 426.32L444.42 428.27L443.8 430.23L443 432.11L442.13 433.93L441.17 435.7L440.14 437.4L439.06 439.04L437.89 440.63L436.66 442.14L435.37 443.59L434 444.97L432.6 446.29L431.14 447.53L429.62 448.72L428.06 449.82L426.44 450.85L424.8 451.8L423.1 452.68L421.37 453.48L419.6 454.21L417.81 454.84L415.99 455.42L414.14 455.9L412.26 456.29L410.38 456.62L408.47 456.83L406.54 456.99L404.61 457.04L402.67 457L400.72 456.88L398.76 456.66L396.81 456.35L394.86 455.95L392.92 455.43L390.99 454.84L389.06 454.14L387.16 453.35L385.31 452.48L383.53 451.52L381.8 450.49L380.12 449.39L378.52 448.22L376.98 446.99L375.5 445.7L374.09 444.35L372.75 442.93L371.46 441.45L370.26 439.95L369.13 438.38L368.05 436.76L367.07 435.09L366.16 433.4L365.32 431.66L364.55 429.89L363.87 428.08L363.26 426.25L362.74 424.4L362.3 422.5L361.94 420.6L361.66 418.67L361.48 416.73L361.38 414.77L361.37 412.81L361.44 410.84L361.62 408.86L361.86 406.87L362.22 404.9L362.67 402.92L363.22 400.95L363.89 398.94L363.95 398.79L363.96 398.75L363.99 398.68L364.01 398.61L364.03 398.6L364.06 398.52L364.07 398.46L364.09 398.44L364.18 398.21L364.21 398.12L364.23 398.1L365.04 396.25L365.94 394.46L366.9 392.74L367.94 391.06L369.06 389.46L370.23 387.92L371.47 386.44L372.78 385.02L374.15 383.69L375.56 382.41L377.03 381.2L378.55 380.06L380.1 379.01L381.72 378.03L383.37 377.11L385.07 376.27L386.78 375.51L388.53 374.82L390.32 374.22L392.14 373.7L393.98 373.25L395.83 372.89L397.71 372.63L399.59 372.43L401.5 372.33L403.41 372.32L405.33 372.38L407.26 372.55ZM399.79 400.85L397.99 401.63L396.28 402.64L394.74 403.9L393.37 405.38L392.22 407.06L391.29 408.94L390.65 410.95L390.32 412.95L390.27 414.97L390.52 416.95L391.04 418.85L391.81 420.66L392.82 422.36L394.08 423.91L395.56 425.28L397.24 426.43L399.12 427.37L401.11 428L403.13 428.33L405.14 428.38L407.12 428.13L409.03 427.62L410.85 426.84L412.54 425.83L414.1 424.57L415.47 423.09L416.62 421.41L417.55 419.53L418.19 417.52L418.51 415.52L418.56 413.5L418.31 411.52L417.8 409.62L417.02 407.8L416.01 406.11L414.75 404.55L413.27 403.19L411.59 402.04L409.71 401.1L407.71 400.46L405.7 400.14L403.68 400.09L401.7 400.34L399.79 400.85Z" id="dwBRpvLeV"></path></defs><g><g><g><use xlink:href="#a2eTDXEzev" opacity="1" fill="#ffffff" fill-opacity="1"></use><g><use xlink:href="#a2eTDXEzev" opacity="1" fill-opacity="0" stroke="#000000" stroke-width="1" stroke-opacity="0"></use></g></g><g><use xlink:href="#e69PYcAKB7" opacity="1" fill="#000000" fill-opacity="0"></use><g><use xlink:href="#e69PYcAKB7" opacity="1" fill-opacity="0" stroke="#000000" stroke-width="1" stroke-opacity="0"></use></g></g><g><use xlink:href="#csNhJj4TC" opacity="1" fill="#ffffff" fill-opacity="1"></use><g><use xlink:href="#csNhJj4TC" opacity="1" fill-opacity="0" stroke="#000000" stroke-width="1" stroke-opacity="0"></use></g></g><g><use xlink:href="#b22q4ILg0h" opacity="1" fill="#000000" fill-opacity="0"></use><g><use xlink:href="#b22q4ILg0h" opacity="1" fill-opacity="0" stroke="#000000" stroke-width="1" stroke-opacity="0"></use></g></g><g><use xlink:href="#b9bD7OZTJ" opacity="1" fill="#ffffff" fill-opacity="1"></use><g><use xlink:href="#b9bD7OZTJ" opacity="1" fill-opacity="0" stroke="#000000" stroke-width="1" stroke-opacity="0"></use></g></g><g><use xlink:href="#bkiMFUAt" opacity="1" fill="#000000" fill-opacity="0"></use><g><use xlink:href="#bkiMFUAt" opacity="1" fill-opacity="0" stroke="#000000" stroke-width="1" stroke-opacity="0"></use></g></g><g><use xlink:href="#d3tH3LJBi" opacity="1" fill="#ffffff" fill-opacity="1"></use><g><use xlink:href="#d3tH3LJBi" opacity="1" fill-opacity="0" stroke="#000000" stroke-width="1" stroke-opacity="0"></use></g></g><g><use xlink:href="#a2y1B0D3hk" opacity="1" fill="#000000" fill-opacity="0"></use><g><use xlink:href="#a2y1B0D3hk" opacity="1" fill-opacity="0" stroke="#000000" stroke-width="1" stroke-opacity="0"></use></g></g><g><use xlink:href="#emi2xbjE4" opacity="1" fill="#ffffff" fill-opacity="1"></use><g><use xlink:href="#emi2xbjE4" opacity="1" fill-opacity="0" stroke="#000000" stroke-width="1" stroke-opacity="0"></use></g></g><g><use xlink:href="#lpMJrMHNt" opacity="1" fill="#000000" fill-opacity="0"></use><g><use xlink:href="#lpMJrMHNt" opacity="1" fill-opacity="0" stroke="#000000" stroke-width="1" stroke-opacity="0"></use></g></g><g><use xlink:href="#cp9aRCH3" opacity="1" fill="#ffffff" fill-opacity="1"></use><g><use xlink:href="#cp9aRCH3" opacity="1" fill-opacity="0" stroke="#000000" stroke-width="1" stroke-opacity="0"></use></g></g><g><use xlink:href="#bIn04AJ0h" opacity="1" fill="#000000" fill-opacity="0"></use><g><use xlink:href="#bIn04AJ0h" opacity="1" fill-opacity="0" stroke="#000000" stroke-width="1" stroke-opacity="0"></use></g></g><g><use xlink:href="#b377XWdI4B" opacity="1" fill="#ffffff" fill-opacity="1"></use><g><use xlink:href="#b377XWdI4B" opacity="1" fill-opacity="0" stroke="#000000" stroke-width="1" stroke-opacity="0"></use></g></g><g><use xlink:href="#i1K8ZmdIVf" opacity="1" fill="#000000" fill-opacity="0"></use><g><use xlink:href="#i1K8ZmdIVf" opacity="1" fill-opacity="0" stroke="#000000" stroke-width="1" stroke-opacity="0"></use></g></g><g><use xlink:href="#aDVEazfgp" opacity="1" fill="#ffffff" fill-opacity="1"></use><g><use xlink:href="#aDVEazfgp" opacity="1" fill-opacity="0" stroke="#000000" stroke-width="1" stroke-opacity="0"></use></g></g><g><use xlink:href="#e10NyGtLVZ" opacity="1" fill="#000000" fill-opacity="0"></use><g><use xlink:href="#e10NyGtLVZ" opacity="1" fill-opacity="0" stroke="#000000" stroke-width="1" stroke-opacity="0"></use></g></g><g><use xlink:href="#c4PqGLgIq" opacity="1" fill="#ffffff" fill-opacity="1"></use><g><use xlink:href="#c4PqGLgIq" opacity="1" fill-opacity="0" stroke="#000000" stroke-width="1" stroke-opacity="0"></use></g></g><g><use xlink:href="#c2StFYr12" opacity="1" fill="#000000" fill-opacity="0"></use><g><use xlink:href="#c2StFYr12" opacity="1" fill-opacity="0" stroke="#000000" stroke-width="1" stroke-opacity="0"></use></g></g><g><use xlink:href="#a2LrmjZsqw" opacity="1" fill="#ffffff" fill-opacity="1"></use><g><use xlink:href="#a2LrmjZsqw" opacity="1" fill-opacity="0" stroke="#000000" stroke-width="1" stroke-opacity="0"></use></g></g><g><use xlink:href="#hQHj3LoOi" opacity="1" fill="#000000" fill-opacity="0"></use><g><use xlink:href="#hQHj3LoOi" opacity="1" fill-opacity="0" stroke="#000000" stroke-width="1" stroke-opacity="0"></use></g></g><g><use xlink:href="#a4XvmeQskO" opacity="1" fill="#ffffff" fill-opacity="1"></use><g><use xlink:href="#a4XvmeQskO" opacity="1" fill-opacity="0" stroke="#000000" stroke-width="1" stroke-opacity="0"></use></g></g><g><use xlink:href="#b3xESBmMEU" opacity="1" fill="#000000" fill-opacity="0"></use><g><use xlink:href="#b3xESBmMEU" opacity="1" fill-opacity="0" stroke="#000000" stroke-width="1" stroke-opacity="0"></use></g></g><g><use xlink:href="#b2toZhgPyi" opacity="1" fill="#ffffff" fill-opacity="1"></use><g><use xlink:href="#b2toZhgPyi" opacity="1" fill-opacity="0" stroke="#000000" stroke-width="1" stroke-opacity="0"></use></g></g><g><use xlink:href="#a32Pa31NQf" opacity="1" fill="#000000" fill-opacity="0"></use><g><use xlink:href="#a32Pa31NQf" opacity="1" fill-opacity="0" stroke="#000000" stroke-width="1" stroke-opacity="0"></use></g></g><g><use xlink:href="#bv0PFWpH8" opacity="1" fill="#ffffff" fill-opacity="1"></use><g><use xlink:href="#bv0PFWpH8" opacity="1" fill-opacity="0" stroke="#000000" stroke-width="1" stroke-opacity="0"></use></g></g><g><use xlink:href="#b5F43uOYT6" opacity="1" fill="#000000" fill-opacity="0"></use><g><use xlink:href="#b5F43uOYT6" opacity="1" fill-opacity="0" stroke="#000000" stroke-width="1" stroke-opacity="0"></use></g></g><g><use xlink:href="#f1l4jUXSd1" opacity="1" fill="#ffffff" fill-opacity="1"></use><g><use xlink:href="#f1l4jUXSd1" opacity="1" fill-opacity="0" stroke="#000000" stroke-width="1" stroke-opacity="0"></use></g></g><g><use xlink:href="#b5Bou5L40" opacity="1" fill="#000000" fill-opacity="0"></use><g><use xlink:href="#b5Bou5L40" opacity="1" fill-opacity="0" stroke="#000000" stroke-width="1" stroke-opacity="0"></use></g></g><g><use xlink:href="#f18HFkVdEs" opacity="1" fill="#01af9c" fill-opacity="1"></use><g><use xlink:href="#f18HFkVdEs" opacity="1" fill-opacity="0" stroke="#000000" stroke-width="1" stroke-opacity="0"></use></g></g><g><use xlink:href="#a16OxCh79M" opacity="1" fill="#000000" fill-opacity="0"></use><g><use xlink:href="#a16OxCh79M" opacity="1" fill-opacity="0" stroke="#000000" stroke-width="1" stroke-opacity="0"></use></g></g><g><use xlink:href="#c2evQpuGAj" opacity="1" fill="#ffffff" fill-opacity="1"></use><g><use xlink:href="#c2evQpuGAj" opacity="1" fill-opacity="0" stroke="#000000" stroke-width="1" stroke-opacity="0"></use></g></g><g><use xlink:href="#d2b1IgYhe" opacity="1" fill="#000000" fill-opacity="0"></use><g><use xlink:href="#d2b1IgYhe" opacity="1" fill-opacity="0" stroke="#000000" stroke-width="1" stroke-opacity="0"></use></g></g><g><use xlink:href="#biMcN89YO" opacity="1" fill="#ffffff" fill-opacity="1"></use><g><use xlink:href="#biMcN89YO" opacity="1" fill-opacity="0" stroke="#000000" stroke-width="1" stroke-opacity="0"></use></g></g><g><use xlink:href="#c1FKxseuAB" opacity="1" fill="#000000" fill-opacity="0"></use><g><use xlink:href="#c1FKxseuAB" opacity="1" fill-opacity="0" stroke="#000000" stroke-width="1" stroke-opacity="0"></use></g></g><g><use xlink:href="#a3uclr9s4l" opacity="1" fill="#01af9c" fill-opacity="1"></use><g><use xlink:href="#a3uclr9s4l" opacity="1" fill-opacity="0" stroke="#000000" stroke-width="1" stroke-opacity="0"></use></g></g><g><use xlink:href="#cEhF6DVF4" opacity="1" fill="#000000" fill-opacity="0"></use><g><use xlink:href="#cEhF6DVF4" opacity="1" fill-opacity="0" stroke="#000000" stroke-width="1" stroke-opacity="0"></use></g></g><g><use xlink:href="#e1sDgXQnLX" opacity="1" fill="#ffffff" fill-opacity="1"></use><g><use xlink:href="#e1sDgXQnLX" opacity="1" fill-opacity="0" stroke="#000000" stroke-width="1" stroke-opacity="0"></use></g></g><g><use xlink:href="#cvS7eFemQ" opacity="1" fill="#000000" fill-opacity="0"></use><g><use xlink:href="#cvS7eFemQ" opacity="1" fill-opacity="0" stroke="#ffffff" stroke-width="1" stroke-opacity="1"></use></g></g><g><use xlink:href="#g1kstDm4df" opacity="1" fill="#ffffff" fill-opacity="1"></use><g><use xlink:href="#g1kstDm4df" opacity="1" fill-opacity="0" stroke="#000000" stroke-width="1" stroke-opacity="0"></use></g></g><g><use xlink:href="#dwBRpvLeV" opacity="1" fill="#000000" fill-opacity="0"></use><g><use xlink:href="#dwBRpvLeV" opacity="1" fill-opacity="0" stroke="#000000" stroke-width="1" stroke-opacity="0"></use></g></g></g></g></svg>