<?xml version="1.0" encoding="UTF-8" standalone="no"?>
<!DOCTYPE svg PUBLIC "-//W3C//DTD SVG 1.1//EN" "http://www.w3.org/Graphics/SVG/1.1/DTD/svg11.dtd">
<svg version="1.1" xmlns="http://www.w3.org/2000/svg" xmlns:xlink="http://www.w3.org/1999/xlink" preserveAspectRatio="xMidYMid meet" viewBox="0 0 640 640" width="640" height="640"><defs><path d="M4.97 321.18C4.97 494.78 145.7 635.51 319.3 635.51C492.91 635.51 633.64 494.78 633.64 321.18C633.64 147.57 492.91 6.84 319.3 6.84C145.7 6.84 4.97 147.57 4.97 321.18Z" id="i1nubTn49S"></path><path d="M4.97 321.18C4.97 494.78 145.7 635.51 319.3 635.51C492.91 635.51 633.64 494.78 633.64 321.18C633.64 147.57 492.91 6.84 319.3 6.84C145.7 6.84 4.97 147.57 4.97 321.18Z" id="cROWzAKw"></path><path d="M371.26 183.25L372.51 183.73L373.76 184.22L375.01 184.72L376.24 185.22L377.48 185.75L378.7 186.28L379.93 186.82L381.15 187.38L383.57 188.52L384.78 189.11L385.97 189.71L387.17 190.32L389.53 191.57L391.87 192.87L393.03 193.54L394.19 194.2L395.34 194.88L396.48 195.59L397.62 196.28L399.87 197.72L402.1 199.22L403.2 199.96L404.3 200.74L405.39 201.51L406.48 202.3L407.55 203.09L408.62 203.9L409.68 204.72L410.74 205.55L411.79 206.38L412.84 207.22L413.87 208.08L414.9 208.95L415.91 209.82L471.81 191.58L511.68 257.02L464.81 298.06L464.91 298.63L464.99 299.21L465.08 299.78L465.16 300.35L465.26 300.92L465.34 301.51L465.5 302.65L465.57 303.23L465.65 303.8L465.72 304.37L465.79 304.96L465.86 305.53L465.92 306.11L465.99 306.68L466.05 307.27L466.1 307.84L466.16 308.42L466.21 308.99L466.26 309.58L466.32 310.15L466.36 310.73L466.41 311.32L466.45 311.89L466.5 312.47L466.52 313.06L466.56 313.63L466.59 314.21L466.63 314.8L466.66 315.37L466.71 316.53L466.73 317.11L466.75 317.69L466.78 318.86L466.79 319.43L466.81 320.01L466.81 320.6L466.82 321.18L466.81 321.75L466.79 322.34L466.78 322.91L466.77 323.49L466.75 324.06L466.73 324.65L466.71 325.22L466.66 326.39L466.63 326.96L466.59 327.54L466.56 328.11L466.52 328.68L466.48 329.27L466.44 329.84L466.4 330.42L466.36 330.99L466.31 331.58L466.26 332.15L466.21 332.72L466.16 333.3L466.1 333.87L466.03 334.44L465.98 335.03L465.91 335.6L465.86 336.17L465.79 336.75L465.71 337.32L465.57 338.47L465.49 339.05L465.16 341.33L465.07 341.9L464.99 342.47L464.7 344.19L511.57 385.24L471.7 450.66L415.81 432.43L413.77 434.16L412.74 435.02L411.7 435.86L409.6 437.52L408.54 438.34L407.47 439.15L406.4 439.94L405.31 440.73L403.14 442.28L402.03 443.02L400.92 443.77L399.81 444.51L398.68 445.24L396.42 446.65L395.28 447.35L394.13 448.04L392.99 448.7L391.82 449.37L390.66 450.02L389.48 450.66L388.31 451.3L387.13 451.91L385.93 452.52L383.54 453.72L381.12 454.86L379.91 455.42L378.69 455.96L377.45 456.49L376.23 457.02L374.99 457.54L373.74 458.03L372.51 458.51L371.24 459L369.99 459.47L357.79 513.65L280.8 513.65L268.4 459.57L267.13 459.11L264.63 458.13L262.16 457.13L260.92 456.6L259.7 456.07L258.48 455.53L257.27 454.97L254.85 453.83L253.64 453.23L252.46 452.63L251.26 452.02L250.08 451.41L248.9 450.77L247.73 450.13L246.56 449.48L244.25 448.15L241.97 446.76L240.83 446.05L239.7 445.35L237.47 443.88L236.36 443.13L235.26 442.39L234.16 441.61L233.07 440.84L230.92 439.26L229.85 438.45L228.79 437.63L226.7 435.97L225.65 435.13L224.62 434.27L222.58 432.53L166.69 450.77L126.81 385.34L173.69 344.29L173.5 343.15L173.31 342L173.15 340.84L172.97 339.7L172.67 337.39L172.55 336.24L172.41 335.08L172.2 332.77L172.1 331.6L172.02 330.45L171.88 328.14L171.83 326.97L171.75 324.66L171.72 323.49L171.71 322.34L171.71 320.01L171.72 318.86L171.75 317.69L171.83 315.38L171.88 314.21L172.02 311.9L172.1 310.75L172.2 309.58L172.41 307.27L172.55 306.11L172.67 304.96L172.82 303.8L172.97 302.66L173.15 301.51L173.31 300.35L173.5 299.21L173.69 298.06L126.81 257.02L166.69 191.58L222.58 209.82L224.62 208.08L225.65 207.23L226.7 206.38L228.79 204.72L229.85 203.9L232 202.3L233.08 201.51L234.17 200.74L235.26 199.98L236.36 199.22L237.47 198.47L238.59 197.74L240.84 196.3L241.97 195.59L243.11 194.9L244.25 194.22L245.41 193.54L246.58 192.87L247.73 192.22L248.91 191.58L250.08 190.96L251.26 190.33L252.46 189.72L253.66 189.12L254.85 188.54L256.06 187.95L257.27 187.38L258.48 186.82L259.7 186.28L260.92 185.75L262.16 185.22L263.4 184.72L264.65 184.22L265.88 183.73L267.13 183.25L268.4 182.78L280.8 128.7L357.59 128.7L369.99 182.78L371.26 183.25ZM293.01 188.18L289.92 201.76L276.88 206.53L274.81 207.32L272.75 208.13L271.73 208.55L270.71 208.99L269.69 209.44L268.68 209.88L266.67 210.81L265.68 211.28L264.69 211.77L263.7 212.28L262.72 212.78L260.76 213.81L259.8 214.34L258.83 214.88L257.88 215.43L256.93 215.98L255.98 216.56L255.04 217.13L254.1 217.71L253.17 218.31L252.24 218.91L251.32 219.52L250.41 220.13L249.5 220.75L248.59 221.39L247.69 222.03L246.79 222.68L244.14 224.68L243.27 225.37L241.56 226.76L240.71 227.47L239.02 228.91L228.41 238.46L214.63 233.89L178.04 221.91L160.01 251.82L190.66 278.65L201.26 287.99L199.05 301.98L198.72 303.88L198.57 304.84L198.43 305.79L198.31 306.74L198.19 307.7L198.07 308.65L197.97 309.6L197.88 310.57L197.78 311.52L197.7 312.49L197.63 313.44L197.52 315.37L197.47 316.32L197.43 317.28L197.4 318.25L197.39 319.2L197.36 321.13L197.37 322.08L197.4 324.01L197.43 324.96L197.47 325.92L197.52 326.89L197.58 327.84L197.63 328.8L197.7 329.77L197.78 330.72L197.88 331.69L198.07 333.59L198.19 334.55L198.43 336.45L198.57 337.41L198.72 338.36L199.05 340.26L201.26 354.27L190.66 363.6L160.01 390.43L178.04 420.02L215.05 407.82L228.84 403.27L239.44 412.8L241.15 414.27L242.01 414.99L243.75 416.41L245.52 417.79L246.41 418.47L247.31 419.14L248.22 419.8L249.13 420.45L250.04 421.09L250.96 421.73L251.9 422.36L252.83 422.98L253.78 423.59L254.72 424.19L256.62 425.36L257.58 425.94L258.55 426.5L259.53 427.06L261.48 428.15L262.47 428.68L264.46 429.71L265.46 430.21L267.47 431.19L268.49 431.65L269.51 432.13L270.54 432.58L271.56 433.02L272.6 433.46L273.64 433.89L276.78 435.12L277.84 435.5L290.89 440.27L293.96 453.84L301.8 488L337.86 488L345.71 453.84L348.78 440.27L361.72 435.39L362.77 435.01L363.8 434.61L364.83 434.21L365.85 433.8L368.91 432.49L369.91 432.05L370.92 431.58L371.92 431.11L372.92 430.63L374.9 429.65L375.88 429.15L376.86 428.63L377.83 428.1L379.76 427.04L380.72 426.49L381.68 425.93L382.62 425.37L383.57 424.79L384.51 424.21L385.43 423.62L386.35 423.02L387.28 422.41L388.2 421.79L389.11 421.16L390.01 420.54L390.92 419.88L391.8 419.25L392.7 418.58L393.58 417.91L395.32 416.56L396.19 415.86L397.05 415.17L397.89 414.46L398.75 413.74L399.59 413.02L410.19 403.47L423.98 408.04L460.56 420.02L478.59 390.43L447.95 363.17L437.34 353.83L439.56 339.84L439.73 338.89L439.88 337.95L440.03 337L440.3 335.1L440.42 334.14L440.53 333.19L440.64 332.23L440.83 330.33L440.9 329.36L440.98 328.41L441.03 327.46L441.09 326.49L441.14 325.54L441.18 324.58L441.21 323.63L441.22 322.66L441.24 321.71L441.24 319.8L441.22 318.83L441.21 317.88L441.18 316.92L441.14 315.96L441.09 315L440.98 313.1L440.9 312.13L440.83 311.18L440.73 310.23L440.64 309.27L440.42 307.36L440.3 306.41L440.03 304.51L439.73 302.61L439.56 301.66L437.34 287.66L447.95 278.33L478.59 251.5L460.56 221.91L423.12 233.89L409.35 238.46L398.73 228.91L397.05 227.47L396.19 226.76L394.48 225.37L393.61 224.68L390.96 222.68L390.06 222.03L388.27 220.75L387.36 220.13L385.51 218.91L383.66 217.71L382.73 217.13L380.82 215.98L379.87 215.43L378.92 214.88L377.96 214.34L376.99 213.81L376.01 213.28L374.06 212.28L373.07 211.77L372.07 211.28L371.08 210.81L369.07 209.88L368.07 209.44L367.05 208.99L366.03 208.55L365.01 208.13L362.94 207.32L360.88 206.53L347.83 201.76L344.75 188.18L336.91 154.04L300.85 154.04L293.01 188.18Z" id="a4ytwqzWDX"></path><path d="M371.26 183.25L372.51 183.73L373.76 184.22L375.01 184.72L376.24 185.22L377.48 185.75L378.7 186.28L379.93 186.82L381.15 187.38L383.57 188.52L384.78 189.11L385.97 189.71L387.17 190.32L389.53 191.57L391.87 192.87L393.03 193.54L394.19 194.2L395.34 194.88L396.48 195.59L397.62 196.28L399.87 197.72L402.1 199.22L403.2 199.96L404.3 200.74L405.39 201.51L406.48 202.3L407.55 203.09L408.62 203.9L409.68 204.72L410.74 205.55L411.79 206.38L412.84 207.22L413.87 208.08L414.9 208.95L415.91 209.82L471.81 191.58L511.68 257.02L464.81 298.06L464.91 298.63L464.99 299.21L465.08 299.78L465.16 300.35L465.26 300.92L465.34 301.51L465.5 302.65L465.57 303.23L465.65 303.8L465.72 304.37L465.79 304.96L465.86 305.53L465.92 306.11L465.99 306.68L466.05 307.27L466.1 307.84L466.16 308.42L466.21 308.99L466.26 309.58L466.32 310.15L466.36 310.73L466.41 311.32L466.45 311.89L466.5 312.47L466.52 313.06L466.56 313.63L466.59 314.21L466.63 314.8L466.66 315.37L466.71 316.53L466.73 317.11L466.75 317.69L466.78 318.86L466.79 319.43L466.81 320.01L466.81 320.6L466.82 321.18L466.81 321.75L466.79 322.34L466.78 322.91L466.77 323.49L466.75 324.06L466.73 324.65L466.71 325.22L466.66 326.39L466.63 326.96L466.59 327.54L466.56 328.11L466.52 328.68L466.48 329.27L466.44 329.84L466.4 330.42L466.36 330.99L466.31 331.58L466.26 332.15L466.21 332.72L466.16 333.3L466.1 333.87L466.03 334.44L465.98 335.03L465.91 335.6L465.86 336.17L465.79 336.75L465.71 337.32L465.57 338.47L465.49 339.05L465.16 341.33L465.07 341.9L464.99 342.47L464.7 344.19L511.57 385.24L471.7 450.66L415.81 432.43L413.77 434.16L412.74 435.02L411.7 435.86L409.6 437.52L408.54 438.34L407.47 439.15L406.4 439.94L405.31 440.73L403.14 442.28L402.03 443.02L400.92 443.77L399.81 444.51L398.68 445.24L396.42 446.65L395.28 447.35L394.13 448.04L392.99 448.7L391.82 449.37L390.66 450.02L389.48 450.66L388.31 451.3L387.13 451.91L385.93 452.52L383.54 453.72L381.12 454.86L379.91 455.42L378.69 455.96L377.45 456.49L376.23 457.02L374.99 457.54L373.74 458.03L372.51 458.51L371.24 459L369.99 459.47L357.79 513.65L280.8 513.65L268.4 459.57L267.13 459.11L264.63 458.13L262.16 457.13L260.92 456.6L259.7 456.07L258.48 455.53L257.27 454.97L254.85 453.83L253.64 453.23L252.46 452.63L251.26 452.02L250.08 451.41L248.9 450.77L247.73 450.13L246.56 449.48L244.25 448.15L241.97 446.76L240.83 446.05L239.7 445.35L237.47 443.88L236.36 443.13L235.26 442.39L234.16 441.61L233.07 440.84L230.92 439.26L229.85 438.45L228.79 437.63L226.7 435.97L225.65 435.13L224.62 434.27L222.58 432.53L166.69 450.77L126.81 385.34L173.69 344.29L173.5 343.15L173.31 342L173.15 340.84L172.97 339.7L172.67 337.39L172.55 336.24L172.41 335.08L172.2 332.77L172.1 331.6L172.02 330.45L171.88 328.14L171.83 326.97L171.75 324.66L171.72 323.49L171.71 322.34L171.71 320.01L171.72 318.86L171.75 317.69L171.83 315.38L171.88 314.21L172.02 311.9L172.1 310.75L172.2 309.58L172.41 307.27L172.55 306.11L172.67 304.96L172.82 303.8L172.97 302.66L173.15 301.51L173.31 300.35L173.5 299.21L173.69 298.06L126.81 257.02L166.69 191.58L222.58 209.82L224.62 208.08L225.65 207.23L226.7 206.38L228.79 204.72L229.85 203.9L232 202.3L233.08 201.51L234.17 200.74L235.26 199.98L236.36 199.22L237.47 198.47L238.59 197.74L240.84 196.3L241.97 195.59L243.11 194.9L244.25 194.22L245.41 193.54L246.58 192.87L247.73 192.22L248.91 191.58L250.08 190.96L251.26 190.33L252.46 189.72L253.66 189.12L254.85 188.54L256.06 187.95L257.27 187.38L258.48 186.82L259.7 186.28L260.92 185.75L262.16 185.22L263.4 184.72L264.65 184.22L265.88 183.73L267.13 183.25L268.4 182.78L280.8 128.7L357.59 128.7L369.99 182.78L371.26 183.25ZM293.01 188.18L289.92 201.76L276.88 206.53L274.81 207.32L272.75 208.13L271.73 208.55L270.71 208.99L269.69 209.44L268.68 209.88L266.67 210.81L265.68 211.28L264.69 211.77L263.7 212.28L262.72 212.78L260.76 213.81L259.8 214.34L258.83 214.88L257.88 215.43L256.93 215.98L255.98 216.56L255.04 217.13L254.1 217.71L253.17 218.31L252.24 218.91L251.32 219.52L250.41 220.13L249.5 220.75L248.59 221.39L247.69 222.03L246.79 222.68L244.14 224.68L243.27 225.37L241.56 226.76L240.71 227.47L239.02 228.91L228.41 238.46L214.63 233.89L178.04 221.91L160.01 251.82L190.66 278.65L201.26 287.99L199.05 301.98L198.72 303.88L198.57 304.84L198.43 305.79L198.31 306.74L198.19 307.7L198.07 308.65L197.97 309.6L197.88 310.57L197.78 311.52L197.7 312.49L197.63 313.44L197.52 315.37L197.47 316.32L197.43 317.28L197.4 318.25L197.39 319.2L197.36 321.13L197.37 322.08L197.4 324.01L197.43 324.96L197.47 325.92L197.52 326.89L197.58 327.84L197.63 328.8L197.7 329.77L197.78 330.72L197.88 331.69L198.07 333.59L198.19 334.55L198.43 336.45L198.57 337.41L198.72 338.36L199.05 340.26L201.26 354.27L190.66 363.6L160.01 390.43L178.04 420.02L215.05 407.82L228.84 403.27L239.44 412.8L241.15 414.27L242.01 414.99L243.75 416.41L245.52 417.79L246.41 418.47L247.31 419.14L248.22 419.8L249.13 420.45L250.04 421.09L250.96 421.73L251.9 422.36L252.83 422.98L253.78 423.59L254.72 424.19L256.62 425.36L257.58 425.94L258.55 426.5L259.53 427.06L261.48 428.15L262.47 428.68L264.46 429.71L265.46 430.21L267.47 431.19L268.49 431.65L269.51 432.13L270.54 432.58L271.56 433.02L272.6 433.46L273.64 433.89L276.78 435.12L277.84 435.5L290.89 440.27L293.96 453.84L301.8 488L337.86 488L345.71 453.84L348.78 440.27L361.72 435.39L362.77 435.01L363.8 434.61L364.83 434.21L365.85 433.8L368.91 432.49L369.91 432.05L370.92 431.58L371.92 431.11L372.92 430.63L374.9 429.65L375.88 429.15L376.86 428.63L377.83 428.1L379.76 427.04L380.72 426.49L381.68 425.93L382.62 425.37L383.57 424.79L384.51 424.21L385.43 423.62L386.35 423.02L387.28 422.41L388.2 421.79L389.11 421.16L390.01 420.54L390.92 419.88L391.8 419.25L392.7 418.58L393.58 417.91L395.32 416.56L396.19 415.86L397.05 415.17L397.89 414.46L398.75 413.74L399.59 413.02L410.19 403.47L423.98 408.04L460.56 420.02L478.59 390.43L447.95 363.17L437.34 353.83L439.56 339.84L439.73 338.89L439.88 337.95L440.03 337L440.3 335.1L440.42 334.14L440.53 333.19L440.64 332.23L440.83 330.33L440.9 329.36L440.98 328.41L441.03 327.46L441.09 326.49L441.14 325.54L441.18 324.58L441.21 323.63L441.22 322.66L441.24 321.71L441.24 319.8L441.22 318.83L441.21 317.88L441.18 316.92L441.14 315.96L441.09 315L440.98 313.1L440.9 312.13L440.83 311.18L440.73 310.23L440.64 309.27L440.42 307.36L440.3 306.41L440.03 304.51L439.73 302.61L439.56 301.66L437.34 287.66L447.95 278.33L478.59 251.5L460.56 221.91L423.12 233.89L409.35 238.46L398.73 228.91L397.05 227.47L396.19 226.76L394.48 225.37L393.61 224.68L390.96 222.68L390.06 222.03L388.27 220.75L387.36 220.13L385.51 218.91L383.66 217.71L382.73 217.13L380.82 215.98L379.87 215.43L378.92 214.88L377.96 214.34L376.99 213.81L376.01 213.28L374.06 212.28L373.07 211.77L372.07 211.28L371.08 210.81L369.07 209.88L368.07 209.44L367.05 208.99L366.03 208.55L365.01 208.13L362.94 207.32L360.88 206.53L347.83 201.76L344.75 188.18L336.91 154.04L300.85 154.04L293.01 188.18Z" id="c1dUBbYmvt"></path><path d="M325.62 244.44L328.73 244.75L331.79 245.18L334.82 245.74L337.8 246.42L340.74 247.21L343.63 248.11L346.47 249.11L349.27 250.24L352 251.45L354.68 252.78L357.3 254.19L359.86 255.72L362.34 257.33L364.78 259.03L367.13 260.84L369.41 262.71L371.61 264.68L373.74 266.74L375.8 268.87L377.77 271.07L379.64 273.35L381.44 275.7L383.15 278.12L384.76 280.62L386.27 283.18L387.7 285.8L389.02 288.48L390.24 291.21L391.35 293.99L392.37 296.85L393.27 299.73L394.06 302.68L394.72 305.66L395.28 308.68L395.73 311.75L396.04 314.86L396.23 318L396.3 321.18L396.23 324.35L396.04 327.49L395.73 330.6L395.28 333.67L394.72 336.7L394.06 339.67L393.27 342.62L392.37 345.52L391.35 348.36L390.24 351.14L389.02 353.87L387.7 356.56L386.27 359.17L384.76 361.73L383.15 364.23L381.44 366.65L379.64 369L377.77 371.28L375.8 373.5L373.74 375.61L371.61 377.67L369.41 379.64L367.13 381.51L364.78 383.32L362.34 385.02L359.86 386.63L357.3 388.16L354.68 389.57L352 390.9L349.27 392.12L346.47 393.24L343.63 394.24L340.74 395.14L337.8 395.93L334.82 396.61L331.79 397.17L328.73 397.6L325.62 397.91L322.48 398.1L319.3 398.17L316.13 398.1L312.99 397.91L309.88 397.6L306.81 397.17L303.78 396.61L300.81 395.93L297.86 395.14L294.96 394.24L292.12 393.24L289.34 392.12L286.59 390.9L283.92 389.57L281.31 388.16L278.74 386.63L276.25 385.02L273.83 383.32L271.48 381.51L269.2 379.64L266.98 377.67L264.87 375.61L262.81 373.5L260.84 371.28L258.95 369L257.16 366.65L255.46 364.23L253.85 361.73L252.32 359.17L250.9 356.56L249.58 353.87L248.36 351.14L247.24 348.36L246.24 345.52L245.34 342.62L244.55 339.67L243.87 336.7L243.31 333.67L242.88 330.6L242.57 327.49L242.38 324.35L242.31 321.18L242.38 318L242.57 314.86L242.88 311.75L243.31 308.68L243.87 305.66L244.55 302.68L245.34 299.73L246.24 296.85L247.24 293.99L248.36 291.21L249.58 288.48L250.9 285.8L252.32 283.18L253.85 280.62L255.46 278.12L257.16 275.7L258.95 273.35L260.84 271.07L262.81 268.87L264.87 266.74L266.98 264.68L269.2 262.71L271.48 260.84L273.83 259.03L276.25 257.33L278.74 255.72L281.31 254.19L283.92 252.78L286.59 251.45L289.34 250.24L292.12 249.11L294.96 248.11L297.86 247.21L300.81 246.42L303.78 245.74L306.81 245.18L309.88 244.75L312.99 244.44L316.13 244.25L319.3 244.18L322.48 244.25L325.62 244.44ZM315.67 295.77L313.92 296.08L312.19 296.51L310.53 297.05L308.92 297.7L307.35 298.45L305.86 299.31L304.42 300.26L303.06 301.3L301.77 302.43L300.56 303.64L299.43 304.93L298.39 306.3L297.44 307.73L296.58 309.22L295.83 310.79L295.18 312.4L294.64 314.08L294.2 315.79L293.89 317.54L293.7 319.35L293.63 321.18L293.7 323L293.89 324.81L294.2 326.56L294.64 328.27L295.18 329.95L295.83 331.56L296.58 333.13L297.44 334.62L298.39 336.06L299.43 337.42L300.56 338.71L301.77 339.92L303.06 341.05L304.42 342.09L305.86 343.04L307.35 343.9L308.92 344.65L310.53 345.3L312.19 345.84L313.92 346.28L315.67 346.59L317.46 346.78L319.3 346.84L321.13 346.78L322.93 346.59L324.69 346.28L326.4 345.84L328.08 345.3L329.69 344.65L331.26 343.9L332.75 343.04L334.18 342.09L335.55 341.05L336.83 339.92L338.05 338.71L339.18 337.42L340.21 336.06L341.16 334.62L342.02 333.13L342.78 331.56L343.43 329.95L343.97 328.27L344.4 326.56L344.71 324.81L344.9 323L344.97 321.18L344.9 319.35L344.71 317.54L344.4 315.79L343.97 314.08L343.43 312.4L342.78 310.79L342.02 309.22L341.16 307.73L340.21 306.3L339.18 304.93L338.05 303.64L336.83 302.43L335.55 301.3L334.18 300.26L332.75 299.31L331.26 298.45L329.69 297.7L328.08 297.05L326.4 296.51L324.69 296.08L322.93 295.77L321.13 295.58L319.3 295.51L317.46 295.58L315.67 295.77Z" id="k22On8taaE"></path><path d="M325.62 244.44L328.73 244.75L331.79 245.18L334.82 245.74L337.8 246.42L340.74 247.21L343.63 248.11L346.47 249.11L349.27 250.24L352 251.45L354.68 252.78L357.3 254.19L359.86 255.72L362.34 257.33L364.78 259.03L367.13 260.84L369.41 262.71L371.61 264.68L373.74 266.74L375.8 268.87L377.77 271.07L379.64 273.35L381.44 275.7L383.15 278.12L384.76 280.62L386.27 283.18L387.7 285.8L389.02 288.48L390.24 291.21L391.35 293.99L392.37 296.85L393.27 299.73L394.06 302.68L394.72 305.66L395.28 308.68L395.73 311.75L396.04 314.86L396.23 318L396.3 321.18L396.23 324.35L396.04 327.49L395.73 330.6L395.28 333.67L394.72 336.7L394.06 339.67L393.27 342.62L392.37 345.52L391.35 348.36L390.24 351.14L389.02 353.87L387.7 356.56L386.27 359.17L384.76 361.73L383.15 364.23L381.44 366.65L379.64 369L377.77 371.28L375.8 373.5L373.74 375.61L371.61 377.67L369.41 379.64L367.13 381.51L364.78 383.32L362.34 385.02L359.86 386.63L357.3 388.16L354.68 389.57L352 390.9L349.27 392.12L346.47 393.24L343.63 394.24L340.74 395.14L337.8 395.93L334.82 396.61L331.79 397.17L328.73 397.6L325.62 397.91L322.48 398.1L319.3 398.17L316.13 398.1L312.99 397.91L309.88 397.6L306.81 397.17L303.78 396.61L300.81 395.93L297.86 395.14L294.96 394.24L292.12 393.24L289.34 392.12L286.59 390.9L283.92 389.57L281.31 388.16L278.74 386.63L276.25 385.02L273.83 383.32L271.48 381.51L269.2 379.64L266.98 377.67L264.87 375.61L262.81 373.5L260.84 371.28L258.95 369L257.16 366.65L255.46 364.23L253.85 361.73L252.32 359.17L250.9 356.56L249.58 353.87L248.36 351.14L247.24 348.36L246.24 345.52L245.34 342.62L244.55 339.67L243.87 336.7L243.31 333.67L242.88 330.6L242.57 327.49L242.38 324.35L242.31 321.18L242.38 318L242.57 314.86L242.88 311.75L243.31 308.68L243.87 305.66L244.55 302.68L245.34 299.73L246.24 296.85L247.24 293.99L248.36 291.21L249.58 288.48L250.9 285.8L252.32 283.18L253.85 280.62L255.46 278.12L257.16 275.7L258.95 273.35L260.84 271.07L262.81 268.87L264.87 266.74L266.98 264.68L269.2 262.71L271.48 260.84L273.83 259.03L276.25 257.33L278.74 255.72L281.31 254.19L283.92 252.78L286.59 251.45L289.34 250.24L292.12 249.11L294.96 248.11L297.86 247.21L300.81 246.42L303.78 245.74L306.81 245.18L309.88 244.75L312.99 244.44L316.13 244.25L319.3 244.18L322.48 244.25L325.62 244.44ZM315.67 295.77L313.92 296.08L312.19 296.51L310.53 297.05L308.92 297.7L307.35 298.45L305.86 299.31L304.42 300.26L303.06 301.3L301.77 302.43L300.56 303.64L299.43 304.93L298.39 306.3L297.44 307.73L296.58 309.22L295.83 310.79L295.18 312.4L294.64 314.08L294.2 315.79L293.89 317.54L293.7 319.35L293.63 321.18L293.7 323L293.89 324.81L294.2 326.56L294.64 328.27L295.18 329.95L295.83 331.56L296.58 333.13L297.44 334.62L298.39 336.06L299.43 337.42L300.56 338.71L301.77 339.92L303.06 341.05L304.42 342.09L305.86 343.04L307.35 343.9L308.92 344.65L310.53 345.3L312.19 345.84L313.92 346.28L315.67 346.59L317.46 346.78L319.3 346.84L321.13 346.78L322.93 346.59L324.69 346.28L326.4 345.84L328.08 345.3L329.69 344.65L331.26 343.9L332.75 343.04L334.18 342.09L335.55 341.05L336.83 339.92L338.05 338.71L339.18 337.42L340.21 336.06L341.16 334.62L342.02 333.13L342.78 331.56L343.43 329.95L343.97 328.27L344.4 326.56L344.71 324.81L344.9 323L344.97 321.18L344.9 319.35L344.71 317.54L344.4 315.79L343.97 314.08L343.43 312.4L342.78 310.79L342.02 309.22L341.16 307.73L340.21 306.3L339.18 304.93L338.05 303.64L336.83 302.43L335.55 301.3L334.18 300.26L332.75 299.31L331.26 298.45L329.69 297.7L328.08 297.05L326.4 296.51L324.69 296.08L322.93 295.77L321.13 295.58L319.3 295.51L317.46 295.58L315.67 295.77Z" id="d41CbI7vah"></path></defs><g><g><g><use xlink:href="#i1nubTn49S" opacity="1" fill="#00b09c" fill-opacity="1"></use><g><use xlink:href="#i1nubTn49S" opacity="1" fill-opacity="0" stroke="#000000" stroke-width="1" stroke-opacity="0"></use></g></g><g><use xlink:href="#cROWzAKw" opacity="1" fill="#000000" fill-opacity="0"></use><g><use xlink:href="#cROWzAKw" opacity="1" fill-opacity="0" stroke="#000000" stroke-width="1" stroke-opacity="0"></use></g></g><g><use xlink:href="#a4ytwqzWDX" opacity="1" fill="#ffffff" fill-opacity="1"></use><g><use xlink:href="#a4ytwqzWDX" opacity="1" fill-opacity="0" stroke="#000000" stroke-width="1" stroke-opacity="0"></use></g></g><g><use xlink:href="#c1dUBbYmvt" opacity="1" fill="#000000" fill-opacity="0"></use><g><use xlink:href="#c1dUBbYmvt" opacity="1" fill-opacity="0" stroke="#000000" stroke-width="1" stroke-opacity="0"></use></g></g><g><use xlink:href="#k22On8taaE" opacity="1" fill="#ffffff" fill-opacity="1"></use><g><use xlink:href="#k22On8taaE" opacity="1" fill-opacity="0" stroke="#000000" stroke-width="1" stroke-opacity="0"></use></g></g><g><use xlink:href="#d41CbI7vah" opacity="1" fill="#000000" fill-opacity="0"></use><g><use xlink:href="#d41CbI7vah" opacity="1" fill-opacity="0" stroke="#000000" stroke-width="1" stroke-opacity="0"></use></g></g></g></g></svg>