<?xml version="1.0" encoding="UTF-8" standalone="no"?>
<!DOCTYPE svg PUBLIC "-//W3C//DTD SVG 1.1//EN" "http://www.w3.org/Graphics/SVG/1.1/DTD/svg11.dtd">
<svg version="1.1" xmlns="http://www.w3.org/2000/svg" xmlns:xlink="http://www.w3.org/1999/xlink" preserveAspectRatio="xMidYMid meet" viewBox="0 0 640 640" width="640" height="640"><defs><path d="M5.47 318.67C5.47 492.41 146.31 633.27 320.07 633.27C493.81 633.27 634.67 492.41 634.67 318.67C634.67 144.91 493.81 4.07 320.07 4.07C146.31 4.07 5.47 144.91 5.47 318.67Z" id="arxXb5sGi"></path><path d="M5.47 318.67C5.47 492.41 146.31 633.27 320.07 633.27C493.81 633.27 634.67 492.41 634.67 318.67C634.67 144.91 493.81 4.07 320.07 4.07C146.31 4.07 5.47 144.91 5.47 318.67Z" id="c71kyIDQKD"></path><path d="M133.66 181.43L133.66 442.24L133.66 454.85L146.27 454.85L506.58 454.85L506.58 442.24L146.27 442.24L146.27 442.24L146.27 181.43L133.66 181.43Z" id="ahJY52G5c"></path><path d="M133.66 181.43L133.66 442.24L133.66 454.85L146.27 454.85L506.58 454.85L506.58 442.24L146.27 442.24L146.27 442.24L146.27 181.43L133.66 181.43Z" id="a30xA39c7"></path><path d="M257.12 318.67C257.12 378.37 257.12 411.54 257.12 418.17C257.12 418.17 257.12 418.17 257.12 418.17C204.98 418.17 176.03 418.17 170.23 418.17C170.23 418.17 170.23 418.17 170.23 418.17C170.23 358.47 170.23 325.31 170.23 318.67C170.23 318.67 170.23 318.67 170.23 318.67C222.36 318.67 251.33 318.67 257.12 318.67C257.12 318.67 257.12 318.67 257.12 318.67Z" id="c42NlZtNFP"></path><path d="M257.12 318.67C257.12 378.37 257.12 411.54 257.12 418.17C257.12 418.17 257.12 418.17 257.12 418.17C204.98 418.17 176.03 418.17 170.23 418.17C170.23 418.17 170.23 418.17 170.23 418.17C170.23 358.47 170.23 325.31 170.23 318.67C170.23 318.67 170.23 318.67 170.23 318.67C222.36 318.67 251.33 318.67 257.12 318.67C257.12 318.67 257.12 318.67 257.12 318.67Z" id="b145ozR7xG"></path><path d="M282.34 418.17L282.34 219.15L369.25 219.15L369.25 418.17L282.34 418.17ZM294.95 404.51L356.64 404.51L356.73 230.61L294.95 230.61L294.95 404.51Z" id="a7dGIqc9V"></path><path d="M282.34 418.17L282.34 219.15L369.25 219.15L369.25 418.17L282.34 418.17ZM294.95 404.51L356.64 404.51L356.73 230.61L294.95 230.61L294.95 404.51Z" id="d3kxzKQIQ5"></path><path d="M481.36 280.94C481.36 288.5 481.36 292.71 481.36 293.55C481.36 293.55 481.36 293.55 481.36 293.55C429.22 293.55 400.25 293.55 394.46 293.55C394.46 293.55 394.46 293.55 394.46 293.55C394.46 285.98 394.46 281.79 394.46 280.94C394.46 280.94 394.46 280.94 394.46 280.94C446.6 280.94 475.56 280.94 481.36 280.94C481.36 280.94 481.36 280.94 481.36 280.94Z" id="c1d7nxK0NQ"></path><path d="M481.36 280.94C481.36 288.5 481.36 292.71 481.36 293.55C481.36 293.55 481.36 293.55 481.36 293.55C429.22 293.55 400.25 293.55 394.46 293.55C394.46 293.55 394.46 293.55 394.46 293.55C394.46 285.98 394.46 281.79 394.46 280.94C394.46 280.94 394.46 280.94 394.46 280.94C446.6 280.94 475.56 280.94 481.36 280.94C481.36 280.94 481.36 280.94 481.36 280.94Z" id="acGXJYDxU"></path><path d="M481.36 306.06C481.36 313.63 481.36 317.82 481.36 318.67C481.36 318.67 481.36 318.67 481.36 318.67C429.22 318.67 400.25 318.67 394.46 318.67C394.46 318.67 394.46 318.67 394.46 318.67C394.46 311.1 394.46 306.9 394.46 306.06C394.46 306.06 394.46 306.06 394.46 306.06C446.6 306.06 475.56 306.06 481.36 306.06C481.36 306.06 481.36 306.06 481.36 306.06Z" id="b8O4jIs8LB"></path><path d="M481.36 306.06C481.36 313.63 481.36 317.82 481.36 318.67C481.36 318.67 481.36 318.67 481.36 318.67C429.22 318.67 400.25 318.67 394.46 318.67C394.46 318.67 394.46 318.67 394.46 318.67C394.46 311.1 394.46 306.9 394.46 306.06C394.46 306.06 394.46 306.06 394.46 306.06C446.6 306.06 475.56 306.06 481.36 306.06C481.36 306.06 481.36 306.06 481.36 306.06Z" id="ao6OUVoWt"></path><path d="M481.36 330.11C481.36 337.68 481.36 341.89 481.36 342.72C481.36 342.72 481.36 342.72 481.36 342.72C429.22 342.72 400.25 342.72 394.46 342.72C394.46 342.72 394.46 342.72 394.46 342.72C394.46 335.16 394.46 330.96 394.46 330.11C394.46 330.11 394.46 330.11 394.46 330.11C446.6 330.11 475.56 330.11 481.36 330.11C481.36 330.11 481.36 330.11 481.36 330.11Z" id="d1bFAY6Ncz"></path><path d="M481.36 330.11C481.36 337.68 481.36 341.89 481.36 342.72C481.36 342.72 481.36 342.72 481.36 342.72C429.22 342.72 400.25 342.72 394.46 342.72C394.46 342.72 394.46 342.72 394.46 342.72C394.46 335.16 394.46 330.96 394.46 330.11C394.46 330.11 394.46 330.11 394.46 330.11C446.6 330.11 475.56 330.11 481.36 330.11C481.36 330.11 481.36 330.11 481.36 330.11Z" id="aN1R5LW9I"></path><path d="M481.36 355.24C481.36 362.8 481.36 366.99 481.36 367.85C481.36 367.85 481.36 367.85 481.36 367.85C429.22 367.85 400.25 367.85 394.46 367.85C394.46 367.85 394.46 367.85 394.46 367.85C394.46 360.28 394.46 356.07 394.46 355.24C394.46 355.24 394.46 355.24 394.46 355.24C446.6 355.24 475.56 355.24 481.36 355.24C481.36 355.24 481.36 355.24 481.36 355.24Z" id="c1wH73meeU"></path><path d="M481.36 355.24C481.36 362.8 481.36 366.99 481.36 367.85C481.36 367.85 481.36 367.85 481.36 367.85C429.22 367.85 400.25 367.85 394.46 367.85C394.46 367.85 394.46 367.85 394.46 367.85C394.46 360.28 394.46 356.07 394.46 355.24C394.46 355.24 394.46 355.24 394.46 355.24C446.6 355.24 475.56 355.24 481.36 355.24C481.36 355.24 481.36 355.24 481.36 355.24Z" id="c4Ble5b7"></path><path d="M481.36 380.46C481.36 388.02 481.36 392.21 481.36 393.06C481.36 393.06 481.36 393.06 481.36 393.06C429.22 393.06 400.25 393.06 394.46 393.06C394.46 393.06 394.46 393.06 394.46 393.06C394.46 385.5 394.46 381.29 394.46 380.46C394.46 380.46 394.46 380.46 394.46 380.46C446.6 380.46 475.56 380.46 481.36 380.46C481.36 380.46 481.36 380.46 481.36 380.46Z" id="aNkQAtLiE"></path><path d="M481.36 380.46C481.36 388.02 481.36 392.21 481.36 393.06C481.36 393.06 481.36 393.06 481.36 393.06C429.22 393.06 400.25 393.06 394.46 393.06C394.46 393.06 394.46 393.06 394.46 393.06C394.46 385.5 394.46 381.29 394.46 380.46C394.46 380.46 394.46 380.46 394.46 380.46C446.6 380.46 475.56 380.46 481.36 380.46C481.36 380.46 481.36 380.46 481.36 380.46Z" id="a30y4PUd6z"></path><path d="M481.36 404.51C481.36 412.07 481.36 416.28 481.36 417.12C481.36 417.12 481.36 417.12 481.36 417.12C429.22 417.12 400.25 417.12 394.46 417.12C394.46 417.12 394.46 417.12 394.46 417.12C394.46 409.55 394.46 405.36 394.46 404.51C394.46 404.51 394.46 404.51 394.46 404.51C446.6 404.51 475.56 404.51 481.36 404.51C481.36 404.51 481.36 404.51 481.36 404.51Z" id="d4rw4aoCxA"></path><path d="M481.36 404.51C481.36 412.07 481.36 416.28 481.36 417.12C481.36 417.12 481.36 417.12 481.36 417.12C429.22 417.12 400.25 417.12 394.46 417.12C394.46 417.12 394.46 417.12 394.46 417.12C394.46 409.55 394.46 405.36 394.46 404.51C394.46 404.51 394.46 404.51 394.46 404.51C446.6 404.51 475.56 404.51 481.36 404.51C481.36 404.51 481.36 404.51 481.36 404.51Z" id="a1i2VlnC79"></path></defs><g><g><g><use xlink:href="#arxXb5sGi" opacity="1" fill="#01af9c" fill-opacity="1"></use><g><use xlink:href="#arxXb5sGi" opacity="1" fill-opacity="0" stroke="#000000" stroke-width="1" stroke-opacity="0"></use></g></g><g><use xlink:href="#c71kyIDQKD" opacity="1" fill="#000000" fill-opacity="0"></use><g><use xlink:href="#c71kyIDQKD" opacity="1" fill-opacity="0" stroke="#000000" stroke-width="1" stroke-opacity="0"></use></g></g><g><use xlink:href="#ahJY52G5c" opacity="1" fill="#ffffff" fill-opacity="1"></use><g><use xlink:href="#ahJY52G5c" opacity="1" fill-opacity="0" stroke="#000000" stroke-width="1" stroke-opacity="0"></use></g></g><g><use xlink:href="#a30xA39c7" opacity="1" fill="#000000" fill-opacity="0"></use><g><use xlink:href="#a30xA39c7" opacity="1" fill-opacity="0" stroke="#000000" stroke-width="1" stroke-opacity="0"></use></g></g><g><use xlink:href="#c42NlZtNFP" opacity="1" fill="#ffffff" fill-opacity="1"></use><g><use xlink:href="#c42NlZtNFP" opacity="1" fill-opacity="0" stroke="#000000" stroke-width="1" stroke-opacity="0"></use></g></g><g><use xlink:href="#b145ozR7xG" opacity="1" fill="#000000" fill-opacity="0"></use><g><use xlink:href="#b145ozR7xG" opacity="1" fill-opacity="0" stroke="#000000" stroke-width="1" stroke-opacity="0"></use></g></g><g><use xlink:href="#a7dGIqc9V" opacity="1" fill="#ffffff" fill-opacity="1"></use><g><use xlink:href="#a7dGIqc9V" opacity="1" fill-opacity="0" stroke="#000000" stroke-width="1" stroke-opacity="0"></use></g></g><g><use xlink:href="#d3kxzKQIQ5" opacity="1" fill="#000000" fill-opacity="0"></use><g><use xlink:href="#d3kxzKQIQ5" opacity="1" fill-opacity="0" stroke="#000000" stroke-width="1" stroke-opacity="0"></use></g></g><g><use xlink:href="#c1d7nxK0NQ" opacity="1" fill="#ffffff" fill-opacity="1"></use><g><use xlink:href="#c1d7nxK0NQ" opacity="1" fill-opacity="0" stroke="#000000" stroke-width="1" stroke-opacity="0"></use></g></g><g><use xlink:href="#acGXJYDxU" opacity="1" fill="#000000" fill-opacity="0"></use><g><use xlink:href="#acGXJYDxU" opacity="1" fill-opacity="0" stroke="#000000" stroke-width="1" stroke-opacity="0"></use></g></g><g><use xlink:href="#b8O4jIs8LB" opacity="1" fill="#ffffff" fill-opacity="1"></use><g><use xlink:href="#b8O4jIs8LB" opacity="1" fill-opacity="0" stroke="#000000" stroke-width="1" stroke-opacity="0"></use></g></g><g><use xlink:href="#ao6OUVoWt" opacity="1" fill="#000000" fill-opacity="0"></use><g><use xlink:href="#ao6OUVoWt" opacity="1" fill-opacity="0" stroke="#000000" stroke-width="1" stroke-opacity="0"></use></g></g><g><use xlink:href="#d1bFAY6Ncz" opacity="1" fill="#ffffff" fill-opacity="1"></use><g><use xlink:href="#d1bFAY6Ncz" opacity="1" fill-opacity="0" stroke="#000000" stroke-width="1" stroke-opacity="0"></use></g></g><g><use xlink:href="#aN1R5LW9I" opacity="1" fill="#000000" fill-opacity="0"></use><g><use xlink:href="#aN1R5LW9I" opacity="1" fill-opacity="0" stroke="#000000" stroke-width="1" stroke-opacity="0"></use></g></g><g><use xlink:href="#c1wH73meeU" opacity="1" fill="#ffffff" fill-opacity="1"></use><g><use xlink:href="#c1wH73meeU" opacity="1" fill-opacity="0" stroke="#000000" stroke-width="1" stroke-opacity="0"></use></g></g><g><use xlink:href="#c4Ble5b7" opacity="1" fill="#000000" fill-opacity="0"></use><g><use xlink:href="#c4Ble5b7" opacity="1" fill-opacity="0" stroke="#000000" stroke-width="1" stroke-opacity="0"></use></g></g><g><use xlink:href="#aNkQAtLiE" opacity="1" fill="#ffffff" fill-opacity="1"></use><g><use xlink:href="#aNkQAtLiE" opacity="1" fill-opacity="0" stroke="#000000" stroke-width="1" stroke-opacity="0"></use></g></g><g><use xlink:href="#a30y4PUd6z" opacity="1" fill="#000000" fill-opacity="0"></use><g><use xlink:href="#a30y4PUd6z" opacity="1" fill-opacity="0" stroke="#000000" stroke-width="1" stroke-opacity="0"></use></g></g><g><use xlink:href="#d4rw4aoCxA" opacity="1" fill="#ffffff" fill-opacity="1"></use><g><use xlink:href="#d4rw4aoCxA" opacity="1" fill-opacity="0" stroke="#000000" stroke-width="1" stroke-opacity="0"></use></g></g><g><use xlink:href="#a1i2VlnC79" opacity="1" fill="#000000" fill-opacity="0"></use><g><use xlink:href="#a1i2VlnC79" opacity="1" fill-opacity="0" stroke="#000000" stroke-width="1" stroke-opacity="0"></use></g></g></g></g></svg>