<?xml version="1.0" encoding="UTF-8" standalone="no"?>
<!DOCTYPE svg PUBLIC "-//W3C//DTD SVG 1.1//EN" "http://www.w3.org/Graphics/SVG/1.1/DTD/svg11.dtd">
<svg version="1.1" xmlns="http://www.w3.org/2000/svg" xmlns:xlink="http://www.w3.org/1999/xlink" preserveAspectRatio="xMidYMid meet" viewBox="0 0 640 640" width="640" height="640"><defs><path d="M4.31 322.86C4.31 498 146.29 640 321.44 640C496.6 640 638.58 498 638.58 322.86C638.58 147.71 496.6 5.71 321.44 5.71C146.29 5.71 4.31 147.71 4.31 322.86Z" id="aosJzMXpQ"></path><path d="M4.31 322.86C4.31 498 146.29 640 321.44 640C496.6 640 638.58 498 638.58 322.86C638.58 147.71 496.6 5.71 321.44 5.71C146.29 5.71 4.31 147.71 4.31 322.86Z" id="a2fgC8Te3t"></path><path d="M409.19 188.51L411.18 188.72L413.16 189.03L415.13 189.4L417.09 189.85L419.02 190.38L420.95 191L422.87 191.68L424.75 192.43L426.62 193.28L428.46 194.19L430.27 195.2L432.05 196.28L433.81 197.44L435.53 198.68L437.19 199.99L438.82 201.38L440.38 202.82L441.86 204.3L443.27 205.83L444.61 207.41L445.88 209.03L447.07 210.7L448.2 212.4L449.25 214.13L450.22 215.91L451.12 217.7L451.95 219.53L452.71 221.38L453.39 223.27L454.01 225.17L454.54 227.08L455 229.01L455.39 230.98L455.69 232.94L455.93 234.9L456.1 236.9L456.17 238.87L456.19 240.87L456.11 242.86L455.97 244.84L455.76 246.83L455.46 248.8L455.08 250.77L454.63 252.72L454.1 254.67L453.5 256.6L452.8 258.5L452.05 260.4L451.2 262.26L450.29 264.1L449.28 265.92L448.2 267.7L447.04 269.44L445.8 271.16L444.49 272.84L443.1 274.47L441.66 276.03L440.18 277.51L438.65 278.92L437.07 280.25L435.45 281.51L433.78 282.72L432.08 283.83L430.35 284.88L428.59 285.87L426.78 286.77L424.95 287.6L423.1 288.36L421.21 289.04L419.31 289.64L417.4 290.18L415.47 290.65L413.5 291.03L411.54 291.34L409.58 291.57L407.6 291.73L405.61 291.82L403.61 291.82L401.63 291.76L399.64 291.62L397.66 291.4L395.68 291.1L393.71 290.72L391.76 290.28L389.81 289.75L387.88 289.13L385.98 288.45L384.09 287.7L382.22 286.85L380.38 285.92L378.56 284.93L376.78 283.85L375.04 282.69L373.32 281.45L371.64 280.14L278.94 372.84L279.42 373.42L280.35 374.63L280.79 375.25L281.66 376.48L282.49 377.75L282.9 378.4L283.28 379.03L283.67 379.7L284.04 380.35L284.75 381.68L285.09 382.36L285.43 383.02L285.75 383.7L286.06 384.4L286.37 385.08L286.67 385.77L286.94 386.48L287.21 387.18L287.73 388.6L287.96 389.31L288.2 390.04L288.41 390.75L288.63 391.47L288.83 392.2L289.02 392.94L289.19 393.67L289.36 394.41L289.66 395.89L289.79 396.64L289.91 397.39L290.04 398.13L290.22 399.65L290.3 400.41L352.7 400.41L352.94 398.43L353.25 396.5L353.63 394.58L354.08 392.68L354.59 390.82L355.18 389L355.83 387.19L356.54 385.43L357.31 383.7L358.14 382L359.04 380.35L359.98 378.72L360.99 377.13L362.05 375.59L363.17 374.09L364.33 372.63L365.55 371.23L366.81 369.85L368.13 368.54L369.49 367.26L370.89 366.04L372.33 364.86L373.83 363.75L375.36 362.67L376.92 361.66L378.53 360.7L380.17 359.81L381.85 358.96L383.55 358.18L385.3 357.46L387.08 356.81L388.87 356.21L390.69 355.68L392.55 355.22L394.43 354.82L396.33 354.49L398.26 354.23L400.21 354.04L402.17 353.93L404.15 353.89L404.37 353.8L406.35 353.83L408.33 353.93L410.27 354.12L412.2 354.37L414.11 354.69L415.99 355.09L417.86 355.56L419.7 356.08L421.49 356.67L423.27 357.33L425.02 358.06L426.73 358.83L428.42 359.68L430.07 360.58L431.68 361.54L433.25 362.56L434.78 363.62L436.28 364.75L437.74 365.93L439.14 367.15L440.5 368.43L441.82 369.76L443.08 371.12L444.3 372.54L445.46 374.01L446.59 375.51L447.64 377.05L448.66 378.65L449.61 380.27L450.5 381.94L451.34 383.64L452.11 385.38L452.82 387.15L453.47 388.95L454.06 390.79L454.57 392.66L455.01 394.55L455.39 396.48L455.69 398.43L455.93 400.41L456.1 402.52L456.19 404.64L456.19 406.74L456.1 408.83L455.93 410.88L455.68 412.92L455.34 414.95L454.94 416.94L454.46 418.92L453.89 420.85L453.25 422.77L452.56 424.65L451.78 426.49L450.93 428.32L450.02 430.08L449.03 431.83L448 433.51L446.88 435.16L445.73 436.77L444.49 438.33L443.21 439.85L441.86 441.31L440.46 442.72L439 444.08L437.5 445.39L435.94 446.63L434.34 447.82L432.68 448.95L430.97 450.02L429.22 451.02L427.43 451.95L425.6 452.81L423.72 453.62L421.8 454.33L419.85 454.99L417.86 455.56L415.84 456.06L413.78 456.48L411.69 456.82L409.58 457.08L407.44 457.25L405.34 457.33L403.24 457.33L401.15 457.23L399.08 457.06L397.04 456.82L395.03 456.48L393.03 456.07L391.06 455.6L389.12 455.02L387.21 454.39L385.33 453.69L383.47 452.92L381.67 452.07L379.89 451.16L378.16 450.17L376.46 449.13L374.82 448.02L373.2 446.86L371.64 445.63L370.12 444.34L368.67 443L367.25 441.59L365.89 440.14L364.59 438.64L363.34 437.08L362.16 435.47L361.03 433.82L359.97 432.1L358.96 430.36L358.04 428.56L357.17 426.74L356.37 424.86L355.64 422.94L354.99 420.99L354.42 419L353.93 416.97L353.51 414.92L353.17 412.83L352.91 410.71L290.3 410.71L290.22 411.47L290.13 412.23L290.04 412.97L289.93 413.73L289.8 414.47L289.53 415.95L289.37 416.7L289.2 417.44L289.03 418.16L288.85 418.89L288.44 420.34L288.23 421.07L287.76 422.49L287.52 423.2L287.25 423.91L286.99 424.61L286.71 425.32L286.42 426.01L286.13 426.69L285.82 427.39L285.49 428.07L285.17 428.73L284.83 429.41L284.12 430.74L283.75 431.39L283.37 432.06L282.99 432.69L282.59 433.34L282.18 433.97L281.77 434.61L280.47 436.46L279.08 438.27L277.7 439.89L276.28 441.47L274.8 442.95L273.28 444.37L271.71 445.72L270.1 447L268.45 448.21L266.75 449.35L265.03 450.42L263.27 451.41L261.46 452.32L259.65 453.17L257.8 453.93L255.93 454.62L254.03 455.26L252.11 455.8L250.18 456.28L248.23 456.68L246.27 457L244.29 457.25L242.31 457.42L240.33 457.53L238.34 457.54L236.35 457.5L234.37 457.36L232.37 457.16L230.4 456.88L228.43 456.51L226.47 456.07L224.52 455.56L222.59 454.96L220.68 454.3L218.77 453.54L216.9 452.72L215.07 451.81L213.24 450.82L211.45 449.75L209.69 448.61L207.97 447.39L206.27 446.07L204.65 444.71L203.09 443.28L201.59 441.81L200.17 440.28L198.82 438.72L197.54 437.11L196.33 435.46L195.19 433.76L194.14 432.03L193.15 430.26L192.22 428.47L191.39 426.65L190.62 424.81L189.92 422.92L189.29 421.04L188.75 419.12L188.27 417.19L187.86 415.24L187.54 413.28L187.29 411.3L187.12 409.32L187.01 407.35L187 405.35L187.05 403.36L187.18 401.36L187.39 399.39L187.66 397.41L188.03 395.43L188.47 393.48L188.98 391.54L189.58 389.6L190.24 387.69L191 385.79L191.82 383.92L192.73 382.08L193.72 380.25L194.79 378.46L195.93 376.7L197.15 374.98L198.47 373.28L199.83 371.66L201.26 370.08L202.73 368.6L204.26 367.18L205.82 365.82L207.45 364.55L209.1 363.35L210.78 362.2L212.52 361.14L214.28 360.15L216.07 359.24L217.89 358.39L219.73 357.61L221.62 356.92L223.5 356.3L225.42 355.76L227.35 355.28L229.3 354.88L231.26 354.55L233.24 354.31L235.22 354.12L237.21 354.03L239.19 354.01L241.18 354.06L243.18 354.18L245.16 354.4L247.13 354.68L249.11 355.03L251.06 355.48L253.01 355.99L254.94 356.58L256.85 357.26L258.76 358L260.63 358.83L262.48 359.75L264.29 360.73L266.08 361.79L267.84 362.94L269.57 364.17L271.26 365.46L363.96 272.77L363.49 272.18L363.03 271.58L362.58 270.97L362.15 270.37L361.71 269.75L361.3 269.13L360.09 267.23L358.98 265.29L358.62 264.64L357.94 263.31L357.62 262.63L357 261.27L356.71 260.59L356.15 259.2L355.89 258.5L355.64 257.81L355.39 257.1L355.16 256.4L354.93 255.67L354.53 254.25L354.33 253.53L354.14 252.8L353.97 252.07L353.82 251.35L353.66 250.6L353.52 249.88L353.28 248.39L353.17 247.65L353.08 246.91L352.98 246.15L352.91 245.41L290.3 245.41L290.08 247.24L289.8 249.03L289.46 250.82L289.06 252.57L288.6 254.31L288.09 256.01L287.5 257.7L286.88 259.37L286.2 260.99L285.46 262.6L284.67 264.16L283.82 265.7L282.94 267.2L282 268.69L281.01 270.12L279.97 271.51L278.91 272.89L277.78 274.22L276.62 275.5L275.4 276.75L274.16 277.96L272.87 279.13L271.54 280.25L270.18 281.33L268.77 282.36L267.33 283.35L265.86 284.3L264.35 285.18L262.8 286.01L261.24 286.81L259.64 287.54L258.01 288.22L256.36 288.85L254.68 289.43L252.96 289.95L251.23 290.42L249.47 290.8L247.69 291.16L245.88 291.44L244.06 291.65L241.94 291.82L239.82 291.91L237.72 291.91L235.64 291.82L233.58 291.67L231.52 291.42L229.52 291.1L227.51 290.69L225.54 290.2L223.6 289.64L221.68 289.02L219.81 288.31L217.96 287.54L216.15 286.71L214.37 285.79L212.62 284.82L210.94 283.79L209.27 282.67L207.66 281.51L206.1 280.29L204.59 278.99L203.12 277.67L201.7 276.26L200.34 274.81L199.04 273.31L197.79 271.75L196.6 270.14L195.47 268.49L194.4 266.79L193.4 265.04L192.45 263.25L191.59 261.42L190.79 259.55L190.06 257.64L189.41 255.69L188.82 253.7L188.33 251.67L187.9 249.62L187.56 247.53L187.29 245.41L187.12 243.28L187.03 241.16L187.03 239.08L187.12 236.99L187.28 234.92L187.52 232.88L187.85 230.85L188.27 228.86L188.75 226.9L189.3 224.95L189.92 223.03L190.63 221.15L191.4 219.31L192.24 217.49L193.15 215.72L194.12 213.98L195.18 212.28L196.27 210.62L197.43 209.02L198.67 207.46L199.95 205.94L201.3 204.47L202.69 203.05L204.14 201.69L205.64 200.38L207.2 199.14L208.81 197.95L210.46 196.81L212.16 195.74L213.91 194.74L215.7 193.81L217.52 192.93L219.41 192.14L221.31 191.41L223.27 190.75L225.25 190.18L227.27 189.67L229.33 189.25L231.42 188.91L233.53 188.65L235.67 188.48L237.78 188.38L239.89 188.38L241.96 188.46L244.03 188.63L246.07 188.88L248.09 189.2L250.09 189.6L252.05 190.08L254 190.64L255.91 191.27L257.8 191.97L259.64 192.74L261.46 193.59L263.24 194.5L264.97 195.48L266.67 196.51L268.32 197.63L269.93 198.79L271.49 200.01L273.02 201.29L274.47 202.63L275.89 204.04L277.25 205.49L278.57 206.99L279.82 208.55L281.01 210.16L282.14 211.81L283.2 213.51L284.21 215.26L285.14 217.04L286.02 218.88L286.81 220.75L287.55 222.66L288.2 224.61L288.77 226.6L289.28 228.63L289.7 230.68L290.04 232.77L290.3 234.89L352.91 234.89L353.18 232.62L353.31 231.87L353.43 231.12L353.71 229.63L353.86 228.89L354.03 228.15L354.22 227.41L354.4 226.68L354.61 225.95L355.04 224.5L355.27 223.78L355.52 223.06L356.04 221.64L356.31 220.95L356.6 220.24L356.89 219.54L357.19 218.86L357.51 218.17L358.16 216.81L358.52 216.14L358.87 215.46L359.23 214.81L359.6 214.15L359.98 213.5L360.79 212.2L361.19 211.57L361.62 210.93L362.49 209.7L362.94 209.08L363.4 208.48L363.88 207.87L364.36 207.29L365.73 205.66L367.17 204.1L368.65 202.62L370.2 201.21L371.78 199.87L373.4 198.6L375.05 197.41L376.75 196.3L378.48 195.25L380.26 194.26L382.05 193.36L383.89 192.53L385.75 191.77L387.62 191.09L389.52 190.49L391.43 189.94L393.38 189.48L395.33 189.09L397.29 188.79L399.27 188.55L401.25 188.38L403.23 188.31L405.22 188.29L407.21 188.37L409.19 188.51ZM234.12 364.43L232.11 364.69L230.13 365.05L228.19 365.48L226.29 366.02L224.42 366.64L222.59 367.35L220.8 368.14L219.07 369.02L217.37 369.96L215.73 370.98L214.14 372.08L212.61 373.25L211.14 374.49L209.72 375.79L208.37 377.16L207.08 378.58L205.85 380.08L204.71 381.61L203.63 383.22L202.61 384.87L201.68 386.57L200.83 388.32L200.06 390.11L199.36 391.94L198.76 393.82L198.25 395.72L197.82 397.67L197.49 399.66L197.26 401.67L197.11 403.7L197.08 405.77L197.14 407.84L197.29 409.86L197.56 411.87L197.91 413.85L198.34 415.8L198.88 417.7L199.5 419.57L200.21 421.39L201 423.19L201.88 424.92L202.83 426.62L203.85 428.26L204.94 429.85L206.12 431.38L207.35 432.85L208.65 434.27L210.03 435.61L211.45 436.91L212.95 438.13L214.49 439.27L216.09 440.36L217.74 441.38L219.44 442.3L221.19 443.15L222.98 443.93L224.82 444.62L226.69 445.22L228.6 445.73L230.55 446.17L232.53 446.49L234.54 446.74L236.58 446.88L238.63 446.91L240.69 446.85L242.73 446.69L244.72 446.43L246.7 446.09L248.63 445.64L250.53 445.12L252.39 444.5L254.21 443.79L255.99 443L257.74 442.13L259.42 441.19L261.06 440.17L262.63 439.09L264.16 437.93L265.65 436.69L267.05 435.4L268.41 434.04L269.7 432.61L270.92 431.13L272.08 429.6L273.16 428.01L274.16 426.37L275.11 424.67L275.96 422.94L276.73 421.16L277.42 419.32L278.04 417.47L278.57 415.55L279 413.62L279.34 411.64L279.57 409.65L279.73 407.61L279.77 405.55L279.77 405.35L279.71 403.28L279.56 401.24L279.29 399.25L278.94 397.27L278.51 395.32L277.97 393.42L277.35 391.55L276.64 389.73L275.85 387.93L274.98 386.2L274.02 384.5L273 382.87L271.91 381.27L270.73 379.74L269.5 378.28L268.2 376.85L266.82 375.51L265.4 374.21L263.9 372.99L262.37 371.83L260.76 370.75L259.11 369.74L257.41 368.82L255.66 367.97L253.87 367.19L252.05 366.5L250.16 365.9L248.26 365.39L246.31 364.95L244.34 364.63L242.31 364.38L240.29 364.24L238.22 364.21L236.15 364.27L234.12 364.43ZM400.06 199L398.05 199.25L396.07 199.59L394.12 200.02L392.21 200.55L390.34 201.17L388.51 201.86L386.72 202.63L384.97 203.5L383.27 204.44L381.64 205.46L380.04 206.54L378.5 207.7L377.01 208.94L375.59 210.24L374.23 211.6L372.95 213.02L371.71 214.5L370.55 216.03L369.46 217.62L368.45 219.28L367.51 220.98L366.64 222.71L365.86 224.5L365.16 226.34L364.56 228.21L364.03 230.11L363.58 232.06L363.24 234.04L363 236.05L362.86 238.09L362.8 240.14L362.86 242.21L363 244.25L363.24 246.26L363.58 248.24L364.03 250.19L364.56 252.09L365.16 253.96L365.86 255.8L366.64 257.57L367.51 259.32L368.45 261.02L369.46 262.66L370.55 264.25L371.71 265.8L372.95 267.28L374.23 268.7L375.59 270.06L377.01 271.36L378.5 272.58L380.04 273.76L381.64 274.84L383.27 275.86L384.97 276.8L386.72 277.65L388.51 278.44L390.34 279.13L392.21 279.75L394.12 280.28L396.07 280.71L398.05 281.05L400.06 281.3L402.08 281.45L404.15 281.5L406.22 281.45L408.25 281.3L410.26 281.05L412.24 280.71L414.18 280.28L416.1 279.75L417.97 279.13L419.79 278.44L421.59 277.65L423.33 276.8L425.02 275.86L426.67 274.84L428.26 273.76L429.81 272.58L431.28 271.36L432.7 270.06L434.07 268.7L435.36 267.28L436.59 265.8L437.75 264.25L438.85 262.66L439.85 261.02L440.8 259.32L441.66 257.57L442.45 255.8L443.14 253.96L443.75 252.09L444.27 250.19L444.72 248.24L445.06 246.26L445.31 244.25L445.45 242.21L445.51 240.14L445.45 238.09L445.31 236.05L445.06 234.04L444.72 232.06L444.27 230.11L443.75 228.21L443.14 226.34L442.45 224.5L441.66 222.71L440.8 220.98L439.85 219.28L438.85 217.62L437.75 216.03L436.59 214.5L435.36 213.02L434.07 211.6L432.7 210.24L431.28 208.94L429.81 207.7L428.26 206.54L426.67 205.46L425.02 204.44L423.33 203.5L421.59 202.63L419.79 201.86L417.97 201.17L416.1 200.55L414.18 200.02L412.24 199.59L410.26 199.25L408.25 199L406.22 198.85L404.15 198.8L402.08 198.85L400.06 199ZM234.12 198.91L232.11 199.17L230.13 199.53L228.19 199.98L226.29 200.5L224.42 201.12L222.59 201.83L220.8 202.62L219.07 203.5L217.37 204.44L215.73 205.46L214.14 206.56L212.61 207.73L211.14 208.97L209.72 210.28L208.37 211.64L207.08 213.07L205.85 214.56L204.71 216.11L203.63 217.7L202.61 219.36L201.68 221.06L200.83 222.8L200.06 224.59L199.36 226.43L198.76 228.3L198.25 230.22L197.82 232.17L197.49 234.15L197.26 236.15L197.11 238.19L197.08 240.25L197.14 242.32L197.29 244.36L197.56 246.37L197.91 248.33L198.34 250.28L198.88 252.18L199.5 254.05L200.21 255.89L201 257.67L201.88 259.4L202.83 261.1L203.85 262.74L204.94 264.33L206.12 265.86L207.35 267.33L208.65 268.75L210.03 270.11L211.45 271.39L212.95 272.61L214.49 273.77L216.09 274.85L217.74 275.86L219.44 276.78L221.19 277.63L222.98 278.41L224.82 279.1L226.69 279.71L228.6 280.22L230.55 280.65L232.53 280.97L234.54 281.22L236.58 281.36L238.63 281.39L240.69 281.33L242.71 281.17L244.71 280.93L246.69 280.57L248.62 280.14L250.52 279.6L252.37 278.98L254.2 278.28L255.97 277.5L257.7 276.65L259.39 275.7L261.03 274.68L262.6 273.6L264.13 272.44L265.6 271.21L267.02 269.92L268.37 268.56L269.67 267.14L270.89 265.67L272.05 264.14L273.13 262.55L274.13 260.91L275.08 259.23L275.93 257.5L276.71 255.7L277.41 253.9L278.01 252.03L278.54 250.13L278.97 248.19L279.33 246.23L279.57 244.22L279.73 242.2L279.77 240.14L279.77 239.83L279.71 237.78L279.56 235.74L279.29 233.73L278.94 231.75L278.51 229.8L277.97 227.9L277.35 226.03L276.64 224.21L275.85 222.42L274.98 220.68L274.02 218.98L273 217.35L271.91 215.77L270.73 214.22L269.5 212.76L268.2 211.33L266.82 209.99L265.4 208.69L263.92 207.47L262.37 206.33L260.76 205.25L259.11 204.23L257.41 203.3L255.66 202.45L253.87 201.68L252.05 200.98L250.16 200.38L248.26 199.87L246.31 199.43L244.34 199.11L242.31 198.88L240.29 198.74L238.22 198.69L236.15 198.75L234.12 198.91Z" id="allclHDAz"></path><path d="M409.19 188.51L411.18 188.72L413.16 189.03L415.13 189.4L417.09 189.85L419.02 190.38L420.95 191L422.87 191.68L424.75 192.43L426.62 193.28L428.46 194.19L430.27 195.2L432.05 196.28L433.81 197.44L435.53 198.68L437.19 199.99L438.82 201.38L440.38 202.82L441.86 204.3L443.27 205.83L444.61 207.41L445.88 209.03L447.07 210.7L448.2 212.4L449.25 214.13L450.22 215.91L451.12 217.7L451.95 219.53L452.71 221.38L453.39 223.27L454.01 225.17L454.54 227.08L455 229.01L455.39 230.98L455.69 232.94L455.93 234.9L456.1 236.9L456.17 238.87L456.19 240.87L456.11 242.86L455.97 244.84L455.76 246.83L455.46 248.8L455.08 250.77L454.63 252.72L454.1 254.67L453.5 256.6L452.8 258.5L452.05 260.4L451.2 262.26L450.29 264.1L449.28 265.92L448.2 267.7L447.04 269.44L445.8 271.16L444.49 272.84L443.1 274.47L441.66 276.03L440.18 277.51L438.65 278.92L437.07 280.25L435.45 281.51L433.78 282.72L432.08 283.83L430.35 284.88L428.59 285.87L426.78 286.77L424.95 287.6L423.1 288.36L421.21 289.04L419.31 289.64L417.4 290.18L415.47 290.65L413.5 291.03L411.54 291.34L409.58 291.57L407.6 291.73L405.61 291.82L403.61 291.82L401.63 291.76L399.64 291.62L397.66 291.4L395.68 291.1L393.71 290.72L391.76 290.28L389.81 289.75L387.88 289.13L385.98 288.45L384.09 287.7L382.22 286.85L380.38 285.92L378.56 284.93L376.78 283.85L375.04 282.69L373.32 281.45L371.64 280.14L278.94 372.84L279.42 373.42L280.35 374.63L280.79 375.25L281.66 376.48L282.49 377.75L282.9 378.4L283.28 379.03L283.67 379.7L284.04 380.35L284.75 381.68L285.09 382.36L285.43 383.02L285.75 383.7L286.06 384.4L286.37 385.08L286.67 385.77L286.94 386.48L287.21 387.18L287.73 388.6L287.96 389.31L288.2 390.04L288.41 390.75L288.63 391.47L288.83 392.2L289.02 392.94L289.19 393.67L289.36 394.41L289.66 395.89L289.79 396.64L289.91 397.39L290.04 398.13L290.22 399.65L290.3 400.41L352.7 400.41L352.94 398.43L353.25 396.5L353.63 394.58L354.08 392.68L354.59 390.82L355.18 389L355.83 387.19L356.54 385.43L357.31 383.7L358.14 382L359.04 380.35L359.98 378.72L360.99 377.13L362.05 375.59L363.17 374.09L364.33 372.63L365.55 371.23L366.81 369.85L368.13 368.54L369.49 367.26L370.89 366.04L372.33 364.86L373.83 363.75L375.36 362.67L376.92 361.66L378.53 360.7L380.17 359.81L381.85 358.96L383.55 358.18L385.3 357.46L387.08 356.81L388.87 356.21L390.69 355.68L392.55 355.22L394.43 354.82L396.33 354.49L398.26 354.23L400.21 354.04L402.17 353.93L404.15 353.89L404.37 353.8L406.35 353.83L408.33 353.93L410.27 354.12L412.2 354.37L414.11 354.69L415.99 355.09L417.86 355.56L419.7 356.08L421.49 356.67L423.27 357.33L425.02 358.06L426.73 358.83L428.42 359.68L430.07 360.58L431.68 361.54L433.25 362.56L434.78 363.62L436.28 364.75L437.74 365.93L439.14 367.15L440.5 368.43L441.82 369.76L443.08 371.12L444.3 372.54L445.46 374.01L446.59 375.51L447.64 377.05L448.66 378.65L449.61 380.27L450.5 381.94L451.34 383.64L452.11 385.38L452.82 387.15L453.47 388.95L454.06 390.79L454.57 392.66L455.01 394.55L455.39 396.48L455.69 398.43L455.93 400.41L456.1 402.52L456.19 404.64L456.19 406.74L456.1 408.83L455.93 410.88L455.68 412.92L455.34 414.95L454.94 416.94L454.46 418.92L453.89 420.85L453.25 422.77L452.56 424.65L451.78 426.49L450.93 428.32L450.02 430.08L449.03 431.83L448 433.51L446.88 435.16L445.73 436.77L444.49 438.33L443.21 439.85L441.86 441.31L440.46 442.72L439 444.08L437.5 445.39L435.94 446.63L434.34 447.82L432.68 448.95L430.97 450.02L429.22 451.02L427.43 451.95L425.6 452.81L423.72 453.62L421.8 454.33L419.85 454.99L417.86 455.56L415.84 456.06L413.78 456.48L411.69 456.82L409.58 457.08L407.44 457.25L405.34 457.33L403.24 457.33L401.15 457.23L399.08 457.06L397.04 456.82L395.03 456.48L393.03 456.07L391.06 455.6L389.12 455.02L387.21 454.39L385.33 453.69L383.47 452.92L381.67 452.07L379.89 451.16L378.16 450.17L376.46 449.13L374.82 448.02L373.2 446.86L371.64 445.63L370.12 444.34L368.67 443L367.25 441.59L365.89 440.14L364.59 438.64L363.34 437.08L362.16 435.47L361.03 433.82L359.97 432.1L358.96 430.36L358.04 428.56L357.17 426.74L356.37 424.86L355.64 422.94L354.99 420.99L354.42 419L353.93 416.97L353.51 414.92L353.17 412.83L352.91 410.71L290.3 410.71L290.22 411.47L290.13 412.23L290.04 412.97L289.93 413.73L289.8 414.47L289.53 415.95L289.37 416.7L289.2 417.44L289.03 418.16L288.85 418.89L288.44 420.34L288.23 421.07L287.76 422.49L287.52 423.2L287.25 423.91L286.99 424.61L286.71 425.32L286.42 426.01L286.13 426.69L285.82 427.39L285.49 428.07L285.17 428.73L284.83 429.41L284.12 430.74L283.75 431.39L283.37 432.06L282.99 432.69L282.59 433.34L282.18 433.97L281.77 434.61L280.47 436.46L279.08 438.27L277.7 439.89L276.28 441.47L274.8 442.95L273.28 444.37L271.71 445.72L270.1 447L268.45 448.21L266.75 449.35L265.03 450.42L263.27 451.41L261.46 452.32L259.65 453.17L257.8 453.93L255.93 454.62L254.03 455.26L252.11 455.8L250.18 456.28L248.23 456.68L246.27 457L244.29 457.25L242.31 457.42L240.33 457.53L238.34 457.54L236.35 457.5L234.37 457.36L232.37 457.16L230.4 456.88L228.43 456.51L226.47 456.07L224.52 455.56L222.59 454.96L220.68 454.3L218.77 453.54L216.9 452.72L215.07 451.81L213.24 450.82L211.45 449.75L209.69 448.61L207.97 447.39L206.27 446.07L204.65 444.71L203.09 443.28L201.59 441.81L200.17 440.28L198.82 438.72L197.54 437.11L196.33 435.46L195.19 433.76L194.14 432.03L193.15 430.26L192.22 428.47L191.39 426.65L190.62 424.81L189.92 422.92L189.29 421.04L188.75 419.12L188.27 417.19L187.86 415.24L187.54 413.28L187.29 411.3L187.12 409.32L187.01 407.35L187 405.35L187.05 403.36L187.18 401.36L187.39 399.39L187.66 397.41L188.03 395.43L188.47 393.48L188.98 391.54L189.58 389.6L190.24 387.69L191 385.79L191.82 383.92L192.73 382.08L193.72 380.25L194.79 378.46L195.93 376.7L197.15 374.98L198.47 373.28L199.83 371.66L201.26 370.08L202.73 368.6L204.26 367.18L205.82 365.82L207.45 364.55L209.1 363.35L210.78 362.2L212.52 361.14L214.28 360.15L216.07 359.24L217.89 358.39L219.73 357.61L221.62 356.92L223.5 356.3L225.42 355.76L227.35 355.28L229.3 354.88L231.26 354.55L233.24 354.31L235.22 354.12L237.21 354.03L239.19 354.01L241.18 354.06L243.18 354.18L245.16 354.4L247.13 354.68L249.11 355.03L251.06 355.48L253.01 355.99L254.94 356.58L256.85 357.26L258.76 358L260.63 358.83L262.48 359.75L264.29 360.73L266.08 361.79L267.84 362.94L269.57 364.17L271.26 365.46L363.96 272.77L363.49 272.18L363.03 271.58L362.58 270.97L362.15 270.37L361.71 269.75L361.3 269.13L360.09 267.23L358.98 265.29L358.62 264.64L357.94 263.31L357.62 262.63L357 261.27L356.71 260.59L356.15 259.2L355.89 258.5L355.64 257.81L355.39 257.1L355.16 256.4L354.93 255.67L354.53 254.25L354.33 253.53L354.14 252.8L353.97 252.07L353.82 251.35L353.66 250.6L353.52 249.88L353.28 248.39L353.17 247.65L353.08 246.91L352.98 246.15L352.91 245.41L290.3 245.41L290.08 247.24L289.8 249.03L289.46 250.82L289.06 252.57L288.6 254.31L288.09 256.01L287.5 257.7L286.88 259.37L286.2 260.99L285.46 262.6L284.67 264.16L283.82 265.7L282.94 267.2L282 268.69L281.01 270.12L279.97 271.51L278.91 272.89L277.78 274.22L276.62 275.5L275.4 276.75L274.16 277.96L272.87 279.13L271.54 280.25L270.18 281.33L268.77 282.36L267.33 283.35L265.86 284.3L264.35 285.18L262.8 286.01L261.24 286.81L259.64 287.54L258.01 288.22L256.36 288.85L254.68 289.43L252.96 289.95L251.23 290.42L249.47 290.8L247.69 291.16L245.88 291.44L244.06 291.65L241.94 291.82L239.82 291.91L237.72 291.91L235.64 291.82L233.58 291.67L231.52 291.42L229.52 291.1L227.51 290.69L225.54 290.2L223.6 289.64L221.68 289.02L219.81 288.31L217.96 287.54L216.15 286.71L214.37 285.79L212.62 284.82L210.94 283.79L209.27 282.67L207.66 281.51L206.1 280.29L204.59 278.99L203.12 277.67L201.7 276.26L200.34 274.81L199.04 273.31L197.79 271.75L196.6 270.14L195.47 268.49L194.4 266.79L193.4 265.04L192.45 263.25L191.59 261.42L190.79 259.55L190.06 257.64L189.41 255.69L188.82 253.7L188.33 251.67L187.9 249.62L187.56 247.53L187.29 245.41L187.12 243.28L187.03 241.16L187.03 239.08L187.12 236.99L187.28 234.92L187.52 232.88L187.85 230.85L188.27 228.86L188.75 226.9L189.3 224.95L189.92 223.03L190.63 221.15L191.4 219.31L192.24 217.49L193.15 215.72L194.12 213.98L195.18 212.28L196.27 210.62L197.43 209.02L198.67 207.46L199.95 205.94L201.3 204.47L202.69 203.05L204.14 201.69L205.64 200.38L207.2 199.14L208.81 197.95L210.46 196.81L212.16 195.74L213.91 194.74L215.7 193.81L217.52 192.93L219.41 192.14L221.31 191.41L223.27 190.75L225.25 190.18L227.27 189.67L229.33 189.25L231.42 188.91L233.53 188.65L235.67 188.48L237.78 188.38L239.89 188.38L241.96 188.46L244.03 188.63L246.07 188.88L248.09 189.2L250.09 189.6L252.05 190.08L254 190.64L255.91 191.27L257.8 191.97L259.64 192.74L261.46 193.59L263.24 194.5L264.97 195.48L266.67 196.51L268.32 197.63L269.93 198.79L271.49 200.01L273.02 201.29L274.47 202.63L275.89 204.04L277.25 205.49L278.57 206.99L279.82 208.55L281.01 210.16L282.14 211.81L283.2 213.51L284.21 215.26L285.14 217.04L286.02 218.88L286.81 220.75L287.55 222.66L288.2 224.61L288.77 226.6L289.28 228.63L289.7 230.68L290.04 232.77L290.3 234.89L352.91 234.89L353.18 232.62L353.31 231.87L353.43 231.12L353.71 229.63L353.86 228.89L354.03 228.15L354.22 227.41L354.4 226.68L354.61 225.95L355.04 224.5L355.27 223.78L355.52 223.06L356.04 221.64L356.31 220.95L356.6 220.24L356.89 219.54L357.19 218.86L357.51 218.17L358.16 216.81L358.52 216.14L358.87 215.46L359.23 214.81L359.6 214.15L359.98 213.5L360.79 212.2L361.19 211.57L361.62 210.93L362.49 209.7L362.94 209.08L363.4 208.48L363.88 207.87L364.36 207.29L365.73 205.66L367.17 204.1L368.65 202.62L370.2 201.21L371.78 199.87L373.4 198.6L375.05 197.41L376.75 196.3L378.48 195.25L380.26 194.26L382.05 193.36L383.89 192.53L385.75 191.77L387.62 191.09L389.52 190.49L391.43 189.94L393.38 189.48L395.33 189.09L397.29 188.79L399.27 188.55L401.25 188.38L403.23 188.31L405.22 188.29L407.21 188.37L409.19 188.51ZM234.12 364.43L232.11 364.69L230.13 365.05L228.19 365.48L226.29 366.02L224.42 366.64L222.59 367.35L220.8 368.14L219.07 369.02L217.37 369.96L215.73 370.98L214.14 372.08L212.61 373.25L211.14 374.49L209.72 375.79L208.37 377.16L207.08 378.58L205.85 380.08L204.71 381.61L203.63 383.22L202.61 384.87L201.68 386.57L200.83 388.32L200.06 390.11L199.36 391.94L198.76 393.82L198.25 395.72L197.82 397.67L197.49 399.66L197.26 401.67L197.11 403.7L197.08 405.77L197.14 407.84L197.29 409.86L197.56 411.87L197.91 413.85L198.34 415.8L198.88 417.7L199.5 419.57L200.21 421.39L201 423.19L201.88 424.92L202.83 426.62L203.85 428.26L204.94 429.85L206.12 431.38L207.35 432.85L208.65 434.27L210.03 435.61L211.45 436.91L212.95 438.13L214.49 439.27L216.09 440.36L217.74 441.38L219.44 442.3L221.19 443.15L222.98 443.93L224.82 444.62L226.69 445.22L228.6 445.73L230.55 446.17L232.53 446.49L234.54 446.74L236.58 446.88L238.63 446.91L240.69 446.85L242.73 446.69L244.72 446.43L246.7 446.09L248.63 445.64L250.53 445.12L252.39 444.5L254.21 443.79L255.99 443L257.74 442.13L259.42 441.19L261.06 440.17L262.63 439.09L264.16 437.93L265.65 436.69L267.05 435.4L268.41 434.04L269.7 432.61L270.92 431.13L272.08 429.6L273.16 428.01L274.16 426.37L275.11 424.67L275.96 422.94L276.73 421.16L277.42 419.32L278.04 417.47L278.57 415.55L279 413.62L279.34 411.64L279.57 409.65L279.73 407.61L279.77 405.55L279.77 405.35L279.71 403.28L279.56 401.24L279.29 399.25L278.94 397.27L278.51 395.32L277.97 393.42L277.35 391.55L276.64 389.73L275.85 387.93L274.98 386.2L274.02 384.5L273 382.87L271.91 381.27L270.73 379.74L269.5 378.28L268.2 376.85L266.82 375.51L265.4 374.21L263.9 372.99L262.37 371.83L260.76 370.75L259.11 369.74L257.41 368.82L255.66 367.97L253.87 367.19L252.05 366.5L250.16 365.9L248.26 365.39L246.31 364.95L244.34 364.63L242.31 364.38L240.29 364.24L238.22 364.21L236.15 364.27L234.12 364.43ZM400.06 199L398.05 199.25L396.07 199.59L394.12 200.02L392.21 200.55L390.34 201.17L388.51 201.86L386.72 202.63L384.97 203.5L383.27 204.44L381.64 205.46L380.04 206.54L378.5 207.7L377.01 208.94L375.59 210.24L374.23 211.6L372.95 213.02L371.71 214.5L370.55 216.03L369.46 217.62L368.45 219.28L367.51 220.98L366.64 222.71L365.86 224.5L365.16 226.34L364.56 228.21L364.03 230.11L363.58 232.06L363.24 234.04L363 236.05L362.86 238.09L362.8 240.14L362.86 242.21L363 244.25L363.24 246.26L363.58 248.24L364.03 250.19L364.56 252.09L365.16 253.96L365.86 255.8L366.64 257.57L367.51 259.32L368.45 261.02L369.46 262.66L370.55 264.25L371.71 265.8L372.95 267.28L374.23 268.7L375.59 270.06L377.01 271.36L378.5 272.58L380.04 273.76L381.64 274.84L383.27 275.86L384.97 276.8L386.72 277.65L388.51 278.44L390.34 279.13L392.21 279.75L394.12 280.28L396.07 280.71L398.05 281.05L400.06 281.3L402.08 281.45L404.15 281.5L406.22 281.45L408.25 281.3L410.26 281.05L412.24 280.71L414.18 280.28L416.1 279.75L417.97 279.13L419.79 278.44L421.59 277.65L423.33 276.8L425.02 275.86L426.67 274.84L428.26 273.76L429.81 272.58L431.28 271.36L432.7 270.06L434.07 268.7L435.36 267.28L436.59 265.8L437.75 264.25L438.85 262.66L439.85 261.02L440.8 259.32L441.66 257.57L442.45 255.8L443.14 253.96L443.75 252.09L444.27 250.19L444.72 248.24L445.06 246.26L445.31 244.25L445.45 242.21L445.51 240.14L445.45 238.09L445.31 236.05L445.06 234.04L444.72 232.06L444.27 230.11L443.75 228.21L443.14 226.34L442.45 224.5L441.66 222.71L440.8 220.98L439.85 219.28L438.85 217.62L437.75 216.03L436.59 214.5L435.36 213.02L434.07 211.6L432.7 210.24L431.28 208.94L429.81 207.7L428.26 206.54L426.67 205.46L425.02 204.44L423.33 203.5L421.59 202.63L419.79 201.86L417.97 201.17L416.1 200.55L414.18 200.02L412.24 199.59L410.26 199.25L408.25 199L406.22 198.85L404.15 198.8L402.08 198.85L400.06 199ZM234.12 198.91L232.11 199.17L230.13 199.53L228.19 199.98L226.29 200.5L224.42 201.12L222.59 201.83L220.8 202.62L219.07 203.5L217.37 204.44L215.73 205.46L214.14 206.56L212.61 207.73L211.14 208.97L209.72 210.28L208.37 211.64L207.08 213.07L205.85 214.56L204.71 216.11L203.63 217.7L202.61 219.36L201.68 221.06L200.83 222.8L200.06 224.59L199.36 226.43L198.76 228.3L198.25 230.22L197.82 232.17L197.49 234.15L197.26 236.15L197.11 238.19L197.08 240.25L197.14 242.32L197.29 244.36L197.56 246.37L197.91 248.33L198.34 250.28L198.88 252.18L199.5 254.05L200.21 255.89L201 257.67L201.88 259.4L202.83 261.1L203.85 262.74L204.94 264.33L206.12 265.86L207.35 267.33L208.65 268.75L210.03 270.11L211.45 271.39L212.95 272.61L214.49 273.77L216.09 274.85L217.74 275.86L219.44 276.78L221.19 277.63L222.98 278.41L224.82 279.1L226.69 279.71L228.6 280.22L230.55 280.65L232.53 280.97L234.54 281.22L236.58 281.36L238.63 281.39L240.69 281.33L242.71 281.17L244.71 280.93L246.69 280.57L248.62 280.14L250.52 279.6L252.37 278.98L254.2 278.28L255.97 277.5L257.7 276.65L259.39 275.7L261.03 274.68L262.6 273.6L264.13 272.44L265.6 271.21L267.02 269.92L268.37 268.56L269.67 267.14L270.89 265.67L272.05 264.14L273.13 262.55L274.13 260.91L275.08 259.23L275.93 257.5L276.71 255.7L277.41 253.9L278.01 252.03L278.54 250.13L278.97 248.19L279.33 246.23L279.57 244.22L279.73 242.2L279.77 240.14L279.77 239.83L279.71 237.78L279.56 235.74L279.29 233.73L278.94 231.75L278.51 229.8L277.97 227.9L277.35 226.03L276.64 224.21L275.85 222.42L274.98 220.68L274.02 218.98L273 217.35L271.91 215.77L270.73 214.22L269.5 212.76L268.2 211.33L266.82 209.99L265.4 208.69L263.92 207.47L262.37 206.33L260.76 205.25L259.11 204.23L257.41 203.3L255.66 202.45L253.87 201.68L252.05 200.98L250.16 200.38L248.26 199.87L246.31 199.43L244.34 199.11L242.31 198.88L240.29 198.74L238.22 198.69L236.15 198.75L234.12 198.91Z" id="b1GOkFC6ud"></path></defs><g><g><g><use xlink:href="#aosJzMXpQ" opacity="1" fill="#00b19d" fill-opacity="1"></use><g><use xlink:href="#aosJzMXpQ" opacity="1" fill-opacity="0" stroke="#000000" stroke-width="1" stroke-opacity="0"></use></g></g><g><use xlink:href="#a2fgC8Te3t" opacity="1" fill="#000000" fill-opacity="0"></use><g><use xlink:href="#a2fgC8Te3t" opacity="1" fill-opacity="0" stroke="#000000" stroke-width="1" stroke-opacity="0"></use></g></g><g><use xlink:href="#allclHDAz" opacity="1" fill="#ffffff" fill-opacity="1"></use><g><use xlink:href="#allclHDAz" opacity="1" fill-opacity="0" stroke="#000000" stroke-width="1" stroke-opacity="0"></use></g></g><g><use xlink:href="#b1GOkFC6ud" opacity="1" fill="#000000" fill-opacity="0"></use><g><use xlink:href="#b1GOkFC6ud" opacity="1" fill-opacity="0" stroke="#000000" stroke-width="1" stroke-opacity="0"></use></g></g></g></g></svg>