<?xml version="1.0" encoding="UTF-8" standalone="no"?>
<!DOCTYPE svg PUBLIC "-//W3C//DTD SVG 1.1//EN" "http://www.w3.org/Graphics/SVG/1.1/DTD/svg11.dtd">
<svg version="1.1" xmlns="http://www.w3.org/2000/svg" xmlns:xlink="http://www.w3.org/1999/xlink" preserveAspectRatio="xMidYMid meet" viewBox="0 0 640 640" width="640" height="640"><defs><path d="M5.28 319.53C5.28 493.48 146.3 634.49 320.24 634.49C494.19 634.49 635.2 493.48 635.2 319.53C635.2 145.59 494.19 4.57 320.24 4.57C146.3 4.57 5.28 145.59 5.28 319.53Z" id="a3QzCdjwRz"></path><path d="M5.28 319.53C5.28 493.48 146.3 634.49 320.24 634.49C494.19 634.49 635.2 493.48 635.2 319.53C635.2 145.59 494.19 4.57 320.24 4.57C146.3 4.57 5.28 145.59 5.28 319.53Z" id="a2M0JrpZxW"></path><path d="M219.61 499.01L277.63 499.01C277.63 474.98 277.63 461.62 277.63 458.95C328.63 458.95 356.97 458.95 362.64 458.95C362.64 461.29 362.64 463.62 362.64 465.96C362.64 479.14 362.64 489.58 362.64 492.22C362.64 497.3 362.64 497.3 367.74 497.41C370.89 497.41 386.61 497.41 414.93 497.41C415.17 497.41 416.41 497.41 418.64 497.41L418.64 521.22L219.61 521.54L219.61 499.01Z" id="bjAdI8Gzz"></path><path d="M219.61 499.01L277.63 499.01C277.63 474.98 277.63 461.62 277.63 458.95C328.63 458.95 356.97 458.95 362.64 458.95C362.64 461.29 362.64 463.62 362.64 465.96C362.64 479.14 362.64 489.58 362.64 492.22C362.64 497.3 362.64 497.3 367.74 497.41C370.89 497.41 386.61 497.41 414.93 497.41C415.17 497.41 416.41 497.41 418.64 497.41L418.64 521.22L219.61 521.54L219.61 499.01Z" id="ara7pRn2z"></path><path d="M490.92 158.67L491.69 158.72L492.47 158.79L493.23 158.88L494 158.97L494.77 159.08L495.53 159.22L496.29 159.34L497.06 159.5L497.8 159.67L498.56 159.85L499.31 160.04L500.05 160.25L501.53 160.71L502.25 160.96L502.98 161.22L503.7 161.5L504.42 161.8L505.12 162.1L505.83 162.42L507.23 163.09L507.92 163.44L508.59 163.81L509.28 164.2L509.94 164.6L510.6 165.01L511.9 165.85L513.17 166.77L513.8 167.24L514.41 167.72L515.01 168.21L516.1 169.16L516.61 169.65L517.64 170.67L518.59 171.73L519.04 172.28L519.48 172.82L519.92 173.38L520.35 173.95L521.16 175.11L521.89 176.31L522.25 176.9L522.6 177.52L523.23 178.79L523.53 179.42L523.81 180.05L524.08 180.71L524.34 181.37L524.59 182.03L524.8 182.69L525.03 183.36L525.22 184.05L525.4 184.72L525.57 185.4L525.71 186.11L525.85 186.79L525.98 187.5L526.08 188.2L526.26 189.61L526.31 190.31L526.38 191.76L526.4 192.46L526.38 193.18L526.38 387.11L526.36 388.34L526.33 389.58L526.26 390.81L526.08 393.27L525.96 394.49L525.8 395.7L525.64 396.93L525.47 398.13L525.27 399.34L525.04 400.54L524.8 401.75L524.55 402.93L524.27 404.13L523.97 405.31L523.65 406.49L523.32 407.67L522.97 408.83L522.6 409.99L522.19 411.15L521.79 412.3L521.37 413.44L520.91 414.58L520.45 415.71L519.96 416.82L519.47 417.95L518.94 419.05L517.85 421.24L516.69 423.38L516.07 424.44L514.8 426.55L514.13 427.57L512.76 429.61L512.04 430.62L511.3 431.62L510.56 432.59L510.24 433.03L509.93 433.45L509.26 434.3L508.92 434.7L508.57 435.11L508.22 435.49L507.48 436.27L507.11 436.64L506.72 436.99L506.34 437.36L505.93 437.69L505.53 438.04L505.12 438.36L504.7 438.7L504.3 439.01L503.86 439.31L503.43 439.61L502.99 439.91L502.55 440.19L502.1 440.46L501.64 440.74L500.72 441.23L500.25 441.48L499.3 441.93L498.8 442.15L498.33 442.34L497.34 442.73L496.83 442.9L496.34 443.06L495.83 443.22L495.32 443.36L494.79 443.5L494.28 443.64L493.75 443.75L493.24 443.85L493.08 443.87L492.8 443.91L492.66 443.91L492.52 443.92L492.38 443.92L492.24 443.94L492.08 443.94L491.94 443.96L491.8 443.96L491.66 443.98L491.38 443.98L491.24 443.99L489.51 443.99L489.35 443.98L489.07 443.98L488.93 443.96L488.79 443.96L488.65 443.94L488.51 443.94L488.35 443.92L488.21 443.92L488.07 443.91L487.93 443.91L487.51 443.85L154.79 443.85L154.22 443.82L153.96 443.8L153.68 443.78L152.55 443.64L152.29 443.59L152.01 443.55L151.73 443.5L151.46 443.45L151.18 443.4L150.92 443.34L150.63 443.27L150.37 443.2L150.09 443.13L149.56 442.99L149.3 442.9L149.01 442.83L148.22 442.57L147.96 442.46L147.69 442.37L147.45 442.27L146.66 441.95L146.41 441.83L146.15 441.72L145.41 441.35L145.14 441.21L144.9 441.09L144.4 440.81L144.17 440.67L142.87 440.02L141.59 439.33L140.34 438.61L139.12 437.85L137.93 437.08L136.77 436.25L135.62 435.4L134.5 434.52L133.42 433.63L132.37 432.68L131.33 431.71L130.34 430.72L129.37 429.7L128.44 428.66L127.53 427.59L126.65 426.5L125.82 425.37L125.01 424.23L124.22 423.07L123.48 421.89L122.77 420.67L122.11 419.46L121.45 418.21L120.86 416.94L120.27 415.68L119.75 414.37L119.25 413.05L118.8 411.73L118.37 410.4L117.99 409.04L117.63 407.67L117.34 406.28L117.07 404.89L116.84 403.48L116.65 402.07L116.51 400.65L116.4 399.22L116.33 397.78L116.32 396.33L116.33 394.87L116.33 379.98L116.32 377.85L116.32 369.35L116.3 367.24L116.3 362.98L116.28 360.87L116.26 358.74L116.26 356.61L116.24 354.5L116.23 352.37L116.23 350.24L116.21 348.13L116.17 343.87L116.14 341.74L116.12 339.63L116.1 337.5L116.07 335.37L116.05 333.26L115.95 326.87L115.91 324.76L115.88 322.63L115.82 320.5L115.79 318.37L115.73 316.24L115.68 314.13L115.65 312L115.58 309.87L115.47 305.61L115.42 303.46L115.31 299.2L115.21 294.91L115.15 292.78L115.05 288.48L115.01 286.32L114.91 282.03L114.87 279.88L114.82 277.71L114.78 275.57L114.73 273.4L114.7 271.24L114.66 269.09L114.61 266.93L114.47 258.27L114.45 256.1L114.38 251.77L114.36 249.61L114.34 247.42L114.31 245.26L114.26 238.77L114.24 236.58L114.24 234.42L114.22 232.25L114.22 230.09L114.2 227.92L114.2 193.94L114.24 192.74L114.31 191.55L114.43 190.37L114.57 189.21L114.78 188.04L115.01 186.9L115.28 185.77L115.59 184.65L115.95 183.56L116.32 182.47L116.74 181.39L117.19 180.35L117.69 179.32L118.2 178.29L118.76 177.31L119.34 176.34L119.98 175.37L120.63 174.44L121.3 173.54L122.02 172.66L122.76 171.8L123.53 170.96L124.32 170.15L125.15 169.37L125.99 168.61L126.87 167.88L127.77 167.19L128.71 166.52L129.66 165.89L130.62 165.27L131.63 164.69L132.65 164.16L133.69 163.65L134.74 163.18L135.83 162.74L136.92 162.33L138.05 161.96L139.18 161.65L140.34 161.35L141.52 161.1L141.87 161.03L142.24 160.98L142.59 160.92L142.96 160.87L143.31 160.82L143.68 160.77L144.03 160.71L144.4 160.66L144.77 160.62L145.13 160.57L145.49 160.52L145.85 160.48L146.59 160.41L146.94 160.38L147.68 160.31L148.03 160.27L148.4 160.24L148.77 160.22L149.14 160.18L149.49 160.17L150.23 160.13L150.58 160.11L151.69 160.06L152.04 160.04L152.41 160.04L152.78 160.03L153.5 160.03L153.87 160.01L154.61 160.01L154.98 160.03L155.7 160.03L156.07 160.04L319.29 160.04L319.61 159.29L433.76 159.29L435.57 159.27L439.18 159.27L440.99 159.25L444.62 159.25L446.43 159.23L448.22 159.22L450.04 159.22L455.47 159.16L457.27 159.15L464.52 159.08L466.32 159.04L468.13 159.02L469.94 158.99L471.75 158.97L473.57 158.93L475.36 158.9L480.8 158.79L482.61 158.74L484.41 158.71L486.22 158.65L487.01 158.62L487.79 158.6L489.35 158.6L490.13 158.64L490.92 158.67ZM479.8 176.83L478.97 176.83L478.56 176.85L478.16 176.85L476.95 176.9L476.54 176.9L476.14 176.94L412.37 176.94L319.08 177.57L305.47 177.57L177.97 178.21L149.6 178.21L148.96 178.19L148.33 178.21L147.71 178.24L147.1 178.31L146.5 178.4L145.9 178.51L145.3 178.63L144.72 178.79L144.14 178.96L143.58 179.16L143.01 179.37L142.47 179.6L141.41 180.12L140.9 180.42L140.39 180.74L139.9 181.06L139.42 181.41L138.97 181.78L138.51 182.17L138.09 182.55L137.66 182.98L137.26 183.4L136.87 183.86L136.5 184.31L135.8 185.26L135.48 185.77L135.18 186.28L134.9 186.81L134.64 187.34L134.39 187.9L134.18 188.45L133.97 189.03L133.79 189.61L133.63 190.21L133.49 190.81L133.39 191.41L133.3 192.04L133.23 192.66L133.16 192.97L133.14 193.15L133.1 193.31L133.09 193.47L133.05 193.62L133.03 193.78L133 193.94L132.98 194.1L132.95 194.27L132.89 194.75L132.86 194.91L132.84 195.07L132.82 195.24L132.75 195.88L132.74 196.05L132.74 196.21L132.7 196.53L132.68 196.7L132.68 196.86L132.65 197.18L132.65 197.35L132.63 197.51L132.63 197.67L132.61 197.83L132.61 198.16L132.59 198.32L132.59 227.08L132.63 230.72L132.68 234.33L132.74 237.89L132.77 241.41L132.82 244.89L132.88 248.32L132.91 251.7L132.96 255.03L133 258.32L133.05 261.54L133.09 264.73L133.14 267.84L133.18 270.9L133.23 273.91L133.26 276.85L133.32 279.72L133.35 282.54L133.39 285.26L133.42 287.94L133.46 290.54L133.49 293.08L133.54 295.52L133.56 297.9L133.6 300.19L133.63 302.41L133.67 304.55L133.7 306.59L133.72 308.57L133.76 310.43L133.79 312.23L133.81 313.92L133.83 315.52L133.86 317.03L133.88 318.44L133.9 319.74L133.91 320.96L133.93 322.06L133.95 323.05L133.95 323.95L133.97 324.74L133.97 340.81L133.98 342.59L133.98 347.94L134 349.73L134 351.51L134.02 353.3L134.02 355.08L134.04 356.86L134.06 358.65L134.06 360.43L134.07 362.21L134.09 364L134.14 369.34L134.18 371.13L134.21 374.69L134.25 376.46L134.28 378.26L134.46 387.15L134.51 388.92L134.55 390.7L134.71 396.03L134.67 397.06L134.67 398.08L134.69 398.57L134.71 399.08L134.74 399.57L134.79 400.08L134.85 400.58L134.9 401.09L135.04 402.07L135.13 402.56L135.34 403.55L135.45 404.03L135.57 404.52L135.71 404.99L135.85 405.49L135.99 405.96L136.15 406.44L136.33 406.89L136.5 407.37L136.68 407.83L136.87 408.3L137.29 409.22L137.5 409.66L137.73 410.11L137.96 410.55L138.46 411.43L138.98 412.28L139.55 413.12L139.85 413.53L140.14 413.95L140.44 414.34L140.76 414.74L141.32 415.55L141.62 415.96L142.22 416.73L142.54 417.1L142.87 417.47L143.88 418.53L144.23 418.86L145.34 419.81L145.71 420.11L146.09 420.41L146.48 420.69L146.89 420.97L147.69 421.5L148.1 421.75L148.52 421.99L148.94 422.22L149.38 422.45L149.81 422.66L150.25 422.87L150.69 423.07L151.14 423.26L151.6 423.44L152.97 423.91L153.45 424.05L153.91 424.18L154.38 424.3L154.88 424.41L155.35 424.49L155.84 424.58L156.32 424.67L156.81 424.74L485.87 424.74L486.15 424.76L486.43 424.76L486.71 424.74L486.99 424.74L487.28 424.7L487.56 424.69L488.12 424.62L488.4 424.56L488.67 424.51L488.95 424.46L489.48 424.32L489.76 424.23L490.02 424.16L490.29 424.05L490.53 423.97L491.06 423.75L492.05 423.26L492.29 423.12L492.52 422.98L492.77 422.82L493.45 422.35L493.88 421.99L494.11 421.8L494.3 421.62L494.51 421.43L494.7 421.22L494.91 421.03L495.09 420.81L495.28 420.6L495.46 420.37L496.01 419.72L497.03 418.42L498.01 417.08L498.49 416.4L499.4 415.02L499.84 414.32L500.26 413.62L500.69 412.9L501.09 412.17L501.48 411.45L501.87 410.71L502.24 409.97L502.59 409.23L502.94 408.48L503.26 407.74L503.59 406.96L503.89 406.21L504.19 405.43L504.47 404.66L504.74 403.88L505 403.09L505.25 402.32L505.47 401.53L505.7 400.72L505.9 399.92L506.09 399.11L506.28 398.32L506.44 397.51L506.6 396.69L506.74 395.88L506.86 395.05L506.99 394.24L507.09 393.41L507.18 392.59L507.32 390.93L507.38 390.09L507.38 196.16L507.45 195.49L507.48 194.8L507.5 194.13L507.5 193.47L507.45 192.81L507.39 192.15L507.3 191.51L507.18 190.86L507.06 190.23L506.88 189.59L506.71 188.98L506.5 188.38L506 187.18L505.72 186.62L505.42 186.06L505.1 185.49L504.77 184.96L504.4 184.44L504.03 183.93L503.63 183.43L503.2 182.96L502.76 182.48L502.32 182.04L501.85 181.6L501.36 181.2L500.34 180.42L499.79 180.07L499.24 179.74L498.68 179.42L498.1 179.14L497.5 178.86L496.9 178.61L496.27 178.38L495.65 178.19L495 178.01L494.35 177.85L493.68 177.73L493.01 177.64L492.96 177.63L492.89 177.63L492.84 177.61L492.71 177.61L492.66 177.59L492.56 177.59L492.49 177.57L492.38 177.57L491.17 177.41L490.76 177.38L490.36 177.33L487.12 177.04L486.71 177.03L486.31 176.99L485.5 176.96L485.08 176.92L484.27 176.89L483.86 176.89L483.05 176.85L482.65 176.85L482.24 176.83L481.42 176.83L481.01 176.82L480.2 176.82L479.8 176.83Z" id="f3GuGBkp9J"></path><path d="M490.92 158.67L491.69 158.72L492.47 158.79L493.23 158.88L494 158.97L494.77 159.08L495.53 159.22L496.29 159.34L497.06 159.5L497.8 159.67L498.56 159.85L499.31 160.04L500.05 160.25L501.53 160.71L502.25 160.96L502.98 161.22L503.7 161.5L504.42 161.8L505.12 162.1L505.83 162.42L507.23 163.09L507.92 163.44L508.59 163.81L509.28 164.2L509.94 164.6L510.6 165.01L511.9 165.85L513.17 166.77L513.8 167.24L514.41 167.72L515.01 168.21L516.1 169.16L516.61 169.65L517.64 170.67L518.59 171.73L519.04 172.28L519.48 172.82L519.92 173.38L520.35 173.95L521.16 175.11L521.89 176.31L522.25 176.9L522.6 177.52L523.23 178.79L523.53 179.42L523.81 180.05L524.08 180.71L524.34 181.37L524.59 182.03L524.8 182.69L525.03 183.36L525.22 184.05L525.4 184.72L525.57 185.4L525.71 186.11L525.85 186.79L525.98 187.5L526.08 188.2L526.26 189.61L526.31 190.31L526.38 191.76L526.4 192.46L526.38 193.18L526.38 387.11L526.36 388.34L526.33 389.58L526.26 390.81L526.08 393.27L525.96 394.49L525.8 395.7L525.64 396.93L525.47 398.13L525.27 399.34L525.04 400.54L524.8 401.75L524.55 402.93L524.27 404.13L523.97 405.31L523.65 406.49L523.32 407.67L522.97 408.83L522.6 409.99L522.19 411.15L521.79 412.3L521.37 413.44L520.91 414.58L520.45 415.71L519.96 416.82L519.47 417.95L518.94 419.05L517.85 421.24L516.69 423.38L516.07 424.44L514.8 426.55L514.13 427.57L512.76 429.61L512.04 430.62L511.3 431.62L510.56 432.59L510.24 433.03L509.93 433.45L509.26 434.3L508.92 434.7L508.57 435.11L508.22 435.49L507.48 436.27L507.11 436.64L506.72 436.99L506.34 437.36L505.93 437.69L505.53 438.04L505.12 438.36L504.7 438.7L504.3 439.01L503.86 439.31L503.43 439.61L502.99 439.91L502.55 440.19L502.1 440.46L501.64 440.74L500.72 441.23L500.25 441.48L499.3 441.93L498.8 442.15L498.33 442.34L497.34 442.73L496.83 442.9L496.34 443.06L495.83 443.22L495.32 443.36L494.79 443.5L494.28 443.64L493.75 443.75L493.24 443.85L493.08 443.87L492.8 443.91L492.66 443.91L492.52 443.92L492.38 443.92L492.24 443.94L492.08 443.94L491.94 443.96L491.8 443.96L491.66 443.98L491.38 443.98L491.24 443.99L489.51 443.99L489.35 443.98L489.07 443.98L488.93 443.96L488.79 443.96L488.65 443.94L488.51 443.94L488.35 443.92L488.21 443.92L488.07 443.91L487.93 443.91L487.51 443.85L154.79 443.85L154.22 443.82L153.96 443.8L153.68 443.78L152.55 443.64L152.29 443.59L152.01 443.55L151.73 443.5L151.46 443.45L151.18 443.4L150.92 443.34L150.63 443.27L150.37 443.2L150.09 443.13L149.56 442.99L149.3 442.9L149.01 442.83L148.22 442.57L147.96 442.46L147.69 442.37L147.45 442.27L146.66 441.95L146.41 441.83L146.15 441.72L145.41 441.35L145.14 441.21L144.9 441.09L144.4 440.81L144.17 440.67L142.87 440.02L141.59 439.33L140.34 438.61L139.12 437.85L137.93 437.08L136.77 436.25L135.62 435.4L134.5 434.52L133.42 433.63L132.37 432.68L131.33 431.71L130.34 430.72L129.37 429.7L128.44 428.66L127.53 427.59L126.65 426.5L125.82 425.37L125.01 424.23L124.22 423.07L123.48 421.89L122.77 420.67L122.11 419.46L121.45 418.21L120.86 416.94L120.27 415.68L119.75 414.37L119.25 413.05L118.8 411.73L118.37 410.4L117.99 409.04L117.63 407.67L117.34 406.28L117.07 404.89L116.84 403.48L116.65 402.07L116.51 400.65L116.4 399.22L116.33 397.78L116.32 396.33L116.33 394.87L116.33 379.98L116.32 377.85L116.32 369.35L116.3 367.24L116.3 362.98L116.28 360.87L116.26 358.74L116.26 356.61L116.24 354.5L116.23 352.37L116.23 350.24L116.21 348.13L116.17 343.87L116.14 341.74L116.12 339.63L116.1 337.5L116.07 335.37L116.05 333.26L115.95 326.87L115.91 324.76L115.88 322.63L115.82 320.5L115.79 318.37L115.73 316.24L115.68 314.13L115.65 312L115.58 309.87L115.47 305.61L115.42 303.46L115.31 299.2L115.21 294.91L115.15 292.78L115.05 288.48L115.01 286.32L114.91 282.03L114.87 279.88L114.82 277.71L114.78 275.57L114.73 273.4L114.7 271.24L114.66 269.09L114.61 266.93L114.47 258.27L114.45 256.1L114.38 251.77L114.36 249.61L114.34 247.42L114.31 245.26L114.26 238.77L114.24 236.58L114.24 234.42L114.22 232.25L114.22 230.09L114.2 227.92L114.2 193.94L114.24 192.74L114.31 191.55L114.43 190.37L114.57 189.21L114.78 188.04L115.01 186.9L115.28 185.77L115.59 184.65L115.95 183.56L116.32 182.47L116.74 181.39L117.19 180.35L117.69 179.32L118.2 178.29L118.76 177.31L119.34 176.34L119.98 175.37L120.63 174.44L121.3 173.54L122.02 172.66L122.76 171.8L123.53 170.96L124.32 170.15L125.15 169.37L125.99 168.61L126.87 167.88L127.77 167.19L128.71 166.52L129.66 165.89L130.62 165.27L131.63 164.69L132.65 164.16L133.69 163.65L134.74 163.18L135.83 162.74L136.92 162.33L138.05 161.96L139.18 161.65L140.34 161.35L141.52 161.1L141.87 161.03L142.24 160.98L142.59 160.92L142.96 160.87L143.31 160.82L143.68 160.77L144.03 160.71L144.4 160.66L144.77 160.62L145.13 160.57L145.49 160.52L145.85 160.48L146.59 160.41L146.94 160.38L147.68 160.31L148.03 160.27L148.4 160.24L148.77 160.22L149.14 160.18L149.49 160.17L150.23 160.13L150.58 160.11L151.69 160.06L152.04 160.04L152.41 160.04L152.78 160.03L153.5 160.03L153.87 160.01L154.61 160.01L154.98 160.03L155.7 160.03L156.07 160.04L319.29 160.04L319.61 159.29L433.76 159.29L435.57 159.27L439.18 159.27L440.99 159.25L444.62 159.25L446.43 159.23L448.22 159.22L450.04 159.22L455.47 159.16L457.27 159.15L464.52 159.08L466.32 159.04L468.13 159.02L469.94 158.99L471.75 158.97L473.57 158.93L475.36 158.9L480.8 158.79L482.61 158.74L484.41 158.71L486.22 158.65L487.01 158.62L487.79 158.6L489.35 158.6L490.13 158.64L490.92 158.67ZM479.8 176.83L478.97 176.83L478.56 176.85L478.16 176.85L476.95 176.9L476.54 176.9L476.14 176.94L412.37 176.94L319.08 177.57L305.47 177.57L177.97 178.21L149.6 178.21L148.96 178.19L148.33 178.21L147.71 178.24L147.1 178.31L146.5 178.4L145.9 178.51L145.3 178.63L144.72 178.79L144.14 178.96L143.58 179.16L143.01 179.37L142.47 179.6L141.41 180.12L140.9 180.42L140.39 180.74L139.9 181.06L139.42 181.41L138.97 181.78L138.51 182.17L138.09 182.55L137.66 182.98L137.26 183.4L136.87 183.86L136.5 184.31L135.8 185.26L135.48 185.77L135.18 186.28L134.9 186.81L134.64 187.34L134.39 187.9L134.18 188.45L133.97 189.03L133.79 189.61L133.63 190.21L133.49 190.81L133.39 191.41L133.3 192.04L133.23 192.66L133.16 192.97L133.14 193.15L133.1 193.31L133.09 193.47L133.05 193.62L133.03 193.78L133 193.94L132.98 194.1L132.95 194.27L132.89 194.75L132.86 194.91L132.84 195.07L132.82 195.24L132.75 195.88L132.74 196.05L132.74 196.21L132.7 196.53L132.68 196.7L132.68 196.86L132.65 197.18L132.65 197.35L132.63 197.51L132.63 197.67L132.61 197.83L132.61 198.16L132.59 198.32L132.59 227.08L132.63 230.72L132.68 234.33L132.74 237.89L132.77 241.41L132.82 244.89L132.88 248.32L132.91 251.7L132.96 255.03L133 258.32L133.05 261.54L133.09 264.73L133.14 267.84L133.18 270.9L133.23 273.91L133.26 276.85L133.32 279.72L133.35 282.54L133.39 285.26L133.42 287.94L133.46 290.54L133.49 293.08L133.54 295.52L133.56 297.9L133.6 300.19L133.63 302.41L133.67 304.55L133.7 306.59L133.72 308.57L133.76 310.43L133.79 312.23L133.81 313.92L133.83 315.52L133.86 317.03L133.88 318.44L133.9 319.74L133.91 320.96L133.93 322.06L133.95 323.05L133.95 323.95L133.97 324.74L133.97 340.81L133.98 342.59L133.98 347.94L134 349.73L134 351.51L134.02 353.3L134.02 355.08L134.04 356.86L134.06 358.65L134.06 360.43L134.07 362.21L134.09 364L134.14 369.34L134.18 371.13L134.21 374.69L134.25 376.46L134.28 378.26L134.46 387.15L134.51 388.92L134.55 390.7L134.71 396.03L134.67 397.06L134.67 398.08L134.69 398.57L134.71 399.08L134.74 399.57L134.79 400.08L134.85 400.58L134.9 401.09L135.04 402.07L135.13 402.56L135.34 403.55L135.45 404.03L135.57 404.52L135.71 404.99L135.85 405.49L135.99 405.96L136.15 406.44L136.33 406.89L136.5 407.37L136.68 407.83L136.87 408.3L137.29 409.22L137.5 409.66L137.73 410.11L137.96 410.55L138.46 411.43L138.98 412.28L139.55 413.12L139.85 413.53L140.14 413.95L140.44 414.34L140.76 414.74L141.32 415.55L141.62 415.96L142.22 416.73L142.54 417.1L142.87 417.47L143.88 418.53L144.23 418.86L145.34 419.81L145.71 420.11L146.09 420.41L146.48 420.69L146.89 420.97L147.69 421.5L148.1 421.75L148.52 421.99L148.94 422.22L149.38 422.45L149.81 422.66L150.25 422.87L150.69 423.07L151.14 423.26L151.6 423.44L152.97 423.91L153.45 424.05L153.91 424.18L154.38 424.3L154.88 424.41L155.35 424.49L155.84 424.58L156.32 424.67L156.81 424.74L485.87 424.74L486.15 424.76L486.43 424.76L486.71 424.74L486.99 424.74L487.28 424.7L487.56 424.69L488.12 424.62L488.4 424.56L488.67 424.51L488.95 424.46L489.48 424.32L489.76 424.23L490.02 424.16L490.29 424.05L490.53 423.97L491.06 423.75L492.05 423.26L492.29 423.12L492.52 422.98L492.77 422.82L493.45 422.35L493.88 421.99L494.11 421.8L494.3 421.62L494.51 421.43L494.7 421.22L494.91 421.03L495.09 420.81L495.28 420.6L495.46 420.37L496.01 419.72L497.03 418.42L498.01 417.08L498.49 416.4L499.4 415.02L499.84 414.32L500.26 413.62L500.69 412.9L501.09 412.17L501.48 411.45L501.87 410.71L502.24 409.97L502.59 409.23L502.94 408.48L503.26 407.74L503.59 406.96L503.89 406.21L504.19 405.43L504.47 404.66L504.74 403.88L505 403.09L505.25 402.32L505.47 401.53L505.7 400.72L505.9 399.92L506.09 399.11L506.28 398.32L506.44 397.51L506.6 396.69L506.74 395.88L506.86 395.05L506.99 394.24L507.09 393.41L507.18 392.59L507.32 390.93L507.38 390.09L507.38 196.16L507.45 195.49L507.48 194.8L507.5 194.13L507.5 193.47L507.45 192.81L507.39 192.15L507.3 191.51L507.18 190.86L507.06 190.23L506.88 189.59L506.71 188.98L506.5 188.38L506 187.18L505.72 186.62L505.42 186.06L505.1 185.49L504.77 184.96L504.4 184.44L504.03 183.93L503.63 183.43L503.2 182.96L502.76 182.48L502.32 182.04L501.85 181.6L501.36 181.2L500.34 180.42L499.79 180.07L499.24 179.74L498.68 179.42L498.1 179.14L497.5 178.86L496.9 178.61L496.27 178.38L495.65 178.19L495 178.01L494.35 177.85L493.68 177.73L493.01 177.64L492.96 177.63L492.89 177.63L492.84 177.61L492.71 177.61L492.66 177.59L492.56 177.59L492.49 177.57L492.38 177.57L491.17 177.41L490.76 177.38L490.36 177.33L487.12 177.04L486.71 177.03L486.31 176.99L485.5 176.96L485.08 176.92L484.27 176.89L483.86 176.89L483.05 176.85L482.65 176.85L482.24 176.83L481.42 176.83L481.01 176.82L480.2 176.82L479.8 176.83Z" id="c1aAdJhqPs"></path><path d="M188.93 332.15C188.54 294.71 218.59 264.04 256.02 263.65C282.95 263.37 307.48 279.05 318.55 303.6C317.85 303.92 312.32 306.47 311.63 306.79C297.66 276.9 262.13 264 232.24 277.98C202.38 291.93 189.48 327.48 203.43 357.37C213.24 378.29 234.21 391.71 257.34 391.79C257.41 391.79 257.76 391.79 258.4 391.79C258.4 392.3 258.4 394.86 258.4 399.45C257.7 399.45 257.31 399.45 257.23 399.45C257.34 399.33 257.41 399.26 257.45 399.24C220.01 399.63 189.34 369.58 188.93 332.15Z" id="a1e1u7m5l3"></path><path d="M188.93 332.15C188.54 294.71 218.59 264.04 256.02 263.65C282.95 263.37 307.48 279.05 318.55 303.6C317.85 303.92 312.32 306.47 311.63 306.79C297.66 276.9 262.13 264 232.24 277.98C202.38 291.93 189.48 327.48 203.43 357.37C213.24 378.29 234.21 391.71 257.34 391.79C257.41 391.79 257.76 391.79 258.4 391.79C258.4 392.3 258.4 394.86 258.4 399.45C257.7 399.45 257.31 399.45 257.23 399.45C257.34 399.33 257.41 399.26 257.45 399.24C220.01 399.63 189.34 369.58 188.93 332.15Z" id="jAWpk8qq"></path><path d="M355.1 391.69C355.1 396.28 355.1 398.83 355.1 399.34C355.1 399.34 355.1 399.34 355.1 399.34C296.5 399.34 263.96 399.34 257.45 399.34C257.45 399.34 257.45 399.34 257.45 399.34C257.45 394.75 257.45 392.2 257.45 391.69C257.45 391.69 257.45 391.69 257.45 391.69C316.03 391.69 348.59 391.69 355.1 391.69C355.1 391.69 355.1 391.69 355.1 391.69Z" id="bS87DtJuQ"></path><path d="M355.1 391.69C355.1 396.28 355.1 398.83 355.1 399.34C355.1 399.34 355.1 399.34 355.1 399.34C296.5 399.34 263.96 399.34 257.45 399.34C257.45 399.34 257.45 399.34 257.45 399.34C257.45 394.75 257.45 392.2 257.45 391.69C257.45 391.69 257.45 391.69 257.45 391.69C316.03 391.69 348.59 391.69 355.1 391.69C355.1 391.69 355.1 391.69 355.1 391.69Z" id="c29y9JCd0k"></path><path d="M319.18 212.1C286.75 212.07 259.21 235.81 254.47 267.89C253.73 267.77 247.77 266.84 247.03 266.71C252.34 230.99 283.05 204.54 319.18 204.55C357.69 204.85 389.46 234.79 392.08 273.21C390.57 273.21 386.04 273.21 384.53 273.21C381.98 238.92 353.56 212.35 319.18 212.1Z" id="ahrY5PrQJ"></path><path d="M319.18 212.1C286.75 212.07 259.21 235.81 254.47 267.89C253.73 267.77 247.77 266.84 247.03 266.71C252.34 230.99 283.05 204.54 319.18 204.55C357.69 204.85 389.46 234.79 392.08 273.21C390.57 273.21 386.04 273.21 384.53 273.21C381.98 238.92 353.56 212.35 319.18 212.1Z" id="eom6azCsU"></path><path d="M316.63 349.92C317.37 349.78 323.32 348.67 324.08 348.55C330.36 380.92 361.7 402.07 394.09 395.77C426.45 389.49 447.61 358.14 441.31 325.76C435.97 298.25 412.21 278.17 384.21 277.45C384.21 276.69 384.21 270.57 384.21 269.81C421.72 270.25 451.76 301 451.32 338.5C450.88 376.01 420.12 406.05 382.61 405.61C382.67 405.63 382.79 405.7 382.82 405.71C350.16 405.63 322.25 382.11 316.63 349.92Z" id="ifuAcf0zt"></path><path d="M316.63 349.92C317.37 349.78 323.32 348.67 324.08 348.55C330.36 380.92 361.7 402.07 394.09 395.77C426.45 389.49 447.61 358.14 441.31 325.76C435.97 298.25 412.21 278.17 384.21 277.45C384.21 276.69 384.21 270.57 384.21 269.81C421.72 270.25 451.76 301 451.32 338.5C450.88 376.01 420.12 406.05 382.61 405.61C382.67 405.63 382.79 405.7 382.82 405.71C350.16 405.63 322.25 382.11 316.63 349.92Z" id="b6OPbA4olk"></path></defs><g><g><g><use xlink:href="#a3QzCdjwRz" opacity="1" fill="#00b09c" fill-opacity="1"></use><g><use xlink:href="#a3QzCdjwRz" opacity="1" fill-opacity="0" stroke="#000000" stroke-width="1" stroke-opacity="0"></use></g></g><g><use xlink:href="#a2M0JrpZxW" opacity="1" fill="#000000" fill-opacity="0"></use><g><use xlink:href="#a2M0JrpZxW" opacity="1" fill-opacity="0" stroke="#000000" stroke-width="1" stroke-opacity="0"></use></g></g><g><use xlink:href="#bjAdI8Gzz" opacity="1" fill="#ffffff" fill-opacity="1"></use><g><use xlink:href="#bjAdI8Gzz" opacity="1" fill-opacity="0" stroke="#000000" stroke-width="1" stroke-opacity="0"></use></g></g><g><use xlink:href="#ara7pRn2z" opacity="1" fill="#000000" fill-opacity="0"></use><g><use xlink:href="#ara7pRn2z" opacity="1" fill-opacity="0" stroke="#000000" stroke-width="1" stroke-opacity="0"></use></g></g><g><use xlink:href="#f3GuGBkp9J" opacity="1" fill="#ffffff" fill-opacity="1"></use><g><use xlink:href="#f3GuGBkp9J" opacity="1" fill-opacity="0" stroke="#000000" stroke-width="1" stroke-opacity="0"></use></g></g><g><use xlink:href="#c1aAdJhqPs" opacity="1" fill="#000000" fill-opacity="0"></use><g><use xlink:href="#c1aAdJhqPs" opacity="1" fill-opacity="0" stroke="#000000" stroke-width="1" stroke-opacity="0"></use></g></g><g><use xlink:href="#a1e1u7m5l3" opacity="1" fill="#ffffff" fill-opacity="1"></use><g><use xlink:href="#a1e1u7m5l3" opacity="1" fill-opacity="0" stroke="#000000" stroke-width="1" stroke-opacity="0"></use></g></g><g><use xlink:href="#jAWpk8qq" opacity="1" fill="#000000" fill-opacity="0"></use><g><use xlink:href="#jAWpk8qq" opacity="1" fill-opacity="0" stroke="#000000" stroke-width="1" stroke-opacity="0"></use></g></g><g><use xlink:href="#bS87DtJuQ" opacity="1" fill="#ffffff" fill-opacity="1"></use><g><use xlink:href="#bS87DtJuQ" opacity="1" fill-opacity="0" stroke="#000000" stroke-width="1" stroke-opacity="0"></use></g></g><g><use xlink:href="#c29y9JCd0k" opacity="1" fill="#000000" fill-opacity="0"></use><g><use xlink:href="#c29y9JCd0k" opacity="1" fill-opacity="0" stroke="#000000" stroke-width="1" stroke-opacity="0"></use></g></g><g><use xlink:href="#ahrY5PrQJ" opacity="1" fill="#ffffff" fill-opacity="1"></use><g><use xlink:href="#ahrY5PrQJ" opacity="1" fill-opacity="0" stroke="#000000" stroke-width="1" stroke-opacity="0"></use></g></g><g><use xlink:href="#eom6azCsU" opacity="1" fill="#000000" fill-opacity="0"></use><g><use xlink:href="#eom6azCsU" opacity="1" fill-opacity="0" stroke="#000000" stroke-width="1" stroke-opacity="0"></use></g></g><g><use xlink:href="#ifuAcf0zt" opacity="1" fill="#ffffff" fill-opacity="1"></use><g><use xlink:href="#ifuAcf0zt" opacity="1" fill-opacity="0" stroke="#000000" stroke-width="1" stroke-opacity="0"></use></g></g><g><use xlink:href="#b6OPbA4olk" opacity="1" fill="#000000" fill-opacity="0"></use><g><use xlink:href="#b6OPbA4olk" opacity="1" fill-opacity="0" stroke="#000000" stroke-width="1" stroke-opacity="0"></use></g></g></g></g></svg>