<?xml version="1.0" encoding="UTF-8" standalone="no"?>
<!DOCTYPE svg PUBLIC "-//W3C//DTD SVG 1.1//EN" "http://www.w3.org/Graphics/SVG/1.1/DTD/svg11.dtd">
<svg version="1.1" xmlns="http://www.w3.org/2000/svg" xmlns:xlink="http://www.w3.org/1999/xlink" preserveAspectRatio="xMidYMid meet" viewBox="0 0 640 640" width="640" height="640"><defs><path d="M260.18 138.43L262.01 138.54L263.84 138.7L265.66 138.89L267.48 139.11L269.3 139.36L271.11 139.64L272.9 139.96L274.69 140.32L276.47 140.7L278.24 141.1L280.02 141.54L281.78 142.03L283.52 142.53L285.25 143.07L286.98 143.63L288.69 144.23L290.4 144.86L292.1 145.53L293.78 146.21L295.44 146.93L297.09 147.69L298.74 148.47L300.36 149.27L301.98 150.12L303.58 150.99L305.17 151.88L306.72 152.81L308.28 153.77L309.82 154.74L311.34 155.76L312.83 156.8L314.32 157.87L315.79 158.97L317.25 160.08L318.68 161.23L320.09 162.41L321.47 163.62L322.85 164.86L324.22 163.62L325.62 162.41L327.02 161.23L328.46 160.08L329.91 158.97L331.37 157.87L332.86 156.8L334.35 155.76L335.88 154.74L337.42 153.77L338.97 152.81L340.54 151.88L342.13 150.99L343.72 150.12L345.33 149.27L346.97 148.47L348.6 147.69L350.27 146.93L351.93 146.21L355.29 144.86L357.01 144.23L358.72 143.63L360.45 143.07L362.19 142.53L363.93 142.03L365.68 141.54L367.45 141.1L369.23 140.7L371 140.32L372.79 139.96L374.6 139.64L376.41 139.36L378.21 139.11L380.04 138.89L381.86 138.7L383.68 138.54L385.52 138.43L387.36 138.34L389.21 138.29L495.03 138.29L495.03 456.73L389.21 456.73L387.36 456.78L385.52 456.87L383.68 457L381.86 457.14L380.04 457.33L378.21 457.55L376.41 457.8L374.6 458.08L372.79 458.41L371 458.76L369.23 459.14L367.45 459.54L365.68 460L363.93 460.47L362.19 460.97L360.45 461.51L358.72 462.07L357.01 462.69L355.29 463.31L353.61 463.97L351.93 464.67L350.27 465.37L348.6 466.13L346.97 466.91L345.33 467.71L343.72 468.56L342.13 469.43L340.54 470.32L338.97 471.25L337.42 472.21L335.88 473.18L334.35 474.2L332.86 475.24L331.37 476.31L329.91 477.41L328.46 478.52L327.02 479.67L325.62 480.85L324.22 482.06L322.85 483.3L321.47 482.06L320.09 480.85L318.68 479.67L317.25 478.52L315.79 477.41L314.32 476.31L312.83 475.24L311.34 474.2L309.82 473.18L308.28 472.21L306.72 471.25L305.17 470.32L303.58 469.43L301.98 468.56L300.36 467.71L298.74 466.91L297.09 466.13L295.44 465.37L293.78 464.67L292.1 463.97L290.4 463.31L288.69 462.69L286.98 462.07L285.25 461.51L283.52 460.97L281.78 460.47L280.02 460L278.24 459.54L276.47 459.14L274.69 458.76L272.9 458.41L271.11 458.08L269.3 457.8L267.48 457.55L265.66 457.33L263.84 457.14L262.01 457L260.18 456.87L258.34 456.78L256.5 456.73L150.67 456.73L150.67 138.29L256.5 138.29L258.34 138.34L260.18 138.43ZM163.67 443.93L256.5 443.93L258.29 443.98L260.07 444.06L261.86 444.17L263.63 444.31L265.41 444.46L267.18 444.65L268.96 444.87L270.72 445.11L272.48 445.37L274.22 445.67L275.96 446L277.71 446.35L279.45 446.73L281.18 447.12L282.89 447.54L284.6 448L286.32 448.49L288.01 448.99L289.71 449.51L291.39 450.07L293.05 450.65L294.72 451.25L296.39 451.88L298.03 452.54L299.67 453.21L301.29 453.92L302.9 454.66L304.51 455.41L306.11 456.18L307.7 457L309.27 457.82L312.38 459.54L313.92 460.46L315.44 461.38L316.95 462.32L318.44 463.3L319.92 464.29L321.39 465.31L322.85 466.36L322.85 183.69L313.43 174.27L312.25 173.21L311.04 172.19L309.83 171.19L308.61 170.21L307.35 169.26L306.09 168.33L304.82 167.42L303.52 166.54L302.21 165.67L300.89 164.84L299.56 164.02L298.21 163.24L296.86 162.47L295.47 161.73L294.09 161.02L292.69 160.33L291.3 159.67L289.87 159.03L288.44 158.42L286.99 157.82L285.55 157.27L284.08 156.72L282.61 156.22L281.13 155.73L279.64 155.27L278.15 154.83L276.64 154.43L275.13 154.05L273.61 153.7L272.08 153.37L270.54 153.07L269 152.81L267.46 152.56L265.91 152.34L264.35 152.15L262.78 151.99L261.23 151.85L259.64 151.76L258.07 151.68L256.5 151.61L163.67 151.61L163.67 443.93ZM362.65 363.81L455.57 363.81L455.46 350.59L362.65 350.59L362.65 363.81ZM362.65 324.02L455.57 324.02L455.46 310.79L362.65 310.79L362.65 324.02ZM362.65 284.23L455.57 284.23L455.46 271L362.65 271L362.65 284.23ZM362.65 244.44L455.57 244.44L455.46 231.21L362.65 231.21L362.65 244.44Z" id="b1B2kxvXvz"></path><path d="M260.18 138.43L262.01 138.54L263.84 138.7L265.66 138.89L267.48 139.11L269.3 139.36L271.11 139.64L272.9 139.96L274.69 140.32L276.47 140.7L278.24 141.1L280.02 141.54L281.78 142.03L283.52 142.53L285.25 143.07L286.98 143.63L288.69 144.23L290.4 144.86L292.1 145.53L293.78 146.21L295.44 146.93L297.09 147.69L298.74 148.47L300.36 149.27L301.98 150.12L303.58 150.99L305.17 151.88L306.72 152.81L308.28 153.77L309.82 154.74L311.34 155.76L312.83 156.8L314.32 157.87L315.79 158.97L317.25 160.08L318.68 161.23L320.09 162.41L321.47 163.62L322.85 164.86L324.22 163.62L325.62 162.41L327.02 161.23L328.46 160.08L329.91 158.97L331.37 157.87L332.86 156.8L334.35 155.76L335.88 154.74L337.42 153.77L338.97 152.81L340.54 151.88L342.13 150.99L343.72 150.12L345.33 149.27L346.97 148.47L348.6 147.69L350.27 146.93L351.93 146.21L355.29 144.86L357.01 144.23L358.72 143.63L360.45 143.07L362.19 142.53L363.93 142.03L365.68 141.54L367.45 141.1L369.23 140.7L371 140.32L372.79 139.96L374.6 139.64L376.41 139.36L378.21 139.11L380.04 138.89L381.86 138.7L383.68 138.54L385.52 138.43L387.36 138.34L389.21 138.29L495.03 138.29L495.03 456.73L389.21 456.73L387.36 456.78L385.52 456.87L383.68 457L381.86 457.14L380.04 457.33L378.21 457.55L376.41 457.8L374.6 458.08L372.79 458.41L371 458.76L369.23 459.14L367.45 459.54L365.68 460L363.93 460.47L362.19 460.97L360.45 461.51L358.72 462.07L357.01 462.69L355.29 463.31L353.61 463.97L351.93 464.67L350.27 465.37L348.6 466.13L346.97 466.91L345.33 467.71L343.72 468.56L342.13 469.43L340.54 470.32L338.97 471.25L337.42 472.21L335.88 473.18L334.35 474.2L332.86 475.24L331.37 476.31L329.91 477.41L328.46 478.52L327.02 479.67L325.62 480.85L324.22 482.06L322.85 483.3L321.47 482.06L320.09 480.85L318.68 479.67L317.25 478.52L315.79 477.41L314.32 476.31L312.83 475.24L311.34 474.2L309.82 473.18L308.28 472.21L306.72 471.25L305.17 470.32L303.58 469.43L301.98 468.56L300.36 467.71L298.74 466.91L297.09 466.13L295.44 465.37L293.78 464.67L292.1 463.97L290.4 463.31L288.69 462.69L286.98 462.07L285.25 461.51L283.52 460.97L281.78 460.47L280.02 460L278.24 459.54L276.47 459.14L274.69 458.76L272.9 458.41L271.11 458.08L269.3 457.8L267.48 457.55L265.66 457.33L263.84 457.14L262.01 457L260.18 456.87L258.34 456.78L256.5 456.73L150.67 456.73L150.67 138.29L256.5 138.29L258.34 138.34L260.18 138.43ZM163.67 443.93L256.5 443.93L258.29 443.98L260.07 444.06L261.86 444.17L263.63 444.31L265.41 444.46L267.18 444.65L268.96 444.87L270.72 445.11L272.48 445.37L274.22 445.67L275.96 446L277.71 446.35L279.45 446.73L281.18 447.12L282.89 447.54L284.6 448L286.32 448.49L288.01 448.99L289.71 449.51L291.39 450.07L293.05 450.65L294.72 451.25L296.39 451.88L298.03 452.54L299.67 453.21L301.29 453.92L302.9 454.66L304.51 455.41L306.11 456.18L307.7 457L309.27 457.82L312.38 459.54L313.92 460.46L315.44 461.38L316.95 462.32L318.44 463.3L319.92 464.29L321.39 465.31L322.85 466.36L322.85 183.69L313.43 174.27L312.25 173.21L311.04 172.19L309.83 171.19L308.61 170.21L307.35 169.26L306.09 168.33L304.82 167.42L303.52 166.54L302.21 165.67L300.89 164.84L299.56 164.02L298.21 163.24L296.86 162.47L295.47 161.73L294.09 161.02L292.69 160.33L291.3 159.67L289.87 159.03L288.44 158.42L286.99 157.82L285.55 157.27L284.08 156.72L282.61 156.22L281.13 155.73L279.64 155.27L278.15 154.83L276.64 154.43L275.13 154.05L273.61 153.7L272.08 153.37L270.54 153.07L269 152.81L267.46 152.56L265.91 152.34L264.35 152.15L262.78 151.99L261.23 151.85L259.64 151.76L258.07 151.68L256.5 151.61L163.67 151.61L163.67 443.93ZM362.65 363.81L455.57 363.81L455.46 350.59L362.65 350.59L362.65 363.81ZM362.65 324.02L455.57 324.02L455.46 310.79L362.65 310.79L362.65 324.02ZM362.65 284.23L455.57 284.23L455.46 271L362.65 271L362.65 284.23ZM362.65 244.44L455.57 244.44L455.46 231.21L362.65 231.21L362.65 244.44Z" id="aTXyh84iP"></path><path d="M6.74 320C6.74 493.24 147.18 633.68 320.42 633.68C493.66 633.68 634.1 493.24 634.1 320C634.1 146.76 493.66 6.32 320.42 6.32C147.18 6.32 6.74 146.76 6.74 320Z" id="a26WVOec52"></path><path d="M6.74 320C6.74 493.24 147.18 633.68 320.42 633.68C493.66 633.68 634.1 493.24 634.1 320C634.1 146.76 493.66 6.32 320.42 6.32C147.18 6.32 6.74 146.76 6.74 320Z" id="a10e2A1alD"></path><path d="M173.41 300.85C167.85 343.27 180.25 386.07 207.6 418.95C233.93 452.63 273.07 473.84 315.66 477.48C354.02 481.69 392.57 471.47 423.82 448.8C427.09 446.47 429.21 446.16 432.17 448.8C437.89 454.94 443.93 460.75 449.96 466.69C452.17 468.8 452.06 470.18 449.96 472.08C365.88 537.26 244.89 521.96 179.71 437.88C174.25 430.83 169.28 423.41 164.85 415.68C124.57 345.42 132.62 257.46 184.96 195.66C214.82 159.39 257.33 135.78 303.91 129.62C343.26 123.71 383.46 130.22 418.95 148.25C430.01 153.5 440.36 160.14 449.74 168.03C453.13 170.89 455.57 171.2 458.83 168.03C464.87 161.48 471.32 155.45 477.57 149.08C480.12 146.56 481.38 146.45 482.22 150.36C491.65 195.76 499.38 232.08 501.28 241.16C502.33 246.25 499.58 245.4 496.63 244.66C489.14 242.84 429.28 228.27 421.81 226.45C417.14 225.29 412.49 224.13 407.83 223.17C403.18 222.23 403.29 220.95 406.24 217.78C413.01 211.21 419.47 204.44 426.25 197.99C429.32 195.02 429.21 193.32 425.72 190.79C398.2 170.53 364.85 159.77 330.68 160.1C295.41 159.69 261.07 171.5 233.53 193.54C199.57 219.49 177.81 258.33 173.41 300.85Z" id="f4I1XxEeEj"></path><path d="M173.41 300.85C167.85 343.27 180.25 386.07 207.6 418.95C233.93 452.63 273.07 473.84 315.66 477.48C354.02 481.69 392.57 471.47 423.82 448.8C427.09 446.47 429.21 446.16 432.17 448.8C437.89 454.94 443.93 460.75 449.96 466.69C452.17 468.8 452.06 470.18 449.96 472.08C365.88 537.26 244.89 521.96 179.71 437.88C174.25 430.83 169.28 423.41 164.85 415.68C124.57 345.42 132.62 257.46 184.96 195.66C214.82 159.39 257.33 135.78 303.91 129.62C343.26 123.71 383.46 130.22 418.95 148.25C430.01 153.5 440.36 160.14 449.74 168.03C453.13 170.89 455.57 171.2 458.83 168.03C464.87 161.48 471.32 155.45 477.57 149.08C480.12 146.56 481.38 146.45 482.22 150.36C491.65 195.76 499.38 232.08 501.28 241.16C502.33 246.25 499.58 245.4 496.63 244.66C489.14 242.84 429.28 228.27 421.81 226.45C417.14 225.29 412.49 224.13 407.83 223.17C403.18 222.23 403.29 220.95 406.24 217.78C413.01 211.21 419.47 204.44 426.25 197.99C429.32 195.02 429.21 193.32 425.72 190.79C398.2 170.53 364.85 159.77 330.68 160.1C295.41 159.69 261.07 171.5 233.53 193.54C199.57 219.49 177.81 258.33 173.41 300.85Z" id="a2bQRXiXJo"></path></defs><g><g><g><use xlink:href="#b1B2kxvXvz" opacity="1" fill="#ffffff" fill-opacity="1"></use><g><use xlink:href="#b1B2kxvXvz" opacity="1" fill-opacity="0" stroke="#000000" stroke-width="1" stroke-opacity="0"></use></g></g><g><use xlink:href="#aTXyh84iP" opacity="1" fill="#000000" fill-opacity="0"></use><g><use xlink:href="#aTXyh84iP" opacity="1" fill-opacity="0" stroke="#000000" stroke-width="1" stroke-opacity="0"></use></g></g><g><use xlink:href="#a26WVOec52" opacity="1" fill="#00b09c" fill-opacity="1"></use><g><use xlink:href="#a26WVOec52" opacity="1" fill-opacity="0" stroke="#000000" stroke-width="1" stroke-opacity="0"></use></g></g><g><use xlink:href="#a10e2A1alD" opacity="1" fill="#000000" fill-opacity="0"></use><g><use xlink:href="#a10e2A1alD" opacity="1" fill-opacity="0" stroke="#000000" stroke-width="1" stroke-opacity="0"></use></g></g><g><use xlink:href="#f4I1XxEeEj" opacity="1" fill="#ffffff" fill-opacity="1"></use><g><use xlink:href="#f4I1XxEeEj" opacity="1" fill-opacity="0" stroke="#000000" stroke-width="1" stroke-opacity="0"></use></g></g><g><use xlink:href="#a2bQRXiXJo" opacity="1" fill="#000000" fill-opacity="0"></use><g><use xlink:href="#a2bQRXiXJo" opacity="1" fill-opacity="0" stroke="#000000" stroke-width="1" stroke-opacity="0"></use></g></g></g></g></svg>