<?xml version="1.0" encoding="UTF-8" standalone="no"?>
<!DOCTYPE svg PUBLIC "-//W3C//DTD SVG 1.1//EN" "http://www.w3.org/Graphics/SVG/1.1/DTD/svg11.dtd">
<svg version="1.1" xmlns="http://www.w3.org/2000/svg" xmlns:xlink="http://www.w3.org/1999/xlink" preserveAspectRatio="xMidYMid meet" viewBox="0 0 640 640" width="640" height="640"><defs><path d="M6.3 318.87C6.3 492.63 147.15 633.48 320.9 633.48C494.66 633.48 635.51 492.63 635.51 318.87C635.51 145.12 494.66 4.27 320.9 4.27C147.15 4.27 6.3 145.12 6.3 318.87Z" id="b2xKb9tii7"></path><path d="M6.3 318.87C6.3 492.63 147.15 633.48 320.9 633.48C494.66 633.48 635.51 492.63 635.51 318.87C635.51 145.12 494.66 4.27 320.9 4.27C147.15 4.27 6.3 145.12 6.3 318.87Z" id="a5xSeeH62v"></path><path d="M175.19 296.85L175.19 316.79L159.42 332.45L108.06 281.08L123.82 265.32L143.76 265.32L143.76 245.4L224.56 164.6L327.38 164.6L195.13 296.85L175.19 296.85ZM151.07 249.68L151.07 274.83L125.92 274.83L121.11 281.08L158.9 318.87L165.17 312.61L165.17 287.35L190.32 287.35L303.16 174.2L226.53 174.2L151.07 249.68Z" id="bo2ViRkVV"></path><path d="M175.19 296.85L175.19 316.79L159.42 332.45L108.06 281.08L123.82 265.32L143.76 265.32L143.76 245.4L224.56 164.6L327.38 164.6L195.13 296.85L175.19 296.85ZM151.07 249.68L151.07 274.83L125.92 274.83L121.11 281.08L158.9 318.87L165.17 312.61L165.17 287.35L190.32 287.35L303.16 174.2L226.53 174.2L151.07 249.68Z" id="c6sWOSJPF"></path><path d="M445.22 178.23L447.44 178.34L447.81 178.37L448.18 178.39L449.66 178.53L450.01 178.57L450.38 178.6L450.75 178.65L451.12 178.69L451.49 178.74L451.86 178.78L452.21 178.83L452.95 178.94L453.32 179.01L453.67 179.06L454.04 179.11L454.41 179.18L454.77 179.25L455.14 179.31L472.98 182.34L429.05 226.28L428.59 226.71L428.13 227.15L427.69 227.59L426.85 228.5L426.44 228.96L426.06 229.44L425.28 230.42L424.93 230.92L424.58 231.43L424.24 231.94L423.91 232.47L423.59 232.98L423.29 233.52L422.99 234.05L422.43 235.14L421.93 236.27L421.48 237.4L421.26 237.98L420.88 239.14L420.7 239.74L420.54 240.32L420.26 241.52L420.14 242.14L420.03 242.74L419.85 243.97L419.78 244.57L419.73 245.2L419.68 245.82L419.64 247.05L419.64 248.94L419.66 249.55L419.7 250.17L419.73 250.8L419.78 251.42L419.85 252.02L420.03 253.25L420.24 254.45L420.38 255.07L420.52 255.65L420.67 256.25L420.84 256.85L421.19 258.01L421.4 258.59L421.62 259.15L421.83 259.73L422.32 260.86L422.57 261.41L422.83 261.95L423.11 262.5L423.41 263.05L423.71 263.57L424.35 264.63L425.02 265.65L425.39 266.15L425.74 266.64L426.13 267.13L426.9 268.08L427.31 268.56L427.73 269.02L428.15 269.46L428.59 269.9L429.05 270.34L429.47 270.8L429.9 271.24L430.35 271.68L430.79 272.12L431.25 272.52L431.73 272.95L432.68 273.72L433.17 274.09L433.68 274.46L434.18 274.81L434.7 275.15L435.21 275.48L435.74 275.8L436.27 276.1L436.82 276.4L437.36 276.68L438.46 277.21L439.02 277.45L439.58 277.68L440.16 277.91L440.75 278.12L441.33 278.32L442.49 278.67L443.69 278.99L444.89 279.23L445.5 279.34L446.1 279.44L447.95 279.66L448.57 279.69L449.2 279.73L449.82 279.74L450.43 279.74L451.07 279.73L451.68 279.73L452.32 279.71L453.55 279.64L454.17 279.59L455.4 279.44L456 279.36L456.62 279.25L457.81 279L458.41 278.86L459.01 278.7L459.59 278.55L460.17 278.37L460.77 278.18L461.34 277.98L461.92 277.77L463.05 277.31L463.61 277.07L464.17 276.8L464.72 276.54L465.27 276.26L465.79 275.97L466.34 275.68L466.87 275.36L467.38 275.04L467.89 274.71L468.91 274L469.4 273.63L469.88 273.26L470.37 272.87L470.85 272.47L471.31 272.06L472.22 271.22L472.66 270.78L473.09 270.34L517.03 226.39L521.31 242.26L521.39 242.61L521.44 242.98L521.51 243.35L521.56 243.72L521.61 244.07L521.77 245.18L521.83 245.54L521.88 245.91L521.91 246.28L521.97 246.65L522.04 247.39L522.07 247.74L522.21 249.22L522.23 249.59L522.27 249.96L522.37 252.18L522.37 252.55L522.39 252.92L522.39 253.27L522.41 253.64L522.41 255.49L522.39 255.86L522.39 256.23L522.35 256.97L522.35 257.6L522.34 258.22L522.3 258.84L522.28 259.47L522.21 260.7L522.16 261.34L522.13 261.95L522.02 263.19L521.95 263.82L521.9 264.44L521.83 265.05L521.74 265.67L521.67 266.29L521.4 268.14L521.3 268.75L521.21 269.35L521.09 269.97L520.87 271.2L520.75 271.8L520.63 272.42L520.49 273.02L520.35 273.63L520.22 274.23L520.06 274.85L519.92 275.45L519.61 276.64L519.45 277.26L519.29 277.86L518.94 279.06L518.76 279.64L518.18 281.44L517.05 284.62L515.8 287.74L514.45 290.77L512.97 293.73L511.38 296.62L509.69 299.4L507.91 302.11L506.03 304.74L504.05 307.29L501.97 309.74L499.82 312.1L497.59 314.36L495.26 316.54L492.87 318.62L490.38 320.59L487.85 322.48L485.24 324.26L482.56 325.93L479.83 327.5L477.03 328.96L474.2 330.33L471.29 331.58L468.35 332.71L465.37 333.73L462.34 334.65L459.28 335.44L456.18 336.13L453.04 336.69L449.89 337.13L446.7 337.45L443.51 337.63L440.29 337.7L437.05 337.64L433.81 337.45L430.56 337.11L427.31 336.67L424.05 336.08L420.81 335.35L417.56 334.49L414.32 333.49L414.32 333.7L374.44 372.52L436.25 434.01L441.47 441.32L399.62 483.17L393.34 476.9L331.45 415.22L275.8 470.86L275.34 471.37L274.89 471.87L274.41 472.36L273.92 472.85L273.42 473.31L272.91 473.77L272.39 474.21L271.87 474.65L271.33 475.07L270.78 475.48L270.24 475.86L269.67 476.25L269.11 476.6L268.53 476.97L267.37 477.64L266.77 477.94L266.17 478.26L264.93 478.82L264.32 479.07L263.68 479.32L263.07 479.56L262.42 479.78L261.78 479.99L261.13 480.16L260.48 480.36L259.83 480.52L259.16 480.66L258.51 480.8L257.17 481.01L256.48 481.1L255.81 481.17L255.12 481.24L254.45 481.27L253.77 481.31L252.39 481.31L251.69 481.29L250.35 481.22L249.66 481.17L248.99 481.1L247.65 480.92L246.99 480.81L246.33 480.69L245.66 480.57L245.01 480.43L244.36 480.27L243.06 479.92L241.79 479.53L241.16 479.32L239.89 478.86L239.27 478.61L238.65 478.35L238.05 478.07L237.44 477.78L236.84 477.5L236.24 477.19L235.08 476.55L234.5 476.22L233.92 475.86L232.79 475.13L232.24 474.76L231.7 474.37L231.15 473.96L230.09 473.12L229.58 472.69L229.07 472.25L228.56 471.8L228.07 471.32L227.59 470.86L226.59 469.82L225.65 468.75L224.76 467.66L223.91 466.53L223.12 465.38L222.38 464.22L221.69 463.02L221.06 461.81L220.48 460.58L219.95 459.32L219.45 458.06L219.01 456.79L218.64 455.48L218.31 454.18L218.03 452.88L217.8 451.56L217.62 450.22L217.5 448.9L217.41 447.56L217.39 446.22L217.41 444.88L217.5 443.54L217.62 442.22L217.8 440.88L218.03 439.56L218.31 438.26L218.64 436.95L219.01 435.65L219.45 434.38L219.95 433.11L220.48 431.86L221.06 430.63L221.69 429.42L222.38 428.22L223.12 427.05L223.91 425.91L224.76 424.78L225.65 423.69L226.59 422.62L227.59 421.59L283.22 365.53L212.97 295.28L219.24 289.03L248.47 260.1L254.72 253.85L324.97 324.1L363.81 285.26L363.17 283.36L362.78 282.09L362.59 281.44L362.24 280.17L362.06 279.52L361.9 278.86L361.74 278.23L361.59 277.58L361.16 275.62L361.04 274.97L360.9 274.32L360.79 273.67L360.67 273L360.46 271.69L360.37 271.03L360.28 270.37L360.19 269.7L360.12 269.05L360.04 268.38L359.98 267.73L359.91 267.06L359.81 265.72L359.77 265.07L359.72 264.4L359.7 263.73L359.67 263.06L359.65 262.39L359.63 261.74L359.61 261.07L359.61 259.73L359.63 259.06L359.72 255.75L359.95 252.46L360.3 249.22L360.79 246.01L361.39 242.84L362.11 239.72L362.96 236.66L363.91 233.63L364.99 230.65L366.17 227.75L367.45 224.87L368.86 222.07L370.36 219.34L371.94 216.67L373.65 214.06L375.43 211.54L377.32 209.07L379.29 206.68L381.35 204.37L383.5 202.15L385.74 200L388.04 197.94L390.42 195.97L392.89 194.08L395.42 192.29L398.03 190.6L400.71 188.99L403.44 187.5L406.24 186.11L409.09 184.8L412.02 183.62L414.99 182.56L418.01 181.6L421.09 180.75L424.21 180.03L427.36 179.43L430.58 178.95L433.82 178.6L437.1 178.37L440.43 178.27L440.8 178.25L441.17 178.25L441.91 178.21L444.48 178.21L444.85 178.23L445.22 178.23ZM441.49 187.74L441.17 187.74L440.85 187.76L440.52 187.76L437.59 187.85L434.7 188.04L431.83 188.34L429.01 188.76L426.21 189.29L423.47 189.93L420.75 190.67L418.09 191.51L415.47 192.45L412.9 193.49L410.38 194.63L407.91 195.86L405.5 197.18L403.14 198.59L400.85 200.09L398.61 201.66L396.45 203.33L394.33 205.08L392.31 206.89L390.35 208.79L388.47 210.77L386.65 212.81L384.91 214.91L383.25 217.09L381.68 219.33L380.2 221.63L378.8 223.99L377.49 226.41L376.28 228.87L375.15 231.41L374.11 233.98L373.18 236.61L372.35 239.28L371.63 242L371.01 244.74L370.48 247.54L370.08 250.36L369.79 253.23L369.6 256.14L369.55 259.06L369.53 259.65L369.53 260.24L369.55 260.84L369.55 261.43L369.57 262.02L369.58 262.61L369.62 263.2L369.69 264.37L369.72 264.97L369.78 265.55L369.83 266.15L370.11 268.47L370.29 269.63L370.71 271.96L370.96 273.12L371.08 273.68L371.22 274.27L371.36 274.83L371.52 275.41L371.66 275.97L371.82 276.54L372 277.1L372.15 277.67L372.51 278.79L372.89 279.92L373.09 280.47L373.3 281.03L373.72 282.12L373.78 282.3L375.8 288.39L371.63 292.57L332.59 331.2L235.1 428.68L234.41 429.45L233.76 430.23L233.12 431.04L232.54 431.85L232 432.69L231.48 433.54L231.01 434.4L230.55 435.28L230.15 436.18L229.78 437.08L229.44 437.99L229.14 438.93L228.88 439.86L228.65 440.79L228.44 441.75L228.28 442.7L228.16 443.65L228.07 444.62L228.01 445.57L228 446.54L228.01 447.49L228.07 448.46L228.16 449.43L228.28 450.38L228.44 451.33L228.65 452.28L228.88 453.21L229.14 454.15L229.44 455.08L229.78 456L230.15 456.89L230.55 457.79L231.01 458.67L231.48 459.54L232 460.38L232.54 461.23L233.12 462.04L233.76 462.85L234.41 463.62L235.1 464.38L235.84 465.05L236.61 465.68L237.39 466.28L237.79 466.58L238.6 467.15L239.01 467.41L239.43 467.67L240.27 468.17L240.7 468.4L241.58 468.85L242.46 469.28L242.9 469.47L243.36 469.66L244.27 470.02L244.73 470.18L245.21 470.33L245.66 470.49L246.14 470.63L247.57 471L248.04 471.11L248.52 471.2L249.5 471.37L249.98 471.44L250.47 471.51L250.97 471.57L252.45 471.67L252.96 471.69L253.96 471.69L254.45 471.67L255.44 471.6L256.43 471.5L257.41 471.36L257.91 471.27L258.38 471.16L258.88 471.06L259.35 470.95L259.83 470.81L260.3 470.69L260.78 470.53L261.24 470.39L261.71 470.21L262.17 470.05L262.63 469.86L263.07 469.66L263.53 469.47L264.41 469.05L265.29 468.59L265.71 468.34L266.56 467.81L266.96 467.55L267.38 467.27L267.79 466.99L268.56 466.39L269.34 465.75L270.08 465.08L270.45 464.73L406.91 328.27L412.25 323.46L416.42 326.6L417.51 327.02L418.08 327.23L418.62 327.43L419.19 327.62L419.75 327.8L420.31 327.99L420.88 328.17L421.44 328.33L422 328.5L422.57 328.66L423.15 328.8L423.71 328.96L424.28 329.1L424.86 329.22L425.44 329.36L426 329.49L426.58 329.61L428.33 329.93L428.91 330.02L429.49 330.12L430.07 330.19L430.65 330.28L431.82 330.42L432.41 330.47L433 330.54L433.58 330.6L434.18 330.63L435.34 330.7L435.94 330.74L436.52 330.76L437.12 330.77L437.72 330.77L438.3 330.79L438.9 330.77L439.69 330.77L442.63 330.7L445.54 330.53L448.43 330.21L451.26 329.8L454.08 329.28L456.85 328.64L459.56 327.9L462.25 327.07L464.88 326.12L467.47 325.08L470 323.94L472.49 322.71L474.9 321.39L477.26 319.96L479.57 318.46L481.82 316.88L483.99 315.2L486.1 313.46L488.15 311.63L490.12 309.71L492 307.73L493.84 305.67L495.56 303.56L497.24 301.37L498.8 299.12L500.3 296.81L501.69 294.43L503.01 292L504.23 289.52L505.36 286.97L506.38 284.38L507.31 281.75L508.14 279.06L508.86 276.33L509.48 273.56L509.97 270.74L510.38 267.91L510.66 265.02L510.83 262.11L510.89 259.17L510.89 258.85L510.9 258.54L510.9 258.22L510.92 257.9L510.92 255.98L510.9 255.67L510.9 255.35L510.78 253.13L510.75 252.81L510.73 252.49L510.69 252.2L510.48 250.29L510.43 249.98L510.39 249.66L510.34 249.36L510.29 249.04L510.25 248.72L510.2 248.41L510.13 248.09L510.08 247.79L510.02 247.47L509.95 247.16L509.9 246.84L509.83 246.54L478.53 277.86L477.31 278.99L476.1 280.04L474.83 281.07L473.53 282.02L472.21 282.91L470.87 283.74L469.49 284.54L468.08 285.26L466.67 285.93L465.23 286.53L463.79 287.07L462.31 287.57L460.83 288.01L459.33 288.38L457.81 288.69L456.3 288.96L454.78 289.15L453.25 289.31L451.72 289.4L450.19 289.41L448.65 289.4L447.1 289.31L445.59 289.15L444.06 288.96L442.54 288.69L441.03 288.38L439.53 288.01L438.05 287.57L436.59 287.07L435.13 286.53L433.68 285.93L432.27 285.26L430.88 284.54L429.51 283.74L428.15 282.91L426.83 282.02L425.53 281.07L424.28 280.04L423.04 278.99L421.85 277.86L420.68 276.63L419.59 275.38L418.55 274.09L417.58 272.77L416.67 271.43L415.8 270.06L415.01 268.66L414.27 267.24L413.58 265.79L412.97 264.33L412.4 262.85L411.91 261.35L411.45 259.84L411.08 258.31L410.75 256.77L410.48 255.22L410.27 253.67L410.13 252.11L410.04 250.56L410.01 248.99L410.04 247.42L410.13 245.87L410.27 244.3L410.48 242.75L410.75 241.2L411.08 239.67L411.45 238.14L411.91 236.62L412.4 235.13L412.97 233.65L413.58 232.18L414.27 230.74L415.01 229.31L415.8 227.92L416.67 226.55L417.58 225.21L418.55 223.89L419.59 222.6L420.68 221.35L421.85 220.12L453.16 188.82L452.85 188.75L452.53 188.69L452.21 188.62L451.91 188.57L451.6 188.52L451.28 188.45L450.96 188.4L450.66 188.36L450.03 188.25L449.71 188.22L449.39 188.17L448.76 188.1L448.46 188.06L447.19 187.92L446.88 187.9L446.56 187.87L444.34 187.74L444.02 187.74L443.7 187.73L441.8 187.73L441.49 187.74ZM401.59 470.12L429.88 441.83L369.65 378.69L340.33 408.01L401.59 470.12ZM290.11 360.1L319.43 330.77L255.78 266.37L226.43 295.7L290.11 360.1Z" id="f7Yr8Exws"></path><path d="M445.22 178.23L447.44 178.34L447.81 178.37L448.18 178.39L449.66 178.53L450.01 178.57L450.38 178.6L450.75 178.65L451.12 178.69L451.49 178.74L451.86 178.78L452.21 178.83L452.95 178.94L453.32 179.01L453.67 179.06L454.04 179.11L454.41 179.18L454.77 179.25L455.14 179.31L472.98 182.34L429.05 226.28L428.59 226.71L428.13 227.15L427.69 227.59L426.85 228.5L426.44 228.96L426.06 229.44L425.28 230.42L424.93 230.92L424.58 231.43L424.24 231.94L423.91 232.47L423.59 232.98L423.29 233.52L422.99 234.05L422.43 235.14L421.93 236.27L421.48 237.4L421.26 237.98L420.88 239.14L420.7 239.74L420.54 240.32L420.26 241.52L420.14 242.14L420.03 242.74L419.85 243.97L419.78 244.57L419.73 245.2L419.68 245.82L419.64 247.05L419.64 248.94L419.66 249.55L419.7 250.17L419.73 250.8L419.78 251.42L419.85 252.02L420.03 253.25L420.24 254.45L420.38 255.07L420.52 255.65L420.67 256.25L420.84 256.85L421.19 258.01L421.4 258.59L421.62 259.15L421.83 259.73L422.32 260.86L422.57 261.41L422.83 261.95L423.11 262.5L423.41 263.05L423.71 263.57L424.35 264.63L425.02 265.65L425.39 266.15L425.74 266.64L426.13 267.13L426.9 268.08L427.31 268.56L427.73 269.02L428.15 269.46L428.59 269.9L429.05 270.34L429.47 270.8L429.9 271.24L430.35 271.68L430.79 272.12L431.25 272.52L431.73 272.95L432.68 273.72L433.17 274.09L433.68 274.46L434.18 274.81L434.7 275.15L435.21 275.48L435.74 275.8L436.27 276.1L436.82 276.4L437.36 276.68L438.46 277.21L439.02 277.45L439.58 277.68L440.16 277.91L440.75 278.12L441.33 278.32L442.49 278.67L443.69 278.99L444.89 279.23L445.5 279.34L446.1 279.44L447.95 279.66L448.57 279.69L449.2 279.73L449.82 279.74L450.43 279.74L451.07 279.73L451.68 279.73L452.32 279.71L453.55 279.64L454.17 279.59L455.4 279.44L456 279.36L456.62 279.25L457.81 279L458.41 278.86L459.01 278.7L459.59 278.55L460.17 278.37L460.77 278.18L461.34 277.98L461.92 277.77L463.05 277.31L463.61 277.07L464.17 276.8L464.72 276.54L465.27 276.26L465.79 275.97L466.34 275.68L466.87 275.36L467.38 275.04L467.89 274.71L468.91 274L469.4 273.63L469.88 273.26L470.37 272.87L470.85 272.47L471.31 272.06L472.22 271.22L472.66 270.78L473.09 270.34L517.03 226.39L521.31 242.26L521.39 242.61L521.44 242.98L521.51 243.35L521.56 243.72L521.61 244.07L521.77 245.18L521.83 245.54L521.88 245.91L521.91 246.28L521.97 246.65L522.04 247.39L522.07 247.74L522.21 249.22L522.23 249.59L522.27 249.96L522.37 252.18L522.37 252.55L522.39 252.92L522.39 253.27L522.41 253.64L522.41 255.49L522.39 255.86L522.39 256.23L522.35 256.97L522.35 257.6L522.34 258.22L522.3 258.84L522.28 259.47L522.21 260.7L522.16 261.34L522.13 261.95L522.02 263.19L521.95 263.82L521.9 264.44L521.83 265.05L521.74 265.67L521.67 266.29L521.4 268.14L521.3 268.75L521.21 269.35L521.09 269.97L520.87 271.2L520.75 271.8L520.63 272.42L520.49 273.02L520.35 273.63L520.22 274.23L520.06 274.85L519.92 275.45L519.61 276.64L519.45 277.26L519.29 277.86L518.94 279.06L518.76 279.64L518.18 281.44L517.05 284.62L515.8 287.74L514.45 290.77L512.97 293.73L511.38 296.62L509.69 299.4L507.91 302.11L506.03 304.74L504.05 307.29L501.97 309.74L499.82 312.1L497.59 314.36L495.26 316.54L492.87 318.62L490.38 320.59L487.85 322.48L485.24 324.26L482.56 325.93L479.83 327.5L477.03 328.96L474.2 330.33L471.29 331.58L468.35 332.71L465.37 333.73L462.34 334.65L459.28 335.44L456.18 336.13L453.04 336.69L449.89 337.13L446.7 337.45L443.51 337.63L440.29 337.7L437.05 337.64L433.81 337.45L430.56 337.11L427.31 336.67L424.05 336.08L420.81 335.35L417.56 334.49L414.32 333.49L414.32 333.7L374.44 372.52L436.25 434.01L441.47 441.32L399.62 483.17L393.34 476.9L331.45 415.22L275.8 470.86L275.34 471.37L274.89 471.87L274.41 472.36L273.92 472.85L273.42 473.31L272.91 473.77L272.39 474.21L271.87 474.65L271.33 475.07L270.78 475.48L270.24 475.86L269.67 476.25L269.11 476.6L268.53 476.97L267.37 477.64L266.77 477.94L266.17 478.26L264.93 478.82L264.32 479.07L263.68 479.32L263.07 479.56L262.42 479.78L261.78 479.99L261.13 480.16L260.48 480.36L259.83 480.52L259.16 480.66L258.51 480.8L257.17 481.01L256.48 481.1L255.81 481.17L255.12 481.24L254.45 481.27L253.77 481.31L252.39 481.31L251.69 481.29L250.35 481.22L249.66 481.17L248.99 481.1L247.65 480.92L246.99 480.81L246.33 480.69L245.66 480.57L245.01 480.43L244.36 480.27L243.06 479.92L241.79 479.53L241.16 479.32L239.89 478.86L239.27 478.61L238.65 478.35L238.05 478.07L237.44 477.78L236.84 477.5L236.24 477.19L235.08 476.55L234.5 476.22L233.92 475.86L232.79 475.13L232.24 474.76L231.7 474.37L231.15 473.96L230.09 473.12L229.58 472.69L229.07 472.25L228.56 471.8L228.07 471.32L227.59 470.86L226.59 469.82L225.65 468.75L224.76 467.66L223.91 466.53L223.12 465.38L222.38 464.22L221.69 463.02L221.06 461.81L220.48 460.58L219.95 459.32L219.45 458.06L219.01 456.79L218.64 455.48L218.31 454.18L218.03 452.88L217.8 451.56L217.62 450.22L217.5 448.9L217.41 447.56L217.39 446.22L217.41 444.88L217.5 443.54L217.62 442.22L217.8 440.88L218.03 439.56L218.31 438.26L218.64 436.95L219.01 435.65L219.45 434.38L219.95 433.11L220.48 431.86L221.06 430.63L221.69 429.42L222.38 428.22L223.12 427.05L223.91 425.91L224.76 424.78L225.65 423.69L226.59 422.62L227.59 421.59L283.22 365.53L212.97 295.28L219.24 289.03L248.47 260.1L254.72 253.85L324.97 324.1L363.81 285.26L363.17 283.36L362.78 282.09L362.59 281.44L362.24 280.17L362.06 279.52L361.9 278.86L361.74 278.23L361.59 277.58L361.16 275.62L361.04 274.97L360.9 274.32L360.79 273.67L360.67 273L360.46 271.69L360.37 271.03L360.28 270.37L360.19 269.7L360.12 269.05L360.04 268.38L359.98 267.73L359.91 267.06L359.81 265.72L359.77 265.07L359.72 264.4L359.7 263.73L359.67 263.06L359.65 262.39L359.63 261.74L359.61 261.07L359.61 259.73L359.63 259.06L359.72 255.75L359.95 252.46L360.3 249.22L360.79 246.01L361.39 242.84L362.11 239.72L362.96 236.66L363.91 233.63L364.99 230.65L366.17 227.75L367.45 224.87L368.86 222.07L370.36 219.34L371.94 216.67L373.65 214.06L375.43 211.54L377.32 209.07L379.29 206.68L381.35 204.37L383.5 202.15L385.74 200L388.04 197.94L390.42 195.97L392.89 194.08L395.42 192.29L398.03 190.6L400.71 188.99L403.44 187.5L406.24 186.11L409.09 184.8L412.02 183.62L414.99 182.56L418.01 181.6L421.09 180.75L424.21 180.03L427.36 179.43L430.58 178.95L433.82 178.6L437.1 178.37L440.43 178.27L440.8 178.25L441.17 178.25L441.91 178.21L444.48 178.21L444.85 178.23L445.22 178.23ZM441.49 187.74L441.17 187.74L440.85 187.76L440.52 187.76L437.59 187.85L434.7 188.04L431.83 188.34L429.01 188.76L426.21 189.29L423.47 189.93L420.75 190.67L418.09 191.51L415.47 192.45L412.9 193.49L410.38 194.63L407.91 195.86L405.5 197.18L403.14 198.59L400.85 200.09L398.61 201.66L396.45 203.33L394.33 205.08L392.31 206.89L390.35 208.79L388.47 210.77L386.65 212.81L384.91 214.91L383.25 217.09L381.68 219.33L380.2 221.63L378.8 223.99L377.49 226.41L376.28 228.87L375.15 231.41L374.11 233.98L373.18 236.61L372.35 239.28L371.63 242L371.01 244.74L370.48 247.54L370.08 250.36L369.79 253.23L369.6 256.14L369.55 259.06L369.53 259.65L369.53 260.24L369.55 260.84L369.55 261.43L369.57 262.02L369.58 262.61L369.62 263.2L369.69 264.37L369.72 264.97L369.78 265.55L369.83 266.15L370.11 268.47L370.29 269.63L370.71 271.96L370.96 273.12L371.08 273.68L371.22 274.27L371.36 274.83L371.52 275.41L371.66 275.97L371.82 276.54L372 277.1L372.15 277.67L372.51 278.79L372.89 279.92L373.09 280.47L373.3 281.03L373.72 282.12L373.78 282.3L375.8 288.39L371.63 292.57L332.59 331.2L235.1 428.68L234.41 429.45L233.76 430.23L233.12 431.04L232.54 431.85L232 432.69L231.48 433.54L231.01 434.4L230.55 435.28L230.15 436.18L229.78 437.08L229.44 437.99L229.14 438.93L228.88 439.86L228.65 440.79L228.44 441.75L228.28 442.7L228.16 443.65L228.07 444.62L228.01 445.57L228 446.54L228.01 447.49L228.07 448.46L228.16 449.43L228.28 450.38L228.44 451.33L228.65 452.28L228.88 453.21L229.14 454.15L229.44 455.08L229.78 456L230.15 456.89L230.55 457.79L231.01 458.67L231.48 459.54L232 460.38L232.54 461.23L233.12 462.04L233.76 462.85L234.41 463.62L235.1 464.38L235.84 465.05L236.61 465.68L237.39 466.28L237.79 466.58L238.6 467.15L239.01 467.41L239.43 467.67L240.27 468.17L240.7 468.4L241.58 468.85L242.46 469.28L242.9 469.47L243.36 469.66L244.27 470.02L244.73 470.18L245.21 470.33L245.66 470.49L246.14 470.63L247.57 471L248.04 471.11L248.52 471.2L249.5 471.37L249.98 471.44L250.47 471.51L250.97 471.57L252.45 471.67L252.96 471.69L253.96 471.69L254.45 471.67L255.44 471.6L256.43 471.5L257.41 471.36L257.91 471.27L258.38 471.16L258.88 471.06L259.35 470.95L259.83 470.81L260.3 470.69L260.78 470.53L261.24 470.39L261.71 470.21L262.17 470.05L262.63 469.86L263.07 469.66L263.53 469.47L264.41 469.05L265.29 468.59L265.71 468.34L266.56 467.81L266.96 467.55L267.38 467.27L267.79 466.99L268.56 466.39L269.34 465.75L270.08 465.08L270.45 464.73L406.91 328.27L412.25 323.46L416.42 326.6L417.51 327.02L418.08 327.23L418.62 327.43L419.19 327.62L419.75 327.8L420.31 327.99L420.88 328.17L421.44 328.33L422 328.5L422.57 328.66L423.15 328.8L423.71 328.96L424.28 329.1L424.86 329.22L425.44 329.36L426 329.49L426.58 329.61L428.33 329.93L428.91 330.02L429.49 330.12L430.07 330.19L430.65 330.28L431.82 330.42L432.41 330.47L433 330.54L433.58 330.6L434.18 330.63L435.34 330.7L435.94 330.74L436.52 330.76L437.12 330.77L437.72 330.77L438.3 330.79L438.9 330.77L439.69 330.77L442.63 330.7L445.54 330.53L448.43 330.21L451.26 329.8L454.08 329.28L456.85 328.64L459.56 327.9L462.25 327.07L464.88 326.12L467.47 325.08L470 323.94L472.49 322.71L474.9 321.39L477.26 319.96L479.57 318.46L481.82 316.88L483.99 315.2L486.1 313.46L488.15 311.63L490.12 309.71L492 307.73L493.84 305.67L495.56 303.56L497.24 301.37L498.8 299.12L500.3 296.81L501.69 294.43L503.01 292L504.23 289.52L505.36 286.97L506.38 284.38L507.31 281.75L508.14 279.06L508.86 276.33L509.48 273.56L509.97 270.74L510.38 267.91L510.66 265.02L510.83 262.11L510.89 259.17L510.89 258.85L510.9 258.54L510.9 258.22L510.92 257.9L510.92 255.98L510.9 255.67L510.9 255.35L510.78 253.13L510.75 252.81L510.73 252.49L510.69 252.2L510.48 250.29L510.43 249.98L510.39 249.66L510.34 249.36L510.29 249.04L510.25 248.72L510.2 248.41L510.13 248.09L510.08 247.79L510.02 247.47L509.95 247.16L509.9 246.84L509.83 246.54L478.53 277.86L477.31 278.99L476.1 280.04L474.83 281.07L473.53 282.02L472.21 282.91L470.87 283.74L469.49 284.54L468.08 285.26L466.67 285.93L465.23 286.53L463.79 287.07L462.31 287.57L460.83 288.01L459.33 288.38L457.81 288.69L456.3 288.96L454.78 289.15L453.25 289.31L451.72 289.4L450.19 289.41L448.65 289.4L447.1 289.31L445.59 289.15L444.06 288.96L442.54 288.69L441.03 288.38L439.53 288.01L438.05 287.57L436.59 287.07L435.13 286.53L433.68 285.93L432.27 285.26L430.88 284.54L429.51 283.74L428.15 282.91L426.83 282.02L425.53 281.07L424.28 280.04L423.04 278.99L421.85 277.86L420.68 276.63L419.59 275.38L418.55 274.09L417.58 272.77L416.67 271.43L415.8 270.06L415.01 268.66L414.27 267.24L413.58 265.79L412.97 264.33L412.4 262.85L411.91 261.35L411.45 259.84L411.08 258.31L410.75 256.77L410.48 255.22L410.27 253.67L410.13 252.11L410.04 250.56L410.01 248.99L410.04 247.42L410.13 245.87L410.27 244.3L410.48 242.75L410.75 241.2L411.08 239.67L411.45 238.14L411.91 236.62L412.4 235.13L412.97 233.65L413.58 232.18L414.27 230.74L415.01 229.31L415.8 227.92L416.67 226.55L417.58 225.21L418.55 223.89L419.59 222.6L420.68 221.35L421.85 220.12L453.16 188.82L452.85 188.75L452.53 188.69L452.21 188.62L451.91 188.57L451.6 188.52L451.28 188.45L450.96 188.4L450.66 188.36L450.03 188.25L449.71 188.22L449.39 188.17L448.76 188.1L448.46 188.06L447.19 187.92L446.88 187.9L446.56 187.87L444.34 187.74L444.02 187.74L443.7 187.73L441.8 187.73L441.49 187.74ZM401.59 470.12L429.88 441.83L369.65 378.69L340.33 408.01L401.59 470.12ZM290.11 360.1L319.43 330.77L255.78 266.37L226.43 295.7L290.11 360.1Z" id="cMXp8E0dA"></path></defs><g><g><g><use xlink:href="#b2xKb9tii7" opacity="1" fill="#0cb29d" fill-opacity="1"></use><g><use xlink:href="#b2xKb9tii7" opacity="1" fill-opacity="0" stroke="#000000" stroke-width="1" stroke-opacity="0"></use></g></g><g><use xlink:href="#a5xSeeH62v" opacity="1" fill="#000000" fill-opacity="0"></use><g><use xlink:href="#a5xSeeH62v" opacity="1" fill-opacity="0" stroke="#000000" stroke-width="1" stroke-opacity="0"></use></g></g><g><use xlink:href="#bo2ViRkVV" opacity="1" fill="#ffffff" fill-opacity="1"></use><g><use xlink:href="#bo2ViRkVV" opacity="1" fill-opacity="0" stroke="#000000" stroke-width="1" stroke-opacity="0"></use></g></g><g><use xlink:href="#c6sWOSJPF" opacity="1" fill="#000000" fill-opacity="0"></use><g><use xlink:href="#c6sWOSJPF" opacity="1" fill-opacity="0" stroke="#000000" stroke-width="1" stroke-opacity="0"></use></g></g><g><use xlink:href="#f7Yr8Exws" opacity="1" fill="#ffffff" fill-opacity="1"></use><g><use xlink:href="#f7Yr8Exws" opacity="1" fill-opacity="0" stroke="#000000" stroke-width="1" stroke-opacity="0"></use></g></g><g><use xlink:href="#cMXp8E0dA" opacity="1" fill="#000000" fill-opacity="0"></use><g><use xlink:href="#cMXp8E0dA" opacity="1" fill-opacity="0" stroke="#000000" stroke-width="1" stroke-opacity="0"></use></g></g></g></g></svg>